# This file uses centimeters as units for non-parametric coordinates.

mtllib BoxyRock02COL.mtl
g default
v 5.604965 22.182043 25.070446
v 5.604965 10.890120 27.051834
v 5.604965 -2.992111 18.907042
v -6.979385 11.622883 19.694397
v -7.453058 23.647572 18.131861
v 5.604965 35.998219 15.362655
v 16.189613 20.716516 18.131861
v 18.642597 10.157355 19.694397
v -5.811132 -0.006423 24.351160
v 5.610343 -1.525154 26.204046
v -3.202830 35.227932 19.722574
v 5.688302 34.598442 21.545897
v -3.351074 35.422195 11.685811
v 5.770750 35.135216 11.641551
v -5.788832 0.009173 13.639178
v 5.601013 -1.521328 13.462137
v -5.379448 11.364964 24.900730
v 17.035379 -0.004416 24.358021
v 17.227255 10.245093 24.870430
v -4.381110 36.269600 15.479911
v 12.666503 31.102558 19.822313
v 13.716327 32.138512 15.475840
v -6.410005 23.802055 13.904847
v 12.820016 31.264294 11.619265
v 15.449273 20.146839 14.071125
v -7.071226 -1.087956 18.952503
v 17.009335 0.012026 13.646294
v 18.121944 -1.096979 18.955425
v -5.875317 23.743895 22.876457
v -5.920498 11.451750 15.072500
v 17.748325 10.237414 15.116634
v 14.705084 21.257072 22.827141
v 4.649069 29.902666 18.898577
v -5.412169 27.228745 -19.409374
v -15.025664 0.462456 13.578893
v 1.369729 -2.534939 17.490524
v 1.791033 0.050782 19.864637
v -7.944999 55.513485 13.797336
v 5.912206 56.878593 13.992242
v -19.125282 46.858635 -9.750694
v -8.464835 48.462685 -14.932656
v -19.877375 0.527941 -19.001381
v 0.053434 -1.511533 -21.398510
v -12.444710 30.644758 15.988952
v 19.802647 0.677977 19.068230
v 22.289743 29.978172 15.634668
v 19.673273 53.152332 9.998627
v -21.439177 28.582699 -14.176188
v 19.288467 0.071319 -19.586794
v 14.473648 30.146959 -20.735094
v 13.882464 48.305916 -10.285442
v 1.647946 47.568398 -16.729437
v 2.771679 15.926452 19.631262
v -14.382486 16.679453 14.833273
v -20.782784 16.085556 -17.283615
v -2.394721 14.595380 -21.332806
v 17.929150 15.906365 -20.376997
v 21.051834 16.748798 18.104635
v -20.438341 29.658501 3.325991
v -21.225382 15.940236 -1.591323
v -20.340263 -1.075480 -1.974916
v 1.061689 -3.810582 -2.820998
v 21.858509 -1.239445 -1.147370
v 22.737732 15.501682 -0.560145
v 22.084444 28.211191 -4.607745
v 17.884418 51.816658 -2.762923
v -1.008769 55.526226 -1.997370
v -16.634499 53.271057 2.122926
vt 0.209159 0.558502
vt 0.150447 0.582298
vt 0.129746 0.524502
vt 0.180964 0.500723
vt 0.117206 0.370293
vt 0.073800 0.393411
vt 0.062375 0.379661
vt 0.102933 0.356746
vt 0.231370 0.624260
vt 0.168392 0.643651
vt 0.160614 0.615544
vt 0.227094 0.591008
vt 0.054495 0.552941
vt 0.067809 0.611151
vt 0.041871 0.613580
vt 0.032898 0.555667
vt 0.262304 0.532637
vt 0.240342 0.550306
vt 0.203677 0.486671
vt 0.224393 0.475337
vt 0.092707 0.596978
vt 0.077533 0.547590
vt 0.039810 0.421020
vt 0.029964 0.403432
vt 0.106157 0.657520
vt 0.095343 0.628697
vt 0.190511 0.417032
vt 0.175660 0.430654
vt 0.137649 0.375096
vt 0.153670 0.363153
vt 0.043592 0.497960
vt 0.023727 0.500659
vt 0.013024 0.438264
vt 0.033110 0.435373
vt 0.108808 0.473262
vt 0.066638 0.493053
vt 0.055741 0.440448
vt 0.086989 0.416766
vt 0.157236 0.443487
vt 0.124648 0.393614
vt 0.213876 0.188868
vt 0.307834 0.166257
vt 0.313746 0.182813
vt 0.405374 0.171819
vt 0.329795 0.261334
vt 0.239665 0.282960
vt 0.663879 0.435828
vt 0.688711 0.328436
vt 0.740009 0.426757
vt 0.539699 0.159725
vt 0.542166 0.250910
vt 0.419811 0.251401
vt 0.764228 0.178804
vt 0.775250 0.260459
vt 0.674825 0.259899
vt 0.670215 0.180859
vt 0.566066 0.514625
vt 0.386199 0.450574
vt 0.451146 0.426497
vt 0.554433 0.478806
vt 0.518492 0.099777
vt 0.523481 0.084705
vt 0.553568 0.291794
vt 0.536383 0.186603
vt 0.527433 0.077988
vt 0.873212 0.273540
vt 0.864313 0.186620
vt 0.322547 0.466018
vt 0.570961 0.540952
vt 0.434981 0.312921
vt 0.565141 0.317093
vt 0.566791 0.443557
vt 0.351129 0.327016
vt 0.269300 0.350654
vt 0.588271 0.504921
vt 0.586637 0.373217
vt 0.861191 0.462272
vt 0.791233 0.444625
vt 0.787740 0.326459
vt 0.877897 0.346371
vn -0.203163 -0.087337 0.975242
vn -0.003908 -0.103066 0.994667
vn 0.004106 0.067023 0.997743
vn -0.190404 0.066008 0.979484
vn -0.032855 0.999459 0.001260
vn 0.232135 0.972667 0.005676
vn 0.244442 0.936099 -0.252917
vn 0.003389 0.967021 -0.254675
vn -0.163756 -0.924387 -0.344518
vn -0.000080 -0.935747 -0.352673
vn 0.000247 -0.999999 0.001691
vn -0.198557 -0.980088 0.001500
vn 0.993842 0.109752 0.015249
vn 0.995284 -0.096747 -0.007075
vn 0.973475 -0.069066 -0.218120
vn 0.972299 0.102632 -0.210001
vn -0.968957 -0.010786 -0.246995
vn -0.999292 -0.036827 -0.007766
vn -0.999867 0.007407 0.014526
vn -0.969539 0.001440 -0.244932
vn -0.003908 -0.103066 0.994667
vn 0.194664 -0.094615 0.976296
vn 0.214925 0.071684 0.973996
vn 0.004106 0.067023 0.997743
vn 0.244442 0.936099 -0.252917
vn 0.232135 0.972667 0.005676
vn 0.489315 0.872099 0.003831
vn 0.463183 0.841611 -0.277762
vn 0.000247 -0.999999 0.001691
vn -0.000080 -0.935747 -0.352673
vn 0.164501 -0.923257 -0.347183
vn 0.196105 -0.980582 0.001553
vn -0.960733 0.049985 -0.272934
vn -0.996864 0.078797 0.007328
vn -0.960697 0.275812 -0.031452
vn -0.928166 0.219744 -0.300368
vn 0.976604 0.214861 0.008883
vn 0.958647 0.167165 -0.230332
vn 0.947235 0.188542 -0.259224
vn 0.968605 0.246739 -0.030394
vn 0.020466 0.196722 0.980246
vn 0.259091 0.218406 0.940835
vn 0.315198 0.288869 0.903994
vn 0.021429 0.294415 0.955437
vn -0.195947 0.193747 0.961284
vn 0.020466 0.196722 0.980246
vn 0.021429 0.294415 0.955437
vn -0.177233 0.293983 0.939235
vn -0.969539 0.001440 -0.244932
vn -0.999867 0.007407 0.014526
vn -0.996864 0.078797 0.007328
vn -0.960733 0.049985 -0.272934
vn 0.993842 0.109752 0.015249
vn 0.972299 0.102632 -0.210001
vn 0.958647 0.167165 -0.230332
vn 0.976604 0.214861 0.008883
vn 0.004106 0.067023 0.997743
vn 0.214925 0.071684 0.973996
vn 0.259091 0.218406 0.940835
vn 0.020466 0.196722 0.980246
vn -0.190404 0.066008 0.979484
vn 0.004106 0.067023 0.997743
vn 0.020466 0.196722 0.980246
vn -0.195947 0.193747 0.961284
vn -0.000367 -0.948361 0.317194
vn 0.000247 -0.999999 0.001691
vn 0.196105 -0.980582 0.001553
vn 0.184342 -0.938886 0.290708
vn -0.198557 -0.980088 0.001500
vn 0.000247 -0.999999 0.001691
vn -0.000367 -0.948361 0.317194
vn -0.183051 -0.939296 0.290198
vn -0.999867 0.007407 0.014526
vn -0.999292 -0.036827 -0.007766
vn -0.935350 -0.028130 0.352604
vn -0.919428 0.025437 0.392435
vn -0.996864 0.078797 0.007328
vn -0.999867 0.007407 0.014526
vn -0.919428 0.025437 0.392435
vn -0.903086 0.138905 0.406375
vn -0.960697 0.275812 -0.031452
vn -0.996864 0.078797 0.007328
vn -0.903086 0.138905 0.406375
vn -0.860120 0.317834 0.398967
vn -0.007756 0.953141 0.302427
vn 0.229921 0.910870 0.342712
vn 0.232135 0.972667 0.005676
vn -0.032855 0.999459 0.001260
vn 0.489315 0.872099 0.003831
vn 0.232135 0.972667 0.005676
vn 0.229921 0.910870 0.342712
vn 0.470363 0.821038 0.323505
vn 0.894099 0.263474 0.362173
vn 0.976604 0.214861 0.008883
vn 0.968605 0.246739 -0.030394
vn 0.890263 0.290794 0.350529
vn 0.929034 0.120383 0.349862
vn 0.993842 0.109752 0.015249
vn 0.976604 0.214861 0.008883
vn 0.894099 0.263474 0.362173
vn 0.940888 -0.082055 0.328628
vn 0.995284 -0.096747 -0.007075
vn 0.993842 0.109752 0.015249
vn 0.929034 0.120383 0.349862
vn -0.174595 -0.965348 0.193957
vn -0.018202 -0.977075 0.212116
vn -0.136367 -0.110150 0.984516
vn -0.136367 -0.110150 0.984516
vn -0.018202 -0.977075 0.212116
vn 0.089000 -0.066354 0.993819
vn -0.339987 -0.120212 0.932715
vn -0.136367 -0.110150 0.984516
vn -0.100060 0.040118 0.994172
vn -0.302736 0.008064 0.953040
vn 0.475545 0.515955 -0.712494
vn 0.383238 0.384447 -0.839839
vn 0.258827 0.486036 -0.834732
vn 0.968287 -0.137216 0.208785
vn 0.985940 -0.166280 -0.016536
vn 0.998107 -0.026420 -0.055531
vn 0.984325 -0.011562 0.175982
vn -0.033453 -0.086090 -0.995726
vn -0.077031 0.076933 -0.994056
vn 0.092042 0.045919 -0.994696
vn 0.144731 -0.094557 -0.984943
vn -0.001878 0.939841 -0.341606
vn 0.084837 0.996370 -0.006990
vn 0.272975 0.959307 -0.072211
vn 0.233274 0.911097 -0.339832
vn -0.213671 -0.975703 -0.048464
vn 0.001683 -0.996947 -0.078065
vn -0.018202 -0.977075 0.212116
vn -0.174595 -0.965348 0.193957
vn -0.876483 0.011781 0.481289
vn -0.970401 0.033765 0.239129
vn -0.963533 -0.103218 0.246880
vn -0.899040 -0.085322 0.429473
vn -0.018202 -0.977075 0.212116
vn 0.001683 -0.996947 -0.078065
vn 0.189518 -0.981378 -0.031319
vn 0.161708 -0.966835 0.197686
vn 0.140971 0.073232 0.987302
vn -0.100060 0.040118 0.994172
vn -0.136367 -0.110150 0.984516
vn 0.089000 -0.066354 0.993819
vn -0.260688 0.122946 -0.957563
vn -0.077031 0.076933 -0.994056
vn -0.033453 -0.086090 -0.995726
vn -0.215522 -0.035432 -0.975856
vn -0.140319 0.989904 0.020036
vn 0.084837 0.996370 -0.006990
vn -0.001878 0.939841 -0.341606
vn -0.266961 0.932664 -0.242631
vn 0.993785 0.075828 0.081500
vn 0.977981 0.051032 -0.202360
vn 0.963795 0.174346 -0.201750
vn 0.982238 0.186519 0.020458
vn 0.077360 0.220972 0.972207
vn 0.018381 0.118413 0.992794
vn 0.268251 0.158037 0.950298
vn 0.304258 0.239672 0.921946
vn -0.197111 0.084893 0.976699
vn 0.018381 0.118413 0.992794
vn 0.077360 0.220972 0.972207
vn -0.135729 0.180050 0.974248
vn -0.862194 0.208712 0.461585
vn -0.916729 0.094603 0.388147
vn -0.795663 0.104070 0.596733
vn -0.748196 0.229957 0.622352
vn -0.438874 0.241129 -0.865590
vn -0.241025 0.217286 -0.945882
vn -0.174877 0.130151 -0.975950
vn -0.373954 0.171590 -0.911436
vn -0.026663 0.092380 -0.995367
vn -0.174877 0.130151 -0.975950
vn -0.241025 0.217286 -0.945882
vn -0.116345 0.188645 -0.975129
vn -0.302736 0.008064 0.953040
vn -0.100060 0.040118 0.994172
vn 0.018381 0.118413 0.992794
vn -0.197111 0.084893 0.976699
vn -0.795663 0.104070 0.596733
vn -0.916729 0.094603 0.388147
vn -0.970401 0.033765 0.239129
vn -0.876483 0.011781 0.481289
vn -0.373954 0.171590 -0.911436
vn -0.174877 0.130151 -0.975950
vn -0.077031 0.076933 -0.994056
vn -0.260688 0.122946 -0.957563
vn 0.092042 0.045919 -0.994696
vn -0.077031 0.076933 -0.994056
vn -0.174877 0.130151 -0.975950
vn -0.026663 0.092380 -0.995367
vn 0.984325 -0.011562 0.175982
vn 0.998107 -0.026420 -0.055531
vn 0.977981 0.051032 -0.202360
vn 0.993785 0.075828 0.081500
vn 0.268251 0.158037 0.950298
vn 0.018381 0.118413 0.992794
vn -0.100060 0.040118 0.994172
vn 0.140971 0.073232 0.987302
vn -0.992038 0.012267 -0.125337
vn -0.989796 -0.021442 0.140868
vn -0.965052 0.042217 0.258636
vn -0.995412 0.076304 -0.057739
vn -0.978979 -0.122479 -0.163092
vn -0.982856 -0.158410 0.094338
vn -0.989796 -0.021442 0.140868
vn -0.992038 0.012267 -0.125337
vn -0.176719 -0.963991 -0.198726
vn -0.008393 -0.977078 -0.212716
vn -0.002432 -0.997573 0.069582
vn -0.180442 -0.981162 0.069010
vn -0.008393 -0.977078 -0.212716
vn 0.161952 -0.968966 -0.186751
vn 0.177092 -0.981669 0.070457
vn -0.002432 -0.997573 0.069582
vn 0.941730 0.078708 -0.327032
vn 0.994012 0.078824 -0.075679
vn 0.994413 -0.075620 -0.073652
vn 0.962228 -0.046977 -0.268161
vn 0.878246 0.171773 -0.446293
vn 0.964480 0.149849 -0.217541
vn 0.994012 0.078824 -0.075679
vn 0.941730 0.078708 -0.327032
vn 0.932873 0.264008 -0.245048
vn 0.964480 0.149849 -0.217541
vn 0.878246 0.171773 -0.446293
vn 0.829359 0.273683 -0.487095
vn 0.101956 0.843398 -0.527528
vn -0.213115 0.853235 -0.475995
vn -0.020971 0.979004 -0.202758
vn -0.269320 0.943294 -0.194068
vn -0.020971 0.979004 -0.202758
vn -0.213115 0.853235 -0.475995
vn -0.336509 0.842288 -0.421085
vn -0.995412 0.076304 -0.057739
vn -0.965052 0.042217 0.258636
vn -0.947423 0.224728 0.227787
vn -0.986431 0.164164 0.001795
vn 0.101956 0.843398 -0.527528
vn -0.020971 0.979004 -0.202758
vn 0.225908 0.958809 -0.172196
vn 0.177587 0.845084 -0.504277
s off
g BoxyRock02COL:pCube17
usemtl lambert2SG
f 9/1/1 10/2/2 2/3/3 17/4/4
f 20/5/5 6/6/6 14/7/7 13/8/8
f 15/9/9 16/10/10 3/11/11 26/12/12
f 8/13/13 28/14/14 27/15/15 31/16/16
f 15/17/17 26/18/18 4/19/19 30/20/20
f 10/2/21 18/21/22 19/22/23 2/3/24
f 14/7/25 6/6/26 22/23/27 24/24/28
f 3/11/29 16/10/30 27/25/31 28/26/32
f 23/27/33 5/28/34 20/29/35 13/30/36
f 7/31/37 25/32/38 24/33/39 22/34/40
f 1/35/41 32/36/42 21/37/43 12/38/44
f 29/39/45 1/35/46 12/38/47 11/40/48
f 30/20/49 4/19/50 5/28/51 23/27/52
f 8/13/53 31/16/54 25/32/55 7/31/56
f 2/3/57 19/22/58 32/36/59 1/35/60
f 17/4/61 2/3/62 1/35/63 29/39/64
f 10/2/65 3/11/66 28/26/67 18/21/68
f 26/12/69 3/11/70 10/2/71 9/1/72
f 4/19/73 26/18/74 9/1/75 17/4/76
f 5/28/77 4/19/78 17/4/79 29/39/80
f 20/29/81 5/28/82 29/39/83 11/40/84
f 11/40/85 12/38/86 6/6/87 20/5/88
f 22/23/89 6/6/90 12/38/91 21/37/92
f 32/36/93 7/31/94 22/34/95 21/37/96
f 19/22/97 8/13/98 7/31/99 32/36/100
f 18/21/101 28/14/102 8/13/103 19/22/104
f 35/41/105 36/42/106 37/43/107
f 37/43/108 36/42/109 45/44/110
f 35/41/111 37/43/112 53/45/113 54/46/114
f 51/47/115 50/48/116 52/49/117
f 45/44/118 63/50/119 64/51/120 58/52/121
f 43/53/122 56/54/123 57/55/124 49/56/125
f 67/57/126 39/58/127 47/59/128 66/60/129
f 61/61/130 62/62/131 36/42/132 35/41/133
f 54/46/134 60/63/135 61/64/136 35/41/137
f 36/42/138 62/62/139 63/65/140 45/44/141
f 58/52/142 53/45/143 37/43/144 45/44/145
f 55/66/146 56/54/147 43/53/148 42/67/149
f 38/68/150 39/58/151 67/57/152 68/69/153
f 46/70/154 65/71/155 66/72/156 47/59/157
f 39/58/158 33/73/159 46/70/160 47/59/161
f 44/74/162 33/73/163 39/58/164 38/68/165
f 68/75/166 59/76/167 44/74/168 38/68/169
f 40/77/170 41/78/171 34/79/172 48/80/173
f 50/48/174 34/79/175 41/78/176 52/49/177
f 54/46/178 53/45/179 33/73/180 44/74/181
f 44/74/182 59/76/183 60/63/184 54/46/185
f 48/80/186 34/79/187 56/54/188 55/66/189
f 57/55/190 56/54/191 34/79/192 50/48/193
f 58/52/194 64/51/195 65/71/196 46/70/197
f 46/70/198 33/73/199 53/45/200 58/52/201
f 55/66/202 60/63/203 59/76/204 48/80/205
f 42/67/206 61/64/207 60/63/208 55/66/209
f 42/67/210 43/53/211 62/62/212 61/61/213
f 43/53/214 49/56/215 63/65/216 62/62/217
f 57/55/218 64/51/219 63/50/220 49/56/221
f 50/48/222 65/71/223 64/51/224 57/55/225
f 66/72/226 65/71/227 50/48/228 51/47/229
f 52/49/230 41/78/231 67/57/232
f 68/69/233 67/57/234 41/78/235 40/77/236
f 48/80/237 59/76/238 68/75/239 40/77/240
f 52/49/241 67/57/242 66/60/243 51/47/244
