# This file uses centimeters as units for non-parametric coordinates.

mtllib DesertCanyonRiver.mtl
g default
v 96.803497 -0.700482 -144.766861
v 80.505402 -0.700482 -128.523499
v 56.987640 -0.700482 -175.566498
v 43.815186 -0.700482 -156.558685
v 126.495819 -0.700482 -108.497330
v 111.529053 -0.700482 -91.091438
v 162.539459 -0.700481 -87.965042
v 150.140778 -0.700481 -68.640121
v 181.878937 -0.700481 -75.731934
v 167.834503 -0.700481 -57.539013
v 212.971863 -0.700481 -13.901588
v 230.370483 -0.700481 -29.136511
v -124.048538 -0.700482 -134.555679
v -106.156570 -0.700482 -119.903442
v -157.167679 -0.700482 -96.177902
v -139.675674 -0.700482 -81.074478
v -87.862839 -0.700482 -145.434814
v -103.875198 -0.700482 -162.120621
v -70.374908 -0.700482 -180.659302
v -63.553467 -0.700482 -158.620346
v -33.494202 -0.700482 -184.676544
v -32.491669 -0.700482 -162.670685
v 27.920258 -0.700482 -182.782318
v 23.462189 -0.700482 -161.754349
v -295.727234 -0.700482 -8.207590
v -300.288330 -0.700482 3.776298
v -303.834473 -0.700482 13.132249
v -274.400848 -0.700482 9.511361
v -272.749756 -0.700482 -3.423864
v -275.632538 -0.700482 19.222567
v -320.748596 -0.700482 -19.853855
v -324.717834 -0.700482 -7.890148
v -327.919769 -0.700482 1.817401
v -353.114563 -0.700482 -21.730902
v -350.210510 -0.700482 -9.688630
v -347.744141 -0.700482 0.454423
v -398.532684 -0.700482 -5.391885
v -393.892517 -0.700482 5.858912
v -389.811951 -0.700482 15.701887
v -202.522934 -0.700482 -59.674042
v -185.430908 -0.700482 -44.119431
v -237.508652 -0.700482 -17.674103
v -220.816620 -0.700482 -1.668303
v -253.054535 -0.700482 18.413351
v -252.831543 -0.700482 8.843295
v -252.522766 -0.700482 -4.411003
v -205.978745 -0.700482 24.742689
v -213.827057 -0.700482 32.837742
v -223.121948 -0.700482 7.555535
v -231.597443 -0.700482 19.127899
v -228.363892 -0.700482 1.960470
v 249.595093 -0.700481 -30.886913
v 248.751709 -0.700481 -13.370911
v 247.908264 -0.700482 1.288588
v 247.064819 -0.700482 15.948087
v 246.221375 -0.700482 32.505341
v 229.527039 -0.700481 -14.477013
v 228.683594 -0.700482 0.182484
v 227.840149 -0.700482 14.841980
v 226.996704 -0.700482 29.501476
v 218.642334 -0.700482 24.390366
v 209.782410 -0.700482 0.051773
v 210.832336 -0.700481 -6.924909
v 212.356812 -0.700482 15.039389
vt 0.041347 0.546337
vt 0.067838 0.541799
vt 0.067898 0.607907
vt 0.041828 0.609378
vt 0.041828 0.609378
vt 0.067898 0.607907
vt 0.068391 0.666527
vt 0.045431 0.666845
vt 0.045431 0.666845
vt 0.068391 0.666527
vt 0.065407 0.717161
vt 0.044419 0.712403
vt 0.044419 0.712403
vt 0.065407 0.717161
vt 0.063751 0.745955
vt 0.045350 0.745250
vt 0.045350 0.745250
vt 0.063751 0.745955
vt 0.062402 0.864539
vt 0.047209 0.873354
vt 0.044970 0.301742
vt 0.066419 0.303339
vt 0.067296 0.350073
vt 0.044476 0.348138
vt 0.044476 0.348138
vt 0.067296 0.350073
vt 0.063811 0.378460
vt 0.042937 0.376233
vt 0.042937 0.376233
vt 0.063811 0.378460
vt 0.067939 0.412299
vt 0.045490 0.413650
vt 0.045490 0.413650
vt 0.067939 0.412299
vt 0.068105 0.442580
vt 0.043840 0.443782
vt 0.043840 0.443782
vt 0.068105 0.442580
vt 0.067213 0.515464
vt 0.044120 0.515108
vt 0.044120 0.515108
vt 0.067213 0.515464
vt 0.067838 0.541799
vt 0.041347 0.546337
vt 0.061849 0.110606
vt 0.061867 0.136129
vt 0.050624 0.136583
vt 0.050983 0.111357
vt 0.070117 0.110047
vt 0.070016 0.135806
vt 0.062339 0.085229
vt 0.061849 0.110606
vt 0.050983 0.111357
vt 0.051683 0.086194
vt 0.071014 0.084200
vt 0.070117 0.110047
vt 0.062537 0.061503
vt 0.062339 0.085229
vt 0.051683 0.086194
vt 0.052419 0.060328
vt 0.071070 0.062197
vt 0.071014 0.084200
vt 0.062533 0.021139
vt 0.062537 0.061503
vt 0.052419 0.060328
vt 0.053168 0.021057
vt 0.071095 0.021229
vt 0.071070 0.062197
vt 0.048365 0.189124
vt 0.067075 0.190045
vt 0.066285 0.248375
vt 0.046201 0.247116
vt 0.046201 0.247116
vt 0.066285 0.248375
vt 0.066419 0.303339
vt 0.044970 0.301742
vt 0.070016 0.135806
vt 0.073856 0.155867
vt 0.062487 0.156124
vt 0.061867 0.136129
vt 0.046763 0.156714
vt 0.050624 0.136583
vt 0.067281 0.200633
vt 0.072731 0.199655
vt 0.072578 0.238829
vt 0.068440 0.240179
vt 0.046763 0.156714
vt 0.065378 0.183603
vt 0.067075 0.190045
vt 0.048365 0.189124
vt 0.047209 0.873354
vt 0.055788 0.892837
vt 0.042114 0.918545
vt 0.022317 0.887643
vt 0.058783 0.941482
vt 0.072469 0.915335
vt 0.075452 0.960344
vt 0.089147 0.933910
vt 0.094201 0.975697
vt 0.105810 0.947639
vt 0.047209 0.873354
vt 0.062402 0.864539
vt 0.078532 0.875080
vt 0.055788 0.892837
vt 0.072469 0.915335
vt 0.086969 0.883576
vt 0.101349 0.907895
vt 0.089147 0.933910
vt 0.106698 0.929166
vt 0.105810 0.947639
vt 0.062487 0.156124
vt 0.073856 0.155867
vt 0.065378 0.183603
vt 0.046763 0.156714
vt 0.072731 0.199655
vt 0.067281 0.200633
vn 0.000000 1.000000 0.000000
vn 0.000000 1.000000 0.000000
vn 0.000000 1.000000 0.000000
vn 0.000000 1.000000 0.000000
vn 0.000000 1.000000 0.000000
vn 0.000000 1.000000 0.000000
vn 0.000000 1.000000 0.000000
vn 0.000000 1.000000 0.000000
vn 0.000000 1.000000 0.000000
vn 0.000000 1.000000 0.000000
vn 0.000000 1.000000 0.000000
vn 0.000000 1.000000 0.000000
vn 0.000000 1.000000 0.000000
vn 0.000000 1.000000 0.000000
vn 0.000000 1.000000 0.000000
vn 0.000000 1.000000 0.000000
vn 0.000000 1.000000 0.000000
vn 0.000000 1.000000 0.000000
vn 0.000000 1.000000 0.000000
vn 0.000000 1.000000 0.000000
vn 0.000000 1.000000 0.000000
vn 0.000000 1.000000 0.000000
vn 0.000000 1.000000 0.000000
vn 0.000000 1.000000 0.000000
vn 0.000000 1.000000 0.000000
vn 0.000000 1.000000 0.000000
vn 0.000000 1.000000 0.000000
vn 0.000000 1.000000 0.000000
vn 0.000000 1.000000 0.000000
vn 0.000000 1.000000 0.000000
vn 0.000000 1.000000 0.000000
vn 0.000000 1.000000 0.000000
vn 0.000000 1.000000 0.000000
vn 0.000000 1.000000 0.000000
vn 0.000000 1.000000 0.000000
vn 0.000000 1.000000 0.000000
vn 0.000000 1.000000 0.000000
vn 0.000000 1.000000 0.000000
vn 0.000000 1.000000 0.000000
vn 0.000000 1.000000 0.000000
vn 0.000000 1.000000 0.000000
vn 0.000000 1.000000 0.000000
vn 0.000000 1.000000 0.000000
vn 0.000000 1.000000 0.000000
vn 0.000000 1.000000 0.000000
vn 0.000000 1.000000 0.000000
vn 0.000000 1.000000 0.000000
vn 0.000000 1.000000 0.000000
vn 0.000000 1.000000 0.000000
vn 0.000000 1.000000 0.000000
vn 0.000000 1.000000 0.000000
vn 0.000000 1.000000 0.000000
vn 0.000000 1.000000 0.000000
vn 0.000000 1.000000 0.000000
vn 0.000000 1.000000 0.000000
vn 0.000000 1.000000 0.000000
vn 0.000000 1.000000 0.000000
vn 0.000000 1.000000 0.000000
vn 0.000000 1.000000 0.000000
vn 0.000000 1.000000 0.000000
vn 0.000000 1.000000 0.000000
vn 0.000000 1.000000 0.000000
vn 0.000000 1.000000 0.000000
vn 0.000000 1.000000 0.000000
vn 0.000000 1.000000 0.000000
vn 0.000000 1.000000 0.000000
vn 0.000000 1.000000 0.000000
vn 0.000000 1.000000 0.000000
vn 0.000000 1.000000 0.000000
vn 0.000000 1.000000 0.000000
vn 0.000000 1.000000 0.000000
vn 0.000000 1.000000 0.000000
vn 0.000000 1.000000 0.000000
vn 0.000000 1.000000 0.000000
vn 0.000000 1.000000 0.000000
vn 0.000000 1.000000 0.000000
vn 0.000000 1.000000 0.000000
vn 0.000000 1.000000 0.000000
vn 0.000000 1.000000 0.000000
vn 0.000000 1.000000 0.000000
vn 0.000000 1.000000 0.000000
vn 0.000000 1.000000 0.000000
vn 0.000000 1.000000 0.000000
vn 0.000000 1.000000 0.000000
vn 0.000000 1.000000 0.000000
vn 0.000000 1.000000 0.000000
vn 0.000000 1.000000 0.000000
vn 0.000000 1.000000 0.000000
vn 0.000000 1.000000 0.000000
vn 0.000000 1.000000 0.000000
vn 0.000000 1.000000 0.000000
vn 0.000000 1.000000 0.000000
vn 0.000000 1.000000 0.000000
vn 0.000000 1.000000 0.000000
vn 0.000000 1.000000 0.000000
vn 0.000000 1.000000 0.000000
vn 0.000000 1.000000 0.000000
vn 0.000000 1.000000 0.000000
vn 0.000000 1.000000 0.000000
vn 0.000000 1.000000 0.000000
vn 0.000000 1.000000 0.000000
vn 0.000000 1.000000 0.000000
vn 0.000000 1.000000 0.000000
vn 0.000000 1.000000 0.000000
vn 0.000000 1.000000 0.000000
vn 0.000000 1.000000 0.000000
vn 0.000000 1.000000 0.000000
vn 0.000000 1.000000 0.000000
vn 0.000000 1.000000 0.000000
vn 0.000000 1.000000 0.000000
vn 0.000000 1.000000 0.000000
vn 0.000000 1.000000 0.000000
vn 0.000000 1.000000 0.000000
vn 0.000000 1.000000 0.000000
vn 0.000000 1.000000 0.000000
vn 0.000000 1.000000 0.000000
vn 0.000000 1.000000 0.000000
vn 0.000000 1.000000 0.000000
vn 0.000000 1.000000 0.000000
vn 0.000000 1.000000 0.000000
vn 0.000000 1.000000 0.000000
vn 0.000000 1.000000 0.000000
vn 0.000000 1.000000 0.000000
vn 0.000000 1.000000 0.000000
vn 0.000000 1.000000 0.000000
vn 0.000000 1.000000 0.000000
vn 0.000000 1.000000 0.000000
vn 0.000000 1.000000 0.000000
vn 0.000000 1.000000 0.000000
vn 0.000000 1.000000 0.000000
vn 0.000000 1.000000 0.000000
vn 0.000000 1.000000 0.000000
vn 0.000000 1.000000 0.000000
vn 0.000000 1.000000 0.000000
vn 0.000000 1.000000 0.000000
vn 0.000000 1.000000 0.000000
vn 0.000000 1.000000 0.000000
vn 0.000000 1.000000 0.000000
vn 0.000000 1.000000 0.000000
vn 0.000000 1.000000 0.000000
vn 0.000000 1.000000 0.000000
vn 0.000000 1.000000 0.000000
s off
g polySurface45
usemtl initialShadingGroup
f 3/1/1 4/2/2 2/3/3 1/4/4
f 1/5/5 2/6/6 6/7/7 5/8/8
f 5/9/9 6/10/10 8/11/11 7/12/12
f 7/13/13 8/14/14 10/15/15 9/16/16
f 9/17/17 10/18/18 11/19/19 12/20/20
f 15/21/21 16/22/22 14/23/23 13/24/24
f 13/25/25 14/26/26 17/27/27 18/28/28
f 18/29/29 17/30/30 20/31/31 19/32/32
f 19/33/33 20/34/34 22/35/35 21/36/36
f 21/37/37 22/38/38 24/39/39 23/40/40
f 23/41/41 24/42/42 4/43/43 3/44/44
f 26/45/45 28/46/46 29/47/47 25/48/48
f 27/49/49 30/50/50 28/46/51 26/45/52
f 32/51/53 26/52/54 25/53/55 31/54/56
f 33/55/57 27/56/58 26/52/59 32/51/60
f 35/57/61 32/58/62 31/59/63 34/60/64
f 36/61/65 33/62/66 32/58/67 35/57/68
f 38/63/69 35/64/70 34/65/71 37/66/72
f 39/67/73 36/68/74 35/64/75 38/63/76
f 42/69/77 43/70/78 41/71/79 40/72/80
f 40/73/81 41/74/82 16/75/83 15/76/84
f 30/77/85 44/78/86 45/79/87 28/80/88
f 28/80/89 45/79/90 46/81/91 29/82/92
f 49/83/93 50/84/94 48/85/95 47/86/96
f 46/87/97 51/88/98 43/89/99 42/90/100
f 12/91/101 57/92/102 53/93/103 52/94/104
f 54/95/105 53/93/106 57/92/107 58/96/108
f 55/97/109 54/95/110 58/96/111 59/98/112
f 56/99/113 55/97/114 59/98/115 60/100/116
f 12/101/117 11/102/118 63/103/119 57/104/120
f 58/105/121 62/106/122 64/107/123 59/108/124
f 57/104/125 63/103/126 62/106/127 58/105/128
f 59/108/129 64/107/130 61/109/131 60/110/132
f 45/111/133 44/112/134 51/113/135
f 46/114/136 45/111/137 51/113/138
f 51/113/139 44/112/140 50/115/141 49/116/142
