# This file uses centimeters as units for non-parametric coordinates.

mtllib BugEvidence_pancake02COL.mtl
g default
v 2.330095 0.000000 2.418052
v 2.640780 0.000000 -0.502468
v 0.620943 0.000000 -2.194124
v -1.709579 0.000000 -0.965260
v -2.020263 0.000000 1.955259
v -0.000427 0.000000 3.646915
v 2.059487 0.413672 2.191413
v 2.328549 0.413672 -0.337832
v 0.579320 0.413672 -1.802849
v -1.438971 0.413672 -0.738620
v -1.708031 0.413672 1.790623
v 0.041197 0.413672 3.255639
v 1.320177 0.716500 1.572224
v 1.475519 0.716500 0.111964
v 0.465601 0.716500 -0.733863
v -0.699660 0.716500 -0.119432
v -0.855003 0.716500 1.340828
v 0.154915 0.716500 2.186655
v 0.310258 0.827342 0.726396
vt 0.000000 0.500000
vt 0.166667 0.500000
vt 0.166667 0.666667
vt 0.000000 0.666667
vt 0.333333 0.500000
vt 0.333333 0.666667
vt 0.500000 0.500000
vt 0.500000 0.666667
vt 0.666667 0.500000
vt 0.666667 0.666667
vt 0.833333 0.500000
vt 0.833333 0.666667
vt 1.000000 0.500000
vt 1.000000 0.666667
vt 0.166667 0.833333
vt 0.000000 0.833333
vt 0.333333 0.833333
vt 0.500000 0.833333
vt 0.666667 0.833333
vt 0.833333 0.833333
vt 1.000000 0.833333
vt 0.083333 1.000000
vt 0.250000 1.000000
vt 0.416667 1.000000
vt 0.583333 1.000000
vt 0.750000 1.000000
vt 0.916667 1.000000
vn 0.811404 0.578077 0.086317
vn 0.811404 0.578077 0.086317
vn 0.811404 0.578077 0.086317
vn 0.811404 0.578077 0.086317
vn 0.503890 0.619774 -0.601644
vn 0.503890 0.619774 -0.601644
vn 0.503890 0.619774 -0.601644
vn 0.503890 0.619774 -0.601644
vn -0.366039 0.619774 -0.694187
vn -0.366039 0.619774 -0.694187
vn -0.366039 0.619774 -0.694187
vn -0.366039 0.619774 -0.694187
vn -0.811404 0.578077 -0.086317
vn -0.811404 0.578077 -0.086317
vn -0.811404 0.578077 -0.086317
vn -0.811403 0.578078 -0.086317
vn -0.503890 0.619774 0.601644
vn -0.503890 0.619774 0.601644
vn -0.503890 0.619774 0.601644
vn -0.503890 0.619774 0.601644
vn 0.366039 0.619774 0.694187
vn 0.366039 0.619774 0.694187
vn 0.366039 0.619774 0.694187
vn 0.366039 0.619774 0.694187
vn 0.351779 0.935335 0.037422
vn 0.351779 0.935335 0.037422
vn 0.351779 0.935335 0.037422
vn 0.351779 0.935335 0.037422
vn 0.206298 0.946978 -0.246320
vn 0.206298 0.946978 -0.246320
vn 0.206298 0.946978 -0.246320
vn 0.206298 0.946978 -0.246320
vn -0.149861 0.946978 -0.284208
vn -0.149861 0.946978 -0.284208
vn -0.149861 0.946978 -0.284208
vn -0.149861 0.946978 -0.284208
vn -0.351779 0.935335 -0.037422
vn -0.351779 0.935335 -0.037422
vn -0.351779 0.935335 -0.037422
vn -0.351779 0.935335 -0.037422
vn -0.206298 0.946978 0.246320
vn -0.206298 0.946978 0.246320
vn -0.206298 0.946978 0.246320
vn -0.206298 0.946978 0.246320
vn 0.149861 0.946978 0.284208
vn 0.149861 0.946978 0.284208
vn 0.149861 0.946978 0.284208
vn 0.149861 0.946978 0.284208
vn 0.100262 0.994904 0.010666
vn 0.100262 0.994904 0.010666
vn 0.100262 0.994904 0.010666
vn 0.058133 0.995893 -0.069411
vn 0.058133 0.995893 -0.069411
vn 0.058133 0.995893 -0.069411
vn -0.042229 0.995893 -0.080087
vn -0.042229 0.995893 -0.080087
vn -0.042229 0.995893 -0.080087
vn -0.100262 0.994904 -0.010666
vn -0.100262 0.994904 -0.010666
vn -0.100262 0.994904 -0.010666
vn -0.058133 0.995893 0.069411
vn -0.058133 0.995893 0.069411
vn -0.058133 0.995893 0.069411
vn 0.042229 0.995893 0.080087
vn 0.042229 0.995893 0.080087
vn 0.042229 0.995893 0.080087
s off
g pSphere1
usemtl initialShadingGroup
f 1/1/1 2/2/2 8/3/3 7/4/4
f 2/2/5 3/5/6 9/6/7 8/3/8
f 3/5/9 4/7/10 10/8/11 9/6/12
f 4/7/13 5/9/14 11/10/15 10/8/16
f 5/9/17 6/11/18 12/12/19 11/10/20
f 6/11/21 1/13/22 7/14/23 12/12/24
f 7/4/25 8/3/26 14/15/27 13/16/28
f 8/3/29 9/6/30 15/17/31 14/15/32
f 9/6/33 10/8/34 16/18/35 15/17/36
f 10/8/37 11/10/38 17/19/39 16/18/40
f 11/10/41 12/12/42 18/20/43 17/19/44
f 12/12/45 7/14/46 13/21/47 18/20/48
f 13/16/49 14/15/50 19/22/51
f 14/15/52 15/17/53 19/23/54
f 15/17/55 16/18/56 19/24/57
f 16/18/58 17/19/59 19/25/60
f 17/19/61 18/20/62 19/26/63
f 18/20/64 13/21/65 19/27/66
