# This file uses centimeters as units for non-parametric coordinates.

mtllib EggabellRTopIncisor.mtl
g default
v 0.223410 0.500687 -0.069929
v -0.166710 0.500687 -0.074302
v 0.220922 0.500687 0.083843
v -0.169197 0.500687 0.079471
v -0.226122 0.335573 -0.098541
v 0.028676 0.535475 -0.092342
v 0.273481 0.535475 0.007532
v -0.219268 0.535475 0.002009
v 0.025537 0.535475 0.101884
v 0.280335 0.335573 0.108082
v -0.229370 0.335573 0.102369
v 0.283583 0.335573 -0.092827
v 0.029323 0.338730 -0.132314
v 0.027107 0.596560 0.004771
v 0.024889 0.338730 0.141856
v -0.320676 0.338730 0.000872
v 0.374889 0.338730 0.008669
v 0.029396 -0.051432 -0.136770
v 0.292114 -0.051432 -0.096074
v -0.234545 -0.051432 -0.101977
v 0.024817 -0.051432 0.146311
v 0.288758 -0.051432 0.111519
v -0.237902 -0.051432 0.105616
v -0.331982 -0.051432 0.000746
v 0.386194 -0.051432 0.008796
v 0.257986 0.446890 -0.083086
v 0.144275 0.523979 -0.084361
v 0.257260 0.523979 -0.038265
v 0.027963 0.581232 -0.048176
v 0.161431 0.581232 0.006276
v -0.201574 0.523979 -0.043409
v -0.107218 0.581232 0.003265
v 0.026250 0.581232 0.057717
v -0.203047 0.523979 0.047807
v -0.090062 0.523979 0.093903
v 0.255786 0.523979 0.052950
v 0.141349 0.523979 0.096496
v 0.255060 0.446890 0.097771
v 0.025105 0.459513 0.128488
v 0.164018 0.337152 0.134239
v -0.203773 0.446890 0.092628
v -0.113942 0.337152 0.131124
v -0.298288 0.337152 0.055915
v -0.286763 0.459513 0.001252
v -0.296517 0.337152 -0.053648
v 0.352501 0.337152 -0.046373
v 0.340976 0.459513 0.008289
v 0.350730 0.337152 0.063190
v 0.029396 0.158507 -0.136770
v 0.292114 0.158507 -0.096074
v 0.172876 -0.051432 -0.125724
v -0.234545 0.158507 -0.101977
v -0.114393 -0.051432 -0.128944
v 0.288758 0.158507 0.111519
v 0.024817 0.158507 0.146311
v 0.168606 -0.051432 0.138485
v -0.237902 0.158507 0.105616
v -0.118664 -0.051432 0.135266
v -0.331982 0.158507 0.000746
v -0.307126 -0.051432 -0.055602
v -0.308958 -0.051432 0.057630
v 0.386194 0.158507 0.008796
v 0.361339 -0.051432 0.065144
v 0.363170 -0.051432 -0.048089
v -0.109806 0.337152 -0.124698
v 0.029108 0.459513 -0.118946
v -0.200848 0.446890 -0.088230
v -0.087136 0.523979 -0.086955
v 0.168155 0.337152 -0.121582
v -0.096045 0.453201 -0.111960
v 0.153987 0.453201 -0.109158
v 0.152919 0.566806 -0.043105
v -0.097113 0.566806 -0.045908
v -0.098706 0.566806 0.052647
v 0.151326 0.566806 0.055449
v 0.150257 0.453201 0.121502
v -0.099774 0.453201 0.118699
v -0.266281 0.453201 0.050768
v -0.264685 0.453201 -0.047786
v 0.320493 0.453201 -0.041227
v 0.318898 0.453201 0.057327
v 0.172876 0.158507 -0.125724
v -0.114393 0.158507 -0.128944
v 0.168606 0.158507 0.138485
v -0.118664 0.158507 0.135266
v -0.307126 0.158507 -0.055602
v -0.308958 0.158507 0.057630
v 0.361339 0.158507 0.065144
v 0.363170 0.158507 -0.048089
vt -0.917322 0.739147
vt -0.917531 0.747408
vt -0.925560 0.746430
vt -0.925461 0.739127
vt -0.918175 0.754434
vt -0.926103 0.752673
vt -0.930181 0.750665
vt -0.930681 0.745766
vt -0.930645 0.739145
vt -0.918241 0.723931
vt -0.917632 0.730921
vt -0.925672 0.731801
vt -0.926243 0.725651
vt -0.930594 0.732493
vt -0.930500 0.727544
vt -0.934680 0.732201
vt -0.934156 0.725644
vt -0.934688 0.739152
vt -0.938205 0.739178
vt -0.938225 0.731824
vt -0.938230 0.724799
vt -0.934674 0.746101
vt -0.934014 0.752706
vt -0.938180 0.753557
vt -0.938184 0.746533
vt -0.941730 0.746156
vt -0.941721 0.739204
vt -0.942253 0.752713
vt -0.945910 0.750813
vt -0.945815 0.745864
vt -0.945765 0.739213
vt -0.941735 0.732256
vt -0.942395 0.725651
vt -0.945729 0.732591
vt -0.946228 0.727692
vt -0.950850 0.731927
vt -0.950307 0.725684
vt -0.950949 0.739230
vt -0.959087 0.739210
vt -0.958879 0.730949
vt -0.958235 0.723923
vt -0.950737 0.746556
vt -0.950167 0.752706
vt -0.958169 0.754426
vt -0.958778 0.747436
vt -0.920196 0.763522
vt -0.957325 0.759544
vt -0.948982 0.757175
vt -0.929239 0.760223
vt -0.943720 0.753461
vt -0.934675 0.755789
vt -0.919103 0.759538
vt -0.927415 0.757022
vt -0.932430 0.753159
vt -0.956213 0.714835
vt -0.919085 0.718813
vt -0.927427 0.721182
vt -0.947171 0.718133
vt -0.932690 0.724896
vt -0.941734 0.722568
vt -0.957307 0.718819
vt -0.948995 0.721335
vt -0.943979 0.725198
vt -0.905135 0.730419
vt -0.904840 0.739171
vt -0.905693 0.722936
vt -0.890805 0.722210
vt -0.890293 0.729938
vt -0.889996 0.739042
vt -0.905029 0.747947
vt -0.905550 0.755464
vt -0.890109 0.748182
vt -0.890513 0.755980
vt -0.971380 0.730410
vt -0.970860 0.722892
vt -0.971569 0.739186
vt -0.986413 0.739315
vt -0.986301 0.730175
vt -0.985896 0.722377
vt -0.971274 0.747939
vt -0.970716 0.755421
vt -0.985604 0.756147
vt -0.986116 0.748419
vt -0.906096 0.760940
vt -0.969681 0.765126
vt -0.890930 0.761597
vt -0.891269 0.765929
vt -0.970173 0.760870
vt -0.985145 0.761710
vt -0.970315 0.717416
vt -0.906728 0.713230
vt -0.985480 0.716760
vt -0.985140 0.712428
vt -0.906237 0.717487
vt -0.891264 0.716646
vt -0.929085 0.717827
vt -0.920053 0.714808
vt -0.934843 0.722066
vt -0.947324 0.760530
vt -0.956357 0.763549
vt -0.941567 0.756291
vt -0.969802 0.713136
vt -0.891631 0.712347
vt -0.906609 0.765221
vt -0.984778 0.766010
vn 0.011195 0.058851 -0.998204
vn -0.132721 0.063593 -0.989111
vn -0.132002 0.200133 -0.970836
vn 0.011001 0.199612 -0.979813
vn -0.358333 0.081491 -0.930031
vn -0.344544 0.234505 -0.909009
vn -0.302632 0.474321 -0.826701
vn -0.146482 0.498191 -0.854604
vn 0.009704 0.508817 -0.860820
vn 0.380346 0.081759 -0.921223
vn 0.155077 0.063683 -0.985848
vn 0.153944 0.200385 -0.967547
vn 0.365958 0.235199 -0.900420
vn 0.165873 0.498671 -0.850772
vn 0.321901 0.475390 -0.818770
vn 0.213175 0.825676 -0.522318
vn 0.474281 0.690692 -0.545896
vn 0.005968 0.849137 -0.528140
vn 0.000001 1.000000 0.000004
vn 0.250054 0.968224 0.004012
vn 0.578615 0.815548 0.009219
vn -0.201027 0.824959 -0.528234
vn -0.460457 0.689209 -0.559438
vn -0.578616 0.815548 -0.009216
vn -0.250054 0.968224 -0.004005
vn -0.213174 0.825676 0.522318
vn -0.005969 0.849136 0.528140
vn -0.474280 0.690692 0.545897
vn -0.321902 0.475391 0.818769
vn -0.165871 0.498671 0.850773
vn -0.009702 0.508818 0.860819
vn 0.201026 0.824956 0.528239
vn 0.460455 0.689208 0.559441
vn 0.146482 0.498190 0.854605
vn 0.302627 0.474317 0.826705
vn 0.132002 0.200133 0.970836
vn 0.344543 0.234504 0.909010
vn -0.011000 0.199611 0.979813
vn -0.011195 0.058850 0.998204
vn 0.132722 0.063593 0.989111
vn 0.358333 0.081491 0.930031
vn -0.153943 0.200383 0.967548
vn -0.365958 0.235197 0.900421
vn -0.380346 0.081758 0.921223
vn -0.155076 0.063683 0.985848
vn -0.989326 0.144846 -0.015927
vn -0.741137 0.117219 0.661041
vn -0.691357 0.350651 0.631719
vn -0.896250 0.443317 -0.014372
vn -0.722548 0.116684 -0.681402
vn -0.673963 0.349334 -0.650953
vn 0.989326 0.144846 0.015927
vn 0.741136 0.117219 -0.661042
vn 0.691357 0.350651 -0.631719
vn 0.896250 0.443316 0.014369
vn 0.722549 0.116683 0.681401
vn 0.673962 0.349334 0.650954
vn 0.153589 0.012281 -0.988059
vn 0.011211 0.011394 -0.999872
vn 0.379351 0.015840 -0.925117
vn 0.377748 0.000000 -0.925908
vn 0.153077 0.000000 -0.988214
vn 0.011209 0.000000 -0.999937
vn -0.131197 0.012263 -0.991280
vn -0.357261 0.015786 -0.933871
vn -0.130689 -0.000000 -0.991423
vn -0.355657 -0.000000 -0.934616
vn 0.131197 0.012263 0.991280
vn 0.357261 0.015786 0.933871
vn -0.011210 0.011394 0.999872
vn -0.011207 -0.000000 0.999937
vn 0.130689 0.000000 0.991424
vn 0.355656 0.000000 0.934617
vn -0.153588 0.012281 0.988059
vn -0.379351 0.015841 0.925117
vn -0.377748 -0.000000 0.925908
vn -0.153076 -0.000000 0.988215
vn -0.727066 0.022977 -0.686184
vn -0.999459 0.028667 -0.016134
vn -0.725529 -0.000000 -0.688191
vn -0.999869 -0.000000 -0.016175
vn -0.745843 0.023091 0.665721
vn -0.744363 -0.000000 0.667775
vn 0.727065 0.022977 0.686184
vn 0.999459 0.028667 0.016135
vn 0.725528 0.000000 0.688193
vn 0.999869 0.000000 0.016175
vn 0.745843 0.023091 -0.665722
vn 0.744363 0.000000 -0.667775
s 1
g GrumpusRFrontTooth
usemtl lambert12SG
f 13/1/1 65/2/2 70/3/3 66/4/4
f 65/2/2 5/5/5 67/6/6 70/3/3
f 70/3/3 67/6/6 2/7/7 68/8/8
f 66/4/4 70/3/3 68/8/8 6/9/9
f 12/10/10 69/11/11 71/12/12 26/13/13
f 69/11/11 13/1/1 66/4/4 71/12/12
f 71/12/12 66/4/4 6/9/9 27/14/14
f 26/13/13 71/12/12 27/14/14 1/15/15
f 1/15/15 27/14/14 72/16/16 28/17/17
f 27/14/14 6/9/9 29/18/18 72/16/16
f 72/16/16 29/18/18 14/19/19 30/20/20
f 28/17/17 72/16/16 30/20/20 7/21/21
f 6/9/9 68/8/8 73/22/22 29/18/18
f 68/8/8 2/7/7 31/23/23 73/22/22
f 73/22/22 31/23/23 8/24/24 32/25/25
f 29/18/18 73/22/22 32/25/25 14/19/19
f 14/19/19 32/25/25 74/26/26 33/27/27
f 32/25/25 8/24/24 34/28/28 74/26/26
f 74/26/26 34/28/28 4/29/29 35/30/30
f 33/27/27 74/26/26 35/30/30 9/31/31
f 7/21/21 30/20/20 75/32/32 36/33/33
f 30/20/20 14/19/19 33/27/27 75/32/32
f 75/32/32 33/27/27 9/31/31 37/34/34
f 36/33/33 75/32/32 37/34/34 3/35/35
f 3/35/35 37/34/34 76/36/36 38/37/37
f 37/34/34 9/31/31 39/38/38 76/36/36
f 76/36/36 39/38/38 15/39/39 40/40/40
f 38/37/37 76/36/36 40/40/40 10/41/41
f 9/31/31 35/30/30 77/42/42 39/38/38
f 35/30/30 4/29/29 41/43/43 77/42/42
f 77/42/42 41/43/43 11/44/44 42/45/45
f 39/38/38 77/42/42 42/45/45 15/39/39
f 16/100/46 43/47/47 78/48/48 44/99/49
f 43/47/47 11/44/44 41/43/43 78/48/48
f 78/48/48 41/43/43 4/29/29 34/50/28
f 44/99/49 78/48/48 34/50/28 8/101/24
f 5/5/5 45/52/50 79/53/51 67/6/6
f 45/52/50 16/46/46 44/49/49 79/53/51
f 79/53/51 44/49/49 8/51/24 31/54/23
f 67/6/6 79/53/51 31/54/23 2/7/7
f 17/97/52 46/56/53 80/57/54 47/96/55
f 46/56/53 12/10/10 26/13/13 80/57/54
f 80/57/54 26/13/13 1/15/15 28/59/17
f 47/96/55 80/57/54 28/59/17 7/98/21
f 10/41/41 48/61/56 81/62/57 38/37/37
f 48/61/56 17/55/52 47/58/55 81/62/57
f 81/62/57 47/58/55 7/60/21 36/63/33
f 38/37/37 81/62/57 36/63/33 3/35/35
f 13/1/1 69/11/11 82/64/58 49/65/59
f 69/11/11 12/10/10 50/66/60 82/64/58
f 82/64/58 50/66/60 19/67/61 51/68/62
f 49/65/59 82/64/58 51/68/62 18/69/63
f 5/5/5 65/2/2 83/70/64 52/71/65
f 65/2/2 13/1/1 49/65/59 83/70/64
f 83/70/64 49/65/59 18/69/63 53/72/66
f 52/71/65 83/70/64 53/72/66 20/73/67
f 10/41/41 40/40/40 84/74/68 54/75/69
f 40/40/40 15/39/39 55/76/70 84/74/68
f 84/74/68 55/76/70 21/77/71 56/78/72
f 54/75/69 84/74/68 56/78/72 22/79/73
f 15/39/39 42/45/45 85/80/74 55/76/70
f 42/45/45 11/44/44 57/81/75 85/80/74
f 85/80/74 57/81/75 23/82/76 58/83/77
f 55/76/70 85/80/74 58/83/77 21/77/71
f 16/46/46 45/52/50 86/84/78 59/104/79
f 45/52/50 5/5/5 52/71/65 86/84/78
f 86/84/78 52/71/65 20/73/67 60/86/80
f 59/104/79 86/84/78 60/86/80 24/87/81
f 11/44/44 43/47/47 87/88/82 57/81/75
f 43/47/47 16/100/46 59/85/79 87/88/82
f 87/88/82 59/85/79 24/105/81 61/89/83
f 57/81/75 87/88/82 61/89/83 23/82/76
f 17/55/52 48/61/56 88/90/84 62/102/85
f 48/61/56 10/41/41 54/75/69 88/90/84
f 88/90/84 54/75/69 22/79/73 63/92/86
f 62/102/85 88/90/84 63/92/86 25/93/87
f 12/10/10 46/56/53 89/94/88 50/66/60
f 46/56/53 17/97/52 62/91/85 89/94/88
f 89/94/88 62/91/85 25/103/87 64/95/89
f 50/66/60 89/94/88 64/95/89 19/67/61
