# This file uses centimeters as units for non-parametric coordinates.

g default
v -2.597727 -1.006020 3.112950
v -0.990940 -1.006020 3.562438
v 0.990940 -1.006020 3.562438
v 2.597727 -1.006020 3.112950
v -2.972820 -1.006020 1.187479
v -1.356105 1.299369 1.356105
v 1.356105 1.299369 1.356105
v 2.972820 -1.006020 1.187479
v -2.972820 -1.006020 -1.187479
v -1.356105 1.299369 -1.356105
v 1.356105 1.299369 -1.356105
v 2.972820 -1.006020 -1.187479
v -2.597727 -1.006020 -3.112950
v -0.990940 -1.006020 -3.562438
v 0.990940 -1.006020 -3.562438
v 2.597727 -1.006020 -3.112950
vt 0.395059 0.558177
vt 0.491949 0.526323
vt 0.610162 0.525976
vt 0.707038 0.557375
vt 0.360442 0.675982
vt 0.474660 0.669527
vt 0.627922 0.669109
vt 0.742270 0.675380
vt 0.360073 0.815893
vt 0.474348 0.822845
vt 0.628158 0.822848
vt 0.743185 0.816283
vt 0.394651 0.933753
vt 0.491722 0.965481
vt 0.610443 0.965594
vt 0.707280 0.933464
vn -0.231718 0.965923 0.115324
vn -0.001830 0.999997 0.001830
vn -0.115324 0.965923 0.231718
vn -0.433441 0.790100 0.433441
vn -0.115324 0.965923 0.231718
vn 0.115324 0.965923 0.231718
vn 0.433441 0.790100 0.433441
vn -0.433441 0.790100 0.433441
vn 0.115324 0.965923 0.231718
vn 0.001830 0.999997 0.001830
vn 0.231718 0.965923 0.115324
vn 0.433441 0.790100 0.433441
vn -0.231718 0.965923 -0.115324
vn -0.231718 0.965923 0.115324
vn -0.433441 0.790100 0.433441
vn -0.433441 0.790100 -0.433441
vn -0.433441 0.790100 0.433441
vn 0.433441 0.790100 0.433441
vn 0.433441 0.790100 -0.433441
vn -0.433441 0.790100 -0.433441
vn 0.433441 0.790100 0.433441
vn 0.231718 0.965923 0.115324
vn 0.231718 0.965923 -0.115324
vn 0.433441 0.790100 -0.433441
vn -0.001830 0.999997 -0.001830
vn -0.231718 0.965923 -0.115324
vn -0.433441 0.790100 -0.433441
vn -0.115324 0.965923 -0.231718
vn -0.433441 0.790100 -0.433441
vn 0.433441 0.790100 -0.433441
vn 0.115324 0.965923 -0.231718
vn -0.115324 0.965923 -0.231718
vn 0.433441 0.790100 -0.433441
vn 0.231718 0.965923 -0.115324
vn 0.001830 0.999997 -0.001830
vn 0.115324 0.965923 -0.231718
s off
g dirtPileSnax:polySurface1
usemtl dirtPileSnax:lambert13SG
f 5/5/1 1/1/2 2/2/3 6/6/4
f 2/2/5 3/3/6 7/7/7 6/6/8
f 3/3/9 4/4/10 8/8/11 7/7/12
f 9/9/13 5/5/14 6/6/15 10/10/16
f 6/6/17 7/7/18 11/11/19 10/10/20
f 7/7/21 8/8/22 12/12/23 11/11/24
f 13/13/25 9/9/26 10/10/27 14/14/28
f 10/10/29 11/11/30 15/15/31 14/14/32
f 11/11/33 12/12/34 16/16/35 15/15/36
