# This file uses centimeters as units for non-parametric coordinates.

mtllib RockSuckerLUpperCanine.mtl
g default
v 0.158673 1.070806 0.042646
v 0.064164 1.079877 0.107190
v -0.048752 1.076991 0.086652
v -0.113931 1.063837 -0.006938
v -0.093190 1.048123 -0.118755
v 0.001319 1.039052 -0.183299
v 0.114235 1.041938 -0.162760
v 0.179413 1.055091 -0.069171
v 0.250862 0.970369 0.117006
v 0.087167 0.986081 0.228799
v -0.108410 0.981081 0.193226
v -0.221302 0.958300 0.031124
v -0.185379 0.931080 -0.162550
v -0.021684 0.915369 -0.274343
v 0.173893 0.920369 -0.238770
v 0.286784 0.943150 -0.076667
v 0.284605 0.824868 0.159505
v 0.095586 0.843010 0.288593
v -0.130246 0.837237 0.247516
v -0.260602 0.810931 0.060337
v -0.219122 0.779501 -0.163297
v -0.030103 0.761359 -0.292385
v 0.195729 0.767132 -0.251308
v 0.326085 0.793438 -0.064129
v 0.250862 0.673289 0.158758
v 0.087167 0.689001 0.270551
v -0.108410 0.684001 0.234978
v -0.221302 0.661219 0.072876
v -0.185379 0.634000 -0.120798
v -0.021684 0.618289 -0.232591
v 0.173893 0.623288 -0.197018
v 0.286784 0.646070 -0.034915
v 0.158673 0.556248 0.114963
v 0.064164 0.565319 0.179507
v -0.048752 0.562433 0.158968
v -0.113931 0.549279 0.065379
v -0.093190 0.533565 -0.046438
v 0.001319 0.524493 -0.110982
v 0.114235 0.527380 -0.090444
v 0.179413 0.540533 0.003146
v 0.032741 1.099265 -0.043648
v 0.116690 0.547121 0.088815
v 0.053689 0.553168 0.131843
v -0.021594 0.551244 0.118153
v -0.065046 0.542475 0.055759
v -0.051219 0.531999 -0.018786
v 0.011793 0.525951 -0.061816
v 0.087065 0.527876 -0.048123
v 0.130504 0.536636 0.014212
v 0.130504 -0.005374 0.090387
v 0.087065 -0.017118 0.028471
v 0.116690 0.002152 0.165406
v 0.011793 -0.020073 0.014923
v -0.051219 -0.013054 0.057816
v 0.053689 0.007144 0.208582
v -0.065046 0.000349 0.131950
v -0.021594 0.006217 0.194751
vt 0.916682 0.542782
vt 0.934398 0.545864
vt 0.934120 0.567042
vt 0.906987 0.564300
vt 0.952417 0.542869
vt 0.961504 0.564585
vt 0.967588 0.533092
vt 0.989468 0.556747
vt 0.773725 0.503364
vt 0.787776 0.512665
vt 0.778276 0.534271
vt 0.751513 0.525584
vt 0.805521 0.515585
vt 0.805434 0.536761
vt 0.823515 0.512429
vt 0.832797 0.534064
vt 0.838600 0.502518
vt 0.860691 0.525981
vt 0.902718 0.533352
vt 0.880306 0.555365
vt 0.934183 0.588351
vt 0.903615 0.587155
vt 0.964675 0.587450
vt 0.997175 0.586446
vt 0.775114 0.557157
vt 0.742486 0.554717
vt 0.805690 0.558065
vt 0.836173 0.556903
vt 0.868659 0.555613
vt 0.871013 0.584412
vt 0.934194 0.609851
vt 0.905926 0.610189
vt 0.962140 0.610482
vt 0.990161 0.615645
vt 0.777639 0.580171
vt 0.748224 0.584656
vt 0.805895 0.579559
vt 0.833837 0.579963
vt 0.861901 0.584871
vt 0.876474 0.614403
vt 0.933705 0.631811
vt 0.913237 0.632966
vt 0.954051 0.632672
vt 0.971385 0.638397
vt 0.785174 0.602881
vt 0.767004 0.609009
vt 0.805609 0.601511
vt 0.825923 0.602244
vt 0.843349 0.607776
vt 0.895041 0.638930
vt 0.934824 0.522593
vt 0.805737 0.492312
vt 0.933527 0.639039
vt 0.915890 0.640406
vt 0.951214 0.639649
vt 0.964571 0.644112
vt 0.787808 0.610163
vt 0.774332 0.614991
vt 0.805476 0.608715
vt 0.823239 0.609060
vt 0.836351 0.613897
vt 0.902045 0.644729
vt 0.935931 0.659466
vt 0.935931 0.743516
vt 0.924227 0.743170
vt 0.924227 0.659466
vt 0.994361 0.659466
vt 0.994203 0.743631
vt 0.982700 0.743526
vt 0.982707 0.659466
vt 0.947626 0.659466
vt 0.947626 0.743635
vt 0.971017 0.743183
vt 0.971017 0.659466
vt 0.912547 0.743519
vt 0.912539 0.659466
vt 0.901051 0.743631
vt 0.900893 0.659466
vt 0.959322 0.743523
vt 0.959322 0.659466
vn 0.532814 0.813268 0.233889
vn 0.132947 0.851648 0.506972
vn 0.188627 0.553275 0.811361
vn 0.755963 0.498822 0.423906
vn 0.132947 0.851648 0.506972
vn -0.344797 0.839436 0.420075
vn -0.489204 0.535948 0.688070
vn 0.188627 0.553275 0.811361
vn -0.344797 0.839436 0.420075
vn -0.620565 0.783785 0.024100
vn -0.880466 0.456990 0.126255
vn -0.489204 0.535948 0.688070
vn -0.620565 0.783785 0.024100
vn -0.532815 0.717295 -0.448995
vn -0.755963 0.362654 -0.544978
vn -0.880466 0.456990 0.126255
vn -0.532815 0.717295 -0.448995
vn -0.132948 0.678916 -0.722079
vn -0.188627 0.308202 -0.932433
vn -0.755963 0.362654 -0.544978
vn -0.132948 0.678916 -0.722079
vn 0.344797 0.691129 -0.635182
vn 0.489204 0.325528 -0.809142
vn -0.188627 0.308202 -0.932433
vn 0.344797 0.691129 -0.635182
vn 0.620565 0.746780 -0.239207
vn 0.880466 0.404486 -0.247328
vn 0.489204 0.325528 -0.809142
vn 0.620565 0.746780 -0.239207
vn 0.532814 0.813268 0.233889
vn 0.755963 0.498822 0.423906
vn 0.880466 0.404486 -0.247328
vn 0.755963 0.498822 0.423906
vn 0.188627 0.553275 0.811361
vn 0.209482 0.136085 0.968296
vn 0.839545 0.075611 0.538004
vn 0.188627 0.553275 0.811361
vn -0.489204 0.535948 0.688070
vn -0.543291 0.116842 0.831374
vn 0.209482 0.136085 0.968296
vn -0.489204 0.535948 0.688070
vn -0.880466 0.456990 0.126255
vn -0.977813 0.029154 0.207444
vn -0.543291 0.116842 0.831374
vn -0.880466 0.456990 0.126255
vn -0.755963 0.362654 -0.544978
vn -0.839544 -0.075612 -0.538004
vn -0.977813 0.029154 0.207444
vn -0.755963 0.362654 -0.544978
vn -0.188627 0.308202 -0.932433
vn -0.209482 -0.136085 -0.968296
vn -0.839544 -0.075612 -0.538004
vn -0.188627 0.308202 -0.932433
vn 0.489204 0.325528 -0.809142
vn 0.543291 -0.116842 -0.831374
vn -0.209482 -0.136085 -0.968296
vn 0.489204 0.325528 -0.809142
vn 0.880466 0.404486 -0.247328
vn 0.977813 -0.029154 -0.207444
vn 0.543291 -0.116842 -0.831374
vn 0.880466 0.404486 -0.247328
vn 0.755963 0.498822 0.423906
vn 0.839545 0.075611 0.538004
vn 0.977813 -0.029154 -0.207444
vn 0.839545 0.075611 0.538004
vn 0.209482 0.136085 0.968296
vn 0.188627 -0.308201 0.932433
vn 0.755963 -0.362654 0.544979
vn 0.209482 0.136085 0.968296
vn -0.543291 0.116842 0.831374
vn -0.489203 -0.325529 0.809142
vn 0.188627 -0.308201 0.932433
vn -0.543291 0.116842 0.831374
vn -0.977813 0.029154 0.207444
vn -0.880465 -0.404487 0.247328
vn -0.489203 -0.325529 0.809142
vn -0.977813 0.029154 0.207444
vn -0.839544 -0.075612 -0.538004
vn -0.755963 -0.498822 -0.423906
vn -0.880465 -0.404487 0.247328
vn -0.839544 -0.075612 -0.538004
vn -0.209482 -0.136085 -0.968296
vn -0.188627 -0.553275 -0.811361
vn -0.755963 -0.498822 -0.423906
vn -0.209482 -0.136085 -0.968296
vn 0.543291 -0.116842 -0.831374
vn 0.489203 -0.535949 -0.688069
vn -0.188627 -0.553275 -0.811361
vn 0.543291 -0.116842 -0.831374
vn 0.977813 -0.029154 -0.207444
vn 0.880465 -0.456991 -0.126255
vn 0.489203 -0.535949 -0.688069
vn 0.977813 -0.029154 -0.207444
vn 0.839545 0.075611 0.538004
vn 0.755963 -0.362654 0.544979
vn 0.880465 -0.456991 -0.126255
vn 0.755963 -0.362654 0.544979
vn 0.188627 -0.308201 0.932433
vn 0.137079 -0.659764 0.738865
vn 0.549360 -0.699353 0.457285
vn 0.188627 -0.308201 0.932433
vn -0.489203 -0.325529 0.809142
vn -0.355515 -0.672353 0.649270
vn 0.137079 -0.659764 0.738865
vn -0.489203 -0.325529 0.809142
vn -0.880465 -0.404487 0.247328
vn -0.639859 -0.729731 0.240985
vn -0.355515 -0.672353 0.649270
vn -0.880465 -0.404487 0.247328
vn -0.755963 -0.498822 -0.423906
vn -0.549376 -0.798290 -0.246819
vn -0.639859 -0.729731 0.240985
vn -0.755963 -0.498822 -0.423906
vn -0.188627 -0.553275 -0.811361
vn -0.137080 -0.837864 -0.528387
vn -0.549376 -0.798290 -0.246819
vn -0.188627 -0.553275 -0.811361
vn 0.489203 -0.535949 -0.688069
vn 0.355519 -0.825264 -0.438800
vn -0.137080 -0.837864 -0.528387
vn 0.489203 -0.535949 -0.688069
vn 0.880465 -0.456991 -0.126255
vn 0.639847 -0.767897 -0.030499
vn 0.355519 -0.825264 -0.438800
vn 0.880465 -0.456991 -0.126255
vn 0.755963 -0.362654 0.544979
vn 0.549360 -0.699353 0.457285
vn 0.639847 -0.767897 -0.030499
vn 0.132947 0.851648 0.506972
vn 0.532814 0.813268 0.233889
vn -0.000000 0.990268 -0.139173
vn -0.344797 0.839436 0.420075
vn 0.132947 0.851648 0.506972
vn -0.000000 0.990268 -0.139173
vn -0.620565 0.783785 0.024100
vn -0.344797 0.839436 0.420075
vn -0.000000 0.990268 -0.139173
vn -0.532815 0.717295 -0.448995
vn -0.620565 0.783785 0.024100
vn -0.000000 0.990268 -0.139173
vn -0.132948 0.678916 -0.722079
vn -0.532815 0.717295 -0.448995
vn -0.000000 0.990268 -0.139173
vn 0.344797 0.691129 -0.635182
vn -0.132948 0.678916 -0.722079
vn -0.000000 0.990268 -0.139173
vn 0.620565 0.746780 -0.239207
vn 0.344797 0.691129 -0.635182
vn -0.000000 0.990268 -0.139173
vn 0.532814 0.813268 0.233889
vn 0.620565 0.746780 -0.239207
vn -0.000000 0.990268 -0.139173
vn 0.549360 -0.699353 0.457285
vn 0.137079 -0.659764 0.738865
vn 0.022491 -0.969935 0.242325
vn 0.090121 -0.976433 0.196105
vn 0.137079 -0.659764 0.738865
vn -0.355515 -0.672353 0.649270
vn -0.058332 -0.971999 0.227631
vn 0.022491 -0.969935 0.242325
vn -0.355515 -0.672353 0.649270
vn -0.639859 -0.729731 0.240985
vn -0.104991 -0.981413 0.160642
vn -0.058332 -0.971999 0.227631
vn -0.639859 -0.729731 0.240985
vn -0.549376 -0.798290 -0.246819
vn -0.090139 -0.992662 0.080605
vn -0.104991 -0.981413 0.160642
vn -0.549376 -0.798290 -0.246819
vn -0.137080 -0.837864 -0.528387
vn -0.022490 -0.999155 0.034412
vn -0.090139 -0.992662 0.080605
vn -0.137080 -0.837864 -0.528387
vn 0.355519 -0.825264 -0.438800
vn 0.058316 -0.997090 0.049096
vn -0.022490 -0.999155 0.034412
vn 0.355519 -0.825264 -0.438800
vn 0.639847 -0.767897 -0.030499
vn 0.104956 -0.987680 0.116068
vn 0.058316 -0.997090 0.049096
vn 0.639847 -0.767897 -0.030499
vn 0.549360 -0.699353 0.457285
vn 0.090121 -0.976433 0.196105
vn 0.104956 -0.987680 0.116068
vn 0.839721 0.075573 0.537733
vn 0.839124 0.112874 0.532100
vn 0.977117 0.008220 -0.212544
vn 0.977813 -0.029154 -0.207444
vn -0.209482 -0.136085 -0.968296
vn -0.209333 -0.098635 -0.972857
vn -0.838930 -0.038208 -0.542896
vn -0.839527 -0.075615 -0.538030
vn 0.209482 0.136085 0.968296
vn 0.209333 0.173341 0.962358
vn 0.839124 0.112874 0.532100
vn 0.839721 0.075573 0.537733
vn -0.839527 -0.075615 -0.538030
vn -0.838930 -0.038208 -0.542896
vn -0.977117 0.066486 0.202046
vn -0.977813 0.029154 0.207444
vn 0.977117 0.008220 -0.212544
vn 0.542679 -0.079428 -0.836177
vn 0.543066 -0.116862 -0.831518
vn 0.977813 -0.029154 -0.207444
vn 0.542679 -0.079428 -0.836177
vn -0.209333 -0.098635 -0.972857
vn -0.209482 -0.136085 -0.968296
vn 0.543066 -0.116862 -0.831518
vn -0.977117 0.066486 0.202046
vn -0.542882 0.154114 0.825547
vn -0.543269 0.116844 0.831388
vn -0.977813 0.029154 0.207444
vn -0.542882 0.154114 0.825547
vn 0.209333 0.173341 0.962358
vn 0.209482 0.136085 0.968296
vn -0.543269 0.116844 0.831388
s off
g FoodLUpperCaninesOverbite
usemtl delete14:blinn3SG
f 1/1/1 2/2/2 10/3/3 9/4/4
f 2/2/5 3/5/6 11/6/7 10/3/8
f 3/5/9 4/7/10 12/8/11 11/6/12
f 4/9/13 5/10/14 13/11/15 12/12/16
f 5/10/17 6/13/18 14/14/19 13/11/20
f 6/13/21 7/15/22 15/16/23 14/14/24
f 7/15/25 8/17/26 16/18/27 15/16/28
f 8/19/29 1/1/30 9/4/31 16/20/32
f 9/4/33 10/3/34 18/21/35 17/22/36
f 10/3/37 11/6/38 19/23/39 18/21/40
f 11/6/41 12/8/42 20/24/43 19/23/44
f 12/12/45 13/11/46 21/25/47 20/26/48
f 13/11/49 14/14/50 22/27/51 21/25/52
f 14/14/53 15/16/54 23/28/55 22/27/56
f 15/16/57 16/18/58 24/29/59 23/28/60
f 16/20/61 9/4/62 17/22/63 24/30/64
f 17/22/65 18/21/66 26/31/67 25/32/68
f 18/21/69 19/23/70 27/33/71 26/31/72
f 19/23/73 20/24/74 28/34/75 27/33/76
f 20/26/77 21/25/78 29/35/79 28/36/80
f 21/25/81 22/27/82 30/37/83 29/35/84
f 22/27/85 23/28/86 31/38/87 30/37/88
f 23/28/89 24/29/90 32/39/91 31/38/92
f 24/30/93 17/22/94 25/32/95 32/40/96
f 25/32/97 26/31/98 34/41/99 33/42/100
f 26/31/101 27/33/102 35/43/103 34/41/104
f 27/33/105 28/34/106 36/44/107 35/43/108
f 28/36/109 29/35/110 37/45/111 36/46/112
f 29/35/113 30/37/114 38/47/115 37/45/116
f 30/37/117 31/38/118 39/48/119 38/47/120
f 31/38/121 32/39/122 40/49/123 39/48/124
f 32/40/125 25/32/126 33/42/127 40/50/128
f 2/2/129 1/1/130 41/51/131
f 3/5/132 2/2/133 41/51/134
f 4/7/135 3/5/136 41/51/137
f 5/10/138 4/9/139 41/52/140
f 6/13/141 5/10/142 41/52/143
f 7/15/144 6/13/145 41/52/146
f 8/17/147 7/15/148 41/52/149
f 1/1/150 8/19/151 41/51/152
f 33/42/153 34/41/154 43/53/155 42/54/156
f 34/41/157 35/43/158 44/55/159 43/53/160
f 35/43/161 36/44/162 45/56/163 44/55/164
f 36/46/165 37/45/166 46/57/167 45/58/168
f 37/45/169 38/47/170 47/59/171 46/57/172
f 38/47/173 39/48/174 48/60/175 47/59/176
f 39/48/177 40/49/178 49/61/179 48/60/180
f 40/50/181 33/42/182 42/54/183 49/62/184
f 42/63/185 52/64/186 50/65/187 49/66/188
f 47/67/189 53/68/190 54/69/191 46/70/192
f 43/71/193 55/72/194 52/64/195 42/63/196
f 46/70/197 54/69/198 56/73/199 45/74/200
f 50/65/201 51/75/202 48/76/203 49/66/204
f 51/75/205 53/77/206 47/78/207 48/76/208
f 56/73/209 57/79/210 44/80/211 45/74/212
f 57/79/213 55/72/214 43/71/215 44/80/216
