# This file uses centimeters as units for non-parametric coordinates.

mtllib BuffaloWingsLHorn.mtl
g default
v -0.545735 -0.403370 -0.016731
v -0.184596 -0.078980 0.258028
v 0.327212 0.129153 0.179787
v -0.081949 -0.784474 -1.025805
v 0.435594 -0.588306 -1.075378
v 0.778955 -0.253568 -0.816467
v 0.716744 0.026948 -0.266968
v -0.475902 -0.699465 -0.537498
v 0.426770 -0.172100 0.263952
v 0.816781 -0.492424 -0.644487
v 0.778857 -0.278756 -0.131535
v 0.210467 -0.260991 0.350142
v 0.703356 -0.656960 -0.794641
v 0.841782 -0.372429 -0.401747
v 0.629724 -0.196393 0.096167
v 1.429373 0.671822 -3.328976
v 1.508064 0.763325 -3.262470
v 1.547955 0.608103 -3.381617
v 1.626646 0.699606 -3.315110
v 1.455285 0.735243 -3.304138
v 1.579457 0.753033 -3.295231
v 1.601546 0.656921 -3.369440
v 1.484757 0.730894 -3.120240
v 1.447865 0.516616 -3.281239
v -0.543463 1.825757 -1.562462
v -0.584967 1.670673 -0.990646
v -1.016643 1.498773 -1.034740
v -0.937942 0.842287 -1.706293
v -0.673077 0.754849 -1.981077
v -0.498086 0.511151 -1.574026
v -0.281412 0.449414 -1.603157
v -0.095011 0.631063 -1.433920
v 0.058433 0.598364 -1.390379
v 0.078246 1.031928 -1.377623
v 0.151140 0.895808 -1.300623
v 0.196030 0.991627 -1.396086
v -0.106347 1.431050 -1.087530
v 1.459263 0.240708 -2.137842
v 1.248844 0.430874 -2.138821
v 1.027740 0.287166 -2.333334
v 1.221284 -0.355694 -2.238337
v 1.352311 -0.264513 -2.472401
v 1.405545 -0.437348 -2.067793
v 1.558468 -0.310777 -2.422144
v 1.584182 -0.324082 -1.929569
v 1.727828 -0.196958 -2.343069
v 1.679706 -0.097371 -1.885202
v 1.799048 -0.025328 -2.231560
v 1.465904 -0.002779 -1.663214
v 1.409997 0.314714 -1.878553
v -0.791400 -0.020300 -0.909101
v -0.348048 -0.226348 -1.290146
v 0.177564 -0.047953 -1.305557
v 0.507857 0.322913 -1.080219
v 0.697981 0.949739 -1.799202
v 0.783471 0.550400 -1.433220
v 0.219011 0.916500 -2.433617
v 0.477787 1.096965 -2.210125
v 1.409922 0.129985 -2.923172
v 1.610233 0.081632 -2.934011
v 1.744275 0.172060 -2.871210
v 1.800860 0.303293 -2.772905
v 1.480064 0.637460 -3.379230
v 1.529105 0.714286 -3.362652
v 1.392937 0.681468 -3.156365
v 1.367484 0.594530 -3.219350
v 1.559289 0.493284 -3.301193
v 1.673337 0.625900 -3.204805
v 1.646223 0.544641 -3.267818
v 1.605897 0.700376 -3.147682
v -0.443850 1.800561 -1.817327
v -0.274346 1.688373 -2.049868
v -0.102956 1.530797 -1.587955
v -0.600685 1.793917 -1.299213
v -0.169373 1.541011 -1.284008
v -0.929947 1.696947 -1.689499
v -1.009983 1.645887 -1.378483
v -0.584330 1.556413 -2.253848
v -0.790046 1.674029 -1.991688
v -1.119671 1.312552 -1.755882
v -1.198273 1.261668 -1.499813
v -0.800608 1.212082 -2.230317
v -0.995411 1.311055 -2.005097
v -1.215074 1.117561 -1.198969
v -1.001826 0.810400 -1.559185
v -0.855644 0.849116 -1.847334
v -1.018056 0.690869 -1.365442
v -0.543966 0.486216 -1.546932
v -0.432470 0.513169 -1.593264
v -0.546321 0.376595 -1.495058
v -0.109707 0.599202 -1.446980
v -0.058061 0.644838 -1.413883
v -0.078437 0.491552 -1.442841
v 0.084601 1.004326 -1.352379
v 0.096098 1.042495 -1.392246
v -0.146341 1.547334 -1.440567
v 0.017367 1.447875 -1.717905
v -0.730326 -0.047590 -0.203371
v -0.641383 -0.390317 -0.715464
v -0.916215 0.375776 -0.460396
v -0.378667 0.304578 0.055710
v -0.604168 0.739687 -0.228554
v 0.146471 0.497325 -0.002031
v -0.095662 0.914269 -0.260729
v 0.573955 0.358434 -0.436708
v -0.215335 -0.531120 -1.170576
v 0.317116 -0.328602 -1.206516
v 0.668838 0.022788 -0.954676
v 0.371252 0.716393 -0.635084
v 1.502050 0.224658 -2.177738
v 1.534406 0.254377 -2.276016
v 1.672883 0.133085 -2.059755
v 1.398355 0.292818 -2.124916
v 1.558073 0.188975 -1.926062
v 1.263853 0.113046 -2.300638
v 1.192991 0.159624 -2.304337
v 1.340423 0.144283 -2.409599
v 1.307166 0.104524 -2.325747
v 1.153733 -0.139126 -2.338465
v 1.077511 -0.109494 -2.326384
v 1.251980 -0.086916 -2.484493
v 1.205907 -0.139834 -2.380930
v 0.903599 -0.009147 -2.336636
v 1.137987 -0.337509 -2.194998
v 1.289870 -0.343945 -2.316086
v 0.957586 -0.258367 -2.146963
v 1.323065 -0.440404 -1.976336
v 1.484317 -0.410687 -2.196455
v 1.155034 -0.391043 -1.860928
v 1.501040 -0.325441 -1.810215
v 1.661956 -0.298717 -2.089418
v 1.344305 -0.270573 -1.673523
v 1.611305 -0.083409 -1.784447
v 1.743335 -0.091914 -2.018370
v 1.621915 0.148066 -1.980837
v 1.712066 0.168995 -2.200695
v 1.331450 0.285554 -2.539951
v 1.338211 0.429910 -2.745403
v 1.518363 0.384590 -2.434505
v 1.263838 0.088227 -2.649314
v 1.285838 0.268758 -2.852784
v 1.392085 -0.074283 -2.705923
v 1.610504 -0.130713 -2.693792
v 1.763671 -0.033376 -2.611504
v 1.829588 0.124039 -2.508636
v 1.688584 0.454013 -2.687669
v 1.501534 0.519567 -2.670506
v 0.677637 0.564435 -2.383476
v 0.914853 0.733108 -2.178322
v 0.533023 0.241876 -2.377442
v 0.053644 0.573226 -2.415009
v 0.585303 -0.045065 -2.111191
v 0.797794 -0.200872 -1.719250
v 0.134668 0.226860 -2.079599
v 0.387086 0.041480 -1.633255
v 1.018502 -0.064254 -1.511858
v 0.646131 0.197227 -1.414276
v 1.149836 0.250508 -1.527035
v -0.384960 1.355683 -0.598318
v -0.861322 1.185158 -0.603806
v -1.107527 0.808632 -0.802847
v -0.935281 0.384299 -1.126392
v -0.471183 0.108625 -1.404306
v 0.030948 0.249547 -1.393332
v 0.314938 0.639562 -1.204456
v 0.446508 0.813095 -1.395903
v 0.311289 0.433317 -1.382481
v 0.013416 0.273591 -1.603579
v -0.436613 0.931154 -2.395078
v -0.245779 1.279670 -2.422935
v 0.041176 1.434264 -2.202008
v 1.353809 0.568025 -2.953941
v 1.478949 0.639521 -2.902625
v 1.314871 0.448738 -3.041281
v 1.414862 0.346674 -3.113105
v 1.573138 0.315636 -3.140512
v 1.688202 0.382596 -3.094535
v 1.724316 0.491426 -3.012749
v 1.717456 0.304171 -2.431026
v 1.092884 0.611129 -1.846172
v 0.116615 1.112313 -0.854866
v 0.310394 1.242243 -1.770765
v -0.301592 0.508387 -2.052158
v 1.630642 0.597582 -2.930746
vt 0.414412 0.928229
vt 0.372229 0.910743
vt 0.972819 0.766671
vt 0.952686 0.766639
vt 0.992293 0.800796
vt 0.945304 0.792036
vt 0.827701 0.712522
vt 0.863040 0.711763
vt 0.875490 0.727742
vt 0.858876 0.745512
vt 0.273613 0.901883
vt 0.228112 0.913869
vt 0.893638 0.739425
vt 0.901627 0.773519
vt 0.914022 0.749284
vt 0.933466 0.758783
vt 0.324395 0.902878
vt 0.025749 0.579756
vt 0.021365 0.584150
vt 0.015462 0.579580
vt 0.023532 0.574045
vt 0.472506 0.907281
vt 0.467423 0.898976
vt 0.474592 0.896908
vt 0.476487 0.902630
vt 0.467575 0.889714
vt 0.473517 0.891289
vt 0.017907 0.588596
vt 0.011753 0.588414
vt 0.486836 0.913827
vt 0.488681 0.904835
vt 0.037592 0.583162
vt 0.040120 0.573794
vt 0.024003 0.598621
vt 0.015885 0.602558
vt 0.477390 0.878076
vt 0.483198 0.885044
vt 0.486972 0.894015
vt 0.031303 0.592066
vt 0.799582 0.959958
vt 0.793222 0.915299
vt 0.806454 0.911759
vt 0.821517 0.954922
vt 0.774251 0.958583
vt 0.774394 0.913218
vt 0.841589 0.945905
vt 0.819203 0.906789
vt 0.832343 0.893549
vt 0.862051 0.928828
vt 0.888501 0.959767
vt 0.859900 0.979640
vt 0.831655 0.990759
vt 0.800690 0.995585
vt 0.768318 0.992422
vt 0.415863 0.739622
vt 0.376678 0.750297
vt 0.368417 0.724669
vt 0.402725 0.707228
vt 0.356259 0.706146
vt 0.384746 0.682109
vt 0.340216 0.690109
vt 0.360954 0.660865
vt 0.317723 0.678418
vt 0.331153 0.645249
vt 0.328097 0.745228
vt 0.320146 0.734229
vt 0.332073 0.763786
vt 0.310999 0.724190
vt 0.294251 0.716364
vt 0.279224 0.771996
vt 0.274965 0.766007
vt 0.280819 0.785528
vt 0.269725 0.760328
vt 0.256577 0.753028
vt 0.239250 0.790054
vt 0.238261 0.786884
vt 0.238847 0.799030
vt 0.236219 0.783800
vt 0.228076 0.779199
vt 0.767652 0.820717
vt 0.791621 0.857990
vt 0.784825 0.860599
vt 0.764934 0.822931
vt 0.772269 0.812461
vt 0.801038 0.847912
vt 0.761317 0.824541
vt 0.777422 0.862370
vt 0.763021 0.860358
vt 0.751346 0.824900
vt 0.378792 0.875580
vt 0.327170 0.871942
vt 0.329561 0.836588
vt 0.381758 0.833338
vt 0.425533 0.884551
vt 0.428168 0.834319
vt 0.976406 0.843491
vt 0.932342 0.825428
vt 0.950874 0.886937
vt 0.911892 0.862372
vt 0.869789 0.830936
vt 0.886901 0.800513
vt 0.275640 0.845699
vt 0.273184 0.875369
vt 0.226121 0.883179
vt 0.229062 0.852520
vt 0.808547 0.736049
vt 0.844154 0.768012
vt 0.829329 0.794452
vt 0.793455 0.763240
vt 0.596965 0.881673
vt 0.595217 0.860364
vt 0.603813 0.859635
vt 0.604361 0.882300
vt 0.584045 0.884341
vt 0.582047 0.864825
vt 0.612316 0.885005
vt 0.611887 0.860936
vt 0.628682 0.866471
vt 0.629840 0.893610
vt 0.623414 0.920215
vt 0.607001 0.910726
vt 0.599735 0.907337
vt 0.593867 0.906050
vt 0.583657 0.907247
vt 0.166216 0.633271
vt 0.158549 0.659917
vt 0.138578 0.658394
vt 0.146844 0.633466
vt 0.130204 0.656943
vt 0.138600 0.632757
vt 0.123376 0.653927
vt 0.132690 0.630968
vt 0.113722 0.645289
vt 0.124019 0.625080
vt 0.126807 0.680213
vt 0.119172 0.678018
vt 0.143946 0.682615
vt 0.111949 0.672828
vt 0.102085 0.661895
vt 0.113871 0.703834
vt 0.106188 0.697750
vt 0.128303 0.710593
vt 0.097956 0.689272
vt 0.087318 0.676409
vt 0.101292 0.723044
vt 0.092181 0.714160
vt 0.116119 0.733088
vt 0.082789 0.702808
vt 0.071879 0.687558
vt 0.610164 0.810539
vt 0.611951 0.833485
vt 0.602189 0.835243
vt 0.597730 0.814001
vt 0.628066 0.809010
vt 0.628225 0.834087
vt 0.583891 0.819590
vt 0.590947 0.838768
vt 0.575692 0.845159
vt 0.566981 0.828005
vt 0.563046 0.912785
vt 0.561691 0.892471
vt 0.536499 0.917942
vt 0.535467 0.900804
vt 0.097185 0.627711
vt 0.107821 0.610787
vt 0.077690 0.608054
vt 0.086792 0.593674
vt 0.086584 0.642959
vt 0.067280 0.621851
vt 0.054159 0.635080
vt 0.072085 0.657086
vt 0.057688 0.666991
vt 0.041775 0.643918
vt 0.552980 0.854906
vt 0.544771 0.839493
vt 0.526805 0.866083
vt 0.519778 0.852554
vt 0.559207 0.874004
vt 0.532414 0.883857
vt 0.656962 0.939511
vt 0.665315 0.910522
vt 0.706805 0.929928
vt 0.696856 0.961581
vt 0.197983 0.662024
vt 0.205326 0.632557
vt 0.252248 0.633957
vt 0.244165 0.665660
vt 0.222522 0.699670
vt 0.179694 0.690157
vt 0.157506 0.721873
vt 0.193919 0.734528
vt 0.176228 0.760609
vt 0.143345 0.746666
vt 0.697283 0.846086
vt 0.659394 0.838656
vt 0.659107 0.809940
vt 0.695051 0.814062
vt 0.705519 0.890120
vt 0.663115 0.877368
vt 0.850017 0.864995
vt 0.886594 0.899168
vt 0.920013 0.927398
vt 0.380752 0.788870
vt 0.424350 0.783764
vt 0.331697 0.797181
vt 0.278955 0.813140
vt 0.234223 0.821911
vt 0.814206 0.823346
vt 0.781510 0.791716
vt 0.744610 0.902522
vt 0.733647 0.854789
vt 0.727729 0.820449
vt 0.206933 0.771117
vt 0.228721 0.744908
vt 0.262643 0.708565
vt 0.285217 0.670762
vt 0.294674 0.637622
vt 0.743387 0.946976
vt 0.733835 0.980317
vt 0.509061 0.917697
vt 0.509400 0.904541
vt 0.056222 0.592689
vt 0.062155 0.580860
vt 0.047237 0.604293
vt 0.036771 0.614456
vt 0.026689 0.621154
vt 0.501803 0.876467
vt 0.495689 0.865962
vt 0.506660 0.890196
vn 0.050031 0.387050 0.920700
vn 0.396352 0.470695 0.788259
vn 0.370411 0.523342 0.767404
vn -0.313080 0.292049 0.903708
vn 0.454175 -0.274081 -0.847705
vn 0.907980 0.120624 -0.401276
vn 0.933929 0.055238 -0.353164
vn 0.756406 -0.175845 -0.630022
vn 0.857290 0.454347 0.242121
vn 0.968350 0.244414 -0.050602
vn 0.909592 0.308245 0.278619
vn 0.698086 0.472654 0.537842
vn -0.829343 0.141985 -0.540398
vn -0.626609 0.732424 -0.266301
vn -0.029760 0.604290 -0.796208
vn -0.473565 -0.202754 -0.857104
vn -0.098226 0.992149 0.077402
vn 0.461589 0.884569 -0.066876
vn 0.855712 0.430873 -0.286541
vn 0.653463 -0.011870 -0.756866
vn 0.128735 -0.414447 -0.900922
vn -0.788605 0.607061 0.097868
vn -0.120806 0.933821 0.336727
vn -0.935911 -0.014056 -0.351957
vn 0.794800 -0.300178 -0.527433
vn 0.141393 -0.630220 -0.763434
vn 0.947977 0.307649 -0.081806
vn 0.571130 0.776723 0.265542
vn -0.537093 -0.511598 -0.670670
vn 0.169733 0.970328 -0.172202
vn 0.063505 0.997636 0.026249
vn 0.656200 0.734025 0.174952
vn 0.642100 0.745381 0.179208
vn 0.335045 0.861663 -0.381158
vn 0.617466 0.761917 0.195496
vn -0.005160 0.965631 0.259867
vn 0.017140 0.849284 0.527657
vn 0.656492 0.713936 0.243546
vn 0.626529 0.752698 0.202256
vn -0.681247 0.720895 0.127331
vn -0.653506 0.584632 0.480764
vn -0.615967 0.764699 -0.189264
vn -0.483569 0.727337 -0.486972
vn -0.233950 0.543360 -0.806243
vn -0.984504 0.116947 -0.130676
vn -0.987045 0.034890 0.156606
vn -0.923370 0.118917 -0.365030
vn -0.819064 0.057493 -0.570814
vn -0.615302 -0.117962 -0.779415
vn -0.733363 -0.512989 -0.446118
vn -0.790870 -0.463069 -0.400114
vn -0.841321 -0.447612 -0.303024
vn -0.610560 -0.655335 -0.444693
vn -0.697286 -0.553650 -0.455262
vn -0.350713 -0.793641 -0.497126
vn -0.334487 -0.605933 -0.721778
vn -0.349803 -0.467062 -0.812090
vn -0.518841 -0.831641 0.197935
vn -0.460440 -0.879851 -0.117714
vn 0.511107 -0.859510 -0.003531
vn 0.386491 -0.153068 -0.909503
vn 0.335316 -0.100602 -0.936719
vn -0.170342 -0.243027 0.954946
vn -0.179143 -0.287221 0.940963
vn 0.876260 0.393157 0.278560
vn 0.902483 0.378381 -0.205799
vn 0.827236 0.363030 -0.428823
vn 0.368791 0.455607 0.810195
vn 0.605662 0.446311 0.658771
vn -0.873164 -0.150134 0.463729
vn -0.899944 -0.103013 0.423662
vn -0.865393 -0.447771 -0.224936
vn -0.852506 -0.491180 -0.178818
vn -0.856157 -0.191922 0.479751
vn -0.832393 -0.531510 -0.156904
vn -0.390078 0.309535 0.867195
vn -0.440451 0.367798 0.818980
vn 0.324595 0.590060 0.739234
vn 0.266435 0.652990 0.708955
vn 0.777767 0.597126 0.196264
vn 0.818115 0.532074 0.218140
vn -0.392371 -0.465137 -0.793532
vn -0.383857 -0.539755 -0.749212
vn -0.360671 -0.591096 -0.721472
vn 0.333087 -0.158379 -0.929499
vn 0.367807 -0.232123 -0.900465
vn 0.829342 0.284341 -0.480981
vn 0.870139 0.217946 -0.441994
vn 0.028046 0.994777 0.098140
vn 0.390790 0.855347 -0.340097
vn 0.743565 0.573377 0.344019
vn 0.752657 0.557246 0.350692
vn -0.159490 0.853678 0.495780
vn 0.724709 0.578589 0.374207
vn 0.582633 0.665237 -0.466903
vn 0.617511 0.629750 -0.471269
vn 0.679765 0.640401 0.357498
vn 0.709237 0.595336 0.377567
vn 0.268902 0.234360 -0.934220
vn 0.281491 0.188301 -0.940907
vn -0.011797 0.458170 -0.888787
vn -0.672176 0.683869 -0.283729
vn -0.834005 0.478372 0.274949
vn -0.174319 -0.308532 -0.935105
vn -0.177158 -0.384196 -0.906095
vn -0.402205 -0.214493 -0.890070
vn -0.790718 -0.150906 -0.593290
vn -0.930581 -0.155668 -0.331340
vn -0.327256 -0.844679 -0.423581
vn -0.395118 -0.839295 -0.373452
vn -0.470400 -0.825692 -0.311380
vn -0.337079 -0.749433 -0.569849
vn -0.292286 -0.827302 -0.479730
vn 0.165842 -0.986149 -0.002462
vn -0.069568 -0.985153 0.156952
vn -0.293931 -0.912897 0.283237
vn 0.311007 -0.856121 -0.412712
vn 0.303457 -0.932384 -0.196402
vn 0.638403 -0.695011 0.330757
vn 0.431147 -0.670811 0.603427
vn 0.175535 -0.549961 0.816535
vn 0.796679 -0.587551 -0.141724
vn 0.744348 -0.663525 0.075375
vn 0.863979 -0.083439 0.496566
vn 0.717010 0.025709 0.696589
vn 0.558392 0.166914 0.812612
vn 0.987519 -0.063149 0.144284
vn 0.946197 -0.134157 0.294470
vn -0.815887 0.455706 0.355894
vn -0.177971 0.809674 0.559244
vn -0.819418 0.495638 0.287919
vn -0.135443 0.862217 0.488096
vn -0.979599 -0.112871 -0.166270
vn -0.969985 -0.108375 -0.217678
vn -0.432409 -0.663233 -0.610855
vn -0.484607 -0.603644 -0.633064
vn 0.220081 -0.685987 -0.693532
vn 0.274031 -0.770758 -0.575186
vn 0.819373 -0.486278 -0.303582
vn 0.812146 -0.371372 -0.450003
vn 0.996777 0.069220 0.040544
vn 0.979112 0.196547 -0.052045
vn 0.665603 0.644531 0.376234
vn 0.638682 0.701668 0.315830
vn 0.253004 0.185749 -0.949466
vn 0.184909 0.207345 -0.960634
vn 0.557925 0.685006 -0.468493
vn 0.595511 0.646550 -0.476802
vn -0.203115 -0.406174 -0.890936
vn -0.266439 -0.400560 -0.876676
vn -0.512507 -0.789131 -0.338539
vn -0.491961 -0.807389 -0.325724
vn -0.406484 -0.858453 0.312777
vn -0.467100 -0.824443 0.319549
vn -0.046995 -0.336695 0.940440
vn 0.045097 -0.429655 0.901866
vn 0.443185 0.383339 0.810332
vn 0.498664 0.302124 0.812438
vn 0.624653 0.734029 0.266479
vn 0.664090 0.690387 0.286969
vn 0.153636 0.730252 0.665679
vn 0.731486 0.649469 0.207648
vn -0.538787 0.454715 0.709185
vn -0.937125 -0.048340 0.345630
vn -0.858356 -0.443770 -0.257473
vn -0.373029 -0.438367 -0.817731
vn 0.324895 -0.123675 -0.937629
vn 0.811340 0.322538 -0.487541
vn 0.374068 0.428396 0.822527
vn 0.596237 0.762766 0.250379
vn -0.121949 -0.272918 0.954277
vn -0.505083 -0.804918 0.311444
vn -0.545789 -0.748073 -0.377494
vn -0.402964 -0.309118 -0.861432
vn 0.017493 0.318819 -0.947654
vn 0.482243 0.737624 -0.472603
vn -0.814000 0.534118 0.228305
vn -0.135996 0.888714 0.437827
vn -0.962716 -0.072661 -0.260574
vn -0.527002 -0.551999 -0.646194
vn 0.155512 -0.644434 -0.748679
vn 0.799150 -0.315261 -0.511830
vn 0.955540 0.285778 -0.072623
vn 0.592014 0.748499 0.298779
s 1
g FoodLHorn
usemtl delete11:blinn1SG
f 12/3/1 9/4/2 3/6/3 2/5/4
f 5/7/5 6/10/6 10/9/7 13/8/8
f 10/9/7 6/10/6 7/14/9 14/13/10
f 14/13/10 7/14/9 11/15/11
f 11/15/11 7/14/9 15/16/12
f 15/16/12 7/14/9 3/6/3 9/4/2
f 16/18/13 20/21/14 64/20/15 63/19/16
f 20/22/14 17/25/17 21/24/18 64/23/15
f 64/23/15 21/24/18 19/27/19 22/26/20
f 63/19/16 64/20/15 22/29/20 18/28/21
f 65/30/22 23/31/23 17/25/17 20/22/14
f 66/32/24 65/33/22 20/21/14 16/18/13
f 18/28/21 22/29/20 69/35/25 67/34/26
f 22/26/20 19/27/19 68/37/27 69/36/25
f 68/37/27 19/27/19 21/24/18 70/38/28
f 70/38/28 21/24/18 17/25/17 23/31/23
f 18/28/21 67/34/26 24/39/29 63/19/16
f 63/19/16 24/39/29 66/32/24 16/18/13
f 71/40/30 25/43/31 96/42/32 73/41/33
f 72/44/34 71/40/30 73/41/33 97/45/35
f 74/46/36 26/49/37 37/48/38 75/47/39
f 25/43/31 74/46/36 75/47/39 96/42/32
f 26/49/37 74/46/36 77/51/40 27/50/41
f 74/46/36 25/43/31 76/52/42 77/51/40
f 25/43/31 71/40/30 79/53/43 76/52/42
f 71/40/30 72/44/34 78/54/44 79/53/43
f 27/55/41 77/58/40 81/57/45 84/56/46
f 77/58/40 76/60/42 80/59/47 81/57/45
f 76/60/42 79/62/43 83/61/48 80/59/47
f 79/62/43 78/64/44 82/63/49 83/61/48
f 81/57/45 80/59/47 28/66/50 85/65/51
f 84/56/46 81/57/45 85/65/51 87/67/52
f 83/61/48 82/63/49 29/69/53 86/68/54
f 80/59/47 83/61/48 86/68/54 28/66/50
f 85/65/51 28/66/50 30/71/55 88/70/56
f 87/67/52 85/65/51 88/70/56 90/72/57
f 86/68/54 29/69/53 31/74/58 89/73/59
f 28/66/50 86/68/54 89/73/59 30/71/55
f 88/70/56 30/71/55 32/76/60 91/75/61
f 90/72/57 88/70/56 91/75/61 93/77/62
f 89/73/59 31/74/58 33/79/63 92/78/64
f 30/71/55 89/73/59 92/78/64 32/76/60
f 91/80/61 32/83/60 34/82/65 94/81/66
f 93/84/62 91/80/61 94/81/66 35/85/67
f 92/86/64 33/89/63 36/88/68 95/87/69
f 32/83/60 92/86/64 95/87/69 34/82/65
f 35/85/67 94/81/66 75/47/39 37/48/38
f 94/81/66 34/82/65 96/42/32 75/47/39
f 34/82/65 95/87/69 73/41/33 96/42/32
f 95/87/69 36/88/68 97/45/35 73/41/33
f 98/90/70 100/93/71 51/92/72 99/91/73
f 1/2/74 98/90/70 99/91/73 8/17/75
f 98/90/70 1/2/74 2/1/4 101/94/76
f 100/93/71 98/90/70 101/94/76 102/95/77
f 101/96/76 2/5/4 3/6/3 103/97/78
f 102/98/77 101/96/76 103/97/78 104/99/79
f 109/100/80 104/99/79 103/97/78 105/101/81
f 105/101/81 103/97/78 3/6/3 7/14/9
f 52/102/82 106/103/83 99/91/73 51/92/72
f 106/103/83 4/11/84 8/17/75 99/91/73
f 106/103/83 52/102/82 53/105/85 107/104/86
f 4/11/84 106/103/83 107/104/86 5/12/5
f 107/106/86 53/109/85 54/108/87 108/107/88
f 5/7/5 107/106/86 108/107/88 6/10/6
f 6/10/6 108/107/88 105/101/81 7/14/9
f 108/107/88 54/108/87 109/100/80 105/101/81
f 110/110/89 38/113/90 135/112/91 112/111/92
f 111/114/93 110/110/89 112/111/92 136/115/94
f 113/116/95 39/119/96 50/118/97 114/117/98
f 38/113/90 113/116/95 114/117/98 135/112/91
f 39/119/96 113/116/95 116/121/99 40/120/100
f 113/116/95 38/113/90 115/122/101 116/121/99
f 38/113/90 110/110/89 118/123/102 115/122/101
f 110/110/89 111/114/93 117/124/103 118/123/102
f 40/125/100 116/128/99 120/127/104 123/126/105
f 116/128/99 115/130/101 119/129/106 120/127/104
f 115/130/101 118/132/102 122/131/107 119/129/106
f 118/132/102 117/134/103 121/133/108 122/131/107
f 120/127/104 119/129/106 41/136/109 124/135/110
f 123/126/105 120/127/104 124/135/110 126/137/111
f 122/131/107 121/133/108 42/139/112 125/138/113
f 119/129/106 122/131/107 125/138/113 41/136/109
f 124/135/110 41/136/109 43/141/114 127/140/115
f 126/137/111 124/135/110 127/140/115 129/142/116
f 125/138/113 42/139/112 44/144/117 128/143/118
f 41/136/109 125/138/113 128/143/118 43/141/114
f 127/140/115 43/141/114 45/146/119 130/145/120
f 129/142/116 127/140/115 130/145/120 132/147/121
f 128/143/118 44/144/117 46/149/122 131/148/123
f 43/141/114 128/143/118 131/148/123 45/146/119
f 130/150/120 45/153/119 47/152/124 133/151/125
f 132/154/121 130/150/120 133/151/125 49/155/126
f 131/156/123 46/159/122 48/158/127 134/157/128
f 45/153/119 131/156/123 134/157/128 47/152/124
f 49/155/126 133/151/125 114/117/98 50/118/97
f 133/151/125 47/152/124 135/112/91 114/117/98
f 47/152/124 134/157/128 112/111/92 135/112/91
f 134/157/128 48/158/127 136/115/94 112/111/92
f 137/160/129 117/124/103 111/114/93 139/161/130
f 138/162/131 137/160/129 139/161/130 147/163/132
f 140/164/133 121/133/108 117/134/103 137/165/129
f 141/166/134 140/164/133 137/165/129 138/167/131
f 42/139/112 121/133/108 140/164/133 142/168/135
f 142/168/135 140/164/133 141/166/134 59/169/136
f 60/170/137 143/171/138 142/168/135 59/169/136
f 143/171/138 44/144/117 42/139/112 142/168/135
f 46/149/122 44/144/117 143/171/138 144/172/139
f 144/172/139 143/171/138 60/170/137 61/173/140
f 48/158/127 46/159/122 144/175/139 145/174/141
f 145/174/141 144/175/139 61/177/140 62/176/142
f 136/115/94 48/158/127 145/174/141 179/178/143
f 179/178/143 145/174/141 62/176/142 146/179/144
f 146/179/144 147/163/132 139/161/130 179/178/143
f 179/178/143 139/161/130 111/114/93 136/115/94
f 148/180/145 57/183/146 58/182/147 149/181/148
f 40/120/100 148/180/145 149/181/148 39/119/96
f 150/184/149 151/187/150 57/186/146 148/185/145
f 123/126/105 150/184/149 148/185/145 40/125/100
f 154/188/151 151/187/150 150/184/149 152/189/152
f 152/189/152 150/184/149 123/126/105 126/137/111
f 129/142/116 153/190/153 152/189/152 126/137/111
f 153/190/153 155/191/154 154/188/151 152/189/152
f 157/192/155 155/191/154 153/190/153 156/193/156
f 156/193/156 153/190/153 129/142/116 132/147/121
f 56/194/157 157/197/155 156/196/156 158/195/158
f 158/195/158 156/196/156 132/154/121 49/155/126
f 55/198/159 56/194/157 158/195/158 180/199/160
f 180/199/160 158/195/158 49/155/126 50/118/97
f 50/118/97 39/119/96 149/181/148 180/199/160
f 180/199/160 149/181/148 58/182/147 55/198/159
f 37/48/38 26/49/37 159/201/161 181/200/162
f 181/200/162 159/201/161 104/99/79 109/100/80
f 160/202/163 102/98/77 104/99/79 159/201/161
f 27/50/41 160/202/163 159/201/161 26/49/37
f 161/203/164 100/93/71 102/95/77 160/204/163
f 84/56/46 161/203/164 160/204/163 27/55/41
f 51/92/72 100/93/71 161/203/164 162/205/165
f 162/205/165 161/203/164 84/56/46 87/67/52
f 90/72/57 163/206/166 162/205/165 87/67/52
f 163/206/166 52/102/82 51/92/72 162/205/165
f 53/105/85 52/102/82 163/206/166 164/207/167
f 164/207/167 163/206/166 90/72/57 93/77/62
f 54/108/87 53/109/85 164/209/167 165/208/168
f 165/208/168 164/209/167 93/84/62 35/85/67
f 109/100/80 54/108/87 165/208/168 181/200/162
f 181/200/162 165/208/168 35/85/67 37/48/38
f 97/45/35 36/88/68 166/211/169 182/210/170
f 182/210/170 166/211/169 56/194/157 55/198/159
f 36/88/68 33/89/63 167/212/171 166/211/169
f 166/211/169 167/212/171 157/197/155 56/194/157
f 33/79/63 31/74/58 168/214/172 167/213/171
f 167/213/171 168/214/172 155/191/154 157/192/155
f 154/188/151 155/191/154 168/214/172 183/215/173
f 183/215/173 168/214/172 31/74/58 29/69/53
f 29/69/53 82/63/49 169/216/174 183/215/173
f 183/215/173 169/216/174 151/187/150 154/188/151
f 57/186/146 151/187/150 169/216/174 170/217/175
f 170/217/175 169/216/174 82/63/49 78/64/44
f 58/182/147 57/183/146 170/219/175 171/218/176
f 171/218/176 170/219/175 78/54/44 72/44/34
f 55/198/159 58/182/147 171/218/176 182/210/170
f 182/210/170 171/218/176 72/44/34 97/45/35
f 172/220/177 138/162/131 147/163/132 173/221/178
f 65/30/22 172/220/177 173/221/178 23/31/23
f 174/222/179 141/166/134 138/167/131 172/223/177
f 66/32/24 174/222/179 172/223/177 65/33/22
f 59/169/136 141/166/134 174/222/179 175/224/180
f 175/224/180 174/222/179 66/32/24 24/39/29
f 67/34/26 176/225/181 175/224/180 24/39/29
f 176/225/181 60/170/137 59/169/136 175/224/180
f 61/173/140 60/170/137 176/225/181 177/226/182
f 177/226/182 176/225/181 67/34/26 69/35/25
f 62/176/142 61/177/140 177/228/182 178/227/183
f 178/227/183 177/228/182 69/36/25 68/37/27
f 146/179/144 62/176/142 178/227/183 184/229/184
f 184/229/184 178/227/183 68/37/27 70/38/28
f 173/221/178 147/163/132 146/179/144 184/229/184
f 23/31/23 173/221/178 184/229/184 70/38/28
