# This file uses centimeters as units for non-parametric coordinates.

mtllib BeachRockRampCOL.mtl
g default
v 28.846487 -13.135477 1.934798
v 31.043835 -14.860907 -1.899972
v 28.766018 3.873414 2.128195
v 30.987177 2.340855 -1.998105
v 28.708935 -13.824586 -13.255204
v 24.474857 -13.758034 -13.255205
v 22.165436 -13.321513 -9.584141
v 31.030767 -13.824587 -9.603004
v 28.651646 0.853296 -13.155973
v 24.532148 2.186110 -13.155973
v 22.222094 3.179857 -9.486008
v 30.974110 0.260061 -9.504871
v 35.358223 -13.980223 -9.424652
v 35.358223 -15.759794 -2.091015
v 37.475262 -15.114285 -5.757834
v 35.300930 0.226528 -9.325420
v 35.300930 0.853296 -2.190247
v 37.360680 0.226528 -5.757834
v 17.850386 -12.284393 -9.386925
v 15.521044 -11.086810 -5.746195
v 17.907677 4.570979 -9.287693
v 15.577700 5.788938 -5.648062
v 17.749493 -9.250144 5.764396
v 22.178505 -10.789946 5.777463
v 17.692835 7.595348 5.666263
v 22.235161 6.249269 5.679330
v 11.098716 -9.402732 -5.770524
v 11.042058 7.324981 -5.672390
v 11.088358 -6.113169 9.573652
v 15.420149 -7.641157 9.412176
v 11.031699 10.321895 9.475519
v 15.362858 8.984713 9.312945
v 2.189643 -3.796088 9.564569
v 4.528115 -3.174537 13.208977
v 8.762194 -4.514697 13.208978
v 2.246300 12.757843 9.466435
v 4.585406 12.867412 13.109747
v 8.704903 11.805419 13.109747
v 2.215512 -5.198753 -5.791079
v -2.213843 -3.648725 -5.794139
v 2.272169 10.466645 -5.692946
v -2.414298 12.226867 -5.846797
v -2.254210 -2.398968 9.578094
v -2.310867 13.992705 9.479960
v -11.119026 -0.341012 9.574984
v -8.816490 -0.313582 13.236027
v -4.582411 -1.146569 13.236027
v -11.062369 15.793210 9.476850
v -8.759199 15.743049 13.136795
v -4.639702 15.093969 13.136795
v -11.094172 -0.472886 -5.795394
v -15.523535 0.190805 -5.794151
v -11.037515 14.860240 -5.697261
v -15.580192 15.845168 -5.696018
v -15.501760 0.259375 9.584572
v -15.558417 16.364527 9.486439
v 24.500996 -9.994874 9.438312
v 28.735075 -11.398851 9.438313
v 30.852114 -12.440522 5.771493
v 24.558287 6.739032 9.339080
v 28.764177 5.491845 9.075941
v 30.737532 1.818633 5.771493
v -17.848328 0.490478 -9.439215
v -22.082405 0.502983 -9.439215
v -24.391178 0.502983 -5.772456
v -17.905621 16.347548 -9.339983
v -22.025114 16.489307 -9.339984
v -24.334518 16.522840 -5.674324
v -24.358313 0.502983 9.603587
v -22.038857 0.502983 13.255205
v -17.804777 0.502983 13.255206
v -24.301653 16.522840 9.505454
v -21.981565 16.489307 13.155974
v -17.862068 16.489307 13.155974
v -28.800634 0.502983 -5.747256
v -28.857290 16.522840 -5.649124
v -31.012730 0.502983 5.782968
v -28.683395 0.502983 9.425817
v -30.956070 16.522840 5.684834
v -28.626104 16.489307 9.326586
v -35.464367 0.502983 -1.887424
v -37.464725 0.502983 1.947147
v -35.347691 0.502983 5.613967
v -35.351051 16.522840 -1.887424
v -37.350143 16.489307 1.947147
v -35.290398 16.489307 5.514735
v -31.124144 0.502983 -9.388815
v -35.358219 0.502983 -9.388815
v -37.475262 0.502983 -5.721997
v -31.181435 16.489307 -9.289583
v -35.300926 16.489307 -9.289584
v -37.360680 16.489307 -5.721997
v -4.532703 -2.226316 -9.441703
v -8.766780 -1.127667 -9.441704
v -4.589994 11.024654 -9.342471
v -8.454903 14.511731 -9.311966
v 8.782909 -7.759827 -9.435581
v 4.548832 -6.318301 -9.435581
v 8.725618 8.666564 -9.336349
v 4.606124 9.980742 -9.336349
v 25.494057 3.526636 -3.678906
v 23.335926 5.031412 -0.105876
v 18.906429 6.019104 0.015634
v 14.367447 7.460165 -0.003063
v 9.984491 9.482727 -0.011702
v 6.651934 10.394270 1.891287
v 3.145302 12.016143 3.631475
v -3.104301 13.634787 0.077235
v -6.674191 14.426473 1.891350
v -10.109947 15.469568 3.720388
v -16.543741 16.141258 0.068433
v -19.946468 16.443684 1.906057
v -23.359680 16.506073 3.753425
v -29.801289 16.506073 0.107935
vt 0.904501 0.338103
vt 0.941779 0.325670
vt 0.940766 0.459890
vt 0.903503 0.470311
vt 0.912650 0.660796
vt 0.931877 0.696580
vt 0.187045 0.741645
vt 0.221051 0.741997
vt 0.221404 0.866367
vt 0.187366 0.855555
vt 0.258114 0.745255
vt 0.258447 0.873616
vt 0.150128 0.741812
vt 0.150459 0.850558
vt 0.911687 0.793118
vt 0.876016 0.793115
vt 0.856034 0.761342
vt 0.931797 0.761532
vt 0.113237 0.740750
vt 0.113581 0.850626
vt 0.011526 0.733241
vt 0.045329 0.727067
vt 0.045745 0.855833
vt 0.011940 0.866251
vt 0.079268 0.732006
vt 0.079648 0.850720
vt 0.969237 0.759965
vt 0.969238 0.698255
vt 0.987061 0.729106
vt 0.295146 0.753190
vt 0.295433 0.884624
vt 0.332278 0.762403
vt 0.332527 0.893922
vt 0.818687 0.759611
vt 0.798524 0.728124
vt 0.721203 0.367389
vt 0.761493 0.355537
vt 0.760487 0.488712
vt 0.720209 0.498731
vt 0.816787 0.630232
vt 0.856141 0.630107
vt 0.372523 0.775430
vt 0.372724 0.906068
vt 0.759254 0.728325
vt 0.646620 0.391585
vt 0.683928 0.379806
vt 0.682946 0.509408
vt 0.645648 0.519804
vt 0.759126 0.597258
vt 0.796610 0.598675
vt 0.537959 0.409055
vt 0.575100 0.414239
vt 0.574145 0.539912
vt 0.536976 0.538427
vt 0.609405 0.403922
vt 0.608438 0.531327
vt 0.683090 0.597321
vt 0.703337 0.565780
vt 0.738970 0.565803
vt 0.482140 0.807956
vt 0.523105 0.819966
vt 0.523191 0.945816
vt 0.482266 0.932273
vt 0.683326 0.728516
vt 0.644254 0.727512
vt 0.497624 0.419774
vt 0.496649 0.547582
vt 0.643619 0.597218
vt 0.388925 0.435186
vt 0.426080 0.435685
vt 0.425122 0.561249
vt 0.387962 0.561046
vt 0.460348 0.429373
vt 0.459381 0.556172
vt 0.567880 0.597235
vt 0.587822 0.565554
vt 0.623452 0.565563
vt 0.636271 0.844274
vt 0.678982 0.849451
vt 0.678956 0.978803
vt 0.636239 0.970341
vt 0.568097 0.728558
vt 0.528754 0.728542
vt 0.348919 0.439619
vt 0.347956 0.565075
vt 0.528940 0.597155
vt 0.798662 0.362091
vt 0.797673 0.493118
vt 0.832978 0.351269
vt 0.831978 0.483599
vt 0.867271 0.343306
vt 0.866436 0.454064
vt 0.876256 0.598420
vt 0.912605 0.600791
vt 0.718642 0.851722
vt 0.755271 0.851666
vt 0.755309 0.985031
vt 0.718642 0.983714
vt 0.795152 0.851523
vt 0.795245 0.985152
vt 0.508614 0.760089
vt 0.472982 0.760089
vt 0.452986 0.728364
vt 0.240349 0.440709
vt 0.277499 0.440995
vt 0.276543 0.565771
vt 0.239392 0.565484
vt 0.311711 0.441257
vt 0.310755 0.566034
vt 0.453272 0.596987
vt 0.473361 0.565391
vt 0.508993 0.565392
vt 0.838180 0.851384
vt 0.838346 0.985200
vt 0.413810 0.728145
vt 0.166043 0.440140
vt 0.203183 0.440424
vt 0.202227 0.565201
vt 0.165087 0.564917
vt 0.395664 0.630062
vt 0.415838 0.598543
vt 0.060473 0.439330
vt 0.094619 0.439591
vt 0.093662 0.564371
vt 0.059513 0.564110
vt 0.128832 0.439853
vt 0.127875 0.564633
vt 0.357626 0.695598
vt 0.340328 0.662402
vt 0.358144 0.631543
vt 0.878052 0.851258
vt 0.914811 0.851135
vt 0.915080 0.985171
vt 0.878271 0.985201
vt 0.951591 0.851029
vt 0.951900 0.985115
vt 0.988333 0.850927
vt 0.988665 0.985021
vt 0.393686 0.759654
vt 0.358053 0.759654
vt 0.340236 0.728795
vt 0.561231 0.830991
vt 0.597035 0.839271
vt 0.597026 0.968038
vt 0.561240 0.937626
vt 0.624111 0.760247
vt 0.590467 0.759789
vt 0.639605 0.734544
vt 0.409949 0.788172
vt 0.444465 0.799357
vt 0.444631 0.928532
vt 0.410111 0.917379
vt 0.739157 0.760040
vt 0.703514 0.760056
vt 0.929959 0.629370
vt 0.884342 0.711069
vt 0.865646 0.680201
vt 0.827332 0.679116
vt 0.788020 0.679278
vt 0.750062 0.679366
vt 0.721226 0.662887
vt 0.691612 0.646657
vt 0.636778 0.678555
vt 0.605858 0.662888
vt 0.576103 0.647053
vt 0.520431 0.678662
vt 0.490963 0.662759
vt 0.461402 0.646769
vt 0.405663 0.678321
vn 0.874730 0.002157 0.484605
vn 0.874730 0.002157 0.484605
vn 0.874730 0.002157 0.484605
vn 0.874730 0.002157 0.484605
vn 0.288381 0.932462 -0.217605
vn 0.289271 0.932070 -0.218101
vn 0.288858 0.932252 -0.217871
vn 0.288381 0.932461 -0.217605
vn 0.001085 0.006481 -0.999978
vn 0.001085 0.006481 -0.999978
vn 0.001085 0.006481 -0.999978
vn 0.001085 0.006481 -0.999978
vn -0.845808 0.006216 -0.533451
vn -0.845808 0.006216 -0.533451
vn -0.845808 0.006216 -0.533451
vn -0.845808 0.006216 -0.533451
vn 0.844069 0.007023 -0.536188
vn 0.844069 0.007023 -0.536188
vn 0.844070 0.007023 -0.536188
vn 0.844069 0.007023 -0.536188
vn 0.242469 0.953887 -0.176945
vn 0.231996 0.958768 -0.164139
vn 0.266373 0.941532 -0.206310
vn 0.375283 0.903702 -0.206120
vn 0.340057 0.911587 -0.231019
vn 0.305070 0.917589 -0.254877
vn 0.041464 0.007137 -0.999115
vn 0.041464 0.007137 -0.999115
vn 0.041464 0.007137 -0.999115
vn 0.041464 0.007137 -0.999115
vn 0.046019 0.005985 0.998923
vn 0.046019 0.005985 0.998923
vn 0.046019 0.005985 0.998923
vn 0.046019 0.005985 0.998923
vn 0.866002 0.006211 0.500003
vn 0.866002 0.006211 0.500003
vn 0.866002 0.006211 0.500003
vn 0.866002 0.006211 0.500003
vn 0.866461 0.006717 -0.499199
vn 0.866461 0.006717 -0.499199
vn 0.866461 0.006717 -0.499199
vn 0.866461 0.006717 -0.499199
vn 0.056480 0.994574 -0.087365
vn 0.056480 0.994574 -0.087365
vn 0.056480 0.994574 -0.087365
vn 0.056480 0.994574 -0.087365
vn -0.044084 0.006062 -0.999010
vn -0.044084 0.006062 -0.999009
vn -0.044084 0.006062 -0.999010
vn -0.044084 0.006062 -0.999009
vn -0.841357 0.006004 -0.540447
vn -0.841357 0.006004 -0.540447
vn -0.841356 0.006004 -0.540447
vn -0.841356 0.006004 -0.540447
vn -0.001050 0.005792 0.999983
vn -0.001050 0.005792 0.999983
vn -0.001050 0.005792 0.999983
vn -0.001050 0.005792 0.999983
vn 0.294201 0.933969 -0.202847
vn 0.299763 0.931500 -0.206034
vn 0.288149 0.936599 -0.199378
vn 0.288149 0.936600 -0.199378
vn 0.215194 0.960108 -0.178561
vn 0.214706 0.956772 -0.196184
vn 0.215257 0.955722 -0.200650
vn 0.215257 0.955722 -0.200650
vn 0.007531 0.005840 -0.999955
vn 0.007531 0.005840 -0.999955
vn 0.007531 0.005840 -0.999955
vn 0.007531 0.005840 -0.999955
vn 0.039395 0.006101 0.999205
vn 0.039395 0.006101 0.999205
vn 0.039395 0.006101 0.999205
vn 0.039395 0.006101 0.999205
vn 0.843859 0.006036 0.536532
vn 0.843859 0.006036 0.536532
vn 0.843859 0.006036 0.536532
vn 0.843859 0.006036 0.536532
vn 0.362090 0.912968 -0.188095
vn 0.362090 0.912968 -0.188095
vn 0.369809 0.907219 -0.200486
vn 0.397139 0.898241 -0.188266
vn -0.841833 0.006211 0.539702
vn -0.841833 0.006211 0.539702
vn -0.841833 0.006211 0.539702
vn -0.841833 0.006211 0.539702
vn 0.001763 0.006132 0.999980
vn 0.001763 0.006132 0.999980
vn 0.001763 0.006132 0.999980
vn 0.001763 0.006132 0.999980
vn 0.843418 0.006171 0.537223
vn 0.843418 0.006171 0.537223
vn 0.843418 0.006171 0.537223
vn 0.843418 0.006171 0.537223
vn 0.224301 0.968086 -0.111794
vn 0.210280 0.970360 -0.119100
vn 0.210280 0.970360 -0.119100
vn 0.276883 0.955054 -0.105868
vn 0.017763 0.001523 -0.999841
vn 0.017763 0.001523 -0.999841
vn 0.017763 0.001523 -0.999841
vn 0.017763 0.001523 -0.999841
vn 0.337079 0.923908 -0.181028
vn 0.337661 0.923628 -0.181372
vn 0.330386 0.927086 -0.177077
vn 0.330386 0.927086 -0.177077
vn 0.004747 0.005957 0.999971
vn 0.004747 0.005957 0.999971
vn 0.004747 0.005957 0.999971
vn 0.004747 0.005957 0.999971
vn -0.846406 0.006261 0.532502
vn -0.846406 0.006261 0.532502
vn -0.846406 0.006261 0.532502
vn -0.846406 0.006261 0.532502
vn 0.001090 0.006145 0.999981
vn 0.001090 0.006145 0.999981
vn 0.001090 0.006145 0.999981
vn 0.001090 0.006145 0.999981
vn 0.844432 0.006188 0.535627
vn 0.844432 0.006188 0.535627
vn 0.844432 0.006188 0.535627
vn 0.844432 0.006188 0.535627
vn 0.133161 0.990031 -0.045906
vn 0.135172 0.989652 -0.048132
vn 0.135172 0.989652 -0.048132
vn 0.126441 0.991238 -0.038199
vn 0.243267 0.965322 -0.094730
vn 0.242376 0.965598 -0.094201
vn 0.258506 0.960419 -0.103776
vn 0.258506 0.960419 -0.103776
vn 0.000887 0.006334 -0.999980
vn 0.000887 0.006334 -0.999980
vn 0.000887 0.006334 -0.999980
vn 0.000887 0.006334 -0.999980
vn 0.002963 0.006088 0.999977
vn 0.002963 0.006088 0.999977
vn 0.002963 0.006088 0.999977
vn 0.002963 0.006088 0.999977
vn -0.844796 0.005977 0.535055
vn -0.844796 0.005977 0.535055
vn -0.844796 0.005977 0.535055
vn -0.844796 0.005977 0.535055
vn 0.035435 0.013627 0.999279
vn 0.035435 0.013627 0.999279
vn 0.035435 0.013627 0.999279
vn 0.035435 0.013627 0.999279
vn 0.864879 0.008212 0.501914
vn 0.864879 0.008212 0.501914
vn 0.864879 0.008212 0.501914
vn 0.864879 0.008212 0.501914
vn 0.883551 0.008408 -0.468259
vn 0.883551 0.008408 -0.468259
vn 0.883551 0.008408 -0.468259
vn 0.883551 0.008408 -0.468259
vn 0.000115 0.006232 -0.999981
vn 0.000115 0.006232 -0.999981
vn 0.000115 0.006232 -0.999981
vn 0.000115 0.006232 -0.999981
vn -0.846127 0.006299 -0.532945
vn -0.846127 0.006299 -0.532945
vn -0.846127 0.006299 -0.532945
vn -0.846127 0.006299 -0.532945
vn 0.843348 0.006415 -0.537329
vn 0.843348 0.006415 -0.537329
vn 0.843348 0.006415 -0.537329
vn 0.843348 0.006415 -0.537329
vn 0.078278 0.996723 -0.020411
vn 0.077269 0.996813 -0.019822
vn 0.101969 0.994198 -0.034238
vn 0.101969 0.994198 -0.034238
vn -0.844012 0.006312 0.536287
vn -0.844012 0.006312 0.536287
vn -0.844012 0.006312 0.536287
vn -0.844012 0.006312 0.536287
vn -0.000000 0.006207 0.999981
vn -0.000000 0.006207 0.999981
vn -0.000000 0.006207 0.999981
vn -0.000000 0.006207 0.999981
vn 0.847133 0.006276 0.531344
vn 0.847133 0.006276 0.531344
vn 0.847133 0.006276 0.531344
vn 0.847133 0.006276 0.531344
vn 0.004046 0.999992 0.000459
vn 0.004577 0.999989 0.001112
vn 0.004577 0.999989 0.001112
vn 0.001897 0.999998 -0.000786
vn 0.016372 0.999858 -0.003883
vn 0.016050 0.999864 -0.003695
vn 0.024446 0.999664 -0.008583
vn 0.024446 0.999664 -0.008583
vn -0.005642 0.006125 -0.999965
vn -0.005642 0.006125 -0.999965
vn -0.005642 0.006125 -0.999965
vn -0.005642 0.006125 -0.999965
vn -0.842391 0.006322 0.538830
vn -0.842391 0.006322 0.538830
vn -0.842391 0.006322 0.538830
vn -0.842391 0.006322 0.538830
vn -0.041221 0.006308 0.999130
vn -0.041221 0.006308 0.999130
vn -0.041221 0.006308 0.999130
vn -0.041221 0.006308 0.999130
vn -0.886666 0.006313 -0.462368
vn -0.886666 0.006313 -0.462368
vn -0.886666 0.006313 -0.462368
vn -0.886666 0.006313 -0.462368
vn -0.866009 0.006207 0.499990
vn -0.866009 0.006207 0.499990
vn -0.866009 0.006207 0.499990
vn -0.866009 0.006207 0.499990
vn -0.039109 0.006301 0.999215
vn -0.039109 0.006301 0.999215
vn -0.039109 0.006301 0.999215
vn -0.039109 0.006301 0.999215
vn -0.007930 0.999958 0.004595
vn -0.007930 0.999958 0.004595
vn -0.007930 0.999958 0.004595
vn -0.007930 0.999958 0.004595
vn 0.000000 0.006207 -0.999981
vn 0.000000 0.006207 -0.999981
vn 0.000000 0.006207 -0.999981
vn 0.000000 0.006207 -0.999981
vn -0.866008 0.006207 -0.499991
vn -0.866008 0.006207 -0.499991
vn -0.866008 0.006207 -0.499991
vn -0.866008 0.006207 -0.499991
vn -0.885666 0.006306 0.464280
vn -0.885666 0.006306 0.464280
vn -0.885666 0.006306 0.464280
vn -0.885666 0.006306 0.464280
vn 0.842916 0.006319 -0.538009
vn 0.842916 0.006319 -0.538009
vn 0.842916 0.006319 -0.538009
vn 0.842915 0.006319 -0.538009
vn 0.001597 0.999997 -0.001606
vn 0.001644 0.999990 -0.004182
vn -0.000371 0.999999 0.001324
vn 0.000718 0.007919 -0.999968
vn 0.000718 0.007919 -0.999968
vn 0.000718 0.007919 -0.999968
vn 0.000718 0.007919 -0.999968
vn -0.827404 0.013976 -0.561434
vn -0.827404 0.013976 -0.561433
vn -0.827404 0.013976 -0.561434
vn -0.827404 0.013976 -0.561433
vn 0.846482 0.008342 -0.532353
vn 0.846482 0.008342 -0.532353
vn 0.846482 0.008342 -0.532353
vn 0.846482 0.008342 -0.532353
vn 0.553739 0.618614 -0.557396
vn 0.553739 0.618614 -0.557396
vn 0.553739 0.618614 -0.557396
vn 0.199319 0.979180 -0.038447
vn 0.196835 0.979739 -0.036983
vn 0.229614 0.971649 -0.056362
vn 0.229614 0.971649 -0.056362
vn 0.002001 0.006064 -0.999980
vn 0.002001 0.006064 -0.999980
vn 0.002001 0.006064 -0.999980
vn 0.002001 0.006064 -0.999980
vn -0.841462 0.006336 -0.540279
vn -0.841462 0.006336 -0.540279
vn -0.841462 0.006336 -0.540279
vn -0.841462 0.006336 -0.540279
vn 0.846413 0.006079 -0.532493
vn 0.846413 0.006079 -0.532493
vn 0.846413 0.006079 -0.532493
vn 0.846413 0.006079 -0.532493
vn 0.214538 0.972467 -0.091006
vn 0.214016 0.972610 -0.090699
vn 0.251645 0.961224 -0.112799
vn 0.251645 0.961224 -0.112799
vn 0.820201 0.557206 -0.129580
vn 0.820201 0.557206 -0.129580
vn 0.820201 0.557206 -0.129580
vn 0.383175 0.901671 -0.200415
vn 0.383175 0.901671 -0.200415
vn 0.227787 0.960641 -0.159002
vn 0.227787 0.960641 -0.159002
vn 0.289710 0.931876 -0.218345
vn 0.289710 0.931876 -0.218345
vn 0.217289 0.960679 -0.172863
vn 0.217289 0.960679 -0.172863
vn 0.216144 0.961237 -0.171184
vn 0.305705 0.928806 -0.209436
vn 0.305705 0.928806 -0.209436
vn 0.438704 0.885246 -0.154525
vn 0.175499 0.982118 -0.068151
vn 0.175499 0.982118 -0.068151
vn 0.344118 0.920483 -0.185185
vn 0.344118 0.920483 -0.185185
vn 0.352936 0.922165 -0.158267
vn 0.405591 0.898787 -0.166367
vn 0.166048 0.985937 -0.018889
vn 0.166048 0.985937 -0.018889
vn 0.227071 0.970150 -0.085134
vn 0.227071 0.970150 -0.085134
vn 0.114120 0.993254 -0.020550
vn 0.099525 0.995034 0.001262
vn 0.053166 0.998569 -0.005776
vn 0.053166 0.998569 -0.005776
vn 0.008084 0.999967 0.000942
vn 0.008084 0.999967 0.000942
vn -0.001897 0.999998 0.000786
vn -0.004045 0.999992 -0.000458
vn 0.001269 0.999989 -0.004522
vn 0.001269 0.999989 -0.004522
vn 0.443665 0.885596 -0.137411
vn 0.443665 0.885596 -0.137411
vn 0.428765 0.888897 -0.161317
vn 0.094918 0.995452 0.008087
vn 0.094918 0.995452 0.008087
vn -0.004576 0.999989 -0.001112
vn -0.004576 0.999989 -0.001112
vn -0.001127 0.999997 0.001962
vn -0.001127 0.999997 0.001962
s off
g BeachRockRampCOL:polySurface52
usemtl initialShadingGroup
f 1/1/1 2/2/2 4/3/3 3/4/4
s 1
f 3/5/5 101/156/6 102/157/7 61/94/8
s off
f 5/7/9 6/8/10 10/9/11 9/10/12
f 6/8/13 7/11/14 11/12/15 10/9/16
f 8/13/17 5/7/18 9/10/19 12/14/20
s 2
f 4/6/21 101/156/22 3/5/23
s 3
f 12/18/24 4/6/25 17/28/26
s off
f 13/19/27 8/13/28 12/14/29 16/20/30
f 2/21/31 14/22/32 17/23/33 4/24/34
f 14/22/35 15/25/36 18/26/37 17/23/38
f 15/25/39 13/19/40 16/20/41 18/26/42
f 12/18/43 17/28/44 18/29/45 16/27/46
f 7/11/47 19/30/48 21/31/49 11/12/50
f 19/30/51 20/32/52 22/33/53 21/31/54
f 23/36/55 24/37/56 26/38/57 25/39/58
s 4
f 103/158/59 104/159/60 25/40/61 26/41/62
s 5
f 102/157/63 26/41/64 60/93/65 61/94/66
s off
f 20/32/67 27/42/68 28/43/69 22/33/70
f 29/45/71 30/46/72 32/47/73 31/48/74
f 30/46/75 23/36/76 25/39/77 32/47/78
s 6
f 32/50/79 25/40/80 104/159/81 105/160/82
s off
f 33/51/83 34/52/84 37/53/85 36/54/86
f 34/52/87 35/55/88 38/56/89 37/53/90
f 35/55/91 29/45/92 31/48/93 38/56/94
s 7
f 36/57/95 37/58/96 38/59/97 107/162/98
s off
f 39/60/99 40/61/100 42/62/101 41/63/102
s 8
f 106/161/103 107/162/104 38/59/105 31/49/106
s off
f 43/66/107 33/51/108 36/54/109 44/67/110
f 45/69/111 46/70/112 49/71/113 48/72/114
f 46/70/115 47/73/116 50/74/117 49/71/118
f 47/73/119 43/66/120 44/67/121 50/74/122
s 9
f 48/75/123 49/76/124 50/77/125 110/165/126
s 10
f 109/164/127 110/165/128 50/77/129 44/68/130
s off
f 51/78/131 52/79/132 54/80/133 53/81/134
f 55/84/135 45/69/136 48/72/137 56/85/138
f 24/37/139 57/87/140 60/88/141 26/38/142
f 57/87/143 58/89/144 61/90/145 60/88/146
f 58/89/147 59/91/148 62/92/149 61/90/150
f 59/91/151 1/1/152 3/4/153 62/92/154
f 63/95/155 64/96/156 67/97/157 66/98/158
f 64/96/159 65/99/160 68/100/161 67/97/162
f 52/79/163 63/95/164 66/98/165 54/80/166
s 11
f 111/166/167 112/167/168 56/86/169 48/75/170
s off
f 69/104/171 70/105/172 73/106/173 72/107/174
f 70/105/175 71/108/176 74/109/177 73/106/178
f 71/108/179 55/84/180 56/85/181 74/109/182
s 12
f 72/110/183 73/111/184 74/112/185 113/168/186
s 13
f 112/167/187 113/168/188 74/112/189 56/86/190
s off
f 65/99/191 75/113/192 76/114/193 68/100/194
f 77/116/195 78/117/196 80/118/197 79/119/198
f 78/117/199 69/104/200 72/107/201 80/118/202
f 81/122/203 82/123/204 85/124/205 84/125/206
f 82/123/207 83/126/208 86/127/209 85/124/210
f 83/126/211 77/116/212 79/119/213 86/127/214
f 84/128/215 85/129/216 86/130/217 79/120/218
f 87/131/219 88/132/220 91/133/221 90/134/222
f 88/132/223 89/135/224 92/136/225 91/133/226
f 89/135/227 81/137/228 84/138/229 92/136/230
f 75/113/231 87/131/232 90/134/233 76/114/234
s 14
f 114/169/235 84/128/236 79/120/237
s off
f 93/142/238 94/143/239 96/144/240 95/145/241
f 94/143/242 51/78/243 53/81/244 96/144/245
f 40/61/246 93/142/247 95/145/248 42/62/249
f 95/146/250 96/147/251 42/148/252
s 15
f 108/163/253 109/164/254 44/68/255 36/57/256
s off
f 97/149/257 98/150/258 100/151/259 99/152/260
f 98/150/261 39/60/262 41/63/263 100/151/264
f 27/42/265 97/149/266 99/152/267 28/43/268
s 16
f 105/160/269 106/161/270 31/49/271 32/50/272
s off
f 3/5/273 61/94/274 62/155/275
s 3
f 12/18/24 9/15/276 10/16/277 4/6/25
s 2
f 10/16/278 11/17/279 101/156/22 4/6/21
s 1
f 102/157/7 101/156/6 11/17/280 21/34/281
s 5
f 21/34/282 22/35/283 103/158/284 102/157/63
s 4
f 28/44/285 104/159/60 103/158/59 22/35/286
s 6
f 105/160/82 104/159/81 28/44/287
s 16
f 100/154/288 41/64/289 106/161/270 105/160/269
s 8
f 41/64/290 42/65/291 107/162/104 106/161/103
s 7
f 108/163/292 107/162/98 42/65/293
s 15
f 96/147/294 53/82/295 109/164/254 108/163/253
s 10
f 54/83/296 110/165/128 109/164/127 53/82/297
s 9
f 111/166/298 110/165/126 54/83/299
s 11
f 67/102/300 68/103/301 112/167/168 111/166/167
s 13
f 76/115/302 113/168/188 112/167/187 68/103/303
s 12
f 114/169/304 113/168/186 76/115/305
s 14
f 91/140/306 92/141/307 84/128/236 114/169/235
s 5
f 102/157/63 103/158/284 26/41/64
s 6
f 105/160/82 28/44/287 99/153/308 100/154/309
s 7
f 36/57/95 107/162/98 108/163/292
f 108/163/292 42/65/293 96/147/310
s 9
f 111/166/298 54/83/299 66/101/311 67/102/312
f 48/75/123 110/165/126 111/166/298
s 12
f 72/110/183 113/168/186 114/169/304
f 114/169/304 76/115/305 90/139/313 91/140/314
s 14
f 114/169/235 79/120/237 80/121/315 72/110/316
