# This file uses centimeters as units for non-parametric coordinates.

mtllib SushiChopstick_piece04.mtl
g default
v -2.957441 91.285599 2.173025
v -2.178147 91.290054 2.957554
v -2.183008 91.976379 2.183052
v 2.183008 91.976379 2.183052
v 2.173008 91.285599 2.957493
v 2.957441 91.285599 2.173025
v -2.957510 91.290054 -2.178121
v -2.183008 91.976379 -2.183026
v -2.178147 91.290054 -2.957528
v 2.178147 91.290054 -2.957528
v 2.183008 91.976379 -2.183026
v 2.957510 91.290054 -2.178121
v 1.824666 68.104912 2.607897
v 2.607831 68.103844 1.825884
v 2.607884 67.027512 -1.829701
v 1.829719 67.027512 -2.607899
v -1.828521 67.028580 -2.607914
v -2.607884 67.027512 -1.829701
v -2.607831 68.103844 1.825884
v -1.829719 68.107185 2.607927
vt 0.526548 0.910829
vt 0.526545 0.919277
vt 0.380052 0.919785
vt 0.380062 0.911317
vt 0.526977 0.947841
vt 0.527008 0.956316
vt 0.380522 0.956956
vt 0.380498 0.948461
vt 0.319044 0.849776
vt 0.326948 0.850876
vt 0.326655 0.884159
vt 0.318917 0.885421
vt 0.325437 0.843200
vt 0.361370 0.843255
vt 0.359986 0.851100
vt 0.367840 0.849793
vt 0.367554 0.885581
vt 0.359889 0.884155
vt 0.380349 0.883545
vt 0.380336 0.875104
vt 0.533426 0.874756
vt 0.533445 0.883191
vt 0.325325 0.891875
vt 0.361112 0.892024
vt 0.379898 0.842692
vt 0.379924 0.834252
vt 0.533019 0.834931
vt 0.532994 0.843358
vt 0.533667 0.992573
vt 0.380570 0.992312
vt 0.623611 0.751157
vt 0.615063 0.759672
vt 0.575225 0.759623
vt 0.623373 0.709616
vt 0.614731 0.701294
vt 0.566586 0.751256
vt 0.566344 0.709714
vt 0.574851 0.701242
vn -0.990347 -0.016681 0.137601
vn -0.160586 -0.017292 0.986870
vn -0.159648 0.014423 0.987069
vn -0.987373 0.014134 0.157779
vn 0.160340 -0.017289 0.986910
vn 0.990206 -0.016695 0.138616
vn 0.987268 0.014137 0.158439
vn 0.159665 0.014404 0.987066
vn -0.987373 0.014134 0.157779
vn -0.120342 0.985363 0.120738
vn -0.120602 0.985392 -0.120237
vn -0.986925 0.014021 -0.160569
vn -0.120342 0.985363 0.120738
vn -0.159648 0.014423 0.987069
vn 0.159665 0.014404 0.987066
vn 0.120536 0.985364 0.120538
vn 0.120536 0.985364 0.120538
vn 0.987268 0.014137 0.158439
vn 0.986944 0.014027 -0.160450
vn 0.120602 0.985392 -0.120237
vn -0.986925 0.014021 -0.160569
vn -0.158956 0.013739 -0.987190
vn -0.159433 -0.016517 -0.987071
vn -0.981845 -0.017148 -0.188908
vn -0.158956 0.013739 -0.987190
vn -0.120602 0.985392 -0.120237
vn 0.120602 0.985392 -0.120237
vn 0.158971 0.013746 -0.987188
vn 0.158971 0.013746 -0.987188
vn 0.986944 0.014027 -0.160450
vn 0.981855 -0.017143 -0.188858
vn 0.159431 -0.016513 -0.987071
vn -0.160586 -0.017292 0.986870
vn 0.160340 -0.017289 0.986910
vn 0.159665 0.014404 0.987066
vn -0.159648 0.014423 0.987069
vn -0.120342 0.985363 0.120738
vn 0.120536 0.985364 0.120538
vn 0.120602 0.985392 -0.120237
vn -0.120602 0.985392 -0.120237
vn -0.158956 0.013739 -0.987190
vn 0.158971 0.013746 -0.987188
vn 0.159431 -0.016513 -0.987071
vn -0.159433 -0.016517 -0.987071
vn 0.990206 -0.016695 0.138616
vn 0.981855 -0.017143 -0.188858
vn 0.986944 0.014027 -0.160450
vn 0.987268 0.014137 0.158439
vn -0.981845 -0.017148 -0.188908
vn -0.990347 -0.016681 0.137601
vn -0.987373 0.014134 0.157779
vn -0.986925 0.014021 -0.160569
vn -0.987373 0.014134 0.157779
vn -0.159648 0.014423 0.987069
vn -0.120342 0.985363 0.120738
vn 0.120536 0.985364 0.120538
vn 0.159665 0.014404 0.987066
vn 0.987268 0.014137 0.158439
vn -0.986925 0.014021 -0.160569
vn -0.120602 0.985392 -0.120237
vn -0.158956 0.013739 -0.987190
vn 0.158971 0.013746 -0.987188
vn 0.120602 0.985392 -0.120237
vn 0.986944 0.014027 -0.160450
vn 0.042047 -0.969183 0.242729
vn 0.042047 -0.969182 0.242729
vn 0.042047 -0.969182 0.242729
vn 0.042047 -0.969183 0.242729
vn 0.042530 -0.969213 0.242522
vn 0.042530 -0.969213 0.242522
vn 0.042530 -0.969213 0.242522
vn 0.042530 -0.969213 0.242522
vn -0.118830 -0.985558 0.120640
vn -0.118830 -0.985559 0.120640
vn -0.118830 -0.985558 0.120640
vn -0.118830 -0.985558 0.120640
s off
g polySurface15
usemtl blinn1SG
f 19/1/1 20/2/2 2/3/3 1/4/4
f 13/5/5 14/6/6 6/7/7 5/8/8
f 1/9/9 3/10/10 8/11/11 7/12/12
f 3/10/13 2/13/14 5/14/15 4/15/16
f 4/15/17 6/16/18 12/17/19 11/18/20
f 7/19/21 9/20/22 17/21/23 18/22/24
f 9/23/25 8/11/26 11/18/27 10/24/28
f 10/25/29 12/26/30 15/27/31 16/28/32
f 20/2/33 13/5/34 5/8/35 2/3/36
f 3/10/37 4/15/38 11/18/39 8/11/40
f 9/20/41 10/25/42 16/28/43 17/21/44
f 14/6/45 15/29/46 12/30/47 6/7/48
f 18/22/49 19/1/50 1/4/51 7/19/52
f 1/9/53 2/13/54 3/10/55
f 4/15/56 5/14/57 6/16/58
f 7/12/59 8/11/60 9/23/61
f 10/24/62 11/18/63 12/17/64
f 14/31/65 13/32/66 20/33/67 15/34/68
f 16/35/69 19/36/70 18/37/71 17/38/72
f 15/34/73 20/33/74 19/36/75 16/35/76
