# This file uses centimeters as units for non-parametric coordinates.

mtllib SushiChopstick_piece01.mtl
g default
v -0.774641 -6.442188 0.774710
v -0.784433 -5.760120 1.559047
v -1.559004 -5.760120 0.784459
v 1.559004 -5.760120 0.784459
v 0.779641 -5.755867 1.559108
v 0.774641 -6.442188 0.774710
v -1.559004 -5.760120 -0.784442
v -0.779641 -5.755867 -1.559074
v -0.774641 -6.442188 -0.774675
v 0.774641 -6.442188 -0.774675
v 0.784433 -5.760120 -1.559013
v 1.559004 -5.760120 -0.784442
v 1.908613 19.187838 1.131600
v 1.127983 19.191029 1.908704
v 1.908631 18.502422 -1.132861
v 1.132861 18.502422 -1.908641
v -1.129267 19.192142 -1.908687
v -1.908631 19.188951 -1.132861
v -1.908613 18.501308 1.131600
v -1.132861 18.502422 1.908674
vt 0.343840 0.913479
vt 0.343129 0.905655
vt 0.356707 0.906092
vt 0.355507 0.913494
vt 0.336397 0.912361
vt 0.343950 0.925118
vt 0.336092 0.925877
vt 0.342863 0.932575
vt 0.355555 0.925045
vt 0.356320 0.932895
vt 0.363404 0.912842
vt 0.363013 0.926253
vt 0.992827 0.945980
vt 0.992876 0.954395
vt 0.836006 0.955035
vt 0.835962 0.946600
vt 0.992956 0.993359
vt 0.839860 0.993097
vt 0.839185 0.844690
vt 0.839211 0.836289
vt 0.992306 0.836968
vt 0.992281 0.845356
vt 0.835823 0.874062
vt 0.992695 0.873715
vt 0.835856 0.882483
vt 0.992734 0.882130
vt 0.992418 0.909366
vt 0.839329 0.909854
vt 0.992437 0.917756
vt 0.839341 0.918263
vt 0.741888 0.788466
vt 0.710184 0.823139
vt 0.701342 0.815053
vt 0.733030 0.780381
vt 0.736027 0.823068
vt 0.744137 0.814182
vt 0.699085 0.789320
vt 0.707182 0.780448
vn -0.233305 -0.943848 0.233923
vn -0.962590 -0.037450 0.268360
vn -0.959980 -0.037110 -0.277599
vn -0.234085 -0.943651 -0.233939
vn -0.269279 -0.037505 0.962332
vn -0.233305 -0.943848 0.233923
vn 0.234085 -0.943651 0.233940
vn 0.276901 -0.037027 0.960185
vn 0.959939 -0.037092 0.277744
vn 0.234085 -0.943651 0.233940
vn 0.233305 -0.943848 -0.233922
vn 0.962576 -0.037461 -0.268410
vn -0.234085 -0.943651 -0.233939
vn -0.276685 -0.037040 -0.960247
vn 0.269013 -0.037505 -0.962406
vn 0.233305 -0.943848 -0.233922
vn -0.234085 -0.943651 -0.233939
vn 0.233305 -0.943848 -0.233922
vn 0.234085 -0.943651 0.233940
vn -0.233305 -0.943848 0.233923
vn -0.233305 -0.943848 0.233923
vn -0.269279 -0.037505 0.962332
vn -0.962590 -0.037450 0.268360
vn 0.959939 -0.037092 0.277744
vn 0.276901 -0.037027 0.960185
vn 0.234085 -0.943651 0.233940
vn -0.959980 -0.037110 -0.277599
vn -0.276685 -0.037040 -0.960247
vn -0.234085 -0.943651 -0.233939
vn 0.233305 -0.943848 -0.233922
vn 0.269013 -0.037505 -0.962406
vn 0.962576 -0.037461 -0.268410
vn 0.276901 -0.037027 0.960185
vn 0.959939 -0.037092 0.277744
vn 0.946086 -0.017866 0.323424
vn 0.321341 -0.017847 0.946795
vn 0.959939 -0.037092 0.277744
vn 0.962576 -0.037461 -0.268410
vn 0.969764 -0.017351 -0.243428
vn 0.946086 -0.017866 0.323424
vn 0.243563 -0.017353 -0.969730
vn 0.969764 -0.017351 -0.243428
vn 0.962576 -0.037461 -0.268410
vn 0.269013 -0.037505 -0.962406
vn -0.321177 -0.017862 -0.946851
vn 0.243563 -0.017353 -0.969730
vn 0.269013 -0.037505 -0.962406
vn -0.276685 -0.037040 -0.960247
vn -0.946083 -0.017883 -0.323429
vn -0.321177 -0.017862 -0.946851
vn -0.276685 -0.037040 -0.960247
vn -0.959980 -0.037110 -0.277599
vn -0.959980 -0.037110 -0.277599
vn -0.962590 -0.037450 0.268360
vn -0.969771 -0.017344 0.243398
vn -0.946083 -0.017883 -0.323429
vn -0.962590 -0.037450 0.268360
vn -0.269279 -0.037505 0.962332
vn -0.243726 -0.017348 0.969689
vn -0.969771 -0.017344 0.243398
vn -0.269279 -0.037505 0.962332
vn 0.276901 -0.037027 0.960185
vn 0.321341 -0.017847 0.946795
vn -0.243726 -0.017348 0.969689
vn -0.000450 1.000000 -0.000267
vn -0.000450 1.000000 -0.000267
vn -0.000450 1.000000 -0.000267
vn -0.000450 1.000000 -0.000267
vn -0.278485 0.918870 -0.279508
vn -0.278485 0.918870 -0.279508
vn -0.278485 0.918870 -0.279508
vn -0.278485 0.918870 -0.279508
vn 0.278807 0.918564 0.280190
vn 0.278807 0.918564 0.280190
vn 0.278807 0.918564 0.280190
vn 0.278807 0.918564 0.280190
s off
g polySurface11
usemtl blinn1SG
f 1/1/1 3/2/2 7/3/3 9/4/4
f 2/5/5 1/1/6 6/6/7 5/7/8
f 4/8/9 6/6/10 10/9/11 12/10/12
f 9/4/13 8/11/14 11/12/15 10/9/16
f 9/4/17 10/9/18 6/6/19 1/1/20
f 1/1/21 2/5/22 3/2/23
f 4/8/24 5/7/25 6/6/26
f 7/3/27 8/11/28 9/4/29
f 10/9/30 11/12/31 12/10/32
f 5/13/33 4/14/34 13/15/35 14/16/36
f 4/14/37 12/17/38 15/18/39 13/15/40
f 16/19/41 15/20/42 12/21/43 11/22/44
f 17/23/45 16/19/46 11/22/47 8/24/48
f 18/25/49 17/23/50 8/24/51 7/26/52
f 7/26/53 3/27/54 19/28/55 18/25/56
f 3/27/57 2/29/58 20/30/59 19/28/60
f 2/29/61 5/13/62 14/16/63 20/30/64
f 20/31/65 15/32/66 16/33/67 19/34/68
f 13/35/69 15/32/70 20/31/71 14/36/72
f 19/34/73 16/33/74 17/37/75 18/38/76
