# This file uses centimeters as units for non-parametric coordinates.

mtllib CromdoPoster.mtl
g default
v 0.048920 0.107603 -1.319853
v -0.007709 0.107603 -1.301454
v -0.007709 0.107603 -1.241911
v 0.048920 0.107603 -1.223511
v 0.083919 0.107603 -1.271682
v 0.048920 0.134656 -1.319853
v -0.007709 0.134656 -1.301454
v -0.007709 0.134656 -1.241911
v 0.048920 0.134656 -1.223511
v 0.083919 0.134656 -1.271682
v 0.042942 0.156541 -1.301454
v 0.007943 0.156541 -1.290082
v 0.007943 0.156541 -1.253282
v 0.042942 0.156541 -1.241911
v 0.064572 0.156541 -1.271682
v 0.033268 0.164901 -1.271682
v 0.044048 0.089741 -1.298150
v 0.012932 0.089741 -1.288040
v 0.012932 0.089741 -1.255324
v 0.044048 0.089741 -1.245214
v 0.063278 0.089741 -1.271682
v 0.037038 -0.159367 -1.271682
v -1.013634 0.124069 1.423340
v 0.918936 0.253224 1.292922
v -0.993349 0.134721 -1.439383
v 1.013634 0.068614 -1.423340
v 0.379827 0.097620 1.408507
v 0.990123 0.091080 0.815101
v -0.979645 0.011348 -0.066548
v 1.013634 0.128810 0.013398
v 0.974506 0.126053 1.033785
v 0.600712 0.134469 1.385574
v 0.943456 0.180317 1.209837
v 0.781474 0.186152 1.339537
v -0.719394 0.057728 -1.422417
v -1.013634 0.057728 -1.093517
v -0.855250 0.097769 -1.420710
v -1.012170 0.074311 -1.255206
v -0.050495 0.076187 1.413088
v -0.064353 0.045747 0.006274
v -0.057607 0.057728 0.678505
v 0.044477 0.073102 -1.365611
v -0.071770 0.057728 -0.732773
vt 0.719676 0.940098
vt 0.741487 0.929545
vt 0.746258 0.941521
vt 0.726365 0.956399
vt 0.762370 0.920896
vt 0.764037 0.933230
vt 0.784144 0.921463
vt 0.781784 0.934073
vt 0.804502 0.932077
vt 0.799254 0.944108
vt 0.826991 0.946984
vt 0.816641 0.961469
vt 0.754220 0.952399
vt 0.744079 0.966119
vt 0.766105 0.946318
vt 0.777946 0.946924
vt 0.789606 0.953999
vt 0.797899 0.967045
vt 0.771576 0.962302
vt 0.723031 0.923543
vt 0.740248 0.917290
vt 0.762155 0.908033
vt 0.786420 0.911393
vt 0.806470 0.921899
vt 0.823876 0.928798
vt 0.872828 0.967306
vt 0.858017 0.965574
vt 0.877982 0.853109
vt 0.887737 0.967005
vt 0.902466 0.964677
vt 0.916776 0.960483
vt 0.843550 0.961960
vt 0.006802 0.874075
vt 0.330665 0.749783
vt 0.108024 0.987099
vt 0.695984 0.217157
vt 0.486303 0.013003
vt 0.563420 0.019576
vt 0.691556 0.140954
vt 0.006712 0.006961
vt 0.338203 0.011486
vt 0.335435 0.264250
vt 0.018050 0.520636
vt 0.332934 0.495530
vt 0.628871 0.031627
vt 0.683811 0.077189
vt 0.683450 0.038258
vt 0.059353 0.988895
vt 0.006999 0.929961
vt 0.010417 0.996836
vt 0.370679 0.967519
vt 0.704659 0.493050
vt 0.703888 0.987438
vn 0.283235 -0.311153 -0.907172
vn -0.765557 -0.336571 -0.548309
vn -0.777032 0.278406 -0.564546
vn 0.296800 0.278406 -0.913455
vn -0.765557 -0.336571 -0.548309
vn -0.765557 -0.336571 0.548309
vn -0.777032 0.278404 0.564547
vn -0.777032 0.278406 -0.564546
vn -0.765557 -0.336571 0.548309
vn 0.283234 -0.311153 0.907173
vn 0.296799 0.278403 0.913456
vn -0.777032 0.278404 0.564547
vn 0.283234 -0.311153 0.907173
vn 0.956005 -0.293350 0.000000
vn 0.960464 0.278405 0.000000
vn 0.296799 0.278403 0.913456
vn 0.956005 -0.293350 0.000000
vn 0.283235 -0.311153 -0.907172
vn 0.296800 0.278406 -0.913455
vn 0.960464 0.278405 0.000000
vn 0.296800 0.278406 -0.913455
vn -0.777032 0.278406 -0.564546
vn -0.551006 0.732208 -0.400329
vn 0.210466 0.732209 -0.647746
vn -0.777032 0.278406 -0.564546
vn -0.777032 0.278404 0.564547
vn -0.551007 0.732207 0.400331
vn -0.551006 0.732208 -0.400329
vn -0.777032 0.278404 0.564547
vn 0.296799 0.278403 0.913456
vn 0.210466 0.732206 0.647748
vn -0.551007 0.732207 0.400331
vn 0.296799 0.278403 0.913456
vn 0.960464 0.278405 0.000000
vn 0.681082 0.732207 0.000000
vn 0.210466 0.732206 0.647748
vn 0.960464 0.278405 0.000000
vn 0.296800 0.278406 -0.913455
vn 0.210466 0.732209 -0.647746
vn 0.681082 0.732207 0.000000
vn 0.210466 0.732209 -0.647746
vn -0.551006 0.732208 -0.400329
vn 0.000000 1.000000 0.000000
vn -0.551006 0.732208 -0.400329
vn -0.551007 0.732207 0.400331
vn 0.000000 1.000000 0.000000
vn -0.551007 0.732207 0.400331
vn 0.210466 0.732206 0.647748
vn 0.000000 1.000000 0.000000
vn 0.210466 0.732206 0.647748
vn 0.681082 0.732207 0.000000
vn 0.000000 1.000000 0.000000
vn 0.681082 0.732207 0.000000
vn 0.210466 0.732209 -0.647746
vn 0.000000 1.000000 0.000000
vn -0.765557 -0.336571 -0.548309
vn 0.283235 -0.311153 -0.907172
vn 0.208275 -0.777627 -0.593227
vn -0.471046 -0.808775 -0.352136
vn -0.765557 -0.336571 0.548309
vn -0.765557 -0.336571 -0.548309
vn -0.471046 -0.808775 -0.352136
vn -0.471046 -0.808774 0.352137
vn 0.283234 -0.311153 0.907173
vn -0.765557 -0.336571 0.548309
vn -0.471046 -0.808774 0.352137
vn 0.208274 -0.777626 0.593228
vn 0.956005 -0.293350 0.000000
vn 0.283234 -0.311153 0.907173
vn 0.208274 -0.777626 0.593228
vn 0.654364 -0.756180 0.000000
vn 0.283235 -0.311153 -0.907172
vn 0.956005 -0.293350 0.000000
vn 0.654364 -0.756180 0.000000
vn 0.208275 -0.777627 -0.593227
vn -0.804399 -0.116102 -0.582635
vn 0.304941 -0.109106 -0.946101
vn 0.003142 -0.999995 -0.000009
vn -0.804399 -0.116103 0.582635
vn -0.804399 -0.116102 -0.582635
vn 0.003142 -0.999995 -0.000009
vn 0.304939 -0.109106 0.946101
vn -0.804399 -0.116103 0.582635
vn 0.003142 -0.999995 -0.000009
vn 0.994498 -0.104755 0.000000
vn 0.304939 -0.109106 0.946101
vn 0.003142 -0.999995 -0.000009
vn 0.304941 -0.109106 -0.946101
vn 0.994498 -0.104755 0.000000
vn 0.003142 -0.999995 -0.000009
vn -0.016885 0.999397 0.030334
vn -0.031330 0.999464 0.009476
vn 0.002508 0.999816 0.019025
vn -0.055022 0.998476 -0.004198
vn -0.045477 0.997734 -0.049582
vn -0.175497 0.963763 -0.200901
vn -0.178189 0.962552 -0.204310
vn 0.023623 0.998004 -0.058568
vn 0.014036 0.998434 -0.054163
vn -0.009354 0.999476 -0.030978
vn -0.007978 0.999954 -0.005362
vn -0.007978 0.999954 -0.005362
vn -0.009354 0.999476 -0.030978
vn -0.046791 0.998749 0.017633
vn -0.178189 0.962552 -0.204310
vn -0.175497 0.963763 -0.200901
vn -0.315503 0.869352 -0.380376
vn -0.322030 0.862808 -0.389690
vn -0.322030 0.862808 -0.389690
vn -0.315503 0.869352 -0.380376
vn -0.499768 0.572574 -0.649916
vn -0.016885 0.999397 0.030334
vn 0.002508 0.999816 0.019025
vn 0.174097 0.960215 0.218350
vn 0.172351 0.961900 0.212237
vn 0.172351 0.961900 0.212237
vn 0.174097 0.960215 0.218350
vn 0.203445 0.923975 0.323854
vn -0.007978 0.999954 -0.005362
vn -0.046791 0.998749 0.017633
vn -0.031330 0.999464 0.009476
vn -0.016885 0.999397 0.030334
vn 0.002508 0.999816 0.019025
vn -0.031330 0.999464 0.009476
vn -0.004821 0.999715 0.023401
vn -0.009354 0.999476 -0.030978
vn 0.014036 0.998434 -0.054163
vn -0.045477 0.997734 -0.049582
vn -0.046791 0.998749 0.017633
vn -0.009354 0.999476 -0.030978
vn -0.055022 0.998476 -0.004198
vn -0.051539 0.998666 -0.003264
vn -0.009354 0.999476 -0.030978
vn -0.045477 0.997734 -0.049582
vn -0.055022 0.998476 -0.004198
vn -0.031330 0.999464 0.009476
vn -0.046791 0.998749 0.017633
vn -0.051539 0.998666 -0.003264
vn -0.004821 0.999715 0.023401
vn -0.031330 0.999464 0.009476
vn -0.029630 0.999086 -0.030822
vn -0.029630 0.999086 -0.030822
vn -0.031330 0.999464 0.009476
vn -0.051539 0.998666 -0.003264
s off
g Poster
usemtl blinn1SG
f 1/1/1 2/2/2 7/3/3 6/4/4
f 2/2/5 3/5/6 8/6/7 7/3/8
f 3/5/9 4/7/10 9/8/11 8/6/12
f 4/7/13 5/9/14 10/10/15 9/8/16
f 5/9/17 1/11/18 6/12/19 10/10/20
f 6/4/21 7/3/22 12/13/23 11/14/24
f 7/3/25 8/6/26 13/15/27 12/13/28
f 8/6/29 9/8/30 14/16/31 13/15/32
f 9/8/33 10/10/34 15/17/35 14/16/36
f 10/10/37 6/12/38 11/18/39 15/17/40
f 11/14/41 12/13/42 16/19/43
f 12/13/44 13/15/45 16/19/46
f 13/15/47 14/16/48 16/19/49
f 14/16/50 15/17/51 16/19/52
f 15/17/53 11/18/54 16/19/55
f 2/2/56 1/1/57 17/20/58 18/21/59
f 3/5/60 2/2/61 18/21/62 19/22/63
f 4/7/64 3/5/65 19/22/66 20/23/67
f 5/9/68 4/7/69 20/23/70 21/24/71
f 1/11/72 5/9/73 21/24/74 17/25/75
f 18/26/76 17/27/77 22/28/78
f 19/29/79 18/26/80 22/28/81
f 20/30/82 19/29/83 22/28/84
f 21/31/85 20/30/86 22/28/87
f 17/27/88 21/32/89 22/28/90
f 36/33/91 43/34/92 35/35/93
f 28/36/94 27/37/95 32/38/96 31/39/97
f 23/40/98 39/41/99 41/42/100 29/43/101
f 29/43/102 41/42/103 40/44/104
f 31/39/105 32/38/106 34/45/107 33/46/108
f 33/46/109 34/45/110 24/47/111
f 36/33/112 35/35/113 37/48/114 38/49/115
f 38/49/116 37/48/117 25/50/118
f 29/43/119 40/44/120 43/34/121 36/33/122
f 35/35/123 43/34/124 42/51/125
f 41/42/126 39/41/127 27/37/128
f 40/44/129 41/42/130 28/36/131 30/52/132
f 41/42/133 27/37/134 28/36/135
f 43/34/136 40/44/137 30/52/138
f 42/51/139 43/34/140 26/53/141
f 26/53/142 43/34/143 30/52/144
