# This file uses centimeters as units for non-parametric coordinates.

mtllib Mail_letter01.mtl
g default
v -0.880561 0.000000 1.274382
v 0.880561 0.000000 1.274382
v -0.880561 0.066703 1.274382
v 0.880561 0.066703 1.274382
v -0.880561 0.066703 -1.274382
v 0.880561 0.066703 -1.274382
v -0.880561 0.000000 -1.274382
v 0.880561 0.000000 -1.274382
v -0.910909 0.066703 -1.186522
v -0.910909 0.000000 -1.186522
v 0.910908 0.000000 -1.186522
v 0.910908 0.066703 -1.186522
v -0.910909 0.066703 1.186522
v -0.910909 0.000000 1.186522
v 0.910908 0.000000 1.186522
v 0.910908 0.066703 1.186522
v 0.783017 0.066703 -1.318165
v 0.783017 0.000000 -1.318165
v 0.783017 0.000000 -1.186522
v 0.783017 0.000000 1.186522
v 0.783017 0.000000 1.318165
v 0.783017 0.066703 1.318165
v 0.783017 0.066703 1.186522
v 0.783017 0.066703 -1.186522
v -0.783017 0.066703 -1.318165
v -0.783017 0.000000 -1.318165
v -0.783017 0.000000 -1.186522
v -0.783017 0.000000 1.186522
v -0.783017 0.000000 1.318165
v -0.783017 0.066703 1.318165
v -0.783017 0.066703 1.186522
v -0.783017 0.066703 -1.186522
vt 0.713095 0.396111
vt 0.719560 0.397209
vt 0.719047 0.401236
vt 0.712472 0.400168
vt 0.785938 0.884268
vt 0.788609 0.890220
vt 0.780577 0.890220
vt 0.780577 0.882417
vt 0.821420 0.485229
vt 0.814909 0.485233
vt 0.814906 0.481171
vt 0.821417 0.481167
vt 0.608309 0.962991
vt 0.608309 0.957265
vt 0.614204 0.957265
vt 0.612243 0.961633
vt 0.867152 0.463724
vt 0.861331 0.463781
vt 0.861311 0.459575
vt 0.867124 0.459544
vt 0.861844 0.459896
vt 0.867497 0.459885
vt 0.867506 0.463937
vt 0.861854 0.463946
vt 0.711153 0.459872
vt 0.716802 0.459884
vt 0.716799 0.463932
vt 0.711147 0.463925
vt 0.498122 0.961633
vt 0.496161 0.957265
vt 0.502056 0.957265
vt 0.502056 0.962992
vt 0.716891 0.459856
vt 0.716894 0.464060
vt 0.711075 0.464044
vt 0.711082 0.459862
vt 0.635783 0.882417
vt 0.635783 0.890220
vt 0.627751 0.890220
vt 0.630422 0.884268
vt 0.719536 0.485296
vt 0.713025 0.485301
vt 0.713022 0.481239
vt 0.719534 0.481235
vt 0.502056 0.887145
vt 0.496161 0.887145
vt 0.498122 0.882778
vt 0.502055 0.881419
vt 0.608309 0.887145
vt 0.608309 0.881419
vt 0.614204 0.887146
vt 0.612243 0.882778
vt 0.819285 0.401238
vt 0.818779 0.397197
vt 0.825243 0.396113
vt 0.825860 0.400173
vt 0.780577 0.985773
vt 0.788609 0.985773
vt 0.785938 0.991725
vt 0.780577 0.993577
vt 0.635783 0.985773
vt 0.635783 0.993577
vt 0.627751 0.985773
vt 0.630422 0.991725
vn -0.717253 0.000000 0.696812
vn -0.026309 0.000000 0.999654
vn -0.026309 0.000000 0.999654
vn -0.717253 0.000000 0.696812
vn 0.000000 1.000000 0.000000
vn 0.000000 1.000000 0.000000
vn 0.000000 1.000000 0.000000
vn 0.000000 1.000000 0.000000
vn -0.717254 0.000000 -0.696812
vn -0.026309 0.000000 -0.999654
vn -0.026309 0.000000 -0.999654
vn -0.717254 0.000000 -0.696812
vn 0.000000 -1.000000 0.000000
vn 0.000000 -1.000000 0.000000
vn 0.000000 -1.000000 0.000000
vn 0.000000 -1.000000 0.000000
vn 0.717253 0.000000 0.696813
vn 0.999924 0.000000 0.012331
vn 0.999924 0.000000 0.012331
vn 0.717253 0.000000 0.696813
vn -0.999924 0.000000 0.012331
vn -0.717253 0.000000 0.696812
vn -0.717253 0.000000 0.696812
vn -0.999924 0.000000 0.012331
vn -0.717254 0.000000 -0.696812
vn -0.999924 0.000000 -0.012331
vn -0.999924 0.000000 -0.012331
vn -0.717254 0.000000 -0.696812
vn 0.000000 -1.000000 0.000000
vn 0.000000 -1.000000 0.000000
vn 0.000000 -1.000000 0.000000
vn 0.000000 -1.000000 0.000000
vn 0.999924 0.000000 -0.012331
vn 0.999924 0.000000 -0.012331
vn 0.717254 0.000000 -0.696812
vn 0.717254 0.000000 -0.696812
vn 0.000000 1.000000 0.000000
vn 0.000000 1.000000 0.000000
vn 0.000000 1.000000 0.000000
vn 0.000000 1.000000 0.000000
vn -0.999924 0.000000 -0.012331
vn -0.999924 0.000000 0.012331
vn -0.999924 0.000000 0.012331
vn -0.999924 0.000000 -0.012331
vn 0.000000 -1.000000 0.000000
vn 0.000000 -1.000000 0.000000
vn 0.000000 -1.000000 0.000000
vn 0.000000 -1.000000 0.000000
vn 0.999924 0.000000 0.012331
vn 0.999924 0.000000 0.012331
vn 0.999924 0.000000 -0.012331
vn 0.999924 0.000000 -0.012331
vn 0.000000 1.000000 0.000000
vn 0.000000 1.000000 0.000000
vn 0.000000 1.000000 0.000000
vn 0.000000 1.000000 0.000000
vn 0.026309 0.000000 -0.999654
vn 0.717254 0.000000 -0.696812
vn 0.717254 0.000000 -0.696812
vn 0.026309 0.000000 -0.999654
vn 0.000000 -1.000000 0.000000
vn 0.000000 -1.000000 0.000000
vn 0.000000 -1.000000 0.000000
vn 0.000000 -1.000000 0.000000
vn 0.000000 -1.000000 0.000000
vn 0.000000 -1.000000 0.000000
vn 0.000000 -1.000000 0.000000
vn 0.000000 -1.000000 0.000000
vn 0.000000 -1.000000 0.000000
vn 0.000000 -1.000000 0.000000
vn 0.000000 -1.000000 0.000000
vn 0.000000 -1.000000 0.000000
vn 0.026309 0.000000 0.999654
vn 0.026309 0.000000 0.999654
vn 0.717253 0.000000 0.696813
vn 0.717253 0.000000 0.696813
vn 0.000000 1.000000 0.000000
vn 0.000000 1.000000 0.000000
vn 0.000000 1.000000 0.000000
vn 0.000000 1.000000 0.000000
vn 0.000000 1.000000 0.000000
vn 0.000000 1.000000 0.000000
vn 0.000000 1.000000 0.000000
vn 0.000000 1.000000 0.000000
vn 0.000000 1.000000 0.000000
vn 0.000000 1.000000 0.000000
vn 0.000000 1.000000 0.000000
vn 0.000000 1.000000 0.000000
vn -0.026309 0.000000 -0.999654
vn 0.026309 0.000000 -0.999654
vn 0.026309 0.000000 -0.999654
vn -0.026309 0.000000 -0.999654
vn 0.000000 -1.000000 0.000000
vn 0.000000 -1.000000 0.000000
vn 0.000000 -1.000000 0.000000
vn 0.000000 -1.000000 0.000000
vn 0.000000 -1.000000 0.000000
vn 0.000000 -1.000000 0.000000
vn 0.000000 -1.000000 0.000000
vn 0.000000 -1.000000 0.000000
vn 0.000000 -1.000000 0.000000
vn 0.000000 -1.000000 0.000000
vn 0.000000 -1.000000 0.000000
vn 0.000000 -1.000000 0.000000
vn -0.026309 0.000000 0.999654
vn -0.026309 0.000000 0.999654
vn 0.026309 0.000000 0.999654
vn 0.026309 0.000000 0.999654
vn 0.000000 1.000000 0.000000
vn 0.000000 1.000000 0.000000
vn 0.000000 1.000000 0.000000
vn 0.000000 1.000000 0.000000
vn 0.000000 1.000000 0.000000
vn 0.000000 1.000000 0.000000
vn 0.000000 1.000000 0.000000
vn 0.000000 1.000000 0.000000
vn 0.000000 1.000000 0.000000
vn 0.000000 1.000000 0.000000
vn 0.000000 1.000000 0.000000
vn 0.000000 1.000000 0.000000
s off
g pCube12
usemtl blinn1SG
f 1/1/1 29/2/2 30/3/3 3/4/4
f 3/5/5 30/6/6 31/7/7 13/8/8
f 5/9/9 25/10/10 26/11/11 7/12/12
f 14/13/13 28/14/14 29/15/15 1/16/16
f 2/17/17 15/18/18 16/19/19 4/20/20
f 14/21/21 1/22/22 3/23/23 13/24/24
f 7/25/25 10/26/26 9/27/27 5/28/28
f 7/29/29 26/30/30 27/31/31 10/32/32
f 12/33/33 11/34/34 8/35/35 6/36/36
f 9/37/37 32/38/38 25/39/39 5/40/40
f 10/26/41 14/21/42 13/24/43 9/27/44
f 10/32/45 27/31/46 28/14/47 14/13/48
f 16/19/49 15/18/50 11/34/51 12/33/52
f 13/8/53 31/7/54 32/38/55 9/37/56
f 17/41/57 6/42/58 8/43/59 18/44/60
f 19/45/61 18/46/62 8/47/63 11/48/64
f 20/49/65 19/45/66 11/48/67 15/50/68
f 21/51/69 20/49/70 15/50/71 2/52/72
f 22/53/73 21/54/74 2/55/75 4/56/76
f 23/57/77 22/58/78 4/59/79 16/60/80
f 24/61/81 23/57/82 16/60/83 12/62/84
f 17/63/85 24/61/86 12/62/87 6/64/88
f 25/10/89 17/41/90 18/44/91 26/11/92
f 27/31/93 26/30/94 18/46/95 19/45/96
f 28/14/97 27/31/98 19/45/99 20/49/100
f 29/15/101 28/14/102 20/49/103 21/51/104
f 30/3/105 29/2/106 21/54/107 22/53/108
f 31/7/109 30/6/110 22/58/111 23/57/112
f 32/38/113 31/7/114 23/57/115 24/61/116
f 25/39/117 32/38/118 24/61/119 17/63/120
