# This file uses centimeters as units for non-parametric coordinates.

mtllib SandwichRLowerCanine.mtl
g default
v 0.152787 0.497861 0.099735
v -0.138254 0.497861 0.118829
v 0.152787 0.248852 0.099735
v -0.138254 0.248852 0.118829
v 0.152787 -0.009433 0.099735
v -0.138254 -0.009433 0.118829
v 0.140513 -0.009433 -0.087363
v -0.150528 -0.009433 -0.068269
v 0.140513 0.248852 -0.087363
v -0.150528 0.248852 -0.068269
v 0.140513 0.497861 -0.087363
v -0.150528 0.497861 -0.068269
v 0.152787 1.010555 0.099735
v 0.152787 0.735089 0.099735
v -0.138254 1.010555 0.118829
v -0.138254 0.735089 0.118829
v 0.140513 0.735089 -0.087363
v 0.140513 1.010555 -0.087363
v -0.150528 0.735089 -0.068269
v -0.150528 1.010555 -0.068269
v 0.417650 1.181526 -0.105544
v 0.418570 1.195147 -0.091514
v 0.432474 1.178611 -0.092426
v 0.141425 1.311540 -0.073459
v 0.137744 1.297606 -0.087181
v -0.149616 1.311540 -0.054365
v -0.148304 1.297606 -0.068415
v -0.403194 1.228110 -0.037729
v -0.394080 1.216743 -0.052290
v 0.442908 1.178611 0.066610
v 0.428996 1.195189 0.067396
v 0.429924 1.181526 0.081553
v 0.151875 1.311540 0.085831
v 0.150018 1.297606 0.099917
v -0.139166 1.311540 0.104925
v -0.136030 1.297606 0.118683
v -0.381806 1.216743 0.134808
v -0.392744 1.228110 0.121561
v 0.429924 0.497861 0.081553
v 0.442916 0.497861 0.066737
v 0.429924 0.248852 0.081553
v 0.442916 0.248852 0.066737
v -0.405232 0.497861 0.122381
v -0.390184 0.500054 0.135357
v -0.411238 0.248157 0.136738
v -0.426044 0.248852 0.123746
v 0.429924 -0.009433 0.081553
v 0.442916 -0.009433 0.066737
v -0.415374 -0.008487 0.137010
v -0.430207 -0.009433 0.124019
v 0.417650 -0.009433 -0.105544
v 0.432466 -0.009433 -0.092553
v 0.417650 0.248852 -0.105544
v 0.432466 0.248852 -0.092553
v -0.440657 -0.009433 -0.035271
v -0.427648 -0.008487 -0.050088
v -0.423512 0.248157 -0.050359
v -0.436494 0.248852 -0.035544
v 0.417650 0.497861 -0.105544
v 0.432466 0.497861 -0.092553
v -0.402458 0.500054 -0.051741
v -0.415682 0.497861 -0.036909
v 0.429924 1.010555 0.081553
v 0.442916 1.010555 0.066737
v 0.429924 0.735089 0.081553
v 0.442916 0.735089 0.066737
v -0.487415 0.736616 0.141736
v -0.502299 0.734023 0.128749
v -0.495565 1.009394 0.128307
v -0.480825 1.006114 0.141304
v -0.493100 1.006114 -0.045794
v -0.506016 1.009394 -0.030983
v -0.512749 0.734023 -0.030541
v -0.499690 0.736616 -0.045362
v 0.417650 0.735089 -0.105544
v 0.432466 0.735089 -0.092553
v 0.417650 1.010555 -0.105544
v 0.432466 1.010555 -0.092553
vt 0.199009 0.259310
vt 0.114461 0.259681
vt 0.114151 0.187937
vt 0.198699 0.187543
vt 0.113829 0.113611
vt 0.198377 0.113095
vt 0.365948 0.608104
vt 0.450495 0.608620
vt 0.450174 0.682947
vt 0.365626 0.682553
vt 0.449863 0.754691
vt 0.365316 0.754321
vt 0.199304 0.327726
vt 0.199647 0.407128
vt 0.115099 0.407330
vt 0.114756 0.328010
vt 0.364678 0.902136
vt 0.365021 0.822735
vt 0.449568 0.823020
vt 0.449225 0.902339
vt 0.737072 0.474097
vt 0.732495 0.473009
vt 0.732537 0.421464
vt 0.737072 0.421465
vt 0.283940 0.957464
vt 0.283957 0.951817
vt 0.365125 0.984811
vt 0.364304 0.990429
vt 0.732495 0.479748
vt 0.680659 0.479760
vt 0.680617 0.473010
vt 0.448222 0.984906
vt 0.448851 0.990562
vt 0.519721 0.961580
vt 0.522620 0.966030
vt 0.548748 0.901172
vt 0.552761 0.902485
vt 0.676040 0.474098
vt 0.676040 0.421465
vt 0.680576 0.421464
vt 0.280368 0.456811
vt 0.280385 0.462492
vt 0.200021 0.495415
vt 0.199200 0.489802
vt 0.115474 0.495551
vt 0.116103 0.489896
vt 0.041705 0.471022
vt 0.044604 0.466571
vt 0.011563 0.407475
vt 0.015576 0.406162
vt 0.676040 0.264255
vt 0.680576 0.264255
vt 0.680576 0.336999
vt 0.676040 0.336998
vt 0.676040 0.187905
vt 0.680576 0.187905
vt 0.676040 0.108705
vt 0.680576 0.108705
vt 0.037168 0.259697
vt 0.041278 0.260561
vt 0.013327 0.328788
vt 0.009264 0.327781
vt 0.030812 0.188380
vt 0.034848 0.188076
vt 0.029281 0.114063
vt 0.033327 0.114396
vt 0.737072 0.108711
vt 0.732537 0.108711
vt 0.737072 0.187905
vt 0.732537 0.187905
vt 0.737072 0.264260
vt 0.732537 0.264260
vt 0.535043 0.609073
vt 0.530998 0.609406
vt 0.533512 0.683391
vt 0.529476 0.683084
vt 0.527156 0.754707
vt 0.523047 0.755570
vt 0.737072 0.337000
vt 0.732537 0.336999
vt 0.555060 0.822792
vt 0.550998 0.823798
vt 0.664787 0.010033
vt 0.664787 0.102423
vt 0.615804 0.102410
vt 0.615921 0.010019
vt 0.664777 0.191914
vt 0.615794 0.191914
vt 0.664789 0.273984
vt 0.615806 0.274004
vt 0.279517 0.258937
vt 0.279207 0.187118
vt 0.278886 0.112687
vt 0.285439 0.607694
vt 0.285117 0.682128
vt 0.284807 0.753948
vt 0.665101 0.666999
vt 0.616118 0.667039
vt 0.665036 0.587727
vt 0.616053 0.587768
vt 0.664974 0.511048
vt 0.615991 0.511087
vt 0.279812 0.327418
vt 0.280155 0.407039
vt 0.615927 0.432718
vt 0.615858 0.348201
vt 0.664841 0.348165
vt 0.664911 0.432680
vt 0.284169 0.902045
vt 0.284512 0.822424
vn 0.065465 -0.000000 0.997855
vn 0.065465 -0.000000 0.997855
vn 0.065465 -0.000000 0.997855
vn 0.065465 -0.000000 0.997855
vn 0.065465 -0.000000 0.997855
vn 0.065465 -0.000000 0.997855
vn 0.065465 -0.000000 0.997855
vn 0.065465 -0.000000 0.997855
vn -0.065465 0.000000 -0.997855
vn -0.065465 0.000000 -0.997855
vn -0.065465 0.000000 -0.997855
vn -0.065465 0.000000 -0.997855
vn -0.065465 0.000000 -0.997855
vn -0.065465 0.000000 -0.997855
vn -0.065465 0.000000 -0.997855
vn -0.065465 0.000000 -0.997855
vn 0.065465 -0.000000 0.997855
vn 0.065465 -0.000000 0.997855
vn 0.065465 -0.000000 0.997855
vn 0.065465 -0.000000 0.997855
vn -0.065465 0.000000 -0.997855
vn -0.065465 0.000000 -0.997855
vn -0.065465 0.000000 -0.997855
vn -0.065465 0.000000 -0.997855
vn 0.065465 -0.000000 0.997855
vn 0.065465 -0.000000 0.997855
vn 0.065465 -0.000000 0.997855
vn 0.065465 -0.000000 0.997855
vn -0.065465 0.000000 -0.997855
vn -0.065465 0.000000 -0.997855
vn -0.065465 0.000000 -0.997855
vn -0.065465 0.000000 -0.997855
vn -0.023483 0.038732 -0.998974
vn 0.986669 0.070618 -0.146623
vn 0.989376 0.000011 -0.145377
vn -0.023152 0.000006 -0.999732
vn 0.404834 0.907588 -0.111325
vn -0.023483 0.038732 -0.998974
vn -0.052707 0.061705 -0.996702
vn 0.194406 0.977156 -0.085861
vn 0.986669 0.070618 -0.146623
vn 0.404834 0.907588 -0.111325
vn 0.415975 0.907572 0.057249
vn 0.997382 0.070410 0.016481
vn 0.194406 0.977156 -0.085861
vn -0.052707 0.061705 -0.996702
vn -0.073616 0.054292 -0.995808
vn -0.155219 0.985750 -0.064841
vn -0.155219 0.985750 -0.064841
vn -0.073616 0.054292 -0.995808
vn -0.108306 0.050993 -0.992809
vn -0.647450 0.761579 -0.028394
vn -0.647450 0.761579 -0.028394
vn -0.108306 0.050993 -0.992809
vn -0.113106 0.010585 -0.993527
vn -0.976285 0.216269 -0.009786
vn 0.997382 0.070410 0.016481
vn 0.107319 0.038930 0.993462
vn 0.107660 0.000006 0.994188
vn 0.999889 0.000011 0.014870
vn 0.107319 0.038930 0.993462
vn 0.415975 0.907572 0.057249
vn 0.203971 0.977157 0.059669
vn 0.078023 0.061839 0.995032
vn 0.078023 0.061839 0.995032
vn 0.203971 0.977157 0.059669
vn -0.145417 0.985750 0.084564
vn 0.057116 0.054291 0.996890
vn 0.057116 0.054291 0.996890
vn -0.145417 0.985750 0.084564
vn -0.638192 0.761578 0.112739
vn 0.022332 0.050993 0.998449
vn 0.022332 0.050993 0.998449
vn -0.638192 0.761578 0.112739
vn -0.966638 0.216269 0.137251
vn 0.017667 0.010585 0.999788
vn 0.113007 -0.000000 0.993594
vn 0.999893 -0.000000 0.014595
vn 0.999893 -0.000000 0.014595
vn 0.113007 -0.000000 0.993594
vn 0.999893 -0.000000 0.014595
vn 0.113007 -0.000000 0.993594
vn 0.113007 -0.000000 0.993594
vn 0.999893 -0.000000 0.014595
vn 0.999893 -0.000000 0.014595
vn 0.113007 -0.000000 0.993594
vn 0.113007 -0.000000 0.993594
vn 0.999893 -0.000000 0.014595
vn -0.975725 -0.154898 0.154812
vn 0.028778 -0.005761 0.999569
vn 0.015385 -0.008930 0.999842
vn -0.974988 -0.173872 0.138445
vn 0.028778 -0.005761 0.999569
vn -0.975725 -0.154898 0.154812
vn -0.988349 0.049136 0.144055
vn 0.014701 0.002513 0.999889
vn 0.014701 0.002513 0.999889
vn -0.988349 0.049136 0.144055
vn -0.988554 -0.051120 0.141941
vn 0.012809 -0.002679 0.999914
vn 0.989416 -0.000000 -0.145105
vn -0.017774 0.000000 -0.999842
vn -0.017774 0.000000 -0.999842
vn 0.989416 -0.000000 -0.145105
vn 0.989416 -0.000000 -0.145105
vn -0.017774 0.000000 -0.999842
vn -0.017774 0.000000 -0.999842
vn 0.989416 -0.000000 -0.145105
vn -0.117939 -0.002679 -0.993017
vn -0.998626 -0.051119 -0.011571
vn -0.998698 0.049136 -0.013695
vn -0.116059 0.002513 -0.993239
vn -0.116059 0.002513 -0.993239
vn -0.998698 0.049136 -0.013695
vn -0.987588 -0.154898 -0.026008
vn -0.102062 -0.005761 -0.994761
vn 0.989416 -0.000000 -0.145105
vn -0.017774 0.000000 -0.999842
vn -0.017774 0.000000 -0.999842
vn 0.989416 -0.000000 -0.145105
vn -0.102062 -0.005761 -0.994761
vn -0.987588 -0.154898 -0.026008
vn -0.984719 -0.173871 -0.009878
vn -0.115376 -0.008930 -0.993282
vn 0.999889 0.000011 0.014870
vn 0.107660 0.000006 0.994188
vn 0.113007 -0.000000 0.993594
vn 0.999893 -0.000000 0.014595
vn -0.974988 -0.173872 0.138445
vn 0.015385 -0.008930 0.999842
vn 0.017667 0.010585 0.999788
vn -0.966638 0.216269 0.137251
vn -0.976285 0.216269 -0.009786
vn -0.113106 0.010585 -0.993527
vn -0.115376 -0.008930 -0.993282
vn -0.984719 -0.173871 -0.009878
vn 0.989416 -0.000000 -0.145105
vn -0.017774 0.000000 -0.999842
vn -0.023152 0.000006 -0.999732
vn 0.989376 0.000011 -0.145377
vn 0.404834 0.907588 -0.111325
vn 0.194406 0.977156 -0.085861
vn 0.203971 0.977157 0.059669
vn 0.415975 0.907572 0.057249
vn 0.194406 0.977156 -0.085861
vn -0.155219 0.985750 -0.064841
vn -0.145417 0.985750 0.084564
vn 0.203971 0.977157 0.059669
vn -0.155219 0.985750 -0.064841
vn -0.647450 0.761579 -0.028394
vn -0.638192 0.761578 0.112739
vn -0.145417 0.985750 0.084564
vn 0.113007 -0.000000 0.993594
vn 0.065465 -0.000000 0.997855
vn 0.065465 -0.000000 0.997855
vn 0.113007 -0.000000 0.993594
vn 0.065465 -0.000000 0.997855
vn 0.028778 -0.005761 0.999569
vn 0.014701 0.002513 0.999889
vn 0.065465 -0.000000 0.997855
vn 0.113007 -0.000000 0.993594
vn 0.065465 -0.000000 0.997855
vn 0.065465 -0.000000 0.997855
vn 0.113007 -0.000000 0.993594
vn 0.065465 -0.000000 0.997855
vn 0.014701 0.002513 0.999889
vn 0.012809 -0.002679 0.999914
vn 0.065465 -0.000000 0.997855
vn -0.017774 0.000000 -0.999842
vn -0.065465 0.000000 -0.997855
vn -0.065465 0.000000 -0.997855
vn -0.017774 0.000000 -0.999842
vn -0.065465 0.000000 -0.997855
vn -0.117939 -0.002679 -0.993017
vn -0.116059 0.002513 -0.993239
vn -0.065465 0.000000 -0.997855
vn -0.017774 0.000000 -0.999842
vn -0.065465 0.000000 -0.997855
vn -0.065465 0.000000 -0.997855
vn -0.017774 0.000000 -0.999842
vn -0.065465 0.000000 -0.997855
vn -0.116059 0.002513 -0.993239
vn -0.102062 -0.005761 -0.994761
vn -0.065465 0.000000 -0.997855
vn -0.998698 0.049136 -0.013695
vn -0.998626 -0.051119 -0.011571
vn -0.988554 -0.051120 0.141941
vn -0.988349 0.049136 0.144055
vn -0.987588 -0.154898 -0.026008
vn -0.998698 0.049136 -0.013695
vn -0.988349 0.049136 0.144055
vn -0.975725 -0.154898 0.154812
vn 0.113007 -0.000000 0.993594
vn 0.107660 0.000006 0.994188
vn 0.065465 -0.000000 0.997855
vn 0.065465 -0.000000 0.997855
vn 0.065465 -0.000000 0.997855
vn 0.065465 -0.000000 0.997855
vn 0.017667 0.010585 0.999788
vn 0.015385 -0.008930 0.999842
vn -0.974988 -0.173872 0.138445
vn -0.966638 0.216269 0.137251
vn -0.976285 0.216269 -0.009786
vn -0.984719 -0.173871 -0.009878
vn -0.023152 0.000006 -0.999732
vn -0.017774 0.000000 -0.999842
vn -0.065465 0.000000 -0.997855
vn -0.065465 0.000000 -0.997855
vn -0.065465 0.000000 -0.997855
vn -0.065465 0.000000 -0.997855
vn -0.115376 -0.008930 -0.993282
vn -0.113106 0.010585 -0.993527
vn 0.107319 0.038930 0.993462
vn 0.078023 0.061839 0.995032
vn 0.065465 -0.000000 0.997855
vn 0.107660 0.000006 0.994188
vn 0.078023 0.061839 0.995032
vn 0.057116 0.054291 0.996890
vn 0.065465 -0.000000 0.997855
vn 0.065465 -0.000000 0.997855
vn 0.057116 0.054291 0.996890
vn 0.022332 0.050993 0.998449
vn 0.017667 0.010585 0.999788
vn 0.065465 -0.000000 0.997855
vn 0.113007 -0.000000 0.993594
vn 0.065465 -0.000000 0.997855
vn 0.065465 -0.000000 0.997855
vn 0.113007 -0.000000 0.993594
vn 0.065465 -0.000000 0.997855
vn 0.015385 -0.008930 0.999842
vn 0.028778 -0.005761 0.999569
vn 0.065465 -0.000000 0.997855
vn -0.017774 0.000000 -0.999842
vn -0.065465 0.000000 -0.997855
vn -0.065465 0.000000 -0.997855
vn -0.017774 0.000000 -0.999842
vn -0.065465 0.000000 -0.997855
vn -0.102062 -0.005761 -0.994761
vn -0.115376 -0.008930 -0.993282
vn -0.065465 0.000000 -0.997855
vn -0.023152 0.000006 -0.999732
vn -0.065465 0.000000 -0.997855
vn -0.052707 0.061705 -0.996702
vn -0.023483 0.038732 -0.998974
vn -0.065465 0.000000 -0.997855
vn -0.065465 0.000000 -0.997855
vn -0.073616 0.054292 -0.995808
vn -0.052707 0.061705 -0.996702
vn -0.065465 0.000000 -0.997855
vn -0.113106 0.010585 -0.993527
vn -0.108306 0.050993 -0.992809
vn -0.073616 0.054292 -0.995808
vn -0.984719 -0.173871 -0.009878
vn -0.987588 -0.154898 -0.026008
vn -0.975725 -0.154898 0.154812
vn -0.974988 -0.173872 0.138445
vn -0.647450 0.761579 -0.028394
vn -0.976285 0.216269 -0.009786
vn -0.966638 0.216269 0.137251
vn -0.638192 0.761578 0.112739
vn 0.997382 0.070410 0.016481
vn 0.999889 0.000011 0.014870
vn 0.989376 0.000011 -0.145377
vn 0.986669 0.070618 -0.146623
vn 0.999889 0.000011 0.014870
vn 0.999893 -0.000000 0.014595
vn 0.989416 -0.000000 -0.145105
vn 0.989376 0.000011 -0.145377
vn 0.999893 -0.000000 0.014595
vn 0.999893 -0.000000 0.014595
vn 0.989416 -0.000000 -0.145105
vn 0.989416 -0.000000 -0.145105
vn 0.999893 -0.000000 0.014595
vn 0.999893 -0.000000 0.014595
vn 0.989416 -0.000000 -0.145105
vn 0.989416 -0.000000 -0.145105
vn 0.999893 -0.000000 0.014595
vn 0.999893 -0.000000 0.014595
vn 0.989416 -0.000000 -0.145105
vn 0.989416 -0.000000 -0.145105
vn -0.023483 0.038732 -0.998974
vn 0.404834 0.907588 -0.111325
vn 0.986669 0.070618 -0.146623
vn 0.997382 0.070410 0.016481
vn 0.415975 0.907572 0.057249
vn 0.107319 0.038930 0.993462
s off
g FoodRLowerCaninesUnderbite
usemtl blinn1SG
f 1/1/1 2/2/2 4/3/3 3/4/4
f 3/4/5 4/3/6 6/5/7 5/6/8
f 7/7/9 8/8/10 10/9/11 9/10/12
f 9/10/13 10/9/14 12/11/15 11/12/16
f 14/13/17 13/14/18 15/15/19 16/16/20
f 18/17/21 17/18/22 19/19/23 20/20/24
f 14/13/25 16/16/26 2/2/27 1/1/28
f 11/12/29 12/11/30 19/19/31 17/18/32
f 21/21/33 23/22/34 78/23/35 77/24/36
f 22/25/37 21/26/38 25/27/39 24/28/40
f 23/22/41 22/29/42 31/30/43 30/31/44
f 24/28/45 25/27/46 27/32/47 26/33/48
f 26/33/49 27/32/50 29/34/51 28/35/52
f 28/35/53 29/34/54 71/36/55 72/37/56
f 30/31/57 32/38/58 63/39/59 64/40/60
f 32/41/61 31/42/62 33/43/63 34/44/64
f 34/44/65 33/43/66 35/45/67 36/46/68
f 36/46/69 35/45/70 38/47/71 37/48/72
f 37/48/73 38/47/74 69/49/75 70/50/76
f 39/51/77 40/52/78 66/53/79 65/54/80
f 40/52/81 39/51/82 41/55/83 42/56/84
f 42/56/85 41/55/86 47/57/87 48/58/88
f 43/59/89 44/60/90 67/61/91 68/62/92
f 44/60/93 43/59/94 46/63/95 45/64/96
f 45/64/97 46/63/98 50/65/99 49/66/100
f 52/68/101 51/67/102 53/69/103 54/70/104
f 54/70/105 53/69/106 59/71/107 60/72/108
f 56/74/109 55/73/110 58/75/111 57/76/112
f 57/76/113 58/75/114 62/77/115 61/78/116
f 60/72/117 59/71/118 75/79/119 76/80/120
f 61/78/121 62/77/122 73/81/123 74/82/124
f 64/40/125 63/39/126 65/54/127 66/53/128
f 68/62/129 67/61/130 70/50/131 69/49/132
f 72/37/133 71/36/134 74/82/135 73/81/136
f 76/80/137 75/79/138 77/24/139 78/23/140
f 22/83/141 24/84/142 33/85/143 31/86/144
f 24/84/145 26/87/146 35/88/147 33/85/148
f 26/87/149 28/89/150 38/90/151 35/88/152
f 39/91/153 1/1/154 3/4/155 41/92/156
f 2/2/157 44/60/158 45/64/159 4/3/160
f 41/92/161 3/4/162 5/6/163 47/93/164
f 4/3/165 45/64/166 49/66/167 6/5/168
f 51/94/169 7/7/170 9/10/171 53/95/172
f 8/8/173 56/74/174 57/76/175 10/9/176
f 53/95/177 9/10/178 11/12/179 59/96/180
f 10/9/181 57/76/182 61/78/183 12/11/184
f 58/99/185 55/97/186 50/98/187 46/100/188
f 62/101/189 58/99/190 46/100/191 43/102/192
f 65/103/193 63/104/194 13/14/195 14/13/196
f 16/16/197 15/15/198 70/50/199 67/61/200
f 68/105/201 69/106/202 72/107/203 73/108/204
f 77/109/205 75/110/206 17/18/207 18/17/208
f 20/20/209 19/19/210 74/82/211 71/36/212
f 32/41/213 34/44/214 13/14/215 63/104/216
f 34/44/217 36/46/218 15/15/219 13/14/220
f 36/46/221 37/48/222 70/50/223 15/15/224
f 65/103/225 14/13/226 1/1/227 39/91/228
f 16/16/229 67/61/230 44/60/231 2/2/232
f 59/96/233 11/12/234 17/18/235 75/110/236
f 12/11/237 61/78/238 74/82/239 19/19/240
f 77/109/241 18/17/242 25/27/243 21/26/244
f 18/17/245 20/20/246 27/32/247 25/27/248
f 20/20/249 71/36/250 29/34/251 27/32/252
f 73/108/253 62/101/254 43/102/255 68/105/256
f 28/89/257 72/107/258 69/106/259 38/90/260
f 30/31/261 64/40/262 78/23/263 23/22/264
f 64/40/265 66/53/266 76/80/267 78/23/268
f 66/53/269 40/52/270 60/72/271 76/80/272
f 40/52/273 42/56/274 54/70/275 60/72/276
f 42/56/277 48/58/278 52/68/279 54/70/280
f 21/21/281 22/29/282 23/22/283
f 30/31/284 31/30/285 32/38/286
