# This file uses centimeters as units for non-parametric coordinates.

mtllib ChocolateChipCookieShortRUpperLeg.mtl
g default
v 0.994442 0.171672 -0.100001
v 0.994442 0.098467 -0.173206
v 0.994442 -0.001533 -0.200001
v 0.994442 -0.101533 -0.173206
v 0.994442 -0.174739 -0.100001
v 0.994441 -0.201533 -0.000001
v 0.994441 -0.174739 0.099999
v 0.994441 -0.101533 0.173204
v 0.994441 -0.001533 0.199999
v 0.994441 0.098467 0.173204
v 0.994441 0.171672 0.099999
v 0.994441 0.198467 -0.000001
v 0.848032 0.298467 -0.173207
v 0.848033 0.171672 -0.300002
v 0.848033 -0.001533 -0.346412
v 0.848033 -0.174739 -0.300002
v 0.848032 -0.301533 -0.173207
v 0.848031 -0.347944 -0.000002
v 0.848030 -0.301533 0.173203
v 0.848030 -0.174739 0.299998
v 0.848030 -0.001533 0.346408
v 0.848030 0.171672 0.299998
v 0.848030 0.298467 0.173203
v 0.848031 0.344877 -0.000002
v 0.648032 0.321516 -0.186515
v 0.648033 0.184979 -0.323052
v 0.648033 -0.001533 -0.373028
v 0.648033 -0.188046 -0.323052
v 0.648032 -0.324583 -0.186515
v 0.648031 -0.374559 -0.000003
v 0.648030 -0.324583 0.186510
v 0.648030 -0.188046 0.323047
v 0.648030 -0.001533 0.373023
v 0.648030 0.184979 0.323047
v 0.648030 0.321516 0.186510
v 0.648031 0.371492 -0.000003
v 0.398032 0.247186 -0.143602
v 0.398032 0.142065 -0.248723
v 0.398033 -0.001533 -0.287200
v 0.398032 -0.145132 -0.248723
v 0.398032 -0.250253 -0.143602
v 0.398031 -0.288730 -0.000004
v 0.398031 -0.250253 0.143594
v 0.398030 -0.145132 0.248715
v 0.398030 -0.001533 0.287192
v 0.398030 0.142065 0.248715
v 0.398031 0.247186 0.143594
v 0.398031 0.285663 -0.000004
v 0.118640 0.234443 -0.136246
v 0.118640 0.134708 -0.235982
v 0.118641 -0.001533 -0.272488
v 0.118640 -0.137775 -0.235982
v 0.118640 -0.237510 -0.136246
v 0.118639 -0.274016 -0.000005
v 0.118639 -0.237510 0.136236
v 0.118638 -0.137775 0.235972
v 0.118638 -0.001533 0.272478
v 0.118638 0.134708 0.235972
v 0.118639 0.234443 0.136236
v 0.118639 0.270949 -0.000005
v -0.160752 0.268539 -0.155933
v -0.160751 0.154393 -0.270079
v -0.160751 -0.001533 -0.311859
v -0.160751 -0.157460 -0.270079
v -0.160752 -0.271606 -0.155933
v -0.160753 -0.313386 -0.000006
v -0.160753 -0.271606 0.155920
v -0.160754 -0.157460 0.270066
v -0.160754 -0.001533 0.311846
v -0.160754 0.154393 0.270066
v -0.160753 0.268539 0.155920
v -0.160753 0.310319 -0.000006
v -0.444343 0.321735 -0.186647
v -0.444342 0.185106 -0.323276
v -0.444342 -0.001533 -0.373286
v -0.444342 -0.188173 -0.323276
v -0.444343 -0.324802 -0.186647
v -0.444344 -0.374812 -0.000008
v -0.444344 -0.324802 0.186632
v -0.444345 -0.188173 0.323261
v -0.444345 -0.001533 0.373271
v -0.444345 0.185106 0.323261
v -0.444344 0.321735 0.186632
v -0.444344 0.371745 -0.000008
v -0.644343 0.298467 -0.173214
v -0.644342 0.171672 -0.300009
v -0.644342 -0.001533 -0.346419
v -0.644342 -0.174739 -0.300009
v -0.644343 -0.301533 -0.173214
v -0.644344 -0.347944 -0.000009
v -0.644344 -0.301533 0.173196
v -0.644345 -0.174739 0.299991
v -0.644345 -0.001533 0.346402
v -0.644345 0.171672 0.299991
v -0.644344 0.298467 0.173196
v -0.644344 0.344877 -0.000009
v -0.790753 0.171672 -0.100009
v -0.790753 0.098467 -0.173214
v -0.790753 -0.001533 -0.200009
v -0.790753 -0.101533 -0.173214
v -0.790753 -0.174739 -0.100009
v -0.790754 -0.201533 -0.000009
v -0.790754 -0.174739 0.099991
v -0.790755 -0.101533 0.173196
v -0.790755 -0.001533 0.199991
v -0.790755 0.098467 0.173196
v -0.790754 0.171672 0.099991
v -0.790754 0.198467 -0.000009
v 1.048031 -0.001533 -0.000001
v -0.844344 -0.001533 -0.000010
vt 0.068010 0.634797
vt 0.064297 0.631084
vt 0.059226 0.629725
vt 0.054154 0.631084
vt 0.050441 0.634797
vt 0.049082 0.639869
vt 0.050441 0.644941
vt 0.054154 0.648654
vt 0.059226 0.650013
vt 0.064297 0.648654
vt 0.068010 0.644941
vt 0.069369 0.639869
vt 0.076795 0.629725
vt 0.069369 0.622299
vt 0.059226 0.619581
vt 0.049082 0.622299
vt 0.041656 0.629725
vt 0.038938 0.639869
vt 0.041656 0.650013
vt 0.049082 0.657438
vt 0.059226 0.660156
vt 0.069369 0.657438
vt 0.076795 0.650013
vt 0.079513 0.639869
vt 0.085580 0.624653
vt 0.074441 0.613515
vt 0.059226 0.609438
vt 0.044010 0.613515
vt 0.032871 0.624653
vt 0.028794 0.639869
vt 0.032871 0.655084
vt 0.044010 0.666223
vt 0.059226 0.670300
vt 0.074441 0.666223
vt 0.085580 0.655084
vt 0.089657 0.639869
vt 0.346909 0.790912
vt 0.355446 0.790912
vt 0.363983 0.790912
vt 0.372521 0.790912
vt 0.381058 0.790912
vt 0.389595 0.790912
vt 0.398133 0.790912
vt 0.406670 0.790912
vt 0.415207 0.790912
vt 0.423745 0.790912
vt 0.432282 0.790912
vt 0.440819 0.790912
vt 0.449357 0.790912
vt 0.346909 0.801484
vt 0.355446 0.801484
vt 0.363983 0.801484
vt 0.372521 0.801484
vt 0.381058 0.801484
vt 0.389595 0.801484
vt 0.398133 0.801484
vt 0.406670 0.801484
vt 0.415207 0.801484
vt 0.423745 0.801484
vt 0.432282 0.801484
vt 0.440819 0.801484
vt 0.449357 0.801484
vt 0.346909 0.812055
vt 0.355446 0.812055
vt 0.363983 0.812055
vt 0.372521 0.812055
vt 0.381058 0.812055
vt 0.389595 0.812055
vt 0.398133 0.812055
vt 0.406670 0.812055
vt 0.415207 0.812055
vt 0.423745 0.812055
vt 0.432282 0.812055
vt 0.440819 0.812055
vt 0.449357 0.812055
vt 0.346909 0.822626
vt 0.355446 0.822626
vt 0.363983 0.822626
vt 0.372521 0.822626
vt 0.381058 0.822626
vt 0.389595 0.822626
vt 0.398133 0.822626
vt 0.406670 0.822626
vt 0.415207 0.822626
vt 0.423745 0.822626
vt 0.432282 0.822626
vt 0.440819 0.822626
vt 0.449357 0.822626
vt 0.346909 0.833197
vt 0.355446 0.833197
vt 0.363983 0.833197
vt 0.372521 0.833197
vt 0.381058 0.833197
vt 0.389595 0.833197
vt 0.398133 0.833197
vt 0.406670 0.833197
vt 0.415207 0.833197
vt 0.423745 0.833197
vt 0.432282 0.833197
vt 0.440819 0.833197
vt 0.449357 0.833197
vt 0.085617 0.624493
vt 0.074478 0.613355
vt 0.059263 0.609278
vt 0.044047 0.613355
vt 0.032908 0.624493
vt 0.028831 0.639709
vt 0.032908 0.654925
vt 0.044047 0.666063
vt 0.059263 0.670140
vt 0.074478 0.666063
vt 0.085617 0.654925
vt 0.089694 0.639709
vt 0.076832 0.629565
vt 0.069406 0.622140
vt 0.059263 0.619422
vt 0.049119 0.622140
vt 0.041693 0.629565
vt 0.038975 0.639709
vt 0.041693 0.649853
vt 0.049119 0.657278
vt 0.059263 0.659997
vt 0.069406 0.657278
vt 0.076832 0.649853
vt 0.079550 0.639709
vt 0.068047 0.634637
vt 0.064334 0.630924
vt 0.059263 0.629565
vt 0.054191 0.630924
vt 0.050478 0.634637
vt 0.049119 0.639709
vt 0.050478 0.644781
vt 0.054191 0.648494
vt 0.059263 0.649853
vt 0.064334 0.648494
vt 0.068047 0.644781
vt 0.069406 0.639709
vt 0.059226 0.638652
vt 0.059263 0.638492
vn 0.780820 0.541056 -0.312375
vn 0.780821 0.312379 -0.541052
vn 0.382834 0.461910 -0.800049
vn 0.382832 0.800051 -0.461908
vn 0.780822 -0.000000 -0.624754
vn 0.382834 0.000000 -0.923817
vn 0.780821 -0.312379 -0.541052
vn 0.382834 -0.461909 -0.800049
vn 0.780820 -0.541056 -0.312375
vn 0.382832 -0.800051 -0.461908
vn 0.780819 -0.624758 0.000004
vn 0.382830 -0.923819 0.000002
vn 0.780817 -0.541056 0.312382
vn 0.382828 -0.800051 0.461911
vn 0.780816 -0.312379 0.541060
vn 0.382826 -0.461910 0.800052
vn 0.780816 0.000000 0.624761
vn 0.382826 0.000000 0.923821
vn 0.780816 0.312379 0.541060
vn 0.382826 0.461909 0.800052
vn 0.780817 0.541056 0.312382
vn 0.382828 0.800051 0.461911
vn 0.780819 0.624758 0.000004
vn 0.382830 0.923819 0.000002
vn -0.116709 0.496583 -0.860107
vn -0.116711 0.860107 -0.496583
vn -0.116709 0.000000 -0.993166
vn -0.116709 -0.496583 -0.860107
vn -0.116711 -0.860107 -0.496583
vn -0.116713 -0.993166 -0.000001
vn -0.116716 -0.860107 0.496582
vn -0.116717 -0.496583 0.860106
vn -0.116718 -0.000000 0.993165
vn -0.116717 0.496583 0.860106
vn -0.116716 0.860107 0.496582
vn -0.116713 0.993166 -0.000001
vn -0.202071 0.489685 -0.848160
vn -0.202073 0.848159 -0.489686
vn -0.202071 0.000000 -0.979371
vn -0.202071 -0.489685 -0.848160
vn -0.202073 -0.848159 -0.489686
vn -0.202075 -0.979370 -0.000001
vn -0.202078 -0.848159 0.489684
vn -0.202079 -0.489685 0.848158
vn -0.202080 -0.000000 0.979369
vn -0.202079 0.489685 0.848158
vn -0.202078 0.848159 0.489684
vn -0.202075 0.979370 -0.000001
vn 0.046846 0.499451 -0.865075
vn 0.046844 0.865075 -0.499451
vn 0.046846 0.000000 -0.998902
vn 0.046846 -0.499451 -0.865075
vn 0.046844 -0.865075 -0.499451
vn 0.046842 -0.998902 0.000000
vn 0.046839 -0.865075 0.499451
vn 0.046838 -0.499451 0.865075
vn 0.046837 0.000000 0.998903
vn 0.046838 0.499451 0.865075
vn 0.046839 0.865075 0.499451
vn 0.046842 0.998902 0.000000
vn 0.180129 0.491822 -0.851860
vn 0.180127 0.851860 -0.491821
vn 0.180130 0.000000 -0.983643
vn 0.180129 -0.491822 -0.851860
vn 0.180127 -0.851860 -0.491821
vn 0.180125 -0.983644 0.000001
vn 0.180123 -0.851860 0.491823
vn 0.180121 -0.491822 0.851861
vn 0.180120 0.000000 0.983645
vn 0.180121 0.491822 0.851861
vn 0.180123 0.851860 0.491823
vn 0.180125 0.983644 0.000001
vn 0.065970 0.498911 -0.864139
vn 0.065968 0.864139 -0.498911
vn 0.065971 0.000000 -0.997822
vn 0.065970 -0.498911 -0.864139
vn 0.065968 -0.864139 -0.498911
vn 0.065966 -0.997822 0.000000
vn 0.065964 -0.864139 0.498911
vn 0.065962 -0.498911 0.864139
vn 0.065961 0.000000 0.997822
vn 0.065962 0.498911 0.864139
vn 0.065964 0.864139 0.498911
vn 0.065966 0.997822 0.000000
vn -0.383418 0.461787 -0.799840
vn -0.383420 0.799838 -0.461788
vn -0.383418 -0.000000 -0.923575
vn -0.383418 -0.461787 -0.799840
vn -0.383420 -0.799838 -0.461788
vn -0.383422 -0.923573 -0.000002
vn -0.383424 -0.799838 0.461785
vn -0.383426 -0.461787 0.799836
vn -0.383426 -0.000000 0.923572
vn -0.383426 0.461787 0.799836
vn -0.383424 0.799838 0.461785
vn -0.383422 0.923573 -0.000002
vn -0.780816 0.312379 -0.541060
vn -0.780817 0.541056 -0.312382
vn -0.780816 -0.000000 -0.624761
vn -0.780816 -0.312379 -0.541060
vn -0.780817 -0.541056 -0.312382
vn -0.780819 -0.624758 -0.000004
vn -0.780820 -0.541056 0.312375
vn -0.780821 -0.312379 0.541052
vn -0.780822 -0.000000 0.624754
vn -0.780821 0.312379 0.541052
vn -0.780820 0.541056 0.312375
vn -0.780819 0.624758 -0.000004
vn 1.000000 0.000000 0.000005
vn -1.000000 -0.000000 -0.000005
s 1
g FoodShortRUpperLeg
usemtl Eye_blinn1SG
f 1/1/1 2/2/2 14/14/3 13/13/4
f 2/2/2 3/3/5 15/15/6 14/14/3
f 3/3/5 4/4/7 16/16/8 15/15/6
f 4/4/7 5/5/9 17/17/10 16/16/8
f 5/5/9 6/6/11 18/18/12 17/17/10
f 6/6/11 7/7/13 19/19/14 18/18/12
f 7/7/13 8/8/15 20/20/16 19/19/14
f 8/8/15 9/9/17 21/21/18 20/20/16
f 9/9/17 10/10/19 22/22/20 21/21/18
f 10/10/19 11/11/21 23/23/22 22/22/20
f 11/11/21 12/12/23 24/24/24 23/23/22
f 12/12/23 1/1/1 13/13/4 24/24/24
f 13/13/4 14/14/3 26/26/25 25/25/26
f 14/14/3 15/15/6 27/27/27 26/26/25
f 15/15/6 16/16/8 28/28/28 27/27/27
f 16/16/8 17/17/10 29/29/29 28/28/28
f 17/17/10 18/18/12 30/30/30 29/29/29
f 18/18/12 19/19/14 31/31/31 30/30/30
f 19/19/14 20/20/16 32/32/32 31/31/31
f 20/20/16 21/21/18 33/33/33 32/32/32
f 21/21/18 22/22/20 34/34/34 33/33/33
f 22/22/20 23/23/22 35/35/35 34/34/34
f 23/23/22 24/24/24 36/36/36 35/35/35
f 24/24/24 13/13/4 25/25/26 36/36/36
f 25/37/26 26/38/25 38/51/37 37/50/38
f 26/38/25 27/39/27 39/52/39 38/51/37
f 27/39/27 28/40/28 40/53/40 39/52/39
f 28/40/28 29/41/29 41/54/41 40/53/40
f 29/41/29 30/42/30 42/55/42 41/54/41
f 30/42/30 31/43/31 43/56/43 42/55/42
f 31/43/31 32/44/32 44/57/44 43/56/43
f 32/44/32 33/45/33 45/58/45 44/57/44
f 33/45/33 34/46/34 46/59/46 45/58/45
f 34/46/34 35/47/35 47/60/47 46/59/46
f 35/47/35 36/48/36 48/61/48 47/60/47
f 36/48/36 25/49/26 37/62/38 48/61/48
f 37/50/38 38/51/37 50/64/49 49/63/50
f 38/51/37 39/52/39 51/65/51 50/64/49
f 39/52/39 40/53/40 52/66/52 51/65/51
f 40/53/40 41/54/41 53/67/53 52/66/52
f 41/54/41 42/55/42 54/68/54 53/67/53
f 42/55/42 43/56/43 55/69/55 54/68/54
f 43/56/43 44/57/44 56/70/56 55/69/55
f 44/57/44 45/58/45 57/71/57 56/70/56
f 45/58/45 46/59/46 58/72/58 57/71/57
f 46/59/46 47/60/47 59/73/59 58/72/58
f 47/60/47 48/61/48 60/74/60 59/73/59
f 48/61/48 37/62/38 49/75/50 60/74/60
f 49/63/50 50/64/49 62/77/61 61/76/62
f 50/64/49 51/65/51 63/78/63 62/77/61
f 51/65/51 52/66/52 64/79/64 63/78/63
f 52/66/52 53/67/53 65/80/65 64/79/64
f 53/67/53 54/68/54 66/81/66 65/80/65
f 54/68/54 55/69/55 67/82/67 66/81/66
f 55/69/55 56/70/56 68/83/68 67/82/67
f 56/70/56 57/71/57 69/84/69 68/83/68
f 57/71/57 58/72/58 70/85/70 69/84/69
f 58/72/58 59/73/59 71/86/71 70/85/70
f 59/73/59 60/74/60 72/87/72 71/86/71
f 60/74/60 49/75/50 61/88/62 72/87/72
f 61/76/62 62/77/61 74/90/73 73/89/74
f 62/77/61 63/78/63 75/91/75 74/90/73
f 63/78/63 64/79/64 76/92/76 75/91/75
f 64/79/64 65/80/65 77/93/77 76/92/76
f 65/80/65 66/81/66 78/94/78 77/93/77
f 66/81/66 67/82/67 79/95/79 78/94/78
f 67/82/67 68/83/68 80/96/80 79/95/79
f 68/83/68 69/84/69 81/97/81 80/96/80
f 69/84/69 70/85/70 82/98/82 81/97/81
f 70/85/70 71/86/71 83/99/83 82/98/82
f 71/86/71 72/87/72 84/100/84 83/99/83
f 72/87/72 61/88/62 73/101/74 84/100/84
f 73/112/74 74/111/73 86/123/85 85/124/86
f 74/111/73 75/110/75 87/122/87 86/123/85
f 75/110/75 76/109/76 88/121/88 87/122/87
f 76/109/76 77/108/77 89/120/89 88/121/88
f 77/108/77 78/107/78 90/119/90 89/120/89
f 78/107/78 79/106/79 91/118/91 90/119/90
f 79/106/79 80/105/80 92/117/92 91/118/91
f 80/105/80 81/104/81 93/116/93 92/117/92
f 81/104/81 82/103/82 94/115/94 93/116/93
f 82/103/82 83/102/83 95/114/95 94/115/94
f 83/102/83 84/113/84 96/125/96 95/114/95
f 84/113/84 73/112/74 85/124/86 96/125/96
f 85/124/86 86/123/85 98/135/97 97/136/98
f 86/123/85 87/122/87 99/134/99 98/135/97
f 87/122/87 88/121/88 100/133/100 99/134/99
f 88/121/88 89/120/89 101/132/101 100/133/100
f 89/120/89 90/119/90 102/131/102 101/132/101
f 90/119/90 91/118/91 103/130/103 102/131/102
f 91/118/91 92/117/92 104/129/104 103/130/103
f 92/117/92 93/116/93 105/128/105 104/129/104
f 93/116/93 94/115/94 106/127/106 105/128/105
f 94/115/94 95/114/95 107/126/107 106/127/106
f 95/114/95 96/125/96 108/137/108 107/126/107
f 96/125/96 85/124/86 97/136/98 108/137/108
f 2/2/2 1/1/1 109/138/109
f 3/3/5 2/2/2 109/138/109
f 4/4/7 3/3/5 109/138/109
f 5/5/9 4/4/7 109/138/109
f 6/6/11 5/5/9 109/138/109
f 7/7/13 6/6/11 109/138/109
f 8/8/15 7/7/13 109/138/109
f 9/9/17 8/8/15 109/138/109
f 10/10/19 9/9/17 109/138/109
f 11/11/21 10/10/19 109/138/109
f 12/12/23 11/11/21 109/138/109
f 1/1/1 12/12/23 109/138/109
f 97/136/98 98/135/97 110/139/110
f 98/135/97 99/134/99 110/139/110
f 99/134/99 100/133/100 110/139/110
f 100/133/100 101/132/101 110/139/110
f 101/132/101 102/131/102 110/139/110
f 102/131/102 103/130/103 110/139/110
f 103/130/103 104/129/104 110/139/110
f 104/129/104 105/128/105 110/139/110
f 105/128/105 106/127/106 110/139/110
f 106/127/106 107/126/107 110/139/110
f 107/126/107 108/137/108 110/139/110
f 108/137/108 97/136/98 110/139/110
