# This file uses centimeters as units for non-parametric coordinates.

mtllib ChocolateChipCookieTallLLowerArm.mtl
g default
v -1.454111 0.207378 -0.119317
v -1.454096 0.120163 -0.206533
v -1.454091 0.001025 -0.238455
v -1.454097 -0.118113 -0.206533
v -1.454112 -0.205328 -0.119317
v -1.454133 -0.237252 -0.000179
v -1.454154 -0.205328 0.118959
v -1.454169 -0.118113 0.206174
v -1.454174 0.001025 0.238097
v -1.454168 0.120163 0.206174
v -1.454153 0.207378 0.118959
v -1.454132 0.239301 -0.000179
v -1.279666 0.358439 -0.206502
v -1.279639 0.207378 -0.357563
v -1.279630 0.001025 -0.412855
v -1.279640 -0.205328 -0.357563
v -1.279666 -0.356389 -0.206502
v -1.279702 -0.411681 -0.000149
v -1.279738 -0.356389 0.206204
v -1.279765 -0.205328 0.357265
v -1.279775 0.001025 0.412557
v -1.279764 0.207378 0.357265
v -1.279739 0.358439 0.206204
v -1.279702 0.413731 -0.000149
v -1.041388 0.385899 -0.222315
v -1.041359 0.223232 -0.384982
v -1.041349 0.001025 -0.444522
v -1.041359 -0.221183 -0.384982
v -1.041387 -0.383850 -0.222315
v -1.041426 -0.443390 -0.000107
v -1.041465 -0.383850 0.222100
v -1.041494 -0.221183 0.384767
v -1.041504 0.001025 0.444308
v -1.041494 0.223232 0.384767
v -1.041465 0.385899 0.222100
v -1.041426 0.445440 -0.000107
v -0.503341 0.297344 -0.171093
v -0.503319 0.172105 -0.296332
v -0.503311 0.001025 -0.342173
v -0.503319 -0.170055 -0.296332
v -0.503341 -0.295294 -0.171093
v -0.503371 -0.341135 -0.000013
v -0.503401 -0.295294 0.171067
v -0.503423 -0.170055 0.296306
v -0.503431 0.001025 0.342147
v -0.503423 0.172105 0.296306
v -0.503401 0.297344 0.171067
v -0.503371 0.343185 -0.000013
v 0.233089 0.308695 -0.177518
v 0.233112 0.178659 -0.307555
v 0.233120 0.001025 -0.355152
v 0.233112 -0.176609 -0.307555
v 0.233089 -0.306646 -0.177518
v 0.233058 -0.354243 0.000116
v 0.233027 -0.306646 0.177750
v 0.233004 -0.176609 0.307787
v 0.232996 0.001025 0.355383
v 0.233004 0.178659 0.307787
v 0.233027 0.308695 0.177750
v 0.233058 0.356292 0.000116
v 0.983969 0.391529 -0.225211
v 0.983998 0.226482 -0.390258
v 0.984009 0.001024 -0.450669
v 0.983998 -0.224433 -0.390258
v 0.983969 -0.389481 -0.225211
v 0.983930 -0.449891 0.000247
v 0.983890 -0.389481 0.225705
v 0.983862 -0.224433 0.390752
v 0.983851 0.001024 0.451163
v 0.983862 0.226482 0.390752
v 0.983890 0.391529 0.225705
v 0.983929 0.451940 0.000247
v 1.644581 0.468618 -0.269603
v 1.644616 0.270990 -0.467231
v 1.644628 0.001024 -0.539569
v 1.644616 -0.268940 -0.467231
v 1.644582 -0.466570 -0.269603
v 1.644533 -0.538906 0.000363
v 1.644487 -0.466570 0.270328
v 1.644452 -0.268940 0.467957
v 1.644439 0.001024 0.540294
v 1.644453 0.270990 0.467957
v 1.644486 0.468618 0.270328
v 1.644534 0.540956 0.000363
v 1.926132 0.423358 -0.243422
v 1.926163 0.244858 -0.421921
v 1.926175 0.001025 -0.487256
v 1.926163 -0.242810 -0.421921
v 1.926133 -0.421309 -0.243422
v 1.926089 -0.486644 0.000412
v 1.926047 -0.421309 0.244246
v 1.926016 -0.242810 0.422745
v 1.926004 0.001025 0.488080
v 1.926016 0.244858 0.422745
v 1.926046 0.423358 0.244246
v 1.926089 0.488693 0.000412
v 2.132226 0.244858 -0.140330
v 2.132245 0.141802 -0.243386
v 2.132251 0.001024 -0.281107
v 2.132245 -0.139754 -0.243386
v 2.132226 -0.242810 -0.140330
v 2.132202 -0.280531 0.000448
v 2.132177 -0.242810 0.141226
v 2.132160 -0.139754 0.244282
v 2.132153 0.001024 0.282003
v 2.132159 0.141802 0.244282
v 2.132177 0.244858 0.141226
v 2.132202 0.282580 0.000448
v -1.517978 0.001025 -0.000191
v 2.207644 0.001025 0.000461
vt 0.050478 0.634797
vt 0.054191 0.631084
vt 0.059263 0.629725
vt 0.064334 0.631084
vt 0.068047 0.634797
vt 0.069406 0.639869
vt 0.068047 0.644941
vt 0.064334 0.648654
vt 0.059263 0.650013
vt 0.054191 0.648654
vt 0.050478 0.644941
vt 0.049119 0.639869
vt 0.041693 0.629725
vt 0.049119 0.622299
vt 0.059263 0.619581
vt 0.069406 0.622299
vt 0.076832 0.629725
vt 0.079550 0.639869
vt 0.076832 0.650013
vt 0.069406 0.657438
vt 0.059263 0.660156
vt 0.049119 0.657438
vt 0.041693 0.650013
vt 0.038975 0.639869
vt 0.032908 0.624653
vt 0.044047 0.613515
vt 0.059263 0.609438
vt 0.074478 0.613515
vt 0.085617 0.624653
vt 0.089694 0.639869
vt 0.085617 0.655084
vt 0.074478 0.666223
vt 0.059263 0.670300
vt 0.044047 0.666223
vt 0.032908 0.655084
vt 0.028831 0.639869
vt 0.449357 0.769801
vt 0.440819 0.769801
vt 0.432282 0.769801
vt 0.423745 0.769801
vt 0.415207 0.769801
vt 0.406670 0.769801
vt 0.398133 0.769801
vt 0.389595 0.769801
vt 0.381058 0.769801
vt 0.372521 0.769801
vt 0.363983 0.769801
vt 0.355446 0.769801
vt 0.346909 0.769801
vt 0.449357 0.790928
vt 0.440819 0.790928
vt 0.432282 0.790928
vt 0.423745 0.790928
vt 0.415207 0.790928
vt 0.406670 0.790928
vt 0.398133 0.790928
vt 0.389595 0.790928
vt 0.381058 0.790928
vt 0.372521 0.790928
vt 0.363983 0.790928
vt 0.355446 0.790928
vt 0.346909 0.790928
vt 0.449357 0.812055
vt 0.440819 0.812055
vt 0.432282 0.812055
vt 0.423745 0.812055
vt 0.415207 0.812055
vt 0.406670 0.812055
vt 0.398133 0.812055
vt 0.389595 0.812055
vt 0.381058 0.812055
vt 0.372521 0.812055
vt 0.363983 0.812055
vt 0.355446 0.812055
vt 0.346909 0.812055
vt 0.449357 0.833181
vt 0.440819 0.833181
vt 0.432282 0.833181
vt 0.423745 0.833181
vt 0.415207 0.833181
vt 0.406670 0.833181
vt 0.398133 0.833181
vt 0.389595 0.833181
vt 0.381058 0.833181
vt 0.372521 0.833181
vt 0.363983 0.833181
vt 0.355446 0.833181
vt 0.346909 0.833181
vt 0.449357 0.854308
vt 0.440819 0.854308
vt 0.432282 0.854308
vt 0.423745 0.854308
vt 0.415207 0.854308
vt 0.406670 0.854308
vt 0.398133 0.854308
vt 0.389595 0.854308
vt 0.381058 0.854308
vt 0.372521 0.854308
vt 0.363983 0.854308
vt 0.355446 0.854308
vt 0.346909 0.854308
vt 0.032871 0.624493
vt 0.044010 0.613355
vt 0.059226 0.609278
vt 0.074441 0.613355
vt 0.085580 0.624493
vt 0.089657 0.639709
vt 0.085580 0.654925
vt 0.074441 0.666063
vt 0.059226 0.670140
vt 0.044010 0.666063
vt 0.032871 0.654925
vt 0.028794 0.639709
vt 0.041656 0.629565
vt 0.049082 0.622140
vt 0.059226 0.619422
vt 0.069369 0.622140
vt 0.076795 0.629565
vt 0.079513 0.639709
vt 0.076795 0.649853
vt 0.069369 0.657278
vt 0.059226 0.659997
vt 0.049082 0.657278
vt 0.041656 0.649853
vt 0.038938 0.639709
vt 0.050441 0.634637
vt 0.054154 0.630924
vt 0.059226 0.629565
vt 0.064297 0.630924
vt 0.068010 0.634637
vt 0.069369 0.639709
vt 0.068010 0.644781
vt 0.064297 0.648494
vt 0.059226 0.649853
vt 0.054154 0.648494
vt 0.050441 0.644781
vt 0.049082 0.639709
vt 0.059263 0.638652
vt 0.059226 0.638492
vn -0.780764 0.541055 -0.312517
vn -0.382749 0.800050 -0.461978
vn -0.382690 0.461910 -0.800117
vn -0.780724 0.312379 -0.541192
vn -0.382669 0.000001 -0.923886
vn -0.780710 0.000001 -0.624894
vn -0.382690 -0.461909 -0.800118
vn -0.780724 -0.312379 -0.541193
vn -0.382749 -0.800050 -0.461977
vn -0.780764 -0.541056 -0.312516
vn -0.382830 -0.923819 -0.000067
vn -0.780818 -0.624758 -0.000137
vn -0.382910 -0.800050 0.461843
vn -0.780873 -0.541056 0.312243
vn -0.382970 -0.461910 0.799983
vn -0.780913 -0.312379 0.540920
vn -0.382992 0.000001 0.923752
vn -0.780928 0.000001 0.624621
vn -0.382969 0.461910 0.799983
vn -0.780914 0.312379 0.540919
vn -0.382910 0.800050 0.461844
vn -0.780874 0.541055 0.312244
vn -0.382830 0.923819 -0.000067
vn -0.780818 0.624758 -0.000137
vn 0.084002 0.862970 -0.498223
vn 0.084066 0.498237 -0.862956
vn 0.084090 0.000000 -0.996458
vn 0.084067 -0.498236 -0.862956
vn 0.084003 -0.862971 -0.498222
vn 0.083916 -0.996473 0.000015
vn 0.083829 -0.862971 0.498251
vn 0.083765 -0.498236 0.862986
vn 0.083741 -0.000000 0.996488
vn 0.083765 0.498237 0.862985
vn 0.083828 0.862970 0.498252
vn 0.083916 0.996473 0.000015
vn 0.077363 0.863436 -0.498491
vn 0.077427 0.498505 -0.863422
vn 0.077451 0.000000 -0.996996
vn 0.077428 -0.498504 -0.863423
vn 0.077364 -0.863435 -0.498492
vn 0.077277 -0.997010 0.000014
vn 0.077190 -0.863435 0.498519
vn 0.077126 -0.498504 0.863449
vn 0.077102 -0.000000 0.997023
vn 0.077125 0.498505 0.863449
vn 0.077189 0.863436 0.498518
vn 0.077277 0.997010 0.000013
vn -0.077402 0.863422 -0.498510
vn -0.077338 0.498496 -0.863436
vn -0.077315 0.000000 -0.997007
vn -0.077339 -0.498497 -0.863434
vn -0.077403 -0.863421 -0.498510
vn -0.077490 -0.996993 -0.000014
vn -0.077577 -0.863421 0.498483
vn -0.077641 -0.498497 0.863407
vn -0.077664 0.000000 0.996980
vn -0.077640 0.498496 0.863408
vn -0.077576 0.863422 0.498483
vn -0.077489 0.996993 -0.000014
vn -0.130084 0.858657 -0.495769
vn -0.130021 0.495745 -0.858680
vn -0.129998 -0.000000 -0.991514
vn -0.130021 -0.495746 -0.858679
vn -0.130085 -0.858658 -0.495767
vn -0.130171 -0.991492 -0.000023
vn -0.130258 -0.858658 0.495722
vn -0.130321 -0.495746 0.858634
vn -0.130344 -0.000000 0.991469
vn -0.130321 0.495745 0.858635
vn -0.130258 0.858657 0.495723
vn -0.130171 0.991492 -0.000023
vn -0.036997 0.865430 -0.499663
vn -0.036933 0.499656 -0.865436
vn -0.036909 -0.000000 -0.999319
vn -0.036932 -0.499656 -0.865436
vn -0.036996 -0.865430 -0.499661
vn -0.037084 -0.999312 -0.000007
vn -0.037171 -0.865430 0.499648
vn -0.037235 -0.499656 0.865423
vn -0.037259 0.000000 0.999306
vn -0.037235 0.499656 0.865423
vn -0.037172 0.865430 0.499650
vn -0.037084 0.999312 -0.000006
vn 0.407305 0.790965 -0.456593
vn 0.407364 0.456665 -0.790893
vn 0.407385 -0.000000 -0.913257
vn 0.407363 -0.456664 -0.790894
vn 0.407305 -0.790965 -0.456592
vn 0.407225 -0.913328 0.000071
vn 0.407145 -0.790965 0.456735
vn 0.407086 -0.456665 0.791036
vn 0.407066 0.000000 0.913399
vn 0.407088 0.456665 0.791035
vn 0.407145 0.790965 0.456736
vn 0.407225 0.913328 0.000071
vn 0.780873 0.541056 -0.312243
vn 0.780914 0.312380 -0.540918
vn 0.780928 0.000000 -0.624621
vn 0.780915 -0.312377 -0.540919
vn 0.780876 -0.541054 -0.312240
vn 0.780821 -0.624754 0.000137
vn 0.780766 -0.541055 0.312513
vn 0.780725 -0.312378 0.541192
vn 0.780709 0.000000 0.624894
vn 0.780725 0.312380 0.541191
vn 0.780763 0.541057 0.312517
vn 0.780819 0.624757 0.000137
vn -1.000000 0.000002 -0.000175
vn 1.000000 0.000001 0.000175
s 1
g FoodTallLLowerArm
usemtl Eye_blinn1SG
f 1/1/1 13/13/2 14/14/3 2/2/4
f 2/2/4 14/14/3 15/15/5 3/3/6
f 3/3/6 15/15/5 16/16/7 4/4/8
f 4/4/8 16/16/7 17/17/9 5/5/10
f 5/5/10 17/17/9 18/18/11 6/6/12
f 6/6/12 18/18/11 19/19/13 7/7/14
f 7/7/14 19/19/13 20/20/15 8/8/16
f 8/8/16 20/20/15 21/21/17 9/9/18
f 9/9/18 21/21/17 22/22/19 10/10/20
f 10/10/20 22/22/19 23/23/21 11/11/22
f 11/11/22 23/23/21 24/24/23 12/12/24
f 12/12/24 24/24/23 13/13/2 1/1/1
f 13/13/2 25/25/25 26/26/26 14/14/3
f 14/14/3 26/26/26 27/27/27 15/15/5
f 15/15/5 27/27/27 28/28/28 16/16/7
f 16/16/7 28/28/28 29/29/29 17/17/9
f 17/17/9 29/29/29 30/30/30 18/18/11
f 18/18/11 30/30/30 31/31/31 19/19/13
f 19/19/13 31/31/31 32/32/32 20/20/15
f 20/20/15 32/32/32 33/33/33 21/21/17
f 21/21/17 33/33/33 34/34/34 22/22/19
f 22/22/19 34/34/34 35/35/35 23/23/21
f 23/23/21 35/35/35 36/36/36 24/24/23
f 24/24/23 36/36/36 25/25/25 13/13/2
f 25/37/25 37/50/37 38/51/38 26/38/26
f 26/38/26 38/51/38 39/52/39 27/39/27
f 27/39/27 39/52/39 40/53/40 28/40/28
f 28/40/28 40/53/40 41/54/41 29/41/29
f 29/41/29 41/54/41 42/55/42 30/42/30
f 30/42/30 42/55/42 43/56/43 31/43/31
f 31/43/31 43/56/43 44/57/44 32/44/32
f 32/44/32 44/57/44 45/58/45 33/45/33
f 33/45/33 45/58/45 46/59/46 34/46/34
f 34/46/34 46/59/46 47/60/47 35/47/35
f 35/47/35 47/60/47 48/61/48 36/48/36
f 36/48/36 48/61/48 37/62/37 25/49/25
f 37/50/37 49/63/49 50/64/50 38/51/38
f 38/51/38 50/64/50 51/65/51 39/52/39
f 39/52/39 51/65/51 52/66/52 40/53/40
f 40/53/40 52/66/52 53/67/53 41/54/41
f 41/54/41 53/67/53 54/68/54 42/55/42
f 42/55/42 54/68/54 55/69/55 43/56/43
f 43/56/43 55/69/55 56/70/56 44/57/44
f 44/57/44 56/70/56 57/71/57 45/58/45
f 45/58/45 57/71/57 58/72/58 46/59/46
f 46/59/46 58/72/58 59/73/59 47/60/47
f 47/60/47 59/73/59 60/74/60 48/61/48
f 48/61/48 60/74/60 49/75/49 37/62/37
f 49/63/49 61/76/61 62/77/62 50/64/50
f 50/64/50 62/77/62 63/78/63 51/65/51
f 51/65/51 63/78/63 64/79/64 52/66/52
f 52/66/52 64/79/64 65/80/65 53/67/53
f 53/67/53 65/80/65 66/81/66 54/68/54
f 54/68/54 66/81/66 67/82/67 55/69/55
f 55/69/55 67/82/67 68/83/68 56/70/56
f 56/70/56 68/83/68 69/84/69 57/71/57
f 57/71/57 69/84/69 70/85/70 58/72/58
f 58/72/58 70/85/70 71/86/71 59/73/59
f 59/73/59 71/86/71 72/87/72 60/74/60
f 60/74/60 72/87/72 61/88/61 49/75/49
f 61/76/61 73/89/73 74/90/74 62/77/62
f 62/77/62 74/90/74 75/91/75 63/78/63
f 63/78/63 75/91/75 76/92/76 64/79/64
f 64/79/64 76/92/76 77/93/77 65/80/65
f 65/80/65 77/93/77 78/94/78 66/81/66
f 66/81/66 78/94/78 79/95/79 67/82/67
f 67/82/67 79/95/79 80/96/80 68/83/68
f 68/83/68 80/96/80 81/97/81 69/84/69
f 69/84/69 81/97/81 82/98/82 70/85/70
f 70/85/70 82/98/82 83/99/83 71/86/71
f 71/86/71 83/99/83 84/100/84 72/87/72
f 72/87/72 84/100/84 73/101/73 61/88/61
f 73/112/73 85/124/85 86/123/86 74/111/74
f 74/111/74 86/123/86 87/122/87 75/110/75
f 75/110/75 87/122/87 88/121/88 76/109/76
f 76/109/76 88/121/88 89/120/89 77/108/77
f 77/108/77 89/120/89 90/119/90 78/107/78
f 78/107/78 90/119/90 91/118/91 79/106/79
f 79/106/79 91/118/91 92/117/92 80/105/80
f 80/105/80 92/117/92 93/116/93 81/104/81
f 81/104/81 93/116/93 94/115/94 82/103/82
f 82/103/82 94/115/94 95/114/95 83/102/83
f 83/102/83 95/114/95 96/125/96 84/113/84
f 84/113/84 96/125/96 85/124/85 73/112/73
f 85/124/85 97/136/97 98/135/98 86/123/86
f 86/123/86 98/135/98 99/134/99 87/122/87
f 87/122/87 99/134/99 100/133/100 88/121/88
f 88/121/88 100/133/100 101/132/101 89/120/89
f 89/120/89 101/132/101 102/131/102 90/119/90
f 90/119/90 102/131/102 103/130/103 91/118/91
f 91/118/91 103/130/103 104/129/104 92/117/92
f 92/117/92 104/129/104 105/128/105 93/116/93
f 93/116/93 105/128/105 106/127/106 94/115/94
f 94/115/94 106/127/106 107/126/107 95/114/95
f 95/114/95 107/126/107 108/137/108 96/125/96
f 96/125/96 108/137/108 97/136/97 85/124/85
f 2/2/4 109/138/109 1/1/1
f 3/3/6 109/138/109 2/2/4
f 4/4/8 109/138/109 3/3/6
f 5/5/10 109/138/109 4/4/8
f 6/6/12 109/138/109 5/5/10
f 7/7/14 109/138/109 6/6/12
f 8/8/16 109/138/109 7/7/14
f 9/9/18 109/138/109 8/8/16
f 10/10/20 109/138/109 9/9/18
f 11/11/22 109/138/109 10/10/20
f 12/12/24 109/138/109 11/11/22
f 1/1/1 109/138/109 12/12/24
f 97/136/97 110/139/110 98/135/98
f 98/135/98 110/139/110 99/134/99
f 99/134/99 110/139/110 100/133/100
f 100/133/100 110/139/110 101/132/101
f 101/132/101 110/139/110 102/131/102
f 102/131/102 110/139/110 103/130/103
f 103/130/103 110/139/110 104/129/104
f 104/129/104 110/139/110 105/128/105
f 105/128/105 110/139/110 106/127/106
f 106/127/106 110/139/110 107/126/107
f 107/126/107 110/139/110 108/137/108
f 108/137/108 110/139/110 97/136/97
