# This file uses centimeters as units for non-parametric coordinates.

mtllib ChocolateChipCookieShortRLowerArm.mtl
g default
v 0.684919 0.207127 -0.119222
v 0.684916 0.119912 -0.206437
v 0.684915 0.000774 -0.238360
v 0.684916 -0.118364 -0.206437
v 0.684919 -0.205579 -0.119222
v 0.684923 -0.237502 -0.000084
v 0.684927 -0.205579 0.119054
v 0.684930 -0.118364 0.206269
v 0.684931 0.000774 0.238192
v 0.684930 0.119912 0.206269
v 0.684927 0.207127 0.119054
v 0.684923 0.239050 -0.000084
v 0.510486 0.358188 -0.206431
v 0.510480 0.207127 -0.357492
v 0.510478 0.000774 -0.412784
v 0.510480 -0.205579 -0.357492
v 0.510486 -0.356640 -0.206431
v 0.510493 -0.411932 -0.000078
v 0.510500 -0.356640 0.206275
v 0.510505 -0.205579 0.357336
v 0.510507 0.000774 0.412629
v 0.510505 0.207127 0.357336
v 0.510500 0.358188 0.206275
v 0.510493 0.413480 -0.000078
v 0.272209 0.385649 -0.222277
v 0.272203 0.222981 -0.384944
v 0.272201 0.000774 -0.444484
v 0.272203 -0.221433 -0.384944
v 0.272209 -0.384101 -0.222277
v 0.272217 -0.443641 -0.000069
v 0.272224 -0.384101 0.222138
v 0.272230 -0.221433 0.384805
v 0.272232 0.000774 0.444345
v 0.272230 0.222981 0.384805
v 0.272224 0.385649 0.222138
v 0.272217 0.445189 -0.000069
v -0.025634 0.297093 -0.171139
v -0.025639 0.171854 -0.296378
v -0.025640 0.000774 -0.342219
v -0.025639 -0.170306 -0.296378
v -0.025634 -0.295545 -0.171139
v -0.025629 -0.341386 -0.000059
v -0.025623 -0.295545 0.171021
v -0.025618 -0.170306 0.296260
v -0.025617 0.000774 0.342101
v -0.025618 0.171854 0.296260
v -0.025623 0.297093 0.171021
v -0.025629 0.342934 -0.000059
v -0.323479 0.281912 -0.162364
v -0.323483 0.163089 -0.281187
v -0.323485 0.000774 -0.324679
v -0.323483 -0.161541 -0.281187
v -0.323479 -0.280364 -0.162364
v -0.323474 -0.323857 -0.000049
v -0.323468 -0.280364 0.162267
v -0.323464 -0.161541 0.281090
v -0.323462 0.000774 0.324582
v -0.323464 0.163089 0.281090
v -0.323468 0.281912 0.162267
v -0.323474 0.325405 -0.000049
v -0.621326 0.342636 -0.197412
v -0.621331 0.198148 -0.341900
v -0.621333 0.000774 -0.394786
v -0.621331 -0.196600 -0.341900
v -0.621326 -0.341088 -0.197412
v -0.621319 -0.393974 -0.000038
v -0.621312 -0.341088 0.197336
v -0.621307 -0.196600 0.341824
v -0.621305 0.000774 0.394710
v -0.621307 0.198148 0.341824
v -0.621312 0.342636 0.197336
v -0.621319 0.395522 -0.000038
v -0.963109 0.431027 -0.248433
v -0.963115 0.249181 -0.430279
v -0.963117 0.000774 -0.496840
v -0.963115 -0.247633 -0.430279
v -0.963109 -0.429479 -0.248433
v -0.963100 -0.496040 -0.000026
v -0.963091 -0.429479 0.248380
v -0.963085 -0.247633 0.430227
v -0.963083 0.000774 0.496787
v -0.963085 0.249181 0.430227
v -0.963091 0.431027 0.248380
v -0.963100 0.497587 -0.000026
v -1.222179 0.389380 -0.224379
v -1.222185 0.225136 -0.388624
v -1.222187 0.000774 -0.448741
v -1.222185 -0.223588 -0.388624
v -1.222179 -0.387832 -0.224379
v -1.222171 -0.447950 -0.000017
v -1.222163 -0.387832 0.224345
v -1.222157 -0.223588 0.388589
v -1.222155 0.000774 0.448707
v -1.222157 0.225136 0.388589
v -1.222163 0.389380 0.224345
v -1.222171 0.449498 -0.000017
v -1.411829 0.225136 -0.129546
v -1.411832 0.130309 -0.224373
v -1.411833 0.000774 -0.259082
v -1.411832 -0.128762 -0.224373
v -1.411829 -0.223588 -0.129546
v -1.411824 -0.258297 -0.000011
v -1.411820 -0.223588 0.129525
v -1.411816 -0.128762 0.224351
v -1.411815 0.000774 0.259060
v -1.411816 0.130309 0.224351
v -1.411820 0.225136 0.129525
v -1.411824 0.259845 -0.000011
v 0.748769 0.000774 -0.000086
v -1.481242 0.000774 -0.000008
vt 0.068010 0.634797
vt 0.064297 0.631084
vt 0.059226 0.629725
vt 0.054154 0.631084
vt 0.050441 0.634797
vt 0.049082 0.639869
vt 0.050441 0.644941
vt 0.054154 0.648654
vt 0.059226 0.650013
vt 0.064297 0.648654
vt 0.068010 0.644941
vt 0.069369 0.639869
vt 0.076795 0.629725
vt 0.069369 0.622299
vt 0.059226 0.619581
vt 0.049082 0.622299
vt 0.041656 0.629725
vt 0.038938 0.639869
vt 0.041656 0.650013
vt 0.049082 0.657438
vt 0.059226 0.660156
vt 0.069369 0.657438
vt 0.076795 0.650013
vt 0.079513 0.639869
vt 0.085580 0.624653
vt 0.074441 0.613515
vt 0.059226 0.609438
vt 0.044010 0.613515
vt 0.032871 0.624653
vt 0.028794 0.639869
vt 0.032871 0.655084
vt 0.044010 0.666223
vt 0.059226 0.670300
vt 0.074441 0.666223
vt 0.085580 0.655084
vt 0.089657 0.639869
vt 0.346909 0.790912
vt 0.355446 0.790912
vt 0.363983 0.790912
vt 0.372521 0.790912
vt 0.381058 0.790912
vt 0.389595 0.790912
vt 0.398133 0.790912
vt 0.406670 0.790912
vt 0.415207 0.790912
vt 0.423745 0.790912
vt 0.432282 0.790912
vt 0.440819 0.790912
vt 0.449357 0.790912
vt 0.346909 0.801484
vt 0.355446 0.801484
vt 0.363983 0.801484
vt 0.372521 0.801484
vt 0.381058 0.801484
vt 0.389595 0.801484
vt 0.398133 0.801484
vt 0.406670 0.801484
vt 0.415207 0.801484
vt 0.423745 0.801484
vt 0.432282 0.801484
vt 0.440819 0.801484
vt 0.449357 0.801484
vt 0.346909 0.812055
vt 0.355446 0.812055
vt 0.363983 0.812055
vt 0.372521 0.812055
vt 0.381058 0.812055
vt 0.389595 0.812055
vt 0.398133 0.812055
vt 0.406670 0.812055
vt 0.415207 0.812055
vt 0.423745 0.812055
vt 0.432282 0.812055
vt 0.440819 0.812055
vt 0.449357 0.812055
vt 0.346909 0.822626
vt 0.355446 0.822626
vt 0.363983 0.822626
vt 0.372521 0.822626
vt 0.381058 0.822626
vt 0.389595 0.822626
vt 0.398133 0.822626
vt 0.406670 0.822626
vt 0.415207 0.822626
vt 0.423745 0.822626
vt 0.432282 0.822626
vt 0.440819 0.822626
vt 0.449357 0.822626
vt 0.346909 0.833197
vt 0.355446 0.833197
vt 0.363983 0.833197
vt 0.372521 0.833197
vt 0.381058 0.833197
vt 0.389595 0.833197
vt 0.398133 0.833197
vt 0.406670 0.833197
vt 0.415207 0.833197
vt 0.423745 0.833197
vt 0.432282 0.833197
vt 0.440819 0.833197
vt 0.449357 0.833197
vt 0.085617 0.624493
vt 0.074478 0.613355
vt 0.059263 0.609278
vt 0.044047 0.613355
vt 0.032908 0.624493
vt 0.028831 0.639709
vt 0.032908 0.654925
vt 0.044047 0.666063
vt 0.059263 0.670140
vt 0.074478 0.666063
vt 0.085617 0.654925
vt 0.089694 0.639709
vt 0.076832 0.629565
vt 0.069406 0.622140
vt 0.059263 0.619422
vt 0.049119 0.622140
vt 0.041693 0.629565
vt 0.038975 0.639709
vt 0.041693 0.649853
vt 0.049119 0.657278
vt 0.059263 0.659997
vt 0.069406 0.657278
vt 0.076832 0.649853
vt 0.079550 0.639709
vt 0.068047 0.634637
vt 0.064334 0.630924
vt 0.059263 0.629565
vt 0.054191 0.630924
vt 0.050478 0.634637
vt 0.049119 0.639709
vt 0.050478 0.644781
vt 0.054191 0.648494
vt 0.059263 0.649853
vt 0.064334 0.648494
vt 0.068047 0.644781
vt 0.069406 0.639709
vt 0.059226 0.638652
vt 0.059263 0.638492
vn 0.780808 0.541056 -0.312406
vn 0.780800 0.312379 -0.541083
vn 0.382802 0.461910 -0.800064
vn 0.382814 0.800051 -0.461923
vn 0.780797 -0.000000 -0.624785
vn 0.382798 -0.000000 -0.923832
vn 0.780800 -0.312379 -0.541083
vn 0.382802 -0.461909 -0.800064
vn 0.780808 -0.541056 -0.312406
vn 0.382814 -0.800051 -0.461923
vn 0.780819 -0.624758 -0.000027
vn 0.382830 -0.923819 -0.000013
vn 0.780830 -0.541056 0.312352
vn 0.382846 -0.800051 0.461896
vn 0.780838 -0.312379 0.541029
vn 0.382858 -0.461909 0.800037
vn 0.780841 0.000000 0.624730
vn 0.382862 -0.000000 0.923806
vn 0.780838 0.312379 0.541029
vn 0.382858 0.461909 0.800037
vn 0.780830 0.541056 0.312352
vn 0.382846 0.800051 0.461896
vn 0.780819 0.624758 -0.000027
vn 0.382830 0.923819 -0.000013
vn -0.116743 0.496583 -0.860103
vn -0.116731 0.860107 -0.496579
vn -0.116748 0.000000 -0.993162
vn -0.116743 -0.496583 -0.860103
vn -0.116731 -0.860107 -0.496579
vn -0.116713 -0.993166 0.000004
vn -0.116696 -0.860107 0.496587
vn -0.116683 -0.496583 0.860111
vn -0.116679 -0.000000 0.993170
vn -0.116683 0.496583 0.860111
vn -0.116696 0.860107 0.496587
vn -0.116713 0.993166 0.000004
vn -0.212251 0.488611 -0.846291
vn -0.212238 0.846299 -0.488603
vn -0.212255 0.000000 -0.977214
vn -0.212251 -0.488611 -0.846291
vn -0.212238 -0.846299 -0.488603
vn -0.212221 -0.977222 0.000007
vn -0.212204 -0.846299 0.488618
vn -0.212191 -0.488611 0.846306
vn -0.212187 -0.000000 0.977229
vn -0.212191 0.488611 0.846306
vn -0.212204 0.846299 0.488618
vn -0.212221 0.977222 0.000007
vn 0.095411 0.497718 -0.862075
vn 0.095423 0.862072 -0.497721
vn 0.095406 -0.000000 -0.995438
vn 0.095411 -0.497718 -0.862075
vn 0.095423 -0.862072 -0.497721
vn 0.095441 -0.995435 -0.000003
vn 0.095458 -0.862072 0.497714
vn 0.095471 -0.497718 0.862069
vn 0.095476 -0.000000 0.995432
vn 0.095471 0.497718 0.862069
vn 0.095458 0.862072 0.497714
vn 0.095441 0.995435 -0.000003
vn 0.264066 0.482248 -0.835288
vn 0.264079 0.835279 -0.482257
vn 0.264062 -0.000000 -0.964506
vn 0.264066 -0.482248 -0.835288
vn 0.264079 -0.835278 -0.482257
vn 0.264096 -0.964496 -0.000009
vn 0.264112 -0.835278 0.482239
vn 0.264125 -0.482248 0.835269
vn 0.264129 -0.000000 0.964487
vn 0.264125 0.482248 0.835269
vn 0.264112 0.835279 0.482239
vn 0.264096 0.964496 -0.000009
vn 0.080402 0.498380 -0.863222
vn 0.080415 0.863219 -0.498383
vn 0.080398 -0.000000 -0.996763
vn 0.080402 -0.498380 -0.863222
vn 0.080415 -0.863219 -0.498383
vn 0.080432 -0.996760 -0.000003
vn 0.080450 -0.863219 0.498377
vn 0.080462 -0.498380 0.863217
vn 0.080467 -0.000000 0.996757
vn 0.080462 0.498380 0.863217
vn 0.080450 0.863219 0.498377
vn 0.080432 0.996760 -0.000003
vn -0.407253 0.456664 -0.790951
vn -0.407242 0.790965 -0.456650
vn -0.407257 0.000000 -0.913313
vn -0.407253 -0.456664 -0.790951
vn -0.407241 -0.790965 -0.456650
vn -0.407226 -0.913328 0.000014
vn -0.407210 -0.790965 0.456678
vn -0.407198 -0.456664 0.790979
vn -0.407194 0.000000 0.913342
vn -0.407198 0.456664 0.790979
vn -0.407210 0.790965 0.456678
vn -0.407226 0.913328 0.000014
vn -0.780838 0.312379 -0.541029
vn -0.780830 0.541056 -0.312351
vn -0.780841 0.000000 -0.624730
vn -0.780838 -0.312379 -0.541029
vn -0.780830 -0.541056 -0.312352
vn -0.780819 -0.624758 0.000027
vn -0.780808 -0.541056 0.312406
vn -0.780800 -0.312379 0.541083
vn -0.780797 0.000000 0.624785
vn -0.780800 0.312379 0.541083
vn -0.780808 0.541056 0.312406
vn -0.780819 0.624758 0.000027
vn 1.000000 -0.000000 -0.000035
vn -1.000000 -0.000000 0.000035
s 1
g FoodShortRLowerArm
usemtl Eye_blinn1SG
f 1/1/1 2/2/2 14/14/3 13/13/4
f 2/2/2 3/3/5 15/15/6 14/14/3
f 3/3/5 4/4/7 16/16/8 15/15/6
f 4/4/7 5/5/9 17/17/10 16/16/8
f 5/5/9 6/6/11 18/18/12 17/17/10
f 6/6/11 7/7/13 19/19/14 18/18/12
f 7/7/13 8/8/15 20/20/16 19/19/14
f 8/8/15 9/9/17 21/21/18 20/20/16
f 9/9/17 10/10/19 22/22/20 21/21/18
f 10/10/19 11/11/21 23/23/22 22/22/20
f 11/11/21 12/12/23 24/24/24 23/23/22
f 12/12/23 1/1/1 13/13/4 24/24/24
f 13/13/4 14/14/3 26/26/25 25/25/26
f 14/14/3 15/15/6 27/27/27 26/26/25
f 15/15/6 16/16/8 28/28/28 27/27/27
f 16/16/8 17/17/10 29/29/29 28/28/28
f 17/17/10 18/18/12 30/30/30 29/29/29
f 18/18/12 19/19/14 31/31/31 30/30/30
f 19/19/14 20/20/16 32/32/32 31/31/31
f 20/20/16 21/21/18 33/33/33 32/32/32
f 21/21/18 22/22/20 34/34/34 33/33/33
f 22/22/20 23/23/22 35/35/35 34/34/34
f 23/23/22 24/24/24 36/36/36 35/35/35
f 24/24/24 13/13/4 25/25/26 36/36/36
f 25/37/26 26/38/25 38/51/37 37/50/38
f 26/38/25 27/39/27 39/52/39 38/51/37
f 27/39/27 28/40/28 40/53/40 39/52/39
f 28/40/28 29/41/29 41/54/41 40/53/40
f 29/41/29 30/42/30 42/55/42 41/54/41
f 30/42/30 31/43/31 43/56/43 42/55/42
f 31/43/31 32/44/32 44/57/44 43/56/43
f 32/44/32 33/45/33 45/58/45 44/57/44
f 33/45/33 34/46/34 46/59/46 45/58/45
f 34/46/34 35/47/35 47/60/47 46/59/46
f 35/47/35 36/48/36 48/61/48 47/60/47
f 36/48/36 25/49/26 37/62/38 48/61/48
f 37/50/38 38/51/37 50/64/49 49/63/50
f 38/51/37 39/52/39 51/65/51 50/64/49
f 39/52/39 40/53/40 52/66/52 51/65/51
f 40/53/40 41/54/41 53/67/53 52/66/52
f 41/54/41 42/55/42 54/68/54 53/67/53
f 42/55/42 43/56/43 55/69/55 54/68/54
f 43/56/43 44/57/44 56/70/56 55/69/55
f 44/57/44 45/58/45 57/71/57 56/70/56
f 45/58/45 46/59/46 58/72/58 57/71/57
f 46/59/46 47/60/47 59/73/59 58/72/58
f 47/60/47 48/61/48 60/74/60 59/73/59
f 48/61/48 37/62/38 49/75/50 60/74/60
f 49/63/50 50/64/49 62/77/61 61/76/62
f 50/64/49 51/65/51 63/78/63 62/77/61
f 51/65/51 52/66/52 64/79/64 63/78/63
f 52/66/52 53/67/53 65/80/65 64/79/64
f 53/67/53 54/68/54 66/81/66 65/80/65
f 54/68/54 55/69/55 67/82/67 66/81/66
f 55/69/55 56/70/56 68/83/68 67/82/67
f 56/70/56 57/71/57 69/84/69 68/83/68
f 57/71/57 58/72/58 70/85/70 69/84/69
f 58/72/58 59/73/59 71/86/71 70/85/70
f 59/73/59 60/74/60 72/87/72 71/86/71
f 60/74/60 49/75/50 61/88/62 72/87/72
f 61/76/62 62/77/61 74/90/73 73/89/74
f 62/77/61 63/78/63 75/91/75 74/90/73
f 63/78/63 64/79/64 76/92/76 75/91/75
f 64/79/64 65/80/65 77/93/77 76/92/76
f 65/80/65 66/81/66 78/94/78 77/93/77
f 66/81/66 67/82/67 79/95/79 78/94/78
f 67/82/67 68/83/68 80/96/80 79/95/79
f 68/83/68 69/84/69 81/97/81 80/96/80
f 69/84/69 70/85/70 82/98/82 81/97/81
f 70/85/70 71/86/71 83/99/83 82/98/82
f 71/86/71 72/87/72 84/100/84 83/99/83
f 72/87/72 61/88/62 73/101/74 84/100/84
f 73/112/74 74/111/73 86/123/85 85/124/86
f 74/111/73 75/110/75 87/122/87 86/123/85
f 75/110/75 76/109/76 88/121/88 87/122/87
f 76/109/76 77/108/77 89/120/89 88/121/88
f 77/108/77 78/107/78 90/119/90 89/120/89
f 78/107/78 79/106/79 91/118/91 90/119/90
f 79/106/79 80/105/80 92/117/92 91/118/91
f 80/105/80 81/104/81 93/116/93 92/117/92
f 81/104/81 82/103/82 94/115/94 93/116/93
f 82/103/82 83/102/83 95/114/95 94/115/94
f 83/102/83 84/113/84 96/125/96 95/114/95
f 84/113/84 73/112/74 85/124/86 96/125/96
f 85/124/86 86/123/85 98/135/97 97/136/98
f 86/123/85 87/122/87 99/134/99 98/135/97
f 87/122/87 88/121/88 100/133/100 99/134/99
f 88/121/88 89/120/89 101/132/101 100/133/100
f 89/120/89 90/119/90 102/131/102 101/132/101
f 90/119/90 91/118/91 103/130/103 102/131/102
f 91/118/91 92/117/92 104/129/104 103/130/103
f 92/117/92 93/116/93 105/128/105 104/129/104
f 93/116/93 94/115/94 106/127/106 105/128/105
f 94/115/94 95/114/95 107/126/107 106/127/106
f 95/114/95 96/125/96 108/137/108 107/126/107
f 96/125/96 85/124/86 97/136/98 108/137/108
f 2/2/2 1/1/1 109/138/109
f 3/3/5 2/2/2 109/138/109
f 4/4/7 3/3/5 109/138/109
f 5/5/9 4/4/7 109/138/109
f 6/6/11 5/5/9 109/138/109
f 7/7/13 6/6/11 109/138/109
f 8/8/15 7/7/13 109/138/109
f 9/9/17 8/8/15 109/138/109
f 10/10/19 9/9/17 109/138/109
f 11/11/21 10/10/19 109/138/109
f 12/12/23 11/11/21 109/138/109
f 1/1/1 12/12/23 109/138/109
f 97/136/98 98/135/97 110/139/110
f 98/135/97 99/134/99 110/139/110
f 99/134/99 100/133/100 110/139/110
f 100/133/100 101/132/101 110/139/110
f 101/132/101 102/131/102 110/139/110
f 102/131/102 103/130/103 110/139/110
f 103/130/103 104/129/104 110/139/110
f 104/129/104 105/128/105 110/139/110
f 105/128/105 106/127/106 110/139/110
f 106/127/106 107/126/107 110/139/110
f 107/126/107 108/137/108 110/139/110
f 108/137/108 97/136/98 110/139/110
