# This file uses centimeters as units for non-parametric coordinates.

mtllib ChocolateChipCookieLUpperCanine.mtl
g default
v -0.176539 -0.042989 -0.076227
v -0.382725 0.619859 -0.115097
v -0.564852 0.522335 -0.138154
v -0.702062 0.353753 -0.146569
v -0.797338 0.172431 -0.131774
v -0.812642 -0.037689 -0.109165
v 0.492281 0.009396 0.153013
v 0.461554 0.213712 0.113000
v 0.354091 0.391720 0.066127
v 0.216293 0.547188 0.016303
v 0.034039 0.631625 -0.032479
v -0.174522 0.637198 -0.075443
v -0.364772 0.608412 -0.206296
v -0.372961 0.624676 -0.189317
v -0.547322 0.510651 -0.229404
v -0.559563 0.524612 -0.212920
v -0.685663 0.342307 -0.233604
v -0.700633 0.352829 -0.217357
v -0.779630 0.159512 -0.226788
v -0.797344 0.166592 -0.210306
v -0.795656 -0.050570 -0.200357
v -0.813251 -0.048175 -0.183322
v 0.520487 -0.003877 0.059204
v 0.529894 -0.000687 0.081709
v 0.481303 0.201372 0.022291
v 0.490505 0.208979 0.044009
v 0.373608 0.379742 -0.024680
v 0.380618 0.390921 -0.003910
v 0.235532 0.535540 -0.074607
v 0.239787 0.549873 -0.054839
v 0.052856 0.620203 -0.123507
v 0.053075 0.636706 -0.104861
v -0.156138 0.625771 -0.166557
v -0.160139 0.642295 -0.148768
v -0.197549 0.006149 0.133955
v -0.268588 0.206037 0.081799
v -0.326968 0.180608 0.071986
v -0.378960 0.129763 0.073298
v -0.423596 0.063355 0.082318
v -0.444065 -0.000208 0.090292
v -0.200595 0.208716 0.098388
v -0.037655 0.126833 0.144592
v -0.081194 0.169514 0.129759
v -0.136037 0.196143 0.114915
v -0.009681 0.072281 0.157954
v -0.000009 0.011192 0.168538
v -0.329736 0.419552 0.029134
v -0.371355 0.555829 -0.036895
v -0.196568 0.442313 0.064432
v -0.187564 0.573776 -0.000309
v -0.450936 0.353536 0.011621
v -0.532476 0.469743 -0.057319
v -0.545672 0.250251 0.005940
v -0.653855 0.321241 -0.070426
v -0.609266 0.127421 0.012505
v -0.739761 0.161173 -0.047032
v -0.626669 -0.010557 0.027507
v -0.754106 -0.025054 -0.032253
v -0.058701 0.427273 0.082831
v -0.002821 0.566230 0.036163
v 0.158685 0.271700 0.146446
v 0.281575 0.355110 0.123484
v 0.223168 0.151688 0.176437
v 0.375441 0.196789 0.164827
v 0.063679 0.368539 0.113556
v 0.158561 0.491670 0.079320
v 0.244391 0.015884 0.200402
v 0.390647 0.016660 0.204647
vt 0.641481 0.780189
vt 0.568795 0.742759
vt 0.580235 0.727924
vt 0.646958 0.762525
vt 0.513676 0.678406
vt 0.528302 0.668273
vt 0.476668 0.607245
vt 0.495370 0.601442
vt 0.469013 0.524634
vt 0.488001 0.524626
vt 0.723993 0.788342
vt 0.724158 0.769367
vt 0.480435 0.174576
vt 0.473777 0.176376
vt 0.443237 0.111371
vt 0.448863 0.107402
vt 0.482706 0.249983
vt 0.475924 0.249808
vt 0.387322 0.061197
vt 0.391386 0.055793
vt 0.325470 0.026558
vt 0.327795 0.019948
vt 0.252667 0.018914
vt 0.252874 0.012133
vt 0.243821 0.481598
vt 0.243660 0.488339
vt 0.315997 0.469742
vt 0.318071 0.476281
vt 0.380154 0.433610
vt 0.384000 0.439200
vt 0.436972 0.386513
vt 0.442354 0.390747
vt 0.469919 0.323147
vt 0.476492 0.325298
vt 0.921526 0.674306
vt 0.936755 0.685603
vt 0.879874 0.746445
vt 0.868995 0.731515
vt 0.806784 0.781855
vt 0.801577 0.763832
vt 0.973332 0.532262
vt 0.993780 0.532512
vt 0.978562 0.613831
vt 0.960907 0.607566
vt 0.243514 0.236463
vt 0.699312 0.602862
vt 0.678056 0.594243
vt 0.726391 0.530029
vt 0.659656 0.576095
vt 0.644292 0.552046
vt 0.637271 0.529198
vt 0.797781 0.530673
vt 0.794095 0.552708
vt 0.783785 0.572511
vt 0.767848 0.588150
vt 0.747848 0.598102
vt 0.724239 0.603165
vt 0.675829 0.680573
vt 0.657442 0.732317
vt 0.599148 0.702311
vt 0.631757 0.657762
vt 0.724917 0.687112
vt 0.724450 0.738200
vt 0.774206 0.681446
vt 0.791648 0.733455
vt 0.553572 0.650901
vt 0.597376 0.621514
vt 0.525558 0.591902
vt 0.575021 0.577509
vt 0.518787 0.525467
vt 0.568676 0.528079
vt 0.818729 0.659558
vt 0.850603 0.705351
vt 0.853601 0.624153
vt 0.896238 0.655584
vt 0.877276 0.580507
vt 0.930529 0.597530
vt 0.885348 0.531453
vt 0.936946 0.531924
vn -0.256260 0.952883 -0.162309
vn -0.611734 0.763395 -0.207386
vn -0.621022 0.710701 0.330507
vn -0.319144 0.878031 0.356663
vn -0.611734 0.763395 -0.207386
vn -0.813582 0.537927 -0.220723
vn -0.787929 0.530629 0.312412
vn -0.621022 0.710701 0.330507
vn -0.813582 0.537927 -0.220723
vn -0.947283 0.248645 -0.202068
vn -0.904087 0.286348 0.317223
vn -0.787929 0.530629 0.312412
vn -0.947283 0.248645 -0.202068
vn -0.983676 -0.010699 -0.179629
vn -0.939677 0.054021 0.337770
vn -0.904087 0.286348 0.317223
vn -0.003581 0.992363 -0.123304
vn -0.256260 0.952883 -0.162309
vn -0.319144 0.878031 0.356663
vn -0.103967 0.913046 0.394384
vn -0.256260 0.952883 -0.162309
vn 0.178586 -0.070362 -0.981405
vn 0.152960 -0.083614 -0.984689
vn -0.611734 0.763395 -0.207386
vn 0.178586 -0.070362 -0.981405
vn -0.256260 0.952883 -0.162309
vn -0.003581 0.992363 -0.123304
vn 0.195955 -0.076053 -0.977659
vn -0.611734 0.763395 -0.207386
vn 0.152960 -0.083614 -0.984689
vn 0.142179 -0.101450 -0.984628
vn -0.813582 0.537927 -0.220723
vn -0.813582 0.537927 -0.220723
vn 0.142179 -0.101450 -0.984628
vn 0.126267 -0.118945 -0.984839
vn -0.947283 0.248645 -0.202068
vn -0.947283 0.248645 -0.202068
vn 0.126267 -0.118945 -0.984839
vn 0.131128 -0.137643 -0.981764
vn -0.983676 -0.010699 -0.179629
vn 0.967145 0.041844 0.250757
vn 0.261020 -0.134540 -0.955912
vn 0.256493 -0.111624 -0.960079
vn 0.910315 0.375650 0.173822
vn 0.910315 0.375650 0.173822
vn 0.256493 -0.111624 -0.960079
vn 0.244883 -0.099551 -0.964428
vn 0.789108 0.607229 0.092634
vn 0.789108 0.607229 0.092634
vn 0.244883 -0.099551 -0.964428
vn 0.236409 -0.082713 -0.968127
vn 0.593198 0.804498 0.029986
vn 0.593198 0.804498 0.029986
vn 0.236409 -0.082713 -0.968127
vn 0.212315 -0.070647 -0.974644
vn 0.240530 0.968507 -0.064343
vn 0.240530 0.968507 -0.064343
vn 0.212315 -0.070647 -0.974644
vn 0.195955 -0.076053 -0.977659
vn -0.003581 0.992363 -0.123304
vn 0.565517 0.584594 0.581756
vn 0.789108 0.607229 0.092634
vn 0.593198 0.804498 0.029986
vn 0.400149 0.751839 0.524042
vn 0.400149 0.751839 0.524042
vn 0.593198 0.804498 0.029986
vn 0.240530 0.968507 -0.064343
vn 0.105480 0.891311 0.440952
vn 0.105480 0.891311 0.440952
vn 0.240530 0.968507 -0.064343
vn -0.003581 0.992363 -0.123304
vn -0.103967 0.913046 0.394384
vn 0.699422 0.105313 0.706908
vn 0.967145 0.041844 0.250757
vn 0.910315 0.375650 0.173822
vn 0.666780 0.383350 0.639099
vn 0.666780 0.383350 0.639099
vn 0.910315 0.375650 0.173822
vn 0.789108 0.607229 0.092634
vn 0.565517 0.584594 0.581756
vn 0.196340 -0.137129 -0.970900
vn 0.142179 -0.101450 -0.984628
vn 0.152960 -0.083614 -0.984689
vn 0.196340 -0.137129 -0.970900
vn 0.126267 -0.118945 -0.984839
vn 0.142179 -0.101450 -0.984628
vn 0.196340 -0.137129 -0.970900
vn 0.131128 -0.137643 -0.981764
vn 0.126267 -0.118945 -0.984839
vn 0.196340 -0.137129 -0.970900
vn 0.256493 -0.111624 -0.960079
vn 0.261020 -0.134540 -0.955912
vn 0.196340 -0.137129 -0.970900
vn 0.244883 -0.099551 -0.964428
vn 0.256493 -0.111624 -0.960079
vn 0.196340 -0.137129 -0.970900
vn 0.236409 -0.082713 -0.968127
vn 0.244883 -0.099551 -0.964428
vn 0.196340 -0.137129 -0.970900
vn 0.212315 -0.070647 -0.974644
vn 0.236409 -0.082713 -0.968127
vn 0.196340 -0.137129 -0.970900
vn 0.195955 -0.076053 -0.977659
vn 0.212315 -0.070647 -0.974644
vn 0.196340 -0.137129 -0.970900
vn 0.178586 -0.070362 -0.981405
vn 0.195955 -0.076053 -0.977659
vn 0.196340 -0.137129 -0.970900
vn 0.152960 -0.083614 -0.984689
vn 0.178586 -0.070362 -0.981405
vn -0.247194 0.160431 0.955593
vn -0.224513 0.181596 0.957401
vn -0.187636 0.145390 0.971419
vn -0.224513 0.181596 0.957401
vn -0.221783 0.209990 0.952217
vn -0.187636 0.145390 0.971419
vn -0.221783 0.209990 0.952217
vn -0.251667 0.198975 0.947139
vn -0.187636 0.145390 0.971419
vn -0.251667 0.198975 0.947139
vn -0.285593 0.136235 0.948618
vn -0.187636 0.145390 0.971419
vn -0.137653 0.138593 0.980736
vn -0.140069 0.158275 0.977410
vn -0.187636 0.145390 0.971419
vn -0.140069 0.158275 0.977410
vn -0.147624 0.173760 0.973660
vn -0.187636 0.145390 0.971419
vn -0.147624 0.173760 0.973660
vn -0.157615 0.182658 0.970460
vn -0.187636 0.145390 0.971419
vn -0.157615 0.182658 0.970460
vn -0.160924 0.174589 0.971402
vn -0.187636 0.145390 0.971419
vn -0.160924 0.174589 0.971402
vn -0.207029 0.159573 0.965233
vn -0.187636 0.145390 0.971419
vn -0.207029 0.159573 0.965233
vn -0.247194 0.160431 0.955593
vn -0.187636 0.145390 0.971419
vn -0.265503 0.279446 0.922723
vn -0.301297 0.554802 0.775509
vn -0.455882 0.451075 0.767270
vn -0.300237 0.252806 0.919754
vn -0.301297 0.554802 0.775509
vn -0.265503 0.279446 0.922723
vn -0.197600 0.291487 0.935943
vn -0.173869 0.582430 0.794068
vn -0.173869 0.582430 0.794068
vn -0.197600 0.291487 0.935943
vn -0.126897 0.286978 0.949495
vn -0.050758 0.561711 0.825775
vn -0.300237 0.252806 0.919754
vn -0.455882 0.451075 0.767270
vn -0.537755 0.378497 0.753365
vn -0.322829 0.249856 0.912882
vn -0.322829 0.249856 0.912882
vn -0.537755 0.378497 0.753365
vn -0.595017 0.247726 0.764583
vn -0.344812 0.203887 0.916261
vn -0.344812 0.203887 0.916261
vn -0.595017 0.247726 0.764583
vn -0.620655 0.103345 0.777244
vn -0.374289 0.123698 0.919025
vn -0.050758 0.561711 0.825775
vn -0.126897 0.286978 0.949495
vn -0.098314 0.260035 0.960581
vn 0.088517 0.477977 0.873901
vn -0.069733 0.230187 0.970645
vn 0.171181 0.388444 0.905433
vn 0.088517 0.477977 0.873901
vn -0.098314 0.260035 0.960581
vn 0.171181 0.388444 0.905433
vn -0.069733 0.230187 0.970645
vn -0.059666 0.196821 0.978622
vn 0.230912 0.291940 0.928144
vn 0.230912 0.291940 0.928144
vn -0.059666 0.196821 0.978622
vn -0.062576 0.140031 0.988168
vn 0.225607 0.138783 0.964282
vn -0.265503 0.279446 0.922723
vn -0.247194 0.160431 0.955593
vn -0.207029 0.159573 0.965233
vn -0.197600 0.291487 0.935943
vn -0.247194 0.160431 0.955593
vn -0.265503 0.279446 0.922723
vn -0.300237 0.252806 0.919754
vn -0.224513 0.181596 0.957401
vn -0.224513 0.181596 0.957401
vn -0.300237 0.252806 0.919754
vn -0.322829 0.249856 0.912882
vn -0.221783 0.209990 0.952217
vn -0.221783 0.209990 0.952217
vn -0.322829 0.249856 0.912882
vn -0.344812 0.203887 0.916261
vn -0.251667 0.198975 0.947139
vn -0.251667 0.198975 0.947139
vn -0.344812 0.203887 0.916261
vn -0.374289 0.123698 0.919025
vn -0.285593 0.136235 0.948618
vn -0.197600 0.291487 0.935943
vn -0.207029 0.159573 0.965233
vn -0.160924 0.174589 0.971402
vn -0.126897 0.286978 0.949495
vn -0.069733 0.230187 0.970645
vn -0.147624 0.173760 0.973660
vn -0.140069 0.158275 0.977410
vn -0.059666 0.196821 0.978622
vn -0.147624 0.173760 0.973660
vn -0.069733 0.230187 0.970645
vn -0.098314 0.260035 0.960581
vn -0.157615 0.182658 0.970460
vn -0.157615 0.182658 0.970460
vn -0.098314 0.260035 0.960581
vn -0.126897 0.286978 0.949495
vn -0.160924 0.174589 0.971402
vn -0.059666 0.196821 0.978622
vn -0.140069 0.158275 0.977410
vn -0.137653 0.138593 0.980736
vn -0.062576 0.140031 0.988168
vn -0.455882 0.451075 0.767270
vn -0.301297 0.554802 0.775509
vn -0.319144 0.878031 0.356663
vn -0.621022 0.710701 0.330507
vn -0.537755 0.378497 0.753365
vn -0.455882 0.451075 0.767270
vn -0.621022 0.710701 0.330507
vn -0.787929 0.530629 0.312412
vn -0.595017 0.247726 0.764583
vn -0.537755 0.378497 0.753365
vn -0.787929 0.530629 0.312412
vn -0.904087 0.286348 0.317223
vn -0.620655 0.103345 0.777244
vn -0.595017 0.247726 0.764583
vn -0.904087 0.286348 0.317223
vn -0.939677 0.054021 0.337770
vn -0.173869 0.582430 0.794068
vn -0.103967 0.913046 0.394384
vn -0.319144 0.878031 0.356663
vn -0.301297 0.554802 0.775509
vn 0.400149 0.751839 0.524042
vn 0.088517 0.477977 0.873901
vn 0.171181 0.388444 0.905433
vn 0.565517 0.584594 0.581756
vn 0.105480 0.891311 0.440952
vn -0.050758 0.561711 0.825775
vn 0.088517 0.477977 0.873901
vn 0.400149 0.751839 0.524042
vn 0.105480 0.891311 0.440952
vn -0.103967 0.913046 0.394384
vn -0.173869 0.582430 0.794068
vn -0.050758 0.561711 0.825775
vn 0.565517 0.584594 0.581756
vn 0.171181 0.388444 0.905433
vn 0.230912 0.291940 0.928144
vn 0.666780 0.383350 0.639099
vn 0.699422 0.105313 0.706908
vn 0.666780 0.383350 0.639099
vn 0.230912 0.291940 0.928144
vn 0.225607 0.138783 0.964282
s off
g FoodLUpperCaninesOverbite
usemtl Eye_blinn1SG
f 14/1/1 16/2/2 3/3/3 2/4/4
f 16/2/5 18/5/6 4/6/7 3/3/8
f 18/5/9 20/7/10 5/8/11 4/6/12
f 20/7/13 22/9/14 6/10/15 5/8/16
f 34/11/17 14/1/18 2/4/19 12/12/20
f 14/13/21 13/14/22 15/15/23 16/16/24
f 13/14/25 14/13/26 34/17/27 33/18/28
f 16/16/29 15/15/30 17/19/31 18/20/32
f 18/20/33 17/19/34 19/21/35 20/22/36
f 20/22/37 19/21/38 21/23/39 22/24/40
f 24/26/41 23/25/42 25/27/43 26/28/44
f 26/28/45 25/27/46 27/29/47 28/30/48
f 28/30/49 27/29/50 29/31/51 30/32/52
f 30/32/53 29/31/54 31/33/55 32/34/56
f 32/34/57 31/33/58 33/18/59 34/17/60
f 9/35/61 28/36/62 30/37/63 10/38/64
f 10/38/65 30/37/66 32/39/67 11/40/68
f 11/40/69 32/39/70 34/11/71 12/12/72
f 7/41/73 24/42/74 26/43/75 8/44/76
f 8/44/77 26/43/78 28/36/79 9/35/80
f 1/45/81 17/19/82 15/15/83
f 1/45/84 19/21/85 17/19/86
f 1/45/87 21/23/88 19/21/89
f 1/45/90 25/27/91 23/25/92
f 1/45/93 27/29/94 25/27/95
f 1/45/96 29/31/97 27/29/98
f 1/45/99 31/33/100 29/31/101
f 1/45/102 33/18/103 31/33/104
f 1/45/105 13/14/106 33/18/107
f 1/45/108 15/15/109 13/14/110
f 36/46/111 37/47/112 35/48/113
f 37/47/114 38/49/115 35/48/116
f 38/49/117 39/50/118 35/48/119
f 39/50/120 40/51/121 35/48/122
f 46/52/123 45/53/124 35/48/125
f 45/53/126 42/54/127 35/48/128
f 42/54/129 43/55/130 35/48/131
f 43/55/132 44/56/133 35/48/134
f 44/56/135 41/57/136 35/48/137
f 41/57/138 36/46/139 35/48/140
f 47/58/141 48/59/142 52/60/143 51/61/144
f 48/59/145 47/58/146 49/62/147 50/63/148
f 50/63/149 49/62/150 59/64/151 60/65/152
f 51/61/153 52/60/154 54/66/155 53/67/156
f 53/67/157 54/66/158 56/68/159 55/69/160
f 55/69/161 56/68/162 58/70/163 57/71/164
f 60/65/165 59/64/166 65/72/167 66/73/168
f 61/74/169 62/75/170 66/73/171 65/72/172
f 62/75/173 61/74/174 63/76/175 64/77/176
f 64/77/177 63/76/178 67/78/179 68/79/180
f 47/58/181 36/46/182 41/57/183 49/62/184
f 36/46/185 47/58/186 51/61/187 37/47/188
f 37/47/189 51/61/190 53/67/191 38/49/192
f 38/49/193 53/67/194 55/69/195 39/50/196
f 39/50/197 55/69/198 57/71/199 40/51/200
f 49/62/201 41/57/202 44/56/203 59/64/204
f 61/74/205 42/54/206 45/53/207 63/76/208
f 42/54/209 61/74/210 65/72/211 43/55/212
f 43/55/213 65/72/214 59/64/215 44/56/216
f 63/76/217 45/53/218 46/52/219 67/78/220
f 52/60/221 48/59/222 2/4/223 3/3/224
f 54/66/225 52/60/226 3/3/227 4/6/228
f 56/68/229 54/66/230 4/6/231 5/8/232
f 58/70/233 56/68/234 5/8/235 6/10/236
f 50/63/237 12/12/238 2/4/239 48/59/240
f 10/38/241 66/73/242 62/75/243 9/35/244
f 11/40/245 60/65/246 66/73/247 10/38/248
f 11/40/249 12/12/250 50/63/251 60/65/252
f 9/35/253 62/75/254 64/77/255 8/44/256
f 7/41/257 8/44/258 64/77/259 68/79/260
