# This file uses centimeters as units for non-parametric coordinates.

mtllib DriedFruitSnakpodRLowerCanine.mtl
g default
v 0.191999 -0.037189 -0.070975
v -0.154694 -0.065616 -0.019278
v 0.133798 0.869202 -0.022055
v -0.068704 0.872170 0.007705
v 0.201605 0.563955 0.151590
v -0.082106 0.569900 0.225131
v -0.292919 0.569289 0.031857
v -0.132046 0.572812 -0.198300
v 0.134019 0.567725 -0.210220
v 0.392724 0.563412 -0.076047
v 0.234986 0.320047 0.207876
v -0.100837 0.324972 0.261853
v -0.377311 0.321490 0.036847
v -0.156242 0.335829 -0.233005
v 0.140399 0.327510 -0.273027
v 0.489005 0.317440 -0.110777
v 0.123287 0.853987 -0.132256
v 0.120556 0.820372 -0.193437
v -0.064257 0.845288 -0.091646
v -0.073369 0.745935 -0.148716
v -0.235242 0.740622 -0.053874
v -0.181411 0.808104 -0.056673
v -0.195252 0.730774 -0.101675
v -0.199362 0.848203 0.029121
v -0.248111 0.779357 0.033630
v 0.150553 0.002949 -0.251486
v 0.143333 0.051915 -0.296898
v 0.392262 0.060113 -0.247094
v 0.351810 0.013339 -0.233761
v 0.343592 0.061218 -0.274720
v 0.448675 -0.030883 -0.108808
v 0.496438 0.027863 -0.118404
v -0.138526 0.012566 -0.157421
v -0.139594 0.114870 -0.215592
v 0.212214 -0.008202 0.123145
v 0.214122 0.086254 0.181926
v -0.123803 -0.011415 0.198216
v -0.115385 0.056964 0.229071
v -0.393051 0.065793 0.203239
v -0.338824 0.018955 0.192239
v -0.327764 0.067125 0.228828
v -0.381500 -0.009371 0.027747
v -0.429792 0.041051 0.037574
v 0.468922 0.057776 0.124801
v 0.475719 -0.002284 0.090964
v 0.508397 0.055875 0.074120
v -0.399537 0.062352 -0.169601
v -0.398168 0.006688 -0.131661
v -0.451311 0.058856 -0.121605
v 0.130281 0.828817 0.083699
v 0.148664 0.737683 0.139978
v 0.368766 0.803522 0.068034
v 0.298816 0.833059 0.071129
v 0.319483 0.774885 0.123848
v 0.288327 0.850417 -0.046585
v 0.338506 0.816535 -0.059264
v -0.071203 0.862948 0.138808
v -0.068001 0.808817 0.189050
v 0.232341 0.798311 -0.184791
v 0.239363 0.848440 -0.141790
v 0.286845 0.808017 -0.161183
v -0.199231 0.780041 0.166814
v -0.205163 0.836142 0.138621
v -0.230591 0.780519 0.126645
v -0.357492 0.333037 -0.154257
v -0.387573 0.332382 -0.101587
v 0.374812 0.329339 -0.222121
v 0.332826 0.332527 -0.260981
v -0.347794 0.337717 0.201760
v -0.297086 0.332629 0.237817
v 0.457140 0.325250 0.151560
v 0.519439 0.333297 0.097540
v 0.417241 0.572529 0.071327
v 0.382100 0.566136 0.121998
v -0.221793 0.573139 0.215941
v -0.274366 0.577419 0.164900
v -0.297758 0.577385 -0.089122
v -0.256315 0.570903 -0.139180
v 0.280653 0.570273 -0.215826
v 0.317934 0.571116 -0.177473
vt 0.642149 0.659877
vt 0.653191 0.661816
vt 0.643353 0.655216
vt 0.635656 0.638797
vt 0.769590 0.766864
vt 0.760233 0.768427
vt 0.769880 0.774847
vt 0.785304 0.803062
vt 0.773419 0.836770
vt 0.633223 0.854879
vt 0.644911 0.858354
vt 0.639987 0.905672
vt 0.624651 0.822013
vt 0.634492 0.791588
vt 0.784141 0.840360
vt 0.793403 0.889904
vt 0.620133 0.779992
vt 0.693051 0.580923
vt 0.653756 0.595809
vt 0.779230 0.976049
vt 0.766501 0.971760
vt 0.784181 0.935972
vt 0.734912 0.590574
vt 0.737580 0.613794
vt 0.724447 0.632144
vt 0.639508 0.617241
vt 0.632365 0.610844
vt 0.737511 0.640414
vt 0.664507 0.983127
vt 0.654515 0.948407
vt 0.675163 0.641158
vt 0.654473 0.646404
vt 0.647746 0.632411
vt 0.760275 0.780052
vt 0.773245 0.804418
vt 0.726831 0.777957
vt 0.678154 0.847714
vt 0.730783 0.807515
vt 0.643502 0.848365
vt 0.636487 0.819434
vt 0.732341 0.840653
vt 0.677462 0.785276
vt 0.674351 0.811294
vt 0.722997 0.594651
vt 0.727263 0.614389
vt 0.701162 0.617297
vt 0.694296 0.599213
vt 0.668646 0.626029
vt 0.705735 0.635253
vt 0.659038 0.607117
vt 0.636273 0.733223
vt 0.671713 0.729203
vt 0.632188 0.780052
vt 0.676467 0.765691
vt 0.721652 0.725124
vt 0.726146 0.767892
vt 0.679536 0.859733
vt 0.684208 0.903654
vt 0.733538 0.859290
vt 0.774387 0.846670
vt 0.779422 0.891488
vt 0.593076 0.775298
vt 0.761944 0.720888
vt 0.798328 0.765381
vt 0.787539 0.717957
vt 0.828911 0.751464
vt 0.566532 0.763107
vt 0.578147 0.716907
vt 0.735551 0.969439
vt 0.741896 0.939426
vt 0.696519 0.983600
vt 0.666598 0.945437
vt 0.672833 0.980882
vt 0.629280 0.649807
vt 0.614247 0.644179
vt 0.637118 0.689671
vt 0.676409 0.659995
vt 0.670973 0.690000
vt 0.708796 0.645841
vt 0.727776 0.643778
vt 0.741605 0.681968
vt 0.755815 0.633569
vt 0.794596 0.664532
vt 0.777306 0.627841
vt 0.741084 0.897291
vt 0.773650 0.935091
vt 0.650526 0.904667
vt 0.690846 0.943693
vt 0.603979 0.727969
vt 0.596542 0.676225
vt 0.617389 0.684609
vt 0.626409 0.732468
vt 0.647887 0.691389
vt 0.716585 0.685250
vt 0.752811 0.722082
vt 0.750465 0.679466
vt 0.819190 0.703613
vt 0.771710 0.675126
vt 0.622515 0.790972
vt 0.724089 0.581299
vt 0.735017 0.634640
vt 0.630290 0.621477
vn 0.086525 0.040906 0.995409
vn 0.170107 0.037713 0.984704
vn 0.165436 0.071968 0.983591
vn 0.084467 0.074002 0.993675
vn -0.213642 0.163530 -0.963128
vn -0.065329 0.152282 -0.986176
vn -0.050182 0.120435 -0.991452
vn -0.213374 0.132052 -0.968005
vn -0.086316 0.907233 -0.411676
vn -0.114355 0.308029 -0.944479
vn -0.238614 0.307831 -0.921034
vn -0.233295 0.835533 -0.497452
vn 0.179993 0.937197 -0.298772
vn 0.155016 0.226156 -0.961678
vn -0.461883 0.410071 -0.786451
vn -0.463034 0.687681 -0.559190
vn -0.882108 0.373226 -0.287382
vn -0.488374 0.280624 -0.826281
vn -0.915745 0.348288 -0.200267
vn -0.942346 0.334533 -0.008451
vn -0.446774 0.887291 -0.114488
vn -0.910869 0.292105 0.291535
vn -0.392728 0.849543 0.352195
vn -0.079030 -0.863423 -0.498252
vn -0.108387 -0.133974 -0.985040
vn 0.197106 -0.060332 -0.978524
vn 0.122406 -0.897959 -0.422713
vn -0.122171 -0.847121 -0.517166
vn -0.229531 -0.127721 -0.964885
vn 0.704942 -0.037667 -0.708264
vn 0.204065 0.150723 -0.967285
vn 0.714200 0.189367 -0.673838
vn 0.925789 -0.109179 -0.361932
vn 0.219894 -0.972621 -0.075207
vn 0.990911 -0.109870 0.077611
vn 0.222573 -0.913726 0.339949
vn -0.237761 -0.847043 -0.475383
vn -0.338882 -0.127912 -0.932093
vn 0.099121 -0.911612 0.398922
vn 0.179351 -0.213844 0.960262
vn 0.078512 -0.209592 0.974632
vn 0.024532 -0.902065 0.430902
vn 0.322085 -0.215208 0.921925
vn -0.158650 -0.132158 0.978450
vn -0.239653 -0.890566 0.386600
vn -0.924982 0.011741 0.379829
vn -0.210184 0.053524 0.976196
vn -0.896816 0.233237 0.375927
vn -0.986486 -0.026852 0.161632
vn -0.288093 -0.957123 0.030300
vn -0.995326 0.045612 -0.085127
vn 0.979287 0.177087 0.098169
vn 0.359944 0.054050 0.931407
vn -0.955678 0.272321 -0.111900
vn -0.446972 0.129346 -0.885147
vn 0.157881 0.852696 0.497979
vn 0.208763 0.227820 0.951061
vn 0.270214 0.242921 0.931651
vn 0.140135 0.869046 0.474469
vn 0.080054 0.884761 0.459117
vn 0.139655 0.297050 0.944594
vn 0.938909 0.339758 0.054909
vn 0.339348 0.200704 0.919000
vn 0.944101 0.321764 0.071705
vn 0.881099 0.347700 -0.320577
vn 0.232582 0.972215 0.026528
vn 0.744008 0.289635 -0.602133
vn -0.299490 0.278634 0.912507
vn 0.735725 0.252743 -0.628356
vn 0.182466 0.200385 -0.962576
vn -0.894114 0.290972 0.340433
vn -0.259343 0.195614 0.945768
vn 0.057137 0.997055 0.051150
vn -0.057271 0.998038 -0.025312
vn 0.029490 -0.998866 -0.037391
vn -0.048256 -0.998548 -0.023943
vn -0.961077 0.243323 0.130862
vn 0.911955 0.172028 -0.372485
vn -0.951181 0.297433 0.082395
vn 0.881995 0.299561 -0.363796
s 1
g FoodRLowerCaninesUnderbite
usemtl blinn7SG
f 12/58/1 11/85/2 5/70/3 6/88/4
f 8/78/5 9/94/6 15/55/7 14/52/8
f 17/49/9 18/79/10 20/77/11 19/31/12
f 18/79/10 17/49/9 60/25/13 59/80/14
f 19/31/12 20/77/11 23/2/15 22/32/16
f 21/1/17 23/2/15 78/93/18 77/76/19
f 22/32/16 21/3/17 25/4/20 24/33/21
f 24/33/21 25/4/20 64/102/22 63/26/23
f 26/36/24 27/56/25 30/6/26 29/34/27
f 27/56/25 26/36/24 33/42/28 34/54/29
f 28/5/30 30/6/26 68/95/31 67/63/32
f 29/34/27 28/7/30 32/8/33 31/35/34
f 31/35/34 32/8/33 46/15/35 45/9/36
f 34/54/29 33/42/28 48/14/37 47/53/38
f 35/41/39 36/59/40 38/57/41 37/37/42
f 36/59/40 35/41/39 45/9/36 44/60/43
f 37/37/42 38/57/41 41/11/44 40/39/45
f 39/10/46 41/11/44 70/87/47 69/12/48
f 40/39/45 39/10/46 43/13/49 42/40/50
f 42/40/50 43/13/49 49/99/51 48/14/37
f 44/60/43 46/15/35 72/16/52 71/61/53
f 47/53/38 49/17/51 66/92/54 65/51/55
f 50/47/56 51/18/57 54/100/58 53/44/59
f 51/18/57 50/47/56 57/50/60 58/19/61
f 52/20/62 54/21/58 74/86/63 73/22/64
f 53/44/59 52/23/62 56/24/65 55/45/66
f 55/45/66 56/24/65 61/101/67 60/25/13
f 58/19/61 57/50/60 63/26/23 62/27/68
f 59/80/14 61/28/67 80/96/69 79/81/70
f 62/73/68 64/29/22 76/30/71 75/72/72
f 65/51/55 66/92/54 77/76/19 78/93/18
f 67/63/32 68/95/31 79/81/70 80/96/69
f 69/12/48 70/87/47 75/72/72 76/30/71
f 71/61/53 72/16/52 73/22/64 74/86/63
f 3/46/73 17/49/9 19/31/12 4/48/74
f 19/31/12 22/32/16 24/33/21 4/48/74
f 26/36/24 29/34/27 31/35/34 1/38/75
f 1/38/75 2/43/76 33/42/28 26/36/24
f 35/41/39 37/37/42 2/43/76 1/38/75
f 37/37/42 40/39/45 42/40/50 2/43/76
f 31/35/34 45/9/36 35/41/39 1/38/75
f 33/42/28 2/43/76 42/40/50 48/14/37
f 50/47/56 53/44/59 55/45/66 3/46/73
f 50/47/56 3/46/73 4/48/74 57/50/60
f 55/45/66 60/25/13 17/49/9 3/46/73
f 57/50/60 4/48/74 24/33/21 63/26/23
f 65/51/55 14/52/8 34/54/29 47/53/38
f 14/52/8 15/55/7 27/56/25 34/54/29
f 15/55/7 68/95/31 30/6/26 27/56/25
f 41/11/44 38/57/41 12/58/1 70/87/47
f 38/57/41 36/59/40 11/85/2 12/58/1
f 36/59/40 44/60/43 71/61/53 11/85/2
f 13/89/77 66/92/54 49/17/51 43/62/49
f 32/64/33 28/5/30 67/63/32 16/65/78
f 32/64/33 16/65/78 72/97/52 46/66/35
f 13/89/77 43/62/49 39/67/46 69/68/48
f 5/70/3 74/86/63 54/21/58 51/69/57
f 6/88/4 5/70/3 51/69/57 58/71/61
f 75/72/72 6/88/4 58/71/61 62/73/68
f 25/74/20 7/91/79 76/90/71 64/75/22
f 25/74/20 21/1/17 77/76/19 7/91/79
f 23/2/15 20/77/11 8/78/5 78/93/18
f 20/77/11 18/79/10 9/94/6 8/78/5
f 18/79/10 59/80/14 79/81/70 9/94/6
f 10/98/80 80/96/69 61/28/67 56/82/65
f 73/83/64 10/98/80 56/82/65 52/84/62
f 11/85/2 71/61/53 74/86/63 5/70/3
f 70/87/47 12/58/1 6/88/4 75/72/72
f 7/91/79 13/89/77 69/68/48 76/90/71
f 7/91/79 77/76/19 66/92/54 13/89/77
f 78/93/18 8/78/5 14/52/8 65/51/55
f 9/94/6 79/81/70 68/95/31 15/55/7
f 16/65/78 67/63/32 80/96/69 10/98/80
f 72/97/52 16/65/78 10/98/80 73/83/64
f 21/3/17 22/32/16 23/2/15
f 28/7/30 29/34/27 30/6/26
f 39/10/46 40/39/45 41/11/44
f 44/60/43 45/9/36 46/15/35
f 47/53/38 48/14/37 49/99/51
f 52/23/62 53/44/59 54/100/58
f 59/80/14 60/25/13 61/101/67
f 62/27/68 63/26/23 64/102/22
