# This file uses centimeters as units for non-parametric coordinates.

mtllib DriedFruitSnakpodMediumRLowerArm.mtl
g default
v -0.190887 -0.340136 0.407046
v -0.012036 -0.319785 0.350733
v 0.026374 -0.316641 0.189355
v 0.041287 -0.316081 0.002297
v 0.018820 -0.321272 -0.179523
v -0.029888 -0.329056 -0.331260
v -0.223239 -0.350878 -0.360988
v -0.435403 -0.368879 -0.368356
v -0.631330 -0.409959 -0.351105
v -0.810945 -0.430764 -0.309102
v -0.885764 -0.438102 -0.171627
v -0.929677 -0.441787 0.014344
v -0.918177 -0.438250 0.211168
v -0.875590 -0.424228 0.368979
v -0.685747 -0.401548 0.415941
v -0.436372 -0.370239 0.436900
v -0.101965 -0.327252 0.661589
v 0.182103 -0.297611 0.509017
v 0.372747 -0.285581 0.276144
v 0.436043 -0.253659 0.001368
v 0.366298 -0.278912 -0.272476
v 0.178443 -0.306456 -0.503337
v -0.100812 -0.351867 -0.654653
v -0.434020 -0.380132 -0.716639
v -0.767683 -0.420107 -0.660824
v -1.049234 -0.456696 -0.505114
v -1.237646 -0.487367 -0.273183
v -1.304826 -0.502116 0.001372
v -1.237756 -0.491305 0.276306
v -1.053946 -0.437054 0.510155
v -0.769040 -0.409944 0.660477
v -0.435335 -0.368651 0.718127
v -0.150462 0.061859 0.658789
v 0.128637 0.101848 0.505544
v 0.318511 0.134901 0.275393
v 0.390282 0.120545 0.001364
v 0.321805 0.128803 -0.273405
v 0.132432 0.106356 -0.506244
v -0.153185 0.093095 -0.661905
v -0.484730 0.032868 -0.716668
v -0.818519 -0.009408 -0.662010
v -1.101846 -0.042368 -0.506358
v -1.292005 -0.057490 -0.273409
v -1.359192 -0.059441 0.001371
v -1.292560 -0.052946 0.276151
v -1.098524 -0.069378 0.509098
v -0.817360 -0.018807 0.664747
v -0.483302 0.021317 0.719156
v -0.260146 0.050847 0.374982
v -0.078038 0.074044 0.335905
v -0.032353 0.081279 0.183663
v -0.008086 0.084183 0.006665
v -0.050700 0.083239 -0.161880
v -0.102397 0.079426 -0.312600
v -0.289759 0.053818 -0.349487
v -0.484088 0.023070 -0.370071
v -0.673787 0.017270 -0.344476
v -0.852306 -0.011338 -0.300467
v -0.928712 -0.019550 -0.167105
v -0.964798 -0.025363 0.006310
v -0.930857 -0.019771 0.177173
v -0.875673 -0.020997 0.323818
v -0.679307 0.010515 0.352209
v -0.481593 0.027935 0.378610
v -0.435634 -0.371233 0.022307
v -0.485677 0.017545 0.003983
v 0.049489 -0.301720 0.969446
v 0.062565 -0.232192 1.008490
v 0.467360 -0.263699 0.747169
v 0.505709 -0.184850 0.786396
v 0.751211 -0.241464 0.408010
v 0.814519 -0.154337 0.434964
v 0.849165 -0.229519 0.001364
v 0.919950 -0.142043 0.001366
v 0.754878 -0.247891 -0.406851
v 0.814141 -0.154285 -0.432305
v 0.473288 -0.276814 -0.749366
v 0.512724 -0.187821 -0.792239
v 0.048809 -0.299453 -0.963218
v 0.066835 -0.235603 -1.013773
v -0.436287 -0.361429 -1.045050
v -0.444565 -0.293935 -1.089558
v -0.923332 -0.451886 -0.980194
v -0.962331 -0.371195 -1.040945
v -1.338391 -0.494596 -0.747639
v -1.404477 -0.426623 -0.800291
v -1.616274 -0.527993 -0.404102
v -1.690739 -0.457694 -0.426395
v -1.713603 -0.538562 0.001366
v -1.774988 -0.460150 0.001367
v -1.610625 -0.508516 0.402950
v -1.682072 -0.452649 0.425677
v -1.340133 -0.504178 0.754321
v -1.404656 -0.426779 0.802493
v -0.922369 -0.429308 0.972293
v -0.953990 -0.360140 1.018288
v -0.435121 -0.370900 1.051889
v -0.444306 -0.296006 1.095955
v 0.032895 0.009451 1.008490
v 0.003387 0.073751 0.969446
v 0.474328 0.070722 0.786396
v 0.418044 0.137951 0.747170
v 0.781348 0.115824 0.434964
v 0.698842 0.185047 0.408010
v 0.886621 0.129401 0.001366
v 0.796776 0.197154 0.001364
v 0.780993 0.115682 -0.432305
v 0.700846 0.192170 -0.406851
v 0.480417 0.075303 -0.792239
v 0.420623 0.152113 -0.749366
v 0.036212 0.013796 -1.013773
v 0.003276 0.071388 -0.963218
v -0.474109 -0.053323 -1.089558
v -0.482405 0.014168 -1.045050
v -0.995185 -0.103617 -1.040945
v -0.976865 -0.015889 -0.980193
v -1.437607 -0.156801 -0.800291
v -1.389928 -0.074860 -0.747639
v -1.722883 -0.195907 -0.426395
v -1.667637 -0.109681 -0.404102
v -1.805223 -0.213906 0.001367
v -1.764630 -0.122972 0.001366
v -1.713252 -0.198706 0.425678
v -1.657443 -0.127214 0.402950
v -1.437818 -0.156695 0.802493
v -1.393936 -0.065985 0.754322
v -0.984418 -0.112329 1.018288
v -0.970469 -0.037565 0.972293
v -0.474358 -0.051253 1.095955
v -0.483565 0.023637 1.051889
v -0.434620 -0.369979 -0.164234
v -0.436388 -0.371294 0.217597
v -0.203233 -0.342660 0.204298
v -0.207560 -0.343358 0.013972
v -0.223927 -0.345468 -0.165551
v -0.674413 -0.403151 0.214734
v -0.668552 -0.403967 0.022776
v -0.646683 -0.403222 -0.161282
v -0.485860 0.020037 -0.161412
v -0.483300 0.021849 0.169974
v -0.685591 0.004093 0.165680
v -0.695939 -0.001145 0.004232
v -0.686325 0.005071 -0.159448
v -0.275574 0.046721 0.174021
v -0.275295 0.046443 0.006412
v -0.287546 0.047405 -0.157753
vt 0.127727 0.861376
vt 0.123025 0.846742
vt 0.109789 0.843724
vt 0.094460 0.842644
vt 0.079565 0.844631
vt 0.067136 0.848727
vt 0.064791 0.864595
vt 0.064360 0.881962
vt 0.065929 0.898271
vt 0.069534 0.913007
vt 0.080830 0.919023
vt 0.096067 0.922465
vt 0.112130 0.921381
vt 0.125010 0.917658
vt 0.128741 0.902059
vt 0.130293 0.881544
vt 0.957157 0.895894
vt 0.946742 0.919901
vt 0.931359 0.904197
vt 0.933178 0.889009
vt 0.929405 0.937195
vt 0.919283 0.909054
vt 0.907590 0.944840
vt 0.905023 0.912326
vt 0.884728 0.941389
vt 0.890939 0.910124
vt 0.864236 0.927685
vt 0.878238 0.907049
vt 0.849305 0.905720
vt 0.873823 0.891970
vt 0.842411 0.878682
vt 0.870735 0.876139
vt 0.096354 0.881755
vt 0.844604 0.850875
vt 0.179761 0.838412
vt 0.160563 0.801323
vt 0.130529 0.775677
vt 0.093889 0.767047
vt 0.057261 0.775835
vt 0.026861 0.801412
vt 0.008760 0.839406
vt 0.002069 0.882502
vt 0.006883 0.926468
vt 0.028013 0.963468
vt 0.059699 0.987450
vt 0.095745 0.994782
vt 0.131215 0.985727
vt 0.162913 0.962309
vt 0.181296 0.924079
vt 0.187665 0.881055
vt 0.835547 0.529355
vt 0.871448 0.860542
vt 0.855233 0.826474
vt 0.873767 0.845518
vt 0.872824 0.809376
vt 0.884075 0.838323
vt 0.894730 0.802013
vt 0.897935 0.834114
vt 0.917477 0.805276
vt 0.912079 0.835644
vt 0.937878 0.819320
vt 0.924434 0.839047
vt 0.952682 0.841204
vt 0.928207 0.854970
vt 0.959523 0.868162
vt 0.931814 0.870892
vt 0.887739 0.874435
vt 0.889498 0.890663
vt 0.886442 0.858081
vt 0.912950 0.855765
vt 0.899712 0.856067
vt 0.901225 0.873215
vt 0.914782 0.872232
vt 0.916666 0.889190
vt 0.902989 0.890433
vt 0.989976 0.908264
vt 0.983698 0.906129
vt 0.986522 0.865656
vt 0.993688 0.865053
vt 0.974486 0.947046
vt 0.968475 0.941926
vt 0.947100 0.975499
vt 0.942874 0.967421
vt 0.135880 0.830690
vt 0.173721 0.841149
vt 0.116716 0.815318
vt 0.155080 0.807006
vt 0.094197 0.810062
vt 0.127111 0.784130
vt 0.071861 0.816169
vt 0.093916 0.776214
vt 0.052968 0.831742
vt 0.060810 0.784456
vt 0.040591 0.854828
vt 0.033109 0.807528
vt 0.035787 0.882231
vt 0.015060 0.842130
vt 0.040781 0.909659
vt 0.008773 0.882579
vt 0.053745 0.932799
vt 0.015061 0.923030
vt 0.072838 0.948110
vt 0.034134 0.956989
vt 0.095343 0.953425
vt 0.062602 0.979332
vt 0.117677 0.947872
vt 0.095575 0.986713
vt 0.136646 0.932071
vt 0.128461 0.978538
vt 0.148824 0.908778
vt 0.156483 0.955814
vt 0.153275 0.881292
vt 0.174515 0.921337
vt 0.148533 0.853866
vt 0.180474 0.881155
vt 0.204943 0.510447
vt 0.244356 0.509743
vt 0.204943 0.530113
vt 0.283769 0.508609
vt 0.244356 0.530817
vt 0.323182 0.508256
vt 0.283769 0.531951
vt 0.362594 0.508607
vt 0.323182 0.532303
vt 0.402007 0.509553
vt 0.362594 0.531953
vt 0.441420 0.510541
vt 0.402007 0.531006
vt 0.480833 0.511153
vt 0.441420 0.530018
vt 0.520245 0.509971
vt 0.480833 0.529407
vt 0.559658 0.509300
vt 0.520245 0.530589
vt 0.599071 0.508821
vt 0.559658 0.531260
vt 0.638484 0.509088
vt 0.599071 0.531739
vt 0.677896 0.509107
vt 0.638484 0.531471
vt 0.717309 0.509244
vt 0.677896 0.531452
vt 0.756722 0.510634
vt 0.717309 0.531316
vt 0.796135 0.510904
vt 0.756722 0.529926
vt 0.835547 0.511205
vt 0.796135 0.529656
vt 0.911481 0.987663
vt 0.910613 0.978538
vt 0.874171 0.982498
vt 0.876861 0.973573
vt 0.841417 0.960024
vt 0.847038 0.953328
vt 0.819683 0.923978
vt 0.825688 0.920654
vt 0.808825 0.881713
vt 0.815489 0.880981
vt 0.809327 0.837485
vt 0.817801 0.840107
vt 0.826745 0.798599
vt 0.833469 0.804448
vt 0.855937 0.771636
vt 0.859618 0.779431
vt 0.891092 0.760816
vt 0.891711 0.768862
vt 0.927276 0.766356
vt 0.925238 0.773779
vt 0.961124 0.786560
vt 0.955359 0.793650
vt 0.983156 0.822844
vt 0.976677 0.826234
vt 0.081483 0.899292
vt 0.096557 0.900936
vt 0.112265 0.901280
vt 0.080829 0.864492
vt 0.095537 0.863032
vt 0.111128 0.862544
vt 0.112345 0.881689
vt 0.081075 0.881782
vn 0.118713 -0.992908 0.006413
vn 0.104027 -0.994520 0.010389
vn 0.103784 -0.994387 0.020563
vn 0.120947 -0.992600 0.010832
vn 0.113744 -0.993419 -0.013429
vn 0.103618 -0.994548 -0.011760
vn 0.128282 -0.991737 -0.001464
vn 0.100953 -0.994891 -0.000244
vn 0.125401 -0.991828 0.023508
vn 0.102533 -0.994277 0.030008
vn 0.119968 -0.992359 0.028835
vn 0.114600 -0.993393 -0.006144
vn 0.097662 -0.994745 0.030738
vn 0.115610 -0.992750 -0.032902
vn 0.123191 -0.992239 0.016900
vn 0.131279 -0.990988 -0.026621
vn 0.145350 -0.989373 0.003765
vn 0.138963 -0.990297 -0.001289
vn 0.125241 -0.992122 -0.002948
vn 0.124588 -0.992206 0.002181
vn 0.140493 -0.990080 0.001966
vn 0.121331 -0.992562 -0.009955
vn 0.151290 -0.988484 0.003320
vn 0.108616 -0.994038 0.009524
vn 0.153268 -0.987780 0.028282
vn 0.120235 -0.992506 0.021799
vn 0.129258 -0.990768 0.040892
vn 0.142476 -0.989798 0.001041
vn 0.119148 -0.992800 0.012329
vn 0.131006 -0.991345 -0.008518
vn 0.123862 -0.992278 0.006611
vn 0.126414 -0.991976 0.001839
vn -0.121643 0.992499 0.012159
vn -0.139359 0.990049 0.019547
vn -0.139475 0.990201 0.006967
vn -0.120190 0.992745 0.003516
vn -0.140258 0.990034 -0.012653
vn -0.132137 0.991097 -0.016353
vn -0.143321 0.989676 0.000428
vn -0.116291 0.993215 0.000980
vn -0.143074 0.989287 0.028989
vn -0.118914 0.992589 0.025034
vn -0.123301 0.992362 -0.003856
vn -0.116182 0.992732 0.031370
vn -0.125593 0.991530 -0.033071
vn -0.147862 0.988261 0.038434
vn -0.116968 0.992660 -0.030746
vn -0.124867 0.991979 0.019666
vn -0.106362 0.994327 -0.000518
vn -0.100558 0.994917 0.005234
vn -0.118601 0.992938 0.002667
vn -0.122516 0.992464 -0.002155
vn -0.121254 0.992563 -0.010799
vn -0.100806 0.994906 0.000663
vn -0.136356 0.990631 0.007535
vn -0.092479 0.995708 -0.003738
vn -0.120410 0.992387 0.025870
vn -0.094091 0.995181 0.027599
vn -0.105088 0.994451 0.004868
vn -0.136130 0.989463 0.049311
vn -0.118960 0.992880 -0.006166
vn -0.126160 0.991893 0.015206
vn -0.114387 0.993407 0.007610
vn -0.108365 0.994079 0.008025
vn 0.106852 -0.994229 0.009570
vn 0.151089 -0.988372 0.017141
vn 0.136123 -0.990658 0.008170
vn 0.126884 -0.991905 0.005050
vn 0.133962 -0.990905 0.012713
vn 0.141967 -0.989839 0.007941
vn 0.130760 -0.991413 0.001560
vn 0.117541 -0.993061 0.003725
vn 0.113646 -0.993517 0.002778
vn -0.104155 0.994238 0.025340
vn -0.143660 0.989352 0.023345
vn -0.087356 0.995785 0.027950
vn -0.097615 0.995076 -0.017168
vn -0.090363 0.995909 0.000523
vn -0.108438 0.994103 0.000202
vn -0.102917 0.994443 -0.022161
vn -0.127710 0.991762 -0.009879
vn -0.137708 0.990452 0.006367
vn 0.189175 -0.951142 0.244014
vn 0.323010 -0.098920 0.941211
vn 0.023835 -0.130240 0.991196
vn 0.124446 -0.960221 0.249978
vn 0.244026 -0.947345 0.207340
vn 0.619526 -0.090781 0.779709
vn 0.301829 -0.947947 0.101470
vn 0.887068 -0.083918 0.453947
vn 0.322209 -0.946667 0.001473
vn 0.997092 -0.076202 -0.000272
vn 0.307228 -0.947373 -0.089978
vn 0.891199 -0.078866 -0.446705
vn 0.252764 -0.946414 -0.201026
vn 0.625555 -0.096348 -0.774208
vn 0.183060 -0.945650 -0.268767
vn 0.313471 -0.118209 -0.942212
vn 0.136741 -0.950560 -0.278817
vn 0.041408 -0.144408 -0.988651
vn 0.060401 -0.969589 -0.237167
vn -0.267820 -0.204751 -0.941461
vn -0.031380 -0.982418 -0.184041
vn -0.604554 -0.260992 -0.752594
vn -0.103801 -0.988222 -0.112439
vn -0.863537 -0.282628 -0.417643
vn -0.140892 -0.989944 0.012644
vn -0.958818 -0.283889 0.008660
vn -0.104549 -0.987801 0.115407
vn -0.864258 -0.280646 0.417487
vn -0.013297 -0.983564 0.180072
vn -0.596367 -0.250717 0.762554
vn 0.061339 -0.970928 0.231381
vn -0.271787 -0.183665 0.944669
vn 0.289485 0.174124 0.941212
vn -0.047054 0.968785 0.243397
vn -0.111325 0.961611 0.250821
vn -0.008381 0.132137 0.991196
vn 0.579162 0.237960 0.779709
vn 0.006813 0.978634 0.205495
vn 0.840417 0.296026 0.453947
vn 0.062262 0.992969 0.100679
vn 0.949039 0.315157 -0.000271
vn 0.083221 0.996530 0.001539
vn 0.845647 0.292124 -0.446705
vn 0.067818 0.993520 -0.091208
vn 0.583665 0.244822 -0.774208
vn 0.018804 0.979274 -0.201666
vn 0.275562 0.190534 -0.942211
vn -0.047147 0.960824 -0.273118
vn 0.005243 0.150137 -0.988651
vn -0.099721 0.953518 -0.284356
vn -0.309399 0.133879 -0.941461
vn -0.176044 0.955427 -0.236997
vn -0.649736 0.106985 -0.752594
vn -0.268070 0.945594 -0.184365
vn -0.906260 0.065324 -0.417643
vn -0.340102 0.933607 -0.112732
vn -0.999016 0.043497 0.008660
vn -0.377096 0.926092 0.012357
vn -0.906481 0.063226 0.417487
vn -0.336860 0.934296 0.116691
vn -0.639306 0.098994 0.762554
vn -0.246700 0.952765 0.177141
vn -0.308146 0.112458 0.944669
vn -0.176874 0.957966 0.225871
s 1
g FoodMediumRLowerArm
usemtl blinn7SG
f 1/1/1 2/2/2 18/84/3 17/114/4
f 2/2/2 3/3/5 19/86/6 18/84/3
f 3/3/5 4/4/7 20/88/8 19/86/6
f 4/4/7 5/5/9 21/90/10 20/88/8
f 5/5/9 6/6/11 22/92/12 21/90/10
f 6/6/11 7/7/13 23/94/14 22/92/12
f 7/7/13 8/8/15 24/96/16 23/94/14
f 8/8/15 9/9/17 25/98/18 24/96/16
f 9/9/17 10/10/19 26/100/20 25/98/18
f 10/10/19 11/11/21 27/102/22 26/100/20
f 11/11/21 12/12/23 28/104/24 27/102/22
f 12/12/23 13/13/25 29/106/26 28/104/24
f 13/13/25 14/14/27 30/108/28 29/106/26
f 14/14/27 15/15/29 31/110/30 30/108/28
f 15/15/29 16/16/31 32/112/32 31/110/30
f 16/16/31 1/1/1 17/114/4 32/112/32
f 33/17/33 34/18/34 50/19/35 49/20/36
f 34/18/34 35/21/37 51/22/38 50/19/35
f 35/21/37 36/23/39 52/24/40 51/22/38
f 36/23/39 37/25/41 53/26/42 52/24/40
f 37/25/41 38/27/43 54/28/44 53/26/42
f 38/27/43 39/29/45 55/30/46 54/28/44
f 39/29/45 40/31/47 56/32/48 55/30/46
f 40/31/47 41/34/49 57/52/50 56/32/48
f 41/34/49 42/53/51 58/54/52 57/52/50
f 42/53/51 43/55/53 59/56/54 58/54/52
f 43/55/53 44/57/55 60/58/56 59/56/54
f 44/57/55 45/59/57 61/60/58 60/58/56
f 45/59/57 46/61/59 62/62/60 61/60/58
f 46/61/59 47/63/61 63/64/62 62/62/60
f 47/63/61 48/65/63 64/66/64 63/64/62
f 48/65/63 33/17/33 49/20/36 64/66/64
f 7/7/13 6/6/11 5/5/9 135/176/65
f 138/173/66 9/9/17 8/8/15 131/180/67
f 132/179/68 136/175/69 137/174/70 65/33/71
f 3/3/5 133/178/72 134/177/73 4/4/7
f 139/67/74 146/68/75 55/30/46 56/32/48
f 59/56/54 143/69/76 57/52/50 58/54/52
f 141/70/77 142/71/78 60/58/56 61/60/58
f 66/72/79 140/73/80 144/74/81 145/75/82
f 67/85/83 68/35/84 98/50/85 97/115/86
f 68/35/84 67/85/83 69/87/87 70/36/88
f 70/36/88 69/87/87 71/89/89 72/37/90
f 72/37/90 71/89/89 73/91/91 74/38/92
f 74/38/92 73/91/91 75/93/93 76/39/94
f 76/39/94 75/93/93 77/95/95 78/40/96
f 78/40/96 77/95/95 79/97/97 80/41/98
f 80/41/98 79/97/97 81/99/99 82/42/100
f 82/42/100 81/99/99 83/101/101 84/43/102
f 84/43/102 83/101/101 85/103/103 86/44/104
f 86/44/104 85/103/103 87/105/105 88/45/106
f 88/45/106 87/105/105 89/107/107 90/46/108
f 90/46/108 89/107/107 91/109/109 92/47/110
f 92/47/110 91/109/109 93/111/111 94/48/112
f 94/48/112 93/111/111 95/113/113 96/49/114
f 96/49/114 95/113/113 97/115/86 98/50/85
f 99/76/115 100/77/116 130/78/117 129/79/118
f 100/77/116 99/76/115 101/80/119 102/81/120
f 102/81/120 101/80/119 103/82/121 104/83/122
f 104/83/122 103/82/121 105/149/123 106/150/124
f 106/150/124 105/149/123 107/151/125 108/152/126
f 108/152/126 107/151/125 109/153/127 110/154/128
f 110/154/128 109/153/127 111/155/129 112/156/130
f 112/156/130 111/155/129 113/157/131 114/158/132
f 114/158/132 113/157/131 115/159/133 116/160/134
f 116/160/134 115/159/133 117/161/135 118/162/136
f 118/162/136 117/161/135 119/163/137 120/164/138
f 120/164/138 119/163/137 121/165/139 122/166/140
f 122/166/140 121/165/139 123/167/141 124/168/142
f 124/168/142 123/167/141 125/169/143 126/170/144
f 126/170/144 125/169/143 127/171/145 128/172/146
f 128/172/146 127/171/145 129/79/118 130/78/117
f 17/114/4 18/84/3 69/87/87 67/85/83
f 18/84/3 19/86/6 71/89/89 69/87/87
f 19/86/6 20/88/8 73/91/91 71/89/89
f 20/88/8 21/90/10 75/93/93 73/91/91
f 21/90/10 22/92/12 77/95/95 75/93/93
f 22/92/12 23/94/14 79/97/97 77/95/95
f 23/94/14 24/96/16 81/99/99 79/97/97
f 24/96/16 25/98/18 83/101/101 81/99/99
f 25/98/18 26/100/20 85/103/103 83/101/101
f 26/100/20 27/102/22 87/105/105 85/103/103
f 27/102/22 28/104/24 89/107/107 87/105/105
f 28/104/24 29/106/26 91/109/109 89/107/107
f 29/106/26 30/108/28 93/111/111 91/109/109
f 30/108/28 31/110/30 95/113/113 93/111/111
f 31/110/30 32/112/32 97/115/86 95/113/113
f 32/112/32 17/114/4 67/85/83 97/115/86
f 68/116/84 70/117/88 101/120/119 99/118/115
f 70/117/88 72/119/90 103/122/121 101/120/119
f 72/119/90 74/121/92 105/124/123 103/122/121
f 74/121/92 76/123/94 107/126/125 105/124/123
f 76/123/94 78/125/96 109/128/127 107/126/125
f 78/125/96 80/127/98 111/130/129 109/128/127
f 80/127/98 82/129/100 113/132/131 111/130/129
f 82/129/100 84/131/102 115/134/133 113/132/131
f 84/131/102 86/133/104 117/136/135 115/134/133
f 86/133/104 88/135/106 119/138/137 117/136/135
f 88/135/106 90/137/108 121/140/139 119/138/137
f 90/137/108 92/139/110 123/142/141 121/140/139
f 92/139/110 94/141/112 125/144/143 123/142/141
f 94/141/112 96/143/114 127/146/145 125/144/143
f 96/143/114 98/145/85 129/148/118 127/146/145
f 98/145/85 68/147/84 99/51/115 129/148/118
f 100/77/116 102/81/120 34/18/34 33/17/33
f 102/81/120 104/83/122 35/21/37 34/18/34
f 104/83/122 106/150/124 36/23/39 35/21/37
f 106/150/124 108/152/126 37/25/41 36/23/39
f 108/152/126 110/154/128 38/27/43 37/25/41
f 110/154/128 112/156/130 39/29/45 38/27/43
f 112/156/130 114/158/132 40/31/47 39/29/45
f 114/158/132 116/160/134 41/34/49 40/31/47
f 116/160/134 118/162/136 42/53/51 41/34/49
f 118/162/136 120/164/138 43/55/53 42/53/51
f 120/164/138 122/166/140 44/57/55 43/55/53
f 122/166/140 124/168/142 45/59/57 44/57/55
f 124/168/142 126/170/144 46/61/59 45/59/57
f 126/170/144 128/172/146 47/63/61 46/61/59
f 128/172/146 130/78/117 48/65/63 47/63/61
f 130/78/117 100/77/116 33/17/33 48/65/63
f 134/177/73 135/176/65 5/5/9 4/4/7
f 137/174/70 138/173/66 131/180/67 65/33/71
f 3/3/5 2/2/2 1/1/1 133/178/72
f 15/15/29 136/175/69 132/179/68 16/16/31
f 133/178/72 1/1/1 16/16/31 132/179/68
f 134/177/73 133/178/72 132/179/68 65/33/71
f 131/180/67 135/176/65 134/177/73 65/33/71
f 7/7/13 135/176/65 131/180/67 8/8/15
f 15/15/29 14/14/27 13/13/25 136/175/69
f 137/174/70 136/175/69 13/13/25 12/12/23
f 11/11/21 138/173/66 137/174/70 12/12/23
f 11/11/21 10/10/19 9/9/17 138/173/66
f 142/71/78 143/69/76 59/56/54 60/58/56
f 66/72/79 145/75/82 146/68/75 139/67/74
f 63/64/62 141/70/77 61/60/58 62/62/60
f 49/20/36 144/74/81 140/73/80 64/66/64
f 140/73/80 141/70/77 63/64/62 64/66/64
f 66/72/79 142/71/78 141/70/77 140/73/80
f 66/72/79 139/67/74 143/69/76 142/71/78
f 57/52/50 143/69/76 139/67/74 56/32/48
f 51/22/38 144/74/81 49/20/36 50/19/35
f 145/75/82 144/74/81 51/22/38 52/24/40
f 146/68/75 145/75/82 52/24/40 53/26/42
f 55/30/46 146/68/75 53/26/42 54/28/44
