# This file uses centimeters as units for non-parametric coordinates.

mtllib BeheadingMachine_BladeCOL.mtl
g default
v -3.467864 9.364964 0.830496
v -3.467864 9.692937 0.830496
v -3.467864 9.692937 -0.830496
v -3.467864 9.364964 -0.830496
v -1.175934 8.411737 0.830496
v -1.135975 8.737268 0.830496
v -1.135975 8.737268 -0.830496
v -1.175934 8.411737 -0.830496
vt 0.948305 0.685982
vt 0.936629 0.685982
vt 0.902694 0.604388
vt 0.914283 0.602966
vt 0.936629 0.439066
vt 0.948305 0.439066
vt 0.914283 0.522083
vt 0.902694 0.520661
vt 0.529380 0.294707
vt 0.529091 0.204563
vt 0.588679 0.204523
vt 0.588512 0.294667
vt 0.521112 0.205258
vt 0.519493 0.216910
vt 0.460550 0.217905
vt 0.458415 0.206244
vt 0.461419 0.307044
vt 0.520565 0.306376
vn -0.000000 0.000000 1.000000
vn -0.000000 0.000000 1.000000
vn -0.000000 0.000000 1.000000
vn -0.000000 0.000000 1.000000
vn -0.000000 0.000000 -1.000000
vn -0.000000 0.000000 -1.000000
vn -0.000000 0.000000 -1.000000
vn -0.000000 0.000000 -1.000000
vn 0.379215 0.925309 0.000000
vn 0.379215 0.925309 0.000000
vn 0.379215 0.925309 0.000000
vn 0.379215 0.925309 0.000000
vn -1.000000 0.000000 0.000000
vn -1.000000 0.000000 0.000000
vn -1.000000 0.000000 0.000000
vn -1.000000 0.000000 0.000000
vn -0.384016 -0.923326 0.000000
vn -0.384016 -0.923326 0.000000
vn -0.384016 -0.923326 0.000000
vn -0.384016 -0.923326 0.000000
s off
g BeheadingMachine_BladeCOL_polySurface5
usemtl initialShadingGroup
f 2/1/1 1/2/2 5/3/3 6/4/4
f 4/5/5 3/6/6 7/7/7 8/8/8
f 7/9/9 3/10/10 2/11/11 6/12/12
f 3/13/13 4/14/14 1/15/15 2/16/16
f 5/17/17 1/15/18 4/14/19 8/18/20
g default
v -1.135975 8.737268 -0.830496
v -1.175934 8.411737 -0.830496
v -1.175934 8.411737 0.830496
v -1.135975 8.737268 0.830496
v 1.135050 8.737152 -0.830496
v 1.176862 8.411854 -0.830496
v 1.176862 8.411854 0.830496
v 1.135050 8.737152 0.830496
vt 0.902694 0.520661
vt 0.914283 0.522083
vt 0.914279 0.602933
vt 0.902698 0.604421
vt 0.914283 0.602966
vt 0.902694 0.604388
vt 0.902698 0.520628
vt 0.914279 0.522116
vt 0.462141 0.390778
vt 0.461419 0.307044
vt 0.520565 0.306376
vt 0.521494 0.391622
vt 0.588512 0.294667
vt 0.588567 0.375936
vt 0.529435 0.375976
vt 0.529380 0.294707
vn 0.000000 0.000000 -1.000000
vn 0.000000 0.000000 -1.000000
vn 0.000000 0.000000 -1.000000
vn 0.000000 0.000000 -1.000000
vn 0.000000 0.000000 1.000000
vn 0.000000 0.000000 1.000000
vn 0.000000 0.000000 1.000000
vn 0.000000 0.000000 1.000000
vn 0.000049 -1.000000 0.000000
vn 0.000049 -1.000000 0.000000
vn 0.000049 -1.000000 0.000000
vn 0.000049 -1.000000 0.000000
vn 0.000051 1.000000 0.000000
vn 0.000051 1.000000 0.000000
vn 0.000051 1.000000 0.000000
vn 0.000051 1.000000 0.000000
s off
g polySurface8
usemtl initialShadingGroup
f 10/19/21 9/20/22 13/21/23 14/22/24
f 12/23/25 11/24/26 15/25/27 16/26/28
f 15/27/29 11/28/30 10/29/31 14/30/32
f 12/31/33 16/32/34 13/33/35 9/34/36
g default
v 3.467866 9.364964 0.830496
v 3.467866 9.692937 0.830496
v 3.467866 9.692937 -0.830496
v 3.467866 9.364964 -0.830496
v 1.135050 8.737152 -0.830496
v 1.176862 8.411854 -0.830496
v 1.176862 8.411854 0.830496
v 1.135050 8.737152 0.830496
vt 0.902698 0.604421
vt 0.914279 0.602933
vt 0.948305 0.685982
vt 0.936629 0.685982
vt 0.914279 0.522116
vt 0.902698 0.520628
vt 0.936629 0.439067
vt 0.948305 0.439066
vt 0.517316 0.483350
vt 0.518555 0.495243
vt 0.455914 0.491321
vt 0.458755 0.479792
vt 0.588567 0.375936
vt 0.588854 0.466105
vt 0.529268 0.466145
vt 0.529435 0.375976
vt 0.462141 0.390778
vt 0.521494 0.391622
vn -0.000000 0.000000 -1.000000
vn -0.000000 0.000000 -1.000000
vn -0.000000 0.000000 -1.000000
vn -0.000000 0.000000 -1.000000
vn 0.000000 0.000000 1.000000
vn 0.000000 0.000000 1.000000
vn 0.000000 0.000000 1.000000
vn 0.000000 0.000000 1.000000
vn 1.000000 0.000000 0.000000
vn 1.000000 0.000000 0.000000
vn 1.000000 0.000000 0.000000
vn 1.000000 0.000000 0.000000
vn -0.379126 0.925345 0.000000
vn -0.379126 0.925345 0.000000
vn -0.379126 0.925345 0.000000
vn -0.379126 0.925345 0.000000
vn 0.384109 -0.923288 0.000000
vn 0.384109 -0.923288 0.000000
vn 0.384109 -0.923288 0.000000
vn 0.384109 -0.923288 0.000000
s off
g polySurface7
usemtl initialShadingGroup
f 22/35/37 21/36/38 19/37/39 20/38/40
f 24/39/41 23/40/42 17/41/43 18/42/44
f 20/43/45 19/44/46 18/45/47 17/46/48
f 24/47/49 18/48/50 19/49/51 21/50/52
f 17/46/53 23/51/54 22/52/55 20/43/56
g default
v 0.599151 0.000000 -0.599149
v 0.000001 0.000000 -0.847325
v -0.599149 0.000000 -0.599149
v -0.847324 0.000000 0.000000
v -0.599149 0.000000 0.599150
v 0.000001 0.000000 0.847325
v 0.599151 0.000000 0.599150
v 0.847326 0.000000 0.000000
v 0.536563 8.375643 -0.536561
v 0.758815 8.375643 0.000000
v 0.536563 8.375643 0.536561
v 0.000001 8.375643 0.758812
v -0.536561 8.375643 0.536561
v -0.758813 8.375643 0.000000
v -0.536561 8.375643 -0.536561
v 0.000001 8.375643 -0.758812
vt 0.340514 0.201110
vt 0.360608 0.200888
vt 0.364302 0.508753
vt 0.343096 0.508670
vt 0.380475 0.201127
vt 0.385456 0.508761
vt 0.400896 0.201352
vt 0.406487 0.508737
vt 0.420506 0.201405
vt 0.427730 0.508777
vt 0.441147 0.201200
vt 0.449065 0.508788
vt 0.279766 0.201221
vt 0.300086 0.201342
vt 0.300887 0.508777
vt 0.279639 0.508780
vt 0.320179 0.201208
vt 0.321877 0.508729
vn 0.382665 0.009763 -0.923836
vn 0.382665 0.009763 -0.923836
vn 0.382665 0.009763 -0.923836
vn 0.382665 0.009763 -0.923836
vn -0.382665 0.009763 -0.923836
vn -0.382665 0.009763 -0.923836
vn -0.382665 0.009763 -0.923836
vn -0.382665 0.009763 -0.923836
vn -0.923835 0.009763 -0.382666
vn -0.923835 0.009763 -0.382666
vn -0.923835 0.009763 -0.382666
vn -0.923835 0.009763 -0.382666
vn -0.923836 0.009763 0.382665
vn -0.923836 0.009763 0.382665
vn -0.923836 0.009763 0.382665
vn -0.923836 0.009763 0.382665
vn -0.382664 0.009763 0.923836
vn -0.382664 0.009763 0.923836
vn -0.382664 0.009763 0.923836
vn -0.382664 0.009763 0.923836
vn 0.382664 0.009763 0.923836
vn 0.382664 0.009763 0.923836
vn 0.382664 0.009763 0.923836
vn 0.382664 0.009763 0.923836
vn 0.923836 0.009763 0.382665
vn 0.923836 0.009763 0.382665
vn 0.923836 0.009763 0.382665
vn 0.923836 0.009763 0.382665
vn 0.923835 0.009763 -0.382666
vn 0.923835 0.009763 -0.382666
vn 0.923835 0.009763 -0.382666
vn 0.923835 0.009763 -0.382666
s off
g polySurface4
usemtl initialShadingGroup
f 25/53/57 26/54/58 40/55/59 33/56/60
f 26/54/61 27/57/62 39/58/63 40/55/64
f 27/57/65 28/59/66 38/60/67 39/58/68
f 28/59/69 29/61/70 37/62/71 38/60/72
f 29/61/73 30/63/74 36/64/75 37/62/76
f 30/65/77 31/66/78 35/67/79 36/68/80
f 31/66/81 32/69/82 34/70/83 35/67/84
f 32/69/85 25/53/86 33/56/87 34/70/88
