# This file uses centimeters as units for non-parametric coordinates.

mtllib Flare01_coalsmallCOL.mtl
g default
v 0.163644 8.095066 0.283440
v -3.044359 8.095066 -0.661299
v -3.044359 8.095066 0.633563
v -2.517691 8.095066 1.816478
v -1.555421 8.095066 2.682909
v -0.323934 8.095066 3.083045
v 0.963834 8.095066 2.947694
v 2.085217 8.095066 2.300263
v 2.846318 8.095066 1.252699
v 3.115535 8.095066 -0.013868
v 2.846318 8.095066 -1.280433
v -1.555420 8.095066 -2.710646
v -2.517691 8.095066 -1.844214
v 0.963835 8.095066 -2.975429
v -0.323934 8.095066 -3.110780
v 2.085218 8.095066 -2.327999
v -2.945819 6.605331 -0.640585
v -2.945819 6.605331 0.612849
v -2.436001 6.605331 1.757918
v -1.504518 6.605331 2.596628
v -0.312431 6.605331 2.983962
v 0.934135 6.605331 2.852941
v 2.019641 6.605331 2.226224
v 2.756391 6.605331 1.212176
v 3.016995 6.605331 -0.013868
v 2.756391 6.605331 -1.239910
v -1.504517 6.605331 -2.624365
v -2.436001 6.605331 -1.785653
v 0.934136 6.605331 -2.880676
v -0.312431 6.605331 -3.011697
v 2.019642 6.605331 -2.253960
v 0.035588 6.605331 0.299491
vt 0.495916 0.169017
vt 0.464044 0.169062
vt 0.671509 0.198556
vt 0.655494 0.239726
vt 0.623587 0.239614
vt 0.591707 0.239609
vt 0.559798 0.239664
vt 0.527919 0.239731
vt 0.496030 0.239724
vt 0.719328 0.169307
vt 0.687465 0.169234
vt 0.464145 0.239638
vt 0.687393 0.239777
vt 0.559698 0.169069
vt 0.527814 0.169035
vt 0.623693 0.168925
vt 0.591697 0.169024
vt 0.655553 0.169232
vt 0.000000 0.000000
vt 1.000000 0.000000
vt 1.000000 1.000000
vt 0.000000 1.000000
vt 0.000000 0.000000
vt 1.000000 0.000000
vt 1.000000 1.000000
vt 0.000000 1.000000
vt 0.000000 0.000000
vt 1.000000 0.000000
vt 1.000000 1.000000
vt 0.000000 1.000000
vt 0.000000 0.000000
vt 1.000000 0.000000
vt 1.000000 1.000000
vt 0.000000 1.000000
vt 0.000000 0.000000
vt 1.000000 0.000000
vt 1.000000 1.000000
vt 0.000000 1.000000
vt 0.000000 0.000000
vt 1.000000 0.000000
vt 1.000000 1.000000
vt 0.000000 1.000000
vt 0.000000 0.000000
vt 1.000000 0.000000
vt 1.000000 1.000000
vt 0.000000 1.000000
vt 0.000000 0.000000
vt 1.000000 0.000000
vt 1.000000 1.000000
vt 0.000000 1.000000
vt 0.000000 0.000000
vt 1.000000 0.000000
vt 1.000000 1.000000
vt 0.000000 1.000000
vt 0.000000 0.000000
vt 1.000000 0.000000
vt 1.000000 1.000000
vt 0.000000 1.000000
vt 0.000000 0.000000
vt 1.000000 0.000000
vt 1.000000 1.000000
vt 0.000000 1.000000
vt 0.000000 0.000000
vt 1.000000 0.000000
vt 1.000000 1.000000
vt 0.000000 1.000000
vt 0.000000 0.000000
vt 1.000000 0.000000
vt 1.000000 1.000000
vt 0.000000 1.000000
vt 0.000000 0.000000
vt 1.000000 0.000000
vt 1.000000 1.000000
vt 0.000000 1.000000
vt 0.000000 0.000000
vt 1.000000 0.000000
vt 1.000000 1.000000
vt 0.000000 1.000000
vt 0.000000 1.000000
vn 0.000000 1.000000 0.000000
vn 0.000000 1.000000 0.000000
vn 0.000000 1.000000 0.000000
vn 0.000000 1.000000 0.000001
vn 0.000000 1.000000 0.000001
vn 0.000000 1.000000 0.000000
vn 0.000000 1.000000 0.000000
vn 0.000000 1.000000 0.000000
vn 0.000000 1.000000 0.000000
vn 0.000000 1.000000 0.000000
vn 0.000000 1.000000 0.000000
vn 0.000000 1.000000 0.000000
vn 0.000000 1.000000 -0.000001
vn 0.000000 1.000000 -0.000001
vn 0.000000 1.000000 0.000000
vn 0.000000 1.000000 0.000000
vn 0.000000 1.000000 0.000000
vn 0.000000 1.000000 0.000000
vn 0.000000 1.000000 0.000000
vn 0.000000 1.000000 0.000000
vn 0.000000 1.000000 0.000000
vn 0.000000 1.000000 0.000000
vn 0.000000 1.000000 0.000000
vn 0.000000 1.000000 0.000000
vn 0.000000 1.000000 0.000000
vn 0.000000 1.000000 0.000000
vn 0.000000 1.000000 0.000000
vn 0.000000 1.000000 -0.000001
vn 0.000000 1.000000 -0.000001
vn 0.000000 1.000000 0.000000
vn 0.000000 1.000000 0.000000
vn 0.000000 1.000000 0.000000
vn 0.000000 1.000000 0.000000
vn 0.000000 1.000000 0.000000
vn 0.000000 1.000000 0.000000
vn 0.000000 1.000000 0.000000
vn 0.000000 1.000000 0.000000
vn 0.000000 1.000000 0.000000
vn 0.000000 1.000000 0.000000
vn 0.000000 1.000000 0.000000
vn 0.000000 1.000000 0.000000
vn 0.000000 1.000000 0.000000
vn 0.000000 1.000000 0.000000
vn 0.000000 1.000000 0.000000
vn 0.000000 1.000000 0.000000
vn -0.975925 -0.067438 0.207419
vn -0.975925 -0.067438 -0.207419
vn -0.975917 -0.067438 -0.207458
vn -0.975917 -0.067438 0.207458
vn -0.498947 -0.067091 0.864032
vn -0.807215 -0.067315 0.586406
vn -0.807149 -0.067315 0.586498
vn -0.498802 -0.067091 0.864115
vn 0.308246 -0.066504 0.948979
vn -0.104391 -0.066804 0.992290
vn -0.104201 -0.066804 0.992310
vn 0.308420 -0.066504 0.948923
vn -0.104391 -0.066804 0.992290
vn -0.498947 -0.067091 0.864032
vn -0.498802 -0.067091 0.864115
vn -0.104201 -0.066804 0.992310
vn 0.911534 -0.066065 0.405884
vn 0.667607 -0.066242 0.741561
vn 0.667713 -0.066242 0.741465
vn 0.911565 -0.066065 0.405813
vn 0.667607 -0.066242 0.741561
vn 0.308246 -0.066504 0.948979
vn 0.308420 -0.066504 0.948923
vn 0.667713 -0.066242 0.741465
vn 0.911534 -0.066065 -0.405884
vn 0.997819 -0.066002 0.000000
vn 0.997819 -0.066002 0.000000
vn 0.911566 -0.066065 -0.405812
vn 0.997819 -0.066002 0.000000
vn 0.911534 -0.066065 0.405884
vn 0.911565 -0.066065 0.405813
vn 0.997819 -0.066002 0.000000
vn -0.807215 -0.067315 0.586406
vn -0.975925 -0.067438 0.207419
vn -0.975917 -0.067438 0.207458
vn -0.807149 -0.067315 0.586498
vn -0.807215 -0.067315 -0.586406
vn -0.498946 -0.067091 -0.864032
vn -0.498802 -0.067091 -0.864116
vn -0.807149 -0.067315 -0.586498
vn -0.975925 -0.067438 -0.207419
vn -0.807215 -0.067315 -0.586406
vn -0.807149 -0.067315 -0.586498
vn -0.975917 -0.067438 -0.207458
vn -0.104391 -0.066804 -0.992290
vn 0.308245 -0.066504 -0.948980
vn 0.308419 -0.066504 -0.948923
vn -0.104200 -0.066804 -0.992310
vn -0.498946 -0.067091 -0.864032
vn -0.104391 -0.066804 -0.992290
vn -0.104200 -0.066804 -0.992310
vn -0.498802 -0.067091 -0.864116
vn 0.667607 -0.066242 -0.741561
vn 0.911534 -0.066065 -0.405884
vn 0.911566 -0.066065 -0.405812
vn 0.667714 -0.066242 -0.741465
vn 0.308245 -0.066504 -0.948980
vn 0.667607 -0.066242 -0.741561
vn 0.667714 -0.066242 -0.741465
vn 0.308419 -0.066504 -0.948923
vn 0.000000 -1.000000 0.000000
vn 0.000000 -1.000000 0.000000
vn 0.000000 -1.000000 0.000000
vn 0.000000 -1.000000 0.000000
vn 0.000000 -1.000000 0.000000
vn 0.000000 -1.000000 0.000000
vn 0.000000 -1.000000 0.000000
vn 0.000000 -1.000000 0.000000
vn 0.000000 -1.000000 0.000000
vn 0.000000 -1.000000 0.000000
vn 0.000000 -1.000000 0.000000
vn 0.000000 -1.000000 0.000000
vn 0.000000 -1.000000 0.000000
vn 0.000000 -1.000000 0.000000
vn 0.000000 -1.000000 0.000000
vn 0.000000 -1.000000 0.000000
vn 0.000000 -1.000000 0.000000
vn 0.000000 -1.000000 0.000000
vn 0.000000 -1.000000 0.000000
vn 0.000000 -1.000000 0.000000
vn 0.000000 -1.000000 0.000000
vn 0.000000 -1.000000 0.000000
vn 0.000000 -1.000000 0.000000
vn 0.000000 -1.000000 0.000000
vn 0.000000 -1.000000 0.000000
vn 0.000000 -1.000000 0.000000
vn 0.000000 -1.000000 0.000000
vn 0.000000 -1.000000 0.000000
vn 0.000000 -1.000000 0.000000
vn 0.000000 -1.000000 0.000000
vn 0.000000 -1.000000 0.000000
vn 0.000000 -1.000000 0.000000
vn 0.000000 -1.000000 0.000000
vn 0.000000 -1.000000 0.000000
vn 0.000000 -1.000000 0.000000
vn 0.000000 -1.000000 0.000000
vn 0.000000 -1.000000 0.000000
vn 0.000000 -1.000000 0.000000
vn 0.000000 -1.000000 0.000000
vn 0.000000 -1.000000 0.000000
vn 0.000000 -1.000000 0.000000
vn 0.000000 -1.000000 0.000000
vn 0.000000 -1.000000 0.000000
vn 0.000000 -1.000000 0.000000
vn 0.000000 -1.000000 0.000000
s off
g polySurface3Flare01COL_pSphere2
usemtl lambert2SG
f 2/1/1 3/2/2 1/3/3
f 4/4/4 5/5/5 1/3/6
f 6/6/7 7/7/8 1/3/9
f 5/5/10 6/6/11 1/3/12
f 8/8/13 9/9/14 1/3/15
f 7/7/16 8/8/17 1/3/18
f 10/10/19 11/11/20 1/3/21
f 9/9/22 10/12/23 1/3/24
f 3/13/25 4/4/26 1/3/27
f 12/14/28 13/15/29 1/3/30
f 13/15/31 2/1/32 1/3/33
f 14/16/34 15/17/35 1/3/36
f 15/17/37 12/14/38 1/3/39
f 11/11/40 16/18/41 1/3/42
f 16/18/43 14/16/44 1/3/45
f 3/19/46 2/20/47 17/21/48 18/22/49
f 5/23/50 4/24/51 19/25/52 20/26/53
f 7/27/54 6/28/55 21/29/56 22/30/57
f 6/31/58 5/32/59 20/33/60 21/34/61
f 9/35/62 8/36/63 23/37/64 24/38/65
f 8/39/66 7/40/67 22/41/68 23/42/69
f 11/43/70 10/44/71 25/45/72 26/46/73
f 10/47/74 9/48/75 24/49/76 25/50/77
f 4/51/78 3/52/79 18/53/80 19/54/81
f 13/55/82 12/56/83 27/57/84 28/58/85
f 2/59/86 13/60/87 28/61/88 17/62/89
f 15/63/90 14/64/91 29/65/92 30/66/93
f 12/67/94 15/68/95 30/69/96 27/70/97
f 16/71/98 11/72/99 26/73/100 31/74/101
f 14/75/102 16/76/103 31/77/104 29/78/105
f 18/22/106 17/62/107 32/79/108
f 24/38/109 32/79/110 25/50/111
f 22/30/112 32/79/113 23/42/114
f 23/42/115 32/79/116 24/38/117
f 20/26/118 32/79/119 21/34/120
f 21/34/121 32/79/122 22/30/123
f 18/22/124 32/79/125 19/54/126
f 19/54/127 32/79/128 20/26/129
f 32/79/130 28/58/131 27/70/132
f 32/79/133 17/62/134 28/58/135
f 32/79/136 30/66/137 29/78/138
f 32/79/139 27/70/140 30/66/141
f 32/79/142 31/74/143 26/46/144
f 32/79/145 29/78/146 31/74/147
f 32/79/148 26/46/149 25/50/150
