# This file uses centimeters as units for non-parametric coordinates.

mtllib Key_lockbox.mtl
g default
v 0.070221 -0.166369 -0.121626
v -0.070221 -0.166369 -0.121626
v -0.140442 -0.166369 0.000000
v -0.070221 -0.166369 0.121626
v 0.070221 -0.166369 0.121626
v 0.140442 -0.166369 0.000000
v 0.056271 0.888639 -0.097464
v -0.056271 0.888639 -0.097464
v -0.112541 0.888639 0.000000
v -0.056271 0.888639 0.097464
v 0.056271 0.888639 0.097464
v 0.112541 0.888639 0.000000
v 0.000000 -0.236183 0.000000
v 0.000000 0.932961 0.000000
v 0.382726 -0.269382 0.115579
v 0.411195 -0.246417 0.080909
v 0.157062 -0.084346 0.080909
v 0.146948 -0.119016 0.115579
v 0.471295 -0.508654 0.115579
v 0.508265 -0.508654 0.080909
v 0.000000 -0.511044 0.115579
v 0.411195 -0.246417 -0.080909
v 0.157062 -0.084346 -0.080909
v 0.508265 -0.508654 -0.080909
v -0.146948 -0.119016 0.115579
v 0.146948 -0.119016 -0.115579
v 0.382726 -0.269382 -0.115579
v 0.000000 -0.511044 -0.115579
v 0.471295 -0.508654 -0.115579
v -0.157062 -0.084346 0.080909
v -0.382726 -0.269382 0.115579
v -0.146948 -0.119016 -0.115579
v -0.157062 -0.084346 -0.080909
v 0.382726 -0.747925 0.115579
v 0.411195 -0.770890 0.080909
v 0.411195 -0.770890 -0.080909
v -0.382726 -0.269382 -0.115579
v -0.471295 -0.508654 0.115579
v 0.382726 -0.747925 -0.115579
v -0.471295 -0.508654 -0.115579
v -0.411195 -0.246417 0.080909
v -0.411195 -0.246417 -0.080909
v 0.146948 -0.898291 0.115579
v 0.157062 -0.932961 0.080909
v 0.157062 -0.932961 -0.080909
v 0.156888 -0.667931 -0.115579
v 0.110936 -0.778868 -0.115579
v 0.110936 -0.778868 0.115579
v 0.156888 -0.667931 0.115579
v 0.146948 -0.898291 -0.115579
v -0.508265 -0.508654 0.080909
v -0.146948 -0.898291 0.115579
v -0.157062 -0.932961 0.080909
v -0.508265 -0.508654 -0.080909
v -0.110936 -0.778868 -0.115579
v -0.156888 -0.667931 -0.115579
v -0.156888 -0.667931 0.115579
v -0.110936 -0.778868 0.115579
v -0.157062 -0.932961 -0.080909
v -0.411195 -0.770890 0.080909
v -0.382726 -0.747925 0.115579
v -0.146948 -0.898291 -0.115579
v 0.110936 -0.556995 0.115579
v -0.411195 -0.770890 -0.080909
v -0.382726 -0.747925 -0.115579
v 0.000000 -0.824819 0.115579
v 0.110936 -0.556995 -0.115579
v 0.000000 -0.824819 -0.115579
v -0.110936 -0.556995 0.115579
v -0.110936 -0.556995 -0.115579
v -0.078114 0.474335 0.053893
v -0.078114 0.885295 0.053893
v -0.078114 0.885295 -0.053893
v -0.078114 0.474335 -0.053893
v -0.508265 0.770102 0.037080
v -0.508265 0.770102 -0.037080
v -0.508265 0.679815 0.037080
v -0.508265 0.679815 -0.037080
v -0.400727 0.773215 0.041283
v -0.293189 0.679815 0.045486
v -0.293189 0.679815 -0.045486
v -0.400727 0.773215 -0.041283
v -0.400727 0.866616 -0.041283
v -0.400727 0.866616 0.041283
v -0.293189 0.583301 0.045486
v -0.293189 0.583301 -0.045486
v -0.185652 0.580188 0.049690
v -0.185652 0.480561 0.049690
v -0.185652 0.480561 -0.049690
v -0.185652 0.580188 -0.049690
vt 0.745639 0.275473
vt 0.771487 0.275524
vt 0.771553 0.493915
vt 0.745263 0.493883
vt 0.797537 0.275327
vt 0.797748 0.493725
vt 0.640047 0.275856
vt 0.664903 0.275230
vt 0.667066 0.493787
vt 0.639541 0.494391
vt 0.694922 0.275360
vt 0.690900 0.493887
vt 0.719423 0.275440
vt 0.719218 0.493925
vt 0.664738 0.221774
vt 0.695666 0.221912
vt 0.680080 0.248356
vt 0.649391 0.248596
vt 0.710769 0.248875
vt 0.690978 0.535912
vt 0.666700 0.535805
vt 0.678926 0.514954
vt 0.654757 0.514672
vt 0.703096 0.514873
vt 0.868508 0.653764
vt 0.876853 0.660211
vt 0.822915 0.695280
vt 0.819912 0.685189
vt 0.886610 0.604146
vt 0.897158 0.604082
vt 0.789093 0.604177
vt 0.811986 0.594474
vt 0.492379 0.010465
vt 0.554824 0.010488
vt 0.554811 0.044012
vt 0.492367 0.043989
vt 0.434447 0.010445
vt 0.434436 0.043969
vt 0.759006 0.685495
vt 0.819113 0.685617
vt 0.868033 0.654596
vt 0.789114 0.604254
vt 0.886624 0.605180
vt 0.812101 0.594769
vt 0.755975 0.695509
vt 0.876315 0.661129
vt 0.822132 0.695636
vt 0.897172 0.605226
vt 0.710112 0.654418
vt 0.758208 0.685245
vt 0.619902 0.010514
vt 0.619889 0.044038
vt 0.868134 0.554685
vt 0.876405 0.548138
vt 0.376516 0.010426
vt 0.376506 0.043951
vt 0.709652 0.653767
vt 0.691579 0.604973
vt 0.766119 0.594664
vt 0.755193 0.695334
vt 0.876987 0.549074
vt 0.868647 0.555532
vt 0.691601 0.604135
vt 0.766229 0.594525
vt 0.701822 0.660941
vt 0.008243 0.010328
vt 0.070687 0.010344
vt 0.070679 0.043868
vt 0.008234 0.043852
vt 0.819234 0.523570
vt 0.822240 0.513554
vt 0.701299 0.660206
vt 0.314071 0.010408
vt 0.314062 0.043932
vt 0.820130 0.404455
vt 0.820107 0.379578
vt 0.867997 0.379534
vt 0.868020 0.404411
vt 0.823086 0.513912
vt 0.820076 0.523991
vt 0.681031 0.605005
vt 0.758229 0.523874
vt 0.755232 0.513789
vt 0.128619 0.010359
vt 0.128610 0.043883
vt 0.820062 0.329825
vt 0.820039 0.304949
vt 0.867928 0.304905
vt 0.867951 0.329781
vt 0.681054 0.604062
vt 0.248993 0.010391
vt 0.248985 0.043915
vt 0.701292 0.548877
vt 0.709622 0.555346
vt 0.756063 0.513597
vt 0.759058 0.523616
vt 0.186549 0.010374
vt 0.186540 0.043898
vt 0.710122 0.554691
vt 0.701856 0.548137
vt 0.788803 0.538990
vt 0.811772 0.548465
vt 0.820153 0.429332
vt 0.868043 0.429288
vt 0.821707 0.571808
vt 0.789476 0.539065
vt 0.766492 0.548516
vt 0.756544 0.571694
vt 0.812363 0.548782
vt 0.820084 0.354702
vt 0.867974 0.354658
vt 0.820016 0.280073
vt 0.867905 0.280028
vt 0.765911 0.548680
vt 0.820176 0.454208
vt 0.868066 0.454164
vt 0.819993 0.255196
vt 0.867882 0.255151
vt 0.821350 0.571418
vt 0.756885 0.571457
vt 0.968999 0.496462
vt 0.969068 0.475822
vt 0.991368 0.474607
vt 0.991084 0.559746
vt 0.975649 0.389572
vt 0.974422 0.411871
vt 0.953781 0.411929
vt 0.890510 0.389810
vt 0.967146 0.455324
vt 0.989284 0.452374
vt 0.886679 0.516828
vt 0.902043 0.516879
vt 0.901981 0.535584
vt 0.886617 0.535533
vt 0.946635 0.517028
vt 0.946701 0.497033
vt 0.924274 0.536303
vt 0.914624 0.478926
vt 0.913917 0.456632
vt 0.933204 0.434283
vt 0.933328 0.478874
vt 0.953199 0.434226
vt 0.894566 0.456686
vt 0.924210 0.555653
vt 0.988852 0.581965
vt 0.922500 0.572673
vt 0.923056 0.553365
vt 0.900886 0.550909
vt 0.913965 0.473738
vt 0.894615 0.473791
vt 0.901494 0.501525
vt 0.945961 0.498193
vt 0.953252 0.453073
vt 0.933257 0.453129
vt 0.945484 0.478225
vt 0.967669 0.475917
vt 0.974479 0.432460
vt 0.953840 0.432518
vn 0.499839 -0.025385 -0.865746
vn -0.499839 -0.025385 -0.865746
vn -0.499153 0.058162 -0.864560
vn 0.499154 0.058162 -0.864559
vn -0.499839 -0.025385 -0.865746
vn -0.999678 -0.025385 0.000000
vn -0.998307 0.058162 -0.000000
vn -0.499153 0.058162 -0.864560
vn -0.999678 -0.025385 0.000000
vn -0.499839 -0.025385 0.865746
vn -0.499154 0.058162 0.864559
vn -0.998307 0.058162 -0.000000
vn -0.499839 -0.025385 0.865746
vn 0.499839 -0.025385 0.865746
vn 0.499154 0.058162 0.864559
vn -0.499154 0.058162 0.864559
vn 0.499839 -0.025385 0.865746
vn 0.999678 -0.025385 0.000000
vn 0.998307 0.058162 0.000000
vn 0.499154 0.058162 0.864559
vn 0.999678 -0.025385 0.000000
vn 0.499839 -0.025385 -0.865746
vn 0.499154 0.058162 -0.864559
vn 0.998307 0.058162 0.000000
vn -0.499839 -0.025385 -0.865746
vn 0.499839 -0.025385 -0.865746
vn 0.000000 -1.000000 0.000000
vn -0.999678 -0.025385 0.000000
vn -0.499839 -0.025385 -0.865746
vn 0.000000 -1.000000 0.000000
vn -0.499839 -0.025385 0.865746
vn -0.999678 -0.025385 0.000000
vn 0.000000 -1.000000 0.000000
vn 0.499839 -0.025385 0.865746
vn -0.499839 -0.025385 0.865746
vn 0.000000 -1.000000 0.000000
vn 0.999678 -0.025385 0.000000
vn 0.499839 -0.025385 0.865746
vn 0.000000 -1.000000 0.000000
vn 0.499839 -0.025385 -0.865746
vn 0.999678 -0.025385 0.000000
vn 0.000000 -1.000000 0.000000
vn 0.499154 0.058162 -0.864559
vn -0.499153 0.058162 -0.864560
vn 0.000000 1.000000 0.000000
vn -0.499153 0.058162 -0.864560
vn -0.998307 0.058162 -0.000000
vn 0.000000 1.000000 0.000000
vn -0.998307 0.058162 -0.000000
vn -0.499154 0.058162 0.864559
vn 0.000000 1.000000 0.000000
vn -0.499154 0.058162 0.864559
vn 0.499154 0.058162 0.864559
vn 0.000000 1.000000 0.000000
vn 0.499154 0.058162 0.864559
vn 0.998307 0.058162 0.000000
vn 0.000000 1.000000 0.000000
vn 0.998307 0.058162 0.000000
vn 0.499154 0.058162 -0.864559
vn 0.000000 1.000000 0.000000
vn 0.529392 0.439379 0.725734
vn 0.529392 0.439379 0.725734
vn 0.189548 0.666088 0.721386
vn 0.189548 0.666088 0.721386
vn 0.529392 0.439379 0.725734
vn 0.529392 0.439379 0.725734
vn 0.684062 -0.000000 0.729424
vn 0.684062 0.000000 0.729424
vn 0.000000 0.000000 1.000000
vn 0.000000 0.000000 1.000000
vn 0.000000 0.000000 1.000000
vn 0.000000 0.000000 1.000000
vn 0.000000 0.000000 1.000000
vn 0.000000 0.000000 1.000000
vn 0.000000 0.000000 1.000000
vn 0.770349 0.637623 0.000000
vn 0.274270 0.961653 0.000000
vn 0.274270 0.961653 0.000000
vn 0.770349 0.637623 0.000000
vn 1.000000 -0.000000 0.000000
vn 0.770349 0.637623 0.000000
vn 0.770349 0.637623 0.000000
vn 1.000000 -0.000000 0.000000
vn 0.000000 0.000000 1.000000
vn 0.000000 0.000000 1.000000
vn 0.000000 0.000000 1.000000
vn 0.000000 0.000000 -1.000000
vn 0.000000 0.000000 -1.000000
vn 0.000000 0.000000 -1.000000
vn 0.000000 0.000000 -1.000000
vn 0.000000 0.000000 -1.000000
vn 0.000000 0.000000 -1.000000
vn 0.000000 0.000000 -1.000000
vn 0.189548 0.666088 0.721386
vn 0.189548 0.666088 0.721386
vn -0.189548 0.666089 0.721386
vn -0.189548 0.666089 0.721386
vn 0.529392 0.439379 -0.725734
vn 0.529392 0.439379 -0.725734
vn 0.189548 0.666089 -0.721386
vn 0.189548 0.666089 -0.721386
vn 0.529392 0.439379 -0.725734
vn 0.529392 0.439379 -0.725734
vn 0.684062 0.000000 -0.729424
vn 0.684062 0.000000 -0.729424
vn 0.000000 0.000000 1.000000
vn 0.000000 0.000000 1.000000
vn 0.000000 0.000000 1.000000
vn -0.000000 0.000000 -1.000000
vn 0.000000 0.000000 -1.000000
vn 0.000000 0.000000 -1.000000
vn 0.274270 0.961653 0.000000
vn -0.274270 0.961653 0.000000
vn -0.274270 0.961653 0.000000
vn 0.274270 0.961653 0.000000
vn 0.529392 -0.439380 0.725734
vn 0.529393 -0.439379 0.725734
vn 0.684062 0.000000 0.729424
vn 0.684062 -0.000000 0.729424
vn 0.770349 -0.637623 0.000000
vn 1.000000 -0.000000 0.000000
vn 1.000000 -0.000000 0.000000
vn 0.770349 -0.637623 0.000000
vn -0.000000 0.000000 -1.000000
vn -0.000000 0.000000 -1.000000
vn 0.000000 0.000000 -1.000000
vn 0.000000 0.000000 1.000000
vn 0.000000 0.000000 1.000000
vn 0.000000 0.000000 1.000000
vn 0.000000 0.000000 1.000000
vn 0.189548 0.666089 -0.721386
vn 0.189548 0.666089 -0.721386
vn -0.189548 0.666089 -0.721386
vn -0.189548 0.666089 -0.721386
vn 0.529393 -0.439380 -0.725733
vn 0.529392 -0.439380 -0.725733
vn 0.684062 0.000000 -0.729424
vn 0.684062 0.000000 -0.729424
vn 0.000000 0.000000 -1.000000
vn -0.000000 0.000000 -1.000000
vn 0.000000 0.000000 -1.000000
vn 0.000000 0.000000 -1.000000
vn -0.189548 0.666089 0.721386
vn -0.189548 0.666089 0.721386
vn -0.529392 0.439379 0.725734
vn -0.529392 0.439379 0.725734
vn -0.274270 0.961653 0.000000
vn -0.770349 0.637623 0.000000
vn -0.770349 0.637623 0.000000
vn -0.274270 0.961653 0.000000
vn 0.189548 -0.666089 0.721385
vn 0.189549 -0.666089 0.721385
vn 0.529393 -0.439379 0.725734
vn 0.529392 -0.439380 0.725734
vn -0.189548 0.666089 -0.721386
vn -0.189548 0.666089 -0.721386
vn -0.529392 0.439379 -0.725734
vn -0.529392 0.439379 -0.725734
vn 0.274271 -0.961653 0.000000
vn 0.770349 -0.637623 0.000000
vn 0.770349 -0.637623 0.000000
vn 0.274271 -0.961653 0.000000
vn -1.000000 0.000000 0.000000
vn -0.707107 0.707107 0.000000
vn -0.707107 0.707107 0.000000
vn -1.000000 0.000000 0.000000
vn 0.189549 -0.666089 -0.721385
vn 0.189548 -0.666089 -0.721385
vn 0.529392 -0.439380 -0.725733
vn 0.529393 -0.439380 -0.725733
vn -0.529392 0.439379 0.725734
vn -0.529392 0.439379 0.725734
vn -0.684062 0.000000 0.729424
vn -0.684062 0.000000 0.729424
vn -0.189548 -0.666089 0.721385
vn -0.189548 -0.666089 0.721385
vn 0.189549 -0.666089 0.721385
vn 0.189548 -0.666089 0.721385
vn -0.770349 0.637623 0.000000
vn -1.000000 0.000000 0.000000
vn -1.000000 0.000000 0.000000
vn -0.770349 0.637623 0.000000
vn 0.707107 0.707107 0.000000
vn 1.000000 0.000000 0.000000
vn 1.000000 0.000000 0.000000
vn 0.707107 0.707107 0.000000
vn -0.529392 0.439379 -0.725734
vn -0.529392 0.439379 -0.725734
vn -0.684062 0.000000 -0.729424
vn -0.684062 0.000000 -0.729424
vn -0.274270 -0.961653 0.000000
vn 0.274271 -0.961653 0.000000
vn 0.274271 -0.961653 0.000000
vn -0.274270 -0.961653 0.000000
vn -0.684062 0.000000 0.729424
vn -0.684062 0.000000 0.729424
vn -0.529392 -0.439379 0.725734
vn -0.529392 -0.439379 0.725734
vn -0.529392 -0.439379 0.725734
vn -0.529392 -0.439379 0.725734
vn -0.189548 -0.666089 0.721385
vn -0.189548 -0.666089 0.721385
vn -0.189548 -0.666089 -0.721385
vn -0.189548 -0.666089 -0.721385
vn 0.189548 -0.666089 -0.721385
vn 0.189549 -0.666089 -0.721385
vn -1.000000 0.000000 0.000000
vn -0.770349 -0.637623 0.000000
vn -0.770349 -0.637623 0.000000
vn -1.000000 0.000000 0.000000
vn -0.770349 -0.637623 0.000000
vn -0.274270 -0.961653 0.000000
vn -0.274270 -0.961653 0.000000
vn -0.770349 -0.637623 0.000000
vn -0.684062 0.000000 -0.729424
vn -0.684062 0.000000 -0.729424
vn -0.529392 -0.439379 -0.725734
vn -0.529392 -0.439379 -0.725734
vn -0.529392 -0.439379 -0.725734
vn -0.529392 -0.439379 -0.725734
vn -0.189548 -0.666089 -0.721385
vn -0.189548 -0.666089 -0.721385
vn 0.000000 0.000000 1.000000
vn 0.000000 0.000000 1.000000
vn 0.000000 0.000000 1.000000
vn -0.707107 -0.707107 0.000000
vn -1.000000 0.000000 0.000000
vn -1.000000 0.000000 0.000000
vn -0.707107 -0.707107 0.000000
vn 0.000000 0.000000 -1.000000
vn 0.000000 0.000000 -1.000000
vn 0.000000 0.000000 -1.000000
vn 0.000000 0.000000 -1.000000
vn 0.000000 0.000000 -1.000000
vn -0.000000 0.000000 -1.000000
vn -0.000000 0.000000 -1.000000
vn 0.000000 0.000000 1.000000
vn 0.000000 0.000000 1.000000
vn 0.000000 0.000000 1.000000
vn 0.000000 0.000000 1.000000
vn 0.000000 0.000000 -1.000000
vn 0.000000 0.000000 -1.000000
vn 0.000000 0.000000 -1.000000
vn 0.000000 0.000000 -1.000000
vn -0.707107 0.707107 0.000000
vn 0.000000 1.000000 0.000000
vn 0.000000 1.000000 0.000000
vn -0.707107 0.707107 0.000000
vn 1.000000 0.000000 0.000000
vn 0.707107 -0.707107 0.000000
vn 0.707107 -0.707107 0.000000
vn 1.000000 0.000000 0.000000
vn 0.000000 0.000000 1.000000
vn 0.000000 0.000000 1.000000
vn 0.000000 0.000000 1.000000
vn 0.000000 0.000000 1.000000
vn 0.000000 1.000000 0.000000
vn 0.707107 0.707107 0.000000
vn 0.707107 0.707107 0.000000
vn 0.000000 1.000000 0.000000
vn 0.000000 -1.000000 0.000000
vn -0.707107 -0.707107 0.000000
vn -0.707107 -0.707107 0.000000
vn 0.000000 -1.000000 0.000000
vn 0.707107 -0.707107 0.000000
vn 0.000000 -1.000000 0.000000
vn 0.000000 -1.000000 0.000000
vn 0.707107 -0.707107 0.000000
vn 0.000000 0.000000 1.000000
vn 0.000000 0.000000 1.000000
vn 0.000000 0.000000 1.000000
vn 0.000000 0.000000 1.000000
vn -0.000000 0.000000 -1.000000
vn -0.000000 0.000000 -1.000000
vn -0.000000 0.000000 -1.000000
vn -0.000000 0.000000 -1.000000
vn 0.000000 0.000000 1.000000
vn 0.000000 0.000000 1.000000
vn 0.000000 0.000000 1.000000
vn 0.000000 0.000000 1.000000
vn -0.000000 0.000000 -1.000000
vn 0.000000 0.000000 -1.000000
vn 0.000000 0.000000 -1.000000
vn -0.000000 0.000000 -1.000000
vn 0.000000 0.000000 1.000000
vn 0.000000 0.000000 1.000000
vn 0.000000 0.000000 1.000000
vn 0.000000 0.000000 1.000000
vn 0.000000 0.000000 -1.000000
vn -0.000000 0.000000 -1.000000
vn 0.000000 0.000000 -1.000000
vn 0.000000 0.000000 -1.000000
vn -0.039058 0.000000 0.999237
vn -0.039058 0.000000 0.999237
vn -0.039058 0.000000 0.999237
vn -0.039058 0.000000 0.999237
vn -0.039058 0.000000 -0.999237
vn -0.039058 0.000000 -0.999237
vn -0.039058 0.000000 -0.999237
vn -0.039058 0.000000 -0.999237
vn -0.057803 -0.998328 0.000000
vn -0.057803 -0.998328 0.000000
vn -0.057803 -0.998328 0.000000
vn -0.057803 -0.998328 0.000000
vn -1.000000 0.000000 0.000000
vn -1.000000 0.000000 0.000000
vn -1.000000 0.000000 0.000000
vn -1.000000 0.000000 0.000000
vn -0.039058 0.000000 0.999237
vn -0.039058 0.000000 0.999237
vn -0.039058 0.000000 0.999237
vn -0.039058 0.000000 0.999237
vn -0.039058 0.000000 0.999237
vn -0.039058 0.000000 0.999237
vn -0.039058 0.000000 0.999237
vn -0.039058 0.000000 0.999237
vn -0.039058 0.000000 -0.999237
vn -0.039058 0.000000 -0.999237
vn -0.039058 0.000000 -0.999237
vn -0.039058 0.000000 -0.999237
vn -0.039058 0.000000 0.999237
vn -0.039058 0.000000 0.999237
vn -0.039058 0.000000 0.999237
vn -0.039058 0.000000 -0.999237
vn -0.039058 0.000000 -0.999237
vn -0.039058 0.000000 -0.999237
vn -0.039058 0.000000 -0.999237
vn -0.039058 0.000000 -0.999237
vn -0.039058 0.000000 -0.999237
vn -0.039058 0.000000 -0.999237
vn -0.039058 0.000000 -0.999237
vn -0.039058 0.000000 -0.999237
vn -0.039058 0.000000 -0.999237
vn -0.057802 0.998328 0.000000
vn -0.057802 0.998328 0.000000
vn -0.057802 0.998328 0.000000
vn -0.057802 0.998328 0.000000
vn -0.039058 0.000000 0.999237
vn -0.039058 0.000000 0.999237
vn -0.039058 0.000000 0.999237
vn -0.028937 0.999581 0.000000
vn -0.028937 0.999581 0.000000
vn -0.028937 0.999581 0.000000
vn -0.028937 0.999581 0.000000
vn -1.000000 0.000000 0.000000
vn -1.000000 0.000000 0.000000
vn -1.000000 0.000000 0.000000
vn -1.000000 0.000000 0.000000
vn -0.452233 -0.891900 0.000000
vn 0.000000 -1.000000 0.000000
vn 0.000000 -1.000000 0.000000
vn -0.452233 -0.891900 0.000000
vn -1.000000 0.000000 0.000000
vn -0.452233 -0.891900 0.000000
vn -0.452233 -0.891900 0.000000
vn -1.000000 0.000000 0.000000
vn -0.028937 -0.999581 0.000000
vn -0.028937 -0.999581 0.000000
vn -0.028937 -0.999581 0.000000
vn -0.028937 -0.999581 0.000000
vn -1.000000 0.000000 0.000000
vn -1.000000 0.000000 0.000000
vn -1.000000 0.000000 0.000000
vn -1.000000 0.000000 0.000000
s off
g pCylinder45
usemtl blinn1SG
f 1/1/1 2/2/2 8/3/3 7/4/4
f 2/2/5 3/5/6 9/6/7 8/3/8
f 3/7/9 4/8/10 10/9/11 9/10/12
f 4/8/13 5/11/14 11/12/15 10/9/16
f 5/11/17 6/13/18 12/14/19 11/12/20
f 6/13/21 1/1/22 7/4/23 12/14/24
f 2/15/25 1/16/26 13/17/27
f 3/18/28 2/15/29 13/17/30
f 4/8/31 3/18/32 13/17/33
f 5/11/34 4/8/35 13/17/36
f 6/19/37 5/11/38 13/17/39
f 1/16/40 6/19/41 13/17/42
f 7/20/43 8/21/44 14/22/45
f 8/21/46 9/23/47 14/22/48
f 9/23/49 10/9/50 14/22/51
f 10/9/52 11/12/53 14/22/54
f 11/12/55 12/24/56 14/22/57
f 12/24/58 7/20/59 14/22/60
f 15/25/61 16/26/62 17/27/63 18/28/64
f 16/26/65 15/25/66 19/29/67 20/30/68
f 15/25/69 18/28/70 21/31/71
f 19/29/72 15/25/73 21/31/74 63/32/75
f 22/33/76 23/34/77 17/35/78 16/36/79
f 24/37/80 22/33/81 16/36/82 20/38/83
f 18/28/84 25/39/85 21/31/86
f 26/40/87 27/41/88 28/42/89
f 28/42/90 27/41/91 29/43/92 67/44/93
f 18/28/94 17/27/95 30/45/96 25/39/97
f 22/46/98 27/41/99 26/40/100 23/47/101
f 27/41/102 22/46/103 24/48/104 29/43/105
f 25/39/106 31/49/107 21/31/108
f 32/50/109 26/40/110 28/42/111
f 23/34/112 33/51/113 30/52/114 17/35/115
f 34/53/116 35/54/117 20/30/118 19/29/119
f 36/55/120 24/37/121 20/38/122 35/56/123
f 37/57/124 32/50/125 28/42/126
f 21/31/127 31/49/128 38/58/129 69/59/130
f 23/47/131 26/40/132 32/50/133 33/60/134
f 36/61/135 39/62/136 29/43/137 24/48/138
f 40/63/139 37/57/140 28/42/141 70/64/142
f 25/39/143 30/45/144 41/65/145 31/49/146
f 33/66/147 42/67/148 41/68/149 30/69/150
f 43/70/151 44/71/152 35/54/153 34/53/154
f 33/60/155 32/50/156 37/57/157 42/72/158
f 45/73/159 36/55/160 35/56/161 44/74/162
f 46/75/163 47/76/164 48/77/165 49/78/166
f 45/79/167 50/80/168 39/62/169 36/61/170
f 31/49/171 41/65/172 51/81/173 38/58/174
f 52/82/175 53/83/176 44/71/177 43/70/178
f 42/67/179 54/84/180 51/85/181 41/68/182
f 55/86/183 56/87/184 57/88/185 58/89/186
f 42/72/187 37/57/188 40/63/189 54/90/190
f 59/91/191 45/73/192 44/74/193 53/92/194
f 38/58/195 51/81/196 60/93/197 61/94/198
f 61/94/199 60/93/200 53/83/201 52/82/202
f 59/95/203 62/96/204 50/80/205 45/79/206
f 54/84/207 64/97/208 60/98/209 51/85/210
f 64/97/211 59/91/212 53/92/213 60/98/214
f 54/90/215 40/63/216 65/99/217 64/100/218
f 64/100/219 65/99/220 62/96/221 59/95/222
f 66/101/223 43/70/224 48/102/225
f 67/103/226 46/75/227 49/78/228 63/104/229
f 67/44/230 29/43/231 39/62/232 46/105/233
f 68/106/234 62/96/235 55/107/236
f 69/59/237 38/58/238 61/94/239 57/108/240
f 39/62/241 50/80/242 47/109/243 46/105/244
f 47/76/245 68/110/246 66/111/247 48/77/248
f 56/87/249 70/112/250 69/113/251 57/88/252
f 61/94/253 52/82/254 58/114/255 57/108/256
f 68/110/257 55/86/258 58/89/259 66/111/260
f 28/115/261 67/103/262 63/104/263 21/116/264
f 70/112/265 28/117/266 21/118/267 69/113/268
f 43/70/269 34/53/270 49/119/271 48/102/272
f 62/96/273 65/99/274 56/120/275 55/107/276
f 34/53/277 19/29/278 63/32/279 49/119/280
f 65/99/281 40/63/282 70/64/283 56/120/284
f 52/82/285 43/70/286 66/101/287 58/114/288
f 50/80/289 62/96/290 68/106/291 47/109/292
f 87/121/293 88/122/294 71/123/295 72/124/296
f 74/125/297 89/126/298 90/127/299 73/128/300
f 89/129/301 74/130/302 71/123/303 88/122/304
f 78/131/305 77/132/306 75/133/307 76/134/308
f 87/121/309 72/124/310 80/135/311 85/136/312
f 77/132/313 80/135/314 79/137/315 75/133/316
f 76/138/317 82/139/318 81/140/319 78/141/320
f 80/135/321 72/124/322 79/137/323
f 81/140/324 73/128/325 90/127/326 86/142/327
f 82/139/328 73/128/329 81/140/330
f 83/143/331 73/128/332 82/139/333
f 84/144/334 72/124/335 73/145/336 83/146/337
f 84/144/338 79/137/339 72/124/340
f 75/133/341 79/137/342 82/147/343 76/148/344
f 79/149/345 84/150/346 83/143/347 82/139/348
f 80/135/349 77/132/350 78/151/351 81/152/352
f 85/153/353 80/154/354 81/140/355 86/142/356
f 87/121/357 85/136/358 86/155/359 90/156/360
f 88/157/361 87/158/362 90/127/363 89/126/364
