# This file uses centimeters as units for non-parametric coordinates.

mtllib LizEggPhoto02.mtl
g default
v 1.063189 0.276329 0.471072
v 1.063189 1.784105 0.031824
v -1.063193 0.276254 0.470814
v -1.063193 1.784030 0.031566
v -1.063172 0.230229 0.312828
v -1.063172 1.738005 -0.126420
v 1.063210 0.230304 0.313085
v 1.063210 1.738080 -0.126163
v -1.063209 0.314293 0.601387
v -1.063209 1.822068 0.162139
v 1.063172 0.314368 0.601645
v 1.063172 1.822144 0.162397
v -1.119916 2.010301 -0.205753
v -1.346788 1.792477 -0.142326
v -1.119954 2.094365 0.082806
v -1.346828 1.876541 0.146233
v -1.346788 0.175737 0.328665
v -1.119916 -0.042071 0.392148
v -1.119954 0.041992 0.680707
v -1.346828 0.259801 0.617225
v 1.119957 -0.041992 0.392419
v 1.346828 0.175832 0.328992
v 1.119919 0.042071 0.680978
v 1.346789 0.259896 0.617551
v 1.346828 1.792572 -0.142000
v 1.119957 2.010381 -0.205482
v 1.119919 2.094444 0.083077
v 1.346789 1.876636 0.146560
v 0.118283 0.243264 -0.676106
v -0.118283 0.243264 -0.676106
v -0.236566 0.106270 -0.523774
v -0.118283 -0.030725 -0.371442
v 0.118283 -0.030725 -0.371442
v 0.236566 0.106270 -0.523774
v 0.085248 1.076311 0.110516
v -0.085248 1.076311 0.110516
v -0.170497 0.956556 0.196892
v -0.085248 0.836802 0.283268
v 0.085248 0.836802 0.283268
v 0.170497 0.956556 0.196892
v 0.000000 0.038589 -0.584639
vt 0.830555 0.071226
vt 0.830555 0.234635
vt 0.618607 0.234635
vt 0.618607 0.071226
vt 0.310789 0.849486
vt 0.324949 0.849486
vt 0.324949 0.928825
vt 0.310789 0.928825
vt 0.269039 0.984104
vt 0.192391 0.984104
vt 0.192391 0.884688
vt 0.269039 0.884688
vt 0.263817 0.860601
vt 0.249694 0.860601
vt 0.249697 0.755343
vt 0.263821 0.755344
vt 0.203299 0.860673
vt 0.192624 0.871347
vt 0.189954 0.858002
vt 0.217439 0.755289
vt 0.228113 0.744616
vt 0.230783 0.757959
vt 0.274483 0.744683
vt 0.277149 0.758011
vt 0.217439 0.860673
vt 0.230783 0.858002
vt 0.228113 0.871347
vt 0.236366 0.857934
vt 0.236370 0.758009
vt 0.291019 0.926151
vt 0.291019 0.852159
vt 0.297426 0.852159
vt 0.297426 0.926151
vt 0.889742 0.156708
vt 0.889743 0.230841
vt 0.883322 0.230841
vt 0.883322 0.156708
vt 0.855747 0.154029
vt 0.869934 0.154029
vt 0.869934 0.233520
vt 0.855747 0.233520
vt 0.183556 0.858003
vt 0.183556 0.757959
vt 0.189954 0.757959
vt 0.203299 0.755289
vt 0.283540 0.758011
vt 0.283537 0.857935
vt 0.277146 0.857934
vt 0.217438 0.875768
vt 0.203298 0.875768
vt 0.249694 0.875678
vt 0.263817 0.875678
vt 0.249698 0.740266
vt 0.263822 0.740267
vt 0.217438 0.740194
vt 0.203298 0.740194
vt 0.274478 0.871263
vt 0.338312 0.852159
vt 0.338312 0.926151
vt 0.239033 0.871261
vt 0.239037 0.744682
vt 0.842358 0.230841
vt 0.842358 0.156708
vt 0.192624 0.744616
vt 0.403539 0.910473
vt 0.391044 0.910813
vt 0.391118 0.851602
vt 0.399928 0.851355
vt 0.378821 0.910730
vt 0.382444 0.853155
vt 0.366625 0.909928
vt 0.373696 0.854185
vt 0.354548 0.908024
vt 0.364986 0.852815
vt 0.427878 0.908107
vt 0.415743 0.909652
vt 0.408683 0.852389
vt 0.417474 0.852888
vt 0.397556 0.921692
vt 0.384869 0.921929
vt 0.391452 0.932810
vt 0.404172 0.932502
vt 0.410224 0.921304
vn -0.000127 0.279695 0.960089
vn -0.000127 0.279695 0.960089
vn -0.000127 0.279695 0.960089
vn -0.000127 0.279695 0.960089
vn -1.000000 -0.000037 -0.000127
vn -1.000000 -0.000037 -0.000127
vn -1.000000 -0.000037 -0.000127
vn -1.000000 -0.000037 -0.000127
vn 0.000127 -0.279695 -0.960089
vn 0.000127 -0.279695 -0.960089
vn 0.000127 -0.279695 -0.960089
vn 0.000127 -0.279695 -0.960089
vn 0.000000 -0.960089 0.279695
vn 0.000000 -0.960089 0.279695
vn 0.000000 -0.960089 0.279695
vn 0.000000 -0.960089 0.279695
vn -0.000125 0.279695 0.960089
vn -0.000125 0.279695 0.960089
vn -0.000125 0.279695 0.960089
vn 0.000127 -0.279695 -0.960089
vn 0.000127 -0.279695 -0.960089
vn 0.000127 -0.279695 -0.960089
vn -0.000126 0.279695 0.960089
vn -0.000126 0.279695 0.960089
vn -0.000126 0.279695 0.960089
vn 0.000127 -0.279695 -0.960089
vn 0.000127 -0.279695 -0.960089
vn 0.000127 -0.279695 -0.960089
vn 0.000126 -0.279695 -0.960089
vn 0.000126 -0.279695 -0.960089
vn 0.000126 -0.279695 -0.960089
vn 0.000126 -0.279695 -0.960089
vn 1.000000 0.000034 0.000117
vn 1.000000 0.000034 0.000117
vn 1.000000 0.000034 0.000117
vn 1.000000 0.000034 0.000117
vn -1.000000 -0.000036 -0.000124
vn -1.000000 -0.000036 -0.000124
vn -1.000000 -0.000036 -0.000124
vn -1.000000 -0.000036 -0.000124
vn 1.000000 0.000035 0.000122
vn 1.000000 0.000035 0.000122
vn 1.000000 0.000035 0.000122
vn 1.000000 0.000035 0.000122
vn 0.000000 -0.960089 0.279695
vn 0.000000 -0.960089 0.279695
vn 0.000000 -0.960089 0.279695
vn 0.000000 -0.960089 0.279695
vn 0.000000 0.960089 -0.279695
vn 0.000000 0.960089 -0.279695
vn 0.000000 0.960089 -0.279695
vn 0.000000 0.960089 -0.279695
vn 0.000000 0.960089 -0.279695
vn 0.000000 0.960089 -0.279695
vn 0.000000 0.960089 -0.279695
vn 0.000000 0.960089 -0.279695
vn -0.707103 0.678863 -0.197862
vn -0.707103 0.678863 -0.197862
vn -0.707103 0.678863 -0.197862
vn -0.707103 0.678863 -0.197862
vn -0.707103 -0.678914 0.197688
vn -0.707103 -0.678914 0.197688
vn -0.707103 -0.678914 0.197688
vn -0.707103 -0.678914 0.197688
vn 0.707107 -0.678860 0.197860
vn 0.707107 -0.678860 0.197860
vn 0.707107 -0.678860 0.197860
vn 0.707107 -0.678860 0.197860
vn 0.707107 0.678910 -0.197688
vn 0.707107 0.678910 -0.197688
vn 0.707108 0.678910 -0.197688
vn 0.707108 0.678910 -0.197688
vn -0.000125 0.279695 0.960089
vn -0.000125 0.279695 0.960089
vn -0.000125 0.279695 0.960089
vn -0.000125 0.279695 0.960089
vn -0.000125 0.279695 0.960089
vn -0.000125 0.279695 0.960089
vn -0.000125 0.279695 0.960089
vn -0.000127 0.279695 0.960089
vn -0.000126 0.279695 0.960089
vn -0.000127 0.279695 0.960089
vn -0.000126 0.279695 0.960089
vn 0.000127 -0.279695 -0.960089
vn 0.000127 -0.279695 -0.960089
vn 0.000127 -0.279695 -0.960089
vn 0.000127 -0.279695 -0.960089
vn 0.000127 -0.279695 -0.960089
vn 0.000127 -0.279695 -0.960089
vn 0.000127 -0.279695 -0.960089
vn 0.000126 -0.279695 -0.960089
vn 0.000126 -0.279695 -0.960089
vn 0.000126 -0.279695 -0.960089
vn 0.000127 -0.279695 -0.960089
vn 0.000127 -0.279695 -0.960089
vn 0.000127 -0.279695 -0.960089
vn 0.000127 -0.279695 -0.960089
vn 0.000126 -0.279695 -0.960089
vn 0.000126 -0.279695 -0.960089
vn 0.000126 -0.279695 -0.960089
vn 0.000126 -0.279695 -0.960089
vn -0.000126 0.279695 0.960089
vn -0.000126 0.279695 0.960089
vn -0.000126 0.279695 0.960089
vn -0.000126 0.279695 0.960089
vn -0.000126 0.279695 0.960089
vn -0.000126 0.279695 0.960089
vn -0.000126 0.279695 0.960089
vn -0.000126 0.279695 0.960089
vn -0.000127 0.279695 0.960089
vn -0.000126 0.279695 0.960089
vn -0.000127 0.279695 0.960089
vn 0.496840 0.543808 -0.676331
vn -0.496839 0.543808 -0.676331
vn -0.458475 0.619591 -0.637110
vn 0.458475 0.619591 -0.637109
vn -0.496839 0.543808 -0.676331
vn -0.999640 -0.023065 -0.013693
vn -0.995106 0.096572 -0.020910
vn -0.458475 0.619591 -0.637110
vn -0.999640 -0.023065 -0.013693
vn -0.492764 -0.582575 0.646367
vn -0.525605 -0.500640 0.687822
vn -0.995106 0.096572 -0.020910
vn -0.492764 -0.582575 0.646367
vn 0.492764 -0.582575 0.646367
vn 0.525605 -0.500640 0.687822
vn -0.525605 -0.500640 0.687822
vn 0.492764 -0.582575 0.646367
vn 0.999640 -0.023065 -0.013693
vn 0.995106 0.096572 -0.020910
vn 0.525605 -0.500640 0.687822
vn 0.999640 -0.023065 -0.013693
vn 0.496840 0.543808 -0.676331
vn 0.458475 0.619591 -0.637109
vn 0.995106 0.096572 -0.020910
vn -0.496839 0.543808 -0.676331
vn 0.496840 0.543808 -0.676331
vn 0.000000 -0.743547 -0.668684
vn -0.999640 -0.023065 -0.013693
vn -0.496839 0.543808 -0.676331
vn 0.000000 -0.743547 -0.668684
vn -0.492764 -0.582575 0.646367
vn -0.999640 -0.023065 -0.013693
vn 0.000000 -0.743547 -0.668684
vn 0.492764 -0.582575 0.646367
vn -0.492764 -0.582575 0.646367
vn 0.000000 -0.743547 -0.668684
vn 0.999640 -0.023065 -0.013693
vn 0.492764 -0.582575 0.646367
vn 0.000000 -0.743547 -0.668684
vn 0.496840 0.543808 -0.676331
vn 0.999640 -0.023065 -0.013693
vn 0.000000 -0.743547 -0.668684
s off
g pCube69
usemtl blinn1SG
f 1/1/1 2/2/2 4/3/3 3/4/4
f 16/5/5 14/6/6 17/7/7 20/8/8
f 5/9/9 6/10/10 8/11/11 7/12/12
f 19/13/13 18/14/14 21/15/15 23/16/16
f 15/17/17 16/18/18 10/19/19
f 26/20/20 25/21/21 8/22/22
f 23/16/23 24/23/24 11/24/25
f 13/25/26 6/26/27 14/27/28
f 5/28/29 7/29/30 21/15/31 18/14/32
f 3/30/33 4/31/34 10/32/35 9/33/36
f 2/34/37 1/35/38 11/36/39 12/37/40
f 25/38/41 28/39/42 24/40/43 22/41/44
f 4/42/45 2/43/46 12/44/47 10/19/48
f 13/25/49 15/17/50 27/45/51 26/20/52
f 1/46/53 3/47/54 9/48/55 11/24/56
f 13/25/57 14/49/58 16/50/59 15/17/60
f 17/51/61 18/14/62 19/13/63 20/52/64
f 21/15/65 22/53/66 24/54/67 23/16/68
f 25/55/69 26/20/70 27/45/71 28/56/72
f 19/13/73 9/48/74 20/57/75
f 9/33/76 10/32/77 16/5/78 20/8/79
f 10/19/80 12/44/81 27/45/82 15/17/83
f 6/58/84 5/59/85 17/7/86 14/6/87
f 18/14/88 17/60/89 5/28/90
f 21/15/91 7/29/92 22/61/93
f 7/62/94 8/63/95 25/38/96 22/41/97
f 8/22/98 6/26/99 13/25/100 26/20/101
f 27/45/102 12/44/103 28/64/104
f 12/37/105 11/36/106 24/40/107 28/39/108
f 11/24/109 9/48/110 19/13/111 23/16/112
f 29/65/113 30/66/114 36/67/115 35/68/116
f 30/66/117 31/69/118 37/70/119 36/67/120
f 31/69/121 32/71/122 38/72/123 37/70/124
f 32/71/125 33/73/126 39/74/127 38/72/128
f 33/75/129 34/76/130 40/77/131 39/78/132
f 34/76/133 29/65/134 35/68/135 40/77/136
f 30/66/137 29/65/138 41/79/139
f 31/80/140 30/66/141 41/79/142
f 32/81/143 31/80/144 41/79/145
f 33/82/146 32/81/147 41/79/148
f 34/83/149 33/82/150 41/79/151
f 29/65/152 34/83/153 41/79/154
