# This file uses centimeters as units for non-parametric coordinates.

mtllib MagnifyingGlass.mtl
g default
v 0.000000 0.200095 2.138724
v 0.144180 0.449821 1.949077
v 0.093242 0.361595 2.068000
v -0.144179 0.449821 1.949077
v -0.093242 0.361595 2.068000
v -0.288359 0.200095 1.949077
v -0.186484 0.200095 2.068000
v -0.144180 -0.049632 1.949077
v -0.093242 0.038594 2.068000
v 0.144180 -0.049632 1.949077
v 0.093242 0.038594 2.068000
v 0.288359 0.200095 1.949077
v 0.186484 0.200095 2.068000
v -0.188052 0.200095 0.033978
v -0.094026 0.362952 0.033978
v 0.094026 0.362952 0.033978
v 0.188052 0.200095 0.033978
v 0.094026 0.037237 0.033978
v -0.094026 0.037237 0.033978
v 0.060714 0.305254 -0.243688
v -0.060714 0.305254 -0.243688
v -0.067078 0.316277 0.035706
v 0.067078 0.316277 0.035706
v -0.121428 0.200095 -0.243688
v -0.134156 0.200095 0.035706
v -0.060714 0.094935 -0.243688
v -0.067078 0.083912 0.035706
v 0.060714 0.094935 -0.243688
v 0.067078 0.083912 0.035706
v 0.121428 0.200095 -0.243688
v 0.134156 0.200095 0.035706
v 0.673612 0.200095 -1.859705
v 0.000000 0.200095 -2.138724
v -0.673612 0.200095 -1.859705
v -0.952631 0.200095 -1.186093
v -0.673612 0.200095 -0.512481
v 0.000000 0.200095 -0.233461
v 0.673612 0.200095 -0.512481
v 0.952631 0.200095 -1.186093
v 0.000000 0.401664 -1.186093
v 0.000000 0.344036 -0.678467
v 0.358946 0.344036 -0.827147
v 0.507626 0.344036 -1.186093
v 0.358946 0.344036 -1.545038
v 0.000000 0.344036 -1.693718
v -0.358946 0.344036 -1.545038
v -0.507626 0.344036 -1.186093
v -0.358946 0.344036 -0.827147
v -0.673612 0.200095 -1.859705
v 0.000000 0.200095 -2.138724
v 0.673612 0.200095 -1.859705
v 0.952631 0.200095 -1.186093
v 0.673612 0.200095 -0.512481
v 0.000000 0.200095 -0.233461
v -0.673612 0.200095 -0.512481
v -0.952631 0.200095 -1.186093
v 0.000000 -0.001475 -1.186093
v 0.000000 0.056153 -0.678467
v -0.358945 0.056153 -0.827147
v -0.507626 0.056153 -1.186093
v -0.358945 0.056153 -1.545038
v 0.000000 0.056153 -1.693718
v 0.358946 0.056153 -1.545038
v 0.507626 0.056153 -1.186093
v 0.358946 0.056153 -0.827147
v 0.809017 0.000000 -1.773878
v 0.309017 0.000000 -2.137149
v -0.309017 0.000000 -2.137149
v -0.809017 0.000000 -1.773878
v -1.000000 0.000000 -1.186093
v -0.809017 0.000000 -0.598307
v -0.309017 0.000000 -0.235036
v 0.309017 0.000000 -0.235036
v 0.809017 0.000000 -0.598307
v 1.000000 0.000000 -1.186093
v 0.809017 0.400189 -1.773878
v 0.309017 0.400189 -2.137149
v -0.309017 0.400189 -2.137149
v -0.809017 0.400189 -1.773878
v -1.000000 0.400189 -1.186093
v -0.809017 0.400189 -0.598307
v -0.309017 0.400189 -0.235036
v 0.309017 0.400189 -0.235036
v 0.809017 0.400189 -0.598307
v 1.000000 0.400189 -1.186093
v -0.710495 0.400189 -1.702297
v -0.878219 0.400189 -1.186093
v -0.710495 0.400189 -0.669888
v -0.271385 0.400189 -0.350856
v 0.271385 0.400189 -0.350856
v 0.710495 0.400189 -0.669888
v 0.878220 0.400189 -1.186093
v 0.710495 0.400189 -1.702297
v 0.271385 0.400189 -2.021329
v -0.271385 0.400189 -2.021329
v -0.710495 0.000000 -0.669888
v -0.878219 0.000000 -1.186093
v -0.710495 0.000000 -1.702297
v -0.271385 0.000000 -2.021329
v 0.271385 0.000000 -2.021329
v 0.710495 0.000000 -1.702297
v 0.878220 0.000000 -1.186093
v 0.710495 0.000000 -0.669888
v 0.271385 0.000000 -0.350856
v -0.271385 0.000000 -0.350856
vt 0.893628 0.844821
vt 0.886265 0.838541
vt 0.887399 0.826245
vt 0.896523 0.823039
vt 0.873273 0.853120
vt 0.875026 0.843608
vt 0.855881 0.839659
vt 0.864964 0.836416
vt 0.858745 0.817858
vt 0.866078 0.824142
vt 0.879104 0.809609
vt 0.877337 0.819072
vt 0.869000 0.885416
vt 0.861331 0.885264
vt 0.861280 0.867595
vt 0.869753 0.867763
vt 0.853662 0.885460
vt 0.852807 0.867813
vt 0.846011 0.886006
vt 0.844354 0.868415
vt 0.838392 0.886899
vt 0.835936 0.869402
vt 0.884279 0.886766
vt 0.876655 0.885917
vt 0.878210 0.868317
vt 0.886633 0.869255
vt 0.876185 0.831339
vt 0.817908 0.876219
vt 0.818504 0.887221
vt 0.690234 0.896609
vt 0.689252 0.876336
vt 0.818633 0.865232
vt 0.690117 0.855905
vt 0.820613 0.854200
vt 0.692663 0.835672
vt 0.824798 0.843215
vt 0.696461 0.815924
vt 0.820397 0.898201
vt 0.824337 0.909432
vt 0.696795 0.936450
vt 0.692883 0.916781
vt 0.821894 0.866238
vt 0.821282 0.876649
vt 0.821913 0.887056
vt 0.823738 0.897176
vt 0.826763 0.906383
vt 0.826802 0.846415
vt 0.823551 0.855976
vt 0.495611 0.924529
vt 0.471911 0.934279
vt 0.471993 0.900904
vt 0.448278 0.924426
vt 0.438557 0.900748
vt 0.448412 0.877180
vt 0.472015 0.867454
vt 0.495609 0.877227
vt 0.505394 0.900867
vt 0.471869 0.836818
vt 0.517096 0.855391
vt 0.536031 0.900568
vt 0.517329 0.946011
vt 0.471886 0.964867
vt 0.426523 0.945982
vt 0.407925 0.900668
vt 0.426731 0.855539
vt 0.448345 0.924564
vt 0.472045 0.934314
vt 0.471963 0.900939
vt 0.495679 0.924462
vt 0.505399 0.900784
vt 0.495544 0.877215
vt 0.471942 0.867489
vt 0.448347 0.877263
vt 0.438563 0.900902
vt 0.472087 0.836853
vt 0.426861 0.855426
vt 0.407925 0.900603
vt 0.426627 0.946047
vt 0.472070 0.964903
vt 0.517434 0.946017
vt 0.536031 0.900704
vt 0.517225 0.855574
vt 0.279447 0.903894
vt 0.241737 0.904406
vt 0.241375 0.878876
vt 0.278651 0.878341
vt 0.204164 0.904510
vt 0.204122 0.878946
vt 0.166604 0.904284
vt 0.166735 0.878738
vt 0.129028 0.903906
vt 0.129300 0.878359
vt 0.091256 0.903502
vt 0.091742 0.877962
vt 0.053279 0.902750
vt 0.053949 0.877269
vt 0.013758 0.902588
vt 0.014695 0.875433
vt 0.394284 0.897626
vt 0.355100 0.899759
vt 0.353227 0.874416
vt 0.392113 0.870533
vt 0.317157 0.902393
vt 0.315765 0.876923
vt 0.129392 0.870621
vt 0.166782 0.870996
vt 0.091901 0.870237
vt 0.054403 0.869586
vt 0.017778 0.868118
vt 0.352443 0.866694
vt 0.388737 0.863179
vt 0.315396 0.869173
vt 0.278379 0.870591
vt 0.241275 0.871126
vt 0.204094 0.871207
vt 0.128942 0.911606
vt 0.091139 0.911198
vt 0.166548 0.911990
vt 0.204179 0.912210
vt 0.241816 0.912107
vt 0.279692 0.911584
vt 0.317558 0.910070
vt 0.355485 0.907375
vt 0.392108 0.905217
vt 0.053240 0.910482
vt 0.016268 0.910323
vt 0.092409 0.843663
vt 0.129689 0.844016
vt 0.166950 0.844390
vt 0.204107 0.844614
vt 0.240934 0.844605
vt 0.277614 0.844093
vt 0.313886 0.842778
vt 0.350093 0.840349
vt 0.385809 0.836753
vt 0.019159 0.841494
vt 0.055459 0.843038
vn 0.499978 0.865987 -0.009366
vn 0.342118 0.592565 0.729261
vn 0.684236 0.000000 0.729261
vn 0.999956 0.000000 -0.009366
vn 0.342118 0.592565 0.729261
vn 0.499978 0.865987 -0.009366
vn -0.499978 0.865988 -0.009366
vn -0.342118 0.592565 0.729261
vn -0.342118 0.592565 0.729261
vn -0.499978 0.865988 -0.009366
vn -0.999956 0.000000 -0.009366
vn -0.684236 0.000000 0.729261
vn -0.684236 0.000000 0.729261
vn -0.999956 0.000000 -0.009366
vn -0.499978 -0.865987 -0.009366
vn -0.342118 -0.592565 0.729261
vn -0.342118 -0.592565 0.729261
vn -0.499978 -0.865987 -0.009366
vn 0.499978 -0.865987 -0.009366
vn 0.342118 -0.592565 0.729261
vn 0.342118 -0.592565 0.729261
vn 0.499978 -0.865987 -0.009366
vn 0.999956 0.000000 -0.009366
vn 0.684236 0.000000 0.729261
vn 0.499482 0.865128 -0.045511
vn -0.499482 0.865128 -0.045511
vn -0.499482 0.865128 -0.045511
vn 0.499482 0.865128 -0.045511
vn -0.499482 0.865128 -0.045511
vn -0.998964 0.000000 -0.045511
vn -0.998964 0.000000 -0.045511
vn -0.499482 0.865128 -0.045511
vn -0.998964 0.000000 -0.045511
vn -0.499482 -0.865128 -0.045511
vn -0.499482 -0.865128 -0.045511
vn -0.998964 0.000000 -0.045511
vn -0.499482 -0.865128 -0.045511
vn 0.499482 -0.865128 -0.045511
vn 0.499482 -0.865128 -0.045511
vn -0.499482 -0.865128 -0.045511
vn 0.499482 -0.865128 -0.045511
vn 0.998964 0.000000 -0.045511
vn 0.998964 0.000000 -0.045511
vn 0.499482 -0.865128 -0.045511
vn 0.998964 0.000000 -0.045511
vn 0.499482 0.865128 -0.045511
vn 0.499482 0.865128 -0.045511
vn 0.998964 0.000000 -0.045511
vn 0.342118 0.592565 0.729261
vn -0.342118 0.592565 0.729261
vn 0.000000 0.000000 1.000000
vn -0.342118 0.592565 0.729261
vn -0.684236 0.000000 0.729261
vn 0.000000 0.000000 1.000000
vn -0.684236 0.000000 0.729261
vn -0.342118 -0.592565 0.729261
vn 0.000000 0.000000 1.000000
vn -0.342118 -0.592565 0.729261
vn 0.342118 -0.592565 0.729261
vn 0.000000 0.000000 1.000000
vn 0.342118 -0.592565 0.729261
vn 0.684236 0.000000 0.729261
vn 0.000000 0.000000 1.000000
vn 0.684236 0.000000 0.729261
vn 0.342118 0.592565 0.729261
vn 0.000000 0.000000 1.000000
vn -0.499315 0.864840 -0.052305
vn -0.998631 0.000000 -0.052305
vn -0.999956 0.000000 -0.009366
vn -0.499978 0.865988 -0.009366
vn 0.499316 0.864840 -0.052305
vn -0.499315 0.864840 -0.052305
vn -0.499978 0.865988 -0.009366
vn 0.499978 0.865987 -0.009366
vn 0.998631 0.000000 -0.052305
vn 0.499316 0.864840 -0.052305
vn 0.499978 0.865987 -0.009366
vn 0.999956 0.000000 -0.009366
vn 0.499316 -0.864840 -0.052305
vn 0.998631 0.000000 -0.052305
vn 0.999956 0.000000 -0.009366
vn 0.499978 -0.865987 -0.009366
vn -0.499316 -0.864840 -0.052305
vn 0.499316 -0.864840 -0.052305
vn 0.499978 -0.865987 -0.009366
vn -0.499978 -0.865987 -0.009366
vn -0.998631 0.000000 -0.052305
vn -0.499316 -0.864840 -0.052305
vn -0.499978 -0.865987 -0.009366
vn -0.999956 0.000000 -0.009366
vn 0.016016 -0.027740 -0.999487
vn -0.016016 -0.027740 -0.999487
vn -0.016016 -0.027740 -0.999487
vn 0.016016 -0.027740 -0.999487
vn 0.032031 0.000000 -0.999487
vn 0.016016 -0.027740 -0.999487
vn 0.016016 -0.027740 -0.999487
vn 0.032031 0.000000 -0.999487
vn 0.016016 0.027740 -0.999487
vn 0.032031 0.000000 -0.999487
vn 0.032031 0.000000 -0.999487
vn 0.016016 0.027740 -0.999487
vn -0.016016 0.027740 -0.999487
vn 0.016016 0.027740 -0.999487
vn 0.016016 0.027740 -0.999487
vn -0.016016 0.027740 -0.999487
vn -0.032031 0.000000 -0.999487
vn -0.016016 0.027740 -0.999487
vn -0.016016 0.027740 -0.999487
vn -0.032031 0.000000 -0.999487
vn -0.016016 -0.027740 -0.999487
vn -0.032031 0.000000 -0.999487
vn -0.032031 0.000000 -0.999487
vn -0.016016 -0.027740 -0.999487
vn 0.192362 0.962286 -0.192362
vn 0.000000 0.962286 -0.272041
vn 0.000000 1.000000 0.000000
vn 0.000000 0.962286 -0.272041
vn -0.192362 0.962286 -0.192362
vn 0.000000 1.000000 0.000000
vn -0.192362 0.962286 -0.192362
vn -0.272041 0.962286 -0.000000
vn 0.000000 1.000000 0.000000
vn -0.272041 0.962286 -0.000000
vn -0.192362 0.962286 0.192362
vn 0.000000 1.000000 0.000000
vn -0.192362 0.962286 0.192362
vn 0.000000 0.962286 0.272041
vn 0.000000 1.000000 0.000000
vn 0.000000 0.962286 0.272041
vn 0.192362 0.962286 0.192362
vn 0.000000 1.000000 0.000000
vn 0.192362 0.962286 0.192362
vn 0.272041 0.962286 0.000000
vn 0.000000 1.000000 0.000000
vn 0.272041 0.962286 0.000000
vn 0.192362 0.962286 -0.192362
vn 0.000000 1.000000 0.000000
vn 0.000000 0.951464 0.307761
vn 0.217620 0.951464 0.217620
vn 0.192362 0.962286 0.192362
vn 0.000000 0.962286 0.272041
vn 0.217620 0.951464 0.217620
vn 0.307761 0.951464 0.000000
vn 0.272041 0.962286 0.000000
vn 0.192362 0.962286 0.192362
vn 0.307761 0.951464 0.000000
vn 0.217620 0.951464 -0.217620
vn 0.192362 0.962286 -0.192362
vn 0.272041 0.962286 0.000000
vn 0.217620 0.951464 -0.217620
vn 0.000000 0.951464 -0.307761
vn 0.000000 0.962286 -0.272041
vn 0.192362 0.962286 -0.192362
vn 0.000000 0.951464 -0.307761
vn -0.217620 0.951464 -0.217620
vn -0.192362 0.962286 -0.192362
vn 0.000000 0.962286 -0.272041
vn -0.217620 0.951464 -0.217620
vn -0.307761 0.951464 -0.000000
vn -0.272041 0.962286 -0.000000
vn -0.192362 0.962286 -0.192362
vn -0.307761 0.951464 -0.000000
vn -0.217620 0.951464 0.217620
vn -0.192362 0.962286 0.192362
vn -0.272041 0.962286 -0.000000
vn -0.217620 0.951464 0.217620
vn 0.000000 0.951464 0.307761
vn 0.000000 0.962286 0.272041
vn -0.192362 0.962286 0.192362
vn -0.192362 -0.962286 -0.192362
vn 0.000000 -0.962286 -0.272041
vn 0.000000 -1.000000 0.000000
vn 0.000000 -0.962286 -0.272041
vn 0.192362 -0.962286 -0.192362
vn 0.000000 -1.000000 0.000000
vn 0.192362 -0.962286 -0.192362
vn 0.272041 -0.962286 0.000000
vn 0.000000 -1.000000 0.000000
vn 0.272041 -0.962286 0.000000
vn 0.192362 -0.962286 0.192362
vn 0.000000 -1.000000 0.000000
vn 0.192362 -0.962286 0.192362
vn 0.000000 -0.962286 0.272041
vn 0.000000 -1.000000 0.000000
vn 0.000000 -0.962286 0.272041
vn -0.192362 -0.962286 0.192362
vn 0.000000 -1.000000 0.000000
vn -0.192362 -0.962286 0.192362
vn -0.272041 -0.962286 0.000000
vn 0.000000 -1.000000 0.000000
vn -0.272041 -0.962286 0.000000
vn -0.192362 -0.962286 -0.192362
vn 0.000000 -1.000000 0.000000
vn 0.000000 -0.951464 0.307761
vn -0.217620 -0.951464 0.217620
vn -0.192362 -0.962286 0.192362
vn 0.000000 -0.962286 0.272041
vn -0.217620 -0.951464 0.217620
vn -0.307761 -0.951464 0.000000
vn -0.272041 -0.962286 0.000000
vn -0.192362 -0.962286 0.192362
vn -0.307761 -0.951464 0.000000
vn -0.217620 -0.951464 -0.217620
vn -0.192362 -0.962286 -0.192362
vn -0.272041 -0.962286 0.000000
vn -0.217620 -0.951464 -0.217620
vn 0.000000 -0.951464 -0.307761
vn 0.000000 -0.962286 -0.272041
vn -0.192362 -0.962286 -0.192362
vn 0.000000 -0.951464 -0.307761
vn 0.217620 -0.951464 -0.217620
vn 0.192362 -0.962286 -0.192362
vn 0.000000 -0.962286 -0.272041
vn 0.217620 -0.951464 -0.217620
vn 0.307761 -0.951464 0.000000
vn 0.272041 -0.962286 0.000000
vn 0.192362 -0.962286 -0.192362
vn 0.307761 -0.951464 0.000000
vn 0.217620 -0.951464 0.217620
vn 0.192362 -0.962286 0.192362
vn 0.272041 -0.962286 0.000000
vn 0.217620 -0.951464 0.217620
vn 0.000000 -0.951464 0.307761
vn 0.000000 -0.962286 0.272041
vn 0.192362 -0.962286 0.192362
vn 0.809017 0.000000 -0.587785
vn 0.309017 0.000000 -0.951057
vn 0.309017 0.000000 -0.951057
vn 0.809017 0.000000 -0.587785
vn 0.309017 0.000000 -0.951057
vn -0.309017 0.000000 -0.951057
vn -0.309017 0.000000 -0.951057
vn 0.309017 0.000000 -0.951057
vn -0.309017 0.000000 -0.951057
vn -0.809017 0.000000 -0.587785
vn -0.809017 0.000000 -0.587785
vn -0.309017 0.000000 -0.951057
vn -0.809017 0.000000 -0.587785
vn -1.000000 0.000000 0.000000
vn -1.000000 0.000000 0.000000
vn -0.809017 0.000000 -0.587785
vn -1.000000 0.000000 0.000000
vn -1.000000 0.000000 0.000000
vn -0.809017 0.000000 0.587785
vn -0.809017 0.000000 0.587785
vn -0.809017 0.000000 0.587785
vn -0.309017 0.000000 0.951057
vn -0.309017 0.000000 0.951057
vn -0.809017 0.000000 0.587785
vn -0.309017 0.000000 0.951057
vn 0.309017 0.000000 0.951057
vn 0.309017 0.000000 0.951057
vn -0.309017 0.000000 0.951057
vn 0.309017 0.000000 0.951057
vn 0.809017 0.000000 0.587785
vn 0.809017 0.000000 0.587785
vn 0.309017 0.000000 0.951057
vn 0.809017 0.000000 0.587785
vn 1.000000 0.000000 0.000000
vn 1.000000 0.000000 0.000000
vn 0.809017 0.000000 0.587785
vn 1.000000 0.000000 0.000000
vn 0.809017 0.000000 -0.587785
vn 0.809017 0.000000 -0.587785
vn 1.000000 0.000000 0.000000
vn 0.000000 1.000000 0.000000
vn 0.000000 1.000000 0.000000
vn 0.000000 1.000000 0.000000
vn 0.000000 1.000000 0.000000
vn 0.000000 1.000000 0.000000
vn 0.000000 1.000000 0.000000
vn 0.000000 1.000000 0.000000
vn 0.000000 1.000000 0.000000
vn 0.000000 1.000000 0.000000
vn 0.000000 1.000000 0.000000
vn 0.000000 1.000000 0.000000
vn 0.000000 1.000000 0.000000
vn 0.000000 1.000000 0.000000
vn 0.000000 1.000000 0.000000
vn 0.000000 1.000000 0.000000
vn 0.000000 1.000000 0.000000
vn 0.000000 1.000000 0.000000
vn 0.000000 1.000000 0.000000
vn 0.000000 1.000000 0.000000
vn 0.000000 1.000000 0.000000
vn 0.000000 1.000000 0.000000
vn 0.000000 1.000000 0.000000
vn 0.000000 1.000000 0.000000
vn 0.000000 1.000000 0.000000
vn 0.000000 1.000000 0.000000
vn 0.000000 1.000000 0.000000
vn 0.000000 1.000000 0.000000
vn 0.000000 1.000000 0.000000
vn 0.000000 1.000000 0.000000
vn 0.000000 1.000000 0.000000
vn 0.000000 1.000000 0.000000
vn 0.000000 1.000000 0.000000
vn 0.000000 1.000000 0.000000
vn 0.000000 1.000000 0.000000
vn 0.000000 1.000000 0.000000
vn 0.000000 1.000000 0.000000
vn 0.000000 1.000000 0.000000
vn 0.000000 1.000000 0.000000
vn 0.000000 1.000000 0.000000
vn 0.000000 1.000000 0.000000
vn 0.000000 -1.000000 0.000000
vn 0.000000 -1.000000 0.000000
vn 0.000000 -1.000000 0.000000
vn 0.000000 -1.000000 0.000000
vn 0.000000 -1.000000 0.000000
vn 0.000000 -1.000000 0.000000
vn 0.000000 -1.000000 0.000000
vn 0.000000 -1.000000 0.000000
vn 0.000000 -1.000000 0.000000
vn 0.000000 -1.000000 0.000000
vn 0.000000 -1.000000 0.000000
vn 0.000000 -1.000000 0.000000
vn 0.000000 -1.000000 0.000000
vn 0.000000 -1.000000 0.000000
vn 0.000000 -1.000000 0.000000
vn 0.000000 -1.000000 0.000000
vn 0.000000 -1.000000 0.000000
vn 0.000000 -1.000000 0.000000
vn 0.000000 -1.000000 0.000000
vn 0.000000 -1.000000 0.000000
vn 0.000000 -1.000000 0.000000
vn 0.000000 -1.000000 0.000000
vn 0.000000 -1.000000 0.000000
vn 0.000000 -1.000000 0.000000
vn 0.000000 -1.000000 0.000000
vn 0.000000 -1.000000 0.000000
vn 0.000000 -1.000000 0.000000
vn 0.000000 -1.000000 0.000000
vn 0.000000 -1.000000 0.000000
vn 0.000000 -1.000000 0.000000
vn 0.000000 -1.000000 0.000000
vn 0.000000 -1.000000 0.000000
vn 0.000000 -1.000000 0.000000
vn 0.000000 -1.000000 0.000000
vn 0.000000 -1.000000 0.000000
vn 0.000000 -1.000000 0.000000
vn 0.000000 -1.000000 0.000000
vn 0.000000 -1.000000 0.000000
vn 0.000000 -1.000000 0.000000
vn 0.000000 -1.000000 0.000000
vn 0.809017 0.000000 -0.587785
vn 1.000000 0.000000 0.000000
vn 1.000000 0.000000 0.000000
vn 0.809017 0.000000 -0.587785
vn 1.000000 0.000000 0.000000
vn 0.809017 0.000000 0.587785
vn 0.809017 0.000000 0.587785
vn 1.000000 0.000000 0.000000
vn 0.809017 0.000000 0.587785
vn 0.309017 0.000000 0.951057
vn 0.309017 0.000000 0.951057
vn 0.809017 0.000000 0.587785
vn 0.309017 0.000000 0.951057
vn -0.309017 0.000000 0.951057
vn -0.309017 0.000000 0.951057
vn 0.309017 0.000000 0.951057
vn -0.309017 0.000000 0.951057
vn -0.809017 0.000000 0.587785
vn -0.809017 0.000000 0.587785
vn -0.309017 0.000000 0.951057
vn -0.809017 0.000000 0.587785
vn -1.000000 0.000000 -0.000000
vn -1.000000 0.000000 -0.000000
vn -0.809017 0.000000 0.587785
vn -1.000000 0.000000 -0.000000
vn -0.809017 0.000000 -0.587785
vn -0.809017 0.000000 -0.587785
vn -1.000000 0.000000 -0.000000
vn -0.809017 0.000000 -0.587785
vn -0.309017 0.000000 -0.951057
vn -0.309017 0.000000 -0.951057
vn -0.809017 0.000000 -0.587785
vn -0.309017 0.000000 -0.951057
vn 0.309017 0.000000 -0.951057
vn 0.309017 0.000000 -0.951057
vn -0.309017 0.000000 -0.951057
vn 0.309017 0.000000 -0.951057
vn 0.809017 0.000000 -0.587785
vn 0.809017 0.000000 -0.587785
vn 0.309017 0.000000 -0.951057
s off
g MagnifyingGlass:pCylinder30
usemtl blinn1SG
f 2/1/1 3/2/2 13/3/3 12/4/4
f 3/2/5 2/1/6 4/5/7 5/6/8
f 5/6/9 4/5/10 6/7/11 7/8/12
f 7/8/13 6/7/14 8/9/15 9/10/16
f 9/10/17 8/9/18 10/11/19 11/12/20
f 11/12/21 10/11/22 12/4/23 13/3/24
f 20/13/25 21/14/26 22/15/27 23/16/28
f 21/14/29 24/17/30 25/18/31 22/15/32
f 24/17/33 26/19/34 27/20/35 25/18/36
f 26/19/37 28/21/38 29/22/39 27/20/40
f 28/23/41 30/24/42 31/25/43 29/26/44
f 30/24/45 20/13/46 23/16/47 31/25/48
f 3/2/49 5/6/50 1/27/51
f 5/6/52 7/8/53 1/27/54
f 7/8/55 9/10/56 1/27/57
f 9/10/58 11/12/59 1/27/60
f 11/12/61 13/3/62 1/27/63
f 13/3/64 3/2/65 1/27/66
f 15/28/67 14/29/68 6/30/69 4/31/70
f 16/32/71 15/28/72 4/31/73 2/33/74
f 17/34/75 16/32/76 2/33/77 12/35/78
f 18/36/79 17/34/80 12/35/81 10/37/82
f 19/38/83 18/39/84 10/40/85 8/41/86
f 14/29/87 19/38/88 8/41/89 6/30/90
f 15/28/91 16/32/92 23/42/93 22/43/94
f 14/29/95 15/28/96 22/43/97 25/44/98
f 19/38/99 14/29/100 25/44/101 27/45/102
f 18/39/103 19/38/104 27/45/105 29/46/106
f 17/34/107 18/36/108 29/47/109 31/48/110
f 16/32/111 17/34/112 31/48/113 23/42/114
f 44/49/115 45/50/116 40/51/117
f 45/50/118 46/52/119 40/51/120
f 46/52/121 47/53/122 40/51/123
f 47/53/124 48/54/125 40/51/126
f 48/54/127 41/55/128 40/51/129
f 41/55/130 42/56/131 40/51/132
f 42/56/133 43/57/134 40/51/135
f 43/57/136 44/49/137 40/51/138
f 37/58/139 38/59/140 42/56/141 41/55/142
f 38/59/143 39/60/144 43/57/145 42/56/146
f 39/60/147 32/61/148 44/49/149 43/57/150
f 32/61/151 33/62/152 45/50/153 44/49/154
f 33/62/155 34/63/156 46/52/157 45/50/158
f 34/63/159 35/64/160 47/53/161 46/52/162
f 35/64/163 36/65/164 48/54/165 47/53/166
f 36/65/167 37/58/168 41/55/169 48/54/170
f 61/66/171 62/67/172 57/68/173
f 62/67/174 63/69/175 57/68/176
f 63/69/177 64/70/178 57/68/179
f 64/70/180 65/71/181 57/68/182
f 65/71/183 58/72/184 57/68/185
f 58/72/186 59/73/187 57/68/188
f 59/73/189 60/74/190 57/68/191
f 60/74/192 61/66/193 57/68/194
f 54/75/195 55/76/196 59/73/197 58/72/198
f 55/76/199 56/77/200 60/74/201 59/73/202
f 56/77/203 49/78/204 61/66/205 60/74/206
f 49/78/207 50/79/208 62/67/209 61/66/210
f 50/79/211 51/80/212 63/69/213 62/67/214
f 51/80/215 52/81/216 64/70/217 63/69/218
f 52/81/219 53/82/220 65/71/221 64/70/222
f 53/82/223 54/75/224 58/72/225 65/71/226
f 66/83/227 67/84/228 77/85/229 76/86/230
f 67/84/231 68/87/232 78/88/233 77/85/234
f 68/87/235 69/89/236 79/90/237 78/88/238
f 69/89/239 70/91/240 80/92/241 79/90/242
f 80/92/243 70/91/244 71/93/245 81/94/246
f 71/93/247 72/95/248 82/96/249 81/94/250
f 72/95/251 73/97/252 83/98/253 82/96/254
f 73/99/255 74/100/256 84/101/257 83/102/258
f 74/100/259 75/103/260 85/104/261 84/101/262
f 75/103/263 66/83/264 76/86/265 85/104/266
f 79/90/267 80/92/268 87/105/269 86/106/270
f 80/92/271 81/94/272 88/107/273 87/105/274
f 81/94/275 82/96/276 89/108/277 88/107/278
f 82/96/279 83/98/280 90/109/281 89/108/282
f 83/102/283 84/101/284 91/110/285 90/111/286
f 84/101/287 85/104/288 92/112/289 91/110/290
f 85/104/291 76/86/292 93/113/293 92/112/294
f 76/86/295 77/85/296 94/114/297 93/113/298
f 77/85/299 78/88/300 95/115/301 94/114/302
f 78/88/303 79/90/304 86/106/305 95/115/306
f 71/93/307 70/91/308 97/116/309 96/117/310
f 70/91/311 69/89/312 98/118/313 97/116/314
f 69/89/315 68/87/316 99/119/317 98/118/318
f 68/87/319 67/84/320 100/120/321 99/119/322
f 67/84/323 66/83/324 101/121/325 100/120/326
f 66/83/327 75/103/328 102/122/329 101/121/330
f 75/103/331 74/100/332 103/123/333 102/122/334
f 74/100/335 73/99/336 104/124/337 103/123/338
f 73/97/339 72/95/340 105/125/341 104/126/342
f 72/95/343 71/93/344 96/117/345 105/125/346
f 96/127/347 97/128/348 87/105/349 88/107/350
f 97/128/351 98/129/352 86/106/353 87/105/354
f 98/129/355 99/130/356 95/115/357 86/106/358
f 99/130/359 100/131/360 94/114/361 95/115/362
f 100/131/363 101/132/364 93/113/365 94/114/366
f 101/132/367 102/133/368 92/112/369 93/113/370
f 102/133/371 103/134/372 91/110/373 92/112/374
f 103/134/375 104/135/376 90/111/377 91/110/378
f 104/136/379 105/137/380 89/108/381 90/109/382
f 105/137/383 96/127/384 88/107/385 89/108/386
