# This file uses centimeters as units for non-parametric coordinates.

mtllib Mailbox01COL.mtl
g default
v -0.000005 5.836723 1.838026
v 1.545977 6.554315 -1.828940
v 1.315088 7.201666 -1.828940
v 0.955467 7.715409 -1.828940
v 0.502315 8.045246 -1.828940
v -0.000005 8.158904 -1.828940
v -0.502325 8.045246 -1.828940
v -0.955477 7.715409 -1.828940
v -1.315098 7.201666 -1.828940
v -1.545986 6.554315 -1.828940
v -1.547349 5.838815 -1.824731
v 1.477283 6.538483 1.838133
v 1.252308 7.169249 1.838133
v 0.904807 7.665676 1.838133
v 0.472780 7.980138 1.838133
v -0.000005 8.087114 1.838133
v -0.472790 7.980138 1.838133
v -0.904818 7.665676 1.838133
v -1.252319 7.169249 1.838133
v -1.477293 6.538483 1.838133
v -1.545579 5.867305 1.837919
v 1.543595 5.834631 -1.824731
v 1.545565 5.867305 1.837919
v -0.397446 -2.065170 0.397428
v -0.520453 5.896857 0.520425
v 0.397401 -2.065170 0.397428
v 0.520407 5.896857 0.520425
v -0.520453 5.896857 -0.520423
v -0.397446 -2.065170 -0.397426
v 0.520407 5.896857 -0.520423
v 0.397401 -2.065170 -0.397426
v -0.001877 5.836723 -1.824731
vt 0.446737 0.028048
vt 0.416636 0.029501
vt 0.478226 0.029018
vt 0.505806 0.028818
vt 0.530617 0.029880
vt 0.552860 0.029930
vt 0.574794 0.029726
vt 0.599918 0.028613
vt 0.628106 0.028296
vt 0.658921 0.028003
vt 0.689286 0.028657
vt 0.273277 0.029426
vt 0.446643 0.192133
vt 0.416743 0.192040
vt 0.477192 0.192833
vt 0.505876 0.192619
vt 0.530475 0.193411
vt 0.552814 0.193340
vt 0.575522 0.193385
vt 0.599751 0.192573
vt 0.627801 0.192448
vt 0.659057 0.192535
vt 0.688232 0.192063
vt 0.405925 0.227507
vt 0.395677 0.255630
vt 0.341391 0.195642
vt 0.380203 0.277515
vt 0.361313 0.291146
vt 0.340964 0.295664
vt 0.320648 0.290984
vt 0.301861 0.277201
vt 0.286571 0.255199
vt 0.276618 0.227047
vt 0.273374 0.195619
vt 0.620690 0.583573
vt 0.621030 0.211247
vt 0.655663 0.212635
vt 0.655663 0.585432
vt 0.733580 0.213217
vt 0.733456 0.586182
vt 0.694561 0.586383
vt 0.694511 0.213373
vt 0.773084 0.212169
vt 0.773233 0.584831
vt 0.406597 0.028657
vn 0.627612 0.318749 -0.710283
vn 0.685140 0.165011 -0.709475
vn -0.000002 -0.002533 -0.999997
vn 0.506254 0.486674 -0.711938
vn 0.295438 0.634293 -0.714415
vn 0.000000 0.698224 -0.715880
vn -0.295438 0.634292 -0.714415
vn -0.506253 0.486673 -0.711939
vn -0.627612 0.318749 -0.710284
vn -0.690556 0.162608 -0.704763
vn 0.000994 -0.717506 -0.696552
vn 0.884133 0.467156 -0.008559
vn 0.962267 0.272105 -0.000880
vn 0.977287 0.211920 0.000551
vn 0.884133 0.467156 0.008559
vn 0.694064 0.719182 -0.032437
vn 0.884133 0.467156 -0.008559
vn 0.884133 0.467156 0.008559
vn 0.694064 0.719182 0.032437
vn 0.402772 0.913433 -0.058432
vn 0.694064 0.719182 -0.032437
vn 0.694064 0.719182 0.032437
vn 0.402772 0.913433 0.058432
vn 0.000000 0.997639 -0.068677
vn 0.402772 0.913433 -0.058432
vn 0.402772 0.913433 0.058432
vn 0.000000 0.997639 0.068677
vn -0.402772 0.913433 -0.058432
vn 0.000000 0.997639 -0.068677
vn 0.000000 0.997639 0.068677
vn -0.402772 0.913433 0.058432
vn -0.694064 0.719182 -0.032437
vn -0.402772 0.913433 -0.058432
vn -0.402772 0.913433 0.058432
vn -0.694064 0.719182 0.032437
vn -0.884133 0.467156 -0.008559
vn -0.694064 0.719182 -0.032437
vn -0.694064 0.719182 0.032437
vn -0.884133 0.467156 0.008559
vn -0.962267 0.272105 -0.000880
vn -0.884133 0.467156 -0.008559
vn -0.884133 0.467156 0.008559
vn -0.977030 0.213100 0.000558
vn -0.993909 0.110201 0.000000
vn -0.962267 0.272105 -0.000880
vn -0.977030 0.213100 0.000558
vn -0.993909 0.110204 0.000001
vn 0.962267 0.272105 -0.000880
vn 0.993909 0.110200 0.000000
vn 0.993909 0.110200 0.000000
vn 0.977287 0.211920 0.000551
vn 0.000000 0.000000 1.000000
vn 0.000000 0.000000 1.000000
vn 0.000000 0.000000 1.000000
vn 0.000000 0.000000 1.000000
vn 0.000000 0.000000 1.000000
vn 0.000000 0.000000 1.000000
vn 0.000000 0.000000 1.000000
vn 0.000000 0.000000 1.000000
vn 0.000000 0.000000 1.000000
vn 0.000000 0.000000 1.000000
vn 0.000000 0.000000 1.000000
vn 0.000000 0.000000 1.000000
vn 0.000000 0.000000 1.000000
vn 0.000000 0.000000 1.000000
vn 0.000000 0.000000 1.000000
vn 0.000000 0.000000 1.000000
vn 0.000000 0.000000 1.000000
vn 0.000000 0.000000 1.000000
vn 0.000000 0.000000 1.000000
vn 0.000000 0.000000 1.000000
vn 0.000000 0.000000 1.000000
vn 0.000000 0.000000 1.000000
vn 0.000000 0.000000 1.000000
vn 0.000000 0.000000 1.000000
vn 0.000000 0.000000 1.000000
vn 0.000000 0.000000 1.000000
vn 0.000000 0.000000 1.000000
vn 0.000000 0.000000 1.000000
vn 0.000000 0.000000 1.000000
vn 0.000000 0.000000 1.000000
vn 0.000000 -1.000000 0.000000
vn -0.000680 -0.999991 0.004175
vn 0.000000 -1.000000 0.000000
vn 0.000000 -1.000000 0.000000
vn -0.152087 -0.014987 0.988254
vn -0.149995 -0.014963 0.988574
vn 0.149995 -0.014963 0.988574
vn 0.152087 -0.014987 0.988254
vn -0.149990 -0.014963 -0.988574
vn -0.152082 -0.014986 -0.988254
vn 0.152082 -0.014986 -0.988254
vn 0.149990 -0.014963 -0.988574
vn 0.988254 -0.014987 0.152087
vn 0.988574 -0.014964 0.149995
vn 0.988573 -0.014964 -0.149995
vn 0.988253 -0.014987 -0.152087
vn -0.988253 -0.014987 -0.152087
vn -0.988573 -0.014964 -0.149995
vn -0.988574 -0.014964 0.149995
vn -0.988254 -0.014987 0.152087
vn -0.713763 0.073888 -0.696479
vn 0.000000 -1.000000 0.000000
vn 0.000000 -1.000000 0.000000
s 1
g pCube8
usemtl lambert2SG
f 3/3/1 2/1/2 32/45/3
f 4/4/4 3/3/1 32/45/3
f 5/5/5 4/4/4 32/45/3
f 6/6/6 5/5/5 32/45/3
f 7/7/7 6/6/6 32/45/3
f 8/8/8 7/7/7 32/45/3
f 9/9/9 8/8/8 32/45/3
f 10/10/10 9/9/9 32/45/3
f 22/2/11 32/45/3 2/1/2
s off
f 13/15/12 12/13/13 2/1/14 3/3/15
f 14/16/16 13/15/17 3/3/18 4/4/19
f 15/17/20 14/16/21 4/4/22 5/5/23
f 16/18/24 15/17/25 5/5/26 6/6/27
f 17/19/28 16/18/29 6/6/30 7/7/31
f 18/20/32 17/19/33 7/7/34 8/8/35
f 19/21/36 18/20/37 8/8/38 9/9/39
f 20/22/40 19/21/41 9/9/42 10/10/43
f 21/23/44 20/22/45 10/10/46 11/11/47
f 12/13/48 23/14/49 22/2/50 2/1/51
f 12/24/52 13/25/53 1/26/54
f 13/25/55 14/27/56 1/26/57
f 14/27/58 15/28/59 1/26/60
f 15/28/61 16/29/62 1/26/63
f 16/29/64 17/30/65 1/26/66
f 17/30/67 18/31/68 1/26/69
f 18/31/70 19/32/71 1/26/72
f 19/32/73 20/33/74 1/26/75
f 20/33/76 21/34/77 1/26/78
f 1/26/79 23/14/80 12/24/81
s 2
f 1/26/82 32/45/83 22/2/84 23/14/85
s off
f 25/35/86 24/36/87 26/37/88 27/38/89
f 29/39/90 28/40/91 30/41/92 31/42/93
f 27/38/94 26/37/95 31/42/96 30/41/97
f 28/40/98 29/39/99 24/43/100 25/44/101
s 1
f 32/45/3 11/11/102 10/10/10
s 2
f 1/26/82 21/34/103 11/12/104 32/45/83
