# This file uses centimeters as units for non-parametric coordinates.

mtllib Maps03.mtl
g default
v 0.238168 3.057101 -0.223823
v 0.000000 3.057101 -0.322476
v -0.238168 3.057101 -0.223823
v -0.336820 3.057101 0.014345
v -0.238168 3.057101 0.252513
v 0.000000 3.057101 0.351165
v 0.238168 3.057101 0.252513
v 0.336820 3.057101 0.014345
v 0.291961 3.057101 -0.277616
v 0.000000 3.057101 -0.398550
v -0.291961 3.057101 -0.277616
v -0.412895 3.057101 0.014345
v -0.291961 3.057101 0.306306
v 0.000000 3.057101 0.427240
v 0.291961 3.057101 0.306306
v 0.412895 3.057101 0.014345
v 0.318857 2.956305 -0.304513
v 0.000000 2.956305 -0.436588
v -0.318857 2.956305 -0.304513
v -0.450933 2.956305 0.014345
v -0.318857 2.956305 0.333202
v 0.000000 2.956305 0.465277
v 0.318857 2.956305 0.333202
v 0.450933 2.956305 0.014345
v 0.291961 2.855509 -0.277616
v 0.000000 2.855509 -0.398550
v -0.291961 2.855509 -0.277616
v -0.412895 2.855509 0.014345
v -0.291961 2.855509 0.306306
v 0.000000 2.855509 0.427240
v 0.291961 2.855509 0.306306
v 0.412895 2.855509 0.014345
v 0.238168 2.855509 -0.223823
v 0.000000 2.855509 -0.322476
v -0.238168 2.855509 -0.223823
v -0.336820 2.855509 0.014345
v -0.238168 2.855509 0.252513
v 0.000000 2.855509 0.351165
v 0.238168 2.855509 0.252513
v 0.336820 2.855509 0.014345
v 0.326388 0.000000 -0.326388
v 0.000000 0.000000 -0.461582
v -0.326388 0.000000 -0.326388
v -0.461582 0.000000 0.000000
v -0.326388 0.000000 0.326388
v 0.000000 0.000000 0.461582
v 0.326388 0.000000 0.326388
v 0.461582 0.000000 0.000000
v 0.326388 5.912611 -0.326388
v 0.000000 5.912611 -0.461582
v -0.326388 5.912611 -0.326388
v -0.461582 5.912611 0.000000
v -0.326388 5.912611 0.326388
v 0.000000 5.912611 0.461582
v 0.326388 5.912611 0.326388
v 0.461582 5.912611 0.000000
v -0.226682 2.956305 0.229356
v -0.320577 2.956305 0.002674
v -0.226682 2.956305 -0.224009
v 0.000000 2.956305 -0.317903
v 0.226682 2.956305 -0.224009
v 0.320577 2.956305 0.002674
v 0.226682 2.956305 0.229356
v 0.000000 2.956305 0.323251
v 0.228241 5.807181 -0.228241
v 0.322781 5.807181 0.000000
v 0.228241 5.807181 0.228241
v 0.000000 5.807181 0.322781
v -0.228241 5.807181 0.228241
v -0.322781 5.807181 0.000000
v -0.228241 5.807181 -0.228241
v 0.000000 5.807181 -0.322781
v -0.228241 0.105429 -0.228241
v 0.000000 0.105429 -0.322781
v 0.228241 0.105429 -0.228241
v 0.322781 0.105429 0.000000
v 0.228241 0.105429 0.228241
v 0.000000 0.105429 0.322781
v -0.228241 0.105429 0.228241
v -0.322781 0.105429 0.000000
v 0.029640 0.002786 0.533140
v 0.027425 2.956305 0.389461
v 0.029640 5.909824 0.533140
v 0.211184 2.956305 -0.208510
v 0.298659 2.956305 0.002674
v 0.211184 2.956305 0.213858
v 0.000000 2.956305 0.301333
v -0.211184 2.956305 0.213858
v -0.298659 2.956305 0.002674
v -0.211184 2.956305 -0.208510
v 0.000000 2.956305 -0.295986
vt 0.530638 0.661126
vt 0.529224 0.682598
vt 0.523755 0.681989
vt 0.525328 0.659731
vt 0.532590 0.640354
vt 0.527799 0.636778
vt 0.530774 0.790327
vt 0.533885 0.810807
vt 0.529008 0.814462
vt 0.525348 0.791609
vt 0.528740 0.768925
vt 0.523216 0.769482
vt 0.527969 0.747333
vt 0.522461 0.747561
vt 0.527871 0.725751
vt 0.522368 0.725724
vt 0.528252 0.704179
vt 0.522722 0.703892
vt 0.515269 0.681291
vt 0.517101 0.658542
vt 0.519548 0.634137
vt 0.520778 0.817362
vt 0.517094 0.793020
vt 0.514704 0.770177
vt 0.513853 0.747857
vt 0.513740 0.725678
vt 0.514138 0.703535
vt 0.506751 0.680788
vt 0.508742 0.658284
vt 0.510866 0.635072
vt 0.512181 0.816703
vt 0.508835 0.793469
vt 0.506227 0.770701
vt 0.505323 0.748125
vt 0.505182 0.725671
vt 0.505576 0.703234
vt 0.501372 0.680596
vt 0.503235 0.658346
vt 0.505262 0.637354
vt 0.506735 0.814480
vt 0.503479 0.793404
vt 0.500929 0.771058
vt 0.499962 0.748343
vt 0.499801 0.725686
vt 0.500216 0.703107
vt 0.545594 0.663137
vt 0.544166 0.683829
vt 0.547675 0.643020
vt 0.545772 0.787802
vt 0.549040 0.807485
vt 0.543702 0.767514
vt 0.542948 0.746763
vt 0.542876 0.725768
vt 0.543246 0.704752
vt 0.840718 0.292426
vt 0.863193 0.292295
vt 0.861299 0.485687
vt 0.845101 0.485587
vt 0.885668 0.292852
vt 0.877510 0.485722
vt 0.908162 0.294107
vt 0.893740 0.485750
vt 0.930739 0.296109
vt 0.909797 0.485749
vt 0.953331 0.298949
vt 0.925762 0.485773
vt 0.772504 0.297145
vt 0.795684 0.294794
vt 0.812705 0.485324
vt 0.795991 0.485173
vt 0.818239 0.293250
vt 0.828850 0.485473
vt 0.580058 0.599240
vt 0.580010 0.577818
vt 0.595091 0.577704
vt 0.595139 0.599108
vt 0.579850 0.556297
vt 0.594931 0.556195
vt 0.579844 0.531516
vt 0.594926 0.531456
vt 0.579829 0.506773
vt 0.594910 0.506750
vt 0.579878 0.485247
vt 0.594959 0.485281
vt 0.579871 0.463806
vt 0.594952 0.463854
vt 0.579896 0.439084
vt 0.594977 0.439157
vt 0.580125 0.623910
vt 0.595207 0.623833
vt 0.929764 0.677786
vt 0.906934 0.679663
vt 0.884120 0.680702
vt 0.861326 0.680965
vt 0.838539 0.680678
vt 0.815761 0.679617
vt 0.792989 0.677748
vt 0.769661 0.675078
vt 0.952552 0.675056
vt 0.568411 0.463852
vt 0.568365 0.485272
vt 0.553240 0.485251
vt 0.553286 0.463858
vt 0.568326 0.506827
vt 0.553202 0.506750
vt 0.568287 0.531578
vt 0.553162 0.531556
vt 0.568295 0.556429
vt 0.553169 0.556376
vt 0.568324 0.577995
vt 0.553199 0.577938
vt 0.568307 0.599420
vt 0.553181 0.599439
vt 0.568302 0.624205
vt 0.553177 0.624290
vt 0.568439 0.439057
vt 0.553314 0.439068
vt 0.685105 0.678796
vt 0.668397 0.678755
vt 0.669759 0.485448
vt 0.685252 0.485459
vt 0.701815 0.678754
vt 0.700745 0.485469
vt 0.718527 0.678631
vt 0.716237 0.485479
vt 0.735247 0.678415
vt 0.731716 0.485489
vt 0.751970 0.678087
vt 0.747200 0.485500
vt 0.634979 0.678364
vt 0.618269 0.677985
vt 0.623300 0.485414
vt 0.638787 0.485426
vt 0.651692 0.678616
vt 0.654265 0.485438
vt 0.574737 0.575967
vt 0.791294 0.485138
vt 0.767523 0.297807
vt 0.573496 0.483189
vt 0.764681 0.674352
vt 0.668702 0.292173
vt 0.685411 0.292159
vt 0.702120 0.292230
vt 0.718825 0.292381
vt 0.735536 0.292623
vt 0.752250 0.292975
vt 0.618554 0.292863
vt 0.635276 0.292509
vt 0.651993 0.292284
vn 0.000000 0.464822 0.885404
vn -0.626075 0.464822 0.626076
vn 0.544205 0.638500 -0.544205
vn -0.000000 0.638499 -0.769622
vn 0.626075 0.464822 0.626075
vn 0.000000 0.464822 0.885404
vn -0.000000 0.638499 -0.769622
vn -0.544205 0.638500 -0.544205
vn 0.885404 0.464822 0.000000
vn 0.626075 0.464822 0.626075
vn -0.544205 0.638500 -0.544205
vn -0.769622 0.638500 0.000000
vn 0.626075 0.464822 -0.626075
vn 0.885404 0.464822 0.000000
vn -0.769622 0.638500 0.000000
vn -0.544205 0.638499 0.544206
vn 0.000000 0.464822 -0.885404
vn 0.626075 0.464822 -0.626075
vn -0.544205 0.638499 0.544206
vn 0.000000 0.638499 0.769622
vn -0.626075 0.464822 -0.626076
vn 0.000000 0.464822 -0.885404
vn 0.000000 0.638499 0.769622
vn 0.544205 0.638500 0.544205
vn -0.885404 0.464822 0.000000
vn -0.626075 0.464822 -0.626076
vn 0.544205 0.638500 0.544205
vn 0.769622 0.638500 0.000000
vn -0.626075 0.464822 0.626076
vn -0.885404 0.464822 0.000000
vn 0.769622 0.638500 0.000000
vn 0.544205 0.638500 -0.544205
vn -0.000000 0.638499 -0.769622
vn 0.544205 0.638500 -0.544205
vn 0.707107 0.000000 -0.707107
vn 0.000000 0.000000 -1.000000
vn -0.544205 0.638500 -0.544205
vn -0.000000 0.638499 -0.769622
vn 0.000000 0.000000 -1.000000
vn -0.707107 0.000000 -0.707107
vn -0.769622 0.638500 0.000000
vn -0.544205 0.638500 -0.544205
vn -0.707107 0.000000 -0.707107
vn -1.000000 0.000000 0.000000
vn -0.544205 0.638499 0.544206
vn -0.769622 0.638500 0.000000
vn -1.000000 0.000000 0.000000
vn -0.707107 0.000000 0.707107
vn 0.000000 0.638499 0.769622
vn -0.544205 0.638499 0.544206
vn -0.707107 0.000000 0.707107
vn 0.000000 0.000000 1.000000
vn 0.544205 0.638500 0.544205
vn 0.000000 0.638499 0.769622
vn 0.000000 0.000000 1.000000
vn 0.707107 0.000000 0.707107
vn 0.769622 0.638500 0.000000
vn 0.544205 0.638500 0.544205
vn 0.707107 0.000000 0.707107
vn 1.000000 0.000000 0.000000
vn 0.544205 0.638500 -0.544205
vn 0.769622 0.638500 0.000000
vn 1.000000 0.000000 0.000000
vn 0.707107 0.000000 -0.707107
vn 0.000000 0.000000 -1.000000
vn 0.707107 0.000000 -0.707107
vn 0.544205 -0.638500 -0.544205
vn 0.000000 -0.638500 -0.769622
vn -0.707107 0.000000 -0.707107
vn 0.000000 0.000000 -1.000000
vn 0.000000 -0.638500 -0.769622
vn -0.544205 -0.638500 -0.544205
vn -1.000000 0.000000 0.000000
vn -0.707107 0.000000 -0.707107
vn -0.544205 -0.638500 -0.544205
vn -0.769622 -0.638500 0.000000
vn -0.707107 0.000000 0.707107
vn -1.000000 0.000000 0.000000
vn -0.769622 -0.638500 0.000000
vn -0.544205 -0.638500 0.544205
vn 0.000000 0.000000 1.000000
vn -0.707107 0.000000 0.707107
vn -0.544205 -0.638500 0.544205
vn 0.000000 -0.638500 0.769622
vn 0.707107 0.000000 0.707107
vn 0.000000 0.000000 1.000000
vn 0.000000 -0.638500 0.769622
vn 0.544205 -0.638499 0.544205
vn 1.000000 0.000000 0.000000
vn 0.707107 0.000000 0.707107
vn 0.544205 -0.638499 0.544205
vn 0.769622 -0.638500 0.000000
vn 0.707107 0.000000 -0.707107
vn 1.000000 0.000000 0.000000
vn 0.769622 -0.638500 0.000000
vn 0.544205 -0.638500 -0.544205
vn 0.000000 -0.638500 -0.769622
vn 0.544205 -0.638500 -0.544205
vn -0.626075 -0.464822 0.626075
vn 0.000000 -0.464822 0.885404
vn -0.544205 -0.638500 -0.544205
vn 0.000000 -0.638500 -0.769622
vn 0.000000 -0.464822 0.885404
vn 0.626075 -0.464822 0.626075
vn -0.769622 -0.638500 0.000000
vn -0.544205 -0.638500 -0.544205
vn 0.626075 -0.464822 0.626075
vn 0.885404 -0.464822 0.000000
vn -0.544205 -0.638500 0.544205
vn -0.769622 -0.638500 0.000000
vn 0.885404 -0.464822 0.000000
vn 0.626075 -0.464822 -0.626075
vn 0.000000 -0.638500 0.769622
vn -0.544205 -0.638500 0.544205
vn 0.626075 -0.464822 -0.626075
vn 0.000000 -0.464822 -0.885404
vn 0.544205 -0.638499 0.544205
vn 0.000000 -0.638500 0.769622
vn 0.000000 -0.464822 -0.885404
vn -0.626075 -0.464822 -0.626075
vn 0.769622 -0.638500 0.000000
vn 0.544205 -0.638499 0.544205
vn -0.626075 -0.464822 -0.626075
vn -0.885404 -0.464822 0.000000
vn 0.544205 -0.638500 -0.544205
vn 0.769622 -0.638500 0.000000
vn -0.885404 -0.464822 0.000000
vn -0.626075 -0.464822 0.626075
vn 0.000000 0.464822 0.885404
vn 0.000000 -0.464822 0.885404
vn -0.626075 -0.464822 0.626075
vn -0.626075 0.464822 0.626076
vn 0.626075 0.464822 0.626075
vn 0.626075 -0.464822 0.626075
vn 0.000000 -0.464822 0.885404
vn 0.000000 0.464822 0.885404
vn 0.885404 0.464822 0.000000
vn 0.885404 -0.464822 0.000000
vn 0.626075 -0.464822 0.626075
vn 0.626075 0.464822 0.626075
vn 0.626075 0.464822 -0.626075
vn 0.626075 -0.464822 -0.626075
vn 0.885404 -0.464822 0.000000
vn 0.885404 0.464822 0.000000
vn 0.000000 0.464822 -0.885404
vn 0.000000 -0.464822 -0.885404
vn 0.626075 -0.464822 -0.626075
vn 0.626075 0.464822 -0.626075
vn -0.626075 0.464822 -0.626076
vn -0.626075 -0.464822 -0.626075
vn 0.000000 -0.464822 -0.885404
vn 0.000000 0.464822 -0.885404
vn -0.885404 0.464822 0.000000
vn -0.885404 -0.464822 0.000000
vn -0.626075 -0.464822 -0.626075
vn -0.626075 0.464822 -0.626076
vn -0.626075 0.464822 0.626076
vn -0.626075 -0.464822 0.626075
vn -0.885404 -0.464822 0.000000
vn -0.885404 0.464822 0.000000
vn 0.706171 0.048280 -0.706393
vn 0.000000 0.048543 -0.998821
vn 0.000000 0.000000 -1.000000
vn 0.707216 0.000000 -0.706998
vn 0.000000 0.048543 -0.998821
vn -0.706171 0.048280 -0.706393
vn -0.707216 0.000000 -0.706998
vn 0.000000 0.000000 -1.000000
vn -0.706171 0.048280 -0.706393
vn -0.998864 0.047642 -0.000222
vn -1.000000 0.000000 0.000218
vn -0.707216 0.000000 -0.706998
vn -0.998864 0.047642 -0.000222
vn -0.706436 0.047005 0.706214
vn -0.706998 0.000000 0.707216
vn -1.000000 0.000000 0.000218
vn -0.706436 0.047005 0.706214
vn -0.382326 0.043190 0.923018
vn -0.382683 0.000000 0.923880
vn -0.706998 0.000000 0.707216
vn 0.594255 0.042960 0.803129
vn 0.784625 0.044945 0.618339
vn 0.786096 -0.000000 0.618104
vn 0.594804 -0.000000 0.803871
vn 0.784625 0.044945 0.618339
vn 0.998864 0.047642 -0.000223
vn 1.000000 -0.000000 0.000218
vn 0.786096 -0.000000 0.618104
vn 0.998864 0.047642 -0.000223
vn 0.706171 0.048280 -0.706393
vn 0.707216 0.000000 -0.706998
vn 1.000000 -0.000000 0.000218
vn -0.427707 0.796325 0.427706
vn 0.000000 0.796326 0.604868
vn 0.000000 0.796326 0.604868
vn -0.427707 0.796325 0.427706
vn 0.000000 0.796326 0.604868
vn 0.427707 0.796326 0.427706
vn 0.427707 0.796326 0.427706
vn 0.000000 0.796326 0.604868
vn 0.427707 0.796326 0.427706
vn 0.604869 0.796325 0.000000
vn 0.604869 0.796325 0.000000
vn 0.427707 0.796326 0.427706
vn 0.604869 0.796325 0.000000
vn 0.427707 0.796325 -0.427706
vn 0.427707 0.796325 -0.427706
vn 0.604869 0.796325 0.000000
vn 0.427707 0.796325 -0.427706
vn -0.000000 0.796326 -0.604868
vn -0.000000 0.796326 -0.604868
vn 0.427707 0.796325 -0.427706
vn -0.000000 0.796326 -0.604868
vn -0.427707 0.796325 -0.427707
vn -0.427707 0.796325 -0.427707
vn -0.000000 0.796326 -0.604868
vn -0.427707 0.796325 -0.427707
vn -0.604869 0.796325 -0.000001
vn -0.604869 0.796325 -0.000001
vn -0.427707 0.796325 -0.427707
vn -0.604869 0.796325 -0.000001
vn -0.427707 0.796325 0.427706
vn -0.427707 0.796325 0.427706
vn -0.604869 0.796325 -0.000001
vn -1.000000 0.000000 0.000218
vn -0.706998 0.000000 0.707216
vn -0.706436 -0.047005 0.706214
vn -0.998864 -0.047642 -0.000222
vn -0.707216 0.000000 -0.706998
vn -1.000000 0.000000 0.000218
vn -0.998864 -0.047642 -0.000222
vn -0.706171 -0.048280 -0.706393
vn 0.000000 0.000000 -1.000000
vn -0.707216 0.000000 -0.706998
vn -0.706171 -0.048280 -0.706393
vn 0.000000 -0.048543 -0.998821
vn 0.707216 0.000000 -0.706998
vn 0.000000 0.000000 -1.000000
vn 0.000000 -0.048543 -0.998821
vn 0.706171 -0.048280 -0.706393
vn 1.000000 -0.000000 0.000218
vn 0.707216 0.000000 -0.706998
vn 0.706171 -0.048280 -0.706393
vn 0.998864 -0.047642 -0.000223
vn 0.786096 -0.000000 0.618104
vn 1.000000 -0.000000 0.000218
vn 0.998864 -0.047642 -0.000223
vn 0.784625 -0.044945 0.618339
vn 0.594804 -0.000000 0.803871
vn 0.786096 -0.000000 0.618104
vn 0.784625 -0.044945 0.618339
vn 0.594255 -0.042960 0.803129
vn -0.706998 0.000000 0.707216
vn -0.382683 0.000000 0.923880
vn -0.382326 -0.043190 0.923018
vn -0.706436 -0.047005 0.706214
vn 0.427706 -0.796326 0.427706
vn 0.000000 -0.796326 0.604867
vn 0.000000 -0.796326 0.604867
vn 0.427706 -0.796326 0.427706
vn 0.000000 -0.796326 0.604867
vn -0.427706 -0.796326 0.427706
vn -0.427706 -0.796326 0.427706
vn 0.000000 -0.796326 0.604867
vn -0.427706 -0.796326 0.427706
vn -0.604867 -0.796326 0.000000
vn -0.604867 -0.796326 0.000000
vn -0.427706 -0.796326 0.427706
vn -0.604867 -0.796326 0.000000
vn -0.427706 -0.796326 -0.427706
vn -0.427706 -0.796326 -0.427706
vn -0.604867 -0.796326 0.000000
vn -0.427706 -0.796326 -0.427706
vn 0.000000 -0.796326 -0.604867
vn 0.000000 -0.796326 -0.604867
vn -0.427706 -0.796326 -0.427706
vn 0.000000 -0.796326 -0.604867
vn 0.427706 -0.796326 -0.427706
vn 0.427706 -0.796326 -0.427706
vn 0.000000 -0.796326 -0.604867
vn 0.427706 -0.796326 -0.427706
vn 0.604867 -0.796326 0.000000
vn 0.604867 -0.796326 0.000000
vn 0.427706 -0.796326 -0.427706
vn 0.604867 -0.796326 0.000000
vn 0.427706 -0.796326 0.427706
vn 0.427706 -0.796326 0.427706
vn 0.604867 -0.796326 0.000000
vn -0.999964 0.008461 0.000229
vn -0.706963 0.009124 0.707192
vn -0.707221 0.000000 0.706993
vn -1.000000 0.000000 -0.000228
vn -0.707200 0.007798 -0.706971
vn -0.999964 0.008461 0.000229
vn -1.000000 0.000000 -0.000228
vn -0.706993 0.000000 -0.707221
vn 0.000000 0.007523 -0.999972
vn -0.707200 0.007798 -0.706971
vn -0.706993 0.000000 -0.707221
vn 0.000000 0.000000 -1.000000
vn 0.707200 0.007798 -0.706971
vn 0.000000 0.007523 -0.999972
vn 0.000000 0.000000 -1.000000
vn 0.706993 0.000000 -0.707221
vn 0.999964 0.008461 0.000229
vn 0.707200 0.007798 -0.706971
vn 0.706993 0.000000 -0.707221
vn 1.000000 0.000000 -0.000228
vn 0.706963 0.009124 0.707192
vn 0.999964 0.008461 0.000229
vn 1.000000 0.000000 -0.000228
vn 0.707221 0.000000 0.706993
vn 0.000000 0.009399 0.999956
vn 0.706963 0.009124 0.707192
vn 0.707221 0.000000 0.706993
vn 0.000000 -0.000000 1.000000
vn -0.706963 0.009124 0.707192
vn 0.000000 0.009399 0.999956
vn 0.000000 -0.000000 1.000000
vn -0.707221 0.000000 0.706993
vn 0.013758 -0.999354 0.033215
vn 0.013758 -0.999354 0.033215
vn 0.013758 -0.999354 0.033215
vn -0.924008 0.000000 0.382374
vn -0.923859 0.017897 0.382313
vn -0.923859 0.017897 0.382313
vn -0.924008 0.000000 0.382374
vn 0.013759 0.999354 0.033211
vn 0.013759 0.999354 0.033211
vn 0.013759 0.999354 0.033211
vn -0.923860 -0.017897 0.382313
vn -0.924008 0.000000 0.382374
vn -0.924008 0.000000 0.382374
vn -0.923860 -0.017897 0.382313
vn -1.000000 0.000000 -0.000228
vn -0.707221 0.000000 0.706993
vn -0.706963 -0.009124 0.707192
vn -0.999964 -0.008461 0.000229
vn -0.706993 0.000000 -0.707221
vn -1.000000 0.000000 -0.000228
vn -0.999964 -0.008461 0.000229
vn -0.707200 -0.007798 -0.706971
vn 0.000000 0.000000 -1.000000
vn -0.706993 0.000000 -0.707221
vn -0.707200 -0.007798 -0.706971
vn 0.000000 -0.007523 -0.999972
vn 0.706993 0.000000 -0.707221
vn 0.000000 0.000000 -1.000000
vn 0.000000 -0.007523 -0.999972
vn 0.707200 -0.007798 -0.706971
vn 1.000000 0.000000 -0.000228
vn 0.706993 0.000000 -0.707221
vn 0.707200 -0.007798 -0.706971
vn 0.999964 -0.008461 0.000229
vn 0.707221 0.000000 0.706993
vn 1.000000 0.000000 -0.000228
vn 0.999964 -0.008461 0.000229
vn 0.706963 -0.009124 0.707192
vn 0.000000 -0.000000 1.000000
vn 0.707221 0.000000 0.706993
vn 0.706963 -0.009124 0.707192
vn 0.000000 -0.009399 0.999956
vn -0.707221 0.000000 0.706993
vn 0.000000 -0.000000 1.000000
vn 0.000000 -0.009399 0.999956
vn -0.706963 -0.009124 0.707192
s off
g Maps03:pTorus7
usemtl blinn1SG
f 2/1/1 1/2/2 9/3/3 10/4/4
f 3/5/5 2/1/6 10/4/7 11/6/8
f 4/7/9 3/8/10 11/9/11 12/10/12
f 5/11/13 4/7/14 12/10/15 13/12/16
f 6/13/17 5/11/18 13/12/19 14/14/20
f 7/15/21 6/13/22 14/14/23 15/16/24
f 8/17/25 7/15/26 15/16/27 16/18/28
f 1/2/29 8/17/30 16/18/31 9/3/32
f 10/4/33 9/3/34 17/19/35 18/20/36
f 11/6/37 10/4/38 18/20/39 19/21/40
f 12/10/41 11/9/42 19/22/43 20/23/44
f 13/12/45 12/10/46 20/23/47 21/24/48
f 14/14/49 13/12/50 21/24/51 22/25/52
f 15/16/53 14/14/54 22/25/55 23/26/56
f 16/18/57 15/16/58 23/26/59 24/27/60
f 9/3/61 16/18/62 24/27/63 17/19/64
f 18/20/65 17/19/66 25/28/67 26/29/68
f 19/21/69 18/20/70 26/29/71 27/30/72
f 20/23/73 19/22/74 27/31/75 28/32/76
f 21/24/77 20/23/78 28/32/79 29/33/80
f 22/25/81 21/24/82 29/33/83 30/34/84
f 23/26/85 22/25/86 30/34/87 31/35/88
f 24/27/89 23/26/90 31/35/91 32/36/92
f 17/19/93 24/27/94 32/36/95 25/28/96
f 26/29/97 25/28/98 33/37/99 34/38/100
f 27/30/101 26/29/102 34/38/103 35/39/104
f 28/32/105 27/31/106 35/40/107 36/41/108
f 29/33/109 28/32/110 36/41/111 37/42/112
f 30/34/113 29/33/114 37/42/115 38/43/116
f 31/35/117 30/34/118 38/43/119 39/44/120
f 32/36/121 31/35/122 39/44/123 40/45/124
f 25/28/125 32/36/126 40/45/127 33/37/128
f 2/1/129 34/46/130 33/47/131 1/2/132
f 3/5/133 35/48/134 34/46/135 2/1/136
f 4/7/137 36/49/138 35/50/139 3/8/140
f 5/11/141 37/51/142 36/49/143 4/7/144
f 6/13/145 38/52/146 37/51/147 5/11/148
f 7/15/149 39/53/150 38/52/151 6/13/152
f 8/17/153 40/54/154 39/53/155 7/15/156
f 1/2/157 33/47/158 40/54/159 8/17/160
f 41/55/161 42/56/162 60/57/163 61/58/164
f 42/56/165 43/59/166 59/60/167 60/57/168
f 43/59/169 44/61/170 58/62/171 59/60/172
f 44/61/173 45/63/174 57/64/175 58/62/176
f 45/63/177 46/65/178 64/66/179 57/64/180
f 81/67/181 47/68/182 63/69/183 82/70/184
f 47/68/185 48/71/186 62/72/187 63/69/188
f 48/71/189 41/55/190 61/58/191 62/72/192
f 49/73/193 50/74/194 72/75/195 65/76/196
f 50/74/197 51/77/198 71/78/199 72/75/200
f 51/77/201 52/79/202 70/80/203 71/78/204
f 52/79/205 53/81/206 69/82/207 70/80/208
f 53/81/209 54/83/210 68/84/211 69/82/212
f 54/83/213 55/85/214 67/86/215 68/84/216
f 55/85/217 56/87/218 66/88/219 67/86/220
f 56/89/221 49/73/222 65/76/223 66/90/224
f 58/62/225 57/64/226 53/91/227 52/92/228
f 59/60/229 58/62/230 52/92/231 51/93/232
f 60/57/233 59/60/234 51/93/235 50/94/236
f 61/58/237 60/57/238 50/94/239 49/95/240
f 62/72/241 61/58/242 49/95/243 56/96/244
f 63/69/245 62/72/246 56/96/247 55/97/248
f 82/70/249 63/69/250 55/97/251 83/98/252
f 57/64/253 64/66/254 54/99/255 53/91/256
f 43/100/257 42/101/258 74/102/259 73/103/260
f 42/101/261 41/104/262 75/105/263 74/102/264
f 41/104/265 48/106/266 76/107/267 75/105/268
f 48/106/269 47/108/270 77/109/271 76/107/272
f 47/108/273 46/110/274 78/111/275 77/109/276
f 46/110/277 45/112/278 79/113/279 78/111/280
f 45/112/281 44/114/282 80/115/283 79/113/284
f 44/116/285 43/100/286 73/103/287 80/117/288
f 66/118/289 65/119/290 84/120/291 85/121/292
f 67/122/293 66/118/294 85/121/295 86/123/296
f 68/124/297 67/122/298 86/123/299 87/125/300
f 69/126/301 68/124/302 87/125/303 88/127/304
f 70/128/305 69/126/306 88/127/307 89/129/308
f 71/130/309 70/131/310 89/132/311 90/133/312
f 72/134/313 71/130/314 90/133/315 91/135/316
f 65/119/317 72/134/318 91/135/319 84/120/320
f 46/110/321 47/108/322 81/136/323
f 64/137/324 46/138/325 81/67/326 82/70/327
f 55/85/328 54/83/329 83/139/330
f 54/140/331 64/137/332 82/70/333 83/98/334
f 85/121/335 84/120/336 75/141/337 76/142/338
f 86/123/339 85/121/340 76/142/341 77/143/342
f 87/125/343 86/123/344 77/143/345 78/144/346
f 88/127/347 87/125/348 78/144/349 79/145/350
f 89/129/351 88/127/352 79/145/353 80/146/354
f 90/133/355 89/132/356 80/147/357 73/148/358
f 91/135/359 90/133/360 73/148/361 74/149/362
f 84/120/363 91/135/364 74/149/365 75/141/366
