# This file uses centimeters as units for non-parametric coordinates.

mtllib RecordPlayerCOL.mtl
g default
v -2.203890 4.707237 -2.772589
v 2.257244 4.707237 -2.772589
v -2.195249 1.037235 -1.877057
v 2.248579 1.037235 -1.877057
v -2.178353 4.575952 -3.255999
v -2.155435 0.916256 -2.517904
v 2.231707 4.575952 -3.255999
v 2.208726 0.916256 -2.517904
v -2.184569 0.000000 1.885395
v 2.224842 0.000000 1.885395
v -2.184569 1.255872 1.885395
v 2.224842 1.255872 1.885395
v -2.184569 1.255872 -1.865532
v 2.224842 1.255872 -1.865532
v -2.184569 0.000000 -1.865532
v 2.224842 0.000000 -1.865532
vt 0.484522 0.117451
vt 0.486034 0.085992
vt 0.747224 0.086112
vt 0.748605 0.117311
vt 0.486138 0.381065
vt 0.484865 0.339556
vt 0.748669 0.339085
vt 0.747555 0.380706
vt 0.778053 0.123180
vt 0.787949 0.330008
vt 0.445547 0.330600
vt 0.454783 0.123714
vt 0.375000 0.000000
vt 0.625000 0.000000
vt 0.625000 0.250000
vt 0.375000 0.250000
vt 0.625000 0.500000
vt 0.375000 0.500000
vt 0.625000 0.750000
vt 0.375000 0.750000
vt 0.625000 1.000000
vt 0.375000 1.000000
vt 0.875000 0.000000
vt 0.875000 0.250000
vt 0.125000 0.000000
vt 0.125000 0.250000
vn 0.000000 0.965044 -0.262087
vn 0.000000 0.965044 -0.262087
vn 0.000000 0.965044 -0.262087
vn 0.000000 0.965044 -0.262087
vn 0.000000 -0.982644 0.185503
vn 0.000000 -0.982644 0.185503
vn 0.000000 -0.982644 0.185503
vn 0.000000 -0.982644 0.185503
vn 0.998385 -0.016431 -0.054382
vn 0.998385 -0.016431 -0.054382
vn 0.998385 -0.016431 -0.054382
vn 0.998385 -0.016431 -0.054382
vn -0.998387 -0.016413 -0.054352
vn -0.998387 -0.016413 -0.054352
vn -0.998387 -0.016413 -0.054352
vn -0.998387 -0.016413 -0.054352
vn 0.000000 -0.197701 -0.980262
vn 0.000000 -0.197701 -0.980262
vn 0.000000 -0.197701 -0.980262
vn 0.000000 -0.197701 -0.980262
vn 0.000000 0.237059 0.971495
vn 0.000000 0.237059 0.971495
vn 0.000000 0.237059 0.971495
vn 0.000000 0.237059 0.971495
vn 0.000000 0.000000 1.000000
vn 0.000000 0.000000 1.000000
vn 0.000000 0.000000 1.000000
vn 0.000000 0.000000 1.000000
vn 0.000000 1.000000 0.000000
vn 0.000000 1.000000 0.000000
vn 0.000000 1.000000 0.000000
vn 0.000000 1.000000 0.000000
vn 0.000000 0.000000 -1.000000
vn 0.000000 0.000000 -1.000000
vn 0.000000 0.000000 -1.000000
vn 0.000000 0.000000 -1.000000
vn 0.000000 -1.000000 0.000000
vn 0.000000 -1.000000 0.000000
vn 0.000000 -1.000000 0.000000
vn 0.000000 -1.000000 0.000000
vn 1.000000 0.000000 0.000000
vn 1.000000 0.000000 0.000000
vn 1.000000 0.000000 0.000000
vn 1.000000 0.000000 0.000000
vn -1.000000 0.000000 0.000000
vn -1.000000 0.000000 0.000000
vn -1.000000 0.000000 0.000000
vn -1.000000 0.000000 0.000000
s off
g RecordPlayerCOL:pCylinder14
usemtl initialShadingGroup
f 5/1/1 1/2/2 2/3/3 7/4/4
f 3/5/5 6/6/6 8/7/7 4/8/8
f 7/4/9 2/9/10 4/10/11 8/7/12
f 6/6/13 3/11/14 1/12/15 5/1/16
f 5/1/17 7/4/18 8/7/19 6/6/20
f 4/10/21 2/3/22 1/12/23 3/5/24
f 9/13/25 10/14/26 12/15/27 11/16/28
f 11/16/29 12/15/30 14/17/31 13/18/32
f 13/18/33 14/17/34 16/19/35 15/20/36
f 15/20/37 16/19/38 10/21/39 9/22/40
f 10/14/41 16/23/42 14/24/43 12/15/44
f 15/25/45 9/13/46 11/16/47 13/26/48
