# This file uses centimeters as units for non-parametric coordinates.

mtllib RockSample_forest.mtl
g default
v -0.102415 -0.029787 1.123798
v 0.116949 0.085325 -1.123798
v -0.096602 -0.938949 -0.058787
v -1.211092 0.085325 0.078997
v -0.096672 0.936255 -0.058326
v 1.211091 -0.030262 -0.086416
v -0.756651 -0.768541 0.625890
v -0.770113 -0.545333 0.875525
v -0.977300 -0.518853 0.671492
v -0.129830 -0.681963 1.000174
v -0.130292 -0.907938 0.751956
v -0.737561 0.594011 0.876350
v -0.736789 0.820403 0.628455
v -0.960274 0.609326 0.673671
v -0.108183 0.861566 0.752564
v -0.091404 0.635406 0.999257
v -0.753182 0.865456 -0.705555
v -0.733605 0.652385 -0.939408
v -0.987525 0.644841 -0.706288
v 0.046559 0.732571 -1.036968
v 0.004106 0.938949 -0.816157
v -0.733121 -0.487129 -0.938930
v -0.751338 -0.723352 -0.704597
v -0.987431 -0.482957 -0.705228
v 0.003640 -0.830581 -0.816045
v 0.047283 -0.584949 -1.035836
v -0.844868 0.033450 1.001224
v -1.062522 0.055331 0.790015
v 0.915102 -0.624392 0.649373
v 0.659517 -0.628661 0.883873
v 0.640246 -0.852577 0.634136
v 0.789156 -0.059519 0.991089
v 1.052664 -0.060670 0.747910
v -1.115155 0.682709 0.046647
v -0.893532 0.893058 0.019439
v 0.933550 0.504002 0.650434
v 0.661546 0.736003 0.635209
v 0.690402 0.511712 0.884172
v 0.787622 0.813763 -0.088760
v 1.057070 0.583689 -0.089658
v -0.825857 0.088241 -1.039923
v -1.091552 0.087082 -0.796728
v 0.853285 0.587165 -0.713638
v 0.636470 0.616553 -0.916077
v 0.583040 0.819439 -0.695317
v 0.787196 0.055940 -1.013045
v 1.005186 0.031622 -0.803996
v -0.890907 -0.801476 0.018595
v -1.112846 -0.553878 0.045865
v 0.852170 -0.540692 -0.711893
v 0.580019 -0.769307 -0.693711
v 0.638640 -0.523377 -0.914635
v 0.779925 -0.880063 -0.088755
v 1.050978 -0.651849 -0.089607
vt 0.812142 0.606057
vt 0.798258 0.621624
vt 0.767512 0.610593
vt 0.771932 0.592095
vt 0.811735 0.625594
vt 0.849215 0.620238
vt 0.843173 0.634713
vt 0.801218 0.653948
vt 0.788307 0.651001
vt 0.891452 0.638121
vt 0.878252 0.651921
vt 0.792168 0.682137
vt 0.778469 0.679165
vt 0.780220 0.697094
vt 0.820564 0.693915
vt 0.813653 0.708431
vt 0.742294 0.692853
vt 0.747496 0.676334
vt 0.855674 0.706225
vt 0.853792 0.725117
vt 0.701124 0.677953
vt 0.712636 0.663929
vt 0.696496 0.660661
vt 0.656969 0.675608
vt 0.656842 0.658823
vt 0.704008 0.631789
vt 0.719921 0.635246
vt 0.624446 0.668094
vt 0.625116 0.650843
vt 0.710931 0.601926
vt 0.727886 0.605896
vt 0.723652 0.586894
vt 0.670278 0.588387
vt 0.677028 0.570668
vt 0.636270 0.584074
vt 0.641870 0.565705
vt 0.892902 0.659090
vt 0.936423 0.656239
vt 0.927792 0.674092
vt 0.881595 0.686428
vt 0.867919 0.679799
vt 0.869660 0.712818
vt 0.900170 0.733061
vt 0.891183 0.750361
vt 0.928331 0.748741
vt 0.922823 0.767120
vt 0.939167 0.760406
vt 0.944788 0.722844
vt 0.958698 0.731479
vt 0.956670 0.693017
vt 0.972045 0.697815
vt 0.968947 0.677903
vt 0.832379 0.664168
vt 0.761665 0.726412
vt 0.800961 0.747207
vt 0.792745 0.787981
vt 0.755127 0.766433
vt 0.658272 0.623694
vt 0.845045 0.538663
vt 0.888412 0.547296
vt 0.867389 0.584230
vt 0.823176 0.571847
vt 0.914447 0.704214
vt 0.757957 0.644627
vt 0.846825 0.764855
vt 0.826110 0.792247
vt 0.621566 0.616720
vt 0.917553 0.566970
vt 0.914023 0.602976
vn -0.343045 -0.911443 0.227138
vn -0.884736 -0.332104 0.327032
vn -0.935952 -0.352128 0.000380
vn -0.384232 -0.922311 -0.041325
vn -0.342163 -0.360911 0.867564
vn -0.343045 -0.911443 0.227138
vn -0.049637 -0.963065 0.264654
vn -0.024674 -0.407815 0.912731
vn -0.884736 -0.332104 0.327032
vn -0.342163 -0.360911 0.867564
vn -0.347824 0.012080 0.937482
vn -0.917449 0.010154 0.397725
vn -0.024674 -0.407815 0.912731
vn -0.049637 -0.963065 0.264654
vn 0.221172 -0.950985 0.216125
vn 0.265574 -0.380554 0.885804
vn -0.286763 0.382707 0.878238
vn -0.856562 0.366118 0.363674
vn -0.917449 0.010154 0.397725
vn -0.347824 0.012080 0.937482
vn -0.216344 0.938845 0.267891
vn -0.286763 0.382707 0.878238
vn 0.024237 0.403313 0.914741
vn 0.052953 0.951522 0.302988
vn -0.856562 0.366118 0.363674
vn -0.216344 0.938845 0.267891
vn -0.286011 0.957600 0.034645
vn -0.925556 0.377926 0.022751
vn 0.052953 0.951522 0.302988
vn 0.024237 0.403313 0.914741
vn 0.293176 0.361622 0.885030
vn 0.286069 0.921803 0.261618
vn -0.239617 0.947712 -0.210772
vn -0.885821 0.353606 -0.300473
vn -0.925556 0.377926 0.022751
vn -0.286011 0.957600 0.034645
vn -0.251067 0.331311 -0.909505
vn -0.239617 0.947712 -0.210772
vn 0.034812 0.971284 -0.235362
vn 0.019704 0.369695 -0.928944
vn -0.885821 0.353606 -0.300473
vn -0.251067 0.331311 -0.909505
vn -0.289344 -0.000456 -0.957225
vn -0.936991 -0.000974 -0.349352
vn 0.019704 0.369695 -0.928944
vn 0.034812 0.971284 -0.235362
vn 0.293000 0.939819 -0.175761
vn 0.335275 0.353184 -0.873414
vn -0.255373 -0.314604 -0.914226
vn -0.891422 -0.333148 -0.307212
vn -0.936991 -0.000974 -0.349352
vn -0.289344 -0.000456 -0.957225
vn -0.316101 -0.896288 -0.311044
vn -0.255373 -0.314604 -0.914226
vn 0.004345 -0.346616 -0.937997
vn -0.036839 -0.931385 -0.362168
vn -0.891422 -0.333148 -0.307212
vn -0.316101 -0.896288 -0.311044
vn -0.384232 -0.922311 -0.041325
vn -0.935952 -0.352128 0.000380
vn -0.036839 -0.931385 -0.362168
vn 0.004345 -0.346616 -0.937997
vn 0.311794 -0.338175 -0.887931
vn 0.237922 -0.914809 -0.326371
vn 0.847984 -0.430847 0.308699
vn 0.221172 -0.950985 0.216125
vn 0.289713 -0.955283 -0.059164
vn 0.889300 -0.453584 -0.058365
vn 0.265574 -0.380554 0.885804
vn 0.847984 -0.430847 0.308699
vn 0.928945 -0.017306 0.369813
vn 0.327622 -0.010032 0.944756
vn 0.327622 -0.010032 0.944756
vn 0.928945 -0.017306 0.369813
vn 0.855789 0.406786 0.319611
vn 0.293176 0.361622 0.885030
vn 0.286069 0.921803 0.261618
vn 0.855789 0.406786 0.319611
vn 0.896855 0.441886 -0.019705
vn 0.342221 0.938730 0.040883
vn 0.342221 0.938730 0.040883
vn 0.896855 0.441886 -0.019705
vn 0.822957 0.437495 -0.362408
vn 0.293000 0.939819 -0.175761
vn 0.335275 0.353184 -0.873414
vn 0.822957 0.437495 -0.362408
vn 0.900893 0.003595 -0.434027
vn 0.378793 0.000207 -0.925481
vn 0.378793 0.000207 -0.925481
vn 0.900893 0.003595 -0.434027
vn 0.806647 -0.417254 -0.418593
vn 0.311794 -0.338175 -0.887931
vn 0.237922 -0.914809 -0.326371
vn 0.806647 -0.417254 -0.418593
vn 0.889300 -0.453584 -0.058365
vn 0.289713 -0.955283 -0.059164
vn -0.342163 -0.360911 0.867564
vn -0.024674 -0.407815 0.912731
vn 0.001535 -0.003039 0.999994
vn -0.347824 0.012080 0.937482
vn -0.286011 0.957600 0.034645
vn 0.043752 0.997960 0.046491
vn 0.034812 0.971284 -0.235362
vn -0.239617 0.947712 -0.210772
vn -0.289344 -0.000456 -0.957225
vn 0.026775 0.001130 -0.999641
vn 0.004345 -0.346616 -0.937997
vn -0.255373 -0.314604 -0.914226
vn -0.316101 -0.896288 -0.311044
vn -0.036839 -0.931385 -0.362168
vn -0.051579 -0.997309 -0.052108
vn -0.384232 -0.922311 -0.041325
vn 0.999160 -0.010851 -0.039525
vn 0.889300 -0.453584 -0.058365
vn 0.806647 -0.417254 -0.418593
vn 0.900893 0.003595 -0.434027
vn -0.891422 -0.333148 -0.307212
vn -0.935952 -0.352128 0.000380
vn -0.999751 0.004830 0.021803
vn -0.936991 -0.000974 -0.349352
vn 0.043752 0.997960 0.046491
vn 0.342221 0.938730 0.040883
vn 0.293000 0.939819 -0.175761
vn 0.034812 0.971284 -0.235362
vn 0.004345 -0.346616 -0.937997
vn 0.026775 0.001130 -0.999641
vn 0.378793 0.000207 -0.925481
vn 0.311794 -0.338175 -0.887931
vn -0.051579 -0.997309 -0.052108
vn -0.036839 -0.931385 -0.362168
vn 0.237922 -0.914809 -0.326371
vn 0.289713 -0.955283 -0.059164
vn 0.001535 -0.003039 0.999994
vn -0.024674 -0.407815 0.912731
vn 0.265574 -0.380554 0.885804
vn 0.327622 -0.010032 0.944756
vn 0.024237 0.403313 0.914741
vn 0.001535 -0.003039 0.999994
vn 0.327622 -0.010032 0.944756
vn 0.293176 0.361622 0.885030
vn -0.347824 0.012080 0.937482
vn 0.001535 -0.003039 0.999994
vn 0.024237 0.403313 0.914741
vn -0.286763 0.382707 0.878238
vn -0.936991 -0.000974 -0.349352
vn -0.999751 0.004830 0.021803
vn -0.925556 0.377926 0.022751
vn -0.885821 0.353606 -0.300473
vn -0.251067 0.331311 -0.909505
vn 0.019704 0.369695 -0.928944
vn 0.026775 0.001130 -0.999641
vn -0.289344 -0.000456 -0.957225
vn 0.378793 0.000207 -0.925481
vn 0.026775 0.001130 -0.999641
vn 0.019704 0.369695 -0.928944
vn 0.335275 0.353184 -0.873414
vn 0.999160 -0.010851 -0.039525
vn 0.900893 0.003595 -0.434027
vn 0.822957 0.437495 -0.362408
vn 0.896855 0.441886 -0.019705
vn -0.049637 -0.963065 0.264654
vn -0.051579 -0.997309 -0.052108
vn 0.289713 -0.955283 -0.059164
vn 0.221172 -0.950985 0.216125
vn -0.384232 -0.922311 -0.041325
vn -0.051579 -0.997309 -0.052108
vn -0.049637 -0.963065 0.264654
vn -0.343045 -0.911443 0.227138
vn -0.999751 0.004830 0.021803
vn -0.935952 -0.352128 0.000380
vn -0.884736 -0.332104 0.327032
vn -0.917449 0.010154 0.397725
vn -0.925556 0.377926 0.022751
vn -0.999751 0.004830 0.021803
vn -0.917449 0.010154 0.397725
vn -0.856562 0.366118 0.363674
vn -0.216344 0.938845 0.267891
vn 0.052953 0.951522 0.302988
vn 0.043752 0.997960 0.046491
vn -0.286011 0.957600 0.034645
vn 0.052953 0.951522 0.302988
vn 0.286069 0.921803 0.261618
vn 0.342221 0.938730 0.040883
vn 0.043752 0.997960 0.046491
vn 0.928945 -0.017306 0.369813
vn 0.999160 -0.010851 -0.039525
vn 0.896855 0.441886 -0.019705
vn 0.855789 0.406786 0.319611
vn 0.847984 -0.430847 0.308699
vn 0.889300 -0.453584 -0.058365
vn 0.999160 -0.010851 -0.039525
vn 0.928945 -0.017306 0.369813
vn -0.343045 -0.911443 0.227138
vn -0.342163 -0.360911 0.867564
vn -0.884736 -0.332104 0.327032
vn -0.286763 0.382707 0.878238
vn -0.216344 0.938845 0.267891
vn -0.856562 0.366118 0.363674
vn -0.239617 0.947712 -0.210772
vn -0.251067 0.331311 -0.909505
vn -0.885821 0.353606 -0.300473
vn -0.255373 -0.314604 -0.914226
vn -0.316101 -0.896288 -0.311044
vn -0.891422 -0.333148 -0.307212
vn 0.847984 -0.430847 0.308699
vn 0.265574 -0.380554 0.885804
vn 0.221172 -0.950985 0.216125
vn 0.855789 0.406786 0.319611
vn 0.286069 0.921803 0.261618
vn 0.293176 0.361622 0.885030
vn 0.822957 0.437495 -0.362408
vn 0.335275 0.353184 -0.873414
vn 0.293000 0.939819 -0.175761
vn 0.806647 -0.417254 -0.418593
vn 0.237922 -0.914809 -0.326371
vn 0.311794 -0.338175 -0.887931
s off
g RockSample_forest:pCube16
usemtl blinn1SG
f 7/1/1 9/2/2 49/3/3 48/4/4
f 8/5/5 7/1/6 11/6/7 10/7/8
f 9/2/9 8/5/10 27/8/11 28/9/12
f 10/7/13 11/6/14 31/10/15 30/11/16
f 12/12/17 14/13/18 28/9/19 27/8/20
f 13/14/21 12/12/22 16/15/23 15/16/24
f 14/13/25 13/14/26 35/17/27 34/18/28
f 15/16/29 16/15/30 38/19/31 37/20/32
f 17/21/33 19/22/34 34/18/35 35/17/36
f 18/23/37 17/21/38 21/24/39 20/25/40
f 19/22/41 18/23/42 41/26/43 42/27/44
f 20/25/45 21/24/46 45/28/47 44/29/48
f 22/30/49 24/31/50 42/27/51 41/26/52
f 23/32/53 22/30/54 26/33/55 25/34/56
f 24/31/57 23/32/58 48/4/59 49/3/60
f 25/34/61 26/33/62 52/35/63 51/36/64
f 29/37/65 31/10/66 53/38/67 54/39/68
f 30/11/69 29/37/70 33/40/71 32/41/72
f 32/41/73 33/40/74 36/42/75 38/19/76
f 37/20/77 36/42/78 40/43/79 39/44/80
f 39/44/81 40/43/82 43/45/83 45/46/84
f 44/47/85 43/45/86 47/48/87 46/49/88
f 46/49/89 47/48/90 50/50/91 52/51/92
f 51/52/93 50/50/94 54/39/95 53/38/96
f 8/5/97 10/7/98 1/53/99 27/8/100
f 35/54/101 5/55/102 21/56/103 17/57/104
f 41/26/105 2/58/106 26/33/107 22/30/108
f 23/59/109 25/60/110 3/61/111 48/62/112
f 6/63/113 54/39/114 50/50/115 47/48/116
f 24/31/117 49/3/118 4/64/119 42/27/120
f 5/55/121 39/65/122 45/66/123 21/56/124
f 26/33/125 2/58/126 46/67/127 52/35/128
f 3/61/129 25/60/130 51/68/131 53/69/132
f 1/53/133 10/7/134 30/11/135 32/41/136
f 16/15/137 1/53/138 32/41/139 38/19/140
f 27/8/141 1/53/142 16/15/143 12/12/144
f 42/27/145 4/64/146 34/18/147 19/22/148
f 18/23/149 20/25/150 2/58/151 41/26/152
f 46/67/153 2/58/154 20/25/155 44/29/156
f 6/63/157 47/48/158 43/45/159 40/43/160
f 11/6/161 3/61/162 53/69/163 31/10/164
f 48/62/165 3/61/166 11/6/167 7/1/168
f 4/64/169 49/3/170 9/2/171 28/9/172
f 34/18/173 4/64/174 28/9/175 14/13/176
f 13/14/177 15/16/178 5/55/179 35/54/180
f 15/16/181 37/20/182 39/65/183 5/55/184
f 33/40/185 6/63/186 40/43/187 36/42/188
f 29/37/189 54/39/190 6/63/191 33/40/192
f 7/1/193 8/5/194 9/2/195
f 12/12/196 13/14/197 14/13/198
f 17/21/199 18/23/200 19/22/201
f 22/30/202 23/32/203 24/31/204
f 29/37/205 30/11/206 31/10/207
f 36/42/208 37/20/209 38/19/210
f 43/45/211 44/47/212 45/46/213
f 50/50/214 51/52/215 52/51/216
