# This file uses centimeters as units for non-parametric coordinates.

mtllib ToiletPaper01.mtl
g default
v -0.856440 1.000000 -0.622240
v -0.327131 1.000000 -1.006806
v 0.327131 1.000000 -1.006806
v 0.856440 1.000000 -0.622240
v 0.856440 1.000000 0.622240
v 0.327131 1.000000 1.006806
v -0.327131 1.000000 1.006806
v -0.856440 1.000000 0.622240
v -1.058618 1.000000 0.000000
v 0.813520 0.094949 -0.591057
v 0.728123 0.000000 -0.529013
v 0.310737 0.094949 -0.956350
v 0.278118 0.000000 -0.855961
v -0.310737 0.094949 -0.956350
v -0.278119 0.000000 -0.855960
v -0.813520 0.094949 -0.591057
v -0.728124 0.000000 -0.529013
v -1.005566 0.094949 0.000000
v -0.900010 0.000000 0.000000
v -0.813520 0.094949 0.591057
v -0.728123 0.000000 0.529013
v -0.310737 0.094949 0.956350
v -0.278118 0.000000 0.855960
v 0.310737 0.094949 0.956350
v 0.278118 0.000000 0.855960
v 0.813520 0.094949 0.591057
v 0.728123 0.000000 0.529013
v 1.005566 0.094949 0.000000
v 0.900010 0.000000 0.000000
v 0.728123 2.000000 -0.529013
v 0.813520 1.905051 -0.591057
v 0.278118 2.000000 -0.855961
v 0.310737 1.905051 -0.956350
v -0.278119 2.000000 -0.855960
v -0.310737 1.905051 -0.956350
v -0.728124 2.000000 -0.529013
v -0.813520 1.905051 -0.591057
v -0.900010 2.000000 0.000000
v -1.005566 1.905051 0.000000
v -0.728123 2.000000 0.529013
v -0.813520 1.905051 0.591057
v -0.278118 2.000000 0.855960
v -0.310737 1.905051 0.956350
v 0.278118 2.000000 0.855960
v 0.310737 1.905051 0.956350
v 0.728123 2.000000 0.529013
v 0.813520 1.905051 0.591057
v 0.900010 2.000000 0.000000
v 1.005566 1.905051 0.000000
v 1.069944 0.089751 0.000000
v 0.902183 0.089751 0.619865
v 1.127704 1.000000 0.000000
v 0.945104 1.000000 0.651049
v 1.069944 1.910249 0.000000
v 0.902183 1.910249 0.619865
v -0.327841 2.000000 0.000000
v -0.265229 2.000000 -0.192700
v -0.101309 2.000000 -0.311796
v 0.101308 2.000000 -0.311796
v 0.265229 2.000000 -0.192700
v 0.327841 2.000000 0.000000
v 0.265229 2.000000 0.192700
v 0.101309 2.000000 0.311795
v -0.101308 2.000000 0.311796
v -0.265229 2.000000 0.192700
v 0.265229 0.000000 0.192700
v 0.101309 0.000000 0.311795
v -0.101308 0.000000 0.311796
v -0.265229 0.000000 0.192700
v -0.327841 0.000000 0.000000
v -0.265229 0.000000 -0.192700
v -0.101309 0.000000 -0.311796
v 0.101308 0.000000 -0.311796
v 0.265229 0.000000 -0.192700
v 0.327841 0.000000 0.000000
vt 0.773234 0.743253
vt 0.770257 0.734461
vt 0.782794 0.701773
vt 0.787786 0.705387
vt 0.750332 0.756781
vt 0.750507 0.746167
vt 0.783330 0.660589
vt 0.788431 0.657645
vt 0.771660 0.626641
vt 0.774922 0.618261
vt 0.752242 0.612895
vt 0.752418 0.602283
vt 0.732492 0.624603
vt 0.729516 0.615809
vt 0.719955 0.657291
vt 0.714963 0.653677
vt 0.719419 0.698473
vt 0.714318 0.701419
vt 0.731089 0.732421
vt 0.727828 0.740801
vt 0.674307 0.620543
vt 0.677098 0.611511
vt 0.692650 0.647753
vt 0.687737 0.651781
vt 0.654261 0.611061
vt 0.653864 0.600473
vt 0.694581 0.695357
vt 0.689422 0.692839
vt 0.682152 0.736139
vt 0.678719 0.728037
vt 0.660112 0.754521
vt 0.659715 0.743931
vt 0.636878 0.743483
vt 0.639670 0.734449
vt 0.621326 0.707241
vt 0.626239 0.703213
vt 0.619395 0.659637
vt 0.624554 0.662155
vt 0.631824 0.618855
vt 0.635257 0.626955
vt 0.409544 0.607981
vt 0.433254 0.607853
vt 0.433366 0.675081
vt 0.409747 0.675015
vt 0.456984 0.607621
vt 0.456983 0.674985
vt 0.480693 0.607549
vt 0.480682 0.674911
vt 0.504368 0.607561
vt 0.504350 0.674885
vt 0.528018 0.607631
vt 0.528004 0.674907
vt 0.551623 0.607767
vt 0.551702 0.675005
vt 0.575137 0.607839
vt 0.575532 0.675193
vt 0.598478 0.607269
vt 0.599678 0.675453
vt 0.361995 0.606895
vt 0.385767 0.608583
vt 0.384930 0.675189
vt 0.360348 0.675223
vt 0.668190 0.668133
vt 0.663299 0.656753
vt 0.668803 0.683089
vt 0.664902 0.695911
vt 0.657979 0.701697
vt 0.650678 0.698241
vt 0.645786 0.686861
vt 0.645174 0.671903
vt 0.649074 0.659083
vt 0.655997 0.653295
vt 0.480732 0.742261
vt 0.457054 0.742319
vt 0.433327 0.742261
vt 0.409629 0.742449
vt 0.385818 0.741833
vt 0.362032 0.743543
vt 0.598089 0.743443
vt 0.574859 0.742371
vt 0.551433 0.742127
vt 0.527923 0.742127
vt 0.504350 0.742183
vt 0.362430 0.600017
vt 0.385985 0.603949
vt 0.356895 0.675227
vt 0.358527 0.606719
vt 0.386037 0.746467
vt 0.362469 0.750419
vt 0.358564 0.743719
vt 0.739733 0.686427
vt 0.743983 0.698795
vt 0.739930 0.671425
vt 0.744498 0.659519
vt 0.751693 0.655257
vt 0.758766 0.660267
vt 0.763016 0.672635
vt 0.762819 0.687637
vt 0.758251 0.699543
vt 0.751057 0.703805
vt 0.272643 0.598767
vt 0.280153 0.598813
vt 0.279929 0.747075
vt 0.272419 0.747029
vt 0.287663 0.598859
vt 0.287439 0.747119
vt 0.295173 0.598903
vt 0.294949 0.747165
vt 0.302683 0.598949
vt 0.302459 0.747211
vt 0.310193 0.598995
vt 0.309969 0.747255
vt 0.317703 0.599039
vt 0.317479 0.747301
vt 0.325214 0.599085
vt 0.324990 0.747347
vt 0.332724 0.599131
vt 0.332500 0.747393
vt 0.340234 0.599175
vt 0.340010 0.747437
vt 0.265133 0.598721
vt 0.264909 0.746983
vn 0.778065 -0.134500 -0.613616
vn 0.204954 -0.967378 -0.148907
vn 0.078285 -0.967378 -0.240937
vn 0.306112 -0.136784 -0.942118
vn 0.204954 -0.967378 -0.148907
vn 0.778065 -0.134500 -0.613616
vn 0.668765 -0.743474 0.000000
vn 0.253337 -0.967378 0.000000
vn 0.306112 -0.136784 -0.942118
vn 0.078285 -0.967378 -0.240937
vn -0.078285 -0.967378 -0.240937
vn -0.306113 -0.136784 -0.942117
vn -0.306113 -0.136784 -0.942117
vn -0.078285 -0.967378 -0.240937
vn -0.204954 -0.967378 -0.148907
vn -0.801413 -0.136784 -0.582261
vn -0.801413 -0.136784 -0.582261
vn -0.204954 -0.967378 -0.148907
vn -0.253336 -0.967378 0.000000
vn -0.990601 -0.136784 0.000000
vn -0.990601 -0.136784 0.000000
vn -0.253336 -0.967378 0.000000
vn -0.204954 -0.967378 0.148908
vn -0.801413 -0.136785 0.582261
vn -0.801413 -0.136785 0.582261
vn -0.204954 -0.967378 0.148908
vn -0.078285 -0.967378 0.240937
vn -0.306112 -0.136785 0.942117
vn -0.306112 -0.136785 0.942117
vn -0.078285 -0.967378 0.240937
vn 0.078285 -0.967378 0.240937
vn 0.306113 -0.136785 0.942117
vn 0.306113 -0.136785 0.942117
vn 0.078285 -0.967378 0.240937
vn 0.204954 -0.967378 0.148908
vn 0.609142 -0.194971 0.768721
vn 0.609142 -0.194971 0.768721
vn 0.204954 -0.967378 0.148908
vn 0.253337 -0.967378 0.000000
vn 0.668765 -0.743474 0.000000
vn 0.204954 0.967378 -0.148907
vn 0.778065 0.134500 -0.613616
vn 0.306112 0.136784 -0.942118
vn 0.078285 0.967378 -0.240937
vn 0.778065 0.134500 -0.613616
vn 0.204954 0.967378 -0.148907
vn 0.253336 0.967378 0.000000
vn 0.668764 0.743474 0.000000
vn 0.078285 0.967378 -0.240937
vn 0.306112 0.136784 -0.942118
vn -0.306113 0.136784 -0.942117
vn -0.078285 0.967378 -0.240937
vn -0.078285 0.967378 -0.240937
vn -0.306113 0.136784 -0.942117
vn -0.801413 0.136784 -0.582261
vn -0.204953 0.967378 -0.148907
vn -0.204953 0.967378 -0.148907
vn -0.801413 0.136784 -0.582261
vn -0.990601 0.136785 0.000000
vn -0.253336 0.967378 -0.000000
vn -0.253336 0.967378 -0.000000
vn -0.990601 0.136785 0.000000
vn -0.801413 0.136785 0.582261
vn -0.204953 0.967378 0.148908
vn -0.204953 0.967378 0.148908
vn -0.801413 0.136785 0.582261
vn -0.306112 0.136784 0.942118
vn -0.078285 0.967378 0.240937
vn -0.078285 0.967378 0.240937
vn -0.306112 0.136784 0.942118
vn 0.306113 0.136785 0.942117
vn 0.078285 0.967378 0.240937
vn 0.078285 0.967378 0.240937
vn 0.306113 0.136785 0.942117
vn 0.609142 0.194971 0.768721
vn 0.204953 0.967378 0.148907
vn 0.204953 0.967378 0.148907
vn 0.609142 0.194971 0.768721
vn 0.668764 0.743474 0.000000
vn 0.253336 0.967378 0.000000
vn 0.778065 -0.134500 -0.613616
vn 0.306112 -0.136784 -0.942118
vn 0.309017 0.000000 -0.951057
vn 0.783426 0.000000 -0.621485
vn 0.306112 -0.136784 -0.942118
vn -0.306113 -0.136784 -0.942117
vn -0.309017 0.000000 -0.951056
vn 0.309017 0.000000 -0.951057
vn -0.306113 -0.136784 -0.942117
vn -0.801413 -0.136784 -0.582261
vn -0.809017 0.000000 -0.587785
vn -0.309017 0.000000 -0.951056
vn -0.801413 -0.136784 -0.582261
vn -0.990601 -0.136784 0.000000
vn -1.000000 0.000000 0.000000
vn -0.809017 0.000000 -0.587785
vn -0.990601 -0.136784 0.000000
vn -0.801413 -0.136785 0.582261
vn -0.809017 0.000000 0.587785
vn -1.000000 0.000000 0.000000
vn -0.801413 -0.136785 0.582261
vn -0.306112 -0.136785 0.942117
vn -0.309017 0.000000 0.951057
vn -0.809017 0.000000 0.587785
vn -0.306112 -0.136785 0.942117
vn 0.306113 -0.136785 0.942117
vn 0.309017 -0.000000 0.951057
vn -0.309017 0.000000 0.951057
vn 0.306113 -0.136785 0.942117
vn 0.609142 -0.194971 0.768721
vn 0.587785 0.000000 0.809017
vn 0.309017 -0.000000 0.951057
vn 0.962429 -0.057771 0.265318
vn 0.995616 -0.061177 -0.070749
vn 0.997555 0.000000 -0.069880
vn 0.964039 0.000000 0.265762
vn 0.995616 -0.061177 -0.070749
vn 0.778065 -0.134500 -0.613616
vn 0.783426 0.000000 -0.621485
vn 0.997555 0.000000 -0.069880
vn 0.204954 0.967378 -0.148907
vn 0.078285 0.967378 -0.240937
vn 0.000000 1.000000 0.000000
vn 0.000000 1.000000 0.000000
vn 0.078285 0.967378 -0.240937
vn -0.078285 0.967378 -0.240937
vn 0.000000 1.000000 0.000000
vn 0.000000 1.000000 0.000000
vn -0.078285 0.967378 -0.240937
vn -0.204953 0.967378 -0.148907
vn 0.000000 1.000000 0.000000
vn 0.000000 1.000000 0.000000
vn -0.204953 0.967378 -0.148907
vn -0.253336 0.967378 -0.000000
vn 0.000000 1.000000 0.000000
vn 0.000000 1.000000 0.000000
vn -0.253336 0.967378 -0.000000
vn -0.204953 0.967378 0.148908
vn 0.000000 1.000000 0.000000
vn 0.000000 1.000000 0.000000
vn -0.204953 0.967378 0.148908
vn -0.078285 0.967378 0.240937
vn 0.000000 1.000000 0.000000
vn 0.000000 1.000000 0.000000
vn -0.078285 0.967378 0.240937
vn 0.078285 0.967378 0.240937
vn 0.000000 1.000000 0.000000
vn 0.000000 1.000000 0.000000
vn 0.078285 0.967378 0.240937
vn 0.204953 0.967378 0.148907
vn 0.000000 1.000000 0.000000
vn 0.000000 1.000000 0.000000
vn 0.204953 0.967378 0.148907
vn 0.253336 0.967378 0.000000
vn 0.000000 1.000000 0.000000
vn 0.000000 1.000000 0.000000
vn 0.253336 0.967378 0.000000
vn 0.204954 0.967378 -0.148907
vn 0.000000 1.000000 0.000000
vn 0.000000 1.000000 0.000000
vn -0.309017 0.000000 -0.951056
vn -0.809017 0.000000 -0.587785
vn -0.801413 0.136784 -0.582261
vn -0.306113 0.136784 -0.942117
vn 0.309017 0.000000 -0.951057
vn -0.309017 0.000000 -0.951056
vn -0.306113 0.136784 -0.942117
vn 0.306112 0.136784 -0.942118
vn 0.783426 0.000000 -0.621485
vn 0.309017 0.000000 -0.951057
vn 0.306112 0.136784 -0.942118
vn 0.778065 0.134500 -0.613616
vn 0.997555 0.000000 -0.069880
vn 0.783426 0.000000 -0.621485
vn 0.778065 0.134500 -0.613616
vn 0.995616 0.061177 -0.070749
vn 0.964039 0.000000 0.265762
vn 0.997555 0.000000 -0.069880
vn 0.995616 0.061177 -0.070749
vn 0.962429 0.057771 0.265318
vn 0.309017 -0.000000 0.951057
vn 0.587785 0.000000 0.809017
vn 0.609142 0.194971 0.768721
vn 0.306113 0.136785 0.942117
vn -0.309017 0.000000 0.951057
vn 0.309017 -0.000000 0.951057
vn 0.306113 0.136785 0.942117
vn -0.306112 0.136784 0.942118
vn -0.809017 0.000000 0.587785
vn -0.309017 0.000000 0.951057
vn -0.306112 0.136784 0.942118
vn -0.801413 0.136785 0.582261
vn -1.000000 0.000000 0.000000
vn -0.809017 0.000000 0.587785
vn -0.801413 0.136785 0.582261
vn -0.990601 0.136785 0.000000
vn -0.809017 0.000000 -0.587785
vn -1.000000 0.000000 0.000000
vn -0.990601 0.136785 0.000000
vn -0.801413 0.136784 -0.582261
vn -0.064178 -0.997756 -0.019070
vn -0.068752 -0.997613 -0.006401
vn -0.068375 -0.997632 -0.007446
vn -0.064178 -0.997756 -0.019070
vn -0.309495 0.000000 0.950901
vn -0.309444 -0.018031 0.950747
vn -0.309444 -0.018031 0.950747
vn -0.309495 0.000000 0.950901
vn -0.068752 -0.997613 -0.006401
vn -0.080442 -0.996417 0.026137
vn -0.068375 -0.997632 -0.007446
vn -0.080442 0.996417 0.026137
vn -0.068752 0.997613 -0.006401
vn -0.068375 0.997632 -0.007446
vn -0.068752 0.997613 -0.006401
vn -0.064178 0.997756 -0.019070
vn -0.064178 0.997756 -0.019070
vn -0.068375 0.997632 -0.007446
vn -0.309444 0.018031 0.950747
vn -0.309495 0.000000 0.950901
vn -0.309495 0.000000 0.950901
vn -0.309444 0.018031 0.950747
vn 0.204954 -0.967378 0.148908
vn 0.078285 -0.967378 0.240937
vn 0.000000 -1.000000 0.000000
vn 0.000000 -1.000000 0.000000
vn 0.078285 -0.967378 0.240937
vn -0.078285 -0.967378 0.240937
vn 0.000000 -1.000000 0.000000
vn 0.000000 -1.000000 0.000000
vn -0.078285 -0.967378 0.240937
vn -0.204954 -0.967378 0.148908
vn 0.000000 -1.000000 0.000000
vn 0.000000 -1.000000 0.000000
vn -0.204954 -0.967378 0.148908
vn -0.253336 -0.967378 0.000000
vn 0.000000 -1.000000 0.000000
vn 0.000000 -1.000000 0.000000
vn -0.253336 -0.967378 0.000000
vn -0.204954 -0.967378 -0.148907
vn 0.000000 -1.000000 0.000000
vn 0.000000 -1.000000 0.000000
vn -0.204954 -0.967378 -0.148907
vn -0.078285 -0.967378 -0.240937
vn 0.000000 -1.000000 0.000000
vn 0.000000 -1.000000 0.000000
vn -0.078285 -0.967378 -0.240937
vn 0.078285 -0.967378 -0.240937
vn 0.000000 -1.000000 0.000000
vn 0.000000 -1.000000 0.000000
vn 0.078285 -0.967378 -0.240937
vn 0.204954 -0.967378 -0.148907
vn 0.000000 -1.000000 0.000000
vn 0.000000 -1.000000 0.000000
vn 0.204954 -0.967378 -0.148907
vn 0.253337 -0.967378 0.000000
vn 0.000000 -1.000000 0.000000
vn 0.000000 -1.000000 0.000000
vn 0.253337 -0.967378 0.000000
vn 0.204954 -0.967378 0.148908
vn 0.000000 -1.000000 0.000000
vn 0.000000 -1.000000 0.000000
vn -0.809017 0.000000 -0.587785
vn -0.309017 0.000000 -0.951056
vn -0.309017 0.000000 -0.951056
vn -0.809017 0.000000 -0.587785
vn -0.309017 0.000000 -0.951056
vn 0.309017 0.000000 -0.951057
vn 0.309017 0.000000 -0.951057
vn -0.309017 0.000000 -0.951056
vn 0.309017 0.000000 -0.951057
vn 0.809017 0.000000 -0.587785
vn 0.809017 0.000000 -0.587785
vn 0.309017 0.000000 -0.951057
vn 0.809017 0.000000 -0.587785
vn 1.000000 0.000000 0.000000
vn 1.000000 0.000000 0.000000
vn 0.809017 0.000000 -0.587785
vn 1.000000 0.000000 0.000000
vn 0.809017 0.000000 0.587785
vn 0.809017 0.000000 0.587785
vn 1.000000 0.000000 0.000000
vn 0.809017 0.000000 0.587785
vn 0.309017 0.000000 0.951056
vn 0.309017 0.000000 0.951056
vn 0.809017 0.000000 0.587785
vn 0.309017 0.000000 0.951056
vn -0.309017 0.000000 0.951057
vn -0.309017 0.000000 0.951057
vn 0.309017 0.000000 0.951056
vn -0.309017 0.000000 0.951057
vn -0.809017 0.000000 0.587785
vn -0.809017 0.000000 0.587785
vn -0.309017 0.000000 0.951057
vn -0.809017 0.000000 0.587785
vn -1.000000 0.000000 -0.000000
vn -1.000000 0.000000 -0.000000
vn -0.809017 0.000000 0.587785
vn -1.000000 0.000000 -0.000000
vn -0.809017 0.000000 -0.587785
vn -0.809017 0.000000 -0.587785
vn -1.000000 0.000000 -0.000000
s off
g pCylinder23
usemtl blinn1SG
f 10/1/1 11/2/2 13/3/3 12/4/4
f 11/2/5 10/1/6 28/5/7 29/6/8
f 12/4/9 13/3/10 15/7/11 14/8/12
f 14/8/13 15/7/14 17/9/15 16/10/16
f 16/10/17 17/9/18 19/11/19 18/12/20
f 18/12/21 19/11/22 21/13/23 20/14/24
f 20/14/25 21/13/26 23/15/27 22/16/28
f 22/16/29 23/15/30 25/17/31 24/18/32
f 24/18/33 25/17/34 27/19/35 26/20/36
f 26/20/37 27/19/38 29/6/39 28/5/40
f 30/21/41 31/22/42 33/23/43 32/24/44
f 31/22/45 30/21/46 48/25/47 49/26/48
f 32/24/49 33/23/50 35/27/51 34/28/52
f 34/28/53 35/27/54 37/29/55 36/30/56
f 36/30/57 37/29/58 39/31/59 38/32/60
f 38/32/61 39/31/62 41/33/63 40/34/64
f 40/34/65 41/33/66 43/35/67 42/36/68
f 42/36/69 43/35/70 45/37/71 44/38/72
f 44/38/73 45/37/74 47/39/75 46/40/76
f 46/40/77 47/39/78 49/26/79 48/25/80
f 10/41/81 12/42/82 3/43/83 4/44/84
f 12/42/85 14/45/86 2/46/87 3/43/88
f 14/45/89 16/47/90 1/48/91 2/46/92
f 16/47/93 18/49/94 9/50/95 1/48/96
f 18/49/97 20/51/98 8/52/99 9/50/100
f 20/51/101 22/53/102 7/54/103 8/52/104
f 22/53/105 24/55/106 6/56/107 7/54/108
f 24/55/109 26/57/110 5/58/111 6/56/112
f 51/59/113 50/60/114 52/61/115 53/62/116
f 50/60/117 10/41/118 4/44/119 52/61/120
f 30/21/121 32/24/122 59/63/123 60/64/124
f 32/24/125 34/28/126 58/65/127 59/63/128
f 34/28/129 36/30/130 57/66/131 58/65/132
f 36/30/133 38/32/134 56/67/135 57/66/136
f 38/32/137 40/34/138 65/68/139 56/67/140
f 40/34/141 42/36/142 64/69/143 65/68/144
f 42/36/145 44/38/146 63/70/147 64/69/148
f 44/38/149 46/40/150 62/71/151 63/70/152
f 46/40/153 48/25/154 61/72/155 62/71/156
f 48/25/157 30/21/158 60/64/159 61/72/160
f 2/46/161 1/48/162 37/73/163 35/74/164
f 3/43/165 2/46/166 35/74/167 33/75/168
f 4/44/169 3/43/170 33/75/171 31/76/172
f 52/61/173 4/44/174 31/76/175 54/77/176
f 53/62/177 52/61/178 54/77/179 55/78/180
f 6/56/181 5/58/182 47/79/183 45/80/184
f 7/54/185 6/56/186 45/80/187 43/81/188
f 8/52/189 7/54/190 43/81/191 41/82/192
f 9/50/193 8/52/194 41/82/195 39/83/196
f 1/48/197 9/50/198 39/83/199 37/73/200
f 26/84/201 28/85/202 50/60/203 51/59/204
f 5/86/205 26/87/206 51/59/207 53/62/208
f 28/85/209 10/41/210 50/60/211
f 31/76/212 49/88/213 54/77/214
f 49/88/215 47/89/216 55/78/217 54/77/218
f 47/90/219 5/86/220 53/62/221 55/78/222
f 27/19/223 25/17/224 67/91/225 66/92/226
f 25/17/227 23/15/228 68/93/229 67/91/230
f 23/15/231 21/13/232 69/94/233 68/93/234
f 21/13/235 19/11/236 70/95/237 69/94/238
f 19/11/239 17/9/240 71/96/241 70/95/242
f 17/9/243 15/7/244 72/97/245 71/96/246
f 15/7/247 13/3/248 73/98/249 72/97/250
f 13/3/251 11/2/252 74/99/253 73/98/254
f 11/2/255 29/6/256 75/100/257 74/99/258
f 29/6/259 27/19/260 66/92/261 75/100/262
f 66/101/263 67/102/264 63/103/265 62/104/266
f 67/102/267 68/105/268 64/106/269 63/103/270
f 68/105/271 69/107/272 65/108/273 64/106/274
f 69/107/275 70/109/276 56/110/277 65/108/278
f 70/109/279 71/111/280 57/112/281 56/110/282
f 71/111/283 72/113/284 58/114/285 57/112/286
f 72/113/287 73/115/288 59/116/289 58/114/290
f 73/115/291 74/117/292 60/118/293 59/116/294
f 74/117/295 75/119/296 61/120/297 60/118/298
f 75/121/299 66/101/300 62/104/301 61/122/302
