# This file uses centimeters as units for non-parametric coordinates.

mtllib DeviledEggShortRLowerLeg.mtl
g default
v 0.736593 -0.001943 -0.126480
v 0.667870 -0.001943 -0.248041
v 0.563755 -0.001943 -0.360073
v 0.426548 -0.001943 -0.458269
v 0.275271 -0.001943 -0.538857
v 0.119006 -0.001943 -0.598739
v -0.043250 -0.001943 -0.635616
v -0.169668 -0.001943 -0.648067
v -0.296087 -0.001943 -0.635617
v -0.417647 -0.001943 -0.598743
v -0.529678 -0.001943 -0.538862
v -0.627875 -0.001943 -0.458276
v -0.708462 -0.001943 -0.360081
v -0.768344 -0.001943 -0.248051
v -0.805221 -0.001943 -0.126490
v 0.667870 0.062239 -0.239591
v 0.736593 0.030777 -0.122173
v 0.563755 0.091235 -0.347806
v 0.426548 0.116650 -0.442656
v 0.275271 0.137507 -0.520498
v 0.119006 0.153006 -0.578341
v -0.043250 0.162550 -0.613960
v -0.169668 0.165772 -0.625988
v -0.296087 0.162550 -0.613962
v -0.417648 0.153006 -0.578344
v -0.529678 0.137507 -0.520504
v -0.627875 0.116650 -0.442663
v -0.708462 0.091235 -0.347814
v -0.768344 0.062239 -0.239601
v -0.805221 0.030777 -0.122183
v 0.736593 -0.034662 -0.122173
v 0.667870 -0.066124 -0.239591
v 0.563755 -0.095120 -0.347806
v 0.426548 -0.120534 -0.442656
v 0.275271 -0.141392 -0.520498
v 0.119006 -0.156891 -0.578341
v -0.043250 -0.166434 -0.613959
v -0.169668 -0.169657 -0.625987
v -0.296087 -0.166434 -0.613961
v -0.417648 -0.156891 -0.578344
v -0.529678 -0.141392 -0.520503
v -0.627875 -0.120534 -0.442663
v -0.708462 -0.095120 -0.347814
v -0.768344 -0.066124 -0.239601
v -0.805221 -0.034662 -0.122183
v 0.760841 -0.001943 -0.000062
v -0.817672 -0.001943 -0.000072
v 0.359952 -0.001943 -0.105413
v 0.359952 0.025324 -0.101823
v 0.329224 -0.001943 -0.206714
v 0.329224 0.051542 -0.199672
v 0.279323 -0.001943 -0.300073
v 0.279323 0.075705 -0.289851
v 0.212168 -0.001943 -0.381903
v 0.212168 0.096884 -0.368892
v 0.130339 -0.001943 -0.449059
v 0.130339 0.114265 -0.433760
v 0.036980 -0.001943 -0.498961
v 0.036980 0.127181 -0.481962
v -0.064320 -0.001943 -0.529691
v -0.064320 0.135134 -0.511645
v -0.169668 -0.001943 -0.540067
v -0.169669 0.137820 -0.521668
v -0.275018 -0.001943 -0.529692
v -0.275018 0.135134 -0.511646
v -0.376318 -0.001943 -0.498964
v -0.376318 0.127181 -0.481965
v -0.469677 -0.001943 -0.449063
v -0.469678 0.114265 -0.433764
v -0.551507 -0.001943 -0.381908
v -0.551507 0.096884 -0.368897
v -0.618664 -0.001943 -0.300079
v -0.618664 0.075705 -0.289856
v -0.668566 -0.001943 -0.206720
v -0.668566 0.051542 -0.199679
v -0.699295 -0.001943 -0.105420
v -0.699295 0.025324 -0.101830
v 0.359952 -0.029209 -0.101823
v 0.329224 -0.055427 -0.199672
v 0.279323 -0.079590 -0.289850
v 0.212168 -0.100769 -0.368892
v 0.130339 -0.118151 -0.433760
v 0.036980 -0.131066 -0.481962
v -0.064320 -0.139019 -0.511645
v -0.169669 -0.141705 -0.521668
v -0.275018 -0.139019 -0.511646
v -0.376318 -0.131066 -0.481965
v -0.469678 -0.118151 -0.433764
v -0.551507 -0.100769 -0.368897
v -0.618664 -0.079590 -0.289856
v -0.668566 -0.055427 -0.199679
v -0.699295 -0.029209 -0.101830
v 0.370328 -0.001943 -0.000064
v -0.709672 -0.001943 -0.000071
vt 0.405702 0.963616
vt 0.406487 0.969882
vt 0.380416 0.976040
vt 0.379091 0.963725
vt 0.406430 0.957355
vt 0.380316 0.951424
vt 0.351584 0.981736
vt 0.350000 0.963834
vt 0.351455 0.945947
vt 0.319551 0.986776
vt 0.317924 0.963952
vt 0.319388 0.941136
vt 0.286838 0.990930
vt 0.285359 0.964059
vt 0.286671 0.937207
vt 0.254732 0.994023
vt 0.253614 0.964145
vt 0.254591 0.934298
vt 0.222659 0.995932
vt 0.222105 0.964211
vt 0.222564 0.932504
vt 0.198051 0.996521
vt 0.198129 0.964233
vt 0.198012 0.931970
vt 0.173432 0.995897
vt 0.174190 0.964253
vt 0.173405 0.932598
vt 0.148889 0.994061
vt 0.150248 0.964271
vt 0.148845 0.934443
vt 0.124498 0.991088
vt 0.126273 0.964298
vt 0.124419 0.937460
vt 0.100308 0.987104
vt 0.102244 0.964342
vt 0.100193 0.941538
vt 0.076336 0.982275
vt 0.078146 0.964411
vt 0.076203 0.946521
vt 0.052572 0.976797
vt 0.053974 0.964507
vt 0.052454 0.952207
vt 0.028971 0.970883
vt 0.029737 0.964623
vt 0.028903 0.958365
vt 0.430292 0.963508
vt 0.005462 0.964751
vt 0.373642 0.929826
vt 0.393729 0.931944
vt 0.391443 0.942016
vt 0.372429 0.934945
vt 0.373530 0.924571
vt 0.393592 0.921637
vt 0.413764 0.934039
vt 0.410662 0.948712
vt 0.413754 0.919076
vt 0.433740 0.936107
vt 0.430138 0.954846
vt 0.434033 0.917070
vt 0.453659 0.938147
vt 0.449890 0.960251
vt 0.454424 0.915782
vt 0.473533 0.940164
vt 0.469899 0.964792
vt 0.474897 0.915344
vt 0.493374 0.942167
vt 0.490126 0.968374
vt 0.495406 0.915858
vt 0.513200 0.944162
vt 0.510513 0.970939
vt 0.515887 0.917386
vt 0.533025 0.946157
vt 0.530995 0.972467
vt 0.536274 0.919951
vt 0.552867 0.948160
vt 0.551502 0.972981
vt 0.556500 0.923532
vt 0.572741 0.950178
vt 0.571976 0.972544
vt 0.576510 0.928074
vt 0.592660 0.952218
vt 0.592367 0.971255
vt 0.596261 0.933479
vt 0.612636 0.954286
vt 0.612646 0.969249
vt 0.615738 0.939613
vt 0.632671 0.956381
vt 0.632807 0.966689
vt 0.634956 0.946309
vt 0.652757 0.958499
vt 0.652870 0.963754
vt 0.653971 0.953379
vt 0.353525 0.927694
vt 0.672875 0.960630
vt 0.994107 0.621050
vt 0.969936 0.618762
vt 0.973885 0.598502
vt 0.994028 0.600408
vt 0.946676 0.611803
vt 0.954502 0.592703
vt 0.925221 0.600439
vt 0.936623 0.583233
vt 0.906394 0.585109
vt 0.920934 0.570458
vt 0.890920 0.566400
vt 0.908039 0.554867
vt 0.879395 0.545032
vt 0.898434 0.537060
vt 0.872258 0.521826
vt 0.892488 0.517722
vt 0.869786 0.497673
vt 0.890428 0.497595
vt 0.872074 0.473502
vt 0.892334 0.477452
vt 0.879004 0.442465
vt 0.898133 0.458069
vt 0.890335 0.412555
vt 0.907603 0.440189
vt 0.905627 0.383584
vt 0.920379 0.424501
vt 0.924294 0.357289
vt 0.935969 0.411606
vt 0.945631 0.337308
vt 0.953776 0.402001
vt 0.968814 0.324085
vt 0.973115 0.396054
vt 0.992957 0.319358
vt 0.993241 0.393995
vt 0.993137 0.928954
vt 0.968958 0.924412
vt 0.972709 0.852412
vt 0.992852 0.854317
vt 0.945675 0.911366
vt 0.953326 0.846613
vt 0.924187 0.891550
vt 0.935446 0.837144
vt 0.905319 0.865398
vt 0.919757 0.824369
vt 0.889806 0.836545
vt 0.906862 0.808779
vt 0.878246 0.806723
vt 0.897257 0.790973
vt 0.871080 0.775739
vt 0.891308 0.771634
vt 0.868607 0.751587
vt 0.889248 0.751507
vt 0.870894 0.727416
vt 0.891154 0.731365
vt 0.877853 0.704155
vt 0.896953 0.711981
vt 0.889215 0.682699
vt 0.906421 0.694102
vt 0.904545 0.663873
vt 0.919197 0.678412
vt 0.923253 0.648399
vt 0.934787 0.665517
vt 0.944621 0.636872
vt 0.952593 0.655911
vt 0.967827 0.629735
vt 0.971932 0.649965
vt 0.991980 0.627263
vt 0.992059 0.647904
vn 0.901874 0.000000 -0.431999
vn 0.900419 -0.056780 -0.431302
vn 0.780114 -0.081662 -0.620285
vn 0.782729 -0.000001 -0.622363
vn 0.900419 0.056780 -0.431303
vn 0.901874 0.000000 -0.431999
vn 0.782729 -0.000001 -0.622363
vn 0.780114 0.081660 -0.620285
vn 0.782729 -0.000001 -0.622363
vn 0.780114 -0.081662 -0.620285
vn 0.638416 -0.100465 -0.763107
vn 0.641663 -0.000001 -0.766987
vn 0.780114 0.081660 -0.620285
vn 0.782729 -0.000001 -0.622363
vn 0.641663 -0.000001 -0.766987
vn 0.638416 0.100463 -0.763107
vn 0.641663 -0.000001 -0.766987
vn 0.638416 -0.100465 -0.763107
vn 0.515562 -0.111842 -0.849522
vn 0.518817 -0.000001 -0.854886
vn 0.638416 0.100463 -0.763107
vn 0.641663 -0.000001 -0.766987
vn 0.518817 -0.000001 -0.854886
vn 0.515561 0.111840 -0.849522
vn 0.518817 -0.000001 -0.854886
vn 0.515562 -0.111842 -0.849522
vn 0.406896 -0.119233 -0.905660
vn 0.409819 -0.000001 -0.912167
vn 0.515561 0.111840 -0.849522
vn 0.518817 -0.000001 -0.854886
vn 0.409819 -0.000001 -0.912167
vn 0.406895 0.119231 -0.905660
vn 0.409819 -0.000001 -0.912167
vn 0.406896 -0.119233 -0.905660
vn 0.283971 -0.125153 -0.950630
vn 0.286221 -0.000001 -0.958164
vn 0.406895 0.119231 -0.905660
vn 0.409819 -0.000001 -0.912167
vn 0.286221 -0.000001 -0.958164
vn 0.283971 0.125151 -0.950630
vn 0.286221 -0.000001 -0.958164
vn 0.283971 -0.125153 -0.950630
vn 0.165042 -0.128737 -0.977849
vn 0.166427 -0.000001 -0.986054
vn 0.283971 0.125151 -0.950630
vn 0.286221 -0.000001 -0.958164
vn 0.166427 -0.000001 -0.986054
vn 0.165042 0.128735 -0.977849
vn 0.166427 -0.000001 -0.986054
vn 0.165042 -0.128737 -0.977849
vn 0.000006 -0.130527 -0.991445
vn 0.000006 -0.000001 -1.000000
vn 0.165042 0.128735 -0.977849
vn 0.166427 -0.000001 -0.986054
vn 0.000006 -0.000001 -1.000000
vn 0.000006 0.130525 -0.991445
vn 0.000006 -0.000001 -1.000000
vn 0.000006 -0.130527 -0.991445
vn -0.190040 -0.128148 -0.973377
vn -0.191620 -0.000001 -0.981469
vn 0.000006 0.130525 -0.991445
vn 0.000006 -0.000001 -1.000000
vn -0.191620 -0.000001 -0.981469
vn -0.190040 0.128146 -0.973377
vn -0.191620 -0.000001 -0.981469
vn -0.190040 -0.128148 -0.973377
vn -0.373294 -0.121091 -0.919776
vn -0.376061 -0.000001 -0.926595
vn -0.190040 0.128146 -0.973377
vn -0.191620 -0.000001 -0.981469
vn -0.376061 -0.000001 -0.926595
vn -0.373294 0.121089 -0.919777
vn -0.376061 -0.000001 -0.926595
vn -0.373294 -0.121091 -0.919776
vn -0.543088 -0.109600 -0.832492
vn -0.546378 -0.000001 -0.837538
vn -0.373294 0.121089 -0.919777
vn -0.376061 -0.000001 -0.926595
vn -0.546378 -0.000001 -0.837538
vn -0.543087 0.109598 -0.832493
vn -0.546378 -0.000001 -0.837538
vn -0.543088 -0.109600 -0.832492
vn -0.693032 -0.094097 -0.714739
vn -0.696121 -0.000001 -0.717924
vn -0.543087 0.109598 -0.832493
vn -0.546378 -0.000001 -0.837538
vn -0.696121 -0.000001 -0.717924
vn -0.693032 0.094095 -0.714739
vn -0.696121 -0.000001 -0.717924
vn -0.693032 -0.094097 -0.714739
vn -0.817228 -0.075223 -0.571385
vn -0.819550 -0.000001 -0.573008
vn -0.693032 0.094095 -0.714739
vn -0.696121 -0.000001 -0.717924
vn -0.819550 -0.000001 -0.573008
vn -0.817228 0.075222 -0.571385
vn -0.819550 -0.000001 -0.573008
vn -0.817228 -0.075223 -0.571385
vn -0.910480 -0.053978 -0.410015
vn -0.911810 -0.000000 -0.410613
vn -0.817228 0.075222 -0.571385
vn -0.819550 -0.000001 -0.573008
vn -0.911810 -0.000000 -0.410613
vn -0.910480 0.053978 -0.410015
vn -0.911810 -0.000000 -0.410613
vn -0.910480 -0.053978 -0.410015
vn -0.968174 -0.032667 -0.248135
vn -0.968692 -0.000000 -0.248267
vn -0.910480 0.053978 -0.410015
vn -0.911810 -0.000000 -0.410613
vn -0.968692 -0.000000 -0.248267
vn -0.968175 0.032666 -0.248135
vn 0.900419 -0.056780 -0.431302
vn 0.901874 0.000000 -0.431999
vn 0.982097 0.000005 -0.188376
vn 0.901874 0.000000 -0.431999
vn 0.900419 0.056780 -0.431303
vn 0.982097 0.000005 -0.188376
vn -0.968692 -0.000000 -0.248267
vn -0.968174 -0.032667 -0.248135
vn -0.995184 -0.000000 -0.098023
vn -0.968175 0.032666 -0.248135
vn -0.968692 -0.000000 -0.248267
vn -0.995184 -0.000000 -0.098023
vn -0.968695 -0.000001 0.248255
vn -0.911815 -0.000000 0.410601
vn -0.910486 0.053978 0.410003
vn -0.968178 0.032666 0.248123
vn -0.968178 -0.032668 0.248123
vn -0.910486 -0.053978 0.410003
vn -0.911815 -0.000000 0.410601
vn -0.968695 -0.000001 0.248255
vn -0.911815 -0.000000 0.410601
vn -0.819557 0.000001 0.572997
vn -0.817235 0.075224 0.571374
vn -0.910486 0.053978 0.410003
vn -0.910486 -0.053978 0.410003
vn -0.817235 -0.075223 0.571373
vn -0.819557 0.000001 0.572997
vn -0.911815 -0.000000 0.410601
vn -0.819557 0.000001 0.572997
vn -0.696130 0.000001 0.717916
vn -0.693041 0.094097 0.714730
vn -0.817235 0.075224 0.571374
vn -0.817235 -0.075223 0.571373
vn -0.693042 -0.094095 0.714730
vn -0.696130 0.000001 0.717916
vn -0.819557 0.000001 0.572997
vn -0.696130 0.000001 0.717916
vn -0.546389 0.000001 0.837531
vn -0.543097 0.109599 0.832486
vn -0.693041 0.094097 0.714730
vn -0.693042 -0.094095 0.714730
vn -0.543097 -0.109598 0.832486
vn -0.546389 0.000001 0.837531
vn -0.696130 0.000001 0.717916
vn -0.546389 0.000001 0.837531
vn -0.376073 0.000001 0.926590
vn -0.373306 0.121091 0.919772
vn -0.543097 0.109599 0.832486
vn -0.543097 -0.109598 0.832486
vn -0.373306 -0.121089 0.919772
vn -0.376073 0.000001 0.926590
vn -0.546389 0.000001 0.837531
vn -0.376073 0.000001 0.926590
vn -0.191633 0.000001 0.981467
vn -0.190053 0.128148 0.973374
vn -0.373306 0.121091 0.919772
vn -0.373306 -0.121089 0.919772
vn -0.190053 -0.128146 0.973375
vn -0.191633 0.000001 0.981467
vn -0.376073 0.000001 0.926590
vn -0.191633 0.000001 0.981467
vn -0.000006 0.000001 1.000000
vn -0.000006 0.130527 0.991445
vn -0.190053 0.128148 0.973374
vn -0.190053 -0.128146 0.973375
vn -0.000006 -0.130525 0.991445
vn -0.000006 0.000001 1.000000
vn -0.191633 0.000001 0.981467
vn -0.000006 0.000001 1.000000
vn 0.191621 0.000001 0.981469
vn 0.190041 0.128148 0.973377
vn -0.000006 0.130527 0.991445
vn -0.000006 -0.130525 0.991445
vn 0.190041 -0.128146 0.973377
vn 0.191621 0.000001 0.981469
vn -0.000006 0.000001 1.000000
vn 0.191621 0.000001 0.981469
vn 0.376061 0.000001 0.926595
vn 0.373294 0.121091 0.919776
vn 0.190041 0.128148 0.973377
vn 0.190041 -0.128146 0.973377
vn 0.373294 -0.121089 0.919777
vn 0.376061 0.000001 0.926595
vn 0.191621 0.000001 0.981469
vn 0.376061 0.000001 0.926595
vn 0.546378 0.000001 0.837538
vn 0.543087 0.109599 0.832493
vn 0.373294 0.121091 0.919776
vn 0.373294 -0.121089 0.919777
vn 0.543087 -0.109598 0.832493
vn 0.546378 0.000001 0.837538
vn 0.376061 0.000001 0.926595
vn 0.546378 0.000001 0.837538
vn 0.696121 0.000001 0.717924
vn 0.693032 0.094097 0.714739
vn 0.543087 0.109599 0.832493
vn 0.543087 -0.109598 0.832493
vn 0.693032 -0.094095 0.714739
vn 0.696121 0.000001 0.717924
vn 0.546378 0.000001 0.837538
vn 0.696121 0.000001 0.717924
vn 0.819550 0.000001 0.573008
vn 0.817228 0.075223 0.571385
vn 0.693032 0.094097 0.714739
vn 0.693032 -0.094095 0.714739
vn 0.817228 -0.075222 0.571384
vn 0.819550 0.000001 0.573008
vn 0.696121 0.000001 0.717924
vn 0.819550 0.000001 0.573008
vn 0.911810 0.000000 0.410613
vn 0.910480 0.053979 0.410015
vn 0.817228 0.075223 0.571385
vn 0.817228 -0.075222 0.571384
vn 0.910480 -0.053978 0.410015
vn 0.911810 0.000000 0.410613
vn 0.819550 0.000001 0.573008
vn 0.911810 0.000000 0.410613
vn 0.968692 0.000000 0.248267
vn 0.968175 0.032666 0.248135
vn 0.910480 0.053979 0.410015
vn 0.910480 -0.053978 0.410015
vn 0.968175 -0.032666 0.248135
vn 0.968692 0.000000 0.248267
vn 0.911810 0.000000 0.410613
vn -0.968178 0.032666 0.248123
vn -0.995185 -0.000000 0.098011
vn -0.968695 -0.000001 0.248255
vn -0.968695 -0.000001 0.248255
vn -0.995185 -0.000000 0.098011
vn -0.968178 -0.032668 0.248123
vn 0.968692 0.000000 0.248267
vn 0.995184 0.000000 0.098023
vn 0.968175 0.032666 0.248135
vn 0.968175 -0.032666 0.248135
vn 0.995184 0.000000 0.098023
vn 0.968692 0.000000 0.248267
vn -0.000002 -0.965926 0.258819
vn -0.000002 -0.965926 0.258819
vn -0.000002 -0.965926 0.258819
vn -0.000002 -0.965926 0.258819
vn -0.000002 -0.965926 0.258819
vn -0.000002 -0.965926 0.258819
vn -0.000002 -0.965926 0.258819
vn -0.000002 -0.965926 0.258819
vn -0.000002 -0.965926 0.258819
vn -0.000002 -0.965926 0.258819
vn -0.000002 -0.965926 0.258819
vn -0.000002 -0.965926 0.258819
vn -0.000002 -0.965926 0.258819
vn -0.000002 -0.965926 0.258819
vn -0.000002 -0.965926 0.258819
vn -0.000002 -0.965926 0.258819
vn -0.000003 -0.965926 0.258819
vn -0.000003 -0.965926 0.258819
vn -0.000003 -0.965926 0.258819
vn -0.000003 -0.965926 0.258819
vn -0.000002 -0.965926 0.258818
vn -0.000002 -0.965926 0.258818
vn -0.000002 -0.965926 0.258818
vn -0.000002 -0.965926 0.258818
vn -0.000002 -0.965926 0.258819
vn -0.000002 -0.965926 0.258819
vn -0.000002 -0.965926 0.258819
vn -0.000002 -0.965926 0.258819
vn -0.000002 -0.965926 0.258819
vn -0.000002 -0.965926 0.258819
vn -0.000002 -0.965926 0.258819
vn -0.000002 -0.965926 0.258819
vn -0.000002 -0.965926 0.258819
vn -0.000002 -0.965926 0.258819
vn -0.000002 -0.965926 0.258819
vn -0.000002 -0.965926 0.258819
vn -0.000002 -0.965926 0.258819
vn -0.000002 -0.965926 0.258819
vn -0.000002 -0.965926 0.258819
vn -0.000002 -0.965926 0.258819
vn -0.000002 -0.965926 0.258818
vn -0.000002 -0.965926 0.258818
vn -0.000002 -0.965926 0.258818
vn -0.000002 -0.965926 0.258818
vn -0.000002 -0.965926 0.258820
vn -0.000002 -0.965926 0.258819
vn -0.000002 -0.965926 0.258820
vn -0.000002 -0.965926 0.258819
vn -0.000002 -0.965926 0.258819
vn -0.000002 -0.965926 0.258819
vn -0.000002 -0.965926 0.258819
vn -0.000002 -0.965926 0.258819
vn -0.000002 -0.965926 0.258818
vn -0.000002 -0.965926 0.258818
vn -0.000002 -0.965926 0.258818
vn -0.000002 -0.965926 0.258818
vn -0.000002 -0.965926 0.258819
vn -0.000002 -0.965926 0.258819
vn -0.000002 -0.965926 0.258819
vn -0.000002 -0.965926 0.258819
vn -0.000002 -0.965926 0.258819
vn -0.000002 -0.965926 0.258819
vn -0.000002 -0.965926 0.258819
vn -0.000002 -0.965926 0.258819
vn -0.000002 0.965926 0.258819
vn -0.000002 0.965926 0.258819
vn -0.000002 0.965926 0.258819
vn -0.000002 0.965926 0.258819
vn -0.000002 0.965926 0.258819
vn -0.000002 0.965926 0.258819
vn -0.000002 0.965926 0.258819
vn -0.000002 0.965926 0.258819
vn -0.000002 0.965926 0.258819
vn -0.000002 0.965926 0.258819
vn -0.000002 0.965926 0.258819
vn -0.000002 0.965926 0.258819
vn -0.000002 0.965926 0.258819
vn -0.000002 0.965926 0.258819
vn -0.000002 0.965926 0.258819
vn -0.000002 0.965926 0.258819
vn -0.000002 0.965926 0.258819
vn -0.000002 0.965926 0.258819
vn -0.000002 0.965926 0.258819
vn -0.000002 0.965926 0.258819
vn -0.000002 0.965926 0.258819
vn -0.000002 0.965926 0.258819
vn -0.000002 0.965926 0.258819
vn -0.000002 0.965926 0.258819
vn -0.000002 0.965926 0.258819
vn -0.000002 0.965926 0.258819
vn -0.000002 0.965926 0.258819
vn -0.000002 0.965926 0.258819
vn -0.000002 0.965926 0.258819
vn -0.000002 0.965926 0.258819
vn -0.000002 0.965926 0.258819
vn -0.000002 0.965926 0.258819
vn -0.000002 0.965926 0.258819
vn -0.000002 0.965926 0.258819
vn -0.000002 0.965926 0.258819
vn -0.000002 0.965926 0.258819
vn -0.000002 0.965926 0.258819
vn -0.000002 0.965926 0.258819
vn -0.000002 0.965926 0.258819
vn -0.000002 0.965926 0.258819
vn -0.000002 0.965926 0.258819
vn -0.000002 0.965926 0.258819
vn -0.000002 0.965926 0.258819
vn -0.000002 0.965926 0.258819
vn -0.000002 0.965926 0.258819
vn -0.000002 0.965926 0.258819
vn -0.000002 0.965926 0.258819
vn -0.000002 0.965926 0.258819
vn -0.000002 0.965926 0.258819
vn -0.000002 0.965926 0.258819
vn -0.000002 0.965926 0.258819
vn -0.000002 0.965926 0.258819
vn -0.000002 0.965926 0.258819
vn -0.000002 0.965926 0.258819
vn -0.000002 0.965926 0.258819
vn -0.000002 0.965926 0.258819
vn -0.000002 0.965926 0.258819
vn -0.000002 0.965926 0.258819
vn -0.000002 0.965926 0.258819
vn -0.000002 0.965926 0.258819
vn -0.000002 0.965926 0.258819
vn -0.000002 0.965926 0.258819
vn -0.000002 0.965926 0.258819
vn -0.000002 0.965926 0.258819
s off
g FoodShortRLowerLeg
usemtl blinn1SG
f 1/1/1 31/2/2 32/3/3 2/4/4
f 17/5/5 1/1/6 2/4/7 16/6/8
f 2/4/9 32/3/10 33/7/11 3/8/12
f 16/6/13 2/4/14 3/8/15 18/9/16
f 3/8/17 33/7/18 34/10/19 4/11/20
f 18/9/21 3/8/22 4/11/23 19/12/24
f 4/11/25 34/10/26 35/13/27 5/14/28
f 19/12/29 4/11/30 5/14/31 20/15/32
f 5/14/33 35/13/34 36/16/35 6/17/36
f 20/15/37 5/14/38 6/17/39 21/18/40
f 6/17/41 36/16/42 37/19/43 7/20/44
f 21/18/45 6/17/46 7/20/47 22/21/48
f 7/20/49 37/19/50 38/22/51 8/23/52
f 22/21/53 7/20/54 8/23/55 23/24/56
f 8/23/57 38/22/58 39/25/59 9/26/60
f 23/24/61 8/23/62 9/26/63 24/27/64
f 9/26/65 39/25/66 40/28/67 10/29/68
f 24/27/69 9/26/70 10/29/71 25/30/72
f 10/29/73 40/28/74 41/31/75 11/32/76
f 25/30/77 10/29/78 11/32/79 26/33/80
f 11/32/81 41/31/82 42/34/83 12/35/84
f 26/33/85 11/32/86 12/35/87 27/36/88
f 12/35/89 42/34/90 43/37/91 13/38/92
f 27/36/93 12/35/94 13/38/95 28/39/96
f 13/38/97 43/37/98 44/40/99 14/41/100
f 28/39/101 13/38/102 14/41/103 29/42/104
f 14/41/105 44/40/106 45/43/107 15/44/108
f 29/42/109 14/41/110 15/44/111 30/45/112
f 31/2/113 1/1/114 46/46/115
f 1/1/116 17/5/117 46/46/118
f 15/44/119 45/43/120 47/47/121
f 30/45/122 15/44/123 47/47/124
f 48/48/125 50/49/126 79/50/127 78/51/128
f 49/52/129 51/53/130 50/49/131 48/48/132
f 50/49/133 52/54/134 80/55/135 79/50/136
f 51/53/137 53/56/138 52/54/139 50/49/140
f 52/54/141 54/57/142 81/58/143 80/55/144
f 53/56/145 55/59/146 54/57/147 52/54/148
f 54/57/149 56/60/150 82/61/151 81/58/152
f 55/59/153 57/62/154 56/60/155 54/57/156
f 56/60/157 58/63/158 83/64/159 82/61/160
f 57/62/161 59/65/162 58/63/163 56/60/164
f 58/63/165 60/66/166 84/67/167 83/64/168
f 59/65/169 61/68/170 60/66/171 58/63/172
f 60/66/173 62/69/174 85/70/175 84/67/176
f 61/68/177 63/71/178 62/69/179 60/66/180
f 62/69/181 64/72/182 86/73/183 85/70/184
f 63/71/185 65/74/186 64/72/187 62/69/188
f 64/72/189 66/75/190 87/76/191 86/73/192
f 65/74/193 67/77/194 66/75/195 64/72/196
f 66/75/197 68/78/198 88/79/199 87/76/200
f 67/77/201 69/80/202 68/78/203 66/75/204
f 68/78/205 70/81/206 89/82/207 88/79/208
f 69/80/209 71/83/210 70/81/211 68/78/212
f 70/81/213 72/84/214 90/85/215 89/82/216
f 71/83/217 73/86/218 72/84/219 70/81/220
f 72/84/221 74/87/222 91/88/223 90/85/224
f 73/86/225 75/89/226 74/87/227 72/84/228
f 74/87/229 76/90/230 92/91/231 91/88/232
f 75/89/233 77/92/234 76/90/235 74/87/236
f 78/51/237 93/93/238 48/48/239
f 48/48/240 93/93/241 49/52/242
f 76/90/243 94/94/244 92/91/245
f 77/92/246 94/94/247 76/90/248
f 47/95/249 45/96/250 92/97/251 94/98/252
f 45/96/253 44/99/254 91/100/255 92/97/256
f 44/99/257 43/101/258 90/102/259 91/100/260
f 43/101/261 42/103/262 89/104/263 90/102/264
f 42/103/265 41/105/266 88/106/267 89/104/268
f 41/105/269 40/107/270 87/108/271 88/106/272
f 40/107/273 39/109/274 86/110/275 87/108/276
f 39/109/277 38/111/278 85/112/279 86/110/280
f 38/111/281 37/113/282 84/114/283 85/112/284
f 37/113/285 36/115/286 83/116/287 84/114/288
f 36/115/289 35/117/290 82/118/291 83/116/292
f 35/117/293 34/119/294 81/120/295 82/118/296
f 34/119/297 33/121/298 80/122/299 81/120/300
f 33/121/301 32/123/302 79/124/303 80/122/304
f 32/123/305 31/125/306 78/126/307 79/124/308
f 31/125/309 46/127/310 93/128/311 78/126/312
f 46/129/313 17/130/314 49/131/315 93/132/316
f 17/130/317 16/133/318 51/134/319 49/131/320
f 16/133/321 18/135/322 53/136/323 51/134/324
f 18/135/325 19/137/326 55/138/327 53/136/328
f 19/137/329 20/139/330 57/140/331 55/138/332
f 20/139/333 21/141/334 59/142/335 57/140/336
f 21/141/337 22/143/338 61/144/339 59/142/340
f 22/143/341 23/145/342 63/146/343 61/144/344
f 23/145/345 24/147/346 65/148/347 63/146/348
f 24/147/349 25/149/350 67/150/351 65/148/352
f 25/149/353 26/151/354 69/152/355 67/150/356
f 26/151/357 27/153/358 71/154/359 69/152/360
f 27/153/361 28/155/362 73/156/363 71/154/364
f 28/155/365 29/157/366 75/158/367 73/156/368
f 29/157/369 30/159/370 77/160/371 75/158/372
f 30/159/373 47/161/374 94/162/375 77/160/376
