# This file uses centimeters as units for non-parametric coordinates.

mtllib MelonCaveDoor_left.mtl
g default
v 2.221905 20.223423 11.756663
v 2.221905 28.710848 11.756663
v 3.358006 24.467136 11.756663
v 3.099254 26.796059 11.756663
v 3.099254 22.138216 11.756663
v 1.674587 21.033459 15.193584
v 1.674587 27.900808 15.193584
v 2.220233 24.467134 16.004303
v 2.062644 22.425135 15.737174
v 2.062642 26.509138 15.737174
v 2.063406 20.490351 13.802394
v 2.063405 28.443918 13.802394
v 3.097417 24.467136 14.095668
v 2.863531 26.665203 13.964214
v 2.863531 22.269072 13.964214
v 0.729575 19.125914 11.756663
v 0.729575 29.808355 11.756663
v 0.574189 28.367052 15.656581
v 0.574189 20.567217 15.656581
v 0.729573 24.467133 17.097885
v 0.672489 22.316425 16.729141
v 0.672489 26.617844 16.729141
v 0.672489 19.494656 13.907372
v 0.672489 29.439613 13.907372
v 1.674587 21.033459 8.319742
v 1.674587 27.900808 8.319742
v 2.220233 24.467134 7.509024
v 2.062644 22.425135 7.776153
v 2.062642 26.509138 7.776153
v 2.063406 20.490351 9.710933
v 2.063405 28.443918 9.710933
v 3.097417 24.467136 9.417659
v 2.863531 26.665203 9.549112
v 2.863531 22.269072 9.549112
v 0.574189 28.367052 7.856746
v 0.574189 20.567217 7.856746
v 0.729573 24.467133 6.415442
v 0.672489 22.316425 6.784185
v 0.672489 26.617844 6.784185
v 0.672489 19.494656 9.605955
v 0.672489 29.439613 9.605955
v -2.010379 -0.000002 23.274431
v -2.010395 41.665409 23.274427
v 2.010401 41.665413 23.274427
v 2.010404 -0.000003 23.274427
v -1.005295 41.665413 -0.000003
v -2.010389 41.665413 1.005093
v -2.010379 0.000000 1.005095
v -1.005280 0.000000 -0.000005
v 2.010408 41.665424 1.005095
v 1.005309 41.665424 0.000001
v 1.005309 0.000000 0.000001
v 2.010408 -0.000002 1.005094
v 2.010404 3.802066 23.274427
v 2.010408 3.802070 1.005094
v 1.005311 3.802072 -0.000001
v -1.005285 3.802066 -0.000003
v -2.010383 3.802065 1.005094
v -2.010383 3.802058 23.274431
v 2.010404 37.958988 23.274427
v 2.010408 37.958992 1.005094
v 1.005309 37.958992 0.000001
v -1.005291 37.958981 -0.000003
v -2.010387 37.958973 1.005095
v -2.010387 37.958973 23.274427
v -2.010379 -0.000003 19.907656
v -2.010383 3.802062 19.907650
v -2.010387 37.958977 19.907646
v -2.010393 41.665409 19.907648
v -2.010379 0.000000 3.636619
v -2.010383 3.802062 3.636617
v -2.010387 37.958973 3.636617
v -2.010391 41.665409 3.636616
v 2.010408 0.000000 3.636617
v 2.010408 3.802069 3.636619
v 2.010406 37.958988 3.636619
v 2.010408 41.665424 3.636619
v 2.010408 0.000000 19.907648
v 2.010406 3.802069 19.907650
v 2.010406 37.958988 19.907648
v 2.010408 41.665424 19.907648
v -0.778045 3.802062 3.636617
v -0.778049 37.958977 3.636617
v -0.778045 3.802061 19.907650
v -0.778051 37.958977 19.907646
v 0.778068 3.802070 19.907648
v 0.778068 37.958988 19.907648
v 0.778070 3.802069 3.636621
v 0.778068 37.958984 3.636621
vt 0.545070 0.195119
vt 0.526232 0.189316
vt 0.520942 0.170323
vt 0.544489 0.171482
vt 0.518065 0.144497
vt 0.543362 0.144844
vt 0.521648 0.118760
vt 0.527456 0.099919
vt 0.546445 0.094634
vt 0.545218 0.118246
vt 0.571199 0.173333
vt 0.571584 0.145230
vt 0.570852 0.198701
vt 0.571969 0.117127
vt 0.572316 0.091759
vt 0.500804 0.113635
vt 0.516641 0.088761
vt 0.495834 0.144193
vt 0.515116 0.200174
vt 0.499966 0.174876
vt 0.541938 0.073614
vt 0.539988 0.216007
vt 0.570547 0.220976
vt 0.572621 0.069484
vt 0.597950 0.172214
vt 0.621520 0.171700
vt 0.615712 0.190541
vt 0.596722 0.195826
vt 0.599806 0.145616
vt 0.625103 0.145963
vt 0.598679 0.118978
vt 0.598098 0.095341
vt 0.616935 0.101144
vt 0.622226 0.120137
vt 0.628052 0.090286
vt 0.643202 0.115584
vt 0.647333 0.146267
vt 0.642364 0.176825
vt 0.626527 0.201699
vt 0.603180 0.074452
vt 0.601230 0.216846
vt 0.745627 0.487007
vt 0.744917 0.533172
vt 0.720001 0.532837
vt 0.720581 0.486930
vt 0.671136 0.534989
vt 0.703477 0.534903
vt 0.703470 0.488346
vt 0.671064 0.488342
vt 0.429441 0.534931
vt 0.428681 0.488747
vt 0.470944 0.488712
vt 0.471292 0.534347
vt 0.720950 0.534890
vt 0.720964 0.488341
vt 0.702546 0.532673
vt 0.702895 0.486935
vt 0.428698 0.058593
vt 0.429451 0.011250
vt 0.471314 0.011824
vt 0.470956 0.058631
vt 0.720576 0.060400
vt 0.702894 0.060389
vt 0.702524 0.013471
vt 0.719976 0.013331
vt 0.744872 0.012970
vt 0.745625 0.060319
vt 0.703463 0.058993
vt 0.720958 0.058994
vt 0.720932 0.011243
vt 0.703461 0.011234
vt 0.671128 0.011153
vt 0.671058 0.058998
vt 0.470465 0.058401
vt 0.470610 0.010547
vt 0.429038 0.010474
vt 0.428949 0.058338
vt 0.470454 0.488942
vt 0.428939 0.489002
vt 0.429021 0.535664
vt 0.470595 0.535597
vt 0.964939 0.435100
vt 0.964939 0.009773
vt 0.762329 0.009773
vt 0.762329 0.435100
vt 0.670025 0.060376
vt 0.670406 0.013600
vt 0.670027 0.486951
vt 0.670404 0.532571
vt 0.762052 0.877236
vt 0.762052 0.451909
vt 0.964661 0.451909
vt 0.964661 0.877236
vt 0.655896 0.059023
vt 0.655903 0.488315
vt 0.964008 0.894915
vt 0.762506 0.894320
vt 0.762486 0.909757
vt 0.963945 0.910341
vt 0.485637 0.488916
vt 0.485649 0.058429
vt 0.762503 0.942137
vt 0.964006 0.941538
vt 0.963942 0.926115
vt 0.762484 0.926698
vt 0.486444 0.058635
vt 0.486432 0.488710
vt 0.762220 0.894161
vt 0.964535 0.895933
vt 0.964393 0.911312
vt 0.762085 0.909515
vt 0.654658 0.486937
vt 0.654656 0.060395
vt 0.964532 0.940502
vt 0.762212 0.942292
vt 0.762076 0.926936
vt 0.964388 0.925125
vn 0.765213 0.578357 0.282760
vn 0.671255 0.523862 0.524391
vn 0.764763 0.282268 0.579191
vn 0.931327 0.257149 0.257884
vn 0.931327 0.257149 0.257884
vn 0.764763 0.282268 0.579191
vn 0.800009 0.000000 0.599988
vn 0.967726 0.000000 0.252006
vn 0.764763 -0.282268 0.579191
vn 0.671255 -0.523862 0.524391
vn 0.765213 -0.578356 0.282760
vn 0.931327 -0.257149 0.257884
vn 0.967726 0.000000 0.252006
vn 0.800009 0.000000 0.599988
vn 0.764763 -0.282268 0.579191
vn 0.931327 -0.257149 0.257884
vn 0.967952 0.251135 0.000763
vn 0.931327 0.257149 0.257884
vn 0.967726 0.000000 0.252006
vn 1.000000 0.000000 0.000789
vn 0.765213 0.578357 0.282760
vn 0.931327 0.257149 0.257884
vn 0.967952 0.251135 0.000763
vn 0.800859 0.598852 0.000632
vn 0.967726 0.000000 0.252006
vn 0.931327 -0.257149 0.257884
vn 0.967952 -0.251135 0.000763
vn 1.000000 0.000000 0.000789
vn 0.931327 -0.257149 0.257884
vn 0.765213 -0.578356 0.282760
vn 0.800859 -0.598852 0.000632
vn 0.967952 -0.251135 0.000763
vn 0.653640 -0.535143 0.535143
vn 0.747762 -0.289455 0.597551
vn 0.347822 -0.336658 0.875032
vn 0.335261 -0.666183 0.666183
vn 0.357270 0.000000 0.934001
vn 0.347822 -0.336658 0.875032
vn 0.747762 -0.289455 0.597551
vn 0.783733 0.000000 0.621098
vn 0.335261 0.666183 0.666183
vn 0.347822 0.336658 0.875032
vn 0.747762 0.289455 0.597551
vn 0.653640 0.535143 0.535143
vn 0.357270 0.000000 0.934001
vn 0.783733 0.000000 0.621098
vn 0.747762 0.289455 0.597551
vn 0.347822 0.336658 0.875032
vn 0.653640 -0.535143 0.535143
vn 0.335261 -0.666183 0.666183
vn 0.347822 -0.875032 0.336658
vn 0.747762 -0.597551 0.289455
vn 0.335261 0.666183 0.666183
vn 0.653640 0.535143 0.535143
vn 0.747762 0.597551 0.289455
vn 0.347822 0.875032 0.336658
vn 0.357270 0.934001 0.000000
vn 0.347822 0.875032 0.336658
vn 0.747762 0.597551 0.289455
vn 0.783732 0.621099 0.000000
vn 0.783733 -0.621098 0.000000
vn 0.747762 -0.597551 0.289455
vn 0.347822 -0.875032 0.336658
vn 0.357270 -0.934001 0.000000
vn 0.931327 0.257149 -0.257884
vn 0.764763 0.282268 -0.579191
vn 0.671255 0.523862 -0.524391
vn 0.765213 0.578357 -0.282760
vn 0.931327 0.257149 -0.257884
vn 0.765213 0.578357 -0.282760
vn 0.800859 0.598852 -0.000632
vn 0.967952 0.251135 -0.000763
vn 0.931327 0.257149 -0.257884
vn 0.967952 0.251135 -0.000763
vn 1.000000 0.000000 -0.000789
vn 0.967726 0.000000 -0.252006
vn 0.764763 0.282268 -0.579191
vn 0.931327 0.257149 -0.257884
vn 0.967726 0.000000 -0.252006
vn 0.800009 0.000000 -0.599988
vn 0.931327 -0.257149 -0.257884
vn 0.765213 -0.578356 -0.282760
vn 0.671255 -0.523862 -0.524391
vn 0.764763 -0.282268 -0.579191
vn 0.931327 -0.257149 -0.257884
vn 0.764763 -0.282268 -0.579191
vn 0.800009 0.000000 -0.599988
vn 0.967726 0.000000 -0.252006
vn 0.967726 0.000000 -0.252006
vn 1.000000 0.000000 -0.000789
vn 0.967952 -0.251135 -0.000763
vn 0.931327 -0.257149 -0.257884
vn 0.931327 -0.257149 -0.257884
vn 0.967952 -0.251135 -0.000763
vn 0.800859 -0.598852 -0.000632
vn 0.765213 -0.578356 -0.282760
vn 0.335261 -0.666183 -0.666183
vn 0.347822 -0.336658 -0.875032
vn 0.747762 -0.289455 -0.597551
vn 0.653640 -0.535143 -0.535143
vn 0.783733 0.000000 -0.621098
vn 0.747762 -0.289455 -0.597551
vn 0.347822 -0.336658 -0.875032
vn 0.357270 0.000000 -0.934001
vn 0.653640 0.535143 -0.535143
vn 0.747762 0.289455 -0.597551
vn 0.347822 0.336658 -0.875032
vn 0.335261 0.666183 -0.666183
vn 0.783733 0.000000 -0.621098
vn 0.357270 0.000000 -0.934001
vn 0.347822 0.336658 -0.875032
vn 0.747762 0.289455 -0.597551
vn 0.335261 -0.666183 -0.666183
vn 0.653640 -0.535143 -0.535143
vn 0.747762 -0.597551 -0.289455
vn 0.347822 -0.875032 -0.336658
vn 0.783733 -0.621098 0.000000
vn 0.357270 -0.934001 0.000000
vn 0.347822 -0.875032 -0.336658
vn 0.747762 -0.597551 -0.289455
vn 0.653640 0.535143 -0.535143
vn 0.335261 0.666183 -0.666183
vn 0.347822 0.875032 -0.336658
vn 0.747762 0.597551 -0.289455
vn 0.357270 0.934001 0.000000
vn 0.783732 0.621099 0.000000
vn 0.747762 0.597551 -0.289455
vn 0.347822 0.875032 -0.336658
vn 0.000001 0.000000 -1.000000
vn 0.000002 0.000000 -1.000000
vn 0.000002 0.000000 -1.000000
vn 0.000001 0.000000 -1.000000
vn -1.000000 -0.000001 0.000000
vn -1.000000 -0.000001 0.000000
vn -1.000000 0.000000 0.000000
vn -1.000000 -0.000001 0.000000
vn 1.000000 0.000000 0.000001
vn 1.000000 0.000000 0.000001
vn 1.000000 -0.000000 0.000000
vn 1.000000 -0.000000 0.000000
vn -0.707107 -0.000001 -0.707106
vn -0.707107 -0.000001 -0.707106
vn -0.707107 0.000000 -0.707107
vn -0.707107 0.000000 -0.707107
vn 0.707105 0.000000 -0.707109
vn 0.707105 0.000000 -0.707109
vn 0.707106 0.000000 -0.707108
vn 0.707106 0.000000 -0.707108
vn 1.000000 0.000000 0.000001
vn 1.000000 0.000000 0.000001
vn 1.000000 0.000000 0.000000
vn 1.000000 0.000000 0.000000
vn 0.707106 0.000000 -0.707108
vn 0.707106 0.000000 -0.707108
vn 0.707106 0.000000 -0.707108
vn 0.707106 0.000000 -0.707108
vn 0.000002 0.000000 -1.000000
vn 0.000001 0.000000 -1.000000
vn 0.000001 0.000000 -1.000000
vn 0.000002 0.000000 -1.000000
vn -0.707107 0.000000 -0.707107
vn -0.707107 0.000000 -0.707107
vn -0.707107 -0.000001 -0.707107
vn -0.707107 -0.000001 -0.707107
vn -1.000000 0.000000 0.000000
vn -1.000000 -0.000001 0.000000
vn -1.000000 -0.000001 0.000000
vn -1.000000 -0.000001 0.000000
vn 1.000000 0.000000 0.000001
vn 1.000000 0.000000 0.000001
vn 1.000000 0.000000 0.000000
vn 1.000000 -0.000000 0.000000
vn 0.707106 0.000000 -0.707108
vn 0.707106 0.000000 -0.707108
vn 0.707106 0.000000 -0.707108
vn 0.707106 0.000000 -0.707108
vn 0.000001 0.000000 -1.000000
vn 0.000001 0.000000 -1.000000
vn 0.000001 0.000000 -1.000000
vn 0.000001 0.000000 -1.000000
vn -0.707107 0.000000 -0.707107
vn -0.707107 0.000000 -0.707107
vn -0.707107 0.000000 -0.707107
vn -0.707107 0.000000 -0.707107
vn -1.000000 0.000000 0.000000
vn -1.000000 0.000000 0.000000
vn -1.000000 -0.000001 0.000000
vn -1.000000 -0.000001 0.000000
vn -1.000000 -0.000001 0.000000
vn -1.000000 -0.000001 0.000000
vn -1.000000 -0.000001 0.000000
vn -1.000000 0.000000 0.000000
vn -1.000000 -0.000001 0.000000
vn -1.000000 -0.000001 0.000000
vn -1.000000 0.000000 0.000000
vn -1.000000 0.000000 0.000000
vn -1.000000 -0.000002 0.000000
vn -1.000000 -0.000001 0.000000
vn -1.000000 -0.000001 0.000000
vn -1.000000 0.000000 0.000000
vn -1.000000 -0.000001 0.000000
vn -1.000000 -0.000001 0.000000
vn -1.000000 -0.000001 0.000000
vn -1.000000 -0.000001 0.000000
vn -1.000000 0.000000 0.000000
vn -1.000000 0.000000 0.000000
vn -1.000000 0.000000 0.000000
vn -1.000000 0.000000 0.000000
vn -1.000000 -0.000001 0.000000
vn -1.000000 -0.000001 0.000000
vn -1.000000 -0.000001 0.000000
vn -1.000000 -0.000001 0.000000
vn 1.000000 0.000000 0.000000
vn 1.000000 0.000000 0.000000
vn 1.000000 0.000000 0.000000
vn 1.000000 0.000000 0.000000
vn 1.000000 -0.000000 0.000000
vn 1.000000 0.000000 0.000000
vn 1.000000 0.000000 0.000000
vn 1.000000 -0.000000 0.000000
vn 1.000000 -0.000001 0.000000
vn 1.000000 -0.000000 0.000000
vn 1.000000 -0.000000 0.000000
vn 1.000000 -0.000000 0.000000
vn 1.000000 0.000000 0.000000
vn 1.000000 0.000000 0.000000
vn 1.000000 0.000000 0.000000
vn 1.000000 0.000000 0.000000
vn 1.000000 0.000000 0.000000
vn 1.000000 0.000000 0.000000
vn 1.000000 0.000000 0.000000
vn 1.000000 0.000000 0.000000
vn 1.000000 -0.000000 0.000000
vn 1.000000 -0.000000 0.000000
vn 1.000000 -0.000000 0.000000
vn 1.000000 -0.000001 0.000000
vn 0.000000 0.000000 1.000000
vn 0.000000 0.000000 1.000000
vn 0.000000 0.000000 1.000000
vn 0.000000 0.000000 1.000000
vn 0.000001 1.000000 0.000000
vn 0.000001 1.000000 0.000000
vn 0.000001 1.000000 0.000000
vn 0.000001 1.000000 0.000000
vn 0.000001 0.000000 -1.000000
vn 0.000001 0.000000 -1.000000
vn 0.000001 0.000000 -1.000000
vn 0.000001 0.000000 -1.000000
vn 0.000002 -1.000000 0.000000
vn 0.000002 -1.000000 0.000000
vn 0.000002 -1.000000 0.000000
vn 0.000002 -1.000000 0.000000
vn 0.000001 0.000000 -1.000000
vn 0.000001 0.000000 -1.000000
vn 0.000001 0.000000 -1.000000
vn 0.000001 0.000000 -1.000000
vn 0.000000 1.000000 0.000000
vn 0.000000 1.000000 0.000000
vn 0.000000 1.000000 0.000000
vn 0.000000 1.000000 0.000000
vn 0.000002 0.000000 1.000000
vn 0.000002 0.000000 1.000000
vn 0.000002 0.000000 1.000000
vn 0.000002 0.000000 1.000000
vn 0.000002 -1.000000 0.000000
vn 0.000002 -1.000000 0.000000
vn 0.000002 -1.000000 0.000000
vn 0.000002 -1.000000 0.000000
s off
g FoodHat7
usemtl blinn1SG
f 12/1/1 7/2/2 10/3/3 14/4/4
f 14/4/5 10/3/6 8/5/7 13/6/8
f 9/7/9 6/8/10 11/9/11 15/10/12
f 13/6/13 8/5/14 9/7/15 15/10/16
f 4/11/17 14/4/18 13/6/19 3/12/20
f 12/1/21 14/4/22 4/11/23 2/13/24
f 13/6/25 15/10/26 5/14/27 3/12/28
f 15/10/29 11/9/30 1/15/31 5/14/32
f 6/8/33 9/7/34 21/16/35 19/17/36
f 20/18/37 21/16/38 9/7/39 8/5/40
f 18/19/41 22/20/42 10/3/43 7/2/44
f 20/18/45 8/5/46 10/3/47 22/20/48
f 6/8/49 19/17/50 23/21/51 11/9/52
f 18/19/53 7/2/54 12/1/55 24/22/56
f 17/23/57 24/22/58 12/1/59 2/13/60
f 1/15/61 11/9/62 23/21/63 16/24/64
f 33/25/65 29/26/66 26/27/67 31/28/68
f 33/25/69 31/28/70 2/13/71 4/11/72
f 33/25/73 4/11/74 3/12/75 32/29/76
f 29/26/77 33/25/78 32/29/79 27/30/80
f 34/31/81 30/32/82 25/33/83 28/34/84
f 34/31/85 28/34/86 27/30/87 32/29/88
f 32/29/89 3/12/90 5/14/91 34/31/92
f 34/31/93 5/14/94 1/15/95 30/32/96
f 36/35/97 38/36/98 28/34/99 25/33/100
f 27/30/101 28/34/102 38/36/103 37/37/104
f 26/27/105 29/26/106 39/38/107 35/39/108
f 27/30/109 37/37/110 39/38/111 29/26/112
f 36/35/113 25/33/114 30/32/115 40/40/116
f 1/15/117 16/24/118 40/40/119 30/32/120
f 26/27/121 35/39/122 41/41/123 31/28/124
f 17/23/125 2/13/126 31/28/127 41/41/128
f 63/42/129 46/43/130 51/44/131 62/45/132
f 73/46/133 47/47/134 64/48/135 72/49/136
f 44/50/137 60/51/138 80/52/139 81/53/140
f 47/47/141 46/54/142 63/55/143 64/48/144
f 51/44/145 50/56/146 61/57/147 62/45/148
f 54/58/149 45/59/150 78/60/151 79/61/152
f 56/62/153 55/63/154 53/64/155 52/65/156
f 49/66/157 57/67/158 56/62/159 52/65/160
f 58/68/161 57/69/162 49/70/163 48/71/164
f 58/68/165 48/71/166 70/72/167 71/73/168
f 60/51/169 54/58/170 79/61/171 80/52/172
f 62/45/173 61/57/174 55/63/175 56/62/176
f 57/67/177 63/42/178 62/45/179 56/62/180
f 64/48/181 63/55/182 57/69/183 58/68/184
f 64/48/185 58/68/186 71/73/187 72/49/188
f 67/74/189 66/75/190 42/76/191 59/77/192
f 68/78/193 67/74/194 59/77/195 65/79/196
f 43/80/197 69/81/198 68/78/199 65/79/200
f 71/73/201 70/72/202 66/75/203 67/74/204
f 83/82/205 82/83/206 84/84/207 85/85/208
f 69/81/209 73/46/210 72/49/211 68/78/212
f 75/86/213 74/87/214 53/64/215 55/63/216
f 76/88/217 75/86/218 55/63/219 61/57/220
f 77/89/221 76/88/222 61/57/223 50/56/224
f 79/61/225 78/60/226 74/87/227 75/86/228
f 87/90/229 86/91/230 88/92/231 89/93/232
f 81/53/233 80/52/234 76/88/235 77/89/236
f 72/49/237 71/73/238 82/94/239 83/95/240
f 71/96/241 67/97/242 84/98/243 82/99/244
f 67/74/245 68/78/246 85/100/247 84/101/248
f 68/102/249 72/103/250 83/104/251 85/105/252
f 80/52/253 79/61/254 86/106/255 87/107/256
f 79/108/257 75/109/258 88/110/259 86/111/260
f 75/86/261 76/88/262 89/112/263 88/113/264
f 76/114/265 80/115/266 87/116/267 89/117/268
