# This file uses centimeters as units for non-parametric coordinates.

mtllib MiningStructure_brokenBoardsCOL.mtl
g default
v -38.795082 -0.264516 -16.958258
v -38.789398 0.565022 -16.960644
v -39.854454 -0.264516 -19.481239
v -39.848763 0.565022 -19.483625
v -25.769320 0.596550 -25.429588
v -25.775002 -0.296047 -25.427202
v -24.955599 -0.296047 -22.735073
v -24.949911 0.596550 -22.737461
v 20.815575 -0.264518 1.603545
v 20.821301 0.565021 1.601257
v 21.832195 -0.264518 4.144054
v 21.837919 0.565021 4.141765
v 10.520295 0.596550 5.689392
v 10.514573 -0.296047 5.691680
v 11.288407 -0.296047 8.397261
v 11.294134 0.596550 8.394972
v 28.094275 -0.264518 2.515865
v 28.091024 0.565021 2.510624
v 30.419989 -0.264518 1.074077
v 30.416739 0.565021 1.068838
v 33.903595 0.596550 11.946594
v 33.906845 -0.296047 11.951834
v 36.437233 -0.296047 10.720526
v 36.433979 0.596550 10.715281
v 39.898903 -0.264516 23.463657
v 39.894455 0.565022 23.459387
v 38.005486 -0.264516 25.439171
v 38.001038 0.565022 25.434902
v 26.945339 0.596550 14.882334
v 26.949787 -0.296047 14.886597
v 29.093845 -0.296047 13.063963
v 29.089392 0.596550 13.059692
vt 0.565006 0.591100
vt 0.567137 0.937589
vt 0.543092 0.590325
vt 0.479556 0.568133
vt 0.544709 0.937948
vt 0.476759 0.590681
vt 0.454880 0.591654
vt 0.456237 0.944665
vt 0.478539 0.944406
vt 0.629473 0.592759
vt 0.630488 0.945830
vt 0.540019 0.567756
vt 0.479631 0.962463
vt 0.556675 0.951306
vt 0.409217 0.599388
vt 0.435400 0.624137
vt 0.412455 0.622912
vt 0.320037 0.623962
vt 0.343019 0.622830
vt 0.346328 0.599288
vt 0.412736 0.893790
vt 0.436612 0.894223
vt 0.251682 0.892284
vt 0.252385 0.625771
vt 0.319191 0.900731
vt 0.342843 0.899984
vt 0.412837 0.918250
vt 0.351563 0.916480
vt 0.739624 0.429397
vt 0.766658 0.454999
vt 0.742906 0.453815
vt 0.647461 0.455363
vt 0.671080 0.454073
vt 0.674106 0.429691
vt 0.742821 0.733546
vt 0.767486 0.733953
vt 0.836652 0.456896
vt 0.837127 0.744052
vt 0.646425 0.740843
vt 0.670781 0.739981
vt 0.742965 0.758918
vt 0.679808 0.756901
vt 0.919946 0.050948
vt 0.922078 0.397437
vt 0.898032 0.050173
vt 0.834496 0.027980
vt 0.899649 0.397797
vt 0.831699 0.050529
vt 0.809820 0.051502
vt 0.811177 0.404513
vt 0.833479 0.404255
vt 0.984413 0.052607
vt 0.985428 0.405679
vt 0.894959 0.027605
vt 0.834571 0.422312
vt 0.911615 0.411155
vn -0.387143 -0.000001 -0.922020
vn -0.387143 -0.000001 -0.922020
vn -0.387143 -0.000001 -0.922020
vn -0.387143 -0.000001 -0.922020
vn 0.387144 0.000001 0.922019
vn 0.387144 0.000001 0.922019
vn 0.387144 0.000001 0.922019
vn 0.387144 0.000001 0.922019
vn 0.000000 -1.000000 0.000000
vn 0.000000 -1.000000 0.000000
vn 0.000000 -1.000000 0.000000
vn 0.000000 -1.000000 0.000000
vn -0.921984 0.008785 0.387129
vn -0.921983 0.008785 0.387130
vn -0.921985 0.008782 0.387127
vn -0.921984 0.008782 0.387128
vn 0.000000 1.000000 0.000000
vn 0.000000 1.000000 0.000000
vn 0.000000 1.000000 0.000000
vn 0.000000 1.000000 0.000000
vn 0.896426 -0.003729 0.443178
vn 0.998757 -0.005136 0.049574
vn 0.998757 -0.005136 0.049574
vn 0.896426 -0.003729 0.443178
vn 0.928388 -0.008760 -0.371509
vn 0.928388 -0.008760 -0.371509
vn 0.928388 -0.008763 -0.371508
vn 0.928388 -0.008763 -0.371508
vn -0.371522 0.000004 -0.928424
vn -0.371522 0.000004 -0.928424
vn -0.371522 0.000004 -0.928424
vn -0.371522 0.000004 -0.928424
vn 0.000000 -1.000000 0.000000
vn 0.000000 -1.000000 0.000000
vn 0.000000 -1.000000 0.000000
vn 0.000000 -1.000000 0.000000
vn 0.371522 -0.000003 0.928424
vn 0.371522 -0.000003 0.928424
vn 0.371522 -0.000003 0.928424
vn 0.371522 -0.000003 0.928424
vn 0.000000 1.000000 0.000000
vn 0.000000 1.000000 0.000000
vn 0.000000 1.000000 0.000000
vn 0.000000 1.000000 0.000000
vn -0.888816 0.003732 -0.458249
vn -0.997778 0.005135 -0.066426
vn -0.997778 0.005135 -0.066426
vn -0.888816 0.003732 -0.458249
vn -0.526878 -0.008760 -0.849896
vn -0.526878 -0.008760 -0.849896
vn -0.526880 -0.008761 -0.849895
vn -0.526880 -0.008761 -0.849895
vn -0.849928 0.000000 0.526898
vn -0.849928 0.000000 0.526898
vn -0.849928 0.000000 0.526898
vn -0.849928 0.000000 0.526898
vn 0.000000 -1.000000 0.000000
vn 0.000000 -1.000000 0.000000
vn 0.000000 -1.000000 0.000000
vn 0.000000 -1.000000 0.000000
vn 0.849928 0.000004 -0.526898
vn 0.849928 0.000004 -0.526898
vn 0.849928 0.000004 -0.526899
vn 0.849928 0.000004 -0.526898
vn 0.000000 1.000000 0.000000
vn 0.000000 1.000000 0.000000
vn 0.000000 1.000000 0.000000
vn 0.000000 1.000000 0.000000
vn -0.297171 0.003733 0.954817
vn 0.107613 0.005138 0.994180
vn 0.107613 0.005138 0.994180
vn -0.297171 0.003733 0.954817
vn -0.691946 -0.000003 0.721949
vn -0.691946 -0.000003 0.721949
vn -0.691946 -0.000003 0.721949
vn -0.691946 -0.000003 0.721949
vn 0.691946 0.000003 -0.721949
vn 0.691946 0.000003 -0.721949
vn 0.691946 0.000003 -0.721949
vn 0.691946 0.000003 -0.721949
vn 0.000000 -1.000000 0.000000
vn 0.000000 -1.000000 0.000000
vn 0.000000 -1.000000 0.000000
vn 0.000000 -1.000000 0.000000
vn 0.721923 0.008779 0.691918
vn 0.721923 0.008779 0.691918
vn 0.721922 0.008782 0.691919
vn 0.721922 0.008782 0.691919
vn 0.000000 1.000000 0.000000
vn 0.000000 1.000000 0.000000
vn 0.000000 1.000000 0.000000
vn 0.000000 1.000000 0.000000
vn 0.050038 -0.003732 -0.998740
vn -0.351795 -0.005134 -0.936063
vn -0.351795 -0.005134 -0.936063
vn 0.050038 -0.003732 -0.998740
s off
g MiningStructure_brokenBoards:polySurface396
usemtl lambert2SG
f 3/7/1 4/6/2 5/9/3 6/8/4
f 7/2/5 8/5/6 2/3/7 1/1/8
f 7/2/9 1/1/10 3/10/11 6/11/12
f 1/12/13 2/3/14 4/6/15 3/4/16
f 2/3/17 8/5/18 5/9/19 4/6/20
f 7/14/21 6/13/22 5/9/23 8/5/24
f 12/19/25 11/20/26 9/15/27 10/17/28
f 14/22/29 13/21/30 10/17/31 9/16/32
f 14/23/33 9/24/34 11/18/35 15/25/36
f 11/18/37 12/19/38 16/26/39 15/25/40
f 16/26/41 12/19/42 10/17/43 13/21/44
f 16/26/45 13/21/46 14/27/47 15/28/48
f 20/33/49 19/34/50 17/29/51 18/31/52
f 22/36/53 21/35/54 18/31/55 17/30/56
f 22/36/57 17/30/58 19/37/59 23/38/60
f 19/32/61 20/33/62 24/40/63 23/39/64
f 24/40/65 20/33/66 18/31/67 21/35/68
f 24/40/69 21/35/70 22/41/71 23/42/72
f 27/49/73 28/48/74 29/51/75 30/50/76
f 31/44/77 32/47/78 26/45/79 25/43/80
f 31/44/81 25/43/82 27/52/83 30/53/84
f 25/54/85 26/45/86 28/48/87 27/46/88
f 26/45/89 32/47/90 29/51/91 28/48/92
f 31/56/93 30/55/94 29/51/95 32/47/96
