# This file uses centimeters as units for non-parametric coordinates.

mtllib PickleMediumRUpperLeg.mtl
g default
v 1.603910 0.131526 0.081742
v 1.576302 0.228036 -0.010734
v 1.538590 0.263360 -0.137060
v 1.500877 0.228035 -0.263385
v 1.473269 0.131525 -0.355862
v 1.463164 -0.000310 -0.389710
v 1.473269 -0.132144 -0.355861
v 1.500877 -0.228653 -0.263385
v 1.538590 -0.263978 -0.137059
v 1.576303 -0.228653 -0.010734
v 1.603910 -0.132143 0.081743
v 1.614015 -0.000309 0.115591
v 1.512483 0.243290 0.310385
v 1.462954 0.421616 0.139075
v 1.395295 0.486888 -0.094939
v 1.327636 0.421616 -0.328953
v 1.278107 0.243289 -0.500263
v 1.259978 -0.000309 -0.562967
v 1.278107 -0.243908 -0.500262
v 1.327637 -0.422234 -0.328952
v 1.395295 -0.487506 -0.094938
v 1.462954 -0.422234 0.139076
v 1.512483 -0.243907 0.310386
v 1.530612 -0.000308 0.373089
v 1.336175 0.317969 0.497033
v 1.270523 0.550964 0.273479
v 1.180841 0.636245 -0.031901
v 1.091158 0.550962 -0.337282
v 1.025506 0.317968 -0.560835
v 1.001476 -0.000309 -0.642661
v 1.025506 -0.318586 -0.560834
v 1.091158 -0.551580 -0.337280
v 1.180840 -0.636862 -0.031900
v 1.270523 -0.551580 0.273480
v 1.336175 -0.318585 0.497034
v 1.360206 -0.000308 0.578860
v 1.093497 0.336928 0.602594
v 1.023496 0.583801 0.365852
v 0.927874 0.674163 0.042457
v 0.832252 0.583800 -0.280937
v 0.762250 0.336926 -0.517679
v 0.736629 -0.000309 -0.604332
v 0.762251 -0.337545 -0.517678
v 0.832252 -0.584418 -0.280936
v 0.927874 -0.674780 0.042459
v 1.023497 -0.584418 0.365854
v 1.093497 -0.337544 0.602595
v 1.119119 -0.000307 0.689248
v 0.571286 0.331916 0.706576
v 0.537801 0.575120 0.465687
v 0.492060 0.664140 0.136627
v 0.446319 0.575120 -0.192433
v 0.412834 0.331915 -0.433321
v 0.400578 -0.000309 -0.521492
v 0.412834 -0.332533 -0.433321
v 0.446319 -0.575737 -0.192431
v 0.492060 -0.664757 0.136629
v 0.537800 -0.575737 0.465689
v 0.571286 -0.332531 0.706577
v 0.583542 -0.000308 0.794748
v 0.041007 0.311616 0.705125
v 0.043576 0.539960 0.476796
v 0.047086 0.623539 0.164891
v 0.050596 0.539959 -0.147013
v 0.053165 0.311614 -0.375342
v 0.054106 -0.000309 -0.458916
v 0.053165 -0.312233 -0.375341
v 0.050596 -0.540576 -0.147011
v 0.047085 -0.624156 0.164893
v 0.043576 -0.540576 0.476797
v 0.041006 -0.312231 0.705126
v 0.040066 -0.000308 0.788700
v -0.476607 0.286556 0.617090
v -0.443020 0.496556 0.409793
v -0.397140 0.573421 0.126621
v -0.351261 0.496555 -0.156551
v -0.317674 0.286556 -0.363847
v -0.305380 -0.000309 -0.439723
v -0.317674 -0.287174 -0.363846
v -0.351261 -0.497173 -0.156550
v -0.397140 -0.574038 0.126622
v -0.443020 -0.497173 0.409794
v -0.476607 -0.287173 0.617090
v -0.488900 -0.000308 0.692966
v -0.967687 0.258909 0.450244
v -0.909800 0.448669 0.269529
v -0.830723 0.518125 0.022668
v -0.751648 0.448668 -0.224193
v -0.693760 0.258908 -0.404908
v -0.672572 -0.000309 -0.471054
v -0.693760 -0.259526 -0.404907
v -0.751648 -0.449286 -0.224192
v -0.830723 -0.518743 0.022669
v -0.909800 -0.449285 0.269530
v -0.967687 -0.259525 0.450245
v -0.988876 -0.000308 0.516391
v -1.143218 0.236940 0.347270
v -1.089361 0.410617 0.182153
v -1.015792 0.474188 -0.043400
v -0.942223 0.410617 -0.268953
v -0.888367 0.236939 -0.434069
v -0.868654 -0.000309 -0.494506
v -0.888367 -0.237557 -0.434069
v -0.942223 -0.411235 -0.268952
v -1.015791 -0.474805 -0.043399
v -1.089361 -0.411234 0.182154
v -1.143218 -0.237556 0.347271
v -1.162930 -0.000308 0.407707
v -1.274786 0.181274 0.206638
v -1.232988 0.314200 0.080453
v -1.175893 0.362855 -0.091919
v -1.118797 0.314200 -0.264291
v -1.077000 0.181272 -0.390475
v -1.061701 -0.000309 -0.436662
v -1.077000 -0.181891 -0.390475
v -1.118798 -0.314818 -0.264290
v -1.175893 -0.363472 -0.091918
v -1.232988 -0.314817 0.080454
v -1.274786 -0.181890 0.206639
v -1.290085 -0.000308 0.252825
v -1.335285 0.097963 0.036044
v -1.312395 0.169903 -0.032157
v -1.281128 0.196233 -0.125321
v -1.249860 0.169902 -0.218486
v -1.226969 0.097962 -0.286686
v -1.218591 -0.000309 -0.311650
v -1.226969 -0.098580 -0.286686
v -1.249860 -0.170520 -0.218485
v -1.281128 -0.196852 -0.125321
v -1.312395 -0.170520 -0.032157
v -1.335285 -0.098580 0.036044
v -1.343663 -0.000309 0.061007
v 1.588908 -0.000309 -0.151850
v -1.318585 -0.000309 -0.137853
vt 0.737707 0.160436
vt 0.733846 0.150004
vt 0.753777 0.141814
vt 0.757251 0.156548
vt 0.726870 0.139851
vt 0.747068 0.126461
vt 0.716518 0.130526
vt 0.735928 0.109766
vt 0.703392 0.123727
vt 0.718482 0.092736
vt 0.687119 0.121571
vt 0.692848 0.075812
vt 0.688235 0.220614
vt 0.703477 0.218233
vt 0.718535 0.249047
vt 0.693486 0.264764
vt 0.716447 0.211322
vt 0.735979 0.232049
vt 0.726919 0.202076
vt 0.747080 0.215392
vt 0.733855 0.191944
vt 0.753736 0.200100
vt 0.737669 0.181528
vt 0.757287 0.185370
vt 0.738841 0.170964
vt 0.758335 0.170966
vt 0.769980 0.137608
vt 0.772552 0.154811
vt 0.765157 0.118828
vt 0.756331 0.097064
vt 0.741260 0.071340
vt 0.717599 0.040019
vt 0.741219 0.270242
vt 0.717065 0.300507
vt 0.756218 0.244752
vt 0.765107 0.223017
vt 0.769938 0.204291
vt 0.772521 0.187127
vt 0.773419 0.170974
vt 0.785059 0.135126
vt 0.786191 0.153620
vt 0.782553 0.114198
vt 0.777211 0.089146
vt 0.767746 0.057912
vt 0.752961 0.018997
vt 0.767524 0.283623
vt 0.751964 0.322283
vt 0.777045 0.252605
vt 0.782411 0.227674
vt 0.785046 0.206776
vt 0.786206 0.188302
vt 0.786520 0.170963
vt 0.814268 0.132741
vt 0.814859 0.152625
vt 0.812978 0.110123
vt 0.810818 0.083185
vt 0.807398 0.049387
vt 0.802426 0.007726
vt 0.806927 0.292315
vt 0.801544 0.334381
vt 0.810573 0.258583
vt 0.812829 0.231787
vt 0.814152 0.209205
vt 0.814785 0.189369
vt 0.814964 0.170999
vt 0.845617 0.132146
vt 0.845268 0.152143
vt 0.846326 0.109453
vt 0.847470 0.082288
vt 0.849701 0.048870
vt 0.853620 0.009194
vt 0.849227 0.293206
vt 0.852959 0.332986
vt 0.847154 0.259754
vt 0.846085 0.232596
vt 0.845506 0.209921
vt 0.845247 0.189934
vt 0.845212 0.171037
vt 0.878679 0.134012
vt 0.877335 0.153089
vt 0.881268 0.112409
vt 0.885683 0.086915
vt 0.893240 0.056594
vt 0.904664 0.021898
vt 0.892808 0.285695
vt 0.904121 0.320441
vt 0.885407 0.255290
vt 0.881078 0.229781
vt 0.878549 0.208188
vt 0.877251 0.189096
vt 0.876901 0.171087
vt 0.911443 0.138312
vt 0.909415 0.155107
vt 0.915760 0.119802
vt 0.923406 0.098531
vt 0.935873 0.073953
vt 0.953162 0.046242
vt 0.935534 0.268476
vt 0.952755 0.296245
vt 0.923161 0.243820
vt 0.915594 0.222515
vt 0.911344 0.203999
vt 0.909358 0.187190
vt 0.908841 0.171145
vt 0.925490 0.141062
vt 0.922302 0.156498
vt 0.931210 0.124698
vt 0.940787 0.106862
vt 0.955777 0.087394
vt 0.975973 0.067391
vt 0.955525 0.255077
vt 0.975635 0.275163
vt 0.940579 0.235557
vt 0.931039 0.217681
vt 0.925391 0.201296
vt 0.922262 0.185840
vt 0.921254 0.171166
vt 0.939897 0.145844
vt 0.936265 0.158690
vt 0.946450 0.133041
vt 0.956856 0.119976
vt 0.971884 0.107260
vt 0.991149 0.097264
vt 0.971672 0.235259
vt 0.990920 0.245334
vt 0.956701 0.222503
vt 0.946348 0.209379
vt 0.939811 0.196552
vt 0.936218 0.183696
vt 0.935168 0.171198
vt 0.956923 0.153636
vt 0.953438 0.162348
vt 0.963164 0.145572
vt 0.971949 0.138898
vt 0.981223 0.133973
vt 0.991966 0.132542
vt 0.981167 0.208570
vt 0.991829 0.210045
vt 0.971785 0.203602
vt 0.963117 0.196926
vt 0.956859 0.188803
vt 0.953416 0.180105
vt 0.952390 0.171219
vt 0.707141 0.170966
vt 0.976439 0.171239
vn 0.979562 0.192519 0.058274
vn 0.939979 0.332270 -0.077694
vn 0.778310 0.611889 0.140804
vn 0.850592 0.353409 0.389353
vn 0.886367 0.381800 -0.261882
vn 0.679671 0.706170 -0.198421
vn 0.833287 0.329020 -0.444273
vn 0.581155 0.611221 -0.537278
vn 0.794774 0.189269 -0.576639
vn 0.509118 0.352741 -0.785094
vn 0.780750 -0.000001 -0.624844
vn 0.482767 -0.000001 -0.875749
vn 0.794772 -0.189269 -0.576641
vn 0.509117 -0.352741 -0.785095
vn 0.833287 -0.329019 -0.444274
vn 0.581154 -0.611222 -0.537278
vn 0.886367 -0.381800 -0.261881
vn 0.679670 -0.706172 -0.198419
vn 0.939980 -0.332268 -0.077690
vn 0.778310 -0.611889 0.140804
vn 0.979562 -0.192518 0.058276
vn 0.850593 -0.353408 0.389352
vn 0.994120 -0.000002 0.108283
vn 0.877064 -0.000000 0.480373
vn 0.476956 0.807803 0.346363
vn 0.573875 0.466157 0.673324
vn 0.344417 0.933390 -0.100797
vn 0.211709 0.808871 -0.548549
vn 0.114457 0.467225 -0.876699
vn 0.078838 -0.000001 -0.996887
vn 0.114456 -0.467227 -0.876698
vn 0.211708 -0.808873 -0.548547
vn 0.344415 -0.933391 -0.100794
vn 0.476956 -0.807803 0.346364
vn 0.573875 -0.466155 0.673325
vn 0.609327 0.000001 0.792919
vn 0.182077 0.865589 0.466480
vn 0.273372 0.500136 0.821664
vn 0.057482 0.998188 -0.017801
vn -0.066954 0.863070 -0.500628
vn -0.157937 0.497613 -0.852899
vn -0.191216 -0.000001 -0.981548
vn -0.157937 -0.497615 -0.852898
vn -0.066953 -0.863071 -0.500625
vn 0.057483 -0.998188 -0.017799
vn 0.182078 -0.865588 0.466481
vn 0.273372 -0.500134 0.821665
vn 0.306803 0.000001 0.951773
vn 0.017602 0.865906 0.499896
vn 0.071376 0.500451 0.862818
vn -0.056425 0.998392 0.005430
vn -0.131317 0.863246 -0.487404
vn -0.186853 0.497737 -0.846962
vn -0.207360 -0.000001 -0.978265
vn -0.186853 -0.497739 -0.846961
vn -0.131317 -0.863247 -0.487402
vn -0.056425 -0.998392 0.005432
vn 0.017602 -0.865905 0.499899
vn 0.071376 -0.500448 0.862819
vn 0.090988 0.000001 0.995852
vn -0.097856 0.862584 0.496360
vn -0.096315 0.498433 0.861562
vn -0.101181 0.994867 -0.001528
vn -0.106261 0.860511 -0.498227
vn -0.111375 0.496315 -0.860969
vn -0.113595 -0.000001 -0.993527
vn -0.111375 -0.496317 -0.860968
vn -0.106261 -0.860512 -0.498225
vn -0.101181 -0.994867 -0.001527
vn -0.097856 -0.862583 0.496362
vn -0.096315 -0.498430 0.861563
vn -0.095912 0.000001 0.995390
vn -0.185857 0.861038 0.473361
vn -0.238098 0.497540 0.834124
vn -0.115841 0.993093 -0.018647
vn -0.047696 0.859003 -0.509745
vn 0.000742 0.495467 -0.868626
vn 0.018116 -0.000001 -0.999836
vn 0.000742 -0.495470 -0.868625
vn -0.047697 -0.859004 -0.509742
vn -0.115841 -0.993093 -0.018645
vn -0.185857 -0.861037 0.473364
vn -0.238098 -0.497538 0.834126
vn -0.257404 0.000001 0.966304
vn -0.298913 0.853893 0.426049
vn -0.398145 0.493287 0.773401
vn -0.164044 0.985290 -0.047888
vn -0.030022 0.852804 -0.521368
vn 0.067506 0.492222 -0.867848
vn 0.103073 -0.000001 -0.994674
vn 0.067507 -0.492224 -0.867847
vn -0.030022 -0.852805 -0.521366
vn -0.164044 -0.985290 -0.047886
vn -0.298913 -0.853892 0.426050
vn -0.398146 -0.493286 0.773401
vn -0.434569 0.000001 0.900639
vn -0.517507 0.795807 0.314449
vn -0.622323 0.459330 0.633822
vn -0.374140 0.919301 -0.122084
vn -0.230540 0.796499 -0.558964
vn -0.125261 0.460021 -0.879028
vn -0.086690 -0.000001 -0.996235
vn -0.125260 -0.460022 -0.879028
vn -0.230540 -0.796501 -0.558961
vn -0.374139 -0.919302 -0.122081
vn -0.517507 -0.795807 0.314449
vn -0.622323 -0.459329 0.633822
vn -0.660661 0.000001 0.750684
vn -0.779742 0.615138 0.116652
vn -0.858744 0.356947 0.367624
vn -0.673116 0.705385 -0.222141
vn -0.567983 0.606615 -0.556249
vn -0.491971 0.348424 -0.797850
vn -0.464350 -0.000001 -0.885652
vn -0.491971 -0.348425 -0.797850
vn -0.567985 -0.606618 -0.556244
vn -0.673116 -0.705386 -0.222136
vn -0.779742 -0.615138 0.116651
vn -0.858745 -0.356946 0.367623
vn -0.887862 0.000001 0.460110
vn -0.936893 0.331469 -0.111177
vn -0.981120 0.192035 0.022957
vn -0.876969 0.380945 -0.292928
vn -0.817606 0.328350 -0.472975
vn -0.774506 0.188917 -0.603698
vn -0.758804 -0.000000 -0.651318
vn -0.774508 -0.188918 -0.603695
vn -0.817607 -0.328351 -0.472974
vn -0.876968 -0.380946 -0.292930
vn -0.936892 -0.331469 -0.111182
vn -0.981120 -0.192035 0.022950
vn -0.997384 0.000000 0.072283
vn 0.958235 -0.000000 -0.285982
vn -0.948037 -0.000000 -0.318161
s 1
g FoodMediumRUpperLeg
usemtl Pickle_lambert3SG
f 1/1/1 2/2/2 14/3/3 13/4/4
f 2/2/2 3/5/5 15/6/6 14/3/3
f 3/5/5 4/7/7 16/8/8 15/6/6
f 4/7/7 5/9/9 17/10/10 16/8/8
f 5/9/9 6/11/11 18/12/12 17/10/10
f 6/13/11 7/14/13 19/15/14 18/16/12
f 7/14/13 8/17/15 20/18/16 19/15/14
f 8/17/15 9/19/17 21/20/18 20/18/16
f 9/19/17 10/21/19 22/22/20 21/20/18
f 10/21/19 11/23/21 23/24/22 22/22/20
f 11/23/21 12/25/23 24/26/24 23/24/22
f 12/25/23 1/1/1 13/4/4 24/26/24
f 13/4/4 14/3/3 26/27/25 25/28/26
f 14/3/3 15/6/6 27/29/27 26/27/25
f 15/6/6 16/8/8 28/30/28 27/29/27
f 16/8/8 17/10/10 29/31/29 28/30/28
f 17/10/10 18/12/12 30/32/30 29/31/29
f 18/16/12 19/15/14 31/33/31 30/34/30
f 19/15/14 20/18/16 32/35/32 31/33/31
f 20/18/16 21/20/18 33/36/33 32/35/32
f 21/20/18 22/22/20 34/37/34 33/36/33
f 22/22/20 23/24/22 35/38/35 34/37/34
f 23/24/22 24/26/24 36/39/36 35/38/35
f 24/26/24 13/4/4 25/28/26 36/39/36
f 25/28/26 26/27/25 38/40/37 37/41/38
f 26/27/25 27/29/27 39/42/39 38/40/37
f 27/29/27 28/30/28 40/43/40 39/42/39
f 28/30/28 29/31/29 41/44/41 40/43/40
f 29/31/29 30/32/30 42/45/42 41/44/41
f 30/34/30 31/33/31 43/46/43 42/47/42
f 31/33/31 32/35/32 44/48/44 43/46/43
f 32/35/32 33/36/33 45/49/45 44/48/44
f 33/36/33 34/37/34 46/50/46 45/49/45
f 34/37/34 35/38/35 47/51/47 46/50/46
f 35/38/35 36/39/36 48/52/48 47/51/47
f 36/39/36 25/28/26 37/41/38 48/52/48
f 37/41/38 38/40/37 50/53/49 49/54/50
f 38/40/37 39/42/39 51/55/51 50/53/49
f 39/42/39 40/43/40 52/56/52 51/55/51
f 40/43/40 41/44/41 53/57/53 52/56/52
f 41/44/41 42/45/42 54/58/54 53/57/53
f 42/47/42 43/46/43 55/59/55 54/60/54
f 43/46/43 44/48/44 56/61/56 55/59/55
f 44/48/44 45/49/45 57/62/57 56/61/56
f 45/49/45 46/50/46 58/63/58 57/62/57
f 46/50/46 47/51/47 59/64/59 58/63/58
f 47/51/47 48/52/48 60/65/60 59/64/59
f 48/52/48 37/41/38 49/54/50 60/65/60
f 49/54/50 50/53/49 62/66/61 61/67/62
f 50/53/49 51/55/51 63/68/63 62/66/61
f 51/55/51 52/56/52 64/69/64 63/68/63
f 52/56/52 53/57/53 65/70/65 64/69/64
f 53/57/53 54/58/54 66/71/66 65/70/65
f 54/60/54 55/59/55 67/72/67 66/73/66
f 55/59/55 56/61/56 68/74/68 67/72/67
f 56/61/56 57/62/57 69/75/69 68/74/68
f 57/62/57 58/63/58 70/76/70 69/75/69
f 58/63/58 59/64/59 71/77/71 70/76/70
f 59/64/59 60/65/60 72/78/72 71/77/71
f 60/65/60 49/54/50 61/67/62 72/78/72
f 61/67/62 62/66/61 74/79/73 73/80/74
f 62/66/61 63/68/63 75/81/75 74/79/73
f 63/68/63 64/69/64 76/82/76 75/81/75
f 64/69/64 65/70/65 77/83/77 76/82/76
f 65/70/65 66/71/66 78/84/78 77/83/77
f 66/73/66 67/72/67 79/85/79 78/86/78
f 67/72/67 68/74/68 80/87/80 79/85/79
f 68/74/68 69/75/69 81/88/81 80/87/80
f 69/75/69 70/76/70 82/89/82 81/88/81
f 70/76/70 71/77/71 83/90/83 82/89/82
f 71/77/71 72/78/72 84/91/84 83/90/83
f 72/78/72 61/67/62 73/80/74 84/91/84
f 73/80/74 74/79/73 86/92/85 85/93/86
f 74/79/73 75/81/75 87/94/87 86/92/85
f 75/81/75 76/82/76 88/95/88 87/94/87
f 76/82/76 77/83/77 89/96/89 88/95/88
f 77/83/77 78/84/78 90/97/90 89/96/89
f 78/86/78 79/85/79 91/98/91 90/99/90
f 79/85/79 80/87/80 92/100/92 91/98/91
f 80/87/80 81/88/81 93/101/93 92/100/92
f 81/88/81 82/89/82 94/102/94 93/101/93
f 82/89/82 83/90/83 95/103/95 94/102/94
f 83/90/83 84/91/84 96/104/96 95/103/95
f 84/91/84 73/80/74 85/93/86 96/104/96
f 85/93/86 86/92/85 98/105/97 97/106/98
f 86/92/85 87/94/87 99/107/99 98/105/97
f 87/94/87 88/95/88 100/108/100 99/107/99
f 88/95/88 89/96/89 101/109/101 100/108/100
f 89/96/89 90/97/90 102/110/102 101/109/101
f 90/99/90 91/98/91 103/111/103 102/112/102
f 91/98/91 92/100/92 104/113/104 103/111/103
f 92/100/92 93/101/93 105/114/105 104/113/104
f 93/101/93 94/102/94 106/115/106 105/114/105
f 94/102/94 95/103/95 107/116/107 106/115/106
f 95/103/95 96/104/96 108/117/108 107/116/107
f 96/104/96 85/93/86 97/106/98 108/117/108
f 97/106/98 98/105/97 110/118/109 109/119/110
f 98/105/97 99/107/99 111/120/111 110/118/109
f 99/107/99 100/108/100 112/121/112 111/120/111
f 100/108/100 101/109/101 113/122/113 112/121/112
f 101/109/101 102/110/102 114/123/114 113/122/113
f 102/112/102 103/111/103 115/124/115 114/125/114
f 103/111/103 104/113/104 116/126/116 115/124/115
f 104/113/104 105/114/105 117/127/117 116/126/116
f 105/114/105 106/115/106 118/128/118 117/127/117
f 106/115/106 107/116/107 119/129/119 118/128/118
f 107/116/107 108/117/108 120/130/120 119/129/119
f 108/117/108 97/106/98 109/119/110 120/130/120
f 109/119/110 110/118/109 122/131/121 121/132/122
f 110/118/109 111/120/111 123/133/123 122/131/121
f 111/120/111 112/121/112 124/134/124 123/133/123
f 112/121/112 113/122/113 125/135/125 124/134/124
f 113/122/113 114/123/114 126/136/126 125/135/125
f 114/125/114 115/124/115 127/137/127 126/138/126
f 115/124/115 116/126/116 128/139/128 127/137/127
f 116/126/116 117/127/117 129/140/129 128/139/128
f 117/127/117 118/128/118 130/141/130 129/140/129
f 118/128/118 119/129/119 131/142/131 130/141/130
f 119/129/119 120/130/120 132/143/132 131/142/131
f 120/130/120 109/119/110 121/132/122 132/143/132
f 2/2/2 1/1/1 133/144/133
f 3/5/5 2/2/2 133/144/133
f 4/7/7 3/5/5 133/144/133
f 5/9/9 4/7/7 133/144/133
f 6/11/11 5/9/9 133/144/133
f 7/14/13 6/13/11 133/144/133
f 8/17/15 7/14/13 133/144/133
f 9/19/17 8/17/15 133/144/133
f 10/21/19 9/19/17 133/144/133
f 11/23/21 10/21/19 133/144/133
f 12/25/23 11/23/21 133/144/133
f 1/1/1 12/25/23 133/144/133
f 121/132/122 122/131/121 134/145/134
f 122/131/121 123/133/123 134/145/134
f 123/133/123 124/134/124 134/145/134
f 124/134/124 125/135/125 134/145/134
f 125/135/125 126/136/126 134/145/134
f 126/138/126 127/137/127 134/145/134
f 127/137/127 128/139/128 134/145/134
f 128/139/128 129/140/129 134/145/134
f 129/140/129 130/141/130 134/145/134
f 130/141/130 131/142/131 134/145/134
f 131/142/131 132/143/132 134/145/134
f 132/143/132 121/132/122 134/145/134
