# This file uses centimeters as units for non-parametric coordinates.

mtllib PickleRTopIncisor.mtl
g default
v 0.092972 -0.131133 0.079732
v 0.142169 -0.132204 0.023044
v 0.156425 -0.133666 -0.050642
v 0.131922 -0.135128 -0.121582
v 0.075224 -0.136199 -0.170768
v 0.001523 -0.136590 -0.185020
v -0.069432 -0.136198 -0.160519
v -0.118628 -0.135128 -0.103831
v -0.132885 -0.133666 -0.030145
v -0.108382 -0.132204 0.040795
v -0.051684 -0.131133 0.089981
v 0.022017 -0.130741 0.104232
v 0.161666 -0.044854 0.179522
v 0.252572 -0.047682 0.074797
v 0.278917 -0.051544 -0.061329
v 0.233642 -0.055407 -0.192380
v 0.128879 -0.058234 -0.283243
v -0.007301 -0.059270 -0.309569
v -0.138409 -0.058235 -0.264305
v -0.229315 -0.055407 -0.159580
v -0.255660 -0.051544 -0.023454
v -0.210385 -0.047682 0.107597
v -0.105622 -0.044854 0.198459
v 0.030558 -0.043819 0.224786
v 0.207453 0.078829 0.244596
v 0.326225 0.075672 0.107751
v 0.360646 0.071359 -0.070125
v 0.301490 0.067047 -0.241372
v 0.164610 0.063890 -0.360103
v -0.013319 0.062735 -0.394505
v -0.184619 0.063890 -0.335360
v -0.303392 0.067047 -0.198516
v -0.337813 0.071360 -0.020639
v -0.278657 0.075672 0.150607
v -0.141777 0.078829 0.269339
v 0.036152 0.079984 0.303741
v 0.218881 0.223655 0.258356
v 0.344729 0.220561 0.113354
v 0.381198 0.216335 -0.075126
v 0.318519 0.212109 -0.256582
v 0.173484 0.209014 -0.382392
v -0.015043 0.207881 -0.418845
v -0.196547 0.209014 -0.356175
v -0.322395 0.212108 -0.211173
v -0.358865 0.216334 -0.022693
v -0.296185 0.220561 0.158763
v -0.151151 0.223655 0.284572
v 0.037377 0.224788 0.321026
v 0.213782 0.514617 0.225398
v 0.337897 0.491702 0.084489
v 0.374013 0.460400 -0.098543
v 0.312452 0.429097 -0.274654
v 0.169710 0.406182 -0.396657
v -0.015965 0.397795 -0.431859
v -0.194822 0.406182 -0.370830
v -0.318937 0.429097 -0.229921
v -0.355053 0.460399 -0.046888
v -0.293492 0.491702 0.129223
v -0.150750 0.514617 0.251225
v 0.034925 0.523005 0.286428
v 0.196298 0.792100 0.136603
v 0.313152 0.752412 0.008872
v 0.347503 0.698196 -0.156736
v 0.290146 0.643979 -0.315846
v 0.156451 0.604290 -0.425826
v -0.017761 0.589763 -0.457205
v -0.185808 0.604290 -0.401577
v -0.302662 0.643979 -0.273846
v -0.337013 0.698195 -0.108238
v -0.279656 0.752412 0.050872
v -0.145960 0.792100 0.160851
v 0.028251 0.806628 0.192231
v 0.173149 1.048409 0.004879
v 0.281085 0.996008 -0.105955
v 0.313319 0.924426 -0.249194
v 0.261212 0.852844 -0.386457
v 0.138727 0.800442 -0.480966
v -0.021317 0.781262 -0.507396
v -0.176035 0.800443 -0.458665
v -0.283972 0.852844 -0.347831
v -0.316206 0.924426 -0.204592
v -0.264099 0.996008 -0.067329
v -0.141613 1.048409 0.027180
v 0.018430 1.067589 0.053610
v 0.145977 1.277588 -0.163471
v 0.244082 1.216923 -0.255561
v 0.273989 1.134052 -0.373982
v 0.227684 1.051183 -0.487003
v 0.117575 0.990517 -0.564340
v -0.026834 0.968312 -0.585272
v -0.166851 0.990517 -0.544189
v -0.264956 1.051183 -0.452100
v -0.294863 1.134052 -0.333679
v -0.248558 1.216923 -0.220658
v -0.138449 1.277588 -0.143320
v 0.005961 1.299793 -0.122388
v 0.128029 1.352227 -0.245817
v 0.217841 1.296293 -0.329808
v 0.245242 1.219884 -0.437790
v 0.202890 1.143477 -0.540831
v 0.102134 1.087543 -0.611320
v -0.030030 1.067069 -0.630369
v -0.158187 1.087543 -0.592876
v -0.247998 1.143477 -0.508885
v -0.275399 1.219884 -0.400903
v -0.233047 1.296293 -0.297862
v -0.132291 1.352227 -0.227373
v -0.000128 1.372700 -0.208323
v 0.090723 1.397518 -0.339162
v 0.159476 1.354437 -0.403250
v 0.180466 1.295588 -0.485629
v 0.148070 1.236738 -0.564225
v 0.070968 1.193657 -0.617979
v -0.030180 1.177889 -0.632487
v -0.128272 1.193657 -0.603863
v -0.197025 1.236738 -0.539775
v -0.218015 1.295588 -0.457396
v -0.185619 1.354437 -0.378800
v -0.108518 1.397518 -0.325046
v -0.007370 1.413286 -0.310537
v 0.037984 1.400555 -0.435181
v 0.075199 1.377115 -0.469773
v 0.086568 1.345094 -0.514230
v 0.069045 1.313072 -0.556641
v 0.027324 1.289631 -0.585640
v -0.027414 1.281051 -0.593458
v -0.080504 1.289631 -0.578001
v -0.117719 1.313072 -0.543409
v -0.129088 1.345094 -0.498951
v -0.111564 1.377115 -0.456541
v -0.069844 1.400556 -0.427542
v -0.015105 1.409136 -0.419723
v 0.011820 -0.162503 -0.039692
v -0.022168 1.362608 -0.519412
vt 0.735428 0.497277
vt 0.731567 0.486845
vt 0.751498 0.478654
vt 0.754972 0.493389
vt 0.724592 0.476692
vt 0.744789 0.463301
vt 0.714239 0.467367
vt 0.733649 0.446607
vt 0.701113 0.460567
vt 0.716203 0.429577
vt 0.684840 0.458411
vt 0.690569 0.412653
vt 0.685956 0.557455
vt 0.701198 0.555074
vt 0.716257 0.585887
vt 0.691207 0.601605
vt 0.714168 0.548163
vt 0.733700 0.568890
vt 0.724640 0.538917
vt 0.744801 0.552233
vt 0.731577 0.528785
vt 0.751457 0.536941
vt 0.735390 0.518369
vt 0.755008 0.522211
vt 0.736562 0.507805
vt 0.756056 0.507807
vt 0.767701 0.474449
vt 0.770273 0.491652
vt 0.762878 0.455668
vt 0.754052 0.433904
vt 0.738982 0.408181
vt 0.715320 0.376860
vt 0.738940 0.607083
vt 0.714786 0.637348
vt 0.753940 0.581593
vt 0.762828 0.559858
vt 0.767659 0.541132
vt 0.770242 0.523967
vt 0.771140 0.507814
vt 0.782780 0.471966
vt 0.783912 0.490461
vt 0.780274 0.451039
vt 0.774932 0.425987
vt 0.765467 0.394753
vt 0.750682 0.355837
vt 0.765245 0.620463
vt 0.749685 0.659124
vt 0.774765 0.589446
vt 0.780132 0.564515
vt 0.782767 0.543617
vt 0.783927 0.525143
vt 0.784241 0.507803
vt 0.811989 0.469582
vt 0.812580 0.489465
vt 0.810699 0.446963
vt 0.808539 0.420026
vt 0.805119 0.386228
vt 0.800147 0.344567
vt 0.804649 0.629156
vt 0.799265 0.671222
vt 0.808294 0.595424
vt 0.810550 0.568628
vt 0.811873 0.546046
vt 0.812506 0.526210
vt 0.812685 0.507840
vt 0.843338 0.468987
vt 0.842989 0.488984
vt 0.844047 0.446294
vt 0.845192 0.419129
vt 0.847422 0.385711
vt 0.851341 0.346035
vt 0.846948 0.630047
vt 0.850680 0.669827
vt 0.844875 0.596595
vt 0.843806 0.569437
vt 0.843227 0.546762
vt 0.842968 0.526775
vt 0.842933 0.507877
vt 0.876400 0.470853
vt 0.875057 0.489929
vt 0.878989 0.449250
vt 0.883405 0.423756
vt 0.890961 0.393435
vt 0.902385 0.358739
vt 0.890529 0.622536
vt 0.901842 0.657282
vt 0.883128 0.592131
vt 0.878799 0.566622
vt 0.876270 0.545028
vt 0.874972 0.525937
vt 0.874622 0.507927
vt 0.909164 0.475153
vt 0.907137 0.491948
vt 0.913481 0.456643
vt 0.921128 0.435372
vt 0.933594 0.410794
vt 0.950883 0.383083
vt 0.933255 0.605317
vt 0.950476 0.633085
vt 0.920882 0.580660
vt 0.913315 0.559356
vt 0.909065 0.540840
vt 0.907079 0.524031
vt 0.906562 0.507986
vt 0.923211 0.477903
vt 0.920023 0.493339
vt 0.928931 0.461539
vt 0.938508 0.443703
vt 0.953498 0.424235
vt 0.973694 0.404231
vt 0.953246 0.591918
vt 0.973356 0.612004
vt 0.938300 0.572397
vt 0.928760 0.554522
vt 0.923112 0.538137
vt 0.919983 0.522681
vt 0.918975 0.508007
vt 0.937618 0.482685
vt 0.933986 0.495531
vt 0.944171 0.469882
vt 0.954578 0.456817
vt 0.969605 0.444101
vt 0.988870 0.434104
vt 0.969393 0.572099
vt 0.988641 0.582175
vt 0.954422 0.559344
vt 0.944069 0.546220
vt 0.937533 0.533392
vt 0.933939 0.520537
vt 0.932889 0.508039
vt 0.954644 0.490477
vt 0.951159 0.499188
vt 0.960885 0.482413
vt 0.969670 0.475739
vt 0.978944 0.470814
vt 0.989687 0.469383
vt 0.978888 0.545410
vt 0.989550 0.546886
vt 0.969506 0.540443
vt 0.960838 0.533767
vt 0.954581 0.525643
vt 0.951137 0.516946
vt 0.950111 0.508060
vt 0.704862 0.507807
vt 0.974160 0.508080
vn 0.217096 -0.914992 0.340088
vn 0.346493 -0.918815 0.189001
vn 0.636630 -0.698153 0.327542
vn 0.397083 -0.691095 0.603915
vn 0.382346 -0.924001 -0.005786
vn 0.705717 -0.707798 -0.031380
vn 0.316281 -0.929145 -0.191461
vn 0.586076 -0.717449 -0.376540
vn 0.167139 -0.932885 -0.319045
vn 0.310010 -0.724516 -0.615606
vn -0.025205 -0.934248 -0.355732
vn -0.048519 -0.727103 -0.684811
vn -0.210451 -0.932885 -0.292296
vn -0.393708 -0.724516 -0.565748
vn -0.340113 -0.929145 -0.144957
vn -0.633310 -0.717449 -0.290148
vn -0.379343 -0.924001 0.048182
vn -0.703092 -0.707798 0.068436
vn -0.316384 -0.918815 0.235969
vn -0.584089 -0.698152 0.414033
vn -0.166977 -0.914991 0.367301
vn -0.307968 -0.691094 0.653869
vn 0.028739 -0.913588 0.405624
vn 0.051254 -0.688512 0.723411
vn 0.839384 -0.348427 0.417172
vn 0.522687 -0.340887 0.781405
vn 0.931705 -0.358746 -0.056811
vn 0.774502 -0.369086 -0.513734
vn 0.409528 -0.376670 -0.830907
vn -0.065387 -0.379449 -0.922899
vn -0.522588 -0.376669 -0.764867
vn -0.839197 -0.369085 -0.399404
vn -0.930408 -0.358745 0.075119
vn -0.772182 -0.348426 0.531351
vn -0.407295 -0.340887 0.847294
vn 0.066510 -0.338130 0.938746
vn 0.898746 -0.030955 0.437375
vn 0.560079 -0.009442 0.828385
vn 0.995734 -0.060173 -0.069945
vn 0.825776 -0.089098 -0.556916
vn 0.435563 -0.110017 -0.893410
vn -0.070182 -0.117607 -0.990577
vn -0.557176 -0.110017 -0.823074
vn -0.896048 -0.089098 -0.434925
vn -0.995649 -0.060172 0.071145
vn -0.828102 -0.030954 0.559722
vn -0.437690 -0.009442 0.899077
vn 0.070672 -0.001551 0.997498
vn 0.897763 0.135870 0.419001
vn 0.558804 0.195473 0.805933
vn 0.995044 0.055388 -0.082585
vn 0.825453 -0.023770 -0.563970
vn 0.435462 -0.080670 -0.896585
vn -0.070310 -0.101232 -0.992375
vn -0.557523 -0.080670 -0.826232
vn -0.896723 -0.023770 -0.441954
vn -0.996748 0.055388 0.058533
vn -0.829719 0.135870 0.541393
vn -0.439592 0.195473 0.876669
vn 0.068982 0.217417 0.973638
vn 0.891719 0.244736 0.380713
vn 0.553088 0.354773 0.753810
vn 0.990093 0.095883 -0.102577
vn 0.822538 -0.050934 -0.566425
vn 0.434731 -0.156819 -0.886801
vn -0.069314 -0.195179 -0.978315
vn -0.555419 -0.156820 -0.816650
vn -0.894182 -0.050934 -0.444797
vn -0.994665 0.095883 0.038043
vn -0.829134 0.244736 0.502635
vn -0.441282 0.354774 0.824261
vn 0.064918 0.395251 0.916276
vn 0.886730 0.321512 0.332174
vn 0.547292 0.481409 0.684629
vn 0.986855 0.104617 -0.123177
vn 0.821521 -0.110219 -0.559423
vn 0.435789 -0.265921 -0.859869
vn -0.066896 -0.322527 -0.944193
vn -0.552669 -0.265921 -0.789837
vn -0.892189 -0.110219 -0.438008
vn -0.994364 0.104616 0.017192
vn -0.831039 0.321512 0.453878
vn -0.445298 0.481409 0.754954
vn 0.059476 0.540150 0.839464
vn 0.873980 0.414723 0.253305
vn 0.535510 0.615273 0.578505
vn 0.976064 0.141589 -0.165082
vn 0.814937 -0.130599 -0.564643
vn 0.434044 -0.329260 -0.838566
vn -0.064715 -0.401851 -0.913415
vn -0.547940 -0.329259 -0.768993
vn -0.886407 -0.130598 -0.444103
vn -0.989589 0.141590 -0.025817
vn -0.829535 0.414724 0.374000
vn -0.448595 0.615273 0.648230
vn 0.051234 0.688806 0.723133
vn 0.803812 0.588804 0.084831
vn 0.487406 0.786129 0.380049
vn 0.900714 0.318996 -0.294882
vn 0.751916 0.048864 -0.657446
vn 0.397012 -0.149111 -0.905620
vn -0.068915 -0.221626 -0.972694
vn -0.520733 -0.149111 -0.840597
vn -0.837100 0.048865 -0.544863
vn -0.933292 0.318998 -0.164943
vn -0.783822 0.588805 0.197314
vn -0.428954 0.786129 0.444972
vn 0.036264 0.858317 0.511837
vn 0.604623 0.778126 -0.170149
vn 0.362261 0.929984 0.062432
vn 0.674147 0.573147 -0.465863
vn 0.555409 0.371025 -0.744219
vn 0.283244 0.224875 -0.932311
vn -0.069622 0.171763 -0.982675
vn -0.411864 0.224873 -0.883063
vn -0.654791 0.371023 -0.658476
vn -0.733096 0.573146 -0.366160
vn -0.622575 0.778124 -0.083206
vn -0.349842 0.929983 0.112883
vn 0.011807 0.985946 0.166643
vn 0.302939 0.858209 -0.414373
vn 0.171929 0.941281 -0.290570
vn 0.341357 0.745649 -0.572261
vn 0.278059 0.634150 -0.721482
vn 0.131106 0.553194 -0.822671
vn -0.060203 0.523705 -0.849770
vn -0.245786 0.553195 -0.795968
vn -0.377007 0.634150 -0.675070
vn -0.418631 0.745648 -0.518418
vn -0.358340 0.858206 -0.367525
vn -0.211181 0.941279 -0.263433
vn -0.016654 0.971828 -0.235104
vn 0.001431 -0.999795 0.020200
vn -0.041868 0.805621 -0.590950
s 1
g FoodRBuckTeeth
usemtl Pickle_lambert3SG
f 1/1/1 2/2/2 14/3/3 13/4/4
f 2/2/2 3/5/5 15/6/6 14/3/3
f 3/5/5 4/7/7 16/8/8 15/6/6
f 4/7/7 5/9/9 17/10/10 16/8/8
f 5/9/9 6/11/11 18/12/12 17/10/10
f 6/13/11 7/14/13 19/15/14 18/16/12
f 7/14/13 8/17/15 20/18/16 19/15/14
f 8/17/15 9/19/17 21/20/18 20/18/16
f 9/19/17 10/21/19 22/22/20 21/20/18
f 10/21/19 11/23/21 23/24/22 22/22/20
f 11/23/21 12/25/23 24/26/24 23/24/22
f 12/25/23 1/1/1 13/4/4 24/26/24
f 13/4/4 14/3/3 26/27/25 25/28/26
f 14/3/3 15/6/6 27/29/27 26/27/25
f 15/6/6 16/8/8 28/30/28 27/29/27
f 16/8/8 17/10/10 29/31/29 28/30/28
f 17/10/10 18/12/12 30/32/30 29/31/29
f 18/16/12 19/15/14 31/33/31 30/34/30
f 19/15/14 20/18/16 32/35/32 31/33/31
f 20/18/16 21/20/18 33/36/33 32/35/32
f 21/20/18 22/22/20 34/37/34 33/36/33
f 22/22/20 23/24/22 35/38/35 34/37/34
f 23/24/22 24/26/24 36/39/36 35/38/35
f 24/26/24 13/4/4 25/28/26 36/39/36
f 25/28/26 26/27/25 38/40/37 37/41/38
f 26/27/25 27/29/27 39/42/39 38/40/37
f 27/29/27 28/30/28 40/43/40 39/42/39
f 28/30/28 29/31/29 41/44/41 40/43/40
f 29/31/29 30/32/30 42/45/42 41/44/41
f 30/34/30 31/33/31 43/46/43 42/47/42
f 31/33/31 32/35/32 44/48/44 43/46/43
f 32/35/32 33/36/33 45/49/45 44/48/44
f 33/36/33 34/37/34 46/50/46 45/49/45
f 34/37/34 35/38/35 47/51/47 46/50/46
f 35/38/35 36/39/36 48/52/48 47/51/47
f 36/39/36 25/28/26 37/41/38 48/52/48
f 37/41/38 38/40/37 50/53/49 49/54/50
f 38/40/37 39/42/39 51/55/51 50/53/49
f 39/42/39 40/43/40 52/56/52 51/55/51
f 40/43/40 41/44/41 53/57/53 52/56/52
f 41/44/41 42/45/42 54/58/54 53/57/53
f 42/47/42 43/46/43 55/59/55 54/60/54
f 43/46/43 44/48/44 56/61/56 55/59/55
f 44/48/44 45/49/45 57/62/57 56/61/56
f 45/49/45 46/50/46 58/63/58 57/62/57
f 46/50/46 47/51/47 59/64/59 58/63/58
f 47/51/47 48/52/48 60/65/60 59/64/59
f 48/52/48 37/41/38 49/54/50 60/65/60
f 49/54/50 50/53/49 62/66/61 61/67/62
f 50/53/49 51/55/51 63/68/63 62/66/61
f 51/55/51 52/56/52 64/69/64 63/68/63
f 52/56/52 53/57/53 65/70/65 64/69/64
f 53/57/53 54/58/54 66/71/66 65/70/65
f 54/60/54 55/59/55 67/72/67 66/73/66
f 55/59/55 56/61/56 68/74/68 67/72/67
f 56/61/56 57/62/57 69/75/69 68/74/68
f 57/62/57 58/63/58 70/76/70 69/75/69
f 58/63/58 59/64/59 71/77/71 70/76/70
f 59/64/59 60/65/60 72/78/72 71/77/71
f 60/65/60 49/54/50 61/67/62 72/78/72
f 61/67/62 62/66/61 74/79/73 73/80/74
f 62/66/61 63/68/63 75/81/75 74/79/73
f 63/68/63 64/69/64 76/82/76 75/81/75
f 64/69/64 65/70/65 77/83/77 76/82/76
f 65/70/65 66/71/66 78/84/78 77/83/77
f 66/73/66 67/72/67 79/85/79 78/86/78
f 67/72/67 68/74/68 80/87/80 79/85/79
f 68/74/68 69/75/69 81/88/81 80/87/80
f 69/75/69 70/76/70 82/89/82 81/88/81
f 70/76/70 71/77/71 83/90/83 82/89/82
f 71/77/71 72/78/72 84/91/84 83/90/83
f 72/78/72 61/67/62 73/80/74 84/91/84
f 73/80/74 74/79/73 86/92/85 85/93/86
f 74/79/73 75/81/75 87/94/87 86/92/85
f 75/81/75 76/82/76 88/95/88 87/94/87
f 76/82/76 77/83/77 89/96/89 88/95/88
f 77/83/77 78/84/78 90/97/90 89/96/89
f 78/86/78 79/85/79 91/98/91 90/99/90
f 79/85/79 80/87/80 92/100/92 91/98/91
f 80/87/80 81/88/81 93/101/93 92/100/92
f 81/88/81 82/89/82 94/102/94 93/101/93
f 82/89/82 83/90/83 95/103/95 94/102/94
f 83/90/83 84/91/84 96/104/96 95/103/95
f 84/91/84 73/80/74 85/93/86 96/104/96
f 85/93/86 86/92/85 98/105/97 97/106/98
f 86/92/85 87/94/87 99/107/99 98/105/97
f 87/94/87 88/95/88 100/108/100 99/107/99
f 88/95/88 89/96/89 101/109/101 100/108/100
f 89/96/89 90/97/90 102/110/102 101/109/101
f 90/99/90 91/98/91 103/111/103 102/112/102
f 91/98/91 92/100/92 104/113/104 103/111/103
f 92/100/92 93/101/93 105/114/105 104/113/104
f 93/101/93 94/102/94 106/115/106 105/114/105
f 94/102/94 95/103/95 107/116/107 106/115/106
f 95/103/95 96/104/96 108/117/108 107/116/107
f 96/104/96 85/93/86 97/106/98 108/117/108
f 97/106/98 98/105/97 110/118/109 109/119/110
f 98/105/97 99/107/99 111/120/111 110/118/109
f 99/107/99 100/108/100 112/121/112 111/120/111
f 100/108/100 101/109/101 113/122/113 112/121/112
f 101/109/101 102/110/102 114/123/114 113/122/113
f 102/112/102 103/111/103 115/124/115 114/125/114
f 103/111/103 104/113/104 116/126/116 115/124/115
f 104/113/104 105/114/105 117/127/117 116/126/116
f 105/114/105 106/115/106 118/128/118 117/127/117
f 106/115/106 107/116/107 119/129/119 118/128/118
f 107/116/107 108/117/108 120/130/120 119/129/119
f 108/117/108 97/106/98 109/119/110 120/130/120
f 109/119/110 110/118/109 122/131/121 121/132/122
f 110/118/109 111/120/111 123/133/123 122/131/121
f 111/120/111 112/121/112 124/134/124 123/133/123
f 112/121/112 113/122/113 125/135/125 124/134/124
f 113/122/113 114/123/114 126/136/126 125/135/125
f 114/125/114 115/124/115 127/137/127 126/138/126
f 115/124/115 116/126/116 128/139/128 127/137/127
f 116/126/116 117/127/117 129/140/129 128/139/128
f 117/127/117 118/128/118 130/141/130 129/140/129
f 118/128/118 119/129/119 131/142/131 130/141/130
f 119/129/119 120/130/120 132/143/132 131/142/131
f 120/130/120 109/119/110 121/132/122 132/143/132
f 2/2/2 1/1/1 133/144/133
f 3/5/5 2/2/2 133/144/133
f 4/7/7 3/5/5 133/144/133
f 5/9/9 4/7/7 133/144/133
f 6/11/11 5/9/9 133/144/133
f 7/14/13 6/13/11 133/144/133
f 8/17/15 7/14/13 133/144/133
f 9/19/17 8/17/15 133/144/133
f 10/21/19 9/19/17 133/144/133
f 11/23/21 10/21/19 133/144/133
f 12/25/23 11/23/21 133/144/133
f 1/1/1 12/25/23 133/144/133
f 121/132/122 122/131/121 134/145/134
f 122/131/121 123/133/123 134/145/134
f 123/133/123 124/134/124 134/145/134
f 124/134/124 125/135/125 134/145/134
f 125/135/125 126/136/126 134/145/134
f 126/138/126 127/137/127 134/145/134
f 127/137/127 128/139/128 134/145/134
f 128/139/128 129/140/129 134/145/134
f 129/140/129 130/141/130 134/145/134
f 130/141/130 131/142/131 134/145/134
f 131/142/131 132/143/132 134/145/134
f 132/143/132 121/132/122 134/145/134
