# This file uses centimeters as units for non-parametric coordinates.

mtllib PickleMediumLLowerLeg.mtl
g default
v -1.086676 0.115671 0.028306
v -1.062530 0.200080 -0.052575
v -1.029544 0.230976 -0.163061
v -0.996559 0.200080 -0.273546
v -0.972413 0.115672 -0.354428
v -0.963574 0.000368 -0.384033
v -0.972412 -0.114938 -0.354428
v -0.996559 -0.199345 -0.273547
v -1.029544 -0.230241 -0.163062
v -1.062530 -0.199346 -0.052576
v -1.086676 -0.114939 0.028305
v -1.095515 0.000366 0.057910
v -1.006715 0.213421 0.228281
v -0.963394 0.369388 0.078451
v -0.904217 0.426476 -0.126220
v -0.845040 0.369389 -0.330891
v -0.801720 0.213422 -0.480721
v -0.785864 0.000368 -0.535563
v -0.801720 -0.212687 -0.480722
v -0.845040 -0.368654 -0.330893
v -0.904218 -0.425742 -0.126221
v -0.963394 -0.368655 0.078450
v -1.006715 -0.212688 0.228281
v -1.022572 0.000366 0.283122
v -0.852515 0.278735 0.391528
v -0.795092 0.482516 0.196005
v -0.716653 0.557106 -0.071083
v -0.638213 0.482517 -0.338173
v -0.580790 0.278737 -0.533696
v -0.559772 0.000367 -0.605263
v -0.580790 -0.278002 -0.533698
v -0.638213 -0.481783 -0.338175
v -0.716652 -0.556372 -0.071086
v -0.795093 -0.481783 0.196004
v -0.852515 -0.278004 0.391527
v -0.873532 0.000366 0.463094
v -0.640266 0.295317 0.483855
v -0.579041 0.511236 0.276799
v -0.495405 0.590268 -0.006046
v -0.411768 0.511237 -0.288891
v -0.350544 0.295318 -0.495949
v -0.328134 0.000368 -0.571738
v -0.350544 -0.294584 -0.495950
v -0.411770 -0.510503 -0.288893
v -0.495405 -0.589536 -0.006049
v -0.579040 -0.510505 0.276797
v -0.640266 -0.294586 0.483854
v -0.662676 0.000365 0.559642
v -0.183533 0.290933 0.574804
v -0.154245 0.503645 0.364119
v -0.114237 0.581502 0.076319
v -0.074229 0.503646 -0.211481
v -0.044940 0.290934 -0.422166
v -0.034220 0.000367 -0.499283
v -0.044940 -0.290201 -0.422167
v -0.074228 -0.502912 -0.211483
v -0.114237 -0.580769 0.076317
v -0.154245 -0.502912 0.364117
v -0.183533 -0.290203 0.574803
v -0.194253 0.000365 0.651919
v 0.280256 0.273179 0.573539
v 0.278012 0.472892 0.373839
v 0.274945 0.545992 0.101043
v 0.271877 0.472893 -0.171753
v 0.269631 0.273180 -0.371453
v 0.268809 0.000368 -0.444549
v 0.269631 -0.272446 -0.371454
v 0.271876 -0.472159 -0.171755
v 0.274944 -0.545259 0.101041
v 0.278012 -0.472161 0.373837
v 0.280256 -0.272448 0.573538
v 0.281079 0.000366 0.646633
v 0.732969 0.251261 0.496546
v 0.703596 0.434931 0.315241
v 0.663471 0.502159 0.067575
v 0.623346 0.434932 -0.180092
v 0.593972 0.251263 -0.361397
v 0.583221 0.000367 -0.427760
v 0.593973 -0.250529 -0.361398
v 0.623346 -0.434198 -0.180094
v 0.663471 -0.501425 0.067573
v 0.703596 -0.434198 0.315239
v 0.732969 -0.250531 0.496545
v 0.743720 0.000366 0.562907
v 1.162477 0.227081 0.350624
v 1.111849 0.393048 0.192568
v 1.042690 0.453796 -0.023341
v 0.973532 0.393050 -0.239251
v 0.922903 0.227083 -0.397307
v 0.904372 0.000368 -0.455160
v 0.922903 -0.226347 -0.397308
v 0.973532 -0.392315 -0.239252
v 1.042690 -0.453063 -0.023343
v 1.111849 -0.392315 0.192566
v 1.162477 -0.226349 0.350623
v 1.181008 0.000366 0.408476
v 1.316000 0.207865 0.260563
v 1.268897 0.359768 0.116149
v 1.204554 0.415368 -0.081123
v 1.140212 0.359768 -0.278397
v 1.093109 0.207868 -0.422810
v 1.075869 0.000368 -0.475670
v 1.093109 -0.207133 -0.422811
v 1.140212 -0.359035 -0.278398
v 1.204554 -0.414634 -0.081125
v 1.268897 -0.359035 0.116148
v 1.316000 -0.207134 0.260562
v 1.333239 0.000366 0.313421
v 1.431072 0.159180 0.137565
v 1.394517 0.275441 0.027201
v 1.344581 0.317995 -0.123557
v 1.294646 0.275441 -0.274317
v 1.258090 0.159181 -0.384681
v 1.244710 0.000368 -0.425077
v 1.258090 -0.158447 -0.384682
v 1.294645 -0.274707 -0.274318
v 1.344581 -0.317262 -0.123559
v 1.394516 -0.274707 0.027200
v 1.431072 -0.158448 0.137564
v 1.444452 0.000366 0.177960
v 1.483986 0.086317 -0.011639
v 1.463968 0.149236 -0.071288
v 1.436621 0.172266 -0.152772
v 1.409274 0.149236 -0.234255
v 1.389254 0.086317 -0.293905
v 1.381927 0.000368 -0.315739
v 1.389255 -0.085583 -0.293905
v 1.409274 -0.148502 -0.234256
v 1.436621 -0.171532 -0.152773
v 1.463968 -0.148502 -0.071289
v 1.483987 -0.085583 -0.011640
v 1.491314 0.000367 0.010193
v -1.073553 0.000367 -0.175998
v 1.469383 0.000367 -0.163732
vt 0.735428 0.497277
vt 0.731567 0.486845
vt 0.751498 0.478654
vt 0.754972 0.493389
vt 0.724592 0.476692
vt 0.744789 0.463301
vt 0.714239 0.467367
vt 0.733649 0.446607
vt 0.701113 0.460567
vt 0.716203 0.429577
vt 0.684840 0.458411
vt 0.690569 0.412653
vt 0.685956 0.557455
vt 0.701198 0.555074
vt 0.716257 0.585887
vt 0.691207 0.601605
vt 0.714168 0.548163
vt 0.733700 0.568890
vt 0.724640 0.538917
vt 0.744801 0.552233
vt 0.731577 0.528785
vt 0.751457 0.536941
vt 0.735390 0.518369
vt 0.755008 0.522211
vt 0.736562 0.507805
vt 0.756056 0.507807
vt 0.767701 0.474449
vt 0.770273 0.491652
vt 0.762878 0.455668
vt 0.754052 0.433904
vt 0.738982 0.408181
vt 0.715320 0.376860
vt 0.738940 0.607083
vt 0.714786 0.637348
vt 0.753940 0.581593
vt 0.762828 0.559858
vt 0.767659 0.541132
vt 0.770242 0.523967
vt 0.771140 0.507814
vt 0.782780 0.471966
vt 0.783912 0.490461
vt 0.780274 0.451039
vt 0.774932 0.425987
vt 0.765467 0.394753
vt 0.750682 0.355837
vt 0.765245 0.620463
vt 0.749685 0.659124
vt 0.774765 0.589446
vt 0.780132 0.564515
vt 0.782767 0.543617
vt 0.783927 0.525143
vt 0.784241 0.507803
vt 0.811989 0.469582
vt 0.812580 0.489465
vt 0.810699 0.446963
vt 0.808539 0.420026
vt 0.805119 0.386228
vt 0.800147 0.344567
vt 0.804649 0.629156
vt 0.799265 0.671222
vt 0.808294 0.595424
vt 0.810550 0.568628
vt 0.811873 0.546046
vt 0.812506 0.526210
vt 0.812685 0.507840
vt 0.843338 0.468987
vt 0.842989 0.488984
vt 0.844047 0.446294
vt 0.845192 0.419129
vt 0.847422 0.385711
vt 0.851341 0.346035
vt 0.846948 0.630047
vt 0.850680 0.669827
vt 0.844875 0.596595
vt 0.843806 0.569437
vt 0.843227 0.546762
vt 0.842968 0.526775
vt 0.842933 0.507877
vt 0.876400 0.470853
vt 0.875057 0.489929
vt 0.878989 0.449250
vt 0.883405 0.423756
vt 0.890961 0.393435
vt 0.902385 0.358739
vt 0.890529 0.622536
vt 0.901842 0.657282
vt 0.883128 0.592131
vt 0.878799 0.566622
vt 0.876270 0.545028
vt 0.874972 0.525937
vt 0.874622 0.507927
vt 0.909164 0.475153
vt 0.907137 0.491948
vt 0.913481 0.456643
vt 0.921128 0.435372
vt 0.933594 0.410794
vt 0.950883 0.383083
vt 0.933255 0.605317
vt 0.950476 0.633085
vt 0.920882 0.580660
vt 0.913315 0.559356
vt 0.909065 0.540840
vt 0.907079 0.524031
vt 0.906562 0.507986
vt 0.923211 0.477903
vt 0.920023 0.493339
vt 0.928931 0.461539
vt 0.938508 0.443703
vt 0.953498 0.424235
vt 0.973694 0.404231
vt 0.953246 0.591918
vt 0.973356 0.612004
vt 0.938300 0.572397
vt 0.928760 0.554522
vt 0.923112 0.538137
vt 0.919983 0.522681
vt 0.918975 0.508007
vt 0.937618 0.482685
vt 0.933986 0.495531
vt 0.944171 0.469882
vt 0.954578 0.456817
vt 0.969605 0.444101
vt 0.988870 0.434104
vt 0.969393 0.572099
vt 0.988641 0.582175
vt 0.954422 0.559344
vt 0.944069 0.546220
vt 0.937533 0.533392
vt 0.933939 0.520537
vt 0.932889 0.508039
vt 0.954644 0.490477
vt 0.951159 0.499188
vt 0.960885 0.482413
vt 0.969670 0.475739
vt 0.978944 0.470814
vt 0.989687 0.469383
vt 0.978888 0.545410
vt 0.989550 0.546886
vt 0.969506 0.540443
vt 0.960838 0.533767
vt 0.954581 0.525643
vt 0.951137 0.516946
vt 0.950111 0.508060
vt 0.704862 0.507807
vt 0.974160 0.508080
vn -0.979562 0.192518 0.058268
vn -0.850595 0.353408 0.389346
vn -0.778311 0.611889 0.140797
vn -0.939979 0.332269 -0.077701
vn -0.679669 0.706171 -0.198426
vn -0.886364 0.381800 -0.261891
vn -0.581150 0.611222 -0.537282
vn -0.833285 0.329022 -0.444275
vn -0.509109 0.352743 -0.785099
vn -0.794769 0.189270 -0.576645
vn -0.482758 0.000002 -0.875754
vn -0.780742 0.000000 -0.624854
vn -0.509111 -0.352739 -0.785100
vn -0.794768 -0.189266 -0.576647
vn -0.581151 -0.611221 -0.537283
vn -0.833286 -0.329018 -0.444277
vn -0.679669 -0.706170 -0.198428
vn -0.886365 -0.381799 -0.261890
vn -0.778311 -0.611890 0.140794
vn -0.939978 -0.332270 -0.077703
vn -0.850596 -0.353410 0.389344
vn -0.979562 -0.192518 0.058267
vn -0.877069 0.000000 0.480364
vn -0.994121 0.000001 0.108273
vn -0.573881 0.466155 0.673320
vn -0.476959 0.807802 0.346361
vn -0.344414 0.933391 -0.100797
vn -0.211703 0.808873 -0.548549
vn -0.114448 0.467227 -0.876699
vn -0.078828 0.000002 -0.996888
vn -0.114448 -0.467224 -0.876700
vn -0.211704 -0.808872 -0.548551
vn -0.344415 -0.933390 -0.100800
vn -0.476960 -0.807804 0.346356
vn -0.573881 -0.466158 0.673318
vn -0.609333 -0.000001 0.792914
vn -0.273380 0.500133 0.821663
vn -0.182082 0.865588 0.466480
vn -0.057482 0.998188 -0.017798
vn 0.066958 0.863071 -0.500624
vn 0.157945 0.497615 -0.852897
vn 0.191225 0.000002 -0.981546
vn 0.157945 -0.497612 -0.852898
vn 0.066958 -0.863070 -0.500627
vn -0.057483 -0.998188 -0.017802
vn -0.182082 -0.865590 0.466476
vn -0.273380 -0.500137 0.821661
vn -0.306811 -0.000002 0.951770
vn -0.071384 0.500448 0.862819
vn -0.017607 0.865905 0.499898
vn 0.056424 0.998392 0.005434
vn 0.131321 0.863248 -0.487399
vn 0.186860 0.497739 -0.846959
vn 0.207369 0.000002 -0.978263
vn 0.186861 -0.497736 -0.846960
vn 0.131322 -0.863247 -0.487401
vn 0.056425 -0.998392 0.005430
vn -0.017607 -0.865907 0.499894
vn -0.071384 -0.500451 0.862817
vn -0.090997 -0.000002 0.995851
vn 0.096307 0.498429 0.861564
vn 0.097852 0.862583 0.496363
vn 0.101181 0.994867 -0.001525
vn 0.106266 0.860513 -0.498223
vn 0.111383 0.496317 -0.860967
vn 0.113604 0.000002 -0.993526
vn 0.111383 -0.496314 -0.860968
vn 0.106266 -0.860511 -0.498225
vn 0.101181 -0.994867 -0.001529
vn 0.097852 -0.862585 0.496359
vn 0.096308 -0.498433 0.861562
vn 0.095904 -0.000001 0.995391
vn 0.238091 0.497537 0.834128
vn 0.185853 0.861037 0.473365
vn 0.115841 0.993093 -0.018643
vn 0.047700 0.859005 -0.509741
vn -0.000735 0.495469 -0.868625
vn -0.018107 0.000002 -0.999836
vn -0.000734 -0.495466 -0.868627
vn 0.047701 -0.859003 -0.509744
vn 0.115841 -0.993093 -0.018647
vn 0.185853 -0.861039 0.473361
vn 0.238091 -0.497540 0.834126
vn 0.257395 -0.000001 0.966306
vn 0.398139 0.493284 0.773406
vn 0.298909 0.853892 0.426054
vn 0.164045 0.985290 -0.047884
vn 0.030028 0.852806 -0.521364
vn -0.067498 0.492224 -0.867848
vn -0.103064 0.000002 -0.994675
vn -0.067499 -0.492221 -0.867849
vn 0.030028 -0.852804 -0.521367
vn 0.164045 -0.985290 -0.047887
vn 0.298909 -0.853894 0.426050
vn 0.398138 -0.493287 0.773404
vn 0.434560 -0.000001 0.900643
vn 0.622317 0.459327 0.633830
vn 0.517504 0.795806 0.314455
vn 0.374140 0.919302 -0.122078
vn 0.230547 0.796501 -0.558959
vn 0.125269 0.460024 -0.879026
vn 0.086699 0.000002 -0.996235
vn 0.125267 -0.460021 -0.879027
vn 0.230545 -0.796499 -0.558961
vn 0.374140 -0.919302 -0.122082
vn 0.517504 -0.795808 0.314451
vn 0.622317 -0.459330 0.633828
vn 0.660653 -0.000001 0.750691
vn 0.858741 0.356942 0.367637
vn 0.779742 0.615137 0.116659
vn 0.673118 0.705386 -0.222133
vn 0.567990 0.606618 -0.556239
vn 0.491978 0.348426 -0.797845
vn 0.464357 0.000003 -0.885648
vn 0.491978 -0.348423 -0.797846
vn 0.567988 -0.606617 -0.556242
vn 0.673117 -0.705385 -0.222136
vn 0.779741 -0.615139 0.116657
vn 0.858740 -0.356945 0.367634
vn 0.887855 0.000000 0.460124
vn 0.981119 0.192035 0.022971
vn 0.936894 0.331468 -0.111167
vn 0.876970 0.380947 -0.292923
vn 0.817610 0.328354 -0.472967
vn 0.774511 0.188920 -0.603691
vn 0.758810 0.000004 -0.651312
vn 0.774512 -0.188917 -0.603690
vn 0.817610 -0.328354 -0.472967
vn 0.876970 -0.380946 -0.292924
vn 0.936893 -0.331470 -0.111170
vn 0.981119 -0.192035 0.022968
vn 0.997383 0.000004 0.072296
vn -0.958233 0.000001 -0.285988
vn 0.948040 0.000001 -0.318152
s 1
g FoodMediumLLowerLeg
usemtl Pickle_lambert3SG
f 1/1/1 13/4/2 14/3/3 2/2/4
f 2/2/4 14/3/3 15/6/5 3/5/6
f 3/5/6 15/6/5 16/8/7 4/7/8
f 4/7/8 16/8/7 17/10/9 5/9/10
f 5/9/10 17/10/9 18/12/11 6/11/12
f 6/13/12 18/16/11 19/15/13 7/14/14
f 7/14/14 19/15/13 20/18/15 8/17/16
f 8/17/16 20/18/15 21/20/17 9/19/18
f 9/19/18 21/20/17 22/22/19 10/21/20
f 10/21/20 22/22/19 23/24/21 11/23/22
f 11/23/22 23/24/21 24/26/23 12/25/24
f 12/25/24 24/26/23 13/4/2 1/1/1
f 13/4/2 25/28/25 26/27/26 14/3/3
f 14/3/3 26/27/26 27/29/27 15/6/5
f 15/6/5 27/29/27 28/30/28 16/8/7
f 16/8/7 28/30/28 29/31/29 17/10/9
f 17/10/9 29/31/29 30/32/30 18/12/11
f 18/16/11 30/34/30 31/33/31 19/15/13
f 19/15/13 31/33/31 32/35/32 20/18/15
f 20/18/15 32/35/32 33/36/33 21/20/17
f 21/20/17 33/36/33 34/37/34 22/22/19
f 22/22/19 34/37/34 35/38/35 23/24/21
f 23/24/21 35/38/35 36/39/36 24/26/23
f 24/26/23 36/39/36 25/28/25 13/4/2
f 25/28/25 37/41/37 38/40/38 26/27/26
f 26/27/26 38/40/38 39/42/39 27/29/27
f 27/29/27 39/42/39 40/43/40 28/30/28
f 28/30/28 40/43/40 41/44/41 29/31/29
f 29/31/29 41/44/41 42/45/42 30/32/30
f 30/34/30 42/47/42 43/46/43 31/33/31
f 31/33/31 43/46/43 44/48/44 32/35/32
f 32/35/32 44/48/44 45/49/45 33/36/33
f 33/36/33 45/49/45 46/50/46 34/37/34
f 34/37/34 46/50/46 47/51/47 35/38/35
f 35/38/35 47/51/47 48/52/48 36/39/36
f 36/39/36 48/52/48 37/41/37 25/28/25
f 37/41/37 49/54/49 50/53/50 38/40/38
f 38/40/38 50/53/50 51/55/51 39/42/39
f 39/42/39 51/55/51 52/56/52 40/43/40
f 40/43/40 52/56/52 53/57/53 41/44/41
f 41/44/41 53/57/53 54/58/54 42/45/42
f 42/47/42 54/60/54 55/59/55 43/46/43
f 43/46/43 55/59/55 56/61/56 44/48/44
f 44/48/44 56/61/56 57/62/57 45/49/45
f 45/49/45 57/62/57 58/63/58 46/50/46
f 46/50/46 58/63/58 59/64/59 47/51/47
f 47/51/47 59/64/59 60/65/60 48/52/48
f 48/52/48 60/65/60 49/54/49 37/41/37
f 49/54/49 61/67/61 62/66/62 50/53/50
f 50/53/50 62/66/62 63/68/63 51/55/51
f 51/55/51 63/68/63 64/69/64 52/56/52
f 52/56/52 64/69/64 65/70/65 53/57/53
f 53/57/53 65/70/65 66/71/66 54/58/54
f 54/60/54 66/73/66 67/72/67 55/59/55
f 55/59/55 67/72/67 68/74/68 56/61/56
f 56/61/56 68/74/68 69/75/69 57/62/57
f 57/62/57 69/75/69 70/76/70 58/63/58
f 58/63/58 70/76/70 71/77/71 59/64/59
f 59/64/59 71/77/71 72/78/72 60/65/60
f 60/65/60 72/78/72 61/67/61 49/54/49
f 61/67/61 73/80/73 74/79/74 62/66/62
f 62/66/62 74/79/74 75/81/75 63/68/63
f 63/68/63 75/81/75 76/82/76 64/69/64
f 64/69/64 76/82/76 77/83/77 65/70/65
f 65/70/65 77/83/77 78/84/78 66/71/66
f 66/73/66 78/86/78 79/85/79 67/72/67
f 67/72/67 79/85/79 80/87/80 68/74/68
f 68/74/68 80/87/80 81/88/81 69/75/69
f 69/75/69 81/88/81 82/89/82 70/76/70
f 70/76/70 82/89/82 83/90/83 71/77/71
f 71/77/71 83/90/83 84/91/84 72/78/72
f 72/78/72 84/91/84 73/80/73 61/67/61
f 73/80/73 85/93/85 86/92/86 74/79/74
f 74/79/74 86/92/86 87/94/87 75/81/75
f 75/81/75 87/94/87 88/95/88 76/82/76
f 76/82/76 88/95/88 89/96/89 77/83/77
f 77/83/77 89/96/89 90/97/90 78/84/78
f 78/86/78 90/99/90 91/98/91 79/85/79
f 79/85/79 91/98/91 92/100/92 80/87/80
f 80/87/80 92/100/92 93/101/93 81/88/81
f 81/88/81 93/101/93 94/102/94 82/89/82
f 82/89/82 94/102/94 95/103/95 83/90/83
f 83/90/83 95/103/95 96/104/96 84/91/84
f 84/91/84 96/104/96 85/93/85 73/80/73
f 85/93/85 97/106/97 98/105/98 86/92/86
f 86/92/86 98/105/98 99/107/99 87/94/87
f 87/94/87 99/107/99 100/108/100 88/95/88
f 88/95/88 100/108/100 101/109/101 89/96/89
f 89/96/89 101/109/101 102/110/102 90/97/90
f 90/99/90 102/112/102 103/111/103 91/98/91
f 91/98/91 103/111/103 104/113/104 92/100/92
f 92/100/92 104/113/104 105/114/105 93/101/93
f 93/101/93 105/114/105 106/115/106 94/102/94
f 94/102/94 106/115/106 107/116/107 95/103/95
f 95/103/95 107/116/107 108/117/108 96/104/96
f 96/104/96 108/117/108 97/106/97 85/93/85
f 97/106/97 109/119/109 110/118/110 98/105/98
f 98/105/98 110/118/110 111/120/111 99/107/99
f 99/107/99 111/120/111 112/121/112 100/108/100
f 100/108/100 112/121/112 113/122/113 101/109/101
f 101/109/101 113/122/113 114/123/114 102/110/102
f 102/112/102 114/125/114 115/124/115 103/111/103
f 103/111/103 115/124/115 116/126/116 104/113/104
f 104/113/104 116/126/116 117/127/117 105/114/105
f 105/114/105 117/127/117 118/128/118 106/115/106
f 106/115/106 118/128/118 119/129/119 107/116/107
f 107/116/107 119/129/119 120/130/120 108/117/108
f 108/117/108 120/130/120 109/119/109 97/106/97
f 109/119/109 121/132/121 122/131/122 110/118/110
f 110/118/110 122/131/122 123/133/123 111/120/111
f 111/120/111 123/133/123 124/134/124 112/121/112
f 112/121/112 124/134/124 125/135/125 113/122/113
f 113/122/113 125/135/125 126/136/126 114/123/114
f 114/125/114 126/138/126 127/137/127 115/124/115
f 115/124/115 127/137/127 128/139/128 116/126/116
f 116/126/116 128/139/128 129/140/129 117/127/117
f 117/127/117 129/140/129 130/141/130 118/128/118
f 118/128/118 130/141/130 131/142/131 119/129/119
f 119/129/119 131/142/131 132/143/132 120/130/120
f 120/130/120 132/143/132 121/132/121 109/119/109
f 2/2/4 133/144/133 1/1/1
f 3/5/6 133/144/133 2/2/4
f 4/7/8 133/144/133 3/5/6
f 5/9/10 133/144/133 4/7/8
f 6/11/12 133/144/133 5/9/10
f 7/14/14 133/144/133 6/13/12
f 8/17/16 133/144/133 7/14/14
f 9/19/18 133/144/133 8/17/16
f 10/21/20 133/144/133 9/19/18
f 11/23/22 133/144/133 10/21/20
f 12/25/24 133/144/133 11/23/22
f 1/1/1 133/144/133 12/25/24
f 121/132/121 134/145/134 122/131/122
f 122/131/122 134/145/134 123/133/123
f 123/133/123 134/145/134 124/134/124
f 124/134/124 134/145/134 125/135/125
f 125/135/125 134/145/134 126/136/126
f 126/138/126 134/145/134 127/137/127
f 127/137/127 134/145/134 128/139/128
f 128/139/128 134/145/134 129/140/129
f 129/140/129 134/145/134 130/141/130
f 130/141/130 134/145/134 131/142/131
f 131/142/131 134/145/134 132/143/132
f 132/143/132 134/145/134 121/132/121
