# This file uses centimeters as units for non-parametric coordinates.

mtllib PickleShortLUpperLeg.mtl
g default
v 1.077608 -0.089641 0.074507
v 1.058823 -0.155305 0.011588
v 1.033163 -0.179340 -0.074362
v 1.007502 -0.155306 -0.160312
v 0.988718 -0.089641 -0.223232
v 0.981843 0.000057 -0.246262
v 0.988718 0.089755 -0.223232
v 1.007502 0.155420 -0.160313
v 1.033163 0.179454 -0.074363
v 1.058823 0.155420 0.011587
v 1.077607 0.089756 0.074507
v 1.084483 0.000058 0.097537
v 1.015404 -0.165684 0.230074
v 0.981703 -0.287015 0.113517
v 0.935667 -0.331425 -0.045703
v 0.889631 -0.287016 -0.204922
v 0.855931 -0.165685 -0.321479
v 0.843596 0.000056 -0.364142
v 0.855931 0.165798 -0.321480
v 0.889632 0.287130 -0.204923
v 0.935667 0.331541 -0.045703
v 0.981703 0.287130 0.113516
v 1.015404 0.165799 0.230074
v 1.027739 0.000057 0.272736
v 0.895447 -0.216494 0.357068
v 0.850776 -0.375021 0.204966
v 0.789756 -0.433046 -0.002810
v 0.728734 -0.375022 -0.210587
v 0.684064 -0.216494 -0.362690
v 0.667714 0.000056 -0.418364
v 0.684064 0.216608 -0.362691
v 0.728734 0.375135 -0.210588
v 0.789755 0.433160 -0.002812
v 0.850776 0.375136 0.204965
v 0.895447 0.216609 0.357068
v 0.911798 0.000058 0.412742
v 0.730333 -0.229394 0.428892
v 0.682703 -0.397363 0.267817
v 0.617641 -0.458845 0.047784
v 0.552578 -0.397363 -0.172249
v 0.504948 -0.229394 -0.333325
v 0.487515 0.000056 -0.392283
v 0.504949 0.229508 -0.333326
v 0.552578 0.397477 -0.172250
v 0.617641 0.458959 0.047783
v 0.682704 0.397479 0.267816
v 0.730333 0.229508 0.428892
v 0.747766 0.000057 0.487850
v 0.375028 -0.225983 0.499644
v 0.352243 -0.391457 0.335747
v 0.321119 -0.452025 0.111859
v 0.289995 -0.391457 -0.112029
v 0.267211 -0.225984 -0.275927
v 0.258871 0.000056 -0.335918
v 0.267211 0.226098 -0.275927
v 0.289995 0.391571 -0.112030
v 0.321119 0.452140 0.111858
v 0.352243 0.391572 0.335746
v 0.375028 0.226098 0.499644
v 0.383367 0.000057 0.559634
v 0.014232 -0.212171 0.498661
v 0.015978 -0.367534 0.343308
v 0.018365 -0.424401 0.131093
v 0.020750 -0.367534 -0.081123
v 0.022497 -0.212172 -0.236476
v 0.023136 0.000056 -0.293339
v 0.022497 0.212286 -0.236476
v 0.020750 0.367649 -0.081124
v 0.018364 0.424515 0.131092
v 0.015978 0.367649 0.343307
v 0.014232 0.212287 0.498660
v 0.013593 0.000057 0.555523
v -0.337946 -0.195122 0.438766
v -0.315096 -0.338002 0.297724
v -0.283882 -0.390301 0.105057
v -0.252668 -0.338004 -0.087610
v -0.229817 -0.195122 -0.228652
v -0.221453 0.000056 -0.280278
v -0.229817 0.195236 -0.228653
v -0.252668 0.338117 -0.087611
v -0.283882 0.390416 0.105056
v -0.315096 0.338118 0.297723
v -0.337946 0.195237 0.438766
v -0.346310 0.000057 0.490391
v -0.672073 -0.176311 0.325250
v -0.632688 -0.305421 0.202293
v -0.578887 -0.352679 0.034332
v -0.525087 -0.305421 -0.133630
v -0.485702 -0.176311 -0.256587
v -0.471286 0.000056 -0.301593
v -0.485702 0.176425 -0.256587
v -0.525087 0.305536 -0.133631
v -0.578887 0.352793 0.034331
v -0.632688 0.305536 0.202293
v -0.672073 0.176426 0.325249
v -0.686489 0.000057 0.370255
v -0.791502 -0.161363 0.255189
v -0.754860 -0.279531 0.142845
v -0.704806 -0.322784 -0.010619
v -0.654753 -0.279532 -0.164083
v -0.618110 -0.161363 -0.276427
v -0.604698 0.000056 -0.317547
v -0.618110 0.161477 -0.276427
v -0.654753 0.279646 -0.164084
v -0.704806 0.322898 -0.010620
v -0.754860 0.279647 0.142845
v -0.791502 0.161478 0.255188
v -0.804914 0.000057 0.296309
v -0.881021 -0.123489 0.159505
v -0.852583 -0.213930 0.073650
v -0.813737 -0.247035 -0.043630
v -0.774891 -0.213931 -0.160910
v -0.746454 -0.123489 -0.246765
v -0.736045 0.000056 -0.278190
v -0.746454 0.123603 -0.246765
v -0.774892 0.214045 -0.160910
v -0.813737 0.247149 -0.043630
v -0.852583 0.214045 0.073650
v -0.881021 0.123604 0.159505
v -0.891430 0.000057 0.190930
v -0.922185 -0.066806 0.043435
v -0.906611 -0.115753 -0.002968
v -0.885338 -0.133668 -0.066356
v -0.864064 -0.115753 -0.129744
v -0.848490 -0.066806 -0.176147
v -0.842790 0.000057 -0.193132
v -0.848490 0.066920 -0.176147
v -0.864064 0.115866 -0.129744
v -0.885338 0.133782 -0.066356
v -0.906611 0.115866 -0.002968
v -0.922185 0.066920 0.043435
v -0.927885 0.000057 0.060420
v 1.067398 0.000058 -0.084426
v -0.910824 0.000058 -0.074882
vt 0.737707 0.160436
vt 0.733846 0.150004
vt 0.753777 0.141814
vt 0.757251 0.156548
vt 0.726870 0.139851
vt 0.747068 0.126461
vt 0.716518 0.130526
vt 0.735928 0.109766
vt 0.703392 0.123727
vt 0.718482 0.092736
vt 0.687119 0.121571
vt 0.692848 0.075812
vt 0.688235 0.220614
vt 0.703477 0.218233
vt 0.718535 0.249047
vt 0.693486 0.264764
vt 0.716447 0.211322
vt 0.735979 0.232049
vt 0.726919 0.202076
vt 0.747080 0.215392
vt 0.733855 0.191944
vt 0.753736 0.200100
vt 0.737669 0.181528
vt 0.757287 0.185370
vt 0.738841 0.170964
vt 0.758335 0.170966
vt 0.769980 0.137608
vt 0.772552 0.154811
vt 0.765157 0.118828
vt 0.756331 0.097064
vt 0.741260 0.071340
vt 0.717599 0.040019
vt 0.741219 0.270242
vt 0.717065 0.300507
vt 0.756218 0.244752
vt 0.765107 0.223017
vt 0.769938 0.204291
vt 0.772521 0.187127
vt 0.773419 0.170974
vt 0.785059 0.135126
vt 0.786191 0.153620
vt 0.782553 0.114198
vt 0.777211 0.089146
vt 0.767746 0.057912
vt 0.752961 0.018997
vt 0.767524 0.283623
vt 0.751964 0.322283
vt 0.777045 0.252605
vt 0.782411 0.227674
vt 0.785046 0.206776
vt 0.786206 0.188302
vt 0.786520 0.170963
vt 0.814268 0.132741
vt 0.814859 0.152625
vt 0.812978 0.110123
vt 0.810818 0.083185
vt 0.807398 0.049387
vt 0.802426 0.007726
vt 0.806927 0.292315
vt 0.801544 0.334381
vt 0.810573 0.258583
vt 0.812829 0.231787
vt 0.814152 0.209205
vt 0.814785 0.189369
vt 0.814964 0.170999
vt 0.845617 0.132146
vt 0.845268 0.152143
vt 0.846326 0.109453
vt 0.847470 0.082288
vt 0.849701 0.048870
vt 0.853620 0.009194
vt 0.849227 0.293206
vt 0.852959 0.332986
vt 0.847154 0.259754
vt 0.846085 0.232596
vt 0.845506 0.209921
vt 0.845247 0.189934
vt 0.845212 0.171037
vt 0.878679 0.134012
vt 0.877335 0.153089
vt 0.881268 0.112409
vt 0.885683 0.086915
vt 0.893240 0.056594
vt 0.904664 0.021898
vt 0.892808 0.285695
vt 0.904121 0.320441
vt 0.885407 0.255290
vt 0.881078 0.229781
vt 0.878549 0.208188
vt 0.877251 0.189096
vt 0.876901 0.171087
vt 0.911443 0.138312
vt 0.909415 0.155107
vt 0.915760 0.119802
vt 0.923406 0.098531
vt 0.935873 0.073953
vt 0.953162 0.046242
vt 0.935534 0.268476
vt 0.952755 0.296245
vt 0.923161 0.243820
vt 0.915594 0.222515
vt 0.911344 0.203999
vt 0.909358 0.187190
vt 0.908841 0.171145
vt 0.925490 0.141062
vt 0.922302 0.156498
vt 0.931210 0.124698
vt 0.940787 0.106862
vt 0.955777 0.087394
vt 0.975973 0.067391
vt 0.955525 0.255077
vt 0.975635 0.275163
vt 0.940579 0.235557
vt 0.931039 0.217681
vt 0.925391 0.201296
vt 0.922262 0.185840
vt 0.921254 0.171166
vt 0.939897 0.145844
vt 0.936265 0.158690
vt 0.946450 0.133041
vt 0.956856 0.119976
vt 0.971884 0.107260
vt 0.991149 0.097264
vt 0.971672 0.235259
vt 0.990920 0.245334
vt 0.956701 0.222503
vt 0.946348 0.209379
vt 0.939811 0.196552
vt 0.936218 0.183696
vt 0.935168 0.171198
vt 0.956923 0.153636
vt 0.953438 0.162348
vt 0.963164 0.145572
vt 0.971949 0.138898
vt 0.981223 0.133973
vt 0.991966 0.132542
vt 0.981167 0.208570
vt 0.991829 0.210045
vt 0.971785 0.203602
vt 0.963117 0.196926
vt 0.956859 0.188803
vt 0.953416 0.180105
vt 0.952390 0.171219
vt 0.707141 0.170966
vt 0.976439 0.171239
vn 0.979562 -0.192518 0.058266
vn 0.850597 -0.353408 0.389344
vn 0.778311 -0.611889 0.140795
vn 0.939979 -0.332270 -0.077701
vn 0.679669 -0.706171 -0.198427
vn 0.886365 -0.381800 -0.261890
vn 0.581149 -0.611222 -0.537283
vn 0.833284 -0.329020 -0.444279
vn 0.509109 -0.352742 -0.785099
vn 0.794768 -0.189270 -0.576647
vn 0.482758 -0.000001 -0.875754
vn 0.780741 -0.000001 -0.624855
vn 0.509108 0.352740 -0.785101
vn 0.794767 0.189268 -0.576648
vn 0.581148 0.611221 -0.537286
vn 0.833284 0.329018 -0.444280
vn 0.679668 0.706171 -0.198430
vn 0.886364 0.381799 -0.261893
vn 0.778311 0.611889 0.140795
vn 0.939979 0.332267 -0.077701
vn 0.850597 0.353408 0.389343
vn 0.979562 0.192518 0.058268
vn 0.877070 0.000001 0.480362
vn 0.994121 0.000002 0.108272
vn 0.573882 -0.466155 0.673319
vn 0.476959 -0.807803 0.346359
vn 0.344415 -0.933391 -0.100798
vn 0.211703 -0.808873 -0.548550
vn 0.114447 -0.467227 -0.876699
vn 0.078827 -0.000002 -0.996888
vn 0.114447 0.467225 -0.876700
vn 0.211702 0.808872 -0.548552
vn 0.344414 0.933391 -0.100802
vn 0.476960 0.807803 0.346357
vn 0.573882 0.466156 0.673319
vn 0.609335 0.000001 0.792913
vn 0.273381 -0.500135 0.821662
vn 0.182082 -0.865588 0.466479
vn 0.057482 -0.998188 -0.017798
vn -0.066959 -0.863071 -0.500625
vn -0.157946 -0.497615 -0.852896
vn -0.191226 -0.000002 -0.981546
vn -0.157946 0.497613 -0.852898
vn -0.066958 0.863070 -0.500627
vn 0.057482 0.998188 -0.017803
vn 0.182083 0.865589 0.466477
vn 0.273380 0.500135 0.821662
vn 0.306812 0.000001 0.951770
vn 0.071385 -0.500449 0.862818
vn 0.017607 -0.865905 0.499898
vn -0.056424 -0.998392 0.005433
vn -0.131322 -0.863247 -0.487400
vn -0.186861 -0.497739 -0.846958
vn -0.207370 -0.000002 -0.978263
vn -0.186861 0.497737 -0.846960
vn -0.131322 0.863246 -0.487402
vn -0.056425 0.998392 0.005430
vn 0.017607 0.865906 0.499897
vn 0.071385 0.500450 0.862817
vn 0.090998 0.000001 0.995851
vn -0.096306 -0.498431 0.861564
vn -0.097851 -0.862583 0.496363
vn -0.101181 -0.994867 -0.001525
vn -0.106266 -0.860512 -0.498223
vn -0.111384 -0.496317 -0.860966
vn -0.113605 -0.000002 -0.993526
vn -0.111384 0.496315 -0.860968
vn -0.106266 0.860511 -0.498225
vn -0.101181 0.994867 -0.001528
vn -0.097850 0.862584 0.496361
vn -0.096306 0.498432 0.861563
vn -0.095902 0.000001 0.995391
vn -0.238089 -0.497539 0.834127
vn -0.185852 -0.861037 0.473365
vn -0.115841 -0.993093 -0.018643
vn -0.047702 -0.859004 -0.509742
vn 0.000733 -0.495469 -0.868625
vn 0.018105 -0.000002 -0.999836
vn 0.000733 0.495467 -0.868626
vn -0.047702 0.859003 -0.509744
vn -0.115841 0.993093 -0.018647
vn -0.185852 0.861038 0.473363
vn -0.238090 0.497540 0.834127
vn -0.257394 0.000000 0.966307
vn -0.398138 -0.493287 0.773405
vn -0.298909 -0.853892 0.426053
vn -0.164045 -0.985290 -0.047884
vn -0.030028 -0.852805 -0.521365
vn 0.067497 -0.492224 -0.867848
vn 0.103063 -0.000002 -0.994675
vn 0.067497 0.492222 -0.867849
vn -0.030027 0.852804 -0.521367
vn -0.164044 0.985290 -0.047888
vn -0.298909 0.853894 0.426051
vn -0.398138 0.493287 0.773404
vn -0.434560 0.000000 0.900643
vn -0.622317 -0.459330 0.633828
vn -0.517505 -0.795806 0.314455
vn -0.374142 -0.919301 -0.122078
vn -0.230546 -0.796500 -0.558960
vn -0.125270 -0.460023 -0.879026
vn -0.086701 -0.000002 -0.996234
vn -0.125269 0.460021 -0.879027
vn -0.230546 0.796499 -0.558961
vn -0.374141 0.919301 -0.122081
vn -0.517504 0.795807 0.314452
vn -0.622317 0.459330 0.633828
vn -0.660653 0.000000 0.750691
vn -0.858739 -0.356947 0.367636
vn -0.779740 -0.615139 0.116660
vn -0.673118 -0.705386 -0.222132
vn -0.567990 -0.606618 -0.556239
vn -0.491979 -0.348426 -0.797845
vn -0.464358 -0.000002 -0.885648
vn -0.491979 0.348423 -0.797846
vn -0.567991 0.606616 -0.556240
vn -0.673119 0.705384 -0.222133
vn -0.779742 0.615138 0.116658
vn -0.858740 0.356946 0.367635
vn -0.887855 0.000000 0.460124
vn -0.981119 -0.192036 0.022967
vn -0.936893 -0.331470 -0.111171
vn -0.876971 -0.380947 -0.292919
vn -0.817612 -0.328353 -0.472964
vn -0.774513 -0.188918 -0.603689
vn -0.758814 -0.000001 -0.651308
vn -0.774514 0.188916 -0.603688
vn -0.817613 0.328351 -0.472964
vn -0.876971 0.380945 -0.292919
vn -0.936893 0.331469 -0.111171
vn -0.981119 0.192035 0.022966
vn -0.997383 -0.000000 0.072295
vn 0.958233 -0.000000 -0.285989
vn -0.948040 0.000000 -0.318151
s 1
g FoodShortLUpperLeg
usemtl Pickle_lambert3SG
f 1/1/1 13/4/2 14/3/3 2/2/4
f 2/2/4 14/3/3 15/6/5 3/5/6
f 3/5/6 15/6/5 16/8/7 4/7/8
f 4/7/8 16/8/7 17/10/9 5/9/10
f 5/9/10 17/10/9 18/12/11 6/11/12
f 6/13/12 18/16/11 19/15/13 7/14/14
f 7/14/14 19/15/13 20/18/15 8/17/16
f 8/17/16 20/18/15 21/20/17 9/19/18
f 9/19/18 21/20/17 22/22/19 10/21/20
f 10/21/20 22/22/19 23/24/21 11/23/22
f 11/23/22 23/24/21 24/26/23 12/25/24
f 12/25/24 24/26/23 13/4/2 1/1/1
f 13/4/2 25/28/25 26/27/26 14/3/3
f 14/3/3 26/27/26 27/29/27 15/6/5
f 15/6/5 27/29/27 28/30/28 16/8/7
f 16/8/7 28/30/28 29/31/29 17/10/9
f 17/10/9 29/31/29 30/32/30 18/12/11
f 18/16/11 30/34/30 31/33/31 19/15/13
f 19/15/13 31/33/31 32/35/32 20/18/15
f 20/18/15 32/35/32 33/36/33 21/20/17
f 21/20/17 33/36/33 34/37/34 22/22/19
f 22/22/19 34/37/34 35/38/35 23/24/21
f 23/24/21 35/38/35 36/39/36 24/26/23
f 24/26/23 36/39/36 25/28/25 13/4/2
f 25/28/25 37/41/37 38/40/38 26/27/26
f 26/27/26 38/40/38 39/42/39 27/29/27
f 27/29/27 39/42/39 40/43/40 28/30/28
f 28/30/28 40/43/40 41/44/41 29/31/29
f 29/31/29 41/44/41 42/45/42 30/32/30
f 30/34/30 42/47/42 43/46/43 31/33/31
f 31/33/31 43/46/43 44/48/44 32/35/32
f 32/35/32 44/48/44 45/49/45 33/36/33
f 33/36/33 45/49/45 46/50/46 34/37/34
f 34/37/34 46/50/46 47/51/47 35/38/35
f 35/38/35 47/51/47 48/52/48 36/39/36
f 36/39/36 48/52/48 37/41/37 25/28/25
f 37/41/37 49/54/49 50/53/50 38/40/38
f 38/40/38 50/53/50 51/55/51 39/42/39
f 39/42/39 51/55/51 52/56/52 40/43/40
f 40/43/40 52/56/52 53/57/53 41/44/41
f 41/44/41 53/57/53 54/58/54 42/45/42
f 42/47/42 54/60/54 55/59/55 43/46/43
f 43/46/43 55/59/55 56/61/56 44/48/44
f 44/48/44 56/61/56 57/62/57 45/49/45
f 45/49/45 57/62/57 58/63/58 46/50/46
f 46/50/46 58/63/58 59/64/59 47/51/47
f 47/51/47 59/64/59 60/65/60 48/52/48
f 48/52/48 60/65/60 49/54/49 37/41/37
f 49/54/49 61/67/61 62/66/62 50/53/50
f 50/53/50 62/66/62 63/68/63 51/55/51
f 51/55/51 63/68/63 64/69/64 52/56/52
f 52/56/52 64/69/64 65/70/65 53/57/53
f 53/57/53 65/70/65 66/71/66 54/58/54
f 54/60/54 66/73/66 67/72/67 55/59/55
f 55/59/55 67/72/67 68/74/68 56/61/56
f 56/61/56 68/74/68 69/75/69 57/62/57
f 57/62/57 69/75/69 70/76/70 58/63/58
f 58/63/58 70/76/70 71/77/71 59/64/59
f 59/64/59 71/77/71 72/78/72 60/65/60
f 60/65/60 72/78/72 61/67/61 49/54/49
f 61/67/61 73/80/73 74/79/74 62/66/62
f 62/66/62 74/79/74 75/81/75 63/68/63
f 63/68/63 75/81/75 76/82/76 64/69/64
f 64/69/64 76/82/76 77/83/77 65/70/65
f 65/70/65 77/83/77 78/84/78 66/71/66
f 66/73/66 78/86/78 79/85/79 67/72/67
f 67/72/67 79/85/79 80/87/80 68/74/68
f 68/74/68 80/87/80 81/88/81 69/75/69
f 69/75/69 81/88/81 82/89/82 70/76/70
f 70/76/70 82/89/82 83/90/83 71/77/71
f 71/77/71 83/90/83 84/91/84 72/78/72
f 72/78/72 84/91/84 73/80/73 61/67/61
f 73/80/73 85/93/85 86/92/86 74/79/74
f 74/79/74 86/92/86 87/94/87 75/81/75
f 75/81/75 87/94/87 88/95/88 76/82/76
f 76/82/76 88/95/88 89/96/89 77/83/77
f 77/83/77 89/96/89 90/97/90 78/84/78
f 78/86/78 90/99/90 91/98/91 79/85/79
f 79/85/79 91/98/91 92/100/92 80/87/80
f 80/87/80 92/100/92 93/101/93 81/88/81
f 81/88/81 93/101/93 94/102/94 82/89/82
f 82/89/82 94/102/94 95/103/95 83/90/83
f 83/90/83 95/103/95 96/104/96 84/91/84
f 84/91/84 96/104/96 85/93/85 73/80/73
f 85/93/85 97/106/97 98/105/98 86/92/86
f 86/92/86 98/105/98 99/107/99 87/94/87
f 87/94/87 99/107/99 100/108/100 88/95/88
f 88/95/88 100/108/100 101/109/101 89/96/89
f 89/96/89 101/109/101 102/110/102 90/97/90
f 90/99/90 102/112/102 103/111/103 91/98/91
f 91/98/91 103/111/103 104/113/104 92/100/92
f 92/100/92 104/113/104 105/114/105 93/101/93
f 93/101/93 105/114/105 106/115/106 94/102/94
f 94/102/94 106/115/106 107/116/107 95/103/95
f 95/103/95 107/116/107 108/117/108 96/104/96
f 96/104/96 108/117/108 97/106/97 85/93/85
f 97/106/97 109/119/109 110/118/110 98/105/98
f 98/105/98 110/118/110 111/120/111 99/107/99
f 99/107/99 111/120/111 112/121/112 100/108/100
f 100/108/100 112/121/112 113/122/113 101/109/101
f 101/109/101 113/122/113 114/123/114 102/110/102
f 102/112/102 114/125/114 115/124/115 103/111/103
f 103/111/103 115/124/115 116/126/116 104/113/104
f 104/113/104 116/126/116 117/127/117 105/114/105
f 105/114/105 117/127/117 118/128/118 106/115/106
f 106/115/106 118/128/118 119/129/119 107/116/107
f 107/116/107 119/129/119 120/130/120 108/117/108
f 108/117/108 120/130/120 109/119/109 97/106/97
f 109/119/109 121/132/121 122/131/122 110/118/110
f 110/118/110 122/131/122 123/133/123 111/120/111
f 111/120/111 123/133/123 124/134/124 112/121/112
f 112/121/112 124/134/124 125/135/125 113/122/113
f 113/122/113 125/135/125 126/136/126 114/123/114
f 114/125/114 126/138/126 127/137/127 115/124/115
f 115/124/115 127/137/127 128/139/128 116/126/116
f 116/126/116 128/139/128 129/140/129 117/127/117
f 117/127/117 129/140/129 130/141/130 118/128/118
f 118/128/118 130/141/130 131/142/131 119/129/119
f 119/129/119 131/142/131 132/143/132 120/130/120
f 120/130/120 132/143/132 121/132/121 109/119/109
f 2/2/4 133/144/133 1/1/1
f 3/5/6 133/144/133 2/2/4
f 4/7/8 133/144/133 3/5/6
f 5/9/10 133/144/133 4/7/8
f 6/11/12 133/144/133 5/9/10
f 7/14/14 133/144/133 6/13/12
f 8/17/16 133/144/133 7/14/14
f 9/19/18 133/144/133 8/17/16
f 10/21/20 133/144/133 9/19/18
f 11/23/22 133/144/133 10/21/20
f 12/25/24 133/144/133 11/23/22
f 1/1/1 133/144/133 12/25/24
f 121/132/121 134/145/134 122/131/122
f 122/131/122 134/145/134 123/133/123
f 123/133/123 134/145/134 124/134/124
f 124/134/124 134/145/134 125/135/125
f 125/135/125 134/145/134 126/136/126
f 126/138/126 134/145/134 127/137/127
f 127/137/127 134/145/134 128/139/128
f 128/139/128 134/145/134 129/140/129
f 129/140/129 134/145/134 130/141/130
f 130/141/130 134/145/134 131/142/131
f 131/142/131 134/145/134 132/143/132
f 132/143/132 134/145/134 121/132/121
