# This file uses centimeters as units for non-parametric coordinates.

mtllib LimeRTopIncisor.mtl
g default
v -0.266597 1.111352 0.067657
v -0.263758 1.111524 0.093812
v -0.312135 1.110114 0.005415
v -0.291638 1.110622 0.021900
v -0.276106 1.111044 0.043130
v -0.208559 1.032043 0.054269
v -0.204088 1.032315 0.095471
v -0.280298 1.030094 -0.043785
v -0.248008 1.030894 -0.017815
v -0.223539 1.031559 0.015629
v -0.008025 0.908077 0.006587
v 0.002181 0.908697 0.100639
v -0.171783 0.903628 -0.217237
v -0.098075 0.905453 -0.157957
v -0.042221 0.906971 -0.081615
v 0.140536 0.744233 -0.028055
v 0.154947 0.745108 0.104739
v -0.090677 0.737951 -0.344078
v 0.013392 0.740529 -0.260379
v 0.092255 0.742671 -0.152590
v 0.223143 0.551599 -0.046356
v 0.239828 0.552612 0.107401
v -0.044572 0.544326 -0.412269
v 0.075926 0.547310 -0.315357
v 0.167239 0.549791 -0.190551
v 0.244875 0.343521 -0.049680
v 0.262061 0.344564 0.108696
v -0.030882 0.336029 -0.426584
v 0.093236 0.339102 -0.326762
v 0.187292 0.341658 -0.198206
v 0.232033 0.134740 -0.044574
v 0.248718 0.135753 0.109183
v -0.035682 0.127467 -0.410487
v 0.084816 0.130451 -0.313576
v 0.176129 0.132932 -0.188769
v 0.157710 -0.061076 -0.024613
v 0.172121 -0.060202 0.108180
v -0.073503 -0.067358 -0.340636
v 0.030567 -0.064781 -0.256937
v 0.109429 -0.062638 -0.149148
v -0.365073 1.136806 0.091408
v -0.362772 1.028915 0.091869
v -0.360043 0.900937 0.092416
v -0.356486 0.734151 0.093128
v -0.352344 0.539926 0.093958
v -0.347899 0.331497 0.094849
v -0.343454 0.123067 0.095740
v -0.339312 -0.071158 0.096570
v -0.256838 -0.069979 -0.039083
v -0.260980 0.124246 -0.039913
v -0.265425 0.332676 -0.040804
v -0.269870 0.541105 -0.041695
v -0.274012 0.735330 -0.042525
v -0.277569 0.902116 -0.043238
v -0.151052 -0.068467 -0.213082
v -0.155194 0.125759 -0.213912
v -0.159639 0.334188 -0.214803
v -0.164084 0.542617 -0.215694
v -0.168226 0.736843 -0.216524
v -0.077645 0.126867 -0.341466
v -0.082090 0.335297 -0.342357
v -0.086535 0.543726 -0.343247
v -0.201359 0.904336 0.096018
v -0.197802 0.737551 0.096731
v -0.193660 0.543326 0.097561
v -0.189215 0.334896 0.098452
v -0.184770 0.126467 0.099343
v -0.180628 -0.067759 0.100173
v 0.005738 0.741911 0.101351
v 0.009880 0.547686 0.102181
v 0.014325 0.339257 0.103072
v 0.018770 0.130827 0.103963
v 0.022912 -0.063398 0.104793
v 0.159089 0.550883 0.105569
v 0.163534 0.342453 0.106460
v 0.167979 0.134024 0.107350
vt 0.207690 0.454183
vt 0.213220 0.452194
vt 0.223087 0.473624
vt 0.213170 0.476977
vt 0.191970 0.451998
vt 0.197487 0.454018
vt 0.192354 0.476984
vt 0.182396 0.473652
vt 0.203287 0.454703
vt 0.202787 0.478097
vt 0.249716 0.529960
vt 0.226469 0.536793
vt 0.179225 0.536881
vt 0.155929 0.530134
vt 0.202856 0.539049
vt 0.268998 0.585450
vt 0.235595 0.592040
vt 0.170317 0.592193
vt 0.136887 0.585773
vt 0.202960 0.594177
vt 0.279871 0.639990
vt 0.240647 0.643757
vt 0.165501 0.643895
vt 0.126334 0.640293
vt 0.203065 0.644999
vt 0.283219 0.695327
vt 0.242337 0.695542
vt 0.163965 0.695598
vt 0.123176 0.695438
vt 0.203137 0.695631
vt 0.280620 0.750886
vt 0.241056 0.747532
vt 0.165264 0.747526
vt 0.125739 0.750853
vt 0.203153 0.746468
vt 0.270489 0.806169
vt 0.236404 0.799909
vt 0.169880 0.799896
vt 0.135789 0.806135
vt 0.203143 0.797925
vt 0.202891 0.432913
vt 0.754775 0.605044
vt 0.771027 0.584945
vt 0.799288 0.578092
vt 0.799288 0.605045
vt 0.827572 0.584939
vt 0.843812 0.605051
vt 0.697696 0.637011
vt 0.754783 0.637015
vt 0.900875 0.637009
vt 0.843801 0.637018
vt 0.655845 0.678687
vt 0.697699 0.678681
vt 0.942741 0.678675
vt 0.900881 0.678676
vt 0.633204 0.727205
vt 0.655847 0.727205
vt 0.965374 0.727209
vt 0.942730 0.727203
vt 0.628213 0.779277
vt 0.655845 0.779277
vt 0.970353 0.779273
vt 0.942722 0.779274
vt 0.633206 0.831345
vt 0.655847 0.831346
vt 0.965375 0.831343
vt 0.942730 0.831347
vt 0.655838 0.879864
vt 0.942734 0.879876
vt 0.697696 0.879869
vt 0.900878 0.879876
vt 0.843793 0.879869
vt 0.799288 0.879867
vt 0.843794 0.831349
vt 0.799288 0.831345
vt 0.843792 0.779275
vt 0.799288 0.779275
vt 0.843794 0.727203
vt 0.799288 0.727205
vt 0.843796 0.678685
vt 0.799288 0.678683
vt 0.799288 0.637017
vt 0.900880 0.831350
vt 0.900874 0.779274
vt 0.900879 0.727200
vt 0.754789 0.678685
vt 0.754785 0.727204
vt 0.754781 0.779276
vt 0.754784 0.831346
vt 0.754787 0.879863
vt 0.697695 0.727202
vt 0.697692 0.779277
vt 0.697695 0.831349
vn 0.662134 0.730258 -0.168229
vn 0.681002 0.728040 -0.078701
vn 0.563314 0.823558 -0.066557
vn 0.546859 0.825259 -0.141044
vn 0.423650 0.720542 -0.548943
vn 0.488843 0.725210 -0.484875
vn 0.402526 0.821054 -0.404777
vn 0.348693 0.817305 -0.458723
vn 0.596330 0.728129 -0.337963
vn 0.492049 0.823486 -0.282414
vn 0.657807 0.749310 -0.076321
vn 0.639379 0.751441 -0.162885
vn 0.471791 0.746558 -0.469111
vn 0.408857 0.742057 -0.531214
vn 0.575739 0.749382 -0.327033
vn 0.843496 0.528664 -0.095018
vn 0.822131 0.530985 -0.205321
vn 0.609015 0.524776 -0.594737
vn 0.527676 0.519463 -0.672098
vn 0.741202 0.528367 -0.414063
vn 0.963291 0.246579 -0.106159
vn 0.940834 0.247416 -0.231555
vn 0.698911 0.240368 -0.673607
vn 0.605431 0.236152 -0.760056
vn 0.848967 0.244444 -0.468511
vn 0.993935 0.020735 -0.107996
vn 0.971351 0.019703 -0.236833
vn 0.722867 0.012463 -0.690875
vn 0.626533 0.010031 -0.779330
vn 0.876992 0.016650 -0.480216
vn 0.972947 -0.206186 -0.104224
vn 0.950568 -0.209051 -0.229603
vn 0.708646 -0.216100 -0.671656
vn 0.615087 -0.216612 -0.758121
vn 0.858701 -0.212023 -0.466560
vn 0.927040 -0.361870 -0.098217
vn 0.905092 -0.365652 -0.217042
vn 0.675652 -0.372337 -0.636286
vn 0.587369 -0.371766 -0.718879
vn 0.817965 -0.368470 -0.441772
vn 0.202498 0.971103 -0.126305
vn -0.022776 0.003786 0.999733
vn -0.022776 0.003787 0.999733
vn -0.022776 0.003787 0.999733
vn -0.022776 0.003786 0.999734
vn -0.854216 -0.020439 -0.519516
vn -0.854216 -0.020437 -0.519517
vn -0.854216 -0.020437 -0.519517
vn -0.854216 -0.020439 -0.519516
vn -0.022775 0.003787 0.999733
vn -0.022776 0.003786 0.999733
vn -0.854216 -0.020437 -0.519517
vn -0.854215 -0.020437 -0.519517
vn -0.022776 0.003787 0.999733
vn -0.022775 0.003787 0.999733
vn -0.854217 -0.020438 -0.519515
vn -0.854216 -0.020438 -0.519516
vn -0.022774 0.003788 0.999733
vn -0.022775 0.003788 0.999733
vn -0.854216 -0.020438 -0.519517
vn -0.854216 -0.020438 -0.519516
vn -0.022774 0.003787 0.999733
vn -0.022775 0.003787 0.999733
vn -0.854216 -0.020438 -0.519517
vn -0.854216 -0.020438 -0.519516
vn -0.022774 0.003787 0.999733
vn -0.022776 0.003787 0.999733
vn -0.854216 -0.020438 -0.519517
vn -0.854216 -0.020438 -0.519516
vn -0.022776 0.003787 0.999733
vn -0.854217 -0.020437 -0.519516
vn -0.854216 -0.020438 -0.519517
vn -0.854215 -0.020437 -0.519517
vn -0.854215 -0.020438 -0.519518
vn -0.854215 -0.020438 -0.519518
vn -0.854216 -0.020438 -0.519517
vn -0.854215 -0.020438 -0.519518
vn -0.854216 -0.020437 -0.519517
vn -0.854215 -0.020438 -0.519518
vn -0.854215 -0.020438 -0.519517
vn -0.854215 -0.020437 -0.519518
vn -0.854215 -0.020436 -0.519518
vn -0.854216 -0.020438 -0.519516
vn -0.854216 -0.020437 -0.519516
vn -0.854216 -0.020438 -0.519516
vn -0.854216 -0.020437 -0.519516
vn -0.022778 0.003786 0.999733
vn -0.022777 0.003787 0.999733
vn -0.022779 0.003787 0.999733
vn -0.022777 0.003787 0.999734
vn -0.022779 0.003787 0.999733
vn -0.022777 0.003787 0.999733
vn -0.022779 0.003787 0.999733
vn -0.022777 0.003787 0.999733
vn -0.022779 0.003787 0.999733
vn -0.022777 0.003787 0.999733
vn -0.022779 0.003787 0.999733
vn -0.022775 0.003787 0.999733
vn -0.022775 0.003787 0.999733
vn -0.022775 0.003787 0.999733
vn -0.022775 0.003787 0.999734
s 1
g FoodRBuckTeeth
usemtl delete11:blinn2SG
f 1/1/1 2/2/2 7/3/3 6/4/4
f 3/5/5 4/6/6 9/7/7 8/8/8
f 4/6/6 5/9/9 10/10/10 9/7/7
f 5/9/9 1/1/1 6/4/4 10/10/10
f 6/4/4 7/3/3 12/11/11 11/12/12
f 8/8/8 9/7/7 14/13/13 13/14/14
f 9/7/7 10/10/10 15/15/15 14/13/13
f 10/10/10 6/4/4 11/12/12 15/15/15
f 11/12/12 12/11/11 17/16/16 16/17/17
f 13/14/14 14/13/13 19/18/18 18/19/19
f 14/13/13 15/15/15 20/20/20 19/18/18
f 15/15/15 11/12/12 16/17/17 20/20/20
f 16/17/17 17/16/16 22/21/21 21/22/22
f 18/19/19 19/18/18 24/23/23 23/24/24
f 19/18/18 20/20/20 25/25/25 24/23/23
f 20/20/20 16/17/17 21/22/22 25/25/25
f 21/22/22 22/21/21 27/26/26 26/27/27
f 23/24/24 24/23/23 29/28/28 28/29/29
f 24/23/23 25/25/25 30/30/30 29/28/28
f 25/25/25 21/22/22 26/27/27 30/30/30
f 26/27/27 27/26/26 32/31/31 31/32/32
f 28/29/29 29/28/28 34/33/33 33/34/34
f 29/28/28 30/30/30 35/35/35 34/33/33
f 30/30/30 26/27/27 31/32/32 35/35/35
f 31/32/32 32/31/31 37/36/36 36/37/37
f 33/34/34 34/33/33 39/38/38 38/39/39
f 34/33/33 35/35/35 40/40/40 39/38/38
f 35/35/35 31/32/32 36/37/37 40/40/40
f 2/2/2 1/1/1 41/41/41
f 4/6/6 3/5/5 41/41/41
f 5/9/9 4/6/6 41/41/41
f 1/1/1 5/9/9 41/41/41
s 3
f 7/42/42 2/43/43 41/44/44 42/45/45
s 4
f 3/46/46 8/47/47 42/45/48 41/44/49
s 3
f 12/48/50 7/42/42 63/49/51
s 4
f 8/47/47 13/50/52 54/51/53
s 3
f 17/52/54 12/48/50 69/53/55
s 4
f 13/50/52 18/54/56 59/55/57
s 3
f 22/56/58 17/52/54 74/57/59
s 4
f 18/54/56 23/58/60 62/59/61
s 3
f 27/60/62 22/56/58 74/57/59 75/61/63
s 4
f 23/58/60 28/62/64 61/63/65 62/59/61
s 3
f 32/64/66 27/60/62 75/61/63 76/65/67
s 4
f 28/62/64 33/66/68 60/67/69 61/63/65
s 3
f 37/68/70 32/64/66 76/65/67
s 4
f 33/66/68 38/69/71 60/67/69
f 50/74/72 49/72/73 48/73/74 47/75/75
f 51/76/76 50/74/72 47/75/75 46/77/77
f 52/78/78 51/76/76 46/77/77 45/79/79
f 53/80/80 52/78/78 45/79/79 44/81/81
f 54/51/53 53/80/80 44/81/81 43/82/82
f 8/47/47 54/51/53 43/82/82 42/45/48
f 56/83/83 55/71/84 49/72/73 50/74/72
f 57/84/85 56/83/83 50/74/72 51/76/76
f 58/85/86 57/84/85 51/76/76 52/78/78
f 59/55/57 58/85/86 52/78/78 53/80/80
f 13/50/52 59/55/57 53/80/80 54/51/53
f 60/67/69 38/69/71 55/71/84 56/83/83
f 61/63/65 60/67/69 56/83/83 57/84/85
f 62/59/61 61/63/65 57/84/85 58/85/86
f 18/54/56 62/59/61 58/85/86 59/55/57
s 3
f 63/49/51 7/42/42 42/45/45 43/82/87
f 64/86/88 63/49/51 43/82/87 44/81/89
f 65/87/90 64/86/88 44/81/89 45/79/91
f 66/88/92 65/87/90 45/79/91 46/77/93
f 67/89/94 66/88/92 46/77/93 47/75/95
f 68/90/96 67/89/94 47/75/95 48/73/97
f 69/53/55 12/48/50 63/49/51 64/86/88
f 70/91/98 69/53/55 64/86/88 65/87/90
f 71/92/99 70/91/98 65/87/90 66/88/92
f 72/93/100 71/92/99 66/88/92 67/89/94
f 73/70/101 72/93/100 67/89/94 68/90/96
f 74/57/59 17/52/54 69/53/55 70/91/98
f 75/61/63 74/57/59 70/91/98 71/92/99
f 76/65/67 75/61/63 71/92/99 72/93/100
f 37/68/70 76/65/67 72/93/100 73/70/101
