# This file uses centimeters as units for non-parametric coordinates.

mtllib LimeMediumRLowerArm.mtl
g default
v 1.148005 -0.044286 0.245205
v 1.148005 -0.089549 0.263954
v 1.148005 0.098121 0.263953
v 1.148005 0.052859 0.245205
v 1.148005 0.004286 0.238810
v 0.998155 -0.072232 0.140908
v 0.998155 -0.143536 0.170443
v 0.998155 0.152108 0.170443
v 0.998155 0.080804 0.140908
v 0.998155 0.004286 0.130834
v 0.759779 -0.170380 -0.225387
v 0.759779 -0.333144 -0.157968
v 0.759779 0.341716 -0.157969
v 0.759779 0.178952 -0.225387
v 0.759779 0.004286 -0.248383
v 0.449120 -0.242329 -0.493908
v 0.449119 -0.472140 -0.398718
v 0.449119 0.480712 -0.398718
v 0.449120 0.250902 -0.493909
v 0.449120 0.004286 -0.526376
v 0.087349 -0.281263 -0.639209
v 0.087349 -0.547353 -0.528991
v 0.087349 0.555925 -0.528992
v 0.087349 0.289836 -0.639210
v 0.087349 0.004286 -0.676803
v -0.300879 -0.289841 -0.671223
v -0.300880 -0.563924 -0.557695
v -0.300880 0.572496 -0.557695
v -0.300879 0.298414 -0.671224
v -0.300879 0.004286 -0.709947
v -0.689108 -0.281263 -0.639213
v -0.689109 -0.547353 -0.528995
v -0.689109 0.555925 -0.528995
v -0.689108 0.289836 -0.639213
v -0.689108 0.004286 -0.676807
v -1.050880 -0.242329 -0.493915
v -1.050880 -0.472140 -0.398724
v -1.050880 0.480712 -0.398725
v -1.050880 0.250902 -0.493915
v -1.050880 0.004286 -0.526383
v -1.361541 -0.170380 -0.225396
v -1.361542 -0.333144 -0.157977
v -1.361542 0.341716 -0.157978
v -1.361541 0.178952 -0.225397
v -1.361541 0.004286 -0.248392
v -1.599921 -0.072232 0.140897
v -1.599921 -0.143536 0.170432
v -1.599921 0.152108 0.170431
v -1.599921 0.080804 0.140896
v -1.599921 0.004286 0.130823
v -1.749772 -0.044286 0.245193
v -1.749772 -0.089549 0.263941
v -1.749772 0.098121 0.263941
v -1.749772 0.052859 0.245193
v -1.749772 0.004286 0.238798
v 1.199116 0.004286 0.426480
v -1.800884 0.004286 0.426467
v 0.998154 0.004286 0.426479
v 0.759776 0.004287 0.426478
v 0.449116 0.004287 0.426476
v 0.087344 0.004287 0.426474
v -0.300884 0.004287 0.426473
v -0.689113 0.004287 0.426471
v -1.050884 0.004287 0.426470
v -1.361544 0.004287 0.426469
v -1.599922 0.004286 0.426468
v -1.361543 0.152108 0.170432
v -1.050883 0.152108 0.170434
v -0.689112 0.152108 0.170436
v -0.300883 0.152108 0.170437
v 0.087346 0.152108 0.170439
v 0.449117 0.152108 0.170441
v 0.759777 0.152108 0.170442
v -1.050882 0.341716 -0.157977
v -0.689110 0.341716 -0.157975
v -0.300882 0.341716 -0.157973
v 0.087347 0.341716 -0.157972
v 0.449118 0.341716 -0.157970
v -0.689109 0.480712 -0.398723
v -0.300881 0.480712 -0.398721
v 0.087348 0.480712 -0.398720
v 0.759777 -0.143536 0.170442
v 0.449117 -0.143536 0.170441
v 0.087346 -0.143536 0.170439
v -0.300883 -0.143536 0.170438
v -0.689112 -0.143536 0.170436
v -1.050883 -0.143536 0.170434
v -1.361543 -0.143536 0.170433
v 0.449118 -0.333144 -0.157969
v 0.087347 -0.333144 -0.157972
v -0.300882 -0.333144 -0.157973
v -0.689110 -0.333144 -0.157975
v -1.050882 -0.333144 -0.157976
v 0.087348 -0.472140 -0.398719
v -0.300881 -0.472140 -0.398721
v -0.689109 -0.472140 -0.398723
vt 0.207690 0.454183
vt 0.213220 0.452194
vt 0.223087 0.473624
vt 0.213170 0.476977
vt 0.191970 0.451998
vt 0.197487 0.454018
vt 0.192354 0.476984
vt 0.182396 0.473652
vt 0.203287 0.454703
vt 0.202787 0.478097
vt 0.249716 0.529960
vt 0.226469 0.536793
vt 0.179225 0.536881
vt 0.155929 0.530134
vt 0.202856 0.539049
vt 0.268998 0.585450
vt 0.235595 0.592040
vt 0.170317 0.592193
vt 0.136887 0.585773
vt 0.202960 0.594177
vt 0.279871 0.639990
vt 0.240647 0.643757
vt 0.165501 0.643895
vt 0.126334 0.640293
vt 0.203065 0.644999
vt 0.283219 0.695327
vt 0.242337 0.695542
vt 0.163965 0.695598
vt 0.123176 0.695438
vt 0.203137 0.695631
vt 0.280620 0.750886
vt 0.241056 0.747532
vt 0.165264 0.747526
vt 0.125739 0.750853
vt 0.203153 0.746468
vt 0.270489 0.806169
vt 0.236404 0.799909
vt 0.169880 0.799896
vt 0.135789 0.806135
vt 0.203143 0.797925
vt 0.251824 0.863322
vt 0.227632 0.856627
vt 0.178641 0.856628
vt 0.154444 0.863325
vt 0.203138 0.854450
vt 0.225292 0.922931
vt 0.214483 0.919669
vt 0.191810 0.919677
vt 0.180997 0.922933
vt 0.203143 0.918592
vt 0.216654 0.948219
vt 0.209991 0.946061
vt 0.196308 0.946059
vt 0.189634 0.948220
vt 0.203139 0.945330
vt 0.202891 0.432913
vt 0.203143 0.973104
vt 0.754775 0.605044
vt 0.771027 0.584945
vt 0.799288 0.578092
vt 0.799288 0.605045
vt 0.827572 0.584939
vt 0.843812 0.605051
vt 0.697696 0.637011
vt 0.754783 0.637015
vt 0.900875 0.637009
vt 0.843801 0.637018
vt 0.655845 0.678687
vt 0.697699 0.678681
vt 0.942741 0.678675
vt 0.900881 0.678676
vt 0.633204 0.727205
vt 0.655847 0.727205
vt 0.965374 0.727209
vt 0.942730 0.727203
vt 0.628213 0.779277
vt 0.655845 0.779277
vt 0.970353 0.779273
vt 0.942722 0.779274
vt 0.633206 0.831345
vt 0.655847 0.831346
vt 0.965375 0.831343
vt 0.942730 0.831347
vt 0.655838 0.879864
vt 0.942734 0.879876
vt 0.697697 0.921542
vt 0.697696 0.879869
vt 0.900876 0.921540
vt 0.900878 0.879876
vt 0.754777 0.953502
vt 0.754783 0.921533
vt 0.843813 0.953504
vt 0.843801 0.921536
vt 0.771022 0.973601
vt 0.799288 0.953506
vt 0.799288 0.980459
vt 0.827568 0.973616
vt 0.799288 0.921534
vt 0.843793 0.879869
vt 0.799288 0.879867
vt 0.843794 0.831349
vt 0.799288 0.831345
vt 0.843792 0.779275
vt 0.799288 0.779275
vt 0.843794 0.727203
vt 0.799288 0.727205
vt 0.843796 0.678685
vt 0.799288 0.678683
vt 0.799288 0.637017
vt 0.900880 0.831350
vt 0.900874 0.779274
vt 0.900879 0.727200
vt 0.754789 0.678685
vt 0.754785 0.727204
vt 0.754781 0.779276
vt 0.754784 0.831346
vt 0.754787 0.879863
vt 0.697695 0.727202
vt 0.697692 0.779277
vt 0.697695 0.831349
vn 0.716690 -0.180500 -0.673628
vn 0.713687 -0.268054 -0.647146
vn 0.811639 -0.223548 -0.539692
vn 0.814009 -0.150337 -0.561059
vn 0.713688 0.268056 -0.647144
vn 0.716690 0.180499 -0.673628
vn 0.814009 0.150337 -0.561060
vn 0.811639 0.223549 -0.539692
vn 0.716690 -0.000001 -0.697392
vn 0.814010 -0.000001 -0.580851
vn 0.735436 -0.259305 -0.626015
vn 0.738330 -0.174560 -0.651458
vn 0.738330 0.174559 -0.651459
vn 0.735436 0.259305 -0.626015
vn 0.738330 -0.000001 -0.674439
vn 0.510965 -0.328956 -0.794168
vn 0.514211 -0.221981 -0.828439
vn 0.514212 0.221980 -0.828439
vn 0.510965 0.328957 -0.794168
vn 0.514212 -0.000001 -0.857663
vn 0.226440 -0.372744 -0.899882
vn 0.228292 -0.251986 -0.940418
vn 0.228292 0.251985 -0.940418
vn 0.226439 0.372745 -0.899881
vn 0.228292 -0.000001 -0.973593
vn 0.000004 -0.382684 -0.923880
vn 0.000004 -0.258820 -0.965926
vn 0.000004 0.258819 -0.965926
vn 0.000004 0.382685 -0.923879
vn 0.000004 -0.000001 -1.000000
vn -0.226432 -0.372744 -0.899884
vn -0.228284 -0.251986 -0.940420
vn -0.228284 0.251985 -0.940420
vn -0.226432 0.372745 -0.899883
vn -0.228283 -0.000001 -0.973595
vn -0.510958 -0.328956 -0.794173
vn -0.514204 -0.221981 -0.828443
vn -0.514205 0.221980 -0.828443
vn -0.510958 0.328957 -0.794172
vn -0.514204 -0.000001 -0.857668
vn -0.735431 -0.259305 -0.626021
vn -0.738324 -0.174560 -0.651465
vn -0.738324 0.174559 -0.651465
vn -0.735431 0.259305 -0.626021
vn -0.738324 -0.000001 -0.674446
vn -0.811634 -0.223548 -0.539700
vn -0.814004 -0.150337 -0.561067
vn -0.814004 0.150337 -0.561067
vn -0.811634 0.223549 -0.539699
vn -0.814005 -0.000001 -0.580858
vn -0.713682 -0.268054 -0.647151
vn -0.716684 -0.180500 -0.673634
vn -0.716684 0.180500 -0.673635
vn -0.713682 0.268056 -0.647151
vn -0.716683 -0.000001 -0.697399
vn 0.967097 -0.000000 -0.254407
vn -0.967095 -0.000000 -0.254415
vn -0.000003 -0.866025 0.500001
vn -0.000002 -0.866025 0.500000
vn -0.000002 -0.866025 0.500000
vn -0.000003 -0.866025 0.500001
vn -0.000004 0.866025 0.500000
vn -0.000001 0.866026 0.499999
vn -0.000002 0.866026 0.499999
vn -0.000004 0.866025 0.500000
vn -0.000002 -0.866025 0.500000
vn -0.000003 -0.866025 0.500001
vn -0.000002 0.866026 0.500000
vn -0.000001 0.866026 0.499999
vn -0.000002 -0.866025 0.500000
vn -0.000002 -0.866025 0.500000
vn -0.000002 0.866025 0.500001
vn -0.000002 0.866026 0.500000
vn -0.000002 -0.866026 0.499999
vn -0.000002 -0.866025 0.500000
vn -0.000002 0.866026 0.499999
vn -0.000002 0.866025 0.500000
vn -0.000002 -0.866026 0.499999
vn -0.000002 -0.866025 0.500000
vn -0.000002 0.866026 0.499999
vn -0.000002 0.866026 0.500000
vn -0.000003 -0.866026 0.499999
vn -0.000002 -0.866025 0.500000
vn -0.000003 0.866026 0.499999
vn -0.000002 0.866025 0.500000
vn -0.000002 -0.866025 0.500000
vn -0.000002 0.866025 0.500001
vn -0.000002 -0.866025 0.500000
vn -0.000002 -0.866025 0.500000
vn -0.000002 0.866026 0.500000
vn -0.000002 0.866025 0.500000
vn -0.000001 -0.866025 0.500001
vn -0.000002 -0.866025 0.500001
vn -0.000003 0.866026 0.499999
vn -0.000003 0.866026 0.499999
vn -0.000001 -0.866026 0.500000
vn -0.000001 -0.866025 0.500001
vn -0.000001 -0.866026 0.500000
vn -0.000001 0.866026 0.500000
vn -0.000001 0.866026 0.500000
vn -0.000003 0.866026 0.499999
vn -0.000003 0.866027 0.499998
vn -0.000002 0.866026 0.499999
vn -0.000002 0.866027 0.499998
vn -0.000002 0.866026 0.499999
vn -0.000002 0.866026 0.499998
vn -0.000002 0.866026 0.499999
vn -0.000002 0.866026 0.499998
vn -0.000002 0.866026 0.499999
vn -0.000002 0.866026 0.499998
vn -0.000002 0.866026 0.499999
vn -0.000002 0.866027 0.499998
vn -0.000001 0.866027 0.499998
vn -0.000002 0.866026 0.500000
vn -0.000002 0.866026 0.500000
vn -0.000002 0.866026 0.500000
vn -0.000003 -0.866024 0.500002
vn -0.000002 -0.866025 0.500001
vn -0.000002 -0.866024 0.500003
vn -0.000002 -0.866025 0.500001
vn -0.000002 -0.866024 0.500003
vn -0.000002 -0.866025 0.500001
vn -0.000002 -0.866023 0.500004
vn -0.000002 -0.866025 0.500001
vn -0.000002 -0.866024 0.500003
vn -0.000002 -0.866025 0.500001
vn -0.000002 -0.866024 0.500003
vn -0.000001 -0.866024 0.500002
vn -0.000002 -0.866025 0.500000
vn -0.000002 -0.866025 0.500000
vn -0.000002 -0.866025 0.500000
s 1
g FoodMediumRLowerArm
usemtl delete11:blinn2SG
f 1/1/1 2/2/2 7/3/3 6/4/4
f 3/5/5 4/6/6 9/7/7 8/8/8
f 4/6/6 5/9/9 10/10/10 9/7/7
f 5/9/9 1/1/1 6/4/4 10/10/10
f 6/4/4 7/3/3 12/11/11 11/12/12
f 8/8/8 9/7/7 14/13/13 13/14/14
f 9/7/7 10/10/10 15/15/15 14/13/13
f 10/10/10 6/4/4 11/12/12 15/15/15
f 11/12/12 12/11/11 17/16/16 16/17/17
f 13/14/14 14/13/13 19/18/18 18/19/19
f 14/13/13 15/15/15 20/20/20 19/18/18
f 15/15/15 11/12/12 16/17/17 20/20/20
f 16/17/17 17/16/16 22/21/21 21/22/22
f 18/19/19 19/18/18 24/23/23 23/24/24
f 19/18/18 20/20/20 25/25/25 24/23/23
f 20/20/20 16/17/17 21/22/22 25/25/25
f 21/22/22 22/21/21 27/26/26 26/27/27
f 23/24/24 24/23/23 29/28/28 28/29/29
f 24/23/23 25/25/25 30/30/30 29/28/28
f 25/25/25 21/22/22 26/27/27 30/30/30
f 26/27/27 27/26/26 32/31/31 31/32/32
f 28/29/29 29/28/28 34/33/33 33/34/34
f 29/28/28 30/30/30 35/35/35 34/33/33
f 30/30/30 26/27/27 31/32/32 35/35/35
f 31/32/32 32/31/31 37/36/36 36/37/37
f 33/34/34 34/33/33 39/38/38 38/39/39
f 34/33/33 35/35/35 40/40/40 39/38/38
f 35/35/35 31/32/32 36/37/37 40/40/40
f 36/37/37 37/36/36 42/41/41 41/42/42
f 38/39/39 39/38/38 44/43/43 43/44/44
f 39/38/38 40/40/40 45/45/45 44/43/43
f 40/40/40 36/37/37 41/42/42 45/45/45
f 41/42/42 42/41/41 47/46/46 46/47/47
f 43/44/44 44/43/43 49/48/48 48/49/49
f 44/43/43 45/45/45 50/50/50 49/48/48
f 45/45/45 41/42/42 46/47/47 50/50/50
f 46/47/47 47/46/46 52/51/51 51/52/52
f 48/49/49 49/48/48 54/53/53 53/54/54
f 49/48/48 50/50/50 55/55/55 54/53/53
f 50/50/50 46/47/47 51/52/52 55/55/55
f 2/2/2 1/1/1 56/56/56
f 4/6/6 3/5/5 56/56/56
f 5/9/9 4/6/6 56/56/56
f 1/1/1 5/9/9 56/56/56
f 51/52/52 52/51/51 57/57/57
f 53/54/54 54/53/53 57/57/57
f 54/53/53 55/55/55 57/57/57
f 55/55/55 51/52/52 57/57/57
s 3
f 7/58/58 2/59/59 56/60/60 58/61/61
s 4
f 3/62/62 8/63/63 58/61/64 56/60/65
s 3
f 12/64/66 7/58/58 82/65/67
s 4
f 8/63/63 13/66/68 73/67/69
s 3
f 17/68/70 12/64/66 89/69/71
s 4
f 13/66/68 18/70/72 78/71/73
s 3
f 22/72/74 17/68/70 94/73/75
s 4
f 18/70/72 23/74/76 81/75/77
s 3
f 27/76/78 22/72/74 94/73/75 95/77/79
s 4
f 23/74/76 28/78/80 80/79/81 81/75/77
s 3
f 32/80/82 27/76/78 95/77/79 96/81/83
s 4
f 28/78/80 33/82/84 79/83/85 80/79/81
s 3
f 37/84/86 32/80/82 96/81/83
s 4
f 33/82/84 38/85/87 79/83/85
s 3
f 42/86/88 37/84/86 93/87/89
s 4
f 38/85/87 43/88/90 74/89/91
s 3
f 47/90/92 42/86/88 88/91/93
s 4
f 43/88/90 48/92/94 67/93/95
s 3
f 52/94/96 47/90/92 66/95/97 57/96/98
s 4
f 48/92/94 53/97/99 57/96/100 66/95/101
f 67/93/95 48/92/94 66/95/101 65/98/102
f 68/99/103 67/93/95 65/98/102 64/100/104
f 69/101/105 68/99/103 64/100/104 63/102/106
f 70/103/107 69/101/105 63/102/106 62/104/108
f 71/105/109 70/103/107 62/104/108 61/106/110
f 72/107/111 71/105/109 61/106/110 60/108/112
f 73/67/69 72/107/111 60/108/112 59/109/113
f 8/63/63 73/67/69 59/109/113 58/61/64
f 74/89/91 43/88/90 67/93/95 68/99/103
f 75/110/114 74/89/91 68/99/103 69/101/105
f 76/111/115 75/110/114 69/101/105 70/103/107
f 77/112/116 76/111/115 70/103/107 71/105/109
f 78/71/73 77/112/116 71/105/109 72/107/111
f 13/66/68 78/71/73 72/107/111 73/67/69
f 79/83/85 38/85/87 74/89/91 75/110/114
f 80/79/81 79/83/85 75/110/114 76/111/115
f 81/75/77 80/79/81 76/111/115 77/112/116
f 18/70/72 81/75/77 77/112/116 78/71/73
s 3
f 82/65/67 7/58/58 58/61/61 59/109/117
f 83/113/118 82/65/67 59/109/117 60/108/119
f 84/114/120 83/113/118 60/108/119 61/106/121
f 85/115/122 84/114/120 61/106/121 62/104/123
f 86/116/124 85/115/122 62/104/123 63/102/125
f 87/117/126 86/116/124 63/102/125 64/100/127
f 88/91/93 87/117/126 64/100/127 65/98/128
f 47/90/92 88/91/93 65/98/128 66/95/97
f 89/69/71 12/64/66 82/65/67 83/113/118
f 90/118/129 89/69/71 83/113/118 84/114/120
f 91/119/130 90/118/129 84/114/120 85/115/122
f 92/120/131 91/119/130 85/115/122 86/116/124
f 93/87/89 92/120/131 86/116/124 87/117/126
f 42/86/88 93/87/89 87/117/126 88/91/93
f 94/73/75 17/68/70 89/69/71 90/118/129
f 95/77/79 94/73/75 90/118/129 91/119/130
f 96/81/83 95/77/79 91/119/130 92/120/131
f 37/84/86 96/81/83 92/120/131 93/87/89
