# This file uses centimeters as units for non-parametric coordinates.

mtllib LimeTallRUpperArm.mtl
g default
v 1.565492 0.048851 -0.125326
v 1.565493 0.097328 -0.145405
v 1.565493 -0.103666 -0.145405
v 1.565492 -0.055190 -0.125326
v 1.565491 -0.003169 -0.118477
v 1.404995 0.078782 -0.013634
v 1.404997 0.155149 -0.045265
v 1.404997 -0.161487 -0.045265
v 1.404995 -0.085120 -0.013633
v 1.404994 -0.003169 -0.002844
v 1.149669 0.183899 0.378652
v 1.149673 0.358219 0.306447
v 1.149673 -0.364556 0.306447
v 1.149669 -0.190236 0.378653
v 1.149668 -0.003169 0.403281
v 0.816935 0.260956 0.666217
v 0.816941 0.507084 0.564268
v 0.816941 -0.513421 0.564269
v 0.816935 -0.267295 0.666218
v 0.816933 -0.003169 0.700991
v 0.429469 0.302654 0.821810
v 0.429476 0.587636 0.703767
v 0.429476 -0.593974 0.703768
v 0.429469 -0.308993 0.821811
v 0.429466 -0.003169 0.862073
v 0.013674 0.311842 0.856071
v 0.013681 0.605384 0.734482
v 0.013681 -0.611721 0.734482
v 0.013674 -0.318179 0.856072
v 0.013672 -0.003169 0.897544
v -0.402117 0.302654 0.821762
v -0.402110 0.587636 0.703718
v -0.402110 -0.593974 0.703719
v -0.402117 -0.308993 0.821762
v -0.402119 -0.003169 0.862025
v -0.789565 0.260956 0.666123
v -0.789559 0.507084 0.564174
v -0.789559 -0.513421 0.564174
v -0.789565 -0.267295 0.666123
v -0.789567 -0.003169 0.700896
v -1.122265 0.183899 0.378519
v -1.122261 0.358219 0.306313
v -1.122261 -0.364556 0.306313
v -1.122265 -0.190236 0.378519
v -1.122266 -0.003169 0.403147
v -1.377545 0.078782 -0.013797
v -1.377543 0.155149 -0.045429
v -1.377543 -0.161487 -0.045429
v -1.377545 -0.085120 -0.013797
v -1.377545 -0.003169 -0.003008
v -1.538028 0.048851 -0.125509
v -1.538027 0.097328 -0.145588
v -1.538027 -0.103666 -0.145588
v -1.538028 -0.055190 -0.125509
v -1.538029 -0.003169 -0.118660
v 1.620243 -0.003169 -0.319467
v -1.592757 -0.003169 -0.319657
v 1.405013 -0.003169 -0.319480
v 1.149710 -0.003170 -0.319495
v 0.816993 -0.003170 -0.319514
v 0.429536 -0.003170 -0.319537
v 0.013743 -0.003170 -0.319561
v -0.402050 -0.003170 -0.319586
v -0.789507 -0.003170 -0.319609
v -1.122224 -0.003170 -0.319629
v -1.377527 -0.003169 -0.319644
v -1.122240 -0.161487 -0.045414
v -0.789523 -0.161487 -0.045395
v -0.402066 -0.161487 -0.045372
v 0.013727 -0.161487 -0.045348
v 0.429520 -0.161487 -0.045323
v 0.816977 -0.161487 -0.045300
v 1.149694 -0.161487 -0.045280
v -0.789544 -0.364556 0.306333
v -0.402086 -0.364556 0.306356
v 0.013706 -0.364556 0.306380
v 0.429499 -0.364556 0.306405
v 0.816956 -0.364556 0.306428
v -0.402102 -0.513421 0.564197
v 0.013691 -0.513421 0.564221
v 0.429484 -0.513421 0.564246
v 1.149694 0.155149 -0.045281
v 0.816977 0.155149 -0.045300
v 0.429520 0.155149 -0.045323
v 0.013727 0.155149 -0.045348
v -0.402066 0.155149 -0.045372
v -0.789523 0.155149 -0.045395
v -1.122240 0.155149 -0.045414
v 0.816956 0.358219 0.306427
v 0.429499 0.358219 0.306405
v 0.013706 0.358219 0.306380
v -0.402086 0.358219 0.306356
v -0.789544 0.358219 0.306332
v 0.429484 0.507084 0.564246
v 0.013691 0.507084 0.564221
v -0.402102 0.507084 0.564197
vt 0.207690 0.454183
vt 0.213220 0.452194
vt 0.223087 0.473624
vt 0.213170 0.476977
vt 0.191970 0.451998
vt 0.197487 0.454018
vt 0.192354 0.476984
vt 0.182396 0.473652
vt 0.203287 0.454703
vt 0.202787 0.478097
vt 0.249716 0.529960
vt 0.226469 0.536793
vt 0.179225 0.536881
vt 0.155929 0.530134
vt 0.202856 0.539049
vt 0.268998 0.585450
vt 0.235595 0.592040
vt 0.170317 0.592193
vt 0.136887 0.585773
vt 0.202960 0.594177
vt 0.279871 0.639990
vt 0.240647 0.643757
vt 0.165501 0.643895
vt 0.126334 0.640293
vt 0.203065 0.644999
vt 0.283219 0.695327
vt 0.242337 0.695542
vt 0.163965 0.695598
vt 0.123176 0.695438
vt 0.203137 0.695631
vt 0.280620 0.750886
vt 0.241056 0.747532
vt 0.165264 0.747526
vt 0.125739 0.750853
vt 0.203153 0.746468
vt 0.270489 0.806169
vt 0.236404 0.799909
vt 0.169880 0.799896
vt 0.135789 0.806135
vt 0.203143 0.797925
vt 0.251824 0.863322
vt 0.227632 0.856627
vt 0.178641 0.856628
vt 0.154444 0.863325
vt 0.203138 0.854450
vt 0.225292 0.922931
vt 0.214483 0.919669
vt 0.191810 0.919677
vt 0.180997 0.922933
vt 0.203143 0.918592
vt 0.216654 0.948219
vt 0.209991 0.946061
vt 0.196308 0.946059
vt 0.189634 0.948220
vt 0.203139 0.945330
vt 0.202891 0.432913
vt 0.203143 0.973104
vt 0.754775 0.605044
vt 0.771027 0.584945
vt 0.799288 0.578092
vt 0.799288 0.605045
vt 0.827572 0.584939
vt 0.843812 0.605051
vt 0.697696 0.637011
vt 0.754783 0.637015
vt 0.900875 0.637009
vt 0.843801 0.637018
vt 0.655845 0.678687
vt 0.697699 0.678681
vt 0.942741 0.678675
vt 0.900881 0.678676
vt 0.633204 0.727205
vt 0.655847 0.727205
vt 0.965374 0.727209
vt 0.942730 0.727203
vt 0.628213 0.779277
vt 0.655845 0.779277
vt 0.970353 0.779273
vt 0.942722 0.779274
vt 0.633206 0.831345
vt 0.655847 0.831346
vt 0.965375 0.831343
vt 0.942730 0.831347
vt 0.655838 0.879864
vt 0.942734 0.879876
vt 0.697697 0.921542
vt 0.697696 0.879869
vt 0.900876 0.921540
vt 0.900878 0.879876
vt 0.754777 0.953502
vt 0.754783 0.921533
vt 0.843813 0.953504
vt 0.843801 0.921536
vt 0.771022 0.973601
vt 0.799288 0.953506
vt 0.799288 0.980459
vt 0.827568 0.973616
vt 0.799288 0.921534
vt 0.843793 0.879869
vt 0.799288 0.879867
vt 0.843794 0.831349
vt 0.799288 0.831345
vt 0.843792 0.779275
vt 0.799288 0.779275
vt 0.843794 0.727203
vt 0.799288 0.727205
vt 0.843796 0.678685
vt 0.799288 0.678683
vt 0.799288 0.637017
vt 0.900880 0.831350
vt 0.900874 0.779274
vt 0.900879 0.727200
vt 0.754789 0.678685
vt 0.754785 0.727204
vt 0.754781 0.779276
vt 0.754784 0.831346
vt 0.754787 0.879863
vt 0.697695 0.727202
vt 0.697692 0.779277
vt 0.697695 0.831349
vn 0.716648 0.180500 0.673674
vn 0.713647 0.268054 0.647191
vn 0.811605 0.223548 0.539744
vn 0.813974 0.150337 0.561111
vn 0.713647 -0.268056 0.647189
vn 0.716648 -0.180499 0.673674
vn 0.813974 -0.150337 0.561111
vn 0.811605 -0.223549 0.539743
vn 0.716646 0.000001 0.697437
vn 0.813973 0.000001 0.580902
vn 0.735397 0.259305 0.626061
vn 0.738289 0.174560 0.651505
vn 0.738289 -0.174559 0.651505
vn 0.735397 -0.259305 0.626061
vn 0.738288 0.000001 0.674486
vn 0.510914 0.328956 0.794201
vn 0.514159 0.221981 0.828471
vn 0.514159 -0.221980 0.828471
vn 0.510915 -0.328957 0.794200
vn 0.514157 0.000001 0.857696
vn 0.226383 0.372744 0.899896
vn 0.228232 0.251986 0.940432
vn 0.228232 -0.251985 0.940433
vn 0.226383 -0.372745 0.899896
vn 0.228230 0.000001 0.973607
vn -0.000054 0.382684 0.923880
vn -0.000057 0.258820 0.965926
vn -0.000057 -0.258819 0.965926
vn -0.000054 -0.382685 0.923879
vn -0.000059 0.000001 1.000000
vn -0.226489 0.372744 0.899870
vn -0.228343 0.251986 0.940406
vn -0.228343 -0.251985 0.940406
vn -0.226488 -0.372745 0.899869
vn -0.228345 0.000001 0.973580
vn -0.511008 0.328956 0.794140
vn -0.514257 0.221981 0.828411
vn -0.514257 -0.221980 0.828411
vn -0.511008 -0.328957 0.794140
vn -0.514258 0.000001 0.857635
vn -0.735470 0.259305 0.625975
vn -0.738365 0.174560 0.651418
vn -0.738366 -0.174559 0.651418
vn -0.735471 -0.259305 0.625974
vn -0.738367 0.000001 0.674399
vn -0.811668 0.223548 0.539649
vn -0.814040 0.150337 0.561015
vn -0.814040 -0.150337 0.561015
vn -0.811669 -0.223549 0.539648
vn -0.814042 0.000001 0.580807
vn -0.713723 0.268054 0.647106
vn -0.716727 0.180500 0.673589
vn -0.716727 -0.180500 0.673590
vn -0.713723 -0.268056 0.647106
vn -0.716727 0.000001 0.697354
vn 0.967081 0.000000 0.254469
vn -0.967111 0.000000 0.254354
vn 0.000028 0.866025 -0.500001
vn 0.000029 0.866025 -0.500000
vn 0.000029 0.866025 -0.500000
vn 0.000028 0.866025 -0.500001
vn 0.000028 -0.866025 -0.500000
vn 0.000030 -0.866026 -0.499999
vn 0.000030 -0.866026 -0.499999
vn 0.000028 -0.866025 -0.500000
vn 0.000029 0.866025 -0.500000
vn 0.000029 0.866025 -0.500001
vn 0.000030 -0.866026 -0.500000
vn 0.000030 -0.866026 -0.499999
vn 0.000030 0.866025 -0.500000
vn 0.000030 0.866025 -0.500000
vn 0.000029 -0.866025 -0.500001
vn 0.000029 -0.866026 -0.500000
vn 0.000030 0.866026 -0.499999
vn 0.000030 0.866025 -0.500000
vn 0.000029 -0.866026 -0.499999
vn 0.000029 -0.866025 -0.500000
vn 0.000029 0.866026 -0.499999
vn 0.000029 0.866025 -0.500000
vn 0.000029 -0.866026 -0.499999
vn 0.000029 -0.866025 -0.500000
vn 0.000029 0.866026 -0.499999
vn 0.000029 0.866025 -0.500000
vn 0.000029 -0.866026 -0.499999
vn 0.000029 -0.866025 -0.500000
vn 0.000029 0.866025 -0.500000
vn 0.000030 -0.866025 -0.500001
vn 0.000029 0.866025 -0.500000
vn 0.000029 0.866025 -0.500000
vn 0.000029 -0.866026 -0.500000
vn 0.000030 -0.866026 -0.500000
vn 0.000031 0.866025 -0.500001
vn 0.000030 0.866025 -0.500001
vn 0.000028 -0.866026 -0.499999
vn 0.000029 -0.866026 -0.499999
vn 0.000030 0.866025 -0.500000
vn 0.000031 0.866025 -0.500001
vn 0.000030 0.866025 -0.500000
vn 0.000031 -0.866026 -0.500000
vn 0.000031 -0.866026 -0.500000
vn 0.000029 -0.866026 -0.499999
vn 0.000028 -0.866027 -0.499998
vn 0.000029 -0.866026 -0.499999
vn 0.000029 -0.866026 -0.499998
vn 0.000029 -0.866026 -0.499999
vn 0.000029 -0.866026 -0.499998
vn 0.000029 -0.866026 -0.499999
vn 0.000029 -0.866026 -0.499998
vn 0.000030 -0.866026 -0.499999
vn 0.000029 -0.866026 -0.499998
vn 0.000029 -0.866026 -0.499999
vn 0.000030 -0.866027 -0.499998
vn 0.000031 -0.866027 -0.499998
vn 0.000029 -0.866025 -0.500000
vn 0.000029 -0.866025 -0.500000
vn 0.000030 -0.866026 -0.500000
vn 0.000028 0.866024 -0.500002
vn 0.000029 0.866025 -0.500001
vn 0.000029 0.866024 -0.500003
vn 0.000029 0.866025 -0.500001
vn 0.000029 0.866023 -0.500003
vn 0.000029 0.866025 -0.500001
vn 0.000029 0.866023 -0.500004
vn 0.000029 0.866025 -0.500001
vn 0.000029 0.866023 -0.500003
vn 0.000030 0.866025 -0.500001
vn 0.000030 0.866024 -0.500003
vn 0.000031 0.866024 -0.500002
vn 0.000030 0.866025 -0.500000
vn 0.000029 0.866025 -0.500000
vn 0.000029 0.866025 -0.500000
s 1
g FoodTallRUpperArm
usemtl delete11:blinn2SG
f 1/1/1 2/2/2 7/3/3 6/4/4
f 3/5/5 4/6/6 9/7/7 8/8/8
f 4/6/6 5/9/9 10/10/10 9/7/7
f 5/9/9 1/1/1 6/4/4 10/10/10
f 6/4/4 7/3/3 12/11/11 11/12/12
f 8/8/8 9/7/7 14/13/13 13/14/14
f 9/7/7 10/10/10 15/15/15 14/13/13
f 10/10/10 6/4/4 11/12/12 15/15/15
f 11/12/12 12/11/11 17/16/16 16/17/17
f 13/14/14 14/13/13 19/18/18 18/19/19
f 14/13/13 15/15/15 20/20/20 19/18/18
f 15/15/15 11/12/12 16/17/17 20/20/20
f 16/17/17 17/16/16 22/21/21 21/22/22
f 18/19/19 19/18/18 24/23/23 23/24/24
f 19/18/18 20/20/20 25/25/25 24/23/23
f 20/20/20 16/17/17 21/22/22 25/25/25
f 21/22/22 22/21/21 27/26/26 26/27/27
f 23/24/24 24/23/23 29/28/28 28/29/29
f 24/23/23 25/25/25 30/30/30 29/28/28
f 25/25/25 21/22/22 26/27/27 30/30/30
f 26/27/27 27/26/26 32/31/31 31/32/32
f 28/29/29 29/28/28 34/33/33 33/34/34
f 29/28/28 30/30/30 35/35/35 34/33/33
f 30/30/30 26/27/27 31/32/32 35/35/35
f 31/32/32 32/31/31 37/36/36 36/37/37
f 33/34/34 34/33/33 39/38/38 38/39/39
f 34/33/33 35/35/35 40/40/40 39/38/38
f 35/35/35 31/32/32 36/37/37 40/40/40
f 36/37/37 37/36/36 42/41/41 41/42/42
f 38/39/39 39/38/38 44/43/43 43/44/44
f 39/38/38 40/40/40 45/45/45 44/43/43
f 40/40/40 36/37/37 41/42/42 45/45/45
f 41/42/42 42/41/41 47/46/46 46/47/47
f 43/44/44 44/43/43 49/48/48 48/49/49
f 44/43/43 45/45/45 50/50/50 49/48/48
f 45/45/45 41/42/42 46/47/47 50/50/50
f 46/47/47 47/46/46 52/51/51 51/52/52
f 48/49/49 49/48/48 54/53/53 53/54/54
f 49/48/48 50/50/50 55/55/55 54/53/53
f 50/50/50 46/47/47 51/52/52 55/55/55
f 2/2/2 1/1/1 56/56/56
f 4/6/6 3/5/5 56/56/56
f 5/9/9 4/6/6 56/56/56
f 1/1/1 5/9/9 56/56/56
f 51/52/52 52/51/51 57/57/57
f 53/54/54 54/53/53 57/57/57
f 54/53/53 55/55/55 57/57/57
f 55/55/55 51/52/52 57/57/57
s 3
f 7/58/58 2/59/59 56/60/60 58/61/61
s 4
f 3/62/62 8/63/63 58/61/64 56/60/65
s 3
f 12/64/66 7/58/58 82/65/67
s 4
f 8/63/63 13/66/68 73/67/69
s 3
f 17/68/70 12/64/66 89/69/71
s 4
f 13/66/68 18/70/72 78/71/73
s 3
f 22/72/74 17/68/70 94/73/75
s 4
f 18/70/72 23/74/76 81/75/77
s 3
f 27/76/78 22/72/74 94/73/75 95/77/79
s 4
f 23/74/76 28/78/80 80/79/81 81/75/77
s 3
f 32/80/82 27/76/78 95/77/79 96/81/83
s 4
f 28/78/80 33/82/84 79/83/85 80/79/81
s 3
f 37/84/86 32/80/82 96/81/83
s 4
f 33/82/84 38/85/87 79/83/85
s 3
f 42/86/88 37/84/86 93/87/89
s 4
f 38/85/87 43/88/90 74/89/91
s 3
f 47/90/92 42/86/88 88/91/93
s 4
f 43/88/90 48/92/94 67/93/95
s 3
f 52/94/96 47/90/92 66/95/97 57/96/98
s 4
f 48/92/94 53/97/99 57/96/100 66/95/101
f 67/93/95 48/92/94 66/95/101 65/98/102
f 68/99/103 67/93/95 65/98/102 64/100/104
f 69/101/105 68/99/103 64/100/104 63/102/106
f 70/103/107 69/101/105 63/102/106 62/104/108
f 71/105/109 70/103/107 62/104/108 61/106/110
f 72/107/111 71/105/109 61/106/110 60/108/112
f 73/67/69 72/107/111 60/108/112 59/109/113
f 8/63/63 73/67/69 59/109/113 58/61/64
f 74/89/91 43/88/90 67/93/95 68/99/103
f 75/110/114 74/89/91 68/99/103 69/101/105
f 76/111/115 75/110/114 69/101/105 70/103/107
f 77/112/116 76/111/115 70/103/107 71/105/109
f 78/71/73 77/112/116 71/105/109 72/107/111
f 13/66/68 78/71/73 72/107/111 73/67/69
f 79/83/85 38/85/87 74/89/91 75/110/114
f 80/79/81 79/83/85 75/110/114 76/111/115
f 81/75/77 80/79/81 76/111/115 77/112/116
f 18/70/72 81/75/77 77/112/116 78/71/73
s 3
f 82/65/67 7/58/58 58/61/61 59/109/117
f 83/113/118 82/65/67 59/109/117 60/108/119
f 84/114/120 83/113/118 60/108/119 61/106/121
f 85/115/122 84/114/120 61/106/121 62/104/123
f 86/116/124 85/115/122 62/104/123 63/102/125
f 87/117/126 86/116/124 63/102/125 64/100/127
f 88/91/93 87/117/126 64/100/127 65/98/128
f 47/90/92 88/91/93 65/98/128 66/95/97
f 89/69/71 12/64/66 82/65/67 83/113/118
f 90/118/129 89/69/71 83/113/118 84/114/120
f 91/119/130 90/118/129 84/114/120 85/115/122
f 92/120/131 91/119/130 85/115/122 86/116/124
f 93/87/89 92/120/131 86/116/124 87/117/126
f 42/86/88 93/87/89 87/117/126 88/91/93
f 94/73/75 17/68/70 89/69/71 90/118/129
f 95/77/79 94/73/75 90/118/129 91/119/130
f 96/81/83 95/77/79 91/119/130 92/120/131
f 37/84/86 96/81/83 92/120/131 93/87/89
