# This file uses centimeters as units for non-parametric coordinates.

mtllib WiggleLUpperCanine.mtl
g default
v 0.067107 0.474145 -0.142301
v -0.169082 0.495397 -0.131373
v 0.073843 0.502212 0.057401
v -0.162347 0.523463 0.068330
v -0.216172 0.319908 -0.135208
v -0.046709 0.523171 -0.169324
v 0.125576 0.522048 -0.050455
v -0.199592 0.545265 -0.034562
v -0.038083 0.558623 0.082906
v 0.071431 0.326445 0.113518
v -0.207373 0.356577 0.125710
v 0.062632 0.289776 -0.147401
v -0.087780 0.312330 -0.190314
v -0.019551 0.605600 -0.053648
v -0.075771 0.362371 0.165747
v -0.279302 0.341341 -0.001207
v 0.139818 0.299984 -0.020087
v -0.017467 -0.092752 -0.143436
v 0.174760 -0.092215 -0.104753
v -0.217467 -0.083826 -0.082825
v -0.005068 -0.041084 0.224198
v 0.183852 -0.054326 0.164846
v -0.208375 -0.045937 0.186774
v -0.288188 -0.064270 0.056322
v 0.255723 -0.074941 0.025779
v 0.071271 0.410644 -0.151592
v 0.020975 0.504002 -0.161749
v 0.103026 0.501846 -0.106806
v -0.031042 0.579295 -0.119530
v 0.065678 0.581968 -0.055348
v -0.189431 0.525041 -0.092835
v -0.113860 0.592203 -0.046209
v -0.026363 0.598625 0.017990
v -0.185262 0.541665 0.025618
v -0.109582 0.549467 0.079536
v 0.107021 0.518495 0.011654
v 0.028897 0.537012 0.073128
v 0.079193 0.443654 0.083285
v -0.056397 0.484652 0.129683
v -0.005279 0.347076 0.151569
v -0.188160 0.470325 0.095288
v -0.141201 0.363622 0.157253
v -0.258609 0.349549 0.069111
v -0.252645 0.466711 -0.020397
v -0.263408 0.329552 -0.073176
v 0.119089 0.291209 -0.090323
v 0.145041 0.431533 -0.038882
v 0.123889 0.311206 0.051964
v -0.072271 0.123759 -0.170638
v 0.088720 0.109298 -0.128007
v 0.084226 -0.094216 -0.136701
v -0.218432 0.134584 -0.113464
v -0.124621 -0.089757 -0.125024
v 0.097812 0.147187 0.141591
v -0.059871 0.175426 0.196996
v 0.095796 -0.045993 0.206425
v -0.209339 0.172474 0.156135
v -0.113049 -0.041534 0.218101
v -0.288188 0.154021 0.025643
v -0.271851 -0.074757 -0.018292
v -0.266892 -0.054089 0.128762
v 0.169566 0.119872 0.003473
v 0.238502 -0.064362 0.100432
v 0.233542 -0.085029 -0.046621
v -0.152405 0.316930 -0.174980
v -0.067233 0.439490 -0.191657
v -0.196082 0.437316 -0.139589
v -0.117504 0.516457 -0.155341
v -0.016485 0.300385 -0.180663
v -0.134679 0.439091 -0.176497
v 0.001785 0.424196 -0.182445
v 0.046282 0.556909 -0.116070
v -0.113991 0.568291 -0.108227
v -0.109033 0.586254 0.019729
v 0.050599 0.574896 0.011921
v 0.011887 0.466295 0.117109
v -0.124576 0.481191 0.123057
v -0.233761 0.469007 0.043555
v -0.238078 0.451019 -0.084435
v 0.124381 0.418058 -0.101158
v 0.128699 0.436045 0.026833
v 0.004751 0.115268 -0.161463
v -0.144531 0.129424 -0.154656
v 0.016322 0.163492 0.181664
v -0.132959 0.177647 0.188470
v -0.271851 0.143534 -0.048970
v -0.266892 0.164201 0.098083
v 0.152630 0.132221 0.077861
v 0.147670 0.111554 -0.069192
vt -0.915214 0.549698
vt -0.915421 0.557959
vt -0.923452 0.556981
vt -0.923352 0.549678
vt -0.916066 0.564984
vt -0.923993 0.563224
vt -0.928073 0.561216
vt -0.928572 0.556317
vt -0.928536 0.549695
vt -0.916132 0.534482
vt -0.915524 0.541472
vt -0.923563 0.542352
vt -0.924134 0.536201
vt -0.928485 0.543044
vt -0.928392 0.538095
vt -0.932571 0.542751
vt -0.932048 0.536195
vt -0.932579 0.549703
vt -0.936096 0.549730
vt -0.936117 0.542375
vt -0.936121 0.535351
vt -0.932565 0.556651
vt -0.931906 0.563257
vt -0.936071 0.564108
vt -0.936075 0.557084
vt -0.939621 0.556707
vt -0.939613 0.549756
vt -0.940145 0.563263
vt -0.943800 0.561364
vt -0.943706 0.556415
vt -0.943656 0.549763
vt -0.939626 0.542807
vt -0.940287 0.536202
vt -0.943621 0.543142
vt -0.944119 0.538243
vt -0.948740 0.542478
vt -0.948198 0.536235
vt -0.948840 0.549781
vt -0.956978 0.549761
vt -0.956769 0.541500
vt -0.956126 0.534474
vt -0.948628 0.557106
vt -0.948059 0.563257
vt -0.956060 0.564976
vt -0.956669 0.557986
vt -0.918087 0.574073
vt -0.955215 0.570094
vt -0.946874 0.567726
vt -0.927130 0.570774
vt -0.941612 0.564012
vt -0.932567 0.566339
vt -0.916995 0.570089
vt -0.925306 0.567573
vt -0.930322 0.563709
vt -0.954104 0.525386
vt -0.916976 0.529364
vt -0.925318 0.531732
vt -0.945063 0.528684
vt -0.930581 0.535447
vt -0.939625 0.533119
vt -0.955198 0.529369
vt -0.946886 0.531886
vt -0.941871 0.535749
vt -0.903027 0.540969
vt -0.902731 0.549721
vt -0.903584 0.533487
vt -0.888697 0.532761
vt -0.888184 0.540489
vt -0.887887 0.549592
vt -0.902920 0.558498
vt -0.903441 0.566015
vt -0.888000 0.558733
vt -0.888405 0.566531
vt -0.969272 0.540961
vt -0.968751 0.533443
vt -0.969460 0.549737
vt -0.984304 0.549866
vt -0.984192 0.540726
vt -0.983787 0.532928
vt -0.969166 0.558489
vt -0.968608 0.565972
vt -0.983495 0.566697
vt -0.984007 0.558970
vt -0.903987 0.571491
vt -0.967572 0.575677
vt -0.888821 0.572148
vt -0.889161 0.576480
vt -0.968064 0.571421
vt -0.983036 0.572262
vt -0.968206 0.527967
vt -0.904620 0.523782
vt -0.983371 0.527311
vt -0.983031 0.522978
vt -0.904128 0.528038
vt -0.889156 0.527197
vt -0.939457 0.566842
vt -0.954248 0.574099
vt -0.945216 0.571081
vt -0.932734 0.532617
vt -0.917943 0.525359
vt -0.926976 0.528378
vt -0.967692 0.523687
vt -0.889523 0.522898
vt -0.904500 0.575772
vt -0.982669 0.576560
vn -0.065364 -0.065159 -0.995732
vn -0.388458 -0.051476 -0.920028
vn -0.363406 0.145453 -0.920206
vn -0.033950 0.111160 -0.993223
vn -0.664629 -0.019924 -0.746908
vn -0.647239 0.170309 -0.743019
vn -0.562308 0.434212 -0.703754
vn -0.325505 0.488142 -0.809793
vn 0.001801 0.470301 -0.882505
vn 0.533460 -0.038919 -0.844929
vn 0.244993 -0.064264 -0.967393
vn 0.270552 0.034553 -0.962085
vn 0.553774 -0.013194 -0.832562
vn 0.320907 0.356277 -0.877545
vn 0.547758 0.212074 -0.809312
vn 0.415992 0.674979 -0.609388
vn 0.742404 0.345136 -0.574210
vn 0.031107 0.814041 -0.579975
vn 0.072466 0.987369 -0.140897
vn 0.515240 0.846087 -0.136619
vn 0.877665 0.469383 -0.096871
vn -0.330784 0.794627 -0.509068
vn -0.650910 0.605388 -0.458062
vn -0.685047 0.724434 -0.076851
vn -0.327451 0.937276 -0.119542
vn -0.285648 0.912165 0.293870
vn 0.083770 0.940702 0.328728
vn -0.612661 0.722620 0.320105
vn -0.495027 0.627205 0.601301
vn -0.242627 0.701863 0.669717
vn 0.094707 0.693665 0.714044
vn 0.467643 0.805039 0.364997
vn 0.784961 0.475134 0.397598
vn 0.408826 0.573405 0.709977
vn 0.621947 0.413108 0.665224
vn 0.374186 0.291058 0.880494
vn 0.632905 0.206460 0.746194
vn 0.078299 0.380075 0.921636
vn 0.050633 0.211995 0.975958
vn 0.351548 0.199299 0.914710
vn 0.614805 0.185726 0.766499
vn -0.262103 0.401856 0.877390
vn -0.574780 0.382345 0.723492
vn -0.589644 0.197107 0.783243
vn -0.284559 0.210511 0.935260
vn -0.993304 0.114174 0.017655
vn -0.862714 0.170506 0.476080
vn -0.823041 0.383563 0.418907
vn -0.934491 0.355543 -0.017757
vn -0.898718 0.040230 -0.436677
vn -0.858499 0.256799 -0.443885
vn 0.995735 0.080807 -0.044531
vn 0.846394 0.013232 -0.532393
vn 0.852131 0.003744 -0.523315
vn 0.996507 0.070936 -0.044067
vn 0.885062 0.148133 0.441272
vn 0.890418 0.136854 0.434081
vn 0.221409 -0.057442 -0.973488
vn -0.067775 -0.122954 -0.990095
vn 0.519092 0.052499 -0.853104
vn 0.557960 0.141830 -0.817658
vn 0.252216 -0.016214 -0.967535
vn -0.036984 -0.124045 -0.991587
vn -0.352575 -0.135175 -0.925969
vn -0.634672 -0.102996 -0.765887
vn -0.319461 -0.152906 -0.935182
vn -0.614901 -0.120533 -0.779338
vn 0.329334 0.207803 0.921063
vn 0.600665 0.273919 0.751113
vn 0.048626 0.154881 0.986736
vn 0.079434 0.153733 0.984914
vn 0.357911 0.244724 0.901116
vn 0.633613 0.348269 0.690828
vn -0.245742 0.129900 0.960592
vn -0.555292 0.120405 0.822893
vn -0.533021 0.106700 0.839347
vn -0.210567 0.114697 0.970828
vn -0.897713 -0.043812 -0.438397
vn -0.999207 0.026035 0.030122
vn -0.894424 -0.063096 -0.442747
vn -0.999443 0.004646 0.033055
vn -0.860628 0.088645 0.501459
vn -0.856690 0.070917 0.510934
vn 0.859344 0.318536 0.400077
vn 0.953251 0.293256 -0.072891
vn 0.848148 0.408904 0.336812
vn 0.915619 0.392406 -0.087511
vn 0.821078 0.192458 -0.537393
vn 0.812645 0.297131 -0.501320
s 1
g GrumpusLUpperCanine
usemtl lambert12SG
f 13/1/1 65/2/2 70/3/3 66/4/4
f 65/2/2 5/5/5 67/6/6 70/3/3
f 70/3/3 67/6/6 2/7/7 68/8/8
f 66/4/4 70/3/3 68/8/8 6/9/9
f 12/10/10 69/11/11 71/12/12 26/13/13
f 69/11/11 13/1/1 66/4/4 71/12/12
f 71/12/12 66/4/4 6/9/9 27/14/14
f 26/13/13 71/12/12 27/14/14 1/15/15
f 1/15/15 27/14/14 72/16/16 28/17/17
f 27/14/14 6/9/9 29/18/18 72/16/16
f 72/16/16 29/18/18 14/19/19 30/20/20
f 28/17/17 72/16/16 30/20/20 7/21/21
f 6/9/9 68/8/8 73/22/22 29/18/18
f 68/8/8 2/7/7 31/23/23 73/22/22
f 73/22/22 31/23/23 8/24/24 32/25/25
f 29/18/18 73/22/22 32/25/25 14/19/19
f 14/19/19 32/25/25 74/26/26 33/27/27
f 32/25/25 8/24/24 34/28/28 74/26/26
f 74/26/26 34/28/28 4/29/29 35/30/30
f 33/27/27 74/26/26 35/30/30 9/31/31
f 7/21/21 30/20/20 75/32/32 36/33/33
f 30/20/20 14/19/19 33/27/27 75/32/32
f 75/32/32 33/27/27 9/31/31 37/34/34
f 36/33/33 75/32/32 37/34/34 3/35/35
f 3/35/35 37/34/34 76/36/36 38/37/37
f 37/34/34 9/31/31 39/38/38 76/36/36
f 76/36/36 39/38/38 15/39/39 40/40/40
f 38/37/37 76/36/36 40/40/40 10/41/41
f 9/31/31 35/30/30 77/42/42 39/38/38
f 35/30/30 4/29/29 41/43/43 77/42/42
f 77/42/42 41/43/43 11/44/44 42/45/45
f 39/38/38 77/42/42 42/45/45 15/39/39
f 16/97/46 43/47/47 78/48/48 44/98/49
f 43/47/47 11/44/44 41/43/43 78/48/48
f 78/48/48 41/43/43 4/29/29 34/50/28
f 44/98/49 78/48/48 34/50/28 8/96/24
f 5/5/5 45/52/50 79/53/51 67/6/6
f 45/52/50 16/46/46 44/49/49 79/53/51
f 79/53/51 44/49/49 8/51/24 31/54/23
f 67/6/6 79/53/51 31/54/23 2/7/7
f 17/100/52 46/56/53 80/57/54 47/101/55
f 46/56/53 12/10/10 26/13/13 80/57/54
f 80/57/54 26/13/13 1/15/15 28/59/17
f 47/101/55 80/57/54 28/59/17 7/99/21
f 10/41/41 48/61/56 81/62/57 38/37/37
f 48/61/56 17/55/52 47/58/55 81/62/57
f 81/62/57 47/58/55 7/60/21 36/63/33
f 38/37/37 81/62/57 36/63/33 3/35/35
f 13/1/1 69/11/11 82/64/58 49/65/59
f 69/11/11 12/10/10 50/66/60 82/64/58
f 82/64/58 50/66/60 19/67/61 51/68/62
f 49/65/59 82/64/58 51/68/62 18/69/63
f 5/5/5 65/2/2 83/70/64 52/71/65
f 65/2/2 13/1/1 49/65/59 83/70/64
f 83/70/64 49/65/59 18/69/63 53/72/66
f 52/71/65 83/70/64 53/72/66 20/73/67
f 10/41/41 40/40/40 84/74/68 54/75/69
f 40/40/40 15/39/39 55/76/70 84/74/68
f 84/74/68 55/76/70 21/77/71 56/78/72
f 54/75/69 84/74/68 56/78/72 22/79/73
f 15/39/39 42/45/45 85/80/74 55/76/70
f 42/45/45 11/44/44 57/81/75 85/80/74
f 85/80/74 57/81/75 23/82/76 58/83/77
f 55/76/70 85/80/74 58/83/77 21/77/71
f 16/46/46 45/52/50 86/84/78 59/104/79
f 45/52/50 5/5/5 52/71/65 86/84/78
f 86/84/78 52/71/65 20/73/67 60/86/80
f 59/104/79 86/84/78 60/86/80 24/87/81
f 11/44/44 43/47/47 87/88/82 57/81/75
f 43/47/47 16/97/46 59/85/79 87/88/82
f 87/88/82 59/85/79 24/105/81 61/89/83
f 57/81/75 87/88/82 61/89/83 23/82/76
f 17/55/52 48/61/56 88/90/84 62/102/85
f 48/61/56 10/41/41 54/75/69 88/90/84
f 88/90/84 54/75/69 22/79/73 63/92/86
f 62/102/85 88/90/84 63/92/86 25/93/87
f 12/10/10 46/56/53 89/94/88 50/66/60
f 46/56/53 17/100/52 62/91/85 89/94/88
f 89/94/88 62/91/85 25/103/87 64/95/89
f 50/66/60 89/94/88 64/95/89 19/67/61
