# This file uses centimeters as units for non-parametric coordinates.

g default
v 256.659973 13.718325 406.626312
v 270.962524 13.718325 419.334351
v 283.508057 13.718325 402.554657
v 268.518280 13.718325 391.538635
v 273.514893 15.344029 395.210632
v 261.427490 15.344029 410.862335
v 278.511475 15.344028 398.882660
v 266.195007 15.344028 415.098358
v 276.013184 15.856334 397.046661
v 263.811249 15.856334 412.980347
v 265.425751 10.708687 414.517151
v 270.017487 9.128464 418.625763
v 282.547699 9.134010 401.831055
v 269.461060 9.134134 392.285736
v 257.589783 9.128233 407.353302
v 262.189392 10.708502 411.451874
v 296.247742 13.718325 385.774963
v 291.022064 15.344028 382.666962
v 285.796417 15.344029 379.558960
v 280.570740 13.718325 376.450958
v 288.409241 15.856334 381.112946
v 295.202881 9.139982 385.149506
v 281.605774 9.140146 377.090942
vt 0.829078 0.981900
vt 0.814955 0.982713
vt 0.815783 0.938661
vt 0.829568 0.938890
vt 0.815620 0.897160
vt 0.829011 0.897119
vt 0.843000 0.938953
vt 0.842161 0.896960
vt 0.855799 0.896915
vt 0.856555 0.939081
vt 0.856944 0.980111
vt 0.842905 0.981023
vt 0.835571 0.897037
vt 0.836299 0.938930
vt 0.835997 0.981471
vt 0.000000 0.000000
vt 1.000000 0.000000
vt 1.000000 1.000000
vt 0.000000 1.000000
vt 0.000000 0.000000
vt 1.000000 0.000000
vt 1.000000 1.000000
vt 0.000000 1.000000
vt 0.000000 0.000000
vt 1.000000 0.000000
vt 1.000000 1.000000
vt 0.000000 1.000000
vt 0.000000 0.000000
vt 1.000000 0.000000
vt 1.000000 1.000000
vt 0.000000 1.000000
vt 0.000000 0.000000
vt 1.000000 0.000000
vt 1.000000 1.000000
vt 0.466328 0.982557
vt 0.000000 0.000000
vt 1.000000 0.000000
vt 1.000000 1.000000
vt 0.000000 1.000000
vt 0.000000 0.000000
vt 1.000000 0.000000
vt 1.953312 1.196644
vt 0.000000 1.000000
vt 0.000000 0.000000
vt 1.000000 0.000000
vt 0.000000 1.000000
vn 0.200194 0.968074 0.150846
vn 0.200194 0.968074 0.150846
vn 0.200194 0.968074 0.150846
vn 0.200194 0.968074 0.150846
vn 0.202050 0.967281 0.153442
vn 0.220380 0.966406 0.132258
vn 0.197267 0.973134 0.118727
vn 0.178546 0.974492 0.135969
vn -0.176247 0.974627 -0.137981
vn -0.190753 0.974684 -0.116637
vn -0.218844 0.966427 -0.134633
vn -0.199549 0.967281 -0.156678
vn -0.197665 0.968101 -0.153979
vn -0.173089 0.975695 -0.134384
vn -0.176247 0.974627 -0.137981
vn -0.199549 0.967281 -0.156678
vn 0.178546 0.974492 0.135969
vn 0.197267 0.973134 0.118727
vn 0.011345 0.999913 0.006798
vn 0.000845 1.000000 0.000216
vn 0.007079 0.999962 0.005009
vn 0.178440 0.974672 0.134810
vn 0.178546 0.974492 0.135969
vn 0.000845 1.000000 0.000216
vn 0.000845 1.000000 0.000216
vn 0.011345 0.999913 0.006798
vn -0.190753 0.974684 -0.116637
vn -0.176247 0.974627 -0.137981
vn -0.173089 0.975695 -0.134384
vn 0.007079 0.999962 0.005009
vn 0.000845 1.000000 0.000216
vn -0.176247 0.974627 -0.137981
vn -0.661891 0.018229 0.749379
vn -0.667968 0.013928 0.744060
vn -0.668317 0.013680 0.743751
vn -0.661891 0.018229 0.749379
vn 0.772907 -0.253065 0.581870
vn 0.775474 -0.251470 0.579139
vn 0.775474 -0.251470 0.579140
vn 0.772907 -0.253065 0.581870
vn 0.770333 -0.254652 0.584585
vn 0.772907 -0.253065 0.581870
vn 0.772907 -0.253065 0.581870
vn 0.770333 -0.254652 0.584585
vn -0.758033 -0.252963 -0.601163
vn -0.755487 -0.254479 -0.603722
vn -0.755487 -0.254479 -0.603722
vn -0.758033 -0.252962 -0.601162
vn -0.662022 -0.014267 0.749348
vn -0.661902 -0.014424 0.749452
vn -0.661902 -0.014424 0.749452
vn -0.666560 -0.008144 0.745407
vn -0.760592 -0.251427 -0.598569
vn -0.758033 -0.252963 -0.601163
vn -0.758033 -0.252962 -0.601162
vn -0.760592 -0.251427 -0.598569
vn -0.667968 0.013928 0.744060
vn -0.674913 0.003299 0.737890
vn -0.666560 -0.008144 0.745407
vn -0.668317 0.013680 0.743751
vn -0.674913 0.003299 0.737890
vn -0.662022 -0.014267 0.749348
vn -0.666560 -0.008144 0.745407
vn -0.199685 -0.968419 -0.149301
vn -0.078498 -0.996714 0.019982
vn -0.020799 -0.999646 0.016618
vn -0.020799 -0.999646 0.016618
vn -0.011703 -0.999617 0.025099
vn 0.000157 -1.000000 -0.000254
vn 0.000157 -1.000000 -0.000254
vn -0.020799 -0.999646 0.016618
vn -0.078498 -0.996714 0.019982
vn -0.010924 -0.997032 0.076207
vn -0.011703 -0.999617 0.025099
vn -0.011703 -0.999617 0.025099
vn -0.010924 -0.997032 0.076207
vn 0.195702 -0.968527 0.153808
s off
g polySurface5
usemtl initialShadingGroup
f 8/1/1 2/2/2 3/3/3 7/4/4
f 3/3/5 17/5/6 18/6/7 7/4/8
f 5/7/9 19/8/10 20/9/11 4/10/12
f 1/11/13 6/12/14 5/7/15 4/10/16
f 7/4/17 18/6/18 21/13/19 9/14/20
f 10/15/21 8/1/22 7/4/23 9/14/24
f 9/14/25 21/13/26 19/8/27 5/7/28
f 6/12/29 10/15/30 9/14/31 5/7/32
f 2/16/33 8/17/34 11/18/35 12/19/36
f 3/20/37 2/21/38 12/22/39 13/23/40
f 17/24/41 3/25/42 13/26/43 22/27/44
f 4/28/45 20/29/46 23/30/47 14/31/48
f 6/32/49 1/33/50 15/34/51 16/35/52
f 1/36/53 4/37/54 14/38/55 15/39/56
f 8/40/57 10/41/58 16/42/59 11/43/60
f 10/44/61 6/45/62 16/35/63
f 12/19/64 11/43/65 13/23/66
f 13/23/67 14/31/68 23/46/69 22/27/70
f 13/23/71 11/43/72 16/35/73 14/31/74
f 14/31/75 16/35/76 15/39/77
g default
v 318.844421 8.180460 307.168335
v 301.479340 7.885361 300.497498
v 312.470764 11.396182 323.711243
v 294.589966 11.658812 320.108154
v 309.979858 13.559978 342.279541
v 291.963959 13.636562 341.070374
v 307.267700 9.609431 302.721130
v 300.550232 13.196973 321.309174
v 297.969238 15.236738 341.473450
v 313.056061 9.707797 304.944702
v 306.510498 13.109429 322.510193
v 303.974548 15.211209 341.876495
v 310.161896 10.170919 303.832916
v 303.530365 13.665506 321.909698
v 300.971893 15.736279 341.674957
v 311.132690 6.863492 324.066345
v 317.498901 3.650767 307.533539
v 311.913727 5.136038 305.401581
v 308.692902 9.008120 342.347382
v 307.952728 5.061189 303.843567
v 302.375031 3.384207 301.680420
v 295.602783 7.124539 320.985687
v 293.137543 9.065891 341.473755
vt 0.816451 0.710889
vt 0.815314 0.614873
vt 0.828690 0.614819
vt 0.830094 0.711804
vt 0.816267 0.783466
vt 0.829509 0.784996
vt 0.843178 0.712271
vt 0.842155 0.613889
vt 0.856061 0.612607
vt 0.856307 0.712281
vt 0.842462 0.786544
vt 0.855658 0.787782
vt 0.835384 0.614537
vt 0.836670 0.712187
vt 0.835991 0.785820
vt 0.000000 0.000000
vt 1.000000 0.000000
vt 1.000000 1.000000
vt 0.000000 1.000000
vt 0.000000 0.000000
vt 1.000000 0.000000
vt 1.000000 1.000000
vt 0.448185 0.984213
vt 0.000000 0.000000
vt 1.000000 0.000000
vt 1.000000 1.000000
vt 0.000000 1.000000
vt 0.000000 0.000000
vt 1.000000 0.000000
vt 1.000000 1.000000
vt 0.000000 1.000000
vt 0.000000 0.000000
vt 1.000000 0.000000
vt 1.000000 1.000000
vt 0.000000 1.000000
vt 0.000000 0.000000
vt 1.000000 0.000000
vt 1.000000 1.000000
vt 0.000000 1.000000
vt 0.000000 0.000000
vt 1.000000 0.000000
vt 0.000000 0.000000
vt 1.000000 0.000000
vt 0.904088 1.111154
vt 0.000000 1.000000
vt 0.000000 1.000000
vn 0.285906 0.955158 -0.077016
vn 0.285906 0.955158 -0.077016
vn 0.285906 0.955158 -0.077016
vn 0.285906 0.955158 -0.077016
vn 0.271742 0.962292 -0.012259
vn 0.282473 0.956417 -0.073995
vn 0.250059 0.964709 -0.082503
vn 0.242273 0.970132 -0.012133
vn -0.187442 0.964993 -0.183449
vn -0.164380 0.955958 -0.243155
vn -0.190457 0.949133 -0.250744
vn -0.213688 0.958618 -0.188120
vn -0.214867 0.972816 -0.086385
vn -0.187442 0.964993 -0.183449
vn -0.213688 0.958618 -0.188120
vn -0.247211 0.964916 -0.088456
vn 0.250059 0.964709 -0.082503
vn 0.258303 0.961935 -0.089225
vn 0.045386 0.983856 -0.173113
vn 0.022884 0.989971 -0.139408
vn 0.242273 0.970132 -0.012133
vn 0.250059 0.964709 -0.082503
vn 0.022884 0.989971 -0.139408
vn 0.017722 0.998538 -0.051061
vn 0.022884 0.989971 -0.139408
vn 0.045386 0.983856 -0.173113
vn -0.164380 0.955958 -0.243155
vn -0.187442 0.964993 -0.183449
vn 0.017722 0.998538 -0.051061
vn 0.022884 0.989971 -0.139408
vn -0.187442 0.964993 -0.183449
vn -0.214867 0.972816 -0.086385
vn 0.891416 -0.233084 0.388650
vn 0.928218 -0.252320 0.273399
vn 0.928196 -0.252307 0.273485
vn 0.891416 -0.233084 0.388650
vn 0.316003 -0.170915 -0.933236
vn 0.312856 -0.169927 -0.934476
vn 0.312856 -0.169927 -0.934476
vn 0.330972 -0.168075 -0.928552
vn 0.928218 -0.252320 0.273399
vn 0.950506 -0.267277 0.158434
vn 0.950506 -0.267277 0.158434
vn 0.928196 -0.252307 0.273485
vn 0.396905 -0.160879 -0.903651
vn 0.387138 -0.161459 -0.907775
vn 0.386563 -0.161493 -0.908014
vn 0.396905 -0.160879 -0.903651
vn -0.949468 -0.252797 -0.186024
vn -0.926024 -0.258348 -0.275202
vn -0.926024 -0.258348 -0.275202
vn -0.949448 -0.252804 -0.186116
vn -0.964801 -0.245095 -0.095331
vn -0.949468 -0.252797 -0.186024
vn -0.949448 -0.252804 -0.186116
vn -0.964801 -0.245095 -0.095331
vn 0.363297 -0.164710 -0.916998
vn 0.316003 -0.170915 -0.933236
vn 0.330972 -0.168075 -0.928552
vn 0.387138 -0.161459 -0.907775
vn 0.363297 -0.164710 -0.916998
vn 0.330972 -0.168075 -0.928552
vn 0.386563 -0.161493 -0.908014
vn 0.012584 -0.991962 0.125911
vn -0.020093 -0.994429 0.103476
vn 0.188523 -0.949681 0.250129
vn -0.023161 -0.994526 0.101886
vn -0.023161 -0.994527 0.101886
vn -0.020093 -0.994429 0.103476
vn -0.032231 -0.994608 0.098570
vn -0.032231 -0.994608 0.098570
vn -0.073324 -0.993120 0.091299
vn -0.283452 -0.955921 0.076611
vn -0.032231 -0.994608 0.098570
vn -0.020093 -0.994429 0.103476
vn 0.012584 -0.991962 0.125911
vn -0.073324 -0.993120 0.091299
s off
g polySurface29
usemtl initialShadingGroup
f 26/47/78 24/48/79 33/49/80 34/50/81
f 28/51/82 26/47/83 34/50/84 35/52/85
f 31/53/86 30/54/87 25/55/88 27/56/89
f 32/57/90 31/53/91 27/56/92 29/58/93
f 34/50/94 33/49/95 36/59/96 37/60/97
f 35/52/98 34/50/99 37/60/100 38/61/101
f 37/60/102 36/59/103 30/54/104 31/53/105
f 38/61/106 37/60/107 31/53/108 32/57/109
f 24/62/110 26/63/111 39/64/112 40/65/113
f 33/66/114 24/67/115 40/68/116 41/69/117
f 26/70/118 28/71/119 42/72/120 39/73/121
f 25/74/122 30/75/123 43/76/124 44/77/125
f 27/78/126 25/79/127 44/80/128 45/81/129
f 29/82/130 27/83/131 45/84/132 46/85/133
f 36/86/134 33/87/135 41/69/136
f 30/88/137 36/89/138 41/90/139 43/91/140
f 43/91/141 45/81/142 44/77/143
f 42/92/144 46/85/145 45/81/146 39/73/147
f 39/73/148 41/69/149 40/65/150
f 39/73/151 45/81/152 43/91/153 41/69/154
g default
v 305.299133 13.718325 366.083466
v 288.934937 13.718326 358.451508
v 296.247742 13.718325 385.774963
v 280.570740 13.718325 376.450958
v 294.389679 15.344029 360.995483
v 285.796417 15.344029 379.558960
v 299.844421 15.344028 363.539490
v 291.022064 15.344028 382.666962
v 297.117035 15.856334 362.267487
v 288.409241 15.856334 381.112946
v 304.113647 9.147045 365.718170
v 295.202881 9.139982 385.149506
v 290.106964 9.144178 358.828888
v 281.605774 9.140146 377.090942
v 309.979858 13.559978 342.279541
v 303.974548 15.211209 341.876495
v 297.969238 15.236738 341.473450
v 291.963959 13.636562 341.070374
v 300.971893 15.736279 341.674957
v 308.692902 9.008120 342.347382
v 293.137543 9.065891 341.473755
vt 0.816345 0.847759
vt 0.816267 0.783466
vt 0.829509 0.784996
vt 0.829293 0.846471
vt 0.815620 0.897160
vt 0.829011 0.897119
vt 0.842133 0.845098
vt 0.842462 0.786544
vt 0.855658 0.787782
vt 0.855386 0.843453
vt 0.842161 0.896960
vt 0.855799 0.896915
vt 0.835991 0.785820
vt 0.835693 0.845811
vt 0.835571 0.897037
vt 0.000000 0.000000
vt 1.000000 0.000000
vt 1.000000 1.000000
vt 0.000000 1.000000
vt 0.000000 0.000000
vt 1.000000 0.000000
vt 1.000000 1.000000
vt 0.000000 1.000000
vt 0.000000 0.000000
vt 1.000000 0.000000
vt 1.000000 1.000000
vt 0.000000 1.000000
vt 0.000000 0.000000
vt 1.000000 0.000000
vt 1.000000 1.000000
vt 0.000000 1.000000
vt 0.000000 1.000000
vt 0.000000 1.000000
vn 0.263940 0.963490 0.044978
vn 0.263940 0.963490 0.044978
vn 0.263940 0.963490 0.044978
vn 0.263940 0.963490 0.044978
vn 0.220380 0.966406 0.132258
vn 0.249594 0.965158 0.078574
vn 0.225996 0.971820 0.067023
vn 0.197267 0.973134 0.118727
vn -0.213374 0.974293 -0.072289
vn -0.214867 0.972816 -0.086385
vn -0.247211 0.964916 -0.088456
vn -0.247642 0.965582 -0.079533
vn -0.190753 0.974684 -0.116637
vn -0.213374 0.974293 -0.072289
vn -0.247642 0.965582 -0.079533
vn -0.218844 0.966427 -0.134633
vn 0.225996 0.971820 0.067023
vn 0.242273 0.970132 -0.012133
vn 0.017722 0.998538 -0.051061
vn 0.017717 0.999843 0.000637
vn 0.197267 0.973134 0.118727
vn 0.225996 0.971820 0.067023
vn 0.017717 0.999843 0.000637
vn 0.011345 0.999913 0.006798
vn 0.017717 0.999843 0.000637
vn 0.017722 0.998538 -0.051061
vn -0.214867 0.972816 -0.086385
vn -0.213374 0.974293 -0.072289
vn 0.011345 0.999913 0.006798
vn 0.017717 0.999843 0.000637
vn -0.213374 0.974293 -0.072289
vn -0.190753 0.974684 -0.116637
vn 0.946514 -0.262630 0.187447
vn 0.920077 -0.261979 0.291247
vn 0.920055 -0.261978 0.291320
vn 0.946514 -0.262630 0.187447
vn 0.920077 -0.261979 0.291247
vn 0.878116 -0.257704 0.403115
vn 0.878115 -0.257704 0.403116
vn 0.920055 -0.261978 0.291320
vn -0.919170 -0.259486 -0.296299
vn -0.951911 -0.258235 -0.164867
vn -0.951911 -0.258235 -0.164867
vn -0.919181 -0.259487 -0.296266
vn -0.876345 -0.256644 -0.407620
vn -0.919170 -0.259486 -0.296299
vn -0.919181 -0.259487 -0.296266
vn -0.876345 -0.256644 -0.407620
vn 0.000206 -1.000000 -0.000199
vn 0.000206 -1.000000 -0.000199
vn -0.001574 -0.999996 0.002463
vn -0.001260 -0.999997 0.001993
vn -0.001260 -0.999997 0.001993
vn -0.001574 -0.999996 0.002463
vn -0.003105 -0.999984 0.004753
vn -0.003105 -0.999984 0.004753
s off
g polySurface7
usemtl initialShadingGroup
f 47/93/155 61/94/156 62/95/157 53/96/158
f 49/97/159 47/93/160 53/96/161 54/98/162
f 51/99/163 63/100/164 64/101/165 48/102/166
f 52/103/167 51/99/168 48/102/169 50/104/170
f 53/96/171 62/95/172 65/105/173 55/106/174
f 54/98/175 53/96/176 55/106/177 56/107/178
f 55/106/179 65/105/180 63/100/181 51/99/182
f 56/107/183 55/106/184 51/99/185 52/103/186
f 61/108/187 47/109/188 57/110/189 66/111/190
f 47/112/191 49/113/192 58/114/193 57/115/194
f 48/116/195 64/117/196 67/118/197 59/119/198
f 50/120/199 48/121/200 59/122/201 60/123/202
f 58/124/203 60/123/204 59/119/205 57/115/206
f 57/115/207 59/119/208 67/125/209 66/111/210
