# This file uses centimeters as units for non-parametric coordinates.

mtllib LavaRiver01.mtl
g default
v 256.659973 13.718325 406.626312
v 270.962524 13.718325 419.334351
v 318.844421 8.180460 307.168335
v 301.479340 7.885361 300.497498
v 312.470764 11.396182 323.711243
v 294.589966 11.658812 320.108154
v 309.979858 13.559978 342.279541
v 291.963959 13.636562 341.070374
v 305.299133 13.718325 366.083466
v 288.934937 13.718326 358.451508
v 296.247742 13.718325 385.774963
v 280.570740 13.718325 376.450958
v 283.508057 13.718325 402.554657
v 268.518280 13.718325 391.538635
v 307.267700 9.609431 302.721130
v 300.550232 13.196973 321.309174
v 297.969238 15.236738 341.473450
v 294.389679 15.344029 360.995483
v 285.796417 15.344029 379.558960
v 273.514893 15.344029 395.210632
v 261.427490 15.344029 410.862335
v 313.056061 9.707797 304.944702
v 306.510498 13.109429 322.510193
v 303.974548 15.211209 341.876495
v 299.844421 15.344028 363.539490
v 291.022064 15.344028 382.666962
v 278.511475 15.344028 398.882660
v 266.195007 15.344028 415.098358
v 310.161896 10.170919 303.832916
v 303.530365 13.665506 321.909698
v 300.971893 15.736279 341.674957
v 297.117035 15.856334 362.267487
v 288.409241 15.856334 381.112946
v 276.013184 15.856334 397.046661
v 263.811249 15.856334 412.980347
vt 0.829078 0.981900
vt 0.814955 0.982713
vt 0.815783 0.938661
vt 0.829568 0.938890
vt 0.816451 0.710889
vt 0.815314 0.614873
vt 0.828690 0.614819
vt 0.830094 0.711804
vt 0.816267 0.783466
vt 0.829509 0.784996
vt 0.816345 0.847759
vt 0.829293 0.846471
vt 0.815620 0.897160
vt 0.829011 0.897119
vt 0.843178 0.712271
vt 0.842155 0.613889
vt 0.856061 0.612607
vt 0.856307 0.712281
vt 0.842462 0.786544
vt 0.855658 0.787782
vt 0.842133 0.845098
vt 0.855386 0.843453
vt 0.842161 0.896960
vt 0.855799 0.896915
vt 0.843000 0.938953
vt 0.856555 0.939081
vt 0.856944 0.980111
vt 0.842905 0.981023
vt 0.835384 0.614537
vt 0.836670 0.712187
vt 0.835991 0.785820
vt 0.835693 0.845811
vt 0.835571 0.897037
vt 0.836299 0.938930
vt 0.835997 0.981471
vn 0.178440 0.974672 0.134810
vn 0.200194 0.968074 0.150846
vn 0.202050 0.967281 0.153442
vn 0.178546 0.974492 0.135969
vn 0.282473 0.956417 -0.073995
vn 0.285906 0.955158 -0.077016
vn 0.258303 0.961935 -0.089225
vn 0.250059 0.964709 -0.082503
vn 0.271742 0.962292 -0.012259
vn 0.282473 0.956417 -0.073995
vn 0.250059 0.964709 -0.082503
vn 0.242273 0.970132 -0.012133
vn 0.249594 0.965158 0.078574
vn 0.271742 0.962292 -0.012259
vn 0.242273 0.970132 -0.012133
vn 0.225996 0.971820 0.067023
vn 0.220380 0.966406 0.132258
vn 0.249594 0.965158 0.078574
vn 0.225996 0.971820 0.067023
vn 0.197267 0.973134 0.118727
vn 0.202050 0.967281 0.153442
vn 0.220380 0.966406 0.132258
vn 0.197267 0.973134 0.118727
vn 0.178546 0.974492 0.135969
vn -0.187442 0.964993 -0.183449
vn -0.164380 0.955958 -0.243155
vn -0.190457 0.949133 -0.250744
vn -0.213688 0.958618 -0.188120
vn -0.214867 0.972816 -0.086385
vn -0.187442 0.964993 -0.183449
vn -0.213688 0.958618 -0.188120
vn -0.247211 0.964916 -0.088456
vn -0.213374 0.974293 -0.072289
vn -0.214867 0.972816 -0.086385
vn -0.247211 0.964916 -0.088456
vn -0.247642 0.965582 -0.079533
vn -0.190753 0.974684 -0.116637
vn -0.213374 0.974293 -0.072289
vn -0.247642 0.965582 -0.079533
vn -0.218844 0.966427 -0.134633
vn -0.176247 0.974627 -0.137981
vn -0.190753 0.974684 -0.116637
vn -0.218844 0.966427 -0.134633
vn -0.199549 0.967281 -0.156678
vn -0.197665 0.968101 -0.153979
vn -0.173089 0.975695 -0.134384
vn -0.176247 0.974627 -0.137981
vn -0.199549 0.967281 -0.156678
vn 0.250059 0.964709 -0.082503
vn 0.258303 0.961935 -0.089225
vn 0.045386 0.983856 -0.173113
vn 0.022884 0.989971 -0.139408
vn 0.242273 0.970132 -0.012133
vn 0.250059 0.964709 -0.082503
vn 0.022884 0.989971 -0.139408
vn 0.017722 0.998538 -0.051061
vn 0.225996 0.971820 0.067023
vn 0.242273 0.970132 -0.012133
vn 0.017722 0.998538 -0.051061
vn 0.017717 0.999843 0.000637
vn 0.197267 0.973134 0.118727
vn 0.225996 0.971820 0.067023
vn 0.017717 0.999843 0.000637
vn 0.011345 0.999913 0.006798
vn 0.178546 0.974492 0.135969
vn 0.197267 0.973134 0.118727
vn 0.011345 0.999913 0.006798
vn 0.000845 1.000000 0.000216
vn 0.007079 0.999962 0.005009
vn 0.178440 0.974672 0.134810
vn 0.178546 0.974492 0.135969
vn 0.000845 1.000000 0.000216
vn 0.022884 0.989971 -0.139408
vn 0.045386 0.983856 -0.173113
vn -0.164380 0.955958 -0.243155
vn -0.187442 0.964993 -0.183449
vn 0.017722 0.998538 -0.051061
vn 0.022884 0.989971 -0.139408
vn -0.187442 0.964993 -0.183449
vn -0.214867 0.972816 -0.086385
vn 0.017717 0.999843 0.000637
vn 0.017722 0.998538 -0.051061
vn -0.214867 0.972816 -0.086385
vn -0.213374 0.974293 -0.072289
vn 0.011345 0.999913 0.006798
vn 0.017717 0.999843 0.000637
vn -0.213374 0.974293 -0.072289
vn -0.190753 0.974684 -0.116637
vn 0.000845 1.000000 0.000216
vn 0.011345 0.999913 0.006798
vn -0.190753 0.974684 -0.116637
vn -0.176247 0.974627 -0.137981
vn -0.173089 0.975695 -0.134384
vn 0.007079 0.999962 0.005009
vn 0.000845 1.000000 0.000216
vn -0.176247 0.974627 -0.137981
s off
g polySurface1 pPlane9
usemtl initialShadingGroup
f 28/1/1 2/2/2 13/3/3 27/4/4
f 5/5/5 3/6/6 22/7/7 23/8/8
f 7/9/9 5/5/10 23/8/11 24/10/12
f 9/11/13 7/9/14 24/10/15 25/12/16
f 11/13/17 9/11/18 25/12/19 26/14/20
f 13/3/21 11/13/22 26/14/23 27/4/24
f 16/15/25 15/16/26 4/17/27 6/18/28
f 17/19/29 16/15/30 6/18/31 8/20/32
f 18/21/33 17/19/34 8/20/35 10/22/36
f 19/23/37 18/21/38 10/22/39 12/24/40
f 20/25/41 19/23/42 12/24/43 14/26/44
f 1/27/45 21/28/46 20/25/47 14/26/48
f 23/8/49 22/7/50 29/29/51 30/30/52
f 24/10/53 23/8/54 30/30/55 31/31/56
f 25/12/57 24/10/58 31/31/59 32/32/60
f 26/14/61 25/12/62 32/32/63 33/33/64
f 27/4/65 26/14/66 33/33/67 34/34/68
f 35/35/69 28/1/70 27/4/71 34/34/72
f 30/30/73 29/29/74 15/16/75 16/15/76
f 31/31/77 30/30/78 16/15/79 17/19/80
f 32/32/81 31/31/82 17/19/83 18/21/84
f 33/33/85 32/32/86 18/21/87 19/23/88
f 34/34/89 33/33/90 19/23/91 20/25/92
f 21/28/93 35/35/94 34/34/95 20/25/96
