# This file uses centimeters as units for non-parametric coordinates.

mtllib RockPoolFalls_water.mtl
g default
v -14.865101 8.948152 5.605140
v -24.229996 8.948969 20.186884
v -20.035709 8.920408 22.845215
v -14.667692 8.948969 23.913574
v -4.276562 8.948152 20.388117
v -0.401182 8.920408 16.268805
v -0.427185 8.920408 -4.832231
v -10.343744 8.920408 -7.799645
v -15.338806 8.986473 -9.923273
v -25.545567 8.942369 -8.099552
v -28.969137 8.920408 -4.860452
v -30.778687 8.948969 -0.228072
v -29.447578 8.948152 10.658202
v -27.191751 8.920408 15.874722
v -20.408991 8.920408 -9.897840
v -30.602625 8.920408 5.178356
v -9.326238 8.920408 22.897741
v 2.992542 8.920408 5.572097
v -1.719017 12.418306 29.867456
v -8.555993 12.418305 31.641897
v -6.959408 12.418305 33.498432
v -5.623356 12.418305 35.734695
v -4.079826 12.418305 37.562672
v -1.714808 12.418305 38.034538
v 0.644349 12.418305 37.411407
v 2.544864 12.418305 35.980293
v 4.005999 12.418305 34.111893
v 5.048990 12.418305 31.934530
v 5.616668 12.418305 29.510427
v 5.589393 12.418305 27.155155
v 2.712130 12.418305 23.113686
v -2.413197 12.418305 20.893250
v -4.847500 12.418305 21.037939
v -6.849831 12.418305 22.582415
v -8.294499 12.418305 24.971485
v -9.380652 12.418305 27.349874
v -9.658027 12.418305 29.777700
v 6.340663 14.840274 19.062235
v 3.813594 14.840274 25.739473
v 6.210958 14.840274 25.488192
v 8.761051 14.840274 25.670506
v 11.105153 14.840274 25.446625
v 12.841165 14.840274 23.764271
v 14.598230 14.840274 18.147186
v 1.533190 14.840274 9.357679
v -0.583238 14.840274 11.037086
v -2.037509 14.840274 13.579320
v -2.703941 14.840274 16.355694
v -2.247230 14.840274 19.049795
v -0.783728 14.840274 21.461000
v 0.010553 14.840274 23.916185
v 1.694533 14.840274 25.577808
v 12.073891 22.401003 2.297909
v 28.670357 23.204042 1.925653
v 28.457577 23.173649 -2.950031
v 26.351408 23.204042 -7.909440
v 17.879278 23.203173 -14.440229
v 12.515959 23.173649 -15.336961
v 6.969823 23.204042 -14.679233
v -1.905209 23.203173 -8.312368
v -4.049885 23.173649 -3.736850
v -5.275128 23.627748 1.704121
v -2.287978 23.623970 6.629900
v -1.843458 23.602915 11.865238
v 7.166217 23.197014 18.519243
v 11.589981 23.173649 19.530903
v 16.222837 23.204042 18.463129
v 24.046295 23.203173 11.405013
v 26.907305 23.173649 6.704752
v 2.934580 23.173649 15.321416
v 20.374323 23.173649 15.352987
v 22.622160 23.173649 -11.703532
v 2.248771 23.173649 -12.232039
v 24.234617 26.388508 -22.253317
v 29.562510 26.782282 -17.494650
v 30.165777 26.782282 -19.896090
v 31.225985 26.782282 -22.293512
v 31.836157 26.782282 -24.633984
v 30.876371 26.782282 -26.896889
v 29.029125 26.782282 -28.532755
v 26.785116 26.782282 -29.322706
v 24.434996 26.782282 -29.493626
v 22.071089 26.782282 -29.136320
v 19.776491 26.782282 -28.237913
v 17.875902 26.782282 -26.876789
v 16.627192 26.782282 -24.899145
v 16.222734 26.782282 -22.153793
v 16.555529 26.782282 -19.317822
v 17.328241 26.782282 -16.569212
v 18.828960 26.782282 -14.598148
v 21.223038 26.782282 -13.786716
v 23.987387 26.782282 -13.925503
v 26.539354 26.782282 -14.360613
v 28.672045 26.782282 -15.505997
v 2.316505 15.996197 -11.492864
v 18.250717 15.996197 -19.655199
v 14.240435 16.027666 -26.249956
v 1.254067 16.026766 -36.129963
v -3.800171 15.996197 -35.911530
v -7.708569 16.027666 -32.753590
v -16.096489 16.263266 -23.898109
v -17.240383 16.232697 -16.887314
v -13.748011 15.977837 -11.100252
v -10.438539 15.996197 -5.606590
v -8.291308 16.068987 0.572434
v -4.573342 15.996197 5.210916
v 7.833057 15.996197 -32.224651
v -10.893168 15.996197 -28.029982
v -16.984392 16.275337 -20.481985
v -21.996601 6.271299 -17.479013
v -27.943878 6.271299 -20.970037
v -28.067520 6.271299 -18.576267
v -28.625177 6.271299 -16.097855
v -28.766754 6.271299 -13.760558
v -27.434216 6.271299 -11.800714
v -25.183592 6.271299 -10.322970
v -22.375547 6.271299 -9.226354
v -17.120398 6.271299 -9.111886
v -13.513841 6.271299 -13.806110
v -12.073120 6.271299 -20.738623
v -15.535487 6.271299 -24.884607
v -18.066345 6.271299 -25.958500
v -20.688734 6.271299 -25.916290
v -23.194933 6.271299 -24.842035
v -25.641819 6.271299 -24.432039
v -27.470848 6.271299 -23.028002
vt 0.395899 0.843981
vt 0.278508 0.923543
vt 0.255912 0.889769
vt 0.246086 0.846072
vt 0.272823 0.760353
vt 0.305737 0.727817
vt 0.392553 0.697889
vt 0.478358 0.723756
vt 0.504642 0.804277
vt 0.523027 0.844711
vt 0.510173 0.928580
vt 0.484368 0.957242
vt 0.446839 0.972983
vt 0.357514 0.964297
vt 0.314384 0.946899
vt 0.523845 0.886196
vt 0.402576 0.972637
vt 0.253315 0.802170
vt 0.244563 0.342214
vt 0.295719 0.380523
vt 0.275983 0.390590
vt 0.257126 0.404730
vt 0.237933 0.414740
vt 0.216513 0.410579
vt 0.198899 0.397269
vt 0.187896 0.378768
vt 0.182071 0.358113
vt 0.180808 0.336305
vt 0.184370 0.314062
vt 0.192678 0.294436
vt 0.230630 0.270468
vt 0.281159 0.269459
vt 0.301044 0.279021
vt 0.312510 0.298820
vt 0.316410 0.323778
vt 0.317346 0.347417
vt 0.311341 0.368695
vt 0.529524 0.655054
vt 0.531901 0.722078
vt 0.511326 0.712623
vt 0.488087 0.706565
vt 0.467903 0.697514
vt 0.457523 0.677316
vt 0.458805 0.622044
vt 0.601527 0.583182
vt 0.615301 0.604499
vt 0.620585 0.631499
vt 0.618154 0.658210
vt 0.605976 0.680807
vt 0.585693 0.697854
vt 0.571231 0.717308
vt 0.551243 0.727021
vt 0.446200 0.460501
vt 0.488423 0.596526
vt 0.448155 0.608056
vt 0.402034 0.604380
vt 0.325905 0.552976
vt 0.304169 0.511630
vt 0.294671 0.464585
vt 0.323052 0.375069
vt 0.354830 0.345251
vt 0.397202 0.319068
vt 0.442371 0.314803
vt 0.483788 0.319069
vt 0.563574 0.376215
vt 0.584114 0.409236
vt 0.588424 0.449747
vt 0.552915 0.532900
vt 0.522517 0.569123
vt 0.525804 0.350657
vt 0.574795 0.492091
vt 0.361021 0.584262
vt 0.302054 0.419489
vt 0.087326 0.538586
vt 0.135230 0.573349
vt 0.116862 0.582477
vt 0.099311 0.595264
vt 0.081433 0.604300
vt 0.061430 0.600512
vt 0.044938 0.588443
vt 0.034587 0.571675
vt 0.029061 0.552955
vt 0.027791 0.533191
vt 0.031028 0.513036
vt 0.038706 0.495259
vt 0.052515 0.481672
vt 0.074023 0.473562
vt 0.097563 0.471265
vt 0.121166 0.472693
vt 0.139755 0.481375
vt 0.150539 0.499317
vt 0.154291 0.521931
vt 0.155260 0.543351
vt 0.149744 0.562627
vt 0.297154 0.706641
vt 0.207154 0.823538
vt 0.158689 0.781133
vt 0.096336 0.660058
vt 0.105707 0.619011
vt 0.137502 0.592061
vt 0.223919 0.528635
vt 0.251740 0.526634
vt 0.279735 0.529158
vt 0.323715 0.574870
vt 0.363780 0.610097
vt 0.411619 0.636084
vt 0.445012 0.673233
vt 0.118777 0.719855
vt 0.180839 0.573381
vt 0.573564 0.280458
vt 0.576598 0.339712
vt 0.557836 0.331151
vt 0.536705 0.325568
vt 0.518303 0.317369
vt 0.508635 0.299417
vt 0.506292 0.276371
vt 0.509070 0.250585
vt 0.529061 0.210020
vt 0.579209 0.201130
vt 0.637843 0.217658
vt 0.655741 0.260546
vt 0.653889 0.284126
vt 0.643155 0.303975
vt 0.625006 0.318838
vt 0.612161 0.335886
vt 0.594183 0.344272
vn 0.000420 1.000000 0.000542
vn 0.112824 0.986274 -0.120557
vn 0.055750 0.987105 -0.150055
vn 0.000420 1.000000 0.000542
vn 0.055750 0.987105 -0.150055
vn 0.000531 0.987091 -0.160157
vn 0.000420 1.000000 0.000542
vn -0.094820 0.986970 -0.130000
vn -0.131209 0.986872 -0.094167
vn 0.000420 1.000000 0.000542
vn -0.131209 0.986872 -0.094167
vn -0.161511 0.986869 0.001965
vn -0.161511 0.986869 0.001965
vn -0.112801 0.986970 0.114745
vn 0.000420 1.000000 0.000542
vn 0.000420 1.000000 0.000542
vn -0.112801 0.986970 0.114745
vn -0.051962 0.976137 0.210846
vn 0.000420 1.000000 0.000542
vn -0.051962 0.976137 0.210846
vn -0.042187 0.980565 0.191607
vn 0.000420 1.000000 0.000542
vn 0.082770 0.986516 0.141192
vn 0.131025 0.987379 0.088969
vn 0.000420 1.000000 0.000542
vn 0.131025 0.987379 0.088969
vn 0.163123 0.986192 0.028566
vn 0.000420 1.000000 0.000542
vn 0.171864 0.983535 -0.055874
vn 0.153918 0.984276 -0.086664
vn 0.000420 1.000000 0.000542
vn -0.042187 0.980565 0.191607
vn 0.028152 0.984536 0.172908
vn 0.000420 1.000000 0.000542
vn 0.028152 0.984536 0.172908
vn 0.082770 0.986516 0.141192
vn 0.000420 1.000000 0.000542
vn 0.163123 0.986192 0.028566
vn 0.176553 0.984057 -0.021479
vn 0.000420 1.000000 0.000542
vn 0.176553 0.984057 -0.021479
vn 0.171864 0.983535 -0.055874
vn 0.000420 1.000000 0.000542
vn 0.153918 0.984276 -0.086664
vn 0.112824 0.986274 -0.120557
vn 0.000420 1.000000 0.000542
vn 0.000531 0.987091 -0.160157
vn -0.051005 0.986865 -0.153284
vn 0.000420 1.000000 0.000542
vn -0.051005 0.986865 -0.153284
vn -0.094820 0.986970 -0.130000
vn -0.002881 0.999995 -0.001130
vn 0.258003 0.946710 -0.192808
vn 0.272584 0.941365 -0.198822
vn -0.002881 0.999995 -0.001130
vn 0.272584 0.941365 -0.198822
vn 0.262053 0.946792 -0.186851
vn -0.002881 0.999995 -0.001130
vn 0.262053 0.946792 -0.186851
vn 0.130886 0.963499 -0.233537
vn -0.002881 0.999995 -0.001130
vn 0.130886 0.963499 -0.233537
vn -0.008305 0.964934 -0.262362
vn -0.002881 0.999995 -0.001130
vn -0.008305 0.964934 -0.262362
vn -0.114743 0.962333 -0.246472
vn -0.002881 0.999995 -0.001130
vn -0.114743 0.962333 -0.246472
vn -0.196872 0.958396 -0.206687
vn -0.002881 0.999995 -0.001130
vn -0.196872 0.958396 -0.206687
vn -0.246880 0.956331 -0.156467
vn -0.002881 0.999995 -0.001130
vn -0.246880 0.956331 -0.156467
vn -0.275033 0.956433 -0.097939
vn -0.002881 0.999995 -0.001130
vn -0.275033 0.956433 -0.097939
vn -0.282646 0.958696 -0.031824
vn -0.002881 0.999995 -0.001130
vn -0.282646 0.958696 -0.031824
vn -0.263015 0.963122 0.056739
vn -0.002881 0.999995 -0.001130
vn -0.263015 0.963122 0.056739
vn -0.153588 0.963577 0.218930
vn -0.002881 0.999995 -0.001130
vn -0.153588 0.963577 0.218930
vn -0.035053 0.968641 0.245981
vn -0.002881 0.999995 -0.001130
vn -0.035053 0.968641 0.245981
vn 0.080074 0.973112 0.215966
vn -0.002881 0.999995 -0.001130
vn 0.080074 0.973112 0.215966
vn 0.185862 0.968401 0.166299
vn -0.002881 0.999995 -0.001130
vn 0.185862 0.968401 0.166299
vn 0.234974 0.963574 0.127721
vn -0.002881 0.999995 -0.001130
vn 0.234974 0.963574 0.127721
vn 0.253867 0.964351 0.074693
vn -0.002881 0.999995 -0.001130
vn 0.253867 0.964351 0.074693
vn 0.262733 0.963695 -0.047569
vn -0.002881 0.999995 -0.001130
vn 0.262733 0.963695 -0.047569
vn 0.258003 0.946710 -0.192808
vn -0.005367 0.999985 0.000792
vn -0.005109 0.978692 -0.205269
vn -0.002938 0.976419 -0.215863
vn -0.005367 0.999985 0.000792
vn -0.002938 0.976419 -0.215863
vn -0.000602 0.978723 -0.205187
vn -0.005367 0.999985 0.000792
vn -0.000602 0.978723 -0.205187
vn -0.072512 0.985634 -0.152535
vn -0.005367 0.999985 0.000792
vn -0.072512 0.985634 -0.152535
vn -0.138263 0.985933 -0.093913
vn -0.005367 0.999985 0.000792
vn -0.138263 0.985933 -0.093913
vn -0.172036 0.984893 -0.019754
vn -0.005367 0.999985 0.000792
vn 0.048357 0.990594 0.128003
vn 0.108383 0.989808 0.092378
vn -0.005367 0.999985 0.000792
vn 0.108383 0.989808 0.092378
vn 0.137762 0.988715 0.058867
vn -0.005367 0.999985 0.000792
vn 0.137762 0.988715 0.058867
vn 0.151162 0.988450 0.010806
vn -0.005367 0.999985 0.000792
vn 0.151162 0.988450 0.010806
vn 0.162293 0.984549 -0.065763
vn -0.005367 0.999985 0.000792
vn 0.162293 0.984549 -0.065763
vn 0.177527 0.980451 -0.084856
vn -0.005367 0.999985 0.000792
vn 0.177527 0.980451 -0.084856
vn 0.155166 0.983910 -0.088573
vn -0.005367 0.999985 0.000792
vn 0.155166 0.983910 -0.088573
vn 0.075098 0.985651 -0.151168
vn -0.005367 0.999985 0.000792
vn 0.075098 0.985651 -0.151168
vn -0.005109 0.978692 -0.205269
vn 0.013594 0.999896 -0.004808
vn -0.048492 0.998797 -0.007308
vn -0.043534 0.998990 0.011171
vn 0.013594 0.999896 -0.004808
vn -0.043534 0.998990 0.011171
vn -0.038013 0.998954 0.025420
vn 0.013594 0.999896 -0.004808
vn -0.015285 0.998976 0.042574
vn -0.000889 0.999042 0.043749
vn 0.013594 0.999896 -0.004808
vn -0.000889 0.999042 0.043749
vn 0.013088 0.998976 0.043318
vn 0.013594 0.999896 -0.004808
vn 0.036650 0.998957 0.027237
vn 0.053422 0.997491 -0.046463
vn 0.013594 0.999896 -0.004808
vn 0.053422 0.997491 -0.046463
vn -0.038454 0.994538 -0.097033
vn 0.013594 0.999896 -0.004808
vn -0.053620 0.998339 0.021054
vn 0.019286 0.993632 0.111014
vn 0.013594 0.999896 -0.004808
vn 0.020245 0.998875 -0.042891
vn -0.000705 0.998995 -0.044810
vn 0.013594 0.999896 -0.004808
vn -0.000705 0.998995 -0.044810
vn -0.020489 0.998806 -0.044359
vn 0.013594 0.999896 -0.004808
vn -0.042491 0.998581 -0.032098
vn -0.045795 0.998731 -0.020959
vn 0.013594 0.999896 -0.004808
vn 0.019286 0.993632 0.111014
vn 0.069934 0.997549 0.002094
vn 0.013594 0.999896 -0.004808
vn 0.069934 0.997549 0.002094
vn 0.020245 0.998875 -0.042891
vn 0.013594 0.999896 -0.004808
vn -0.020489 0.998806 -0.044359
vn -0.032840 0.998729 -0.038229
vn 0.013594 0.999896 -0.004808
vn -0.032840 0.998729 -0.038229
vn -0.042491 0.998581 -0.032098
vn 0.013594 0.999896 -0.004808
vn -0.045795 0.998731 -0.020959
vn -0.048492 0.998797 -0.007308
vn 0.013594 0.999896 -0.004808
vn -0.038013 0.998954 0.025420
vn -0.026865 0.999030 0.034890
vn 0.013594 0.999896 -0.004808
vn -0.026865 0.999030 0.034890
vn -0.015285 0.998976 0.042574
vn 0.013594 0.999896 -0.004808
vn 0.013088 0.998976 0.043318
vn 0.025443 0.999031 0.035920
vn 0.013594 0.999896 -0.004808
vn 0.025443 0.999031 0.035920
vn 0.036650 0.998957 0.027237
vn 0.013594 0.999896 -0.004808
vn -0.038454 0.994538 -0.097033
vn -0.053620 0.998339 0.021054
vn 0.000698 0.999995 0.003015
vn -0.304932 0.946710 -0.103715
vn -0.318139 0.941365 -0.112338
vn 0.000698 0.999995 0.003015
vn -0.318139 0.941365 -0.112338
vn -0.302311 0.946792 -0.110424
vn 0.000698 0.999995 0.003015
vn -0.302311 0.946792 -0.110424
vn -0.266622 0.963499 0.024152
vn 0.000698 0.999995 0.003015
vn -0.266622 0.963499 0.024152
vn -0.211666 0.964934 0.155242
vn 0.000698 0.999995 0.003015
vn -0.211666 0.964934 0.155242
vn -0.138360 0.962333 0.234032
vn 0.000698 0.999995 0.003015
vn -0.138360 0.962333 0.234032
vn -0.059097 0.958396 0.279259
vn 0.000698 0.999995 0.003015
vn -0.059097 0.958396 0.279259
vn 0.010603 0.956331 0.292095
vn 0.000698 0.999995 0.003015
vn 0.010603 0.956331 0.292095
vn 0.074793 0.956433 0.282208
vn 0.000698 0.999995 0.003015
vn 0.074793 0.956433 0.282208
vn 0.133622 0.958696 0.251091
vn 0.000698 0.999995 0.003015
vn 0.133622 0.958696 0.251091
vn 0.195554 0.963122 0.184810
vn 0.000698 0.999995 0.003015
vn 0.195554 0.963122 0.184810
vn 0.248057 0.964841 0.086884
vn 0.000698 0.999995 0.003015
vn 0.248057 0.964841 0.086884
vn 0.267417 0.963577 0.002832
vn 0.000698 0.999995 0.003015
vn 0.267417 0.963577 0.002832
vn 0.261531 0.963716 -0.053418
vn 0.000698 0.999995 0.003015
vn 0.261531 0.963716 -0.053418
vn 0.222680 0.968641 -0.110221
vn 0.000698 0.999995 0.003015
vn 0.222680 0.968641 -0.110221
vn 0.132812 0.973112 -0.188187
vn 0.000698 0.999995 0.003015
vn 0.132812 0.973112 -0.188187
vn 0.032018 0.968401 -0.247335
vn 0.000698 0.999995 0.003015
vn 0.032018 0.968401 -0.247335
vn -0.027574 0.963574 -0.266017
vn 0.000698 0.999995 0.003015
vn -0.027574 0.963574 -0.266017
vn -0.081992 0.964351 -0.251604
vn 0.000698 0.999995 0.003015
vn -0.081992 0.964351 -0.251604
vn -0.187833 0.963695 -0.189764
vn 0.000698 0.999995 0.003015
vn -0.187833 0.963695 -0.189764
vn -0.304932 0.946710 -0.103715
vn 0.011155 0.999937 0.000901
vn 0.001864 0.999992 0.003639
vn -0.001714 0.999998 0.000748
vn 0.011155 0.999937 0.000901
vn -0.001542 0.999998 0.001307
vn -0.000492 1.000000 0.000123
vn 0.011155 0.999937 0.000901
vn -0.000492 1.000000 0.000123
vn 0.002611 0.999997 0.000249
vn 0.011155 0.999937 0.000901
vn -0.045937 0.988784 -0.142110
vn -0.126908 0.991794 -0.015464
vn 0.011155 0.999937 0.000901
vn -0.171615 0.975290 0.139130
vn -0.010538 0.995382 0.095411
vn 0.011155 0.999937 0.000901
vn -0.002958 0.999975 -0.006409
vn 0.006403 0.999979 -0.000403
vn 0.011155 0.999937 0.000901
vn 0.006403 0.999979 -0.000403
vn 0.012925 0.999902 0.005331
vn 0.011155 0.999937 0.000901
vn -0.001714 0.999998 0.000748
vn 0.000988 1.000000 0.000263
vn 0.011155 0.999937 0.000901
vn 0.000988 1.000000 0.000263
vn -0.001542 0.999998 0.001307
vn 0.011155 0.999937 0.000901
vn 0.002611 0.999997 0.000249
vn 0.037469 0.998402 -0.042293
vn 0.011155 0.999937 0.000901
vn 0.037469 0.998402 -0.042293
vn -0.045937 0.988784 -0.142110
vn 0.011155 0.999937 0.000901
vn -0.010538 0.995382 0.095411
vn -0.002958 0.999975 -0.006409
vn 0.011155 0.999937 0.000901
vn -0.126908 0.991794 -0.015464
vn -0.171615 0.975290 0.139130
vn 0.000047 0.999985 -0.005425
vn 0.203594 0.978692 0.026667
vn 0.213725 0.976419 0.030448
vn 0.000047 0.999985 -0.005425
vn 0.213725 0.976419 0.030448
vn 0.202816 0.978723 0.031107
vn 0.000047 0.999985 -0.005425
vn 0.202816 0.978723 0.031107
vn 0.161907 0.985634 -0.048074
vn 0.000047 0.999985 -0.005425
vn 0.161907 0.985634 -0.048074
vn 0.114147 0.985933 -0.122093
vn 0.000047 0.999985 -0.005425
vn 0.114147 0.985933 -0.122093
vn 0.076080 0.984747 -0.156478
vn 0.000047 0.999985 -0.005425
vn 0.076080 0.984747 -0.156478
vn 0.046097 0.984893 -0.166918
vn 0.000047 0.999985 -0.005425
vn 0.046097 0.984893 -0.166918
vn -0.064482 0.989444 -0.129777
vn 0.000047 0.999985 -0.005425
vn -0.064482 0.989444 -0.129777
vn -0.143791 0.987350 -0.066808
vn 0.000047 0.999985 -0.005425
vn -0.143791 0.987350 -0.066808
vn -0.133937 0.990594 0.028000
vn 0.000047 0.999985 -0.005425
vn -0.133937 0.990594 0.028000
vn -0.079445 0.988714 0.127013
vn 0.000047 0.999985 -0.005425
vn -0.079445 0.988714 0.127013
vn -0.034031 0.988450 0.147678
vn 0.000047 0.999985 -0.005425
vn -0.034031 0.988450 0.147678
vn 0.039899 0.984549 0.170505
vn 0.000047 0.999985 -0.005425
vn 0.039899 0.984549 0.170505
vn 0.056409 0.980451 0.188505
vn 0.000047 0.999985 -0.005425
vn 0.056409 0.980451 0.188505
vn 0.063536 0.983910 0.166988
vn 0.000047 0.999985 -0.005425
vn 0.063536 0.983910 0.166988
vn 0.137750 0.985651 0.097552
vn 0.000047 0.999985 -0.005425
vn 0.137750 0.985651 0.097552
vn 0.203594 0.978692 0.026667
s off
g RockPoolFalls_water:polySurface1
usemtl initialShadingGroup
f 1/1/1 2/2/2 3/3/3
f 1/1/4 3/3/5 4/4/6
f 1/1/7 5/5/8 6/6/9
f 1/1/10 6/6/11 18/7/12
f 18/7/13 7/8/14 1/1/15
f 1/1/16 7/8/17 8/9/18
f 1/1/19 8/9/20 9/10/21
f 1/1/22 10/11/23 11/12/24
f 1/1/25 11/12/26 12/13/27
f 1/1/28 13/14/29 14/15/30
f 1/1/31 9/10/32 15/16/33
f 1/1/34 15/16/35 10/11/36
f 1/1/37 12/13/38 16/17/39
f 1/1/40 16/17/41 13/14/42
f 1/1/43 14/15/44 2/2/45
f 1/1/46 4/4/47 17/18/48
f 1/1/49 17/18/50 5/5/51
f 19/19/52 20/20/53 21/21/54
f 19/19/55 21/21/56 22/22/57
f 19/19/58 22/22/59 23/23/60
f 19/19/61 23/23/62 24/24/63
f 19/19/64 24/24/65 25/25/66
f 19/19/67 25/25/68 26/26/69
f 19/19/70 26/26/71 27/27/72
f 19/19/73 27/27/74 28/28/75
f 19/19/76 28/28/77 29/29/78
f 19/19/79 29/29/80 30/30/81
f 19/19/82 30/30/83 31/31/84
f 19/19/85 31/31/86 32/32/87
f 19/19/88 32/32/89 33/33/90
f 19/19/91 33/33/92 34/34/93
f 19/19/94 34/34/95 35/35/96
f 19/19/97 35/35/98 36/36/99
f 19/19/100 36/36/101 37/37/102
f 19/19/103 37/37/104 20/20/105
f 38/38/106 39/39/107 40/40/108
f 38/38/109 40/40/110 41/41/111
f 38/38/112 41/41/113 42/42/114
f 38/38/115 42/42/116 43/43/117
f 38/38/118 43/43/119 44/44/120
f 38/38/121 45/45/122 46/46/123
f 38/38/124 46/46/125 47/47/126
f 38/38/127 47/47/128 48/48/129
f 38/38/130 48/48/131 49/49/132
f 38/38/133 49/49/134 50/50/135
f 38/38/136 50/50/137 51/51/138
f 38/38/139 51/51/140 52/52/141
f 38/38/142 52/52/143 39/39/144
f 53/53/145 54/54/146 55/55/147
f 53/53/148 55/55/149 56/56/150
f 53/53/151 57/57/152 58/58/153
f 53/53/154 58/58/155 59/59/156
f 53/53/157 60/60/158 61/61/159
f 53/53/160 61/61/161 62/62/162
f 53/53/163 63/63/164 64/64/165
f 53/53/166 65/65/167 66/66/168
f 53/53/169 66/66/170 67/67/171
f 53/53/172 68/68/173 69/69/174
f 53/53/175 64/64/176 70/70/177
f 53/53/178 70/70/179 65/65/180
f 53/53/181 67/67/182 71/71/183
f 53/53/184 71/71/185 68/68/186
f 53/53/187 69/69/188 54/54/189
f 53/53/190 56/56/191 72/72/192
f 53/53/193 72/72/194 57/57/195
f 53/53/196 59/59/197 73/73/198
f 53/53/199 73/73/200 60/60/201
f 53/53/202 62/62/203 63/63/204
f 74/74/205 75/75/206 76/76/207
f 74/74/208 76/76/209 77/77/210
f 74/74/211 77/77/212 78/78/213
f 74/74/214 78/78/215 79/79/216
f 74/74/217 79/79/218 80/80/219
f 74/74/220 80/80/221 81/81/222
f 74/74/223 81/81/224 82/82/225
f 74/74/226 82/82/227 83/83/228
f 74/74/229 83/83/230 84/84/231
f 74/74/232 84/84/233 85/85/234
f 74/74/235 85/85/236 86/86/237
f 74/74/238 86/86/239 87/87/240
f 74/74/241 87/87/242 88/88/243
f 74/74/244 88/88/245 89/89/246
f 74/74/247 89/89/248 90/90/249
f 74/74/250 90/90/251 91/91/252
f 74/74/253 91/91/254 92/92/255
f 74/74/256 92/92/257 93/93/258
f 74/74/259 93/93/260 94/94/261
f 74/74/262 94/94/263 75/75/264
f 95/95/265 96/96/266 97/97/267
f 95/95/268 98/98/269 99/99/270
f 95/95/271 99/99/272 100/100/273
f 95/95/274 101/101/275 109/102/276
f 95/95/277 102/103/278 103/104/279
f 95/95/280 104/105/281 105/106/282
f 95/95/283 105/106/284 106/107/285
f 95/95/286 97/97/287 107/108/288
f 95/95/289 107/108/290 98/98/291
f 95/95/292 100/100/293 108/109/294
f 95/95/295 108/109/296 101/101/297
f 95/95/298 103/104/299 104/105/300
f 95/95/301 109/102/302 102/103/303
f 110/110/304 111/111/305 112/112/306
f 110/110/307 112/112/308 113/113/309
f 110/110/310 113/113/311 114/114/312
f 110/110/313 114/114/314 115/115/315
f 110/110/316 115/115/317 116/116/318
f 110/110/319 116/116/320 117/117/321
f 110/110/322 117/117/323 118/118/324
f 110/110/325 118/118/326 119/119/327
f 110/110/328 119/119/329 120/120/330
f 110/110/331 120/120/332 121/121/333
f 110/110/334 121/121/335 122/122/336
f 110/110/337 122/122/338 123/123/339
f 110/110/340 123/123/341 124/124/342
f 110/110/343 124/124/344 125/125/345
f 110/110/346 125/125/347 126/126/348
f 110/110/349 126/126/350 111/111/351
