# This file uses centimeters as units for non-parametric coordinates.

mtllib ThermalBeachSpringsPool03.mtl
g default
v 13.370528 0.000000 -9.714257
v 5.107086 0.000000 -15.717998
v -5.107088 0.000000 -15.717996
v -13.370527 0.000000 -9.714254
v -16.526880 0.000000 0.000002
v -13.370525 0.000000 9.714258
v -5.107085 0.000000 15.717998
v 5.107088 0.000000 15.717997
v 13.370527 0.000000 9.714256
v 16.526878 0.000000 0.000001
v 0.000001 0.000000 0.000001
vt 0.189506 0.297195
vt 0.151717 0.269743
vt 0.105012 0.269743
vt 0.067222 0.297195
vt 0.052783 0.341620
vt 0.067217 0.386048
vt 0.105008 0.413506
vt 0.151720 0.413506
vt 0.189511 0.386048
vt 0.203945 0.341620
vt 0.128364 0.341610
vn 0.000000 1.000000 0.000000
vn 0.000000 1.000000 0.000000
vn 0.000000 1.000000 0.000000
vn 0.000000 1.000000 0.000000
vn 0.000000 1.000000 0.000000
vn 0.000000 1.000000 0.000000
vn 0.000000 1.000000 0.000000
vn 0.000000 1.000000 0.000000
vn 0.000000 1.000000 0.000000
vn 0.000000 1.000000 0.000000
vn 0.000000 1.000000 0.000000
s 1
g pCylinder3
usemtl blinn2SG
f 1/9/1 2/8/2 11/11/3
f 2/8/2 3/7/4 11/11/3
f 3/7/4 4/6/5 11/11/3
f 4/6/5 5/5/6 11/11/3
f 5/5/6 6/4/7 11/11/3
f 6/4/7 7/3/8 11/11/3
f 7/3/8 8/2/9 11/11/3
f 8/2/9 9/1/10 11/11/3
f 9/1/10 10/10/11 11/11/3
f 10/10/11 1/9/1 11/11/3
