# This file uses centimeters as units for non-parametric coordinates.

mtllib SandPile01.mtl
g default
v -2.594195 0.000000 7.782586
v 0.000000 0.000000 8.197513
v 2.594196 0.000000 7.782586
v -5.741625 0.000000 5.741625
v -2.594195 1.293305 5.188390
v 0.000000 1.870275 5.188390
v 2.594195 1.293304 5.188390
v 5.741626 0.000000 5.741625
v -7.782586 0.000000 2.594195
v -5.188390 1.293304 2.594195
v -2.594195 3.450224 2.594195
v 0.000000 4.483792 2.594195
v 2.594196 3.450224 2.594195
v 5.188392 1.293305 2.594195
v 7.782586 0.000000 2.594195
v -8.197513 -0.000001 0.000000
v -5.188390 1.870275 0.000000
v -2.594195 4.483792 0.000000
v 0.000000 5.470887 0.000000
v 2.594196 4.483793 0.000000
v 5.188392 1.870275 0.000000
v 8.197513 0.000001 0.000000
v -7.782586 0.000000 -2.594196
v -5.188390 1.293304 -2.594196
v -2.594195 3.450224 -2.594195
v 0.000000 4.483792 -2.594195
v 2.594196 3.450224 -2.594195
v 5.188392 1.293304 -2.594195
v 7.782586 0.000000 -2.594195
v -5.741625 0.000000 -5.741626
v -2.594195 1.293304 -5.188392
v 0.000000 1.870275 -5.188392
v 2.594196 1.293304 -5.188392
v 5.741626 0.000000 -5.741626
v -2.594195 0.000000 -7.782586
v 0.000000 0.000000 -8.197513
v 2.594196 0.000000 -7.782586
v -3.527288 -1.789242 10.581863
v 0.000000 -1.789242 11.146032
v 3.527288 -1.789242 10.581863
v -10.581863 -1.789243 3.527288
v -11.146032 -1.789243 0.000000
v 10.581863 -1.789243 3.527288
v 11.146032 -1.789242 0.000000
v -10.581863 -1.789242 -3.527288
v 10.581863 -1.789242 -3.527288
v -3.527288 -1.789242 -10.581863
v 0.000000 -1.789242 -11.146032
v 3.527288 -1.789242 -10.581863
v -7.806799 -1.789242 7.806799
v -7.806799 -1.789243 -7.806802
v 7.806802 -1.789243 -7.806802
v 7.806802 -1.789243 7.806799
vt 0.239186 0.310237
vt 0.351511 0.197192
vt 0.366923 0.310396
vt 0.459933 0.164448
vt 0.475717 0.305329
vt 0.573737 0.173181
vt 0.582818 0.288608
vt 0.163759 0.450568
vt 0.276524 0.432380
vt 0.402313 0.431107
vt 0.495468 0.431755
vt 0.581431 0.409432
vt 0.712461 0.244085
vt 0.696744 0.378873
vt 0.303357 0.537938
vt 0.163950 0.563863
vt 0.430045 0.520040
vt 0.506869 0.508588
vt 0.582761 0.497561
vt 0.703104 0.481256
vt 0.808642 0.362782
vt 0.837537 0.464454
vt 0.318512 0.645276
vt 0.205462 0.670169
vt 0.433711 0.608779
vt 0.518413 0.584397
vt 0.605671 0.581801
vt 0.723306 0.581053
vt 0.834422 0.569390
vt 0.438048 0.727989
vt 0.313656 0.782263
vt 0.537828 0.704277
vt 0.639203 0.694560
vt 0.771845 0.704939
vt 0.560904 0.837781
vt 0.455203 0.839730
vt 0.660367 0.804260
vt 0.286449 0.070967
vt 0.448704 0.021600
vt 0.608056 0.033400
vt 0.024044 0.594676
vt 0.024038 0.425087
vt 0.935569 0.303849
vt 0.975680 0.448077
vt 0.081708 0.743701
vt 0.969800 0.596522
vt 0.585431 0.974711
vt 0.435776 0.978315
vt 0.725740 0.925878
vt 0.127688 0.227597
vt 0.235982 0.899510
vt 0.881668 0.786320
vt 0.802028 0.135640
vn -0.378563 0.844618 0.378563
vn -0.196231 0.857300 0.475953
vn -0.288693 0.809867 0.510659
vn -0.196231 0.857300 0.475953
vn 0.000000 0.861359 0.507997
vn 0.000000 0.799902 0.600131
vn -0.288693 0.809867 0.510659
vn 0.000000 0.861359 0.507997
vn 0.196231 0.857300 0.475953
vn 0.288693 0.809867 0.510659
vn 0.000000 0.799902 0.600131
vn -0.475953 0.857300 0.196231
vn -0.378563 0.844618 0.378563
vn -0.510659 0.809867 0.288693
vn -0.378563 0.844618 0.378563
vn -0.288693 0.809867 0.510659
vn -0.434306 0.789149 0.434306
vn -0.510659 0.809867 0.288693
vn -0.288693 0.809867 0.510659
vn 0.000000 0.799902 0.600131
vn 0.000000 0.850130 0.526573
vn -0.434306 0.789149 0.434306
vn 0.000000 0.799902 0.600131
vn 0.288693 0.809867 0.510659
vn 0.434306 0.789149 0.434306
vn 0.000000 0.850130 0.526573
vn 0.288693 0.809867 0.510659
vn 0.378563 0.844618 0.378563
vn 0.510659 0.809867 0.288693
vn 0.434306 0.789149 0.434306
vn -0.475953 0.857300 0.196231
vn -0.510659 0.809867 0.288693
vn -0.600131 0.799902 0.000000
vn -0.507997 0.861359 0.000000
vn -0.510659 0.809867 0.288693
vn -0.434306 0.789149 0.434306
vn -0.526573 0.850130 0.000000
vn -0.600131 0.799902 0.000000
vn -0.434306 0.789149 0.434306
vn 0.000000 0.850130 0.526573
vn 0.000000 1.000000 0.000000
vn -0.526573 0.850130 0.000000
vn 0.000000 0.850130 0.526573
vn 0.434306 0.789149 0.434306
vn 0.526573 0.850130 0.000000
vn 0.000000 1.000000 0.000000
vn 0.434306 0.789149 0.434306
vn 0.510659 0.809867 0.288693
vn 0.600131 0.799902 0.000000
vn 0.526573 0.850130 0.000000
vn 0.510659 0.809867 0.288693
vn 0.475953 0.857300 0.196231
vn 0.507997 0.861359 0.000000
vn 0.600131 0.799902 0.000000
vn -0.507997 0.861359 0.000000
vn -0.600131 0.799902 0.000000
vn -0.510659 0.809867 -0.288693
vn -0.475953 0.857300 -0.196231
vn -0.600131 0.799902 0.000000
vn -0.526573 0.850130 0.000000
vn -0.434306 0.789149 -0.434306
vn -0.510659 0.809867 -0.288693
vn -0.526573 0.850130 0.000000
vn 0.000000 1.000000 0.000000
vn 0.000000 0.850130 -0.526573
vn -0.434306 0.789149 -0.434306
vn 0.000000 1.000000 0.000000
vn 0.526573 0.850130 0.000000
vn 0.434306 0.789149 -0.434306
vn 0.000000 0.850130 -0.526573
vn 0.526573 0.850130 0.000000
vn 0.600131 0.799902 0.000000
vn 0.510659 0.809867 -0.288693
vn 0.434306 0.789149 -0.434306
vn 0.600131 0.799902 0.000000
vn 0.507997 0.861359 0.000000
vn 0.475953 0.857300 -0.196231
vn 0.510659 0.809867 -0.288693
vn -0.510659 0.809867 -0.288693
vn -0.434306 0.789149 -0.434306
vn -0.288693 0.809867 -0.510659
vn -0.378563 0.844618 -0.378563
vn -0.434306 0.789149 -0.434306
vn 0.000000 0.850130 -0.526573
vn 0.000000 0.799902 -0.600131
vn -0.288693 0.809867 -0.510659
vn 0.000000 0.850130 -0.526573
vn 0.434306 0.789149 -0.434306
vn 0.288693 0.809867 -0.510659
vn 0.000000 0.799902 -0.600131
vn 0.434306 0.789149 -0.434306
vn 0.510659 0.809867 -0.288693
vn 0.378563 0.844618 -0.378563
vn 0.288693 0.809867 -0.510659
vn -0.288693 0.809867 -0.510659
vn 0.000000 0.799902 -0.600131
vn 0.000000 0.861359 -0.507997
vn -0.196231 0.857300 -0.475953
vn 0.000000 0.799902 -0.600131
vn 0.288693 0.809867 -0.510659
vn 0.196231 0.857300 -0.475953
vn 0.000000 0.861359 -0.507997
vn -0.475953 0.857300 -0.196231
vn -0.510659 0.809867 -0.288693
vn -0.378563 0.844618 -0.378563
vn -0.378563 0.844618 -0.378563
vn -0.288693 0.809867 -0.510659
vn -0.196231 0.857300 -0.475953
vn 0.288693 0.809867 -0.510659
vn 0.378563 0.844618 -0.378563
vn 0.196231 0.857300 -0.475953
vn 0.510659 0.809867 -0.288693
vn 0.475953 0.857300 -0.196231
vn 0.378563 0.844618 -0.378563
vn 0.378563 0.844618 0.378563
vn 0.475953 0.857300 0.196231
vn 0.510659 0.809867 0.288693
vn 0.196231 0.857300 0.475953
vn 0.378563 0.844618 0.378563
vn 0.288693 0.809867 0.510659
vn 0.000000 0.861359 0.507997
vn -0.196231 0.857300 0.475953
vn -0.201638 0.854398 0.478901
vn 0.000000 0.854907 0.518781
vn 0.196231 0.857300 0.475953
vn 0.000000 0.861359 0.507997
vn 0.000000 0.854907 0.518781
vn 0.201638 0.854398 0.478901
vn -0.475953 0.857300 0.196231
vn -0.507997 0.861359 0.000000
vn -0.518781 0.854907 0.000000
vn -0.478901 0.854398 0.201638
vn 0.507997 0.861359 0.000000
vn 0.475953 0.857300 0.196231
vn 0.478901 0.854398 0.201638
vn 0.518781 0.854907 0.000000
vn -0.507997 0.861359 0.000000
vn -0.475953 0.857300 -0.196231
vn -0.478901 0.854398 -0.201638
vn -0.518781 0.854907 0.000000
vn 0.475953 0.857300 -0.196231
vn 0.507997 0.861359 0.000000
vn 0.518781 0.854907 0.000000
vn 0.478901 0.854398 -0.201638
vn -0.196231 0.857300 -0.475953
vn 0.000000 0.861359 -0.507997
vn 0.000000 0.854907 -0.518781
vn -0.201638 0.854398 -0.478901
vn 0.000000 0.861359 -0.507997
vn 0.196231 0.857300 -0.475953
vn 0.201638 0.854398 -0.478901
vn 0.000000 0.854907 -0.518781
vn -0.378563 0.844618 0.378563
vn -0.475953 0.857300 0.196231
vn -0.478901 0.854398 0.201638
vn -0.369387 0.852706 0.369387
vn -0.196231 0.857300 0.475953
vn -0.378563 0.844618 0.378563
vn -0.369387 0.852706 0.369387
vn -0.201638 0.854398 0.478901
vn -0.475953 0.857300 -0.196231
vn -0.378563 0.844618 -0.378563
vn -0.369387 0.852706 -0.369387
vn -0.478901 0.854398 -0.201638
vn -0.378563 0.844618 -0.378563
vn -0.196231 0.857300 -0.475953
vn -0.201638 0.854398 -0.478901
vn -0.369387 0.852706 -0.369387
vn 0.196231 0.857300 -0.475953
vn 0.378563 0.844618 -0.378563
vn 0.369387 0.852706 -0.369387
vn 0.201638 0.854398 -0.478901
vn 0.378563 0.844618 -0.378563
vn 0.475953 0.857300 -0.196231
vn 0.478901 0.854398 -0.201638
vn 0.369387 0.852706 -0.369387
vn 0.475953 0.857300 0.196231
vn 0.378563 0.844618 0.378563
vn 0.369387 0.852706 0.369387
vn 0.478901 0.854398 0.201638
vn 0.378563 0.844618 0.378563
vn 0.196231 0.857300 0.475953
vn 0.201638 0.854398 0.478901
vn 0.369387 0.852706 0.369387
s off
g SandPile01:pPlane3
usemtl blinn1SG
f 4/1/1 1/2/2 5/3/3
f 1/2/4 2/4/5 6/5/6 5/3/7
f 2/4/8 3/6/9 7/7/10 6/5/11
f 9/8/12 4/1/13 10/9/14
f 4/1/15 5/3/16 11/10/17 10/9/18
f 5/3/19 6/5/20 12/11/21 11/10/22
f 6/5/23 7/7/24 13/12/25 12/11/26
f 7/7/27 8/13/28 14/14/29 13/12/30
f 9/8/31 10/9/32 17/15/33 16/16/34
f 10/9/35 11/10/36 18/17/37 17/15/38
f 11/10/39 12/11/40 19/18/41 18/17/42
f 12/11/43 13/12/44 20/19/45 19/18/46
f 13/12/47 14/14/48 21/20/49 20/19/50
f 14/14/51 15/21/52 22/22/53 21/20/54
f 16/16/55 17/15/56 24/23/57 23/24/58
f 17/15/59 18/17/60 25/25/61 24/23/62
f 18/17/63 19/18/64 26/26/65 25/25/66
f 19/18/67 20/19/68 27/27/69 26/26/70
f 20/19/71 21/20/72 28/28/73 27/27/74
f 21/20/75 22/22/76 29/29/77 28/28/78
f 24/23/79 25/25/80 31/30/81 30/31/82
f 25/25/83 26/26/84 32/32/85 31/30/86
f 26/26/87 27/27/88 33/33/89 32/32/90
f 27/27/91 28/28/92 34/34/93 33/33/94
f 31/30/95 32/32/96 36/35/97 35/36/98
f 32/32/99 33/33/100 37/37/101 36/35/102
f 23/24/103 24/23/104 30/31/105
f 30/31/106 31/30/107 35/36/108
f 33/33/109 34/34/110 37/37/111
f 28/28/112 29/29/113 34/34/114
f 8/13/115 15/21/116 14/14/117
f 3/6/118 8/13/119 7/7/120
f 2/4/121 1/2/122 38/38/123 39/39/124
f 3/6/125 2/4/126 39/39/127 40/40/128
f 9/8/129 16/16/130 42/41/131 41/42/132
f 22/22/133 15/21/134 43/43/135 44/44/136
f 16/16/137 23/24/138 45/45/139 42/41/140
f 29/29/141 22/22/142 44/44/143 46/46/144
f 35/36/145 36/35/146 48/47/147 47/48/148
f 36/35/149 37/37/150 49/49/151 48/47/152
f 4/1/153 9/8/154 41/42/155 50/50/156
f 1/2/157 4/1/158 50/50/159 38/38/160
f 23/24/161 30/31/162 51/51/163 45/45/164
f 30/31/165 35/36/166 47/48/167 51/51/168
f 37/37/169 34/34/170 52/52/171 49/49/172
f 34/34/173 29/29/174 46/46/175 52/52/176
f 15/21/177 8/13/178 53/53/179 43/43/180
f 8/13/181 3/6/182 40/40/183 53/53/184
