# This file uses centimeters as units for non-parametric coordinates.

mtllib DeviledEggMediumLLowerArm.mtl
g default
v -0.817443 -0.003320 -0.190023
v -0.668441 -0.024337 -0.363580
v -0.466016 -0.052888 -0.510221
v -0.215234 -0.088261 -0.623755
v 0.052320 -0.125999 -0.704308
v 0.321145 -0.163917 -0.749849
v 0.592099 -0.202135 -0.756343
v 0.797945 -0.231169 -0.735155
v 0.995744 -0.259069 -0.673820
v 1.177893 -0.284762 -0.574691
v 1.337392 -0.307259 -0.441581
v 1.468113 -0.325698 -0.279603
v 1.565032 -0.339369 -0.094983
v 1.624423 -0.347746 0.105185
v 1.644005 -0.350509 0.313209
v -0.685918 -0.128493 -0.349957
v -0.826352 -0.056420 -0.183078
v -0.491388 -0.204101 -0.490444
v -0.247526 -0.280718 -0.598584
v 0.014348 -0.352305 -0.674709
v 0.278953 -0.415374 -0.716961
v 0.547308 -0.469081 -0.721429
v 0.752276 -0.503345 -0.699558
v 0.950953 -0.526015 -0.638906
v 1.135701 -0.536219 -0.541803
v 1.299420 -0.533565 -0.411982
v 1.435821 -0.518155 -0.254432
v 1.539660 -0.490582 -0.075206
v 1.606946 -0.451903 0.118808
v 1.635096 -0.403608 0.320154
v -0.811318 0.050171 -0.183078
v -0.656426 0.080590 -0.349957
v -0.448573 0.099442 -0.490443
v -0.193033 0.105619 -0.598582
v 0.078425 0.101980 -0.674707
v 0.350151 0.089400 -0.716960
v 0.622891 0.066785 -0.721427
v 0.829341 0.043018 -0.699556
v 1.026536 0.009850 -0.638903
v 1.206899 -0.031445 -0.541802
v 1.363497 -0.079280 -0.411980
v 1.490313 -0.131818 -0.254430
v 1.582475 -0.187038 -0.075205
v 1.636437 -0.242819 0.118809
v 1.650131 -0.297018 0.320154
v -0.897013 0.007903 0.005882
v 1.623025 -0.347550 0.521093
v -0.222960 -0.087173 -0.033122
v -0.230384 -0.131422 -0.027334
v -0.141163 -0.098710 -0.186415
v -0.155726 -0.185507 -0.175062
v -0.031324 -0.114202 -0.320647
v -0.052467 -0.240213 -0.304166
v 0.102334 -0.133054 -0.430660
v 0.075424 -0.293435 -0.409683
v 0.254676 -0.154542 -0.512224
v 0.223033 -0.343130 -0.487559
v 0.419848 -0.177839 -0.562207
v 0.384688 -0.387387 -0.534800
v 0.591502 -0.202051 -0.578687
v 0.554176 -0.424505 -0.549592
v 0.763040 -0.226247 -0.561031
v 0.724983 -0.453059 -0.531366
v 0.927873 -0.249496 -0.509917
v 0.890547 -0.471951 -0.480822
v 1.079663 -0.270907 -0.427311
v 1.044503 -0.480455 -0.399904
v 1.212580 -0.289655 -0.316385
v 1.180937 -0.478243 -0.291719
v 1.321513 -0.305020 -0.181404
v 1.294603 -0.465401 -0.160427
v 1.402279 -0.316413 -0.027553
v 1.381136 -0.442423 -0.011073
v 1.451772 -0.323394 0.139253
v 1.437208 -0.410191 0.150606
v 1.468090 -0.325696 0.312606
v 1.460666 -0.369945 0.318394
v -0.217855 -0.042596 -0.027334
v -0.131150 -0.011270 -0.175062
v -0.016788 0.012740 -0.304165
v 0.120834 0.028512 -0.409682
v 0.276430 0.035441 -0.487558
v 0.444020 0.033258 -0.534799
v 0.617162 0.022049 -0.549591
v 0.789204 0.002244 -0.531365
v 0.953534 -0.025397 -0.480821
v 1.103835 -0.059809 -0.399903
v 1.234334 -0.099672 -0.291719
v 1.340014 -0.143454 -0.160426
v 1.416815 -0.189470 -0.011071
v 1.461784 -0.235955 0.150606
v 1.473195 -0.281120 0.318394
v -0.273573 -0.080034 0.133342
v 1.450607 -0.323231 0.485842
vt 0.405702 0.963616
vt 0.406487 0.969882
vt 0.380416 0.976040
vt 0.379091 0.963725
vt 0.406430 0.957355
vt 0.380316 0.951424
vt 0.351584 0.981736
vt 0.350000 0.963834
vt 0.351455 0.945947
vt 0.319551 0.986776
vt 0.317924 0.963952
vt 0.319388 0.941136
vt 0.286838 0.990930
vt 0.285359 0.964059
vt 0.286671 0.937207
vt 0.254732 0.994023
vt 0.253614 0.964145
vt 0.254591 0.934298
vt 0.222659 0.995932
vt 0.222105 0.964211
vt 0.222564 0.932504
vt 0.198051 0.996521
vt 0.198129 0.964233
vt 0.198012 0.931970
vt 0.173432 0.995897
vt 0.174190 0.964253
vt 0.173405 0.932598
vt 0.148889 0.994061
vt 0.150248 0.964271
vt 0.148845 0.934443
vt 0.124498 0.991088
vt 0.126273 0.964298
vt 0.124419 0.937460
vt 0.100308 0.987104
vt 0.102244 0.964342
vt 0.100193 0.941538
vt 0.076336 0.982275
vt 0.078146 0.964411
vt 0.076203 0.946521
vt 0.052572 0.976797
vt 0.053974 0.964507
vt 0.052454 0.952207
vt 0.028971 0.970883
vt 0.029737 0.964623
vt 0.028903 0.958365
vt 0.430292 0.963508
vt 0.005462 0.964751
vt 0.373642 0.929826
vt 0.393729 0.931944
vt 0.391443 0.942016
vt 0.372429 0.934945
vt 0.373530 0.924571
vt 0.393592 0.921637
vt 0.413764 0.934039
vt 0.410662 0.948712
vt 0.413754 0.919076
vt 0.433740 0.936107
vt 0.430138 0.954846
vt 0.434033 0.917070
vt 0.453659 0.938147
vt 0.449890 0.960251
vt 0.454424 0.915782
vt 0.473533 0.940164
vt 0.469899 0.964792
vt 0.474897 0.915344
vt 0.493374 0.942167
vt 0.490126 0.968374
vt 0.495406 0.915858
vt 0.513200 0.944162
vt 0.510513 0.970939
vt 0.515887 0.917386
vt 0.533025 0.946157
vt 0.530995 0.972467
vt 0.536274 0.919951
vt 0.552867 0.948160
vt 0.551502 0.972981
vt 0.556500 0.923532
vt 0.572741 0.950178
vt 0.571976 0.972544
vt 0.576510 0.928074
vt 0.592660 0.952218
vt 0.592367 0.971255
vt 0.596261 0.933479
vt 0.612636 0.954286
vt 0.612646 0.969249
vt 0.615738 0.939613
vt 0.632671 0.956381
vt 0.632807 0.966689
vt 0.634956 0.946309
vt 0.652757 0.958499
vt 0.652870 0.963754
vt 0.653971 0.953379
vt 0.353525 0.927694
vt 0.672875 0.960630
vt 0.994107 0.621050
vt 0.969936 0.618762
vt 0.973885 0.598502
vt 0.994028 0.600408
vt 0.946676 0.611803
vt 0.954502 0.592703
vt 0.925221 0.600439
vt 0.936623 0.583233
vt 0.906394 0.585109
vt 0.920934 0.570458
vt 0.890920 0.566400
vt 0.908039 0.554867
vt 0.879395 0.545032
vt 0.898434 0.537060
vt 0.872258 0.521826
vt 0.892488 0.517722
vt 0.869786 0.497673
vt 0.890428 0.497595
vt 0.872074 0.473502
vt 0.892334 0.477452
vt 0.879004 0.442465
vt 0.898133 0.458069
vt 0.890335 0.412555
vt 0.907603 0.440189
vt 0.905627 0.383584
vt 0.920379 0.424501
vt 0.924294 0.357289
vt 0.935969 0.411606
vt 0.945631 0.337308
vt 0.953776 0.402001
vt 0.968814 0.324085
vt 0.973115 0.396054
vt 0.992957 0.319358
vt 0.993241 0.393995
vt 0.993137 0.928954
vt 0.968958 0.924412
vt 0.972709 0.852412
vt 0.992852 0.854317
vt 0.945675 0.911366
vt 0.953326 0.846613
vt 0.924187 0.891550
vt 0.935446 0.837144
vt 0.905319 0.865398
vt 0.919757 0.824369
vt 0.889806 0.836545
vt 0.906862 0.808779
vt 0.878246 0.806723
vt 0.897257 0.790973
vt 0.871080 0.775739
vt 0.891308 0.771634
vt 0.868607 0.751587
vt 0.889248 0.751507
vt 0.870894 0.727416
vt 0.891154 0.731365
vt 0.877853 0.704155
vt 0.896953 0.711981
vt 0.889215 0.682699
vt 0.906421 0.694102
vt 0.904545 0.663873
vt 0.919197 0.678412
vt 0.923253 0.648399
vt 0.934787 0.665517
vt 0.944621 0.636872
vt 0.952593 0.655911
vt 0.967827 0.629735
vt 0.971932 0.649965
vt 0.991980 0.627263
vt 0.992059 0.647904
vn -0.790399 0.111487 -0.602362
vn -0.781193 0.167531 -0.601390
vn -0.623830 0.170464 -0.762744
vn -0.637365 0.089903 -0.765300
vn -0.797054 0.055084 -0.601391
vn -0.790399 0.111487 -0.602362
vn -0.637365 0.089903 -0.765300
vn -0.646641 0.008742 -0.762744
vn -0.637365 0.089903 -0.765300
vn -0.623830 0.170464 -0.762744
vn -0.455623 0.165727 -0.874610
vn -0.472044 0.066585 -0.879057
vn -0.646641 0.008742 -0.762744
vn -0.637365 0.089903 -0.765300
vn -0.472044 0.066585 -0.879057
vn -0.483686 -0.033231 -0.874610
vn -0.472044 0.066585 -0.879057
vn -0.455623 0.165727 -0.874610
vn -0.317824 0.157781 -0.934929
vn -0.335550 0.047333 -0.940833
vn -0.483686 -0.033231 -0.874610
vn -0.472044 0.066585 -0.879057
vn -0.335550 0.047333 -0.940833
vn -0.349065 -0.063709 -0.934930
vn -0.335550 0.047333 -0.940833
vn -0.317824 0.157781 -0.934929
vn -0.200301 0.148668 -0.968389
vn -0.218512 0.030825 -0.975347
vn -0.349065 -0.063709 -0.934930
vn -0.335550 0.047333 -0.940833
vn -0.218512 0.030825 -0.975347
vn -0.233605 -0.087459 -0.968390
vn -0.218512 0.030825 -0.975347
vn -0.200301 0.148668 -0.968389
vn -0.071339 0.136457 -0.988074
vn -0.089522 0.012631 -0.995905
vn -0.233605 -0.087459 -0.968390
vn -0.218512 0.030825 -0.975347
vn -0.089522 0.012631 -0.995905
vn -0.106298 -0.111394 -0.988075
vn -0.089522 0.012631 -0.995905
vn -0.071339 0.136457 -0.988074
vn 0.049931 0.122971 -0.991153
vn 0.032219 -0.004541 -0.999471
vn -0.106298 -0.111394 -0.988075
vn -0.089522 0.012631 -0.995905
vn 0.032219 -0.004541 -0.999471
vn 0.013971 -0.131977 -0.991154
vn 0.032219 -0.004541 -0.999471
vn 0.049931 0.122971 -0.991153
vn 0.213022 0.101775 -0.971732
vn 0.196472 -0.027709 -0.980118
vn 0.013971 -0.131977 -0.991154
vn 0.032219 -0.004541 -0.999471
vn 0.196472 -0.027709 -0.980118
vn 0.176561 -0.156719 -0.971733
vn 0.196472 -0.027709 -0.980118
vn 0.213022 0.101775 -0.971732
vn 0.393581 0.073904 -0.916314
vn 0.378806 -0.053427 -0.923933
vn 0.176561 -0.156719 -0.971733
vn 0.196472 -0.027709 -0.980118
vn 0.378806 -0.053427 -0.923933
vn 0.357785 -0.179878 -0.916315
vn 0.378806 -0.053427 -0.923933
vn 0.393581 0.073904 -0.916314
vn 0.559914 0.043316 -0.827418
vn 0.547027 -0.077155 -0.833552
vn 0.357785 -0.179878 -0.916315
vn 0.378806 -0.053427 -0.923933
vn 0.547027 -0.077155 -0.833552
vn 0.526090 -0.196491 -0.827418
vn 0.547027 -0.077155 -0.833552
vn 0.559914 0.043316 -0.827418
vn 0.705946 0.011113 -0.708178
vn 0.694824 -0.098002 -0.712471
vn 0.526090 -0.196491 -0.827418
vn 0.547027 -0.077155 -0.833552
vn 0.694824 -0.098002 -0.712471
vn 0.675331 -0.205937 -0.708179
vn 0.694824 -0.098002 -0.712471
vn 0.705946 0.011113 -0.708178
vn 0.826168 -0.021501 -0.563014
vn 0.816649 -0.115186 -0.565523
vn 0.675331 -0.205937 -0.708179
vn 0.694824 -0.098002 -0.712471
vn 0.816649 -0.115186 -0.565523
vn 0.799883 -0.207849 -0.563015
vn 0.816649 -0.115186 -0.565523
vn 0.826168 -0.021501 -0.563014
vn 0.915898 -0.053219 -0.397867
vn 0.907965 -0.128067 -0.398997
vn 0.799883 -0.207849 -0.563015
vn 0.816649 -0.115186 -0.565523
vn 0.907965 -0.128067 -0.398997
vn 0.894886 -0.202189 -0.397867
vn 0.907965 -0.128067 -0.398997
vn 0.915898 -0.053219 -0.397867
vn 0.971728 -0.082549 -0.221202
vn 0.965597 -0.136197 -0.221525
vn 0.894886 -0.202189 -0.397867
vn 0.907965 -0.128067 -0.398997
vn 0.965597 -0.136197 -0.221525
vn 0.956650 -0.189447 -0.221202
vn 0.965597 -0.136197 -0.221525
vn 0.971728 -0.082549 -0.221202
vn 0.992939 -0.107064 -0.051093
vn 0.988904 -0.139485 -0.051120
vn 0.956650 -0.189447 -0.221202
vn 0.965597 -0.136197 -0.221525
vn 0.988904 -0.139485 -0.051120
vn 0.983814 -0.171756 -0.051094
vn -0.781193 0.167531 -0.601390
vn -0.790399 0.111487 -0.602362
vn -0.916124 0.129215 -0.379501
vn -0.790399 0.111487 -0.602362
vn -0.797054 0.055084 -0.601391
vn -0.916124 0.129215 -0.379501
vn 0.988904 -0.139485 -0.051120
vn 0.992939 -0.107064 -0.051093
vn 0.985095 -0.138948 0.101393
vn 0.983814 -0.171756 -0.051094
vn 0.988904 -0.139485 -0.051120
vn 0.985095 -0.138948 0.101393
vn 0.891351 -0.125725 0.435530
vn 0.804251 -0.113441 0.583362
vn 0.795539 -0.166725 0.582512
vn 0.886313 -0.158005 0.435298
vn 0.895438 -0.093311 0.435298
vn 0.810617 -0.059827 0.582512
vn 0.804251 -0.113441 0.583362
vn 0.891351 -0.125725 0.435530
vn 0.804251 -0.113441 0.583362
vn 0.682807 -0.096313 0.724223
vn 0.670366 -0.170526 0.722171
vn 0.795539 -0.166725 0.582512
vn 0.810617 -0.059827 0.582512
vn 0.691379 -0.021553 0.722171
vn 0.682807 -0.096313 0.724223
vn 0.804251 -0.113441 0.583362
vn 0.682807 -0.096313 0.724223
vn 0.534546 -0.075401 0.841769
vn 0.519032 -0.168240 0.838034
vn 0.670366 -0.170526 0.722171
vn 0.691379 -0.021553 0.722171
vn 0.545317 0.018107 0.838035
vn 0.534546 -0.075401 0.841769
vn 0.682807 -0.096313 0.724223
vn 0.534546 -0.075401 0.841769
vn 0.365719 -0.051588 0.929294
vn 0.348208 -0.159801 0.923696
vn 0.519032 -0.168240 0.838034
vn 0.545317 0.018107 0.838035
vn 0.378823 0.057248 0.923697
vn 0.365719 -0.051588 0.929294
vn 0.534546 -0.075401 0.841769
vn 0.365719 -0.051588 0.929294
vn 0.182928 -0.025805 0.982788
vn 0.164669 -0.145519 0.975555
vn 0.348208 -0.159801 0.923696
vn 0.378823 0.057248 0.923697
vn 0.198494 0.094288 0.975556
vn 0.182928 -0.025805 0.982788
vn 0.365719 -0.051588 0.929294
vn 0.182928 -0.025805 0.982788
vn -0.006855 0.000963 0.999976
vn -0.024697 -0.125935 0.991731
vn 0.164669 -0.145519 0.975555
vn 0.198494 0.094288 0.975556
vn 0.011099 0.127846 0.991732
vn -0.006855 0.000963 0.999976
vn 0.182928 -0.025805 0.982788
vn -0.006855 0.000963 0.999976
vn -0.196472 0.027709 0.980118
vn -0.213022 -0.101775 0.971732
vn -0.024697 -0.125935 0.991731
vn 0.011099 0.127846 0.991732
vn -0.176561 0.156719 0.971733
vn -0.196472 0.027709 0.980118
vn -0.006855 0.000963 0.999976
vn -0.196472 0.027709 0.980118
vn -0.378807 0.053427 0.923932
vn -0.393582 -0.073904 0.916314
vn -0.213022 -0.101775 0.971732
vn -0.176561 0.156719 0.971733
vn -0.357786 0.179878 0.916315
vn -0.378807 0.053427 0.923932
vn -0.196472 0.027709 0.980118
vn -0.378807 0.053427 0.923932
vn -0.547027 0.077155 0.833552
vn -0.559914 -0.043316 0.827418
vn -0.393582 -0.073904 0.916314
vn -0.357786 0.179878 0.916315
vn -0.526090 0.196491 0.827418
vn -0.547027 0.077155 0.833552
vn -0.378807 0.053427 0.923932
vn -0.547027 0.077155 0.833552
vn -0.694824 0.098002 0.712471
vn -0.705946 -0.011112 0.708179
vn -0.559914 -0.043316 0.827418
vn -0.526090 0.196491 0.827418
vn -0.675331 0.205937 0.708180
vn -0.694824 0.098002 0.712471
vn -0.547027 0.077155 0.833552
vn -0.694824 0.098002 0.712471
vn -0.816649 0.115186 0.565523
vn -0.826168 0.021501 0.563014
vn -0.705946 -0.011112 0.708179
vn -0.675331 0.205937 0.708180
vn -0.799883 0.207849 0.563015
vn -0.816649 0.115186 0.565523
vn -0.694824 0.098002 0.712471
vn -0.816649 0.115186 0.565523
vn -0.907965 0.128067 0.398997
vn -0.915898 0.053219 0.397867
vn -0.826168 0.021501 0.563014
vn -0.799883 0.207849 0.563015
vn -0.894886 0.202189 0.397866
vn -0.907965 0.128067 0.398997
vn -0.816649 0.115186 0.565523
vn -0.907965 0.128067 0.398997
vn -0.965597 0.136197 0.221525
vn -0.971728 0.082548 0.221202
vn -0.915898 0.053219 0.397867
vn -0.894886 0.202189 0.397866
vn -0.956650 0.189447 0.221202
vn -0.965597 0.136197 0.221525
vn -0.907965 0.128067 0.398997
vn -0.965597 0.136197 0.221525
vn -0.988904 0.139485 0.051120
vn -0.992938 0.107065 0.051093
vn -0.971728 0.082548 0.221202
vn -0.956650 0.189447 0.221202
vn -0.983814 0.171756 0.051094
vn -0.988904 0.139485 0.051120
vn -0.965597 0.136197 0.221525
vn 0.886313 -0.158005 0.435298
vn 0.946580 -0.133516 0.293530
vn 0.891351 -0.125725 0.435530
vn 0.891351 -0.125725 0.435530
vn 0.946580 -0.133516 0.293530
vn 0.895438 -0.093311 0.435298
vn -0.988904 0.139485 0.051120
vn -0.985095 0.138948 -0.101393
vn -0.992938 0.107065 0.051093
vn -0.983814 0.171756 0.051094
vn -0.985095 0.138948 -0.101393
vn -0.988904 0.139485 0.051120
vn 0.084058 0.963630 0.253675
vn 0.084058 0.963630 0.253675
vn 0.084058 0.963630 0.253675
vn 0.084058 0.963630 0.253675
vn 0.084058 0.963630 0.253675
vn 0.084058 0.963630 0.253675
vn 0.084058 0.963630 0.253675
vn 0.084058 0.963630 0.253675
vn 0.084058 0.963630 0.253675
vn 0.084058 0.963630 0.253675
vn 0.084058 0.963630 0.253675
vn 0.084058 0.963630 0.253675
vn 0.084058 0.963630 0.253675
vn 0.084058 0.963630 0.253675
vn 0.084058 0.963630 0.253675
vn 0.084058 0.963630 0.253675
vn 0.084059 0.963630 0.253676
vn 0.084059 0.963630 0.253676
vn 0.084059 0.963630 0.253676
vn 0.084059 0.963630 0.253676
vn 0.084058 0.963630 0.253675
vn 0.084058 0.963630 0.253675
vn 0.084058 0.963630 0.253675
vn 0.084058 0.963630 0.253675
vn 0.084058 0.963630 0.253675
vn 0.084058 0.963630 0.253675
vn 0.084058 0.963630 0.253675
vn 0.084058 0.963630 0.253675
vn 0.084058 0.963630 0.253675
vn 0.084058 0.963630 0.253675
vn 0.084058 0.963630 0.253675
vn 0.084058 0.963630 0.253675
vn 0.084058 0.963630 0.253675
vn 0.084058 0.963630 0.253675
vn 0.084058 0.963630 0.253675
vn 0.084058 0.963630 0.253675
vn 0.084058 0.963630 0.253675
vn 0.084058 0.963630 0.253675
vn 0.084058 0.963630 0.253675
vn 0.084058 0.963630 0.253675
vn 0.084058 0.963630 0.253675
vn 0.084058 0.963630 0.253675
vn 0.084058 0.963630 0.253675
vn 0.084058 0.963630 0.253675
vn 0.084058 0.963630 0.253676
vn 0.084058 0.963630 0.253675
vn 0.084058 0.963630 0.253676
vn 0.084058 0.963630 0.253675
vn 0.084058 0.963630 0.253675
vn 0.084058 0.963630 0.253675
vn 0.084058 0.963630 0.253675
vn 0.084058 0.963630 0.253675
vn 0.084058 0.963630 0.253675
vn 0.084058 0.963630 0.253675
vn 0.084058 0.963630 0.253675
vn 0.084058 0.963630 0.253675
vn 0.084058 0.963630 0.253675
vn 0.084058 0.963630 0.253675
vn 0.084058 0.963630 0.253675
vn 0.084058 0.963630 0.253675
vn 0.084058 0.963630 0.253675
vn 0.084058 0.963630 0.253675
vn 0.084058 0.963630 0.253675
vn 0.084058 0.963630 0.253675
vn -0.185759 -0.949286 0.253671
vn -0.185759 -0.949286 0.253671
vn -0.185759 -0.949286 0.253671
vn -0.185759 -0.949286 0.253671
vn -0.185759 -0.949286 0.253671
vn -0.185759 -0.949286 0.253671
vn -0.185759 -0.949286 0.253671
vn -0.185759 -0.949286 0.253671
vn -0.185759 -0.949286 0.253671
vn -0.185759 -0.949286 0.253671
vn -0.185759 -0.949286 0.253671
vn -0.185759 -0.949286 0.253671
vn -0.185759 -0.949286 0.253671
vn -0.185759 -0.949286 0.253671
vn -0.185759 -0.949286 0.253671
vn -0.185759 -0.949286 0.253671
vn -0.185759 -0.949286 0.253671
vn -0.185759 -0.949286 0.253671
vn -0.185759 -0.949286 0.253671
vn -0.185759 -0.949286 0.253671
vn -0.185759 -0.949286 0.253671
vn -0.185759 -0.949286 0.253671
vn -0.185759 -0.949286 0.253671
vn -0.185759 -0.949286 0.253671
vn -0.185759 -0.949286 0.253671
vn -0.185759 -0.949286 0.253671
vn -0.185759 -0.949286 0.253671
vn -0.185759 -0.949286 0.253671
vn -0.185759 -0.949286 0.253671
vn -0.185759 -0.949286 0.253671
vn -0.185759 -0.949286 0.253671
vn -0.185759 -0.949286 0.253671
vn -0.185759 -0.949286 0.253671
vn -0.185759 -0.949286 0.253671
vn -0.185759 -0.949286 0.253671
vn -0.185759 -0.949286 0.253671
vn -0.185759 -0.949286 0.253671
vn -0.185759 -0.949286 0.253671
vn -0.185759 -0.949286 0.253671
vn -0.185759 -0.949286 0.253671
vn -0.185759 -0.949286 0.253671
vn -0.185759 -0.949286 0.253671
vn -0.185759 -0.949286 0.253671
vn -0.185759 -0.949286 0.253671
vn -0.185759 -0.949286 0.253671
vn -0.185759 -0.949286 0.253671
vn -0.185759 -0.949286 0.253671
vn -0.185759 -0.949286 0.253671
vn -0.185759 -0.949286 0.253671
vn -0.185759 -0.949286 0.253671
vn -0.185759 -0.949286 0.253671
vn -0.185759 -0.949286 0.253671
vn -0.185759 -0.949286 0.253671
vn -0.185759 -0.949286 0.253671
vn -0.185759 -0.949286 0.253671
vn -0.185759 -0.949286 0.253671
vn -0.185759 -0.949286 0.253671
vn -0.185759 -0.949286 0.253671
vn -0.185759 -0.949286 0.253671
vn -0.185759 -0.949286 0.253671
vn -0.185759 -0.949286 0.253671
vn -0.185759 -0.949286 0.253671
vn -0.185759 -0.949286 0.253671
vn -0.185759 -0.949286 0.253671
s off
g FoodMediumLLowerArm
usemtl blinn1SG
f 1/1/1 31/2/2 32/3/3 2/4/4
f 17/5/5 1/1/6 2/4/7 16/6/8
f 2/4/9 32/3/10 33/7/11 3/8/12
f 16/6/13 2/4/14 3/8/15 18/9/16
f 3/8/17 33/7/18 34/10/19 4/11/20
f 18/9/21 3/8/22 4/11/23 19/12/24
f 4/11/25 34/10/26 35/13/27 5/14/28
f 19/12/29 4/11/30 5/14/31 20/15/32
f 5/14/33 35/13/34 36/16/35 6/17/36
f 20/15/37 5/14/38 6/17/39 21/18/40
f 6/17/41 36/16/42 37/19/43 7/20/44
f 21/18/45 6/17/46 7/20/47 22/21/48
f 7/20/49 37/19/50 38/22/51 8/23/52
f 22/21/53 7/20/54 8/23/55 23/24/56
f 8/23/57 38/22/58 39/25/59 9/26/60
f 23/24/61 8/23/62 9/26/63 24/27/64
f 9/26/65 39/25/66 40/28/67 10/29/68
f 24/27/69 9/26/70 10/29/71 25/30/72
f 10/29/73 40/28/74 41/31/75 11/32/76
f 25/30/77 10/29/78 11/32/79 26/33/80
f 11/32/81 41/31/82 42/34/83 12/35/84
f 26/33/85 11/32/86 12/35/87 27/36/88
f 12/35/89 42/34/90 43/37/91 13/38/92
f 27/36/93 12/35/94 13/38/95 28/39/96
f 13/38/97 43/37/98 44/40/99 14/41/100
f 28/39/101 13/38/102 14/41/103 29/42/104
f 14/41/105 44/40/106 45/43/107 15/44/108
f 29/42/109 14/41/110 15/44/111 30/45/112
f 31/2/113 1/1/114 46/46/115
f 1/1/116 17/5/117 46/46/118
f 15/44/119 45/43/120 47/47/121
f 30/45/122 15/44/123 47/47/124
f 48/48/125 50/49/126 79/50/127 78/51/128
f 49/52/129 51/53/130 50/49/131 48/48/132
f 50/49/133 52/54/134 80/55/135 79/50/136
f 51/53/137 53/56/138 52/54/139 50/49/140
f 52/54/141 54/57/142 81/58/143 80/55/144
f 53/56/145 55/59/146 54/57/147 52/54/148
f 54/57/149 56/60/150 82/61/151 81/58/152
f 55/59/153 57/62/154 56/60/155 54/57/156
f 56/60/157 58/63/158 83/64/159 82/61/160
f 57/62/161 59/65/162 58/63/163 56/60/164
f 58/63/165 60/66/166 84/67/167 83/64/168
f 59/65/169 61/68/170 60/66/171 58/63/172
f 60/66/173 62/69/174 85/70/175 84/67/176
f 61/68/177 63/71/178 62/69/179 60/66/180
f 62/69/181 64/72/182 86/73/183 85/70/184
f 63/71/185 65/74/186 64/72/187 62/69/188
f 64/72/189 66/75/190 87/76/191 86/73/192
f 65/74/193 67/77/194 66/75/195 64/72/196
f 66/75/197 68/78/198 88/79/199 87/76/200
f 67/77/201 69/80/202 68/78/203 66/75/204
f 68/78/205 70/81/206 89/82/207 88/79/208
f 69/80/209 71/83/210 70/81/211 68/78/212
f 70/81/213 72/84/214 90/85/215 89/82/216
f 71/83/217 73/86/218 72/84/219 70/81/220
f 72/84/221 74/87/222 91/88/223 90/85/224
f 73/86/225 75/89/226 74/87/227 72/84/228
f 74/87/229 76/90/230 92/91/231 91/88/232
f 75/89/233 77/92/234 76/90/235 74/87/236
f 78/51/237 93/93/238 48/48/239
f 48/48/240 93/93/241 49/52/242
f 76/90/243 94/94/244 92/91/245
f 77/92/246 94/94/247 76/90/248
f 47/95/249 45/96/250 92/97/251 94/98/252
f 45/96/253 44/99/254 91/100/255 92/97/256
f 44/99/257 43/101/258 90/102/259 91/100/260
f 43/101/261 42/103/262 89/104/263 90/102/264
f 42/103/265 41/105/266 88/106/267 89/104/268
f 41/105/269 40/107/270 87/108/271 88/106/272
f 40/107/273 39/109/274 86/110/275 87/108/276
f 39/109/277 38/111/278 85/112/279 86/110/280
f 38/111/281 37/113/282 84/114/283 85/112/284
f 37/113/285 36/115/286 83/116/287 84/114/288
f 36/115/289 35/117/290 82/118/291 83/116/292
f 35/117/293 34/119/294 81/120/295 82/118/296
f 34/119/297 33/121/298 80/122/299 81/120/300
f 33/121/301 32/123/302 79/124/303 80/122/304
f 32/123/305 31/125/306 78/126/307 79/124/308
f 31/125/309 46/127/310 93/128/311 78/126/312
f 46/129/313 17/130/314 49/131/315 93/132/316
f 17/130/317 16/133/318 51/134/319 49/131/320
f 16/133/321 18/135/322 53/136/323 51/134/324
f 18/135/325 19/137/326 55/138/327 53/136/328
f 19/137/329 20/139/330 57/140/331 55/138/332
f 20/139/333 21/141/334 59/142/335 57/140/336
f 21/141/337 22/143/338 61/144/339 59/142/340
f 22/143/341 23/145/342 63/146/343 61/144/344
f 23/145/345 24/147/346 65/148/347 63/146/348
f 24/147/349 25/149/350 67/150/351 65/148/352
f 25/149/353 26/151/354 69/152/355 67/150/356
f 26/151/357 27/153/358 71/154/359 69/152/360
f 27/153/361 28/155/362 73/156/363 71/154/364
f 28/155/365 29/157/366 75/158/367 73/156/368
f 29/157/369 30/159/370 77/160/371 75/158/372
f 30/159/373 47/161/374 94/162/375 77/160/376
