# This file uses centimeters as units for non-parametric coordinates.

mtllib DeviledEggShortLLowerArm.mtl
g default
v -0.447598 -0.010270 -0.131014
v -0.327402 -0.023850 -0.251958
v -0.168801 -0.041769 -0.350052
v 0.024102 -0.063563 -0.420969
v 0.227771 -0.086573 -0.466492
v 0.430544 -0.109482 -0.485941
v 0.632850 -0.132337 -0.476273
v 0.785169 -0.149545 -0.449526
v 0.929377 -0.165837 -0.393388
v 1.059931 -0.180586 -0.310016
v 1.171814 -0.193225 -0.202615
v 1.260727 -0.203270 -0.075311
v 1.323253 -0.210333 0.067003
v 1.356988 -0.214143 0.218858
v 1.360638 -0.214554 0.374419
v -0.338980 -0.101660 -0.241985
v -0.453501 -0.049938 -0.125930
v -0.185610 -0.154733 -0.335573
v 0.002708 -0.207338 -0.402541
v 0.202614 -0.255635 -0.444823
v 0.402592 -0.297333 -0.461863
v 0.603176 -0.331760 -0.450712
v 0.754913 -0.352875 -0.423465
v 0.899702 -0.365259 -0.367828
v 1.031979 -0.368437 -0.285939
v 1.146657 -0.362287 -0.180946
v 1.239333 -0.347045 -0.056883
v 1.306444 -0.323296 0.081482
v 1.345410 -0.291953 0.228832
v 1.354735 -0.254222 0.379504
v -0.444502 0.029714 -0.125930
v -0.321329 0.054582 -0.241986
v -0.159984 0.072097 -0.335575
v 0.035324 0.081361 -0.402543
v 0.240966 0.083840 -0.444824
v 0.445207 0.079872 -0.461866
v 0.648415 0.068679 -0.450714
v 0.801039 0.055409 -0.423467
v 0.944942 0.035179 -0.367830
v 1.074594 0.008767 -0.285942
v 1.185010 -0.022812 -0.180948
v 1.271949 -0.058346 -0.056885
v 1.332070 -0.096466 0.081480
v 1.363062 -0.135711 0.228830
v 1.363734 -0.174570 0.379503
v -0.517217 -0.002404 0.010243
v 1.334060 -0.211550 0.527707
v -0.012738 -0.059398 0.017323
v -0.017657 -0.092454 0.021560
v 0.056299 -0.067198 -0.092164
v 0.046650 -0.132040 -0.083853
v 0.145234 -0.077246 -0.185993
v 0.131227 -0.171383 -0.173928
v 0.250650 -0.089156 -0.260559
v 0.232821 -0.208969 -0.245202
v 0.368495 -0.102470 -0.312995
v 0.347531 -0.243355 -0.294937
v 0.494241 -0.116677 -0.341286
v 0.470947 -0.273220 -0.321222
v 0.623056 -0.131230 -0.344347
v 0.598327 -0.297415 -0.323046
v 0.749988 -0.145570 -0.322058
v 0.724775 -0.315011 -0.300340
v 0.870162 -0.159146 -0.275276
v 0.845433 -0.325331 -0.253976
v 0.978956 -0.171437 -0.205800
v 0.955663 -0.327980 -0.185736
v 1.072193 -0.181970 -0.116299
v 1.051229 -0.322855 -0.098241
v 1.146287 -0.190340 -0.010213
v 1.128458 -0.310153 0.005144
v 1.198392 -0.196226 0.108383
v 1.184384 -0.290362 0.120448
v 1.226505 -0.199401 0.234929
v 1.216856 -0.264243 0.243240
v 1.229546 -0.199744 0.364563
v 1.224627 -0.232800 0.368800
v -0.010158 -0.026077 0.021560
v 0.061360 -0.001838 -0.083854
v 0.152582 0.017643 -0.173928
v 0.260001 0.031614 -0.245203
v 0.379492 0.039541 -0.294939
v 0.506460 0.041118 -0.321224
v 0.636027 0.036283 -0.323049
v 0.763214 0.025225 -0.300343
v 0.883133 0.008367 -0.253978
v 0.991175 -0.013643 -0.185738
v 1.083190 -0.039959 -0.098243
v 1.155638 -0.069570 0.005143
v 1.205739 -0.101337 0.120447
v 1.231566 -0.134041 0.243239
v 1.232126 -0.166423 0.368800
v -0.059224 -0.054145 0.138260
v 1.207398 -0.197241 0.492303
vt 0.405702 0.963616
vt 0.406487 0.969882
vt 0.380416 0.976040
vt 0.379091 0.963725
vt 0.406430 0.957355
vt 0.380316 0.951424
vt 0.351584 0.981736
vt 0.350000 0.963834
vt 0.351455 0.945947
vt 0.319551 0.986776
vt 0.317924 0.963952
vt 0.319388 0.941136
vt 0.286838 0.990930
vt 0.285359 0.964059
vt 0.286671 0.937207
vt 0.254732 0.994023
vt 0.253614 0.964145
vt 0.254591 0.934298
vt 0.222659 0.995932
vt 0.222105 0.964211
vt 0.222564 0.932504
vt 0.198051 0.996521
vt 0.198129 0.964233
vt 0.198012 0.931970
vt 0.173432 0.995897
vt 0.174190 0.964253
vt 0.173405 0.932598
vt 0.148889 0.994061
vt 0.150248 0.964271
vt 0.148845 0.934443
vt 0.124498 0.991088
vt 0.126273 0.964298
vt 0.124419 0.937460
vt 0.100308 0.987104
vt 0.102244 0.964342
vt 0.100193 0.941538
vt 0.076336 0.982275
vt 0.078146 0.964411
vt 0.076203 0.946521
vt 0.052572 0.976797
vt 0.053974 0.964507
vt 0.052454 0.952207
vt 0.028971 0.970883
vt 0.029737 0.964623
vt 0.028903 0.958365
vt 0.430292 0.963508
vt 0.005462 0.964751
vt 0.373642 0.929826
vt 0.393729 0.931944
vt 0.391443 0.942016
vt 0.372429 0.934945
vt 0.373530 0.924571
vt 0.393592 0.921637
vt 0.413764 0.934039
vt 0.410662 0.948712
vt 0.413754 0.919076
vt 0.433740 0.936107
vt 0.430138 0.954846
vt 0.434033 0.917070
vt 0.453659 0.938147
vt 0.449890 0.960251
vt 0.454424 0.915782
vt 0.473533 0.940164
vt 0.469899 0.964792
vt 0.474897 0.915344
vt 0.493374 0.942167
vt 0.490126 0.968374
vt 0.495406 0.915858
vt 0.513200 0.944162
vt 0.510513 0.970939
vt 0.515887 0.917386
vt 0.533025 0.946157
vt 0.530995 0.972467
vt 0.536274 0.919951
vt 0.552867 0.948160
vt 0.551502 0.972981
vt 0.556500 0.923532
vt 0.572741 0.950178
vt 0.571976 0.972544
vt 0.576510 0.928074
vt 0.592660 0.952218
vt 0.592367 0.971255
vt 0.596261 0.933479
vt 0.612636 0.954286
vt 0.612646 0.969249
vt 0.615738 0.939613
vt 0.632671 0.956381
vt 0.632807 0.966689
vt 0.634956 0.946309
vt 0.652757 0.958499
vt 0.652870 0.963754
vt 0.653971 0.953379
vt 0.353525 0.927694
vt 0.672875 0.960630
vt 0.994107 0.621050
vt 0.969936 0.618762
vt 0.973885 0.598502
vt 0.994028 0.600408
vt 0.946676 0.611803
vt 0.954502 0.592703
vt 0.925221 0.600439
vt 0.936623 0.583233
vt 0.906394 0.585109
vt 0.920934 0.570458
vt 0.890920 0.566400
vt 0.908039 0.554867
vt 0.879395 0.545032
vt 0.898434 0.537060
vt 0.872258 0.521826
vt 0.892488 0.517722
vt 0.869786 0.497673
vt 0.890428 0.497595
vt 0.872074 0.473502
vt 0.892334 0.477452
vt 0.879004 0.442465
vt 0.898133 0.458069
vt 0.890335 0.412555
vt 0.907603 0.440189
vt 0.905627 0.383584
vt 0.920379 0.424501
vt 0.924294 0.357289
vt 0.935969 0.411606
vt 0.945631 0.337308
vt 0.953776 0.402001
vt 0.968814 0.324085
vt 0.973115 0.396054
vt 0.992957 0.319358
vt 0.993241 0.393995
vt 0.993137 0.928954
vt 0.968958 0.924412
vt 0.972709 0.852412
vt 0.992852 0.854317
vt 0.945675 0.911366
vt 0.953326 0.846613
vt 0.924187 0.891550
vt 0.935446 0.837144
vt 0.905319 0.865398
vt 0.919757 0.824369
vt 0.889806 0.836545
vt 0.906862 0.808779
vt 0.878246 0.806723
vt 0.897257 0.790973
vt 0.871080 0.775739
vt 0.891308 0.771634
vt 0.868607 0.751587
vt 0.889248 0.751507
vt 0.870894 0.727416
vt 0.891154 0.731365
vt 0.877853 0.704155
vt 0.896953 0.711981
vt 0.889215 0.682699
vt 0.906421 0.694102
vt 0.904545 0.663873
vt 0.919197 0.678412
vt 0.923253 0.648399
vt 0.934787 0.665517
vt 0.944621 0.636872
vt 0.952593 0.655911
vt 0.967827 0.629735
vt 0.971932 0.649965
vt 0.991980 0.627263
vt 0.992059 0.647904
vn -0.748600 0.084570 -0.657606
vn -0.741019 0.140854 -0.656545
vn -0.572785 0.146887 -0.806438
vn -0.583902 0.065963 -0.809139
vn -0.753766 0.028012 -0.656545
vn -0.748600 0.084570 -0.657606
vn -0.583902 0.065963 -0.809139
vn -0.591120 -0.015403 -0.806437
vn -0.583902 0.065963 -0.809139
vn -0.572785 0.146887 -0.806438
vn -0.397026 0.145952 -0.906128
vn -0.410382 0.046358 -0.910735
vn -0.591120 -0.015403 -0.806437
vn -0.583902 0.065963 -0.809139
vn -0.410382 0.046358 -0.910735
vn -0.419583 -0.053705 -0.906127
vn -0.410382 0.046358 -0.910735
vn -0.397026 0.145952 -0.906128
vn -0.255144 0.141372 -0.956512
vn -0.269389 0.030429 -0.962551
vn -0.419583 -0.053705 -0.906127
vn -0.410382 0.046358 -0.910735
vn -0.269389 0.030429 -0.962551
vn -0.280254 -0.080896 -0.956511
vn -0.269389 0.030429 -0.962551
vn -0.255144 0.141372 -0.956512
vn -0.135345 0.135276 -0.981520
vn -0.149798 0.016918 -0.988572
vn -0.280254 -0.080896 -0.956511
vn -0.269389 0.030429 -0.962551
vn -0.149798 0.016918 -0.988572
vn -0.162114 -0.101681 -0.981519
vn -0.149798 0.016918 -0.988572
vn -0.135345 0.135276 -0.981520
vn -0.005029 0.126511 -0.991953
vn -0.019230 0.002167 -0.999813
vn -0.162114 -0.101681 -0.981519
vn -0.149798 0.016918 -0.988572
vn -0.019230 0.002167 -0.999813
vn -0.033129 -0.122211 -0.991951
vn -0.019230 0.002167 -0.999813
vn -0.005029 0.126511 -0.991953
vn 0.116478 0.116390 -0.986350
vn 0.102882 -0.011629 -0.994626
vn -0.033129 -0.122211 -0.991951
vn -0.019230 0.002167 -0.999813
vn 0.102882 -0.011629 -0.994626
vn 0.087574 -0.139454 -0.986348
vn 0.102882 -0.011629 -0.994626
vn 0.116478 0.116390 -0.986350
vn 0.278305 0.099909 -0.955282
vn 0.265927 -0.030049 -0.963525
vn 0.087574 -0.139454 -0.986348
vn 0.102882 -0.011629 -0.994626
vn 0.265927 -0.030049 -0.963525
vn 0.248999 -0.159493 -0.955281
vn 0.265927 -0.030049 -0.963525
vn 0.278305 0.099909 -0.955282
vn 0.455190 0.077532 -0.887013
vn 0.444468 -0.050219 -0.894386
vn 0.248999 -0.159493 -0.955281
vn 0.265927 -0.030049 -0.963525
vn 0.444468 -0.050219 -0.894386
vn 0.426418 -0.177142 -0.887011
vn 0.444468 -0.050219 -0.894386
vn 0.455190 0.077532 -0.887013
vn 0.615597 0.052308 -0.786323
vn 0.606466 -0.068521 -0.792152
vn 0.426418 -0.177142 -0.887011
vn 0.444468 -0.050219 -0.894386
vn 0.606466 -0.068521 -0.792152
vn 0.588409 -0.188341 -0.786322
vn 0.606466 -0.068521 -0.792152
vn 0.615597 0.052308 -0.786323
vn 0.753661 0.025147 -0.656782
vn 0.745850 -0.084267 -0.660763
vn 0.588409 -0.188341 -0.786322
vn 0.606466 -0.068521 -0.792152
vn 0.745850 -0.084267 -0.660763
vn 0.729053 -0.192665 -0.656781
vn 0.745850 -0.084267 -0.660763
vn 0.753661 0.025147 -0.656782
vn 0.864168 -0.002938 -0.503195
vn 0.857409 -0.096869 -0.505437
vn 0.729053 -0.192665 -0.656781
vn 0.745850 -0.084267 -0.660763
vn 0.857409 -0.096869 -0.505437
vn 0.843041 -0.189941 -0.503194
vn 0.857409 -0.096869 -0.505437
vn 0.864168 -0.002938 -0.503195
vn 0.942835 -0.030819 -0.331832
vn 0.937045 -0.105865 -0.332774
vn 0.843041 -0.189941 -0.503194
vn 0.857409 -0.096869 -0.505437
vn 0.937045 -0.105865 -0.332774
vn 0.925946 -0.180313 -0.331831
vn 0.937045 -0.105865 -0.332774
vn 0.942835 -0.030819 -0.331832
vn 0.986819 -0.057167 -0.151391
vn 0.982192 -0.110965 -0.151611
vn 0.925946 -0.180313 -0.331831
vn 0.937045 -0.105865 -0.332774
vn 0.982192 -0.110965 -0.151611
vn 0.974700 -0.164440 -0.151390
vn 0.982192 -0.110965 -0.151611
vn 0.986819 -0.057167 -0.151391
vn 0.996616 -0.079719 0.020024
vn 0.993479 -0.112239 0.020035
vn 0.974700 -0.164440 -0.151390
vn 0.982192 -0.110965 -0.151611
vn 0.993479 -0.112239 0.020035
vn 0.989282 -0.144639 0.020024
vn -0.741019 0.140854 -0.656545
vn -0.748600 0.084570 -0.657606
vn -0.890197 0.100563 -0.444339
vn -0.748600 0.084570 -0.657606
vn -0.753766 0.028012 -0.656545
vn -0.890197 0.100563 -0.444339
vn 0.993479 -0.112239 0.020035
vn 0.996616 -0.079719 0.020024
vn 0.978889 -0.110590 0.171889
vn 0.989282 -0.144639 0.020024
vn 0.993479 -0.112239 0.020035
vn 0.978889 -0.110590 0.171889
vn 0.861441 -0.097318 0.498447
vn 0.763809 -0.086288 0.639649
vn 0.756635 -0.139799 0.638717
vn 0.857313 -0.129726 0.498181
vn 0.864648 -0.064805 0.498181
vn 0.768755 -0.032525 0.638716
vn 0.763809 -0.086288 0.639649
vn 0.861441 -0.097318 0.498447
vn 0.763809 -0.086288 0.639649
vn 0.632291 -0.071430 0.771431
vn 0.622056 -0.145975 0.769245
vn 0.756635 -0.139799 0.638717
vn 0.768755 -0.032525 0.638716
vn 0.638945 0.003521 0.769244
vn 0.632291 -0.071430 0.771431
vn 0.763809 -0.086288 0.639649
vn 0.632291 -0.071430 0.771431
vn 0.475580 -0.053724 0.878031
vn 0.462906 -0.146987 0.874135
vn 0.622056 -0.145975 0.769245
vn 0.638945 0.003521 0.769244
vn 0.484033 0.040015 0.874134
vn 0.475580 -0.053724 0.878031
vn 0.632291 -0.071430 0.771431
vn 0.475580 -0.053724 0.878031
vn 0.300403 -0.033933 0.953208
vn 0.286289 -0.142634 0.947467
vn 0.462906 -0.146987 0.874135
vn 0.484033 0.040015 0.874134
vn 0.310897 0.075178 0.947466
vn 0.300403 -0.033933 0.953208
vn 0.475580 -0.053724 0.878031
vn 0.300403 -0.033933 0.953208
vn 0.113654 -0.012834 0.993437
vn 0.099224 -0.133064 0.986128
vn 0.286289 -0.142634 0.947467
vn 0.310897 0.075178 0.947466
vn 0.126411 0.107585 0.986127
vn 0.113654 -0.012834 0.993437
vn 0.300403 -0.033933 0.953208
vn 0.113654 -0.012834 0.993437
vn -0.077529 0.008765 0.996952
vn -0.091276 -0.118644 0.988733
vn 0.099224 -0.133064 0.986128
vn 0.126411 0.107585 0.986127
vn -0.062504 0.136029 0.988731
vn -0.077529 0.008765 0.996952
vn 0.113654 -0.012834 0.993437
vn -0.077529 0.008765 0.996952
vn -0.265927 0.030049 0.963525
vn -0.278305 -0.099909 0.955282
vn -0.091276 -0.118644 0.988733
vn -0.062504 0.136029 0.988731
vn -0.248999 0.159493 0.955281
vn -0.265927 0.030049 0.963525
vn -0.077529 0.008765 0.996952
vn -0.265927 0.030049 0.963525
vn -0.444469 0.050220 0.894385
vn -0.455190 -0.077531 0.887012
vn -0.278305 -0.099909 0.955282
vn -0.248999 0.159493 0.955281
vn -0.426418 0.177142 0.887011
vn -0.444469 0.050220 0.894385
vn -0.265927 0.030049 0.963525
vn -0.444469 0.050220 0.894385
vn -0.606466 0.068521 0.792152
vn -0.615597 -0.052308 0.786323
vn -0.455190 -0.077531 0.887012
vn -0.426418 0.177142 0.887011
vn -0.588409 0.188341 0.786322
vn -0.606466 0.068521 0.792152
vn -0.444469 0.050220 0.894385
vn -0.606466 0.068521 0.792152
vn -0.745850 0.084267 0.660763
vn -0.753660 -0.025146 0.656783
vn -0.615597 -0.052308 0.786323
vn -0.588409 0.188341 0.786322
vn -0.729053 0.192665 0.656782
vn -0.745850 0.084267 0.660763
vn -0.606466 0.068521 0.792152
vn -0.745850 0.084267 0.660763
vn -0.857409 0.096869 0.505437
vn -0.864168 0.002938 0.503195
vn -0.753660 -0.025146 0.656783
vn -0.729053 0.192665 0.656782
vn -0.843041 0.189941 0.503194
vn -0.857409 0.096869 0.505437
vn -0.745850 0.084267 0.660763
vn -0.857409 0.096869 0.505437
vn -0.937045 0.105865 0.332774
vn -0.942835 0.030819 0.331832
vn -0.864168 0.002938 0.503195
vn -0.843041 0.189941 0.503194
vn -0.925946 0.180313 0.331830
vn -0.937045 0.105865 0.332774
vn -0.857409 0.096869 0.505437
vn -0.937045 0.105865 0.332774
vn -0.982192 0.110965 0.151611
vn -0.986820 0.057166 0.151391
vn -0.942835 0.030819 0.331832
vn -0.925946 0.180313 0.331830
vn -0.974700 0.164440 0.151390
vn -0.982192 0.110965 0.151611
vn -0.937045 0.105865 0.332774
vn -0.982192 0.110965 0.151611
vn -0.993479 0.112239 -0.020035
vn -0.996616 0.079720 -0.020024
vn -0.986820 0.057166 0.151391
vn -0.974700 0.164440 0.151390
vn -0.989282 0.144639 -0.020024
vn -0.993479 0.112239 -0.020035
vn -0.982192 0.110965 0.151611
vn 0.857313 -0.129726 0.498181
vn 0.926758 -0.104699 0.360773
vn 0.861441 -0.097318 0.498447
vn 0.861441 -0.097318 0.498447
vn 0.926758 -0.104699 0.360773
vn 0.864648 -0.064805 0.498181
vn -0.993479 0.112239 -0.020035
vn -0.978889 0.110590 -0.171889
vn -0.996616 0.079720 -0.020024
vn -0.989282 0.144639 -0.020024
vn -0.978889 0.110590 -0.171889
vn -0.993479 0.112239 -0.020035
vn 0.039610 0.967597 0.249372
vn 0.039610 0.967597 0.249372
vn 0.039610 0.967597 0.249372
vn 0.039610 0.967597 0.249372
vn 0.039610 0.967597 0.249372
vn 0.039610 0.967597 0.249372
vn 0.039610 0.967597 0.249372
vn 0.039610 0.967597 0.249372
vn 0.039610 0.967597 0.249372
vn 0.039610 0.967597 0.249372
vn 0.039610 0.967597 0.249372
vn 0.039610 0.967597 0.249372
vn 0.039610 0.967597 0.249372
vn 0.039610 0.967597 0.249372
vn 0.039610 0.967597 0.249372
vn 0.039610 0.967597 0.249372
vn 0.039611 0.967597 0.249372
vn 0.039611 0.967597 0.249372
vn 0.039611 0.967597 0.249372
vn 0.039611 0.967597 0.249372
vn 0.039610 0.967598 0.249371
vn 0.039610 0.967598 0.249371
vn 0.039610 0.967598 0.249371
vn 0.039610 0.967598 0.249371
vn 0.039610 0.967597 0.249372
vn 0.039610 0.967597 0.249372
vn 0.039610 0.967597 0.249372
vn 0.039610 0.967597 0.249372
vn 0.039610 0.967597 0.249372
vn 0.039610 0.967597 0.249372
vn 0.039610 0.967597 0.249372
vn 0.039610 0.967597 0.249372
vn 0.039610 0.967597 0.249372
vn 0.039610 0.967597 0.249372
vn 0.039610 0.967597 0.249372
vn 0.039610 0.967597 0.249372
vn 0.039610 0.967597 0.249372
vn 0.039610 0.967597 0.249372
vn 0.039610 0.967597 0.249372
vn 0.039610 0.967597 0.249372
vn 0.039610 0.967598 0.249371
vn 0.039610 0.967598 0.249371
vn 0.039610 0.967598 0.249371
vn 0.039610 0.967598 0.249371
vn 0.039610 0.967597 0.249373
vn 0.039610 0.967597 0.249372
vn 0.039610 0.967597 0.249373
vn 0.039610 0.967597 0.249372
vn 0.039610 0.967597 0.249372
vn 0.039610 0.967597 0.249372
vn 0.039610 0.967597 0.249372
vn 0.039610 0.967597 0.249372
vn 0.039610 0.967598 0.249371
vn 0.039610 0.967598 0.249371
vn 0.039610 0.967598 0.249371
vn 0.039610 0.967598 0.249371
vn 0.039610 0.967597 0.249372
vn 0.039610 0.967597 0.249372
vn 0.039610 0.967597 0.249372
vn 0.039610 0.967597 0.249372
vn 0.039610 0.967597 0.249372
vn 0.039610 0.967597 0.249372
vn 0.039610 0.967597 0.249372
vn 0.039610 0.967597 0.249372
vn -0.177264 -0.952042 0.249385
vn -0.177264 -0.952042 0.249385
vn -0.177264 -0.952042 0.249385
vn -0.177264 -0.952042 0.249385
vn -0.177264 -0.952042 0.249385
vn -0.177264 -0.952042 0.249385
vn -0.177264 -0.952042 0.249385
vn -0.177264 -0.952042 0.249385
vn -0.177264 -0.952042 0.249385
vn -0.177264 -0.952042 0.249385
vn -0.177264 -0.952042 0.249385
vn -0.177264 -0.952042 0.249385
vn -0.177264 -0.952042 0.249385
vn -0.177264 -0.952042 0.249385
vn -0.177264 -0.952042 0.249385
vn -0.177264 -0.952042 0.249385
vn -0.177264 -0.952042 0.249385
vn -0.177264 -0.952042 0.249385
vn -0.177264 -0.952042 0.249385
vn -0.177264 -0.952042 0.249385
vn -0.177264 -0.952042 0.249385
vn -0.177264 -0.952042 0.249385
vn -0.177264 -0.952042 0.249385
vn -0.177264 -0.952042 0.249385
vn -0.177264 -0.952042 0.249385
vn -0.177264 -0.952042 0.249385
vn -0.177264 -0.952042 0.249385
vn -0.177264 -0.952042 0.249385
vn -0.177264 -0.952042 0.249385
vn -0.177264 -0.952042 0.249385
vn -0.177264 -0.952042 0.249385
vn -0.177264 -0.952042 0.249385
vn -0.177264 -0.952042 0.249385
vn -0.177264 -0.952042 0.249385
vn -0.177264 -0.952042 0.249385
vn -0.177264 -0.952042 0.249385
vn -0.177264 -0.952042 0.249385
vn -0.177264 -0.952042 0.249385
vn -0.177264 -0.952042 0.249385
vn -0.177264 -0.952042 0.249385
vn -0.177264 -0.952042 0.249385
vn -0.177264 -0.952042 0.249385
vn -0.177264 -0.952042 0.249385
vn -0.177264 -0.952042 0.249385
vn -0.177264 -0.952042 0.249385
vn -0.177264 -0.952042 0.249385
vn -0.177264 -0.952042 0.249385
vn -0.177264 -0.952042 0.249385
vn -0.177264 -0.952042 0.249385
vn -0.177264 -0.952042 0.249385
vn -0.177264 -0.952042 0.249385
vn -0.177264 -0.952042 0.249385
vn -0.177264 -0.952042 0.249385
vn -0.177264 -0.952042 0.249385
vn -0.177264 -0.952042 0.249385
vn -0.177264 -0.952042 0.249385
vn -0.177264 -0.952042 0.249385
vn -0.177264 -0.952042 0.249385
vn -0.177264 -0.952042 0.249385
vn -0.177264 -0.952042 0.249385
vn -0.177264 -0.952042 0.249385
vn -0.177264 -0.952042 0.249385
vn -0.177264 -0.952042 0.249385
vn -0.177264 -0.952042 0.249385
s off
g FoodShortLLowerArm
usemtl blinn1SG
f 1/1/1 31/2/2 32/3/3 2/4/4
f 17/5/5 1/1/6 2/4/7 16/6/8
f 2/4/9 32/3/10 33/7/11 3/8/12
f 16/6/13 2/4/14 3/8/15 18/9/16
f 3/8/17 33/7/18 34/10/19 4/11/20
f 18/9/21 3/8/22 4/11/23 19/12/24
f 4/11/25 34/10/26 35/13/27 5/14/28
f 19/12/29 4/11/30 5/14/31 20/15/32
f 5/14/33 35/13/34 36/16/35 6/17/36
f 20/15/37 5/14/38 6/17/39 21/18/40
f 6/17/41 36/16/42 37/19/43 7/20/44
f 21/18/45 6/17/46 7/20/47 22/21/48
f 7/20/49 37/19/50 38/22/51 8/23/52
f 22/21/53 7/20/54 8/23/55 23/24/56
f 8/23/57 38/22/58 39/25/59 9/26/60
f 23/24/61 8/23/62 9/26/63 24/27/64
f 9/26/65 39/25/66 40/28/67 10/29/68
f 24/27/69 9/26/70 10/29/71 25/30/72
f 10/29/73 40/28/74 41/31/75 11/32/76
f 25/30/77 10/29/78 11/32/79 26/33/80
f 11/32/81 41/31/82 42/34/83 12/35/84
f 26/33/85 11/32/86 12/35/87 27/36/88
f 12/35/89 42/34/90 43/37/91 13/38/92
f 27/36/93 12/35/94 13/38/95 28/39/96
f 13/38/97 43/37/98 44/40/99 14/41/100
f 28/39/101 13/38/102 14/41/103 29/42/104
f 14/41/105 44/40/106 45/43/107 15/44/108
f 29/42/109 14/41/110 15/44/111 30/45/112
f 31/2/113 1/1/114 46/46/115
f 1/1/116 17/5/117 46/46/118
f 15/44/119 45/43/120 47/47/121
f 30/45/122 15/44/123 47/47/124
f 48/48/125 50/49/126 79/50/127 78/51/128
f 49/52/129 51/53/130 50/49/131 48/48/132
f 50/49/133 52/54/134 80/55/135 79/50/136
f 51/53/137 53/56/138 52/54/139 50/49/140
f 52/54/141 54/57/142 81/58/143 80/55/144
f 53/56/145 55/59/146 54/57/147 52/54/148
f 54/57/149 56/60/150 82/61/151 81/58/152
f 55/59/153 57/62/154 56/60/155 54/57/156
f 56/60/157 58/63/158 83/64/159 82/61/160
f 57/62/161 59/65/162 58/63/163 56/60/164
f 58/63/165 60/66/166 84/67/167 83/64/168
f 59/65/169 61/68/170 60/66/171 58/63/172
f 60/66/173 62/69/174 85/70/175 84/67/176
f 61/68/177 63/71/178 62/69/179 60/66/180
f 62/69/181 64/72/182 86/73/183 85/70/184
f 63/71/185 65/74/186 64/72/187 62/69/188
f 64/72/189 66/75/190 87/76/191 86/73/192
f 65/74/193 67/77/194 66/75/195 64/72/196
f 66/75/197 68/78/198 88/79/199 87/76/200
f 67/77/201 69/80/202 68/78/203 66/75/204
f 68/78/205 70/81/206 89/82/207 88/79/208
f 69/80/209 71/83/210 70/81/211 68/78/212
f 70/81/213 72/84/214 90/85/215 89/82/216
f 71/83/217 73/86/218 72/84/219 70/81/220
f 72/84/221 74/87/222 91/88/223 90/85/224
f 73/86/225 75/89/226 74/87/227 72/84/228
f 74/87/229 76/90/230 92/91/231 91/88/232
f 75/89/233 77/92/234 76/90/235 74/87/236
f 78/51/237 93/93/238 48/48/239
f 48/48/240 93/93/241 49/52/242
f 76/90/243 94/94/244 92/91/245
f 77/92/246 94/94/247 76/90/248
f 47/95/249 45/96/250 92/97/251 94/98/252
f 45/96/253 44/99/254 91/100/255 92/97/256
f 44/99/257 43/101/258 90/102/259 91/100/260
f 43/101/261 42/103/262 89/104/263 90/102/264
f 42/103/265 41/105/266 88/106/267 89/104/268
f 41/105/269 40/107/270 87/108/271 88/106/272
f 40/107/273 39/109/274 86/110/275 87/108/276
f 39/109/277 38/111/278 85/112/279 86/110/280
f 38/111/281 37/113/282 84/114/283 85/112/284
f 37/113/285 36/115/286 83/116/287 84/114/288
f 36/115/289 35/117/290 82/118/291 83/116/292
f 35/117/293 34/119/294 81/120/295 82/118/296
f 34/119/297 33/121/298 80/122/299 81/120/300
f 33/121/301 32/123/302 79/124/303 80/122/304
f 32/123/305 31/125/306 78/126/307 79/124/308
f 31/125/309 46/127/310 93/128/311 78/126/312
f 46/129/313 17/130/314 49/131/315 93/132/316
f 17/130/317 16/133/318 51/134/319 49/131/320
f 16/133/321 18/135/322 53/136/323 51/134/324
f 18/135/325 19/137/326 55/138/327 53/136/328
f 19/137/329 20/139/330 57/140/331 55/138/332
f 20/139/333 21/141/334 59/142/335 57/140/336
f 21/141/337 22/143/338 61/144/339 59/142/340
f 22/143/341 23/145/342 63/146/343 61/144/344
f 23/145/345 24/147/346 65/148/347 63/146/348
f 24/147/349 25/149/350 67/150/351 65/148/352
f 25/149/353 26/151/354 69/152/355 67/150/356
f 26/151/357 27/153/358 71/154/359 69/152/360
f 27/153/361 28/155/362 73/156/363 71/154/364
f 28/155/365 29/157/366 75/158/367 73/156/368
f 29/157/369 30/159/370 77/160/371 75/158/372
f 30/159/373 47/161/374 94/162/375 77/160/376
