# This file uses centimeters as units for non-parametric coordinates.

mtllib BeachFencePiece02.mtl
g default
v 0.000000 0.045386 0.600606
v -0.198922 0.078183 0.799528
v 0.000000 0.045386 0.998449
v 0.198922 0.022581 0.799528
v 0.000000 6.101145 0.600606
v -0.198922 6.101145 0.799528
v 0.000000 6.101145 0.998449
v 0.198922 6.101145 0.799528
v 0.314647 -1.483382 -0.314646
v 0.000000 -1.483382 -0.444977
v -0.314647 -1.483382 -0.314646
v -0.444977 -1.479940 0.000000
v -0.314647 -1.478873 0.314646
v 0.000000 -1.483382 0.444977
v 0.314647 -1.483382 0.314646
v 0.444977 -1.483382 0.000000
v 0.000000 6.618745 0.000000
v 0.474449 6.431376 -0.474449
v 0.334777 6.618745 -0.334777
v 0.000000 6.431376 -0.670972
v 0.000000 6.618745 -0.473446
v -0.474449 6.431376 -0.474449
v -0.334777 6.618745 -0.334777
v -0.670973 6.431376 0.000000
v -0.473446 6.618745 0.000000
v -0.474449 6.431376 0.474449
v -0.334777 6.618745 0.334777
v 0.000000 6.431376 0.670972
v 0.000000 6.618745 0.473446
v 0.474449 6.431376 0.474449
v 0.334777 6.618745 0.334777
v 0.670973 6.431376 0.000000
v 0.473446 6.618745 0.000000
v 0.198046 5.042798 1.008741
v 0.198046 5.176735 1.008741
v -0.670973 5.176735 1.008741
v -0.670973 5.042798 1.008741
v 0.198046 3.008509 1.008741
v 0.198046 3.142447 1.008741
v -0.670973 3.142447 1.008741
v -0.670973 3.008509 1.008741
v 0.198046 0.916391 1.008741
v 0.198046 1.050328 1.008741
v -0.670973 1.050328 1.008741
v -0.670973 0.916391 1.008741
vt 0.625690 0.314001
vt 0.612968 0.312542
vt 0.612475 0.040109
vt 0.625201 0.040086
vt 0.600257 0.314047
vt 0.599749 0.040131
vt 0.587541 0.315104
vt 0.587024 0.040154
vt 0.574818 0.314099
vt 0.574300 0.040181
vt 0.601443 0.326808
vt 0.588676 0.327807
vt 0.587000 0.027405
vt 0.599713 0.027401
vt 0.486013 0.718305
vt 0.477480 0.709599
vt 0.483527 0.694823
vt 0.495728 0.694911
vt 0.462647 0.727941
vt 0.462775 0.715759
vt 0.439262 0.718206
vt 0.448009 0.709685
vt 0.429661 0.694833
vt 0.441879 0.694974
vt 0.439370 0.671504
vt 0.447944 0.680267
vt 0.462729 0.661867
vt 0.462610 0.674128
vt 0.486062 0.671565
vt 0.477347 0.680133
vt 0.275001 0.975787
vt 0.259912 0.975601
vt 0.260399 0.624778
vt 0.283150 0.625058
vt 0.244823 0.975745
vt 0.237646 0.624995
vt 0.229736 0.976066
vt 0.214904 0.625709
vt 0.214665 0.976822
vt 0.192182 0.626919
vt 0.199633 0.978153
vt 0.169493 0.628627
vt 0.320192 0.978320
vt 0.305148 0.977147
vt 0.328609 0.627108
vt 0.351293 0.628878
vt 0.290082 0.976302
vt 0.305891 0.625835
vt 0.462702 0.694939
vt 0.358025 0.651769
vt 0.358025 0.645433
vt 0.399134 0.645433
vt 0.399134 0.651769
vt 0.358646 0.642624
vt 0.358646 0.636311
vt 0.399612 0.636311
vt 0.399612 0.642624
vt 0.358290 0.633334
vt 0.358290 0.626980
vt 0.399518 0.626980
vt 0.399518 0.633334
vn 0.065546 0.000000 -0.997850
vn -1.000000 0.000000 0.000000
vn -1.000000 0.000000 0.000000
vn 0.002296 0.000000 -0.999997
vn -1.000000 0.000000 0.000000
vn 0.065546 0.000000 0.997850
vn 0.002296 0.000000 0.999997
vn -1.000000 0.000000 0.000000
vn 0.065546 0.000000 0.997850
vn 1.000000 0.000000 0.000000
vn 1.000000 0.000000 0.000000
vn 0.002296 0.000000 0.999997
vn 1.000000 0.000000 0.000000
vn 0.065546 0.000000 -0.997850
vn 0.002296 0.000000 -0.999997
vn 1.000000 0.000000 0.000000
vn -0.138414 -0.990375 0.000000
vn -0.138414 -0.990375 0.000000
vn -0.138414 -0.990375 0.000000
vn -0.138414 -0.990375 0.000000
vn 0.000000 1.000000 0.000000
vn 0.000000 1.000000 0.000000
vn 0.000000 1.000000 0.000000
vn 0.000000 1.000000 0.000000
vn 0.486635 0.725516 -0.486635
vn 0.486635 0.725516 -0.486635
vn 0.688205 0.725516 0.000000
vn 0.688205 0.725516 0.000000
vn 0.486635 0.725516 -0.486635
vn 0.486635 0.725516 -0.486635
vn -0.000000 0.725516 -0.688205
vn -0.000000 0.725516 -0.688205
vn -0.000000 0.725516 -0.688205
vn -0.000000 0.725516 -0.688205
vn -0.486635 0.725516 -0.486635
vn -0.486635 0.725516 -0.486635
vn -0.486635 0.725516 -0.486635
vn -0.486635 0.725516 -0.486635
vn -0.688205 0.725516 -0.000000
vn -0.688205 0.725516 -0.000000
vn -0.688205 0.725516 -0.000000
vn -0.688205 0.725516 -0.000000
vn -0.486635 0.725516 0.486634
vn -0.486635 0.725516 0.486635
vn -0.486635 0.725516 0.486635
vn -0.486635 0.725516 0.486634
vn 0.000000 0.725516 0.688205
vn 0.000000 0.725516 0.688205
vn 0.000000 0.725516 0.688205
vn 0.000000 0.725516 0.688205
vn 0.486635 0.725516 0.486635
vn 0.486634 0.725516 0.486635
vn 0.486634 0.725516 0.486635
vn 0.486635 0.725516 0.486635
vn 0.688205 0.725516 0.000000
vn 0.688205 0.725516 0.000000
vn 0.706819 -0.028542 -0.706819
vn 0.000000 -0.028542 -0.999593
vn 0.000000 -0.028542 -0.999593
vn 0.706819 -0.028542 -0.706819
vn 0.000000 -0.028542 -0.999593
vn -0.705886 -0.028546 -0.707750
vn -0.706824 -0.028546 -0.706813
vn 0.000000 -0.028542 -0.999593
vn -0.705886 -0.028546 -0.707750
vn -0.999591 -0.028552 -0.001718
vn -0.999592 -0.028552 0.000011
vn -0.706824 -0.028546 -0.706813
vn -0.999591 -0.028552 -0.001718
vn -0.705894 -0.028552 0.707742
vn -0.706824 -0.028552 0.706813
vn -0.999592 -0.028552 0.000011
vn -0.705894 -0.028552 0.707742
vn 0.001729 -0.028547 0.999591
vn -0.000011 -0.028547 0.999592
vn -0.706824 -0.028552 0.706813
vn 0.001729 -0.028547 0.999591
vn 0.706819 -0.028542 0.706819
vn 0.706819 -0.028542 0.706819
vn -0.000011 -0.028547 0.999592
vn 0.706819 -0.028542 0.706819
vn 0.999593 -0.028542 0.000000
vn 0.999593 -0.028542 0.000000
vn 0.706819 -0.028542 0.706819
vn 0.999593 -0.028542 0.000000
vn 0.706819 -0.028542 -0.706819
vn 0.706819 -0.028542 -0.706819
vn 0.999593 -0.028542 0.000000
vn 0.000000 1.000000 -0.000002
vn 0.000000 1.000000 0.000000
vn 0.000000 1.000000 0.000000
vn 0.000000 1.000000 0.000000
vn 0.000000 1.000000 0.000000
vn 0.000000 1.000000 0.000000
vn 0.000000 1.000000 0.000000
vn 0.000000 1.000000 0.000002
vn 0.000000 1.000000 0.000000
vn 0.000000 1.000000 0.000002
vn 0.000000 1.000000 0.000002
vn 0.000000 1.000000 0.000000
vn 0.000000 1.000000 0.000002
vn 0.000000 1.000000 0.000000
vn 0.000000 1.000000 0.000000
vn 0.000000 1.000000 0.000000
vn 0.000000 1.000000 0.000000
vn 0.000000 1.000000 0.000000
vn 0.000000 1.000000 0.000000
vn 0.000000 1.000000 -0.000002
vn 0.000000 1.000000 0.000000
vn 0.000000 1.000000 -0.000002
vn 0.000000 1.000000 -0.000002
vn 0.000000 1.000000 0.000000
vn 0.000000 0.000000 1.000000
vn 0.000000 0.000000 1.000000
vn 0.000000 0.000000 1.000000
vn 0.000000 0.000000 1.000000
vn 0.000000 0.000000 1.000000
vn 0.000000 0.000000 1.000000
vn 0.000000 0.000000 1.000000
vn 0.000000 0.000000 1.000000
vn 0.000000 0.000000 1.000000
vn 0.000000 0.000000 1.000000
vn 0.000000 0.000000 1.000000
vn 0.000000 0.000000 1.000000
s off
g BeachFencePiece02:polySurface9
usemtl blinn1SG
f 1/1/1 2/2/2 6/3/3 5/4/4
f 2/2/5 3/5/6 7/6/7 6/3/8
f 3/5/9 4/7/10 8/8/11 7/6/12
f 4/7/13 1/9/14 5/10/15 8/8/16
f 3/5/17 2/11/18 1/12/19 4/7/20
f 8/8/21 5/13/22 6/14/23 7/6/24
f 18/15/25 19/16/26 33/17/27 32/18/28
f 19/16/29 18/15/30 20/19/31 21/20/32
f 21/20/33 20/19/34 22/21/35 23/22/36
f 23/22/37 22/21/38 24/23/39 25/24/40
f 25/24/41 24/23/42 26/25/43 27/26/44
f 27/26/45 26/25/46 28/27/47 29/28/48
f 29/28/49 28/27/50 30/29/51 31/30/52
f 31/30/53 30/29/54 32/18/55 33/17/56
f 9/31/57 10/32/58 20/33/59 18/34/60
f 10/32/61 11/35/62 22/36/63 20/33/64
f 11/35/65 12/37/66 24/38/67 22/36/68
f 12/37/69 13/39/70 26/40/71 24/38/72
f 13/39/73 14/41/74 28/42/75 26/40/76
f 14/43/77 15/44/78 30/45/79 28/46/80
f 15/44/81 16/47/82 32/48/83 30/45/84
f 16/47/85 9/31/86 18/34/87 32/48/88
f 19/16/89 21/20/90 17/49/91
f 21/20/92 23/22/93 17/49/94
f 23/22/95 25/24/96 17/49/97
f 25/24/98 27/26/99 17/49/100
f 27/26/101 29/28/102 17/49/103
f 29/28/104 31/30/105 17/49/106
f 31/30/107 33/17/108 17/49/109
f 33/17/110 19/16/111 17/49/112
f 36/50/113 37/51/114 34/52/115 35/53/116
f 40/54/117 41/55/118 38/56/119 39/57/120
f 44/58/121 45/59/122 42/60/123 43/61/124
