# This file uses centimeters as units for non-parametric coordinates.

mtllib Debris_plank.mtl
g default
v -8.879194 -0.500000 1.642447
v -8.879194 -0.250025 1.892422
v -9.129169 -0.250025 1.642447
v 9.450587 -0.250025 1.642447
v 9.200612 -0.250025 1.892422
v 9.200612 -0.500000 1.642447
v -9.129169 0.250025 1.642447
v -8.879194 0.250025 1.892422
v -8.879194 0.500000 1.642447
v 9.200612 0.500000 1.642447
v 9.200612 0.250025 1.892422
v 9.450587 0.250025 1.642447
v -9.129169 0.250025 -1.642447
v -8.879194 0.500000 -1.642447
v -8.879194 0.250025 -1.892422
v 8.169923 0.250025 -1.892422
v 8.169923 0.500000 -1.642447
v 8.419898 0.250025 -1.642447
v -9.129169 -0.250025 -1.642447
v -8.879194 -0.250025 -1.892422
v -8.879194 -0.500000 -1.642447
v 8.169923 -0.500000 -1.642447
v 8.169923 -0.250025 -1.892422
v 8.419898 -0.250025 -1.642447
v 7.932462 0.500000 0.000000
v 8.182437 0.250025 0.000000
v 8.182437 -0.250025 0.000000
v 7.932462 -0.500000 0.000000
v -8.160768 -0.500000 0.580593
v -8.410743 -0.250025 0.580593
v -8.410743 0.250025 0.580593
v -8.160768 0.500000 0.580593
vt 0.486477 0.972904
vt 0.488816 0.969049
vt 0.517182 0.978047
vt 0.514870 0.981975
vt 0.467747 0.967683
vt 0.463384 0.967939
vt 0.462890 0.742332
vt 0.467213 0.742590
vt 0.467170 0.971714
vt 0.473838 0.967575
vt 0.474676 0.971762
vt 0.496786 0.747521
vt 0.495699 0.743104
vt 0.516896 0.739922
vt 0.518020 0.744337
vt 0.466621 0.738452
vt 0.474046 0.738641
vt 0.473401 0.742601
vt 0.490992 0.963048
vt 0.491354 0.958438
vt 0.519438 0.967394
vt 0.519137 0.971972
vt 0.478234 0.967699
vt 0.477757 0.742418
vt 0.498296 0.758286
vt 0.497774 0.753812
vt 0.518904 0.750702
vt 0.518927 0.755267
vt 0.523151 0.971216
vt 0.523775 0.967192
vt 0.529896 0.967137
vt 0.530534 0.971278
vt 0.523241 0.755479
vt 0.522565 0.751332
vt 0.529959 0.751402
vt 0.529360 0.755401
vt 0.534227 0.967372
vt 0.533705 0.755164
vt 0.422099 0.967668
vt 0.421784 0.755341
vt 0.442301 0.758235
vt 0.450128 0.958940
vt 0.453942 0.730413
vt 0.458045 0.732584
vt 0.437031 0.748765
vt 0.432959 0.746613
vt 0.462020 0.737800
vt 0.441077 0.753852
vt 0.462602 0.972407
vt 0.448864 0.963334
vt 0.445349 0.968853
vt 0.459170 0.978094
vt 0.455278 0.980655
vt 0.441563 0.971390
vn -0.689336 -0.689338 0.222775
vn -0.689336 -0.689338 0.222775
vn -0.689336 -0.689338 0.222775
vn -0.689336 -0.689338 0.222775
vn 0.000000 -0.707106 0.707107
vn 0.000000 -0.707106 0.707107
vn 0.000000 -0.707106 0.707107
vn 0.000000 -0.707106 0.707107
vn -0.707106 0.000000 0.707107
vn -0.707106 0.000000 0.707107
vn -0.707106 0.000000 0.707107
vn -0.707106 0.000000 0.707107
vn 0.703440 -0.703441 0.101702
vn 0.703440 -0.703441 0.101702
vn 0.703440 -0.703441 0.101702
vn 0.703440 -0.703441 0.101702
vn 0.707106 0.000000 0.707107
vn 0.707106 0.000000 0.707107
vn 0.707106 0.000000 0.707107
vn 0.707106 0.000000 0.707107
vn -0.689336 0.689338 0.222775
vn -0.689336 0.689338 0.222775
vn -0.689336 0.689338 0.222775
vn -0.689336 0.689338 0.222775
vn 0.000000 0.707106 0.707107
vn 0.000000 0.707106 0.707107
vn 0.000000 0.707106 0.707107
vn 0.000000 0.707106 0.707107
vn 0.703440 0.703441 0.101702
vn 0.703440 0.703441 0.101702
vn 0.703440 0.703441 0.101702
vn 0.703440 0.703441 0.101702
vn -0.707106 0.000000 -0.707107
vn -0.707106 0.000000 -0.707107
vn -0.707106 0.000000 -0.707107
vn -0.707106 0.000000 -0.707107
vn 0.000000 0.707106 -0.707107
vn 0.000000 0.707106 -0.707107
vn 0.000000 0.707106 -0.707107
vn 0.000000 0.707106 -0.707107
vn 0.707106 0.000000 -0.707107
vn 0.707106 0.000000 -0.707107
vn 0.707106 0.000000 -0.707107
vn 0.707106 0.000000 -0.707107
vn 0.000000 -0.707106 -0.707107
vn 0.000000 -0.707106 -0.707107
vn 0.000000 -0.707106 -0.707107
vn 0.000000 -0.707106 -0.707107
vn 0.000000 0.000000 1.000000
vn 0.000000 0.000000 1.000000
vn 0.000000 0.000000 1.000000
vn 0.000000 0.000000 1.000000
vn 0.000000 1.000000 0.000000
vn 0.000000 1.000000 0.000000
vn 0.000000 1.000000 0.000000
vn 0.000000 1.000000 0.000000
vn 0.000000 0.000000 -1.000000
vn 0.000000 0.000000 -1.000000
vn 0.000000 0.000000 -1.000000
vn 0.000000 0.000000 -1.000000
vn 0.000000 -1.000000 0.000000
vn 0.000000 -1.000000 0.000000
vn 0.000000 -1.000000 0.000000
vn 0.000000 -1.000000 0.000000
vn 0.989710 0.000000 0.143090
vn 0.989710 0.000000 0.143090
vn 0.989710 0.000000 0.143090
vn 0.989710 0.000000 0.143090
vn -0.951544 0.000000 0.307513
vn -0.951544 0.000000 0.307513
vn -0.951544 0.000000 0.307513
vn -0.951544 0.000000 0.307513
vn -0.577349 -0.577351 0.577351
vn -0.577349 -0.577351 0.577351
vn -0.577349 -0.577351 0.577351
vn 0.577351 -0.577348 0.577352
vn 0.577351 -0.577348 0.577352
vn 0.577351 -0.577348 0.577352
vn -0.577349 0.577351 0.577351
vn -0.577349 0.577351 0.577351
vn -0.577349 0.577351 0.577351
vn 0.577351 0.577348 0.577352
vn 0.577351 0.577348 0.577352
vn 0.577351 0.577348 0.577352
vn -0.577349 0.577351 -0.577351
vn -0.577349 0.577351 -0.577351
vn -0.577349 0.577351 -0.577351
vn 0.577349 0.577351 -0.577351
vn 0.577349 0.577351 -0.577351
vn 0.577349 0.577351 -0.577351
vn -0.577349 -0.577351 -0.577351
vn -0.577349 -0.577351 -0.577351
vn -0.577349 -0.577351 -0.577351
vn 0.577349 -0.577351 -0.577351
vn 0.577349 -0.577351 -0.577351
vn 0.577349 -0.577351 -0.577351
vn 0.620633 0.620633 -0.479197
vn 0.620633 0.620633 -0.479197
vn 0.620633 0.620633 -0.479197
vn 0.620633 0.620633 -0.479197
vn 0.791521 0.000000 -0.611142
vn 0.791521 0.000000 -0.611142
vn 0.791521 0.000000 -0.611142
vn 0.791521 0.000000 -0.611142
vn 0.620633 -0.620633 -0.479197
vn 0.620633 -0.620633 -0.479197
vn 0.620633 -0.620633 -0.479197
vn 0.620633 -0.620633 -0.479197
vn 0.000000 -1.000000 0.000000
vn 0.000000 -1.000000 0.000000
vn 0.000000 -1.000000 0.000000
vn 0.000000 -1.000000 0.000000
vn -0.637867 -0.637869 -0.431566
vn -0.637867 -0.637869 -0.431566
vn -0.637867 -0.637869 -0.431566
vn -0.637867 -0.637869 -0.431566
vn -0.828242 0.000000 -0.560370
vn -0.828242 0.000000 -0.560370
vn -0.828242 0.000000 -0.560370
vn -0.828242 0.000000 -0.560370
vn -0.637867 0.637869 -0.431566
vn -0.637867 0.637869 -0.431566
vn -0.637867 0.637869 -0.431566
vn -0.637867 0.637869 -0.431566
vn 0.000000 1.000000 0.000000
vn 0.000000 1.000000 0.000000
vn 0.000000 1.000000 0.000000
vn 0.000000 1.000000 0.000000
s off
g Debris_plank:pCube1
usemtl blinn1SG
f 29/1/1 30/2/2 19/3/3 21/4/4
f 2/5/5 1/6/6 6/7/7 5/8/8
f 3/9/9 2/5/10 8/10/11 7/11/12
f 27/12/13 28/13/14 22/14/15 24/15/16
f 5/8/17 4/16/18 12/17/19 11/18/20
f 31/19/21 32/20/22 14/21/23 13/22/24
f 9/23/25 8/10/26 11/18/27 10/24/28
f 25/25/29 26/26/30 18/27/31 17/28/32
f 13/29/33 15/30/34 20/31/35 19/32/36
f 15/30/37 14/21/38 17/28/39 16/33/40
f 16/33/41 18/34/42 24/35/43 23/36/44
f 21/37/45 20/31/46 23/36/47 22/38/48
f 2/5/49 5/8/50 11/18/51 8/10/52
f 32/20/53 25/25/54 17/28/55 14/21/56
f 15/30/57 16/33/58 23/36/59 20/31/60
f 21/39/61 22/40/62 28/41/63 29/42/64
f 27/12/65 24/15/66 18/27/67 26/26/68
f 19/3/69 30/2/70 31/19/71 13/22/72
f 1/6/73 2/5/74 3/9/75
f 4/16/76 5/8/77 6/7/78
f 7/11/79 8/10/80 9/23/81
f 10/24/82 11/18/83 12/17/84
f 13/29/85 14/21/86 15/30/87
f 16/33/88 17/28/89 18/34/90
f 19/32/91 20/31/92 21/37/93
f 22/38/94 23/36/95 24/35/96
f 10/43/97 12/44/98 26/45/99 25/46/100
f 4/47/101 27/48/102 26/45/103 12/44/104
f 4/47/105 6/7/106 28/41/107 27/48/108
f 29/42/109 28/41/110 6/7/111 1/6/112
f 1/6/113 3/49/114 30/50/115 29/42/116
f 31/51/117 30/50/118 3/49/119 7/52/120
f 7/52/121 9/53/122 32/54/123 31/51/124
f 9/23/125 10/24/126 25/25/127 32/20/128
