# This file uses centimeters as units for non-parametric coordinates.

mtllib Debris_mast.mtl
g default
v 18.727810 1.140768 -1.140768
v 19.336447 0.000000 -1.613290
v 19.336447 -1.140768 -1.140768
v 18.727810 -1.613290 0.000000
v 19.336447 -1.140768 1.140768
v 18.727810 0.000000 1.613290
v 18.727810 1.140768 1.140768
v 19.336447 1.613290 0.000000
v -18.756834 0.902080 -0.902080
v -18.756834 0.000000 -1.275734
v -19.336447 -0.902080 -0.902080
v -18.756834 -1.275734 0.000000
v -19.336447 -0.902080 0.902080
v -18.756834 0.000000 1.275734
v -19.336447 0.902080 0.902080
v -19.336447 1.275734 0.000000
v 18.727810 0.000000 0.000000
v -18.756834 0.000000 0.000000
vt 0.075393 0.434529
vt 0.087419 0.428829
vt 0.086478 0.804410
vt 0.076754 0.804108
vt 0.097991 0.428800
vt 0.097720 0.810096
vt 0.108978 0.434844
vt 0.108533 0.804426
vt 0.022105 0.434975
vt 0.032577 0.428944
vt 0.032332 0.810241
vt 0.021004 0.804555
vt 0.043636 0.434988
vt 0.043072 0.804569
vt 0.054395 0.434573
vt 0.054185 0.809869
vt 0.064771 0.428514
vt 0.065576 0.809810
vt 0.830947 0.569423
vt 0.833041 0.554826
vt 0.849206 0.562932
vt 0.839405 0.579648
vt 0.854143 0.580324
vt 0.866350 0.572035
vt 0.866400 0.557283
vt 0.857950 0.547084
vt 0.843452 0.544388
vt 0.855050 0.580017
vt 0.841878 0.579596
vt 0.848972 0.562835
vt 0.830038 0.569971
vt 0.832613 0.554928
vt 0.842832 0.543580
vt 0.857739 0.546917
vt 0.868444 0.557820
vt 0.867368 0.570985
vn -0.008903 0.707436 -0.706722
vn -0.008819 -0.073404 -0.997263
vn -0.008827 -0.062938 -0.997978
vn -0.008881 0.748751 -0.662792
vn -0.008819 -0.073404 -0.997263
vn -0.008804 -0.653127 -0.757197
vn -0.008833 -0.705116 -0.709037
vn -0.008827 -0.062938 -0.997978
vn -0.008804 -0.653127 -0.757197
vn -0.008865 -0.999961 0.000000
vn -0.008865 -0.999961 0.000000
vn -0.008833 -0.705116 -0.709037
vn -0.008865 -0.999961 0.000000
vn -0.008864 -0.707079 0.707079
vn -0.008864 -0.707079 0.707079
vn -0.008865 -0.999961 0.000000
vn -0.008864 -0.707079 0.707079
vn -0.008878 -0.055327 0.998429
vn -0.008896 -0.002792 0.999957
vn -0.008864 -0.707079 0.707079
vn -0.008878 -0.055327 0.998429
vn -0.008851 0.745746 0.666171
vn -0.008825 0.766726 0.641913
vn -0.008896 -0.002792 0.999957
vn -0.008851 0.745746 0.666171
vn -0.008826 0.999961 0.000501
vn -0.008787 0.996362 0.084767
vn -0.008825 0.766726 0.641913
vn -0.008826 0.999961 0.000501
vn -0.008903 0.707436 -0.706722
vn -0.008881 0.748751 -0.662792
vn -0.008787 0.996362 0.084767
vn 0.882280 0.332853 0.332853
vn 0.882280 0.332853 0.332853
vn 0.882280 0.332853 0.332853
vn 0.925788 0.144673 0.349267
vn 0.925788 0.144673 0.349267
vn 0.925788 0.144673 0.349267
vn 0.882280 0.000000 0.470725
vn 0.882280 0.000000 0.470725
vn 0.882280 0.000000 0.470725
vn 0.882280 0.000000 -0.470725
vn 0.882280 0.000000 -0.470725
vn 0.882280 0.000000 -0.470725
vn 0.882280 0.470725 0.000000
vn 0.882280 0.470725 0.000000
vn 0.882280 0.470725 0.000000
vn 1.000000 0.000000 0.000000
vn 1.000000 0.000000 0.000000
vn 1.000000 0.000000 0.000000
vn 0.882280 -0.332853 0.332853
vn 0.882280 -0.332853 0.332853
vn 0.882280 -0.332852 0.332853
vn 0.882280 -0.332853 -0.332853
vn 0.882280 -0.332853 -0.332853
vn 0.882280 -0.332852 -0.332853
vn -1.000000 -0.000003 0.000000
vn -1.000000 -0.000003 0.000000
vn -1.000000 -0.000003 0.000000
vn -0.841303 0.540563 0.000000
vn -0.841303 0.540563 0.000000
vn -0.841303 0.540563 0.000000
vn -0.841304 0.000000 0.540562
vn -0.841304 0.000000 0.540562
vn -0.841304 0.000000 0.540562
vn -0.841304 0.000000 -0.540562
vn -0.841304 0.000000 -0.540562
vn -0.841304 0.000000 -0.540562
vn -0.841305 0.540561 0.000000
vn -0.841305 0.540561 0.000000
vn -0.841305 0.540561 0.000000
vn -0.841305 -0.540561 0.000000
vn -0.841305 -0.540561 0.000000
vn -0.841305 -0.540561 0.000000
vn -0.897361 -0.407705 -0.168877
vn -0.897361 -0.407705 -0.168877
vn -0.897361 -0.407705 -0.168877
vn -0.841304 -0.382236 -0.382235
vn -0.841304 -0.382236 -0.382235
vn -0.841304 -0.382236 -0.382235
s off
g Debris_mast:pCylinder19
usemtl blinn1SG
f 1/1/1 2/2/2 10/3/3 9/4/4
f 2/2/5 3/5/6 11/6/7 10/3/8
f 3/5/9 4/7/10 12/8/11 11/6/12
f 4/9/13 5/10/14 13/11/15 12/12/16
f 5/10/17 6/13/18 14/14/19 13/11/20
f 6/13/21 7/15/22 15/16/23 14/14/24
f 7/15/25 8/17/26 16/18/27 15/16/28
f 8/17/29 1/1/30 9/4/31 16/18/32
f 2/19/33 1/20/34 17/21/35
f 3/22/36 2/19/37 17/21/38
f 4/23/39 3/22/40 17/21/41
f 5/24/42 4/23/43 17/21/44
f 6/25/45 5/24/46 17/21/47
f 7/26/48 6/25/49 17/21/50
f 8/27/51 7/26/52 17/21/53
f 1/20/54 8/27/55 17/21/56
f 9/28/57 10/29/58 18/30/59
f 10/29/60 11/31/61 18/30/62
f 11/31/63 12/32/64 18/30/65
f 12/32/66 13/33/67 18/30/68
f 13/33/69 14/34/70 18/30/71
f 14/34/72 15/35/73 18/30/74
f 15/35/75 16/36/76 18/30/77
f 16/36/78 9/28/79 18/30/80
