# This file uses centimeters as units for non-parametric coordinates.

mtllib Debris_oar.mtl
g default
v 7.478686 -0.202349 0.350478
v 7.973282 -0.400036 0.842280
v 7.478686 0.202349 0.350478
v 7.973282 0.400036 0.842280
v 15.490796 -0.098167 0.913101
v 14.975142 -0.118874 1.410335
v 15.490796 0.098167 0.913101
v 14.975142 0.118874 1.410335
v 7.478686 0.202349 -0.350479
v 7.973282 0.400036 -0.842281
v 7.478686 -0.202349 -0.350479
v 7.973282 -0.400036 -0.842281
v 14.975142 0.118874 -1.410334
v 15.490796 0.098167 -0.913101
v 15.490796 -0.098167 -0.913101
v 14.975142 -0.118874 -1.410334
v 8.986677 0.359342 -1.127565
v 8.986677 -0.359342 -1.127565
v 8.960479 -0.360394 1.125710
v 8.960479 0.360394 1.125710
v 7.973282 0.400036 0.000000
v 7.973282 -0.400036 0.000000
v -10.791383 0.273998 -0.474579
v -10.791383 -0.273998 -0.474579
v -10.791383 -0.547995 0.000000
v -10.791383 -0.273998 0.474578
v -10.791383 0.273998 0.474578
v -10.791383 0.547995 0.000000
v -11.087927 0.000000 0.000000
v 7.345818 0.404983 0.000000
v 7.393178 -0.404610 0.000000
vt 0.772997 0.148588
vt 0.758541 0.150731
vt 0.756099 0.132179
vt 0.768666 0.131358
vt 0.818067 0.149569
vt 0.803774 0.148181
vt 0.807555 0.130208
vt 0.820159 0.130610
vt 0.770348 0.016556
vt 0.770297 0.013050
vt 0.802629 0.012585
vt 0.802645 0.016086
vt 0.761725 0.025900
vt 0.811442 0.025174
vt 0.840090 0.148525
vt 0.855103 0.148545
vt 0.846257 0.157973
vt 0.777867 0.164213
vt 0.765523 0.160604
vt 0.781689 0.158099
vt 0.758687 0.022962
vt 0.767872 0.014087
vt 0.795247 0.157883
vt 0.811352 0.160357
vt 0.799099 0.163955
vt 0.805070 0.013568
vt 0.814463 0.022201
vt 0.815667 0.025152
vt 0.757495 0.026020
vt 0.788388 0.148835
vt 0.860053 0.131050
vt 0.865429 0.025214
vt 0.824404 0.015988
vt 0.856684 0.016029
vt 0.833869 0.157977
vt 0.825073 0.148583
vt 0.278722 0.972827
vt 0.270401 0.972872
vt 0.270382 0.666827
vt 0.278720 0.666827
vt 0.262528 0.971605
vt 0.262516 0.666825
vt 0.312139 0.971726
vt 0.302916 0.972956
vt 0.302943 0.666804
vt 0.312149 0.666772
vt 0.294941 0.972866
vt 0.294977 0.666769
vt 0.286964 0.970674
vt 0.287015 0.666809
vt 0.274097 0.659253
vt 0.282900 0.659149
vt 0.278520 0.651792
vt 0.287068 0.651777
vt 0.291519 0.659217
vt 0.286932 0.980707
vt 0.262544 0.980996
vt 0.312118 0.981086
vn -0.421430 0.000000 0.906861
vn -0.421430 0.000000 0.906861
vn -0.098384 0.000000 0.995149
vn -0.098384 0.000000 0.995149
vn -0.415821 0.000000 -0.909446
vn -0.415821 0.000000 -0.909446
vn -0.098354 0.000000 -0.995152
vn -0.098354 0.000000 -0.995152
vn 0.971654 0.000000 0.236408
vn 0.971654 0.000000 0.236408
vn 0.971654 0.000000 -0.236409
vn 0.971654 0.000000 -0.236409
vn 0.040123 0.999195 0.000000
vn 0.040123 0.999195 0.000000
vn 0.040123 0.999195 0.000000
vn 0.040123 0.999195 0.000000
vn -0.000643 -1.000000 0.000000
vn 0.015169 -0.999885 0.000000
vn -0.371146 -0.928575 0.000000
vn -0.705102 0.000000 0.709106
vn -0.421430 0.000000 0.906861
vn -0.421430 0.000000 0.906861
vn -0.705101 0.000000 0.709106
vn -0.011075 0.000000 0.999939
vn 0.971654 0.000000 0.236408
vn 0.971654 0.000000 0.236408
vn -0.011075 0.000000 0.999939
vn -0.705102 0.000000 -0.709106
vn -0.415821 0.000000 -0.909446
vn -0.415821 0.000000 -0.909446
vn -0.705102 0.000000 -0.709106
vn -0.010746 0.000000 -0.999942
vn 0.971654 0.000000 -0.236409
vn 0.971654 0.000000 -0.236409
vn -0.010746 0.000000 -0.999942
vn -0.098354 0.000000 -0.995152
vn -0.098354 0.000000 -0.995152
vn -0.010746 0.000000 -0.999942
vn -0.010746 0.000000 -0.999942
vn -0.098384 0.000000 0.995149
vn -0.098384 0.000000 0.995149
vn -0.011075 0.000000 0.999939
vn -0.011075 0.000000 0.999939
vn -0.371146 0.928575 0.000000
vn 0.015169 0.999885 0.000000
vn -0.000643 1.000000 0.000000
vn 0.040123 -0.999195 0.000000
vn 0.040123 -0.999195 0.000000
vn 0.040123 -0.999195 0.000000
vn 0.040123 -0.999195 0.000000
vn 0.015169 -0.999885 0.000000
vn -0.000643 -1.000000 0.000000
vn 0.040123 -0.999195 0.000000
vn 0.040123 -0.999195 0.000000
vn -0.000643 1.000000 0.000000
vn 0.015169 0.999885 0.000000
vn 0.040123 0.999195 0.000000
vn 0.040123 0.999195 0.000000
vn 0.040123 0.999195 0.000000
vn 0.040123 0.999195 0.000000
vn 0.040123 0.999195 0.000000
vn 0.040123 0.999195 0.000000
vn 0.040123 -0.999195 0.000000
vn 0.040123 -0.999195 0.000000
vn 0.040123 -0.999195 0.000000
vn 0.040123 -0.999195 0.000000
vn -0.371146 -0.928575 0.000000
vn -0.038630 -0.999254 0.000000
vn -0.000643 -1.000000 0.000000
vn 0.040123 -0.999195 0.000000
vn -0.000643 -1.000000 0.000000
vn -0.038630 -0.999254 0.000000
vn -0.038630 0.999254 0.000000
vn -0.000643 1.000000 0.000000
vn 0.040123 0.999195 0.000000
vn -0.000643 1.000000 0.000000
vn -0.038630 0.999254 0.000000
vn -0.371146 0.928575 0.000000
vn 0.007839 0.446003 -0.894997
vn 0.007849 -0.466610 -0.884428
vn -0.004415 -0.499699 -0.866188
vn -0.004422 0.499425 -0.866346
vn 0.007849 -0.466610 -0.884428
vn 0.007861 -0.999969 0.000000
vn -0.004417 -0.999990 0.000000
vn -0.004415 -0.499699 -0.866188
vn 0.007861 -0.999969 0.000000
vn 0.007849 -0.466609 0.884429
vn -0.004415 -0.499699 0.866188
vn -0.004417 -0.999990 0.000000
vn 0.007849 -0.466609 0.884429
vn 0.007839 0.446002 0.894998
vn -0.004422 0.499424 0.866347
vn -0.004415 -0.499699 0.866188
vn 0.007839 0.446002 0.894998
vn 0.007861 0.999969 0.000000
vn -0.004430 0.999990 0.000000
vn -0.004422 0.499424 0.866347
vn 0.007861 0.999969 0.000000
vn 0.007839 0.446003 -0.894997
vn -0.004422 0.499425 -0.866346
vn -0.004430 0.999990 0.000000
vn -0.004422 0.499425 -0.866346
vn -0.004415 -0.499699 -0.866188
vn -1.000000 0.000000 0.000000
vn -0.004415 -0.499699 -0.866188
vn -0.004417 -0.999990 0.000000
vn -1.000000 0.000000 0.000000
vn -0.004417 -0.999990 0.000000
vn -0.004415 -0.499699 0.866188
vn -1.000000 0.000000 0.000000
vn -0.004415 -0.499699 0.866188
vn -0.004422 0.499424 0.866347
vn -1.000000 0.000000 0.000000
vn -0.004422 0.499424 0.866347
vn -0.004430 0.999990 0.000000
vn -1.000000 0.000000 0.000000
vn -0.004430 0.999990 0.000000
vn -0.004422 0.499425 -0.866346
vn -1.000000 0.000000 0.000000
vn 0.007839 0.446002 0.894998
vn 0.007885 0.999969 0.000000
vn 0.007861 0.999969 0.000000
vn 0.007885 0.999969 0.000000
vn 0.007839 0.446003 -0.894997
vn 0.007861 0.999969 0.000000
vn 0.007849 -0.466610 -0.884428
vn 0.007885 -0.999969 -0.000001
vn 0.007861 -0.999969 0.000000
vn 0.007885 -0.999969 -0.000001
vn 0.007849 -0.466609 0.884429
vn 0.007861 -0.999969 0.000000
s off
g Debris_oar:pCube22
usemtl blinn1SG
f 4/1/1 2/2/2 19/3/3 20/4/4
f 12/5/5 10/6/6 17/7/7 18/8/8
f 7/9/9 5/10/10 15/11/11 14/12/12
f 17/7/13 20/4/14 8/13/15 13/14/16
f 22/15/17 2/16/18 1/17/19
f 1/18/20 2/19/21 4/1/22 3/20/23
f 6/21/24 5/22/25 7/9/26 8/13/27
f 9/23/28 10/6/29 12/24/30 11/25/31
f 13/14/32 14/12/33 15/26/34 16/27/35
f 18/8/36 17/7/37 13/14/38 16/28/39
f 20/4/40 19/3/41 6/29/42 8/13/43
f 3/20/44 4/1/45 21/30/46
f 19/31/47 18/8/48 16/28/49 6/32/50
f 2/16/51 22/15/52 18/8/53 19/31/54
f 21/30/55 4/1/56 20/4/57 17/7/58
f 13/14/59 8/13/60 7/9/61 14/12/62
f 6/32/63 16/28/64 15/33/65 5/34/66
f 11/35/67 12/36/68 22/15/69
f 18/8/70 22/15/71 12/36/72
f 10/6/73 21/30/74 17/7/75
f 21/30/76 10/6/77 9/23/78
f 9/37/79 11/38/80 24/39/81 23/40/82
f 11/38/83 31/41/84 25/42/85 24/39/86
f 31/43/87 1/44/88 26/45/89 25/46/90
f 1/44/91 3/47/92 27/48/93 26/45/94
f 3/47/95 30/49/96 28/50/97 27/48/98
f 30/49/99 9/37/100 23/40/101 28/50/102
f 23/40/103 24/51/104 29/52/105
f 24/51/106 25/53/107 29/52/108
f 25/53/109 26/54/110 29/52/111
f 26/54/112 27/55/113 29/52/114
f 27/55/115 28/50/116 29/52/117
f 28/50/118 23/40/119 29/52/120
f 3/47/121 21/56/122 30/49/123
f 21/56/124 9/37/125 30/49/126
f 11/38/127 22/57/128 31/41/129
f 22/58/130 1/44/131 31/43/132
