# This file uses centimeters as units for non-parametric coordinates.

mtllib DockCOL.mtl
g default
v -7.226064 20.148182 -20.898581
v -6.944264 20.148182 -23.366552
v 6.908490 19.452484 -19.284658
v -7.196966 20.903303 -20.895260
v 7.190290 19.452484 -21.752628
v 6.937588 20.207607 -19.281336
v -6.915166 20.903303 -23.363232
v 7.219388 20.207607 -21.749308
v 7.369197 23.544518 -14.590372
v 5.140848 23.544518 -14.590372
v 5.140848 23.544518 -12.362028
v 7.369197 23.544518 -12.362028
v 7.380130 -0.533019 -14.601314
v 5.129910 -0.533019 -14.601314
v 5.129910 -0.533019 -12.351090
v 7.380130 -0.533019 -12.351090
v 6.255020 23.716795 -13.476202
v 7.339255 23.544518 -0.308335
v 5.170792 23.544518 -0.308335
v 5.170792 23.544518 1.860124
v 7.339255 23.544518 1.860124
v 7.349894 -0.533019 -0.318982
v 5.160146 -0.533019 -0.318982
v 5.160146 -0.533019 1.870766
v 7.349894 -0.533019 1.870766
v 6.255020 23.716795 0.775892
v 7.340343 23.544518 16.861086
v 5.169703 23.544518 16.861086
v 5.169703 23.544518 19.031723
v 7.340343 23.544518 19.031723
v 7.350993 -0.533019 16.850431
v 5.159048 -0.533019 16.850431
v 5.159048 -0.533019 19.042376
v 7.350993 -0.533019 19.042376
v 6.255020 23.716795 17.946404
v -5.163777 23.544518 16.870424
v -7.315746 23.544518 16.870424
v -7.315746 23.544518 19.022387
v -5.163777 23.544518 19.022387
v -5.153219 -0.533019 16.859858
v -7.326309 -0.533019 16.859858
v -7.326309 -0.533019 19.032949
v -5.153219 -0.533019 19.032949
v -6.239764 23.716795 17.946404
v -5.129199 23.544518 -0.334665
v -7.350326 23.544518 -0.334665
v -7.350326 23.544518 1.886454
v -5.129199 23.544518 1.886454
v -5.118302 -0.533019 -0.345571
v -7.361226 -0.533019 -0.345571
v -7.361226 -0.533019 1.897355
v -5.118302 -0.533019 1.897355
v -6.239764 23.716795 0.775892
v -5.129095 23.544518 -14.586864
v -7.350429 23.544518 -14.586864
v -7.350429 23.544518 -12.365536
v -5.129095 23.544518 -12.365536
v -5.118196 -0.533019 -14.597770
v -7.361332 -0.533019 -14.597770
v -7.361332 -0.533019 -12.354634
v -5.118196 -0.533019 -12.354634
v -6.239764 23.716795 -13.476202
v 7.169930 18.269720 -13.680499
v 7.169930 20.492214 -13.680499
v 7.612399 18.269720 -13.680499
v 7.612399 20.492214 -13.680499
v 7.169930 18.269720 21.520500
v 7.169930 20.492214 21.520500
v 7.612399 18.269720 21.520500
v 7.612399 20.492214 21.520500
v -7.637022 18.269720 -13.680499
v -7.637022 20.492214 -13.680499
v -7.194552 18.269720 -13.680499
v -7.194552 20.492214 -13.680499
v -7.623645 18.269720 21.489452
v -7.623645 20.492214 21.489452
v -7.181174 18.269720 21.489452
v -7.181174 20.492214 21.489452
v -7.208864 18.131908 23.402845
v 7.174974 18.131908 23.402845
v -7.208864 20.597523 23.402845
v 7.174974 20.597523 23.402845
v -7.208864 20.597523 -19.048273
v 7.174974 20.597523 -19.048273
v -7.208864 18.131908 -19.048273
v 7.174974 18.131908 -19.048273
vt 0.906282 0.723047
vt 0.906331 0.483729
vt 0.919702 0.484132
vt 0.919832 0.722607
vt 0.964736 0.484100
vt 0.964917 0.722446
vt 0.978102 0.483713
vt 0.978273 0.722801
vt 0.920262 0.464128
vt 0.964143 0.464095
vt 0.964417 0.742479
vt 0.920452 0.742661
vt 0.142828 0.405231
vt 0.135872 0.022832
vt 0.233574 0.405414
vt 0.241465 0.023038
vt 0.203327 0.404711
vt 0.206269 0.022223
vt 0.173076 0.404650
vt 0.171068 0.022155
vt 0.387757 0.568707
vt 0.398046 0.587722
vt 0.415313 0.576583
vt 0.408395 0.606849
vt 0.380947 0.599175
vt 0.142828 0.405231
vt 0.135872 0.022832
vt 0.233574 0.405414
vt 0.241465 0.023038
vt 0.203327 0.404711
vt 0.206269 0.022223
vt 0.173076 0.404650
vt 0.171068 0.022155
vt 0.387757 0.568707
vt 0.398046 0.587722
vt 0.415313 0.576583
vt 0.408395 0.606849
vt 0.380947 0.599175
vt 0.142828 0.405231
vt 0.135872 0.022832
vt 0.233574 0.405414
vt 0.241465 0.023038
vt 0.203327 0.404711
vt 0.206269 0.022223
vt 0.173076 0.404650
vt 0.171068 0.022155
vt 0.387757 0.568707
vt 0.398046 0.587722
vt 0.415313 0.576583
vt 0.408395 0.606849
vt 0.380947 0.599175
vt 0.142828 0.405231
vt 0.135872 0.022832
vt 0.233574 0.405414
vt 0.241465 0.023038
vt 0.203327 0.404711
vt 0.206269 0.022223
vt 0.173076 0.404650
vt 0.171068 0.022155
vt 0.387757 0.568707
vt 0.398046 0.587722
vt 0.415313 0.576583
vt 0.408395 0.606849
vt 0.380947 0.599175
vt 0.142828 0.405231
vt 0.135872 0.022832
vt 0.233574 0.405414
vt 0.241465 0.023038
vt 0.203327 0.404711
vt 0.206269 0.022223
vt 0.173076 0.404650
vt 0.171068 0.022155
vt 0.387757 0.568707
vt 0.398046 0.587722
vt 0.415313 0.576583
vt 0.408395 0.606849
vt 0.380947 0.599175
vt 0.142828 0.405231
vt 0.135872 0.022832
vt 0.233574 0.405414
vt 0.241465 0.023038
vt 0.203327 0.404711
vt 0.206269 0.022223
vt 0.173076 0.404650
vt 0.171068 0.022155
vt 0.387757 0.568707
vt 0.398046 0.587722
vt 0.415313 0.576583
vt 0.408395 0.606849
vt 0.380947 0.599175
vt 0.502420 0.449855
vt 0.494276 0.449466
vt 0.457473 0.449385
vt 0.449303 0.449764
vt 0.538751 0.448883
vt 0.493643 0.459033
vt 0.458063 0.458968
vt 0.489029 0.033247
vt 0.480986 0.033363
vt 0.443418 0.033527
vt 0.435321 0.033171
vt 0.527995 0.033979
vt 0.443787 0.024030
vt 0.480886 0.023660
vt 0.502420 0.449855
vt 0.494276 0.449466
vt 0.457473 0.449385
vt 0.449303 0.449764
vt 0.538751 0.448883
vt 0.493643 0.459033
vt 0.458063 0.458968
vt 0.489025 0.033301
vt 0.481079 0.033631
vt 0.444312 0.032913
vt 0.436355 0.032328
vt 0.528087 0.034089
vt 0.445223 0.023791
vt 0.480509 0.024528
vt 0.375000 0.000000
vt 0.625000 0.000000
vt 0.625000 0.250000
vt 0.375000 0.250000
vt 0.625000 0.500000
vt 0.375000 0.500000
vt 0.625000 0.750000
vt 0.375000 0.750000
vt 0.625000 1.000000
vt 0.375000 1.000000
vt 0.875000 0.000000
vt 0.875000 0.250000
vt 0.125000 0.000000
vt 0.125000 0.250000
vn -0.113446 0.000002 0.993544
vn -0.113446 0.000002 0.993544
vn -0.113446 0.000002 0.993544
vn -0.113446 0.000002 0.993544
vn 0.043228 0.999053 0.004936
vn 0.043228 0.999053 0.004936
vn 0.043228 0.999053 0.004936
vn 0.043228 0.999053 0.004936
vn 0.113446 -0.000002 -0.993544
vn 0.113446 -0.000002 -0.993544
vn 0.113446 -0.000002 -0.993544
vn 0.113446 -0.000002 -0.993544
vn 0.992603 -0.043509 0.113338
vn 0.992603 -0.043509 0.113338
vn 0.992603 -0.043509 0.113338
vn 0.992603 -0.043509 0.113338
vn -0.992603 0.043509 -0.113339
vn -0.992603 0.043509 -0.113339
vn -0.992603 0.043509 -0.113339
vn -0.992603 0.043509 -0.113339
vn 0.707088 -0.007289 -0.707088
vn 0.707088 -0.007289 -0.707089
vn -0.707088 -0.007289 -0.707089
vn -0.707088 -0.007289 -0.707088
vn -0.707088 -0.007289 -0.707088
vn -0.707088 -0.007289 -0.707089
vn -0.707088 -0.007289 0.707088
vn -0.707088 -0.007289 0.707088
vn -0.707088 -0.007289 0.707088
vn -0.707088 -0.007289 0.707088
vn 0.707088 -0.007289 0.707088
vn 0.707088 -0.007289 0.707088
vn 0.707088 -0.007289 0.707088
vn 0.707088 -0.007289 0.707088
vn 0.707088 -0.007289 -0.707089
vn 0.707088 -0.007289 -0.707088
vn 0.000000 1.000000 0.000000
vn 0.000000 1.000000 -0.000004
vn 0.000000 1.000000 0.000000
vn 0.000000 1.000000 0.000000
vn 0.000000 1.000000 0.000000
vn 0.000000 1.000000 0.000000
vn 0.000000 1.000000 0.000000
vn 0.000000 1.000000 0.000000
vn 0.000000 1.000000 0.000002
vn 0.000000 1.000000 0.000000
vn 0.000000 1.000000 0.000002
vn 0.000000 1.000000 -0.000004
vn 0.707087 -0.007289 -0.707089
vn 0.707087 -0.007289 -0.707089
vn -0.707087 -0.007289 -0.707089
vn -0.707087 -0.007289 -0.707089
vn -0.707087 -0.007289 -0.707089
vn -0.707087 -0.007289 -0.707089
vn -0.707088 -0.007289 0.707088
vn -0.707088 -0.007289 0.707088
vn -0.707088 -0.007289 0.707088
vn -0.707088 -0.007289 0.707088
vn 0.707088 -0.007289 0.707088
vn 0.707088 -0.007289 0.707088
vn 0.707088 -0.007289 0.707088
vn 0.707088 -0.007289 0.707088
vn 0.707087 -0.007289 -0.707089
vn 0.707087 -0.007289 -0.707089
vn 0.000000 1.000000 0.000000
vn 0.000000 1.000000 -0.000004
vn 0.000000 1.000000 0.000000
vn 0.000000 1.000000 0.000000
vn 0.000000 1.000000 0.000000
vn 0.000000 1.000000 0.000000
vn 0.000000 1.000000 0.000000
vn 0.000000 1.000000 0.000000
vn 0.000000 1.000000 0.000002
vn 0.000000 1.000000 0.000000
vn 0.000000 1.000000 0.000002
vn 0.000000 1.000000 -0.000004
vn 0.707088 -0.007289 -0.707088
vn 0.707088 -0.007289 -0.707089
vn -0.707088 -0.007289 -0.707089
vn -0.707088 -0.007289 -0.707088
vn -0.707088 -0.007289 -0.707088
vn -0.707088 -0.007289 -0.707089
vn -0.707088 -0.007289 0.707088
vn -0.707088 -0.007289 0.707088
vn -0.707088 -0.007289 0.707088
vn -0.707088 -0.007289 0.707088
vn 0.707088 -0.007289 0.707088
vn 0.707088 -0.007289 0.707088
vn 0.707088 -0.007289 0.707088
vn 0.707088 -0.007289 0.707088
vn 0.707088 -0.007289 -0.707089
vn 0.707088 -0.007289 -0.707088
vn 0.000000 1.000000 0.000000
vn 0.000000 1.000000 -0.000004
vn 0.000000 1.000000 0.000000
vn 0.000000 1.000000 0.000000
vn 0.000000 1.000000 0.000000
vn 0.000000 1.000000 0.000000
vn 0.000000 1.000000 0.000000
vn 0.000000 1.000000 0.000000
vn 0.000000 1.000000 0.000002
vn 0.000000 1.000000 0.000000
vn 0.000000 1.000000 0.000002
vn 0.000000 1.000000 -0.000004
vn 0.707088 -0.007289 -0.707088
vn 0.707088 -0.007289 -0.707089
vn -0.707088 -0.007289 -0.707089
vn -0.707088 -0.007289 -0.707088
vn -0.707088 -0.007289 -0.707088
vn -0.707088 -0.007289 -0.707089
vn -0.707088 -0.007289 0.707088
vn -0.707088 -0.007289 0.707088
vn -0.707088 -0.007289 0.707088
vn -0.707088 -0.007289 0.707088
vn 0.707088 -0.007289 0.707088
vn 0.707088 -0.007289 0.707088
vn 0.707088 -0.007289 0.707088
vn 0.707088 -0.007289 0.707088
vn 0.707088 -0.007289 -0.707089
vn 0.707088 -0.007289 -0.707088
vn 0.000000 1.000000 0.000000
vn 0.000000 1.000000 -0.000004
vn 0.000000 1.000000 0.000000
vn 0.000000 1.000000 0.000000
vn 0.000000 1.000000 0.000000
vn 0.000000 1.000000 0.000000
vn 0.000000 1.000000 0.000000
vn 0.000000 1.000000 0.000000
vn 0.000000 1.000000 0.000002
vn 0.000000 1.000000 0.000000
vn 0.000000 1.000000 0.000002
vn 0.000000 1.000000 -0.000004
vn 0.707087 -0.007289 -0.707089
vn 0.707087 -0.007289 -0.707089
vn -0.707087 -0.007289 -0.707089
vn -0.707087 -0.007289 -0.707089
vn -0.707087 -0.007289 -0.707089
vn -0.707087 -0.007289 -0.707089
vn -0.707088 -0.007289 0.707088
vn -0.707088 -0.007289 0.707088
vn -0.707088 -0.007289 0.707088
vn -0.707088 -0.007289 0.707088
vn 0.707088 -0.007289 0.707088
vn 0.707088 -0.007289 0.707088
vn 0.707088 -0.007289 0.707088
vn 0.707088 -0.007289 0.707088
vn 0.707087 -0.007289 -0.707089
vn 0.707087 -0.007289 -0.707089
vn 0.000000 1.000000 0.000000
vn 0.000000 1.000000 -0.000004
vn 0.000000 1.000000 0.000000
vn 0.000000 1.000000 0.000000
vn 0.000000 1.000000 0.000000
vn 0.000000 1.000000 0.000000
vn 0.000000 1.000000 0.000000
vn 0.000000 1.000000 0.000000
vn 0.000000 1.000000 0.000002
vn 0.000000 1.000000 0.000000
vn 0.000000 1.000000 0.000002
vn 0.000000 1.000000 -0.000004
vn 0.707088 -0.007289 -0.707088
vn 0.707088 -0.007289 -0.707089
vn -0.707088 -0.007289 -0.707089
vn -0.707088 -0.007289 -0.707088
vn -0.707088 -0.007289 -0.707088
vn -0.707088 -0.007289 -0.707089
vn -0.707088 -0.007289 0.707088
vn -0.707088 -0.007289 0.707088
vn -0.707088 -0.007289 0.707088
vn -0.707088 -0.007289 0.707088
vn 0.707088 -0.007289 0.707088
vn 0.707088 -0.007289 0.707088
vn 0.707088 -0.007289 0.707088
vn 0.707088 -0.007289 0.707088
vn 0.707088 -0.007289 -0.707089
vn 0.707088 -0.007289 -0.707088
vn 0.000000 1.000000 0.000000
vn 0.000000 1.000000 -0.000004
vn 0.000000 1.000000 0.000000
vn 0.000000 1.000000 0.000000
vn 0.000000 1.000000 0.000000
vn 0.000000 1.000000 0.000000
vn 0.000000 1.000000 0.000000
vn 0.000000 1.000000 0.000000
vn 0.000000 1.000000 0.000002
vn 0.000000 1.000000 0.000000
vn 0.000000 1.000000 0.000002
vn 0.000000 1.000000 -0.000004
vn 0.000000 -1.000000 0.000000
vn 0.000000 -1.000000 0.000000
vn 0.000000 -1.000000 0.000000
vn 0.000000 -1.000000 0.000000
vn 1.000000 0.000000 0.000000
vn 1.000000 0.000000 0.000000
vn 1.000000 0.000000 0.000000
vn 1.000000 0.000000 0.000000
vn 0.000000 1.000000 0.000000
vn 0.000000 1.000000 0.000000
vn 0.000000 1.000000 0.000000
vn 0.000000 1.000000 0.000000
vn -1.000000 0.000000 0.000000
vn -1.000000 0.000000 0.000000
vn -1.000000 0.000000 0.000000
vn -1.000000 0.000000 0.000000
vn 0.000000 0.000000 -1.000000
vn 0.000000 0.000000 -1.000000
vn 0.000000 0.000000 -1.000000
vn 0.000000 0.000000 -1.000000
vn 0.000000 0.000000 1.000000
vn 0.000000 0.000000 1.000000
vn 0.000000 0.000000 1.000000
vn 0.000000 0.000000 1.000000
vn 0.000000 -1.000000 0.000000
vn 0.000000 -1.000000 0.000000
vn 0.000000 -1.000000 0.000000
vn 0.000000 -1.000000 0.000000
vn 1.000000 0.000000 0.000000
vn 1.000000 0.000000 0.000000
vn 1.000000 0.000000 0.000000
vn 1.000000 0.000000 0.000000
vn 0.000000 1.000000 0.000000
vn 0.000000 1.000000 0.000000
vn 0.000000 1.000000 0.000000
vn 0.000000 1.000000 0.000000
vn -1.000000 0.000000 0.000000
vn -1.000000 0.000000 0.000000
vn -1.000000 0.000000 0.000000
vn -1.000000 0.000000 0.000000
vn 0.000000 0.000000 -1.000000
vn 0.000000 0.000000 -1.000000
vn 0.000000 0.000000 -1.000000
vn 0.000000 0.000000 -1.000000
vn 0.000000 0.000000 1.000000
vn 0.000000 0.000000 1.000000
vn 0.000000 0.000000 1.000000
vn 0.000000 0.000000 1.000000
vn 0.000000 0.000000 1.000000
vn 0.000000 0.000000 1.000000
vn 0.000000 0.000000 1.000000
vn 0.000000 0.000000 1.000000
vn 0.000000 1.000000 0.000000
vn 0.000000 1.000000 0.000000
vn 0.000000 1.000000 0.000000
vn 0.000000 1.000000 0.000000
vn 0.000000 0.000000 -1.000000
vn 0.000000 0.000000 -1.000000
vn 0.000000 0.000000 -1.000000
vn 0.000000 0.000000 -1.000000
vn 0.000000 -1.000000 0.000000
vn 0.000000 -1.000000 0.000000
vn 0.000000 -1.000000 0.000000
vn 0.000000 -1.000000 0.000000
vn 1.000000 0.000000 0.000000
vn 1.000000 0.000000 0.000000
vn 1.000000 0.000000 0.000000
vn 1.000000 0.000000 0.000000
vn -1.000000 0.000000 0.000000
vn -1.000000 0.000000 0.000000
vn -1.000000 0.000000 0.000000
vn -1.000000 0.000000 0.000000
s off
g polySurface15
usemtl lambert2SG
f 1/1/1 3/2/2 6/3/3 4/4/4
f 4/4/5 6/3/6 8/5/7 7/6/8
f 7/6/9 8/5/10 5/7/11 2/8/12
f 3/9/13 5/10/14 8/5/15 6/3/16
f 2/11/17 1/12/18 4/4/19 7/6/20
f 9/14/21 13/13/22 14/15/23 10/16/24
f 10/16/25 14/15/26 15/17/27 11/18/28
f 11/18/29 15/17/30 16/19/31 12/20/32
f 12/20/33 16/19/34 13/13/35 9/14/36
f 17/22/37 9/21/38 10/23/39
f 17/22/40 10/23/41 11/24/42
f 17/22/43 11/24/44 12/25/45
f 17/22/46 12/25/47 9/21/48
f 18/27/49 22/26/50 23/28/51 19/29/52
f 19/29/53 23/28/54 24/30/55 20/31/56
f 20/31/57 24/30/58 25/32/59 21/33/60
f 21/33/61 25/32/62 22/26/63 18/27/64
f 26/35/65 18/34/66 19/36/67
f 26/35/68 19/36/69 20/37/70
f 26/35/71 20/37/72 21/38/73
f 26/35/74 21/38/75 18/34/76
f 27/40/77 31/39/78 32/41/79 28/42/80
f 28/42/81 32/41/82 33/43/83 29/44/84
f 29/44/85 33/43/86 34/45/87 30/46/88
f 30/46/89 34/45/90 31/39/91 27/40/92
f 35/48/93 27/47/94 28/49/95
f 35/48/96 28/49/97 29/50/98
f 35/48/99 29/50/100 30/51/101
f 35/48/102 30/51/103 27/47/104
f 36/53/105 40/52/106 41/54/107 37/55/108
f 37/55/109 41/54/110 42/56/111 38/57/112
f 38/57/113 42/56/114 43/58/115 39/59/116
f 39/59/117 43/58/118 40/52/119 36/53/120
f 44/61/121 36/60/122 37/62/123
f 44/61/124 37/62/125 38/63/126
f 44/61/127 38/63/128 39/64/129
f 44/61/130 39/64/131 36/60/132
f 45/66/133 49/65/134 50/67/135 46/68/136
f 46/68/137 50/67/138 51/69/139 47/70/140
f 47/70/141 51/69/142 52/71/143 48/72/144
f 48/72/145 52/71/146 49/65/147 45/66/148
f 53/74/149 45/73/150 46/75/151
f 53/74/152 46/75/153 47/76/154
f 53/74/155 47/76/156 48/77/157
f 53/74/158 48/77/159 45/73/160
f 54/79/161 58/78/162 59/80/163 55/81/164
f 55/81/165 59/80/166 60/82/167 56/83/168
f 56/83/169 60/82/170 61/84/171 57/85/172
f 57/85/173 61/84/174 58/78/175 54/79/176
f 62/87/177 54/86/178 55/88/179
f 62/87/180 55/88/181 56/89/182
f 62/87/183 56/89/184 57/90/185
f 62/87/186 57/90/187 54/86/188
f 63/91/189 65/92/190 69/99/191 67/98/192
f 65/92/193 66/93/194 70/100/195 69/99/196
f 66/93/197 64/94/198 68/101/199 70/100/200
f 64/95/201 63/91/202 67/98/203 68/102/204
f 63/96/205 64/97/206 66/93/207 65/92/208
f 68/103/209 67/104/210 69/99/211 70/100/212
f 71/105/213 73/106/214 77/113/215 75/112/216
f 73/106/217 74/107/218 78/114/219 77/113/220
f 74/107/221 72/108/222 76/115/223 78/114/224
f 72/109/225 71/105/226 75/112/227 76/116/228
f 71/110/229 72/111/230 74/107/231 73/106/232
f 76/117/233 75/118/234 77/113/235 78/114/236
f 79/119/237 80/120/238 82/121/239 81/122/240
f 81/122/241 82/121/242 84/123/243 83/124/244
f 83/124/245 84/123/246 86/125/247 85/126/248
f 85/126/249 86/125/250 80/127/251 79/128/252
f 80/120/253 86/129/254 84/130/255 82/121/256
f 85/131/257 79/119/258 81/122/259 83/132/260
