# This file uses centimeters as units for non-parametric coordinates.

mtllib PineMountainPeakRiver.mtl
g default
v -271.278320 33.292667 50.657433
v -402.310120 -0.868002 184.122375
v -257.329865 -0.868002 184.122375
v -402.310120 -0.868002 40.516136
v -257.329865 -0.868002 40.516136
v -240.219727 33.292667 109.299492
v -194.857635 33.292667 78.308960
v -220.860855 33.292667 21.422592
v -21.667921 297.683197 70.934464
v -21.835545 297.377594 59.344482
v -39.553089 298.343018 70.305138
v -39.452229 297.635284 59.312923
v -53.316383 295.230347 70.377350
v -57.195457 298.624634 59.662872
v -12.947823 301.759064 68.213455
v -14.973304 301.453461 56.800598
v -4.997874 314.238312 65.479530
v -8.693846 313.518524 56.029442
v 3.250417 336.552216 57.291676
v 1.577779 336.068634 50.682411
v -48.733677 298.040527 59.405231
v -46.956421 297.223785 70.426544
v 8.561150 348.319397 45.184860
v 8.476052 348.232025 44.859230
v -352.589996 -0.868002 184.122375
v -326.642273 -0.868002 184.122375
v -352.589996 -0.868002 208.538071
v -326.642273 -0.868002 208.538071
v -264.448181 33.292667 63.553520
v -251.258209 33.292667 88.457626
v -268.777405 0.568761 71.277435
v -260.114319 0.568761 88.015236
v -258.334991 16.930714 88.586922
v -268.360016 16.930714 70.072433
v -267.839691 28.400164 67.222321
v -256.054352 28.400164 89.621590
v -350.363831 -125.409561 269.736115
v -332.298737 -125.409561 267.881439
v -329.466064 -63.041004 238.123764
v -351.478668 -63.041004 239.049637
v -327.509186 -19.955170 217.212097
v -352.248840 -19.955170 217.496338
v -351.890045 -40.027164 228.454437
v -328.420807 -40.027164 227.871292
v -330.357422 -82.666916 250.170212
v -351.127838 -82.666916 251.388351
v -210.082352 33.166191 89.290131
v -200.429626 33.929550 81.140610
v -201.981354 33.292667 79.590797
v -137.507690 62.231506 94.786629
v -134.799042 58.271103 104.676872
v -107.762108 56.550507 103.201469
v -112.164040 60.538147 93.247673
v -150.423157 62.302750 94.988243
v -147.183212 58.330902 104.905663
v -159.911133 62.684982 94.266960
v -157.005859 58.588974 104.495720
v -167.750458 58.448776 95.003365
v -166.284210 53.217758 105.020103
v -173.472900 48.899826 92.250526
v -172.458374 44.229156 102.594719
v -182.796417 40.409592 89.573357
v -183.135986 36.110962 99.706291
v -192.860687 37.296341 86.054390
v -193.242737 34.133743 96.982048
v -90.140640 205.721008 75.187820
v -84.823906 202.399017 84.217529
v -65.046379 199.640808 77.622345
v -70.078957 203.136292 67.783096
v -100.706787 206.335571 82.062851
v -92.804169 203.091431 89.249802
v -106.560265 205.953644 86.991913
v -100.370895 202.516357 95.920761
vt 0.018198 0.984195
vt 0.133228 0.465651
vt 0.193542 0.465553
vt 0.355191 0.983651
vt 0.527859 0.433817
vt 0.377861 0.573491
vt 0.500183 0.414247
vt 0.415570 0.801043
vt 0.440744 0.796665
vt 0.448817 0.837452
vt 0.422188 0.841375
vt 0.412128 0.779780
vt 0.438028 0.779492
vt 0.446392 0.860539
vt 0.419480 0.860629
vt 0.444478 0.895385
vt 0.421089 0.892181
vt 0.429639 0.951841
vt 0.413829 0.950540
vt 0.408594 0.760459
vt 0.435828 0.764214
vt 0.404660 0.984452
vt 0.403878 0.984250
vt 0.017659 0.465837
vt 0.354651 0.465293
vt 0.133137 0.408899
vt 0.193450 0.408801
vt 0.580169 0.473052
vt 0.506639 0.634696
vt 0.536380 0.611825
vt 0.623826 0.506118
vt 0.592817 0.443083
vt 0.553236 0.414379
vt 0.571496 0.392689
vt 0.606938 0.418383
vt 0.538787 0.425305
vt 0.586315 0.459836
vt 0.184301 0.195174
vt 0.135955 0.193951
vt 0.137937 0.085838
vt 0.180110 0.087620
vt 0.191356 0.360072
vt 0.133848 0.359888
vt 0.134555 0.306731
vt 0.189121 0.307250
vt 0.135455 0.247840
vt 0.186659 0.248690
vt 0.511679 0.637167
vt 0.499932 0.652347
vt 0.531647 0.808974
vt 0.557019 0.812021
vt 0.563412 0.874729
vt 0.537376 0.867813
vt 0.528145 0.779169
vt 0.553750 0.783430
vt 0.523432 0.757549
vt 0.549709 0.760942
vt 0.526523 0.737005
vt 0.553003 0.736225
vt 0.528589 0.710444
vt 0.555077 0.710356
vt 0.528985 0.680499
vt 0.554501 0.678488
vt 0.522880 0.655364
vt 0.549275 0.654312
vt 0.399656 0.686393
vt 0.425157 0.687993
vt 0.433740 0.736116
vt 0.406798 0.735950
vt 0.402303 0.657177
vt 0.426685 0.666058
vt 0.406483 0.639866
vt 0.432738 0.643366
vn 0.000000 1.000000 0.000000
vn 0.000000 1.000000 0.000000
vn 0.000000 1.000000 0.000000
vn 0.000000 1.000000 0.000000
vn -0.030522 0.999404 0.016115
vn 0.000000 1.000000 0.000000
vn 0.000815 1.000000 -0.000489
vn 0.005156 0.999582 -0.028448
vn 0.004943 0.999588 -0.028285
vn -0.127175 0.991554 -0.025437
vn -0.161068 0.986720 -0.021015
vn -0.067435 0.991095 0.114821
vn -0.063260 0.993300 0.096711
vn 0.004943 0.999588 -0.028285
vn 0.005156 0.999582 -0.028448
vn -0.161068 0.986720 -0.021015
vn -0.127175 0.991554 -0.025437
vn -0.700758 0.701437 0.130098
vn -0.716010 0.684351 0.137818
vn -0.716010 0.684351 0.137818
vn -0.700758 0.701437 0.130098
vn -0.852148 0.468045 0.234046
vn -0.851500 0.469805 0.232876
vn -0.851500 0.469805 0.232876
vn -0.852148 0.468045 0.234046
vn -0.859752 0.448135 0.244952
vn -0.856340 0.459385 0.235896
vn -0.298466 0.903011 0.309014
vn -0.235730 0.930338 0.280896
vn -0.063260 0.993300 0.096711
vn -0.067435 0.991095 0.114821
vn -0.856340 0.459385 0.235896
vn -0.859752 0.448135 0.244952
vn -0.823527 0.543046 0.164028
vn -0.823527 0.543046 0.164028
vn 0.000000 1.000000 0.000000
vn 0.000000 1.000000 0.000000
vn 0.002741 0.872431 0.488731
vn 0.002715 0.874935 0.484232
vn -0.031669 0.999359 0.016691
vn -0.001441 0.999999 -0.000210
vn -0.045077 0.998844 0.016703
vn 0.000000 1.000000 0.000000
vn -0.878103 0.105169 0.466770
vn -0.878118 0.105027 0.466773
vn -0.881469 0.068217 0.467289
vn -0.881469 0.068217 0.467289
vn -0.799465 0.424960 0.424576
vn -0.802756 0.416875 0.426377
vn 0.061643 0.440400 0.895683
vn 0.062334 0.437138 0.897232
vn 0.072740 0.386775 0.919301
vn 0.072740 0.386775 0.919301
vn 0.010398 0.446415 0.894765
vn 0.010518 0.447025 0.894460
vn 0.023181 0.442651 0.896395
vn 0.022967 0.443573 0.895944
vn 0.036010 0.466279 0.883905
vn 0.035760 0.463951 0.885139
vn -0.108406 0.993504 0.034626
vn -0.013305 0.999905 0.003507
vn 0.000470 0.938780 0.344518
vn 0.000293 0.938710 0.344707
vn -0.128736 0.920750 0.368303
vn -0.161118 0.912221 0.376687
vn -0.042770 0.873473 0.484991
vn -0.042207 0.882421 0.468563
vn -0.231540 0.704353 0.671027
vn -0.175472 0.744468 0.644187
vn -0.645431 0.648410 0.403712
vn -0.683528 0.616327 0.391064
vn -0.750327 0.576456 0.323586
vn -0.745612 0.582534 0.323600
vn -0.513566 0.795909 0.320591
vn -0.520948 0.790994 0.320847
vn -0.256096 0.952303 0.165932
vn -0.274383 0.939628 0.204481
vn 0.146208 0.961439 0.232935
vn 0.146106 0.961395 0.233179
vn 0.033056 0.952877 0.301552
vn 0.005437 0.946932 0.321389
vn 0.153112 0.910051 0.385181
vn 0.148131 0.917626 0.368809
vn 0.146106 0.961395 0.233179
vn 0.146208 0.961439 0.232935
vn 0.036894 0.767397 0.640109
vn 0.081083 0.801945 0.591870
vn 0.148131 0.917626 0.368809
vn 0.153112 0.910051 0.385181
s 1
g polySurface30
usemtl blinn1SG
f 4/1/1 25/2/2 26/3/3 5/4/4
s 2
f 29/5/5 8/6/6 1/7/7
s off
f 12/8/8 11/9/9 9/10/10 10/11/11
f 21/12/12 22/13/13 11/9/14 12/8/15
f 10/11/16 9/10/17 15/14/18 16/15/19
f 16/15/20 15/14/21 17/16/22 18/17/23
f 18/17/24 17/16/25 19/18/26 20/19/27
f 14/20/28 13/21/29 22/13/30 21/12/31
f 20/19/32 19/18/33 23/22/34 24/23/35
s 1
f 2/24/36 25/2/2 4/1/1
f 5/4/4 26/3/3 3/25/37
f 26/3/3 25/2/2 27/26/38 28/27/39
s 2
f 30/28/40 49/29/41 8/6/6 29/5/5
f 47/30/42 30/28/40 6/31/43
f 33/32/44 34/33/45 31/34/46 32/35/47
f 30/28/40 29/5/5 35/36/48 36/37/49
f 36/37/49 35/36/48 34/33/45 33/32/44
s 1
f 45/38/50 46/39/51 37/40/52 38/41/53
f 41/42/54 42/43/55 43/44/56 44/45/57
f 28/27/39 27/26/38 42/43/55 41/42/54
f 44/45/57 43/44/56 40/46/58 39/47/59
f 39/47/59 40/46/58 46/39/51 45/38/50
s 2
f 48/48/60 49/29/41 30/28/40 47/30/42
f 7/49/61 49/29/41 48/48/60
f 8/6/6 49/29/41 7/49/61
f 50/50/62 51/51/63 52/52/64 53/53/65
f 54/54/66 55/55/67 51/51/63 50/50/62
f 56/56/68 57/57/69 55/55/67 54/54/66
f 57/57/69 56/56/68 58/58/70 59/59/71
f 59/59/71 58/58/70 60/60/72 61/61/73
f 61/61/73 60/60/72 62/62/74 63/63/75
f 63/63/75 62/62/74 64/64/76 65/65/77
f 65/65/77 64/64/76 48/48/60 47/30/42
s off
f 66/66/78 67/67/79 68/68/80 69/69/81
f 70/70/82 71/71/83 67/67/84 66/66/85
f 72/72/86 73/73/87 71/71/88 70/70/89
