# This file uses centimeters as units for non-parametric coordinates.

mtllib PineMountainWoodsWater02.mtl
g default
v 150.850128 56.751484 -205.481140
v 272.155487 56.751484 -205.481140
v 150.850128 56.751484 -300.103455
v 272.155487 56.751484 -300.103455
vt 0.009913 0.117704
vt 0.990087 0.117704
vt 0.009913 0.882273
vt 0.990087 0.882272
vn 0.000000 1.000000 0.000000
vn 0.000000 1.000000 0.000000
vn 0.000000 1.000000 0.000000
vn 0.000000 1.000000 0.000000
s off
g pPlane3
usemtl blinn1SG
f 1/1/1 2/2/2 4/4/3 3/3/4
