# This file uses centimeters as units for non-parametric coordinates.

mtllib PineMountainWoodsWater02COL.mtl
g default
v 150.850128 56.751484 -205.481140
v 272.155487 56.751484 -205.481140
v 150.850128 56.751484 -300.103455
v 272.155487 56.751484 -300.103455
v 150.850128 47.782703 -205.481140
v 272.155487 47.782703 -205.481140
v 272.155487 47.782703 -300.103455
v 150.850128 47.782703 -300.103455
vt 0.009913 0.117704
vt 0.990087 0.117704
vt 0.990087 0.882272
vt 0.009913 0.882273
vt 0.000000 0.000000
vt 1.000000 0.000000
vt 1.000000 1.000000
vt 0.000000 1.000000
vt 0.000000 0.000000
vt 1.000000 0.000000
vt 1.000000 1.000000
vt 0.000000 1.000000
vt 0.000000 0.000000
vt 1.000000 0.000000
vt 1.000000 1.000000
vt 0.000000 1.000000
vt 0.000000 0.000000
vt 1.000000 0.000000
vt 1.000000 1.000000
vt 0.000000 1.000000
vn 0.000000 1.000000 0.000000
vn 0.000000 1.000000 0.000000
vn 0.000000 1.000000 0.000000
vn 0.000000 1.000000 0.000000
vn 0.000000 0.000000 1.000000
vn 0.000000 0.000000 1.000000
vn 0.000000 0.000000 1.000000
vn 0.000000 0.000000 1.000000
vn 1.000000 0.000000 0.000000
vn 1.000000 0.000000 0.000000
vn 1.000000 0.000000 0.000000
vn 1.000000 0.000000 0.000000
vn 0.000000 0.000000 -1.000000
vn 0.000000 0.000000 -1.000000
vn 0.000000 0.000000 -1.000000
vn 0.000000 0.000000 -1.000000
vn -1.000000 0.000000 0.000000
vn -1.000000 0.000000 0.000000
vn -1.000000 0.000000 0.000000
vn -1.000000 0.000000 0.000000
vn 0.000000 -1.000000 0.000000
vn 0.000000 -1.000000 0.000000
vn 0.000000 -1.000000 0.000000
vn 0.000000 -1.000000 0.000000
s off
g PineMountainWoodsWater02:pPlane3
usemtl initialShadingGroup
f 1/1/1 2/2/2 4/3/3 3/4/4
f 2/5/5 1/6/6 5/7/7 6/8/8
f 4/9/9 2/10/10 6/11/11 7/12/12
f 3/13/13 4/14/14 7/15/15 8/16/16
f 1/17/17 3/18/18 8/19/19 5/20/20
f 6/8/21 5/20/22 8/16/23 7/12/24
