# This file uses centimeters as units for non-parametric coordinates.

mtllib CheeseBoardLLowerCanine.mtl
g default
v 0.431751 0.682829 0.120892
v 0.436876 0.682829 -0.015599
v 0.643309 0.598824 0.128836
v 0.648435 0.598824 -0.007655
v 0.684256 0.903418 0.130373
v 0.689382 0.903418 -0.006116
v 0.180441 0.149524 0.043113
v 0.280294 0.294739 0.046865
v 0.435431 0.378227 0.052689
v 0.619132 0.419205 0.059588
v 0.857428 0.405549 0.068537
v 0.661965 0.624577 0.061195
v 0.474490 0.689727 0.054157
v 0.702841 0.878199 0.062731
v 0.939325 1.014742 0.071611
v 0.553385 1.069376 0.057118
v 0.275202 1.025287 0.046666
v 0.024249 0.897327 0.037248
v -0.174912 0.698029 0.029768
v -0.302778 0.446899 0.024967
v -0.346841 0.168517 0.023323
v -0.276045 0.163694 -0.042371
v -0.281233 0.163146 0.094118
v 0.823559 0.962572 -0.001077
v 0.556520 1.000378 -0.011104
v 0.818434 0.962572 0.135413
v 0.551392 1.000375 0.125385
v 0.299312 0.959667 -0.020764
v 0.293973 0.959578 0.115718
v 0.067391 0.841433 -0.029473
v 0.062263 0.841431 0.107016
v -0.116495 0.657416 -0.036378
v -0.121619 0.657419 0.100111
v -0.234457 0.426173 -0.040806
v -0.239728 0.425560 0.095677
v 0.420478 0.425311 -0.016214
v 0.617630 0.469289 -0.008811
v 0.415352 0.425311 0.120276
v 0.612505 0.469289 0.127679
v 0.162512 0.167823 -0.025901
v 0.157385 0.167821 0.110590
v 0.248707 0.332871 -0.022664
v 0.243581 0.332871 0.113825
v 0.796649 0.458739 0.134593
v 0.801775 0.458739 -0.001895
v 0.817616 0.478914 0.067040
v 0.832005 0.937577 0.067580
v -0.346840 -0.039146 0.023319
v -0.276060 -0.039146 -0.042371
v -0.281225 -0.039146 0.094118
v 0.163937 -0.039146 0.042493
v 0.164550 -0.039146 -0.025824
v 0.159424 -0.039146 0.110665
vt 0.232731 0.990233
vt 0.234840 0.989381
vt 0.236960 0.993304
vt 0.234971 0.993850
vt 0.235683 0.977169
vt 0.236919 0.979018
vt 0.231405 0.980914
vt 0.228962 0.979840
vt 0.168192 0.974012
vt 0.166531 0.975332
vt 0.165506 0.972438
vt 0.177397 0.980740
vt 0.171800 0.979064
vt 0.172966 0.977165
vt 0.179801 0.979570
vt 0.174295 0.989347
vt 0.176440 0.990116
vt 0.174340 0.993824
vt 0.172328 0.993355
vt 0.201777 0.959989
vt 0.198846 0.960017
vt 0.209167 0.961099
vt 0.206244 0.961206
vt 0.201403 0.968159
vt 0.198515 0.967655
vt 0.209805 0.968703
vt 0.206947 0.969340
vt 0.172385 0.997769
vt 0.181245 0.990409
vt 0.182747 0.992991
vt 0.187126 0.986194
vt 0.189048 0.988429
vt 0.237075 0.997708
vt 0.226553 0.993350
vt 0.227950 0.990715
vt 0.220087 0.989051
vt 0.221913 0.986742
vt 0.192143 0.981118
vt 0.194478 0.982919
vt 0.214451 0.983773
vt 0.216714 0.981889
vt 0.196275 0.974786
vt 0.198949 0.976008
vt 0.209716 0.977071
vt 0.212330 0.975743
vt 0.240325 0.973830
vt 0.242943 0.972157
vt 0.242032 0.975084
vt 0.178953 0.971319
vt 0.177603 0.969041
vt 0.181473 0.965689
vt 0.183521 0.967191
vt 0.173455 0.973260
vt 0.172667 0.970741
vt 0.230705 0.969257
vt 0.229477 0.971572
vt 0.224740 0.967650
vt 0.226717 0.966067
vt 0.235741 0.970726
vt 0.235040 0.973289
vt 0.183297 0.960858
vt 0.185453 0.961546
vt 0.224701 0.961324
vt 0.222579 0.962098
vt 0.201462 0.953923
vt 0.206328 0.955145
vt 0.198540 0.954065
vt 0.209245 0.955168
vt 0.182968 0.955222
vt 0.224796 0.955691
vt 0.185029 0.955032
vt 0.222733 0.955584
vn 0.525162 -0.760947 0.381004
vn 0.577520 -0.816088 0.021688
vn 0.464267 -0.885524 0.017428
vn 0.405763 -0.823581 0.396322
vn 0.471290 0.791104 0.389924
vn 0.523465 0.851820 0.019654
vn 0.988945 -0.143558 0.037141
vn 0.792031 -0.119401 0.598690
vn 0.792031 -0.119401 0.598690
vn 0.988945 -0.143558 0.037141
vn 0.577520 -0.816088 0.021688
vn 0.525162 -0.760947 0.381004
vn 0.662922 0.656606 -0.359727
vn 0.714023 0.699609 0.026812
vn 0.878161 0.477226 0.032989
vn 0.988945 -0.143558 0.037141
vn 0.523465 0.851820 0.019654
vn 0.499206 0.791104 -0.353480
vn 0.834706 -0.119395 -0.537597
vn 0.577520 -0.816088 0.021688
vn 0.988945 -0.143558 0.037141
vn 0.834706 -0.119395 -0.537597
vn 0.552258 -0.760949 -0.340540
vn 0.434343 -0.823575 -0.364788
vn 0.464267 -0.885524 0.017428
vn 0.577520 -0.816088 0.021688
vn 0.552258 -0.760949 -0.340540
vn -0.678391 0.036918 -0.733773
vn -0.678414 0.036561 -0.733770
vn -0.642040 0.216413 -0.735493
vn -0.641754 0.217300 -0.735481
vn -0.731600 0.036700 0.680746
vn -0.731600 0.036698 0.680746
vn -0.695103 0.216778 0.685448
vn -0.695102 0.216782 0.685448
vn 0.125537 0.700402 -0.702622
vn 0.125537 0.700402 -0.702622
vn 0.031195 0.703529 -0.709982
vn 0.031190 0.703529 -0.709982
vn 0.031190 0.703529 -0.709982
vn 0.031195 0.703529 -0.709982
vn -0.190195 0.668690 -0.718804
vn -0.190519 0.668585 -0.718816
vn 0.072488 0.700406 0.710054
vn 0.072488 0.700406 0.710054
vn -0.022212 0.703479 0.710369
vn -0.022214 0.703479 0.710369
vn -0.022214 0.703479 0.710369
vn -0.022212 0.703479 0.710369
vn -0.243720 0.668627 0.702523
vn -0.243722 0.668626 0.702523
vn -0.190519 0.668585 -0.718816
vn -0.190195 0.668690 -0.718804
vn -0.386184 0.568730 -0.726229
vn -0.386183 0.568730 -0.726229
vn -0.243722 0.668626 0.702523
vn -0.243720 0.668627 0.702523
vn -0.439607 0.568748 0.695177
vn -0.439613 0.568744 0.695177
vn -0.386183 0.568730 -0.726229
vn -0.386184 0.568730 -0.726229
vn -0.541744 0.413532 -0.731782
vn -0.541752 0.413521 -0.731782
vn -0.439613 0.568744 0.695177
vn -0.439607 0.568748 0.695177
vn -0.595062 0.413276 0.689278
vn -0.595060 0.413278 0.689279
vn -0.541752 0.413521 -0.731782
vn -0.541744 0.413532 -0.731782
vn -0.641754 0.217300 -0.735481
vn -0.642040 0.216413 -0.735493
vn -0.595060 0.413278 0.689279
vn -0.595062 0.413276 0.689278
vn -0.695102 0.216782 0.685448
vn -0.695103 0.216778 0.685448
vn 0.634069 0.656614 0.408430
vn 0.878161 0.477226 0.032989
vn 0.714023 0.699609 0.026812
vn 0.300458 -0.755870 -0.581709
vn 0.300456 -0.755871 -0.581710
vn 0.592418 -0.603907 -0.533233
vn 0.587665 -0.607247 -0.534697
vn 0.300456 -0.755871 -0.581710
vn 0.300458 -0.755870 -0.581709
vn 0.082896 -0.803175 -0.589948
vn 0.082899 -0.803174 -0.589948
vn 0.082899 -0.803174 -0.589948
vn 0.082896 -0.803175 -0.589948
vn -0.024056 -0.806832 -0.590291
vn -0.024056 -0.806832 -0.590291
vn 0.255989 -0.755861 0.602614
vn 0.255991 -0.755860 0.602615
vn 0.545910 -0.607239 0.577272
vn 0.550760 -0.603899 0.576168
vn 0.255991 -0.755860 0.602615
vn 0.255989 -0.755861 0.602614
vn 0.038422 -0.803164 0.594518
vn 0.038418 -0.803165 0.594517
vn 0.038418 -0.803165 0.594517
vn 0.038422 -0.803164 0.594518
vn -0.068263 -0.806820 0.586841
vn -0.068263 -0.806820 0.586841
vn 0.932438 -0.229357 -0.279203
vn 0.909376 -0.272165 -0.314581
vn 0.587665 -0.607247 -0.534697
vn 0.592418 -0.603907 -0.533233
vn 0.909376 -0.272165 -0.314581
vn 0.932438 -0.229357 -0.279203
vn 0.990892 -0.036053 -0.129741
vn 0.990892 -0.036053 -0.129741
vn 0.883223 -0.272157 0.381900
vn 0.908869 -0.229356 0.348357
vn 0.550760 -0.603899 0.576168
vn 0.545910 -0.607239 0.577272
vn -0.037527 -0.000001 0.999296
vn -0.037527 -0.000001 0.999296
vn -0.037527 -0.000003 0.999296
vn -0.037527 -0.000003 0.999296
vn 0.037523 0.000007 -0.999296
vn 0.037523 0.000007 -0.999296
vn 0.037521 0.000008 -0.999296
vn 0.523465 0.851820 0.019654
vn 0.714023 0.699609 0.026812
vn 0.662922 0.656606 -0.359727
vn 0.499206 0.791104 -0.353480
vn 0.634069 0.656614 0.408430
vn 0.714023 0.699609 0.026812
vn 0.523465 0.851820 0.019654
vn 0.471290 0.791104 0.389924
vn 0.583101 -0.812105 0.021898
vn 0.464267 -0.885524 0.017428
vn 0.434343 -0.823575 -0.364788
vn 0.405763 -0.823581 0.396322
vn 0.464267 -0.885524 0.017428
vn 0.583101 -0.812105 0.021898
vn -0.037528 0.000000 0.999296
vn -0.037525 0.000001 0.999296
vn -0.037527 -0.000001 0.999296
vn -0.037527 -0.000001 0.999296
vn -0.037526 -0.000001 0.999296
vn -0.037526 -0.000001 0.999296
vn -0.037526 0.000000 0.999296
vn -0.037526 -0.000001 0.999296
vn -0.037526 -0.000002 0.999296
vn -0.037526 -0.000008 0.999296
vn -0.037526 0.000000 0.999296
vn -0.037526 0.000000 0.999296
vn -0.037526 -0.000002 0.999296
vn -0.037526 -0.000001 0.999296
vn -0.037528 0.000000 0.999296
vn -0.037526 -0.000001 0.999296
vn -0.037526 -0.000001 0.999296
vn -0.037526 0.000000 0.999296
vn -0.037528 0.000000 0.999296
vn -0.037526 0.000000 0.999296
vn -0.037526 0.000000 0.999296
vn -0.037528 0.000000 0.999296
vn -0.037528 0.000000 0.999296
vn -0.037528 0.000000 0.999296
vn -0.037527 0.000001 0.999296
vn -0.037528 0.000000 0.999296
vn -0.037528 0.000000 0.999296
vn -0.037527 0.000001 0.999296
vn -0.037525 0.000001 0.999296
vn 0.037524 -0.000001 -0.999296
vn 0.037525 0.000001 -0.999296
vn 0.037523 -0.000003 -0.999296
vn 0.037523 -0.000003 -0.999296
vn 0.037523 -0.000003 -0.999296
vn 0.037523 -0.000003 -0.999296
vn 0.037526 -0.000002 -0.999296
vn 0.037525 0.000001 -0.999296
vn 0.037525 0.000002 -0.999296
vn 0.037523 0.000007 -0.999296
vn 0.037523 0.000007 -0.999296
vn 0.037524 -0.000001 -0.999296
vn 0.037525 -0.000001 -0.999296
vn 0.037525 0.000002 -0.999296
vn 0.037525 0.000001 -0.999296
vn 0.037524 0.000001 -0.999296
vn 0.037524 -0.000002 -0.999296
vn 0.037525 -0.000001 -0.999296
vn 0.037524 -0.000001 -0.999296
vn 0.037527 0.000003 -0.999296
vn 0.037527 0.000002 -0.999296
vn 0.037525 0.000003 -0.999296
vn 0.037524 0.000001 -0.999296
vn 0.037524 0.000001 -0.999296
vn 0.037525 0.000003 -0.999296
vn 0.037524 -0.000002 -0.999296
vn -0.680231 0.000032 -0.732998
vn -0.680231 0.000032 -0.732998
vn -0.678414 0.036561 -0.733770
vn -0.678391 0.036918 -0.733773
vn -0.733458 -0.000021 0.679735
vn -0.733458 -0.000021 0.679735
vn -0.731600 0.036698 0.680746
vn -0.731600 0.036700 0.680746
vn 0.978369 -0.036050 0.203700
vn 0.978369 -0.036050 0.203700
vn 0.908869 -0.229356 0.348357
vn 0.883223 -0.272157 0.381900
vn 0.037528 -0.000001 -0.999296
vn 0.037528 -0.000001 -0.999296
vn 0.037527 0.000002 -0.999296
vn 0.037527 0.000003 -0.999296
s off
g FoodLLowerCaninesUnderbite
usemtl blinn2SG
f 5/1/1 14/2/2 47/3/3 26/4/4
f 3/5/5 12/6/6 13/7/7 1/8/8
f 1/8/9 13/7/10 14/2/11 5/1/12
f 45/9/13 46/10/14 11/11/15
f 13/12/16 12/13/17 4/14/18 2/15/19
f 14/16/20 13/12/21 2/15/22 6/17/23
f 24/18/24 47/19/25 14/16/26 6/17/27
f 22/21/28 21/20/29 20/24/30 34/25/31
f 21/23/32 23/22/33 35/26/34 20/27/35
f 15/28/36 24/18/37 25/29/38 16/30/39
f 16/30/40 25/29/41 28/31/42 17/32/43
f 26/4/44 15/33/45 16/34/46 27/35/47
f 27/35/48 16/34/49 17/36/50 29/37/51
f 17/32/52 28/31/53 30/38/54 18/39/55
f 29/37/56 17/36/57 18/40/58 31/41/59
f 18/39/60 30/38/61 32/42/62 19/43/63
f 31/41/64 18/40/65 19/44/66 33/45/67
f 19/43/68 32/42/69 34/25/70 20/24/71
f 33/45/72 19/44/73 20/27/74 35/26/75
f 44/46/76 11/47/77 46/48/78
f 36/49/79 9/50/80 8/51/81 42/52/82
f 9/50/83 36/49/84 37/53/85 10/54/86
f 10/54/87 37/53/88 45/9/89 11/11/90
f 9/55/91 38/56/92 43/57/93 8/58/94
f 38/56/95 9/55/96 10/59/97 39/60/98
f 39/60/99 10/59/100 11/47/101 44/46/102
f 7/61/103 40/62/104 42/52/105 8/51/106
f 40/62/107 7/61/108 51/69/109 52/71/110
f 41/64/111 7/63/112 8/58/113 43/57/114
f 41/64/115 23/22/116 50/68/117 53/72/118
f 6/17/119 25/29/120 24/18/121
f 12/13/122 46/10/123 45/9/124 4/14/125
f 44/46/126 46/48/127 12/6/128 3/5/129
f 15/28/130 47/19/131 24/18/132
f 26/4/133 47/3/134 15/33/135
f 43/57/136 35/26/137 23/22/138 41/64/139
f 3/5/140 39/60/141 44/46/142
f 27/35/143 5/1/144 26/4/145
f 29/37/146 1/8/147 5/1/148 27/35/149
f 38/56/150 39/60/151 3/5/152 1/8/153
f 38/56/154 1/8/155 29/37/156 31/41/157
f 38/56/158 31/41/159 33/45/160 43/57/161
f 43/57/162 33/45/163 35/26/164
f 36/49/165 2/15/166 4/14/167 37/53/168
f 37/53/169 4/14/170 45/9/171
f 2/15/172 28/31/173 25/29/174 6/17/175
f 36/49/176 30/38/177 28/31/178 2/15/179
f 42/52/180 32/42/181 30/38/182 36/49/183
f 40/62/184 22/21/185 34/25/186 42/52/187
f 42/52/188 34/25/189 32/42/190
f 49/67/191 48/65/192 21/20/193 22/21/194
f 48/66/195 50/68/196 23/22/197 21/23/198
f 53/72/199 51/70/200 7/63/201 41/64/202
f 52/71/203 49/67/204 22/21/205 40/62/206
