# This file uses centimeters as units for non-parametric coordinates.

mtllib PickleRHorn.mtl
g default
v -0.195174 -0.681471 0.131835
v -0.098682 -0.679645 0.228344
v 0.033129 -0.677150 0.263669
v 0.164940 -0.674655 0.228344
v 0.261433 -0.672830 0.131835
v 0.296751 -0.672161 0.000000
v 0.261433 -0.672830 -0.131835
v 0.164940 -0.674656 -0.228344
v 0.033129 -0.677150 -0.263669
v -0.098682 -0.679645 -0.228344
v -0.195174 -0.681471 -0.131835
v -0.230493 -0.682140 0.000000
v -0.390969 -0.532137 0.243598
v -0.212652 -0.530308 0.421925
v 0.030933 -0.527810 0.487197
v 0.274519 -0.525312 0.421925
v 0.452836 -0.523482 0.243598
v 0.518104 -0.522814 0.000000
v 0.452836 -0.523483 -0.243598
v 0.274519 -0.525312 -0.421925
v 0.030933 -0.527811 -0.487197
v -0.212652 -0.530308 -0.421925
v -0.390970 -0.532138 -0.243598
v -0.456238 -0.532807 0.000000
v -0.523567 -0.312274 0.318277
v -0.290596 -0.308906 0.551271
v 0.027647 -0.304307 0.636553
v 0.345891 -0.299707 0.551271
v 0.578861 -0.296339 0.318277
v 0.664134 -0.295107 -0.000000
v 0.578861 -0.296339 -0.318277
v 0.345891 -0.299707 -0.551272
v 0.027647 -0.304306 -0.636554
v -0.290597 -0.308907 -0.551271
v -0.523567 -0.312274 -0.318277
v -0.608840 -0.313506 0.000000
v -0.560261 -0.050188 0.337235
v -0.313421 -0.046163 0.584109
v 0.023771 -0.040666 0.674471
v 0.360961 -0.035167 0.584109
v 0.607802 -0.031144 0.337235
v 0.698152 -0.029671 0.000000
v 0.607802 -0.031144 -0.337235
v 0.360961 -0.035169 -0.584109
v 0.023770 -0.040667 -0.674471
v -0.313420 -0.046162 -0.584109
v -0.560261 -0.050187 -0.337236
v -0.650611 -0.051660 0.000000
v -0.520554 0.480793 0.332223
v -0.279499 0.448525 0.575429
v 0.049788 0.404446 0.664448
v 0.379074 0.360366 0.575429
v 0.620129 0.328099 0.332224
v 0.708361 0.316288 0.000000
v 0.620129 0.328099 -0.332224
v 0.379075 0.360367 -0.575429
v 0.049787 0.404445 -0.664448
v -0.279499 0.448525 -0.575429
v -0.520554 0.480793 -0.332224
v -0.608786 0.492604 0.000000
v -0.377105 0.991303 0.311924
v -0.157809 0.927665 0.540267
v 0.141756 0.840730 0.623847
v 0.441320 0.753795 0.540267
v 0.660617 0.690155 0.311924
v 0.740885 0.666861 0.000000
v 0.660617 0.690155 -0.311924
v 0.441320 0.753794 -0.540268
v 0.141756 0.840729 -0.623847
v -0.157809 0.927664 -0.540268
v -0.377105 0.991303 -0.311924
v -0.457373 1.014597 0.000000
v -0.153630 1.466416 0.286865
v 0.037094 1.378527 0.496864
v 0.297626 1.258468 0.573730
v 0.558159 1.138409 0.496864
v 0.748882 1.050519 0.286865
v 0.818692 1.018351 0.000000
v 0.748882 1.050520 -0.286865
v 0.558159 1.138409 -0.496864
v 0.297626 1.258468 -0.573730
v 0.037094 1.378527 -0.496864
v -0.153630 1.466416 -0.286865
v -0.223439 1.498585 0.000000
v 0.138668 1.894855 0.259217
v 0.297272 1.790673 0.448977
v 0.513928 1.648358 0.518434
v 0.730585 1.506044 0.448977
v 0.889188 1.401862 0.259217
v 0.947241 1.363729 0.000000
v 0.889188 1.401862 -0.259217
v 0.730585 1.506044 -0.448977
v 0.513928 1.648358 -0.518435
v 0.297272 1.790673 -0.448977
v 0.138668 1.894855 -0.259217
v 0.080615 1.932988 0.000000
v 0.284900 2.036386 0.237247
v 0.429555 1.940266 0.410926
v 0.627157 1.808964 0.474496
v 0.824760 1.677664 0.410926
v 0.969414 1.581544 0.237248
v 1.022362 1.546362 0.000000
v 0.969414 1.581544 -0.237248
v 0.824760 1.677664 -0.410925
v 0.627157 1.808964 -0.474496
v 0.429555 1.940266 -0.410926
v 0.284900 2.036386 -0.237248
v 0.231953 2.071567 0.000000
v 0.455637 2.125473 0.181581
v 0.566014 2.051402 0.314509
v 0.716791 1.950217 0.363164
v 0.867568 1.849033 0.314509
v 0.977945 1.774961 0.181581
v 1.018345 1.747849 0.000000
v 0.977945 1.774961 -0.181582
v 0.867568 1.849033 -0.314509
v 0.716791 1.950217 -0.363164
v 0.566014 2.051401 -0.314509
v 0.455637 2.125473 -0.181582
v 0.415236 2.152584 0.000000
v 0.636203 2.138061 0.098271
v 0.695780 2.097740 0.170211
v 0.777163 2.042658 0.196543
v 0.858546 1.987575 0.170211
v 0.918123 1.947252 0.098271
v 0.939929 1.932493 0.000000
v 0.918123 1.947253 -0.098271
v 0.858546 1.987575 -0.170211
v 0.777163 2.042658 -0.196543
v 0.695780 2.097740 -0.170211
v 0.636203 2.138062 -0.098271
v 0.614396 2.152821 0.000000
v 0.033901 -0.729591 0.000000
v 0.799271 2.075390 0.000000
vt 0.735428 0.497277
vt 0.731567 0.486845
vt 0.751498 0.478654
vt 0.754972 0.493389
vt 0.724592 0.476692
vt 0.744789 0.463301
vt 0.714239 0.467367
vt 0.733649 0.446607
vt 0.701113 0.460567
vt 0.716203 0.429577
vt 0.684840 0.458411
vt 0.690569 0.412653
vt 0.685956 0.557455
vt 0.701198 0.555074
vt 0.716257 0.585887
vt 0.691207 0.601605
vt 0.714168 0.548163
vt 0.733700 0.568890
vt 0.724640 0.538917
vt 0.744801 0.552233
vt 0.731577 0.528785
vt 0.751457 0.536941
vt 0.735390 0.518369
vt 0.755008 0.522211
vt 0.736562 0.507805
vt 0.756056 0.507807
vt 0.767701 0.474449
vt 0.770273 0.491652
vt 0.762878 0.455668
vt 0.754052 0.433904
vt 0.738982 0.408181
vt 0.715320 0.376860
vt 0.738940 0.607083
vt 0.714786 0.637348
vt 0.753940 0.581593
vt 0.762828 0.559858
vt 0.767659 0.541132
vt 0.770242 0.523967
vt 0.771140 0.507814
vt 0.782780 0.471966
vt 0.783912 0.490461
vt 0.780274 0.451039
vt 0.774932 0.425987
vt 0.765467 0.394753
vt 0.750682 0.355837
vt 0.765245 0.620463
vt 0.749685 0.659124
vt 0.774765 0.589446
vt 0.780132 0.564515
vt 0.782767 0.543617
vt 0.783927 0.525143
vt 0.784241 0.507803
vt 0.811989 0.469582
vt 0.812580 0.489465
vt 0.810699 0.446963
vt 0.808539 0.420026
vt 0.805119 0.386228
vt 0.800147 0.344567
vt 0.804649 0.629156
vt 0.799265 0.671222
vt 0.808294 0.595424
vt 0.810550 0.568628
vt 0.811873 0.546046
vt 0.812506 0.526210
vt 0.812685 0.507840
vt 0.843338 0.468987
vt 0.842989 0.488984
vt 0.844047 0.446294
vt 0.845192 0.419129
vt 0.847422 0.385711
vt 0.851341 0.346035
vt 0.846948 0.630047
vt 0.850680 0.669827
vt 0.844875 0.596595
vt 0.843806 0.569437
vt 0.843227 0.546762
vt 0.842968 0.526775
vt 0.842933 0.507877
vt 0.876400 0.470853
vt 0.875057 0.489929
vt 0.878989 0.449250
vt 0.883405 0.423756
vt 0.890961 0.393435
vt 0.902385 0.358739
vt 0.890529 0.622536
vt 0.901842 0.657282
vt 0.883128 0.592131
vt 0.878799 0.566622
vt 0.876270 0.545028
vt 0.874972 0.525937
vt 0.874622 0.507927
vt 0.909164 0.475153
vt 0.907137 0.491948
vt 0.913481 0.456643
vt 0.921128 0.435372
vt 0.933594 0.410794
vt 0.950883 0.383083
vt 0.933255 0.605317
vt 0.950476 0.633085
vt 0.920882 0.580660
vt 0.913315 0.559356
vt 0.909065 0.540840
vt 0.907079 0.524031
vt 0.906562 0.507986
vt 0.923211 0.477903
vt 0.920023 0.493339
vt 0.928931 0.461539
vt 0.938508 0.443703
vt 0.953498 0.424235
vt 0.973694 0.404231
vt 0.953246 0.591918
vt 0.973356 0.612004
vt 0.938300 0.572397
vt 0.928760 0.554522
vt 0.923112 0.538137
vt 0.919983 0.522681
vt 0.918975 0.508007
vt 0.937618 0.482685
vt 0.933986 0.495531
vt 0.944171 0.469882
vt 0.954578 0.456817
vt 0.969605 0.444101
vt 0.988870 0.434104
vt 0.969393 0.572099
vt 0.988641 0.582175
vt 0.954422 0.559344
vt 0.944069 0.546220
vt 0.937533 0.533392
vt 0.933939 0.520537
vt 0.932889 0.508039
vt 0.954644 0.490477
vt 0.951159 0.499188
vt 0.960885 0.482413
vt 0.969670 0.475739
vt 0.978944 0.470814
vt 0.989687 0.469383
vt 0.978888 0.545410
vt 0.989550 0.546886
vt 0.969506 0.540443
vt 0.960838 0.533767
vt 0.954581 0.525643
vt 0.951137 0.516946
vt 0.950111 0.508060
vt 0.704862 0.507807
vt 0.974160 0.508080
vn -0.318551 -0.928150 0.192518
vn -0.176946 -0.926438 0.332269
vn -0.344148 -0.712147 0.611890
vn -0.602978 -0.715206 0.353410
vn 0.014877 -0.924126 0.381799
vn 0.009101 -0.707984 0.706170
vn 0.204812 -0.921845 0.329021
vn 0.361962 -0.703841 0.611222
vn 0.342658 -0.920197 0.189269
vn 0.620019 -0.700821 0.352742
vn 0.392862 -0.919598 -0.000002
vn 0.714419 -0.699718 -0.000000
vn 0.342661 -0.920196 -0.189267
vn 0.620019 -0.700821 -0.352741
vn 0.204814 -0.921845 -0.329018
vn 0.361963 -0.703841 -0.611221
vn 0.014874 -0.924126 -0.381799
vn 0.009100 -0.707984 -0.706170
vn -0.176949 -0.926437 -0.332269
vn -0.344151 -0.712146 -0.611890
vn -0.318553 -0.928149 -0.192517
vn -0.602979 -0.715205 -0.353408
vn -0.370627 -0.928782 0.000001
vn -0.697764 -0.716328 0.000001
vn -0.461471 -0.366742 0.807803
vn -0.802446 -0.372531 0.466156
vn 0.004850 -0.358830 0.933390
vn 0.471787 -0.350916 0.808872
vn 0.813997 -0.345122 0.467226
vn 0.939335 -0.343001 -0.000000
vn 0.813997 -0.345122 -0.467226
vn 0.471788 -0.350916 -0.808872
vn 0.004850 -0.358829 -0.933391
vn -0.461471 -0.366741 -0.807803
vn -0.802445 -0.372531 -0.466157
vn -0.927166 -0.374650 0.000000
vn -0.498207 -0.050463 0.865589
vn -0.864866 -0.043274 0.500135
vn 0.001751 -0.060150 0.998188
vn 0.500265 -0.069601 0.863070
vn 0.864036 -0.076309 0.497614
vn 0.996898 -0.078708 -0.000000
vn 0.864036 -0.076309 -0.497614
vn 0.500265 -0.069601 -0.863070
vn 0.001750 -0.060150 -0.998188
vn -0.498207 -0.050463 -0.865589
vn -0.864865 -0.043274 -0.500135
vn -0.999174 -0.040630 -0.000000
vn -0.486343 0.116953 0.865906
vn -0.850405 0.162363 0.500450
vn 0.009883 0.055817 0.998392
vn 0.504766 -0.004047 0.863247
vn 0.866061 -0.046859 0.497737
vn 0.998059 -0.062276 -0.000000
vn 0.866061 -0.046859 -0.497737
vn 0.504766 -0.004047 -0.863247
vn 0.009882 0.055817 -0.998392
vn -0.486343 0.116953 -0.865906
vn -0.850405 0.162363 -0.500450
vn -0.983830 0.179106 0.000000
vn -0.452007 0.227245 0.862583
vn -0.804274 0.323589 0.498431
vn 0.028576 0.097074 0.994867
vn 0.508482 -0.031086 0.860512
vn 0.859337 -0.123331 0.496316
vn 0.987646 -0.156701 -0.000000
vn 0.859337 -0.123331 -0.496316
vn 0.508482 -0.031086 -0.860511
vn 0.028576 0.097074 -0.994867
vn -0.452007 0.227245 -0.862583
vn -0.804274 0.323590 -0.498431
vn -0.933318 0.359051 0.000000
vn -0.406275 0.305868 0.861037
vn -0.739858 0.452841 0.497539
vn 0.048997 0.106613 0.993093
vn 0.503891 -0.090596 0.859003
vn 0.836681 -0.233401 0.495468
vn 0.958442 -0.285289 -0.000000
vn 0.836681 -0.233402 -0.495468
vn 0.503891 -0.090596 -0.859003
vn 0.048996 0.106613 -0.993093
vn -0.406275 0.305868 -0.861037
vn -0.739858 0.452841 -0.497539
vn -0.862035 0.506849 -0.000000
vn -0.330405 0.402118 0.853893
vn -0.638480 0.590773 0.493286
vn 0.090082 0.145220 0.985290
vn 0.510355 -0.110738 0.852804
vn 0.818047 -0.297517 0.492223
vn 0.930710 -0.365758 -0.000000
vn 0.818046 -0.297517 -0.492224
vn 0.510355 -0.110738 -0.852804
vn 0.090082 0.145221 -0.985290
vn -0.330406 0.402118 -0.853893
vn -0.638481 0.590772 -0.493286
vn -0.751311 0.659949 0.000000
vn -0.164329 0.582827 0.795807
vn -0.443951 0.769367 0.459328
vn 0.217846 0.327760 0.919302
vn 0.600292 0.072379 0.796499
vn 0.880456 -0.114791 0.460022
vn 0.983048 -0.183348 -0.000000
vn 0.880455 -0.114790 -0.460023
vn 0.600291 0.072380 -0.796500
vn 0.217846 0.327762 -0.919302
vn -0.164328 0.582828 -0.795807
vn -0.443951 0.769367 -0.459328
vn -0.546272 0.837608 0.000000
vn 0.096487 0.782494 0.615136
vn -0.124155 0.925839 0.356943
vn 0.394337 0.589008 0.705385
vn 0.688069 0.398219 0.606616
vn 0.900479 0.260265 0.348424
vn 0.977673 0.210132 0.000001
vn 0.900479 0.260263 -0.348425
vn 0.688069 0.398217 -0.606617
vn 0.394337 0.589007 -0.705386
vn 0.096490 0.782493 -0.615138
vn -0.124153 0.925838 -0.356945
vn -0.205465 0.978665 0.000001
vn 0.358088 0.872870 0.331467
vn 0.240695 0.951414 0.192035
vn 0.517148 0.766445 0.380946
vn 0.674709 0.661023 0.328353
vn 0.789110 0.584479 0.188919
vn 0.830782 0.556597 0.000003
vn 0.789109 0.584480 -0.188918
vn 0.674708 0.661023 -0.328355
vn 0.517150 0.766444 -0.380947
vn 0.358093 0.872867 -0.331470
vn 0.240701 0.951412 -0.192035
vn 0.197534 0.980296 0.000003
vn 0.018837 -0.999823 0.000000
vn 0.560495 0.828158 0.000001
s 1
g FoodRHorn
usemtl Pickle_lambert3SG
f 1/1/1 2/2/2 14/3/3 13/4/4
f 2/2/2 3/5/5 15/6/6 14/3/3
f 3/5/5 4/7/7 16/8/8 15/6/6
f 4/7/7 5/9/9 17/10/10 16/8/8
f 5/9/9 6/11/11 18/12/12 17/10/10
f 6/13/11 7/14/13 19/15/14 18/16/12
f 7/14/13 8/17/15 20/18/16 19/15/14
f 8/17/15 9/19/17 21/20/18 20/18/16
f 9/19/17 10/21/19 22/22/20 21/20/18
f 10/21/19 11/23/21 23/24/22 22/22/20
f 11/23/21 12/25/23 24/26/24 23/24/22
f 12/25/23 1/1/1 13/4/4 24/26/24
f 13/4/4 14/3/3 26/27/25 25/28/26
f 14/3/3 15/6/6 27/29/27 26/27/25
f 15/6/6 16/8/8 28/30/28 27/29/27
f 16/8/8 17/10/10 29/31/29 28/30/28
f 17/10/10 18/12/12 30/32/30 29/31/29
f 18/16/12 19/15/14 31/33/31 30/34/30
f 19/15/14 20/18/16 32/35/32 31/33/31
f 20/18/16 21/20/18 33/36/33 32/35/32
f 21/20/18 22/22/20 34/37/34 33/36/33
f 22/22/20 23/24/22 35/38/35 34/37/34
f 23/24/22 24/26/24 36/39/36 35/38/35
f 24/26/24 13/4/4 25/28/26 36/39/36
f 25/28/26 26/27/25 38/40/37 37/41/38
f 26/27/25 27/29/27 39/42/39 38/40/37
f 27/29/27 28/30/28 40/43/40 39/42/39
f 28/30/28 29/31/29 41/44/41 40/43/40
f 29/31/29 30/32/30 42/45/42 41/44/41
f 30/34/30 31/33/31 43/46/43 42/47/42
f 31/33/31 32/35/32 44/48/44 43/46/43
f 32/35/32 33/36/33 45/49/45 44/48/44
f 33/36/33 34/37/34 46/50/46 45/49/45
f 34/37/34 35/38/35 47/51/47 46/50/46
f 35/38/35 36/39/36 48/52/48 47/51/47
f 36/39/36 25/28/26 37/41/38 48/52/48
f 37/41/38 38/40/37 50/53/49 49/54/50
f 38/40/37 39/42/39 51/55/51 50/53/49
f 39/42/39 40/43/40 52/56/52 51/55/51
f 40/43/40 41/44/41 53/57/53 52/56/52
f 41/44/41 42/45/42 54/58/54 53/57/53
f 42/47/42 43/46/43 55/59/55 54/60/54
f 43/46/43 44/48/44 56/61/56 55/59/55
f 44/48/44 45/49/45 57/62/57 56/61/56
f 45/49/45 46/50/46 58/63/58 57/62/57
f 46/50/46 47/51/47 59/64/59 58/63/58
f 47/51/47 48/52/48 60/65/60 59/64/59
f 48/52/48 37/41/38 49/54/50 60/65/60
f 49/54/50 50/53/49 62/66/61 61/67/62
f 50/53/49 51/55/51 63/68/63 62/66/61
f 51/55/51 52/56/52 64/69/64 63/68/63
f 52/56/52 53/57/53 65/70/65 64/69/64
f 53/57/53 54/58/54 66/71/66 65/70/65
f 54/60/54 55/59/55 67/72/67 66/73/66
f 55/59/55 56/61/56 68/74/68 67/72/67
f 56/61/56 57/62/57 69/75/69 68/74/68
f 57/62/57 58/63/58 70/76/70 69/75/69
f 58/63/58 59/64/59 71/77/71 70/76/70
f 59/64/59 60/65/60 72/78/72 71/77/71
f 60/65/60 49/54/50 61/67/62 72/78/72
f 61/67/62 62/66/61 74/79/73 73/80/74
f 62/66/61 63/68/63 75/81/75 74/79/73
f 63/68/63 64/69/64 76/82/76 75/81/75
f 64/69/64 65/70/65 77/83/77 76/82/76
f 65/70/65 66/71/66 78/84/78 77/83/77
f 66/73/66 67/72/67 79/85/79 78/86/78
f 67/72/67 68/74/68 80/87/80 79/85/79
f 68/74/68 69/75/69 81/88/81 80/87/80
f 69/75/69 70/76/70 82/89/82 81/88/81
f 70/76/70 71/77/71 83/90/83 82/89/82
f 71/77/71 72/78/72 84/91/84 83/90/83
f 72/78/72 61/67/62 73/80/74 84/91/84
f 73/80/74 74/79/73 86/92/85 85/93/86
f 74/79/73 75/81/75 87/94/87 86/92/85
f 75/81/75 76/82/76 88/95/88 87/94/87
f 76/82/76 77/83/77 89/96/89 88/95/88
f 77/83/77 78/84/78 90/97/90 89/96/89
f 78/86/78 79/85/79 91/98/91 90/99/90
f 79/85/79 80/87/80 92/100/92 91/98/91
f 80/87/80 81/88/81 93/101/93 92/100/92
f 81/88/81 82/89/82 94/102/94 93/101/93
f 82/89/82 83/90/83 95/103/95 94/102/94
f 83/90/83 84/91/84 96/104/96 95/103/95
f 84/91/84 73/80/74 85/93/86 96/104/96
f 85/93/86 86/92/85 98/105/97 97/106/98
f 86/92/85 87/94/87 99/107/99 98/105/97
f 87/94/87 88/95/88 100/108/100 99/107/99
f 88/95/88 89/96/89 101/109/101 100/108/100
f 89/96/89 90/97/90 102/110/102 101/109/101
f 90/99/90 91/98/91 103/111/103 102/112/102
f 91/98/91 92/100/92 104/113/104 103/111/103
f 92/100/92 93/101/93 105/114/105 104/113/104
f 93/101/93 94/102/94 106/115/106 105/114/105
f 94/102/94 95/103/95 107/116/107 106/115/106
f 95/103/95 96/104/96 108/117/108 107/116/107
f 96/104/96 85/93/86 97/106/98 108/117/108
f 97/106/98 98/105/97 110/118/109 109/119/110
f 98/105/97 99/107/99 111/120/111 110/118/109
f 99/107/99 100/108/100 112/121/112 111/120/111
f 100/108/100 101/109/101 113/122/113 112/121/112
f 101/109/101 102/110/102 114/123/114 113/122/113
f 102/112/102 103/111/103 115/124/115 114/125/114
f 103/111/103 104/113/104 116/126/116 115/124/115
f 104/113/104 105/114/105 117/127/117 116/126/116
f 105/114/105 106/115/106 118/128/118 117/127/117
f 106/115/106 107/116/107 119/129/119 118/128/118
f 107/116/107 108/117/108 120/130/120 119/129/119
f 108/117/108 97/106/98 109/119/110 120/130/120
f 109/119/110 110/118/109 122/131/121 121/132/122
f 110/118/109 111/120/111 123/133/123 122/131/121
f 111/120/111 112/121/112 124/134/124 123/133/123
f 112/121/112 113/122/113 125/135/125 124/134/124
f 113/122/113 114/123/114 126/136/126 125/135/125
f 114/125/114 115/124/115 127/137/127 126/138/126
f 115/124/115 116/126/116 128/139/128 127/137/127
f 116/126/116 117/127/117 129/140/129 128/139/128
f 117/127/117 118/128/118 130/141/130 129/140/129
f 118/128/118 119/129/119 131/142/131 130/141/130
f 119/129/119 120/130/120 132/143/132 131/142/131
f 120/130/120 109/119/110 121/132/122 132/143/132
f 2/2/2 1/1/1 133/144/133
f 3/5/5 2/2/2 133/144/133
f 4/7/7 3/5/5 133/144/133
f 5/9/9 4/7/7 133/144/133
f 6/11/11 5/9/9 133/144/133
f 7/14/13 6/13/11 133/144/133
f 8/17/15 7/14/13 133/144/133
f 9/19/17 8/17/15 133/144/133
f 10/21/19 9/19/17 133/144/133
f 11/23/21 10/21/19 133/144/133
f 12/25/23 11/23/21 133/144/133
f 1/1/1 12/25/23 133/144/133
f 121/132/122 122/131/121 134/145/134
f 122/131/121 123/133/123 134/145/134
f 123/133/123 124/134/124 134/145/134
f 124/134/124 125/135/125 134/145/134
f 125/135/125 126/136/126 134/145/134
f 126/138/126 127/137/127 134/145/134
f 127/137/127 128/139/128 134/145/134
f 128/139/128 129/140/129 134/145/134
f 129/140/129 130/141/130 134/145/134
f 130/141/130 131/142/131 134/145/134
f 131/142/131 132/143/132 134/145/134
f 132/143/132 121/132/122 134/145/134
