# This file uses centimeters as units for non-parametric coordinates.

mtllib BreakableJungleWall_piece12COL.mtl
g default
v -44.877487 15.539596 37.915436
v -36.429253 15.539596 45.961349
v -36.241287 30.023310 44.378708
v -49.508003 15.917557 29.233086
v -43.065811 30.021402 37.877945
v -31.132778 32.256134 39.420341
v -33.916618 33.601395 27.637505
v -48.638222 16.487541 25.382830
v -32.910870 14.768347 24.272484
v -24.100801 15.524579 33.031387
vt 0.185713 0.120284
vt 0.250341 0.120176
vt 0.244669 0.208825
vt 0.193555 0.208864
vt 0.963411 0.807518
vt 0.929070 0.811587
vt 0.889593 0.759432
vt 0.960300 0.755167
vt 0.131030 0.123996
vt 0.049355 0.534912
vt 0.018431 0.479554
vt 0.004965 0.429221
vt 0.009228 0.416379
vt 0.087423 0.427875
vt 0.121314 0.480523
vt 0.130778 0.576552
vt 0.096590 0.587658
vt 0.250431 0.587098
vt 0.186593 0.570251
vt 0.269563 0.488138
vt 0.286545 0.498910
vt 0.193113 0.470994
vt 0.128278 0.477232
vn -0.769595 0.012756 0.638405
vn -0.688546 0.056697 0.722973
vn -0.658522 0.297070 0.691447
vn -0.688534 0.303209 0.658776
vn -0.218099 0.949219 0.226753
vn -0.142029 0.978966 0.146469
vn -0.142029 0.978966 0.146469
vn -0.218720 0.948919 0.227407
vn -0.688534 0.303209 0.658776
vn -0.845678 -0.307151 0.436449
vn -0.769595 0.012756 0.638405
vn 0.088704 -0.991427 -0.095942
vn 0.078895 -0.992624 -0.092045
vn 0.026797 -0.999143 -0.031562
vn 0.026797 -0.999143 -0.031562
vn 0.029547 -0.999545 0.006077
vn 0.045453 -0.998598 -0.027118
vn 0.045453 -0.998598 -0.027118
vn 0.029547 -0.999545 0.006077
vn 0.038972 -0.999224 0.005682
vn 0.056019 -0.998073 -0.026676
vn -0.601454 0.761358 -0.242047
vn -0.601454 0.761358 -0.242047
vn -0.601454 0.761358 -0.242047
vn -0.601454 0.761358 -0.242047
vn -0.068552 0.147857 -0.986630
vn -0.069314 0.100951 -0.992474
vn -0.066804 0.230965 -0.970666
vn 0.718286 0.054481 0.693612
vn 0.718557 0.040219 0.694304
vn 0.709694 0.043642 0.703157
vn 0.697517 0.097029 -0.709969
vn 0.695238 0.116176 -0.709329
vn 0.683492 0.192538 -0.704108
vn 0.718557 0.040219 0.694304
vn 0.701167 0.019483 0.712731
vn 0.709694 0.043642 0.703157
vn 0.782022 0.612500 -0.115265
vn 0.907560 0.383541 -0.170973
vn 0.891250 0.423366 -0.162590
vn 0.718557 0.040219 0.694304
vn 0.701167 0.019483 0.712731
vn 0.709694 0.043642 0.703157
vn 0.782022 0.612500 -0.115265
vn 0.907560 0.383541 -0.170973
vn 0.891250 0.423366 -0.162590
vn 0.709694 0.043642 0.703157
vn 0.782022 0.612500 -0.115265
vn 0.907560 0.383541 -0.170973
vn 0.891250 0.423366 -0.162590
vn 0.709694 0.043642 0.703157
vn 0.782022 0.612500 -0.115265
vn 0.907560 0.383541 -0.170973
vn 0.891250 0.423366 -0.162590
vn 0.709694 0.043642 0.703157
vn 0.782022 0.612500 -0.115265
vn 0.907560 0.383541 -0.170973
vn 0.891250 0.423366 -0.162590
vn 0.709694 0.043642 0.703157
vn 0.782022 0.612500 -0.115265
vn 0.907560 0.383541 -0.170973
vn 0.891250 0.423366 -0.162590
vn 0.907560 0.383541 -0.170973
vn 0.891250 0.423366 -0.162590
vn 0.709694 0.043642 0.703157
vn 0.782022 0.612500 -0.115265
vn 0.907560 0.383541 -0.170973
vn 0.891250 0.423366 -0.162590
vn 0.709694 0.043642 0.703157
vn 0.782022 0.612500 -0.115265
vn 0.907560 0.383541 -0.170973
vn 0.891250 0.423366 -0.162590
vn 0.907560 0.383541 -0.170973
vn 0.891250 0.423366 -0.162590
vn 0.718557 0.040219 0.694304
vn 0.701167 0.019483 0.712731
vn 0.709694 0.043642 0.703157
vn 0.782022 0.612500 -0.115265
vn 0.907560 0.383541 -0.170973
vn 0.891250 0.423366 -0.162590
vn 0.709694 0.043642 0.703157
vn 0.782022 0.612500 -0.115265
vn 0.907560 0.383541 -0.170973
vn 0.891250 0.423366 -0.162590
vn 0.709694 0.043642 0.703157
vn 0.782022 0.612500 -0.115265
vn 0.907560 0.383541 -0.170973
vn 0.891250 0.423366 -0.162590
vn 0.907560 0.383541 -0.170973
vn 0.891250 0.423366 -0.162590
vn 0.718557 0.040219 0.694304
vn 0.701167 0.019483 0.712731
vn 0.709694 0.043642 0.703157
vn 0.782022 0.612500 -0.115265
vn 0.907560 0.383541 -0.170973
vn 0.891250 0.423366 -0.162590
vn 0.709694 0.043642 0.703157
vn 0.782022 0.612500 -0.115265
vn 0.907560 0.383541 -0.170973
vn 0.891250 0.423366 -0.162590
s off
g polySurface241
usemtl lambert2SG
f 1/1/1 2/2/2 3/3/3 5/4/4
f 3/5/5 6/6/6 7/7/7 5/8/8
f 5/4/9 4/9/10 1/1/11
f 1/11/12 4/12/13 8/13/14
f 8/13/15 9/14/16 1/11/17
f 1/11/18 9/14/19 10/15/20 2/10/21
f 4/21/22 5/18/23 7/19/24 8/20/25
f 9/22/26 8/20/27 7/19/28
f 3/17/29 2/10/30 6/16/31
f 10/23/32 9/22/33 7/19/34
f 2/10/35 10/23/36 6/16/37
f 10/23/38 7/19/39 6/16/40
