# This file uses centimeters as units for non-parametric coordinates.

mtllib BreakableJungleWall_piece03COL.mtl
g default
v -17.655838 -0.336590 29.135874
v -28.698988 -0.336590 17.981222
v -5.708378 17.810225 35.624962
v -25.688511 1.182288 52.644508
v -23.682154 14.893435 49.158932
v 3.603461 1.965235 30.636524
v -24.574070 14.778446 16.183964
vt 0.498874 0.312210
vt 0.702801 0.300179
vt 0.651455 0.392771
vt 0.526110 0.388513
vt 0.343777 0.253909
vt 0.469241 0.112466
vt 0.467861 0.198749
vt 0.543497 0.284253
vt 0.138358 0.712866
vt 0.271273 0.664830
vt 0.103631 0.556687
vt 0.084259 0.410348
vt 0.019021 0.759684
vt 0.016422 0.631341
vt 0.015916 0.552768
vt 0.021401 0.398945
vn 0.595615 0.017044 0.803089
vn 0.580756 -0.192774 0.790924
vn 0.579211 0.177490 0.795621
vn 0.595615 0.017044 0.803089
vn 0.579211 0.177490 0.795621
vn 0.579039 0.166405 0.798138
vn 0.130190 -0.989980 0.054689
vn 0.044855 -0.998006 -0.044407
vn 0.111057 -0.992523 0.050638
vn 0.111057 -0.992523 0.050638
vn 0.267083 -0.849406 0.455166
vn 0.231019 -0.935807 0.266261
vn -0.127217 0.991386 -0.031152
vn -0.127028 0.991824 0.012225
vn -0.127217 0.991386 -0.031152
vn 0.716092 -0.233251 -0.657880
vn 0.709910 -0.272365 -0.649496
vn 0.676555 -0.190014 -0.711455
vn 0.669396 -0.209837 -0.712655
vn -0.993390 0.113366 0.017996
vn -0.992352 0.117459 0.037967
vn -0.938078 0.339298 0.069901
vn -0.957858 0.284732 0.037899
vn 0.195039 0.508136 -0.838903
vn 0.298561 0.421607 -0.856218
vn 0.231819 0.478811 -0.846758
vn -0.992352 0.117459 0.037967
vn -0.938078 0.339298 0.069901
vn -0.957858 0.284732 0.037899
vn 0.195039 0.508136 -0.838903
vn 0.298561 0.421607 -0.856218
vn 0.231819 0.478811 -0.846758
vn 0.195039 0.508136 -0.838903
vn 0.298561 0.421607 -0.856218
vn 0.231819 0.478811 -0.846758
vn 0.231819 0.478811 -0.846758
vn 0.298561 0.421607 -0.856218
vn 0.582859 0.102649 -0.806064
vn 0.195039 0.508136 -0.838903
vn 0.298561 0.421607 -0.856218
vn 0.231819 0.478811 -0.846758
vn 0.231819 0.478811 -0.846758
vn 0.298561 0.421607 -0.856218
vn 0.582859 0.102649 -0.806064
vn 0.231819 0.478811 -0.846758
vn 0.231819 0.478811 -0.846758
vn 0.298561 0.421607 -0.856218
vn 0.582859 0.102649 -0.806064
vn 0.195039 0.508136 -0.838903
vn 0.298561 0.421607 -0.856218
vn 0.231819 0.478811 -0.846758
vn 0.231819 0.478811 -0.846758
vn 0.298561 0.421607 -0.856218
vn 0.582859 0.102649 -0.806064
vn 0.231819 0.478811 -0.846758
vn 0.231819 0.478811 -0.846758
vn 0.298561 0.421607 -0.856218
vn 0.582859 0.102649 -0.806064
vn 0.298561 0.421607 -0.856218
vn 0.582859 0.102649 -0.806064
vn 0.195039 0.508136 -0.838903
vn 0.298561 0.421607 -0.856218
vn 0.231819 0.478811 -0.846758
vn 0.231819 0.478811 -0.846758
vn 0.298561 0.421607 -0.856218
vn 0.582859 0.102649 -0.806064
vn 0.298561 0.421607 -0.856218
vn 0.582859 0.102649 -0.806064
vn 0.231819 0.478811 -0.846758
vn 0.231819 0.478811 -0.846758
vn 0.298561 0.421607 -0.856218
vn 0.582859 0.102649 -0.806064
vn 0.231819 0.478811 -0.846758
vn 0.231819 0.478811 -0.846758
vn 0.298561 0.421607 -0.856218
vn 0.582859 0.102649 -0.806064
vn 0.298561 0.421607 -0.856218
vn 0.582859 0.102649 -0.806064
vn 0.231819 0.478811 -0.846758
vn 0.231819 0.478811 -0.846758
vn 0.298561 0.421607 -0.856218
vn 0.582859 0.102649 -0.806064
vn 0.231819 0.478811 -0.846758
vn 0.231819 0.478811 -0.846758
vn 0.298561 0.421607 -0.856218
vn 0.582859 0.102649 -0.806064
vn 0.298561 0.421607 -0.856218
vn 0.582859 0.102649 -0.806064
s off
g polySurface230
usemtl lambert2SG
f 4/1/1 6/2/2 3/3/3
f 4/1/4 3/3/5 5/4/6
f 4/5/7 2/6/8 1/7/9
f 1/7/10 6/8/11 4/5/12
f 7/11/13 5/10/14 3/9/15
f 7/11/16 3/9/17 1/14/18 2/15/19
f 5/12/20 7/11/21 2/15/22 4/16/23
f 6/13/24 1/14/25 3/9/26
