# This file uses centimeters as units for non-parametric coordinates.

mtllib BreakableJungleWall_piece32COL.mtl
g default
v 58.383278 1.282130 -25.088253
v 46.853302 -0.139054 -13.339601
v 57.929016 9.557753 -25.265877
v 47.652115 -1.212730 -38.178909
v 40.998138 -2.732422 -30.294966
v 47.180943 16.929796 -38.509109
v 40.633984 16.201494 -30.408115
v 45.638344 9.470057 -17.876217
vt 0.294358 0.284995
vt 0.295018 0.239449
vt 0.316678 0.686707
vt 0.226268 0.698623
vt 0.205400 0.231513
vt 0.886794 0.284981
vt 0.932066 0.201618
vt 0.983609 0.198890
vt 0.974538 0.288806
vt 0.320110 0.787605
vt 0.231415 0.747972
vt 0.090696 0.074281
vt 0.126868 0.149887
vt 0.081080 0.160284
vt 0.094054 0.244012
vt 0.012455 0.245980
vt 0.139402 0.230497
vt 0.026035 0.199772
vt 0.036049 0.109493
vt 0.005621 0.075346
vn 0.256734 -0.953143 0.160017
vn 0.149082 -0.987740 0.046313
vn 0.247298 -0.968057 -0.041351
vn 0.299490 -0.952647 0.052630
vn 0.652063 -0.438713 0.618340
vn 0.787449 -0.170199 0.592416
vn 0.837331 0.100097 0.537454
vn 0.801874 -0.057607 -0.594710
vn 0.767884 -0.071805 -0.636552
vn 0.757742 0.060458 -0.649747
vn 0.788236 0.064726 -0.611959
vn 0.302968 0.922074 0.240812
vn 0.302967 0.922074 0.240812
vn 0.264944 0.916644 0.299281
vn -0.934299 0.024160 0.355671
vn -0.936804 0.035118 0.348087
vn -0.931718 0.011605 0.362997
vn -0.760221 -0.021217 -0.649318
vn -0.759727 -0.025094 -0.649758
vn -0.760885 -0.015861 -0.648693
vn -0.760885 -0.015861 -0.648693
vn 0.261722 0.915990 0.304080
vn 0.264944 0.916644 0.299281
vn 0.190578 0.894515 0.404380
vn 0.372856 0.531640 0.760485
vn 0.372856 0.531640 0.760485
vn 0.372856 0.531640 0.760485
vn -0.934299 0.024160 0.355671
vn -0.931718 0.011605 0.362997
vn -0.928691 0.000000 0.370854
vn 0.372856 0.531640 0.760485
vn 0.372856 0.531640 0.760485
vn 0.372856 0.531640 0.760485
vn -0.934299 0.024160 0.355671
vn -0.931718 0.011605 0.362997
vn -0.928691 0.000000 0.370854
vn 0.372856 0.531640 0.760485
vn -0.934299 0.024160 0.355671
vn -0.931718 0.011605 0.362997
vn -0.928691 0.000000 0.370854
vn 0.372856 0.531640 0.760485
vn -0.934299 0.024160 0.355671
vn -0.931718 0.011605 0.362997
vn -0.928691 0.000000 0.370854
vn 0.264944 0.916644 0.299281
vn 0.190578 0.894515 0.404380
vn 0.372856 0.531640 0.760485
vn 0.372856 0.531640 0.760485
vn 0.372856 0.531640 0.760485
vn -0.934299 0.024160 0.355671
vn -0.931718 0.011605 0.362997
vn -0.928691 0.000000 0.370854
vn -0.931718 0.011605 0.362997
vn -0.928691 0.000000 0.370854
s off
g polySurface244
usemtl lambert2SG
f 2/6/1 5/7/2 4/8/3 1/9/4
f 2/5/5 1/2/6 3/1/7
f 1/4/8 4/3/9 6/10/10 3/11/11
f 3/12/12 6/13/13 7/14/14
f 5/15/15 2/16/16 8/18/17
f 4/17/18 5/15/19 7/14/20 6/13/21
f 3/12/22 7/14/23 8/19/24
f 2/20/25 3/12/26 8/19/27
f 5/15/28 8/18/29 7/14/30
