# This file uses centimeters as units for non-parametric coordinates.

mtllib BreakableJungleWall_piece36.mtl
g default
v 31.176620 32.919231 -6.797153
v 31.697929 20.012589 -2.974230
v 28.264277 32.573330 -5.717918
v 31.246538 15.481842 -3.373561
v 35.055798 19.618780 -3.927896
v 40.642761 29.743969 -14.980065
v 23.458652 19.397940 -12.963089
v 23.941376 3.995442 -12.225430
v 32.656044 19.508360 -12.164576
vt 0.104163 0.344684
vt 0.102621 0.318227
vt 0.123494 0.340593
vt 0.117031 0.421470
vt 0.099253 0.421742
vt 0.188578 0.401788
vt 0.234912 0.508633
vt 0.184481 0.473160
vt 0.199684 0.458068
vt 0.173972 0.549209
vt 0.259384 0.438242
vt 0.290099 0.566746
vt 0.214853 0.577287
vt 0.307594 0.546739
vt 0.274044 0.440055
vt 0.323439 0.475629
vt 0.277387 0.519108
vn 0.295526 0.233666 0.926318
vn 0.259530 -0.110416 0.959402
vn 0.520685 0.301573 0.798712
vn 0.295526 0.233666 0.926318
vn 0.520685 0.301573 0.798712
vn 0.539804 0.324413 0.776768
vn 0.297831 0.282153 0.911968
vn 0.677778 0.338488 0.652720
vn 0.539804 0.324413 0.776768
vn 0.520685 0.301573 0.798712
vn -0.768233 -0.059910 0.637361
vn -0.771894 0.020899 0.635408
vn -0.769263 -0.045403 0.637317
vn -0.775048 0.005972 0.631874
vn -0.775048 0.005972 0.631874
vn -0.775048 0.005972 0.631874
vn -0.768233 -0.059910 0.637361
vn -0.769263 -0.045403 0.637317
vn -0.767373 -0.070563 0.637307
vn 0.731063 -0.642317 0.230162
vn 0.843981 -0.506182 -0.177414
vn 0.842868 -0.512528 -0.163976
vn -0.343676 0.426762 -0.836517
vn -0.409560 0.561617 -0.718921
vn -0.409560 0.561617 -0.718921
vn -0.369289 0.478015 -0.796949
vn 0.843981 -0.506182 -0.177414
vn 0.846699 -0.474706 -0.240322
vn 0.842868 -0.512528 -0.163976
vn 0.742632 -0.636634 -0.207831
vn 0.742632 -0.636634 -0.207831
vn 0.742632 -0.636634 -0.207831
vn 0.086942 -0.044937 -0.995199
vn 0.086942 -0.044937 -0.995199
vn 0.086942 -0.044937 -0.995199
vn -0.369289 0.478015 -0.796949
vn 0.085656 -0.325825 -0.941542
vn -0.343676 0.426762 -0.836517
s off
g polySurface255
usemtl blinn1SG
f 2/1/1 4/2/2 5/3/3
f 2/1/4 5/3/5 1/4/6 3/5/7
f 6/6/8 1/4/9 5/3/10
f 7/7/11 4/8/12 2/9/13
f 8/10/14 4/8/15 7/7/16
f 7/7/17 2/9/18 3/11/19
f 4/12/20 8/13/21 5/14/22
f 7/7/23 3/11/24 1/15/25 6/16/26
f 8/13/27 9/17/28 5/14/29
f 5/14/30 9/17/31 6/16/32
f 8/13/33 7/7/34 9/17/35
f 6/16/36 9/17/37 7/7/38
