# This file uses centimeters as units for non-parametric coordinates.

mtllib BuggyBallWallBreakable_piece11.mtl
g default
v 3.880727 25.004616 -13.850224
v 11.645982 23.210489 -5.592631
v 4.717886 23.210489 -14.352984
v -6.207653 23.147089 -19.684494
v -5.901073 24.906775 -18.595078
v 5.637840 17.843964 -13.500666
v -5.359784 18.345978 -18.697922
v -6.009207 25.004616 -6.356255
v 10.323783 25.004616 -5.247567
v -6.003200 23.034424 -6.348327
v -5.593714 18.142536 -6.253030
vt 0.762923 0.312083
vt 0.827300 0.317363
vt 0.828129 0.329568
vt 0.764512 0.325196
vt 0.823039 0.285382
vt 0.897072 0.323199
vt 0.892481 0.335006
vt 0.894137 0.293260
vt 0.095947 0.901234
vt 0.145894 0.982822
vt 0.083903 0.972736
vt 0.032851 0.934917
vt 0.105786 0.895255
vt 0.159044 0.983691
vt 0.022266 0.928799
vt 0.090485 0.891099
vt 0.013836 0.900981
vt 0.077382 0.865573
vt 0.131396 0.882318
vt 0.194660 0.928166
vt 0.199667 0.857201
vn 0.730816 0.378120 -0.568272
vn 0.564831 0.118003 -0.816726
vn 0.534185 0.482501 -0.694147
vn 0.673085 0.527524 -0.518339
vn 0.730816 0.378120 -0.568272
vn 0.558493 -0.048745 -0.828076
vn 0.564831 0.118003 -0.816726
vn 0.564831 0.118003 -0.816726
vn 0.431862 0.039743 -0.901064
vn 0.393571 0.424161 -0.815592
vn 0.534185 0.482501 -0.694147
vn 0.558493 -0.048745 -0.828076
vn 0.429820 -0.087793 -0.898636
vn 0.431862 0.039743 -0.901064
vn 0.564831 0.118003 -0.816726
vn -0.003262 0.999985 -0.004305
vn 0.000000 1.000000 0.000000
vn -0.002365 0.999992 -0.003121
vn -0.006098 0.999949 -0.008048
vn -0.003262 0.999985 -0.004305
vn -0.002365 0.999992 -0.003121
vn -0.053904 -0.107926 0.992696
vn -0.053904 -0.107926 0.992697
vn -0.047830 -0.038449 0.998115
vn -0.050939 -0.073702 0.995979
vn -0.996849 0.079229 0.003800
vn -0.996849 0.079229 0.003800
vn -0.996849 0.079229 0.003800
vn -0.996849 0.079229 0.003800
vn -0.991649 -0.128938 -0.002715
vn -0.991649 -0.128938 -0.002715
vn -0.991649 -0.128938 -0.002715
vn -0.991649 -0.128938 -0.002715
vn -0.050939 -0.073702 0.995979
vn -0.047830 -0.038449 0.998115
vn -0.042931 0.015866 0.998952
vn 0.145358 -0.953359 0.264534
vn 0.242441 -0.878388 0.411894
vn 0.085771 -0.981121 0.173337
vn 0.145358 -0.953359 0.264534
vn 0.085771 -0.981121 0.173337
vn -0.037556 -0.999149 -0.017039
s off
g polySurface320polySurface318polySurface316polySurface302polySurface300pCube36
usemtl blinn1SG
f 2/1/1 3/2/2 1/3/3 9/4/4
f 2/1/5 6/5/6 3/2/7
f 3/2/8 4/6/9 5/7/10 1/3/11
f 6/5/12 7/8/13 4/6/14 3/2/15
f 8/9/16 9/10/17 1/11/18
f 5/12/19 8/9/20 1/11/21
f 9/10/22 8/9/23 10/13/24 2/14/25
f 8/9/26 5/12/27 4/15/28 10/16/29
f 4/15/30 7/17/31 11/18/32 10/16/33
f 2/14/34 10/13/35 11/19/36
f 6/20/37 2/14/38 11/19/39
f 6/20/40 11/19/41 7/21/42
