# This file uses centimeters as units for non-parametric coordinates.

mtllib BuggyBallWallBreakable_piece18COL.mtl
g default
v -6.840154 25.648762 -18.866302
v -5.802279 36.434807 -16.619375
v 4.269377 25.951149 -13.607729
v -12.263445 36.557659 -14.521181
v -13.495090 25.244480 -16.258619
v -6.211474 25.004616 -6.202989
vt 0.898425 0.340032
vt 0.884723 0.412803
vt 0.824888 0.334887
vt 0.935908 0.405968
vt 0.940921 0.337235
vt 0.313839 0.537930
vt 0.370799 0.585886
vt 0.295821 0.611897
vt 0.272949 0.542364
vt 0.258802 0.677492
vt 0.364035 0.675568
vt 0.322360 0.699491
vn -0.380536 0.126695 -0.916046
vn -0.357136 0.282714 -0.890240
vn -0.263205 0.283475 -0.922153
vn -0.295310 0.139533 -0.945157
vn 0.005960 -0.999950 0.008032
vn 0.005968 -0.999950 0.008045
vn 0.005968 -0.999950 0.008045
vn 0.005965 -0.999950 0.008039
vn 0.346429 0.168373 -0.922842
vn 0.469354 0.050348 -0.881573
vn 0.368133 0.080429 -0.926288
vn 0.410354 0.670001 0.618635
vn 0.531183 0.611312 0.586636
vn 0.428953 0.662023 0.614593
vn 0.185876 0.648735 0.737965
vn 0.185876 0.648735 0.737965
vn 0.185876 0.648735 0.737965
vn -0.808461 0.013182 0.588402
vn -0.816303 0.014141 0.577451
vn -0.799568 0.012114 0.600453
vn 0.185876 0.648735 0.737965
vn 0.185876 0.648735 0.737965
vn 0.185876 0.648735 0.737965
vn -0.808461 0.013182 0.588402
vn -0.816303 0.014141 0.577451
vn -0.799568 0.012114 0.600453
vn -0.816303 0.014141 0.577451
vn -0.808461 0.013182 0.588402
vn -0.816303 0.014141 0.577451
vn -0.799568 0.012114 0.600453
vn -0.858209 0.019561 0.512928
vn -0.858209 0.019561 0.512928
vn -0.816303 0.014141 0.577451
vn -0.808461 0.013182 0.588402
vn -0.816303 0.014141 0.577451
vn -0.799568 0.012114 0.600453
vn -0.816303 0.014141 0.577451
vn -0.808461 0.013182 0.588402
vn -0.816303 0.014141 0.577451
vn -0.799568 0.012114 0.600453
vn -0.816303 0.014141 0.577451
vn -0.808461 0.013182 0.588402
vn -0.816303 0.014141 0.577451
vn -0.799568 0.012114 0.600453
vn 0.410354 0.670001 0.618635
vn 0.531183 0.611312 0.586636
vn 0.428953 0.662023 0.614593
vn 0.185876 0.648735 0.737965
vn 0.185876 0.648735 0.737965
vn 0.185876 0.648735 0.737965
vn -0.858209 0.019561 0.512928
vn -0.858209 0.019561 0.512928
vn -0.816303 0.014141 0.577451
vn -0.808461 0.013182 0.588402
vn -0.816303 0.014141 0.577451
vn -0.799568 0.012114 0.600453
vn 0.428953 0.662023 0.614593
vn 0.185876 0.648735 0.737965
vn 0.185876 0.648735 0.737965
vn 0.185876 0.648735 0.737965
vn -0.858209 0.019561 0.512928
vn -0.858209 0.019561 0.512928
vn -0.816303 0.014141 0.577451
vn -0.808461 0.013182 0.588402
vn -0.816303 0.014141 0.577451
vn -0.799568 0.012114 0.600453
vn -0.816303 0.014141 0.577451
vn -0.799568 0.012114 0.600453
s off
g polySurface335polySurface332polySurface330polySurface301pCube36
usemtl BuggyBallWallBreakable_piece18_blinn1SG
f 5/5/1 4/4/2 2/2/3 1/1/4
f 1/6/5 3/7/6 6/8/7 5/9/8
f 2/2/9 3/3/10 1/1/11
f 3/7/12 2/11/13 6/8/14
f 6/8/15 2/11/16 4/12/17
f 4/12/18 5/10/19 6/8/20
