# This file uses centimeters as units for non-parametric coordinates.

mtllib CheesePuffShortLUpperArm.mtl
g default
v 0.806728 -0.184730 -0.054076
v 0.670650 -0.205790 0.224131
v 0.806728 0.172899 -0.054076
v 0.628111 0.172899 0.255755
v 0.527827 -0.120520 0.301141
v 0.737638 -0.120520 0.244780
v 0.852115 -0.120520 0.046207
v 0.737638 0.108688 0.244780
v 0.852115 0.108688 0.046207
v 0.795754 0.108688 -0.163603
v 0.527827 0.108689 0.301141
v 0.604552 0.262307 0.168056
v 0.719030 0.262307 -0.030517
v 0.829732 -0.005916 0.165589
v 0.669184 -0.293644 0.073031
v 0.549358 -0.216226 0.246708
v 0.691729 -0.216226 0.208462
v 0.759437 -0.216226 -0.117694
v 0.797682 -0.216226 0.024677
v 0.849745 -0.111985 -0.065631
v 0.811777 -0.129054 0.155237
v 0.873278 -0.005916 0.048556
v 0.639666 -0.111985 0.298772
v 0.750275 -0.005916 0.261916
v 0.811776 0.117223 0.155237
v 0.639666 0.100154 0.298772
v 0.691729 0.204395 0.208462
v 0.849745 0.100154 -0.065631
v 0.797682 0.204395 0.024677
v 0.759436 0.204395 -0.117694
v 0.669184 0.281814 0.073031
v 0.549358 0.204395 0.246708
v 0.525478 -0.005916 0.322303
v 0.812891 -0.005916 -0.176241
v 0.758172 -0.231770 0.124333
v 0.604552 -0.274137 0.168056
v 0.870976 -0.005916 -0.071334
v 0.645369 -0.005916 0.320002
v 0.719030 -0.274137 -0.030517
v 0.758172 0.219940 0.124333
v 0.795754 -0.120520 -0.163603
v 0.571925 -0.312506 0.016962
v 0.510947 -0.291993 0.122536
v 0.459707 -0.230284 0.211251
v 0.684144 -0.230284 -0.177326
v 0.632904 -0.291993 -0.088612
v 0.571925 0.300674 0.016962
v 0.632904 0.280162 -0.088612
v 0.684144 0.218453 -0.177326
v 0.459707 0.218453 0.211251
v 0.510947 0.280162 0.122536
v 0.418583 -0.005916 0.282449
v 0.428842 0.116004 0.264687
v 0.428842 -0.127835 0.264687
v 0.725268 -0.005916 -0.248525
v 0.715008 -0.127834 -0.230763
v 0.715009 0.116004 -0.230763
v -0.703485 -0.312505 0.054927
v -0.770635 -0.291993 -0.046834
v -0.827062 -0.230284 -0.132344
v -0.636335 -0.291993 0.156687
v -0.579909 -0.230284 0.242196
v -0.703485 0.300675 0.054927
v -0.770635 0.280162 -0.046834
v -0.827062 0.218453 -0.132344
v -0.636335 0.280162 0.156687
v -0.579909 0.218453 0.242196
v -0.534623 -0.005916 0.310823
v -0.545921 -0.127834 0.293703
v -0.545921 0.116004 0.293703
v -0.872348 -0.005915 -0.200970
v -0.861050 0.116004 -0.183849
v -0.861050 -0.127835 -0.183849
v -0.593718 -0.230284 -0.257276
v -0.553886 -0.291993 -0.162887
v -0.506484 -0.312505 -0.050560
v -0.459083 -0.291993 0.061767
v -0.419251 -0.230284 0.156156
v -0.395259 -0.127835 0.213010
v -0.387283 -0.005915 0.231909
v -0.395258 0.116004 0.213010
v -0.419251 0.218453 0.156156
v -0.459083 0.280162 0.061767
v -0.506484 0.300675 -0.050560
v -0.553886 0.280162 -0.162887
v -0.593718 0.218452 -0.257276
v -0.617710 0.116004 -0.314131
v -0.625685 -0.005916 -0.333029
v -0.617710 -0.127834 -0.314131
v -0.340993 -0.230284 -0.337376
v -0.319182 -0.291994 -0.237276
v -0.293226 -0.312506 -0.118152
v -0.267269 -0.291993 0.000972
v -0.245458 -0.230284 0.101072
v -0.232320 -0.127834 0.161367
v -0.227953 -0.005916 0.181410
v -0.232320 0.116004 0.161367
v -0.245458 0.218453 0.101072
v -0.267269 0.280162 0.000972
v -0.293226 0.300675 -0.118152
v -0.319182 0.280162 -0.237276
v -0.340993 0.218453 -0.337376
v -0.354131 0.116004 -0.397671
v -0.358498 -0.005916 -0.417714
v -0.354131 -0.127834 -0.397671
v -0.077854 -0.230284 -0.369679
v -0.074806 -0.291993 -0.267275
v -0.071178 -0.312506 -0.145410
v -0.067551 -0.291994 -0.023545
v -0.064502 -0.230284 0.078858
v -0.062666 -0.127834 0.140541
v -0.062056 -0.005915 0.161044
v -0.062666 0.116004 0.140541
v -0.064502 0.218452 0.078858
v -0.067551 0.280162 -0.023545
v -0.071178 0.300675 -0.145410
v -0.074806 0.280162 -0.267275
v -0.077854 0.218453 -0.369679
v -0.079690 0.116004 -0.431362
v -0.080301 -0.005916 -0.451864
v -0.079690 -0.127834 -0.431362
v 0.186741 -0.230284 -0.353086
v 0.170922 -0.291993 -0.251865
v 0.152097 -0.312506 -0.131408
v 0.133272 -0.291993 -0.010951
v 0.117454 -0.230284 0.090270
v 0.107925 -0.127835 0.151239
v 0.104758 -0.005916 0.171506
v 0.107926 0.116004 0.151239
v 0.117454 0.218453 0.090270
v 0.133272 0.280162 -0.010951
v 0.152097 0.300675 -0.131408
v 0.170922 0.280162 -0.251865
v 0.186741 0.218452 -0.353086
v 0.196269 0.116004 -0.414055
v 0.199436 -0.005916 -0.434321
v 0.196269 -0.127835 -0.414055
v 0.443782 -0.230284 -0.288159
v 0.409635 -0.291993 -0.191568
v 0.368999 -0.312506 -0.076620
v 0.328362 -0.291993 0.038328
v 0.294216 -0.230284 0.134919
v 0.273647 -0.127834 0.193100
v 0.266810 -0.005916 0.212439
v 0.273647 0.116004 0.193100
v 0.294215 0.218452 0.134919
v 0.328362 0.280162 0.038328
v 0.368999 0.300675 -0.076620
v 0.409635 0.280162 -0.191568
v 0.443782 0.218453 -0.288159
v 0.464350 0.116004 -0.346340
v 0.471187 -0.005916 -0.365679
v 0.464350 -0.127834 -0.346340
v -0.942097 -0.184730 -0.002019
v -0.745367 -0.184730 0.296637
v -0.942098 0.172899 -0.002019
v -0.745367 0.172899 0.296637
v -0.642562 -0.120520 0.335980
v -0.855354 -0.120519 0.292197
v -0.981440 -0.120520 0.100786
v -0.855354 0.108689 0.292197
v -0.981440 0.108688 0.100786
v -0.937658 0.108688 -0.112005
v -0.642562 0.108688 0.335980
v -0.727067 0.262307 0.207694
v -0.853153 0.262307 0.016281
v -0.951996 -0.005915 0.218624
v -0.797237 -0.293644 0.116682
v -0.667292 -0.216226 0.282923
v -0.811686 -0.216226 0.253214
v -0.898674 -0.216226 -0.068338
v -0.928383 -0.216226 0.076056
v -0.985725 -0.111985 -0.010996
v -0.934687 -0.129054 0.207223
v -1.002425 -0.005915 0.104390
v -0.754344 -0.111985 0.340265
v -0.866949 -0.005915 0.310056
v -0.934687 0.117223 0.207223
v -0.754344 0.100154 0.340265
v -0.811686 0.204395 0.253214
v -0.985725 0.100154 -0.010996
v -0.928383 0.204395 0.076056
v -0.898674 0.204395 -0.068338
v -0.797237 0.281814 0.116682
v -0.667292 0.204395 0.282923
v -0.638958 -0.005916 0.356965
v -0.955516 -0.005916 -0.123601
v -0.883016 -0.231771 0.173186
v -0.727067 -0.274137 0.207694
v -1.007258 -0.005916 -0.015425
v -0.758774 -0.005915 0.361798
v -0.853153 -0.274137 0.016281
v -0.883016 0.219940 0.173186
v -0.937658 -0.120520 -0.112005
vt 0.077400 0.496690
vt 0.084805 0.507016
vt 0.074374 0.511163
vt 0.065869 0.505968
vt 0.067887 0.487269
vt 0.056054 0.498634
vt 0.058550 0.477441
vt 0.047509 0.489009
vt 0.048096 0.468729
vt 0.041973 0.479871
vt 0.034933 0.499279
vt 0.030450 0.481915
vt 0.045427 0.512499
vt 0.036795 0.532246
vt 0.021583 0.509587
vt 0.014886 0.484773
vt 0.058333 0.518255
vt 0.072838 0.520386
vt 0.072181 0.531848
vt 0.055589 0.531820
vt 0.059350 0.546035
vt 0.046050 0.552094
vt 0.073609 0.543527
vt 0.075486 0.552875
vt 0.067068 0.558223
vt 0.057009 0.565669
vt 0.017515 0.579834
vt 0.022736 0.555694
vt 0.036048 0.565156
vt 0.031430 0.582434
vt 0.048391 0.575292
vt 0.042731 0.584490
vt 0.059562 0.586723
vt 0.049102 0.595593
vt 0.069029 0.576738
vt 0.078571 0.567196
vt 0.085778 0.556721
vt 0.088172 0.544523
vt 0.088070 0.531739
vt 0.087639 0.519042
vt 0.034553 0.463527
vt 0.019200 0.459853
vt 0.035738 0.600804
vt 0.020175 0.604071
vt 0.079835 0.477902
vt 0.089343 0.489842
vt 0.096552 0.502637
vt 0.056962 0.457641
vt 0.068787 0.467105
vt 0.081135 0.585850
vt 0.070102 0.596842
vt 0.058197 0.606566
vt 0.097501 0.560720
vt 0.090538 0.573693
vt 0.102782 0.531642
vt 0.101548 0.546682
vt 0.101021 0.516599
vt 0.030357 0.439296
vt 0.043887 0.448417
vt 0.045037 0.615665
vt 0.030189 0.625372
vt 0.106462 0.463679
vt 0.098017 0.448335
vt 0.113593 0.479908
vt 0.089131 0.433993
vt 0.079968 0.420025
vt 0.119005 0.496354
vt 0.122446 0.513523
vt 0.107231 0.600131
vt 0.098731 0.615523
vt 0.114349 0.583790
vt 0.089792 0.629795
vt 0.080519 0.643589
vt 0.119642 0.567187
vt 0.122816 0.549891
vt 0.124051 0.531669
vt 0.070924 0.658243
vt 0.070015 0.404865
vt 0.265462 0.467220
vt 0.236451 0.448508
vt 0.245316 0.434175
vt 0.277283 0.457419
vt 0.254679 0.478271
vt 0.228055 0.463812
vt 0.220878 0.479968
vt 0.245108 0.490028
vt 0.215482 0.496401
vt 0.237853 0.502720
vt 0.212089 0.513558
vt 0.233254 0.516613
vt 0.232091 0.531643
vt 0.210728 0.531685
vt 0.212033 0.549847
vt 0.233021 0.546701
vt 0.237476 0.560654
vt 0.215418 0.567081
vt 0.244760 0.573464
vt 0.220889 0.583610
vt 0.254484 0.585257
vt 0.228206 0.599840
vt 0.236786 0.615167
vt 0.265475 0.596294
vt 0.245858 0.629467
vt 0.277468 0.605996
vt 0.255344 0.643409
vt 0.290854 0.615028
vt 0.305137 0.623838
vt 0.265430 0.657950
vt 0.254529 0.420528
vt 0.264398 0.405904
vt 0.303802 0.439107
vt 0.290364 0.448344
vt 0.202762 0.438092
vt 0.207368 0.421319
vt 0.198306 0.455859
vt 0.194574 0.474304
vt 0.191793 0.492763
vt 0.190072 0.511768
vt 0.189243 0.531719
vt 0.190138 0.551700
vt 0.191938 0.570774
vt 0.194820 0.589325
vt 0.198665 0.607865
vt 0.203243 0.625714
vt 0.207949 0.642556
vt 0.212736 0.659121
vt 0.217705 0.676218
vt 0.212191 0.404769
vt 0.217259 0.387732
vt 0.167243 0.434668
vt 0.167348 0.417038
vt 0.167123 0.453299
vt 0.167191 0.472460
vt 0.167307 0.491559
vt 0.167470 0.511156
vt 0.167344 0.531725
vt 0.167627 0.552318
vt 0.167600 0.571979
vt 0.167599 0.591155
vt 0.167620 0.610387
vt 0.167795 0.629070
vt 0.167893 0.646731
vt 0.167925 0.664104
vt 0.167988 0.681913
vt 0.167527 0.399683
vt 0.167818 0.381884
vt 0.131702 0.437894
vt 0.127213 0.420967
vt 0.135979 0.455831
vt 0.139822 0.474262
vt 0.142794 0.492710
vt 0.144802 0.511699
vt 0.145430 0.531707
vt 0.145048 0.551746
vt 0.143229 0.570815
vt 0.140382 0.589345
vt 0.136610 0.607832
vt 0.132353 0.625780
vt 0.127840 0.642668
vt 0.123134 0.659265
vt 0.118380 0.676317
vt 0.122661 0.404359
vt 0.118136 0.387218
vt 0.257080 0.496755
vt 0.268675 0.505854
vt 0.260161 0.511081
vt 0.249659 0.507037
vt 0.266593 0.487335
vt 0.278480 0.498457
vt 0.275830 0.477369
vt 0.286963 0.488747
vt 0.286216 0.468493
vt 0.292435 0.479555
vt 0.303985 0.481465
vt 0.299639 0.498808
vt 0.289223 0.512097
vt 0.313132 0.508867
vt 0.298060 0.531582
vt 0.319593 0.484077
vt 0.276319 0.517972
vt 0.261776 0.520228
vt 0.279203 0.531414
vt 0.262555 0.531620
vt 0.288997 0.551440
vt 0.275582 0.545577
vt 0.261228 0.543244
vt 0.268005 0.557776
vt 0.259473 0.552558
vt 0.278194 0.565067
vt 0.317786 0.578715
vt 0.303911 0.581463
vt 0.299133 0.564309
vt 0.312340 0.554702
vt 0.286909 0.574566
vt 0.292650 0.583679
vt 0.286406 0.594867
vt 0.275888 0.586096
vt 0.266356 0.576189
vt 0.256623 0.566823
vt 0.249185 0.556507
vt 0.246573 0.544395
vt 0.246651 0.531655
vt 0.246867 0.518988
vt 0.299746 0.463235
vt 0.315064 0.459348
vt 0.299794 0.599853
vt 0.315267 0.602835
vn 0.125311 -0.888444 0.441548
vn 0.439495 -0.676112 0.591368
vn 0.236080 -0.590117 0.772029
vn -0.035704 -0.653083 0.756444
vn 0.306948 -0.935114 0.177043
vn 0.612596 -0.707108 0.353163
vn 0.457426 -0.881637 -0.116096
vn 0.738210 -0.671525 0.064036
vn 0.613024 -0.669590 -0.419346
vn 0.788540 -0.577351 -0.211826
vn 0.917165 -0.313221 -0.246376
vn 0.931129 -0.329322 0.156670
vn 0.813101 -0.345160 0.468755
vn 0.985491 0.000001 0.169728
vn 0.866343 0.000001 0.499449
vn 0.965761 0.000001 -0.259432
vn 0.612107 -0.320555 0.722890
vn 0.231257 -0.338201 0.912217
vn 0.640712 0.000001 0.767781
vn 0.259431 0.000000 0.965762
vn 0.813101 0.345160 0.468755
vn 0.602171 0.329322 0.727281
vn 0.246377 0.313217 0.917166
vn 0.425337 0.671526 0.606746
vn 0.211827 0.577350 0.788541
vn 0.612597 0.707107 0.353165
vn 0.917165 0.313220 -0.246378
vn 0.931129 0.329321 0.156671
vn 0.738211 0.671524 0.064040
vn 0.788541 0.577349 -0.211827
vn 0.613025 0.669589 -0.419347
vn 0.457425 0.881637 -0.116093
vn 0.306947 0.935115 0.177044
vn 0.128396 0.881686 0.454031
vn -0.056390 0.669622 0.740558
vn -0.147787 0.329130 0.932648
vn -0.160449 0.000000 0.987044
vn -0.116932 -0.354076 0.927878
vn 0.733551 -0.329129 -0.594623
vn 0.774276 0.000000 -0.632848
vn 0.733551 0.329127 -0.594624
vn 0.053148 -0.998451 0.016476
vn -0.095522 -0.940321 0.326607
vn -0.253153 -0.712180 0.654762
vn 0.361303 -0.698147 -0.618103
vn 0.203905 -0.933961 -0.293495
vn 0.203905 0.933960 -0.293497
vn 0.053148 0.998451 0.016474
vn 0.361303 0.698147 -0.618103
vn -0.095522 0.940321 0.326606
vn -0.253154 0.712181 0.654761
vn -0.390023 0.000000 0.920805
vn -0.360178 0.346290 0.866230
vn -0.360179 -0.346292 0.866229
vn 0.483489 -0.000000 -0.875350
vn 0.458119 -0.339687 -0.821426
vn 0.458119 0.339687 -0.821425
vn 0.006042 -0.999835 -0.017105
vn 0.120348 -0.932484 -0.340572
vn -0.108427 -0.945589 0.306767
vn 0.239602 -0.694836 -0.678081
vn 0.313547 -0.338018 -0.887373
vn -0.230884 -0.721153 0.653170
vn -0.312024 -0.351519 0.882653
vn 0.120347 0.932483 -0.340575
vn 0.006043 0.999835 -0.017106
vn -0.108427 0.945589 0.306767
vn 0.239601 0.694837 -0.678081
vn 0.313548 0.338019 -0.887373
vn -0.230885 0.721153 0.653170
vn -0.312024 0.351519 0.882653
vn -0.333301 0.000000 0.942820
vn 0.333155 0.000000 -0.942872
vn -0.221000 -0.933962 -0.280847
vn -0.397429 -0.698145 -0.595520
vn -0.279510 -0.694835 -0.662630
vn -0.140392 -0.932485 -0.332810
vn -0.052073 -0.998451 0.019606
vn -0.007050 -0.999835 -0.016717
vn 0.126481 -0.945589 0.299774
vn 0.114780 -0.940321 0.320346
vn 0.269326 -0.721152 0.638281
vn 0.291650 -0.712182 0.638543
vn 0.363971 -0.351521 0.862530
vn 0.411064 -0.346294 0.843272
vn 0.444104 -0.000000 0.895975
vn 0.388791 0.000000 0.921326
vn 0.363971 0.351521 0.862530
vn 0.411064 0.346294 0.843272
vn 0.291650 0.712181 0.638544
vn 0.269326 0.721152 0.638281
vn 0.114780 0.940320 0.320349
vn 0.126482 0.945588 0.299776
vn -0.052074 0.998451 0.019605
vn -0.007049 0.999835 -0.016719
vn -0.140392 0.932483 -0.332814
vn -0.221001 0.933960 -0.280850
vn -0.279510 0.694837 -0.662627
vn -0.397430 0.698146 -0.595518
vn -0.365773 0.338020 -0.867152
vn -0.506168 0.339688 -0.792720
vn -0.534701 0.000000 -0.845041
vn -0.388647 -0.000000 -0.921387
vn -0.365773 -0.338020 -0.867152
vn -0.506168 -0.339688 -0.792721
vn -0.153113 -0.694819 -0.702697
vn -0.076906 -0.932475 -0.352953
vn -0.003867 -0.999835 -0.017746
vn 0.069265 -0.945594 0.317891
vn 0.147489 -0.721161 0.676885
vn 0.199311 -0.351525 0.914716
vn 0.212898 -0.000000 0.977074
vn 0.199311 0.351525 0.914716
vn 0.147489 0.721163 0.676884
vn 0.069267 0.945594 0.317891
vn -0.003867 0.999835 -0.017747
vn -0.076906 0.932475 -0.352954
vn -0.153113 0.694821 -0.702695
vn -0.200367 0.338010 -0.919566
vn -0.212898 -0.000000 -0.977074
vn -0.200367 -0.338011 -0.919566
vn -0.021398 -0.694819 -0.718866
vn -0.010748 -0.932475 -0.361075
vn -0.000540 -0.999835 -0.018154
vn 0.009680 -0.945594 0.325205
vn 0.020612 -0.721162 0.692460
vn 0.027855 -0.351524 0.935765
vn 0.029754 0.000000 0.999557
vn 0.027855 0.351524 0.935764
vn 0.020612 0.721163 0.692459
vn 0.009680 0.945594 0.325206
vn -0.000540 0.999835 -0.018153
vn -0.010748 0.932475 -0.361076
vn -0.021398 0.694821 -0.718864
vn -0.028002 0.338010 -0.940726
vn -0.029753 -0.000000 -0.999557
vn -0.028002 -0.338010 -0.940726
vn 0.111045 -0.694819 -0.710560
vn 0.055776 -0.932476 -0.356900
vn 0.002805 -0.999835 -0.017944
vn -0.050235 -0.945594 0.321447
vn -0.106966 -0.721162 0.684459
vn -0.144551 -0.351524 0.924952
vn -0.154405 -0.000000 0.988008
vn -0.144551 0.351523 0.924952
vn -0.106967 0.721163 0.684458
vn -0.050235 0.945594 0.321448
vn 0.002804 0.999835 -0.017943
vn 0.055776 0.932475 -0.356903
vn 0.111045 0.694820 -0.710559
vn 0.145317 0.338009 -0.929856
vn 0.154405 -0.000000 -0.988008
vn 0.145317 -0.338010 -0.929856
vn -0.101160 -0.881685 0.460867
vn 0.100337 -0.669622 0.735893
vn -0.164547 -0.577348 0.799746
vn -0.388490 -0.671524 0.630975
vn -0.295873 -0.935115 0.194986
vn -0.590506 -0.707108 0.388975
vn -0.463521 -0.881637 -0.088683
vn -0.733094 -0.671524 0.107833
vn -0.636883 -0.669588 -0.382140
vn -0.799745 -0.577349 -0.164547
vn -0.920162 -0.329321 0.211776
vn -0.930196 -0.313219 -0.191388
vn -0.783780 -0.345159 0.516289
vn -0.835101 0.000000 0.550096
vn -0.973650 0.000000 0.228046
vn -0.979483 -0.000000 -0.201528
vn -0.557845 -0.329321 0.761812
vn -0.191390 -0.313220 0.930195
vn -0.201531 0.000000 0.979482
vn -0.593907 0.000000 0.804534
vn -0.557844 0.329322 0.761812
vn -0.783780 0.345160 0.516289
vn -0.191388 0.313219 0.930196
vn -0.164546 0.577349 0.799746
vn -0.388492 0.671526 0.630973
vn -0.590506 0.707108 0.388975
vn -0.920162 0.329322 0.211776
vn -0.930196 0.313219 -0.191390
vn -0.733093 0.671525 0.107835
vn -0.799744 0.577350 -0.164547
vn -0.463522 0.881637 -0.088682
vn -0.636883 0.669588 -0.382141
vn -0.295875 0.935114 0.194986
vn -0.101161 0.881685 0.460866
vn 0.100338 0.669622 0.735893
vn 0.202994 0.329134 0.922206
vn 0.218871 -0.000000 0.975754
vn 0.202994 -0.329136 0.922205
vn -0.767622 -0.329128 -0.549937
vn -0.810548 -0.000000 -0.585673
vn -0.767621 0.329127 -0.549939
s 1
g FoodShortLUpperArm
usemtl GoogleyEye_blinn1SG
f 36/1/1 17/4/2 2/3/3 16/2/4
f 15/5/5 35/6/6 17/4/2 36/1/1
f 39/7/7 19/8/8 35/6/6 15/5/5
f 18/9/9 1/10/10 19/8/8 39/7/7
f 1/10/10 20/12/11 7/11/12 19/8/8
f 19/8/8 7/11/12 21/13/13 35/6/6
f 7/11/12 22/15/14 14/14/15 21/13/13
f 20/12/11 37/16/16 22/15/14 7/11/12
f 35/6/6 21/13/13 6/17/17 17/4/2
f 17/4/2 6/17/17 23/18/18 2/3/3
f 6/17/17 24/20/19 38/19/20 23/18/18
f 21/13/13 14/14/15 24/20/19 6/17/17
f 14/14/15 25/22/21 8/21/22 24/20/19
f 24/20/19 8/21/22 26/23/23 38/19/20
f 8/21/22 27/25/24 4/24/25 26/23/23
f 25/22/21 40/26/26 27/25/24 8/21/22
f 37/27/16 28/30/27 9/29/28 22/28/14
f 22/28/14 9/29/28 25/22/21 14/14/15
f 9/29/28 29/31/29 40/26/26 25/22/21
f 28/30/27 3/32/30 29/31/29 9/29/28
f 3/32/30 30/34/31 13/33/32 29/31/29
f 29/31/29 13/33/32 31/35/33 40/26/26
f 40/26/26 31/35/33 12/36/34 27/25/24
f 27/25/24 12/36/34 32/37/35 4/24/25
f 11/38/36 26/23/23 4/24/25 32/37/35
f 33/39/37 38/19/20 26/23/23 11/38/36
f 5/40/38 23/18/18 38/19/20 33/39/37
f 16/2/4 2/3/3 23/18/18 5/40/38
f 41/41/39 20/12/11 1/10/10 18/9/9
f 34/42/40 37/16/16 20/12/11 41/41/39
f 10/43/41 28/30/27 37/27/16 34/44/40
f 30/34/31 3/32/30 28/30/27 10/43/41
f 42/45/42 15/5/5 36/1/1 43/46/43
f 43/46/43 36/1/1 16/2/4 44/47/44
f 45/48/45 18/9/9 39/7/7 46/49/46
f 46/49/46 39/7/7 15/5/5 42/45/42
f 13/33/32 48/51/47 47/50/48 31/35/33
f 30/34/31 49/52/49 48/51/47 13/33/32
f 12/36/34 51/54/50 50/53/51 32/37/35
f 31/35/33 47/50/48 51/54/50 12/36/34
f 52/55/52 33/39/37 11/38/36 53/56/53
f 53/56/53 11/38/36 32/37/35 50/53/51
f 44/47/44 16/2/4 5/40/38 54/57/54
f 54/57/54 5/40/38 33/39/37 52/55/52
f 55/58/55 34/42/40 41/41/39 56/59/56
f 56/59/56 41/41/39 18/9/9 45/48/45
f 49/52/49 30/34/31 10/43/41 57/60/57
f 57/60/57 10/43/41 34/44/40 55/61/55
f 140/62/58 139/63/59 46/49/46 42/45/42
f 42/45/42 43/46/43 141/64/60 140/62/58
f 139/63/59 138/65/61 45/48/45 46/49/46
f 153/66/62 56/59/56 45/48/45 138/65/61
f 43/46/43 44/47/44 142/67/63 141/64/60
f 44/47/44 54/57/54 143/68/64 142/67/63
f 47/50/48 48/51/47 149/70/65 148/69/66
f 148/69/66 147/71/67 51/54/50 47/50/48
f 48/51/47 49/52/49 150/72/68 149/70/65
f 49/52/49 57/60/57 151/73/69 150/72/68
f 147/71/67 146/74/70 50/53/51 51/54/50
f 146/74/70 145/75/71 53/56/53 50/53/51
f 144/76/72 143/68/64 54/57/54 52/55/52
f 52/55/52 53/56/53 145/75/71 144/76/72
f 152/77/73 151/73/69 57/60/57 55/61/55
f 55/58/55 56/59/56 153/66/62 152/78/73
f 59/79/74 60/82/75 74/81/76 75/80/77
f 58/83/78 59/79/74 75/80/77 76/84/79
f 77/85/80 61/86/81 58/83/78 76/84/79
f 78/87/82 62/88/83 61/86/81 77/85/80
f 79/89/84 69/90/85 62/88/83 78/87/82
f 68/91/86 69/90/85 79/89/84 80/92/87
f 81/93/88 70/94/89 68/91/86 80/92/87
f 67/95/90 70/94/89 81/93/88 82/96/91
f 66/97/92 67/95/90 82/96/91 83/98/93
f 63/99/94 66/97/92 83/98/93 84/100/95
f 85/101/96 64/102/97 63/99/94 84/100/95
f 86/103/98 65/104/99 64/102/97 85/101/96
f 87/105/100 72/106/101 65/104/99 86/103/98
f 71/107/102 72/106/101 87/105/100 88/108/103
f 89/109/104 73/112/105 71/111/102 88/110/103
f 60/82/75 73/112/105 89/109/104 74/81/76
f 75/80/77 74/81/76 90/114/106 91/113/107
f 76/84/79 75/80/77 91/113/107 92/115/108
f 93/116/109 77/85/80 76/84/79 92/115/108
f 94/117/110 78/87/82 77/85/80 93/116/109
f 95/118/111 79/89/84 78/87/82 94/117/110
f 80/92/87 79/89/84 95/118/111 96/119/112
f 97/120/113 81/93/88 80/92/87 96/119/112
f 82/96/91 81/93/88 97/120/113 98/121/114
f 83/98/93 82/96/91 98/121/114 99/122/115
f 84/100/95 83/98/93 99/122/115 100/123/116
f 101/124/117 85/101/96 84/100/95 100/123/116
f 102/125/118 86/103/98 85/101/96 101/124/117
f 103/126/119 87/105/100 86/103/98 102/125/118
f 88/108/103 87/105/100 103/126/119 104/127/120
f 105/128/121 89/109/104 88/110/103 104/129/120
f 89/109/104 105/128/121 90/114/106 74/81/76
f 91/113/107 90/114/106 106/131/122 107/130/123
f 92/115/108 91/113/107 107/130/123 108/132/124
f 109/133/125 93/116/109 92/115/108 108/132/124
f 110/134/126 94/117/110 93/116/109 109/133/125
f 111/135/127 95/118/111 94/117/110 110/134/126
f 96/119/112 95/118/111 111/135/127 112/136/128
f 113/137/129 97/120/113 96/119/112 112/136/128
f 98/121/114 97/120/113 113/137/129 114/138/130
f 99/122/115 98/121/114 114/138/130 115/139/131
f 100/123/116 99/122/115 115/139/131 116/140/132
f 117/141/133 101/124/117 100/123/116 116/140/132
f 118/142/134 102/125/118 101/124/117 117/141/133
f 119/143/135 103/126/119 102/125/118 118/142/134
f 104/127/120 103/126/119 119/143/135 120/144/136
f 121/145/137 105/128/121 104/129/120 120/146/136
f 105/128/121 121/145/137 106/131/122 90/114/106
f 107/130/123 106/131/122 122/148/138 123/147/139
f 108/132/124 107/130/123 123/147/139 124/149/140
f 125/150/141 109/133/125 108/132/124 124/149/140
f 126/151/142 110/134/126 109/133/125 125/150/141
f 127/152/143 111/135/127 110/134/126 126/151/142
f 112/136/128 111/135/127 127/152/143 128/153/144
f 129/154/145 113/137/129 112/136/128 128/153/144
f 114/138/130 113/137/129 129/154/145 130/155/146
f 115/139/131 114/138/130 130/155/146 131/156/147
f 116/140/132 115/139/131 131/156/147 132/157/148
f 133/158/149 117/141/133 116/140/132 132/157/148
f 134/159/150 118/142/134 117/141/133 133/158/149
f 135/160/151 119/143/135 118/142/134 134/159/150
f 120/144/136 119/143/135 135/160/151 136/161/152
f 137/162/153 121/145/137 120/146/136 136/163/152
f 121/145/137 137/162/153 122/148/138 106/131/122
f 123/147/139 122/148/138 138/65/61 139/63/59
f 124/149/140 123/147/139 139/63/59 140/62/58
f 141/64/60 125/150/141 124/149/140 140/62/58
f 142/67/63 126/151/142 125/150/141 141/64/60
f 143/68/64 127/152/143 126/151/142 142/67/63
f 128/153/144 127/152/143 143/68/64 144/76/72
f 145/75/71 129/154/145 128/153/144 144/76/72
f 130/155/146 129/154/145 145/75/71 146/74/70
f 131/156/147 130/155/146 146/74/70 147/71/67
f 132/157/148 131/156/147 147/71/67 148/69/66
f 149/70/65 133/158/149 132/157/148 148/69/66
f 150/72/68 134/159/150 133/158/149 149/70/65
f 151/73/69 135/160/151 134/159/150 150/72/68
f 136/161/152 135/160/151 151/73/69 152/77/73
f 153/66/62 137/162/153 136/163/152 152/78/73
f 137/162/153 153/66/62 138/65/61 122/148/138
f 189/164/154 169/167/155 155/166/156 170/165/157
f 168/168/158 189/164/154 170/165/157 188/169/159
f 192/170/160 168/168/158 188/169/159 172/171/161
f 171/172/162 192/170/160 172/171/161 154/173/163
f 154/173/163 172/171/161 160/175/164 173/174/165
f 172/171/161 188/169/159 174/176/166 160/175/164
f 160/175/164 174/176/166 167/178/167 175/177/168
f 173/174/165 160/175/164 175/177/168 190/179/169
f 188/169/159 170/165/157 159/180/170 174/176/166
f 170/165/157 155/166/156 176/181/171 159/180/170
f 159/180/170 176/181/171 191/183/172 177/182/173
f 174/176/166 159/180/170 177/182/173 167/178/167
f 167/178/167 177/182/173 161/185/174 178/184/175
f 177/182/173 191/183/172 179/186/176 161/185/174
f 161/185/174 179/186/176 157/188/177 180/187/178
f 178/184/175 161/185/174 180/187/178 193/189/179
f 190/190/169 175/193/168 162/192/180 181/191/181
f 175/193/168 167/178/167 178/184/175 162/192/180
f 162/192/180 178/184/175 193/189/179 182/194/182
f 181/191/181 162/192/180 182/194/182 156/195/183
f 156/195/183 182/194/182 166/197/184 183/196/185
f 182/194/182 193/189/179 184/198/186 166/197/184
f 193/189/179 180/187/178 165/199/187 184/198/186
f 180/187/178 157/188/177 185/200/188 165/199/187
f 164/201/189 185/200/188 157/188/177 179/186/176
f 186/202/190 164/201/189 179/186/176 191/183/172
f 158/203/191 186/202/190 191/183/172 176/181/171
f 169/167/155 158/203/191 176/181/171 155/166/156
f 194/204/192 171/172/162 154/173/163 173/174/165
f 187/205/193 194/204/192 173/174/165 190/179/169
f 163/206/194 187/207/193 190/190/169 181/191/181
f 183/196/185 163/206/194 181/191/181 156/195/183
f 58/83/78 61/86/81 189/164/154 168/168/158
f 61/86/81 62/88/83 169/167/155 189/164/154
f 60/82/75 59/79/74 192/170/160 171/172/162
f 59/79/74 58/83/78 168/168/158 192/170/160
f 166/197/184 184/198/186 63/99/94 64/102/97
f 183/196/185 166/197/184 64/102/97 65/104/99
f 165/199/187 185/200/188 67/95/90 66/97/92
f 184/198/186 165/199/187 66/97/92 63/99/94
f 68/91/86 70/94/89 164/201/189 186/202/190
f 70/94/89 67/95/90 185/200/188 164/201/189
f 62/88/83 69/90/85 158/203/191 169/167/155
f 69/90/85 68/91/86 186/202/190 158/203/191
f 71/111/102 73/112/105 194/204/192 187/205/193
f 73/112/105 60/82/75 171/172/162 194/204/192
f 65/104/99 72/106/101 163/206/194 183/196/185
f 72/106/101 71/107/102 187/207/193 163/206/194
