# This file uses centimeters as units for non-parametric coordinates.

mtllib CheesePuffLLowerCanine.mtl
g default
v 0.499570 -0.098824 0.067684
v 0.577728 -0.061101 0.076785
v 0.638468 0.018778 0.085782
v 0.647607 0.109198 0.090119
v 0.120112 1.285823 0.083152
v 0.034699 1.357231 0.077492
v -0.067319 1.361854 0.067662
v -0.136406 1.297496 0.058436
v -0.573781 -0.103969 -0.037792
v -0.691962 0.111988 -0.041167
v -0.711143 0.024216 -0.046388
v -0.664019 -0.061573 -0.045030
v -0.000339 -0.152101 0.016622
v 0.485711 0.678486 0.095902
v -0.407078 0.702728 0.009255
v -0.278287 -0.140381 -0.010194
v 0.254905 -0.129922 0.042502
v 0.585312 0.389156 0.094662
v 0.321840 0.977758 0.091217
v -0.268467 1.004271 0.034325
v -0.541345 0.395464 -0.015607
v -0.426343 0.109758 -0.015198
v -0.118110 0.079557 0.013886
v -0.269622 0.401993 0.011294
v 0.164559 0.087991 0.041932
v 0.342847 0.403071 0.071409
v 0.423209 0.114871 0.068325
v 0.050384 0.390917 0.042261
v -0.115490 0.712610 0.038232
v 0.211589 0.704082 0.069989
v 0.030034 1.008011 0.063746
v -0.565878 -0.100903 -0.118361
v -0.656103 -0.058518 -0.125598
v -0.703231 0.027275 -0.126957
v -0.684059 0.115054 -0.121736
v -0.128504 1.300561 -0.022133
v -0.059407 1.364913 -0.012907
v 0.042669 1.360282 -0.003071
v 0.128028 1.288878 0.002584
v 0.507473 -0.095758 -0.012886
v 0.655510 0.112264 0.009550
v 0.646437 0.021829 0.005219
v 0.585631 -0.058036 -0.003784
v 0.511407 -0.113559 0.027553
v -0.586497 -0.117977 -0.080303
v -0.678829 -0.074820 -0.087718
v -0.726972 0.012797 -0.089106
v -0.708117 0.104274 -0.083775
v -0.139983 1.317014 0.018098
v -0.068414 1.382863 0.027623
v 0.036507 1.378088 0.037733
v 0.124007 1.304954 0.043532
v 0.663715 0.099881 0.050614
v 0.655485 0.006559 0.046256
v 0.594012 -0.075416 0.037107
v 0.007563 -0.149035 -0.063947
v 0.000353 -0.167941 -0.024643
v -0.399071 0.705771 -0.071305
v -0.417107 0.707895 -0.032262
v 0.493614 0.681552 0.015333
v 0.499679 0.681857 0.056670
v 0.262807 -0.126856 -0.038068
v 0.260342 -0.145085 0.001728
v -0.270391 -0.137310 -0.090764
v -0.283159 -0.155649 -0.051984
v -0.533442 0.398530 -0.096176
v -0.552019 0.393339 -0.057465
v -0.260564 1.007337 -0.046244
v -0.276128 1.016496 -0.006691
v 0.329742 0.980824 0.010647
v 0.330889 0.988895 0.051797
v 0.593214 0.392221 0.014093
v 0.600380 0.386211 0.055297
v 0.431111 0.117937 -0.012244
v 0.172461 0.091057 -0.038637
v 0.350750 0.406137 -0.009160
v -0.110208 0.082623 -0.066683
v -0.261718 0.405060 -0.069275
v -0.418441 0.112824 -0.095768
v 0.058287 0.393982 -0.038309
v 0.219493 0.707147 -0.010581
v -0.107587 0.715676 -0.042338
v 0.037937 1.011077 -0.016823
vt 0.485833 0.441416
vt 0.474387 0.429573
vt 0.456921 0.429167
vt 0.441533 0.440426
vt 0.331103 0.633352
vt 0.330720 0.648894
vt 0.339390 0.663787
vt 0.352108 0.671958
vt 0.487223 0.695244
vt 0.517620 0.654266
vt 0.463559 0.653783
vt 0.539423 0.694276
vt 0.555809 0.688562
vt 0.565309 0.674796
vt 0.563574 0.659422
vt 0.496339 0.600303
vt 0.438397 0.691815
vt 0.414509 0.646914
vt 0.440237 0.596417
vt 0.474847 0.543361
vt 0.394104 0.683010
vt 0.370157 0.636918
vt 0.389430 0.588792
vt 0.417451 0.539229
vt 0.453724 0.489838
vt 0.346808 0.586447
vt 0.369264 0.538700
vt 0.402266 0.489997
vt 0.506052 0.494397
vt 0.525632 0.550054
vt 0.543783 0.606751
vt 0.014437 0.091204
vt 0.017055 0.042103
vt 0.012082 0.039099
vt 0.009100 0.089916
vt 0.237715 0.057702
vt 0.188112 0.036779
vt 0.184819 0.041872
vt 0.232750 0.061850
vt 0.092235 0.282832
vt 0.131857 0.239896
vt 0.128242 0.235371
vt 0.090208 0.277020
vt 0.242917 0.103027
vt 0.249371 0.104070
vt 0.256467 0.087966
vt 0.249970 0.089150
vt 0.251830 0.069901
vt 0.246001 0.072915
vt 0.075426 0.284098
vt 0.075548 0.290258
vt 0.058963 0.278230
vt 0.056613 0.283933
vt 0.048440 0.262168
vt 0.044300 0.266568
vt 0.022153 0.027560
vt 0.018057 0.023217
vt 0.035584 0.016758
vt 0.032796 0.011243
vt 0.050454 0.013639
vt 0.049573 0.007667
vt 0.488413 0.701180
vt 0.542560 0.700049
vt 0.560495 0.693269
vt 0.571056 0.677791
vt 0.569855 0.660819
vt 0.511058 0.491513
vt 0.489912 0.436645
vt 0.476276 0.423650
vt 0.456441 0.423144
vt 0.439367 0.434884
vt 0.325300 0.634327
vt 0.341365 0.585659
vt 0.325384 0.651747
vt 0.334988 0.668065
vt 0.349193 0.677142
vt 0.093772 0.018727
vt 0.054670 0.052887
vt 0.099528 0.059883
vt 0.140283 0.021410
vt 0.094604 0.012945
vt 0.138251 0.026969
vt 0.392763 0.688705
vt 0.438228 0.697731
vt 0.171581 0.194327
vt 0.210243 0.147199
vt 0.204958 0.144980
vt 0.167017 0.190984
vt 0.549521 0.606621
vt 0.531096 0.548634
vt 0.030098 0.201260
vt 0.017550 0.143745
vt 0.012197 0.144055
vt 0.025208 0.203562
vt 0.398564 0.486047
vt 0.364414 0.536422
vt 0.054858 0.104737
vt 0.147614 0.071650
vt 0.104833 0.116379
vt 0.062491 0.161134
vt 0.198064 0.091175
vt 0.158414 0.133472
vt 0.117353 0.178448
vt 0.077863 0.220420
vn -0.346337 0.102525 0.932491
vn 0.166359 0.153862 0.973987
vn 0.056811 0.297745 0.952954
vn -0.209144 0.292365 0.933157
vn 0.235859 0.016671 0.971644
vn -0.033430 -0.323979 0.945473
vn 0.184419 -0.360216 0.914458
vn 0.328190 -0.190325 0.925239
vn -0.115507 -0.329904 0.936921
vn -0.097547 -0.037844 0.994511
vn -0.097547 -0.037843 0.994511
vn -0.147676 -0.338311 0.929375
vn -0.382898 0.105973 0.917692
vn -0.457352 -0.077282 0.885921
vn -0.337416 -0.310010 0.888844
vn -0.097547 -0.037843 0.994511
vn -0.084944 -0.338869 0.936991
vn -0.097547 -0.037844 0.994511
vn -0.097546 -0.037844 0.994511
vn -0.097547 -0.037842 0.994511
vn -0.060074 -0.336849 0.939640
vn -0.097548 -0.037843 0.994511
vn -0.097546 -0.037844 0.994511
vn -0.097547 -0.037842 0.994511
vn -0.097547 -0.037843 0.994511
vn 0.219735 0.054274 0.974049
vn 0.200840 0.096623 0.974847
vn 0.178443 0.126801 0.975746
vn -0.334538 0.074604 0.939425
vn -0.343918 0.076814 0.935853
vn -0.350332 0.087409 0.932538
vn 0.404136 0.125813 -0.906005
vn 0.958918 0.263895 0.104096
vn 0.987814 0.117965 0.101523
vn 0.419742 0.088039 -0.903364
vn -0.216341 -0.974576 -0.058299
vn 0.037955 -0.266291 -0.963145
vn 0.070911 -0.257577 -0.963652
vn -0.084122 -0.995386 -0.046148
vn -0.854732 0.515077 -0.064261
vn -0.159578 0.174981 -0.971554
vn -0.146462 0.147552 -0.978150
vn -0.905560 0.417851 -0.073226
vn -0.198347 0.177570 -0.963913
vn -0.276188 -0.007033 -0.961078
vn -0.972370 -0.209292 -0.103407
vn -0.914447 0.397774 -0.074581
vn -0.156239 -0.239752 -0.958180
vn -0.688309 -0.719184 -0.094895
vn -0.317433 0.948269 0.004819
vn -0.026219 0.363308 -0.931300
vn 0.327656 0.942349 0.067978
vn 0.238529 0.368169 -0.898641
vn 0.777535 0.620837 0.100004
vn 0.351053 0.225498 -0.908797
vn 0.909269 -0.409588 0.073943
vn 0.502920 -0.122536 -0.855603
vn 0.639354 -0.768175 0.033668
vn 0.360821 -0.291598 -0.885877
vn 0.213649 -0.976776 -0.016208
vn 0.153041 -0.251627 -0.955648
vn 0.125871 -0.264712 -0.956077
vn 0.097547 0.037843 -0.994511
vn 0.097547 0.037843 -0.994511
vn 0.019544 -0.999156 -0.036119
vn 0.100973 -0.266741 -0.958464
vn 0.108501 -0.993725 -0.027170
vn -0.908846 0.410485 -0.074162
vn -0.156285 0.149541 -0.976326
vn -0.163352 0.159955 -0.973515
vn -0.893425 0.443560 -0.071035
vn 0.363429 0.198564 -0.910215
vn 0.849321 0.517727 0.103021
vn 0.908872 0.403770 0.104508
vn 0.385446 0.168240 -0.907263
vn 0.097548 0.037843 -0.994511
vn 0.097547 0.037842 -0.994511
vn 0.097547 0.037843 -0.994511
vn 0.097547 0.037843 -0.994511
vn 0.097546 0.037843 -0.994511
vn 0.097547 0.037843 -0.994511
vn 0.097547 0.037844 -0.994511
vn 0.097546 0.037843 -0.994511
s 1
g FoodLLowerCaninesUnderbite
usemtl GoogleyEye_blinn1SG
f 8/1/1 5/4/2 6/3/3 7/2/4
f 4/5/5 1/8/6 2/7/7 3/6/8
f 16/9/9 23/11/10 22/10/11
f 9/12/12 10/15/13 11/14/14 12/13/15
f 24/16/16 22/10/11 23/11/10
f 16/9/9 22/10/11 9/12/12
f 13/17/17 25/18/18 23/11/10
f 24/16/16 23/11/10 28/19/19
f 29/20/20 24/16/16 28/19/19
f 17/21/21 25/18/18 13/17/17
f 1/8/6 27/22/22 17/21/21
f 17/21/21 27/22/22 25/18/18
f 26/23/23 25/18/18 27/22/22
f 28/19/19 25/18/18 26/23/23
f 29/20/20 28/19/19 30/24/24
f 31/25/25 29/20/20 30/24/24
f 1/8/6 4/5/5 27/22/22
f 18/26/26 27/22/22 4/5/5
f 26/23/23 27/22/22 18/26/26
f 14/27/27 26/23/23 18/26/26
f 30/24/24 26/23/23 14/27/27
f 31/25/25 30/24/24 19/28/28
f 5/4/2 31/25/25 19/28/28
f 8/1/1 31/25/25 5/4/2
f 20/29/29 31/25/25 8/1/1
f 20/29/29 29/20/20 31/25/25
f 15/30/30 29/20/20 20/29/29
f 15/30/30 24/16/16 29/20/20
f 21/31/31 24/16/16 15/30/30
f 21/31/31 22/10/11 24/16/16
f 10/15/13 22/10/11 21/31/31
f 9/12/12 22/10/11 10/15/13
f 13/17/17 23/11/10 16/9/9
f 28/19/19 23/11/10 25/18/18
f 30/24/24 28/19/19 26/23/23
f 19/28/28 30/24/24 14/27/27
f 72/32/32 73/35/33 53/34/34 41/33/35
f 45/36/36 32/39/37 64/38/38 65/37/39
f 49/40/40 36/43/41 68/42/42 69/41/43
f 35/44/44 34/47/45 47/46/46 48/45/47
f 34/47/45 33/49/48 46/48/49 47/46/46
f 33/49/48 32/39/37 45/36/36 46/48/49
f 49/40/40 50/51/50 37/50/51 36/43/41
f 50/51/50 51/53/52 38/52/53 37/50/51
f 51/53/52 52/55/54 39/54/55 38/52/53
f 53/34/34 54/57/56 42/56/57 41/33/35
f 54/57/56 55/59/58 43/58/59 42/56/57
f 55/59/58 44/61/60 40/60/61 43/58/59
f 39/54/55 36/43/41 37/50/51 38/52/53
f 9/12/12 45/63/36 65/62/39 16/9/9
f 46/64/49 45/63/36 9/12/12 12/13/15
f 47/65/46 46/64/49 12/13/15 11/14/14
f 48/66/47 47/65/46 11/14/14 10/15/13
f 8/1/1 49/68/40 69/67/43 20/29/29
f 8/1/1 7/2/4 50/69/50 49/68/40
f 7/2/4 6/3/3 51/70/52 50/69/50
f 6/3/3 5/4/2 52/71/54 51/70/52
f 53/72/34 73/73/33 18/26/26 4/5/5
f 4/5/5 3/6/8 54/74/56 53/72/34
f 3/6/8 2/7/7 55/75/58 54/74/56
f 2/7/7 1/8/6 44/76/60 55/75/58
f 35/44/44 32/39/37 33/49/48 34/47/45
f 62/77/62 75/79/63 74/78/64
f 40/60/61 41/33/35 42/56/57 43/58/59
f 57/80/65 56/82/66 62/77/62 63/81/67
f 13/17/17 57/84/65 63/83/67 17/21/21
f 59/85/68 58/88/69 66/87/70 67/86/71
f 15/30/30 59/90/68 67/89/71 21/31/31
f 70/91/72 71/94/73 61/93/74 60/92/75
f 14/27/27 61/96/74 71/95/73 19/28/28
f 63/81/67 62/77/62 40/60/61 44/61/60
f 17/21/21 63/83/67 44/76/60 1/8/6
f 65/37/39 64/38/38 56/82/66 57/80/65
f 16/9/9 65/62/39 57/84/65 13/17/17
f 67/86/71 66/87/70 35/44/44 48/45/47
f 21/31/31 67/89/71 48/66/47 10/15/13
f 69/41/43 68/42/42 58/88/69 59/85/68
f 20/29/29 69/67/43 59/90/68 15/30/30
f 39/54/55 52/55/54 71/94/73 70/91/72
f 19/28/28 71/95/73 52/71/54 5/4/2
f 60/92/75 61/93/74 73/35/33 72/32/32
f 18/26/26 73/73/33 61/96/74 14/27/27
f 76/97/76 74/78/64 75/79/63
f 62/77/62 74/78/64 40/60/61
f 56/82/66 77/98/77 75/79/63
f 76/97/76 75/79/63 80/99/78
f 81/100/79 76/97/76 80/99/78
f 64/38/38 77/98/77 56/82/66
f 32/39/37 79/101/80 64/38/38
f 64/38/38 79/101/80 77/98/77
f 78/102/81 77/98/77 79/101/80
f 80/99/78 77/98/77 78/102/81
f 81/100/79 80/99/78 82/103/82
f 83/104/83 81/100/79 82/103/82
f 32/39/37 35/44/44 79/101/80
f 66/87/70 79/101/80 35/44/44
f 78/102/81 79/101/80 66/87/70
f 58/88/69 78/102/81 66/87/70
f 82/103/82 78/102/81 58/88/69
f 83/104/83 82/103/82 68/42/42
f 36/43/41 83/104/83 68/42/42
f 39/54/55 83/104/83 36/43/41
f 70/91/72 83/104/83 39/54/55
f 70/91/72 81/100/79 83/104/83
f 60/92/75 81/100/79 70/91/72
f 60/92/75 76/97/76 81/100/79
f 72/32/32 76/97/76 60/92/75
f 72/32/32 74/78/64 76/97/76
f 41/33/35 74/78/64 72/32/32
f 40/60/61 74/78/64 41/33/35
f 56/82/66 75/79/63 62/77/62
f 80/99/78 75/79/63 77/98/77
f 82/103/82 80/99/78 78/102/81
f 68/42/42 82/103/82 58/88/69
