# This file uses centimeters as units for non-parametric coordinates.

mtllib BreakableJungleWall_piece06COL.mtl
g default
v -41.711044 14.011744 15.522823
v -24.574070 14.778446 16.183964
v -34.783871 13.137697 5.662817
v -37.432171 2.862621 5.846642
v -26.582960 1.956048 -3.880065
v -6.236094 -2.147928 -1.562608
v -28.698988 -0.336591 17.981222
v -44.868111 2.023707 16.560083
vt 0.079553 0.940051
vt 0.087209 0.858856
vt 0.130579 0.913836
vt 0.826123 0.530671
vt 0.745332 0.523853
vt 0.481798 0.034879
vt 0.561861 0.040469
vt 0.631863 0.125874
vt 0.469227 0.112402
vt 0.811918 0.589990
vt 0.878586 0.601779
vt 0.899414 0.533388
vt 0.411551 0.046942
vt 0.021844 0.952909
vt 0.013982 0.874462
vt 0.206037 0.863927
vt 0.198297 0.765075
vt 0.014705 0.732845
vn -0.039925 0.992444 -0.116025
vn -0.039925 0.992444 -0.116025
vn -0.039925 0.992444 -0.116025
vn -0.219777 -0.961796 -0.163239
vn -0.183022 -0.976118 -0.117035
vn -0.145603 -0.986529 -0.074563
vn -0.135501 -0.987339 -0.082470
vn -0.755110 0.259833 -0.601911
vn -0.640440 -0.353718 -0.681704
vn -0.766393 0.015899 -0.642175
vn -0.813078 0.005967 -0.582124
vn -0.788897 0.259204 -0.557184
vn -0.755110 0.259833 -0.601911
vn -0.766393 0.015899 -0.642175
vn -0.135501 -0.987339 -0.082470
vn -0.280531 -0.921393 -0.268956
vn -0.219777 -0.961796 -0.163239
vn -0.037696 0.131111 0.990651
vn -0.037969 0.132243 0.990490
vn -0.037615 0.130778 0.990698
vn -0.037615 0.130778 0.990698
vn 0.276211 0.861774 -0.425504
vn 0.237230 0.823086 -0.515996
vn 0.242125 0.828296 -0.505273
vn 0.242125 0.828296 -0.505273
vn 0.237230 0.823086 -0.515996
vn 0.226088 0.810878 -0.539779
vn 0.649837 -0.087567 0.755013
vn 0.649837 -0.087567 0.755013
vn 0.649837 -0.087567 0.755012
vn 0.649837 -0.087567 0.755013
vn 0.649837 -0.087567 0.755013
vn 0.649837 -0.087567 0.755012
vn 0.719134 -0.191293 -0.668022
vn 0.719134 -0.191293 -0.668022
vn 0.719134 -0.191293 -0.668022
vn 0.649837 -0.087567 0.755012
vn 0.719134 -0.191293 -0.668022
vn 0.719134 -0.191293 -0.668022
vn 0.719134 -0.191293 -0.668022
vn -0.013843 -0.542817 -0.839737
vn -0.013843 -0.542817 -0.839737
vn -0.013843 -0.542817 -0.839737
vn 0.719134 -0.191293 -0.668022
vn 0.719134 -0.191293 -0.668022
vn 0.719134 -0.191293 -0.668022
vn -0.013843 -0.542817 -0.839737
vn -0.013843 -0.542817 -0.839737
vn -0.013843 -0.542817 -0.839737
vn 0.719134 -0.191293 -0.668022
vn 0.719134 -0.191293 -0.668022
vn 0.719134 -0.191293 -0.668022
vn 0.719134 -0.191293 -0.668022
vn 0.719134 -0.191293 -0.668022
s off
g polySurface225
usemtl lambert2SG
f 1/1/1 2/2/2 3/3/3
f 4/6/4 5/7/5 6/8/6 7/9/7
f 3/10/8 5/5/9 4/4/10
f 8/12/11 1/11/12 3/10/13 4/4/14
f 7/9/15 8/13/16 4/6/17
f 2/2/18 1/1/19 8/14/20 7/15/21
f 5/16/22 3/3/23 6/17/24
f 6/17/25 3/3/26 2/2/27
f 6/18/28 2/2/29 7/15/30
