# This file uses centimeters as units for non-parametric coordinates.

mtllib BreakableJungleWall_piece23.mtl
g default
v 5.046784 21.218330 -28.180635
v 5.267660 18.921925 -27.993443
v 2.546195 21.633053 -27.038021
v 2.217764 19.178612 -25.218878
v -0.376056 37.509975 -17.267359
v 0.649370 39.474895 -16.055597
v 6.123987 37.567558 -25.022036
v 7.222906 39.465641 -23.958735
v 9.613363 38.028294 -25.288303
v 8.467605 36.105831 -26.340992
v 7.422028 32.794724 -25.121939
v 5.195228 33.959366 -23.920565
v -0.722735 33.916683 -16.804287
v -3.199121 19.178612 -18.525890
v -3.071388 21.633053 -20.050022
v 6.213780 41.551052 -9.461638
v 12.753403 41.551056 -17.318199
v -4.748187 36.554939 -0.677897
v -5.178595 37.209293 -12.633216
v -6.178308 35.296791 -13.903090
v -4.917128 32.411541 -14.452925
v 14.728785 36.110565 -19.392450
v 14.646495 32.268654 -19.510902
v 13.867585 20.789915 -19.011625
v 13.764974 17.174063 -19.159327
v 14.811075 39.952480 -19.273998
v 11.061316 18.769384 -16.368814
v 4.123075 19.103924 -10.031516
v 10.922312 31.236160 -18.043804
v 5.168428 30.327488 -9.746577
v 11.171326 21.913740 -16.561359
v 4.382664 21.891026 -9.960758
v 11.351757 35.942131 -18.284756
v 6.268539 35.487690 -8.774727
v -4.113473 34.973850 -0.779728
vt 0.542461 0.620527
vt 0.590074 0.620541
vt 0.584750 0.635901
vt 0.534081 0.634948
vt 0.518991 0.619762
vt 0.518783 0.633387
vt 0.583844 0.729390
vt 0.584213 0.743394
vt 0.528651 0.741131
vt 0.527996 0.728722
vt 0.511714 0.741182
vt 0.511845 0.724849
vt 0.534745 0.708559
vt 0.586788 0.709445
vt 0.589691 0.791360
vt 0.533903 0.789590
vt 0.519633 0.703606
vt 0.515275 0.789694
vt 0.669777 0.776104
vt 0.621858 0.730377
vt 0.621165 0.716359
vt 0.613481 0.700477
vt 0.249854 0.639216
vt 0.293212 0.639295
vt 0.294376 0.657026
vt 0.249567 0.657469
vt 0.247399 0.568597
vt 0.305674 0.571858
vt 0.307859 0.582619
vt 0.246896 0.585283
vt 0.287050 0.666411
vt 0.248257 0.675956
vt 0.181341 0.522581
vt 0.221138 0.513638
vt 0.228326 0.573440
vt 0.183580 0.575112
vt 0.240579 0.512199
vt 0.228972 0.588994
vt 0.184057 0.587662
vt 0.233238 0.655636
vt 0.231451 0.633856
vt 0.183570 0.652956
vt 0.184209 0.627796
vt 0.233896 0.682958
vt 0.185089 0.681476
vt 0.170649 0.577053
vt 0.113570 0.536904
vt 0.131686 0.587328
vt 0.119620 0.655676
vt 0.122617 0.647934
vt 0.059753 0.585553
vt 0.086712 0.535693
vt 0.098545 0.535133
vt 0.066843 0.589424
vt 0.168485 0.517877
vn -0.709242 -0.331477 -0.622173
vn -0.733467 -0.334748 -0.591582
vn -0.752165 0.194960 -0.629475
vn -0.677490 0.224997 -0.700274
vn -0.573191 -0.307743 -0.759439
vn -0.709242 -0.331477 -0.622173
vn -0.677490 0.224997 -0.700274
vn -0.411309 0.166800 -0.896104
vn -0.685738 0.311501 -0.657823
vn -0.337781 0.934222 -0.114603
vn -0.193006 0.923740 -0.330836
vn -0.651790 0.291331 -0.700212
vn -0.651790 0.291331 -0.700212
vn -0.193006 0.923740 -0.330836
vn 0.155604 0.806639 -0.570194
vn -0.421075 0.120679 -0.898962
vn -0.685738 0.311501 -0.657823
vn -0.651790 0.291331 -0.700212
vn -0.725034 -0.029747 -0.688071
vn -0.650883 -0.027241 -0.758689
vn -0.286399 0.957130 -0.043335
vn -0.104114 0.970234 -0.218649
vn -0.193006 0.923740 -0.330836
vn -0.337781 0.934222 -0.114603
vn -0.651790 0.291331 -0.700212
vn -0.421075 0.120679 -0.898962
vn -0.534238 -0.127803 -0.835617
vn -0.725034 -0.029747 -0.688071
vn -0.193006 0.923740 -0.330836
vn -0.104114 0.970234 -0.218649
vn 0.234840 0.851475 -0.468871
vn 0.155604 0.806639 -0.570194
vn -0.678536 0.310355 -0.665785
vn -0.340717 0.301697 -0.890444
vn -0.411309 0.166800 -0.896104
vn -0.677490 0.224997 -0.700274
vn -0.706913 0.307833 -0.636798
vn -0.678536 0.310355 -0.665785
vn -0.677490 0.224997 -0.700274
vn -0.752165 0.194960 -0.629475
vn -0.367239 0.928914 0.047484
vn -0.286399 0.957130 -0.043335
vn -0.337781 0.934222 -0.114603
vn -0.402755 0.914833 -0.029478
vn -0.554731 0.256720 -0.791434
vn -0.402755 0.914833 -0.029478
vn -0.337781 0.934222 -0.114603
vn -0.685738 0.311501 -0.657823
vn -0.479794 -0.056001 -0.875592
vn -0.554731 0.256720 -0.791434
vn -0.685738 0.311501 -0.657823
vn -0.650883 -0.027241 -0.758689
vn -0.752165 0.194960 -0.629475
vn -0.547130 0.310055 -0.777506
vn -0.706913 0.307833 -0.636798
vn 0.676173 -0.052915 -0.734840
vn 0.676287 -0.049726 -0.734958
vn 0.691175 -0.159616 -0.704840
vn 0.703694 -0.134654 -0.697626
vn 0.721242 0.009801 -0.692614
vn 0.721242 0.009801 -0.692614
vn 0.688088 -0.005923 -0.725603
vn 0.687331 -0.006273 -0.726318
vn 0.687331 -0.006273 -0.726318
vn 0.688088 -0.005923 -0.725603
vn 0.676287 -0.049726 -0.734958
vn 0.676173 -0.052915 -0.734840
vn 0.703694 -0.134654 -0.697626
vn 0.691175 -0.159616 -0.704840
vn 0.750891 -0.025896 -0.659918
vn 0.750891 -0.025896 -0.659918
vn -0.028482 -0.999593 -0.001343
vn -0.092433 -0.995224 0.031385
vn -0.092017 -0.995269 0.031172
vn -0.028482 -0.999593 -0.001343
vn -0.219184 -0.970900 0.096500
vn -0.219184 -0.970900 0.096500
vn -0.092017 -0.995269 0.031172
vn -0.092433 -0.995224 0.031385
vn 0.691342 0.024349 0.722117
vn 0.744900 0.009902 0.667103
vn 0.685285 -0.027759 0.727745
vn 0.687638 -0.023971 0.725658
vn 0.577299 0.041574 0.815474
vn 0.691342 0.024349 0.722117
vn 0.687638 -0.023971 0.725658
vn 0.691938 -0.016975 0.721757
vn 0.398405 -0.090686 0.912716
vn 0.762859 -0.126370 0.634096
vn 0.723547 -0.027021 0.689746
vn 0.455716 0.039929 0.889229
vn 0.762859 -0.126370 0.634096
vn 0.746568 -0.090184 0.659169
vn 0.771932 -0.082511 0.630328
vn 0.723547 -0.027021 0.689746
vn 0.455716 0.039929 0.889229
vn 0.723547 -0.027021 0.689746
vn 0.691342 0.024349 0.722117
vn 0.577299 0.041574 0.815474
vn 0.723547 -0.027021 0.689746
vn 0.771932 -0.082511 0.630328
vn 0.744900 0.009902 0.667103
vn 0.691342 0.024349 0.722117
vn 0.781838 -0.120396 0.611747
vn 0.762859 -0.126370 0.634096
vn 0.398405 -0.090686 0.912716
vn 0.449226 -0.171204 0.876861
vn 0.781838 -0.120396 0.611747
vn 0.754591 -0.024980 0.655720
vn 0.746568 -0.090184 0.659169
vn 0.762859 -0.126370 0.634096
vn -0.754766 0.341942 0.559826
vn -0.756100 0.053864 0.652236
vn -0.761099 0.107563 0.639655
vn -0.446604 -0.183884 0.875632
vn -0.420080 0.016091 0.907344
vn -0.422847 0.000122 0.906201
vn 0.754591 -0.024980 0.655720
vn 0.595498 0.114567 0.795146
vn 0.600460 0.067112 0.796833
vn 0.746568 -0.090184 0.659169
vn -0.992801 0.063961 0.101273
vn -0.992801 0.063961 0.101273
vn -0.992801 0.063961 0.101273
vn -0.992801 0.063961 0.101273
vn 0.746568 -0.090184 0.659169
vn 0.600460 0.067112 0.796833
vn 0.771932 -0.082511 0.630328
vn -0.413895 -0.909320 0.042746
vn -0.413895 -0.909320 0.042746
vn -0.413895 -0.909320 0.042746
vn -0.728638 -0.409759 0.548802
vn -0.728638 -0.409759 0.548802
vn -0.728638 -0.409759 0.548802
vn -0.422847 0.000122 0.906201
vn -0.454560 -0.354419 0.817168
vn -0.446604 -0.183884 0.875632
vn -0.754766 0.341942 0.559826
vn -0.761099 0.107563 0.639655
vn -0.749563 0.376907 0.544148
s off
g polySurface236
usemtl blinn1SG
f 4/1/1 14/2/2 15/3/3 3/4/4
f 2/5/5 4/1/6 3/4/7 1/6/8
f 5/7/9 6/8/10 8/9/11 7/10/12
f 7/10/13 8/9/14 9/11/15 10/12/16
f 5/7/17 7/10/18 12/13/19 13/14/20
f 16/15/21 17/16/22 8/9/23 6/8/24
f 7/10/25 10/12/26 11/17/27 12/13/28
f 8/9/29 17/16/30 26/18/31 9/11/32
f 12/13/33 11/17/34 1/6/35 3/4/36
f 13/14/37 12/13/38 3/4/39 15/3/40
f 18/19/41 16/15/42 6/8/43 19/20/44
f 20/21/45 19/20/46 6/8/47 5/7/48
f 21/22/49 20/21/50 5/7/51 13/14/52
f 15/3/53 21/22/54 13/14/55
f 23/23/56 11/24/57 10/25/58 22/26/59
f 25/27/60 2/28/61 1/29/62 24/30/63
f 24/30/64 1/29/65 11/24/66 23/23/67
f 22/26/68 10/25/69 9/31/70 26/32/71
f 14/33/72 4/34/73 27/35/74 28/36/75
f 2/37/76 25/27/77 27/35/78 4/34/79
f 31/38/80 32/39/81 28/36/82 27/35/83
f 24/30/84 31/38/85 27/35/86 25/27/87
f 22/26/88 33/40/89 29/41/90 23/23/91
f 33/40/92 34/42/93 30/43/94 29/41/95
f 23/23/96 29/41/97 31/38/98 24/30/99
f 29/41/100 30/43/101 32/39/102 31/38/103
f 17/44/104 33/40/105 22/26/106 26/32/107
f 17/44/108 16/45/109 34/42/110 33/40/111
f 14/33/112 28/36/113 32/46/114
f 21/47/115 32/46/116 30/48/117
f 16/45/118 18/49/119 35/50/120 34/42/121
f 18/51/122 19/52/123 20/53/124 35/54/125
f 34/42/126 35/50/127 30/43/128
f 35/54/129 20/53/130 30/48/131
f 15/55/132 32/46/133 21/47/134
f 30/48/135 20/53/136 21/47/137
f 14/33/138 32/46/139 15/55/140
