# This file uses centimeters as units for non-parametric coordinates.

mtllib BreakableJungleWall_piece27.mtl
g default
v 5.482927 16.687584 -27.797413
v 14.679221 33.796574 -19.463795
v 23.458652 19.397940 -12.963089
v 14.370816 19.397940 -19.907724
v 23.941376 3.995442 -12.225430
v 9.708800 20.308136 -24.044180
v 14.205862 11.696691 -20.145164
v 21.257137 17.644030 -27.202814
vt 0.133412 0.809559
vt 0.167216 0.870746
vt 0.094339 0.863430
vt 0.096827 0.809189
vt 0.112307 0.753428
vt 0.093888 0.779431
vt 0.028426 0.808498
vt 0.092200 0.932308
vt 0.041396 0.987588
vt 0.038926 0.955817
vt 0.012507 0.889240
vt 0.101358 0.986683
vt 0.171237 0.988613
vn -0.624872 0.005748 0.780706
vn -0.617567 0.008534 0.786472
vn -0.614956 0.003454 0.788554
vn -0.627666 -0.001427 0.778482
vn -0.662524 -0.007725 0.749001
vn -0.624872 0.005748 0.780706
vn -0.627666 -0.001427 0.778482
vn -0.662524 -0.007725 0.749001
vn -0.627666 -0.001427 0.778482
vn -0.664303 -0.005750 0.747441
vn -0.622131 -0.010810 0.782839
vn -0.664303 -0.005750 0.747441
vn -0.627666 -0.001427 0.778482
vn -0.627666 -0.001427 0.778482
vn -0.614956 0.003454 0.788554
vn -0.622131 -0.010810 0.782839
vn 0.956817 0.231061 -0.176387
vn 0.987545 0.023500 -0.155573
vn 0.942925 0.279994 -0.180267
vn -0.018502 0.729919 -0.683284
vn -0.018502 0.729919 -0.683284
vn -0.018502 0.729919 -0.683284
vn -0.164411 0.370953 -0.913982
vn -0.164411 0.370953 -0.913982
vn -0.164411 0.370953 -0.913982
vn 0.003587 -0.766453 -0.642291
vn 0.070929 -0.796562 -0.600381
vn 0.013952 -0.771446 -0.636142
vn -0.043215 -0.742287 -0.668687
vn 0.003587 -0.766453 -0.642291
vn 0.013952 -0.771446 -0.636142
vn 0.874045 0.447070 -0.190196
vn 0.956817 0.231061 -0.176387
vn 0.942925 0.279994 -0.180267
s off
g polySurface254
usemtl blinn1SG
f 7/1/1 5/2/2 3/3/3 4/4/4
f 1/5/5 7/1/6 4/4/7
f 1/5/8 4/4/9 6/6/10
f 2/7/11 6/6/12 4/4/13
f 4/4/14 3/3/15 2/7/16
f 3/3/17 5/2/18 8/8/19
f 1/9/20 6/10/21 8/8/22
f 6/10/23 2/11/24 8/8/25
f 7/12/26 1/9/27 8/8/28
f 5/13/29 7/12/30 8/8/31
f 2/11/32 3/3/33 8/8/34
