# This file uses centimeters as units for non-parametric coordinates.

mtllib BreakableJungleWall_piece14COL.mtl
g default
v -26.787487 28.529263 47.297577
v -31.132778 32.256134 39.420341
v -14.695266 16.351830 42.391945
v -8.719891 33.747723 32.720520
v -17.421700 36.258331 26.247391
v -33.916618 33.601395 27.637505
v -6.844378 30.191002 31.773237
v -5.708378 17.810225 35.624962
v -32.214111 14.890821 41.030388
v -24.100801 15.524579 33.031387
v -17.003746 31.614077 25.190159
v -30.824003 27.656816 38.229095
vt 0.526934 0.473710
vt 0.655287 0.488735
vt 0.889592 0.759432
vt 0.929072 0.811586
vt 0.824020 0.824029
vt 0.949756 0.854951
vt 0.820899 0.878803
vt 0.664445 0.466828
vt 0.588846 0.390610
vt 0.651025 0.392153
vt 0.086651 0.455687
vt 0.080549 0.508908
vt 0.018144 0.502479
vt 0.004882 0.554536
vt 0.042990 0.382225
vt 0.090643 0.349573
vt 0.057901 0.399146
vt 0.016536 0.418142
vt 0.168224 0.558693
vt 0.114320 0.617256
vt 0.098395 0.601023
vt 0.103444 0.623043
vt 0.050533 0.626980
vt 0.041315 0.609721
vt 0.144323 0.479073
vt 0.182776 0.524263
vn -0.145312 0.978546 0.146054
vn -0.031913 0.959517 0.279837
vn -0.025129 0.957442 0.287529
vn 0.099615 0.898836 0.426814
vn 0.096622 0.900685 0.423592
vn -0.025129 0.957442 0.287529
vn -0.031913 0.959517 0.279837
vn 0.642425 -0.119823 0.756923
vn 0.642425 -0.119823 0.756923
vn 0.573873 0.214569 0.790335
vn 0.485545 0.465212 0.740152
vn 0.512894 0.395213 0.762067
vn 0.527361 0.353372 0.772670
vn 0.485545 0.465212 0.740152
vn 0.082725 -0.996560 0.004950
vn 0.095984 -0.995347 -0.008481
vn 0.115495 -0.992905 -0.028301
vn 0.115495 -0.992905 -0.028301
vn 0.095984 -0.995347 -0.008481
vn 0.129060 -0.990742 -0.042123
vn -0.969079 -0.120787 0.215166
vn -0.841309 -0.537636 -0.056099
vn -0.888179 -0.337127 -0.312224
vn -0.853554 -0.331064 0.402297
vn -0.853166 -0.328568 0.405156
vn -0.854877 -0.019746 0.518454
vn -0.115723 0.210560 -0.970707
vn -0.115723 0.210560 -0.970707
vn -0.115723 0.210560 -0.970707
vn 0.575125 0.315034 -0.754974
vn 0.580209 0.318460 -0.749627
vn 0.582209 0.319808 -0.747500
vn 0.575125 0.315034 -0.754974
vn -0.745848 -0.145883 -0.649945
vn -0.888179 -0.337127 -0.312224
vn -0.797174 -0.567728 -0.205424
vn -0.116170 -0.392155 0.912534
vn -0.115864 -0.390255 0.913387
vn -0.132844 -0.498427 0.856693
vn 0.281114 -0.521077 -0.805887
vn 0.292696 -0.537067 -0.791131
vn 0.359547 -0.627597 -0.690542
vn -0.761194 0.297615 0.576202
vn -0.856220 -0.022883 0.516104
vn -0.854877 -0.019746 0.518454
vn -0.279135 -0.378244 -0.882618
vn -0.226541 -0.452933 -0.862282
vn -0.216523 -0.466411 -0.857659
vn 0.216755 -0.430868 -0.875996
vn 0.292696 -0.537067 -0.791131
vn 0.281114 -0.521077 -0.805887
vn -0.745848 -0.145883 -0.649945
vn -0.697056 -0.074996 -0.713084
vn -0.888179 -0.337127 -0.312224
vn 0.216755 -0.430868 -0.875996
vn 0.292696 -0.537067 -0.791131
vn 0.281114 -0.521077 -0.805887
vn -0.745848 -0.145883 -0.649945
vn -0.697056 -0.074996 -0.713084
vn -0.888179 -0.337127 -0.312224
vn -0.697056 -0.074996 -0.713084
vn -0.888179 -0.337127 -0.312224
vn 0.140181 0.437446 -0.888251
vn 0.136965 0.070735 -0.988047
vn 0.139239 0.476236 -0.868223
vn -0.745848 -0.145883 -0.649945
vn -0.697056 -0.074996 -0.713084
vn -0.888179 -0.337127 -0.312224
vn 0.139239 0.476236 -0.868223
vn -0.745848 -0.145883 -0.649945
vn -0.697056 -0.074996 -0.713084
vn -0.888179 -0.337127 -0.312224
vn 0.139239 0.476236 -0.868223
vn -0.745848 -0.145883 -0.649945
vn -0.697056 -0.074996 -0.713084
vn -0.888179 -0.337127 -0.312224
vn 0.139239 0.476236 -0.868223
vn -0.745848 -0.145883 -0.649945
vn -0.697056 -0.074996 -0.713084
vn -0.888179 -0.337127 -0.312224
vn 0.140181 0.437446 -0.888251
vn 0.136965 0.070735 -0.988047
vn 0.139239 0.476236 -0.868223
vn -0.745848 -0.145883 -0.649945
vn -0.697056 -0.074996 -0.713084
vn -0.888179 -0.337127 -0.312224
vn 0.139239 0.476236 -0.868223
vn -0.745848 -0.145883 -0.649945
vn -0.697056 -0.074996 -0.713084
vn -0.888179 -0.337127 -0.312224
s off
g polySurface242
usemtl lambert2SG
f 6/3/1 2/4/2 5/5/3
f 1/6/4 4/7/5 5/5/6 2/4/7
f 1/1/8 7/8/9 4/2/10
f 1/1/11 3/9/12 8/10/13 7/8/14
f 9/11/15 10/12/16 3/13/17
f 3/13/18 10/12/19 8/14/20
f 2/15/21 6/16/22 12/17/23
f 1/18/24 2/15/25 12/17/26
f 6/19/27 5/20/28 11/21/29
f 5/22/30 4/23/31 7/24/32 11/21/33
f 10/12/34 12/25/35 6/26/36
f 9/11/37 3/13/38 1/18/39
f 7/24/40 10/12/41 11/21/42
f 9/11/43 1/18/44 12/17/45
f 10/12/46 6/19/47 11/21/48
f 8/14/49 10/12/50 7/24/51
f 10/12/52 9/11/53 12/25/54
