# This file uses centimeters as units for non-parametric coordinates.

mtllib BuggyBallWallBreakable_piece01COL.mtl
g default
v 15.466478 -0.325295 8.558131
v 17.505287 10.702683 5.638195
v 6.987064 -1.197802 16.914539
v 11.632259 -1.531039 -0.992752
v 10.987844 12.147668 14.760262
v 13.034275 9.079165 -3.803842
v 7.212944 11.311939 12.043214
vt 0.691284 0.169542
vt 0.621215 0.161945
vt 0.751350 0.167785
vt 0.702920 0.234800
vt 0.642025 0.239077
vt 0.759758 0.230064
vt 0.650568 0.127551
vt 0.588889 0.143979
vt 0.644136 0.101720
vt 0.544930 0.095144
vt 0.685260 0.084013
vt 0.750850 0.161857
vt 0.694972 0.150857
vt 0.667870 0.110780
vt 0.559867 0.030926
vt 0.670764 0.029222
vn 0.719010 -0.218610 0.659723
vn 0.763599 -0.167397 0.623614
vn 0.814044 0.030361 0.580009
vn 0.749156 0.025664 0.661896
vn 0.898824 -0.353171 -0.259587
vn 0.863434 -0.354550 -0.358855
vn 0.897162 -0.138861 -0.419306
vn 0.937072 -0.156003 -0.312346
vn -0.318629 0.863195 -0.391626
vn -0.318629 0.863195 -0.391626
vn -0.090314 0.989706 -0.111019
vn -0.083958 0.991112 -0.103193
vn 0.362615 -0.880557 0.305172
vn 0.390737 -0.917738 -0.071279
vn 0.325783 -0.938241 0.116484
vn -0.946962 0.057777 -0.316110
vn -0.946962 0.057777 -0.316110
vn -0.946962 0.057777 -0.316110
vn -0.946962 0.057777 -0.316110
vn -0.662318 0.325767 0.674693
vn -0.662318 0.325767 0.674693
vn -0.662318 0.325767 0.674693
s off
g polySurface305polySurface303polySurface300pCube36
usemtl initialShadingGroup
f 3/2/1 1/1/2 2/4/3 5/5/4
f 1/1/5 4/3/6 6/6/7 2/4/8
f 7/9/9 5/7/10 2/8/11 6/10/12
f 3/11/13 4/12/14 1/13/15
f 4/15/16 3/16/17 7/9/18 6/10/19
f 5/14/20 7/9/21 3/16/22
g default
v 15.466478 -0.325295 8.558131
v 17.505287 10.702683 5.638195
v 6.987064 -1.197802 16.914539
v 11.632259 -1.531039 -0.992752
v 10.987844 12.147668 14.760262
v 13.034275 9.079165 -3.803842
v 7.212944 11.311939 12.043214
vt 0.691284 0.169542
vt 0.621215 0.161945
vt 0.751350 0.167785
vt 0.702920 0.234800
vt 0.642025 0.239077
vt 0.759758 0.230064
vt 0.650568 0.127551
vt 0.588889 0.143979
vt 0.644136 0.101720
vt 0.544930 0.095144
vt 0.685260 0.084013
vt 0.750850 0.161857
vt 0.694972 0.150857
vt 0.667870 0.110780
vt 0.559867 0.030926
vt 0.670764 0.029222
vn 0.719010 -0.218610 0.659723
vn 0.763599 -0.167397 0.623614
vn 0.814044 0.030361 0.580009
vn 0.749156 0.025664 0.661896
vn 0.898824 -0.353171 -0.259587
vn 0.863434 -0.354550 -0.358855
vn 0.897162 -0.138861 -0.419306
vn 0.937072 -0.156003 -0.312346
vn -0.318629 0.863195 -0.391626
vn -0.318629 0.863195 -0.391626
vn -0.090314 0.989706 -0.111019
vn -0.083958 0.991112 -0.103193
vn 0.362615 -0.880557 0.305172
vn 0.390737 -0.917738 -0.071279
vn 0.325783 -0.938241 0.116484
vn -0.946962 0.057777 -0.316110
vn -0.946962 0.057777 -0.316110
vn -0.946962 0.057777 -0.316110
vn -0.946962 0.057777 -0.316110
vn -0.662318 0.325767 0.674693
vn -0.662318 0.325767 0.674693
vn -0.662318 0.325767 0.674693
s off
g polySurface305polySurface303polySurface300pCube36
f 10/18/23 8/17/24 9/20/25 12/21/26
f 8/17/27 11/19/28 13/22/29 9/20/30
f 14/25/31 12/23/32 9/24/33 13/26/34
f 10/27/35 11/28/36 8/29/37
f 11/31/38 10/32/39 14/25/40 13/26/41
f 12/30/42 14/25/43 10/32/44
