# This file uses centimeters as units for non-parametric coordinates.

mtllib BuggyBallWallBreakable_piece15COL.mtl
g default
v 8.325281 23.279350 12.178335
v 11.053143 13.853529 14.460913
v -1.772093 23.961380 16.404341
v 0.815312 12.438836 18.946901
v 9.250396 11.646366 12.422065
v 5.227564 25.004616 8.890596
v 2.707900 10.084253 3.917264
v -3.867541 10.519735 -4.311200
v -7.442934 10.084253 12.176027
v -10.761919 10.301994 8.087234
v -3.867541 12.916231 -4.311200
v -10.761919 12.698490 8.087234
v -7.181914 16.573675 11.813782
v 0.680012 16.682545 2.289698
vt 0.570124 0.315349
vt 0.578945 0.242987
vt 0.640073 0.309616
vt 0.513043 0.234226
vt 0.643972 0.250589
vt 0.386893 0.621132
vt 0.389034 0.684446
vt 0.374579 0.686537
vt 0.605838 0.571711
vt 0.561529 0.525647
vt 0.621665 0.556576
vt 0.447012 0.600542
vt 0.454428 0.677879
vt 0.479088 0.597651
vt 0.517187 0.670707
vt 0.658763 0.628428
vt 0.644650 0.642682
vt 0.587761 0.660592
vt 0.533908 0.676872
vt 0.529199 0.663939
vt 0.492374 0.592463
vt 0.478458 0.591282
vt 0.479765 0.563218
vt 0.518484 0.565771
vt 0.564149 0.624914
vt 0.633193 0.578256
vn 0.357703 0.180433 0.916238
vn 0.444186 0.217122 0.869228
vn 0.416287 0.381887 0.825147
vn 0.315875 0.400533 0.860114
vn 0.318629 -0.863195 0.391626
vn 0.318629 -0.863195 0.391626
vn 0.318629 -0.863195 0.391626
vn 0.204153 0.941133 0.269427
vn 0.204153 0.941133 0.269427
vn 0.204153 0.941133 0.269427
vn 0.092061 -0.990095 0.106000
vn 0.033670 -0.998724 0.037643
vn 0.036505 -0.998494 0.040950
vn 0.091385 -0.990260 0.105043
vn 0.033670 -0.998724 0.037643
vn -0.026072 -0.999146 -0.032045
vn -0.026072 -0.999146 -0.032045
vn 0.036505 -0.998494 0.040950
vn -0.399266 0.182413 0.898505
vn -0.621632 -0.150181 0.768778
vn -0.476319 -0.008334 0.879233
vn 0.786796 0.000000 -0.617214
vn 0.781208 0.000000 -0.624271
vn 0.781629 0.029583 -0.623041
vn -0.873967 0.000000 -0.485985
vn -0.873967 0.000000 -0.485985
vn -0.873967 0.000000 -0.485985
vn -0.873967 0.000000 -0.485985
vn -0.811120 -0.142610 0.567228
vn -0.811119 -0.142610 0.567228
vn -0.811120 -0.142610 0.567228
vn -0.513893 0.727110 -0.455219
vn -0.504091 0.749063 -0.429880
vn -0.440358 0.851814 -0.283720
vn -0.440358 0.851814 -0.283720
vn -0.527699 0.655812 -0.539856
vn -0.501389 0.697406 -0.512087
vn -0.504091 0.749063 -0.429880
vn -0.513893 0.727110 -0.455219
vn 0.777852 0.069506 -0.624592
vn 0.781629 0.029583 -0.623041
vn 0.777336 0.137364 -0.613906
vn -0.795166 0.135977 0.590949
vn -0.798490 0.152025 0.582496
vn -0.803265 0.177713 0.568492
vn -0.798490 0.152025 0.582496
vn -0.811442 0.235090 0.535066
vn -0.803265 0.177713 0.568492
vn 0.777036 0.064498 -0.626143
vn 0.777852 0.069506 -0.624592
vn 0.772077 0.094250 -0.628501
vn 0.772077 0.094250 -0.628501
vn 0.767437 0.083906 -0.635611
vn 0.729722 0.033991 -0.682899
vn 0.800021 0.090977 -0.593035
vn 0.502579 0.018918 -0.864324
vn 0.726492 0.017980 -0.686939
vn 0.729722 0.033991 -0.682899
vn 0.800021 0.090977 -0.593035
vn 0.502579 0.018918 -0.864324
vn 0.726492 0.017980 -0.686939
vn 0.729722 0.033991 -0.682899
vn 0.800021 0.090977 -0.593035
vn 0.502579 0.018918 -0.864324
vn 0.726492 0.017980 -0.686939
vn 0.729722 0.033991 -0.682899
vn 0.800021 0.090977 -0.593035
vn 0.502579 0.018918 -0.864324
vn 0.726492 0.017980 -0.686939
vn 0.729722 0.033991 -0.682899
vn 0.800021 0.090977 -0.593035
vn 0.502579 0.018918 -0.864324
vn 0.726492 0.017980 -0.686939
vn 0.729722 0.033991 -0.682899
vn 0.800021 0.090977 -0.593035
vn 0.502579 0.018918 -0.864324
vn 0.726492 0.017980 -0.686939
vn 0.729722 0.033991 -0.682899
vn -0.803265 0.177713 0.568492
vn 0.777036 0.064498 -0.626143
vn 0.777852 0.069506 -0.624592
vn 0.772077 0.094250 -0.628501
vn 0.772077 0.094250 -0.628501
vn 0.767437 0.083906 -0.635611
vn 0.729722 0.033991 -0.682899
vn 0.800021 0.090977 -0.593035
vn 0.800021 0.090977 -0.593035
vn 0.502579 0.018918 -0.864324
vn 0.726492 0.017980 -0.686939
vn 0.729722 0.033991 -0.682899
vn 0.777852 0.069506 -0.624592
vn 0.772077 0.094250 -0.628501
vn 0.772077 0.094250 -0.628501
vn 0.767437 0.083906 -0.635611
vn 0.729722 0.033991 -0.682899
vn 0.800021 0.090977 -0.593035
vn 0.800021 0.090977 -0.593035
vn 0.502579 0.018918 -0.864324
vn 0.726492 0.017980 -0.686939
vn 0.729722 0.033991 -0.682899
vn 0.729722 0.033991 -0.682899
vn 0.502579 0.018918 -0.864324
vn 0.729722 0.033991 -0.682899
vn 0.767437 0.083906 -0.635611
s off
g polySurface329polySurface326polySurface324polySurface322polySurface321polySurface318polySurface316polySurface302polySurface300pC
usemtl BuggyBallWallBreakable_piece15_blinn1SG
f 4/2/1 2/5/2 1/3/3 3/1/4
f 2/8/5 4/6/6 5/7/7
f 1/11/8 6/9/9 3/10/10
f 4/6/11 9/12/12 7/13/13 5/7/14
f 9/12/15 10/14/16 8/15/17 7/13/18
f 3/1/19 9/4/20 4/2/21
f 7/18/22 8/19/23 11/20/24
f 8/15/25 10/14/26 12/21/27 11/20/28
f 10/22/29 9/23/30 12/21/31
f 13/24/32 14/25/33 11/20/34 12/21/35
f 3/10/36 6/9/37 14/25/38 13/24/39
f 7/18/40 11/20/41 14/25/42
f 3/10/43 13/24/44 9/23/45
f 13/24/46 12/21/47 9/23/48
f 5/17/49 7/18/50 14/25/51 6/9/52
f 1/26/53 5/17/54 6/9/55
f 1/26/56 2/16/57 5/17/58
