# This file uses centimeters as units for non-parametric coordinates.

mtllib IceSonTallRUpperArm.mtl
g default
v -1.539249 -0.002625 0.168713
v -1.432429 -0.002669 0.302676
v -1.278062 -0.002733 0.377026
v 1.271288 -0.003777 0.377176
v 1.425664 -0.003840 0.302845
v 1.532500 -0.003884 0.168894
v 1.570636 -0.003899 0.001852
v 1.532519 -0.003884 -0.165193
v 1.425699 -0.003840 -0.299157
v 1.271332 -0.003777 -0.373508
v -1.278017 -0.002733 -0.373659
v -1.432393 -0.002669 -0.299327
v -1.539228 -0.002626 -0.165374
v -1.577367 -0.002610 0.001667
v -1.539187 0.151373 0.168713
v -1.432366 0.151329 0.302676
v -1.277999 0.151266 0.377026
v 1.271351 0.150222 0.377176
v 1.425727 0.150158 0.302845
v 1.532563 0.150115 0.168894
v 1.570700 0.150099 0.001852
v 1.532583 0.150115 -0.165193
v 1.425763 0.150158 -0.299157
v 1.271396 0.150222 -0.373508
v -1.277955 0.151266 -0.373659
v -1.432330 0.151329 -0.299327
v -1.539166 0.151373 -0.165374
v -1.577303 0.151389 0.001667
v 1.271310 -0.003777 0.001835
v 1.271374 0.150222 0.001835
v -1.277977 0.151266 0.001685
v -1.278039 -0.002733 0.001685
vt 0.480089 0.510020
vt 0.468106 0.510020
vt 0.468106 0.498423
vt 0.480089 0.498423
vt 0.456123 0.510020
vt 0.456123 0.498423
vt 0.447787 0.509192
vt 0.261657 0.509192
vt 0.261657 0.497949
vt 0.447787 0.497948
vt 0.250039 0.509192
vt 0.250039 0.497949
vt 0.238420 0.509192
vt 0.238420 0.497949
vt 0.226802 0.509192
vt 0.226802 0.497949
vt 0.215184 0.509192
vt 0.215184 0.497949
vt 0.203566 0.509192
vt 0.203566 0.497949
vt 0.191948 0.509192
vt 0.191948 0.497949
vt 0.005817 0.509192
vt 0.005818 0.497949
vt 0.528023 0.510020
vt 0.516039 0.510020
vt 0.516039 0.498423
vt 0.528023 0.498423
vt 0.504056 0.510020
vt 0.504056 0.498423
vt 0.492073 0.510020
vt 0.492072 0.498424
vt 0.014280 0.988976
vt 0.006393 0.979178
vt 0.025616 0.967015
vt 0.025554 0.994301
vt 0.221725 0.989162
vt 0.210542 0.994596
vt 0.210589 0.967396
vt 0.229416 0.979450
vt 0.232148 0.967391
vt 0.229420 0.955344
vt 0.221755 0.945650
vt 0.210626 0.940204
vt 0.025714 0.939744
vt 0.014532 0.944990
vt 0.006612 0.954603
vt 0.003639 0.966835
vt 0.006611 0.717105
vt 0.014509 0.707416
vt 0.025658 0.729477
vt 0.025769 0.702187
vt 0.210952 0.702956
vt 0.222100 0.708690
vt 0.210836 0.730111
vt 0.229311 0.718357
vt 0.232021 0.729924
vt 0.229667 0.741657
vt 0.222211 0.751698
vt 0.210837 0.757322
vt 0.025535 0.756794
vt 0.014211 0.751386
vt 0.006424 0.741513
vt 0.003726 0.729278
vn -0.874752 -0.215861 0.433834
vn -0.605376 -0.149381 0.781796
vn -0.605376 -0.149381 0.781796
vn -0.874752 -0.215861 0.433834
vn -0.605376 -0.149381 0.781796
vn -0.026744 -0.006585 0.999621
vn -0.026744 -0.006585 0.999621
vn -0.605376 -0.149381 0.781796
vn -0.026744 -0.006585 0.999621
vn 0.026626 0.006585 0.999624
vn 0.026626 0.006585 0.999624
vn -0.026744 -0.006585 0.999621
vn 0.026626 0.006585 0.999624
vn 0.605284 0.149383 0.781867
vn 0.605284 0.149383 0.781867
vn 0.026626 0.006585 0.999624
vn 0.605284 0.149383 0.781867
vn 0.874701 0.215864 0.433935
vn 0.874701 0.215864 0.433935
vn 0.605284 0.149383 0.781867
vn 0.874701 0.215864 0.433935
vn 0.970874 0.239592 0.000058
vn 0.970874 0.239592 0.000058
vn 0.874701 0.215864 0.433935
vn 0.970874 0.239592 0.000058
vn 0.874753 0.215865 -0.433832
vn 0.874753 0.215865 -0.433832
vn 0.970874 0.239592 0.000058
vn 0.874753 0.215865 -0.433832
vn 0.605376 0.149383 -0.781796
vn 0.605376 0.149383 -0.781796
vn 0.874753 0.215865 -0.433832
vn 0.605376 0.149383 -0.781796
vn 0.026744 0.006585 -0.999621
vn 0.026744 0.006585 -0.999621
vn 0.605376 0.149383 -0.781796
vn 0.026744 0.006585 -0.999621
vn -0.026626 -0.006585 -0.999624
vn -0.026626 -0.006585 -0.999624
vn 0.026744 0.006585 -0.999621
vn -0.026626 -0.006585 -0.999624
vn -0.605285 -0.149385 -0.781866
vn -0.605285 -0.149385 -0.781866
vn -0.026626 -0.006585 -0.999624
vn -0.605285 -0.149385 -0.781866
vn -0.874699 -0.215868 -0.433937
vn -0.874700 -0.215868 -0.433937
vn -0.605285 -0.149385 -0.781866
vn -0.874699 -0.215868 -0.433937
vn -0.970874 -0.239591 -0.000060
vn -0.970874 -0.239591 -0.000060
vn -0.874700 -0.215868 -0.433937
vn -0.970874 -0.239591 -0.000060
vn -0.874752 -0.215861 0.433834
vn -0.874752 -0.215861 0.433834
vn -0.970874 -0.239591 -0.000060
vn 0.239590 -0.970874 0.000014
vn 0.239590 -0.970874 0.000014
vn 0.239591 -0.970874 0.000014
vn 0.239591 -0.970874 0.000014
vn 0.239590 -0.970874 0.000014
vn 0.239591 -0.970874 0.000014
vn 0.239592 -0.970874 0.000014
vn 0.239591 -0.970874 0.000014
vn 0.239591 -0.970874 0.000014
vn 0.239592 -0.970874 0.000014
vn 0.239592 -0.970874 0.000014
vn 0.239591 -0.970874 0.000014
vn 0.239591 -0.970874 0.000014
vn 0.239592 -0.970874 0.000014
vn 0.239591 -0.970874 0.000014
vn 0.239592 -0.970874 0.000014
vn 0.239591 -0.970874 0.000014
vn 0.239591 -0.970874 0.000014
vn 0.239591 -0.970874 0.000014
vn 0.239592 -0.970874 0.000014
vn 0.239591 -0.970874 0.000014
vn 0.239591 -0.970874 0.000014
vn 0.239591 -0.970874 0.000014
vn 0.239591 -0.970874 0.000014
vn 0.239591 -0.970874 0.000014
vn 0.239591 -0.970874 0.000014
vn 0.239591 -0.970874 0.000014
vn 0.239591 -0.970874 0.000014
vn 0.239591 -0.970874 0.000014
vn 0.239591 -0.970874 0.000014
vn 0.239591 -0.970874 0.000014
vn 0.239592 -0.970874 0.000014
vn 0.239591 -0.970874 0.000014
vn 0.239591 -0.970874 0.000014
vn 0.239591 -0.970874 0.000014
vn 0.239592 -0.970874 0.000014
vn 0.239591 -0.970874 0.000014
vn 0.239590 -0.970874 0.000014
vn 0.239591 -0.970874 0.000014
vn 0.239591 -0.970874 0.000014
vn -0.239592 0.970874 -0.000014
vn -0.239593 0.970873 -0.000014
vn -0.239591 0.970874 -0.000014
vn -0.239593 0.970873 -0.000014
vn -0.239591 0.970874 -0.000014
vn -0.239591 0.970874 -0.000014
vn -0.239591 0.970874 -0.000014
vn -0.239592 0.970874 -0.000015
vn -0.239591 0.970874 -0.000014
vn -0.239592 0.970874 -0.000015
vn -0.239591 0.970874 -0.000014
vn -0.239591 0.970874 -0.000014
vn -0.239591 0.970874 -0.000014
vn -0.239591 0.970874 -0.000014
vn -0.239591 0.970874 -0.000014
vn -0.239591 0.970874 -0.000014
vn -0.239592 0.970874 -0.000014
vn -0.239591 0.970874 -0.000014
vn -0.239592 0.970874 -0.000014
vn -0.239592 0.970874 -0.000014
vn -0.239591 0.970874 -0.000014
vn -0.239592 0.970874 -0.000014
vn -0.239591 0.970874 -0.000014
vn -0.239591 0.970874 -0.000014
vn -0.239591 0.970874 -0.000014
vn -0.239591 0.970874 -0.000014
vn -0.239591 0.970874 -0.000014
vn -0.239591 0.970874 -0.000014
vn -0.239591 0.970874 -0.000014
vn -0.239591 0.970874 -0.000014
vn -0.239591 0.970874 -0.000014
vn -0.239591 0.970874 -0.000014
vn -0.239591 0.970874 -0.000014
vn -0.239591 0.970874 -0.000014
vn -0.239591 0.970874 -0.000014
vn -0.239591 0.970874 -0.000014
vn -0.239591 0.970874 -0.000014
vn -0.239591 0.970874 -0.000014
vn -0.239592 0.970874 -0.000014
vn -0.239591 0.970874 -0.000014
vn -0.239591 0.970874 -0.000014
vn -0.239591 0.970874 -0.000014
vn -0.239591 0.970874 -0.000014
vn -0.239591 0.970874 -0.000014
vn 0.239591 -0.970874 0.000014
vn 0.239591 -0.970874 0.000014
vn 0.239591 -0.970874 0.000014
vn 0.239591 -0.970874 0.000014
s off
g FoodTallRUpperArm
usemtl Eye_blinn1SG
f 1/1/1 2/2/2 16/3/3 15/4/4
f 2/2/5 3/5/6 17/6/7 16/3/8
f 3/7/9 4/8/10 18/9/11 17/10/12
f 4/8/13 5/11/14 19/12/15 18/9/16
f 5/11/17 6/13/18 20/14/19 19/12/20
f 6/13/21 7/15/22 21/16/23 20/14/24
f 7/15/25 8/17/26 22/18/27 21/16/28
f 8/17/29 9/19/30 23/20/31 22/18/32
f 9/19/33 10/21/34 24/22/35 23/20/36
f 10/21/37 11/23/38 25/24/39 24/22/40
f 11/25/41 12/26/42 26/27/43 25/28/44
f 12/26/45 13/29/46 27/30/47 26/27/48
f 13/29/49 14/31/50 28/32/51 27/30/52
f 14/31/53 1/1/54 15/4/55 28/32/56
f 2/33/57 1/34/58 32/35/59
f 3/36/60 2/33/61 32/35/62
f 5/37/63 4/38/64 29/39/65
f 6/40/66 5/37/67 29/39/68
f 7/41/69 6/40/70 29/39/71
f 8/42/72 7/41/73 29/39/74
f 9/43/75 8/42/76 29/39/77
f 10/44/78 9/43/79 29/39/80
f 11/45/81 10/44/82 29/39/83 32/35/84
f 12/46/85 11/45/86 32/35/87
f 13/47/88 12/46/89 32/35/90
f 14/48/91 13/47/92 32/35/93
f 1/34/94 14/48/95 32/35/96
f 15/49/97 16/50/98 31/51/99
f 16/50/100 17/52/101 31/51/102
f 18/53/103 19/54/104 30/55/105
f 19/54/106 20/56/107 30/55/108
f 20/56/109 21/57/110 30/55/111
f 21/57/112 22/58/113 30/55/114
f 22/58/115 23/59/116 30/55/117
f 23/59/118 24/60/119 30/55/120
f 30/55/121 24/60/122 25/61/123 31/51/124
f 25/61/125 26/62/126 31/51/127
f 26/62/128 27/63/129 31/51/130
f 27/63/131 28/64/132 31/51/133
f 28/64/134 15/49/135 31/51/136
f 30/55/137 31/51/138 17/52/139 18/53/140
f 3/36/141 32/35/142 29/39/143 4/38/144
