# This file uses centimeters as units for non-parametric coordinates.

mtllib IceSonTallLUpperLeg.mtl
g default
v -1.906353 -0.214774 -0.003064
v -1.773748 -0.381055 -0.003024
v -1.582126 -0.473334 -0.002968
v 1.582389 -0.473334 -0.002017
v 1.774011 -0.381055 -0.001959
v 1.906617 -0.214774 -0.001919
v 1.953943 -0.007422 -0.001904
v 1.906617 0.199930 -0.001919
v 1.774011 0.366211 -0.001959
v 1.582389 0.458493 -0.002017
v -1.582126 0.458493 -0.002968
v -1.773748 0.366213 -0.003024
v -1.906352 0.199930 -0.003066
v -1.953682 -0.007422 -0.003079
v -1.906411 -0.214774 0.188093
v -1.773804 -0.381055 0.188132
v -1.582184 -0.473334 0.188193
v 1.582332 -0.473334 0.189143
v 1.773952 -0.381055 0.189200
v 1.906559 -0.214774 0.189239
v 1.953885 -0.007422 0.189253
v 1.906559 0.199930 0.189239
v 1.773954 0.366211 0.189200
v 1.582332 0.458493 0.189143
v -1.582183 0.458493 0.188191
v -1.773804 0.366213 0.188132
v -1.906410 0.199930 0.188095
v -1.953738 -0.007422 0.188079
v 1.582389 -0.007422 -0.002017
v 1.582332 -0.007422 0.189143
v -1.582183 -0.007422 0.188191
v -1.582126 -0.007422 -0.002968
vt 0.480089 0.542281
vt 0.480089 0.530684
vt 0.468106 0.530684
vt 0.468106 0.542281
vt 0.456123 0.530684
vt 0.456123 0.542281
vt 0.447787 0.537868
vt 0.447787 0.526624
vt 0.261657 0.526625
vt 0.261657 0.537868
vt 0.250039 0.526625
vt 0.250039 0.537868
vt 0.238420 0.526625
vt 0.238420 0.537868
vt 0.226802 0.526625
vt 0.226802 0.537868
vt 0.215184 0.526625
vt 0.215184 0.537868
vt 0.203566 0.526625
vt 0.203566 0.537868
vt 0.191948 0.526625
vt 0.191948 0.537868
vt 0.005818 0.526625
vt 0.005817 0.537868
vt 0.528023 0.542281
vt 0.528023 0.530684
vt 0.516039 0.530684
vt 0.516039 0.542281
vt 0.504056 0.530684
vt 0.504056 0.542281
vt 0.492073 0.530684
vt 0.492073 0.542281
vt 0.014280 0.870339
vt 0.025616 0.848378
vt 0.006393 0.860541
vt 0.025554 0.875664
vt 0.221725 0.870525
vt 0.210589 0.848759
vt 0.210542 0.875959
vt 0.229416 0.860813
vt 0.232148 0.848754
vt 0.229420 0.836707
vt 0.221755 0.827013
vt 0.210626 0.821567
vt 0.025714 0.821108
vt 0.014532 0.826354
vt 0.006612 0.835966
vt 0.003639 0.848198
vt 0.516463 0.951616
vt 0.535511 0.963988
vt 0.524362 0.941927
vt 0.535621 0.936698
vt 0.720805 0.937467
vt 0.720689 0.964622
vt 0.731953 0.943200
vt 0.739164 0.952868
vt 0.741873 0.964435
vt 0.739520 0.976168
vt 0.732063 0.986209
vt 0.720690 0.991833
vt 0.535387 0.991305
vt 0.524063 0.985896
vt 0.516276 0.976024
vt 0.513579 0.963788
vn -0.900968 -0.433886 -0.000270
vn -0.623486 -0.781834 -0.000187
vn -0.623485 -0.781835 -0.000187
vn -0.900968 -0.433886 -0.000270
vn -0.027485 -0.999622 -0.000008
vn -0.027485 -0.999622 -0.000008
vn 0.027485 -0.999622 0.000009
vn 0.027485 -0.999622 0.000009
vn 0.623486 -0.781835 0.000191
vn 0.623485 -0.781835 0.000191
vn 0.900968 -0.433885 0.000275
vn 0.900968 -0.433886 0.000275
vn 1.000000 0.000000 0.000302
vn 1.000000 0.000000 0.000302
vn 0.900969 0.433884 0.000271
vn 0.900969 0.433884 0.000271
vn 0.623489 0.781832 0.000187
vn 0.623489 0.781832 0.000187
vn 0.027486 0.999622 0.000008
vn 0.027486 0.999622 0.000008
vn -0.027485 0.999622 -0.000008
vn -0.027485 0.999622 -0.000008
vn -0.623492 0.781830 -0.000186
vn -0.623491 0.781831 -0.000186
vn -0.900969 0.433884 -0.000268
vn -0.900969 0.433884 -0.000268
vn -1.000000 0.000005 -0.000298
vn -1.000000 0.000005 -0.000298
vn 0.000296 -0.000000 -1.000000
vn 0.000298 -0.000003 -1.000000
vn 0.000300 -0.000000 -1.000000
vn 0.000300 0.000000 -1.000000
vn 0.000304 -0.000001 -1.000000
vn 0.000300 0.000000 -1.000000
vn 0.000300 0.000000 -1.000000
vn 0.000303 0.000000 -1.000000
vn 0.000305 -0.000000 -1.000000
vn 0.000303 -0.000000 -1.000000
vn 0.000304 0.000001 -1.000000
vn 0.000300 0.000000 -1.000000
vn 0.000300 0.000000 -1.000000
vn 0.000300 0.000002 -1.000000
vn 0.000303 0.000001 -1.000000
vn 0.000299 -0.000005 -1.000000
vn -0.000300 -0.000003 1.000000
vn -0.000308 0.000002 1.000000
vn -0.000301 0.000001 1.000000
vn -0.000301 0.000002 1.000000
vn -0.000301 0.000002 1.000000
vn -0.000296 -0.000000 1.000000
vn -0.000301 0.000001 1.000000
vn -0.000296 0.000001 1.000000
vn -0.000294 0.000000 1.000000
vn -0.000296 -0.000001 1.000000
vn -0.000296 0.000000 1.000000
vn -0.000301 -0.000000 1.000000
vn -0.000301 -0.000000 1.000000
vn -0.000300 0.000003 1.000000
vn -0.000296 0.000002 1.000000
vn -0.000299 -0.000005 1.000000
s 1
g FoodTallLUpperLeg
usemtl Eye_blinn1SG
f 1/1/1 2/4/2 16/3/3 15/2/4
f 2/4/2 3/6/5 17/5/6 16/3/3
f 3/7/5 4/10/7 18/9/8 17/8/6
f 4/10/7 5/12/9 19/11/10 18/9/8
f 5/12/9 6/14/11 20/13/12 19/11/10
f 6/14/11 7/16/13 21/15/14 20/13/12
f 7/16/13 8/18/15 22/17/16 21/15/14
f 8/18/15 9/20/17 23/19/18 22/17/16
f 9/20/17 10/22/19 24/21/20 23/19/18
f 10/22/19 11/24/21 25/23/22 24/21/20
f 11/25/21 12/28/23 26/27/24 25/26/22
f 12/28/23 13/30/25 27/29/26 26/27/24
f 13/30/25 14/32/27 28/31/28 27/29/26
f 14/32/27 1/1/1 15/2/4 28/31/28
s 2
f 2/33/29 1/35/30 32/34/31
f 3/36/32 2/33/29 32/34/31
f 5/37/33 4/39/34 29/38/35
f 6/40/36 5/37/33 29/38/35
f 7/41/37 6/40/36 29/38/35
f 8/42/38 7/41/37 29/38/35
f 9/43/39 8/42/38 29/38/35
f 10/44/40 9/43/39 29/38/35
f 11/45/41 10/44/40 29/38/35 32/34/31
f 12/46/42 11/45/41 32/34/31
f 13/47/43 12/46/42 32/34/31
f 14/48/44 13/47/43 32/34/31
f 1/35/30 14/48/44 32/34/31
s 3
f 15/49/45 16/51/46 31/50/47
f 16/51/46 17/52/48 31/50/47
f 18/53/49 19/55/50 30/54/51
f 19/55/50 20/56/52 30/54/51
f 20/56/52 21/57/53 30/54/51
f 21/57/53 22/58/54 30/54/51
f 22/58/54 23/59/55 30/54/51
f 23/59/55 24/60/56 30/54/51
f 30/54/51 24/60/56 25/61/57 31/50/47
f 25/61/57 26/62/58 31/50/47
f 26/62/58 27/63/59 31/50/47
f 27/63/59 28/64/60 31/50/47
f 28/64/60 15/49/45 31/50/47
f 30/54/51 31/50/47 17/52/48 18/53/49
s 2
f 3/36/32 32/34/31 29/38/35 4/39/34
