# This file uses centimeters as units for non-parametric coordinates.

mtllib IceSonLTopIncisor.mtl
g default
v 0.112401 1.000138 -0.053737
v 0.246271 0.893378 -0.054429
v 0.320564 0.739105 -0.054768
v 0.320571 -0.056261 -0.053538
v -0.429624 -0.056260 -0.049369
v -0.429631 0.739105 -0.050599
v -0.355339 0.893378 -0.051085
v -0.221468 1.000137 -0.051881
v -0.054534 1.038242 -0.052827
v 0.113256 1.000213 0.100161
v 0.247126 0.893452 0.099468
v 0.321419 0.739180 0.099131
v 0.321426 -0.056186 0.100360
v -0.428769 -0.056186 0.104529
v -0.428776 0.739179 0.103299
v -0.354484 0.893452 0.102811
v -0.220613 1.000211 0.102017
v -0.053678 1.038314 0.101070
v -0.054526 -0.056261 -0.051454
v -0.053671 -0.056186 0.102444
v -0.053678 0.739179 0.101215
v -0.054533 0.739105 -0.052683
vt 0.480089 0.558411
vt 0.480090 0.546814
vt 0.468106 0.546814
vt 0.468106 0.558411
vt 0.456123 0.546814
vt 0.456123 0.558411
vt 0.448177 0.552874
vt 0.448177 0.541630
vt 0.390069 0.541588
vt 0.390069 0.552793
vt 0.064316 0.541589
vt 0.064315 0.552793
vt 0.006208 0.541631
vt 0.006207 0.552874
vt 0.528023 0.558411
vt 0.528023 0.546814
vt 0.516039 0.546814
vt 0.516039 0.558411
vt 0.504056 0.546814
vt 0.504056 0.558411
vt 0.492073 0.546814
vt 0.492073 0.558411
vt 0.014280 0.809443
vt 0.025616 0.787482
vt 0.006393 0.799645
vt 0.025554 0.814768
vt 0.083368 0.787604
vt 0.083307 0.814844
vt 0.083436 0.760370
vt 0.025714 0.760211
vt 0.014532 0.765457
vt 0.006612 0.775070
vt 0.003639 0.787302
vt 0.516463 0.893592
vt 0.535510 0.905964
vt 0.524362 0.883903
vt 0.535621 0.878674
vt 0.593434 0.878935
vt 0.593328 0.906171
vt 0.593248 0.933428
vt 0.535387 0.933281
vt 0.524063 0.927872
vt 0.516276 0.918000
vt 0.513579 0.905764
vn 0.432680 0.874726 -0.218273
vn 0.432680 0.874726 -0.218273
vn 0.780989 0.605330 -0.153725
vn 0.780989 0.605330 -0.153725
vn 0.780989 0.605330 -0.153725
vn 0.780989 0.605330 -0.153725
vn 0.999570 0.026685 -0.012140
vn 0.999570 0.026685 -0.012140
vn 0.999570 0.026685 -0.012140
vn 0.999570 0.026685 -0.012140
vn 0.999643 -0.026685 0.001030
vn 0.999643 -0.026685 0.001030
vn -0.999570 -0.026685 0.012140
vn -0.999570 -0.026685 0.012140
vn -0.999643 0.026685 -0.001030
vn -0.999643 0.026685 -0.001030
vn -0.999643 0.026685 -0.001030
vn -0.999643 0.026685 -0.001030
vn -0.782649 0.605331 -0.145036
vn -0.782649 0.605331 -0.145036
vn -0.782649 0.605331 -0.145036
vn -0.782649 0.605331 -0.145036
vn -0.435079 0.874726 -0.213448
vn -0.435079 0.874726 -0.213448
vn -0.435079 0.874726 -0.213448
vn -0.435079 0.874726 -0.213448
vn -0.001334 0.970874 -0.239587
vn -0.001334 0.970874 -0.239587
vn -0.001334 0.970874 -0.239587
vn -0.001334 0.970874 -0.239587
vn 0.432680 0.874726 -0.218273
vn 0.432680 0.874726 -0.218273
vn -0.005395 -0.239591 -0.970859
vn -0.005395 -0.239591 -0.970859
vn -0.005395 -0.239592 -0.970859
vn -0.005395 -0.239591 -0.970859
vn -0.005395 -0.239591 -0.970859
vn -0.005395 -0.239591 -0.970859
vn -0.005395 -0.239591 -0.970859
vn -0.005395 -0.239591 -0.970859
vn -0.005395 -0.239591 -0.970859
vn -0.005395 -0.239591 -0.970859
vn -0.005395 -0.239591 -0.970859
vn -0.005395 -0.239591 -0.970859
vn -0.005395 -0.239591 -0.970859
vn -0.005395 -0.239591 -0.970859
vn -0.005395 -0.239591 -0.970859
vn -0.005395 -0.239591 -0.970859
vn -0.005395 -0.239591 -0.970859
vn -0.005395 -0.239591 -0.970859
vn -0.005395 -0.239591 -0.970859
vn -0.005395 -0.239592 -0.970859
vn -0.005395 -0.239591 -0.970859
vn -0.005395 -0.239591 -0.970859
vn 0.005395 0.239592 0.970859
vn 0.005395 0.239591 0.970859
vn 0.005395 0.239591 0.970859
vn 0.005395 0.239591 0.970859
vn 0.005395 0.239591 0.970859
vn 0.005395 0.239591 0.970859
vn 0.005395 0.239591 0.970859
vn 0.005395 0.239591 0.970859
vn 0.005395 0.239591 0.970859
vn 0.005395 0.239591 0.970859
vn 0.005395 0.239591 0.970859
vn 0.005395 0.239591 0.970859
vn 0.005395 0.239592 0.970859
vn 0.005395 0.239592 0.970859
vn 0.005395 0.239591 0.970859
vn 0.005395 0.239592 0.970859
vn 0.005395 0.239592 0.970859
vn 0.005395 0.239591 0.970859
vn 0.005395 0.239592 0.970859
vn 0.005395 0.239592 0.970859
vn 0.005395 0.239591 0.970859
vn 0.005395 0.239592 0.970859
vn 0.005395 0.239591 0.970859
vn 0.005395 0.239591 0.970859
vn 0.005395 0.239591 0.970859
vn 0.005395 0.239591 0.970859
vn -0.005395 -0.239591 -0.970859
vn -0.005395 -0.239591 -0.970859
vn -0.005395 -0.239591 -0.970859
vn -0.005395 -0.239591 -0.970859
s off
g FoodLBuckTeeth
usemtl Eye_blinn1SG
f 1/1/1 10/2/2 11/3/3 2/4/4
f 2/4/5 11/3/6 12/5/7 3/6/8
f 3/7/9 12/8/10 13/9/11 4/10/12
f 5/12/13 14/11/14 15/13/15 6/14/16
f 6/15/17 15/16/18 16/17/19 7/18/20
f 7/18/21 16/17/22 17/19/23 8/20/24
f 8/20/25 17/19/26 18/21/27 9/22/28
f 9/22/29 18/21/30 10/2/31 1/1/32
f 2/23/33 22/24/34 1/25/35
f 3/26/36 22/24/37 2/23/38
f 6/30/39 22/24/40 19/27/41 5/29/42
f 7/31/43 22/24/44 6/30/45
f 8/32/46 22/24/47 7/31/48
f 9/33/49 22/24/50 8/32/51
f 1/25/52 22/24/53 9/33/54
f 10/34/55 21/35/56 11/36/57
f 11/36/58 21/35/59 12/37/60
f 20/39/61 21/35/62 15/41/63 14/40/64
f 15/41/65 21/35/66 16/42/67
f 16/42/68 21/35/69 17/43/70
f 17/43/71 21/35/72 18/44/73
f 18/44/74 21/35/75 10/34/76
f 20/39/77 13/38/78 12/37/79 21/35/80
f 3/26/81 4/28/82 19/27/83 22/24/84
