# This file uses centimeters as units for non-parametric coordinates.

mtllib PalmTree03COL.mtl
g default
v 60.199623 36.435852 -14.006783
v 53.372284 35.150379 -16.884453
v 46.544945 33.864906 -14.006783
v 43.716961 33.332443 -7.059481
v 46.544945 33.864906 -0.112179
v 53.372284 35.150379 2.765491
v 60.199623 36.435852 -0.112179
v 63.027603 36.968315 -7.059481
v 65.659569 47.558495 -21.430498
v 51.536705 44.899395 -27.383137
v 37.413841 42.240295 -21.430498
v 31.563990 41.138866 -7.059482
v 37.413841 42.240295 7.311535
v 51.536705 44.899395 13.264175
v 65.659569 47.558495 7.311535
v 71.509422 48.659924 -7.059482
v 54.178688 30.867428 -7.059481
v 60.877686 57.402515 -18.552643
v 49.582977 55.275913 -23.313246
v 48.987122 58.440601 -7.059482
v 38.288277 53.149311 -18.552647
v 33.609879 52.268444 -7.059482
v 38.288277 53.149311 4.433685
v 49.582977 55.275913 9.194284
v 60.877686 57.402515 4.433681
v 65.556084 58.283382 -7.059482
v 2.213766 0.076875 -2.267290
v 0.000000 0.072226 -3.182522
v -2.195436 0.062275 -2.248879
v -3.086559 0.053802 0.000000
v -2.140828 0.050821 2.248879
v 0.088091 0.054127 3.181704
v 2.284825 0.062735 2.264594
v 3.177123 0.072551 0.000004
v 52.723381 46.226276 -8.263328
v 10.452613 16.746571 2.678097
v 9.067977 17.958382 1.772511
v 8.490509 18.425442 -0.217161
v 9.072720 17.867697 -2.141369
v 10.457913 16.605412 -2.854431
v 11.833670 15.384468 -1.960763
v 12.405775 14.926538 0.000000
v 11.831009 15.493414 1.960763
v 52.934807 43.177704 -6.637230
v 52.134689 42.920467 -6.926195
v 51.803268 42.813919 -7.743599
v 52.134689 42.920467 -8.612656
v 52.934807 43.177704 -9.022246
v 53.734924 43.434937 -8.730399
v 54.066345 43.541489 -7.910113
v 53.734928 43.434937 -7.043938
v 52.848259 44.425663 -6.338906
v 51.736355 44.044937 -6.748617
v 51.275787 43.887234 -7.893232
v 51.736355 44.044937 -9.106442
v 52.848259 44.425663 -9.673375
v 53.960163 44.806389 -9.257736
v 54.420731 44.964092 -8.107194
v 53.960163 44.806389 -6.899911
v 40.564766 16.389898 1.236434
v 39.596085 17.384216 1.538942
v 38.627113 18.376616 0.667266
v 38.225639 18.784712 -0.878833
v 38.627071 18.367414 -2.200979
v 39.596020 17.370398 -2.513841
v 40.564720 16.379574 -1.626839
v 40.965927 15.974179 -0.070386
v 50.888718 23.278624 -1.107719
v 49.782619 23.648903 -1.695292
v 49.324150 23.802847 -2.956094
v 49.782280 23.649963 -4.155037
v 50.888149 23.280237 -4.585386
v 51.993530 22.910578 -3.991622
v 52.451412 22.757093 -2.725896
v 51.993999 22.909359 -1.533145
v 54.780140 32.590569 -5.452831
v 53.755142 32.552246 -4.907197
v 52.731087 32.513813 -5.234142
v 52.307205 32.497829 -6.241740
v 52.731220 32.513729 -7.340817
v 53.755352 32.552124 -7.887939
v 54.780300 32.590477 -7.561547
v 55.205040 32.606373 -6.552459
v 21.382504 18.142027 2.088111
v 20.375586 19.544064 1.143011
v 19.958326 20.099403 -0.702327
v 20.373728 19.479120 -2.379963
v 21.380186 18.040981 -2.891659
v 22.389778 16.630737 -1.924450
v 22.809195 16.080328 -0.060619
v 22.391119 16.708838 1.594902
v 4.230781 11.253792 3.019325
v 2.448771 12.007494 2.110072
v 1.750751 12.298120 0.000317
v 2.442132 11.943579 -2.109922
v 4.223602 11.154578 -3.027580
v 6.086204 10.410240 -2.151119
v 6.865926 10.142099 0.000336
v 6.086669 10.486292 2.149176
vt 0.375000 0.312500
vt 0.406250 0.312500
vt 0.406250 0.688440
vt 0.375000 0.688440
vt 0.437500 0.312500
vt 0.437500 0.688440
vt 0.468750 0.312500
vt 0.468750 0.688440
vt 0.500000 0.312500
vt 0.500000 0.688440
vt 0.531250 0.312500
vt 0.531250 0.688440
vt 0.562500 0.312500
vt 0.562500 0.688440
vt 0.593750 0.312500
vt 0.593750 0.688440
vt 0.625000 0.312500
vt 0.625000 0.688440
vt 0.500000 0.000000
vt 0.610485 0.045765
vt 0.500000 0.150000
vt 0.389515 0.045765
vt 0.343750 0.156250
vt 0.389515 0.266735
vt 0.500000 0.312500
vt 0.610485 0.266735
vt 0.656250 0.156250
vt 0.610485 0.954235
vt 0.500000 1.000000
vt 0.500000 0.837500
vt 0.389515 0.954235
vt 0.343750 0.843750
vt 0.389515 0.733265
vt 0.500000 0.687500
vt 0.610485 0.733265
vt 0.656250 0.843750
vt 0.610485 0.954235
vt 0.500000 1.000000
vt 0.389515 0.954235
vt 0.343750 0.843750
vt 0.389515 0.733265
vt 0.500000 0.687500
vt 0.610485 0.733265
vt 0.656250 0.843750
vt 0.415737 0.012320
vt 0.460717 0.016666
vt 0.450046 0.129924
vt 0.409095 0.126225
vt 0.112401 0.014389
vt 0.157730 0.010515
vt 0.162650 0.124717
vt 0.121558 0.127850
vt 0.201078 0.009355
vt 0.203786 0.122620
vt 0.243967 0.008450
vt 0.244906 0.121462
vt 0.286830 0.008452
vt 0.285956 0.121215
vt 0.329686 0.008956
vt 0.327010 0.121956
vt 0.372493 0.010450
vt 0.368076 0.123640
vt 0.320990 0.993052
vt 0.338619 0.952365
vt 0.358940 0.958202
vt 0.270744 0.986852
vt 0.220015 0.957806
vt 0.238025 0.949046
vt 0.255448 0.941845
vt 0.272811 0.939628
vt 0.289038 0.942122
vt 0.303831 0.946901
vt 0.319857 0.949603
vt 0.289202 0.917795
vt 0.271520 0.917319
vt 0.266699 0.748977
vt 0.288260 0.748420
vt 0.253720 0.919801
vt 0.244611 0.750360
vt 0.236222 0.924467
vt 0.222949 0.752481
vt 0.219755 0.928447
vt 0.201270 0.754861
vt 0.357801 0.929426
vt 0.340272 0.926947
vt 0.353294 0.752446
vt 0.375040 0.754532
vt 0.323571 0.923679
vt 0.331794 0.750563
vt 0.306312 0.920336
vt 0.309818 0.749085
vt 0.261085 0.595312
vt 0.286843 0.594577
vt 0.235301 0.597042
vt 0.209636 0.599470
vt 0.184090 0.602352
vt 0.363775 0.598235
vt 0.389304 0.600594
vt 0.338223 0.596257
vt 0.312540 0.594928
vt 0.254541 0.434754
vt 0.285412 0.434092
vt 0.223744 0.436556
vt 0.193147 0.439474
vt 0.162880 0.443448
vt 0.377414 0.438781
vt 0.407488 0.442451
vt 0.346955 0.436137
vt 0.316249 0.434562
vt 0.248650 0.281865
vt 0.285147 0.281332
vt 0.212131 0.283665
vt 0.175623 0.286767
vt 0.139114 0.291136
vt 0.394360 0.287368
vt 0.430617 0.291891
vt 0.358026 0.284134
vt 0.321585 0.282116
vt 0.245532 0.193467
vt 0.285474 0.193101
vt 0.205450 0.194908
vt 0.165080 0.197519
vt 0.124131 0.201208
vt 0.405628 0.198845
vt 0.446375 0.202958
vt 0.365416 0.195868
vt 0.325346 0.193948
vn 0.398257 -0.636404 -0.660591
vn 0.398257 -0.636404 -0.660591
vn 0.398257 -0.636404 -0.660591
vn 0.398257 -0.636404 -0.660591
vn -0.139543 -0.737663 -0.660591
vn -0.139543 -0.737663 -0.660591
vn -0.139543 -0.737663 -0.660591
vn -0.139543 -0.737663 -0.660591
vn -0.519828 -0.809264 -0.273625
vn -0.519828 -0.809264 -0.273625
vn -0.519828 -0.809264 -0.273625
vn -0.519827 -0.809264 -0.273625
vn -0.519827 -0.809264 0.273625
vn -0.519828 -0.809264 0.273625
vn -0.519827 -0.809264 0.273625
vn -0.519827 -0.809264 0.273625
vn -0.139543 -0.737663 0.660591
vn -0.139543 -0.737663 0.660591
vn -0.139543 -0.737663 0.660591
vn -0.139543 -0.737663 0.660591
vn 0.398257 -0.636404 0.660591
vn 0.398257 -0.636404 0.660591
vn 0.398257 -0.636404 0.660591
vn 0.398257 -0.636404 0.660591
vn 0.778541 -0.564803 0.273625
vn 0.778541 -0.564803 0.273625
vn 0.778541 -0.564803 0.273625
vn 0.778541 -0.564803 0.273625
vn 0.778542 -0.564803 -0.273625
vn 0.778541 -0.564803 -0.273625
vn 0.778541 -0.564803 -0.273625
vn 0.778541 -0.564803 -0.273625
vn 0.169138 -0.898319 -0.405482
vn 0.450907 -0.845266 -0.286719
vn 0.185032 -0.982733 -0.000000
vn -0.112630 -0.951371 -0.286719
vn -0.229342 -0.973346 0.000000
vn -0.112630 -0.951371 0.286719
vn 0.169138 -0.898319 0.405482
vn 0.450907 -0.845267 0.286719
vn 0.567619 -0.823292 0.000000
vn -0.046452 0.989422 -0.137425
vn -0.181504 0.963994 -0.194348
vn -0.185032 0.982733 0.000000
vn -0.316556 0.938567 -0.137424
vn -0.372496 0.928034 0.000000
vn -0.316556 0.938566 0.137425
vn -0.181504 0.963994 0.194348
vn -0.046452 0.989422 0.137425
vn 0.009488 0.999955 -0.000000
vn 0.292207 0.396384 -0.870342
vn 0.292207 0.396384 -0.870342
vn 0.292207 0.396384 -0.870342
vn 0.292207 0.396384 -0.870342
vn -0.416353 0.262974 -0.870342
vn -0.416354 0.262974 -0.870342
vn -0.416354 0.262974 -0.870342
vn -0.416354 0.262974 -0.870342
vn -0.917386 0.168638 -0.360505
vn -0.917386 0.168638 -0.360505
vn -0.917386 0.168638 -0.360505
vn -0.917386 0.168638 -0.360505
vn -0.917386 0.168638 0.360505
vn -0.917386 0.168638 0.360505
vn -0.917386 0.168638 0.360505
vn -0.917386 0.168638 0.360505
vn -0.416354 0.262974 0.870342
vn -0.416354 0.262974 0.870342
vn -0.416354 0.262974 0.870342
vn -0.416354 0.262974 0.870342
vn 0.292207 0.396384 0.870341
vn 0.292207 0.396385 0.870341
vn 0.292207 0.396385 0.870341
vn 0.292207 0.396385 0.870341
vn 0.793240 0.490721 0.360506
vn 0.793240 0.490721 0.360506
vn 0.793240 0.490721 0.360505
vn 0.793240 0.490721 0.360505
vn 0.793240 0.490720 -0.360506
vn 0.793240 0.490720 -0.360506
vn 0.793240 0.490720 -0.360506
vn 0.793240 0.490720 -0.360506
vn 0.691481 -0.003048 -0.722389
vn -0.065945 0.110434 -0.991693
vn -0.009534 0.087672 -0.996104
vn 0.621512 -0.374705 -0.687982
vn -0.065945 0.110434 -0.991693
vn -0.737606 0.249030 -0.627631
vn -0.605673 0.472610 -0.640156
vn -0.009534 0.087672 -0.996104
vn -0.737606 0.249030 -0.627631
vn -0.953445 0.301324 0.012110
vn -0.806040 0.591836 -0.005507
vn -0.605673 0.472610 -0.640156
vn -0.953445 0.301324 0.012110
vn -0.727328 0.244890 0.641111
vn -0.610595 0.473464 0.634827
vn -0.806040 0.591836 -0.005507
vn -0.727328 0.244890 0.641111
vn -0.062795 0.110173 0.991927
vn -0.010190 0.087928 0.996075
vn -0.610595 0.473464 0.634827
vn -0.062795 0.110173 0.991927
vn 0.699423 -0.000708 0.714707
vn 0.617496 -0.368117 0.695118
vn -0.010190 0.087928 0.996075
vn 0.699423 -0.000708 0.714707
vn 0.999344 -0.033605 -0.013526
vn 0.836806 -0.547427 0.008920
vn 0.617496 -0.368117 0.695118
vn 0.999344 -0.033605 -0.013526
vn 0.691481 -0.003048 -0.722389
vn 0.621512 -0.374705 -0.687982
vn 0.836806 -0.547427 0.008920
vn -0.314601 0.949109 -0.014780
vn 0.704522 0.000212 -0.709682
vn -0.025386 -0.109482 -0.993665
vn -0.314601 0.949109 -0.014780
vn -0.025386 -0.109482 -0.993665
vn -0.719786 -0.133715 -0.681196
vn -0.314601 0.949109 -0.014780
vn -0.719786 -0.133715 -0.681196
vn -0.997785 -0.066486 0.002110
vn -0.314601 0.949109 -0.014780
vn -0.997785 -0.066486 0.002110
vn -0.708723 0.050833 0.703653
vn -0.314601 0.949109 -0.014780
vn -0.708723 0.050833 0.703653
vn 0.014341 0.151765 0.988313
vn -0.314601 0.949109 -0.014780
vn 0.014341 0.151765 0.988313
vn 0.708843 0.173812 0.683616
vn -0.314601 0.949109 -0.014780
vn 0.708843 0.173812 0.683616
vn 0.993356 0.115041 -0.003145
vn -0.314601 0.949109 -0.014780
vn 0.993356 0.115041 -0.003145
vn 0.704522 0.000212 -0.709682
vn 0.102936 0.095606 0.990083
vn -0.680188 0.015435 0.732876
vn -0.666597 0.219827 0.712267
vn 0.113341 0.265346 0.957468
vn -0.680188 0.015435 0.732876
vn -0.993637 -0.110634 -0.021115
vn -0.999313 0.026428 -0.025985
vn -0.666597 0.219827 0.712267
vn -0.993637 -0.110634 -0.021115
vn -0.680558 -0.192609 -0.706925
vn -0.709145 -0.146602 -0.689653
vn -0.999313 0.026428 -0.025985
vn -0.680558 -0.192609 -0.706925
vn 0.017178 -0.189707 -0.981691
vn -0.047983 -0.215869 -0.975243
vn -0.709145 -0.146602 -0.689653
vn 0.017178 -0.189707 -0.981691
vn 0.718761 -0.102622 -0.687642
vn 0.678936 -0.159501 -0.716663
vn -0.047983 -0.215869 -0.975243
vn 0.718761 -0.102622 -0.687642
vn 0.999776 0.010805 -0.018173
vn 0.999472 -0.008737 -0.031288
vn 0.678936 -0.159501 -0.716663
vn 0.999776 0.010805 -0.018173
vn 0.761475 0.087200 0.642302
vn 0.760792 0.159231 0.629160
vn 0.999472 -0.008737 -0.031288
vn 0.761475 0.087200 0.642302
vn 0.102936 0.095606 0.990083
vn 0.113341 0.265346 0.957468
vn 0.760792 0.159231 0.629160
vn 0.113341 0.265346 0.957468
vn -0.666597 0.219827 0.712267
vn -0.407109 0.687213 0.601664
vn 0.100550 0.312612 0.944544
vn -0.666597 0.219827 0.712267
vn -0.999313 0.026428 -0.025985
vn -0.689493 0.724279 0.004355
vn -0.407109 0.687213 0.601664
vn -0.999313 0.026428 -0.025985
vn -0.709145 -0.146602 -0.689653
vn -0.603512 0.284038 -0.745047
vn -0.689493 0.724279 0.004355
vn -0.709145 -0.146602 -0.689653
vn -0.047983 -0.215869 -0.975243
vn 0.000859 -0.382327 -0.924027
vn -0.603512 0.284038 -0.745047
vn -0.047983 -0.215869 -0.975243
vn 0.678936 -0.159501 -0.716663
vn 0.504126 -0.653474 -0.564650
vn 0.000859 -0.382327 -0.924027
vn 0.678936 -0.159501 -0.716663
vn 0.999472 -0.008737 -0.031288
vn 0.768043 -0.640391 0.003112
vn 0.504126 -0.653474 -0.564650
vn 0.999472 -0.008737 -0.031288
vn 0.760792 0.159231 0.629160
vn 0.663754 -0.303425 0.683640
vn 0.768043 -0.640391 0.003112
vn 0.760792 0.159231 0.629160
vn 0.113341 0.265346 0.957468
vn 0.100550 0.312612 0.944544
vn 0.663754 -0.303425 0.683640
vn 0.100550 0.312612 0.944544
vn -0.407109 0.687213 0.601664
vn -0.077789 0.823930 0.561328
vn 0.029204 0.218827 0.975326
vn -0.407109 0.687213 0.601664
vn -0.689493 0.724279 0.004355
vn -0.121617 0.992577 0.000299
vn -0.077789 0.823930 0.561328
vn -0.689493 0.724279 0.004355
vn -0.603512 0.284038 -0.745047
vn -0.134215 0.666395 -0.733419
vn -0.121617 0.992577 0.000299
vn -0.603512 0.284038 -0.745047
vn 0.000859 -0.382327 -0.924027
vn 0.002650 -0.318994 -0.947753
vn -0.134215 0.666395 -0.733419
vn 0.000859 -0.382327 -0.924027
vn 0.504126 -0.653474 -0.564650
vn 0.162338 -0.832231 -0.530131
vn 0.002650 -0.318994 -0.947753
vn 0.504126 -0.653474 -0.564650
vn 0.768043 -0.640391 0.003112
vn 0.249364 -0.968290 0.015258
vn 0.162338 -0.832231 -0.530131
vn 0.768043 -0.640391 0.003112
vn 0.663754 -0.303425 0.683640
vn 0.211662 -0.692516 0.689653
vn 0.249364 -0.968290 0.015258
vn 0.663754 -0.303425 0.683640
vn 0.100550 0.312612 0.944544
vn 0.029204 0.218827 0.975326
vn 0.211662 -0.692516 0.689653
vn 0.029204 0.218827 0.975326
vn -0.077789 0.823930 0.561328
vn 0.088149 0.862958 0.497527
vn 0.058783 0.271186 0.960730
vn -0.077789 0.823930 0.561328
vn -0.121617 0.992577 0.000299
vn 0.074541 0.997034 -0.019170
vn 0.088149 0.862958 0.497527
vn -0.121617 0.992577 0.000299
vn -0.134215 0.666395 -0.733419
vn 0.075456 0.790666 -0.607580
vn 0.074541 0.997034 -0.019170
vn -0.134215 0.666395 -0.733419
vn 0.002650 -0.318994 -0.947753
vn 0.031745 -0.080036 -0.996286
vn 0.075456 0.790666 -0.607580
vn 0.002650 -0.318994 -0.947753
vn 0.162338 -0.832231 -0.530131
vn -0.057643 -0.822751 -0.565471
vn 0.031745 -0.080036 -0.996286
vn 0.162338 -0.832231 -0.530131
vn 0.249364 -0.968290 0.015258
vn -0.092221 -0.995553 0.019214
vn -0.057643 -0.822751 -0.565471
vn 0.249364 -0.968290 0.015258
vn 0.211662 -0.692516 0.689653
vn -0.060390 -0.728319 0.682572
vn -0.092221 -0.995553 0.019214
vn 0.211662 -0.692516 0.689653
vn 0.029204 0.218827 0.975326
vn 0.058783 0.271186 0.960730
vn -0.060390 -0.728319 0.682572
vn -0.317920 0.732607 0.601842
vn -0.006866 0.139313 0.990225
vn 0.058783 0.271186 0.960730
vn 0.088149 0.862958 0.497527
vn -0.444043 0.895815 -0.018501
vn -0.317920 0.732607 0.601842
vn 0.088149 0.862958 0.497527
vn 0.074541 0.997034 -0.019170
vn -0.345683 0.668970 -0.658013
vn -0.444043 0.895815 -0.018501
vn 0.074541 0.997034 -0.019170
vn 0.075456 0.790666 -0.607580
vn -0.019986 -0.013535 -0.999709
vn -0.345683 0.668970 -0.658013
vn 0.075456 0.790666 -0.607580
vn 0.031745 -0.080036 -0.996286
vn 0.281958 -0.711471 -0.643668
vn -0.019986 -0.013535 -0.999709
vn 0.031745 -0.080036 -0.996286
vn -0.057643 -0.822751 -0.565471
vn 0.375277 -0.926499 0.027685
vn 0.281958 -0.711471 -0.643668
vn -0.057643 -0.822751 -0.565471
vn -0.092221 -0.995553 0.019214
vn 0.295498 -0.639556 0.709683
vn 0.375277 -0.926499 0.027685
vn -0.092221 -0.995553 0.019214
vn -0.060390 -0.728319 0.682572
vn -0.006866 0.139313 0.990225
vn 0.295498 -0.639556 0.709683
vn -0.060390 -0.728319 0.682572
vn 0.058783 0.271186 0.960730
vn -0.680188 0.015435 0.732876
vn 0.102936 0.095606 0.990083
vn 0.014341 0.151765 0.988313
vn -0.708723 0.050833 0.703653
vn -0.993637 -0.110634 -0.021115
vn -0.680188 0.015435 0.732876
vn -0.708723 0.050833 0.703653
vn -0.997785 -0.066486 0.002110
vn -0.680558 -0.192609 -0.706925
vn -0.993637 -0.110634 -0.021115
vn -0.997785 -0.066486 0.002110
vn -0.719786 -0.133715 -0.681196
vn 0.017178 -0.189707 -0.981691
vn -0.680558 -0.192609 -0.706925
vn -0.719786 -0.133715 -0.681196
vn -0.025386 -0.109482 -0.993665
vn 0.718761 -0.102622 -0.687642
vn 0.017178 -0.189707 -0.981691
vn -0.025386 -0.109482 -0.993665
vn 0.704522 0.000212 -0.709682
vn 0.999776 0.010805 -0.018173
vn 0.718761 -0.102622 -0.687642
vn 0.704522 0.000212 -0.709682
vn 0.993356 0.115041 -0.003145
vn 0.761475 0.087200 0.642302
vn 0.999776 0.010805 -0.018173
vn 0.993356 0.115041 -0.003145
vn 0.708843 0.173812 0.683616
vn 0.102936 0.095606 0.990083
vn 0.761475 0.087200 0.642302
vn 0.708843 0.173812 0.683616
vn 0.014341 0.151765 0.988313
vn -0.610595 0.473464 0.634827
vn -0.010190 0.087928 0.996075
vn -0.006866 0.139313 0.990225
vn -0.317920 0.732607 0.601842
vn -0.806040 0.591836 -0.005507
vn -0.610595 0.473464 0.634827
vn -0.317920 0.732607 0.601842
vn -0.444043 0.895815 -0.018501
vn -0.605673 0.472610 -0.640156
vn -0.806040 0.591836 -0.005507
vn -0.444043 0.895815 -0.018501
vn -0.345683 0.668970 -0.658013
vn -0.009534 0.087672 -0.996104
vn -0.605673 0.472610 -0.640156
vn -0.345683 0.668970 -0.658013
vn -0.019986 -0.013535 -0.999709
vn 0.621512 -0.374705 -0.687982
vn -0.009534 0.087672 -0.996104
vn -0.019986 -0.013535 -0.999709
vn 0.281958 -0.711471 -0.643668
vn 0.836806 -0.547427 0.008920
vn 0.621512 -0.374705 -0.687982
vn 0.281958 -0.711471 -0.643668
vn 0.375277 -0.926499 0.027685
vn 0.617496 -0.368117 0.695118
vn 0.836806 -0.547427 0.008920
vn 0.375277 -0.926499 0.027685
vn 0.295498 -0.639556 0.709683
vn -0.010190 0.087928 0.996075
vn 0.617496 -0.368117 0.695118
vn 0.295498 -0.639556 0.709683
vn -0.006866 0.139313 0.990225
s off
g polySurface4
usemtl initialShadingGroup
f 1/1/1 2/2/2 10/3/3 9/4/4
f 2/2/5 3/5/6 11/6/7 10/3/8
f 3/5/9 4/7/10 12/8/11 11/6/12
f 4/7/13 5/9/14 13/10/15 12/8/16
f 5/9/17 6/11/18 14/12/19 13/10/20
f 6/11/21 7/13/22 15/14/23 14/12/24
f 7/13/25 8/15/26 16/16/27 15/14/28
f 8/15/29 1/17/30 9/18/31 16/16/32
s 1
f 2/19/33 1/20/34 17/21/35
f 3/22/36 2/19/33 17/21/35
f 4/23/37 3/22/36 17/21/35
f 5/24/38 4/23/37 17/21/35
f 6/25/39 5/24/38 17/21/35
f 7/26/40 6/25/39 17/21/35
f 8/27/41 7/26/40 17/21/35
f 1/20/34 8/27/41 17/21/35
s 2
f 18/28/42 19/29/43 20/30/44
f 19/29/43 21/31/45 20/30/44
f 21/31/45 22/32/46 20/30/44
f 22/32/46 23/33/47 20/30/44
f 23/33/47 24/34/48 20/30/44
f 24/34/48 25/35/49 20/30/44
f 25/35/49 26/36/50 20/30/44
f 26/36/50 18/28/42 20/30/44
s off
f 9/37/51 10/38/52 19/29/53 18/28/54
f 10/38/55 11/39/56 21/31/57 19/29/58
f 11/39/59 12/40/60 22/32/61 21/31/62
f 12/40/63 13/41/64 23/33/65 22/32/66
f 13/41/67 14/42/68 24/34/69 23/33/70
f 14/42/71 15/43/72 25/35/73 24/34/74
f 15/43/75 16/44/76 26/36/77 25/35/78
f 16/44/79 9/37/80 18/28/81 26/36/82
f 27/45/83 28/46/84 96/47/85 97/48/86
f 28/49/87 29/50/88 95/51/89 96/52/90
f 29/50/91 30/53/92 94/54/93 95/51/94
f 30/53/95 31/55/96 93/56/97 94/54/98
f 31/55/99 32/57/100 92/58/101 93/56/102
f 32/57/103 33/59/104 99/60/105 92/58/106
f 33/59/107 34/61/108 98/62/109 99/60/110
f 34/61/111 27/45/112 97/48/113 98/62/114
f 35/63/115 57/64/116 56/65/117
f 35/66/118 56/67/119 55/68/120
f 35/66/121 55/68/122 54/69/123
f 35/66/124 54/69/125 53/70/126
f 35/66/127 53/70/128 52/71/129
f 35/66/130 52/71/131 59/72/132
f 35/63/133 59/72/134 58/73/135
f 35/63/136 58/73/137 57/64/138
f 44/74/139 45/75/140 78/76/141 77/77/142
f 45/75/143 46/78/144 79/79/145 78/76/146
f 46/78/147 47/80/148 80/81/149 79/79/150
f 47/80/151 48/82/152 81/83/153 80/81/154
f 48/84/155 49/85/156 82/86/157 81/87/158
f 49/85/159 50/88/160 83/89/161 82/86/162
f 50/88/163 51/90/164 76/91/165 83/89/166
f 51/90/167 44/74/168 77/77/169 76/91/170
f 77/77/171 78/76/172 69/92/173 68/93/174
f 78/76/175 79/79/176 70/94/177 69/92/178
f 79/79/179 80/81/180 71/95/181 70/94/182
f 80/81/183 81/83/184 72/96/185 71/95/186
f 81/87/187 82/86/188 73/97/189 72/98/190
f 82/86/191 83/89/192 74/99/193 73/97/194
f 83/89/195 76/91/196 75/100/197 74/99/198
f 76/91/199 77/77/200 68/93/201 75/100/202
f 68/93/203 69/92/204 62/101/205 61/102/206
f 69/92/207 70/94/208 63/103/209 62/101/210
f 70/94/211 71/95/212 64/104/213 63/103/214
f 71/95/215 72/96/216 65/105/217 64/104/218
f 72/98/219 73/97/220 66/106/221 65/107/222
f 73/97/223 74/99/224 67/108/225 66/106/226
f 74/99/227 75/100/228 60/109/229 67/108/230
f 75/100/231 68/93/232 61/102/233 60/109/234
f 61/102/235 62/101/236 85/110/237 84/111/238
f 62/101/239 63/103/240 86/112/241 85/110/242
f 63/103/243 64/104/244 87/113/245 86/112/246
f 64/104/247 65/105/248 88/114/249 87/113/250
f 65/107/251 66/106/252 89/115/253 88/116/254
f 66/106/255 67/108/256 90/117/257 89/115/258
f 67/108/259 60/109/260 91/118/261 90/117/262
f 60/109/263 61/102/264 84/111/265 91/118/266
f 37/119/267 36/120/268 84/111/269 85/110/270
f 38/121/271 37/119/272 85/110/273 86/112/274
f 39/122/275 38/121/276 86/112/277 87/113/278
f 40/123/279 39/122/280 87/113/281 88/114/282
f 41/124/283 40/125/284 88/116/285 89/115/286
f 42/126/287 41/124/288 89/115/289 90/117/290
f 43/127/291 42/126/292 90/117/293 91/118/294
f 36/120/295 43/127/296 91/118/297 84/111/298
f 45/75/299 44/74/300 52/71/301 53/70/302
f 46/78/303 45/75/304 53/70/305 54/69/306
f 47/80/307 46/78/308 54/69/309 55/68/310
f 48/82/311 47/80/312 55/68/313 56/67/314
f 49/85/315 48/84/316 56/65/317 57/64/318
f 50/88/319 49/85/320 57/64/321 58/73/322
f 51/90/323 50/88/324 58/73/325 59/72/326
f 44/74/327 51/90/328 59/72/329 52/71/330
f 93/56/331 92/58/332 36/120/333 37/119/334
f 94/54/335 93/56/336 37/119/337 38/121/338
f 95/51/339 94/54/340 38/121/341 39/122/342
f 96/52/343 95/51/344 39/122/345 40/123/346
f 97/48/347 96/47/348 40/125/349 41/124/350
f 98/62/351 97/48/352 41/124/353 42/126/354
f 99/60/355 98/62/356 42/126/357 43/127/358
f 92/58/359 99/60/360 43/127/361 36/120/362
