# This file uses centimeters as units for non-parametric coordinates.

mtllib EggRollRLowerCanine.mtl
g default
v -0.347701 0.518969 -0.333207
v 0.205523 0.543760 -0.381640
v -0.274009 0.512245 0.095573
v 0.220432 0.479271 0.056752
v -0.396484 -0.005448 -0.435529
v 0.240337 -0.001939 -0.482696
v -0.084145 -0.003710 -0.537589
v 0.237562 0.405285 -0.436855
v -0.389776 0.401828 -0.390517
v -0.496319 -0.006064 -0.106518
v -0.073745 0.599745 -0.383457
v 0.269834 0.565800 -0.183954
v -0.029772 0.571197 0.117075
v -0.394785 0.562134 -0.118365
v 0.265944 0.411170 0.105627
v -0.318466 0.407651 0.159993
v -0.054209 0.673760 -0.155618
v -0.022008 0.417794 0.196103
v -0.082095 0.403540 -0.491207
v 0.373942 0.371896 -0.193013
v -0.491840 0.406924 -0.107101
v 0.301944 0.389421 0.139683
v -0.018079 0.395867 0.239607
v 0.309088 -0.001689 0.143680
v -0.015591 -0.003495 0.245566
v -0.347762 0.385542 0.199766
v -0.350370 -0.005326 0.204754
v 0.292121 -0.032814 -0.493026
v 0.432112 -0.000943 -0.198328
v 0.427262 0.350246 -0.177935
v 0.347495 0.314190 -0.250590
v 0.344811 0.331591 -0.184512
v -0.181578 0.553082 0.118439
v -0.172844 0.415188 0.197807
v -0.185528 0.393170 0.239445
v -0.185573 -0.004428 0.244919
v -0.244329 -0.004599 -0.499210
v -0.239950 0.402665 -0.453512
v -0.211196 0.577252 -0.362618
v -0.241886 0.635749 -0.139180
v 0.080271 -0.002809 -0.527624
v 0.079909 0.404428 -0.481512
v 0.092454 0.571900 -0.389197
v 0.134655 0.637825 -0.172141
v 0.123215 0.543282 0.096469
v 0.123384 0.416821 0.167184
v 0.143349 0.394985 0.205964
v 0.148177 -0.002587 0.210942
v 0.393046 -0.001197 -0.010763
v 0.387010 0.377138 -0.002563
v 0.342349 0.398837 -0.027131
v 0.266793 0.549736 -0.054311
v 0.128838 0.617636 -0.037237
v -0.042056 0.649562 -0.018311
v -0.211829 0.621498 -0.009771
v -0.351128 0.557809 -0.003695
v -0.428791 0.409191 0.059886
v 0.308206 0.406058 -0.328122
v 0.236736 0.551285 -0.293784
v 0.112514 0.619264 -0.291652
v -0.065071 0.651154 -0.281134
v -0.241089 0.620828 -0.265614
v -0.391987 0.554849 -0.257275
v -0.472257 0.399786 -0.264738
v -0.477874 -0.005926 -0.286951
v 0.367968 -0.016843 -0.363480
v 0.293594 0.394463 -0.323869
v 0.306075 0.371511 -0.336693
v 0.318128 0.187887 -0.345428
v 0.365543 0.158752 -0.353284
v -0.443438 0.397893 0.079772
v -0.446971 -0.005832 0.082558
vt 0.231053 0.076785
vt 0.224506 0.072753
vt 0.234665 0.064731
vt 0.241469 0.070670
vt 0.251663 0.065789
vt 0.247366 0.057828
vt 0.261170 0.052469
vt 0.264809 0.061093
vt 0.242138 0.048970
vt 0.236357 0.039549
vt 0.250369 0.032842
vt 0.256964 0.042852
vt 0.215655 0.065657
vt 0.211582 0.055549
vt 0.222989 0.047266
vt 0.227860 0.056925
vt 0.209524 0.043035
vt 0.198552 0.040522
vt 0.208703 0.025624
vt 0.217406 0.036205
vt 0.230136 0.028391
vt 0.222760 0.014907
vt 0.239322 0.009824
vt 0.243674 0.021642
vt 0.140632 0.084289
vt 0.141529 0.121065
vt 0.126266 0.121497
vt 0.125344 0.084869
vt 0.171582 0.084330
vt 0.172471 0.120439
vt 0.157025 0.120723
vt 0.156180 0.084004
vt 0.046892 0.125936
vt 0.236933 0.120754
vt 0.252289 0.119412
vt 0.231101 0.086943
vt 0.245394 0.085640
vt 0.267377 0.116834
vt 0.259320 0.082132
vt 0.272161 0.075669
vt 0.282214 0.112549
vt 0.060578 0.124172
vt 0.076729 0.122552
vt 0.094276 0.122285
vt 0.273835 0.057314
vt 0.272270 0.048821
vt 0.287041 0.049365
vt 0.284768 0.066776
vt 0.078395 0.090700
vt 0.061168 0.107789
vt 0.094631 0.087633
vt 0.268924 0.038610
vt 0.262732 0.027992
vt 0.273487 0.017674
vt 0.286379 0.032416
vt 0.221095 0.120639
vt 0.186642 0.120127
vt 0.204348 0.119976
vt 0.217620 0.085022
vt 0.203760 0.079664
vt 0.196572 0.058284
vt 0.185697 0.082159
vt 0.071241 0.085213
vt 0.076003 0.086395
vt 0.068526 0.091620
vt 0.297064 0.106765
vt 0.140450 0.079889
vt 0.125811 0.080440
vt 0.170899 0.079551
vt 0.155401 0.079636
vt 0.042855 0.122055
vt 0.058354 0.103506
vt 0.093580 0.082715
vt 0.186549 0.079899
vt 0.296586 0.066317
vt 0.306710 0.067722
vt 0.303027 0.082640
vt 0.290996 0.032012
vt 0.288729 0.049607
vt 0.311043 0.063222
vt 0.257553 0.009105
vt 0.255033 0.017182
vt 0.109705 0.086311
vt 0.109815 0.081495
vt 0.110332 0.121971
vt 0.296244 0.063670
vn -0.634676 0.409020 -0.655659
vn -0.843317 0.473433 -0.254318
vn -0.553464 0.792291 -0.256813
vn -0.441820 0.545077 -0.712521
vn -0.242413 0.630783 -0.737122
vn -0.286249 0.915933 -0.281296
vn -0.007402 0.957074 -0.289750
vn -0.030878 0.667847 -0.743658
vn -0.277270 0.960673 0.015158
vn -0.226195 0.912560 0.340692
vn 0.075545 0.939668 0.333642
vn 0.039841 0.999146 -0.010969
vn -0.867780 0.487453 0.096682
vn -0.762025 0.510014 0.399004
vn -0.491560 0.795800 0.353654
vn -0.554542 0.831133 0.041245
vn -0.570259 0.470847 0.673133
vn -0.573693 0.403243 0.712932
vn -0.266663 0.431799 0.861650
vn -0.356386 0.600387 0.715908
vn -0.127348 0.692317 0.710267
vn -0.054028 0.469204 0.881435
vn 0.136685 0.550553 0.823534
vn 0.122078 0.732305 0.669945
vn 0.068306 0.118883 0.990556
vn 0.095528 0.028668 0.995014
vn 0.285236 0.085154 0.954667
vn 0.256529 0.178730 0.949868
vn -0.530313 -0.070544 0.844862
vn -0.508606 -0.146992 0.848359
vn -0.117429 -0.034053 0.992497
vn -0.144704 0.058907 0.987720
vn -0.645581 -0.133939 -0.751854
vn -0.662502 0.004129 -0.749049
vn -0.356047 0.138343 -0.924171
vn -0.314590 -0.022993 -0.948949
vn -0.112491 0.041990 -0.992765
vn -0.147947 0.211702 -0.966071
vn 0.083627 0.262909 -0.961190
vn 0.118618 0.123510 -0.985228
vn -0.147947 0.211702 -0.966071
vn -0.242413 0.630783 -0.737122
vn -0.030878 0.667847 -0.743658
vn 0.083627 0.262909 -0.961190
vn -0.662502 0.004129 -0.749049
vn -0.634676 0.409020 -0.655659
vn -0.441820 0.545077 -0.712521
vn -0.356047 0.138343 -0.924171
vn 0.289239 0.695307 -0.657943
vn 0.478174 0.816239 -0.324196
vn 0.725532 0.570261 -0.385235
vn 0.419053 0.339567 -0.842074
vn 0.913743 0.404983 0.032597
vn 0.956148 0.286509 -0.060772
vn 0.866484 0.259548 -0.426428
vn 0.740819 0.410285 -0.531840
vn 0.913743 0.404983 0.032597
vn 0.857001 0.372936 0.355623
vn 0.900463 0.266152 0.343990
vn 0.956148 0.286509 -0.060772
vn 0.523479 0.849585 -0.064610
vn 0.495155 0.826891 0.266593
vn 0.660463 0.713658 0.233411
vn 0.663656 0.729849 -0.163955
vn -0.645581 -0.133939 -0.751854
vn -0.920476 -0.244783 -0.304641
vn -0.946057 -0.122245 -0.300055
vn -0.662502 0.004129 -0.749049
vn -0.662502 0.004129 -0.749049
vn -0.946057 -0.122245 -0.300055
vn -0.843317 0.473433 -0.254318
vn -0.634676 0.409020 -0.655659
vn -0.986760 -0.133703 0.091802
vn -0.814583 0.343599 0.467326
vn -0.762025 0.510014 0.399004
vn -0.867780 0.487453 0.096682
vn -0.958996 -0.271362 0.081787
vn -0.871394 -0.249889 0.422170
vn -0.886315 -0.194152 0.420417
vn -0.986760 -0.133703 0.091802
vn 0.717967 -0.099721 -0.688897
vn 0.663656 0.729849 -0.163955
vn 0.440883 0.630809 -0.638515
vn -0.207137 0.862628 0.461483
vn 0.068306 0.118883 0.990556
vn 0.256529 0.178730 0.949868
vn -0.110730 0.896833 0.428286
vn -0.441414 0.812113 0.381611
vn -0.530313 -0.070544 0.844862
vn -0.144704 0.058907 0.987720
vn -0.320615 0.835272 0.446684
vn 0.913743 0.404983 0.032597
vn 0.740819 0.410285 -0.531840
vn 0.114778 0.605954 -0.787176
vn 0.440883 0.630809 -0.638515
vn 0.137975 0.989474 0.043625
vn 0.857001 0.372936 0.355623
vn 0.913743 0.404983 0.032597
vn 0.663656 0.729849 -0.163955
vn -0.986760 -0.133703 0.091802
vn -0.886315 -0.194152 0.420417
vn -0.572956 0.773261 0.271642
vn 0.783322 0.348792 -0.514539
vn 0.440883 0.630809 -0.638515
vn 0.779032 0.307472 -0.546416
vn 0.725532 0.570261 -0.385235
vn 0.663656 0.729849 -0.163955
vn 0.717967 -0.099721 -0.688897
vn 0.755035 -0.463353 -0.463925
vn 0.717967 -0.099721 -0.688897
vn 0.440883 0.630809 -0.638515
vn 0.783322 0.348792 -0.514539
vn 0.663656 0.729849 -0.163955
vn 0.913743 0.404983 0.032597
vn 0.440883 0.630809 -0.638515
vn -0.356386 0.600387 0.715908
vn -0.266663 0.431799 0.861650
vn -0.054028 0.469204 0.881435
vn -0.127348 0.692317 0.710267
vn -0.144704 0.058907 0.987720
vn 0.068306 0.118883 0.990556
vn -0.207137 0.862628 0.461483
vn -0.320615 0.835272 0.446684
vn -0.117429 -0.034053 0.992497
vn 0.095528 0.028668 0.995014
vn 0.068306 0.118883 0.990556
vn -0.144704 0.058907 0.987720
vn -0.356047 0.138343 -0.924171
vn -0.147947 0.211702 -0.966071
vn -0.112491 0.041990 -0.992765
vn -0.314590 -0.022993 -0.948949
vn -0.441820 0.545077 -0.712521
vn -0.242413 0.630783 -0.737122
vn -0.147947 0.211702 -0.966071
vn -0.356047 0.138343 -0.924171
vn -0.553464 0.792291 -0.256813
vn -0.286249 0.915933 -0.281296
vn -0.242413 0.630783 -0.737122
vn -0.441820 0.545077 -0.712521
vn -0.491560 0.795800 0.353654
vn -0.226195 0.912560 0.340692
vn -0.277270 0.960673 0.015158
vn -0.554542 0.831133 0.041245
vn 0.118618 0.123510 -0.985228
vn 0.083627 0.262909 -0.961190
vn 0.419053 0.339567 -0.842074
vn 0.329213 0.204532 -0.921838
vn -0.030878 0.667847 -0.743658
vn 0.289239 0.695307 -0.657943
vn 0.419053 0.339567 -0.842074
vn 0.083627 0.262909 -0.961190
vn -0.007402 0.957074 -0.289750
vn 0.478174 0.816239 -0.324196
vn 0.289239 0.695307 -0.657943
vn -0.030878 0.667847 -0.743658
vn 0.075545 0.939668 0.333642
vn 0.495155 0.826891 0.266593
vn 0.523479 0.849585 -0.064610
vn 0.039841 0.999146 -0.010969
vn 0.136685 0.550553 0.823534
vn 0.417149 0.688712 0.593011
vn 0.376543 0.726823 0.574407
vn 0.122078 0.732305 0.669945
vn 0.256529 0.178730 0.949868
vn 0.594508 0.278117 0.754461
vn 0.026907 0.959247 0.281285
vn -0.110730 0.896833 0.428286
vn 0.285236 0.085154 0.954667
vn 0.637199 0.189800 0.746963
vn 0.594508 0.278117 0.754461
vn 0.256529 0.178730 0.949868
vn 0.857001 0.372936 0.355623
vn 0.594508 0.278117 0.754461
vn 0.637199 0.189800 0.746963
vn 0.900463 0.266152 0.343990
vn 0.026907 0.959247 0.281285
vn 0.594508 0.278117 0.754461
vn 0.857001 0.372936 0.355623
vn 0.137975 0.989474 0.043625
vn 0.495155 0.826891 0.266593
vn 0.376543 0.726823 0.574407
vn 0.417149 0.688712 0.593011
vn 0.660463 0.713658 0.233411
vn 0.122078 0.732305 0.669945
vn 0.376543 0.726823 0.574407
vn 0.495155 0.826891 0.266593
vn 0.075545 0.939668 0.333642
vn -0.226195 0.912560 0.340692
vn -0.127348 0.692317 0.710267
vn 0.122078 0.732305 0.669945
vn 0.075545 0.939668 0.333642
vn -0.356386 0.600387 0.715908
vn -0.127348 0.692317 0.710267
vn -0.226195 0.912560 0.340692
vn -0.491560 0.795800 0.353654
vn -0.762025 0.510014 0.399004
vn -0.570259 0.470847 0.673133
vn -0.356386 0.600387 0.715908
vn -0.491560 0.795800 0.353654
vn -0.814583 0.343599 0.467326
vn -0.573693 0.403243 0.712932
vn -0.570259 0.470847 0.673133
vn -0.762025 0.510014 0.399004
vn 0.478174 0.816239 -0.324196
vn 0.523479 0.849585 -0.064610
vn 0.663656 0.729849 -0.163955
vn 0.725532 0.570261 -0.385235
vn 0.039841 0.999146 -0.010969
vn 0.523479 0.849585 -0.064610
vn 0.478174 0.816239 -0.324196
vn -0.007402 0.957074 -0.289750
vn -0.286249 0.915933 -0.281296
vn -0.277270 0.960673 0.015158
vn 0.039841 0.999146 -0.010969
vn -0.007402 0.957074 -0.289750
vn -0.554542 0.831133 0.041245
vn -0.277270 0.960673 0.015158
vn -0.286249 0.915933 -0.281296
vn -0.553464 0.792291 -0.256813
vn -0.843317 0.473433 -0.254318
vn -0.867780 0.487453 0.096682
vn -0.554542 0.831133 0.041245
vn -0.553464 0.792291 -0.256813
vn -0.946057 -0.122245 -0.300055
vn -0.986760 -0.133703 0.091802
vn -0.867780 0.487453 0.096682
vn -0.843317 0.473433 -0.254318
vn -0.920476 -0.244783 -0.304641
vn -0.958996 -0.271362 0.081787
vn -0.986760 -0.133703 0.091802
vn -0.946057 -0.122245 -0.300055
vn 0.419053 0.339567 -0.842074
vn 0.725532 0.570261 -0.385235
vn 0.755035 -0.463353 -0.463925
vn 0.419053 0.339567 -0.842074
vn 0.631936 0.754566 -0.176879
vn 0.783322 0.348792 -0.514539
vn 0.419053 0.339567 -0.842074
vn 0.783322 0.348792 -0.514539
vn 0.779032 0.307472 -0.546416
vn 0.329213 0.204532 -0.921838
vn 0.740819 0.410285 -0.531840
vn 0.600837 0.305117 -0.738850
vn -0.174684 0.472221 -0.863998
vn 0.114778 0.605954 -0.787176
vn 0.866484 0.259548 -0.426428
vn 0.600837 0.305117 -0.738850
vn 0.740819 0.410285 -0.531840
vn -0.886315 -0.194152 0.420417
vn -0.530313 -0.070544 0.844862
vn -0.441414 0.812113 0.381611
vn -0.572956 0.773261 0.271642
vn -0.871394 -0.249889 0.422170
vn -0.508606 -0.146992 0.848359
vn -0.530313 -0.070544 0.844862
vn -0.886315 -0.194152 0.420417
vn 0.631936 0.754566 -0.176879
vn 0.717967 -0.099721 -0.688897
vn 0.783322 0.348792 -0.514539
s off
g FoodRLowerCaninesUnderbite
usemtl delete14:blinn3SG
f 1/1/1 63/2/2 62/3/3 39/4/4
f 11/5/5 61/6/6 60/7/7 43/8/8
f 17/9/9 54/10/10 53/11/11 44/12/12
f 14/13/13 56/14/14 55/15/15 40/16/16
f 3/17/17 16/18/18 34/19/19 33/20/20
f 13/21/21 18/22/22 46/23/23 45/24/24
f 23/25/25 25/26/26 48/27/27 47/28/28
f 26/29/29 27/30/30 36/31/31 35/32/32
f 5/34/33 9/36/34 38/37/35 37/35/36
f 7/38/37 19/39/38 42/40/39 41/41/40
f 19/39/41 11/5/42 43/8/43 42/40/44
f 9/36/45 1/1/46 39/4/47 38/37/48
f 2/45/49 59/46/50 58/47/51 8/48/52
f 30/49/53 29/43/54 66/42/55 70/50/56
f 30/49/57 50/51/58 49/44/59 29/43/60
f 12/52/61 52/53/62 51/54/63 20/55/64
f 5/34/65 65/56/66 64/59/67 9/36/68
f 9/36/69 64/59/70 63/2/71 1/1/72
f 21/60/73 57/61/74 56/14/75 14/13/76
f 10/58/77 72/57/78 71/62/79 21/60/80
f 32/63/81 20/64/82 31/65/83
f 18/67/84 23/25/85 47/28/86 46/68/87
f 16/69/88 26/29/89 35/32/90 34/70/91
f 30/49/92 70/50/93 69/72/94 31/65/95
f 51/73/96 50/51/97 30/49/98 20/64/99
f 21/60/100 71/62/101 57/74/102
f 68/75/103 31/76/104 69/77/105
f 58/47/106 20/55/107 32/78/108 67/79/109
f 32/80/110 31/76/111 68/75/112
f 20/64/113 30/49/114 31/65/115
f 33/20/116 34/19/117 18/22/118 13/21/119
f 35/32/120 23/25/121 18/67/122 34/70/123
f 36/31/124 25/26/125 23/25/126 35/32/127
f 38/37/128 19/39/129 7/38/130 37/35/131
f 39/4/132 11/5/133 19/39/134 38/37/135
f 62/3/136 61/6/137 11/5/138 39/4/139
f 55/15/140 54/10/141 17/9/142 40/16/143
f 41/41/144 42/40/145 8/48/146 6/66/147
f 43/8/148 2/45/149 8/48/150 42/40/151
f 60/7/152 59/46/153 2/45/154 43/8/155
f 53/11/156 52/53/157 12/52/158 44/12/159
f 46/23/160 15/81/161 4/82/162 45/24/163
f 47/28/164 22/83/165 15/84/166 46/68/167
f 48/27/168 24/85/169 22/83/170 47/28/171
f 50/51/172 22/83/173 24/85/174 49/44/175
f 15/84/176 22/83/177 50/51/178 51/73/179
f 52/53/180 4/82/181 15/81/182 51/54/183
f 45/24/184 4/82/185 52/53/186 53/11/187
f 54/10/188 13/21/189 45/24/190 53/11/191
f 33/20/192 13/21/193 54/10/194 55/15/195
f 56/14/196 3/17/197 33/20/198 55/15/199
f 57/61/200 16/18/201 3/17/202 56/14/203
f 59/46/204 12/52/205 20/55/206 58/47/207
f 44/12/208 12/52/209 59/46/210 60/7/211
f 61/6/212 17/9/213 44/12/214 60/7/215
f 40/16/216 17/9/217 61/6/218 62/3/219
f 63/2/220 14/13/221 40/16/222 62/3/223
f 64/59/224 21/60/225 14/13/226 63/2/227
f 65/56/228 10/58/229 21/60/230 64/59/231
f 8/48/232 58/47/233 67/79/234
f 8/48/235 67/86/236 68/75/237
f 8/48/238 68/75/239 69/77/240 6/66/241
f 70/50/242 28/33/243 6/71/244 69/72/245
f 66/42/246 28/33/247 70/50/248
f 71/62/249 26/29/250 16/69/251 57/74/252
f 72/57/253 27/30/254 26/29/255 71/62/256
f 67/86/257 32/80/258 68/75/259
