# This file uses centimeters as units for non-parametric coordinates.

mtllib DonutShortLUpperLeg.mtl
g default
v 0.165375 0.000726 -0.925185
v 0.255792 -0.323065 -0.895795
v 0.498336 -0.544055 -0.816956
v 0.816001 -0.592081 -0.713698
v 1.107932 -0.451895 -0.618806
v 1.281441 -0.168005 -0.562407
v 1.281441 0.169456 -0.562407
v 1.107932 0.453347 -0.618806
v 0.816001 0.593533 -0.713698
v 0.498336 0.545507 -0.816956
v 0.255792 0.324517 -0.895795
v 0.734943 0.000726 -0.740047
v 0.097304 0.000726 -0.791629
v -0.008706 0.000726 -0.685644
v -0.142278 0.000726 -0.617606
v -0.290338 0.000726 -0.594174
v -0.438392 0.000726 -0.617641
v 0.174214 -0.323065 -0.735737
v 0.047168 -0.323065 -0.608721
v -0.112910 -0.323065 -0.527181
v -0.290349 -0.323065 -0.499100
v -0.467782 -0.323065 -0.527224
v 0.380525 -0.544055 -0.585806
v 0.197051 -0.544055 -0.402375
v -0.034128 -0.544055 -0.284619
v -0.290379 -0.544055 -0.244064
v -0.546622 -0.544055 -0.284680
v 0.650735 -0.592081 -0.389438
v 0.393354 -0.592081 -0.132119
v 0.069054 -0.592081 0.033071
v -0.290419 -0.592081 0.089963
v -0.649880 -0.592081 0.032986
v 0.899053 -0.451895 -0.208978
v 0.573754 -0.451895 0.116244
v 0.163877 -0.451895 0.325024
v -0.290456 -0.451895 0.396928
v -0.744772 -0.451895 0.324916
v 1.046641 -0.168005 -0.101722
v 0.680975 -0.168005 0.263857
v 0.220235 -0.168005 0.498547
v -0.290478 -0.168005 0.579373
v -0.801171 -0.168005 0.498425
v 1.046641 0.169456 -0.101722
v 0.680975 0.169456 0.263857
v 0.220235 0.169456 0.498547
v -0.290478 0.169456 0.579373
v -0.801171 0.169456 0.498425
v 0.899053 0.453347 -0.208978
v 0.573754 0.453347 0.116244
v 0.163877 0.453347 0.325024
v -0.290456 0.453347 0.396928
v -0.744772 0.453347 0.324916
v 0.650734 0.593533 -0.389438
v 0.393354 0.593533 -0.132119
v 0.069054 0.593533 0.033071
v -0.290419 0.593533 0.089963
v -0.649879 0.593533 0.032985
v 0.380525 0.545507 -0.585806
v 0.197051 0.545507 -0.402375
v -0.034128 0.545507 -0.284619
v -0.290379 0.545507 -0.244064
v -0.546622 0.545507 -0.284680
v 0.174214 0.324517 -0.735737
v 0.047168 0.324517 -0.608721
v -0.112910 0.324517 -0.527181
v -0.290349 0.324517 -0.499100
v -0.467782 0.324517 -0.527224
v -0.623532 0.000726 -0.048072
vt 0.328172 0.971168
vt 0.283959 0.987741
vt 0.277844 0.904166
vt 0.356407 0.933322
vt 0.359698 0.886219
vt 0.337002 0.844814
vt 0.295523 0.822253
vt 0.248431 0.825698
vt 0.210677 0.854057
vt 0.194249 0.898324
vt 0.204361 0.944446
vt 0.237804 0.977780
vt 0.382495 0.356186
vt 0.390378 0.334849
vt 0.414941 0.339046
vt 0.404558 0.367768
vt 0.368403 0.374042
vt 0.385808 0.391875
vt 0.349484 0.386669
vt 0.360526 0.409008
vt 0.327589 0.392832
vt 0.331187 0.417490
vt 0.304860 0.391927
vt 0.300663 0.416491
vt 0.449672 0.346057
vt 0.435423 0.385168
vt 0.409785 0.417961
vt 0.375269 0.441226
vt 0.335252 0.452687
vt 0.293652 0.451221
vt 0.490071 0.354283
vt 0.471303 0.405475
vt 0.437633 0.448362
vt 0.392360 0.478745
vt 0.339912 0.493651
vt 0.285426 0.491621
vt 0.532821 0.362747
vt 0.509345 0.426735
vt 0.467244 0.480337
vt 0.410640 0.518306
vt 0.345074 0.536924
vt 0.276963 0.534371
vt 0.576810 0.371165
vt 0.548580 0.448335
vt 0.497884 0.513004
vt 0.429686 0.558842
vt 0.350661 0.581362
vt 0.268544 0.578360
vt 0.621889 0.379626
vt 0.588838 0.470312
vt 0.529381 0.546346
vt 0.449338 0.600285
vt 0.356544 0.626849
vt 0.260083 0.623439
vt 0.471686 0.770496
vt 0.472876 0.689241
vt 0.517923 0.696848
vt 0.516879 0.763810
vt 0.495664 0.848143
vt 0.536579 0.827819
vt 0.542462 0.914580
vt 0.575094 0.882607
vt 0.607500 0.963303
vt 0.628654 0.922811
vt 0.684411 0.989544
vt 0.692017 0.944497
vt 0.562029 0.704538
vt 0.561203 0.757495
vt 0.576781 0.808115
vt 0.607240 0.851444
vt 0.649598 0.883241
vt 0.699707 0.900391
vt 0.604634 0.712116
vt 0.604064 0.751537
vt 0.615704 0.789204
vt 0.638414 0.821431
vt 0.669971 0.845063
vt 0.707286 0.857786
vt 0.643715 0.718850
vt 0.643313 0.745864
vt 0.651279 0.771680
vt 0.666833 0.793772
vt 0.688452 0.809975
vt 0.714020 0.818705
vt 0.677789 0.723943
vt 0.677293 0.740179
vt 0.681839 0.755773
vt 0.690981 0.769199
vt 0.703825 0.779143
vt 0.719113 0.784631
vt 0.102327 0.822350
vt 0.146966 0.837742
vt 0.098437 0.906059
vt 0.176197 0.874823
vt 0.180740 0.921822
vt 0.159153 0.963816
vt 0.118289 0.987473
vt 0.071122 0.985281
vt 0.032627 0.957937
vt 0.015027 0.914122
vt 0.023909 0.867747
vt 0.056453 0.833536
vn 0.309129 -0.000000 -0.951020
vn 0.309129 -0.000000 -0.951020
vn 0.309130 0.000000 -0.951020
vn 0.309130 0.000000 -0.951020
vn 0.309129 -0.000000 -0.951020
vn 0.309130 0.000000 -0.951020
vn 0.309129 -0.000001 -0.951020
vn 0.309130 0.000000 -0.951020
vn 0.309130 0.000000 -0.951020
vn 0.309129 -0.000000 -0.951020
vn 0.309129 -0.000001 -0.951020
vn 0.309130 0.000000 -0.951020
vn 0.309130 0.000000 -0.951020
vn 0.309129 -0.000000 -0.951020
vn 0.309130 0.000000 -0.951020
vn 0.309130 0.000000 -0.951020
vn 0.309130 0.000000 -0.951020
vn 0.309130 0.000000 -0.951020
vn 0.309129 -0.000000 -0.951020
vn 0.309130 0.000000 -0.951020
vn 0.309130 0.000000 -0.951020
vn 0.309129 0.000001 -0.951020
vn 0.309129 -0.000000 -0.951020
vn 0.309130 0.000000 -0.951020
vn 0.309130 0.000000 -0.951020
vn 0.309129 0.000001 -0.951020
vn 0.309130 0.000000 -0.951020
vn 0.309130 0.000000 -0.951020
vn 0.309130 0.000000 -0.951020
vn 0.309130 0.000000 -0.951020
vn 0.309129 -0.000000 -0.951020
vn 0.309130 0.000000 -0.951020
vn 0.309130 0.000000 -0.951020
vn -0.834838 -0.097276 -0.541834
vn -0.890951 0.000000 -0.454099
vn -0.724324 -0.582294 -0.369173
vn -0.725450 -0.502240 -0.470614
vn -0.587690 -0.000000 -0.809087
vn -0.475760 -0.587060 -0.654991
vn -0.308902 -0.000000 -0.951094
vn -0.587690 -0.000000 -0.809087
vn -0.475760 -0.587060 -0.654991
vn -0.250070 -0.587061 -0.769951
vn 0.000120 -0.000000 -1.000000
vn -0.308902 -0.000000 -0.951094
vn -0.250070 -0.587061 -0.769951
vn 0.000097 -0.587060 -0.809543
vn 0.156551 -0.000000 -0.987670
vn 0.000120 -0.000000 -1.000000
vn 0.000097 -0.587060 -0.809543
vn 0.127272 -0.582294 -0.802954
vn -0.329157 -0.938194 -0.106993
vn -0.279984 -0.938194 -0.203472
vn -0.475760 -0.587060 -0.654991
vn -0.654877 -0.587061 -0.475916
vn -0.279984 -0.938194 -0.203472
vn -0.203405 -0.938194 -0.280033
vn -0.250070 -0.587061 -0.769951
vn -0.475760 -0.587060 -0.654991
vn -0.203405 -0.938194 -0.280033
vn -0.106914 -0.938194 -0.329183
vn 0.000097 -0.587060 -0.809543
vn -0.250070 -0.587061 -0.769951
vn -0.106914 -0.938194 -0.329183
vn 0.000041 -0.938194 -0.346110
vn 0.127272 -0.582294 -0.802954
vn 0.000097 -0.587060 -0.809543
vn 0.000041 -0.938194 -0.346110
vn 0.054776 -0.936788 -0.345584
vn -0.279984 -0.938194 -0.203472
vn -0.329157 -0.938194 -0.106993
vn 0.198692 -0.977932 0.064585
vn 0.169010 -0.977932 0.122823
vn -0.203405 -0.938194 -0.280033
vn -0.279984 -0.938194 -0.203472
vn 0.169010 -0.977932 0.122823
vn 0.122783 -0.977932 0.169038
vn -0.106914 -0.938194 -0.329183
vn -0.203405 -0.938194 -0.280033
vn 0.122783 -0.977932 0.169038
vn 0.064538 -0.977932 0.198707
vn 0.000041 -0.938194 -0.346110
vn -0.106914 -0.938194 -0.329183
vn 0.064538 -0.977932 0.198707
vn -0.000025 -0.977932 0.208925
vn 0.054776 -0.936788 -0.345584
vn 0.000041 -0.938194 -0.346110
vn -0.000025 -0.977932 0.208925
vn -0.033098 -0.977397 0.208807
vn 0.169010 -0.977932 0.122823
vn 0.198692 -0.977932 0.064585
vn 0.655384 -0.724630 0.213033
vn 0.557476 -0.724630 0.405132
vn 0.122783 -0.977932 0.169038
vn 0.169010 -0.977932 0.122823
vn 0.557476 -0.724630 0.405132
vn 0.404999 -0.724630 0.557573
vn 0.064538 -0.977932 0.198707
vn 0.122783 -0.977932 0.169038
vn 0.404999 -0.724630 0.557573
vn 0.212877 -0.724630 0.655434
vn -0.000025 -0.977932 0.208925
vn 0.064538 -0.977932 0.198707
vn 0.212877 -0.724630 0.655434
vn -0.000082 -0.724630 0.689138
vn -0.033098 -0.977397 0.208807
vn -0.000025 -0.977932 0.208925
vn -0.000082 -0.724630 0.689138
vn -0.108586 -0.720352 0.685056
vn 0.557476 -0.724630 0.405132
vn 0.655384 -0.724630 0.213033
vn 0.916781 -0.265909 0.298000
vn 0.779823 -0.265909 0.566717
vn 0.404999 -0.724630 0.557573
vn 0.557476 -0.724630 0.405132
vn 0.779823 -0.265909 0.566717
vn 0.566531 -0.265909 0.779958
vn 0.212877 -0.724630 0.655434
vn 0.404999 -0.724630 0.557573
vn 0.566531 -0.265909 0.779958
vn 0.297783 -0.265909 0.916852
vn -0.000082 -0.724630 0.689138
vn 0.212877 -0.724630 0.655434
vn 0.297783 -0.265909 0.916852
vn -0.000114 -0.265910 0.963998
vn -0.108586 -0.720352 0.685056
vn -0.000082 -0.724630 0.689138
vn -0.000114 -0.265910 0.963998
vn -0.151047 -0.262863 0.952936
vn 0.779823 -0.265909 0.566717
vn 0.916781 -0.265909 0.298000
vn 0.916781 0.265909 0.298000
vn 0.779823 0.265909 0.566717
vn 0.566531 -0.265909 0.779958
vn 0.779823 -0.265909 0.566717
vn 0.779823 0.265909 0.566717
vn 0.566531 0.265909 0.779958
vn 0.297783 -0.265909 0.916852
vn 0.566531 -0.265909 0.779958
vn 0.566531 0.265909 0.779958
vn 0.297783 0.265909 0.916852
vn -0.000114 -0.265910 0.963998
vn 0.297783 -0.265909 0.916852
vn 0.297783 0.265909 0.916852
vn -0.000115 0.265910 0.963998
vn -0.151047 -0.262863 0.952936
vn -0.000114 -0.265910 0.963998
vn -0.000115 0.265910 0.963998
vn -0.151047 0.262863 0.952936
vn 0.779823 0.265909 0.566717
vn 0.916781 0.265909 0.298000
vn 0.655383 0.724631 0.213033
vn 0.557476 0.724630 0.405131
vn 0.566531 0.265909 0.779958
vn 0.779823 0.265909 0.566717
vn 0.557476 0.724630 0.405131
vn 0.404999 0.724630 0.557573
vn 0.297783 0.265909 0.916852
vn 0.566531 0.265909 0.779958
vn 0.404999 0.724630 0.557573
vn 0.212877 0.724631 0.655434
vn -0.000115 0.265910 0.963998
vn 0.297783 0.265909 0.916852
vn 0.212877 0.724631 0.655434
vn -0.000082 0.724631 0.689137
vn -0.151047 0.262863 0.952936
vn -0.000115 0.265910 0.963998
vn -0.000082 0.724631 0.689137
vn -0.108586 0.720353 0.685056
vn 0.557476 0.724630 0.405131
vn 0.655383 0.724631 0.213033
vn 0.198692 0.977932 0.064585
vn 0.169009 0.977932 0.122823
vn 0.404999 0.724630 0.557573
vn 0.557476 0.724630 0.405131
vn 0.169009 0.977932 0.122823
vn 0.122783 0.977932 0.169038
vn 0.212877 0.724631 0.655434
vn 0.404999 0.724630 0.557573
vn 0.122783 0.977932 0.169038
vn 0.064538 0.977932 0.198706
vn -0.000082 0.724631 0.689137
vn 0.212877 0.724631 0.655434
vn 0.064538 0.977932 0.198706
vn -0.000025 0.977932 0.208924
vn -0.108586 0.720353 0.685056
vn -0.000082 0.724631 0.689137
vn -0.000025 0.977932 0.208924
vn -0.033097 0.977397 0.208806
vn 0.169009 0.977932 0.122823
vn 0.198692 0.977932 0.064585
vn -0.329157 0.938194 -0.106993
vn -0.279984 0.938194 -0.203472
vn 0.122783 0.977932 0.169038
vn 0.169009 0.977932 0.122823
vn -0.279984 0.938194 -0.203472
vn -0.203405 0.938194 -0.280033
vn 0.064538 0.977932 0.198706
vn 0.122783 0.977932 0.169038
vn -0.203405 0.938194 -0.280033
vn -0.106914 0.938194 -0.329183
vn -0.000025 0.977932 0.208924
vn 0.064538 0.977932 0.198706
vn -0.106914 0.938194 -0.329183
vn 0.000041 0.938194 -0.346110
vn -0.033097 0.977397 0.208806
vn -0.000025 0.977932 0.208924
vn 0.000041 0.938194 -0.346110
vn 0.054778 0.936787 -0.345584
vn -0.279984 0.938194 -0.203472
vn -0.329157 0.938194 -0.106993
vn -0.769891 0.587061 -0.250254
vn -0.654877 0.587061 -0.475915
vn -0.203405 0.938194 -0.280033
vn -0.279984 0.938194 -0.203472
vn -0.654877 0.587061 -0.475915
vn -0.475759 0.587061 -0.654990
vn -0.106914 0.938194 -0.329183
vn -0.203405 0.938194 -0.280033
vn -0.475759 0.587061 -0.654990
vn -0.250070 0.587061 -0.769951
vn 0.000041 0.938194 -0.346110
vn -0.106914 0.938194 -0.329183
vn -0.250070 0.587061 -0.769951
vn 0.000097 0.587060 -0.809543
vn 0.054778 0.936787 -0.345584
vn 0.000041 0.938194 -0.346110
vn 0.000097 0.587060 -0.809543
vn 0.127272 0.582294 -0.802954
vn -0.654877 0.587061 -0.475915
vn -0.769891 0.587061 -0.250254
vn -0.475759 0.587061 -0.654990
vn -0.654877 0.587061 -0.475915
vn -0.808947 -0.000000 -0.587882
vn -0.587690 -0.000000 -0.809087
vn -0.250070 0.587061 -0.769951
vn -0.475759 0.587061 -0.654990
vn -0.587690 -0.000000 -0.809087
vn -0.308902 -0.000000 -0.951094
vn 0.000097 0.587060 -0.809543
vn -0.250070 0.587061 -0.769951
vn -0.308902 -0.000000 -0.951094
vn 0.000120 -0.000000 -1.000000
vn 0.127272 0.582294 -0.802954
vn 0.000097 0.587060 -0.809543
vn 0.000120 -0.000000 -1.000000
vn 0.156551 -0.000000 -0.987670
vn -0.951020 -0.000000 -0.309130
vn -0.951020 -0.000000 -0.309130
vn -0.951020 -0.000000 -0.309130
vn -0.951020 -0.000000 -0.309130
vn -0.951020 -0.000000 -0.309130
vn -0.951020 -0.000000 -0.309130
vn -0.951020 -0.000000 -0.309130
vn -0.951020 -0.000000 -0.309130
vn -0.951020 -0.000000 -0.309130
vn -0.951020 -0.000000 -0.309130
vn -0.951020 -0.000000 -0.309130
vn -0.951020 -0.000000 -0.309130
vn -0.951020 -0.000000 -0.309130
vn -0.951020 -0.000000 -0.309130
vn -0.951020 -0.000000 -0.309130
vn -0.951020 -0.000000 -0.309130
vn -0.951020 -0.000000 -0.309130
vn -0.951020 -0.000000 -0.309130
vn -0.951020 -0.000000 -0.309130
vn -0.951020 -0.000000 -0.309130
vn -0.951020 -0.000000 -0.309130
vn -0.951020 -0.000000 -0.309130
vn -0.951020 -0.000000 -0.309130
vn -0.951020 -0.000000 -0.309130
vn -0.951020 -0.000000 -0.309130
vn -0.951020 -0.000000 -0.309130
vn -0.951020 -0.000000 -0.309130
vn -0.951020 -0.000000 -0.309130
vn -0.951020 -0.000000 -0.309130
vn -0.951020 -0.000000 -0.309130
vn -0.951020 -0.000000 -0.309130
vn -0.951020 -0.000000 -0.309130
vn -0.951020 -0.000000 -0.309130
s off
g FoodShortLUpperLeg
usemtl blinn1SG
f 2/1/1 1/2/2 12/3/3
f 3/4/4 2/1/5 12/3/6
f 4/5/7 3/4/8 12/3/9
f 5/6/10 4/5/11 12/3/12
f 6/7/13 5/6/14 12/3/15
f 7/8/16 6/7/17 12/3/18
f 8/9/19 7/8/20 12/3/21
f 9/10/22 8/9/23 12/3/24
f 10/11/25 9/10/26 12/3/27
f 11/12/28 10/11/29 12/3/30
f 1/2/31 11/12/32 12/3/33
s 1
f 13/13/34 1/14/35 2/15/36 18/16/37
f 14/17/38 13/13/34 18/16/37 19/18/39
s off
f 15/19/40 14/17/41 19/18/42 20/20/43
f 16/21/44 15/19/45 20/20/46 21/22/47
f 17/23/48 16/21/49 21/22/50 22/24/51
s 1
f 18/16/37 2/15/36 3/25/52 23/26/53
s off
f 19/18/54 18/16/55 23/26/56 24/27/57
f 20/20/58 19/18/59 24/27/60 25/28/61
f 21/22/62 20/20/63 25/28/64 26/29/65
f 22/24/66 21/22/67 26/29/68 27/30/69
f 23/26/70 3/25/71 4/31/72 28/32/73
f 24/27/74 23/26/75 28/32/76 29/33/77
f 25/28/78 24/27/79 29/33/80 30/34/81
f 26/29/82 25/28/83 30/34/84 31/35/85
f 27/30/86 26/29/87 31/35/88 32/36/89
f 28/32/90 4/31/91 5/37/92 33/38/93
f 29/33/94 28/32/95 33/38/96 34/39/97
f 30/34/98 29/33/99 34/39/100 35/40/101
f 31/35/102 30/34/103 35/40/104 36/41/105
f 32/36/106 31/35/107 36/41/108 37/42/109
f 33/38/110 5/37/111 6/43/112 38/44/113
f 34/39/114 33/38/115 38/44/116 39/45/117
f 35/40/118 34/39/119 39/45/120 40/46/121
f 36/41/122 35/40/123 40/46/124 41/47/125
f 37/42/126 36/41/127 41/47/128 42/48/129
f 38/44/130 6/43/131 7/49/132 43/50/133
f 39/45/134 38/44/135 43/50/136 44/51/137
f 40/46/138 39/45/139 44/51/140 45/52/141
f 41/47/142 40/46/143 45/52/144 46/53/145
f 42/48/146 41/47/147 46/53/148 47/54/149
f 43/55/150 7/56/151 8/57/152 48/58/153
f 44/59/154 43/55/155 48/58/156 49/60/157
f 45/61/158 44/59/159 49/60/160 50/62/161
f 46/63/162 45/61/163 50/62/164 51/64/165
f 47/65/166 46/63/167 51/64/168 52/66/169
f 48/58/170 8/57/171 9/67/172 53/68/173
f 49/60/174 48/58/175 53/68/176 54/69/177
f 50/62/178 49/60/179 54/69/180 55/70/181
f 51/64/182 50/62/183 55/70/184 56/71/185
f 52/66/186 51/64/187 56/71/188 57/72/189
f 53/68/190 9/67/191 10/73/192 58/74/193
f 54/69/194 53/68/195 58/74/196 59/75/197
f 55/70/198 54/69/199 59/75/200 60/76/201
f 56/71/202 55/70/203 60/76/204 61/77/205
f 57/72/206 56/71/207 61/77/208 62/78/209
f 58/74/210 10/73/211 11/79/212 63/80/213
f 59/75/214 58/74/215 63/80/216 64/81/217
f 60/76/218 59/75/219 64/81/220 65/82/221
f 61/77/222 60/76/223 65/82/224 66/83/225
f 62/78/226 61/77/227 66/83/228 67/84/229
s 1
f 63/80/230 11/79/231 1/85/35 13/86/34
s off
f 64/81/232 63/80/233 13/86/234 14/87/235
f 65/82/236 64/81/237 14/87/238 15/88/239
f 66/83/240 65/82/241 15/88/242 16/89/243
f 67/84/244 66/83/245 16/89/246 17/90/247
f 17/91/248 22/92/249 68/93/250
f 22/92/251 27/94/252 68/93/253
f 27/94/254 32/95/255 68/93/256
f 32/95/257 37/96/258 68/93/259
f 37/96/260 42/97/261 68/93/262
f 42/97/263 47/98/264 68/93/265
f 47/98/266 52/99/267 68/93/268
f 52/99/269 57/100/270 68/93/271
f 57/100/272 62/101/273 68/93/274
f 62/101/275 67/102/276 68/93/277
f 67/102/278 17/91/279 68/93/280
