# This file uses centimeters as units for non-parametric coordinates.

mtllib OrangeShortRLowerArm.mtl
g default
v -1.434343 -0.312972 -0.213426
v -1.434348 -0.266700 -0.153122
v -1.434353 -0.237611 -0.082897
v -1.321939 -0.121113 -0.405275
v -1.321948 -0.031722 -0.288777
v -1.321959 0.024472 -0.153114
v -1.143141 0.043639 -0.570012
v -1.143155 0.170057 -0.405259
v -1.143171 0.249528 -0.213402
v -0.910136 0.170058 -0.696411
v -0.910153 0.324888 -0.494631
v -0.910172 0.422219 -0.259654
v -0.638801 0.249528 -0.775860
v -0.638819 0.422219 -0.550804
v -0.638841 0.530777 -0.288721
v -0.347627 0.276633 -0.802941
v -0.347646 0.455417 -0.569945
v -0.347669 0.567805 -0.298617
v -0.056458 0.249528 -0.775811
v -0.056477 0.422219 -0.550755
v -0.056498 0.530777 -0.288673
v 0.214864 0.170058 -0.696318
v 0.214847 0.324888 -0.494538
v 0.214828 0.422219 -0.259561
v 0.447849 0.043639 -0.569880
v 0.447835 0.170057 -0.405128
v 0.447819 0.249528 -0.213270
v 0.626619 -0.121113 -0.405113
v 0.626609 -0.031722 -0.288615
v 0.626598 0.024472 -0.152952
v 0.738991 -0.312972 -0.213246
v 0.738986 -0.266700 -0.152942
v 0.738980 -0.237611 -0.082717
v -1.321931 -0.237611 -0.494667
v -1.434339 -0.373275 -0.259698
v -1.434360 -0.227690 -0.007536
v -1.321972 0.043639 -0.007527
v -1.143131 -0.121113 -0.696431
v -1.143188 0.276634 -0.007512
v -0.910123 -0.031722 -0.851242
v -0.910193 0.455417 -0.007494
v -0.638786 0.024472 -0.948551
v -0.638864 0.567805 -0.007471
v -0.347612 0.043639 -0.981724
v -0.347693 0.606137 -0.007447
v -0.056444 0.024472 -0.948503
v -0.056522 0.567805 -0.007423
v 0.214877 -0.031722 -0.851149
v 0.214807 0.455417 -0.007400
v 0.447859 -0.121113 -0.696300
v 0.447802 0.276634 -0.007380
v 0.626626 -0.237611 -0.494505
v 0.626586 0.043639 -0.007365
v 0.738994 -0.373275 -0.259517
v 0.738974 -0.227690 -0.007356
v -1.472693 -0.518861 -0.007540
v 0.777307 -0.518861 -0.007354
v -1.321972 -0.518874 -0.007510
v -1.143188 -0.518853 -0.007523
v -0.910193 -0.518838 -0.007525
v -0.638864 -0.518828 -0.007516
v -0.347693 -0.518824 -0.007497
v -0.056522 -0.518828 -0.007468
v 0.214807 -0.518857 -0.007397
v 0.447802 -0.518853 -0.007391
v 0.626586 -0.518874 -0.007348
v -1.321951 -0.373274 -0.259683
v -1.143167 -0.373277 -0.259679
v -0.910172 -0.373280 -0.259673
v -0.638844 -0.373283 -0.259657
v -0.347672 -0.373283 -0.259636
v -0.056501 -0.373283 -0.259609
v 0.214828 -0.373274 -0.259557
v 0.447823 -0.373277 -0.259547
v 0.626606 -0.373274 -0.259521
v 0.447842 -0.237612 -0.494522
v 0.214847 -0.237611 -0.494536
v -0.056481 -0.237615 -0.494581
v -0.347653 -0.237615 -0.494606
v -0.638824 -0.237615 -0.494630
v -0.910153 -0.237614 -0.494644
v -1.143148 -0.237612 -0.494654
v -0.910136 -0.121115 -0.696416
v -0.638807 -0.121115 -0.696400
v -0.347636 -0.121116 -0.696378
v -0.056464 -0.121115 -0.696352
v 0.214864 -0.121114 -0.696317
v -0.056452 -0.031723 -0.851175
v -0.347623 -0.031724 -0.851201
v -0.638795 -0.031723 -0.851223
v -1.434366 -0.237611 0.067823
v -1.434372 -0.266699 0.138048
v -1.434377 -0.312972 0.198352
v -1.321984 0.024472 0.138058
v -1.321995 -0.031722 0.273722
v -1.322004 -0.121113 0.390220
v -1.143205 0.249527 0.198376
v -1.143221 0.170057 0.390234
v -1.143235 0.043639 0.554986
v -0.910214 0.422218 0.244668
v -0.910233 0.324887 0.479645
v -0.910250 0.170056 0.681425
v -0.638888 0.530778 0.273778
v -0.638909 0.422219 0.535862
v -0.638928 0.249528 0.760917
v -0.347717 0.567805 0.283724
v -0.347740 0.455416 0.555053
v -0.347759 0.276633 0.788048
v -0.056545 0.530778 0.273826
v -0.056567 0.422219 0.535910
v -0.056585 0.249528 0.760966
v 0.214786 0.422218 0.244761
v 0.214767 0.324887 0.479738
v 0.214750 0.170056 0.681518
v 0.447785 0.249527 0.198508
v 0.447769 0.170057 0.390366
v 0.447755 0.043639 0.555118
v 0.626573 0.024472 0.138220
v 0.626562 -0.031722 0.273883
v 0.626553 -0.121113 0.390381
v 0.738967 -0.237611 0.068003
v 0.738962 -0.266699 0.138228
v 0.738957 -0.312972 0.198532
v -1.434380 -0.373276 0.244626
v -1.322012 -0.237612 0.479612
v -1.143245 -0.121114 0.681406
v -0.910263 -0.031722 0.836256
v -0.638942 0.024472 0.933610
v -0.347774 0.043639 0.966831
v -0.056600 0.024472 0.933658
v 0.214737 -0.031722 0.836349
v 0.447745 -0.121114 0.681538
v 0.626545 -0.237612 0.479773
v 0.738953 -0.373276 0.244806
v -1.321992 -0.373285 0.244643
v -1.143209 -0.373268 0.244642
v -0.910214 -0.373253 0.244645
v -0.638885 -0.373240 0.244656
v -0.347714 -0.373236 0.244676
v -0.056542 -0.373240 0.244704
v 0.214786 -0.373275 0.244762
v 0.447781 -0.373268 0.244774
v 0.626565 -0.373285 0.244804
v -0.910250 -0.121108 0.681419
v -0.638922 -0.121102 0.681434
v -0.347750 -0.121099 0.681455
v -0.056579 -0.121102 0.681482
v 0.214750 -0.121114 0.681519
v -1.143228 -0.237609 0.479621
v -0.910233 -0.237601 0.479626
v -0.638905 -0.237594 0.479636
v -0.347733 -0.237590 0.479656
v -0.056562 -0.237594 0.479684
v 0.214767 -0.237611 0.479739
v 0.447762 -0.237609 0.479753
v -0.638934 -0.031718 0.836272
v -0.347763 -0.031716 0.836293
v -0.056591 -0.031718 0.836320
vt 0.128202 0.525127
vt 0.116742 0.520889
vt 0.127753 0.475072
vt 0.150213 0.482191
vt 0.104505 0.519561
vt 0.104089 0.472832
vt 0.092279 0.521182
vt 0.080397 0.475390
vt 0.080854 0.525709
vt 0.057852 0.482878
vt 0.137232 0.429159
vt 0.169480 0.437151
vt 0.103912 0.426635
vt 0.070518 0.429289
vt 0.038030 0.437447
vt 0.144510 0.383054
vt 0.184517 0.389886
vt 0.103938 0.380876
vt 0.063279 0.382939
vt 0.022979 0.389590
vt 0.149159 0.336742
vt 0.194192 0.340783
vt 0.104097 0.335409
vt 0.058978 0.336438
vt 0.013748 0.339997
vt 0.150920 0.290270
vt 0.197763 0.290570
vt 0.104320 0.290083
vt 0.057720 0.289896
vt 0.010876 0.289596
vt 0.149661 0.243728
vt 0.194892 0.240170
vt 0.104543 0.244758
vt 0.059481 0.243424
vt 0.014448 0.239383
vt 0.145361 0.197227
vt 0.185660 0.190576
vt 0.104702 0.199290
vt 0.064129 0.197112
vt 0.024123 0.190280
vt 0.138121 0.150877
vt 0.170609 0.142720
vt 0.104727 0.153531
vt 0.071408 0.151008
vt 0.039159 0.143015
vt 0.128242 0.104776
vt 0.150787 0.097288
vt 0.104551 0.107334
vt 0.080887 0.105095
vt 0.058427 0.097975
vt 0.116360 0.058985
vt 0.127785 0.054457
vt 0.104135 0.060605
vt 0.091898 0.059277
vt 0.080437 0.055039
vt 0.105094 0.566719
vt 0.103546 0.013447
vt 0.975918 0.823419
vt 0.957626 0.823392
vt 0.957695 0.776002
vt 0.982225 0.776039
vt 0.928529 0.823351
vt 0.928598 0.775964
vt 0.890608 0.823297
vt 0.890676 0.775912
vt 0.846448 0.823234
vt 0.846516 0.775851
vt 0.799059 0.823167
vt 0.799126 0.775784
vt 0.751669 0.823100
vt 0.751735 0.775717
vt 0.707510 0.823037
vt 0.707575 0.775650
vt 0.669588 0.822985
vt 0.669654 0.775597
vt 0.640491 0.822944
vt 0.640557 0.775553
vt 0.622199 0.822919
vt 0.616027 0.775520
vt 0.957563 0.867552
vt 0.928411 0.905430
vt 0.928465 0.867510
vt 0.890491 0.905376
vt 0.890545 0.867457
vt 0.846331 0.905314
vt 0.846385 0.867394
vt 0.798942 0.905247
vt 0.798996 0.867327
vt 0.751554 0.905180
vt 0.751607 0.867260
vt 0.707394 0.905117
vt 0.707448 0.867196
vt 0.669474 0.905064
vt 0.669527 0.867144
vt 0.640429 0.867103
vt 0.890449 0.934473
vt 0.846264 0.952702
vt 0.846290 0.934410
vt 0.798866 0.958873
vt 0.798901 0.934343
vt 0.751487 0.952567
vt 0.751513 0.934276
vt 0.707353 0.934214
vt 0.226393 0.936071
vt 0.214932 0.931833
vt 0.225943 0.886015
vt 0.248403 0.893135
vt 0.202695 0.930505
vt 0.202280 0.883776
vt 0.190470 0.932126
vt 0.178588 0.886334
vt 0.179045 0.936653
vt 0.156043 0.893822
vt 0.235422 0.840102
vt 0.267670 0.848095
vt 0.202103 0.837579
vt 0.168709 0.840233
vt 0.136221 0.848390
vt 0.242701 0.793998
vt 0.282707 0.800830
vt 0.202128 0.791820
vt 0.161469 0.793883
vt 0.121170 0.800534
vt 0.247350 0.747686
vt 0.292382 0.751727
vt 0.202287 0.746353
vt 0.157169 0.747382
vt 0.111938 0.750940
vt 0.249110 0.701214
vt 0.295954 0.701514
vt 0.202510 0.701027
vt 0.155910 0.700840
vt 0.109067 0.700540
vt 0.247852 0.654672
vt 0.293082 0.651114
vt 0.202733 0.655701
vt 0.157671 0.654368
vt 0.112638 0.650327
vt 0.243552 0.608171
vt 0.283851 0.601520
vt 0.202892 0.610234
vt 0.162319 0.608056
vt 0.122313 0.601224
vt 0.236312 0.561821
vt 0.268800 0.553664
vt 0.202918 0.564475
vt 0.169598 0.561952
vt 0.137350 0.553959
vt 0.226433 0.515720
vt 0.248978 0.508232
vt 0.202741 0.518278
vt 0.179078 0.516039
vt 0.156617 0.508919
vt 0.214551 0.469928
vt 0.225975 0.465401
vt 0.202326 0.471549
vt 0.190089 0.470221
vt 0.178628 0.465983
vt 0.203284 0.977663
vt 0.201736 0.424391
vt 0.957695 0.776002
vt 0.982225 0.776039
vt 0.957822 0.684456
vt 0.976053 0.728641
vt 0.957761 0.728615
vt 0.928598 0.775964
vt 0.928778 0.646496
vt 0.928725 0.684417
vt 0.890676 0.775912
vt 0.890898 0.617346
vt 0.890857 0.646443
vt 0.846516 0.775851
vt 0.846765 0.598992
vt 0.846739 0.617284
vt 0.799126 0.775784
vt 0.799385 0.592686
vt 0.799350 0.617217
vt 0.751735 0.775717
vt 0.751988 0.598857
vt 0.751962 0.617149
vt 0.707575 0.775650
vt 0.707802 0.617085
vt 0.669654 0.775597
vt 0.669840 0.646128
vt 0.707761 0.646183
vt 0.640557 0.775553
vt 0.640688 0.684007
vt 0.669786 0.684049
vt 0.616027 0.775520
vt 0.622333 0.728140
vt 0.640625 0.728165
vt 0.928663 0.728576
vt 0.890742 0.728525
vt 0.846582 0.728464
vt 0.799193 0.728398
vt 0.751803 0.728329
vt 0.707643 0.728263
vt 0.669723 0.728208
vt 0.890804 0.684366
vt 0.846698 0.646382
vt 0.846644 0.684305
vt 0.799309 0.646315
vt 0.799255 0.684239
vt 0.751920 0.646247
vt 0.751866 0.684170
vt 0.707707 0.684103
vn -0.943823 0.201127 -0.262196
vn -0.944704 0.231838 -0.231917
vn -0.845932 0.377059 -0.377128
vn -0.843851 0.326614 -0.425721
vn -0.944709 0.283944 -0.164013
vn -0.845940 0.461802 -0.266691
vn -0.944716 0.316699 -0.084937
vn -0.845951 0.515072 -0.138083
vn -0.944723 0.327869 -0.000079
vn -0.845963 0.533242 -0.000070
vn -0.689257 0.512283 -0.512338
vn -0.686137 0.442830 -0.577163
vn -0.689270 0.627415 -0.362295
vn -0.689284 0.699790 -0.187567
vn -0.689300 0.724476 -0.000057
vn -0.486522 0.617757 -0.617796
vn -0.483329 0.532914 -0.694548
vn -0.486537 0.756595 -0.436860
vn -0.486554 0.843871 -0.226156
vn -0.486573 0.873640 -0.000040
vn -0.251535 0.684362 -0.684382
vn -0.249511 0.589497 -0.768269
vn -0.251550 0.838169 -0.483938
vn -0.251569 0.934856 -0.250515
vn -0.251590 0.967834 -0.000021
vn 0.000059 0.707107 -0.707107
vn 0.000066 0.608761 -0.793354
vn 0.000041 0.866026 -0.500000
vn 0.000021 0.965926 -0.258818
vn 0.000000 1.000000 0.000000
vn 0.251648 0.684362 -0.684341
vn 0.249638 0.589497 -0.768228
vn 0.251630 0.838169 -0.483896
vn 0.251611 0.934856 -0.250474
vn 0.251591 0.967834 0.000021
vn 0.486624 0.617758 -0.617716
vn 0.483444 0.532914 -0.694467
vn 0.486609 0.756595 -0.436779
vn 0.486592 0.843871 -0.226075
vn 0.486573 0.873640 0.000040
vn 0.689342 0.512284 -0.512224
vn 0.686233 0.442830 -0.577049
vn 0.689329 0.627415 -0.362181
vn 0.689316 0.699790 -0.187452
vn 0.689300 0.724477 0.000057
vn 0.845994 0.377059 -0.376988
vn 0.843922 0.326614 -0.425581
vn 0.845984 0.461802 -0.266551
vn 0.845974 0.515072 -0.137943
vn 0.845963 0.533242 0.000070
vn 0.944742 0.231838 -0.231761
vn 0.943866 0.201127 -0.262039
vn 0.944737 0.283944 -0.163856
vn 0.944730 0.316699 -0.084780
vn 0.944723 0.327869 0.000078
vn -0.993990 0.109467 -0.000082
vn 0.993990 0.109467 0.000083
vn 0.000054 -0.866022 -0.500006
vn 0.000034 -0.866025 -0.500001
vn 0.000037 -0.866021 -0.500007
vn 0.000045 -0.866018 -0.500012
vn 0.000019 -0.866030 -0.499993
vn 0.000030 -0.866036 -0.499982
vn 0.000023 -0.866036 -0.499981
vn 0.000030 -0.866055 -0.499949
vn 0.000033 -0.866041 -0.499973
vn 0.000037 -0.866066 -0.499929
vn 0.000041 -0.866043 -0.499970
vn 0.000041 -0.866070 -0.499923
vn 0.000068 -0.866039 -0.499977
vn 0.000059 -0.866059 -0.499941
vn 0.000060 -0.866031 -0.499990
vn 0.000052 -0.866040 -0.499975
vn 0.000039 -0.866027 -0.499997
vn 0.000035 -0.866028 -0.499996
vn 0.000049 -0.866025 -0.500001
vn 0.000046 -0.866021 -0.500008
vn 0.000029 -0.866022 -0.500007
vn 0.000038 -0.866018 -0.500013
vn 0.000020 -0.866028 -0.499996
vn 0.000023 -0.866018 -0.500012
vn 0.000015 -0.866021 -0.500007
vn 0.000026 -0.866016 -0.500017
vn 0.000019 -0.866016 -0.500016
vn 0.000032 -0.866014 -0.500021
vn 0.000030 -0.866014 -0.500020
vn 0.000041 -0.866013 -0.500021
vn 0.000041 -0.866014 -0.500021
vn 0.000059 -0.866017 -0.500015
vn 0.000071 -0.866017 -0.500014
vn 0.000058 -0.866023 -0.500005
vn 0.000064 -0.866023 -0.500004
vn 0.000037 -0.866025 -0.500001
vn 0.000041 -0.866026 -0.500000
vn 0.000063 -0.866028 -0.499996
vn 0.000029 -0.866015 -0.500018
vn 0.000037 -0.866013 -0.500022
vn 0.000034 -0.866013 -0.500021
vn 0.000041 -0.866012 -0.500023
vn 0.000041 -0.866013 -0.500022
vn 0.000045 -0.866013 -0.500022
vn 0.000051 -0.866015 -0.500018
vn 0.000056 -0.866021 -0.500008
vn -0.944730 0.316699 0.084781
vn -0.845974 0.515073 0.137944
vn -0.944736 0.283944 0.163857
vn -0.845985 0.461802 0.266551
vn -0.944742 0.231839 0.231760
vn -0.845995 0.377059 0.376988
vn -0.943866 0.201130 0.262039
vn -0.843922 0.326613 0.425581
vn -0.689315 0.699790 0.187453
vn -0.689329 0.627415 0.362181
vn -0.689342 0.512283 0.512224
vn -0.686235 0.442829 0.577048
vn -0.486592 0.843871 0.226076
vn -0.486610 0.756594 0.436780
vn -0.486624 0.617758 0.617715
vn -0.483444 0.532916 0.694466
vn -0.251611 0.934856 0.250473
vn -0.251631 0.838169 0.483896
vn -0.251648 0.684363 0.684340
vn -0.249637 0.589499 0.768227
vn -0.000021 0.965926 0.258819
vn -0.000041 0.866026 0.500000
vn -0.000059 0.707107 0.707106
vn -0.000066 0.608761 0.793353
vn 0.251570 0.934856 0.250515
vn 0.251550 0.838169 0.483937
vn 0.251534 0.684363 0.684382
vn 0.249509 0.589499 0.768269
vn 0.486554 0.843871 0.226156
vn 0.486537 0.756594 0.436860
vn 0.486522 0.617758 0.617796
vn 0.483329 0.532916 0.694546
vn 0.689283 0.699791 0.187567
vn 0.689268 0.627416 0.362296
vn 0.689256 0.512284 0.512339
vn 0.686139 0.442830 0.577162
vn 0.845950 0.515074 0.138084
vn 0.845940 0.461802 0.266692
vn 0.845931 0.377060 0.377129
vn 0.843850 0.326615 0.425722
vn 0.944715 0.316699 0.084937
vn 0.944709 0.283944 0.164013
vn 0.944704 0.231838 0.231916
vn 0.943822 0.201130 0.262195
vn 0.000015 -0.866022 0.500006
vn -0.000160 -0.866013 0.500022
vn -0.000007 -0.866017 0.500014
vn 0.000005 -0.866042 0.499972
vn 0.000022 -0.866035 0.499983
vn -0.000012 -0.866050 0.499957
vn -0.000003 -0.866048 0.499961
vn -0.000029 -0.866057 0.499945
vn -0.000024 -0.866054 0.499950
vn -0.000041 -0.866058 0.499944
vn -0.000041 -0.866056 0.499946
vn -0.000054 -0.866057 0.499945
vn -0.000064 -0.866050 0.499957
vn -0.000076 -0.866036 0.499982
vn -0.000036 -0.866030 0.499991
vn -0.000080 -0.866035 0.499983
vn -0.000098 -0.866022 0.500006
vn -0.000051 -0.866029 0.499995
vn 0.000077 -0.866013 0.500022
vn -0.000076 -0.866017 0.500014
vn -0.000164 -0.866016 0.500017
vn -0.000004 -0.866019 0.500012
vn 0.000059 -0.866030 0.499993
vn 0.000082 -0.866027 0.499997
vn 0.000029 -0.866040 0.499975
vn 0.000035 -0.866033 0.499988
vn -0.000005 -0.866043 0.499970
vn -0.000003 -0.866032 0.499988
vn -0.000041 -0.866044 0.499969
vn -0.000041 -0.866032 0.499989
vn -0.000130 -0.866040 0.499975
vn -0.000138 -0.866031 0.499990
vn -0.000112 -0.866033 0.499987
vn -0.000118 -0.866030 0.499993
vn -0.000072 -0.866026 0.500000
vn -0.000085 -0.866025 0.500000
vn -0.000079 -0.866019 0.500012
vn 0.000081 -0.866016 0.500017
vn 0.000013 -0.866047 0.499962
vn -0.000017 -0.866054 0.499951
vn -0.000010 -0.866054 0.499950
vn -0.000041 -0.866056 0.499947
vn -0.000041 -0.866056 0.499946
vn -0.000084 -0.866048 0.499961
vn -0.000109 -0.866049 0.499959
vn -0.000096 -0.866036 0.499981
s 1
g FoodShortRLowerArm
usemtl Orange_blinn1SG
f 35/1/1 1/2/2 4/3/3 34/4/4
f 1/2/2 2/5/5 5/6/6 4/3/3
f 2/5/5 3/7/7 6/8/8 5/6/6
f 3/7/7 36/9/9 37/10/10 6/8/8
f 34/4/4 4/3/3 7/11/11 38/12/12
f 4/3/3 5/6/6 8/13/13 7/11/11
f 5/6/6 6/8/8 9/14/14 8/13/13
f 6/8/8 37/10/10 39/15/15 9/14/14
f 38/12/12 7/11/11 10/16/16 40/17/17
f 7/11/11 8/13/13 11/18/18 10/16/16
f 8/13/13 9/14/14 12/19/19 11/18/18
f 9/14/14 39/15/15 41/20/20 12/19/19
f 40/17/17 10/16/16 13/21/21 42/22/22
f 10/16/16 11/18/18 14/23/23 13/21/21
f 11/18/18 12/19/19 15/24/24 14/23/23
f 12/19/19 41/20/20 43/25/25 15/24/24
f 42/22/22 13/21/21 16/26/26 44/27/27
f 13/21/21 14/23/23 17/28/28 16/26/26
f 14/23/23 15/24/24 18/29/29 17/28/28
f 15/24/24 43/25/25 45/30/30 18/29/29
f 44/27/27 16/26/26 19/31/31 46/32/32
f 16/26/26 17/28/28 20/33/33 19/31/31
f 17/28/28 18/29/29 21/34/34 20/33/33
f 18/29/29 45/30/30 47/35/35 21/34/34
f 46/32/32 19/31/31 22/36/36 48/37/37
f 19/31/31 20/33/33 23/38/38 22/36/36
f 20/33/33 21/34/34 24/39/39 23/38/38
f 21/34/34 47/35/35 49/40/40 24/39/39
f 48/37/37 22/36/36 25/41/41 50/42/42
f 22/36/36 23/38/38 26/43/43 25/41/41
f 23/38/38 24/39/39 27/44/44 26/43/43
f 24/39/39 49/40/40 51/45/45 27/44/44
f 50/42/42 25/41/41 28/46/46 52/47/47
f 25/41/41 26/43/43 29/48/48 28/46/46
f 26/43/43 27/44/44 30/49/49 29/48/48
f 27/44/44 51/45/45 53/50/50 30/49/49
f 52/47/47 28/46/46 31/51/51 54/52/52
f 28/46/46 29/48/48 32/53/53 31/51/51
f 29/48/48 30/49/49 33/54/54 32/53/53
f 30/49/49 53/50/50 55/55/55 33/54/54
f 1/2/2 35/1/1 56/56/56
f 2/5/5 1/2/2 56/56/56
f 3/7/7 2/5/5 56/56/56
f 36/9/9 3/7/7 56/56/56
f 54/52/52 31/51/51 57/57/57
f 31/51/51 32/53/53 57/57/57
f 32/53/53 33/54/54 57/57/57
f 33/54/54 55/55/55 57/57/57
s 2
f 35/58/58 67/59/59 58/60/60 56/61/61
f 67/59/59 68/62/62 59/63/63 58/60/60
f 68/62/62 69/64/64 60/65/65 59/63/63
f 69/64/64 70/66/66 61/67/67 60/65/65
f 70/66/66 71/68/68 62/69/69 61/67/67
f 71/68/68 72/70/70 63/71/71 62/69/69
f 72/70/70 73/72/72 64/73/73 63/71/71
f 73/72/72 74/74/74 65/75/75 64/73/73
f 74/74/74 75/76/76 66/77/77 65/75/75
f 75/76/76 54/78/78 57/79/79 66/77/77
f 35/58/58 34/80/80 67/59/59
f 34/80/80 38/81/81 82/82/82
f 38/81/81 83/83/83 81/84/84 82/82/82
f 83/83/83 84/85/85 80/86/86 81/84/84
f 84/85/85 85/87/87 79/88/88 80/86/86
f 85/87/87 86/89/89 78/90/90 79/88/88
f 86/89/89 87/91/91 77/92/92 78/90/90
f 87/91/91 50/93/93 76/94/94 77/92/92
f 50/93/93 52/95/95 76/94/94
f 52/95/95 54/78/78 75/76/76
f 76/94/94 52/95/95 75/76/76 74/74/74
f 77/92/92 76/94/94 74/74/74 73/72/72
f 78/90/90 77/92/92 73/72/72 72/70/70
f 79/88/88 78/90/90 72/70/70 71/68/68
f 80/86/86 79/88/88 71/68/68 70/66/66
f 81/84/84 80/86/86 70/66/66 69/64/64
f 82/82/82 81/84/84 69/64/64 68/62/62
f 34/80/80 82/82/82 68/62/62 67/59/59
f 38/81/81 40/96/96 83/83/83
f 40/96/96 42/97/97 90/98/98
f 42/97/97 44/99/99 89/100/100 90/98/98
f 44/99/99 46/101/101 88/102/102 89/100/100
f 46/101/101 48/103/103 88/102/102
f 48/103/103 50/93/93 87/91/91
f 88/102/102 48/103/103 87/91/91 86/89/89
f 89/100/100 88/102/102 86/89/89 85/87/87
f 90/98/98 89/100/100 85/87/87 84/85/85
f 40/96/96 90/98/98 84/85/85 83/83/83
s 1
f 36/104/9 91/105/104 94/106/105 37/107/10
f 91/105/104 92/108/106 95/109/107 94/106/105
f 92/108/106 93/110/108 96/111/109 95/109/107
f 93/110/108 124/112/110 125/113/111 96/111/109
f 37/107/10 94/106/105 97/114/112 39/115/15
f 94/106/105 95/109/107 98/116/113 97/114/112
f 95/109/107 96/111/109 99/117/114 98/116/113
f 96/111/109 125/113/111 126/118/115 99/117/114
f 39/115/15 97/114/112 100/119/116 41/120/20
f 97/114/112 98/116/113 101/121/117 100/119/116
f 98/116/113 99/117/114 102/122/118 101/121/117
f 99/117/114 126/118/115 127/123/119 102/122/118
f 41/120/20 100/119/116 103/124/120 43/125/25
f 100/119/116 101/121/117 104/126/121 103/124/120
f 101/121/117 102/122/118 105/127/122 104/126/121
f 102/122/118 127/123/119 128/128/123 105/127/122
f 43/125/25 103/124/120 106/129/124 45/130/30
f 103/124/120 104/126/121 107/131/125 106/129/124
f 104/126/121 105/127/122 108/132/126 107/131/125
f 105/127/122 128/128/123 129/133/127 108/132/126
f 45/130/30 106/129/124 109/134/128 47/135/35
f 106/129/124 107/131/125 110/136/129 109/134/128
f 107/131/125 108/132/126 111/137/130 110/136/129
f 108/132/126 129/133/127 130/138/131 111/137/130
f 47/135/35 109/134/128 112/139/132 49/140/40
f 109/134/128 110/136/129 113/141/133 112/139/132
f 110/136/129 111/137/130 114/142/134 113/141/133
f 111/137/130 130/138/131 131/143/135 114/142/134
f 49/140/40 112/139/132 115/144/136 51/145/45
f 112/139/132 113/141/133 116/146/137 115/144/136
f 113/141/133 114/142/134 117/147/138 116/146/137
f 114/142/134 131/143/135 132/148/139 117/147/138
f 51/145/45 115/144/136 118/149/140 53/150/50
f 115/144/136 116/146/137 119/151/141 118/149/140
f 116/146/137 117/147/138 120/152/142 119/151/141
f 117/147/138 132/148/139 133/153/143 120/152/142
f 53/150/50 118/149/140 121/154/144 55/155/55
f 118/149/140 119/151/141 122/156/145 121/154/144
f 119/151/141 120/152/142 123/157/146 122/156/145
f 120/152/142 133/153/143 134/158/147 123/157/146
f 91/105/104 36/104/9 56/159/56
f 92/108/106 91/105/104 56/159/56
f 93/110/108 92/108/106 56/159/56
f 124/112/110 93/110/108 56/159/56
f 55/155/55 121/154/144 57/160/57
f 121/154/144 122/156/145 57/160/57
f 122/156/145 123/157/146 57/160/57
f 123/157/146 134/158/147 57/160/57
s 5
f 125/163/148 124/164/149 135/165/150
f 126/167/151 125/163/148 149/168/152
f 127/170/153 126/167/151 144/171/154
f 128/173/155 127/170/153 156/174/156
f 129/176/157 128/173/155 156/174/156 157/177/158
f 130/179/159 129/176/157 157/177/158 158/180/160
f 131/182/161 130/179/159 158/180/160
f 132/184/162 131/182/161 148/185/163
f 133/187/164 132/184/162 155/188/165
f 134/190/166 133/187/164 143/191/167
f 135/165/150 124/164/149 56/162/168 58/161/169
f 136/192/170 135/165/150 58/161/169 59/166/171
f 137/193/172 136/192/170 59/166/171 60/169/173
f 138/194/174 137/193/172 60/169/173 61/172/175
f 139/195/176 138/194/174 61/172/175 62/175/177
f 140/196/178 139/195/176 62/175/177 63/178/179
f 141/197/180 140/196/178 63/178/179 64/181/181
f 142/198/182 141/197/180 64/181/181 65/183/183
f 143/191/167 142/198/182 65/183/183 66/186/184
f 134/190/166 143/191/167 66/186/184 57/189/185
f 144/171/154 126/167/151 149/168/152 150/199/186
f 145/200/187 144/171/154 150/199/186 151/201/188
f 146/202/189 145/200/187 151/201/188 152/203/190
f 147/204/191 146/202/189 152/203/190 153/205/192
f 148/185/163 147/204/191 153/205/192 154/206/193
f 132/184/162 148/185/163 154/206/193 155/188/165
f 149/168/152 125/163/148 135/165/150 136/192/170
f 150/199/186 149/168/152 136/192/170 137/193/172
f 151/201/188 150/199/186 137/193/172 138/194/174
f 152/203/190 151/201/188 138/194/174 139/195/176
f 153/205/192 152/203/190 139/195/176 140/196/178
f 154/206/193 153/205/192 140/196/178 141/197/180
f 155/188/165 154/206/193 141/197/180 142/198/182
f 133/187/164 155/188/165 142/198/182 143/191/167
f 156/174/156 127/170/153 144/171/154 145/200/187
f 157/177/158 156/174/156 145/200/187 146/202/189
f 158/180/160 157/177/158 146/202/189 147/204/191
f 131/182/161 158/180/160 147/204/191 148/185/163
