# This file uses centimeters as units for non-parametric coordinates.

mtllib OrangeShortLUpperArm.mtl
g default
v -0.858572 -0.222545 0.051313
v -0.858576 -0.214654 -0.008625
v -0.858579 -0.222545 -0.068563
v -0.769182 -0.014098 0.107161
v -0.769188 0.001145 -0.008630
v -0.769195 -0.014098 -0.124422
v -0.626984 0.164901 0.155116
v -0.626993 0.186457 -0.008639
v -0.627002 0.164899 -0.172391
v -0.441669 0.302249 0.191907
v -0.441681 0.328654 -0.008649
v -0.441692 0.302250 -0.209206
v -0.225867 0.388591 0.215031
v -0.225880 0.418041 -0.008661
v -0.225893 0.388591 -0.232353
v 0.005716 0.418041 0.222909
v 0.005703 0.448529 -0.008675
v 0.005690 0.418041 -0.240258
v 0.237298 0.388591 0.215004
v 0.237285 0.418041 -0.008687
v 0.237273 0.388591 -0.232379
v 0.453098 0.302249 0.191856
v 0.453086 0.328654 -0.008701
v 0.453075 0.302250 -0.209257
v 0.638408 0.164901 0.155043
v 0.638398 0.186457 -0.008711
v 0.638389 0.164899 -0.172464
v 0.780600 -0.014098 0.107073
v 0.780594 0.001145 -0.008718
v 0.780587 -0.014098 -0.124510
v 0.869985 -0.222545 0.051215
v 0.869981 -0.214654 -0.008723
v 0.869978 -0.222545 -0.068662
v -0.769175 -0.058792 0.215061
v -0.858569 -0.245681 0.107166
v -0.858582 -0.245681 -0.124417
v -0.769201 -0.058792 -0.232323
v -0.626975 0.101695 0.307709
v -0.627011 0.101692 -0.324987
v -0.441658 0.224837 0.378796
v -0.441703 0.224838 -0.396094
v -0.225855 0.302249 0.423478
v -0.225905 0.302250 -0.440800
v 0.005728 0.328654 0.438708
v 0.005677 0.328653 -0.456057
v 0.237310 0.302249 0.423451
v 0.237261 0.302250 -0.440827
v 0.453108 0.224837 0.378745
v 0.453064 0.224838 -0.396145
v 0.638417 0.101695 0.307637
v 0.638380 0.101692 -0.325059
v 0.780606 -0.058792 0.214973
v 0.780581 -0.058792 -0.232411
v 0.869988 -0.245681 0.107067
v 0.869974 -0.245681 -0.124516
v -0.889064 -0.446238 -0.008623
v 0.900470 -0.446238 -0.008725
v -0.769188 -0.446249 -0.008647
v -0.626993 -0.446230 -0.008629
v -0.441681 -0.446215 -0.008620
v -0.225880 -0.446207 -0.008620
v 0.005703 -0.446203 -0.008628
v 0.237285 -0.446207 -0.008646
v 0.453086 -0.446233 -0.008702
v 0.638398 -0.446230 -0.008702
v 0.780594 -0.446249 -0.008734
v -0.769195 -0.245684 -0.124432
v -0.627000 -0.245677 -0.124422
v -0.441687 -0.245673 -0.124415
v -0.225886 -0.245670 -0.124415
v 0.005696 -0.245668 -0.124423
v 0.237279 -0.245670 -0.124441
v 0.453080 -0.245680 -0.124491
v 0.638392 -0.245677 -0.124495
v 0.780587 -0.245684 -0.124520
v -0.441699 0.101695 -0.324990
v -0.225898 0.101697 -0.324995
v 0.005685 0.101697 -0.325005
v 0.237267 0.101697 -0.325021
v 0.453068 0.101692 -0.325049
v -0.627006 -0.058792 -0.232326
v -0.441693 -0.058793 -0.232322
v -0.225893 -0.058792 -0.232324
v 0.005690 -0.058793 -0.232334
v 0.237273 -0.058792 -0.232351
v 0.453073 -0.058791 -0.232392
v 0.638386 -0.058792 -0.232398
v -0.225902 0.224838 -0.396100
v 0.005681 0.224838 -0.396111
v 0.237263 0.224838 -0.396127
v -0.769182 -0.245682 0.107156
v -0.626986 -0.245679 0.107157
v -0.441674 -0.245677 0.107156
v -0.225873 -0.245676 0.107151
v 0.005709 -0.245676 0.107139
v 0.237292 -0.245676 0.107124
v 0.453093 -0.245683 0.107088
v 0.638405 -0.245679 0.107085
v 0.780600 -0.245682 0.107067
v 0.638411 -0.058792 0.214983
v 0.453099 -0.058792 0.214989
v 0.237298 -0.058785 0.215019
v 0.005716 -0.058786 0.215033
v -0.225867 -0.058785 0.215045
v -0.441668 -0.058789 0.215052
v -0.626980 -0.058792 0.215055
v -0.441663 0.101695 0.307703
v -0.225862 0.101696 0.307695
v 0.005721 0.101697 0.307683
v 0.237303 0.101696 0.307668
v 0.453104 0.101692 0.307647
v 0.237308 0.224838 0.378760
v 0.005725 0.224839 0.378774
v -0.225858 0.224838 0.378786
vt 0.919735 0.525127
vt 0.908274 0.520889
vt 0.919286 0.475072
vt 0.941746 0.482191
vt 0.896038 0.519561
vt 0.895622 0.472832
vt 0.883812 0.521182
vt 0.871930 0.475390
vt 0.872388 0.525709
vt 0.849385 0.482878
vt 0.928765 0.429159
vt 0.961013 0.437151
vt 0.895445 0.426635
vt 0.862051 0.429289
vt 0.829563 0.437447
vt 0.936043 0.383054
vt 0.976050 0.389886
vt 0.895471 0.380876
vt 0.854811 0.382939
vt 0.814512 0.389590
vt 0.940692 0.336742
vt 0.985724 0.340783
vt 0.895630 0.335409
vt 0.850511 0.336438
vt 0.805281 0.339997
vt 0.942453 0.290270
vt 0.989296 0.290570
vt 0.895853 0.290083
vt 0.849253 0.289896
vt 0.802409 0.289596
vt 0.941194 0.243728
vt 0.986425 0.240170
vt 0.896075 0.244758
vt 0.851013 0.243424
vt 0.805981 0.239383
vt 0.936894 0.197227
vt 0.977193 0.190576
vt 0.896234 0.199290
vt 0.855662 0.197112
vt 0.815656 0.190280
vt 0.929654 0.150877
vt 0.962142 0.142720
vt 0.896260 0.153531
vt 0.862941 0.151008
vt 0.830692 0.143015
vt 0.919775 0.104776
vt 0.942320 0.097288
vt 0.896083 0.107334
vt 0.872420 0.105095
vt 0.849959 0.097975
vt 0.907893 0.058985
vt 0.919318 0.054457
vt 0.895668 0.060605
vt 0.883431 0.059277
vt 0.871970 0.055039
vt 0.896626 0.566719
vt 0.895079 0.013447
vt 0.975918 0.823419
vt 0.957626 0.823392
vt 0.957695 0.776002
vt 0.982225 0.776039
vt 0.957822 0.684456
vt 0.976053 0.728641
vt 0.957761 0.728615
vt 0.928529 0.823351
vt 0.928598 0.775964
vt 0.928778 0.646496
vt 0.928725 0.684417
vt 0.890608 0.823297
vt 0.890676 0.775912
vt 0.890898 0.617346
vt 0.890857 0.646443
vt 0.846448 0.823234
vt 0.846516 0.775851
vt 0.846765 0.598992
vt 0.846739 0.617284
vt 0.799059 0.823167
vt 0.799126 0.775784
vt 0.799385 0.592686
vt 0.799350 0.617217
vt 0.751669 0.823100
vt 0.751735 0.775717
vt 0.751988 0.598857
vt 0.751962 0.617149
vt 0.707510 0.823037
vt 0.707575 0.775650
vt 0.707802 0.617085
vt 0.669588 0.822985
vt 0.669654 0.775597
vt 0.669840 0.646128
vt 0.707761 0.646183
vt 0.640491 0.822944
vt 0.640557 0.775553
vt 0.640688 0.684007
vt 0.669786 0.684049
vt 0.622199 0.822919
vt 0.616027 0.775520
vt 0.622333 0.728140
vt 0.640625 0.728165
vt 0.928663 0.728576
vt 0.890742 0.728525
vt 0.846582 0.728464
vt 0.799193 0.728398
vt 0.751803 0.728329
vt 0.707643 0.728263
vt 0.669723 0.728208
vt 0.890804 0.684366
vt 0.846698 0.646382
vt 0.846644 0.684305
vt 0.799309 0.646315
vt 0.799255 0.684239
vt 0.751920 0.646247
vt 0.751866 0.684170
vt 0.707707 0.684103
vt 0.957563 0.867552
vt 0.928411 0.905430
vt 0.928465 0.867510
vt 0.890491 0.905376
vt 0.890545 0.867457
vt 0.846331 0.905314
vt 0.846385 0.867394
vt 0.798942 0.905247
vt 0.798996 0.867327
vt 0.751554 0.905180
vt 0.751607 0.867260
vt 0.707394 0.905117
vt 0.707448 0.867196
vt 0.669474 0.905064
vt 0.669527 0.867144
vt 0.640429 0.867103
vt 0.890449 0.934473
vt 0.846264 0.952702
vt 0.846290 0.934410
vt 0.798866 0.958873
vt 0.798901 0.934343
vt 0.751487 0.952567
vt 0.751513 0.934276
vt 0.707353 0.934214
vn -0.943837 0.305240 0.126491
vn -0.843875 0.495680 0.205366
vn -0.845955 0.515072 0.138059
vn -0.944718 0.316698 0.084912
vn -0.845963 0.533242 0.000048
vn -0.944723 0.327870 0.000053
vn -0.845970 0.515073 -0.137964
vn -0.944728 0.316697 -0.084804
vn -0.843897 0.495682 -0.205272
vn -0.943852 0.305239 -0.126382
vn -0.686169 0.672055 0.278413
vn -0.689289 0.699791 0.187545
vn -0.689301 0.724475 0.000039
vn -0.689312 0.699789 -0.187468
vn -0.686203 0.672053 -0.278336
vn -0.483365 0.808772 0.335032
vn -0.486559 0.843872 0.226143
vn -0.486573 0.873640 0.000028
vn -0.486587 0.843871 -0.226087
vn -0.483406 0.808770 -0.334976
vn -0.249554 0.894644 0.370588
vn -0.251577 0.934856 0.250508
vn -0.251590 0.967834 0.000015
vn -0.251604 0.934856 -0.250478
vn -0.249594 0.894645 -0.370559
vn 0.000022 0.923880 0.382683
vn 0.000015 0.965926 0.258818
vn 0.000000 1.000000 -0.000000
vn -0.000015 0.965926 -0.258818
vn -0.000022 0.923880 -0.382683
vn 0.249596 0.894644 0.370560
vn 0.251606 0.934855 0.250480
vn 0.251590 0.967834 -0.000013
vn 0.251575 0.934856 -0.250507
vn 0.249551 0.894645 -0.370587
vn 0.483403 0.808772 0.334977
vn 0.486585 0.843872 0.226087
vn 0.486573 0.873640 -0.000027
vn 0.486560 0.843871 -0.226142
vn 0.483368 0.808770 -0.335031
vn 0.686201 0.672054 0.278336
vn 0.689310 0.699791 0.187467
vn 0.689301 0.724475 -0.000040
vn 0.689291 0.699789 -0.187547
vn 0.686171 0.672053 -0.278414
vn 0.843899 0.495679 0.205271
vn 0.845971 0.515072 0.137963
vn 0.845963 0.533242 -0.000049
vn 0.845955 0.515073 -0.138061
vn 0.843874 0.495683 -0.205367
vn 0.943852 0.305239 0.126384
vn 0.944728 0.316697 0.084806
vn 0.944723 0.327869 -0.000054
vn 0.944719 0.316697 -0.084912
vn 0.943837 0.305240 -0.126489
vn -0.992011 0.126150 0.000056
vn 0.992011 0.126151 -0.000057
vn 0.000106 -0.500011 0.866019
vn 0.000111 -0.500009 0.866020
vn 0.000036 -0.500007 0.866021
vn 0.000036 -0.500008 0.866021
vn 0.000009 -0.499994 -0.866029
vn -0.000012 -0.499983 -0.866036
vn -0.000188 -0.499971 -0.866042
vn -0.000007 -0.499997 0.866027
vn 0.000005 -0.499997 0.866027
vn 0.000000 -0.500031 -0.866008
vn 0.000017 -0.500019 -0.866015
vn 0.000013 -0.499985 0.866034
vn 0.000018 -0.499986 0.866034
vn -0.000017 -0.500045 -0.866000
vn -0.000008 -0.500041 -0.866002
vn 0.000032 -0.499979 0.866037
vn 0.000034 -0.499980 0.866037
vn -0.000036 -0.500051 -0.865996
vn -0.000032 -0.500050 -0.865996
vn 0.000049 -0.499978 0.866038
vn 0.000049 -0.499978 0.866038
vn -0.000049 -0.500051 -0.865996
vn -0.000049 -0.500053 -0.865995
vn 0.000101 -0.499985 0.866034
vn 0.000093 -0.499984 0.866035
vn -0.000063 -0.500051 -0.865996
vn -0.000073 -0.500044 -0.866000
vn 0.000086 -0.499995 0.866028
vn 0.000081 -0.499994 0.866029
vn -0.000088 -0.500019 -0.866015
vn 0.000058 -0.500002 0.866024
vn 0.000054 -0.500002 0.866024
vn -0.000047 -0.500014 -0.866017
vn -0.000091 -0.500019 -0.866014
vn 0.000063 -0.500006 0.866022
vn 0.000062 -0.500008 0.866021
vn -0.000108 -0.499994 -0.866029
vn -0.000062 -0.500007 -0.866021
vn -0.000008 -0.500008 0.866021
vn -0.000004 -0.500010 0.866020
vn 0.000086 -0.499973 -0.866041
vn -0.000087 -0.499983 -0.866035
vn -0.000010 -0.499982 -0.866036
vn -0.000195 -0.499974 -0.866040
vn 0.000062 -0.500011 -0.866019
vn 0.000092 -0.500010 -0.866020
vn 0.000026 -0.500037 -0.866004
vn 0.000037 -0.500036 -0.866005
vn -0.000012 -0.500050 -0.865997
vn -0.000007 -0.500048 -0.865998
vn -0.000049 -0.500053 -0.865995
vn -0.000049 -0.500051 -0.865996
vn -0.000145 -0.500039 -0.866003
vn -0.000161 -0.500037 -0.866004
vn -0.000125 -0.500016 -0.866016
vn -0.000136 -0.500015 -0.866017
vn -0.000083 -0.499999 -0.866026
vn -0.000096 -0.499998 -0.866027
vn -0.000089 -0.499984 -0.866035
vn 0.000092 -0.499976 -0.866039
vn 0.000006 -0.500039 -0.866003
vn -0.000027 -0.500049 -0.865997
vn -0.000020 -0.500050 -0.865996
vn -0.000049 -0.500053 -0.865995
vn -0.000049 -0.500054 -0.865995
vn -0.000090 -0.500039 -0.866003
vn -0.000115 -0.500040 -0.866002
vn -0.000105 -0.500020 -0.866014
vn 0.000028 -0.500003 0.866024
vn 0.000023 -0.499993 0.866029
vn 0.000029 -0.499986 0.866034
vn 0.000027 -0.499985 0.866034
vn 0.000033 -0.499983 0.866036
vn 0.000038 -0.499981 0.866037
vn 0.000041 -0.499979 0.866037
vn 0.000049 -0.499979 0.866037
vn 0.000049 -0.499978 0.866038
vn 0.000079 -0.499986 0.866034
vn 0.000067 -0.499985 0.866034
vn 0.000072 -0.499995 0.866028
vn 0.000066 -0.499996 0.866028
vn 0.000047 -0.500000 0.866026
vn 0.000045 -0.499998 0.866026
vn 0.000070 -0.500004 0.866023
vn 0.000037 -0.499981 0.866036
vn 0.000044 -0.499978 0.866038
vn 0.000047 -0.499980 0.866037
vn 0.000049 -0.499977 0.866039
vn 0.000049 -0.499979 0.866037
vn 0.000057 -0.499981 0.866036
vn 0.000052 -0.499980 0.866037
vn 0.000063 -0.499990 0.866031
s 1
g FoodShortLUpperArm
usemtl Orange_blinn1SG
f 35/1/1 34/4/2 4/3/3 1/2/4
f 1/2/4 4/3/3 5/6/5 2/5/6
f 2/5/6 5/6/5 6/8/7 3/7/8
f 3/7/8 6/8/7 37/10/9 36/9/10
f 34/4/2 38/12/11 7/11/12 4/3/3
f 4/3/3 7/11/12 8/13/13 5/6/5
f 5/6/5 8/13/13 9/14/14 6/8/7
f 6/8/7 9/14/14 39/15/15 37/10/9
f 38/12/11 40/17/16 10/16/17 7/11/12
f 7/11/12 10/16/17 11/18/18 8/13/13
f 8/13/13 11/18/18 12/19/19 9/14/14
f 9/14/14 12/19/19 41/20/20 39/15/15
f 40/17/16 42/22/21 13/21/22 10/16/17
f 10/16/17 13/21/22 14/23/23 11/18/18
f 11/18/18 14/23/23 15/24/24 12/19/19
f 12/19/19 15/24/24 43/25/25 41/20/20
f 42/22/21 44/27/26 16/26/27 13/21/22
f 13/21/22 16/26/27 17/28/28 14/23/23
f 14/23/23 17/28/28 18/29/29 15/24/24
f 15/24/24 18/29/29 45/30/30 43/25/25
f 44/27/26 46/32/31 19/31/32 16/26/27
f 16/26/27 19/31/32 20/33/33 17/28/28
f 17/28/28 20/33/33 21/34/34 18/29/29
f 18/29/29 21/34/34 47/35/35 45/30/30
f 46/32/31 48/37/36 22/36/37 19/31/32
f 19/31/32 22/36/37 23/38/38 20/33/33
f 20/33/33 23/38/38 24/39/39 21/34/34
f 21/34/34 24/39/39 49/40/40 47/35/35
f 48/37/36 50/42/41 25/41/42 22/36/37
f 22/36/37 25/41/42 26/43/43 23/38/38
f 23/38/38 26/43/43 27/44/44 24/39/39
f 24/39/39 27/44/44 51/45/45 49/40/40
f 50/42/41 52/47/46 28/46/47 25/41/42
f 25/41/42 28/46/47 29/48/48 26/43/43
f 26/43/43 29/48/48 30/49/49 27/44/44
f 27/44/44 30/49/49 53/50/50 51/45/45
f 52/47/46 54/52/51 31/51/52 28/46/47
f 28/46/47 31/51/52 32/53/53 29/48/48
f 29/48/48 32/53/53 33/54/54 30/49/49
f 30/49/49 33/54/54 55/55/55 53/50/50
f 1/2/4 56/56/56 35/1/1
f 2/5/6 56/56/56 1/2/4
f 3/7/8 56/56/56 2/5/6
f 36/9/10 56/56/56 3/7/8
f 54/52/51 57/57/57 31/51/52
f 31/51/52 57/57/57 32/53/53
f 32/53/53 57/57/57 33/54/54
f 33/54/54 57/57/57 55/55/55
s 2
f 35/58/58 56/61/59 58/60/60 91/59/61
s 3
f 37/62/62 67/64/63 36/63/64
s 2
f 91/59/61 58/60/60 59/66/65 92/65/66
s 3
f 39/67/67 81/68/68 37/62/62
s 2
f 92/65/66 59/66/65 60/70/69 93/69/70
s 3
f 41/71/71 76/72/72 39/67/67
s 2
f 93/69/70 60/70/69 61/74/73 94/73/74
s 3
f 43/75/75 88/76/76 41/71/71
s 2
f 94/73/74 61/74/73 62/78/77 95/77/78
s 3
f 45/79/79 89/80/80 88/76/76 43/75/75
s 2
f 95/77/78 62/78/77 63/82/81 96/81/82
s 3
f 47/83/83 90/84/84 89/80/80 45/79/79
s 2
f 96/81/82 63/82/81 64/86/85 97/85/86
s 3
f 49/87/87 90/84/84 47/83/83
s 2
f 97/85/86 64/86/85 65/89/88 98/88/89
s 3
f 51/90/90 80/91/91 49/87/87
s 2
f 98/88/89 65/89/88 66/93/92 99/92/93
s 3
f 53/94/94 87/95/95 51/90/90
s 2
f 99/92/93 66/93/92 57/97/96 54/96/97
s 3
f 55/98/98 75/99/99 53/94/94
f 67/64/63 58/60/100 56/61/101 36/63/64
f 68/100/102 59/66/103 58/60/100 67/64/63
f 69/101/104 60/70/105 59/66/103 68/100/102
f 70/102/106 61/74/107 60/70/105 69/101/104
f 71/103/108 62/78/109 61/74/107 70/102/106
f 72/104/110 63/82/111 62/78/109 71/103/108
f 73/105/112 64/86/113 63/82/111 72/104/110
f 74/106/114 65/89/115 64/86/113 73/105/112
f 75/99/99 66/93/116 65/89/115 74/106/114
f 55/98/98 57/97/117 66/93/116 75/99/99
f 76/72/72 82/107/118 81/68/68 39/67/67
f 77/108/119 83/109/120 82/107/118 76/72/72
f 78/110/121 84/111/122 83/109/120 77/108/119
f 79/112/123 85/113/124 84/111/122 78/110/121
f 80/91/91 86/114/125 85/113/124 79/112/123
f 51/90/90 87/95/95 86/114/125 80/91/91
f 81/68/68 68/100/102 67/64/63 37/62/62
f 82/107/118 69/101/104 68/100/102 81/68/68
f 83/109/120 70/102/106 69/101/104 82/107/118
f 84/111/122 71/103/108 70/102/106 83/109/120
f 85/113/124 72/104/110 71/103/108 84/111/122
f 86/114/125 73/105/112 72/104/110 85/113/124
f 87/95/95 74/106/114 73/105/112 86/114/125
f 53/94/94 75/99/99 74/106/114 87/95/95
f 88/76/76 77/108/119 76/72/72 41/71/71
f 89/80/80 78/110/121 77/108/119 88/76/76
f 90/84/84 79/112/123 78/110/121 89/80/80
f 49/87/87 80/91/91 79/112/123 90/84/84
s 2
f 35/58/58 91/59/61 34/115/126
f 34/115/126 106/117/127 38/116/128
f 38/116/128 106/117/127 105/119/129 107/118/130
f 107/118/130 105/119/129 104/121/131 108/120/132
f 108/120/132 104/121/131 103/123/133 109/122/134
f 109/122/134 103/123/133 102/125/135 110/124/136
f 110/124/136 102/125/135 101/127/137 111/126/138
f 111/126/138 101/127/137 100/129/139 50/128/140
f 50/128/140 100/129/139 52/130/141
f 52/130/141 99/92/93 54/96/97
f 100/129/139 98/88/89 99/92/93 52/130/141
f 101/127/137 97/85/86 98/88/89 100/129/139
f 102/125/135 96/81/82 97/85/86 101/127/137
f 103/123/133 95/77/78 96/81/82 102/125/135
f 104/121/131 94/73/74 95/77/78 103/123/133
f 105/119/129 93/69/70 94/73/74 104/121/131
f 106/117/127 92/65/66 93/69/70 105/119/129
f 34/115/126 91/59/61 92/65/66 106/117/127
f 38/116/128 107/118/130 40/131/142
f 40/131/142 114/133/143 42/132/144
f 42/132/144 114/133/143 113/135/145 44/134/146
f 44/134/146 113/135/145 112/137/147 46/136/148
f 46/136/148 112/137/147 48/138/149
f 48/138/149 111/126/138 50/128/140
f 112/137/147 110/124/136 111/126/138 48/138/149
f 113/135/145 109/122/134 110/124/136 112/137/147
f 114/133/143 108/120/132 109/122/134 113/135/145
f 40/131/142 107/118/130 108/120/132 114/133/143
