# This file uses centimeters as units for non-parametric coordinates.

mtllib OrangeMediumLUpperArm.mtl
g default
v 1.266795 -0.316308 -0.234036
v 1.266799 -0.263696 -0.165471
v 1.266804 -0.230622 -0.085625
v 1.138997 -0.098165 -0.452172
v 1.139005 0.003473 -0.319714
v 1.139013 0.067366 -0.165465
v 0.935710 0.089158 -0.639484
v 0.935721 0.232896 -0.452159
v 0.935733 0.323254 -0.234017
v 0.670786 0.232897 -0.783206
v 0.670799 0.408939 -0.553782
v 0.670814 0.519605 -0.286613
v 0.362280 0.323254 -0.873546
v 0.362295 0.519605 -0.617658
v 0.362312 0.643035 -0.319670
v 0.031216 0.354073 -0.904347
v 0.031232 0.557350 -0.639431
v 0.031249 0.685136 -0.330930
v -0.299844 0.323254 -0.873508
v -0.299829 0.519605 -0.617621
v -0.299812 0.643035 -0.319633
v -0.608339 0.232897 -0.783133
v -0.608326 0.408939 -0.553709
v -0.608311 0.519605 -0.286540
v -0.873247 0.089158 -0.639380
v -0.873236 0.232896 -0.452056
v -0.873223 0.323254 -0.233914
v -1.076513 -0.098165 -0.452045
v -1.076505 0.003473 -0.319587
v -1.076496 0.067366 -0.165338
v -1.204285 -0.316308 -0.233895
v -1.204282 -0.263696 -0.165330
v -1.204277 -0.230622 -0.085483
v 1.138991 -0.230622 -0.553810
v 1.266792 -0.384873 -0.286647
v 1.266808 -0.219342 0.000060
v 1.139023 0.089158 0.000067
v 0.935702 -0.098165 -0.783222
v 0.935746 0.354074 0.000079
v 0.670776 0.003473 -0.959249
v 0.670831 0.557350 0.000093
v 0.362269 0.067366 -1.069896
v 0.362330 0.685135 0.000111
v 0.031205 0.089158 -1.107623
v 0.031268 0.728720 0.000130
v -0.299855 0.067366 -1.069859
v -0.299794 0.685135 0.000149
v -0.608349 0.003473 -0.959176
v -0.608295 0.557350 0.000166
v -0.873255 -0.098165 -0.783119
v -0.873210 0.354074 0.000182
v -1.076518 -0.230622 -0.553684
v -1.076487 0.089158 0.000194
v -1.204288 -0.384873 -0.286506
v -1.204272 -0.219342 0.000201
v 1.310393 -0.550404 0.000057
v -1.247857 -0.550404 0.000203
v 1.139023 -0.550419 0.000087
v 0.935746 -0.550395 0.000067
v 0.670831 -0.550377 0.000058
v 0.362330 -0.550366 0.000060
v 0.031268 -0.550362 0.000074
v -0.299794 -0.550366 0.000098
v -0.608295 -0.550399 0.000170
v -0.873210 -0.550395 0.000170
v -1.076487 -0.550419 0.000214
v 1.139006 -0.384871 -0.286633
v 0.935730 -0.384874 -0.286635
v 0.670814 -0.384879 -0.286634
v 0.362314 -0.384882 -0.286625
v 0.031252 -0.384882 -0.286609
v -0.299810 -0.384882 -0.286587
v -0.608311 -0.384872 -0.286536
v -0.873226 -0.384874 -0.286531
v -1.076503 -0.384871 -0.286506
v -0.873242 -0.230623 -0.553698
v -0.608326 -0.230622 -0.553707
v -0.299826 -0.230627 -0.553750
v 0.031236 -0.230628 -0.553770
v 0.362299 -0.230627 -0.553788
v 0.670799 -0.230626 -0.553797
v 0.935715 -0.230623 -0.553802
v 0.670786 -0.098166 -0.783212
v 0.362285 -0.098168 -0.783202
v 0.031223 -0.098168 -0.783184
v -0.299839 -0.098168 -0.783164
v -0.608339 -0.098165 -0.783132
v -0.299849 0.003471 -0.959197
v 0.031213 0.003471 -0.959218
v 0.362275 0.003471 -0.959235
v 1.266813 -0.230623 0.085744
v 1.266818 -0.263696 0.165590
v 1.266822 -0.316308 0.234155
v 1.139032 0.067366 0.165599
v 1.139041 0.003474 0.319848
v 1.139049 -0.098165 0.452306
v 0.935760 0.323254 0.234175
v 0.935772 0.232896 0.452317
v 0.935783 0.089158 0.639641
v 0.670847 0.519604 0.286801
v 0.670862 0.408938 0.553970
v 0.670875 0.232895 0.783395
v 0.362348 0.643036 0.319892
v 0.362365 0.519605 0.617880
v 0.362380 0.323255 0.873769
v 0.031287 0.685135 0.331191
v 0.031305 0.557350 0.639692
v 0.031320 0.354073 0.904609
v -0.299776 0.643036 0.319930
v -0.299759 0.519605 0.617918
v -0.299744 0.323255 0.873807
v -0.608278 0.519604 0.286874
v -0.608263 0.408938 0.554043
v -0.608250 0.232895 0.783468
v -0.873197 0.323254 0.234278
v -0.873184 0.232896 0.452421
v -0.873173 0.089158 0.639744
v -1.076477 0.067366 0.165725
v -1.076468 0.003474 0.319974
v -1.076461 -0.098165 0.452432
v -1.204267 -0.230623 0.085885
v -1.204263 -0.263696 0.165732
v -1.204259 -0.316308 0.234296
v 1.266825 -0.384874 0.286769
v 1.139054 -0.230624 0.553944
v 0.935791 -0.098166 0.783379
v 0.670886 0.003474 0.959437
v 0.362391 0.067366 1.070120
v 0.031331 0.089158 1.107885
v -0.299733 0.067366 1.070158
v -0.608240 0.003474 0.959510
v -0.873165 -0.098166 0.783483
v -1.076455 -0.230624 0.554071
v -1.204256 -0.384874 0.286910
v 1.139039 -0.384884 0.286785
v 0.935763 -0.384865 0.286778
v 0.670847 -0.384848 0.286775
v 0.362347 -0.384833 0.286780
v 0.031284 -0.384828 0.286795
v -0.299778 -0.384833 0.286818
v -0.608278 -0.384873 0.286875
v -0.873194 -0.384865 0.286882
v -1.076470 -0.384884 0.286911
v 0.670875 -0.098159 0.783387
v 0.362375 -0.098151 0.783396
v 0.031313 -0.098148 0.783412
v -0.299749 -0.098151 0.783434
v -0.608250 -0.098166 0.783468
v 0.935778 -0.230621 0.553950
v 0.670862 -0.230611 0.553949
v 0.362362 -0.230603 0.553952
v 0.031300 -0.230599 0.553966
v -0.299762 -0.230603 0.553990
v -0.608263 -0.230623 0.554044
v -0.873178 -0.230621 0.554054
v 0.362385 0.003478 0.959447
v 0.031323 0.003480 0.959462
v -0.299739 0.003478 0.959485
vt 0.128202 0.525127
vt 0.116742 0.520889
vt 0.127753 0.475072
vt 0.150213 0.482191
vt 0.104505 0.519561
vt 0.104089 0.472832
vt 0.092279 0.521182
vt 0.080397 0.475390
vt 0.080854 0.525709
vt 0.057852 0.482878
vt 0.137232 0.429159
vt 0.169480 0.437151
vt 0.103912 0.426635
vt 0.070518 0.429289
vt 0.038030 0.437447
vt 0.144510 0.383054
vt 0.184517 0.389886
vt 0.103938 0.380876
vt 0.063279 0.382939
vt 0.022979 0.389590
vt 0.149159 0.336742
vt 0.194192 0.340783
vt 0.104097 0.335409
vt 0.058978 0.336438
vt 0.013748 0.339997
vt 0.150920 0.290270
vt 0.197763 0.290570
vt 0.104320 0.290083
vt 0.057720 0.289896
vt 0.010876 0.289596
vt 0.149661 0.243728
vt 0.194892 0.240170
vt 0.104543 0.244758
vt 0.059481 0.243424
vt 0.014448 0.239383
vt 0.145361 0.197227
vt 0.185660 0.190576
vt 0.104702 0.199290
vt 0.064129 0.197112
vt 0.024123 0.190280
vt 0.138121 0.150877
vt 0.170609 0.142720
vt 0.104727 0.153531
vt 0.071408 0.151008
vt 0.039159 0.143015
vt 0.128242 0.104776
vt 0.150787 0.097288
vt 0.104551 0.107334
vt 0.080887 0.105095
vt 0.058427 0.097975
vt 0.116360 0.058985
vt 0.127785 0.054457
vt 0.104135 0.060605
vt 0.091898 0.059277
vt 0.080437 0.055039
vt 0.105094 0.566719
vt 0.103546 0.013447
vt 0.975918 0.823419
vt 0.957626 0.823392
vt 0.957695 0.776002
vt 0.982225 0.776039
vt 0.928529 0.823351
vt 0.928598 0.775964
vt 0.890608 0.823297
vt 0.890676 0.775912
vt 0.846448 0.823234
vt 0.846516 0.775851
vt 0.799059 0.823167
vt 0.799126 0.775784
vt 0.751669 0.823100
vt 0.751735 0.775717
vt 0.707510 0.823037
vt 0.707575 0.775650
vt 0.669588 0.822985
vt 0.669654 0.775597
vt 0.640491 0.822944
vt 0.640557 0.775553
vt 0.622199 0.822919
vt 0.616027 0.775520
vt 0.957563 0.867552
vt 0.928411 0.905430
vt 0.928465 0.867510
vt 0.890491 0.905376
vt 0.890545 0.867457
vt 0.846331 0.905314
vt 0.846385 0.867394
vt 0.798942 0.905247
vt 0.798996 0.867327
vt 0.751554 0.905180
vt 0.751607 0.867260
vt 0.707394 0.905117
vt 0.707448 0.867196
vt 0.669474 0.905064
vt 0.669527 0.867144
vt 0.640429 0.867103
vt 0.890449 0.934473
vt 0.846264 0.952702
vt 0.846290 0.934410
vt 0.798866 0.958873
vt 0.798901 0.934343
vt 0.751487 0.952567
vt 0.751513 0.934276
vt 0.707353 0.934214
vt 0.226393 0.936071
vt 0.214932 0.931833
vt 0.225943 0.886015
vt 0.248403 0.893135
vt 0.202695 0.930505
vt 0.202280 0.883776
vt 0.190470 0.932126
vt 0.178588 0.886334
vt 0.179045 0.936653
vt 0.156043 0.893822
vt 0.235422 0.840102
vt 0.267670 0.848095
vt 0.202103 0.837579
vt 0.168709 0.840233
vt 0.136221 0.848390
vt 0.242701 0.793998
vt 0.282707 0.800830
vt 0.202128 0.791820
vt 0.161469 0.793883
vt 0.121170 0.800534
vt 0.247350 0.747686
vt 0.292382 0.751727
vt 0.202287 0.746353
vt 0.157169 0.747382
vt 0.111938 0.750940
vt 0.249110 0.701214
vt 0.295954 0.701514
vt 0.202510 0.701027
vt 0.155910 0.700840
vt 0.109067 0.700540
vt 0.247852 0.654672
vt 0.293082 0.651114
vt 0.202733 0.655701
vt 0.157671 0.654368
vt 0.112638 0.650327
vt 0.243552 0.608171
vt 0.283851 0.601520
vt 0.202892 0.610234
vt 0.162319 0.608056
vt 0.122313 0.601224
vt 0.236312 0.561821
vt 0.268800 0.553664
vt 0.202918 0.564475
vt 0.169598 0.561952
vt 0.137350 0.553959
vt 0.226433 0.515720
vt 0.248978 0.508232
vt 0.202741 0.518278
vt 0.179078 0.516039
vt 0.156617 0.508919
vt 0.214551 0.469928
vt 0.225975 0.465401
vt 0.202326 0.471549
vt 0.190089 0.470221
vt 0.178628 0.465983
vt 0.203284 0.977663
vt 0.201736 0.424391
vt 0.957695 0.776002
vt 0.982225 0.776039
vt 0.957822 0.684456
vt 0.976053 0.728641
vt 0.957761 0.728615
vt 0.928598 0.775964
vt 0.928778 0.646496
vt 0.928725 0.684417
vt 0.890676 0.775912
vt 0.890898 0.617346
vt 0.890857 0.646443
vt 0.846516 0.775851
vt 0.846765 0.598992
vt 0.846739 0.617284
vt 0.799126 0.775784
vt 0.799385 0.592686
vt 0.799350 0.617217
vt 0.751735 0.775717
vt 0.751988 0.598857
vt 0.751962 0.617149
vt 0.707575 0.775650
vt 0.707802 0.617085
vt 0.669654 0.775597
vt 0.669840 0.646128
vt 0.707761 0.646183
vt 0.640557 0.775553
vt 0.640688 0.684007
vt 0.669786 0.684049
vt 0.616027 0.775520
vt 0.622333 0.728140
vt 0.640625 0.728165
vt 0.928663 0.728576
vt 0.890742 0.728525
vt 0.846582 0.728464
vt 0.799193 0.728398
vt 0.751803 0.728329
vt 0.707643 0.728263
vt 0.669723 0.728208
vt 0.890804 0.684366
vt 0.846698 0.646382
vt 0.846644 0.684305
vt 0.799309 0.646315
vt 0.799255 0.684239
vt 0.751920 0.646247
vt 0.751866 0.684170
vt 0.707707 0.684103
vn 0.943829 0.201128 -0.262171
vn 0.843862 0.326615 -0.425700
vn 0.845941 0.377060 -0.377107
vn 0.944709 0.231840 -0.231893
vn 0.845948 0.461801 -0.266669
vn 0.944713 0.283944 -0.163989
vn 0.845955 0.515072 -0.138061
vn 0.944718 0.316699 -0.084913
vn 0.845963 0.533242 -0.000050
vn 0.944723 0.327871 -0.000054
vn 0.686153 0.442829 -0.577145
vn 0.689270 0.512283 -0.512321
vn 0.689279 0.627415 -0.362277
vn 0.689290 0.699790 -0.187548
vn 0.689300 0.724476 -0.000040
vn 0.483346 0.532914 -0.694535
vn 0.486538 0.617757 -0.617784
vn 0.486548 0.756594 -0.436847
vn 0.486560 0.843871 -0.226142
vn 0.486573 0.873640 -0.000028
vn 0.249529 0.589497 -0.768263
vn 0.251552 0.684362 -0.684376
vn 0.251563 0.838169 -0.483932
vn 0.251576 0.934856 -0.250508
vn 0.251590 0.967834 -0.000014
vn -0.000045 0.608760 -0.793354
vn -0.000040 0.707106 -0.707107
vn -0.000029 0.866026 -0.500000
vn -0.000015 0.965926 -0.258818
vn -0.000000 1.000000 0.000000
vn -0.249617 0.589497 -0.768235
vn -0.251630 0.684362 -0.684348
vn -0.251618 0.838168 -0.483903
vn -0.251605 0.934856 -0.250479
vn -0.251590 0.967834 0.000014
vn -0.483426 0.532914 -0.694480
vn -0.486608 0.617757 -0.617728
vn -0.486598 0.756594 -0.436792
vn -0.486586 0.843871 -0.226087
vn -0.486573 0.873640 0.000028
vn -0.686219 0.442829 -0.577067
vn -0.689329 0.512283 -0.512242
vn -0.689321 0.627415 -0.362198
vn -0.689311 0.699790 -0.187469
vn -0.689300 0.724476 0.000040
vn -0.843911 0.326614 -0.425603
vn -0.845984 0.377060 -0.377010
vn -0.845978 0.461802 -0.266572
vn -0.845971 0.515072 -0.137965
vn -0.845963 0.533242 0.000047
vn -0.943859 0.201128 -0.262064
vn -0.944736 0.231839 -0.231785
vn -0.944732 0.283944 -0.163881
vn -0.944728 0.316698 -0.084805
vn -0.944723 0.327870 0.000054
vn 0.993990 0.109467 -0.000056
vn -0.993990 0.109468 0.000058
vn -0.000046 -0.866022 -0.500005
vn -0.000039 -0.866019 -0.500012
vn -0.000025 -0.866022 -0.500006
vn -0.000021 -0.866025 -0.500001
vn -0.000015 -0.866036 -0.499983
vn -0.000006 -0.866030 -0.499993
vn -0.000018 -0.866054 -0.499950
vn -0.000011 -0.866037 -0.499981
vn -0.000024 -0.866067 -0.499928
vn -0.000021 -0.866042 -0.499971
vn -0.000029 -0.866071 -0.499921
vn -0.000029 -0.866043 -0.499969
vn -0.000048 -0.866060 -0.499940
vn -0.000056 -0.866039 -0.499976
vn -0.000039 -0.866040 -0.499975
vn -0.000047 -0.866032 -0.499989
vn -0.000023 -0.866028 -0.499996
vn -0.000026 -0.866027 -0.499997
vn -0.000033 -0.866021 -0.500007
vn -0.000036 -0.866025 -0.500000
vn -0.000018 -0.866018 -0.500012
vn -0.000011 -0.866022 -0.500006
vn -0.000006 -0.866027 -0.499997
vn -0.000002 -0.866022 -0.500006
vn -0.000011 -0.866019 -0.500012
vn -0.000006 -0.866017 -0.500015
vn -0.000012 -0.866016 -0.500017
vn -0.000018 -0.866014 -0.500020
vn -0.000020 -0.866014 -0.500021
vn -0.000029 -0.866014 -0.500021
vn -0.000029 -0.866013 -0.500021
vn -0.000058 -0.866017 -0.500014
vn -0.000046 -0.866017 -0.500015
vn -0.000051 -0.866023 -0.500004
vn -0.000045 -0.866023 -0.500005
vn -0.000027 -0.866026 -0.499999
vn -0.000022 -0.866025 -0.500001
vn -0.000051 -0.866028 -0.499996
vn -0.000016 -0.866015 -0.500017
vn -0.000021 -0.866013 -0.500021
vn -0.000023 -0.866011 -0.500025
vn -0.000029 -0.866012 -0.500023
vn -0.000029 -0.866011 -0.500025
vn -0.000038 -0.866014 -0.500019
vn -0.000034 -0.866011 -0.500025
vn -0.000044 -0.866020 -0.500010
vn 0.845971 0.515072 0.137964
vn 0.944728 0.316698 0.084804
vn 0.845978 0.461801 0.266574
vn 0.944732 0.283945 0.163882
vn 0.845984 0.377059 0.377011
vn 0.944736 0.231840 0.231785
vn 0.843912 0.326614 0.425602
vn 0.943859 0.201132 0.262063
vn 0.689310 0.699790 0.187470
vn 0.689320 0.627415 0.362200
vn 0.689329 0.512283 0.512242
vn 0.686220 0.442830 0.577065
vn 0.486586 0.843871 0.226087
vn 0.486598 0.756594 0.436792
vn 0.486608 0.617758 0.617728
vn 0.483426 0.532916 0.694479
vn 0.251605 0.934856 0.250479
vn 0.251619 0.838169 0.483902
vn 0.251630 0.684363 0.684346
vn 0.249616 0.589498 0.768234
vn 0.000015 0.965926 0.258819
vn 0.000029 0.866026 0.500000
vn 0.000040 0.707107 0.707106
vn 0.000045 0.608761 0.793354
vn -0.251576 0.934856 0.250508
vn -0.251563 0.838169 0.483931
vn -0.251552 0.684363 0.684375
vn -0.249529 0.589498 0.768263
vn -0.486560 0.843871 0.226143
vn -0.486549 0.756594 0.436848
vn -0.486538 0.617757 0.617784
vn -0.483346 0.532915 0.694534
vn -0.689289 0.699790 0.187549
vn -0.689279 0.627415 0.362278
vn -0.689271 0.512283 0.512321
vn -0.686154 0.442829 0.577145
vn -0.845955 0.515072 0.138062
vn -0.845947 0.461801 0.266670
vn -0.845941 0.377059 0.377107
vn -0.843863 0.326614 0.425699
vn -0.944718 0.316698 0.084912
vn -0.944714 0.283944 0.163989
vn -0.944710 0.231839 0.231893
vn -0.943829 0.201131 0.262171
vn -0.000028 -0.866021 0.500007
vn -0.000007 -0.866018 0.500013
vn 0.000144 -0.866014 0.500020
vn -0.000017 -0.866041 0.499973
vn -0.000035 -0.866035 0.499984
vn -0.000002 -0.866051 0.499956
vn -0.000011 -0.866048 0.499961
vn 0.000016 -0.866058 0.499943
vn 0.000011 -0.866055 0.499949
vn 0.000029 -0.866058 0.499944
vn 0.000029 -0.866057 0.499946
vn 0.000041 -0.866058 0.499943
vn 0.000051 -0.866051 0.499956
vn 0.000064 -0.866036 0.499981
vn 0.000024 -0.866030 0.499992
vn 0.000068 -0.866035 0.499984
vn 0.000085 -0.866022 0.500006
vn 0.000038 -0.866029 0.499995
vn -0.000087 -0.866014 0.500020
vn 0.000064 -0.866018 0.500013
vn -0.000008 -0.866019 0.500010
vn 0.000148 -0.866017 0.500015
vn -0.000071 -0.866030 0.499992
vn -0.000092 -0.866028 0.499996
vn -0.000042 -0.866040 0.499975
vn -0.000048 -0.866033 0.499986
vn -0.000009 -0.866043 0.499969
vn -0.000010 -0.866033 0.499987
vn 0.000029 -0.866044 0.499968
vn 0.000029 -0.866032 0.499989
vn 0.000117 -0.866040 0.499975
vn 0.000125 -0.866031 0.499990
vn 0.000099 -0.866033 0.499987
vn 0.000105 -0.866030 0.499992
vn 0.000057 -0.866026 0.499999
vn 0.000070 -0.866026 0.499999
vn 0.000065 -0.866019 0.500011
vn -0.000091 -0.866016 0.500016
vn -0.000026 -0.866047 0.499963
vn 0.000005 -0.866053 0.499952
vn -0.000003 -0.866054 0.499951
vn 0.000029 -0.866056 0.499948
vn 0.000029 -0.866056 0.499946
vn 0.000070 -0.866048 0.499962
vn 0.000096 -0.866049 0.499960
vn 0.000083 -0.866036 0.499981
s 1
g FoodMediumLUpperArm
usemtl Orange_blinn1SG
f 35/1/1 34/4/2 4/3/3 1/2/4
f 1/2/4 4/3/3 5/6/5 2/5/6
f 2/5/6 5/6/5 6/8/7 3/7/8
f 3/7/8 6/8/7 37/10/9 36/9/10
f 34/4/2 38/12/11 7/11/12 4/3/3
f 4/3/3 7/11/12 8/13/13 5/6/5
f 5/6/5 8/13/13 9/14/14 6/8/7
f 6/8/7 9/14/14 39/15/15 37/10/9
f 38/12/11 40/17/16 10/16/17 7/11/12
f 7/11/12 10/16/17 11/18/18 8/13/13
f 8/13/13 11/18/18 12/19/19 9/14/14
f 9/14/14 12/19/19 41/20/20 39/15/15
f 40/17/16 42/22/21 13/21/22 10/16/17
f 10/16/17 13/21/22 14/23/23 11/18/18
f 11/18/18 14/23/23 15/24/24 12/19/19
f 12/19/19 15/24/24 43/25/25 41/20/20
f 42/22/21 44/27/26 16/26/27 13/21/22
f 13/21/22 16/26/27 17/28/28 14/23/23
f 14/23/23 17/28/28 18/29/29 15/24/24
f 15/24/24 18/29/29 45/30/30 43/25/25
f 44/27/26 46/32/31 19/31/32 16/26/27
f 16/26/27 19/31/32 20/33/33 17/28/28
f 17/28/28 20/33/33 21/34/34 18/29/29
f 18/29/29 21/34/34 47/35/35 45/30/30
f 46/32/31 48/37/36 22/36/37 19/31/32
f 19/31/32 22/36/37 23/38/38 20/33/33
f 20/33/33 23/38/38 24/39/39 21/34/34
f 21/34/34 24/39/39 49/40/40 47/35/35
f 48/37/36 50/42/41 25/41/42 22/36/37
f 22/36/37 25/41/42 26/43/43 23/38/38
f 23/38/38 26/43/43 27/44/44 24/39/39
f 24/39/39 27/44/44 51/45/45 49/40/40
f 50/42/41 52/47/46 28/46/47 25/41/42
f 25/41/42 28/46/47 29/48/48 26/43/43
f 26/43/43 29/48/48 30/49/49 27/44/44
f 27/44/44 30/49/49 53/50/50 51/45/45
f 52/47/46 54/52/51 31/51/52 28/46/47
f 28/46/47 31/51/52 32/53/53 29/48/48
f 29/48/48 32/53/53 33/54/54 30/49/49
f 30/49/49 33/54/54 55/55/55 53/50/50
f 1/2/4 56/56/56 35/1/1
f 2/5/6 56/56/56 1/2/4
f 3/7/8 56/56/56 2/5/6
f 36/9/10 56/56/56 3/7/8
f 54/52/51 57/57/57 31/51/52
f 31/51/52 57/57/57 32/53/53
f 32/53/53 57/57/57 33/54/54
f 33/54/54 57/57/57 55/55/55
s 2
f 35/58/58 56/61/59 58/60/60 67/59/61
f 67/59/61 58/60/60 59/63/62 68/62/63
f 68/62/63 59/63/62 60/65/64 69/64/65
f 69/64/65 60/65/64 61/67/66 70/66/67
f 70/66/67 61/67/66 62/69/68 71/68/69
f 71/68/69 62/69/68 63/71/70 72/70/71
f 72/70/71 63/71/70 64/73/72 73/72/73
f 73/72/73 64/73/72 65/75/74 74/74/75
f 74/74/75 65/75/74 66/77/76 75/76/77
f 75/76/77 66/77/76 57/79/78 54/78/79
f 35/58/58 67/59/61 34/80/80
f 34/80/80 82/82/81 38/81/82
f 38/81/82 82/82/81 81/84/83 83/83/84
f 83/83/84 81/84/83 80/86/85 84/85/86
f 84/85/86 80/86/85 79/88/87 85/87/88
f 85/87/88 79/88/87 78/90/89 86/89/90
f 86/89/90 78/90/89 77/92/91 87/91/92
f 87/91/92 77/92/91 76/94/93 50/93/94
f 50/93/94 76/94/93 52/95/95
f 52/95/95 75/76/77 54/78/79
f 76/94/93 74/74/75 75/76/77 52/95/95
f 77/92/91 73/72/73 74/74/75 76/94/93
f 78/90/89 72/70/71 73/72/73 77/92/91
f 79/88/87 71/68/69 72/70/71 78/90/89
f 80/86/85 70/66/67 71/68/69 79/88/87
f 81/84/83 69/64/65 70/66/67 80/86/85
f 82/82/81 68/62/63 69/64/65 81/84/83
f 34/80/80 67/59/61 68/62/63 82/82/81
f 38/81/82 83/83/84 40/96/96
f 40/96/96 90/98/97 42/97/98
f 42/97/98 90/98/97 89/100/99 44/99/100
f 44/99/100 89/100/99 88/102/101 46/101/102
f 46/101/102 88/102/101 48/103/103
f 48/103/103 87/91/92 50/93/94
f 88/102/101 86/89/90 87/91/92 48/103/103
f 89/100/99 85/87/88 86/89/90 88/102/101
f 90/98/97 84/85/86 85/87/88 89/100/99
f 40/96/96 83/83/84 84/85/86 90/98/97
s 1
f 36/104/10 37/107/9 94/106/104 91/105/105
f 91/105/105 94/106/104 95/109/106 92/108/107
f 92/108/107 95/109/106 96/111/108 93/110/109
f 93/110/109 96/111/108 125/113/110 124/112/111
f 37/107/9 39/115/15 97/114/112 94/106/104
f 94/106/104 97/114/112 98/116/113 95/109/106
f 95/109/106 98/116/113 99/117/114 96/111/108
f 96/111/108 99/117/114 126/118/115 125/113/110
f 39/115/15 41/120/20 100/119/116 97/114/112
f 97/114/112 100/119/116 101/121/117 98/116/113
f 98/116/113 101/121/117 102/122/118 99/117/114
f 99/117/114 102/122/118 127/123/119 126/118/115
f 41/120/20 43/125/25 103/124/120 100/119/116
f 100/119/116 103/124/120 104/126/121 101/121/117
f 101/121/117 104/126/121 105/127/122 102/122/118
f 102/122/118 105/127/122 128/128/123 127/123/119
f 43/125/25 45/130/30 106/129/124 103/124/120
f 103/124/120 106/129/124 107/131/125 104/126/121
f 104/126/121 107/131/125 108/132/126 105/127/122
f 105/127/122 108/132/126 129/133/127 128/128/123
f 45/130/30 47/135/35 109/134/128 106/129/124
f 106/129/124 109/134/128 110/136/129 107/131/125
f 107/131/125 110/136/129 111/137/130 108/132/126
f 108/132/126 111/137/130 130/138/131 129/133/127
f 47/135/35 49/140/40 112/139/132 109/134/128
f 109/134/128 112/139/132 113/141/133 110/136/129
f 110/136/129 113/141/133 114/142/134 111/137/130
f 111/137/130 114/142/134 131/143/135 130/138/131
f 49/140/40 51/145/45 115/144/136 112/139/132
f 112/139/132 115/144/136 116/146/137 113/141/133
f 113/141/133 116/146/137 117/147/138 114/142/134
f 114/142/134 117/147/138 132/148/139 131/143/135
f 51/145/45 53/150/50 118/149/140 115/144/136
f 115/144/136 118/149/140 119/151/141 116/146/137
f 116/146/137 119/151/141 120/152/142 117/147/138
f 117/147/138 120/152/142 133/153/143 132/148/139
f 53/150/50 55/155/55 121/154/144 118/149/140
f 118/149/140 121/154/144 122/156/145 119/151/141
f 119/151/141 122/156/145 123/157/146 120/152/142
f 120/152/142 123/157/146 134/158/147 133/153/143
f 91/105/105 56/159/56 36/104/10
f 92/108/107 56/159/56 91/105/105
f 93/110/109 56/159/56 92/108/107
f 124/112/111 56/159/56 93/110/109
f 55/155/55 57/160/57 121/154/144
f 121/154/144 57/160/57 122/156/145
f 122/156/145 57/160/57 123/157/146
f 123/157/146 57/160/57 134/158/147
s 3
f 125/163/148 135/165/149 124/164/150
f 126/167/151 149/168/152 125/163/148
f 127/170/153 144/171/154 126/167/151
f 128/173/155 156/174/156 127/170/153
f 129/176/157 157/177/158 156/174/156 128/173/155
f 130/179/159 158/180/160 157/177/158 129/176/157
f 131/182/161 158/180/160 130/179/159
f 132/184/162 148/185/163 131/182/161
f 133/187/164 155/188/165 132/184/162
f 134/190/166 143/191/167 133/187/164
f 135/165/149 58/161/168 56/162/169 124/164/150
f 136/192/170 59/166/171 58/161/168 135/165/149
f 137/193/172 60/169/173 59/166/171 136/192/170
f 138/194/174 61/172/175 60/169/173 137/193/172
f 139/195/176 62/175/177 61/172/175 138/194/174
f 140/196/178 63/178/179 62/175/177 139/195/176
f 141/197/180 64/181/181 63/178/179 140/196/178
f 142/198/182 65/183/183 64/181/181 141/197/180
f 143/191/167 66/186/184 65/183/183 142/198/182
f 134/190/166 57/189/185 66/186/184 143/191/167
f 144/171/154 150/199/186 149/168/152 126/167/151
f 145/200/187 151/201/188 150/199/186 144/171/154
f 146/202/189 152/203/190 151/201/188 145/200/187
f 147/204/191 153/205/192 152/203/190 146/202/189
f 148/185/163 154/206/193 153/205/192 147/204/191
f 132/184/162 155/188/165 154/206/193 148/185/163
f 149/168/152 136/192/170 135/165/149 125/163/148
f 150/199/186 137/193/172 136/192/170 149/168/152
f 151/201/188 138/194/174 137/193/172 150/199/186
f 152/203/190 139/195/176 138/194/174 151/201/188
f 153/205/192 140/196/178 139/195/176 152/203/190
f 154/206/193 141/197/180 140/196/178 153/205/192
f 155/188/165 142/198/182 141/197/180 154/206/193
f 133/187/164 143/191/167 142/198/182 155/188/165
f 156/174/156 145/200/187 144/171/154 127/170/153
f 157/177/158 146/202/189 145/200/187 156/174/156
f 158/180/160 147/204/191 146/202/189 157/177/158
f 131/182/161 148/185/163 147/204/191 158/180/160
