# This file uses centimeters as units for non-parametric coordinates.

mtllib BefficaRLowerLeg.mtl
g default
v 1.102806 -0.201082 0.000001
v 1.102806 -0.174142 0.100542
v 1.102806 -0.100540 0.174143
v 1.102806 0.000001 0.201082
v 1.102806 0.100542 0.174142
v 1.102806 0.174143 0.100540
v 1.102806 0.201082 -0.000001
v 1.102806 0.174142 -0.100542
v 1.102806 0.100540 -0.174143
v 1.102806 -0.000001 -0.201082
v 1.102806 -0.100542 -0.174142
v 1.102806 -0.174143 -0.100540
v 0.988902 -0.371551 0.000002
v 0.988902 -0.321772 0.185777
v 0.988902 -0.185774 0.321774
v 0.988902 0.000002 0.371551
v 0.988902 0.185777 0.321772
v 0.988902 0.321774 0.185774
v 0.988902 0.371551 -0.000002
v 0.988902 0.321772 -0.185777
v 0.988902 0.185774 -0.321774
v 0.988902 -0.000002 -0.371551
v 0.988902 -0.185777 -0.321772
v 0.988902 -0.321774 -0.185774
v 0.818433 -0.485455 0.000003
v 0.818433 -0.420415 0.242730
v 0.818433 -0.242725 0.420418
v 0.818433 0.000003 0.485455
v 0.818433 0.242730 0.420415
v 0.818433 0.420418 0.242725
v 0.818433 0.485455 -0.000003
v 0.818433 0.420415 -0.242730
v 0.818433 0.242725 -0.420418
v 0.818433 -0.000003 -0.485455
v 0.818433 -0.242730 -0.420415
v 0.818433 -0.420418 -0.242725
v 0.617351 -0.549453 0.000003
v 0.617351 -0.475839 0.274729
v 0.617351 -0.274724 0.475842
v 0.617351 0.000003 0.549453
v 0.617351 0.274729 0.475839
v 0.617351 0.475842 0.274724
v 0.617351 0.549453 -0.000003
v 0.617351 0.475839 -0.274729
v 0.617351 0.274724 -0.475842
v 0.617351 -0.000003 -0.549453
v 0.617351 -0.274729 -0.475839
v 0.617351 -0.475842 -0.274724
v -0.663470 -0.805002 0.000004
v -0.663470 -0.697150 0.402505
v -0.663470 -0.402497 0.697155
v -0.663470 0.000004 0.805002
v -0.663470 0.402505 0.697150
v -0.663470 0.697155 0.402497
v -0.663470 0.805002 -0.000004
v -0.663470 0.697150 -0.402505
v -0.663470 0.402497 -0.697155
v -0.663470 -0.000004 -0.805002
v -0.663470 -0.402505 -0.697150
v -0.663470 -0.697155 -0.402497
v -0.854842 -0.746273 0.000004
v -0.854842 -0.646289 0.373140
v -0.854842 -0.373133 0.646293
v -0.854842 0.000004 0.746273
v -0.854842 0.373140 0.646289
v -0.854842 0.646293 0.373133
v -0.854842 0.746273 -0.000004
v -0.854842 0.646289 -0.373140
v -0.854842 0.373133 -0.646293
v -0.854842 -0.000004 -0.746273
v -0.854842 -0.373140 -0.646289
v -0.854842 -0.646293 -0.373133
v -1.017079 -0.571173 0.000003
v -1.017079 -0.494648 0.285589
v -1.017079 -0.285584 0.494651
v -1.017079 0.000003 0.571173
v -1.017079 0.285589 0.494648
v -1.017079 0.494651 0.285584
v -1.017079 0.571173 -0.000003
v -1.017079 0.494648 -0.285589
v -1.017079 0.285584 -0.494651
v -1.017079 -0.000003 -0.571173
v -1.017079 -0.285589 -0.494648
v -1.017079 -0.494651 -0.285584
v -1.125482 -0.309116 0.000002
v -1.125482 -0.267702 0.154560
v -1.125482 -0.154557 0.267703
v -1.125482 0.000002 0.309116
v -1.125482 0.154560 0.267702
v -1.125482 0.267703 0.154557
v -1.125482 0.309116 -0.000002
v -1.125482 0.267702 -0.154560
v -1.125482 0.154557 -0.267703
v -1.125482 -0.000002 -0.309116
v -1.125482 -0.154560 -0.267702
v -1.125482 -0.267703 -0.154557
v 1.142804 -0.000000 -0.000000
v -1.163548 -0.000000 -0.000000
v -0.343265 0.000004 0.808544
v -0.343265 -0.404268 0.700222
v -0.343265 -0.700217 0.404276
v -0.343265 -0.808544 0.000004
v -0.343265 -0.700222 -0.404268
v -0.343265 -0.404276 -0.700217
v -0.343265 -0.000004 -0.808544
v -0.343265 0.404268 -0.700222
v -0.343265 0.700217 -0.404276
v -0.343265 0.808544 -0.000004
v -0.343265 0.700222 0.404268
v -0.343265 0.404276 0.700217
v -0.023058 0.000004 0.757020
v -0.023058 -0.378507 0.655601
v -0.023058 -0.655597 0.378514
v -0.023058 -0.757020 0.000004
v -0.023058 -0.655601 -0.378507
v -0.023058 -0.378514 -0.655597
v -0.023058 -0.000004 -0.757020
v -0.023058 0.378507 -0.655601
v -0.023058 0.655597 -0.378514
v -0.023058 0.757020 -0.000004
v -0.023058 0.655601 0.378507
v -0.023058 0.378514 0.655597
v 0.297145 0.000004 0.667391
v 0.297145 -0.333692 0.577979
v 0.297145 -0.577975 0.333698
v 0.297145 -0.667390 0.000004
v 0.297145 -0.577979 -0.333692
v 0.297145 -0.333698 -0.577975
v 0.297144 -0.000004 -0.667391
v 0.297144 0.333692 -0.577979
v 0.297144 0.577975 -0.333698
v 0.297145 0.667390 -0.000004
v 0.297145 0.577979 0.333692
v 0.297145 0.333698 0.577975
vt 0.628036 0.162904
vt 0.622647 0.168238
vt 0.620555 0.175467
vt 0.622232 0.182801
vt 0.627304 0.188430
vt 0.634589 0.190866
vt 0.642251 0.189311
vt 0.648164 0.184000
vt 0.650538 0.176329
vt 0.648618 0.168530
vt 0.643021 0.162880
vt 0.635455 0.160886
vt 0.621007 0.150618
vt 0.610262 0.161156
vt 0.606247 0.175669
vt 0.610049 0.190240
vt 0.620636 0.200930
vt 0.635130 0.204865
vt 0.649610 0.201025
vt 0.660212 0.190497
vt 0.664164 0.176113
vt 0.660443 0.161662
vt 0.649999 0.150961
vt 0.635568 0.146897
vt 0.614567 0.139500
vt 0.599100 0.154760
vt 0.593371 0.175745
vt 0.598950 0.196771
vt 0.614310 0.212144
vt 0.635265 0.217735
vt 0.656152 0.212107
vt 0.671406 0.196843
vt 0.677026 0.176041
vt 0.671551 0.155199
vt 0.656403 0.139830
vt 0.635557 0.134057
vt 0.607417 0.128146
vt 0.587289 0.148516
vt 0.580043 0.176221
vt 0.587620 0.203838
vt 0.607991 0.223965
vt 0.635696 0.231210
vt 0.663311 0.223632
vt 0.683437 0.203262
vt 0.690682 0.175558
vt 0.683106 0.147944
vt 0.662737 0.127817
vt 0.635033 0.120570
vt 0.160494 0.995612
vt 0.160493 0.975401
vt 0.160492 0.955190
vt 0.160491 0.934979
vt 0.160490 0.914768
vt 0.160489 0.894557
vt 0.160488 0.874346
vt 0.160487 0.854135
vt 0.160486 0.833924
vt 0.160485 0.813713
vt 0.160484 0.793502
vt 0.160483 0.773291
vt 0.160482 0.753080
vt 0.310071 0.995604
vt 0.310069 0.975393
vt 0.310068 0.955182
vt 0.310067 0.934971
vt 0.310066 0.914760
vt 0.310065 0.894549
vt 0.310064 0.874338
vt 0.310063 0.854127
vt 0.310062 0.833916
vt 0.310061 0.813705
vt 0.310060 0.793494
vt 0.310059 0.773283
vt 0.310058 0.753072
vt 0.033908 0.013532
vt 0.013780 0.033901
vt 0.006533 0.061606
vt 0.014110 0.089223
vt 0.034481 0.109351
vt 0.062186 0.116596
vt 0.089801 0.109018
vt 0.109928 0.088648
vt 0.117174 0.060944
vt 0.109597 0.033329
vt 0.089228 0.013202
vt 0.061524 0.005955
vt 0.041057 0.024885
vt 0.025590 0.040145
vt 0.019860 0.061130
vt 0.025439 0.082157
vt 0.040800 0.097530
vt 0.061755 0.103121
vt 0.082642 0.097492
vt 0.097896 0.082229
vt 0.103516 0.061427
vt 0.098041 0.040585
vt 0.082893 0.025216
vt 0.062047 0.019442
vt 0.047497 0.036003
vt 0.036751 0.046541
vt 0.032735 0.061055
vt 0.036538 0.075626
vt 0.047126 0.086317
vt 0.061621 0.090252
vt 0.076102 0.086410
vt 0.086703 0.075882
vt 0.090655 0.061498
vt 0.086933 0.047047
vt 0.076490 0.036346
vt 0.062058 0.032282
vt 0.054525 0.048289
vt 0.049136 0.053623
vt 0.047043 0.060853
vt 0.048721 0.068187
vt 0.053794 0.073816
vt 0.061079 0.076252
vt 0.068741 0.074697
vt 0.074654 0.069385
vt 0.077029 0.061714
vt 0.075108 0.053914
vt 0.069510 0.048264
vt 0.061944 0.046271
vt 0.635840 0.175919
vt 0.062333 0.061304
vt 0.272673 0.934973
vt 0.272674 0.955184
vt 0.272675 0.975395
vt 0.272664 0.753074
vt 0.272676 0.995606
vt 0.272665 0.773285
vt 0.272666 0.793496
vt 0.272667 0.813707
vt 0.272668 0.833918
vt 0.272669 0.854129
vt 0.272670 0.874340
vt 0.272671 0.894551
vt 0.272672 0.914762
vt 0.235279 0.934975
vt 0.235281 0.955186
vt 0.235281 0.975397
vt 0.235270 0.753076
vt 0.235282 0.995608
vt 0.235271 0.773287
vt 0.235272 0.793498
vt 0.235273 0.813709
vt 0.235274 0.833920
vt 0.235275 0.854131
vt 0.235276 0.874342
vt 0.235277 0.894553
vt 0.235278 0.914764
vt 0.197885 0.934977
vt 0.197886 0.955188
vt 0.197887 0.975399
vt 0.197876 0.753078
vt 0.197888 0.995610
vt 0.197877 0.773289
vt 0.197878 0.793500
vt 0.197879 0.813711
vt 0.197880 0.833922
vt 0.197881 0.854133
vt 0.197882 0.874344
vt 0.197883 0.894555
vt 0.197884 0.914766
vn 0.924245 -0.381801 0.000002
vn 0.924245 -0.330649 0.190902
vn 0.708039 -0.611562 0.353090
vn 0.708039 -0.706174 0.000004
vn 0.924245 -0.190899 0.330650
vn 0.708039 -0.353084 0.611566
vn 0.924245 0.000002 0.381801
vn 0.708039 0.000004 0.706174
vn 0.924245 0.190902 0.330648
vn 0.708039 0.353090 0.611563
vn 0.924244 0.330651 0.190899
vn 0.708039 0.611566 0.353083
vn 0.924244 0.381801 -0.000002
vn 0.708039 0.706174 -0.000004
vn 0.924244 0.330649 -0.190902
vn 0.708039 0.611563 -0.353090
vn 0.924245 0.190899 -0.330650
vn 0.708039 0.353084 -0.611566
vn 0.924245 -0.000002 -0.381801
vn 0.708039 -0.000004 -0.706174
vn 0.924244 -0.190903 -0.330649
vn 0.708038 -0.353090 -0.611563
vn 0.924245 -0.330650 -0.190899
vn 0.708039 -0.611566 -0.353084
vn 0.434164 -0.780143 0.450421
vn 0.434164 -0.900834 0.000005
vn 0.434163 -0.450413 0.780148
vn 0.434163 0.000005 0.900834
vn 0.434163 0.450421 0.780143
vn 0.434164 0.780148 0.450413
vn 0.434164 0.900834 -0.000005
vn 0.434164 0.780143 -0.450421
vn 0.434164 0.450413 -0.780148
vn 0.434164 -0.000005 -0.900834
vn 0.434164 -0.450421 -0.780143
vn 0.434164 -0.780147 -0.450413
vn 0.324540 -0.819147 0.472940
vn 0.324540 -0.945872 0.000005
vn 0.324540 -0.472932 0.819152
vn 0.324540 0.000005 0.945872
vn 0.324540 0.472940 0.819147
vn 0.324540 0.819152 0.472932
vn 0.324540 0.945872 -0.000005
vn 0.324540 0.819147 -0.472940
vn 0.324540 0.472932 -0.819152
vn 0.324540 -0.000005 -0.945872
vn 0.324540 -0.472940 -0.819147
vn 0.324540 -0.819152 -0.472932
vn 0.307863 -0.823961 0.475720
vn 0.307863 -0.951431 0.000005
vn 0.307863 -0.475711 0.823966
vn 0.307863 0.000005 0.951431
vn 0.307863 0.475720 0.823961
vn 0.307863 0.823966 0.475711
vn 0.307863 0.951431 -0.000005
vn 0.307863 0.823961 -0.475720
vn 0.307863 0.475711 -0.823966
vn 0.307863 -0.000005 -0.951431
vn 0.307863 -0.475720 -0.823961
vn 0.307863 -0.823966 -0.475711
vn -0.154005 -0.988070 0.000005
vn -0.154005 -0.855691 0.494040
vn -0.533487 -0.732490 0.422908
vn -0.533487 -0.845809 0.000005
vn -0.154005 -0.494031 0.855697
vn -0.533486 -0.422900 0.732494
vn -0.154004 0.000005 0.988070
vn -0.533487 0.000005 0.845809
vn -0.154004 0.494040 0.855691
vn -0.533487 0.422908 0.732489
vn -0.154005 0.855696 0.494030
vn -0.533487 0.732494 0.422900
vn -0.154005 0.988070 -0.000005
vn -0.533487 0.845809 -0.000005
vn -0.154005 0.855691 -0.494040
vn -0.533487 0.732489 -0.422908
vn -0.154005 0.494030 -0.855697
vn -0.533487 0.422900 -0.732494
vn -0.154005 -0.000005 -0.988070
vn -0.533487 -0.000005 -0.845809
vn -0.154005 -0.494040 -0.855691
vn -0.533487 -0.422908 -0.732489
vn -0.154005 -0.855697 -0.494030
vn -0.533487 -0.732494 -0.422900
vn -0.842568 -0.466431 0.269297
vn -0.842568 -0.538590 0.000003
vn -0.842568 -0.269293 0.466434
vn -0.842568 0.000003 0.538590
vn -0.842568 0.269297 0.466431
vn -0.842568 0.466434 0.269293
vn -0.842568 0.538590 -0.000003
vn -0.842568 0.466431 -0.269297
vn -0.842568 0.269293 -0.466434
vn -0.842568 -0.000003 -0.538590
vn -0.842568 -0.269297 -0.466431
vn -0.842568 -0.466434 -0.269292
vn -0.967141 -0.220177 0.127121
vn -0.967141 -0.254240 0.000001
vn -0.967141 -0.127119 0.220178
vn -0.967141 0.000001 0.254240
vn -0.967141 0.127121 0.220177
vn -0.967141 0.220179 0.127119
vn -0.967141 0.254240 -0.000001
vn -0.967141 0.220177 -0.127121
vn -0.967141 0.127119 -0.220178
vn -0.967141 -0.000001 -0.254240
vn -0.967141 -0.127121 -0.220177
vn -0.967141 -0.220179 -0.127119
vn 1.000000 0.000000 0.000000
vn -1.000000 -0.000000 -0.000000
vn 0.074207 0.000005 0.997243
vn 0.074207 -0.498617 0.863640
vn 0.074207 -0.863635 0.498626
vn 0.074207 -0.997243 0.000005
vn 0.074207 -0.863640 -0.498617
vn 0.074207 -0.498626 -0.863635
vn 0.074207 -0.000005 -0.997243
vn 0.074207 0.498617 -0.863640
vn 0.074207 0.863635 -0.498626
vn 0.074207 0.997243 -0.000005
vn 0.074207 0.863640 0.498617
vn 0.074207 0.498626 0.863635
vn 0.214598 0.000005 0.976703
vn 0.214598 -0.488347 0.845852
vn 0.214598 -0.845847 0.488356
vn 0.214598 -0.976702 0.000005
vn 0.214598 -0.845852 -0.488347
vn 0.214598 -0.488356 -0.845847
vn 0.214598 -0.000005 -0.976703
vn 0.214598 0.488347 -0.845852
vn 0.214598 0.845847 -0.488356
vn 0.214598 0.976703 -0.000005
vn 0.214598 0.845852 0.488347
vn 0.214598 0.488356 0.845847
s 1
g GrumpusRLowerLeg
usemtl initialShadingGroup
f 1/1/1 2/2/2 14/14/3 13/13/4
f 2/2/2 3/3/5 15/15/6 14/14/3
f 3/3/5 4/4/7 16/16/8 15/15/6
f 4/4/7 5/5/9 17/17/10 16/16/8
f 5/5/9 6/6/11 18/18/12 17/17/10
f 6/6/11 7/7/13 19/19/14 18/18/12
f 7/7/13 8/8/15 20/20/16 19/19/14
f 8/8/15 9/9/17 21/21/18 20/20/16
f 9/9/17 10/10/19 22/22/20 21/21/18
f 10/10/19 11/11/21 23/23/22 22/22/20
f 11/11/21 12/12/23 24/24/24 23/23/22
f 12/12/23 1/1/1 13/13/4 24/24/24
f 13/13/4 14/14/3 26/26/25 25/25/26
f 14/14/3 15/15/6 27/27/27 26/26/25
f 15/15/6 16/16/8 28/28/28 27/27/27
f 16/16/8 17/17/10 29/29/29 28/28/28
f 17/17/10 18/18/12 30/30/30 29/29/29
f 18/18/12 19/19/14 31/31/31 30/30/30
f 19/19/14 20/20/16 32/32/32 31/31/31
f 20/20/16 21/21/18 33/33/33 32/32/32
f 21/21/18 22/22/20 34/34/34 33/33/33
f 22/22/20 23/23/22 35/35/35 34/34/34
f 23/23/22 24/24/24 36/36/36 35/35/35
f 24/24/24 13/13/4 25/25/26 36/36/36
f 25/25/26 26/26/25 38/38/37 37/37/38
f 26/26/25 27/27/27 39/39/39 38/38/37
f 27/27/27 28/28/28 40/40/40 39/39/39
f 28/28/28 29/29/29 41/41/41 40/40/40
f 29/29/29 30/30/30 42/42/42 41/41/41
f 30/30/30 31/31/31 43/43/43 42/42/42
f 31/31/31 32/32/32 44/44/44 43/43/43
f 32/32/32 33/33/33 45/45/45 44/44/44
f 33/33/33 34/34/34 46/46/46 45/45/45
f 34/34/34 35/35/35 47/47/47 46/46/46
f 35/35/35 36/36/36 48/48/48 47/47/47
f 36/36/36 25/25/26 37/37/38 48/48/48
f 38/50/37 125/153/49 126/155/50 37/49/38
f 39/51/39 124/152/51 125/153/49 38/50/37
f 40/52/40 123/151/52 124/152/51 39/51/39
f 41/53/41 134/163/53 123/151/52 40/52/40
f 42/54/42 133/162/54 134/163/53 41/53/41
f 43/55/43 132/161/55 133/162/54 42/54/42
f 44/56/44 131/160/56 132/161/55 43/55/43
f 45/57/45 130/159/57 131/160/56 44/56/44
f 46/58/46 129/158/58 130/159/57 45/57/45
f 47/59/47 128/157/59 129/158/58 46/58/46
f 48/60/48 127/156/60 128/157/59 47/59/47
f 37/61/38 126/154/50 127/156/60 48/60/48
f 49/85/61 50/84/62 62/96/63 61/97/64
f 50/84/62 51/83/65 63/95/66 62/96/63
f 51/83/65 52/82/67 64/94/68 63/95/66
f 52/82/67 53/81/69 65/93/70 64/94/68
f 53/81/69 54/80/71 66/92/72 65/93/70
f 54/80/71 55/79/73 67/91/74 66/92/72
f 55/79/73 56/78/75 68/90/76 67/91/74
f 56/78/75 57/77/77 69/89/78 68/90/76
f 57/77/77 58/76/79 70/88/80 69/89/78
f 58/76/79 59/75/81 71/87/82 70/88/80
f 59/75/81 60/86/83 72/98/84 71/87/82
f 60/86/83 49/85/61 61/97/64 72/98/84
f 61/97/64 62/96/63 74/108/85 73/109/86
f 62/96/63 63/95/66 75/107/87 74/108/85
f 63/95/66 64/94/68 76/106/88 75/107/87
f 64/94/68 65/93/70 77/105/89 76/106/88
f 65/93/70 66/92/72 78/104/90 77/105/89
f 66/92/72 67/91/74 79/103/91 78/104/90
f 67/91/74 68/90/76 80/102/92 79/103/91
f 68/90/76 69/89/78 81/101/93 80/102/92
f 69/89/78 70/88/80 82/100/94 81/101/93
f 70/88/80 71/87/82 83/99/95 82/100/94
f 71/87/82 72/98/84 84/110/96 83/99/95
f 72/98/84 61/97/64 73/109/86 84/110/96
f 73/109/86 74/108/85 86/120/97 85/121/98
f 74/108/85 75/107/87 87/119/99 86/120/97
f 75/107/87 76/106/88 88/118/100 87/119/99
f 76/106/88 77/105/89 89/117/101 88/118/100
f 77/105/89 78/104/90 90/116/102 89/117/101
f 78/104/90 79/103/91 91/115/103 90/116/102
f 79/103/91 80/102/92 92/114/104 91/115/103
f 80/102/92 81/101/93 93/113/105 92/114/104
f 81/101/93 82/100/94 94/112/106 93/113/105
f 82/100/94 83/99/95 95/111/107 94/112/106
f 83/99/95 84/110/96 96/122/108 95/111/107
f 84/110/96 73/109/86 85/121/98 96/122/108
f 2/2/2 1/1/1 97/123/109
f 3/3/5 2/2/2 97/123/109
f 4/4/7 3/3/5 97/123/109
f 5/5/9 4/4/7 97/123/109
f 6/6/11 5/5/9 97/123/109
f 7/7/13 6/6/11 97/123/109
f 8/8/15 7/7/13 97/123/109
f 9/9/17 8/8/15 97/123/109
f 10/10/19 9/9/17 97/123/109
f 11/11/21 10/10/19 97/123/109
f 12/12/23 11/11/21 97/123/109
f 1/1/1 12/12/23 97/123/109
f 85/121/98 86/120/97 98/124/110
f 86/120/97 87/119/99 98/124/110
f 87/119/99 88/118/100 98/124/110
f 88/118/100 89/117/101 98/124/110
f 89/117/101 90/116/102 98/124/110
f 90/116/102 91/115/103 98/124/110
f 91/115/103 92/114/104 98/124/110
f 92/114/104 93/113/105 98/124/110
f 93/113/105 94/112/106 98/124/110
f 94/112/106 95/111/107 98/124/110
f 95/111/107 96/122/108 98/124/110
f 96/122/108 85/121/98 98/124/110
f 99/125/111 52/65/67 51/64/65 100/126/112
f 101/127/113 100/126/112 51/64/65 50/63/62
f 102/129/114 101/127/113 50/63/62 49/62/61
f 103/130/115 102/128/114 49/74/61 60/73/83
f 104/131/116 103/130/115 60/73/83 59/72/81
f 105/132/117 104/131/116 59/72/81 58/71/79
f 106/133/118 105/132/117 58/71/79 57/70/77
f 107/134/119 106/133/118 57/70/77 56/69/75
f 108/135/120 107/134/119 56/69/75 55/68/73
f 109/136/121 108/135/120 55/68/73 54/67/71
f 110/137/122 109/136/121 54/67/71 53/66/69
f 99/125/111 110/137/122 53/66/69 52/65/67
f 111/138/123 99/125/111 100/126/112 112/139/124
f 113/140/125 112/139/124 100/126/112 101/127/113
f 114/142/126 113/140/125 101/127/113 102/129/114
f 115/143/127 114/141/126 102/128/114 103/130/115
f 116/144/128 115/143/127 103/130/115 104/131/116
f 117/145/129 116/144/128 104/131/116 105/132/117
f 118/146/130 117/145/129 105/132/117 106/133/118
f 119/147/131 118/146/130 106/133/118 107/134/119
f 120/148/132 119/147/131 107/134/119 108/135/120
f 121/149/133 120/148/132 108/135/120 109/136/121
f 122/150/134 121/149/133 109/136/121 110/137/122
f 111/138/123 122/150/134 110/137/122 99/125/111
f 123/151/52 111/138/123 112/139/124 124/152/51
f 125/153/49 124/152/51 112/139/124 113/140/125
f 126/155/50 125/153/49 113/140/125 114/142/126
f 127/156/60 126/154/50 114/141/126 115/143/127
f 128/157/59 127/156/60 115/143/127 116/144/128
f 129/158/58 128/157/59 116/144/128 117/145/129
f 130/159/57 129/158/58 117/145/129 118/146/130
f 131/160/56 130/159/57 118/146/130 119/147/131
f 132/161/55 131/160/56 119/147/131 120/148/132
f 133/162/54 132/161/55 120/148/132 121/149/133
f 134/163/53 133/162/54 121/149/133 122/150/134
f 123/151/52 134/163/53 122/150/134 111/138/123
