# This file uses centimeters as units for non-parametric coordinates.

mtllib CherryLLowerCanine.mtl
g default
v 0.421999 0.033068 -0.336583
v 0.293086 0.060928 -0.522576
v 0.088448 0.073928 -0.619194
v -0.137082 0.060928 -0.600549
v -0.323075 0.033068 -0.471636
v -0.419694 0.025086 -0.266998
v -0.401048 0.033068 -0.041470
v -0.272136 0.060928 0.144524
v -0.067498 0.073928 0.241143
v 0.158032 0.060928 0.222498
v 0.344026 0.033068 0.093583
v 0.440644 0.025086 -0.111052
v 0.469883 0.178262 -0.353753
v 0.325971 0.190254 -0.561388
v 0.097521 0.191428 -0.669249
v -0.154252 0.190254 -0.648434
v -0.361887 0.178262 -0.504522
v -0.469748 0.168833 -0.276071
v -0.448933 0.178262 -0.024300
v -0.305021 0.190254 0.183336
v -0.076571 0.191432 0.291196
v 0.175203 0.190254 0.270382
v 0.382837 0.178262 0.126469
v 0.490698 0.168833 -0.101979
v 0.473463 0.348945 -0.355037
v 0.328429 0.356194 -0.564289
v 0.098200 0.356668 -0.672990
v -0.155536 0.356194 -0.652013
v -0.364788 0.348945 -0.506980
v -0.473490 0.344853 -0.276750
v -0.452513 0.348945 -0.023016
v -0.307479 0.356194 0.186237
v -0.077249 0.356668 0.294937
v 0.176486 0.356194 0.273962
v 0.385739 0.348945 0.128927
v 0.494440 0.344853 -0.101300
v 0.421280 0.525852 -0.336325
v 0.292593 0.526990 -0.521993
v 0.088312 0.527699 -0.618443
v -0.136825 0.526990 -0.599830
v -0.322493 0.525852 -0.471143
v -0.418942 0.525828 -0.266862
v -0.400330 0.525852 -0.041728
v -0.271642 0.526990 0.143940
v -0.067362 0.527699 0.240392
v 0.157775 0.526990 0.221777
v 0.343444 0.525852 0.093090
v 0.439892 0.525828 -0.111188
v 0.316868 0.683016 -0.298887
v 0.220888 0.683016 -0.437365
v 0.068529 0.683016 -0.509300
v -0.099386 0.683016 -0.495419
v -0.237864 0.683016 -0.399439
v -0.309800 0.683016 -0.247079
v -0.295918 0.683016 -0.079165
v -0.199938 0.683016 0.059314
v -0.047578 0.683016 0.131249
v 0.120336 0.683016 0.117367
v 0.258815 0.683016 0.021387
v 0.330750 0.683016 -0.130971
v 0.187653 0.789636 -0.252555
v 0.132151 0.789636 -0.332633
v 0.044046 0.789636 -0.374231
v -0.053055 0.789636 -0.366203
v -0.133132 0.789636 -0.310701
v -0.174731 0.789636 -0.222596
v -0.166702 0.789636 -0.125498
v -0.111201 0.789636 -0.045419
v -0.023095 0.789636 -0.003821
v 0.074005 0.789636 -0.011848
v 0.154082 0.789636 -0.067352
v 0.195681 0.789636 -0.155454
v 0.010475 0.827076 -0.189025
v -0.050546 0.003285 0.147618
v -0.208934 -0.009731 0.062301
v -0.311579 -0.057298 -0.073550
v -0.326170 -0.072843 -0.250046
v -0.250558 -0.057298 -0.410195
v -0.106761 -0.009731 -0.501373
v 0.071496 0.003285 -0.525671
v 0.229884 -0.009731 -0.440352
v 0.332529 -0.057298 -0.304503
v 0.347120 -0.072843 -0.128004
v 0.271508 -0.057298 0.032142
v 0.127711 -0.009731 0.123322
vt 0.600086 0.257678
vt 0.676762 0.269121
vt 0.517863 0.252370
vt 0.435674 0.257946
vt 0.359099 0.269620
vt 0.294886 0.290921
vt 0.684376 0.592401
vt 0.750036 0.612566
vt 0.607073 0.582065
vt 0.524578 0.577942
vt 0.442744 0.584698
vt 0.366872 0.597469
vt 0.303911 0.619685
vt 0.741235 0.290222
vt 0.702578 0.240502
vt 0.610531 0.230691
vt 0.617821 0.200804
vt 0.720489 0.204635
vt 0.517731 0.227085
vt 0.517602 0.200227
vt 0.424923 0.231006
vt 0.417334 0.201168
vt 0.332905 0.241082
vt 0.314541 0.205277
vt 0.241123 0.258613
vt 0.206584 0.215351
vt 0.801450 0.579351
vt 0.708535 0.563423
vt 0.724374 0.527313
vt 0.832839 0.535545
vt 0.615961 0.554940
vt 0.621529 0.524961
vt 0.522992 0.552670
vt 0.521318 0.525824
vt 0.430449 0.557924
vt 0.421146 0.528208
vt 0.339048 0.569319
vt 0.318633 0.533793
vt 0.248312 0.588163
vt 0.211300 0.545415
vt 0.794539 0.257760
vt 0.828436 0.214423
vt 0.619094 0.165243
vt 0.723438 0.163628
vt 0.517436 0.166118
vt 0.415793 0.165664
vt 0.311186 0.164326
vt 0.199358 0.161573
vt 0.724963 0.486281
vt 0.836016 0.481776
vt 0.620756 0.489395
vt 0.519191 0.491733
vt 0.417564 0.492740
vt 0.312923 0.492907
vt 0.200983 0.491763
vt 0.834703 0.160722
vt 0.611591 0.127110
vt 0.706393 0.119431
vt 0.517244 0.129548
vt 0.422945 0.127501
vt 0.328558 0.120491
vt 0.229285 0.104896
vt 0.705383 0.442346
vt 0.800908 0.426173
vt 0.611062 0.451387
vt 0.516895 0.455181
vt 0.422516 0.454490
vt 0.327765 0.448840
vt 0.227637 0.434679
vt 0.802809 0.104637
vt 0.593038 0.086910
vt 0.666235 0.075910
vt 0.516849 0.090867
vt 0.440483 0.087270
vt 0.366244 0.076380
vt 0.302189 0.056610
vt 0.662739 0.399422
vt 0.727716 0.378248
vt 0.590204 0.411470
vt 0.514274 0.416521
vt 0.437733 0.414024
vt 0.362897 0.404206
vt 0.297732 0.385365
vt 0.732405 0.055679
vt 0.565302 0.050767
vt 0.608882 0.040726
vt 0.516273 0.054229
vt 0.467238 0.051117
vt 0.424123 0.041474
vt 0.394189 0.025214
vt 0.603384 0.365077
vt 0.633496 0.347422
vt 0.560400 0.375740
vt 0.511591 0.379906
vt 0.462397 0.377501
vt 0.418745 0.368482
vt 0.387888 0.352659
vt 0.639997 0.023511
vt 0.516141 0.009808
vt 0.508903 0.335505
vn 0.826521 -0.475735 -0.300897
vn 0.523696 -0.515895 -0.677934
vn 0.636582 -0.167871 -0.752717
vn 0.927530 -0.164093 -0.335801
vn 0.147492 -0.562274 -0.813692
vn 0.175648 -0.173577 -0.969030
vn -0.252427 -0.515896 -0.818616
vn -0.331884 -0.167871 -0.928263
vn -0.668324 -0.475735 -0.571856
vn -0.750656 -0.164093 -0.639992
vn -0.855238 -0.494505 -0.155022
vn -0.970595 -0.164297 -0.175932
vn -0.826521 -0.475734 0.300899
vn -0.927529 -0.164093 0.335802
vn -0.523695 -0.515893 0.677936
vn -0.636584 -0.167871 0.752715
vn -0.147492 -0.562268 0.813696
vn -0.175648 -0.173573 0.969030
vn 0.252426 -0.515893 0.818618
vn 0.331887 -0.167871 0.928262
vn 0.668323 -0.475735 0.571858
vn 0.750654 -0.164093 0.639994
vn 0.855238 -0.494505 0.155022
vn 0.970595 -0.164297 0.175932
vn 0.642352 0.143334 -0.752887
vn 0.934051 0.138178 -0.329326
vn 0.176516 0.143268 -0.973815
vn -0.337227 0.143335 -0.930448
vn -0.759034 0.138179 -0.636218
vn -0.974922 0.135273 -0.176717
vn -0.934049 0.138179 0.329329
vn -0.642357 0.143335 0.752883
vn -0.176516 0.143269 0.973815
vn 0.337234 0.143335 0.930445
vn 0.759032 0.138179 0.636221
vn 0.974922 0.135273 0.176716
vn 0.587044 0.428005 -0.687161
vn 0.854977 0.422057 -0.301467
vn 0.160997 0.430330 -0.888198
vn -0.308508 0.428005 -0.849491
vn -0.694769 0.422057 -0.582377
vn -0.893435 0.418984 -0.161946
vn -0.854975 0.422057 0.301471
vn -0.587049 0.428003 0.687159
vn -0.160997 0.430329 0.888199
vn 0.308513 0.428003 0.849490
vn 0.694766 0.422057 0.582381
vn 0.893435 0.418984 0.161946
vn 0.489970 0.654133 -0.576228
vn 0.713411 0.652735 -0.254914
vn 0.134771 0.654996 -0.743517
vn -0.256546 0.654133 -0.711543
vn -0.578550 0.652735 -0.489098
vn -0.745810 0.652297 -0.135187
vn -0.713408 0.652737 0.254919
vn -0.489972 0.654132 0.576228
vn -0.134772 0.654995 0.743518
vn 0.256548 0.654132 0.711544
vn 0.578545 0.652736 0.489101
vn 0.745810 0.652297 0.135187
vn 0.340705 0.849838 -0.402114
vn 0.496118 0.849837 -0.177888
vn 0.094001 0.849838 -0.518593
vn -0.177890 0.849838 -0.496116
vn -0.402117 0.849837 -0.340704
vn -0.518594 0.849837 -0.094001
vn -0.496115 0.849838 0.177889
vn -0.340706 0.849838 0.402113
vn -0.094001 0.849838 0.518594
vn 0.177891 0.849838 0.496115
vn 0.402114 0.849838 0.340705
vn 0.518594 0.849837 0.094002
vn -0.000000 1.000000 0.000000
vn -0.236815 -0.812876 0.532120
vn -0.104042 -0.812228 0.573986
vn -0.652495 -0.724214 0.223080
vn -0.687065 -0.715843 -0.124539
vn -0.532684 -0.724214 -0.437906
vn -0.034978 -0.812874 -0.581388
vn 0.104044 -0.812226 -0.573989
vn 0.236820 -0.812874 -0.532121
vn 0.652497 -0.724213 -0.223077
vn 0.687065 -0.715843 0.124539
vn 0.532682 -0.724214 0.437909
vn 0.034978 -0.812876 0.581386
s 1
g FoodLLowerCaninesUnderbite
usemtl CherryRig:blinn1SG
f 1/15/1 2/16/2 14/17/3 13/18/4
f 2/16/2 3/19/5 15/20/6 14/17/3
f 3/19/5 4/21/7 16/22/8 15/20/6
f 4/21/7 5/23/9 17/24/10 16/22/8
f 5/23/9 6/25/11 18/26/12 17/24/10
f 6/27/11 7/28/13 19/29/14 18/30/12
f 7/28/13 8/31/15 20/32/16 19/29/14
f 8/31/15 9/33/17 21/34/18 20/32/16
f 9/33/17 10/35/19 22/36/20 21/34/18
f 10/35/19 11/37/21 23/38/22 22/36/20
f 11/37/21 12/39/23 24/40/24 23/38/22
f 12/41/23 1/15/1 13/18/4 24/42/24
f 13/18/4 14/17/3 26/43/25 25/44/26
f 14/17/3 15/20/6 27/45/27 26/43/25
f 15/20/6 16/22/8 28/46/28 27/45/27
f 16/22/8 17/24/10 29/47/29 28/46/28
f 17/24/10 18/26/12 30/48/30 29/47/29
f 18/30/12 19/29/14 31/49/31 30/50/30
f 19/29/14 20/32/16 32/51/32 31/49/31
f 20/32/16 21/34/18 33/52/33 32/51/32
f 21/34/18 22/36/20 34/53/34 33/52/33
f 22/36/20 23/38/22 35/54/35 34/53/34
f 23/38/22 24/40/24 36/55/36 35/54/35
f 24/42/24 13/18/4 25/44/26 36/56/36
f 25/44/26 26/43/25 38/57/37 37/58/38
f 26/43/25 27/45/27 39/59/39 38/57/37
f 27/45/27 28/46/28 40/60/40 39/59/39
f 28/46/28 29/47/29 41/61/41 40/60/40
f 29/47/29 30/48/30 42/62/42 41/61/41
f 30/50/30 31/49/31 43/63/43 42/64/42
f 31/49/31 32/51/32 44/65/44 43/63/43
f 32/51/32 33/52/33 45/66/45 44/65/44
f 33/52/33 34/53/34 46/67/46 45/66/45
f 34/53/34 35/54/35 47/68/47 46/67/46
f 35/54/35 36/55/36 48/69/48 47/68/47
f 36/56/36 25/44/26 37/58/38 48/70/48
f 37/58/38 38/57/37 50/71/49 49/72/50
f 38/57/37 39/59/39 51/73/51 50/71/49
f 39/59/39 40/60/40 52/74/52 51/73/51
f 40/60/40 41/61/41 53/75/53 52/74/52
f 41/61/41 42/62/42 54/76/54 53/75/53
f 42/64/42 43/63/43 55/77/55 54/78/54
f 43/63/43 44/65/44 56/79/56 55/77/55
f 44/65/44 45/66/45 57/80/57 56/79/56
f 45/66/45 46/67/46 58/81/58 57/80/57
f 46/67/46 47/68/47 59/82/59 58/81/58
f 47/68/47 48/69/48 60/83/60 59/82/59
f 48/70/48 37/58/38 49/72/50 60/84/60
f 49/72/50 50/71/49 62/85/61 61/86/62
f 50/71/49 51/73/51 63/87/63 62/85/61
f 51/73/51 52/74/52 64/88/64 63/87/63
f 52/74/52 53/75/53 65/89/65 64/88/64
f 53/75/53 54/76/54 66/90/66 65/89/65
f 54/78/54 55/77/55 67/91/67 66/92/66
f 55/77/55 56/79/56 68/93/68 67/91/67
f 56/79/56 57/80/57 69/94/69 68/93/68
f 57/80/57 58/81/58 70/95/70 69/94/69
f 58/81/58 59/82/59 71/96/71 70/95/70
f 59/82/59 60/83/60 72/97/72 71/96/71
f 60/84/60 49/72/50 61/86/62 72/98/72
f 61/86/62 62/85/61 73/99/73
f 62/85/61 63/87/63 73/99/73
f 63/87/63 64/88/64 73/99/73
f 64/88/64 65/89/65 73/99/73
f 65/89/65 66/90/66 73/99/73
f 66/92/66 67/91/67 73/100/73
f 67/91/67 68/93/68 73/100/73
f 68/93/68 69/94/69 73/100/73
f 69/94/69 70/95/70 73/100/73
f 70/95/70 71/96/71 73/100/73
f 71/96/71 72/97/72 73/100/73
f 72/98/72 61/86/62 73/99/73
f 75/9/74 74/10/75 9/33/17 8/31/15
f 76/7/76 8/31/15 7/28/13
f 77/8/77 76/7/76 7/28/13 6/27/11
f 78/5/78 77/6/77 6/25/11 5/23/9
f 79/4/79 78/5/78 4/21/7
f 80/3/80 79/4/79 4/21/7 3/19/5
f 81/1/81 80/3/80 3/19/5 2/16/2
f 82/2/82 2/16/2 1/15/1
f 83/14/83 82/2/82 1/15/1 12/41/23
f 84/12/84 83/13/83 12/39/23 11/37/21
f 85/11/85 84/12/84 10/35/19
f 74/10/75 85/11/85 10/35/19 9/33/17
f 76/7/76 75/9/74 8/31/15
f 10/35/19 84/12/84 11/37/21
f 4/21/7 78/5/78 5/23/9
f 82/2/82 81/1/81 2/16/2
