# This file uses centimeters as units for non-parametric coordinates.

mtllib PizzaLLowerCanine.mtl
g default
v -0.211869 1.043530 0.126269
v -0.165690 1.114265 -0.061114
v -0.331804 0.911644 -0.056225
v -0.340921 0.892382 0.109689
v -0.266640 0.791860 0.206389
v 0.014475 0.802762 0.280118
v -0.123995 0.887701 -0.189245
v -0.262764 0.738213 -0.150840
v 0.383414 0.856527 -0.104759
v 0.285000 1.104794 0.027060
v 0.446599 0.856527 0.115006
v 0.482602 0.693590 -0.013890
v 0.246210 1.029483 0.195135
v 0.021990 1.117460 0.162911
v 0.131773 0.966587 -0.197103
v 0.071916 1.187987 -0.028734
v 0.293736 0.776421 0.275313
v -0.084700 0.344873 -0.151314
v 0.115787 0.373728 -0.159931
v 0.264111 0.338158 -0.130984
v 0.345712 0.313771 -0.038718
v 0.308559 0.320100 0.069160
v 0.162927 0.363045 0.206374
v -0.012854 0.363775 0.213512
v -0.177064 0.362466 0.164381
v -0.289411 0.354228 0.104438
v -0.279427 0.345709 -0.044131
v -0.206704 0.321123 -0.126639
v -0.359940 0.726786 -0.062615
v -0.365042 0.712319 0.099297
v 0.437192 0.619440 0.147647
v -0.015130 -0.018223 0.183272
v -0.136977 -0.018223 0.146208
v -0.254651 -0.018223 0.086157
v -0.247971 -0.018223 -0.037562
v -0.184253 -0.018223 -0.105332
v -0.074902 -0.018223 -0.123949
v 0.098617 -0.018222 -0.127700
v 0.230495 -0.018223 -0.106982
v 0.303474 -0.018223 -0.033285
v 0.275540 -0.018224 0.058551
v 0.128594 -0.018223 0.167751
vt 0.387711 0.196330
vt 0.394103 0.200301
vt 0.388201 0.208272
vt 0.382161 0.206195
vt 0.469193 0.834840
vt 0.475530 0.844215
vt 0.465054 0.849345
vt 0.458665 0.837049
vt 0.397156 0.210200
vt 0.392531 0.216097
vt 0.416377 0.205996
vt 0.411038 0.195520
vt 0.423539 0.199841
vt 0.422779 0.209698
vt 0.451758 0.845043
vt 0.455773 0.855469
vt 0.405894 0.205792
vt 0.402318 0.196298
vt 0.399651 0.188473
vt 0.413277 0.189155
vt 0.477331 0.838053
vt 0.446288 0.855997
vt 0.410711 0.228186
vt 0.402505 0.231041
vt 0.417243 0.227524
vt 0.422545 0.226744
vt 0.427375 0.225930
vt 0.429615 0.211063
vt 0.468283 0.868661
vt 0.462395 0.874871
vt 0.452271 0.864808
vt 0.474818 0.865032
vt 0.481283 0.861726
vt 0.482256 0.844441
vt 0.387464 0.216041
vt 0.381175 0.216375
vt 0.397364 0.232848
vt 0.392343 0.232570
vt 0.386119 0.233376
vt 0.486187 0.859579
vt 0.482138 0.878081
vt 0.476771 0.880956
vt 0.486933 0.875707
vt 0.491942 0.873360
vt 0.392800 0.248391
vt 0.398038 0.247459
vt 0.402181 0.247240
vt 0.406665 0.245442
vt 0.413681 0.242521
vt 0.419589 0.242192
vt 0.424064 0.241967
vt 0.427933 0.240839
vt 0.471490 0.887013
vn -0.463626 0.625538 0.627498
vn -0.417083 0.775667 -0.473690
vn -0.786182 0.434783 -0.439183
vn -0.880610 0.420835 0.217770
vn -0.463626 0.625538 0.627498
vn -0.360248 0.040876 0.931961
vn -0.121138 0.071715 0.990042
vn -0.105742 0.669948 0.734839
vn -0.417083 0.775667 -0.473690
vn -0.161734 0.142364 -0.976511
vn -0.415753 -0.008904 -0.909434
vn -0.786182 0.434783 -0.439183
vn 0.566632 0.190887 -0.801555
vn 0.576431 0.777693 -0.250840
vn 0.903183 0.403108 0.147526
vn 0.894656 -0.067676 -0.441601
vn 0.232842 0.544263 0.805954
vn -0.105742 0.669948 0.734839
vn -0.121138 0.071715 0.990042
vn 0.242618 -0.015201 0.970003
vn 0.163734 0.235013 -0.958102
vn 0.089334 0.914690 -0.394159
vn 0.576431 0.777693 -0.250840
vn 0.566632 0.190887 -0.801555
vn 0.089334 0.914690 -0.394159
vn -0.105742 0.669948 0.734839
vn 0.232842 0.544263 0.805954
vn 0.576431 0.777693 -0.250840
vn 0.232842 0.544263 0.805954
vn 0.903183 0.403108 0.147526
vn 0.576431 0.777693 -0.250840
vn -0.417083 0.775667 -0.473690
vn 0.089334 0.914690 -0.394159
vn 0.163734 0.235013 -0.958102
vn -0.161734 0.142364 -0.976511
vn -0.463626 0.625538 0.627498
vn -0.105742 0.669948 0.734839
vn 0.089334 0.914690 -0.394159
vn -0.417083 0.775667 -0.473690
vn -0.360248 0.040876 0.931961
vn -0.463626 0.625538 0.627498
vn -0.880610 0.420835 0.217770
vn 0.242618 -0.015201 0.970003
vn 0.903183 0.403108 0.147526
vn 0.232842 0.544263 0.805954
vn 0.106107 -0.063587 -0.992319
vn -0.077838 -0.074963 -0.994144
vn -0.161734 0.142364 -0.976511
vn 0.163734 0.235013 -0.958102
vn 0.406033 -0.085116 -0.909886
vn 0.106107 -0.063587 -0.992319
vn 0.163734 0.235013 -0.958102
vn 0.566632 0.190887 -0.801555
vn 0.906047 -0.215218 -0.364362
vn 0.406033 -0.085116 -0.909886
vn 0.566632 0.190887 -0.801555
vn 0.894656 -0.067676 -0.441601
vn 0.742274 -0.261244 0.617074
vn 0.906047 -0.215218 -0.364362
vn 0.894656 -0.067676 -0.441601
vn 0.722353 -0.324863 0.610467
vn 0.280547 -0.199265 0.938928
vn 0.742274 -0.261244 0.617074
vn 0.722353 -0.324863 0.610467
vn 0.242618 -0.015201 0.970003
vn -0.121120 -0.129959 0.984094
vn 0.280547 -0.199265 0.938928
vn 0.242618 -0.015201 0.970003
vn -0.121138 0.071715 0.990042
vn -0.367325 -0.124052 0.921783
vn -0.121120 -0.129959 0.984094
vn -0.121138 0.071715 0.990042
vn -0.360248 0.040876 0.931961
vn -0.916463 -0.129272 0.378661
vn -0.360248 0.040876 0.931961
vn -0.880610 0.420835 0.217770
vn -0.938042 -0.096395 -0.332845
vn -0.916463 -0.129272 0.378661
vn -0.880610 0.420835 0.217770
vn -0.786182 0.434783 -0.439183
vn -0.415753 -0.008904 -0.909434
vn -0.938042 -0.096395 -0.332845
vn -0.786182 0.434783 -0.439183
vn -0.077838 -0.074963 -0.994144
vn -0.432197 -0.101232 -0.896079
vn -0.415753 -0.008904 -0.909434
vn -0.161734 0.142364 -0.976511
vn -0.432197 -0.101232 -0.896079
vn -0.922014 -0.153134 -0.355585
vn -0.938042 -0.096395 -0.332845
vn -0.415753 -0.008904 -0.909434
vn -0.922014 -0.153134 -0.355585
vn -0.872228 -0.166567 0.459862
vn -0.916463 -0.129272 0.378661
vn -0.938042 -0.096395 -0.332845
vn -0.872228 -0.166567 0.459862
vn -0.367325 -0.124052 0.921783
vn -0.360248 0.040876 0.931961
vn -0.916463 -0.129272 0.378661
vn 0.722353 -0.324863 0.610467
vn 0.894656 -0.067676 -0.441601
vn 0.903183 0.403108 0.147526
vn 0.242618 -0.015201 0.970003
vn 0.722353 -0.324863 0.610467
vn 0.903183 0.403108 0.147526
vn -0.374517 -0.041558 0.926288
vn -0.081991 -0.046956 0.995526
vn -0.121120 -0.129959 0.984094
vn -0.367325 -0.124052 0.921783
vn -0.870530 -0.057116 0.488790
vn -0.374517 -0.041558 0.926288
vn -0.367325 -0.124052 0.921783
vn -0.872228 -0.166567 0.459862
vn -0.940684 -0.052233 -0.335239
vn -0.870530 -0.057116 0.488790
vn -0.872228 -0.166567 0.459862
vn -0.922014 -0.153134 -0.355585
vn -0.448038 -0.042591 -0.892999
vn -0.940684 -0.052233 -0.335239
vn -0.922014 -0.153134 -0.355585
vn -0.432197 -0.101232 -0.896079
vn -0.074367 -0.044134 -0.996254
vn -0.448038 -0.042591 -0.892999
vn -0.432197 -0.101232 -0.896079
vn -0.077838 -0.074963 -0.994144
vn 0.051022 -0.051577 -0.997365
vn -0.074367 -0.044134 -0.996254
vn -0.077838 -0.074963 -0.994144
vn 0.106107 -0.063587 -0.992319
vn 0.399458 -0.054006 -0.915160
vn 0.051022 -0.051577 -0.997365
vn 0.106107 -0.063587 -0.992319
vn 0.406033 -0.085116 -0.909886
vn 0.961320 -0.065219 -0.267600
vn 0.399458 -0.054006 -0.915160
vn 0.406033 -0.085116 -0.909886
vn 0.906047 -0.215218 -0.364362
vn 0.766233 -0.057010 0.640029
vn 0.961320 -0.065219 -0.267600
vn 0.906047 -0.215218 -0.364362
vn 0.742274 -0.261244 0.617074
vn 0.386306 -0.064229 0.920132
vn 0.766233 -0.057010 0.640029
vn 0.742274 -0.261244 0.617074
vn 0.280547 -0.199265 0.938928
vn -0.081991 -0.046956 0.995526
vn 0.386306 -0.064229 0.920132
vn 0.280547 -0.199265 0.938928
vn -0.121120 -0.129959 0.984094
s off
g FoodLLowerCaninesUnderbite
usemtl blinn5SG
f 1/1/1 2/2/2 3/3/3 4/4/4
f 1/5/5 5/6/6 6/7/7 14/8/8
f 2/2/9 7/9/10 8/10/11 3/3/12
f 9/11/13 10/12/14 11/13/15 12/14/16
f 13/15/17 14/8/18 6/7/19 17/16/20
f 15/17/21 16/18/22 10/12/23 9/11/24
f 16/18/25 14/19/26 13/20/27 10/12/28
f 13/20/29 11/13/30 10/12/31
f 2/2/32 16/18/33 15/17/34 7/9/35
f 1/1/36 14/19/37 16/18/38 2/2/39
f 5/6/40 1/5/41 4/21/42
f 17/16/43 11/22/44 13/15/45
f 19/23/46 18/24/47 7/9/48 15/17/49
f 20/25/50 19/23/51 15/17/52 9/11/53
f 21/26/54 20/25/55 9/11/56 12/14/57
f 22/27/58 21/26/59 12/14/60 31/28/61
f 23/29/62 22/30/63 31/31/64 17/16/65
f 24/32/66 23/29/67 17/16/68 6/7/69
f 25/33/70 24/32/71 6/7/72 5/6/73
f 30/34/74 5/6/75 4/21/76
f 29/35/77 30/36/78 4/4/79 3/3/80
f 8/10/81 29/35/82 3/3/83
f 18/24/84 28/37/85 8/10/86 7/9/87
f 28/37/88 27/38/89 29/35/90 8/10/91
f 27/38/92 26/39/93 30/36/94 29/35/95
f 26/40/96 25/33/97 5/6/98 30/34/99
f 31/28/100 12/14/101 11/13/102
f 17/16/103 31/31/104 11/22/105
f 33/43/106 32/41/107 24/32/108 25/33/109
f 34/44/110 33/43/111 25/33/112 26/40/113
f 35/46/114 34/45/115 26/39/116 27/38/117
f 36/47/118 35/46/119 27/38/120 28/37/121
f 37/48/122 36/47/123 28/37/124 18/24/125
f 38/49/126 37/48/127 18/24/128 19/23/129
f 39/50/130 38/49/131 19/23/132 20/25/133
f 40/51/134 39/50/135 20/25/136 21/26/137
f 41/52/138 40/51/139 21/26/140 22/27/141
f 42/42/142 41/53/143 22/30/144 23/29/145
f 32/41/146 42/42/147 23/29/148 24/32/149
