# This file uses centimeters as units for non-parametric coordinates.

mtllib RamenMediumLUpperLeg.mtl
g default
v 0.959633 0.066376 0.167258
v 0.959633 0.066376 0.112323
v 0.959633 0.027531 0.073478
v 0.959633 -0.027404 0.073478
v 0.959633 -0.066249 0.112323
v 0.959633 -0.066249 0.167258
v 0.959633 -0.027404 0.206103
v 0.959633 0.027531 0.206103
v 0.658276 0.120705 0.189763
v 0.658277 0.120705 0.089820
v 0.658277 0.050035 0.019150
v 0.658277 -0.049909 0.019150
v 0.658277 -0.120579 0.089820
v 0.658276 -0.120579 0.189763
v 0.658276 -0.049909 0.260433
v 0.658276 0.050035 0.260433
v 0.347306 0.138645 0.197195
v 0.347306 0.138645 0.082391
v 0.347307 0.057466 0.001211
v 0.347307 -0.057340 0.001211
v 0.347306 -0.138518 0.082391
v 0.347306 -0.138518 0.197195
v 0.347305 -0.057340 0.278375
v 0.347305 0.057466 0.278375
v -0.431400 0.138645 0.197199
v -0.431399 0.138645 0.082394
v -0.431399 0.057466 0.001215
v -0.431399 -0.057340 0.001215
v -0.431399 -0.138518 0.082394
v -0.431400 -0.138518 0.197199
v -0.431400 -0.057340 0.278379
v -0.431400 0.057466 0.278379
v 1.045656 0.000063 0.139790
v -0.600215 0.138645 0.001214
v -0.600215 -0.138518 0.001214
v -0.600217 -0.138518 0.278378
v -0.600217 0.138645 0.278378
v -1.113827 0.138645 0.278375
v -1.113826 0.138645 0.001211
v -1.113826 -0.138518 0.001211
v -1.113827 -0.138518 0.278375
vt 0.046738 0.535407
vt 0.051314 0.534267
vt 0.060427 0.589062
vt 0.053001 0.589600
vt 0.055983 0.532662
vt 0.067988 0.588325
vt 0.019408 0.533233
vt 0.024115 0.534685
vt 0.016369 0.589334
vt 0.008859 0.588690
vt 0.028715 0.535681
vt 0.023750 0.589784
vt 0.033244 0.536241
vt 0.031072 0.590035
vt 0.037736 0.536383
vt 0.038361 0.590087
vt 0.042223 0.536108
vt 0.045663 0.589942
vt 0.060581 0.639395
vt 0.053182 0.639405
vt 0.067987 0.639389
vt 0.016248 0.639413
vt 0.008859 0.639404
vt 0.023632 0.639421
vt 0.031018 0.639429
vt 0.038406 0.639426
vt 0.045792 0.639418
vt 0.060508 0.755936
vt 0.053126 0.755904
vt 0.067987 0.755963
vt 0.016220 0.755883
vt 0.008859 0.755925
vt 0.023624 0.755857
vt 0.030967 0.755847
vt 0.038368 0.755855
vt 0.045717 0.755874
vt 0.037181 0.517564
vt 0.015656 0.505901
vt 0.015656 0.490643
vt 0.030948 0.505815
vt 0.030914 0.490643
vt 0.063467 0.769085
vt 0.049098 0.768786
vt 0.020107 0.768611
vt 0.005732 0.768639
vt 0.034600 0.768641
vt 0.063164 0.803955
vt 0.048735 0.803791
vt 0.020088 0.803541
vt 0.005846 0.803535
vt 0.034381 0.803629
vn 0.238107 0.897309 0.371675
vn 0.238105 0.897309 -0.371675
vn 0.114734 0.917779 -0.380154
vn 0.114737 0.917779 0.380155
vn 0.238105 0.371678 -0.897308
vn 0.114732 0.380157 -0.917778
vn 0.238106 -0.371678 -0.897308
vn 0.114732 -0.380159 -0.917778
vn 0.238107 -0.897309 -0.371674
vn 0.114734 -0.917781 -0.380151
vn 0.238109 -0.897309 0.371673
vn 0.114737 -0.917780 0.380152
vn 0.238111 -0.371677 0.897307
vn 0.114740 -0.380158 0.917777
vn 0.238110 0.371678 0.897307
vn 0.114739 0.380156 0.917778
vn 0.016833 0.923748 -0.382630
vn 0.016837 0.923749 0.382629
vn 0.016830 0.382630 -0.923748
vn 0.016830 -0.382632 -0.923748
vn 0.016832 -0.923750 -0.382626
vn 0.016836 -0.923750 0.382625
vn 0.016839 -0.382632 0.923747
vn 0.016839 0.382630 0.923748
vn -0.000002 0.923880 -0.382683
vn 0.000002 0.923878 0.382686
vn -0.000004 0.382685 -0.923879
vn -0.000004 -0.382687 -0.923878
vn -0.000002 -0.923881 -0.382680
vn 0.000002 -0.923880 0.382682
vn 0.000004 -0.382686 0.923879
vn 0.000004 0.382684 0.923879
vn 1.000000 -0.000002 0.000004
vn -1.000000 -0.000000 -0.000005
vn -1.000000 -0.000000 -0.000005
vn -1.000000 -0.000000 -0.000005
vn -1.000000 -0.000000 -0.000005
vn -0.000000 1.000000 0.000000
vn -0.000000 1.000000 0.000000
vn -0.000000 1.000000 0.000000
vn -0.000000 1.000000 0.000000
vn 0.321932 0.669464 -0.669461
vn 0.321932 0.669464 -0.669461
vn 0.321932 0.669464 -0.669461
vn 0.000003 0.000000 -1.000000
vn 0.000003 0.000000 -1.000000
vn 0.000004 0.000000 -1.000000
vn 0.000004 0.000000 -1.000000
vn 0.321933 -0.669473 -0.669451
vn 0.321933 -0.669473 -0.669452
vn 0.321933 -0.669473 -0.669451
vn 0.000000 -1.000000 -0.000000
vn 0.000000 -1.000000 -0.000000
vn 0.000000 -1.000000 -0.000000
vn 0.000000 -1.000000 -0.000000
vn 0.321927 -0.669473 0.669454
vn 0.321927 -0.669473 0.669454
vn 0.321927 -0.669473 0.669454
vn -0.000008 -0.000000 1.000000
vn -0.000008 -0.000000 1.000000
vn -0.000008 -0.000000 1.000000
vn -0.000008 -0.000000 1.000000
vn 0.321926 0.669464 0.669464
vn 0.321926 0.669464 0.669464
vn 0.321926 0.669464 0.669464
vn -0.000000 1.000000 0.000000
vn -0.000000 1.000000 0.000000
vn 0.000005 0.000000 -1.000000
vn 0.000005 0.000000 -1.000000
vn 0.000000 -1.000000 -0.000000
vn 0.000000 -1.000000 -0.000000
vn -0.000005 -0.000000 1.000000
vn -0.000005 -0.000000 1.000000
vn -0.000005 -0.000000 1.000000
vn -0.000005 -0.000000 1.000000
s 1
g FoodMediumLUpperLeg
usemtl delete11:blinn1SG
f 1/1/1 2/2/2 10/3/3 9/4/4
f 2/2/2 3/5/5 11/6/6 10/3/3
f 3/7/5 4/8/7 12/9/8 11/10/6
f 4/8/7 5/11/9 13/12/10 12/9/8
f 5/11/9 6/13/11 14/14/12 13/12/10
f 6/13/11 7/15/13 15/16/14 14/14/12
f 7/15/13 8/17/15 16/18/16 15/16/14
f 8/17/15 1/1/1 9/4/4 16/18/16
f 9/4/4 10/3/3 18/19/17 17/20/18
f 10/3/3 11/6/6 19/21/19 18/19/17
f 11/10/6 12/9/8 20/22/20 19/23/19
f 12/9/8 13/12/10 21/24/21 20/22/20
f 13/12/10 14/14/12 22/25/22 21/24/21
f 14/14/12 15/16/14 23/26/23 22/25/22
f 15/16/14 16/18/16 24/27/24 23/26/23
f 16/18/16 9/4/4 17/20/18 24/27/24
f 17/20/18 18/19/17 26/28/25 25/29/26
f 18/19/17 19/21/19 27/30/27 26/28/25
f 19/23/19 20/22/20 28/31/28 27/32/27
f 20/22/20 21/24/21 29/33/29 28/31/28
f 21/24/21 22/25/22 30/34/30 29/33/29
f 22/25/22 23/26/23 31/35/31 30/34/30
f 23/26/23 24/27/24 32/36/32 31/35/31
f 24/27/24 17/20/18 25/29/26 32/36/32
f 2/2/2 1/1/1 33/37/33
f 3/5/5 2/2/2 33/37/33
f 4/8/7 3/7/5 33/37/33
f 5/11/9 4/8/7 33/37/33
f 6/13/11 5/11/9 33/37/33
f 7/15/13 6/13/11 33/37/33
f 8/17/15 7/15/13 33/37/33
f 1/1/1 8/17/15 33/37/33
s 2
f 39/38/34 40/39/35 38/40/36
f 40/39/35 41/41/37 38/40/36
s 3
f 25/29/38 26/28/39 34/42/40 37/43/41
s off
f 26/28/42 27/30/43 34/42/44
s 4
f 27/32/45 28/31/46 35/44/47 34/45/48
s off
f 28/31/49 29/33/50 35/44/51
s 5
f 29/33/52 30/34/53 36/46/54 35/44/55
s off
f 30/34/56 31/35/57 36/46/58
f 31/35/59 32/36/60 37/43/61 36/46/62
f 32/36/63 25/29/64 37/43/65
s 3
f 37/43/41 34/42/40 39/47/66 38/48/67
s 4
f 34/45/48 35/44/47 40/49/68 39/50/69
s 5
f 35/44/55 36/46/54 41/51/70 40/49/71
s off
f 36/46/72 37/43/73 38/48/74 41/51/75
