# This file uses centimeters as units for non-parametric coordinates.

mtllib CappuccinoNose.mtl
g default
v 0.317771 0.380083 1.038570
v 0.291450 0.404418 0.928111
v 0.002094 0.414498 0.882357
v -0.287261 0.404418 0.928111
v -0.313583 0.380083 1.038570
v -0.221122 0.355747 1.149029
v 0.225311 0.355747 1.149030
v 0.317771 0.204676 0.999999
v 0.291449 0.228822 0.889499
v 0.002094 0.238662 0.843655
v 0.002094 0.346130 1.194764
v 0.225311 0.180531 1.110501
v -0.221123 0.180532 1.110500
v -0.313583 0.204676 0.999999
v -0.287262 0.228822 0.889498
v 0.317771 0.547856 1.030303
v 0.291449 0.542289 0.917331
v 0.002094 0.539983 0.870537
v -0.287261 0.542289 0.917331
v -0.313583 0.547856 1.030302
v -0.221123 0.553423 1.143273
v 0.002094 0.555729 1.190068
v 0.225311 0.553423 1.143274
v 0.317770 0.707651 0.978177
v 0.291449 0.672574 0.870646
v 0.002094 0.658045 0.826105
v -0.287262 0.672574 0.870646
v -0.313583 0.707651 0.978178
v -0.221123 0.742727 1.085709
v 0.002094 0.757256 1.130251
v 0.225311 0.742727 1.085710
v 0.317770 0.848117 0.885870
v 0.291449 0.785999 0.791345
v 0.002094 0.760269 0.752192
v -0.287262 0.785999 0.791345
v -0.313582 0.848116 0.885870
v -0.221123 0.910234 0.980394
v 0.002094 0.935963 1.019547
v 0.225311 0.910234 0.980394
v 0.317771 0.959367 0.759876
v 0.291449 0.874579 0.685010
v 0.002094 0.839460 0.654000
v -0.287262 0.874579 0.685010
v -0.313583 0.959367 0.759876
v -0.221123 1.044153 0.834741
v 0.002094 1.079273 0.865750
v 0.225311 1.044154 0.834740
v 0.317771 1.033573 0.609062
v 0.291449 0.932085 0.559125
v 0.002094 0.890047 0.538442
v -0.287261 0.932084 0.559126
v -0.313582 1.033573 0.609062
v -0.221123 1.135061 0.658997
v 0.002095 1.177098 0.679681
v 0.225311 1.135061 0.658997
v 0.317770 1.049253 0.450542
v 0.291450 0.938206 0.429049
v 0.002094 0.892207 0.420146
v -0.287261 0.938206 0.429049
v -0.313582 1.049253 0.450542
v -0.221123 1.160299 0.472035
v 0.002094 1.206297 0.480937
v 0.225311 1.160299 0.472035
v 0.317770 1.003524 0.288801
v 0.291450 0.894683 0.319573
v 0.002094 0.849599 0.332321
v -0.287261 0.894683 0.319573
v -0.313583 1.003524 0.288800
v -0.221123 1.112366 0.258028
v 0.002094 1.157450 0.245282
v 0.225311 1.112366 0.258029
v 0.002094 0.170529 1.156271
v 0.317771 -0.148802 0.301357
v 0.291449 -0.037664 0.322382
v 0.002094 0.008370 0.331090
v -0.287261 -0.037664 0.322382
v -0.313582 -0.148802 0.301358
v -0.221123 -0.259939 0.280334
v 0.002094 -0.305973 0.271625
v 0.225311 -0.259939 0.280333
v 0.317770 -0.171325 0.420414
v 0.291449 -0.058271 0.416852
v 0.002094 -0.011443 0.415376
v -0.287262 -0.058271 0.416852
v -0.313583 -0.171325 0.420414
v -0.221123 -0.284377 0.423976
v 0.002094 -0.331203 0.425452
v 0.225311 -0.284377 0.423976
v 0.317771 -0.167508 0.541522
v 0.291450 -0.057914 0.513542
v 0.002094 -0.012519 0.501953
v -0.287261 -0.057914 0.513542
v -0.313582 -0.167508 0.541522
v -0.221123 -0.277101 0.569502
v 0.002094 -0.322495 0.581091
v 0.225311 -0.277101 0.569501
v 0.317771 -0.137534 0.658923
v 0.291450 -0.036610 0.607857
v 0.002094 0.005193 0.586704
v -0.287261 -0.036610 0.607856
v -0.313582 -0.137534 0.658924
v -0.221123 -0.238459 0.709990
v 0.002094 -0.280262 0.731143
v 0.225312 -0.238459 0.709990
v 0.317771 -0.082830 0.767038
v 0.291449 0.004629 0.695314
v 0.002094 0.040855 0.665603
v -0.287261 0.004630 0.695313
v -0.313583 -0.082830 0.767038
v -0.221123 -0.170288 0.838766
v 0.002094 -0.206513 0.868476
v 0.225311 -0.170288 0.838765
v 0.317771 -0.005992 0.860729
v 0.291450 0.063843 0.771753
v 0.002094 0.092768 0.734898
v -0.287261 0.063843 0.771753
v -0.313582 -0.005992 0.860729
v -0.221123 -0.075826 0.949705
v 0.002094 -0.104753 0.986559
v 0.225311 -0.075826 0.949704
v 0.317771 0.089324 0.935538
v 0.291449 0.138214 0.833542
v 0.002094 0.158465 0.791294
v -0.287261 0.138214 0.833542
v -0.313583 0.089324 0.935538
v -0.221123 0.040434 1.037535
v 0.002094 0.020182 1.079783
v 0.225311 0.040433 1.037536
v -0.221123 1.048840 0.146854
v -0.226730 1.048061 0.107571
v 0.002094 0.923352 0.116819
v -0.313582 0.941121 0.181775
v -0.322758 0.929095 0.139579
v -0.287262 0.837497 0.227534
v -0.295977 0.807257 0.184386
v 0.002094 0.794709 0.246841
v 0.002094 0.760598 0.203842
v 0.291449 0.837497 0.227534
v 0.300165 0.807257 0.184386
v 0.317771 0.941121 0.181775
v 0.326946 0.929095 0.139579
v 0.225311 1.048840 0.146854
v 0.230918 1.048061 0.107571
v 0.002094 1.093331 0.132056
v 0.002094 1.094728 0.094680
v -0.221123 -0.221953 0.185015
v -0.231858 -0.215577 0.158883
v 0.002094 -0.095575 0.175339
v -0.313582 -0.116639 0.226422
v -0.323207 -0.102988 0.195140
v -0.287262 -0.012335 0.270184
v -0.294286 0.011416 0.234628
v 0.002094 0.030015 0.290298
v 0.002094 0.057271 0.252616
v 0.291449 -0.012335 0.270184
v 0.298474 0.011416 0.234629
v 0.317771 -0.116639 0.226422
v 0.327395 -0.102988 0.195140
v 0.225311 -0.221953 0.185015
v 0.236046 -0.215577 0.158883
v 0.002094 -0.265322 0.167272
v 0.002094 -0.267152 0.143477
vt 0.256398 0.423983
vt 0.268149 0.423968
vt 0.268471 0.443157
vt 0.256520 0.442890
vt 0.226545 0.423975
vt 0.226574 0.442317
vt 0.282851 0.423960
vt 0.305600 0.424087
vt 0.282858 0.442984
vt 0.328324 0.424404
vt 0.327805 0.443506
vt 0.342996 0.424703
vt 0.342184 0.443989
vt 0.354730 0.424982
vt 0.354057 0.444194
vt 0.384580 0.425770
vt 0.384042 0.444246
vt 0.256550 0.396885
vt 0.268286 0.396822
vt 0.226709 0.396994
vt 0.355237 0.397725
vt 0.385096 0.398569
vt 0.343498 0.397432
vt 0.328782 0.397120
vt 0.305886 0.396821
vt 0.282997 0.396766
vt 0.256870 0.369805
vt 0.268592 0.369658
vt 0.227056 0.370179
vt 0.355473 0.370452
vt 0.385331 0.371430
vt 0.343741 0.370127
vt 0.329037 0.369796
vt 0.306153 0.369508
vt 0.283283 0.369523
vt 0.257225 0.342772
vt 0.268911 0.342478
vt 0.227477 0.343604
vt 0.355535 0.343183
vt 0.385370 0.344437
vt 0.343831 0.342778
vt 0.329167 0.342383
vt 0.306351 0.342082
vt 0.283553 0.342204
vt 0.257461 0.315784
vt 0.269100 0.315263
vt 0.227829 0.317361
vt 0.355517 0.315924
vt 0.385312 0.317687
vt 0.343846 0.315370
vt 0.329221 0.314852
vt 0.306446 0.314511
vt 0.283693 0.314782
vt 0.257322 0.288824
vt 0.268929 0.287983
vt 0.227865 0.291581
vt 0.355600 0.288670
vt 0.385341 0.291332
vt 0.343950 0.287881
vt 0.329310 0.287183
vt 0.306419 0.286788
vt 0.283538 0.287233
vt 0.256336 0.261834
vt 0.267997 0.260596
vt 0.227048 0.266462
vt 0.356209 0.261369
vt 0.385848 0.265578
vt 0.344523 0.260267
vt 0.329691 0.259389
vt 0.306269 0.259001
vt 0.282824 0.259581
vt 0.253760 0.234646
vt 0.265721 0.233012
vt 0.223984 0.242471
vt 0.358289 0.233919
vt 0.387722 0.240610
vt 0.346302 0.232466
vt 0.330745 0.231623
vt 0.305983 0.231481
vt 0.281253 0.231967
vt 0.256130 0.462554
vt 0.267804 0.462805
vt 0.226347 0.462229
vt 0.354027 0.463828
vt 0.383853 0.464156
vt 0.342366 0.463776
vt 0.327777 0.463713
vt 0.305097 0.463513
vt 0.305357 0.442945
vt 0.282414 0.463133
vt 0.249619 0.583830
vt 0.252512 0.563498
vt 0.264350 0.565039
vt 0.261891 0.585628
vt 0.219602 0.575296
vt 0.223043 0.557599
vt 0.356264 0.585956
vt 0.354266 0.565491
vt 0.384150 0.560955
vt 0.386134 0.579399
vt 0.343918 0.587221
vt 0.342386 0.566551
vt 0.327997 0.588073
vt 0.327248 0.567318
vt 0.302862 0.587978
vt 0.303347 0.567395
vt 0.277751 0.586985
vt 0.279426 0.566420
vt 0.254236 0.543298
vt 0.265899 0.544511
vt 0.224723 0.539226
vt 0.353474 0.545119
vt 0.383381 0.542158
vt 0.341742 0.545896
vt 0.326957 0.546492
vt 0.303783 0.546572
vt 0.280625 0.545694
vt 0.255193 0.523130
vt 0.266806 0.524025
vt 0.225559 0.520425
vt 0.353306 0.524800
vt 0.383216 0.523010
vt 0.341629 0.525300
vt 0.326994 0.525691
vt 0.304178 0.525700
vt 0.281392 0.524953
vt 0.255700 0.502954
vt 0.267317 0.503578
vt 0.225975 0.501292
vt 0.353444 0.504491
vt 0.383341 0.503582
vt 0.341785 0.504757
vt 0.327202 0.504958
vt 0.304523 0.504879
vt 0.281869 0.504266
vt 0.255966 0.482760
vt 0.267606 0.483169
vt 0.226191 0.481885
vt 0.353715 0.484169
vt 0.383586 0.483947
vt 0.342059 0.484252
vt 0.327483 0.484300
vt 0.304824 0.484149
vt 0.282178 0.483657
vt 0.331842 0.209752
vt 0.348888 0.210153
vt 0.362327 0.212101
vt 0.391766 0.221715
vt 0.219589 0.223663
vt 0.249023 0.213120
vt 0.262478 0.210877
vt 0.279579 0.210143
vt 0.305723 0.209972
vt 0.331693 0.204991
vt 0.349165 0.205564
vt 0.255611 0.633889
vt 0.363811 0.207292
vt 0.393724 0.217814
vt 0.217534 0.219817
vt 0.247399 0.208365
vt 0.238750 0.653903
vt 0.262075 0.206306
vt 0.279590 0.205422
vt 0.305672 0.205333
vt 0.245534 0.599731
vt 0.259140 0.601781
vt 0.215559 0.589590
vt 0.359427 0.602163
vt 0.389530 0.593827
vt 0.345818 0.603568
vt 0.328665 0.604113
vt 0.302489 0.603885
vt 0.276314 0.603018
vt 0.329453 0.607875
vt 0.302406 0.607515
vt 0.245275 0.622534
vt 0.346432 0.607183
vt 0.360343 0.605757
vt 0.390896 0.596942
vt 0.232371 0.622780
vt 0.214036 0.592631
vt 0.244428 0.603266
vt 0.258348 0.605359
vt 0.275349 0.606745
vt 0.222096 0.650312
vt 0.221376 0.679885
vt 0.233328 0.684940
vt 0.247237 0.678054
vt 0.256185 0.656879
vt 0.570584 0.939976
vt 0.558622 0.963326
vt 0.548274 0.948637
vt 0.584783 0.944663
vt 0.589196 0.956277
vt 0.567547 0.976935
vt 0.540529 0.989465
vt 0.531323 0.981156
vt 0.532099 0.966277
vn 0.489011 0.078050 -0.868779
vn 0.943230 -0.024534 0.331232
vn 0.943914 -0.115253 0.309425
vn 0.488362 0.291269 -0.822597
vn 0.000001 0.086371 -0.996263
vn 0.000001 0.337716 -0.941248
vn 0.432851 -0.299567 0.850235
vn 0.431887 -0.079776 0.898393
vn -0.000002 -0.089227 0.996011
vn -0.000002 -0.330948 0.943649
vn -0.431887 -0.079775 0.898393
vn -0.432852 -0.299568 0.850234
vn -0.943230 -0.024533 0.331233
vn -0.943913 -0.115253 0.309426
vn -0.489007 0.078053 -0.868781
vn -0.488364 0.291270 -0.822595
vn 0.504071 -0.184738 -0.843673
vn 0.934549 0.063246 0.350168
vn -0.000000 -0.219239 -0.975671
vn -0.504069 -0.184739 -0.843674
vn -0.934550 0.063245 0.350168
vn -0.421334 0.145781 0.895112
vn -0.000002 0.156306 0.987709
vn 0.421333 0.145782 0.895112
vn 0.504050 -0.400030 -0.765448
vn 0.934559 0.153075 0.321198
vn -0.000001 -0.468011 -0.883723
vn -0.504052 -0.400033 -0.765444
vn -0.934557 0.153076 0.321202
vn -0.421264 0.375965 0.825341
vn -0.000001 0.410433 0.911891
vn 0.421264 0.375966 0.825340
vn 0.504051 -0.587226 -0.633323
vn 0.934559 0.232144 0.269644
vn -0.000000 -0.683914 -0.729563
vn -0.504051 -0.587226 -0.633323
vn -0.934557 0.232146 0.269649
vn -0.421262 0.579754 0.697441
vn 0.000000 0.635768 0.771880
vn 0.421264 0.579756 0.697438
vn 0.504049 -0.733097 -0.456622
vn 0.934559 0.294879 0.199114
vn 0.000000 -0.851685 -0.524054
vn -0.504050 -0.733091 -0.456630
vn -0.934558 0.294879 0.199115
vn -0.421264 0.742745 0.520449
vn 0.000000 0.816363 0.577540
vn 0.421265 0.742746 0.520447
vn 0.512280 -0.834586 -0.202572
vn 0.930312 0.352286 0.102050
vn 0.000000 -0.973972 -0.226667
vn -0.512281 -0.834584 -0.202578
vn -0.930312 0.352286 0.102048
vn -0.417768 0.864868 0.278340
vn 0.000000 0.949951 0.312401
vn 0.417768 0.864867 0.278342
vn 0.523685 -0.840446 0.139304
vn 0.920873 0.387961 -0.038462
vn -0.000000 -0.983554 0.180615
vn -0.523685 -0.840445 0.139303
vn -0.920873 0.387962 -0.038463
vn -0.406103 0.912475 -0.049693
vn -0.000000 0.998963 -0.045520
vn 0.406105 0.912475 -0.049692
vn 0.493758 -0.771614 0.401016
vn 0.931371 0.341992 -0.124854
vn -0.000000 -0.883170 0.469053
vn -0.493759 -0.771615 0.401014
vn -0.931371 0.341995 -0.124855
vn -0.413449 0.861605 -0.294444
vn 0.000000 0.949288 -0.314409
vn 0.413450 0.861604 -0.294444
vn 0.494772 0.509429 -0.704048
vn 0.937728 -0.188003 0.292098
vn 0.000001 0.589958 -0.807434
vn -0.494775 0.509427 -0.704047
vn -0.937727 -0.188004 0.292100
vn -0.423031 -0.481122 0.767832
vn -0.000001 -0.526941 0.849902
vn 0.423031 -0.481124 0.767831
vn 0.514847 0.816921 0.259947
vn 0.507722 0.856288 0.094813
vn 0.934999 -0.353759 -0.025139
vn 0.934594 -0.343121 -0.093824
vn 0.000000 0.951380 0.308020
vn 0.000000 0.993415 0.114569
vn -0.514845 0.816922 0.259947
vn -0.507722 0.856288 0.094810
vn -0.934592 -0.343124 -0.093828
vn -0.934998 -0.353760 -0.025140
vn -0.422293 -0.877102 -0.228823
vn -0.422397 -0.904847 -0.053228
vn 0.000000 -0.968541 -0.248855
vn -0.000000 -0.998489 -0.054954
vn 0.422293 -0.877103 -0.228823
vn 0.422397 -0.904847 -0.053227
vn 0.507721 0.856485 -0.093016
vn 0.934999 -0.350799 0.052127
vn 0.000001 0.994635 -0.103451
vn -0.507720 0.856485 -0.093026
vn -0.935000 -0.350797 0.052129
vn -0.422397 -0.894876 0.144145
vn 0.000001 -0.986667 0.162753
vn 0.422398 -0.894876 0.144144
vn 0.507719 0.815967 -0.276442
vn 0.935000 -0.331161 0.126915
vn 0.000000 0.948572 -0.316562
vn -0.507722 0.815967 -0.276434
vn -0.935000 -0.331161 0.126916
vn -0.422398 -0.842366 0.334663
vn 0.000001 -0.927942 0.372724
vn 0.422398 -0.842366 0.334662
vn 0.507719 0.736660 -0.446713
vn 0.934999 -0.295785 0.195674
vn 0.000001 0.857417 -0.514622
vn -0.507718 0.736662 -0.446712
vn -0.935000 -0.295784 0.195670
vn -0.422400 -0.749812 0.509274
vn 0.000001 -0.825105 0.564979
vn 0.422400 -0.749812 0.509275
vn 0.507724 0.622340 -0.595743
vn 0.934999 -0.246348 0.255128
vn 0.000001 0.725509 -0.688212
vn -0.507720 0.622337 -0.595749
vn -0.934999 -0.246346 0.255127
vn -0.422401 -0.621612 0.659679
vn 0.000001 -0.683045 0.730376
vn 0.422401 -0.621614 0.659677
vn -0.469018 0.818875 -0.330857
vn -0.967382 0.250280 -0.039140
vn -0.440712 -0.734924 0.515422
vn -0.000000 -0.827973 0.560769
vn 0.440711 -0.734926 0.515420
vn 0.967382 0.250282 -0.039141
vn 0.469017 0.818874 -0.330859
vn -0.000001 0.923943 -0.382530
vn -0.252540 0.199814 -0.946730
vn -0.396688 -0.198422 -0.896252
vn -0.000001 -0.323070 -0.946375
vn -0.295131 -0.792207 -0.534141
vn -0.000001 -0.888179 -0.459497
vn 0.295129 -0.792203 -0.534147
vn 0.396691 -0.198424 -0.896250
vn 0.252539 0.199814 -0.946731
vn -0.000001 0.343280 -0.939233
vn 0.465897 0.746368 0.475263
vn 0.947680 -0.318095 -0.026809
vn -0.000002 0.857770 0.514033
vn -0.465900 0.746380 0.475242
vn -0.947678 -0.318100 -0.026803
vn -0.431590 -0.862942 -0.262796
vn -0.000000 -0.952824 -0.303524
vn 0.431591 -0.862942 -0.262794
vn -0.212031 -0.019516 -0.977068
vn 0.000001 -0.130932 -0.991391
vn 0.000000 0.329359 -0.944205
vn -0.336438 0.241446 -0.910227
vn -0.260473 0.751407 -0.606252
vn -0.000001 0.848678 -0.528910
vn 0.260469 0.751407 -0.606253
vn 0.336437 0.241448 -0.910227
vn 0.212032 -0.019522 -0.977068
s 1
g FoodNose
usemtl blinn1SG
f 2/1/1 1/2/2 8/3/3 9/4/4
f 3/5/5 2/1/1 9/4/4 10/6/6
f 12/9/7 7/7/8 11/8/9 72/89/10
f 1/2/2 7/7/8 12/9/7 8/3/3
f 11/8/9 6/10/11 13/11/12 72/89/10
f 6/10/11 5/12/13 14/13/14 13/11/12
f 5/12/13 4/14/15 15/15/16 14/13/14
f 4/14/15 3/16/5 10/17/6 15/15/16
f 17/18/17 16/19/18 1/2/2 2/1/1
f 18/20/19 17/18/17 2/1/1 3/5/5
f 19/21/20 18/22/19 3/16/5 4/14/15
f 20/23/21 19/21/20 4/14/15 5/12/13
f 21/24/22 20/23/21 5/12/13 6/10/11
f 22/25/23 21/24/22 6/10/11 11/8/9
f 23/26/24 22/25/23 11/8/9 7/7/8
f 16/19/18 23/26/24 7/7/8 1/2/2
f 25/27/25 24/28/26 16/19/18 17/18/17
f 26/29/27 25/27/25 17/18/17 18/20/19
f 27/30/28 26/31/27 18/22/19 19/21/20
f 28/32/29 27/30/28 19/21/20 20/23/21
f 29/33/30 28/32/29 20/23/21 21/24/22
f 30/34/31 29/33/30 21/24/22 22/25/23
f 31/35/32 30/34/31 22/25/23 23/26/24
f 24/28/26 31/35/32 23/26/24 16/19/18
f 33/36/33 32/37/34 24/28/26 25/27/25
f 34/38/35 33/36/33 25/27/25 26/29/27
f 35/39/36 34/40/35 26/31/27 27/30/28
f 36/41/37 35/39/36 27/30/28 28/32/29
f 37/42/38 36/41/37 28/32/29 29/33/30
f 38/43/39 37/42/38 29/33/30 30/34/31
f 39/44/40 38/43/39 30/34/31 31/35/32
f 32/37/34 39/44/40 31/35/32 24/28/26
f 41/45/41 40/46/42 32/37/34 33/36/33
f 42/47/43 41/45/41 33/36/33 34/38/35
f 43/48/44 42/49/43 34/40/35 35/39/36
f 44/50/45 43/48/44 35/39/36 36/41/37
f 45/51/46 44/50/45 36/41/37 37/42/38
f 46/52/47 45/51/46 37/42/38 38/43/39
f 47/53/48 46/52/47 38/43/39 39/44/40
f 40/46/42 47/53/48 39/44/40 32/37/34
f 49/54/49 48/55/50 40/46/42 41/45/41
f 50/56/51 49/54/49 41/45/41 42/47/43
f 51/57/52 50/58/51 42/49/43 43/48/44
f 52/59/53 51/57/52 43/48/44 44/50/45
f 53/60/54 52/59/53 44/50/45 45/51/46
f 54/61/55 53/60/54 45/51/46 46/52/47
f 55/62/56 54/61/55 46/52/47 47/53/48
f 48/55/50 55/62/56 47/53/48 40/46/42
f 57/63/57 56/64/58 48/55/50 49/54/49
f 58/65/59 57/63/57 49/54/49 50/56/51
f 59/66/60 58/67/59 50/58/51 51/57/52
f 60/68/61 59/66/60 51/57/52 52/59/53
f 61/69/62 60/68/61 52/59/53 53/60/54
f 62/70/63 61/69/62 53/60/54 54/61/55
f 63/71/64 62/70/63 54/61/55 55/62/56
f 56/64/58 63/71/64 55/62/56 48/55/50
f 65/72/65 64/73/66 56/64/58 57/63/57
f 66/74/67 65/72/65 57/63/57 58/65/59
f 67/75/68 66/76/67 58/67/59 59/66/60
f 68/77/69 67/75/68 59/66/60 60/68/61
f 69/78/70 68/77/69 60/68/61 61/69/62
f 70/79/71 69/78/70 61/69/62 62/70/63
f 71/80/72 70/79/71 62/70/63 63/71/64
f 64/73/66 71/80/72 63/71/64 56/64/58
f 122/81/73 9/4/4 8/3/3 121/82/74
f 123/83/75 10/6/6 9/4/4 122/81/73
f 124/84/76 15/15/16 10/17/6 123/85/75
f 125/86/77 14/13/14 15/15/16 124/84/76
f 126/87/78 13/11/12 14/13/14 125/86/77
f 127/88/79 72/89/10 13/11/12 126/87/78
f 128/90/80 12/9/7 72/89/10 127/88/79
f 128/90/80 121/82/74 8/3/3 12/9/7
f 74/91/81 82/92/82 81/93/83 73/94/84
f 75/95/85 83/96/86 82/92/82 74/91/81
f 76/97/87 84/98/88 83/99/86 75/100/85
f 77/101/89 85/102/90 84/98/88 76/97/87
f 78/103/91 86/104/92 85/102/90 77/101/89
f 79/105/93 87/106/94 86/104/92 78/103/91
f 80/107/95 88/108/96 87/106/94 79/105/93
f 80/107/95 73/94/84 81/93/83 88/108/96
f 82/92/82 90/109/97 89/110/98 81/93/83
f 83/96/86 91/111/99 90/109/97 82/92/82
f 84/98/88 92/112/100 91/113/99 83/99/86
f 85/102/90 93/114/101 92/112/100 84/98/88
f 86/104/92 94/115/102 93/114/101 85/102/90
f 87/106/94 95/116/103 94/115/102 86/104/92
f 88/108/96 96/117/104 95/116/103 87/106/94
f 88/108/96 81/93/83 89/110/98 96/117/104
f 90/109/97 98/118/105 97/119/106 89/110/98
f 91/111/99 99/120/107 98/118/105 90/109/97
f 92/112/100 100/121/108 99/122/107 91/113/99
f 93/114/101 101/123/109 100/121/108 92/112/100
f 94/115/102 102/124/110 101/123/109 93/114/101
f 95/116/103 103/125/111 102/124/110 94/115/102
f 96/117/104 104/126/112 103/125/111 95/116/103
f 96/117/104 89/110/98 97/119/106 104/126/112
f 98/118/105 106/127/113 105/128/114 97/119/106
f 99/120/107 107/129/115 106/127/113 98/118/105
f 100/121/108 108/130/116 107/131/115 99/122/107
f 101/123/109 109/132/117 108/130/116 100/121/108
f 102/124/110 110/133/118 109/132/117 101/123/109
f 103/125/111 111/134/119 110/133/118 102/124/110
f 104/126/112 112/135/120 111/134/119 103/125/111
f 104/126/112 97/119/106 105/128/114 112/135/120
f 106/127/113 114/136/121 113/137/122 105/128/114
f 107/129/115 115/138/123 114/136/121 106/127/113
f 108/130/116 116/139/124 115/140/123 107/131/115
f 109/132/117 117/141/125 116/139/124 108/130/116
f 110/133/118 118/142/126 117/141/125 109/132/117
f 111/134/119 119/143/127 118/142/126 110/133/118
f 112/135/120 120/144/128 119/143/127 111/134/119
f 112/135/120 105/128/114 113/137/122 120/144/128
f 114/136/121 122/81/73 121/82/74 113/137/122
f 115/138/123 123/83/75 122/81/73 114/136/121
f 116/139/124 124/84/76 123/85/75 115/140/123
f 117/141/125 125/86/77 124/84/76 116/139/124
f 118/142/126 126/87/78 125/86/77 117/141/125
f 119/143/127 127/88/79 126/87/78 118/142/126
f 120/144/128 128/90/80 127/88/79 119/143/127
f 120/144/128 113/137/122 121/82/74 128/90/80
f 129/145/129 132/146/130 68/77/69 69/78/70
f 132/146/130 134/147/131 67/75/68 68/77/69
f 134/147/131 136/148/132 66/76/67 67/75/68
f 136/149/132 138/150/133 65/72/65 66/74/67
f 138/150/133 140/151/134 64/73/66 65/72/65
f 140/151/134 142/152/135 71/80/72 64/73/66
f 142/152/135 144/153/136 70/79/71 71/80/72
f 144/153/136 129/145/129 69/78/70 70/79/71
f 129/145/129 130/154/137 133/155/138 132/146/130
f 130/156/137 131/161/139 133/176/138
f 132/146/130 133/155/138 135/157/140 134/147/131
f 135/180/140 133/176/138 131/161/139
f 134/147/131 135/157/140 137/158/141 136/148/132
f 135/180/140 131/161/139 137/185/141
f 138/150/133 136/149/132 137/159/141 139/160/142
f 139/186/142 137/185/141 131/161/139
f 138/150/133 139/160/142 141/162/143 140/151/134
f 139/186/142 131/161/139 141/187/143
f 140/151/134 141/162/143 143/163/144 142/152/135
f 143/188/144 141/187/143 131/161/139
f 142/152/135 143/163/144 145/164/145 144/153/136
f 143/188/144 131/161/139 145/189/145
f 131/161/139 130/156/137 145/189/145
f 130/154/137 129/145/129 144/153/136 145/164/145
f 155/165/146 74/91/81 73/94/84 157/166/147
f 153/167/148 75/95/85 74/91/81 155/165/146
f 151/168/149 76/97/87 75/100/85 153/169/148
f 149/170/150 77/101/89 76/97/87 151/168/149
f 146/171/151 78/103/91 77/101/89 149/170/150
f 161/172/152 79/105/93 78/103/91 146/171/151
f 159/173/153 80/107/95 79/105/93 161/172/152
f 157/166/147 73/94/84 80/107/95 159/173/153
f 146/171/151 147/174/154 162/175/155 161/172/152
f 147/190/154 148/191/156 162/192/155
f 148/191/156 147/190/154 150/193/157
f 147/174/154 146/171/151 149/170/150 150/177/157
f 148/191/156 150/193/157 152/194/158
f 150/177/157 149/170/150 151/168/149 152/178/158
f 148/191/156 152/194/158 154/195/159
f 152/178/158 151/168/149 153/169/148 154/179/159
f 148/191/156 154/195/159 156/196/160
f 154/181/159 153/167/148 155/165/146 156/182/160
f 148/191/156 156/196/160 158/197/161
f 156/182/160 155/165/146 157/166/147 158/183/161
f 148/191/156 158/197/161 160/198/162
f 158/183/161 157/166/147 159/173/153 160/184/162
f 148/191/156 160/198/162 162/192/155
f 162/175/155 160/184/162 159/173/153 161/172/152
