# This file uses centimeters as units for non-parametric coordinates.

mtllib CappuccinoShortLUpperArm.mtl
g default
v 0.212607 0.391732 -0.017995
v 0.112444 0.359073 0.080310
v 0.070953 0.000035 0.121032
v 0.112443 -0.359003 0.080311
v 0.212608 -0.391664 -0.017996
v 0.312774 -0.276938 -0.116302
v 0.354262 0.000034 -0.157023
v 0.312774 0.277007 -0.116302
v 0.510897 0.000035 0.002571
v 0.446474 0.277006 0.019925
v 0.290931 0.391732 0.061808
v 0.135386 0.359073 0.103688
v 0.446483 -0.276937 0.019935
v 0.290947 -0.391664 0.061822
v 0.135401 -0.359003 0.103702
v 0.290934 0.000035 0.061811
v -0.754767 0.391732 0.071755
v -0.659319 0.359072 0.174648
v -0.619784 0.000034 0.217268
v -0.659319 -0.359004 0.174648
v -0.754766 -0.391662 0.071754
v -0.850214 -0.276938 -0.031140
v -0.889749 0.000034 -0.073759
v -0.850214 0.277007 -0.031140
v -0.644542 0.391731 -0.030495
v -0.573661 0.359072 0.090641
v -0.544303 0.000035 0.140816
v -0.573661 -0.359004 0.090641
v -0.644541 -0.391663 -0.030495
v -0.715420 -0.276938 -0.151629
v -0.744777 0.000035 -0.201804
v -0.715420 0.277007 -0.151629
v -0.514775 0.391733 -0.106423
v -0.471835 0.359073 0.027194
v -0.454049 0.000034 0.082541
v -0.471835 -0.359003 0.027194
v -0.514775 -0.391663 -0.106423
v -0.557715 -0.276937 -0.240041
v -0.575501 0.000035 -0.295385
v -0.557716 0.277007 -0.240039
v -0.371637 0.391733 -0.152422
v -0.358677 0.359073 -0.012675
v -0.353309 0.000034 0.045209
v -0.358677 -0.359003 -0.012675
v -0.371637 -0.391662 -0.152422
v -0.384600 -0.276937 -0.292170
v -0.389966 0.000034 -0.350055
v -0.384600 0.277008 -0.292170
v -0.221934 0.391732 -0.166308
v -0.239567 0.359072 -0.027071
v -0.246871 0.000035 0.030600
v -0.239567 -0.359003 -0.027071
v -0.221934 -0.391663 -0.166308
v -0.204300 -0.276938 -0.305543
v -0.196993 0.000035 -0.363214
v -0.204300 0.277007 -0.305543
v -0.072776 0.391732 -0.147416
v -0.120168 0.359072 -0.015311
v -0.139798 0.000035 0.039406
v -0.120168 -0.359004 -0.015312
v -0.072776 -0.391663 -0.147416
v -0.025384 -0.276937 -0.279519
v -0.005756 0.000035 -0.334239
v -0.025384 0.277007 -0.279520
v 0.068739 0.391732 -0.096647
v -0.006156 0.359071 0.022045
v -0.037179 0.000035 0.071208
v -0.006157 -0.359003 0.022045
v 0.068739 -0.391664 -0.096648
v 0.143635 -0.276937 -0.215339
v 0.174658 0.000034 -0.264505
v 0.143637 0.277007 -0.215340
v -0.925291 -0.276937 0.071688
v -0.948539 -0.290258 0.095636
v -0.852040 0.000034 0.210860
v -0.812271 -0.391663 0.155010
v -0.836129 -0.403605 0.190001
v -0.697443 -0.359004 0.235715
v -0.719124 -0.367719 0.284139
v -0.648356 0.000034 0.266936
v -0.669958 0.000035 0.320446
v -0.697443 0.359072 0.235715
v -0.719124 0.367789 0.284139
v -0.812271 0.391732 0.155010
v -0.836128 0.403674 0.190000
v -0.925291 0.277007 0.071689
v -0.948539 0.290326 0.095636
v -0.972559 0.000035 0.037832
v -0.998768 0.000035 0.051616
vt 0.256130 0.462554
vt 0.256320 0.442387
vt 0.268042 0.442511
vt 0.267804 0.462805
vt 0.226347 0.462229
vt 0.226574 0.442317
vt 0.354027 0.463828
vt 0.354321 0.443472
vt 0.384042 0.444246
vt 0.383853 0.464156
vt 0.342366 0.463776
vt 0.342626 0.443322
vt 0.327777 0.463713
vt 0.328031 0.443175
vt 0.305097 0.463513
vt 0.305357 0.442945
vt 0.282414 0.463133
vt 0.282677 0.442686
vt 0.354284 0.440736
vt 0.342705 0.433933
vt 0.328234 0.427117
vt 0.305600 0.424087
vt 0.282879 0.426669
vt 0.268205 0.433178
vt 0.256423 0.439676
vt 0.545454 0.655190
vt 0.544766 0.631903
vt 0.563428 0.650294
vt 0.555009 0.619389
vt 0.568421 0.618504
vt 0.581402 0.645398
vt 0.556671 0.675610
vt 0.571846 0.681200
vt 0.583853 0.675161
vt 0.249619 0.583830
vt 0.252512 0.563498
vt 0.264350 0.565039
vt 0.261891 0.585628
vt 0.219602 0.575296
vt 0.223043 0.557599
vt 0.356264 0.585956
vt 0.354266 0.565491
vt 0.384150 0.560955
vt 0.386134 0.579399
vt 0.343918 0.587221
vt 0.342386 0.566551
vt 0.327997 0.588073
vt 0.327248 0.567318
vt 0.302862 0.587978
vt 0.303347 0.567395
vt 0.277751 0.586985
vt 0.279426 0.566420
vt 0.254236 0.543298
vt 0.265899 0.544511
vt 0.224723 0.539226
vt 0.353474 0.545119
vt 0.383381 0.542158
vt 0.341742 0.545896
vt 0.326957 0.546492
vt 0.303783 0.546572
vt 0.280625 0.545694
vt 0.255193 0.523130
vt 0.266806 0.524025
vt 0.225559 0.520425
vt 0.353306 0.524800
vt 0.383216 0.523010
vt 0.341629 0.525300
vt 0.326994 0.525691
vt 0.304178 0.525700
vt 0.281392 0.524953
vt 0.255700 0.502954
vt 0.267317 0.503578
vt 0.225975 0.501292
vt 0.353444 0.504491
vt 0.383341 0.503582
vt 0.341785 0.504757
vt 0.327202 0.504958
vt 0.304523 0.504879
vt 0.281869 0.504266
vt 0.255966 0.482760
vt 0.267606 0.483169
vt 0.226191 0.481885
vt 0.353715 0.484169
vt 0.383586 0.483947
vt 0.342059 0.484252
vt 0.327483 0.484300
vt 0.304824 0.484149
vt 0.282178 0.483657
vt 0.245534 0.599731
vt 0.259140 0.601781
vt 0.215559 0.589590
vt 0.359427 0.602163
vt 0.389530 0.593827
vt 0.345818 0.603568
vt 0.328665 0.604113
vt 0.302489 0.603885
vt 0.276314 0.603018
vt 0.329453 0.607875
vt 0.302406 0.607515
vt 0.246158 0.677858
vt 0.239142 0.653848
vt 0.255423 0.656936
vt 0.233457 0.684280
vt 0.346432 0.607183
vt 0.222638 0.679439
vt 0.360343 0.605757
vt 0.223159 0.650817
vt 0.390896 0.596942
vt 0.233154 0.623991
vt 0.214036 0.592631
vt 0.244428 0.603266
vt 0.244994 0.623447
vt 0.258348 0.605359
vt 0.254462 0.634074
vt 0.275349 0.606745
vn -0.325266 0.494675 0.805915
vn -0.383825 0.595107 0.706064
vn 0.245601 0.911696 -0.329380
vn 0.147329 0.937729 -0.314577
vn -0.369972 0.000001 0.929043
vn -0.432543 0.000002 0.901613
vn -0.325268 -0.494675 0.805914
vn -0.383832 -0.595104 0.706062
vn 0.147330 -0.937728 -0.314580
vn 0.245599 -0.911699 -0.329371
vn 0.394241 -0.423031 -0.815855
vn 0.560786 -0.408068 -0.720416
vn 0.439363 -0.000002 -0.898310
vn 0.619708 -0.000003 -0.784833
vn 0.394242 0.423032 -0.815854
vn 0.560785 0.408064 -0.720419
vn -0.370009 -0.855103 0.363171
vn 0.368236 -0.856617 -0.361399
vn 0.666166 -0.358831 -0.653806
vn 0.713695 -0.000007 -0.700456
vn 0.666168 0.358815 -0.653813
vn 0.368244 0.856606 -0.361417
vn -0.369992 0.855140 0.363098
vn 0.260052 0.000023 0.965595
vn 0.260027 0.000004 0.965601
vn 0.259997 0.000024 0.965609
vn 0.260000 0.000011 0.965609
vn 0.259976 0.000005 0.965615
vn 0.259954 0.000024 0.965621
vn 0.260029 0.000042 0.965601
vn 0.260003 0.000036 0.965608
vn 0.259978 0.000042 0.965615
vn 0.654683 0.514847 0.553464
vn 0.535792 0.507722 0.674645
vn -0.209474 0.934999 -0.286178
vn -0.261974 0.934594 -0.240633
vn 0.766918 -0.000001 0.641746
vn 0.625470 0.000001 0.780248
vn 0.654683 -0.514847 0.553464
vn 0.535794 -0.507724 0.674642
vn -0.261979 -0.934592 -0.240634
vn -0.209472 -0.934998 -0.286181
vn -0.660341 -0.422293 -0.620982
vn -0.526410 -0.422397 -0.737884
vn -0.725944 -0.000000 -0.687754
vn -0.577685 0.000000 -0.816260
vn -0.660341 0.422293 -0.620982
vn -0.526410 0.422398 -0.737884
vn 0.376845 0.507724 0.774729
vn -0.142471 0.934999 -0.324774
vn 0.441507 -0.000000 0.897258
vn 0.376849 -0.507722 0.774728
vn -0.142466 -0.934999 -0.324777
vn -0.353976 -0.422398 -0.834435
vn -0.387048 0.000001 -0.922060
vn -0.353977 0.422397 -0.834434
vn 0.199984 0.507719 0.837991
vn -0.068693 0.935000 -0.347931
vn 0.236547 -0.000001 0.971620
vn 0.199981 -0.507720 0.837990
vn -0.068696 -0.935000 -0.347930
vn -0.164720 -0.422398 -0.891318
vn -0.178013 0.000000 -0.984028
vn -0.164720 0.422399 -0.891317
vn 0.013609 0.507719 0.861415
vn 0.008348 0.934999 -0.354551
vn 0.020341 0.000000 0.999793
vn 0.013606 -0.507718 0.861416
vn 0.008343 -0.935000 -0.354551
vn 0.032372 -0.422399 -0.905832
vn 0.039488 0.000000 -0.999220
vn 0.032373 0.422398 -0.905832
vn -0.173405 0.507720 0.843890
vn 0.084989 0.935000 -0.344314
vn -0.196822 0.000001 0.980439
vn -0.173408 -0.507722 0.843889
vn 0.084990 -0.934999 -0.344316
vn 0.227926 -0.422399 -0.877285
vn 0.255111 -0.000001 -0.966912
vn 0.227924 0.422400 -0.877285
vn 0.799468 0.465900 0.379194
vn -0.191912 0.947679 -0.255097
vn 0.891564 -0.000000 0.452894
vn 0.799465 -0.465904 0.379196
vn -0.191914 -0.947678 -0.255099
vn -0.681572 -0.431590 -0.590922
vn -0.763873 0.000001 -0.645366
vn -0.681573 0.431592 -0.590921
vn -0.451932 -0.525964 -0.720499
vn -0.570051 -0.000002 -0.821609
vn -0.696225 -0.052712 0.715886
vn -0.624321 -0.000000 0.781168
vn -0.735416 0.000000 0.677616
vn -0.640387 -0.064794 0.765314
vn 0.037889 -0.946114 -0.321609
vn -0.581741 -0.048472 0.811928
vn 0.865221 -0.401084 0.300873
vn -0.515660 -0.000000 0.856793
vn 0.925317 0.000001 0.379195
vn -0.581744 0.048473 0.811926
vn 0.865223 0.401086 0.300864
vn -0.640389 0.064795 0.765313
vn 0.037893 0.946114 -0.321608
vn -0.696225 0.052712 0.715886
vn -0.451943 0.525961 -0.720495
s 1
g FoodShortLUpperArm
usemtl blinn1SG
f 66/1/1 2/2/2 1/3/3 65/4/4
f 67/5/5 3/6/6 2/2/2 66/1/1
f 68/7/7 4/8/8 3/9/6 67/10/5
f 69/11/9 5/12/10 4/8/8 68/7/7
f 70/13/11 6/14/12 5/12/10 69/11/9
f 71/15/13 7/16/14 6/14/12 70/13/11
f 72/17/15 8/18/16 7/16/14 71/15/13
f 72/17/15 65/4/4 1/3/3 8/18/16
f 15/19/17 3/9/6 4/8/8
f 14/20/18 15/19/17 4/8/8 5/12/10
f 13/21/19 14/20/18 5/12/10 6/14/12
f 9/22/20 13/21/19 6/14/12 7/16/14
f 10/23/21 9/22/20 7/16/14 8/18/16
f 11/24/22 10/23/21 8/18/16 1/3/3
f 12/25/23 11/24/22 1/3/3 2/2/2
f 3/6/6 12/25/23 2/2/2
s 2
f 9/26/24 10/27/25 16/28/26
f 10/27/25 11/29/27 16/28/26
f 11/29/27 12/30/28 16/28/26
f 12/30/28 3/31/29 16/28/26
f 13/32/30 9/26/24 16/28/26
f 14/33/31 13/32/30 16/28/26
f 15/34/32 14/33/31 16/28/26
f 3/31/29 15/34/32 16/28/26
s 1
f 18/35/33 26/36/34 25/37/35 17/38/36
f 19/39/37 27/40/38 26/36/34 18/35/33
f 20/41/39 28/42/40 27/43/38 19/44/37
f 21/45/41 29/46/42 28/42/40 20/41/39
f 22/47/43 30/48/44 29/46/42 21/45/41
f 23/49/45 31/50/46 30/48/44 22/47/43
f 24/51/47 32/52/48 31/50/46 23/49/45
f 24/51/47 17/38/36 25/37/35 32/52/48
f 26/36/34 34/53/49 33/54/50 25/37/35
f 27/40/38 35/55/51 34/53/49 26/36/34
f 28/42/40 36/56/52 35/57/51 27/43/38
f 29/46/42 37/58/53 36/56/52 28/42/40
f 30/48/44 38/59/54 37/58/53 29/46/42
f 31/50/46 39/60/55 38/59/54 30/48/44
f 32/52/48 40/61/56 39/60/55 31/50/46
f 32/52/48 25/37/35 33/54/50 40/61/56
f 34/53/49 42/62/57 41/63/58 33/54/50
f 35/55/51 43/64/59 42/62/57 34/53/49
f 36/56/52 44/65/60 43/66/59 35/57/51
f 37/58/53 45/67/61 44/65/60 36/56/52
f 38/59/54 46/68/62 45/67/61 37/58/53
f 39/60/55 47/69/63 46/68/62 38/59/54
f 40/61/56 48/70/64 47/69/63 39/60/55
f 40/61/56 33/54/50 41/63/58 48/70/64
f 42/62/57 50/71/65 49/72/66 41/63/58
f 43/64/59 51/73/67 50/71/65 42/62/57
f 44/65/60 52/74/68 51/75/67 43/66/59
f 45/67/61 53/76/69 52/74/68 44/65/60
f 46/68/62 54/77/70 53/76/69 45/67/61
f 47/69/63 55/78/71 54/77/70 46/68/62
f 48/70/64 56/79/72 55/78/71 47/69/63
f 48/70/64 41/63/58 49/72/66 56/79/72
f 50/71/65 58/80/73 57/81/74 49/72/66
f 51/73/67 59/82/75 58/80/73 50/71/65
f 52/74/68 60/83/76 59/84/75 51/75/67
f 53/76/69 61/85/77 60/83/76 52/74/68
f 54/77/70 62/86/78 61/85/77 53/76/69
f 55/78/71 63/87/79 62/86/78 54/77/70
f 56/79/72 64/88/80 63/87/79 55/78/71
f 56/79/72 49/72/66 57/81/74 64/88/80
f 58/80/73 66/1/1 65/4/4 57/81/74
f 59/82/75 67/5/5 66/1/1 58/80/73
f 60/83/76 68/7/7 67/10/5 59/84/75
f 61/85/77 69/11/9 68/7/7 60/83/76
f 62/86/78 70/13/11 69/11/9 61/85/77
f 63/87/79 71/15/13 70/13/11 62/86/78
f 64/88/80 72/17/15 71/15/13 63/87/79
f 64/88/80 57/81/74 65/4/4 72/17/15
f 82/89/81 18/35/33 17/38/36 84/90/82
f 80/91/83 19/39/37 18/35/33 82/89/81
f 78/92/84 20/41/39 19/44/37 80/93/83
f 76/94/85 21/45/41 20/41/39 78/92/84
f 73/95/86 22/47/43 21/45/41 76/94/85
f 88/96/87 23/49/45 22/47/43 73/95/86
f 86/97/88 24/51/47 23/49/45 88/96/87
f 84/90/82 17/38/36 24/51/47 86/97/88
f 73/95/86 74/98/89 89/99/90 88/96/87
s 4
f 74/100/91 75/101/92 89/102/93
f 75/101/92 74/100/91 77/103/94
s 1
f 74/98/89 73/95/86 76/94/85 77/104/95
s 4
f 75/101/92 77/103/94 79/105/96
s 1
f 77/104/95 76/94/85 78/92/84 79/106/97
s 4
f 75/101/92 79/105/96 81/107/98
s 1
f 79/106/97 78/92/84 80/93/83 81/108/99
s 4
f 75/101/92 81/107/98 83/109/100
s 1
f 81/110/99 80/91/83 82/89/81 83/111/101
s 4
f 75/101/92 83/109/100 85/112/102
s 1
f 83/111/101 82/89/81 84/90/82 85/113/103
s 4
f 75/101/92 85/112/102 87/114/104
s 1
f 85/113/103 84/90/82 86/97/88 87/115/105
s 4
f 75/101/92 87/114/104 89/102/93
s 1
f 89/99/90 87/115/105 86/97/88 88/96/87
