# This file uses centimeters as units for non-parametric coordinates.

mtllib FruityLureCOL.mtl
g default
v 0.382302 -1.521673 -0.177751
v -0.176068 -1.521673 -0.583430
v -0.734439 -1.521673 -0.177751
v -0.521159 -1.521673 0.478652
v 0.169023 -1.521673 0.478652
v 0.860178 -1.121015 -0.333022
v -0.176068 -1.121015 -1.085900
v -1.212316 -1.121015 -0.333022
v -0.816504 -1.121015 0.885159
v 0.464367 -1.121015 0.885159
v 0.888556 -0.415322 -0.363084
v -0.240212 -0.415322 -1.183182
v -1.368981 -0.415322 -0.363084
v -0.937829 -0.415322 0.963862
v 0.457404 -0.415322 0.963862
v -0.176068 -1.580349 0.003675
v -0.338514 0.332187 -0.821144
v 0.445935 0.266878 -0.251208
v -1.122963 0.386864 -0.251208
v -0.823330 0.370286 0.670967
v 0.146302 0.289013 0.670967
vt 0.084457 0.080529
vt 0.194908 0.021386
vt 0.191084 0.112674
vt 0.292673 0.065561
vt 0.798297 0.029862
vt 0.702058 0.072526
vt 0.801665 0.120713
vt 0.904719 0.090035
vt 0.198679 0.199728
vt 0.017147 0.195957
vt 0.360158 0.140703
vt 0.634064 0.146546
vt 0.791918 0.207755
vt 0.972694 0.202323
vt 0.223326 0.281303
vt 0.028094 0.334406
vt 0.395182 0.232366
vt 0.593642 0.237313
vt 0.768832 0.291266
vt 0.965088 0.335760
vt 0.267989 0.374791
vt 0.129502 0.462864
vt 0.409134 0.349734
vt 0.567632 0.357309
vt 0.724392 0.395756
vt 0.887499 0.460388
vn 0.358975 -0.926031 -0.116638
vn 0.000000 -1.000000 0.000000
vn 0.000000 -0.926031 -0.377448
vn 0.000000 -0.926031 -0.377448
vn 0.000000 -1.000000 0.000000
vn -0.358975 -0.926031 -0.116638
vn -0.358975 -0.926031 -0.116638
vn 0.000000 -1.000000 0.000000
vn -0.221858 -0.926031 0.305362
vn -0.221858 -0.926031 0.305362
vn 0.000000 -1.000000 0.000000
vn 0.221858 -0.926031 0.305362
vn 0.221858 -0.926031 0.305362
vn 0.000000 -1.000000 0.000000
vn 0.358975 -0.926031 -0.116638
vn 0.358975 -0.926031 -0.116638
vn 0.000000 -0.926031 -0.377448
vn 0.007087 -0.433391 -0.901178
vn 0.871006 -0.403244 -0.280612
vn 0.000000 -0.926031 -0.377448
vn -0.358975 -0.926031 -0.116638
vn -0.842256 -0.463138 -0.275877
vn 0.007087 -0.433391 -0.901178
vn -0.358975 -0.926031 -0.116638
vn -0.221858 -0.926031 0.305362
vn -0.519829 -0.451837 0.724997
vn -0.842256 -0.463138 -0.275877
vn -0.221858 -0.926031 0.305362
vn 0.221858 -0.926031 0.305362
vn 0.539578 -0.414791 0.732669
vn -0.519829 -0.451837 0.724997
vn 0.221858 -0.926031 0.305362
vn 0.358975 -0.926031 -0.116638
vn 0.871006 -0.403244 -0.280612
vn 0.539578 -0.414791 0.732669
vn 0.871006 -0.403244 -0.280612
vn 0.007087 -0.433391 -0.901178
vn 0.007654 0.188668 -0.982011
vn 0.900662 0.323268 -0.290355
vn 0.007087 -0.433391 -0.901178
vn -0.842256 -0.463138 -0.275877
vn -0.949254 0.043191 -0.311530
vn 0.007654 0.188668 -0.982011
vn -0.842256 -0.463138 -0.275877
vn -0.519829 -0.451837 0.724997
vn -0.579002 0.099938 0.809178
vn -0.949254 0.043191 -0.311530
vn -0.519829 -0.451837 0.724997
vn 0.539578 -0.414791 0.732669
vn 0.570046 0.273377 0.774798
vn -0.579002 0.099938 0.809178
vn 0.539578 -0.414791 0.732669
vn 0.871006 -0.403244 -0.280612
vn 0.900662 0.323268 -0.290355
vn 0.570046 0.273377 0.774798
vn 0.900662 0.323268 -0.290355
vn 0.007654 0.188668 -0.982011
vn -0.038439 0.492187 -0.869640
vn 0.858555 0.412237 -0.304867
vn 0.007654 0.188668 -0.982011
vn -0.949254 0.043191 -0.311530
vn -0.808425 0.530144 -0.255725
vn -0.038439 0.492187 -0.869640
vn -0.949254 0.043191 -0.311530
vn -0.579002 0.099938 0.809178
vn -0.521507 0.515389 0.680003
vn -0.808425 0.530144 -0.255725
vn -0.579002 0.099938 0.809178
vn 0.570046 0.273377 0.774798
vn 0.484119 0.459914 0.744384
vn -0.521507 0.515389 0.680003
vn 0.570046 0.273377 0.774798
vn 0.900662 0.323268 -0.290355
vn 0.858555 0.412237 -0.304867
vn 0.484119 0.459914 0.744384
s off
g polySurface1 FruityLure:pSphere2
usemtl lambert2SG
f 1/1/1 16/2/2 2/3/3
f 2/3/4 16/2/5 3/4/6
f 3/4/7 16/5/8 4/6/9
f 4/6/10 16/5/11 5/7/12
f 5/7/13 16/5/14 1/8/15
f 1/1/16 2/3/17 7/9/18 6/10/19
f 2/3/20 3/4/21 8/11/22 7/9/23
f 3/4/24 4/6/25 9/12/26 8/11/27
f 4/6/28 5/7/29 10/13/30 9/12/31
f 5/7/32 1/8/33 6/14/34 10/13/35
f 6/10/36 7/9/37 12/15/38 11/16/39
f 7/9/40 8/11/41 13/17/42 12/15/43
f 8/11/44 9/12/45 14/18/46 13/17/47
f 9/12/48 10/13/49 15/19/50 14/18/51
f 10/13/52 6/14/53 11/20/54 15/19/55
f 11/16/56 12/15/57 17/21/58 18/22/59
f 12/15/60 13/17/61 19/23/62 17/21/63
f 13/17/64 14/18/65 20/24/66 19/23/67
f 14/18/68 15/19/69 21/25/70 20/24/71
f 15/19/72 11/20/73 18/26/74 21/25/75
g default
v 0.445935 0.266878 -0.251208
v -0.338514 0.332187 -0.821144
v -1.122963 0.386864 -0.251208
v -0.823330 0.370286 0.670967
v 0.146302 0.289013 0.670967
v 0.610274 0.324664 -0.184044
v 0.125977 0.639682 -0.603795
v -0.358321 0.954700 -0.184043
v -0.173336 0.834375 0.495127
v 0.425289 0.444991 0.495127
v 1.070014 0.831556 0.003675
v 0.710493 0.596967 -0.088102
v 0.682575 0.694794 -0.088102
v 0.668617 0.743707 0.000000
v 0.682575 0.694794 0.088103
v 0.710493 0.596967 0.088103
v 0.724451 0.548054 0.000000
v 1.291450 0.725992 -0.176007
v 1.280230 0.956062 -0.176008
v 1.196513 0.999913 0.000000
v 1.280230 0.956062 0.176008
v 1.291450 0.725992 0.176008
v 1.201913 0.602432 0.000000
v 1.326733 0.825724 0.000000
vt 0.129502 0.462864
vt 0.267989 0.374791
vt 0.409134 0.349734
vt 0.567632 0.357309
vt 0.724392 0.395756
vt 0.887499 0.460388
vt 0.127936 0.493466
vt 0.234380 0.451584
vt 0.345438 0.478901
vt 0.638231 0.460755
vt 0.756112 0.443074
vt 0.866818 0.480428
vt 0.163373 0.568260
vt 0.805319 0.533220
vt 0.477117 0.497432
vt 0.496085 0.499229
vt 0.515065 0.497466
vt 0.533765 0.492450
vt 0.551871 0.485750
vt 0.458578 0.492489
vt 0.496485 0.649716
vt 0.463429 0.625287
vt 0.496186 0.608538
vt 0.529365 0.624974
vt 0.529402 0.668375
vt 0.463886 0.668831
vt 0.567946 0.598423
vt 0.531514 0.619888
vt 0.460928 0.620031
vt 0.424666 0.598682
vt 0.589638 0.561599
vt 0.402689 0.561760
vt 0.440281 0.485738
vt 0.496864 0.696724
vn 0.858555 0.412237 -0.304867
vn -0.038439 0.492187 -0.869640
vn 0.243709 0.497789 -0.832353
vn 0.516265 -0.785397 -0.341501
vn -0.038439 0.492187 -0.869640
vn -0.808425 0.530144 -0.255725
vn -0.268661 0.937856 -0.219653
vn 0.243709 0.497789 -0.832353
vn -0.808425 0.530144 -0.255725
vn -0.521507 0.515389 0.680003
vn -0.078708 0.793289 0.603736
vn -0.268661 0.937856 -0.219653
vn -0.521507 0.515389 0.680003
vn 0.484119 0.459914 0.744384
vn 0.566238 -0.049405 0.822760
vn -0.078708 0.793289 0.603736
vn 0.484119 0.459914 0.744384
vn 0.858555 0.412237 -0.304867
vn 0.516265 -0.785397 -0.341501
vn 0.566238 -0.049405 0.822760
vn 0.516265 -0.785397 -0.341501
vn 0.243709 0.497789 -0.832353
vn 0.969999 0.243108 0.000000
vn 0.243709 0.497789 -0.832353
vn -0.268661 0.937856 -0.219653
vn 0.969999 0.243108 0.000000
vn -0.268661 0.937856 -0.219653
vn -0.078708 0.793289 0.603736
vn 0.969999 0.243108 0.000000
vn -0.078708 0.793289 0.603736
vn 0.566238 -0.049405 0.822760
vn 0.969999 0.243108 0.000000
vn 0.566238 -0.049405 0.822760
vn 0.516265 -0.785397 -0.341501
vn 0.969999 0.243108 0.000000
vn 0.051578 -0.523262 -0.850610
vn -0.218228 0.422318 -0.879787
vn -0.017860 0.521458 -0.853090
vn 0.315560 -0.488882 -0.813275
vn -0.218228 0.422318 -0.879787
vn -0.363343 0.930853 -0.038671
vn -0.230565 0.972589 -0.030188
vn -0.017860 0.521458 -0.853090
vn -0.363343 0.930853 -0.038671
vn -0.236939 0.487970 0.840087
vn -0.030357 0.589958 0.806863
vn -0.230565 0.972589 -0.030188
vn -0.236939 0.487970 0.840087
vn 0.046576 -0.505823 0.861379
vn 0.297341 -0.464770 0.834013
vn -0.030357 0.589958 0.806863
vn 0.046576 -0.505823 0.861379
vn 0.182680 -0.982540 0.035260
vn 0.329943 -0.943447 0.032327
vn 0.297341 -0.464770 0.834013
vn 0.182680 -0.982540 0.035260
vn 0.051578 -0.523262 -0.850610
vn 0.315560 -0.488882 -0.813275
vn 0.329943 -0.943447 0.032327
vn -0.017860 0.521458 -0.853090
vn 0.999979 0.005418 0.003417
vn 0.315560 -0.488882 -0.813275
vn -0.230565 0.972589 -0.030188
vn 0.999979 0.005418 0.003417
vn -0.017860 0.521458 -0.853090
vn 0.999979 0.005418 0.003417
vn -0.230565 0.972589 -0.030188
vn -0.030357 0.589958 0.806863
vn 0.999979 0.005418 0.003417
vn -0.030357 0.589958 0.806863
vn 0.297341 -0.464770 0.834013
vn 0.999979 0.005418 0.003417
vn 0.297341 -0.464770 0.834013
vn 0.329943 -0.943447 0.032327
vn 0.315560 -0.488882 -0.813275
vn 0.999979 0.005418 0.003417
vn 0.329943 -0.943447 0.032327
s off
g FruityLure:pSphere2 polySurface2
usemtl lambert2SG
f 22/27/76 23/28/77 28/34/78 27/33/79
f 23/28/80 24/29/81 29/35/82 28/34/83
f 24/29/84 25/30/85 30/36/86 29/35/87
f 25/30/88 26/31/89 31/37/90 30/36/91
f 26/31/92 22/32/93 27/38/94 31/37/95
f 27/33/96 28/34/97 32/39/98
f 28/34/99 29/35/100 32/39/101
f 29/35/102 30/36/103 32/39/104
f 30/36/105 31/37/106 32/40/107
f 31/37/108 27/38/109 32/40/110
f 33/46/111 34/41/112 40/55/113 39/56/114
f 34/41/115 35/42/116 41/49/117 40/55/118
f 35/42/119 36/43/120 42/54/121 41/49/122
f 36/43/123 37/44/124 43/53/125 42/54/126
f 37/44/127 38/45/128 44/57/129 43/53/130
f 38/59/131 33/46/132 39/56/133 44/58/134
f 40/48/135 45/47/136 39/52/137
f 41/49/138 45/47/139 40/48/140
f 45/47/141 41/49/142 42/50/143
f 45/47/144 42/50/145 43/51/146
f 45/47/147 43/51/148 44/60/149
f 39/52/150 45/47/151 44/60/152
