# This file uses centimeters as units for non-parametric coordinates.

mtllib ChamberBedCOL.mtl
g default
v -32.474026 0.000000 10.306310
v 32.685627 0.000000 10.306310
v -32.474026 45.779957 10.306310
v 32.685627 45.779957 10.306310
v 34.521896 23.005831 10.306310
v -34.310299 23.005831 10.306310
v 25.712585 20.825699 12.632366
v -25.712582 20.825699 12.632366
v 25.712585 7.216255 12.632366
v -25.712582 7.216255 12.632366
v 25.712585 38.905983 12.632366
v -25.712582 38.905983 12.632366
v 25.712585 25.700329 12.632366
v -25.712582 25.700329 12.632366
v 29.214617 32.045971 12.632366
v -29.214615 32.045971 12.632366
v -29.214615 13.733990 12.632366
v 29.214617 13.733990 12.632366
v -8.570857 40.764050 12.632366
v 0.000003 45.779957 -6.365904
v 8.570865 40.764050 12.632366
v -8.570857 22.683762 12.632366
v 8.570865 22.683762 12.632366
v 0.000004 25.700329 12.632366
v 34.099369 23.005831 -5.928701
v -33.887775 23.005831 -5.928701
v 32.403374 45.779957 -5.928701
v -32.191776 45.779957 -5.928701
v 25.912823 21.243759 -5.928701
v 8.594490 23.120964 -5.928701
v 29.661263 13.733990 -5.928701
v 25.893681 6.779051 -5.928701
v -25.893677 6.779051 -5.928701
v -29.661259 13.733990 -5.928701
v 25.912823 39.324043 -5.928701
v 8.594490 41.201252 -5.928701
v 29.662294 32.045971 -5.928701
v 25.893681 25.263126 -5.928701
v 8.570865 25.263126 -5.928701
v -29.662291 32.045971 -5.928701
v -25.912819 21.243759 -5.928701
v -25.912819 39.324043 -5.928701
v -25.893677 25.263126 -5.928701
v -32.191776 0.000000 -5.928701
v 32.403374 0.000000 -5.928701
v -8.594482 41.201252 -5.928701
v -8.594482 23.120964 -5.928701
v -8.570857 25.263126 -5.928701
vt 0.171362 0.248937
vt 0.178252 0.015513
vt 0.832339 0.246801
vt 0.824829 0.017290
vt 0.174956 0.480465
vt 0.830644 0.474751
vt 0.250631 0.230610
vt 0.420153 0.248798
vt 0.587459 0.248049
vt 0.242269 0.079449
vt 0.210721 0.154346
vt 0.763593 0.080885
vt 0.795875 0.153483
vt 0.241356 0.414781
vt 0.417379 0.436054
vt 0.591593 0.434627
vt 0.250659 0.269150
vt 0.209527 0.342683
vt 0.420331 0.268364
vt 0.587454 0.267615
vt 0.756888 0.266822
vt 0.797978 0.338865
vt 0.756637 0.228511
vt 0.766590 0.410414
vt 0.016945 0.011735
vt 0.011170 0.248486
vt 0.982855 0.012842
vt 0.989671 0.244794
vt 0.505063 0.485256
vt 0.530716 0.676702
vt 0.706330 0.676134
vt 0.793924 0.677415
vt 0.023884 0.875397
vt 0.540935 0.876820
vt 0.096102 0.678891
vt 0.529926 0.677115
vt 0.705239 0.677085
vt 0.790460 0.678475
vt 0.025922 0.878001
vt 0.284598 0.876735
vt 0.097249 0.678127
vt 0.183042 0.677109
vt 0.880331 0.681709
vt 0.010202 0.683434
vt 0.182064 0.676619
vt 0.874319 0.682903
vt 0.013498 0.682605
vt 0.014047 0.482274
vt 0.989066 0.474978
vt 0.356086 0.676800
vt 0.356928 0.676806
vt 0.543207 0.875504
vt 0.024990 0.701643
vt 0.197672 0.700897
vt 0.369899 0.700116
vt 0.542364 0.699256
vt 0.013447 0.497250
vt 0.096695 0.501534
vt 0.181014 0.501916
vt 0.355507 0.499273
vt 0.530388 0.498969
vt 0.706292 0.501249
vt 0.791681 0.501415
vt 0.874999 0.497842
vt 0.024501 0.699019
vt 0.541283 0.700447
vt 0.009753 0.498527
vt 0.095123 0.502559
vt 0.181480 0.502711
vt 0.355793 0.499469
vt 0.530487 0.498754
vt 0.706869 0.499804
vt 0.795123 0.499740
vt 0.880582 0.496086
vn 0.996830 -0.079565 0.000000
vn 0.996830 -0.079565 0.000000
vn 1.000000 -0.000000 0.000000
vn 1.000000 -0.000000 0.000000
vn -1.000000 0.000000 0.000000
vn -0.996830 -0.079565 0.000000
vn -0.996830 -0.079565 0.000000
vn -1.000000 0.000000 0.000000
vn 0.000000 0.000000 -1.000000
vn 0.000000 0.000000 -1.000000
vn 0.000000 0.000000 -1.000000
vn 0.000000 0.000000 -1.000000
vn 0.000000 0.000000 -1.000000
vn 0.000000 0.000000 -1.000000
vn 0.000000 0.000000 -1.000000
vn 0.000000 0.000000 -1.000000
vn 0.000000 0.000000 -1.000000
vn 0.000000 0.000000 -1.000000
vn 0.000000 0.000000 -1.000000
vn -0.213150 -0.973606 -0.081598
vn -0.051237 -0.996626 -0.064122
vn -0.051237 -0.996626 0.064122
vn -0.213150 -0.973606 0.081598
vn -0.039861 0.999187 -0.006008
vn -0.987363 0.000000 -0.158474
vn -0.987363 0.000000 0.158474
vn -0.039861 0.999187 0.006008
vn 0.039861 0.999187 -0.006008
vn -0.039861 0.999187 -0.006008
vn -0.039861 0.999187 0.006008
vn 0.039861 0.999187 0.006008
vn -0.213151 -0.973606 -0.081599
vn -0.051237 -0.996626 -0.064122
vn -0.051237 -0.996626 0.064122
vn -0.213151 -0.973606 0.081599
vn -0.076425 0.997009 -0.011519
vn -0.987363 0.000000 -0.158474
vn -0.987363 0.000000 0.158474
vn -0.089799 0.995868 0.013535
vn 0.000000 1.000000 0.000000
vn -0.076425 0.997009 -0.011519
vn -0.089799 0.995868 0.013535
vn 0.000000 1.000000 0.000000
vn -0.000000 0.000000 -1.000000
vn -0.000000 0.000000 -1.000000
vn -0.000000 0.000000 -1.000000
vn -0.000000 0.000000 -1.000000
vn 0.000000 0.000000 -1.000000
vn -0.000000 0.000000 -1.000000
vn 0.000000 0.000000 -1.000000
vn 0.000000 0.000000 -1.000000
vn 0.000000 0.000000 -1.000000
vn 0.000000 0.000000 -1.000000
vn 0.000000 0.000000 -1.000000
vn -0.987363 0.000000 -0.158474
vn -0.213150 -0.973606 -0.081598
vn -0.213150 -0.973606 0.081598
vn -0.987363 0.000000 0.158474
vn 0.987363 0.000000 -0.158474
vn 0.039861 0.999187 -0.006008
vn 0.039861 0.999187 0.006008
vn 0.987363 0.000000 0.158474
vn -0.987363 0.000000 -0.158474
vn -0.213151 -0.973606 -0.081599
vn -0.213151 -0.973606 0.081599
vn -0.987363 0.000000 0.158474
vn 0.987363 0.000000 -0.158474
vn 0.076425 0.997009 -0.011519
vn 0.089799 0.995868 0.013535
vn 0.987363 0.000000 0.158474
vn 0.000000 0.000000 -1.000000
vn -0.000000 0.000000 -1.000000
vn -0.000000 0.000000 -1.000000
vn 0.000000 0.000000 -1.000000
vn 0.000000 0.000000 -1.000000
vn 0.000000 0.000000 -1.000000
vn 0.000000 0.000000 -1.000000
vn 0.000000 0.000000 -1.000000
vn -0.000000 0.000000 -1.000000
vn 0.000000 0.000000 -1.000000
vn 0.000000 0.000000 -1.000000
vn 0.000000 0.000000 -1.000000
vn 0.000000 0.000000 -1.000000
vn 0.000000 0.000000 -1.000000
vn 1.000000 -0.000000 0.000000
vn 1.000000 -0.000000 0.000000
vn 0.996765 0.080369 0.000000
vn 0.996765 0.080369 0.000000
vn -1.000000 0.000000 0.000000
vn -1.000000 0.000000 0.000000
vn -0.996765 0.080369 0.000000
vn -0.996765 0.080369 0.000000
vn 0.213151 -0.973606 -0.081599
vn 0.987363 0.000000 -0.158474
vn 0.987363 0.000000 0.158474
vn 0.213151 -0.973606 0.081599
vn 0.213150 -0.973606 -0.081598
vn 0.987363 0.000000 -0.158474
vn 0.987363 0.000000 0.158474
vn 0.213150 -0.973606 0.081598
vn 0.051237 -0.996626 -0.064122
vn 0.213151 -0.973606 -0.081599
vn 0.213151 -0.973606 0.081599
vn 0.051237 -0.996626 0.064122
vn -0.051237 -0.996626 -0.064122
vn 0.051237 -0.996626 -0.064122
vn 0.051237 -0.996626 0.064122
vn -0.051237 -0.996626 0.064122
vn 0.000000 0.000000 -1.000000
vn 0.000000 0.000000 -1.000000
vn 0.000000 0.000000 -1.000000
vn 0.051237 -0.996626 -0.064122
vn 0.213150 -0.973606 -0.081598
vn 0.213150 -0.973606 0.081598
vn 0.051237 -0.996626 0.064122
vn -0.051237 -0.996626 -0.064122
vn 0.051237 -0.996626 -0.064122
vn 0.051237 -0.996626 0.064122
vn -0.051237 -0.996626 0.064122
vn 0.076425 0.997009 -0.011519
vn 0.000000 1.000000 0.000000
vn 0.000000 1.000000 0.000000
vn 0.089799 0.995868 0.013535
vn 0.000000 0.000000 -1.000000
vn 0.000000 0.000000 -1.000000
vn 0.000000 0.000000 -1.000000
vn 0.000000 0.000000 -1.000000
vn 0.000000 0.000000 -1.000000
vn 0.000000 0.000000 -1.000000
vn 0.000000 0.000000 -1.000000
vn 0.000000 0.000000 -1.000000
vn 0.000000 0.000000 -1.000000
vn 0.000000 0.000000 -1.000000
vn 0.000000 0.000000 -1.000000
vn 0.000000 0.000000 -1.000000
vn 0.000000 0.000000 -1.000000
vn -0.000000 0.000000 -1.000000
vn -0.000000 0.000000 -1.000000
vn 0.000000 1.000000 0.000000
vn 0.000000 1.000000 0.000000
vn 0.000000 1.000000 0.000000
vn 0.000000 0.000000 -1.000000
vn 0.000000 0.000000 -1.000000
vn -0.000000 0.000000 -1.000000
vn 0.000000 0.000000 -1.000000
vn 0.000000 0.000000 -1.000000
vn 0.000000 0.000000 -1.000000
vn 0.000000 0.000000 -1.000000
s off
g pCube88
usemtl lambert2SG
f 2/25/1 45/2/2 25/1/3 5/26/4
f 26/3/5 44/4/6 1/27/7 6/28/8
f 44/4/9 26/3/10 34/13/11 33/12/12
f 26/3/13 40/22/14 43/21/15
f 20/29/16 27/5/17 35/14/18 36/15/19
f 7/31/20 23/30/21 30/71/22 29/72/23
f 9/43/24 18/32/25 31/73/26 32/74/27
f 10/34/28 9/33/29 32/65/30 33/66/31
f 11/37/32 21/36/33 36/61/34 35/62/35
f 13/46/36 15/38/37 37/63/38 38/64/39
f 24/40/40 13/39/41 38/53/42 39/54/43
f 31/11/44 25/1/45 45/2/46 32/10/47
f 37/18/48 25/1/49 38/17/50
f 30/8/51 39/19/52 38/17/53 29/7/54
f 18/32/55 7/31/56 29/72/57 31/73/58
f 17/35/59 10/44/60 33/67/61 34/68/62
f 15/38/63 11/37/64 35/62/65 37/63/66
f 16/41/67 14/47/68 43/57/69 40/58/70
f 29/7/71 25/1/72 31/11/73
f 26/3/74 41/23/75 34/13/76
f 35/14/77 27/5/78 25/1/79 37/18/80
f 28/6/81 42/24/82 40/22/83 26/3/84
f 5/26/85 25/1/86 27/5/87 4/48/88
f 26/3/89 6/28/90 3/49/91 28/6/92
f 12/45/93 16/41/94 40/58/95 42/59/96
f 8/42/97 17/35/98 34/68/99 41/69/100
f 19/50/101 12/45/102 42/59/103 46/60/104
f 21/36/105 19/50/106 46/60/107 36/61/108
f 20/29/109 36/15/110 46/16/111
f 22/51/112 8/42/113 41/69/114 47/70/115
f 23/30/116 22/51/117 47/70/118 30/71/119
f 14/52/120 24/40/121 48/55/122 43/56/123
f 47/9/124 48/20/125 39/19/126 30/8/127
f 26/3/128 43/21/129 41/23/130
f 28/6/131 20/29/132 46/16/133 42/24/134
f 44/4/135 33/12/136 32/10/137 45/2/138
f 24/40/139 39/54/140 48/55/141
f 29/7/142 38/17/143 25/1/144
f 41/23/145 43/21/146 48/20/147 47/9/148
