# This file uses centimeters as units for non-parametric coordinates.

mtllib JungleTempleCOL.mtl
g default
v -105.023453 223.287781 144.416367
v 107.819748 249.989777 144.416367
v -105.023453 308.523682 144.416367
v 107.819748 335.225677 144.416367
v -105.023453 308.523682 31.471210
v 107.819748 335.225677 31.471210
v -105.023453 223.287781 31.471210
v 107.819748 249.989777 31.471210
vt 0.375000 0.000000
vt 0.625000 0.000000
vt 0.625000 0.250000
vt 0.375000 0.250000
vt 0.625000 0.500000
vt 0.375000 0.500000
vt 0.625000 0.750000
vt 0.375000 0.750000
vt 0.625000 1.000000
vt 0.375000 1.000000
vt 0.875000 0.000000
vt 0.875000 0.250000
vt 0.125000 0.000000
vt 0.125000 0.250000
vn 0.000000 0.000000 1.000000
vn 0.000000 0.000000 1.000000
vn 0.000000 0.000000 1.000000
vn 0.000000 0.000000 1.000000
vn -0.124478 0.992222 0.000000
vn -0.124478 0.992222 0.000000
vn -0.124478 0.992222 0.000000
vn -0.124478 0.992222 0.000000
vn 0.000000 0.000000 -1.000000
vn 0.000000 0.000000 -1.000000
vn 0.000000 0.000000 -1.000000
vn 0.000000 0.000000 -1.000000
vn 0.124478 -0.992222 0.000000
vn 0.124478 -0.992222 0.000000
vn 0.124478 -0.992222 0.000000
vn 0.124478 -0.992222 0.000000
vn 1.000000 0.000000 0.000000
vn 1.000000 0.000000 0.000000
vn 1.000000 0.000000 0.000000
vn 1.000000 0.000000 0.000000
vn -1.000000 0.000000 0.000000
vn -1.000000 0.000000 0.000000
vn -1.000000 0.000000 0.000000
vn -1.000000 0.000000 0.000000
s off
g polySurface9 pCube49
usemtl lambert2SG
f 1/1/1 2/2/2 4/3/3 3/4/4
f 3/4/5 4/3/6 6/5/7 5/6/8
f 5/6/9 6/5/10 8/7/11 7/8/12
f 7/8/13 8/7/14 2/9/15 1/10/16
f 2/2/17 8/11/18 6/12/19 4/3/20
f 7/13/21 1/1/22 3/4/23 5/14/24
g default
v -143.103790 71.701942 -108.037888
v -143.103790 98.447502 -108.037888
v -143.103790 92.064262 -134.617889
v -143.103790 71.701942 -138.986801
v -37.512833 92.064262 -134.617889
v -37.512833 98.447502 -108.037888
v -37.512833 71.701942 -108.037888
v -37.512833 71.701942 -138.986801
vt 0.518170 0.042839
vt 0.518166 0.073031
vt 0.488162 0.065822
vt 0.483232 0.042835
vt 0.483232 0.066761
vt 0.364032 0.066761
vt 0.364032 0.042835
vt 0.483232 0.098302
vt 0.364032 0.098302
vt 0.364032 0.007898
vt 0.483232 0.007898
vt 0.329095 0.042836
vt 0.359101 0.065822
vt 0.329095 0.073028
vn -1.000000 0.000000 0.000000
vn -1.000000 0.000000 0.000000
vn -1.000000 0.000000 0.000000
vn -1.000000 0.000000 0.000000
vn 0.000000 0.000000 -1.000000
vn 0.000000 0.730970 -0.682410
vn 0.000000 0.730970 -0.682410
vn 0.000000 0.000000 -1.000000
vn 0.000000 0.730970 -0.682410
vn 0.000000 0.730970 -0.682410
vn 0.000000 1.000000 0.000000
vn 0.000000 1.000000 0.000000
vn 0.000000 -1.000000 0.000000
vn 0.000000 -1.000000 0.000000
vn 0.000000 -1.000000 0.000000
vn 0.000000 -1.000000 0.000000
vn 1.000000 0.000000 0.000000
vn 1.000000 0.000000 0.000000
vn 1.000000 0.000000 0.000000
vn 1.000000 0.000000 0.000000
s off
g pCube49 polySurface8
usemtl lambert2SG
f 9/15/25 10/16/26 11/17/27 12/18/28
f 12/18/29 11/19/30 13/20/31 16/21/32
f 13/20/33 11/19/34 10/22/35 14/23/36
f 12/18/37 16/21/38 15/24/39 9/25/40
f 15/26/41 16/21/42 13/27/43 14/28/44
g default
v 143.400848 71.701942 -108.037888
v 143.400848 98.447502 -108.037888
v 143.400848 92.064262 -134.617889
v 143.400848 71.701942 -138.986801
v 37.809898 92.064262 -134.617889
v 37.809898 98.447502 -108.037888
v 37.809898 71.701942 -108.037888
v 37.809898 71.701942 -138.986801
vt 0.254697 0.957584
vt 0.224710 0.964752
vt 0.224742 0.934586
vt 0.259648 0.934590
vt 0.380964 0.899384
vt 0.380730 0.935016
vt 0.259958 0.899146
vt 0.415632 0.935626
vt 0.415139 0.965788
vt 0.385282 0.958100
vt 0.259748 0.990787
vt 0.259803 0.958521
vt 0.380422 0.959452
vt 0.380455 0.990009
vn 1.000000 0.000000 0.000000
vn 1.000000 0.000000 0.000000
vn 1.000000 0.000000 0.000000
vn 1.000000 0.000000 0.000000
vn 0.000000 -1.000000 0.000000
vn 0.000000 -1.000000 0.000000
vn 0.000000 -1.000000 0.000000
vn 0.000000 -1.000000 0.000000
vn -1.000000 0.000000 0.000000
vn -1.000000 0.000000 0.000000
vn -1.000000 0.000000 0.000000
vn -1.000000 0.000000 0.000000
vn 0.000000 1.000000 0.000000
vn 0.000000 0.718515 -0.695512
vn 0.000000 0.729618 -0.683855
vn 0.000000 1.000000 0.000000
vn 0.000000 0.718515 -0.695512
vn 0.000000 0.000000 -1.000000
vn 0.000000 0.000000 -1.000000
vn 0.000000 0.729618 -0.683855
s off
g pCube49 polySurface7
usemtl lambert2SG
f 19/29/45 18/30/46 17/31/47 20/32/48
f 23/33/49 24/34/50 20/32/51 17/35/52
f 23/36/53 22/37/54 21/38/55 24/34/56
f 18/39/57 19/40/58 21/41/59 22/42/60
f 19/40/61 20/32/62 24/34/63 21/41/64
g default
v 10.403986 151.828735 -149.758514
v -0.000002 86.974632 -122.413948
v 10.403986 151.828735 -122.413948
v -10.403990 151.828735 -149.758514
v -10.403990 151.828735 -122.413948
v -43.982067 103.878212 -151.865936
v -43.982067 103.878212 -122.413948
v 43.982067 103.878212 -122.413948
v 43.982067 103.878212 -151.865936
v -0.000002 86.974632 -152.428467
v 44.940701 86.974632 -152.428467
v 44.940701 86.974632 -122.413948
v -44.940701 86.974632 -152.428467
v -44.940701 86.974632 -122.413948
vt 0.573897 0.007199
vt 0.573897 0.073242
vt 0.543028 0.073242
vt 0.540649 0.007199
vt 0.514099 0.989549
vt 0.502341 0.911501
vt 0.551366 0.933345
vt 0.573897 0.073242
vt 0.573897 0.007199
vt 0.540649 0.007199
vt 0.543028 0.073242
vt 0.490714 0.989548
vt 0.453399 0.933367
vt 0.451821 0.910797
vt 0.453357 0.875683
vt 0.502324 0.875941
vt 0.587535 0.910865
vt 0.584358 0.933134
vt 0.552850 0.910728
vt 0.420493 0.933193
vt 0.417174 0.910927
vt 0.533543 0.106896
vt 0.533543 0.076027
vt 0.567809 0.076027
vt 0.567809 0.106896
vt 0.551292 0.875678
vn -0.901052 0.433711 0.000000
vn -0.712562 0.701609 0.000000
vn -0.712562 0.701609 0.000000
vn -0.901052 0.433711 0.000000
vn 0.000000 0.000000 -1.000000
vn 0.000000 0.000000 -1.000000
vn 0.000000 0.000000 -1.000000
vn 0.712562 0.701609 0.000000
vn 0.901052 0.433711 0.000000
vn 0.901052 0.433711 0.000000
vn 0.712562 0.701609 0.000000
vn 0.000000 0.000000 -1.000000
vn 0.000000 0.000000 -1.000000
vn 0.000000 0.000000 -1.000000
vn 0.000000 -1.000000 0.000000
vn 0.000000 -1.000000 0.000000
vn 0.000000 -1.000000 0.000000
vn 0.000000 -1.000000 0.000000
vn -0.993823 -0.110974 0.000000
vn -0.992167 -0.124916 0.000000
vn -0.992167 -0.124916 0.000000
vn -0.993823 -0.110973 0.000000
vn 0.992167 -0.124916 0.000000
vn 0.992167 -0.124916 0.000000
vn 0.993823 -0.110973 0.000000
vn 0.993823 -0.110973 0.000000
vn 0.000000 0.000000 -1.000000
vn 0.000000 0.000000 -1.000000
vn 0.000000 0.000000 -1.000000
vn 0.000000 1.000000 0.000000
vn 0.000000 1.000000 0.000000
vn 0.000000 1.000000 0.000000
vn 0.000000 1.000000 0.000000
vn 0.000000 -0.078667 -0.996901
vn 0.000000 -0.078667 -0.996901
vn 0.000000 -0.153105 -0.988210
vn 0.000000 -0.078667 -0.996901
vn 0.000000 -0.153105 -0.988210
vn 0.000000 -0.153105 -0.988210
vn 0.000000 -1.000000 0.000000
vn 0.000000 -1.000000 0.000000
vn 0.000000 -1.000000 0.000000
vn 0.000000 -1.000000 0.000000
s off
g pCube49 polySurface6
usemtl lambert2SG
f 31/43/65 29/44/66 28/45/67 30/46/68
f 28/47/69 34/48/70 30/49/71
f 27/50/72 32/51/73 33/52/74 25/53/75
f 25/54/76 33/55/77 34/48/78
f 35/56/79 36/57/80 26/58/81 34/48/82
f 38/59/83 31/60/84 30/49/85 37/61/86
f 33/55/87 32/62/88 36/63/89 35/56/90
f 28/47/91 25/54/92 34/48/93
f 28/64/94 29/65/95 27/66/96 25/67/97
f 34/48/98 33/55/99 35/56/100
f 30/49/101 34/48/102 37/61/103
f 37/61/104 34/48/105 26/58/106 38/68/107
g default
v -54.302780 89.572090 -51.034393
v 54.302780 89.572090 -51.034393
v -67.618889 89.752968 -126.994583
v 67.618889 89.752968 -126.994583
v -0.000005 171.850708 -122.413933
v -0.000004 89.572090 -126.994583
v 12.483853 171.850708 -51.034393
v -12.483860 171.850708 -51.034393
v -66.101326 112.031898 -125.775650
v -54.302780 109.668785 -51.034393
v 54.302780 109.668785 -51.034393
v 66.101326 112.031898 -125.775650
v -0.000005 171.850708 -51.034393
v 21.224771 171.850708 -122.413933
v -21.224779 171.850708 -122.413933
v -66.406998 112.123772 -109.595505
v -67.766586 89.933846 -109.719597
v 67.766586 89.933846 -109.719597
v 66.406998 112.123772 -109.595505
vt 0.838750 0.587840
vt 0.839191 0.673940
vt 0.919612 0.668787
vt 0.904773 0.585107
vt 0.639824 0.939155
vt 0.639393 0.837689
vt 0.713182 0.868345
vt 0.663709 0.939404
vt 0.838934 0.673932
vt 0.838666 0.587640
vt 0.904766 0.584722
vt 0.919496 0.668726
vt 0.565711 0.868248
vt 0.615927 0.939523
vt 0.839212 0.680815
vt 0.919624 0.680566
vt 0.904568 0.559248
vt 0.838505 0.564962
vt 0.838595 0.564953
vt 0.904826 0.559056
vt 0.919533 0.680557
vt 0.838955 0.680808
vt 0.950810 0.588186
vt 0.943175 0.677511
vt 0.935454 0.588302
vt 0.935374 0.588688
vt 0.943334 0.677222
vt 0.950518 0.588562
vt 0.737274 0.836406
vt 0.731007 0.867989
vt 0.717198 0.836632
vt 0.547358 0.868110
vt 0.541209 0.836508
vt 0.561621 0.836588
vn -0.955135 0.296171 0.000000
vn -0.729083 0.684425 0.000000
vn -0.729083 0.684425 0.000000
vn -0.955135 0.296171 0.000000
vn 0.000000 0.000000 -1.000000
vn 0.000000 0.000000 -1.000000
vn 0.000000 0.000000 -1.000000
vn 0.000000 0.000000 -1.000000
vn 0.729083 0.684425 0.000000
vn 0.955135 0.296171 0.000000
vn 0.955135 0.296171 0.000000
vn 0.729083 0.684425 0.000000
vn 0.000000 0.000000 -1.000000
vn 0.000000 0.000000 -1.000000
vn 0.000000 0.000000 -1.000000
vn 0.000000 0.000000 -1.000000
vn 0.000000 1.000000 0.000000
vn 0.000000 1.000000 0.000000
vn 0.000000 1.000000 0.000000
vn 0.000000 1.000000 0.000000
vn -1.000000 0.000000 0.000000
vn -1.000000 0.000000 0.000000
vn -0.955135 0.296171 0.000000
vn -0.955135 0.296171 0.000000
vn 1.000000 0.000000 0.000000
vn 1.000000 0.000000 0.000000
vn 0.955135 0.296171 0.000000
vn 0.955135 0.296171 0.000000
vn 0.000000 1.000000 0.000000
vn 0.000000 1.000000 0.000000
vn 0.000000 1.000000 0.000000
vn 0.000000 1.000000 0.000000
vn 0.894559 0.446951 0.000000
vn 0.702135 0.712044 0.000000
vn 0.894559 0.446951 0.000000
vn -0.894559 0.446951 0.000000
vn -0.702135 0.712044 0.000000
vn -0.894559 0.446951 0.000000
vn -0.985274 -0.170021 -0.018113
vn -0.985274 -0.170021 -0.018113
vn -0.985274 -0.170021 -0.018113
vn -0.983518 -0.180702 -0.006281
vn 0.985274 -0.170021 -0.018113
vn 0.985274 -0.170021 -0.018113
vn 0.983518 -0.180702 -0.006281
vn 0.983518 -0.180702 -0.006281
vn 0.000173 -0.122909 -0.992418
vn 0.000173 -0.122909 -0.992418
vn 0.000487 -0.184786 -0.982779
vn -0.000173 -0.122910 -0.992418
vn -0.000487 -0.184786 -0.982779
vn -0.000487 -0.184786 -0.982779
s off
g pCube49 polySurface5
usemtl lambert2SG
f 48/69/108 46/70/109 53/71/110 54/72/111
f 43/73/112 44/74/113 47/75/114 53/76/115
f 45/77/116 49/78/117 57/79/118 52/80/119
f 50/81/120 44/74/121 43/73/122 52/82/123
f 53/71/124 46/70/125 51/83/126 43/84/127
f 55/85/128 39/86/129 48/69/130 54/72/131
f 40/87/132 56/88/133 57/79/134 49/78/135
f 43/89/136 51/90/137 45/77/138 52/80/139
f 50/91/140 52/92/141 57/93/142
f 54/94/143 53/95/144 47/96/145
f 55/97/146 54/98/147 47/75/148 41/99/149
f 50/81/150 57/100/151 56/101/152 42/102/153
f 44/74/154 50/81/155 42/102/156
f 47/75/157 44/74/158 41/99/159
g default
v -163.992859 166.484375 -53.151554
v 163.992859 166.484375 -53.151554
v -163.992859 166.484375 -116.181496
v 163.992859 166.484375 -116.181496
v 117.750969 77.584602 -116.181496
v 117.751137 77.584602 -53.151554
v -113.555603 77.584602 -116.181496
v -113.555603 77.584602 -53.151554
v -163.992859 0.000008 -116.181496
v -113.555603 0.000008 -116.181496
v -113.555603 0.000008 -53.151554
v -163.992859 0.000008 -53.151554
v 117.750969 0.000008 -116.181496
v 163.992859 0.000008 -116.181496
v 163.992859 0.000008 -53.151554
v 117.751137 0.000008 -53.151554
vt 0.375000 0.750000
vt 0.458333 0.750000
vt 0.458333 1.000000
vt 0.375000 1.000000
vt 0.541667 0.750000
vt 0.625000 0.750000
vt 0.625000 1.000000
vt 0.541667 1.000000
vt 0.458333 0.750000
vt 0.541667 0.750000
vt 0.541667 1.000000
vt 0.458333 1.000000
vt 0.398900 0.247331
vt 0.458333 0.000000
vt 0.541667 0.000000
vt 0.602289 0.252270
vt 0.395220 0.575062
vt 0.607513 0.567335
vt 0.383095 0.931736
vt 0.617972 0.928721
vn 0.000000 -1.000000 0.000000
vn 0.000000 -1.000000 0.000000
vn 0.000000 -1.000000 0.000000
vn 0.000000 -1.000000 0.000000
vn 0.000000 -1.000000 0.000000
vn 0.000000 -1.000000 0.000000
vn 0.000000 -1.000000 0.000000
vn 0.000000 -1.000000 0.000000
vn 0.000000 -1.000000 0.000000
vn 0.000000 -1.000000 0.000000
vn 0.000000 -1.000000 0.000000
vn 0.000000 -1.000000 0.000000
vn -0.000000 0.000000 1.000000
vn -0.000000 0.000000 1.000000
vn 0.000000 0.000000 1.000000
vn 0.000000 0.000000 1.000000
vn -0.452624 0.891701 0.000000
vn -0.452624 0.891701 0.000000
vn 0.452624 0.891701 0.000000
vn 0.452624 0.891701 0.000000
vn 0.000000 0.000000 -1.000000
vn 0.000000 0.000000 -1.000000
vn -0.000000 0.000000 -1.000000
vn -0.000000 0.000000 -1.000000
vn 0.000000 0.000000 -1.000000
vn 0.000000 0.000000 -1.000000
vn 1.000000 0.000000 0.000000
vn 1.000000 0.000000 0.000000
vn 1.000000 0.000000 0.000000
vn 1.000000 0.000000 0.000000
vn -0.000000 0.000000 1.000000
vn -0.000000 0.000000 1.000000
vn -1.000000 0.000000 0.000000
vn -1.000000 0.000000 0.000000
vn -0.000000 0.000000 -1.000000
vn -0.000000 0.000000 -1.000000
vn 1.000000 0.000000 0.000000
vn 1.000000 0.000000 0.000000
vn 0.000000 0.000000 1.000000
vn 0.000000 0.000000 1.000000
vn -1.000000 0.000000 0.000003
vn -1.000000 0.000000 0.000003
vn -1.000000 0.000000 0.000003
vn -1.000000 0.000000 0.000003
s off
g pCube49 polySurface4
usemtl lambert2SG
f 66/103/160 67/104/161 68/105/162 69/106/163
f 70/107/164 71/108/165 72/109/166 73/110/167
f 64/111/168 62/112/169 63/113/170 65/114/171
s 1
f 58/115/172 65/116/173 63/117/174 59/118/175
s 2
f 60/119/176 58/115/177 59/118/178 61/120/179
s 3
f 64/111/180 60/119/181 61/120/182 62/112/183
f 60/119/181 64/111/180 67/104/184 66/103/185
s off
f 64/111/186 65/114/187 68/105/188 67/104/189
s 1
f 65/114/173 58/121/172 69/106/190 68/105/191
s 2
f 58/121/177 60/119/176 66/103/192 69/106/193
s 3
f 62/112/183 61/120/182 71/108/194 70/107/195
s 2
f 61/120/179 59/122/178 72/109/196 71/108/197
s 1
f 59/122/175 63/113/174 73/110/198 72/109/199
s off
f 63/113/200 62/112/201 70/107/202 73/110/203
g default
v -15.484945 317.578522 144.416367
v 65.957756 329.333649 144.416367
v -15.484945 369.945160 144.416367
v 65.957756 381.700287 144.416367
v -15.484945 369.945160 69.291435
v 65.957756 381.700287 69.291435
v -15.484945 317.578522 69.291435
v 65.957756 329.333649 69.291435
vt 0.375000 0.000000
vt 0.625000 0.000000
vt 0.625000 0.250000
vt 0.375000 0.250000
vt 0.625000 0.500000
vt 0.375000 0.500000
vt 0.625000 0.750000
vt 0.375000 0.750000
vt 0.625000 1.000000
vt 0.375000 1.000000
vt 0.875000 0.000000
vt 0.875000 0.250000
vt 0.125000 0.000000
vt 0.125000 0.250000
vn 0.000000 0.000000 1.000000
vn 0.000000 0.000000 1.000000
vn 0.000000 0.000000 1.000000
vn 0.000000 0.000000 1.000000
vn -0.142856 0.989744 0.000000
vn -0.142856 0.989744 0.000000
vn -0.142856 0.989744 0.000000
vn -0.142856 0.989744 0.000000
vn 0.000000 0.000000 -1.000000
vn 0.000000 0.000000 -1.000000
vn 0.000000 0.000000 -1.000000
vn 0.000000 0.000000 -1.000000
vn 0.142856 -0.989744 0.000000
vn 0.142856 -0.989744 0.000000
vn 0.142856 -0.989744 0.000000
vn 0.142856 -0.989744 0.000000
vn 1.000000 0.000000 0.000000
vn 1.000000 0.000000 0.000000
vn 1.000000 0.000000 0.000000
vn 1.000000 0.000000 0.000000
vn -1.000000 0.000000 0.000000
vn -1.000000 0.000000 0.000000
vn -1.000000 0.000000 0.000000
vn -1.000000 0.000000 0.000000
s off
g pCube49 polySurface3
usemtl lambert2SG
f 74/123/204 75/124/205 77/125/206 76/126/207
f 76/126/208 77/125/209 79/127/210 78/128/211
f 78/128/212 79/127/213 81/129/214 80/130/215
f 80/130/216 81/129/217 75/131/218 74/132/219
f 75/124/220 81/133/221 79/134/222 77/125/223
f 80/135/224 74/123/225 76/126/226 78/136/227
g default
v -197.687714 180.397064 144.416351
v 197.687714 180.397064 144.416351
v -197.687714 180.397064 -53.151550
v 197.687714 180.397064 -53.151550
v 158.013962 97.253265 -53.151550
v 158.014160 97.253265 144.416351
v -158.013977 97.253265 -53.151550
v -158.013977 97.253265 144.416351
v -197.687714 0.000008 -53.151550
v -158.013977 0.000008 -53.151550
v -158.013977 0.000008 144.416351
v -197.687714 0.000008 144.416351
v 158.013962 0.000008 -53.151550
v 197.687714 0.000008 -53.151550
v 197.687714 0.000008 144.416351
v 158.014160 0.000008 144.416351
vt 0.375000 0.750000
vt 0.458333 0.750000
vt 0.458333 1.000000
vt 0.375000 1.000000
vt 0.541667 0.750000
vt 0.625000 0.750000
vt 0.625000 1.000000
vt 0.541667 1.000000
vt 0.458333 0.750000
vt 0.541667 0.750000
vt 0.541667 1.000000
vt 0.458333 1.000000
vt 0.398900 0.247331
vt 0.458333 0.000000
vt 0.541667 0.000000
vt 0.602289 0.252270
vt 0.395220 0.575062
vt 0.607513 0.567335
vt 0.383095 0.931736
vt 0.617972 0.928721
vn 0.000000 -1.000000 0.000000
vn 0.000000 -1.000000 0.000000
vn 0.000000 -1.000000 0.000000
vn 0.000000 -1.000000 0.000000
vn 0.000000 -1.000000 0.000000
vn 0.000000 -1.000000 0.000000
vn 0.000000 -1.000000 0.000000
vn 0.000000 -1.000000 0.000000
vn 0.000000 -1.000000 -0.000000
vn 0.000000 -1.000000 -0.000000
vn 0.000000 -1.000000 -0.000000
vn 0.000000 -1.000000 -0.000000
vn 0.000000 0.000000 1.000000
vn 0.000000 0.000000 1.000000
vn 0.000000 0.000000 1.000000
vn 0.000000 0.000000 1.000000
vn -0.415101 0.909775 0.000000
vn -0.415101 0.909775 0.000000
vn 0.415101 0.909775 0.000000
vn 0.415101 0.909775 0.000000
vn 0.000000 0.000000 -1.000000
vn 0.000000 0.000000 -1.000000
vn -0.000000 0.000000 -1.000000
vn -0.000000 0.000000 -1.000000
vn 0.000000 0.000000 -1.000000
vn 0.000000 0.000000 -1.000000
vn 1.000000 0.000000 0.000000
vn 1.000000 0.000000 0.000000
vn 1.000000 0.000000 0.000000
vn 1.000000 0.000000 0.000000
vn 0.000000 0.000000 1.000000
vn 0.000000 0.000000 1.000000
vn -1.000000 0.000000 0.000000
vn -1.000000 0.000000 0.000000
vn -0.000000 0.000000 -1.000000
vn -0.000000 0.000000 -1.000000
vn 1.000000 0.000000 0.000000
vn 1.000000 0.000000 0.000000
vn 0.000000 0.000000 1.000000
vn 0.000000 0.000000 1.000000
vn -1.000000 0.000000 0.000001
vn -1.000000 0.000000 0.000001
vn -1.000000 0.000000 0.000001
vn -1.000000 0.000000 0.000001
s off
g pCube49 polySurface2
usemtl lambert2SG
f 90/137/228 91/138/229 92/139/230 93/140/231
f 94/141/232 95/142/233 96/143/234 97/144/235
f 88/145/236 86/146/237 87/147/238 89/148/239
s 1
f 82/149/240 89/150/241 87/151/242 83/152/243
s 2
f 84/153/244 82/149/245 83/152/246 85/154/247
s 3
f 88/145/248 84/153/249 85/154/250 86/146/251
f 84/153/249 88/145/248 91/138/252 90/137/253
s off
f 88/145/254 89/148/255 92/139/256 91/138/257
s 1
f 89/148/241 82/155/240 93/140/258 92/139/259
s 2
f 82/155/245 84/153/244 90/137/260 93/140/261
s 3
f 86/146/251 85/154/250 95/142/262 94/141/263
s 2
f 85/154/247 83/156/246 96/143/264 95/142/265
s 1
f 83/156/243 87/147/242 97/144/266 96/143/267
s off
f 87/147/268 86/146/269 94/141/270 97/144/271
g default
v -152.747406 164.753906 144.416367
v 152.747406 164.753906 144.416367
v -152.747406 249.989777 144.416367
v 152.747406 249.989777 144.416367
v -152.747406 249.989777 -10.395523
v 152.747406 249.989777 -10.395523
v -152.747406 164.753906 -10.395523
v 152.747406 164.753906 -10.395523
vt 0.375000 0.000000
vt 0.625000 0.000000
vt 0.625000 0.250000
vt 0.375000 0.250000
vt 0.625000 0.500000
vt 0.375000 0.500000
vt 0.625000 0.750000
vt 0.375000 0.750000
vt 0.625000 1.000000
vt 0.375000 1.000000
vt 0.875000 0.000000
vt 0.875000 0.250000
vt 0.125000 0.000000
vt 0.125000 0.250000
vn 0.000000 0.000000 1.000000
vn 0.000000 0.000000 1.000000
vn 0.000000 0.000000 1.000000
vn 0.000000 0.000000 1.000000
vn 0.000000 1.000000 0.000000
vn 0.000000 1.000000 0.000000
vn 0.000000 1.000000 0.000000
vn 0.000000 1.000000 0.000000
vn 0.000000 0.000000 -1.000000
vn 0.000000 0.000000 -1.000000
vn 0.000000 0.000000 -1.000000
vn 0.000000 0.000000 -1.000000
vn 0.000000 -1.000000 0.000000
vn 0.000000 -1.000000 0.000000
vn 0.000000 -1.000000 0.000000
vn 0.000000 -1.000000 0.000000
vn 1.000000 0.000000 0.000000
vn 1.000000 0.000000 0.000000
vn 1.000000 0.000000 0.000000
vn 1.000000 0.000000 0.000000
vn -1.000000 0.000000 0.000000
vn -1.000000 0.000000 0.000000
vn -1.000000 0.000000 0.000000
vn -1.000000 0.000000 0.000000
s off
g pCube49 polySurface1
usemtl lambert2SG
f 98/157/272 99/158/273 101/159/274 100/160/275
f 100/160/276 101/159/277 103/161/278 102/162/279
f 102/162/280 103/161/281 105/163/282 104/164/283
f 104/164/284 105/163/285 99/165/286 98/166/287
f 99/158/288 105/167/289 103/168/290 101/159/291
f 104/169/292 98/157/293 100/160/294 102/170/295
