# This file uses centimeters as units for non-parametric coordinates.

mtllib MazeBoss_ramp.mtl
g default
v 7.357505 10.558703 -3.161422
v 5.194879 10.558703 -8.276712
v 1.462511 9.576532 -10.240509
v 1.462511 9.576532 10.240507
v 5.194834 10.558703 8.276708
v 7.357505 10.558703 3.161422
v 8.259039 30.864191 -3.213986
v 6.161401 30.864191 -8.312326
v 2.551519 30.864191 -10.196678
v 2.551519 30.864191 10.196676
v 6.161401 30.864191 8.312322
v 8.259039 30.864191 3.213984
v -7.841624 2.262259 -3.235559
v -8.029187 2.972365 -8.377729
v -8.350113 6.587328 -10.284342
v -8.350113 6.587329 10.284338
v -8.029187 2.972368 8.377726
v -7.841624 2.262262 3.235557
v 1.047893 3.797063 -3.171620
v 0.856042 4.878341 -8.303410
v 0.856042 4.878343 8.303406
v 1.047893 3.797066 3.171619
v 3.830527 7.306020 -8.290061
v 5.007766 6.225465 -3.166521
v 5.007766 6.225466 3.166520
v 3.830527 7.306020 8.290056
v 11.580084 10.449585 -3.460486
v 9.212879 10.449585 -10.294075
v 1.681982 9.391936 -12.724173
v 1.681982 9.391936 12.724173
v 9.212834 10.449585 10.294069
v 11.580084 10.449585 3.460485
v 12.385624 30.864191 -3.460486
v 10.018420 30.864191 -10.294075
v 2.957696 30.864191 -12.724173
v 2.957696 30.864191 12.724173
v 10.018420 30.864191 10.294069
v 12.385624 30.864191 3.460485
v -11.837601 0.000000 -3.460486
v -12.046917 0.955126 -10.294075
v -12.385624 6.218136 -12.724173
v -12.385624 6.218136 12.724173
v -12.046917 0.955128 10.294069
v -11.837601 0.000004 3.460485
v 2.857235 1.376432 -3.460486
v 2.107251 2.798088 -10.294075
v 2.107251 2.798091 10.294069
v 2.857235 1.376435 3.460485
v 6.870362 5.547614 10.294069
v 8.641297 4.047808 3.460485
v 8.641297 4.047805 -3.460486
v 6.870407 5.547613 -10.294075
v -3.196078 3.428848 -8.340569
v -3.443801 6.907061 -10.262425
v -3.317660 6.630167 -12.724173
v -2.960088 1.380103 -10.294075
v -2.750772 0.424975 -3.460486
v -2.750772 0.424979 3.460485
v -2.960088 1.380104 10.294069
v -3.317660 6.630167 12.724173
v -3.443801 6.907062 10.262423
v -3.196078 3.428849 8.340567
v -3.006348 2.694649 3.203588
v -3.006348 2.694645 -3.203589
v -0.311629 7.956046 -10.244946
v -0.122621 7.749539 -12.724173
v 1.992618 11.622644 -10.238834
v 2.224230 11.610623 -12.724173
v -0.356444 7.944154 10.245144
v -0.266453 7.709395 12.724173
v 1.993025 11.641125 10.238799
v 2.221612 11.523920 12.724173
v -10.367868 7.063570 -11.504258
v -3.380708 7.429452 -11.493299
v -0.217124 8.513630 -11.484560
v 0.848370 9.792685 -11.482342
v 1.384525 11.616634 -11.481504
v 2.030708 31.339975 -11.460426
v 8.089933 31.339975 -9.303201
v 10.322331 31.339975 -3.337236
v 10.322331 31.339975 3.337234
v 8.089889 31.339975 9.303196
v 2.030708 31.339975 11.460424
v 1.383397 11.582523 11.481485
v 0.848370 9.792685 11.482339
v -0.311448 8.487611 11.484657
v -3.380708 7.429452 11.493297
v -10.367868 7.063570 11.504255
vt 0.095531 0.386422
vt 0.094700 0.198371
vt 0.142964 0.207455
vt 0.142386 0.388923
vt 0.245730 0.386634
vt 0.247493 0.198203
vt 0.279816 0.195972
vt 0.280065 0.384030
vt 0.199044 0.388819
vt 0.199181 0.206602
vt 0.142808 0.092165
vt 0.096776 0.096244
vt 0.093546 0.051705
vt 0.141454 0.049959
vt 0.062355 0.109461
vt 0.057058 0.061020
vt 0.245262 0.096071
vt 0.248315 0.051539
vt 0.284734 0.060744
vt 0.279669 0.109236
vt 0.199176 0.091819
vt 0.200644 0.050120
vt 0.098098 0.167664
vt 0.143971 0.165769
vt 0.065071 0.172268
vt 0.062376 0.195846
vt 0.243967 0.167477
vt 0.276928 0.172032
vt 0.198103 0.165927
vt 0.097448 0.134979
vt 0.143515 0.127794
vt 0.198534 0.127014
vt 0.244513 0.134728
vt 0.571075 0.442695
vt 0.507824 0.442637
vt 0.507906 0.262176
vt 0.571865 0.261235
vt 0.639187 0.246904
vt 0.637838 0.267884
vt 0.580436 0.215063
vt 0.383942 0.442932
vt 0.316379 0.436648
vt 0.316709 0.266848
vt 0.383540 0.261304
vt 0.446547 0.442254
vt 0.448192 0.261416
vt 0.726073 0.320991
vt 0.660725 0.298245
vt 0.675220 0.275596
vt 0.728354 0.295213
vt 0.633546 0.234245
vt 0.655073 0.221733
vt 0.882745 0.234364
vt 0.855531 0.298318
vt 0.841057 0.275661
vt 0.861246 0.221813
vt 0.790168 0.321034
vt 0.787909 0.295237
vt 0.052061 0.171429
vt 0.050934 0.193661
vt 0.039805 0.197890
vt 0.039218 0.171934
vt 0.292639 0.388023
vt 0.291228 0.193071
vt 0.302232 0.196827
vt 0.309040 0.380164
vt 0.567983 0.090113
vt 0.508377 0.092702
vt 0.510210 0.010882
vt 0.568175 0.010977
vt 0.620856 0.092684
vt 0.620534 0.010811
vt 0.388713 0.090002
vt 0.335850 0.092892
vt 0.336080 0.011060
vt 0.388989 0.010985
vt 0.448358 0.091763
vt 0.446600 0.010977
vt 0.082322 0.009598
vt 0.140339 0.010681
vt 0.035932 0.026157
vt 0.042985 0.046904
vt 0.259411 0.009436
vt 0.305818 0.025844
vt 0.298812 0.046597
vt 0.201344 0.010924
vt 0.039279 0.111488
vt 0.026941 0.031972
vt 0.042582 0.046663
vt 0.051753 0.112534
vt 0.314779 0.031582
vt 0.302742 0.111145
vt 0.290281 0.112279
vt 0.299164 0.046337
vt 0.510590 0.199253
vt 0.374974 0.215097
vt 0.445890 0.199220
vt 0.384160 0.136106
vt 0.374573 0.183818
vt 0.321966 0.143975
vt 0.332179 0.122746
vt 0.448092 0.143074
vt 0.508464 0.143991
vt 0.581600 0.183973
vt 0.572285 0.136252
vt 0.634819 0.143807
vt 0.624678 0.123945
vt 0.064228 0.145067
vt 0.052720 0.150319
vt 0.040899 0.146762
vt 0.289803 0.170781
vt 0.289435 0.149022
vt 0.301228 0.144997
vt 0.303197 0.172205
vt 0.277863 0.144364
vt 0.061819 0.383656
vt 0.032996 0.379791
vt 0.049284 0.387671
vt 0.636998 0.436806
vt 0.315687 0.247016
vt 0.677481 0.220680
vt 0.689743 0.252866
vt 0.730821 0.269004
vt 0.785472 0.269015
vt 0.826549 0.252925
vt 0.838864 0.220744
vn -0.789861 0.029915 0.612556
vn -0.806181 0.079306 0.586330
vn -0.978807 0.103591 0.176651
vn -0.982632 0.037979 0.181639
vn -0.789895 0.029919 -0.612512
vn -0.806416 0.079382 -0.585996
vn -0.490588 0.029538 -0.870891
vn -0.489731 0.015859 -0.871729
vn -0.982631 0.037979 -0.181641
vn -0.978807 0.103591 -0.176653
vn -0.806416 0.079382 -0.585996
vn -0.789895 0.029919 -0.612512
vn -0.982632 0.037979 0.181639
vn -0.978807 0.103591 0.176651
vn -0.978807 0.103591 -0.176653
vn -0.982631 0.037979 -0.181641
vn -0.179120 0.981230 0.071440
vn -0.165404 0.851585 0.497438
vn -0.345011 0.809032 0.475852
vn -0.303643 0.950552 0.065206
vn -0.101606 0.473168 0.875093
vn -0.300674 0.405026 0.863452
vn -0.345011 0.809032 0.475852
vn -0.165404 0.851585 0.497438
vn -0.165409 0.851818 -0.497037
vn -0.345011 0.809032 -0.475852
vn -0.300674 0.405026 -0.863452
vn -0.101516 0.473051 -0.875167
vn -0.179120 0.981230 -0.071440
vn -0.303643 0.950552 -0.065206
vn -0.345011 0.809032 -0.475852
vn -0.165409 0.851818 -0.497037
vn -0.179120 0.981230 0.071440
vn -0.303643 0.950552 0.065206
vn -0.303643 0.950552 -0.065206
vn -0.179120 0.981230 -0.071440
vn -0.978807 0.103591 0.176651
vn -0.806181 0.079306 0.586330
vn -0.673749 0.556700 0.485950
vn -0.737528 0.664154 0.122283
vn -0.425182 0.281620 0.860181
vn -0.673749 0.556700 0.485950
vn -0.806181 0.079306 0.586330
vn -0.490609 0.029621 0.870876
vn -0.806416 0.079382 -0.585996
vn -0.673077 0.556461 -0.487153
vn -0.423821 0.281891 -0.860763
vn -0.490588 0.029538 -0.870891
vn -0.806416 0.079382 -0.585996
vn -0.978807 0.103591 -0.176653
vn -0.737528 0.664153 -0.122284
vn -0.673077 0.556461 -0.487153
vn -0.978807 0.103591 -0.176653
vn -0.978807 0.103591 0.176651
vn -0.737528 0.664154 0.122283
vn -0.737528 0.664153 -0.122284
vn -0.737528 0.664154 0.122283
vn -0.673749 0.556700 0.485950
vn -0.399367 0.783990 0.475254
vn -0.416354 0.904478 0.092566
vn -0.737528 0.664153 -0.122284
vn -0.737528 0.664154 0.122283
vn -0.416354 0.904478 0.092566
vn -0.416354 0.904478 -0.092566
vn -0.673077 0.556461 -0.487153
vn -0.737528 0.664153 -0.122284
vn -0.416354 0.904478 -0.092566
vn -0.399629 0.783840 -0.475281
vn 0.710230 -0.023693 -0.703571
vn 0.985073 -0.033038 -0.168936
vn 0.979464 -0.114202 -0.166160
vn 0.732220 -0.082346 -0.676072
vn 0.275950 -0.219393 -0.935798
vn 0.325714 -0.026238 -0.945104
vn 0.732220 -0.082346 -0.676072
vn 0.610273 -0.563933 -0.556369
vn 0.709919 -0.023683 0.703885
vn 0.326124 -0.010706 0.945266
vn 0.325742 -0.026492 0.945087
vn 0.731270 -0.082095 0.677130
vn 0.985073 -0.033039 0.168938
vn 0.709919 -0.023683 0.703885
vn 0.731270 -0.082095 0.677130
vn 0.979463 -0.114202 0.166161
vn 0.985073 -0.033038 -0.168936
vn 0.985073 -0.033039 0.168938
vn 0.979463 -0.114202 0.166161
vn 0.979464 -0.114202 -0.166160
vn 0.218571 0.975186 -0.035190
vn 0.177089 0.974240 -0.139628
vn 0.041619 0.996110 -0.077675
vn 0.033474 0.999404 -0.008429
vn 0.177089 0.974240 -0.139628
vn 0.097694 0.955189 -0.279410
vn 0.027915 0.994618 -0.099777
vn 0.041619 0.996110 -0.077675
vn 0.097694 0.955190 0.279407
vn 0.177088 0.974240 0.139626
vn 0.041619 0.996110 0.077674
vn 0.027915 0.994618 0.099777
vn 0.177088 0.974240 0.139626
vn 0.218569 0.975187 0.035190
vn 0.033474 0.999404 0.008429
vn 0.041619 0.996110 0.077674
vn 0.218569 0.975187 0.035190
vn 0.218571 0.975186 -0.035190
vn 0.033474 0.999404 -0.008429
vn 0.033474 0.999404 0.008429
vn -0.858181 0.498739 -0.121591
vn -0.990744 0.048161 -0.126915
vn -0.814330 0.038691 -0.579111
vn -0.726988 0.403044 -0.555918
vn -0.990156 0.027611 0.137217
vn -0.989194 0.048193 0.138469
vn -0.814117 0.039251 0.579373
vn -0.814864 0.024608 0.579130
vn 0.095348 -0.839220 -0.535368
vn 0.102001 -0.991766 -0.077438
vn 0.046601 -0.996428 -0.070431
vn 0.038446 -0.825187 -0.563549
vn 0.055858 -0.412939 -0.909044
vn 0.095348 -0.839220 -0.535368
vn 0.038446 -0.825187 -0.563549
vn 0.019294 -0.418497 -0.908013
vn 0.095264 -0.839931 0.534267
vn 0.055539 -0.412941 0.909063
vn 0.019294 -0.418498 0.908013
vn 0.038446 -0.825188 0.563549
vn 0.102001 -0.991766 0.077438
vn 0.095264 -0.839931 0.534267
vn 0.038446 -0.825188 0.563549
vn 0.046601 -0.996428 0.070432
vn 0.102001 -0.991766 -0.077438
vn 0.102001 -0.991766 0.077438
vn 0.046601 -0.996428 0.070432
vn 0.046601 -0.996428 -0.070431
vn -0.550323 0.718147 0.425922
vn -0.494786 0.866527 0.065710
vn -0.303643 0.950552 0.065206
vn -0.345011 0.809032 0.475852
vn -0.583544 0.309171 0.750926
vn -0.550323 0.718147 0.425922
vn -0.520110 0.323035 0.790654
vn -0.550323 0.718147 -0.425922
vn -0.583545 0.309172 -0.750925
vn -0.520110 0.323035 -0.790654
vn -0.494786 0.866527 -0.065711
vn -0.550323 0.718147 -0.425922
vn -0.345011 0.809032 -0.475852
vn -0.303643 0.950552 -0.065206
vn -0.494786 0.866527 0.065710
vn -0.494786 0.866527 -0.065711
vn -0.303643 0.950552 -0.065206
vn -0.303643 0.950552 0.065206
vn -0.107343 0.837886 -0.535187
vn -0.040545 0.844329 -0.534289
vn -0.044834 0.903388 -0.426475
vn -0.146922 0.976469 -0.157870
vn -0.040545 0.844329 0.534288
vn -0.106048 0.838174 0.534994
vn -0.145760 0.976835 0.156678
vn -0.044834 0.903388 0.426475
vn 0.732220 -0.082346 -0.676072
vn 0.979464 -0.114202 -0.166160
vn 0.717778 -0.681526 -0.142540
vn 0.610273 -0.563933 -0.556369
vn 0.979463 -0.114202 0.166161
vn 0.731270 -0.082095 0.677130
vn 0.609374 -0.564637 0.556640
vn 0.717778 -0.681525 0.142542
vn 0.979464 -0.114202 -0.166160
vn 0.979463 -0.114202 0.166161
vn 0.717778 -0.681525 0.142542
vn 0.717778 -0.681526 -0.142540
vn 0.305003 -0.792028 0.528834
vn 0.609374 -0.564637 0.556640
vn 0.273550 -0.222871 0.935681
vn 0.171689 -0.362049 0.916211
vn 0.717778 -0.681525 0.142542
vn 0.609374 -0.564637 0.556640
vn 0.305003 -0.792028 0.528834
vn 0.322556 -0.939952 0.111574
vn 0.717778 -0.681526 -0.142540
vn 0.717778 -0.681525 0.142542
vn 0.322556 -0.939952 0.111574
vn 0.322556 -0.939952 -0.111573
vn 0.610273 -0.563933 -0.556369
vn 0.717778 -0.681526 -0.142540
vn 0.322556 -0.939952 -0.111573
vn 0.304813 -0.792598 -0.528089
vn 0.275950 -0.219393 -0.935798
vn 0.610273 -0.563933 -0.556369
vn 0.304813 -0.792598 -0.528089
vn 0.172980 -0.361949 -0.916008
vn -0.399367 0.783990 0.475254
vn -0.254002 0.437282 0.862709
vn -0.101606 0.473168 0.875093
vn -0.165404 0.851585 0.497438
vn -0.146922 0.976469 -0.157870
vn -0.511657 0.849760 -0.126946
vn -0.388685 0.753280 -0.530559
vn -0.107343 0.837886 -0.535187
vn 0.172980 -0.361949 -0.916008
vn 0.304813 -0.792598 -0.528089
vn 0.095348 -0.839220 -0.535368
vn 0.055858 -0.412939 -0.909044
vn 0.304813 -0.792598 -0.528089
vn 0.322556 -0.939952 -0.111573
vn 0.102001 -0.991766 -0.077438
vn 0.095348 -0.839220 -0.535368
vn 0.322556 -0.939952 -0.111573
vn 0.322556 -0.939952 0.111574
vn 0.102001 -0.991766 0.077438
vn 0.102001 -0.991766 -0.077438
vn 0.322556 -0.939952 0.111574
vn 0.305003 -0.792028 0.528834
vn 0.095264 -0.839931 0.534267
vn 0.102001 -0.991766 0.077438
vn -0.846781 0.518573 0.118510
vn -0.510247 0.851887 0.118053
vn -0.387896 0.756067 0.527161
vn -0.716548 0.422130 0.555307
vn -0.399629 0.783840 -0.475281
vn -0.252948 0.437173 -0.863074
vn -0.423821 0.281891 -0.860763
vn -0.673077 0.556461 -0.487153
vn -0.416354 0.904478 -0.092566
vn -0.179120 0.981230 -0.071440
vn -0.165409 0.851818 -0.497037
vn -0.399629 0.783840 -0.475281
vn -0.416354 0.904478 0.092566
vn -0.179120 0.981230 0.071440
vn -0.179120 0.981230 -0.071440
vn -0.416354 0.904478 -0.092566
vn -0.399367 0.783990 0.475254
vn -0.165404 0.851585 0.497438
vn -0.179120 0.981230 0.071440
vn -0.416354 0.904478 0.092566
vn -0.425182 0.281620 0.860181
vn -0.254002 0.437282 0.862709
vn -0.399367 0.783990 0.475254
vn -0.673749 0.556700 0.485950
vn -0.726988 0.403044 -0.555918
vn -0.388685 0.753280 -0.530559
vn -0.511657 0.849760 -0.126946
vn -0.858181 0.498739 -0.121591
vn -0.489742 0.015856 0.871723
vn -0.490609 0.029621 0.870876
vn -0.806181 0.079306 0.586330
vn -0.789861 0.029915 0.612556
vn -0.814877 0.024607 -0.579111
vn -0.814330 0.038691 -0.579111
vn -0.990744 0.048161 -0.126915
vn -0.990244 0.027606 -0.136585
vn 0.326118 -0.010707 -0.945269
vn 0.710230 -0.023693 -0.703571
vn 0.732220 -0.082346 -0.676072
vn 0.325714 -0.026238 -0.945104
vn -0.399629 0.783840 -0.475281
vn -0.165409 0.851818 -0.497037
vn -0.101516 0.473051 -0.875167
vn -0.252948 0.437173 -0.863074
vn -0.510247 0.851887 0.118053
vn -0.145760 0.976835 0.156678
vn -0.106048 0.838174 0.534994
vn -0.387896 0.756067 0.527161
vn 0.305003 -0.792028 0.528834
vn 0.171689 -0.362049 0.916211
vn 0.055539 -0.412941 0.909063
vn 0.095264 -0.839931 0.534267
vn -0.716548 0.422130 0.555307
vn -0.814117 0.039251 0.579373
vn -0.989194 0.048193 0.138469
vn -0.846781 0.518573 0.118510
vn 0.731270 -0.082095 0.677130
vn 0.325742 -0.026492 0.945087
vn 0.273550 -0.222871 0.935681
vn 0.609374 -0.564637 0.556640
vn -0.520110 0.323035 0.790654
vn -0.550323 0.718147 0.425922
vn -0.345011 0.809032 0.475852
vn -0.300674 0.405026 0.863452
vn -0.146922 0.976469 -0.157870
vn -0.044834 0.903388 -0.426475
vn -0.053548 0.909092 0.413139
vn -0.133690 0.906370 0.400775
vn -0.419407 0.830280 0.367061
vn -0.511657 0.849760 -0.126946
vn -0.146922 0.976469 -0.157870
vn -0.133690 0.906370 0.400775
vn -0.858181 0.498739 -0.121591
vn -0.511657 0.849760 -0.126946
vn -0.419407 0.830280 0.367061
vn -0.797469 0.442086 0.410613
vn -0.907990 0.039177 0.417157
vn -0.990744 0.048161 -0.126915
vn -0.858181 0.498739 -0.121591
vn -0.797469 0.442086 0.410613
vn -0.990244 0.027606 -0.136585
vn -0.990744 0.048161 -0.126915
vn -0.907990 0.039177 0.417157
vn -0.909904 0.023181 0.414170
vn 0.041619 0.996110 -0.077675
vn 0.027915 0.994618 -0.099777
vn -0.131515 0.940057 0.314638
vn -0.177025 0.966841 0.184068
vn 0.033474 0.999404 -0.008429
vn 0.041619 0.996110 -0.077675
vn -0.177025 0.966841 0.184068
vn -0.217041 0.975256 0.042066
vn 0.033474 0.999404 0.008429
vn 0.033474 0.999404 -0.008429
vn -0.217041 0.975256 0.042066
vn -0.217042 0.975255 -0.042067
vn 0.041619 0.996110 0.077674
vn 0.033474 0.999404 0.008429
vn -0.217042 0.975255 -0.042067
vn -0.177027 0.966840 -0.184069
vn 0.027915 0.994618 0.099777
vn 0.041619 0.996110 0.077674
vn -0.177027 0.966840 -0.184069
vn -0.131517 0.940056 -0.314639
vn -0.908181 0.038471 -0.416807
vn -0.989194 0.048193 0.138469
vn -0.990156 0.027611 0.137217
vn -0.909878 0.023187 -0.414227
vn -0.846781 0.518573 0.118510
vn -0.989194 0.048193 0.138469
vn -0.908181 0.038471 -0.416807
vn -0.790896 0.451835 -0.412710
vn -0.423776 0.826868 -0.369734
vn -0.510247 0.851887 0.118053
vn -0.846781 0.518573 0.118510
vn -0.790896 0.451835 -0.412710
vn -0.132864 0.906298 -0.401211
vn -0.145760 0.976835 0.156678
vn -0.510247 0.851887 0.118053
vn -0.423776 0.826868 -0.369734
vn -0.044834 0.903388 0.426475
vn -0.145760 0.976835 0.156678
vn -0.132864 0.906298 -0.401211
vn -0.053548 0.909093 -0.413138
vn -0.550323 0.718147 -0.425922
vn -0.520110 0.323035 -0.790654
vn -0.300674 0.405026 -0.863452
vn -0.345011 0.809032 -0.475852
s off
g polySurface89pCylinder57
usemtl initialShadingGroup
f 8/1/1 2/2/2 1/3/3 7/4/4
f 11/5/5 5/6/6 71/7/7 10/8/8
f 12/9/9 6/10/10 5/6/11 11/5/12
f 7/4/13 1/3/14 6/10/15 12/9/16
f 64/11/17 53/12/18 14/13/19 13/14/20
f 54/15/21 15/16/22 14/13/23 53/12/24
f 62/17/25 17/18/26 16/19/27 61/20/28
f 63/21/29 18/22/30 17/18/31 62/17/32
f 64/11/33 13/14/34 18/22/35 63/21/36
f 1/3/37 2/2/38 23/23/39 24/24/40
f 3/25/41 23/23/42 2/2/43 67/26/44
f 5/6/45 26/27/46 4/28/47 71/7/48
f 5/6/49 6/10/50 25/29/51 26/27/52
f 6/10/53 1/3/54 24/24/55 25/29/56
f 24/24/57 23/23/58 20/30/59 19/31/60
f 25/29/61 24/24/62 19/31/63 22/32/64
f 26/27/65 25/29/66 22/32/67 21/33/68
f 34/34/69 33/35/70 27/36/71 28/37/72
f 29/38/73 68/39/74 28/37/75 52/40/76
f 37/41/77 36/42/78 72/43/79 31/44/80
f 38/45/81 37/41/82 31/44/83 32/46/84
f 33/35/85 38/45/86 32/46/87 27/36/88
f 33/47/89 34/48/90 79/49/91 80/50/92
f 34/48/93 35/51/94 78/52/95 79/49/96
f 36/53/97 37/54/98 82/55/99 83/56/100
f 37/54/101 38/57/102 81/58/103 82/55/104
f 38/57/105 33/47/106 80/50/107 81/58/108
f 76/59/109 77/60/110 68/61/111 29/62/112
f 83/63/113 84/64/114 72/65/115 36/66/116
f 56/67/117 57/68/118 39/69/119 40/70/120
f 55/71/121 56/67/122 40/70/123 41/72/124
f 59/73/125 60/74/126 42/75/127 43/76/128
f 58/77/129 59/73/130 43/76/131 44/78/132
f 57/68/133 58/77/134 44/78/135 39/69/136
f 40/79/137 39/80/138 13/14/139 14/13/140
f 41/81/141 40/79/142 73/82/143
f 43/83/144 42/84/145 88/85/146
f 44/86/147 43/83/148 17/18/149 18/22/150
f 39/80/151 44/86/152 18/22/153 13/14/154
f 55/87/155 41/88/156 73/89/157 74/90/158
f 42/91/159 60/92/160 87/93/161 88/94/162
f 28/37/163 27/36/164 51/95/165 52/40/166
f 32/46/167 31/44/168 49/96/169 50/97/170
f 27/36/171 32/46/172 50/97/173 51/95/174
f 47/98/175 49/99/176 30/100/177 70/101/178
f 50/97/179 49/99/180 47/98/181 48/102/182
f 51/95/183 50/97/184 48/102/185 45/103/186
f 52/104/187 51/95/188 45/103/189 46/105/190
f 29/106/191 52/104/192 46/105/193 66/107/194
f 20/30/195 65/108/196 54/15/197 53/12/198
f 74/90/199 75/109/200 66/110/201 55/87/202
f 66/107/203 46/105/204 56/67/205 55/71/206
f 46/105/207 45/103/208 57/68/209 56/67/210
f 45/103/211 48/102/212 58/77/213 57/68/214
f 48/102/215 47/98/216 59/73/217 58/77/218
f 85/111/219 86/112/220 70/113/221 30/114/222
f 21/33/223 69/115/224 4/28/225 26/27/226
f 22/32/227 63/21/228 62/17/229 21/33/230
f 19/31/231 64/11/232 63/21/233 22/32/234
f 20/30/235 53/12/236 64/11/237 19/31/238
f 3/25/239 65/108/240 20/30/241 23/23/242
f 29/62/243 66/110/244 75/109/245 76/59/246
f 9/116/247 67/26/248 2/2/249 8/1/250
f 35/117/251 68/61/252 77/60/253 78/118/254
f 35/119/255 34/34/256 28/37/257 68/39/258
f 21/33/259 62/17/260 61/20/261 69/115/262
f 86/112/263 87/93/264 60/92/265 70/113/266
f 47/98/267 70/101/268 60/74/269 59/73/270
f 30/114/271 72/65/272 84/64/273 85/111/274
f 31/44/275 72/43/276 30/120/277 49/96/278
f 73/82/279 40/79/280 14/13/281 15/16/282
f 74/90/283 73/89/284 15/16/285 54/15/286
f 65/108/287 75/109/288 74/90/289 54/15/290
f 76/59/291 75/109/292 65/108/293 3/25/294
f 67/26/295 77/60/296 76/59/297 3/25/298
f 78/118/299 77/60/300 67/26/301 9/116/302
f 79/49/303 78/52/304 9/121/305 8/122/306
f 80/50/307 79/49/308 8/122/309 7/123/310
f 81/58/311 80/50/312 7/123/313 12/124/314
f 82/55/315 81/58/316 12/124/317 11/125/318
f 83/56/319 82/55/320 11/125/321 10/126/322
f 71/7/323 84/64/324 83/63/325 10/8/326
f 85/111/327 84/64/328 71/7/329 4/28/330
f 69/115/331 86/112/332 85/111/333 4/28/334
f 61/20/335 87/93/336 86/112/337 69/115/338
f 88/94/339 87/93/340 61/20/341 16/19/342
f 43/83/343 88/85/344 16/19/345 17/18/346
