# This file uses centimeters as units for non-parametric coordinates.

mtllib MazeBig03_platformCOL.mtl
g default
v 2.500000 -0.649754 -4.972427
v -2.500000 -0.649754 -4.972427
v 2.500000 0.649754 0.000000
v -2.500000 0.649754 0.000000
v 2.500000 -0.649754 0.000000
v -2.500000 -0.649754 0.000000
v 2.500000 0.649754 -4.972427
v -2.500000 0.649754 -4.972427
vt 0.709537 0.762503
vt 0.651593 0.762503
vt 0.651593 0.748766
vt 0.709537 0.748766
vt 0.651593 0.692464
vt 0.709537 0.692464
vt 0.709537 0.820128
vt 0.651593 0.820128
vt 0.638792 0.764762
vt 0.636533 0.820128
vt 0.722338 0.764762
vt 0.724597 0.820128
vn 0.000000 0.000000 -1.000000
vn 0.000000 0.000000 -1.000000
vn 0.000000 0.000000 -1.000000
vn 0.000000 0.000000 -1.000000
vn 0.000000 1.000000 0.000000
vn 0.000000 1.000000 0.000000
vn 0.000000 1.000000 0.000000
vn 0.000000 1.000000 0.000000
vn 0.000000 -1.000000 0.000000
vn 0.000000 -1.000000 0.000000
vn 0.000000 -1.000000 0.000000
vn 0.000000 -1.000000 0.000000
vn -1.000000 0.000000 0.000000
vn -1.000000 0.000000 0.000000
vn -1.000000 0.000000 0.000000
vn 1.000000 0.000000 0.000000
vn 1.000000 0.000000 0.000000
vn 1.000000 0.000000 0.000000
vn -1.000000 0.000000 -0.000000
vn -1.000000 0.000000 0.000000
vn -1.000000 0.000000 0.000000
vn 1.000000 0.000000 0.000000
vn 1.000000 0.000000 0.000000
vn 1.000000 0.000000 0.000000
vn 1.000000 0.000000 0.000000
vn 1.000000 0.000000 0.000000
vn 1.000000 0.000000 0.000000
vn 1.000000 0.000000 0.000000
vn 1.000000 0.000000 0.000000
vn 1.000000 0.000000 0.000000
s off
g polySurface263polySurface105
usemtl blinn1SG
f 1/1/1 2/2/2 8/3/3 7/4/4
f 7/4/5 8/3/6 4/5/7 3/6/8
f 5/7/9 6/8/10 2/2/11 1/1/12
f 8/9/13 6/8/14 4/10/15
f 5/7/16 1/1/17 7/11/18
f 2/2/19 6/8/20 8/9/21
f 5/7/22 7/11/23 3/12/24
