# This file uses centimeters as units for non-parametric coordinates.

mtllib MazeBoss02.mtl
g default
v 34.398491 24.782902 -10.584009
v -33.996880 24.782902 -10.584009
v 34.398472 26.991798 -6.471386
v -33.996895 26.991798 -6.471382
v 34.398472 24.782902 -6.471386
v -33.996895 24.782902 -6.471382
v 34.398491 26.991798 -10.126858
v 34.398491 26.534641 -10.584009
v -33.996880 26.534641 -10.584009
v -33.996880 26.991798 -10.126858
v 34.398487 -0.806868 -10.583937
v -33.996880 -0.806868 -10.584028
v -33.996899 24.782885 10.584030
v -33.996899 -0.806884 10.584015
v 6.902279 29.766928 -2.121054
v -5.112809 29.766928 -2.121054
v 6.902279 32.011810 10.388474
v -5.112808 32.011810 10.388474
v 6.902279 29.766928 10.388474
v -5.112809 29.766928 10.388474
v 6.231955 32.011810 -1.672117
v 6.902279 31.562880 -2.121054
v -4.442484 32.011810 -1.672123
v -5.112809 31.562880 -2.121054
v 37.337448 24.344721 10.388474
v 37.337448 24.344709 -2.121054
v 37.337448 26.140669 -2.121054
v 37.337456 26.589621 -1.672117
v 37.337456 26.589621 10.388474
v -30.210443 26.887835 -2.121054
v -33.996887 25.094671 10.388474
v -33.996891 27.339567 10.388474
v -30.210443 27.336775 -1.672123
v -30.210440 25.091864 -2.121054
v 0.894735 29.766928 -2.121054
v 0.894735 32.011810 -1.672119
v 5.725105 29.767162 -6.128174
v 0.963232 29.767162 -7.846474
v -3.798641 29.767162 -6.128174
v 5.725105 31.562677 -6.128174
v 5.037833 31.976460 -5.505829
v 0.963232 31.563082 -7.846474
v 0.963232 31.976208 -6.977352
v -3.798641 31.562681 -6.128174
v -3.114652 31.976460 -5.506035
v -36.660736 26.866610 -4.183306
v -42.989063 25.070633 6.607456
v -42.765110 27.315523 6.668282
v -36.663887 27.315550 -3.735231
v -36.884686 25.070639 -4.244131
v -34.018902 50.353313 -2.491518
v -34.130878 52.598236 -2.072512
v -34.018902 52.149284 -2.491520
v 6.901781 56.022232 -2.121054
v -5.451226 56.022232 -2.121054
v 6.901781 58.267113 10.388474
v -5.451226 58.267113 10.388474
v 6.901781 56.022232 10.388474
v -5.451226 56.022232 10.388474
v 6.901774 58.267113 -1.672117
v 6.901781 57.818180 -2.121054
v -5.451219 58.267113 -1.672123
v -5.451226 57.818180 -2.121054
v 37.337444 50.690224 10.388474
v 37.043156 50.581776 -2.042179
v 37.043159 52.377743 -2.042179
v 37.155132 52.826694 -1.623169
v 37.337452 52.935143 10.388474
v -33.996887 50.847023 10.388474
v -33.996895 53.091942 10.388474
v 42.989063 50.473362 8.878666
v 42.989063 52.718246 8.878666
v -33.996899 24.836689 10.388474
v 37.337452 24.836689 10.388474
v -33.996899 24.836689 -6.471382
v 37.337452 24.836689 -6.471382
vt 0.489997 0.246018
vt 0.007833 0.246738
vt 0.007809 0.231165
vt 0.489973 0.230445
vt 0.493150 0.201444
vt 0.505549 0.230417
vt 0.489932 0.204672
vt 0.007770 0.205395
vt 0.007763 0.200837
vt 0.489925 0.200114
vt 0.007740 0.188487
vt 0.489911 0.187764
vt 0.505499 0.201414
vt 0.007465 0.008082
vt 0.489645 0.007359
vt 0.634850 0.954022
vt 0.634850 0.773617
vt 0.784082 0.773617
vt 0.784082 0.954022
vt 0.290834 0.489903
vt 0.329378 0.491306
vt 0.333916 0.576591
vt 0.886465 0.200189
vt 0.928719 0.288427
vt 0.886366 0.288379
vt 0.560265 0.484644
vt 0.606258 0.550349
vt 0.593067 0.556568
vt 0.558461 0.488944
vt 0.007248 0.576354
vt 0.007462 0.486103
vt 0.020419 0.486146
vt 0.023650 0.489303
vt 0.023442 0.576498
vt 0.570927 0.479587
vt 0.245016 0.382022
vt 0.244603 0.472620
vt 0.020893 0.472020
vt 0.021313 0.381435
vt 0.246831 0.485377
vt 0.023108 0.484777
vt 0.252234 0.489158
vt 0.247160 0.576636
vt 0.513660 0.491517
vt 0.536082 0.576522
vt 0.334679 0.487655
vt 0.514218 0.486858
vt 0.337007 0.475506
vt 0.335993 0.389693
vt 0.536814 0.386075
vt 0.515871 0.473673
vt 0.894633 0.316638
vt 0.928190 0.328790
vt 0.961774 0.316714
vt 0.971071 0.288475
vt 0.642222 0.508676
vt 0.644121 0.502587
vt 0.672230 0.502577
vt 0.672564 0.509542
vt 0.769337 0.503039
vt 0.770980 0.509274
vt 0.740544 0.509813
vt 0.740956 0.502841
vt 0.706401 0.502739
vt 0.706329 0.509060
vt 0.643996 0.489816
vt 0.672163 0.489827
vt 0.706517 0.489883
vt 0.740927 0.490101
vt 0.769383 0.490140
vt 0.261711 0.461587
vt 0.291391 0.451793
vt 0.320504 0.463223
vt 0.971170 0.200284
vt 0.559347 0.485058
vt 0.595598 0.406185
vt 0.561640 0.477310
vt 0.264212 0.673401
vt 0.353345 0.673775
vt 0.351760 0.686379
vt 0.265556 0.685893
vt 0.265862 0.690375
vt 0.351349 0.690831
vt 0.351034 0.775576
vt 0.264451 0.774883
vt 0.265101 0.584828
vt 0.352169 0.584956
vt 0.048204 0.673913
vt 0.047489 0.586347
vt 0.050242 0.686388
vt 0.049943 0.690775
vt 0.047206 0.775216
vt 0.557370 0.690512
vt 0.555442 0.778351
vt 0.557207 0.686116
vt 0.556929 0.582740
vt 0.559573 0.673678
vt 0.007502 0.596386
vt 0.007628 0.763918
vt 0.511426 0.373259
vt 0.008528 0.373259
vt 0.008528 0.254399
vt 0.511426 0.254399
vn 0.000000 0.000000 1.000000
vn 0.000000 0.000000 1.000000
vn 0.000000 0.000000 1.000000
vn 0.000000 0.000000 1.000000
vn -1.000000 0.000000 -0.000004
vn -1.000000 -0.000001 -0.000004
vn -1.000000 -0.000001 -0.000004
vn -1.000000 -0.000001 -0.000004
vn 0.000000 0.993878 -0.110479
vn 0.000000 0.202664 -0.979248
vn 0.000000 0.202664 -0.979248
vn 0.000000 0.993879 -0.110479
vn 0.000000 0.202664 -0.979248
vn 0.000000 0.202664 -0.979248
vn 0.000001 -0.000001 -1.000000
vn 0.000001 -0.000001 -1.000000
vn 0.000000 1.000000 0.000000
vn 0.000000 1.000000 0.000000
vn 0.000000 0.993878 -0.110479
vn 0.000000 0.993879 -0.110479
vn -1.000000 0.000000 -0.000004
vn -1.000000 -0.000001 -0.000004
vn -1.000000 0.000000 -0.000004
vn 0.000001 -0.000001 -1.000000
vn 0.000001 -0.000001 -1.000000
vn 0.000001 -0.000001 -1.000000
vn 0.000001 -0.000001 -1.000000
vn -1.000000 0.000000 -0.000001
vn -1.000000 0.000000 -0.000001
vn -1.000000 0.000000 -0.000001
vn -1.000000 0.000000 -0.000001
vn -0.000001 1.000000 -0.000927
vn -0.149582 0.988355 -0.027943
vn -0.136488 0.990318 -0.025311
vn -0.142234 -0.989833 0.000000
vn 0.000000 -1.000000 -0.000006
vn -0.156472 -0.987683 -0.000001
vn -0.860884 0.144571 -0.487830
vn -0.857608 0.160161 -0.488730
vn -0.857075 0.162600 -0.488860
vn -0.857075 0.162600 -0.488860
vn 1.000000 -0.000005 0.000000
vn 1.000000 0.000000 0.000000
vn 1.000000 -0.000003 0.000000
vn 1.000000 -0.000005 0.000000
vn 1.000000 -0.000003 0.000000
vn 1.000000 -0.000005 0.000000
vn 1.000000 -0.000005 0.000000
vn -0.864803 0.124314 -0.486479
vn -0.857608 0.160161 -0.488730
vn -0.860884 0.144571 -0.487830
vn -0.142234 -0.989833 0.000000
vn -0.156472 -0.987683 -0.000001
vn -0.175394 -0.984498 0.000000
vn -0.175394 -0.984498 0.000000
vn 0.000000 0.000000 -1.000000
vn 0.000000 0.000000 -1.000000
vn 0.000000 0.000000 -1.000000
vn 0.000000 0.000000 -1.000000
vn 0.131884 0.748424 -0.649976
vn 0.131884 0.748424 -0.649975
vn 0.131884 0.748424 -0.649975
vn 0.131884 0.748424 -0.649975
vn 0.131778 0.991272 -0.003821
vn 0.138197 0.990397 -0.003840
vn 0.173539 0.984815 -0.004822
vn 0.173539 0.984815 -0.004822
vn -0.136488 0.990318 -0.025311
vn -0.149582 0.988355 -0.027943
vn -0.135467 0.990460 -0.025275
vn -0.126182 0.991727 -0.023596
vn -0.137849 0.749916 -0.647011
vn -0.137849 0.749916 -0.647011
vn -0.047577 0.744066 -0.666410
vn -0.074462 0.746471 -0.661238
vn 0.126067 -0.991837 0.019160
vn 0.128711 -0.991489 0.019563
vn 0.126927 -0.991720 0.019498
vn 0.135798 -0.990518 0.020804
vn 0.000000 0.000000 -1.000000
vn 0.000000 0.000000 -1.000000
vn 0.072777 -0.000673 -0.997348
vn 0.060262 -0.000557 -0.998183
vn 0.000007 -1.000000 -0.000049
vn -0.156472 -0.987683 -0.000001
vn 0.000000 -1.000000 -0.000006
vn 0.000000 -1.000000 -0.000041
vn 0.000007 -1.000000 -0.000049
vn 0.000000 -1.000000 -0.000006
vn -0.000007 -1.000000 -0.000050
vn 0.000000 -1.000000 -0.000041
vn 0.000000 -1.000000 -0.000006
vn 0.126067 -0.991837 0.019160
vn -0.000007 -1.000000 -0.000050
vn 0.000000 -1.000000 -0.000006
vn 0.449950 0.881999 -0.140078
vn 0.449950 0.881999 -0.140078
vn 0.299667 0.906839 -0.296384
vn 0.295674 0.906907 -0.300160
vn -0.442055 0.883851 -0.152956
vn -0.442055 0.883851 -0.152956
vn -0.291953 0.906320 -0.305527
vn -0.298262 0.906227 -0.299654
vn 0.295674 0.906907 -0.300160
vn 0.299667 0.906839 -0.296384
vn 0.000006 0.903085 -0.429462
vn 0.000017 0.903085 -0.429462
vn 0.000017 0.903085 -0.429462
vn 0.000006 0.903085 -0.429462
vn -0.298262 0.906227 -0.299654
vn -0.291953 0.906320 -0.305527
vn 0.959456 0.000000 -0.281860
vn 0.694048 0.000000 -0.719929
vn 0.694038 0.000000 -0.719938
vn 0.959456 0.000000 -0.281860
vn 0.694048 0.000000 -0.719929
vn -0.000000 0.000000 -1.000000
vn -0.000000 0.000000 -1.000000
vn 0.694038 0.000000 -0.719938
vn -0.000000 0.000000 -1.000000
vn -0.685804 0.000000 -0.727787
vn -0.685794 0.000000 -0.727796
vn -0.000000 0.000000 -1.000000
vn -0.685804 0.000000 -0.727787
vn -0.950204 0.000000 -0.311627
vn -0.950204 0.000000 -0.311627
vn -0.685794 0.000000 -0.727796
vn 0.131778 0.991272 -0.003821
vn 0.001193 0.999968 -0.007932
vn -0.000001 1.000000 -0.000927
vn 0.001193 0.999968 -0.007932
vn 0.000025 0.999978 -0.006710
vn -0.000001 1.000000 -0.000927
vn 0.000025 0.999978 -0.006710
vn -0.001199 0.999968 -0.007966
vn -0.000001 1.000000 -0.000927
vn -0.001199 0.999968 -0.007966
vn -0.149582 0.988355 -0.027943
vn -0.000001 1.000000 -0.000927
vn 0.131778 0.991272 -0.003821
vn -0.000001 1.000000 -0.000927
vn -0.136488 0.990318 -0.025311
vn 0.138197 0.990397 -0.003840
vn -0.142234 -0.989833 0.000000
vn 0.128711 -0.991489 0.019563
vn 0.126067 -0.991837 0.019160
vn 0.000000 -1.000000 -0.000006
vn -0.126182 0.991727 -0.023596
vn -0.135467 0.990460 -0.025275
vn -0.002508 0.999996 -0.001227
vn -0.002508 0.999996 -0.001227
vn -0.074462 0.746471 -0.661238
vn -0.047577 0.744066 -0.666410
vn 0.218326 0.690096 -0.690001
vn 0.218326 0.690096 -0.690001
vn 0.135798 -0.990518 0.020804
vn 0.126927 -0.991720 0.019498
vn 0.002453 -0.999996 0.001158
vn 0.002453 -0.999996 0.001158
vn 0.060262 -0.000557 -0.998183
vn 0.072777 -0.000673 -0.997348
vn 0.303826 -0.002809 -0.952723
vn 0.303826 -0.002809 -0.952723
vn 0.001913 0.000000 -0.999998
vn 0.009366 0.000000 -0.999956
vn 0.008680 0.000000 -0.999962
vn 0.001789 0.000000 -0.999998
vn 0.125049 0.992142 -0.004120
vn -0.132079 0.991150 -0.013321
vn -0.131745 0.991195 -0.013288
vn 0.125085 0.992137 -0.004122
vn -0.125210 -0.992120 0.004539
vn 0.131862 -0.991177 0.013399
vn 0.132174 -0.991136 0.013430
vn -0.125151 -0.992127 0.004537
vn 0.086298 0.690606 -0.718064
vn 0.090355 0.689693 -0.718442
vn -0.090082 0.689824 -0.718351
vn -0.085127 0.690932 -0.717890
vn -0.125210 -0.992120 0.004539
vn -0.125151 -0.992127 0.004537
vn -0.171408 -0.985179 0.006435
vn -0.164956 -0.986279 0.006588
vn 0.001913 0.000000 -0.999998
vn 0.001789 0.000000 -0.999998
vn 0.002617 0.000000 -0.999997
vn 0.002617 0.000000 -0.999997
vn 0.090355 0.689693 -0.718442
vn 0.086298 0.690606 -0.718064
vn 0.124319 0.681566 -0.721119
vn 0.124319 0.681566 -0.721119
vn 0.125049 0.992142 -0.004120
vn 0.125085 0.992137 -0.004122
vn 0.164799 0.986309 -0.006039
vn 0.170960 0.985260 -0.005866
vn -0.131745 0.991195 -0.013288
vn -0.132079 0.991150 -0.013321
vn -0.186024 0.982366 -0.018762
vn -0.186024 0.982366 -0.018762
vn -0.085127 0.690932 -0.717890
vn -0.090082 0.689824 -0.718351
vn -0.125246 0.681428 -0.721089
vn -0.125246 0.681428 -0.721089
vn 0.132174 -0.991136 0.013430
vn 0.131862 -0.991177 0.013399
vn 0.186386 -0.982294 0.018939
vn 0.186386 -0.982294 0.018939
vn 0.008680 0.000000 -0.999962
vn 0.009366 0.000000 -0.999956
vn 0.012967 -0.000001 -0.999916
vn 0.012967 -0.000001 -0.999916
vn -0.164956 -0.986279 0.006588
vn -0.171408 -0.985179 0.006435
vn -0.035790 -0.999314 0.009566
vn 0.170960 0.985260 -0.005866
vn 0.164799 0.986309 -0.006039
vn 0.035796 0.999313 -0.009566
vn 0.000000 1.000000 0.000000
vn 0.000000 1.000000 0.000000
vn 0.000000 1.000000 0.000000
vn 0.000000 1.000000 0.000000
s off
g polySurface308
usemtl blinn1SG
f 6/1/1 5/2/2 3/3/3 4/4/4
f 9/5/5 6/6/6 4/4/7 10/7/8
f 7/8/9 8/9/10 9/10/11 10/7/12
f 9/10/13 8/9/14 1/11/15 2/12/16
f 4/4/17 3/3/18 7/8/19 10/7/20
f 2/13/21 6/6/22 9/5/23
f 11/14/24 12/15/25 2/12/26 1/11/27
f 2/16/28 12/17/29 14/18/30 13/19/31
f 36/20/32 23/21/33 18/22/34
f 19/23/35 35/24/36 15/25/37
f 46/26/38 47/27/39 48/28/40 49/29/41
f 25/30/42 26/31/43 27/32/44
f 25/30/45 27/32/46 28/33/47 29/34/48
f 50/35/49 47/27/50 46/26/51
f 19/36/52 15/37/53 26/38/54 25/39/55
f 15/37/56 22/40/57 27/41/58 26/38/59
f 22/40/60 21/42/61 28/33/62 27/41/63
f 21/42/64 17/43/65 29/34/66 28/33/67
f 18/22/68 23/21/69 33/44/70 32/45/71
f 23/21/72 24/46/73 30/47/74 33/44/75
f 16/48/76 20/49/77 31/50/78 34/51/79
f 24/46/80 16/48/81 34/51/82 30/47/83
f 37/52/84 15/25/85 35/24/86
f 38/53/87 37/52/88 35/24/89
f 39/54/90 38/53/91 35/24/92
f 16/55/93 39/54/94 35/24/95
f 21/56/96 22/57/97 40/58/98 41/59/99
f 24/60/100 23/61/101 45/62/102 44/63/103
f 41/59/104 40/58/105 42/64/106 43/65/107
f 43/65/108 42/64/109 44/63/110 45/62/111
f 15/66/112 37/67/113 40/58/114 22/57/115
f 37/67/116 38/68/117 42/64/118 40/58/119
f 38/68/120 39/69/121 44/63/122 42/64/123
f 39/69/124 16/70/125 24/60/126 44/63/127
f 21/42/128 41/71/129 36/20/130
f 41/71/131 43/72/132 36/20/133
f 43/72/134 45/73/135 36/20/136
f 45/73/137 23/21/138 36/20/139
f 21/42/140 36/20/141 18/22/142 17/43/143
f 19/23/144 20/74/145 16/55/146 35/24/147
f 32/45/148 33/44/149 49/29/150 48/28/151
f 33/44/152 30/47/153 46/75/154 49/29/155
f 34/51/156 31/50/157 47/76/158 50/77/159
f 30/47/160 34/51/161 50/77/162 46/75/163
f 54/78/164 55/79/165 63/80/166 61/81/167
f 60/82/168 62/83/169 57/84/170 56/85/171
f 58/86/172 59/87/173 55/79/174 54/78/175
f 60/82/176 61/81/177 63/80/178 62/83/179
f 58/86/180 54/78/181 65/88/182 64/89/183
f 54/78/184 61/81/185 66/90/186 65/88/187
f 61/81/188 60/82/189 67/91/190 66/90/191
f 60/82/192 56/85/193 68/92/194 67/91/195
f 57/84/196 62/83/197 52/93/198 70/94/199
f 62/83/200 63/80/201 53/95/202 52/93/203
f 55/79/204 59/87/205 69/96/206 51/97/207
f 63/80/208 55/79/209 51/97/210 53/95/211
f 64/89/212 65/88/213 71/98/214
f 67/91/215 68/92/216 72/99/217
f 73/100/218 74/101/219 76/102/220 75/103/221
