# This file uses centimeters as units for non-parametric coordinates.

mtllib MazeBoss02_backCOL.mtl
g default
v 20.836449 98.750160 -2.737200
v 20.836449 98.750160 10.388474
v 20.836449 77.254173 -2.737200
v 20.836449 77.254173 10.388474
vt 0.000000 0.000000
vt 1.000000 0.000000
vt 1.000000 1.000000
vt 0.000000 1.000000
vn -1.000000 0.000000 0.000000
vn -1.000000 0.000000 0.000000
vn -1.000000 0.000000 0.000000
vn -1.000000 0.000000 0.000000
s off
g polySurface315
usemtl initialShadingGroup
f 3/1/1 4/2/2 2/3/3 1/4/4
g default
v -19.712946 98.750160 -2.737200
v -19.712946 98.750160 10.388474
v -19.712946 77.254173 10.388474
v -19.712946 77.254173 -2.737200
vt 0.000000 0.000000
vt 1.000000 0.000000
vt 1.000000 1.000000
vt 0.000000 1.000000
vn 1.000000 0.000000 0.000000
vn 1.000000 0.000000 0.000000
vn 1.000000 0.000000 0.000000
vn 1.000000 0.000000 0.000000
s off
g polySurface314
usemtl initialShadingGroup
f 7/5/5 8/6/6 5/7/7 6/8/8
g default
v -19.712946 77.254173 10.388474
v -19.712946 98.750160 10.388474
v 20.836449 98.750160 10.388474
v 20.836449 77.254173 10.388474
vt 0.000000 0.000000
vt 1.000000 0.000000
vt 1.000000 1.000000
vt 0.000000 1.000000
vn 0.000000 0.000000 -1.000000
vn 0.000000 0.000000 -1.000000
vn 0.000000 0.000000 -1.000000
vn 0.000000 0.000000 -1.000000
s off
g polySurface312
usemtl initialShadingGroup
f 12/9/9 9/10/10 10/11/11 11/12/12
g default
v -19.712946 77.254173 -2.737200
v 20.836449 77.254173 -2.737200
v -31.506168 77.254173 -10.441952
v 34.579067 77.265350 -9.900230
v -19.712946 77.254173 10.388474
v -33.996887 77.254173 10.388474
v 37.337448 77.254173 10.388474
v 20.836449 77.254173 10.388474
v 42.982250 77.276527 8.882587
vt 0.666667 0.000000
vt 1.000000 0.000000
vt 0.902569 1.010841
vt 0.666667 0.666991
vt 0.333333 0.666991
vt 0.057873 1.003935
vt 0.000000 0.000000
vt 0.333333 0.000000
vt 0.000000 0.000000
vt 0.998411 -0.001126
vt 0.000000 1.000000
vn 0.000000 -1.000000 0.000000
vn 0.000000 -1.000000 0.000000
vn 0.000051 -1.000000 -0.000350
vn 0.000073 -1.000000 -0.000500
vn 0.000167 -1.000000 -0.000612
vn 0.000073 -1.000000 -0.000500
vn 0.000051 -1.000000 -0.000350
vn 0.000329 -1.000000 -0.000520
vn 0.000924 -0.999999 -0.000488
vn 0.000285 -1.000000 -0.000358
vn 0.000167 -1.000000 -0.000612
vn 0.000329 -1.000000 -0.000520
vn 0.000924 -0.999999 -0.000488
vn 0.000329 -1.000000 -0.000520
vn 0.003680 -0.999993 -0.001050
s off
g polySurface309
usemtl initialShadingGroup
f 17/13/13 18/14/14 15/15/15 13/16/16
f 14/17/17 13/16/18 15/15/19 16/18/20
f 19/19/21 20/20/22 14/17/23 16/18/24
f 19/21/25 16/22/26 21/23/27
g default
v 20.836449 77.254173 -2.737200
v 20.836449 98.750160 -2.737200
v -19.712946 98.750160 -2.737200
v -19.712946 77.254173 -2.737200
vt 0.000000 0.000000
vt 1.000000 0.000000
vt 1.000000 1.000000
vt 0.000000 1.000000
vn 0.000000 0.000000 1.000000
vn 0.000000 0.000000 1.000000
vn 0.000000 0.000000 1.000000
vn 0.000000 0.000000 1.000000
s off
g polySurface311
usemtl initialShadingGroup
f 25/24/28 22/25/29 23/26/30 24/27/31
g default
v -33.996887 77.254173 10.388474
v 37.337448 77.254173 10.388474
v 37.337448 2.047609 10.388474
v -33.996891 2.047609 10.388474
v -19.712946 77.254173 10.388474
v 20.836449 77.254173 10.388474
v 42.982243 2.048234 8.882576
v 42.982250 77.276527 8.882587
vt 0.614934 0.410602
vt 0.720562 0.013415
vt 0.740513 0.410602
vt 0.489355 0.410603
vt 0.381566 0.013415
vt 0.363776 0.410603
vt 0.000000 0.000000
vt 1.000000 0.000000
vt 1.000000 1.000000
vt 0.000000 1.000000
vn 0.000000 0.000000 -1.000000
vn 0.000000 0.000000 -1.000000
vn 0.000000 0.000000 -1.000000
vn 0.000000 0.000000 -1.000000
vn -0.027357 0.000000 -0.999626
vn 0.000000 0.000000 -1.000000
vn 0.000000 0.000000 -1.000000
vn -0.107906 0.000000 -0.994161
vn -0.027357 0.000000 -0.999626
vn 0.000000 0.000000 -1.000000
vn -0.027357 0.000000 -0.999626
vn -0.107906 0.000000 -0.994161
vn -0.257760 0.000000 -0.966209
vn -0.257760 0.000000 -0.966209
s off
g polySurface308
usemtl initialShadingGroup
f 30/28/32 29/29/33 26/30/34
f 31/31/35 28/32/36 29/29/37 30/28/38
f 27/33/39 28/32/40 31/31/41
f 28/34/42 27/35/43 33/36/44 32/37/45
