# This file uses centimeters as units for non-parametric coordinates.

mtllib MazeBoss01COL.mtl
g default
v -12.212460 47.860275 -12.238998
v -12.201576 47.860275 -8.126383
v -15.788367 48.722393 -12.253708
v -15.832634 51.551033 -8.116777
v -15.790596 51.563202 -10.213055
v -12.201576 30.853668 -8.126383
v -12.212460 30.853668 -12.238998
v -16.061214 33.062565 -8.116174
v -15.842915 33.062565 -12.268616
vt 0.707502 0.620448
vt 0.729215 0.620448
vt 0.729215 0.669285
vt 0.707501 0.669284
vt 0.769893 0.632098
vt 0.790262 0.619670
vt 0.790295 0.669259
vt 0.769929 0.687552
vt 0.748886 0.630904
vt 0.748852 0.672666
vt 0.759771 0.687598
vn 0.999997 0.000000 -0.002646
vn 0.999997 0.000000 -0.002646
vn 0.999997 0.000000 -0.002646
vn 0.999997 0.000000 -0.002646
vn 0.002645 0.000000 0.999997
vn 0.002645 0.000000 0.999997
vn 0.002645 0.000000 0.999997
vn 0.002645 0.000000 0.999997
vn -0.002646 0.000001 -0.999997
vn -0.030063 0.039918 -0.998751
vn -0.131677 0.009623 -0.991246
vn -0.002646 0.000000 -0.999997
vn -0.994229 0.006215 -0.107095
vn -0.999997 0.000001 0.002645
vn -0.999725 0.023302 0.002713
vn -0.999528 0.027668 -0.013389
vn -0.968099 -0.000137 -0.250570
vn -0.999997 0.000001 0.002645
vn -0.994229 0.006215 -0.107095
s off
g polySurface310
usemtl initialShadingGroup
f 6/1/1 7/2/2 1/3/3 2/4/4
f 8/5/5 6/6/6 2/7/7 4/8/8
f 7/2/9 9/9/10 3/10/11 1/3/12
f 3/10/13 8/5/14 4/8/15 5/11/16
f 9/9/17 8/5/18 3/10/19
g default
v -12.212460 -0.934990 -12.239017
v -12.212460 30.853668 -12.238998
v 5.847748 30.853668 -12.286778
v 5.847744 -0.934990 -12.286784
vt 0.000000 0.000000
vt 1.000000 0.000000
vt 1.000000 1.000000
vt 0.000000 1.000000
vn -0.002645 -0.000001 -0.999997
vn -0.002645 -0.000001 -0.999997
vn -0.002645 0.000000 -0.999997
vn -0.002645 0.000000 -0.999997
s off
g polySurface317
usemtl initialShadingGroup
f 12/12/20 13/13/21 10/14/22 11/15/23
g default
v 35.247353 30.853668 -12.364566
v 35.258209 33.062565 -8.251956
v 35.258209 30.853668 -8.251956
v 5.847748 30.853668 -12.286778
v 5.858620 30.853668 -8.174167
v 9.779312 33.062565 -8.184539
v 35.247955 33.062565 -12.320784
v 9.525269 33.062565 -12.252773
v 35.247345 -0.934990 -12.364491
v 5.847744 -0.934990 -12.286784
vt 0.266006 0.942171
vt 0.421553 0.941934
vt 0.442965 0.953563
vt 0.266024 0.953833
vt 0.254344 0.942189
vt 0.254310 0.920476
vt 0.265169 0.920930
vt 0.265957 0.910209
vt 0.442205 0.909940
vt 0.422728 0.920925
vt 0.000000 0.000000
vt 1.000000 0.000000
vt 1.000000 1.000000
vt 0.000000 1.000000
vn 0.002646 -0.000000 0.999997
vn 0.002646 -0.000000 0.999997
vn 0.002646 -0.000000 0.999997
vn 0.002646 -0.000000 0.999997
vn 0.999997 0.000002 -0.002640
vn 0.999997 0.000000 -0.002640
vn 0.999997 0.000002 -0.002640
vn -0.002645 -0.000001 -0.999997
vn -0.002645 -0.000001 -0.999997
vn 0.026679 0.040772 -0.998812
vn -0.002597 0.191543 -0.981481
vn -0.000295 0.993781 -0.111349
vn -0.000391 0.989025 -0.147748
vn 0.000000 1.000000 0.000000
vn 0.000000 1.000000 0.000000
vn 0.999997 0.000002 -0.002640
vn 0.999997 0.000003 -0.002640
vn 0.999997 0.000003 -0.002640
vn -0.002645 -0.000001 -0.999997
vn -0.002645 -0.000001 -0.999997
vn -0.002645 -0.000001 -0.999997
vn -0.002645 -0.000001 -0.999997
s off
g polySurface316
usemtl initialShadingGroup
f 15/16/24 19/17/25 18/18/26 16/19/27
f 16/20/28 14/21/29 20/22/30
f 14/23/31 17/24/32 21/25/33 20/22/34
f 20/22/35 21/25/36 19/17/37 15/16/38
f 16/20/39 20/22/40 15/16/41
f 17/26/42 14/27/43 22/28/44 23/29/45
g default
v -11.577492 51.578770 -12.271592
v -12.201576 47.860275 -8.126383
v -12.212460 47.860275 -12.238998
v 5.847748 47.860275 -12.286778
v 5.858620 47.860275 -8.174167
v -15.788367 48.722393 -12.253708
v -15.790596 51.563202 -10.213055
v 9.487274 51.551033 -8.183767
v 9.449280 51.523296 -12.233954
v -15.832634 51.551033 -8.116777
vt 0.327927 0.577948
vt 0.328041 0.600093
vt 0.266192 0.600106
vt 0.266159 0.578057
vt 0.347896 0.609443
vt 0.345852 0.628334
vt 0.323228 0.619707
vt 0.246875 0.642318
vt 0.247185 0.620911
vt 0.346860 0.640589
vt 0.327326 0.660720
vt 0.267023 0.661711
vn 0.000000 -1.000000 0.000000
vn 0.000000 -1.000000 0.000000
vn 0.000000 -1.000000 0.000000
vn 0.000000 -1.000000 0.000000
vn -0.425127 0.378821 -0.822047
vn -0.430389 0.620456 -0.655592
vn -0.229818 0.594861 -0.770276
vn -0.002441 0.993521 -0.113626
vn 0.039469 0.999221 0.000581
vn 0.036265 0.981394 -0.188548
vn -0.002646 0.000000 -0.999997
vn -0.005692 0.090143 -0.995913
vn 0.100023 0.108295 -0.989074
vn -0.002647 -0.000001 -0.999996
vn -0.002646 0.000000 -0.999997
vn -0.131677 0.009623 -0.991246
vn -0.005692 0.090143 -0.995913
vn -0.002441 0.993521 -0.113626
vn -0.022129 0.999599 -0.017668
vn -0.016931 0.999857 0.000096
vn 0.039469 0.999221 0.000581
vn 0.002646 0.000000 0.999997
vn 0.002645 0.000000 0.999997
vn 0.002645 0.000000 0.999997
vn 0.002646 0.000000 0.999997
s off
g polySurface308
usemtl initialShadingGroup
f 25/30/46 26/31/47 27/32/48 28/33/49
f 29/34/50 30/35/51 24/36/52
f 24/36/53 31/37/54 32/38/55
f 26/31/56 24/36/57 32/38/58 27/32/59
f 26/31/60 29/34/61 24/36/62
f 24/36/63 30/35/64 33/39/65 31/37/66
f 31/37/67 33/39/68 25/40/69 28/41/70
g default
v 16.220642 50.473362 -1.962295
v 16.253738 52.718246 10.547188
v -38.164772 52.718246 10.691162
v 16.253738 50.473362 10.547188
v -38.164772 50.473362 10.691162
v 16.221230 52.664028 -2.065704
v -37.903267 50.581776 -1.740665
v -37.958694 52.772465 -1.858886
vt 0.292272 0.868013
vt 0.579475 0.868031
vt 0.579673 0.879157
vt 0.292274 0.879168
vt 0.579694 0.900477
vt 0.292267 0.900525
vt 0.292279 0.845968
vt 0.579679 0.845931
vt 0.281633 0.866785
vt 0.280449 0.845960
vn -0.004052 -0.050570 -0.998712
vn -0.004052 -0.050570 -0.998712
vn -0.004052 -0.050570 -0.998712
vn -0.004052 -0.050570 -0.998712
vn 0.001012 0.999989 0.004510
vn 0.001012 0.999989 0.004510
vn 0.001012 0.999989 0.004510
vn 0.001012 0.999989 0.004510
vn -0.001013 -0.999990 -0.004356
vn -0.001013 -0.999990 -0.004356
vn -0.001013 -0.999990 -0.004356
vn -0.001013 -0.999990 -0.004356
vn 0.999997 0.000004 -0.002646
vn 0.999997 0.000000 -0.002646
vn 0.999997 0.000002 -0.002646
vn 0.999997 0.000004 -0.002646
vn 0.999997 0.000005 -0.002646
vn 0.999997 0.000005 -0.002646
s off
g polySurface305
usemtl initialShadingGroup
f 34/42/71 40/43/72 41/44/73 39/45/74
f 39/45/75 41/44/76 36/46/77 35/47/78
f 37/48/79 38/49/80 40/43/81 34/42/82
f 37/48/83 34/42/84 39/50/85
f 37/48/86 39/50/87 35/51/88
g default
v -38.173355 30.853655 10.419571
v -38.173355 -0.935003 10.419550
v -38.233124 30.853668 -12.170158
v -38.233116 -0.934990 -12.170176
vt 0.000000 0.000000
vt 1.000000 0.000000
vt 1.000000 1.000000
vt 0.000000 1.000000
vn -0.999997 -0.000000 0.002646
vn -0.999997 -0.000000 0.002646
vn -0.999997 -0.000000 0.002646
vn -0.999997 -0.000000 0.002646
s off
g polySurface315
usemtl initialShadingGroup
f 44/52/89 45/53/90 43/54/91 42/55/92
g default
v -38.233124 30.853668 -12.170158
v -38.222252 33.062565 -8.057543
v -38.222252 30.853668 -8.057543
v -12.212460 30.853668 -12.238998
v -16.061214 33.062565 -8.116174
v -38.232513 33.062565 -12.209381
v -15.842915 33.062565 -12.268616
v -12.212460 -0.934990 -12.239017
v -38.233116 -0.934990 -12.170176
v -12.201576 30.853668 -8.126383
vt 0.232548 0.921589
vt 0.243489 0.942784
vt 0.231803 0.942833
vt 0.069188 0.954389
vt 0.090037 0.942740
vt 0.231770 0.954501
vt 0.069683 0.910767
vt 0.231748 0.910868
vt 0.088842 0.921736
vt 0.243392 0.921046
vt 0.000000 0.000000
vt 1.000000 0.000000
vt 1.000000 1.000000
vt 0.000000 1.000000
vn -0.999997 0.000001 0.002643
vn -0.999997 0.000002 0.002643
vn -0.999997 0.000002 0.002643
vn 0.002645 0.000000 0.999997
vn 0.002645 0.000000 0.999997
vn 0.002646 0.000000 0.999997
vn 0.002646 0.000000 0.999997
vn -0.002646 0.000001 -0.999997
vn -0.002646 0.000001 -0.999997
vn -0.002597 0.190182 -0.981745
vn -0.030063 0.039918 -0.998751
vn 0.000000 1.000000 0.000000
vn -0.000391 0.989000 -0.147912
vn -0.000295 0.993767 -0.111478
vn 0.000000 1.000000 0.000000
vn -0.999997 0.000000 0.002644
vn -0.999997 0.000002 0.002643
vn -0.999997 0.000001 0.002643
vn -0.002646 0.000001 -0.999997
vn -0.002646 0.000001 -0.999997
vn -0.002646 0.000001 -0.999997
vn -0.002646 0.000001 -0.999997
s off
g polySurface314
usemtl initialShadingGroup
f 51/56/93 48/57/94 47/58/95
f 55/59/96 50/60/97 47/58/98 48/61/99
f 49/62/100 46/63/101 51/56/102 52/64/103
f 50/60/104 52/64/105 51/56/106 47/58/107
f 46/65/108 48/57/109 51/56/110
f 46/66/111 49/67/112 53/68/113 54/69/114
g default
v -25.679329 38.595306 10.404787
v -25.735981 38.595306 -10.998981
v -11.180962 38.595306 -0.335543
v -25.707661 26.438454 -0.297094
v -40.234344 38.595306 -0.258648
v -25.707661 50.752159 -0.297094
v -14.731323 29.326603 -7.940620
v -25.730938 28.059786 -9.093431
v -14.732090 47.896206 -7.906317
v -25.730938 49.130825 -9.093431
v -14.691016 47.864014 7.288227
v -25.684378 49.130825 8.499238
v -14.691967 29.294409 7.253924
v -25.684370 28.059786 8.499238
v -13.259174 38.595306 -8.991399
v -36.751350 29.298489 -7.879578
v -38.201988 38.595306 -8.925385
v -13.398006 48.753780 -0.329673
v -36.751812 47.890495 -7.877818
v -38.017303 48.753780 -0.264515
v -13.213327 38.595306 8.331198
v -36.711060 47.892128 7.343739
v -38.156136 38.595306 8.397212
v -13.398006 28.436831 -0.329673
v -36.711529 29.300116 7.341982
v -38.017303 28.436831 -0.264515
vt 0.377505 0.013470
vt 0.498408 0.010262
vt 0.500000 0.125000
vt 0.370830 0.125000
vt 0.377338 0.252943
vt 0.500000 0.251711
vt 0.500000 0.375000
vt 0.380595 0.375000
vt 0.380552 0.625000
vt 0.500000 0.625000
vt 0.500000 0.751711
vt 0.386436 0.743906
vt 0.383393 0.875765
vt 0.500000 0.875000
vt 0.501312 0.988028
vt 0.383372 0.975077
vt 0.635935 0.013127
vt 0.749084 0.009917
vt 0.750000 0.125000
vt 0.629171 0.125000
vt 0.249083 0.009917
vt 0.250000 0.125000
vt 0.622895 0.252621
vt 0.616607 0.374235
vt 0.619448 0.625000
vt 0.616656 0.751796
vt 0.616607 0.874235
vt 0.608963 0.988415
vt 0.250000 0.230166
vt 0.383562 0.498464
vt 0.500000 0.498289
vt 0.613875 0.506501
vt 0.750916 0.240083
vt 0.150418 0.009921
vt 0.149997 0.125000
vt 0.850044 0.019841
vt 0.850003 0.125000
vt 0.850281 0.240110
vt 0.149880 0.230219
vn 0.140057 -0.156328 -0.977725
vn 0.140057 -0.156328 -0.977725
vn 0.140057 -0.156328 -0.977725
vn 0.140057 -0.156328 -0.977725
vn 0.095260 0.992013 -0.082680
vn -0.001055 0.996561 -0.082856
vn -0.000269 1.000000 0.000244
vn 0.095843 0.995396 0.000627
vn 0.094284 -0.000618 0.995545
vn 0.002543 -0.000117 0.999997
vn 0.002632 -0.106138 0.994348
vn 0.093563 -0.105698 0.989987
vn 0.095838 -0.995396 -0.001134
vn -0.000270 -1.000000 -0.000242
vn -0.000219 -0.996557 -0.082910
vn 0.095330 -0.991997 -0.082784
vn -0.981480 -0.134418 -0.136491
vn -0.990742 -0.135738 0.002541
vn -0.999997 0.000000 0.002647
vn -0.990468 -0.000073 -0.137742
vn 0.990741 -0.135738 -0.002703
vn 0.980743 -0.134419 -0.141685
vn 0.989725 -0.000074 -0.142983
vn 0.999997 0.000000 -0.002647
vn -0.001055 0.996561 -0.082856
vn -0.095768 0.991997 -0.082278
vn -0.095876 0.995393 0.000254
vn -0.000269 1.000000 0.000244
vn 0.002632 -0.106138 0.994348
vn 0.002543 -0.000117 0.999997
vn -0.088819 0.000000 0.996048
vn -0.088321 -0.105698 0.990468
vn -0.000219 -0.996557 -0.082910
vn -0.000270 -1.000000 -0.000242
vn -0.095876 -0.995393 0.000254
vn -0.095767 -0.991998 -0.082278
vn -0.002751 0.000117 -0.999996
vn -0.003107 -0.106370 -0.994322
vn -0.093563 -0.105698 -0.989987
vn -0.094090 0.000000 -0.995564
vn 0.990742 0.135738 -0.002541
vn 0.999997 0.000000 -0.002647
vn 0.989725 -0.000074 -0.142983
vn 0.980743 0.134419 -0.141686
vn 0.093947 0.106161 0.989901
vn 0.002156 0.106370 0.994324
vn 0.002543 -0.000117 0.999997
vn 0.094284 -0.000618 0.995545
vn -0.088819 0.000000 0.996048
vn 0.002543 -0.000117 0.999997
vn 0.002156 0.106370 0.994324
vn -0.088321 0.105698 0.990468
vn -0.990468 -0.000073 -0.137742
vn -0.999997 0.000000 0.002647
vn -0.990741 0.135738 0.002703
vn -0.981479 0.134419 -0.136492
vn -0.002632 0.106137 -0.994348
vn -0.002751 0.000117 -0.999996
vn -0.094090 0.000000 -0.995564
vn -0.093563 0.105698 -0.989987
vn 0.089014 0.000618 -0.996030
vn -0.002751 0.000117 -0.999996
vn -0.002632 0.106137 -0.994348
vn 0.088322 0.105698 -0.990468
vn 0.981479 -0.134419 0.136492
vn 0.990741 -0.135738 -0.002703
vn 0.999997 0.000000 -0.002647
vn 0.990468 0.000073 0.137742
vn 0.095696 -0.992013 0.082175
vn -0.000616 -0.996561 0.082861
vn -0.000270 -1.000000 -0.000242
vn 0.095838 -0.995396 -0.001134
vn -0.095876 -0.995393 0.000254
vn -0.000270 -1.000000 -0.000242
vn -0.000616 -0.996561 0.082861
vn -0.095330 -0.991997 0.082784
vn -0.999997 0.000000 0.002647
vn -0.990742 -0.135738 0.002541
vn -0.980743 -0.134419 0.141685
vn -0.989725 0.000074 0.142983
vn -0.990741 0.135738 0.002703
vn -0.999997 0.000000 0.002647
vn -0.989725 0.000074 0.142983
vn -0.980743 0.134418 0.141684
vn -0.000269 1.000000 0.000244
vn -0.095876 0.995393 0.000254
vn -0.095331 0.991997 0.082784
vn 0.000219 0.996557 0.082910
vn 0.095843 0.995396 0.000627
vn -0.000269 1.000000 0.000244
vn 0.000219 0.996557 0.082910
vn 0.095768 0.991997 0.082278
vn 0.990468 0.000073 0.137742
vn 0.999997 0.000000 -0.002647
vn 0.990742 0.135738 -0.002541
vn 0.981480 0.134418 0.136491
s off
g polySurface304
usemtl initialShadingGroup
f 62/70/115 63/71/116 57/72/117 70/73/118
f 64/74/119 65/75/120 61/76/121 73/77/122
f 76/78/123 56/79/124 69/80/125 68/81/126
f 79/82/127 59/83/128 63/84/129 62/85/130
f 71/86/131 81/87/132 60/88/133 72/89/134
f 79/90/135 62/70/136 70/73/137 58/91/138
f 65/75/139 74/92/140 75/93/141 61/76/142
f 69/80/143 56/79/144 78/94/145 80/95/146
f 63/84/147 59/83/148 81/96/149 71/97/150
f 57/72/151 63/71/152 71/86/153 72/89/154
f 73/98/155 58/91/156 70/73/157 64/74/158
f 66/99/159 67/100/160 56/79/161 76/78/162
f 78/94/163 56/79/164 67/100/165 77/101/166
f 72/89/167 60/88/168 75/102/169 74/92/170
f 65/75/171 57/72/172 72/89/173 74/92/174
f 70/73/175 57/72/176 65/75/177 64/74/178
f 68/103/179 79/90/180 58/91/181 76/104/182
f 68/81/183 69/80/184 59/83/185 79/82/186
f 81/96/187 59/83/188 69/80/189 80/95/190
f 60/88/191 81/87/192 80/105/193 78/106/194
f 75/102/195 60/88/196 78/106/197 77/107/198
f 61/76/199 75/93/200 77/101/201 67/100/202
f 73/77/203 61/76/204 67/100/205 66/99/206
f 76/104/207 58/91/208 73/98/209 66/108/210
g default
v 5.847748 47.860275 -12.286778
v 5.858620 47.860275 -8.174167
v 9.449280 51.523296 -12.233954
v 9.487274 51.551033 -8.183767
v 5.847748 30.853668 -12.286778
v 5.858620 30.853668 -8.174167
v 9.779312 33.062565 -8.184539
v 9.525269 33.062565 -12.252773
vt 0.307107 0.668013
vt 0.328821 0.668021
vt 0.328802 0.716858
vt 0.307088 0.716849
vt 0.245406 0.667237
vt 0.266102 0.679660
vt 0.266082 0.735114
vt 0.245388 0.716827
vt 0.287109 0.678460
vt 0.287089 0.735121
vn -0.999997 0.000000 0.002644
vn -0.999997 0.000000 0.002644
vn -0.999997 0.000000 0.002644
vn -0.999997 0.000000 0.002644
vn 0.002646 -0.000000 0.999997
vn 0.002646 -0.000000 0.999996
vn 0.002646 0.000000 0.999997
vn 0.002646 0.000000 0.999997
vn 0.999997 0.000000 -0.002648
vn 0.988565 0.000000 -0.150795
vn 0.993347 0.025476 -0.112305
vn 0.999611 0.027804 -0.002223
vn 0.026679 0.040772 -0.998812
vn -0.002645 -0.000001 -0.999997
vn -0.002647 -0.000001 -0.999996
vn 0.100023 0.108295 -0.989074
s off
g polySurface311
usemtl initialShadingGroup
f 86/109/211 87/110/212 83/111/213 82/112/214
f 87/113/215 88/114/216 85/115/217 83/116/218
f 88/114/219 89/117/220 84/118/221 85/115/222
f 89/117/223 86/109/224 82/112/225 84/118/226
