# This file uses centimeters as units for non-parametric coordinates.

mtllib MazeBig05COL.mtl
g default
v -3.381050 2.867334 -0.974027
v -21.646278 2.867334 -0.959192
v -3.379082 4.166842 1.443500
v -21.644318 4.166842 1.458340
v -3.379082 2.867334 1.443500
v -21.644318 2.867334 1.458340
v -3.380943 4.166842 -0.966611
v -21.646175 4.166842 -0.951773
vt 0.021095 0.950640
vt 0.263500 0.950819
vt 0.263480 0.962064
vt 0.021003 0.961880
vt 0.263463 0.983595
vt 0.020968 0.983411
vt 0.021051 0.928402
vt 0.263513 0.928593
vt 0.010434 0.949430
vt 0.009132 0.928505
vn -0.000812 0.000000 -1.000000
vn -0.000812 0.000000 -1.000000
vn -0.000812 0.000000 -1.000000
vn -0.000812 0.000000 -1.000000
vn 0.000000 1.000000 0.000000
vn 0.000000 1.000000 0.000000
vn 0.000000 1.000000 0.000000
vn 0.000000 1.000000 0.000000
vn 0.000000 -1.000000 0.000000
vn 0.000000 -1.000000 0.000000
vn 0.000000 -1.000000 0.000000
vn 0.000000 -1.000000 0.000000
vn 1.000000 -0.000001 -0.000814
vn 1.000000 0.000000 -0.000814
vn 1.000000 0.000000 -0.000814
vn 1.000000 -0.000001 -0.000814
vn 1.000000 -0.000001 -0.000814
vn 1.000000 -0.000001 -0.000814
s off
g polySurface257
usemtl lambert2SG
f 1/1/1 2/2/2 8/3/3 7/4/4
f 7/4/5 8/3/6 4/5/7 3/6/8
f 5/7/9 6/8/10 2/2/11 1/1/12
f 5/7/13 1/1/14 7/9/15
f 5/7/16 7/9/17 3/10/18
g default
v -21.643860 16.263926 1.458314
v -18.066162 19.814373 1.460007
v -18.064857 19.814373 -1.287802
v -21.642555 16.263926 -1.289502
v -21.626801 19.830109 -1.289495
vt 0.375000 0.250000
vt 0.642873 0.017887
vt 0.624991 0.749987
vt 0.375000 0.500000
vt 0.375000 0.750000
vn 0.704398 -0.709805 0.000335
vn 0.704398 -0.709805 0.000335
vn 0.704398 -0.709805 0.000335
vn 0.704398 -0.709805 0.000335
vn 0.000475 0.000000 -1.000000
vn 0.000475 0.000000 -1.000000
vn 0.000475 0.000000 -1.000000
s off
g polySurface260
usemtl lambert2SG
f 10/11/19 9/12/20 12/13/21 11/14/22
f 11/14/23 12/13/24 13/15/25
g default
v -18.648422 4.166841 1.459734
v -21.652885 7.180546 1.458310
v -21.651878 7.180546 -0.653020
v -18.647415 4.166841 -0.651595
v -21.651878 4.166841 -0.653020
vt 0.375000 0.250000
vt 0.642873 0.017887
vt 0.624991 0.749987
vt 0.375000 0.500000
vt 0.375000 0.750000
vn 0.708192 0.706020 0.000338
vn 0.708192 0.706020 0.000338
vn 0.708192 0.706020 0.000338
vn 0.708192 0.706020 0.000338
vn 0.000474 0.000000 -1.000000
vn 0.000474 0.000000 -1.000000
vn 0.000474 0.000000 -1.000000
s off
g polySurface256
usemtl lambert2SG
f 15/16/26 14/17/27 17/18/28 16/19/29
f 16/19/30 17/18/31 18/20/32
g default
v 19.657448 13.572224 -3.006889
v 19.657448 8.195544 -3.006889
v 5.144812 13.546681 -4.323467
v 19.656326 13.597766 -4.386342
v 5.144812 8.221087 -4.323467
v 19.656326 8.170002 -4.386342
v 5.094807 8.195544 -2.995061
v 5.094807 13.572224 -2.995061
vt 0.424193 0.787112
vt 0.424689 0.619557
vt 0.465441 0.619617
vt 0.465411 0.787109
vt 0.478326 0.619642
vt 0.477970 0.785472
vt 0.411730 0.785387
vt 0.411804 0.619548
vt 0.424049 0.800057
vt 0.465538 0.800006
vn -0.020777 0.059547 -0.998009
vn -0.000811 0.060344 -0.998177
vn -0.000811 -0.060344 -0.998177
vn -0.020777 -0.059547 -0.998009
vn -0.017913 -0.980848 -0.193951
vn -0.000159 -0.980584 -0.196098
vn 0.000000 -1.000000 0.000000
vn -0.020824 -0.999783 0.000017
vn -0.017913 0.980848 -0.193949
vn -0.020824 0.999783 0.000018
vn 0.000000 1.000000 0.000001
vn -0.000159 0.980585 -0.196096
vn -0.998177 0.060344 0.000814
vn -0.980629 0.051788 -0.188907
vn -0.980629 -0.051788 -0.188906
vn -0.998177 -0.060344 0.000814
s off
g polySurface255
usemtl lambert2SG
f 21/21/33 22/22/34 24/23/35 23/24/36
f 23/24/37 24/23/38 20/25/39 25/26/40
f 21/21/41 26/27/42 19/28/43 22/22/44
f 26/29/45 21/21/46 23/24/47 25/30/48
g default
v 20.884724 0.000000 -7.038158
v -22.881721 0.000000 -7.002604
v 20.886654 2.533153 -4.657476
v -22.879784 2.533153 -4.621922
v 20.886654 0.000000 -4.657476
v -22.879784 0.000000 -4.621922
v 20.884830 2.533153 -7.055935
v -22.881611 2.533153 -7.020381
vt 0.856732 0.948731
vt 0.646786 0.991935
vt 0.646798 0.980646
vt 0.856707 0.960643
vt 0.855852 0.982346
vt 0.844791 0.960624
vt 0.635507 0.980637
vt 0.635530 0.959615
vt 0.646041 0.960082
vt 0.646830 0.949706
vt 0.856664 0.993299
vt 0.844761 0.982813
vn 0.000812 0.000000 1.000000
vn 0.000812 0.000000 1.000000
vn 0.000812 0.000000 1.000000
vn 0.000812 0.000000 1.000000
vn -1.000000 0.000001 0.000814
vn -1.000000 0.000001 0.000814
vn -1.000000 0.000002 0.000814
vn 1.000000 0.000000 -0.000811
vn 1.000000 0.000000 -0.000811
vn 1.000000 0.000000 -0.000811
vn -0.000808 0.103902 -0.994587
vn -0.000808 0.103903 -0.994587
vn -0.000812 0.000000 -1.000000
vn -0.000812 0.000000 -1.000000
vn 0.000000 1.000000 0.000000
vn 0.000000 1.000000 0.000000
vn -0.000090 0.993879 -0.110479
vn -0.000090 0.993878 -0.110480
vn 1.000000 0.000000 -0.000811
vn 1.000000 0.000000 -0.000811
vn 1.000000 0.000000 -0.000811
vn -1.000000 0.000000 0.000814
vn -1.000000 0.000001 0.000814
vn -1.000000 0.000001 0.000814
s off
g polySurface259
usemtl lambert2SG
f 32/31/49 31/32/50 29/33/51 30/34/52
f 34/35/53 32/36/54 30/34/55
f 31/37/56 27/38/57 33/39/58
f 34/35/59 33/39/60 27/40/61 28/41/62
f 30/34/63 29/33/64 33/39/65 34/35/66
f 31/37/67 33/39/68 29/33/69
f 28/42/70 32/36/71 34/35/72
g default
v -0.577225 1.254486 1.468318
v -3.381874 4.170275 1.466983
v -3.380836 4.170275 -0.706962
v -0.576187 1.254486 -0.705632
v -3.380836 1.254486 -0.706962
v -3.381874 1.254486 1.466986
vt 0.379471 0.129478
vt 0.642873 0.017887
vt 0.624991 0.749987
vt 0.375000 0.500000
vt 0.375000 0.750000
vt 0.000000 0.000000
vt 1.000000 0.000000
vt 1.000000 1.000000
vt 0.000003 1.636586
vn 0.720709 0.693238 0.000344
vn 0.720709 0.693238 0.000344
vn 0.720709 0.693238 0.000344
vn 0.720709 0.693238 0.000344
vn 0.000474 0.000000 -1.000000
vn 0.000474 0.000000 -1.000000
vn 0.000474 0.000000 -1.000000
vn -1.000000 0.000000 -0.000477
vn -1.000000 0.000000 -0.000477
vn -1.000000 0.000000 -0.000477
vn -1.000000 0.000000 -0.000477
s off
g polySurface258
usemtl lambert2SG
f 36/43/73 35/44/74 38/45/75 37/46/76
f 37/46/77 38/45/78 39/47/79
f 37/48/80 39/49/81 40/50/82 36/51/83
g default
v 19.659073 14.583520 -0.992754
v 11.087929 14.583520 -0.985796
v 19.661041 15.883027 1.424770
v 11.089890 15.883027 1.431742
v 19.661041 14.583520 1.424770
v 11.089890 14.583520 1.431742
v 19.659180 15.883027 -0.996235
v 11.088032 15.883027 -0.989273
vt 0.021095 0.950640
vt 0.263500 0.950819
vt 0.263476 0.962064
vt 0.021003 0.961880
vt 0.263463 0.983595
vt 0.020968 0.983411
vt 0.021051 0.928402
vt 0.263488 0.928588
vt 0.000000 0.000000
vt 0.999974 0.000137
vt -0.000012 1.720838
vt 0.000000 0.000000
vt 1.060216 0.459711
vt 0.000011 4.594627
vn -0.000812 0.000000 -1.000000
vn -0.000812 0.000000 -1.000000
vn -0.000812 0.000000 -1.000000
vn -0.000812 0.000000 -1.000000
vn 0.000000 1.000000 0.000000
vn 0.000000 1.000000 0.000000
vn 0.000000 1.000000 0.000000
vn 0.000000 1.000000 0.000000
vn 0.000000 -1.000000 0.000000
vn 0.000000 -1.000000 0.000000
vn 0.000000 -1.000000 0.000000
vn 0.000000 -1.000000 0.000000
vn -1.000000 0.000000 0.000811
vn -1.000000 0.000000 0.000811
vn -1.000000 0.000000 0.000811
vn -1.000000 -0.000003 0.000811
vn -1.000000 -0.000003 0.000811
vn -1.000000 -0.000003 0.000811
s off
g polySurface253
usemtl lambert2SG
f 41/52/84 42/53/85 48/54/86 47/55/87
f 47/55/88 48/54/89 44/56/90 43/57/91
f 45/58/92 46/59/93 42/53/94 41/52/95
f 42/60/96 46/61/97 48/62/98
f 44/63/99 48/64/100 46/65/101
g default
v 8.538940 13.218605 1.472626
v 11.086761 15.840658 1.473837
v 11.087791 15.840658 -0.694701
v 8.539963 13.218605 -0.695906
v 11.087791 13.218605 -0.694701
v 11.086761 13.218605 1.473837
vt 0.379471 0.129478
vt 0.375000 0.500000
vt 0.624991 0.749987
vt 0.642873 0.017887
vt 0.375000 0.750000
vt 0.000000 0.000000
vt 0.000003 1.976764
vt 1.000000 1.000000
vt 1.000000 0.000000
vn -0.717185 0.696882 -0.000339
vn -0.717185 0.696882 -0.000339
vn -0.717185 0.696882 -0.000339
vn -0.717185 0.696882 -0.000339
vn 0.000473 0.000000 -1.000000
vn 0.000473 0.000000 -1.000000
vn 0.000473 0.000000 -1.000000
vn 1.000000 0.000000 0.000475
vn 1.000000 0.000000 0.000475
vn 1.000000 0.000000 0.000475
vn 1.000000 0.000000 0.000475
s off
g polySurface254
usemtl lambert2SG
f 50/66/102 51/67/103 52/68/104 49/69/105
f 51/67/106 53/70/107 52/68/108
f 51/71/109 50/72/110 54/73/111 53/74/112
g default
v 19.666512 27.722626 1.477913
v 15.292389 32.111290 1.475835
v 15.293678 32.111290 -1.251820
v 19.667809 27.722626 -1.249748
v 19.683411 32.095631 -1.249739
vt 0.375000 0.250000
vt 0.375000 0.500000
vt 0.624991 0.749987
vt 0.642873 0.017887
vt 0.375000 0.750000
vn -0.708279 -0.705933 -0.000336
vn -0.708279 -0.705933 -0.000336
vn -0.708279 -0.705933 -0.000336
vn -0.708279 -0.705933 -0.000336
vn 0.000474 0.000000 -1.000000
vn 0.000474 0.000000 -1.000000
vn 0.000474 0.000000 -1.000000
s off
g polySurface252
usemtl lambert2SG
f 56/75/113 57/76/114 58/77/115 55/78/116
f 57/76/117 59/79/118 58/77/119
g default
v 15.773514 15.883027 1.476061
v 19.661018 19.762253 1.477903
v 19.662018 19.762253 -0.633419
v 15.774521 15.883027 -0.635262
v 19.662018 15.883027 -0.633419
vt 0.375000 0.250000
vt 0.375000 0.500000
vt 0.624991 0.749987
vt 0.642873 0.017887
vt 0.375000 0.750000
vn -0.706353 0.707860 -0.000336
vn -0.706353 0.707860 -0.000336
vn -0.706353 0.707860 -0.000336
vn -0.706353 0.707860 -0.000336
vn 0.000474 0.000000 -1.000000
vn 0.000474 0.000000 -1.000000
vn 0.000474 0.000000 -1.000000
s off
g polySurface251
usemtl lambert2SG
f 61/80/120 62/81/121 63/82/122 60/83/123
f 62/81/124 64/84/125 63/82/126
g default
v 19.657448 37.190628 -3.006889
v 19.657448 31.813950 -3.006889
v 5.144812 37.190628 -4.323467
v 19.656326 37.190628 -4.386342
v 5.144812 31.813950 -4.323467
v 19.656326 31.813950 -4.386342
v 5.094807 31.813950 -2.995061
v 5.094807 37.190628 -2.995061
vt 0.424193 0.787112
vt 0.424689 0.619557
vt 0.465441 0.619617
vt 0.465411 0.787109
vt 0.478326 0.619642
vt 0.477970 0.785472
vt 0.411730 0.785387
vt 0.411804 0.619548
vt 0.424049 0.800057
vt 0.465538 0.800006
vn -0.020777 0.059547 -0.998009
vn -0.000811 0.060344 -0.998177
vn -0.000811 -0.060344 -0.998177
vn -0.020777 -0.059547 -0.998009
vn -0.017913 -0.980848 -0.193949
vn -0.000159 -0.980585 -0.196096
vn 0.000000 -1.000000 0.000000
vn -0.020824 -0.999783 0.000017
vn -0.017913 0.980848 -0.193947
vn -0.020824 0.999783 0.000017
vn 0.000000 1.000000 0.000000
vn -0.000159 0.980585 -0.196094
vn -0.998177 0.060344 0.000814
vn -0.980629 0.051788 -0.188907
vn -0.980629 -0.051788 -0.188907
vn -0.998177 -0.060344 0.000814
s off
g polySurface248
usemtl lambert2SG
f 67/85/127 68/86/128 70/87/129 69/88/130
f 69/88/131 70/87/132 66/89/133 71/90/134
f 67/85/135 72/91/136 65/92/137 68/86/138
f 72/93/139 67/85/140 69/88/141 71/94/142
g default
v -21.647896 19.817610 -2.973331
v -21.647896 25.194290 -2.973331
v -7.255760 19.817610 -4.313395
v -21.649017 19.817610 -4.352786
v -7.255760 25.194290 -4.313395
v -21.649017 25.194290 -4.352786
v -7.203595 25.194290 -2.985066
v -7.203595 19.817610 -2.985066
vt 0.424193 0.787112
vt 0.424689 0.619557
vt 0.465441 0.619617
vt 0.465411 0.787109
vt 0.478326 0.619642
vt 0.477970 0.785472
vt 0.411730 0.785387
vt 0.411804 0.619548
vt 0.424049 0.800057
vt 0.465538 0.800006
vn 0.019318 -0.059540 -0.998039
vn -0.000811 -0.060344 -0.998177
vn -0.000811 0.060344 -0.998177
vn 0.019318 0.059540 -0.998039
vn 0.017742 0.980848 -0.193964
vn -0.000159 0.980584 -0.196098
vn 0.000000 1.000000 0.000000
vn 0.020993 0.999780 -0.000017
vn 0.017742 -0.980849 -0.193962
vn 0.020993 -0.999780 -0.000017
vn 0.000000 -1.000000 0.000000
vn -0.000159 -0.980585 -0.196095
vn 0.998177 -0.060344 -0.000814
vn 0.980321 -0.051789 -0.190497
vn 0.980321 0.051789 -0.190497
vn 0.998177 0.060344 -0.000814
s off
g polySurface250
usemtl lambert2SG
f 75/95/143 76/96/144 78/97/145 77/98/146
f 77/98/147 78/97/148 74/99/149 79/100/150
f 75/95/151 80/101/152 73/102/153 76/96/154
f 80/103/155 75/95/156 77/98/157 79/104/158
g default
v -21.649719 19.817610 -5.198433
v -21.649719 42.821556 -5.198433
v -18.530655 19.817610 1.455806
v -18.530655 42.821556 1.455806
v -21.644310 19.817610 1.458334
v -21.644310 42.821556 1.458334
v -18.530655 19.817610 -5.198433
v -18.530655 42.821556 -5.198433
vt 0.021095 0.950640
vt 0.263500 0.950819
vt 0.263480 0.962064
vt 0.021003 0.961880
vt 0.263463 0.983595
vt 0.020968 0.983411
vt 0.274245 0.949610
vt 0.263513 0.928593
vt 0.275445 0.928607
vt 0.021051 0.928402
vt 0.010434 0.949430
vt 0.009132 0.928505
vn -0.000814 0.000000 -1.000000
vn -0.000814 0.000000 -1.000000
vn -0.000814 0.000000 -1.000000
vn -0.000814 0.000000 -1.000000
vn 1.000000 0.000000 -0.000812
vn 1.000000 0.000000 -0.000812
vn 1.000000 0.000000 -0.000812
vn 1.000000 0.000000 -0.000812
vn 0.000000 1.000000 0.000000
vn 0.000000 1.000000 0.000000
vn 0.000000 1.000000 0.000000
vn 0.000000 -1.000000 0.000000
vn 0.000000 -1.000000 0.000000
vn 0.000000 -1.000000 0.000000
vn 0.000000 -1.000000 0.000000
vn 0.000000 -1.000000 0.000000
vn 0.000000 -1.000000 0.000000
vn 0.000000 1.000000 0.000001
vn 0.000000 1.000000 0.000000
vn 0.000000 1.000000 0.000000
s off
g polySurface249
usemtl lambert2SG
f 81/105/159 82/106/160 88/107/161 87/108/162
f 87/108/163 88/107/164 84/109/165 83/110/166
f 88/111/167 86/112/168 84/113/169
f 85/114/170 81/105/171 87/115/172
f 85/114/173 87/115/174 83/116/175
f 82/106/176 86/112/177 88/111/178
