# This file uses centimeters as units for non-parametric coordinates.

mtllib MazeRiver_back.mtl
g default
v -21.883226 0.000000 -1.153564
v 21.883226 0.000000 -1.153564
v -21.883226 44.802006 -1.153564
v 21.883226 44.802006 -1.153564
v 20.652672 44.802006 2.757252
v -20.652676 44.802006 2.757252
v -20.652676 44.802006 11.007389
v -21.883226 44.802006 11.007389
v 20.652672 44.802006 11.007389
v 21.883226 44.802006 11.007389
v -21.883226 1.254486 11.007389
v -20.652676 1.254486 11.007389
v 20.652674 1.254486 11.007389
v 21.883226 1.254486 11.007389
v -20.652676 1.254486 2.757252
v 20.652674 1.254486 2.757252
v -21.883226 0.000000 11.007389
v 21.883226 0.000000 11.007389
vt 0.366373 0.409484
vt 0.745484 0.409483
vt 0.756777 0.445375
vt 0.355081 0.445376
vt 0.874164 0.417565
vt 0.885383 0.417535
vt 0.885591 0.020572
vt 0.874386 0.020539
vt 0.744839 0.015353
vt 0.367212 0.015353
vt 0.367212 0.401915
vt 0.744839 0.401915
vt 0.885373 0.020573
vt 0.885244 0.417559
vt 0.874027 0.417555
vt 0.874157 0.020569
vt 0.366374 0.009793
vt 0.745485 0.009793
vt 0.763116 0.428890
vt 0.874168 0.428993
vt 0.763160 0.428954
vt 0.874023 0.428987
vt 0.960573 0.417447
vt 0.960663 0.020574
vt 0.996247 0.009357
vt 0.885566 0.009353
vt 0.763595 0.020276
vt 0.960566 0.020594
vt 0.960455 0.417587
vt 0.763305 0.020526
vt 0.996203 0.009384
vt 0.885385 0.009358
vn 0.000000 1.000000 0.000000
vn 0.000000 1.000000 0.000000
vn 0.000000 1.000000 0.000000
vn 0.000000 1.000000 0.000000
vn 0.000000 0.000000 1.000000
vn 0.000000 0.000000 1.000000
vn 0.000000 0.000000 1.000000
vn 0.000000 0.000000 1.000000
vn 0.000000 0.000000 -1.000000
vn 0.000000 0.000000 -1.000000
vn 0.000000 0.000000 -1.000000
vn 0.000000 0.000000 -1.000000
vn 0.000000 0.000000 1.000000
vn 0.000000 0.000000 1.000000
vn 0.000000 0.000000 1.000000
vn 0.000000 0.000000 1.000000
vn 0.000000 0.000000 1.000000
vn 0.000000 0.000000 1.000000
vn 0.000000 0.000000 1.000000
vn 0.000000 0.000000 1.000000
vn -1.000000 0.000000 0.000000
vn -1.000000 0.000000 0.000000
vn -1.000000 0.000000 0.000000
vn 1.000000 0.000000 0.000000
vn 1.000000 0.000000 0.000000
vn 1.000000 0.000000 0.000000
vn 1.000000 0.000000 0.000000
vn 1.000000 0.000000 0.000000
vn 1.000000 0.000000 0.000000
vn 1.000000 0.000000 0.000000
vn 0.000000 1.000000 0.000000
vn 0.000000 1.000000 0.000000
vn 0.000000 1.000000 0.000000
vn 0.000000 1.000000 0.000000
vn -1.000000 0.000000 0.000000
vn -1.000000 0.000000 0.000000
vn -1.000000 0.000000 0.000000
vn -1.000000 0.000000 0.000000
vn -1.000000 0.000000 0.000000
vn -1.000000 0.000000 0.000000
vn -1.000000 0.000000 0.000000
vn -1.000000 0.000000 0.000000
vn 1.000000 0.000000 0.000000
vn 1.000000 0.000000 0.000000
vn 1.000000 0.000000 0.000000
vn 1.000000 0.000000 0.000000
vn 0.000000 1.000000 0.000000
vn 0.000000 1.000000 0.000000
vn 0.000000 1.000000 0.000000
vn 0.000000 1.000000 0.000000
s off
g polySurface32polySurface31
usemtl blinn1SG
f 6/1/1 5/2/2 4/3/3 3/4/4
f 11/5/5 12/6/6 7/7/7 8/8/8
f 2/9/9 1/10/10 3/11/11 4/12/12
f 9/13/13 13/14/14 14/15/15 10/16/16
f 6/1/17 15/17/18 16/18/19 5/2/20
f 1/19/21 17/20/22 11/5/23
f 2/21/24 14/15/25 18/22/26
f 15/23/27 6/24/28 7/7/29 12/6/30
f 6/24/31 3/25/32 8/26/33 7/7/34
f 3/27/35 1/19/36 11/5/37 8/8/38
f 5/28/39 16/29/40 13/14/41 9/13/42
f 2/21/43 4/30/44 10/16/45 14/15/46
f 4/31/47 5/28/48 9/13/49 10/32/50
