# This file uses centimeters as units for non-parametric coordinates.

mtllib MazeBig04COL.mtl
g default
v -14.256199 26.482063 -0.582678
v -14.256199 19.524063 -0.582682
v -15.559620 26.482063 1.832747
v -15.559620 19.524063 1.832745
v -14.260117 26.482063 1.834850
v -14.260117 19.524063 1.834850
v -15.559620 26.482063 -0.582682
v -15.559620 19.524063 -0.582682
vt 0.430739 0.951405
vt 0.624862 0.951793
vt 0.624843 0.962783
vt 0.430713 0.962390
vt 0.624792 0.984126
vt 0.430673 0.983726
vt 0.430781 0.929011
vt 0.624894 0.929389
vt 0.635110 0.950008
vt 0.636952 0.929404
vt 0.420500 0.949618
vt 0.418722 0.929019
vn 0.001620 0.000000 -0.999999
vn 0.001620 0.000000 -0.999999
vn 0.001620 0.000000 -0.999999
vn 0.001620 0.000000 -0.999999
vn -0.999999 0.000000 -0.001620
vn -0.999999 0.000000 -0.001620
vn -0.999999 0.000000 -0.001620
vn -0.999999 0.000000 -0.001620
vn 0.999999 0.000000 0.001621
vn 0.999999 0.000000 0.001621
vn 0.999999 0.000000 0.001621
vn 0.999999 0.000000 0.001621
vn 0.000000 -1.000000 0.000000
vn 0.000000 -1.000000 0.000000
vn 0.000000 -1.000000 0.000001
vn 0.000000 1.000000 0.000000
vn 0.000000 1.000000 0.000000
vn 0.000000 1.000000 0.000000
vn 0.000000 1.000000 0.000000
vn 0.000000 1.000000 0.000000
vn 0.000000 1.000000 0.000000
vn 0.000000 -1.000000 -0.000002
vn 0.000000 -1.000000 0.000000
vn 0.000000 -1.000000 0.000000
s off
g polySurface228
usemtl lambert2SG
f 1/1/1 2/2/2 8/3/3 7/4/4
f 7/4/5 8/3/6 4/5/7 3/6/8
f 5/7/9 6/8/10 2/2/11 1/1/12
f 8/9/13 6/8/14 4/10/15
f 5/7/16 1/1/17 7/11/18
f 5/7/19 7/11/20 3/12/21
f 2/2/22 6/8/23 8/9/24
g default
v 20.458084 12.253253 -0.526436
v 9.621567 12.253253 -0.543997
v 20.454166 13.552758 1.891090
v 9.617649 13.552758 1.873531
v 20.454166 12.253253 1.891090
v 9.617649 12.253253 1.873531
v 20.457767 13.552758 -0.517656
v 9.621250 13.552758 -0.535216
vt 0.430739 0.951405
vt 0.624862 0.951793
vt 0.624843 0.962783
vt 0.430713 0.962390
vt 0.624792 0.984126
vt 0.430673 0.983726
vt 0.430781 0.929011
vt 0.624894 0.929389
vt 0.635110 0.950008
vt 0.636952 0.929404
vn 0.001621 0.000000 -0.999999
vn 0.001621 0.000000 -0.999999
vn 0.001621 0.000000 -0.999999
vn 0.001621 0.000000 -0.999999
vn 0.000000 1.000000 0.000000
vn 0.000000 1.000000 0.000000
vn 0.000000 1.000000 0.000000
vn 0.000000 1.000000 0.000000
vn 0.000000 -1.000000 0.000000
vn 0.000000 -1.000000 0.000000
vn 0.000000 -1.000000 0.000000
vn 0.000000 -1.000000 0.000000
vn -0.999999 0.000000 -0.001620
vn -0.999999 0.000000 -0.001620
vn -0.999999 0.000000 -0.001620
vn -0.999999 0.000000 -0.001621
vn -0.999999 0.000000 -0.001620
vn -0.999999 0.000000 -0.001620
s off
g polySurface229
usemtl lambert2SG
f 9/13/25 10/14/26 16/15/27 15/16/28
f 15/16/29 16/15/30 12/17/31 11/18/32
f 13/19/33 14/20/34 10/14/35 9/13/36
f 16/21/37 14/20/38 12/22/39
f 10/14/40 14/20/41 16/21/42
g default
v 0.327061 1.254487 -0.520729
v -4.696381 1.254487 1.913183
v 0.334934 1.254487 1.896793
v -3.404743 5.034467 -0.508572
v -4.696381 5.034467 1.913183
v -3.396877 5.034467 1.908949
v -4.696381 1.254487 -0.508572
v -4.696381 5.034467 -0.508572
v -3.404743 13.672562 -0.508572
v -4.696381 13.672562 1.913183
v -3.396877 13.672562 1.908949
v -4.696381 13.672562 -0.508572
vt 0.669463 0.835894
vt 0.669466 0.857519
vt 0.621949 0.857547
vt 0.621940 0.835917
vt 0.714073 0.892372
vt 0.714052 0.936359
vt 0.680239 0.936350
vt 0.680234 0.925746
vt 0.714051 0.956959
vt 0.680246 0.956959
vt 0.374722 0.857672
vt 0.374711 0.836043
vt 0.433010 0.936475
vt 0.433006 0.925871
vt 0.433019 0.957082
vt 0.000026 0.000195
vt 1.000000 0.000000
vt 1.000014 1.794274
vt -0.096112 0.625935
vt 1.000000 0.000000
vt 0.999988 4.171758
vn 0.711621 0.702560 -0.002317
vn 0.711621 0.702560 -0.002317
vn 0.711621 0.702560 -0.002316
vn 0.711621 0.702560 -0.002317
vn -0.003257 0.000001 -0.999995
vn -0.003257 0.000001 -0.999995
vn -0.003255 0.000000 -0.999995
vn -0.003256 0.000000 -0.999995
vn -0.999995 0.000000 0.003251
vn -0.999995 0.000000 0.003251
vn -0.999995 0.000000 0.003251
vn -0.999995 0.000000 0.003251
vn 0.999995 0.000000 -0.003254
vn 0.999995 0.000000 -0.003254
vn 0.999995 0.000000 -0.003254
vn 0.999995 0.000000 -0.003254
vn -0.003255 0.000000 -0.999995
vn -0.003254 0.000000 -0.999995
vn -0.003254 0.000000 -0.999995
vn -0.003256 0.000000 -0.999995
vn -0.999995 0.000000 0.003251
vn -0.999995 0.000000 0.003251
vn -0.999995 0.000000 0.003251
vn -0.999995 0.000000 0.003251
vn 0.000000 1.000000 -0.000001
vn 0.000000 1.000000 -0.000001
vn 0.000000 1.000000 -0.000001
vn 0.000000 1.000000 0.000000
vn 0.000000 1.000000 0.000000
vn 0.000000 1.000000 0.000000
s off
g polySurface231
usemtl lambert2SG
f 19/23/43 17/24/44 20/25/45 22/26/46
f 17/27/47 23/28/48 24/29/49 20/30/50
f 23/28/51 18/31/52 21/32/53 24/29/54
f 20/25/55 25/33/56 27/34/57 22/26/58
f 24/29/59 28/35/60 25/36/61 20/30/62
f 21/32/63 26/37/64 28/35/65 24/29/66
f 27/38/67 25/39/68 28/40/69
f 28/41/70 26/42/71 27/43/72
g default
v 20.462370 36.961243 2.038754
v 15.735430 36.961243 2.019028
v 16.423111 36.961243 -4.781052
v 16.419064 32.578396 -3.811470
v 16.394718 32.578396 2.021774
v 20.477318 36.961243 -4.534424
v 20.473274 33.435173 -3.564838
v 20.449884 33.435173 2.038700
v -20.842621 36.961243 1.866362
v -16.249340 36.961243 1.885530
v -16.880238 36.961243 -4.920052
v -16.884285 32.578396 -3.950468
v -16.908630 32.578396 1.882776
v -20.802696 36.961243 -4.706716
v -20.806747 33.435173 -3.737128
v -20.830132 33.435173 1.866411
vt 0.724371 0.615499
vt 0.730705 0.650131
vt 0.662135 0.650132
vt 0.677693 0.617706
vt 0.863459 0.913393
vt 0.912511 0.913388
vt 0.912513 0.938705
vt 0.863461 0.936504
vt 0.679996 0.878431
vt 0.727003 0.871349
vt 0.718367 0.918120
vt 0.673576 0.918123
vt 0.737040 0.615499
vt 0.730705 0.650131
vt 0.925180 0.913387
vt 0.925182 0.938704
vt 0.799276 0.650132
vt 0.783717 0.617706
vt 0.974232 0.913383
vt 0.974234 0.936493
vt 0.739766 0.871382
vt 0.786695 0.878403
vt 0.780172 0.917662
vt 0.731353 0.917926
vn 0.000000 1.000000 0.000000
vn 0.000000 1.000000 0.000000
vn 0.000000 1.000000 0.000000
vn 0.000000 1.000000 0.000000
vn -0.278035 -0.960570 -0.001160
vn 0.467643 -0.883915 0.001952
vn 0.467643 -0.883915 0.001952
vn -0.278035 -0.960570 -0.001160
vn -0.164278 -0.183688 -0.969160
vn 0.102518 -0.181810 -0.977975
vn 0.088705 -0.278608 -0.956300
vn -0.117822 -0.344028 -0.931538
vn 0.000000 1.000000 0.000000
vn 0.000000 1.000000 0.000000
vn 0.000000 1.000000 0.000000
vn 0.000000 1.000000 0.000000
vn 0.000000 -1.000000 0.000000
vn 0.000000 -1.000000 0.000000
vn 0.000000 -1.000000 0.000000
vn 0.000000 -1.000000 0.000000
vn 0.000000 1.000000 -0.000001
vn 0.000000 1.000000 0.000000
vn 0.000000 1.000000 0.000000
vn 0.000000 1.000000 -0.000001
vn -0.467643 -0.883915 -0.001952
vn -0.467643 -0.883915 -0.001952
vn 0.327083 -0.944995 0.001365
vn 0.327083 -0.944995 0.001365
vn -0.094352 -0.181810 -0.978797
vn 0.204082 -0.182580 -0.961777
vn 0.148950 -0.342940 -0.927473
vn -0.080720 -0.278609 -0.957006
vn 0.102518 -0.181810 -0.977975
vn -0.094352 -0.181810 -0.978797
vn -0.080720 -0.278609 -0.957006
vn 0.088705 -0.278608 -0.956300
s off
g polySurface225
usemtl lambert2SG
f 31/44/73 30/45/74 29/46/75 34/47/76
f 36/48/77 33/49/78 32/50/79 35/51/80
f 35/52/81 32/53/82 31/54/83 34/55/84
f 39/56/85 38/57/86 30/45/87 31/44/88
f 33/49/89 41/58/90 40/59/91 32/50/92
f 37/60/93 38/57/94 39/56/95 42/61/96
f 40/59/97 41/58/98 44/62/99 43/63/100
f 40/64/101 43/65/102 42/66/103 39/67/104
f 32/53/105 40/64/106 39/67/107 31/54/108
g default
v -9.962448 12.253253 -0.575724
v -20.798965 12.253253 -0.593281
v -9.966366 13.552758 1.841808
v -20.802883 13.552758 1.824249
v -9.966366 12.253253 1.841808
v -20.802883 12.253253 1.824249
v -9.962765 13.552758 -0.566945
v -20.799282 13.552758 -0.584503
vt 0.430739 0.951405
vt 0.624862 0.951793
vt 0.624843 0.962783
vt 0.430713 0.962390
vt 0.624792 0.984126
vt 0.430673 0.983726
vt 0.430781 0.929011
vt 0.624894 0.929389
vt 0.420500 0.949618
vt 0.418722 0.929019
vn 0.001620 0.000000 -0.999999
vn 0.001620 0.000000 -0.999999
vn 0.001620 0.000000 -0.999999
vn 0.001620 0.000000 -0.999999
vn 0.000000 1.000000 0.000000
vn 0.000000 1.000000 0.000000
vn 0.000000 1.000000 0.000000
vn 0.000000 1.000000 0.000000
vn 0.000000 -1.000000 0.000000
vn 0.000000 -1.000000 0.000000
vn 0.000000 -1.000000 0.000000
vn 0.000000 -1.000000 0.000000
vn 0.999999 0.000001 0.001620
vn 0.999999 0.000000 0.001621
vn 0.999999 0.000001 0.001620
vn 0.999999 0.000001 0.001620
vn 0.999999 0.000001 0.001620
vn 0.999999 0.000001 0.001620
s off
g polySurface232
usemtl lambert2SG
f 45/68/109 46/69/110 52/70/111 51/71/112
f 51/71/113 52/70/114 48/72/115 47/73/116
f 49/74/117 50/75/118 46/69/119 45/68/120
f 49/74/121 45/68/122 51/76/123
f 49/74/124 51/76/125 47/77/126
g default
v 9.338801 19.695868 -2.471757
v 9.333014 26.401159 -2.476148
v -9.733114 26.415833 -1.478233
v 9.396747 19.619831 1.872851
v 9.402275 26.479740 1.872860
v -9.246914 19.844423 1.843206
v -9.207982 19.863480 0.402686
v -9.805336 26.479740 1.842320
v -9.206735 22.070745 -1.533555
v -5.772988 19.684210 -1.752608
v -1.974966 26.830490 -2.047772
v -1.974128 27.050936 1.854773
v -1.703287 19.212088 1.855200
vt 0.644461 0.652638
vt 0.600504 0.652283
vt 0.600904 0.619982
vt 0.645037 0.620729
vt 0.598041 0.707943
vt 0.569463 0.709319
vt 0.568029 0.655080
vt 0.639332 0.735493
vt 0.642977 0.765080
vt 0.622026 0.759994
vt 0.602047 0.790120
vt 0.598554 0.763998
vt 0.663369 0.761891
vt 0.654438 0.760795
vt 0.670017 0.710150
vt 0.573565 0.763582
vt 0.641392 0.774639
vt 0.642745 0.783926
vt 0.676688 0.658425
vn 0.994476 -0.060063 -0.086077
vn 0.994557 0.058804 -0.086015
vn 0.997956 0.063889 0.001617
vn 0.997907 -0.064648 0.001684
vn -0.001909 0.994992 -0.099939
vn 0.002476 0.999997 0.000004
vn 0.068881 0.997625 0.000111
vn 0.063613 0.993003 -0.099488
vn -0.334900 -0.645651 -0.686277
vn -0.522003 -0.680027 -0.514855
vn -0.521121 -0.459501 -0.719230
vn -0.980802 -0.114053 -0.158175
vn -0.998449 0.048016 -0.028166
vn -0.985244 0.035328 -0.167468
vn -0.058041 -0.080160 -0.995091
vn -0.051928 0.053056 -0.997240
vn -0.017177 0.044409 -0.998866
vn -0.019167 -0.073194 -0.997134
vn -0.087146 -0.996194 -0.001593
vn -0.100209 -0.994406 -0.033390
vn -0.028899 -0.988959 -0.145343
vn 0.000540 -0.999622 -0.027483
vn -0.058041 -0.080160 -0.995091
vn -0.109801 -0.024750 -0.993645
vn -0.122333 0.083870 -0.988939
vn -0.051928 0.053056 -0.997240
vn -0.092030 0.990693 -0.100291
vn -0.091227 0.995830 -0.000042
vn 0.002476 0.999997 0.000004
vn -0.001909 0.994992 -0.099939
vn -0.988672 -0.129254 -0.076302
vn -0.991220 -0.121544 -0.052056
vn -0.998449 0.048016 -0.028166
vn -0.980802 -0.114053 -0.158175
vn 0.000540 -0.999622 -0.027483
vn -0.028899 -0.988959 -0.145343
vn 0.031719 -0.990072 -0.136935
vn 0.039744 -0.998798 -0.028693
s off
g polySurface227
usemtl lambert2SG
f 53/78/127 54/79/128 57/80/129 56/81/130
f 63/82/131 64/83/132 57/84/133 54/79/134
f 62/85/135 59/86/136 61/87/137
f 61/87/138 60/88/139 55/89/140
f 62/85/141 63/82/142 54/79/143 53/78/144
f 58/90/145 59/91/146 62/85/147 65/92/148
f 62/85/149 61/87/150 55/89/151 63/82/152
f 55/89/153 60/93/154 64/83/155 63/82/156
f 59/94/157 58/95/158 60/88/159 61/87/160
f 65/92/161 62/85/162 53/78/163 56/96/164
g default
v 13.950771 19.524063 -0.536980
v 13.950768 26.482063 -0.536983
v 15.246355 19.524063 1.882652
v 15.246357 26.482063 1.882652
v 13.946854 19.524063 1.880550
v 13.946854 26.482063 1.880547
v 15.246356 19.524063 -0.536979
v 15.246354 26.482063 -0.536981
vt 0.430739 0.951405
vt 0.624862 0.951793
vt 0.624843 0.962783
vt 0.430713 0.962390
vt 0.624792 0.984126
vt 0.430673 0.983726
vt 0.430781 0.929011
vt 0.624894 0.929389
vt 0.635110 0.950008
vt 0.636952 0.929404
vt 0.420500 0.949618
vt 0.418722 0.929019
vn 0.001619 -0.000001 -0.999999
vn 0.001619 -0.000001 -0.999999
vn 0.001619 -0.000001 -0.999999
vn 0.001619 -0.000001 -0.999999
vn 0.999999 -0.000000 0.001620
vn 0.999999 -0.000000 0.001620
vn 0.999999 -0.000000 0.001620
vn 0.999999 -0.000000 0.001620
vn -0.999999 0.000000 -0.001620
vn -0.999999 0.000000 -0.001620
vn -0.999999 0.000000 -0.001620
vn -0.999999 0.000000 -0.001620
vn 0.000000 1.000000 0.000000
vn 0.000000 1.000000 0.000000
vn 0.000000 1.000000 0.000000
vn 0.000000 -1.000000 0.000000
vn 0.000000 -1.000000 0.000000
vn 0.000000 -1.000000 0.000000
vn 0.000000 -1.000000 0.000000
vn 0.000000 -1.000000 0.000000
vn 0.000000 -1.000000 0.000000
vn 0.000000 1.000000 0.000000
vn 0.000000 1.000000 0.000000
vn 0.000000 1.000000 0.000000
s off
g polySurface226
usemtl lambert2SG
f 66/97/165 67/98/166 73/99/167 72/100/168
f 72/100/169 73/99/170 69/101/171 68/102/172
f 70/103/173 71/104/174 67/98/175 66/97/176
f 73/105/177 71/104/178 69/106/179
f 70/103/180 66/97/181 72/107/182
f 70/103/183 72/107/184 68/108/185
f 67/98/186 71/104/187 73/105/188
g default
v 21.698433 0.000000 -6.568850
v -22.067959 0.000000 -6.639753
v 21.694576 2.533153 -4.188171
v -22.071815 2.533153 -4.259075
v 21.694576 0.000000 -4.188171
v -22.071815 0.000000 -4.259075
v 21.698219 2.533153 -6.533398
v -22.068174 2.533153 -6.604302
vt 0.856732 0.948731
vt 0.646786 0.991935
vt 0.646798 0.980646
vt 0.856707 0.960643
vt 0.855852 0.982346
vt 0.844791 0.960624
vt 0.635507 0.980637
vt 0.635530 0.959615
vt 0.646041 0.960082
vt 0.646830 0.949706
vt 0.856664 0.993299
vt 0.844761 0.982813
vn -0.001620 0.000000 0.999999
vn -0.001620 0.000000 0.999999
vn -0.001620 0.000000 0.999999
vn -0.001620 0.000000 0.999999
vn -0.999999 -0.000001 -0.001620
vn -0.999999 -0.000001 -0.001620
vn -0.999999 -0.000002 -0.001620
vn 0.999999 -0.000001 0.001620
vn 0.999999 0.000000 0.001620
vn 0.999999 -0.000001 0.001620
vn 0.001611 0.103902 -0.994586
vn 0.001611 0.103902 -0.994586
vn 0.001620 0.000000 -0.999999
vn 0.001620 0.000000 -0.999999
vn 0.000000 1.000000 0.000000
vn 0.000000 1.000000 0.000000
vn 0.000179 0.993879 -0.110478
vn 0.000179 0.993879 -0.110478
vn 0.999999 -0.000001 0.001620
vn 0.999999 -0.000001 0.001620
vn 0.999999 -0.000001 0.001620
vn -0.999999 0.000000 -0.001620
vn -0.999999 -0.000001 -0.001620
vn -0.999999 -0.000001 -0.001620
s off
g polySurface233
usemtl lambert2SG
f 79/109/189 78/110/190 76/111/191 77/112/192
f 81/113/193 79/114/194 77/112/195
f 78/115/196 74/116/197 80/117/198
f 81/113/199 80/117/200 74/118/201 75/119/202
f 77/112/203 76/111/204 80/117/205 81/113/206
f 78/115/207 80/117/208 76/111/209
f 75/120/210 79/114/211 81/113/212
g default
v 3.111961 7.945061 -0.554541
v 3.111961 13.673058 -0.554543
v 4.407547 7.945061 1.865095
v 4.407551 13.673058 1.865091
v 3.108047 7.945061 1.862989
v 3.108044 13.673058 1.862988
v 4.407547 7.945061 -0.554540
v 4.407547 13.673058 -0.554542
vt 0.430739 0.951405
vt 0.624862 0.951793
vt 0.624843 0.962783
vt 0.430713 0.962390
vt 0.624792 0.984126
vt 0.430673 0.983726
vt 0.430781 0.929011
vt 0.624894 0.929389
vt 0.635110 0.950008
vt 0.636952 0.929404
vt 0.420500 0.949618
vt 0.418722 0.929019
vn 0.001619 0.000000 -0.999999
vn 0.001619 0.000000 -0.999999
vn 0.001619 0.000000 -0.999999
vn 0.001619 0.000000 -0.999999
vn 0.999999 -0.000000 0.001621
vn 0.999999 -0.000000 0.001621
vn 0.999999 -0.000000 0.001621
vn 0.999999 -0.000000 0.001621
vn -0.999999 0.000000 -0.001620
vn -0.999999 0.000000 -0.001620
vn -0.999999 0.000000 -0.001620
vn -0.999999 0.000000 -0.001620
vn 0.000000 1.000000 0.000000
vn 0.000000 1.000000 0.000000
vn 0.000000 1.000000 0.000000
vn 0.000000 -1.000000 0.000000
vn 0.000000 -1.000000 0.000000
vn 0.000000 -1.000000 0.000000
vn 0.000000 -1.000000 0.000000
vn 0.000000 -1.000000 0.000000
vn 0.000000 -1.000000 0.000000
vn 0.000000 1.000000 0.000000
vn 0.000000 1.000000 0.000000
vn 0.000000 1.000000 0.000000
s off
g polySurface230
usemtl lambert2SG
f 82/121/213 83/122/214 89/123/215 88/124/216
f 88/124/217 89/123/218 85/125/219 84/126/220
f 86/127/221 87/128/222 83/122/223 82/121/224
f 89/129/225 87/128/226 85/130/227
f 86/127/228 82/121/229 88/131/230
f 86/127/231 88/131/232 84/132/233
f 83/122/234 87/128/235 89/129/236
