# This file uses centimeters as units for non-parametric coordinates.

mtllib MazeBoss_propellerCOL.mtl
g default
v -1.423728 5.716525 -11.728752
v 1.163019 5.731687 -11.732004
v -0.124231 4.430723 -12.892893
v 4.534554 -0.173757 -12.898743
v 5.821811 1.127200 -11.737854
v 5.836977 -1.459555 -11.737862
v -6.028205 1.057740 -11.722971
v -4.728711 -0.228061 -12.887112
v -6.013046 -1.529022 -11.722999
v -1.354248 -6.133505 -11.728842
v -0.069916 -4.832545 -12.892969
v 1.232500 -6.118346 -11.732080
v 1.168170 5.731687 -0.009040
v -1.418578 5.716532 -0.005788
v 5.842127 -1.459555 -0.014898
v 5.826968 1.127213 -0.014877
v -6.023068 1.057740 0.000000
v -6.007903 -1.529015 -0.000028
v -1.349111 -6.133512 -0.005864
v 1.237640 -6.118340 -0.009124
vt 0.814066 0.738060
vt 0.803744 0.724766
vt 0.838657 0.689596
vt 0.851463 0.700256
vt 0.174674 0.890334
vt 0.154761 0.890354
vt 0.154737 0.858846
vt 0.174646 0.858830
vt 0.793094 0.737769
vt 0.755530 0.700785
vt 0.767989 0.689985
vt 0.755222 0.679241
vt 0.792422 0.641851
vt 0.803149 0.654436
vt 0.245009 0.890248
vt 0.225097 0.890275
vt 0.225058 0.858768
vt 0.244968 0.858742
vt 0.104334 0.890378
vt 0.084421 0.890381
vt 0.084418 0.858875
vt 0.104328 0.858874
vt 0.851237 0.678755
vt 0.813888 0.641654
vt 0.033998 0.890370
vt 0.014088 0.890365
vt 0.014093 0.858858
vt 0.034004 0.858863
vt 0.295384 0.858670
vt 0.295429 0.890176
vn -0.382558 0.377052 -0.843494
vn -0.382558 0.377052 -0.843494
vn -0.382558 0.377052 -0.843494
vn -0.382558 0.377052 -0.843494
vn -0.005860 0.999983 0.000002
vn -0.005860 0.999983 0.000002
vn -0.005860 0.999983 0.000002
vn -0.005860 0.999983 0.000002
vn 0.375991 0.381498 -0.844447
vn 0.375991 0.381498 -0.844447
vn 0.375991 0.381498 -0.844447
vn 0.375991 0.381498 -0.844447
vn 0.380441 -0.377053 -0.844450
vn 0.380441 -0.377053 -0.844450
vn 0.380441 -0.377053 -0.844450
vn 0.380441 -0.377053 -0.844450
vn 0.999983 0.005861 -0.000440
vn 0.999983 0.005861 -0.000440
vn 0.999983 0.005861 -0.000440
vn 0.999983 0.005861 -0.000440
vn -0.999983 -0.005861 0.000438
vn -0.999983 -0.005861 0.000438
vn -0.999983 -0.005861 0.000438
vn -0.999983 -0.005861 0.000438
vn -0.378110 -0.381499 -0.843499
vn -0.378110 -0.381499 -0.843499
vn -0.378110 -0.381499 -0.843499
vn -0.378110 -0.381499 -0.843499
vn 0.005863 -0.999983 -0.000003
vn 0.005863 -0.999983 -0.000003
vn 0.005863 -0.999983 -0.000003
vn 0.005863 -0.999983 -0.000003
vn 0.702948 0.711241 -0.000309
vn 0.702948 0.711241 -0.000309
vn 0.702948 0.711241 -0.000309
vn 0.702948 0.711241 -0.000309
vn -0.001256 0.000001 -0.999999
vn -0.001256 0.000001 -0.999999
vn -0.001256 0.000001 -0.999999
vn -0.001256 0.000001 -0.999999
vn -0.702949 -0.711240 0.000308
vn -0.702949 -0.711240 0.000308
vn -0.702949 -0.711240 0.000308
vn -0.702949 -0.711240 0.000308
vn 0.711240 -0.702949 -0.000312
vn 0.711240 -0.702949 -0.000312
vn 0.711240 -0.702949 -0.000312
vn 0.711240 -0.702949 -0.000312
vn -0.711240 0.702950 0.000312
vn -0.711240 0.702950 0.000312
vn -0.711240 0.702950 0.000312
vn -0.711240 0.702950 0.000312
vn -0.004853 0.668458 -0.743734
vn -0.004853 0.668458 -0.743734
vn -0.004853 0.668458 -0.743734
vn 0.667525 0.003916 -0.744577
vn 0.667525 0.003916 -0.744577
vn 0.667525 0.003916 -0.744577
vn -0.669393 -0.003915 -0.742898
vn -0.669393 -0.003915 -0.742898
vn -0.669393 -0.003915 -0.742898
vn 0.002986 -0.668462 -0.743740
vn 0.002986 -0.668462 -0.743740
vn 0.002986 -0.668462 -0.743740
s off
g polySurface301
usemtl lambert2SG
f 1/1/1 3/2/2 8/3/3 7/4/4
f 2/5/5 1/6/6 14/7/7 13/8/8
f 3/2/9 2/9/10 5/10/11 4/11/12
f 4/11/13 6/12/14 12/13/15 11/14/16
f 6/15/17 5/16/18 16/17/19 15/18/20
f 7/19/21 9/20/22 18/21/23 17/22/24
f 9/23/25 8/3/26 11/14/27 10/24/28
f 10/25/29 12/26/30 20/27/31 19/28/32
f 2/5/33 13/8/34 16/17/35 5/16/36
f 3/2/37 4/11/38 11/14/39 8/3/40
f 9/20/41 10/25/42 19/28/43 18/21/44
f 20/29/45 12/30/46 6/15/47 15/18/48
f 7/19/49 17/22/50 14/7/51 1/6/52
f 1/1/53 2/9/54 3/2/55
f 4/11/56 5/10/57 6/12/58
f 7/4/59 8/3/60 9/23/61
f 10/24/62 11/14/63 12/13/64
g default
v 1.078773 -20.035362 -11.714836
v -1.294744 -20.035362 0.017314
v 1.077861 -20.035362 0.017851
v -1.294744 -20.035362 -11.714836
v -1.294744 -4.565560 0.017317
v -1.294744 -4.565560 -11.714836
v 1.078773 -4.565560 -11.714833
v 1.077860 -4.565560 0.017851
vt 0.756902 0.781322
vt 0.827185 0.781321
vt 0.829011 0.798514
vt 0.756902 0.797979
vt 0.827185 0.827955
vt 0.756902 0.827955
vt 0.756902 0.749741
vt 0.827185 0.749741
vt 0.858766 0.781322
vt 0.858766 0.799584
vn 0.000223 0.000000 -1.000000
vn 0.000223 0.000000 -1.000000
vn 0.000223 0.000000 -1.000000
vn 0.000223 0.000000 -1.000000
vn -1.000000 0.000000 -0.000069
vn -1.000000 0.000000 -0.000069
vn -1.000000 0.000000 -0.000069
vn -1.000000 0.000000 -0.000069
vn 1.000000 0.000000 0.000078
vn 1.000000 0.000000 0.000078
vn 1.000000 0.000000 0.000078
vn 1.000000 0.000000 0.000078
vn 0.000000 -1.000000 0.000000
vn 0.000000 -1.000000 0.000000
vn 0.000000 -1.000000 0.000000
vn 0.000000 -1.000000 0.000000
vn 0.000000 -1.000000 0.000000
vn 0.000000 -1.000000 0.000000
s off
g polySurface297
usemtl lambert2SG
f 27/31/65 21/32/66 24/33/67 26/34/68
f 26/34/69 24/33/70 22/35/71 25/36/72
f 28/37/73 23/38/74 21/32/75 27/31/76
f 24/33/77 23/39/78 22/40/79
f 21/32/80 23/39/81 24/33/82
g default
v 20.002945 -1.327172 -11.712015
v 20.001610 1.045426 0.020664
v 20.001610 -1.327172 0.020664
v 20.002829 1.045426 -11.710995
v 4.565103 1.045426 0.018626
v 4.565937 1.045426 -11.713036
v 4.566017 -1.327172 -11.714056
v 4.565103 -1.327172 0.018626
vt 0.733745 0.869557
vt 0.765321 0.869660
vt 0.763447 0.886847
vt 0.733686 0.887819
vt 0.835562 0.886492
vt 0.835488 0.916468
vt 0.765203 0.916295
vt 0.835603 0.869834
vt 0.765399 0.838080
vt 0.835681 0.838254
vn 1.000000 0.000048 0.000111
vn 1.000000 0.000000 0.000114
vn 1.000000 0.000027 0.000112
vn 1.000000 0.000048 0.000111
vn 1.000000 0.000050 0.000111
vn 1.000000 0.000050 0.000111
vn 0.000000 1.000000 0.000000
vn 0.000000 1.000000 0.000000
vn 0.000000 1.000000 0.000000
vn 0.000000 1.000000 0.000000
vn 0.000132 0.000000 -1.000000
vn 0.000132 0.000000 -1.000000
vn 0.000132 0.000000 -1.000000
vn 0.000132 0.000000 -1.000000
vn 0.000000 -1.000000 0.000000
vn 0.000000 -1.000000 0.000000
vn 0.000000 -1.000000 0.000000
vn 0.000000 -1.000000 0.000000
s off
g polySurface300
usemtl lambert2SG
f 31/41/83 29/42/84 32/43/85
f 31/41/86 32/43/87 30/44/88
f 32/43/89 34/45/90 33/46/91 30/47/92
f 29/42/93 35/48/94 34/45/95 32/43/96
f 31/49/97 36/50/98 35/48/99 29/42/100
g default
v 1.078773 20.035362 -11.714828
v -1.294744 20.035362 0.017321
v 1.077858 20.035362 0.017851
v -1.294744 20.035362 -11.714831
v -1.294744 4.565562 0.017319
v -1.294744 4.565562 -11.714833
v 1.078773 4.565562 -11.714832
v 1.077859 4.565562 0.017851
vt 0.537689 0.614135
vt 0.569267 0.613990
vt 0.567524 0.631191
vt 0.537773 0.632396
vt 0.639632 0.630295
vt 0.639783 0.660271
vt 0.569499 0.660624
vt 0.639549 0.613638
vt 0.569109 0.582410
vt 0.639391 0.582058
vn 0.000000 1.000000 0.000000
vn 0.000000 1.000000 0.000000
vn 0.000000 1.000000 0.000000
vn 0.000000 1.000000 0.000000
vn 0.000000 1.000000 0.000000
vn 0.000000 1.000000 0.000000
vn -1.000000 0.000000 -0.000069
vn -1.000000 0.000000 -0.000069
vn -1.000000 0.000000 -0.000069
vn -1.000000 0.000000 -0.000069
vn 0.000226 0.000000 -1.000000
vn 0.000226 0.000000 -1.000000
vn 0.000226 0.000000 -1.000000
vn 0.000226 0.000000 -1.000000
vn 1.000000 0.000000 0.000078
vn 1.000000 0.000000 0.000078
vn 1.000000 0.000000 0.000078
vn 1.000000 0.000000 0.000078
s off
g polySurface298
usemtl lambert2SG
f 39/51/101 37/52/102 40/53/103
f 39/51/104 40/53/105 38/54/106
f 40/53/107 42/55/108 41/56/109 38/57/110
f 37/52/111 43/58/112 42/55/113 40/53/114
f 39/59/115 44/60/116 43/58/117 37/52/118
g default
v -20.001610 -1.327172 -11.718138
v -20.002949 1.045426 0.014549
v -20.002949 -1.327172 0.014549
v -20.001728 1.045426 -11.719158
v -4.566019 1.045426 0.016588
v -4.565183 1.045426 -11.717117
v -4.565102 -1.327172 -11.716097
v -4.566019 -1.327172 0.016588
vt 0.650652 0.920994
vt 0.720936 0.920994
vt 0.722762 0.938186
vt 0.650652 0.937652
vt 0.720935 0.967628
vt 0.650652 0.967627
vt 0.650652 0.889413
vt 0.720936 0.889413
vt 0.752516 0.920994
vt 0.752516 0.939256
vn 0.000132 0.000000 -1.000000
vn 0.000132 0.000000 -1.000000
vn 0.000132 0.000000 -1.000000
vn 0.000132 0.000000 -1.000000
vn 0.000000 1.000000 0.000000
vn 0.000000 1.000000 0.000000
vn 0.000000 1.000000 0.000000
vn 0.000000 1.000000 0.000000
vn 0.000000 -1.000000 0.000000
vn 0.000000 -1.000000 0.000000
vn 0.000000 -1.000000 0.000000
vn 0.000000 -1.000000 0.000000
vn -1.000000 -0.000027 -0.000112
vn -1.000000 -0.000047 -0.000111
vn -1.000000 -0.000050 -0.000111
vn -1.000000 0.000000 -0.000114
vn -1.000000 -0.000047 -0.000111
vn -1.000000 -0.000027 -0.000112
s off
g polySurface299
usemtl lambert2SG
f 51/61/119 45/62/120 48/63/121 50/64/122
f 50/64/123 48/63/124 46/65/125 49/66/126
f 52/67/127 47/68/128 45/62/129 51/61/130
f 48/63/131 47/69/132 46/70/133
f 45/62/134 47/69/135 48/63/136
