# This file uses centimeters as units for non-parametric coordinates.

mtllib MazeBig02_propeller.mtl
g default
v 0.590858 7.501854 -2.237446
v 0.590858 -7.501854 -2.237450
v -0.709148 7.501854 0.009487
v -0.709148 -7.501854 0.009483
v 0.590357 7.501854 0.009777
v 0.590359 -7.501854 0.009777
v -0.708733 7.501854 -1.847923
v -0.318836 7.501854 -2.237652
v -0.708733 -7.501854 -1.847927
v -0.318836 -7.501854 -2.237652
v 7.502102 -0.726910 -2.235905
v -7.501601 -0.726910 -2.239258
v 7.501602 0.572594 0.011318
v -7.502105 0.572594 0.007969
v 7.501602 -0.726910 0.011318
v -7.502105 -0.726910 0.007969
v 7.502014 0.572594 -1.846092
v 7.502102 0.182785 -2.235905
v -7.501690 0.572594 -1.849445
v -7.501601 0.182785 -2.239258
v -0.779795 3.131016 -2.245071
v 0.637001 3.139320 -2.246853
v -0.068043 2.426765 -2.882687
v 2.483635 -0.095169 -2.885891
v 3.188683 0.617382 -2.250057
v 3.196989 -0.799417 -2.250061
v -3.301727 0.579338 -2.241905
v -2.589977 -0.124912 -2.879520
v -3.293425 -0.837465 -2.241920
v -0.741739 -3.359402 -2.245121
v -0.038294 -2.646849 -2.882729
v 0.675056 -3.351099 -2.246895
v 0.639822 3.139320 -0.004951
v -0.776974 3.131020 -0.003170
v 3.199810 -0.799417 -0.008160
v 3.191507 0.617390 -0.008148
v -3.298914 0.579338 0.000000
v -3.290607 -0.837461 -0.000015
v -0.738926 -3.359406 -0.003212
v 0.677872 -3.351095 -0.004997
v -2.500869 0.572594 0.009085
v -2.500455 0.572594 -1.848328
v -2.500366 0.182785 -2.238140
v -2.500366 -0.726910 -2.238140
v -2.500869 -0.726910 0.009085
v 2.500367 0.572594 0.010202
v 2.500780 0.572594 -1.847210
v 2.500868 0.182785 -2.237022
v 2.500868 -0.726910 -2.237022
v 2.500367 -0.726910 0.010202
v -0.709148 -2.500617 0.009485
v -0.708733 -2.500617 -1.847926
v -0.318836 -2.500617 -2.237652
v 0.590858 -2.500617 -2.237448
v 0.590358 -2.500617 0.009777
v -0.709148 2.500618 0.009486
v -0.708733 2.500618 -1.847925
v -0.318836 2.500618 -2.237652
v 0.590858 2.500618 -2.237447
v 0.590357 2.500618 0.009777
vt 0.756902 0.781322
vt 0.827185 0.781321
vt 0.827186 0.794105
vt 0.756902 0.794106
vt 0.756902 0.801853
vt 0.827185 0.801853
vt 0.827185 0.827955
vt 0.756902 0.827955
vt 0.756902 0.749741
vt 0.827185 0.749741
vt 0.858766 0.781322
vt 0.858766 0.799584
vt 0.832663 0.799584
vt 0.537689 0.614135
vt 0.569267 0.613990
vt 0.569329 0.626774
vt 0.563876 0.632277
vt 0.537773 0.632396
vt 0.650652 0.920994
vt 0.720936 0.920994
vt 0.720936 0.933778
vt 0.650652 0.933778
vt 0.650652 0.941525
vt 0.720936 0.941525
vt 0.720935 0.967628
vt 0.650652 0.967627
vt 0.650652 0.889413
vt 0.720936 0.889413
vt 0.752516 0.920994
vt 0.752516 0.939256
vt 0.726413 0.939256
vt 0.733745 0.869557
vt 0.765321 0.869660
vt 0.765286 0.882445
vt 0.759789 0.887905
vt 0.733686 0.887819
vt 0.814066 0.738060
vt 0.803744 0.724766
vt 0.838657 0.689596
vt 0.851463 0.700256
vt 0.174674 0.890334
vt 0.154761 0.890354
vt 0.154737 0.858846
vt 0.174646 0.858830
vt 0.793094 0.737769
vt 0.755530 0.700785
vt 0.767989 0.689985
vt 0.755222 0.679241
vt 0.792422 0.641851
vt 0.803149 0.654436
vt 0.245009 0.890248
vt 0.225097 0.890275
vt 0.225058 0.858768
vt 0.244968 0.858742
vt 0.104334 0.890378
vt 0.084421 0.890381
vt 0.084418 0.858875
vt 0.104328 0.858874
vt 0.851237 0.678755
vt 0.813888 0.641654
vt 0.033998 0.890370
vt 0.014088 0.890365
vt 0.014093 0.858858
vt 0.034004 0.858863
vt 0.295384 0.858670
vt 0.295429 0.890176
vt 0.765267 0.890192
vt 0.835552 0.890365
vt 0.835488 0.916468
vt 0.765203 0.916295
vt 0.835571 0.882618
vt 0.835603 0.869834
vt 0.765399 0.838080
vt 0.835681 0.838254
vt 0.569368 0.634521
vt 0.639652 0.634168
vt 0.639783 0.660271
vt 0.569499 0.660624
vt 0.639613 0.626421
vt 0.639549 0.613638
vt 0.569109 0.582410
vt 0.639391 0.582058
vn 0.000223 0.000000 -1.000000
vn 0.000223 0.000000 -1.000000
vn 0.000223 0.000000 -1.000000
vn 0.000223 0.000000 -1.000000
vn -1.000000 0.000000 -0.000224
vn -1.000000 0.000000 -0.000224
vn -1.000000 0.000000 -0.000224
vn -1.000000 0.000000 -0.000224
vn 1.000000 0.000000 0.000223
vn 1.000000 0.000000 0.000223
vn 1.000000 0.000000 0.000223
vn 1.000000 0.000000 0.000223
vn 0.000000 -1.000000 0.000000
vn 0.000000 -1.000000 0.000000
vn 0.000000 -1.000000 0.000000
vn 0.000000 -1.000000 0.000000
vn 0.000000 1.000000 0.000000
vn 0.000000 1.000000 0.000000
vn 0.000000 1.000000 0.000000
vn -0.706952 0.000000 -0.707262
vn -0.706951 0.000000 -0.707262
vn -0.706951 0.000000 -0.707262
vn -0.706951 0.000000 -0.707262
vn 0.000000 1.000000 0.000000
vn 0.000000 1.000000 0.000000
vn 0.000000 1.000000 0.000000
vn 0.000000 1.000000 0.000000
vn 0.000000 -1.000000 0.000000
vn 0.000000 -1.000000 0.000000
vn 0.000000 -1.000000 0.000000
vn 0.000224 0.000000 -1.000000
vn 0.000224 0.000000 -1.000000
vn 0.000224 0.000000 -1.000000
vn 0.000224 0.000000 -1.000000
vn 0.000000 1.000000 0.000000
vn 0.000000 1.000000 0.000000
vn 0.000000 1.000000 0.000000
vn 0.000000 1.000000 0.000000
vn 0.000000 -1.000000 0.000000
vn 0.000000 -1.000000 0.000000
vn 0.000000 -1.000000 0.000000
vn 0.000000 -1.000000 0.000000
vn -1.000000 -0.000001 -0.000224
vn -1.000000 -0.000001 -0.000224
vn -1.000000 -0.000001 -0.000224
vn -1.000000 -0.000001 -0.000224
vn 1.000000 0.000000 0.000222
vn 1.000000 0.000000 0.000222
vn 1.000000 0.000000 0.000222
vn 0.000158 0.707110 -0.707103
vn 0.000158 0.707110 -0.707103
vn 0.000158 0.707110 -0.707103
vn 0.000158 0.707110 -0.707103
vn 1.000000 0.000000 0.000222
vn 1.000000 0.000000 0.000222
vn 1.000000 0.000001 0.000222
vn 1.000000 0.000001 0.000222
vn -1.000000 0.000000 -0.000224
vn -1.000000 -0.000001 -0.000224
vn -1.000000 -0.000001 -0.000224
vn -0.382558 0.377052 -0.843494
vn -0.382558 0.377052 -0.843494
vn -0.382557 0.377052 -0.843494
vn -0.382558 0.377052 -0.843494
vn -0.005860 0.999983 0.000006
vn -0.005860 0.999983 0.000006
vn -0.005860 0.999983 0.000006
vn -0.005860 0.999983 0.000006
vn 0.375991 0.381498 -0.844447
vn 0.375991 0.381498 -0.844447
vn 0.375991 0.381498 -0.844447
vn 0.375991 0.381498 -0.844447
vn 0.380441 -0.377053 -0.844450
vn 0.380441 -0.377053 -0.844450
vn 0.380441 -0.377053 -0.844450
vn 0.380441 -0.377053 -0.844450
vn 0.999982 0.005861 -0.001259
vn 0.999982 0.005861 -0.001259
vn 0.999982 0.005861 -0.001259
vn 0.999982 0.005861 -0.001259
vn -0.999982 -0.005862 0.001256
vn -0.999982 -0.005862 0.001256
vn -0.999982 -0.005862 0.001256
vn -0.999982 -0.005862 0.001256
vn -0.378110 -0.381499 -0.843499
vn -0.378110 -0.381499 -0.843499
vn -0.378110 -0.381499 -0.843499
vn -0.378110 -0.381499 -0.843499
vn 0.005863 -0.999983 -0.000007
vn 0.005863 -0.999983 -0.000007
vn 0.005863 -0.999983 -0.000007
vn 0.005863 -0.999983 -0.000007
vn 0.702948 0.711241 -0.000886
vn 0.702948 0.711241 -0.000886
vn 0.702948 0.711241 -0.000886
vn 0.702948 0.711241 -0.000886
vn -0.001256 0.000001 -0.999999
vn -0.001256 0.000001 -0.999999
vn -0.001256 0.000001 -0.999999
vn -0.001256 0.000001 -0.999999
vn -0.702949 -0.711240 0.000883
vn -0.702949 -0.711240 0.000883
vn -0.702949 -0.711240 0.000883
vn -0.702949 -0.711240 0.000883
vn 0.711239 -0.702950 -0.000893
vn 0.711239 -0.702950 -0.000893
vn 0.711239 -0.702950 -0.000893
vn 0.711239 -0.702950 -0.000893
vn -0.711239 0.702950 0.000893
vn -0.711239 0.702950 0.000893
vn -0.711239 0.702950 0.000893
vn -0.711239 0.702950 0.000893
vn -0.004853 0.668458 -0.743734
vn -0.004853 0.668458 -0.743734
vn -0.004853 0.668458 -0.743734
vn 0.667525 0.003916 -0.744577
vn 0.667525 0.003916 -0.744577
vn 0.667525 0.003916 -0.744577
vn -0.669393 -0.003915 -0.742898
vn -0.669393 -0.003915 -0.742898
vn -0.669393 -0.003915 -0.742898
vn 0.002986 -0.668463 -0.743740
vn 0.002986 -0.668463 -0.743740
vn 0.002986 -0.668463 -0.743740
vn 0.000000 1.000000 0.000000
vn 0.000000 1.000000 0.000000
vn 0.000000 1.000000 0.000000
vn 0.000000 1.000000 0.000000
vn 0.000158 0.707110 -0.707103
vn 0.000158 0.707110 -0.707103
vn 0.000158 0.707110 -0.707103
vn 0.000158 0.707110 -0.707103
vn 0.000223 0.000000 -1.000000
vn 0.000223 0.000000 -1.000000
vn 0.000223 0.000000 -1.000000
vn 0.000223 0.000000 -1.000000
vn 0.000000 -1.000000 0.000000
vn 0.000000 -1.000000 0.000000
vn 0.000000 -1.000000 0.000000
vn 0.000000 -1.000000 0.000000
vn -1.000000 0.000000 -0.000224
vn -1.000000 0.000000 -0.000224
vn -1.000000 0.000000 -0.000224
vn -1.000000 0.000000 -0.000224
vn -0.706954 0.000000 -0.707260
vn -0.706954 0.000000 -0.707260
vn -0.706954 0.000000 -0.707260
vn -0.706954 0.000000 -0.707260
vn 0.000226 0.000000 -1.000000
vn 0.000226 0.000000 -1.000000
vn 0.000226 0.000000 -1.000000
vn 0.000226 0.000000 -1.000000
vn 1.000000 0.000000 0.000223
vn 1.000000 0.000000 0.000223
vn 1.000000 0.000000 0.000223
vn 1.000000 0.000000 0.000223
s off
g polySurface261
usemtl blinn1SG
f 54/1/1 2/2/2 10/3/3 53/4/4
f 52/5/5 9/6/6 4/7/7 51/8/8
f 55/9/9 6/10/10 2/2/11 54/1/12
f 10/3/13 6/11/14 4/12/15 9/13/16
f 5/14/17 1/15/18 8/16/19
f 52/5/20 53/4/21 10/3/22 9/6/23
f 5/14/24 8/16/25 7/17/26 3/18/27
f 2/2/28 6/11/29 10/3/30
f 44/19/31 12/20/32 20/21/33 43/22/34
f 42/23/35 19/24/36 14/25/37 41/26/38
f 45/27/39 16/28/40 12/20/41 44/19/42
f 20/21/43 16/29/44 14/30/45 19/31/46
f 15/32/47 11/33/48 18/34/49
f 42/23/50 43/22/51 20/21/52 19/24/53
f 15/32/54 18/34/55 17/35/56 13/36/57
f 12/20/58 16/29/59 20/21/60
f 21/37/61 23/38/62 28/39/63 27/40/64
f 22/41/65 21/42/66 34/43/67 33/44/68
f 23/38/69 22/45/70 25/46/71 24/47/72
f 24/47/73 26/48/74 32/49/75 31/50/76
f 26/51/77 25/52/78 36/53/79 35/54/80
f 27/55/81 29/56/82 38/57/83 37/58/84
f 29/59/85 28/39/86 31/50/87 30/60/88
f 30/61/89 32/62/90 40/63/91 39/64/92
f 22/41/93 33/44/94 36/53/95 25/52/96
f 23/38/97 24/47/98 31/50/99 28/39/100
f 29/56/101 30/61/102 39/64/103 38/57/104
f 40/65/105 32/66/106 26/51/107 35/54/108
f 27/55/109 37/58/110 34/43/111 21/42/112
f 21/37/113 22/45/114 23/38/115
f 24/47/116 25/46/117 26/48/118
f 27/40/119 28/39/120 29/59/121
f 30/60/122 31/50/123 32/49/124
f 17/67/125 47/68/126 46/69/127 13/70/128
f 17/67/129 18/34/130 48/71/131 47/68/132
f 11/33/133 49/72/134 48/71/135 18/34/136
f 15/73/137 50/74/138 49/72/139 11/33/140
f 7/75/141 57/76/142 56/77/143 3/78/144
f 7/75/145 8/16/146 58/79/147 57/76/148
f 1/15/149 59/80/150 58/79/151 8/16/152
f 5/81/153 60/82/154 59/80/155 1/15/156
