# This file uses centimeters as units for non-parametric coordinates.

mtllib TempleFloorCOL.mtl
g default
v 133.272537 91.283783 514.796265
v -128.649277 91.283783 514.796265
v -128.649277 91.283783 836.171875
v 133.272537 91.283783 836.171875
vt 0.991914 0.830328
vt 0.320827 0.830328
vt 0.320827 0.006911
vt 0.991914 0.006911
vn 0.000000 1.000000 0.000000
vn 0.000000 1.000000 0.000000
vn 0.000000 1.000000 0.000000
vn 0.000000 1.000000 0.000000
s off
g polySurface2
usemtl initialShadingGroup
f 1/1/1 2/2/2 3/3/3 4/4/4
g default
v 47.341057 72.138161 958.072815
v 17.058838 72.138161 943.625244
v 14.620428 69.326118 947.298462
v 40.678638 69.326118 959.730774
v -24.629143 72.138161 993.866882
v -6.931976 72.138161 1020.059021
v -6.023952 69.326118 1013.070618
v -21.252573 69.326118 990.531982
v 32.981567 72.138161 980.711975
v 28.322126 69.326118 979.212036
v 17.058838 72.138161 1002.718750
v 14.620428 69.326118 998.149109
v 28.212025 72.138161 882.973267
v 206.588348 72.138161 995.120972
v 206.588348 72.138161 847.741394
v 41.194233 72.138161 996.955505
v 35.389221 69.326118 993.189758
v -205.294891 72.138161 1142.500488
v 206.588348 72.138161 1142.500488
v 32.707268 72.138161 900.212219
v 63.572018 72.138161 847.741394
v 49.097805 72.138161 870.588562
v -48.185631 72.138161 993.855469
v -41.523212 69.326118 990.522156
v -34.117676 72.138161 973.171997
v -29.417568 69.326118 972.723755
v 0.000000 72.138161 919.858398
v -0.058904 69.326118 926.846802
v -16.148758 72.138161 910.007690
v -33.477139 72.138161 942.064087
v -6.329373 72.138161 935.197998
v -0.000003 72.138161 892.648865
v -17.338999 72.138161 897.489624
v -28.866379 69.326118 945.955078
v -5.505405 69.326118 940.046692
v 26.013767 69.326118 877.035156
v 30.158745 69.326118 894.274109
v -205.294891 72.138161 995.120972
v 58.618538 69.326118 844.230957
v 45.272144 69.326118 864.650452
v -0.000003 69.326118 886.710754
v -14.890461 69.326118 904.069580
v -15.987959 69.326118 891.551514
v -45.334568 72.138161 884.998047
v -41.802135 69.326118 879.059937
v -43.480484 72.138161 871.860718
v -205.294891 72.138161 847.741394
v -63.572029 72.138161 847.741394
v -40.092522 69.326118 865.922607
v -58.618549 69.326118 844.230957
vt 0.877824 0.863513
vt 0.795954 0.863633
vt 0.795951 0.856766
vt 0.877816 0.856646
vt 0.777164 0.886873
vt 0.853078 0.886935
vt 0.853031 0.893808
vt 0.777173 0.893767
vt 0.943387 0.863447
vt 0.943382 0.856592
vt 0.926195 0.886862
vt 0.926192 0.893782
vt 0.576802 0.587189
vt 0.539316 0.483192
vt 0.988494 0.863429
vt 0.988495 0.856599
vt 0.987958 0.886876
vt 0.987961 0.893763
vt 0.993342 0.359832
vt 0.611858 0.448582
vt 0.006658 0.006778
vt 0.993342 0.712885
vt 0.650740 0.712885
vt 0.616067 0.658154
vt 0.566034 0.628486
vt 0.721227 0.886819
vt 0.721210 0.893705
vt 0.922613 0.901928
vt 0.987379 0.902014
vt 0.987374 0.908847
vt 0.922636 0.908930
vt 0.724844 0.863596
vt 0.724853 0.856699
vt 0.456955 0.563590
vt 0.418255 0.486932
vt 0.481164 0.498111
vt 0.498638 0.605254
vt 0.498451 0.540126
vt 0.006495 0.359553
vt 0.456915 0.593711
vt 0.851409 0.901868
vt 0.851393 0.908992
vt 0.690450 0.863465
vt 0.690477 0.856573
vt 0.788738 0.847698
vt 0.742062 0.847778
vt 0.742075 0.840885
vt 0.788858 0.840880
vt 0.791066 0.901733
vt 0.791073 0.909127
vt 0.685451 0.847863
vt 0.620903 0.847895
vt 0.620900 0.840940
vt 0.685480 0.840909
vt 0.870996 0.847743
vt 0.870273 0.840862
vt 0.462576 0.563858
vt 0.485413 0.508648
vt 0.928431 0.847786
vt 0.928516 0.840878
vt 0.787011 0.880347
vt 0.758463 0.880254
vt 0.758467 0.872902
vt 0.787132 0.872946
vt 0.860276 0.880252
vt 0.860206 0.872889
vt 0.394291 0.655107
vt 0.006658 0.712885
vt 0.389850 0.623636
vt 0.416721 0.412411
vt 0.346161 0.712886
vt 0.891619 0.880665
vt 0.891766 0.872884
vt 0.989053 0.878707
vt 0.988944 0.872902
vt 0.383020 0.362863
vt 0.481845 0.300091
vt 0.539316 0.341631
vt 0.597133 0.355437
vt 0.439451 0.362836
vt 0.993342 0.006778
vt 0.577460 0.394349
vn -0.233193 0.840667 0.488774
vn -0.233193 0.840667 0.488774
vn -0.233193 0.840667 0.488774
vn -0.233193 0.840667 0.488774
vn 0.828592 0.000000 -0.559854
vn 0.828592 0.000000 -0.559854
vn 0.828592 0.000000 -0.559854
vn 0.828592 0.000000 -0.559854
vn -0.844459 0.000000 -0.535620
vn -0.844459 0.000000 -0.535620
vn -0.844459 0.000000 -0.535620
vn -0.844459 0.000000 -0.535620
vn -0.585791 0.000000 -0.810462
vn -0.432776 0.000000 -0.901502
vn -0.432776 0.000000 -0.901502
vn -0.585791 0.000000 -0.810462
vn -0.892421 0.000000 0.451204
vn -0.892421 0.000000 0.451204
vn -0.892421 0.000000 0.451204
vn -0.892421 0.000000 0.451204
vn -0.432776 0.000000 -0.901502
vn -0.232259 0.000000 -0.972654
vn -0.232259 0.000000 -0.972654
vn -0.432776 0.000000 -0.901502
vn 0.000000 1.000000 0.000000
vn 0.000000 1.000000 0.000000
vn 0.000000 1.000000 0.000000
vn 0.000000 1.000000 0.000000
vn 0.000000 1.000000 0.000000
vn 0.000000 1.000000 0.000000
vn 0.000000 1.000000 0.000000
vn 0.000000 1.000000 0.000000
vn 0.000000 1.000000 0.000000
vn 0.000483 0.000000 -1.000000
vn 0.000483 0.000000 -1.000000
vn 0.000483 0.000000 -1.000000
vn 0.000483 0.000000 -1.000000
vn 0.826867 0.000000 0.562397
vn 0.826867 0.000000 0.562397
vn 0.826867 0.000000 0.562397
vn 0.826867 0.000000 0.562397
vn -0.628112 0.000000 0.778123
vn -0.812397 0.000000 0.583104
vn -0.812397 0.000000 0.583104
vn -0.628112 0.000000 0.778123
vn 0.000000 1.000000 0.000000
vn 0.000000 1.000000 0.000000
vn 0.000000 1.000000 0.000000
vn 0.000000 1.000000 0.000000
vn 0.000000 1.000000 0.000000
vn 0.000000 1.000000 0.000000
vn 0.000000 1.000000 0.000000
vn 0.000000 1.000000 0.000000
vn 0.000000 1.000000 0.000000
vn 0.000000 1.000000 0.000000
vn 0.000000 1.000000 0.000000
vn 0.999788 0.000000 0.020586
vn 0.999788 0.000000 0.020586
vn 0.999788 0.000000 0.020586
vn 0.999788 0.000000 0.020586
vn 0.923892 0.000000 0.382653
vn 0.923892 0.000000 0.382653
vn 0.923892 0.000000 0.382653
vn 0.923892 0.000000 0.382653
vn -0.967643 0.000000 0.252323
vn -0.967643 0.000000 0.252323
vn -0.967643 0.000000 0.252323
vn -0.967643 0.000000 0.252323
vn 0.174972 0.000000 0.984573
vn 0.174972 0.000000 0.984573
vn 0.174972 0.000000 0.984573
vn 0.174972 0.000000 0.984573
vn -0.705822 0.000000 -0.708389
vn -0.844747 0.000000 -0.535166
vn -0.844747 0.000000 -0.535166
vn -0.705822 0.000000 -0.708389
vn -0.510043 0.000000 -0.860149
vn -0.705822 0.000000 -0.708389
vn -0.705822 0.000000 -0.708389
vn -0.510043 0.000000 -0.860149
vn 0.225300 0.000000 -0.974290
vn 0.225300 0.000000 -0.974290
vn 0.225300 0.000000 -0.974290
vn 0.225300 0.000000 -0.974290
vn 0.000000 1.000000 0.000000
vn 0.000000 1.000000 0.000000
vn 0.000000 1.000000 0.000000
vn 0.000000 1.000000 0.000000
vn -0.685906 0.000000 -0.727690
vn -0.685906 0.000000 -0.727690
vn -0.685906 0.000000 -0.727690
vn -0.685906 0.000000 -0.727690
vn 0.999999 0.000000 -0.001357
vn 0.969304 0.000000 -0.245867
vn 0.969304 0.000000 -0.245867
vn 0.999999 0.000000 -0.001357
vn 0.407477 0.000000 -0.913216
vn 0.407477 0.000000 -0.913216
vn 0.407477 0.000000 -0.913216
vn 0.407477 0.000000 -0.913216
vn 0.000000 1.000000 0.000000
vn 0.000000 1.000000 0.000000
vn 0.000000 1.000000 0.000000
vn 0.000000 1.000000 0.000000
vn 0.990187 0.000000 0.139746
vn 0.990187 0.000000 0.139746
vn 0.990187 0.000000 0.139746
vn 0.990187 0.000000 0.139746
vn 0.768346 0.000000 -0.640035
vn 0.768346 0.000000 -0.640035
vn 0.768346 0.000000 -0.640035
vn 0.768346 0.000000 -0.640035
vn 0.000000 1.000000 0.000000
vn 0.000000 1.000000 0.000000
vn 0.000000 1.000000 0.000000
vn 0.000000 1.000000 0.000000
vn 0.000000 1.000000 0.000000
vn 0.000000 1.000000 0.000000
vn 0.000000 1.000000 0.000000
vn 0.000000 1.000000 0.000000
vn 0.000000 1.000000 0.000000
vn 0.000000 1.000000 0.000000
vn 0.000000 1.000000 0.000000
vn 0.000000 1.000000 0.000000
vn 0.000000 1.000000 0.000000
vn 0.000000 1.000000 0.000000
vn 0.000000 1.000000 0.000000
vn 0.000000 1.000000 0.000000
vn 0.000000 1.000000 0.000000
vn 0.000000 1.000000 0.000000
vn 0.000000 1.000000 0.000000
vn 0.000000 1.000000 0.000000
vn 0.000000 1.000000 0.000000
vn 0.000000 1.000000 0.000000
vn 0.000000 1.000000 0.000000
vn 0.000000 1.000000 0.000000
vn 0.000000 1.000000 0.000000
vn 0.000000 1.000000 0.000000
vn 0.000000 1.000000 0.000000
vn 0.000000 1.000000 0.000000
vn 0.000000 1.000000 0.000000
vn 0.000000 1.000000 0.000000
vn 0.000000 1.000000 0.000000
vn 0.000000 1.000000 0.000000
vn 0.000000 1.000000 0.000000
vn 0.000000 1.000000 0.000000
vn 0.000000 1.000000 0.000000
vn 0.000000 1.000000 0.000000
s off
g polySurface1
usemtl initialShadingGroup
f 5/5/5 6/6/6 7/7/7 8/8/8
f 9/9/9 10/10/10 11/11/11 12/12/12
f 13/13/13 5/5/14 8/8/15 14/14/16
f 10/10/17 15/15/18 16/16/19 11/11/20
f 20/19/21 13/13/22 14/14/23 21/20/24
f 15/15/25 20/21/26 21/22/27 16/16/28
f 18/23/29 13/86/30 20/83/31
f 19/26/32 25/27/33 26/28/34
f 19/26/35 26/28/36 17/29/37
f 27/30/38 9/9/39 12/12/40 28/31/41
f 29/32/42 27/33/43 28/34/44 30/35/45
f 6/6/46 31/36/47 32/37/48 7/7/49
f 33/38/50 34/39/51 35/40/52
f 24/17/53 36/41/54 31/42/55 6/18/56
f 33/38/57 37/44/58 42/43/59 34/39/60
f 34/45/61 29/32/62 30/35/63 38/46/64
f 31/36/65 35/47/66 39/48/67 32/37/68
f 24/49/69 17/50/70 40/51/71 41/52/72
f 35/53/73 34/45/74 38/46/75 39/54/76
f 26/55/77 25/56/78 43/57/79 44/58/80
f 17/50/81 26/55/82 44/58/83 40/51/84
f 36/59/85 24/49/86 41/52/87 45/60/88
f 36/41/89 33/61/90 35/62/91 31/42/92
f 33/63/93 36/59/94 45/60/95 46/64/96
f 37/65/97 33/66/98 46/67/99 47/68/100
f 48/69/101 37/65/102 47/68/103 49/70/104
f 51/72/105 48/73/106 50/71/107 52/75/108
f 50/76/109 48/69/110 49/70/111 53/77/112
f 52/78/113 50/76/114 53/77/115 54/79/116
f 42/43/117 37/44/118 48/73/119 51/72/120
f 29/74/121 34/39/122 42/43/123 27/80/124
f 22/25/125 23/85/126 10/81/127
f 15/82/128 10/81/129 23/85/130
f 20/83/131 15/82/132 23/85/133
f 9/84/134 22/25/135 10/81/136
f 42/43/137 22/25/138 9/84/139 27/80/140
f 20/83/141 23/85/142 18/23/143
f 18/23/144 5/24/145 13/86/146
s 1
f 18/23/147 19/26/148 17/29/149 24/17/150
f 18/23/147 24/17/150 6/18/151 5/24/152
