# This file uses centimeters as units for non-parametric coordinates.

mtllib TempleCeiling_cover.mtl
g default
v 125.836586 8.932902 -40.886784
v 107.042999 8.932902 -77.771286
v 77.771286 8.932902 -107.042992
v 40.886780 8.932902 -125.836571
v 0.000000 8.932902 -132.312393
v -40.886780 8.932902 -125.836563
v -77.771263 8.932902 -107.042969
v -107.042969 8.932902 -77.771255
v -125.836540 8.932902 -40.886768
v -132.312363 8.932902 0.000000
v -125.836540 8.932902 40.886768
v -107.042961 8.932902 77.771248
v -77.771248 8.932902 107.042953
v -40.886768 8.932902 125.836525
v -0.000004 8.932902 132.312347
v 40.886757 8.932902 125.836517
v 77.771240 8.932902 107.042931
v 107.042923 8.932902 77.771248
v 125.836510 8.932902 40.886761
v 132.312332 8.932902 0.000000
v 119.677711 19.345909 -38.885643
v 101.803940 19.345909 -73.964897
v 73.964897 19.345909 -101.803932
v 38.885639 19.345909 -119.677696
v 0.000000 19.345909 -125.836571
v -38.885639 19.345909 -119.677689
v -73.964882 19.345909 -101.803917
v -101.803909 19.345909 -73.964874
v -119.677666 19.345909 -38.885628
v -125.836540 19.345909 0.000000
v -119.677666 19.345909 38.885628
v -101.803902 19.345909 73.964859
v -73.964859 19.345909 101.803894
v -38.885628 19.345909 119.677650
v -0.000004 19.345909 125.836525
v 38.885620 19.345909 119.677643
v 73.964844 19.345909 101.803886
v 101.803879 19.345909 73.964851
v 119.677635 19.345909 38.885624
v 125.836510 19.345909 0.000000
v 77.030457 32.760403 -45.249149
v 95.376015 24.231098 -69.294724
v 82.362190 28.739605 -59.981026
v 62.918289 28.739605 -86.599602
v 33.078098 28.739605 -101.803925
v 0.000000 28.739605 -107.042976
v -33.078098 28.739605 -101.803917
v -62.918278 28.739605 -86.599586
v -86.599579 28.739605 -62.918270
v -101.803902 28.739605 -33.078091
v -107.042961 28.739605 0.000000
v -101.803902 28.739605 33.078091
v -86.599571 28.739605 62.918266
v -62.918266 28.739605 86.599564
v -33.078091 28.739605 101.803886
v -0.000003 28.739605 107.042953
v 33.078079 28.739605 101.803886
v 62.918255 28.739605 86.599556
v 86.599556 28.739605 62.918259
v 101.803879 28.739605 33.078083
v 107.042923 28.739605 0.000000
v 65.282410 32.760403 -63.867893
v 80.308647 32.760403 -20.459200
v 61.743595 36.194496 -47.206570
v 24.032646 36.194496 -73.964890
v 0.000000 36.194496 -77.771278
v -24.032646 36.194496 -73.964882
v -45.712807 36.194496 -62.918274
v -62.918270 36.194496 -45.712799
v -73.964859 36.194496 -24.032637
v -77.771248 36.194496 0.000000
v -73.964859 36.194496 24.032637
v -62.918266 36.194496 45.712795
v -45.712795 36.194496 62.918262
v -24.032637 36.194496 73.964851
v -0.000002 36.194496 77.771248
v 24.032631 36.194496 73.964851
v 45.712791 36.194496 62.918259
v 62.918255 36.194496 45.712791
v 73.964844 36.194496 24.032633
v 61.257393 36.194496 -26.481184
v 18.562210 38.957310 -57.128609
v -57.128597 38.957310 -18.562204
v -48.311417 38.957310 -6.008227
v -48.596485 38.957310 35.307411
v -23.550264 38.957310 42.588253
v -18.562204 38.957310 57.128590
v 57.128582 38.957310 18.562202
v 44.079220 38.957310 -12.579811
v 0.000000 40.980827 -40.886780
v -12.634709 40.980827 -56.322403
v -24.032644 40.980827 -33.078094
v -45.682007 40.980827 -33.189926
v -0.000001 40.980827 40.886765
v 12.634703 40.980827 56.322388
v 24.032633 40.980827 33.078087
v 110.699875 0.000001 -80.428162
v 130.135498 -0.000000 -42.283581
v 80.428162 0.000002 -110.699867
v 42.283581 0.000001 -130.135483
v -0.000000 0.000001 -136.832535
v -42.283581 0.000000 -130.135468
v -80.428139 -0.000001 -110.699844
v -110.699844 0.000002 -80.428131
v -130.135452 0.000002 -42.283569
v -136.832504 0.000000 0.000000
v -130.135452 0.000002 42.283569
v -110.699837 0.000002 80.428123
v -80.428123 0.000001 110.699829
v -42.283569 0.000002 130.135437
v -0.000004 0.000000 136.832489
v 42.283558 -0.000000 130.135422
v 80.428116 0.000000 110.699806
v 110.699799 -0.000001 80.428123
v 130.135422 -0.000002 42.283562
v 136.832474 -0.000001 0.000004
vt 0.137634 0.815596
vt 0.068458 0.678807
vt 0.110006 0.666640
vt 0.169093 0.792207
vt 0.245682 0.919201
vt 0.268686 0.884109
vt 0.378920 0.975864
vt 0.389029 0.936098
vt 0.518670 0.988540
vt 0.516340 0.948390
vt 0.653637 0.959611
vt 0.639672 0.922428
vt 0.772711 0.892882
vt 0.748630 0.861736
vt 0.866269 0.794907
vt 0.834283 0.772334
vt 0.926659 0.674329
vt 0.889598 0.662239
vt 0.948792 0.541649
vt 0.909881 0.541093
vt 0.930586 0.408408
vt 0.893222 0.419481
vt 0.873286 0.286470
vt 0.840869 0.308289
vt 0.781460 0.186991
vt 0.757083 0.217755
vt 0.663008 0.119646
vt 0.649065 0.156655
vt 0.528431 0.091488
vt 0.526475 0.131382
vt 0.390107 0.106072
vt 0.400617 0.145064
vt 0.261311 0.163262
vt 0.283629 0.197558
vt 0.154967 0.258641
vt 0.187219 0.284750
vt 0.082170 0.384111
vt 0.121523 0.399130
vt 0.051411 0.528508
vt 0.094206 0.530489
vt 0.264086 0.689971
vt 0.193116 0.774670
vt 0.307202 0.825547
vt 0.406414 0.869927
vt 0.512871 0.881199
vt 0.616572 0.860101
vt 0.708484 0.809476
vt 0.780830 0.734443
vt 0.827586 0.641943
vt 0.844795 0.540124
vt 0.830834 0.438006
vt 0.786820 0.344766
vt 0.716541 0.269166
vt 0.626053 0.218440
vt 0.523483 0.197868
vt 0.418455 0.209969
vt 0.321108 0.254546
vt 0.241240 0.327953
vt 0.187233 0.423738
vt 0.165381 0.533301
vt 0.239375 0.740167
vt 0.298031 0.750312
vt 0.432104 0.776503
vt 0.308055 0.695589
vt 0.508867 0.785328
vt 0.584242 0.770693
vt 0.651352 0.734302
vt 0.704438 0.679869
vt 0.738910 0.612569
vt 0.751759 0.538562
vt 0.741860 0.464432
vt 0.710050 0.396908
vt 0.659257 0.342425
vt 0.593999 0.306185
vt 0.520121 0.292209
vt 0.444688 0.301774
vt 0.375039 0.334813
vt 0.318461 0.388317
vt 0.280638 0.457471
vt 0.254883 0.604815
vt 0.318643 0.625643
vt 0.447652 0.721547
vt 0.504201 0.667702
vt 0.546363 0.714539
vt 0.581102 0.641149
vt 0.649006 0.639920
vt 0.686114 0.594692
vt 0.659916 0.554970
vt 0.664498 0.427667
vt 0.589126 0.402571
vt 0.575508 0.357854
vt 0.517888 0.407103
vt 0.479613 0.359385
vt 0.442367 0.431942
vt 0.336114 0.476555
vt 0.377076 0.580591
vt 0.000000 0.000000
vt 1.000000 0.000000
vt 1.007933 1.146384
vt -0.008574 1.146384
vt 0.000000 0.000000
vt 1.000000 0.000000
vt 1.008228 1.146384
vt -0.008279 1.146384
vt 0.000000 0.000000
vt 1.000000 0.000000
vt 1.008427 1.146384
vt -0.008081 1.146384
vt 0.000000 0.000000
vt 1.000000 0.000000
vt 1.008358 1.146384
vt -0.008150 1.146384
vt 0.000000 0.000000
vt 1.000000 0.000000
vt 1.008573 1.146384
vt -0.007935 1.146384
vt 0.000000 0.000000
vt 1.000000 0.000000
vt 1.007732 1.146384
vt -0.008776 1.146384
vt 0.000000 0.000000
vt 1.000000 0.000000
vt 1.008167 1.146384
vt -0.008341 1.146384
vt 0.000000 0.000000
vt 1.000000 0.000000
vt 1.008392 1.146384
vt -0.008116 1.146384
vt 0.000000 0.000000
vt 1.000000 0.000000
vt 1.008412 1.146384
vt -0.008096 1.146384
vt 0.000000 0.000000
vt 1.000000 0.000000
vt 1.008096 1.146384
vt -0.008412 1.146384
vt 0.000000 0.000000
vt 1.000000 0.000000
vt 1.008089 1.146384
vt -0.008418 1.146384
vt 0.000000 0.000000
vt 1.000000 0.000000
vt 1.008267 1.146384
vt -0.008241 1.146384
vt 0.000000 0.000000
vt 1.000000 0.000000
vt 1.008398 1.146384
vt -0.008110 1.146384
vt 0.000000 0.000000
vt 1.000000 0.000000
vt 1.008409 1.146384
vt -0.008099 1.146384
vt 0.000000 0.000000
vt 1.000000 0.000000
vt 1.008559 1.146384
vt -0.007948 1.146384
vt 0.000000 0.000000
vt 1.000000 0.000000
vt 1.007690 1.146384
vt -0.008817 1.146384
vt 0.000000 0.000000
vt 1.000000 0.000000
vt 1.008285 1.146384
vt -0.008223 1.146384
vt 0.000000 0.000000
vt 1.000000 0.000000
vt 1.008478 1.146384
vt -0.008029 1.146384
vt 0.000000 0.000000
vt 1.000000 0.000000
vt 1.008296 1.146384
vt -0.008211 1.146384
vt 0.000000 0.000000
vt 1.000000 0.000000
vt 1.008270 1.146384
vt -0.008238 1.146384
vn 0.704563 0.491481 -0.511895
vn 0.635298 0.619151 -0.461571
vn 0.536546 0.826400 -0.170825
vn 0.828264 0.491481 -0.269118
vn 0.511895 0.491482 -0.704563
vn 0.372329 0.765730 -0.524432
vn 0.269119 0.491481 -0.828264
vn 0.198654 0.765985 -0.611395
vn -0.000000 0.491481 -0.870888
vn -0.000000 0.765985 -0.642859
vn -0.269119 0.491481 -0.828264
vn -0.198654 0.765985 -0.611395
vn -0.511895 0.491481 -0.704563
vn -0.377863 0.765985 -0.520083
vn -0.704563 0.491481 -0.511895
vn -0.520084 0.765985 -0.377863
vn -0.828264 0.491482 -0.269119
vn -0.611395 0.765985 -0.198654
vn -0.870888 0.491481 -0.000000
vn -0.642859 0.765985 -0.000000
vn -0.828264 0.491482 0.269119
vn -0.611395 0.765985 0.198654
vn -0.704563 0.491482 0.511895
vn -0.520083 0.765985 0.377863
vn -0.511895 0.491481 0.704563
vn -0.377863 0.765985 0.520084
vn -0.269119 0.491481 0.828264
vn -0.198654 0.765985 0.611395
vn 0.000000 0.491481 0.870888
vn 0.000000 0.765985 0.642859
vn 0.269119 0.491481 0.828264
vn 0.198654 0.765985 0.611395
vn 0.511895 0.491481 0.704563
vn 0.377863 0.765985 0.520084
vn 0.704563 0.491481 0.511895
vn 0.520084 0.765985 0.377863
vn 0.828264 0.491481 0.269119
vn 0.611395 0.765985 0.198654
vn 0.870888 0.491481 0.000001
vn 0.576669 0.816441 -0.029607
vn 0.319147 0.922445 -0.217348
vn 0.327938 0.939528 -0.098709
vn 0.110624 0.938604 -0.326779
vn 0.186310 0.943048 -0.275588
vn -0.000000 0.936095 -0.351747
vn -0.108696 0.936095 -0.334531
vn -0.206752 0.936095 -0.284569
vn -0.284569 0.936095 -0.206752
vn -0.334531 0.936095 -0.108696
vn -0.351747 0.936095 -0.000000
vn -0.334531 0.936095 0.108696
vn -0.284569 0.936095 0.206752
vn -0.206752 0.936095 0.284569
vn -0.108696 0.936095 0.334531
vn 0.000000 0.936095 0.351747
vn 0.108696 0.936095 0.334531
vn 0.206752 0.936095 0.284569
vn 0.284569 0.936095 0.206752
vn 0.344321 0.931585 0.116585
vn 0.327738 0.943685 -0.045242
vn 0.268319 0.929337 -0.253649
vn 0.146271 0.969792 -0.195213
vn 0.068875 0.977795 -0.197921
vn 0.116005 0.979701 -0.163488
vn 0.010066 0.975840 -0.218253
vn -0.071103 0.977206 -0.200030
vn -0.126925 0.976253 -0.175555
vn -0.173481 0.975345 -0.136402
vn -0.211143 0.975571 -0.060665
vn -0.191009 0.981583 0.003301
vn -0.181406 0.982173 0.049266
vn -0.168768 0.976756 0.132153
vn -0.120854 0.978451 0.167417
vn -0.064643 0.978252 0.197090
vn -0.010066 0.975840 0.218253
vn 0.071103 0.977206 0.200030
vn 0.127728 0.979512 0.155699
vn 0.156747 0.980329 0.119944
vn 0.196241 0.980252 0.024411
vn 0.183786 0.981985 -0.043921
vn 0.171263 0.984052 -0.048076
vn 0.031429 0.990123 -0.136633
vn 0.027935 0.987130 -0.157463
vn -0.032717 0.988165 -0.149867
vn -0.098458 0.986100 -0.133839
vn -0.105025 0.986058 -0.129074
vn -0.147569 0.988907 -0.016899
vn -0.105855 0.994345 0.008543
vn -0.084887 0.994535 0.060777
vn -0.071254 0.992770 0.096596
vn -0.038675 0.992428 0.116577
vn -0.027935 0.987130 0.157463
vn 0.032717 0.988165 0.149867
vn 0.103595 0.989888 0.096904
vn 0.126608 0.991849 0.014360
vn 0.148824 0.987749 -0.046944
vn 0.848601 0.451499 -0.275726
vn 0.721863 0.451499 -0.524464
vn 0.524464 0.451499 -0.721863
vn 0.275727 0.451499 -0.848601
vn -0.000000 0.451499 -0.892272
vn -0.275727 0.451499 -0.848601
vn -0.524464 0.451499 -0.721863
vn -0.721863 0.451499 -0.524464
vn -0.848601 0.451499 -0.275727
vn -0.892271 0.451500 -0.000000
vn -0.848601 0.451499 0.275727
vn -0.721863 0.451499 0.524464
vn -0.524464 0.451499 0.721863
vn -0.275727 0.451499 0.848601
vn 0.000000 0.451499 0.892272
vn 0.275727 0.451499 0.848601
vn 0.524464 0.451499 0.721863
vn 0.721863 0.451499 0.524464
vn 0.848601 0.451499 0.275727
vn 0.892272 0.451499 0.000001
s 1
g pSphere7
usemtl blinn1SG
f 2/1/1 22/4/2 21/3/3 1/2/4
f 3/5/5 23/6/6 22/4/2 2/1/1
f 4/7/7 24/8/8 23/6/6 3/5/5
f 5/9/9 25/10/10 24/8/8 4/7/7
f 6/11/11 26/12/12 25/10/10 5/9/9
f 7/13/13 27/14/14 26/12/12 6/11/11
f 8/15/15 28/16/16 27/14/14 7/13/13
f 9/17/17 29/18/18 28/16/16 8/15/15
f 10/19/19 30/20/20 29/18/18 9/17/17
f 11/21/21 31/22/22 30/20/20 10/19/19
f 12/23/23 32/24/24 31/22/22 11/21/21
f 13/25/25 33/26/26 32/24/24 12/23/23
f 14/27/27 34/28/28 33/26/26 13/25/25
f 15/29/29 35/30/30 34/28/28 14/27/27
f 16/31/31 36/32/32 35/30/30 15/29/29
f 17/33/33 37/34/34 36/32/32 16/31/31
f 18/35/35 38/36/36 37/34/34 17/33/33
f 19/37/37 39/38/38 38/36/36 18/35/35
f 20/39/39 40/40/40 39/38/38 19/37/37
f 1/2/4 21/3/3 40/40/40 20/39/39
f 21/3/3 42/42/41 41/41/42
f 23/6/6 42/42/41 22/4/2
f 24/8/8 45/44/43 44/43/44 23/6/6
f 25/10/10 46/45/45 45/44/43 24/8/8
f 26/12/12 47/46/46 46/45/45 25/10/10
f 27/14/14 48/47/47 47/46/46 26/12/12
f 28/16/16 49/48/48 48/47/47 27/14/14
f 29/18/18 50/49/49 49/48/48 28/16/16
f 30/20/20 51/50/50 50/49/49 29/18/18
f 31/22/22 52/51/51 51/50/50 30/20/20
f 32/24/24 53/52/52 52/51/51 31/22/22
f 33/26/26 54/53/53 53/52/52 32/24/24
f 34/28/28 55/54/54 54/53/53 33/26/26
f 35/30/30 56/55/55 55/54/54 34/28/28
f 36/32/32 57/56/56 56/55/55 35/30/30
f 37/34/34 58/57/57 57/56/56 36/32/32
f 38/36/36 59/58/58 58/57/57 37/34/34
f 39/38/38 60/59/59 59/58/58 38/36/36
f 40/40/40 61/60/60 60/59/59 39/38/38
f 41/41/42 61/60/60 40/40/40 21/3/3
f 43/61/61 44/43/44 62/62/62
f 65/63/63 64/64/64 62/62/62
f 46/45/45 66/65/65 65/63/63 45/44/43
f 47/46/46 67/66/66 66/65/65 46/45/45
f 48/47/47 68/67/67 67/66/66 47/46/46
f 49/48/48 69/68/68 68/67/67 48/47/47
f 50/49/49 70/69/69 69/68/68 49/48/48
f 51/50/50 71/70/70 70/69/69 50/49/49
f 52/51/51 72/71/71 71/70/70 51/50/50
f 53/52/52 73/72/72 72/71/71 52/51/51
f 54/53/53 74/73/73 73/72/72 53/52/52
f 55/54/54 75/74/74 74/73/73 54/53/53
f 56/55/55 76/75/75 75/74/74 55/54/54
f 57/56/56 77/76/76 76/75/75 56/55/55
f 58/57/57 78/77/77 77/76/76 57/56/56
f 59/58/58 79/78/78 78/77/77 58/57/57
f 60/59/59 80/79/79 79/78/78 59/58/58
f 63/80/80 81/81/81 80/79/79 61/60/60
f 61/60/60 41/41/42 63/80/80
f 64/64/64 65/63/63 82/82/82
f 66/65/65 90/83/83 82/82/82 65/63/63
f 67/66/66 91/84/84 90/83/83 66/65/65
f 68/67/67 92/85/85 91/84/84 67/66/66
f 69/68/68 93/86/86 92/85/85 68/67/67
f 83/87/87 93/86/86 69/68/68 70/69/69
f 70/69/69 71/70/70 84/88/88 83/87/87
f 71/70/70 72/71/71 85/89/89 84/88/88
f 72/71/71 73/72/72 85/89/89
f 73/72/72 74/73/73 86/90/90 85/89/89
f 74/73/73 75/74/74 87/91/91 86/90/90
f 76/75/75 94/92/92 87/91/91 75/74/74
f 77/76/76 95/93/93 94/92/92 76/75/75
f 78/77/77 96/94/94 95/93/93 77/76/76
f 79/78/78 88/95/95 96/94/94 78/77/77
f 88/95/95 79/78/78 80/79/79
f 80/79/79 81/81/81 89/96/96 88/95/95
f 80/79/79 60/59/59 61/60/60
f 23/6/6 44/43/44 43/61/61 42/42/41
f 21/3/3 22/4/2 42/42/41
f 45/44/43 65/63/63 62/62/62 44/43/44
f 2/97/1 1/98/4 98/99/97 97/100/98
f 3/101/5 2/102/1 97/103/98 99/104/99
f 4/105/7 3/106/5 99/107/99 100/108/100
f 5/109/9 4/110/7 100/111/100 101/112/101
f 6/113/11 5/114/9 101/115/101 102/116/102
f 7/117/13 6/118/11 102/119/102 103/120/103
f 8/121/15 7/122/13 103/123/103 104/124/104
f 9/125/17 8/126/15 104/127/104 105/128/105
f 10/129/19 9/130/17 105/131/105 106/132/106
f 11/133/21 10/134/19 106/135/106 107/136/107
f 12/137/23 11/138/21 107/139/107 108/140/108
f 13/141/25 12/142/23 108/143/108 109/144/109
f 14/145/27 13/146/25 109/147/109 110/148/110
f 15/149/29 14/150/27 110/151/110 111/152/111
f 16/153/31 15/154/29 111/155/111 112/156/112
f 17/157/33 16/158/31 112/159/112 113/160/113
f 18/161/35 17/162/33 113/163/113 114/164/114
f 19/165/37 18/166/35 114/167/114 115/168/115
f 20/169/39 19/170/37 115/171/115 116/172/116
f 1/173/4 20/174/39 116/175/116 98/176/97
