# This file uses centimeters as units for non-parametric coordinates.

mtllib TempleLunchpad_panelCOL.mtl
g default
v -12.004171 0.927799 12.328305
v 12.004171 0.927799 12.328305
v -12.004171 -0.575699 0.000000
v 12.004171 -0.575699 0.000000
v -12.004171 0.927799 0.000000
v 12.004171 0.927799 0.000000
vt 0.361002 0.926338
vt 0.438188 0.926338
vt 0.438258 0.965869
vt 0.360932 0.965869
vt 0.438238 0.970203
vt 0.360952 0.970203
vn 0.000000 1.000000 0.000000
vn 0.000000 1.000000 0.000000
vn 0.000000 1.000000 0.000000
vn 0.000000 1.000000 0.000000
vn 0.000000 0.000000 -1.000000
vn 0.000000 0.000000 -1.000000
vn 0.000000 0.000000 -1.000000
vn 0.000000 0.000000 -1.000000
vn 0.000000 0.707107 -0.707107
vn 0.000000 0.707107 -0.707107
vn 0.000000 0.707107 -0.707107
vn 0.000000 0.707107 -0.707107
s off
g pCube40
usemtl initialShadingGroup
f 1/1/1 2/2/2 6/3/3 5/4/4
f 5/4/5 6/3/6 4/5/7 3/6/8
