# This file uses centimeters as units for non-parametric coordinates.

mtllib EggRTopIncisor.mtl
g default
v 0.083349 0.320847 0.057658
v 0.468397 -0.023582 -0.123607
v 0.079256 -0.023582 0.036922
v 0.093265 0.321082 0.107890
v 0.496359 -0.035781 -0.081629
v 0.089024 -0.035781 0.086405
v -0.355910 0.321084 0.107240
v -0.351607 -0.035780 0.085768
v -0.341695 -0.023582 0.036313
v -0.345849 0.320847 0.057037
v -0.351574 0.657180 0.085602
v -0.341695 0.642746 0.036313
vt 0.459982 0.948985
vt 0.463906 0.994645
vt 0.436021 0.994725
vt 0.438194 0.949453
vt 0.500654 0.652854
vt 0.521498 0.653394
vt 0.523508 0.696813
vt 0.496942 0.696631
vt 0.489854 0.990332
vt 0.438995 0.912369
vt 0.520773 0.617769
vt 0.472402 0.692384
vt 0.496995 0.650261
vt 0.517811 0.617538
vt 0.467742 0.690327
vt 0.209843 0.640045
vt 0.209931 0.632831
vt 0.268399 0.622087
vt 0.271046 0.628799
vt 0.148927 0.627322
vt 0.151735 0.620676
vt 0.483922 0.585159
vt 0.483922 0.544932
vt 0.492491 0.545656
vt 0.492522 0.584563
vt 0.490240 0.507797
vt 0.498532 0.509998
vn 0.086978 -0.048727 0.995018
vn -0.001445 -0.020059 0.999798
vn -0.001443 -0.060078 0.998193
vn 0.127262 -0.061114 0.989985
vn -0.086744 0.048776 -0.995036
vn -0.127254 0.061114 -0.989986
vn 0.001443 0.060078 -0.998193
vn 0.001446 0.020265 -0.999794
vn -0.001442 0.064267 0.997932
vn 0.380658 -0.060079 0.922762
vn -0.380659 0.060078 -0.922762
vn 0.001443 -0.064266 -0.997932
vn 0.609586 0.781163 -0.134867
vn 0.615886 0.772895 -0.152702
vn 0.615886 0.772895 -0.152702
vn 0.609585 0.781164 -0.134864
vn 0.602872 0.789277 -0.116561
vn 0.602873 0.789277 -0.116561
vn -0.045531 -0.971975 -0.230631
vn -0.045531 -0.971975 -0.230631
vn -0.091307 -0.970913 -0.221340
vn -0.091307 -0.970913 -0.221340
vn 0.000344 -0.970916 -0.239420
vn 0.000344 -0.970916 -0.239419
vn -0.980502 -0.000000 -0.196508
vn -0.980502 -0.000000 -0.196508
vn -0.980502 -0.000000 -0.196508
vn -0.980502 -0.000000 -0.196508
vn -0.980502 -0.000000 -0.196508
vn -0.980502 -0.000000 -0.196508
s 1
g FoodRBuckTeeth
usemtl EggPieces:blinn1SG
f 4/1/1 7/2/2 8/3/3 6/4/4
s 2
f 1/5/5 3/6/6 9/7/7 10/8/8
s 1
f 4/1/1 11/9/9 7/2/2
f 5/10/10 4/1/1 6/4/4
s 2
f 1/5/5 2/11/11 3/6/6
f 12/12/12 1/5/5 10/8/8
s 3
f 4/13/13 5/14/14 2/11/15 1/5/16
f 11/15/17 4/13/13 1/5/16 12/12/18
s 4
f 6/16/19 3/17/20 2/18/21 5/19/22
f 8/20/23 9/21/24 3/17/20 6/16/19
s 5
f 8/22/25 7/23/26 10/24/27 9/25/28
f 10/24/27 7/23/26 11/26/29 12/27/30
