# This file uses centimeters as units for non-parametric coordinates.

mtllib A_FlooftyBed.mtl
g default
v -4.293089 2.455220 6.131573
v -4.293089 2.605205 6.281557
v -4.443074 2.605205 6.131573
v 4.443074 2.605205 6.131573
v 4.293089 2.605205 6.281557
v 4.293089 2.455220 6.131573
v -4.443074 3.305234 6.131573
v -4.293089 3.305234 6.281557
v -4.293089 3.455220 6.131573
v 4.293089 3.455220 6.131573
v 4.293089 3.305234 6.281557
v 4.443074 3.305234 6.131573
v -4.443074 3.305234 -6.171307
v -4.293089 3.455220 -6.171307
v -4.293089 3.305234 -6.321292
v 4.293089 3.305234 -6.321292
v 4.293089 3.455220 -6.171307
v 4.443074 3.305234 -6.171307
v -4.443074 2.605205 -6.171307
v -4.293089 2.605205 -6.321292
v -4.293089 2.455220 -6.171307
v 4.293089 2.455220 -6.171307
v 4.293089 2.605205 -6.321292
v 4.443074 2.605205 -6.171307
v -4.331820 3.455220 -0.006351
v -4.483158 3.305234 -0.006351
v -4.483158 2.605205 -0.006351
v -4.331820 2.455220 -0.006351
v 4.331820 2.455220 -0.006351
v 4.483158 2.605205 -0.006351
v 4.483158 3.305234 -0.006351
v 4.331820 3.455220 -0.006351
v -2.146544 3.455220 6.360874
v -2.146544 3.305234 6.517244
v -2.146544 2.605205 6.517244
v -2.146544 2.455220 6.360874
v -2.165910 2.455220 -0.006351
v -2.146544 2.455220 -6.400609
v -2.146544 2.605205 -6.556979
v -2.146544 3.305234 -6.556979
v -2.146544 3.455220 -6.400609
v -2.165910 3.455220 -0.006351
v 0.000000 3.455220 6.477666
v 0.000000 3.305234 6.637288
v 0.000000 2.605205 6.637288
v 0.000000 2.455220 6.477666
v 0.000000 2.455220 -0.006351
v 0.000000 2.455220 -6.517401
v 0.000000 2.605205 -6.677023
v 0.000000 3.305234 -6.677023
v 0.000000 3.455220 -6.517401
v 0.000000 3.455220 -0.006351
v 2.146544 3.455220 6.360874
v 2.146544 3.305234 6.517244
v 2.146544 2.605205 6.517244
v 2.146544 2.455220 6.360874
v 2.165910 2.455220 -0.006351
v 2.146544 2.455220 -6.400609
v 2.146544 2.605205 -6.556979
v 2.146544 3.305234 -6.556979
v 2.146544 3.455220 -6.400609
v 2.165910 3.455220 -0.006351
v -4.727115 0.968988 6.894174
v -4.727115 1.197324 7.122509
v -4.955451 1.197324 6.894174
v 4.955451 1.197324 6.894174
v 4.727115 1.197324 7.122509
v 4.727115 0.968988 6.894174
v -4.955451 2.263045 6.894174
v -4.727115 2.263045 7.122509
v -4.727115 2.491381 6.894174
v 4.727115 2.491381 6.894174
v 4.727115 2.263045 7.122509
v 4.955451 2.263045 6.894174
v -4.955451 2.263045 -6.894174
v -4.727115 2.491381 -6.894174
v -4.727115 2.263045 -7.122509
v 4.727115 2.263045 -7.122509
v 4.727115 2.491381 -6.894174
v 4.955451 2.263045 -6.894174
v -4.955451 1.197324 -6.894174
v -4.727115 1.197324 -7.122509
v -4.727115 0.968988 -6.894174
v 4.727115 0.968988 -6.894174
v 4.727115 1.197324 -7.122509
v 4.955451 1.197324 -6.894174
v 3.497207 0.000000 6.367909
v 4.285918 0.000000 6.367909
v 3.497207 1.000000 6.367909
v 4.285918 1.000000 6.367909
v 3.497207 1.000000 5.579199
v 4.285918 1.000000 5.579199
v 3.497207 0.000000 5.579199
v 4.285918 0.000000 5.579199
v -3.497207 0.000000 6.367909
v -4.285918 0.000000 6.367909
v -3.497207 1.000000 6.367909
v -4.285918 1.000000 6.367909
v -3.497207 1.000000 5.579199
v -4.285918 1.000000 5.579199
v -3.497207 0.000000 5.579199
v -4.285918 0.000000 5.579199
v -3.497207 0.000000 -5.579889
v -4.285918 0.000000 -5.579889
v -3.497207 1.000000 -5.579889
v -4.285918 1.000000 -5.579889
v -3.497207 1.000000 -6.368600
v -4.285918 1.000000 -6.368600
v -3.497207 0.000000 -6.368600
v -4.285918 0.000000 -6.368600
v 3.497207 0.000000 -5.579889
v 4.285918 0.000000 -5.579889
v 3.497207 1.000000 -5.579889
v 4.285918 1.000000 -5.579889
v 3.497207 1.000000 -6.368600
v 4.285918 1.000000 -6.368600
v 3.497207 0.000000 -6.368600
v 4.285918 0.000000 -6.368600
vt 0.504844 0.370986
vt 0.506504 0.371093
vt 0.505862 0.420271
vt 0.504152 0.420272
vt 0.565028 0.362381
vt 0.565230 0.360653
vt 0.582514 0.361974
vt 0.582268 0.363674
vt 0.505994 0.369542
vt 0.512410 0.369637
vt 0.511901 0.371134
vt 0.589073 0.371079
vt 0.590735 0.370998
vt 0.591405 0.420308
vt 0.589694 0.420308
vt 0.589574 0.369563
vt 0.583675 0.371160
vt 0.583156 0.369625
vt 0.513574 0.371089
vt 0.513180 0.420268
vt 0.511474 0.420268
vt 0.564759 0.369673
vt 0.564758 0.367945
vt 0.581972 0.369370
vt 0.582004 0.371094
vt 0.584081 0.420307
vt 0.582373 0.420306
vt 0.511871 0.469631
vt 0.512390 0.471167
vt 0.505971 0.471227
vt 0.506473 0.469711
vt 0.564716 0.472849
vt 0.564718 0.471121
vt 0.581962 0.469713
vt 0.581923 0.471430
vt 0.583122 0.471169
vt 0.583635 0.469673
vt 0.589032 0.469728
vt 0.589538 0.471282
vt 0.565187 0.480133
vt 0.564985 0.478405
vt 0.582205 0.477130
vt 0.582445 0.478830
vt 0.565041 0.420297
vt 0.521110 0.305807
vt 0.503851 0.305845
vt 0.504052 0.256932
vt 0.521154 0.255068
vt 0.513542 0.469697
vt 0.504811 0.469792
vt 0.590692 0.469837
vt 0.521376 0.356762
vt 0.504267 0.354972
vt 0.513615 0.369367
vt 0.530825 0.367944
vt 0.530823 0.369672
vt 0.513334 0.363664
vt 0.530556 0.362388
vt 0.513093 0.361964
vt 0.530354 0.360660
vt 0.572890 0.305694
vt 0.555630 0.305732
vt 0.555365 0.254993
vt 0.572474 0.256783
vt 0.572688 0.354823
vt 0.555587 0.356687
vt 0.513031 0.478817
vt 0.513277 0.477117
vt 0.530517 0.478411
vt 0.530315 0.480139
vt 0.513574 0.471421
vt 0.530787 0.472848
vt 0.530786 0.471120
vt 0.530511 0.420283
vt 0.547789 0.367249
vt 0.547790 0.368976
vt 0.547786 0.361758
vt 0.547785 0.360001
vt 0.538370 0.305770
vt 0.538257 0.254099
vt 0.538484 0.357656
vt 0.547757 0.479035
vt 0.547759 0.480791
vt 0.547755 0.473544
vt 0.547754 0.471818
vt 0.547776 0.420290
vt 0.694655 0.482961
vt 0.692237 0.482831
vt 0.692057 0.376643
vt 0.694490 0.376535
vt 0.681704 0.493803
vt 0.681693 0.496326
vt 0.608606 0.496420
vt 0.608589 0.493900
vt 0.693046 0.485210
vt 0.683469 0.485192
vt 0.684216 0.482903
vt 0.598037 0.482998
vt 0.595601 0.483112
vt 0.595443 0.376675
vt 0.597864 0.376810
vt 0.597243 0.485307
vt 0.606059 0.482980
vt 0.606820 0.485342
vt 0.681773 0.482969
vt 0.681613 0.376568
vt 0.684039 0.376656
vt 0.681776 0.485501
vt 0.608499 0.485622
vt 0.608485 0.483068
vt 0.605888 0.376744
vt 0.608330 0.376678
vt 0.683276 0.374293
vt 0.692855 0.374329
vt 0.681598 0.374014
vt 0.608327 0.374146
vt 0.606635 0.374455
vt 0.597060 0.374435
vt 0.681491 0.363216
vt 0.681508 0.365736
vt 0.608398 0.365844
vt 0.608409 0.363321
vt 0.585781 0.253622
vt 0.658998 0.253581
vt 0.659155 0.360017
vt 0.585934 0.360193
vt 0.692348 0.488196
vt 0.698586 0.488204
vt 0.698577 0.496113
vt 0.692339 0.496105
vt 0.711052 0.496128
vt 0.704814 0.496120
vt 0.704824 0.488212
vt 0.711061 0.488219
vt 0.686111 0.488189
vt 0.686101 0.496098
vt 0.551368 0.488199
vt 0.551371 0.496066
vt 0.545166 0.496068
vt 0.545164 0.488201
vt 0.532756 0.496073
vt 0.532754 0.488205
vt 0.538958 0.488203
vt 0.538961 0.496071
vt 0.557573 0.488197
vt 0.557576 0.496064
vt 0.528747 0.488171
vt 0.528747 0.496049
vt 0.522533 0.496048
vt 0.522534 0.488170
vt 0.510107 0.496047
vt 0.510107 0.488169
vt 0.516321 0.488170
vt 0.516320 0.496048
vt 0.503893 0.496047
vt 0.503894 0.488169
vt 0.562000 0.488150
vt 0.568195 0.488140
vt 0.568206 0.495994
vt 0.562012 0.496004
vt 0.580595 0.495975
vt 0.574401 0.495984
vt 0.574389 0.488131
vt 0.580583 0.488122
vt 0.586777 0.488112
vt 0.586789 0.495965
vn -0.060971 -0.997873 0.023059
vn -0.984553 -0.172368 0.030727
vn -0.984736 -0.174056 0.000000
vn -0.064102 -0.997943 0.000000
vn 0.080898 -0.177802 0.980735
vn 0.002209 -0.999641 0.026708
vn 0.060971 -0.997873 0.023059
vn 0.156316 -0.175431 0.972003
vn -0.984553 -0.172368 0.030727
vn -0.156316 -0.175431 0.972003
vn -0.156316 0.175431 0.972003
vn -0.984553 0.172368 0.030727
vn 0.984553 -0.172368 0.030727
vn 0.060971 -0.997873 0.023059
vn 0.064102 -0.997943 0.000000
vn 0.984736 -0.174056 0.000000
vn 0.156316 -0.175431 0.972003
vn 0.984553 -0.172368 0.030727
vn 0.984553 0.172368 0.030727
vn 0.156316 0.175431 0.972003
vn -0.984553 0.172368 0.030727
vn -0.060971 0.997873 0.023059
vn -0.064102 0.997943 0.000000
vn -0.984736 0.174056 0.000000
vn 0.002209 0.999641 0.026708
vn 0.080898 0.177802 0.980735
vn 0.156316 0.175431 0.972003
vn 0.060971 0.997873 0.023059
vn 0.060971 0.997873 0.023059
vn 0.984553 0.172368 0.030727
vn 0.984736 0.174056 0.000000
vn 0.064102 0.997943 0.000000
vn -0.984553 0.172368 -0.030727
vn -0.156316 0.175431 -0.972003
vn -0.156316 -0.175431 -0.972003
vn -0.984553 -0.172368 -0.030727
vn 0.080898 0.177802 -0.980735
vn 0.002209 0.999641 -0.026708
vn 0.060971 0.997873 -0.023059
vn 0.156316 0.175431 -0.972003
vn 0.156316 0.175431 -0.972003
vn 0.984553 0.172368 -0.030727
vn 0.984553 -0.172368 -0.030727
vn 0.156316 -0.175431 -0.972003
vn 0.002209 -0.999641 -0.026708
vn 0.080898 -0.177802 -0.980735
vn 0.156316 -0.175431 -0.972003
vn 0.060971 -0.997873 -0.023059
vn 0.080898 -0.177802 0.980735
vn 0.156316 -0.175431 0.972003
vn 0.156316 0.175431 0.972003
vn 0.080898 0.177802 0.980735
vn 0.000000 1.000000 0.000000
vn 0.002209 0.999641 0.026708
vn 0.060971 0.997873 0.023059
vn 0.064102 0.997943 0.000000
vn 0.080898 0.177802 -0.980735
vn 0.156316 0.175431 -0.972003
vn 0.156316 -0.175431 -0.972003
vn 0.080898 -0.177802 -0.980735
vn 0.000000 -1.000000 0.000000
vn 0.064102 -0.997943 0.000000
vn 0.060971 -0.997873 0.023059
vn 0.002209 -0.999641 0.026708
vn 0.984553 -0.172368 0.030727
vn 0.984736 -0.174056 0.000000
vn 0.984736 0.174056 0.000000
vn 0.984553 0.172368 0.030727
vn -0.984736 -0.174056 0.000000
vn -0.984553 -0.172368 0.030727
vn -0.984553 0.172368 0.030727
vn -0.984736 0.174056 0.000000
vn -0.060971 -0.997873 0.023059
vn -0.156316 -0.175431 0.972003
vn -0.984553 -0.172368 0.030727
vn 0.984553 -0.172368 0.030727
vn 0.156316 -0.175431 0.972003
vn 0.060971 -0.997873 0.023059
vn -0.984553 0.172368 0.030727
vn -0.156316 0.175431 0.972003
vn -0.060971 0.997873 0.023059
vn 0.060971 0.997873 0.023059
vn 0.156316 0.175431 0.972003
vn 0.984553 0.172368 0.030727
vn -0.984553 0.172368 -0.030727
vn -0.060971 0.997873 -0.023059
vn -0.156316 0.175431 -0.972003
vn 0.156316 0.175431 -0.972003
vn 0.060971 0.997873 -0.023059
vn 0.984553 0.172368 -0.030727
vn -0.984553 -0.172368 -0.030727
vn -0.156316 -0.175431 -0.972003
vn -0.060971 -0.997873 -0.023059
vn 0.060971 -0.997873 -0.023059
vn 0.156316 -0.175431 -0.972003
vn 0.984553 -0.172368 -0.030727
vn -0.984736 0.174056 0.000000
vn -0.064102 0.997943 0.000000
vn -0.060971 0.997873 -0.023059
vn -0.984553 0.172368 -0.030727
vn -0.984553 -0.172368 -0.030727
vn -0.984736 -0.174056 0.000000
vn -0.984736 0.174056 0.000000
vn -0.984553 0.172368 -0.030727
vn -0.064102 -0.997943 0.000000
vn -0.984736 -0.174056 0.000000
vn -0.984553 -0.172368 -0.030727
vn -0.060971 -0.997873 -0.023059
vn 0.002209 -0.999641 -0.026708
vn 0.060971 -0.997873 -0.023059
vn 0.064102 -0.997943 0.000000
vn 0.000000 -1.000000 0.000000
vn 0.984736 -0.174056 0.000000
vn 0.064102 -0.997943 0.000000
vn 0.060971 -0.997873 -0.023059
vn 0.984553 -0.172368 -0.030727
vn 0.984736 0.174056 0.000000
vn 0.984736 -0.174056 0.000000
vn 0.984553 -0.172368 -0.030727
vn 0.984553 0.172368 -0.030727
vn 0.064102 0.997943 0.000000
vn 0.984736 0.174056 0.000000
vn 0.984553 0.172368 -0.030727
vn 0.060971 0.997873 -0.023059
vn 0.000000 1.000000 0.000000
vn 0.064102 0.997943 0.000000
vn 0.060971 0.997873 -0.023059
vn 0.002209 0.999641 -0.026708
vn -0.060971 0.997873 0.023059
vn -0.156316 0.175431 0.972003
vn -0.080898 0.177802 0.980736
vn -0.002209 0.999641 0.026708
vn -0.156316 -0.175431 0.972003
vn -0.080898 -0.177802 0.980735
vn -0.080898 0.177802 0.980736
vn -0.156316 0.175431 0.972003
vn -0.156316 -0.175431 0.972003
vn -0.060971 -0.997873 0.023059
vn -0.002209 -0.999641 0.026708
vn -0.080898 -0.177802 0.980735
vn -0.064102 -0.997943 0.000000
vn 0.000000 -1.000000 0.000000
vn -0.002209 -0.999641 0.026708
vn -0.060971 -0.997873 0.023059
vn -0.060971 -0.997873 -0.023059
vn -0.002209 -0.999641 -0.026708
vn 0.000000 -1.000000 0.000000
vn -0.064102 -0.997943 0.000000
vn -0.060971 -0.997873 -0.023059
vn -0.156316 -0.175431 -0.972003
vn -0.080898 -0.177802 -0.980735
vn -0.002209 -0.999641 -0.026708
vn -0.156316 0.175431 -0.972003
vn -0.080898 0.177802 -0.980735
vn -0.080898 -0.177802 -0.980735
vn -0.156316 -0.175431 -0.972003
vn -0.156316 0.175431 -0.972003
vn -0.060971 0.997873 -0.023059
vn -0.002209 0.999641 -0.026708
vn -0.080898 0.177802 -0.980735
vn -0.064102 0.997943 0.000000
vn 0.000000 1.000000 0.000000
vn -0.002209 0.999641 -0.026708
vn -0.060971 0.997873 -0.023059
vn -0.060971 0.997873 0.023059
vn -0.002209 0.999641 0.026708
vn 0.000000 1.000000 0.000000
vn -0.064102 0.997943 0.000000
vn -0.002209 0.999641 0.026708
vn -0.080898 0.177802 0.980736
vn 0.000000 0.178954 0.983858
vn 0.000000 0.999632 0.027138
vn -0.080898 -0.177802 0.980735
vn 0.000000 -0.178954 0.983858
vn 0.000000 0.178954 0.983858
vn -0.080898 0.177802 0.980736
vn -0.080898 -0.177802 0.980735
vn -0.002209 -0.999641 0.026708
vn 0.000000 -0.999632 0.027138
vn 0.000000 -0.178954 0.983858
vn 0.000000 -1.000000 0.000000
vn 0.000000 -1.000000 0.000000
vn 0.000000 -0.999632 0.027138
vn -0.002209 -0.999641 0.026708
vn -0.002209 -0.999641 -0.026708
vn 0.000000 -0.999632 -0.027138
vn 0.000000 -1.000000 0.000000
vn 0.000000 -1.000000 0.000000
vn -0.002209 -0.999641 -0.026708
vn -0.080898 -0.177802 -0.980735
vn 0.000000 -0.178954 -0.983858
vn 0.000000 -0.999632 -0.027138
vn -0.080898 0.177802 -0.980735
vn 0.000000 0.178954 -0.983858
vn 0.000000 -0.178954 -0.983858
vn -0.080898 -0.177802 -0.980735
vn -0.080898 0.177802 -0.980735
vn -0.002209 0.999641 -0.026708
vn 0.000000 0.999632 -0.027138
vn 0.000000 0.178954 -0.983858
vn 0.000000 1.000000 0.000000
vn 0.000000 1.000000 0.000000
vn 0.000000 0.999632 -0.027138
vn -0.002209 0.999641 -0.026708
vn 0.000000 1.000000 0.000000
vn -0.002209 0.999641 0.026708
vn 0.000000 0.999632 0.027138
vn 0.000000 1.000000 0.000000
vn 0.000000 0.999632 0.027138
vn 0.000000 0.178954 0.983858
vn 0.080898 0.177802 0.980735
vn 0.002209 0.999641 0.026708
vn 0.000000 -0.178954 0.983858
vn 0.080898 -0.177802 0.980735
vn 0.080898 0.177802 0.980735
vn 0.000000 0.178954 0.983858
vn 0.000000 -0.178954 0.983858
vn 0.000000 -0.999632 0.027138
vn 0.002209 -0.999641 0.026708
vn 0.080898 -0.177802 0.980735
vn 0.000000 -1.000000 0.000000
vn 0.000000 -1.000000 0.000000
vn 0.002209 -0.999641 0.026708
vn 0.000000 -0.999632 0.027138
vn 0.000000 -0.999632 -0.027138
vn 0.002209 -0.999641 -0.026708
vn 0.000000 -1.000000 0.000000
vn 0.000000 -1.000000 0.000000
vn 0.000000 -0.999632 -0.027138
vn 0.000000 -0.178954 -0.983858
vn 0.080898 -0.177802 -0.980735
vn 0.002209 -0.999641 -0.026708
vn 0.000000 0.178954 -0.983858
vn 0.080898 0.177802 -0.980735
vn 0.080898 -0.177802 -0.980735
vn 0.000000 -0.178954 -0.983858
vn 0.000000 0.178954 -0.983858
vn 0.000000 0.999632 -0.027138
vn 0.002209 0.999641 -0.026708
vn 0.080898 0.177802 -0.980735
vn 0.000000 1.000000 0.000000
vn 0.000000 1.000000 0.000000
vn 0.002209 0.999641 -0.026708
vn 0.000000 0.999632 -0.027138
vn 0.000000 1.000000 0.000000
vn 0.000000 0.999632 0.027138
vn 0.002209 0.999641 0.026708
vn 0.000000 1.000000 0.000000
vn -0.707107 -0.707107 0.000000
vn -0.707107 -0.707107 0.000000
vn -0.707107 -0.707107 0.000000
vn -0.707107 -0.707107 0.000000
vn 0.000000 -0.707106 0.707108
vn 0.000000 -0.707106 0.707108
vn 0.000000 -0.707106 0.707108
vn 0.000000 -0.707106 0.707108
vn -0.707105 0.000000 0.707108
vn -0.707105 0.000000 0.707108
vn -0.707105 0.000000 0.707108
vn -0.707105 0.000000 0.707108
vn 0.707107 -0.707107 0.000000
vn 0.707107 -0.707107 0.000000
vn 0.707107 -0.707107 0.000000
vn 0.707107 -0.707107 0.000000
vn 0.707105 0.000000 0.707108
vn 0.707105 0.000000 0.707108
vn 0.707105 0.000000 0.707108
vn 0.707105 0.000000 0.707108
vn -0.707107 0.707107 0.000000
vn -0.707107 0.707107 0.000000
vn -0.707107 0.707107 0.000000
vn -0.707107 0.707107 0.000000
vn 0.000000 0.707106 0.707107
vn 0.000000 0.707106 0.707107
vn 0.000000 0.707106 0.707107
vn 0.000000 0.707106 0.707107
vn 0.707107 0.707107 0.000000
vn 0.707107 0.707107 0.000000
vn 0.707107 0.707107 0.000000
vn 0.707107 0.707107 0.000000
vn -0.707105 0.000000 -0.707108
vn -0.707105 0.000000 -0.707108
vn -0.707105 0.000000 -0.707108
vn -0.707105 0.000000 -0.707108
vn 0.000000 0.707106 -0.707107
vn 0.000000 0.707106 -0.707107
vn 0.000000 0.707106 -0.707107
vn 0.000000 0.707106 -0.707107
vn 0.707105 0.000000 -0.707108
vn 0.707105 0.000000 -0.707108
vn 0.707105 0.000000 -0.707108
vn 0.707105 0.000000 -0.707108
vn 0.000000 -0.707106 -0.707108
vn 0.000000 -0.707106 -0.707108
vn 0.000000 -0.707106 -0.707108
vn 0.000000 -0.707106 -0.707108
vn 0.000000 0.000000 1.000000
vn 0.000000 0.000000 1.000000
vn 0.000000 0.000000 1.000000
vn 0.000000 0.000000 1.000000
vn 0.000000 1.000000 0.000000
vn 0.000000 1.000000 0.000000
vn 0.000000 1.000000 0.000000
vn 0.000000 1.000000 0.000000
vn 0.000000 0.000000 -1.000000
vn 0.000000 0.000000 -1.000000
vn 0.000000 0.000000 -1.000000
vn 0.000000 0.000000 -1.000000
vn 0.000000 -1.000000 0.000000
vn 0.000000 -1.000000 0.000000
vn 0.000000 -1.000000 0.000000
vn 0.000000 -1.000000 0.000000
vn 1.000000 0.000000 0.000000
vn 1.000000 0.000000 0.000000
vn 1.000000 0.000000 0.000000
vn 1.000000 0.000000 0.000000
vn -1.000000 0.000000 0.000000
vn -1.000000 0.000000 0.000000
vn -1.000000 0.000000 0.000000
vn -1.000000 0.000000 0.000000
vn -0.577348 -0.577351 0.577352
vn -0.577348 -0.577351 0.577352
vn -0.577348 -0.577351 0.577352
vn 0.577348 -0.577351 0.577352
vn 0.577348 -0.577351 0.577352
vn 0.577348 -0.577351 0.577352
vn -0.577349 0.577351 0.577351
vn -0.577349 0.577351 0.577351
vn -0.577349 0.577351 0.577351
vn 0.577349 0.577351 0.577351
vn 0.577349 0.577351 0.577351
vn 0.577349 0.577351 0.577351
vn -0.577349 0.577351 -0.577351
vn -0.577349 0.577351 -0.577351
vn -0.577349 0.577351 -0.577351
vn 0.577349 0.577351 -0.577351
vn 0.577349 0.577351 -0.577351
vn 0.577349 0.577351 -0.577351
vn -0.577348 -0.577351 -0.577352
vn -0.577348 -0.577351 -0.577352
vn -0.577348 -0.577351 -0.577352
vn 0.577348 -0.577351 -0.577352
vn 0.577348 -0.577351 -0.577352
vn 0.577348 -0.577351 -0.577352
vn 0.000000 0.000000 1.000000
vn 0.000000 0.000000 1.000000
vn 0.000000 0.000000 1.000000
vn 0.000000 0.000000 1.000000
vn 0.000000 0.000000 -1.000000
vn 0.000000 0.000000 -1.000000
vn 0.000000 0.000000 -1.000000
vn 0.000000 0.000000 -1.000000
vn 1.000000 0.000000 0.000000
vn 1.000000 0.000000 0.000000
vn 1.000000 0.000000 0.000000
vn 1.000000 0.000000 0.000000
vn -1.000000 0.000000 0.000000
vn -1.000000 0.000000 0.000000
vn -1.000000 0.000000 0.000000
vn -1.000000 0.000000 0.000000
vn 0.000000 0.000000 1.000000
vn 0.000000 0.000000 1.000000
vn 0.000000 0.000000 1.000000
vn 0.000000 0.000000 1.000000
vn 0.000000 0.000000 -1.000000
vn 0.000000 0.000000 -1.000000
vn 0.000000 0.000000 -1.000000
vn 0.000000 0.000000 -1.000000
vn -1.000000 0.000000 0.000000
vn -1.000000 0.000000 0.000000
vn -1.000000 0.000000 0.000000
vn -1.000000 0.000000 0.000000
vn 1.000000 0.000000 0.000000
vn 1.000000 0.000000 0.000000
vn 1.000000 0.000000 0.000000
vn 1.000000 0.000000 0.000000
vn 0.000000 0.000000 1.000000
vn 0.000000 0.000000 1.000000
vn 0.000000 0.000000 1.000000
vn 0.000000 0.000000 1.000000
vn 0.000000 0.000000 -1.000000
vn 0.000000 0.000000 -1.000000
vn 0.000000 0.000000 -1.000000
vn 0.000000 0.000000 -1.000000
vn -1.000000 0.000000 0.000000
vn -1.000000 0.000000 0.000000
vn -1.000000 0.000000 0.000000
vn -1.000000 0.000000 0.000000
vn 1.000000 0.000000 0.000000
vn 1.000000 0.000000 0.000000
vn 1.000000 0.000000 0.000000
vn 1.000000 0.000000 0.000000
vn 0.000000 0.000000 1.000000
vn 0.000000 0.000000 1.000000
vn 0.000000 0.000000 1.000000
vn 0.000000 0.000000 1.000000
vn 0.000000 0.000000 -1.000000
vn 0.000000 0.000000 -1.000000
vn 0.000000 0.000000 -1.000000
vn 0.000000 0.000000 -1.000000
vn 1.000000 0.000000 0.000000
vn 1.000000 0.000000 0.000000
vn 1.000000 0.000000 0.000000
vn 1.000000 0.000000 0.000000
vn -1.000000 0.000000 0.000000
vn -1.000000 0.000000 0.000000
vn -1.000000 0.000000 0.000000
vn -1.000000 0.000000 0.000000
s off
g polySurface85
usemtl blinn5SG
f 1/1/1 3/2/2 27/3/3 28/4/4
f 55/5/5 56/6/6 6/7/7 5/8/8
f 3/2/9 2/9/10 8/10/11 7/11/12
f 4/12/13 6/13/14 29/14/15 30/15/16
f 5/16/17 4/12/18 12/17/19 11/18/20
f 7/11/21 9/19/22 25/20/23 26/21/24
f 53/22/25 54/23/26 11/24/27 10/25/28
f 10/25/29 12/17/30 31/26/31 32/27/32
f 13/28/33 15/29/34 20/30/35 19/31/36
f 60/32/37 61/33/38 17/34/39 16/35/40
f 16/36/41 18/37/42 24/38/43 23/39/44
f 58/40/45 59/41/46 23/42/47 22/43/48
f 55/5/49 5/8/50 11/24/51 54/23/52
f 62/44/53 53/22/54 10/25/55 32/27/56
f 60/32/57 16/35/58 23/42/59 59/41/60
f 57/45/61 29/46/62 6/47/63 56/48/64
f 4/12/65 30/15/66 31/26/67 12/17/68
f 27/3/69 3/2/70 7/11/71 26/21/72
f 1/1/73 2/9/74 3/2/75
f 4/12/76 5/16/77 6/13/78
f 7/11/79 8/10/80 9/19/81
f 10/25/82 11/18/83 12/17/84
f 13/28/85 14/49/86 15/29/87
f 16/36/88 17/34/89 18/37/90
f 19/31/91 20/30/92 21/50/93
f 22/51/94 23/39/95 24/38/96
f 26/21/97 25/20/98 14/49/99 13/28/100
f 19/31/101 27/3/102 26/21/103 13/28/104
f 28/4/105 27/3/106 19/31/107 21/50/108
f 58/52/109 22/53/110 29/46/111 57/45/112
f 30/15/113 29/14/114 22/51/115 24/38/116
f 31/26/117 30/15/118 24/38/119 18/37/120
f 32/27/121 31/26/122 18/37/123 17/34/124
f 62/44/125 32/27/126 17/34/127 61/33/128
f 9/19/129 8/54/130 34/55/131 33/56/132
f 2/57/133 35/58/134 34/55/135 8/54/136
f 2/57/137 1/59/138 36/60/139 35/58/140
f 28/61/141 37/62/142 36/63/143 1/64/144
f 21/65/145 38/66/146 37/62/147 28/61/148
f 21/67/149 20/68/150 39/69/151 38/70/152
f 15/71/153 40/72/154 39/69/155 20/68/156
f 15/71/157 14/49/158 41/73/159 40/72/160
f 25/20/161 42/74/162 41/73/163 14/49/164
f 9/19/165 33/56/166 42/74/167 25/20/168
f 33/56/169 34/55/170 44/75/171 43/76/172
f 35/58/173 45/77/174 44/75/175 34/55/176
f 35/58/177 36/60/178 46/78/179 45/77/180
f 37/62/181 47/79/182 46/80/183 36/63/184
f 38/66/185 48/81/186 47/79/187 37/62/188
f 38/70/189 39/69/190 49/82/191 48/83/192
f 40/72/193 50/84/194 49/82/195 39/69/196
f 40/72/197 41/73/198 51/85/199 50/84/200
f 42/74/201 52/86/202 51/85/203 41/73/204
f 42/74/205 33/56/206 43/76/207 52/86/208
f 43/76/209 44/75/210 54/23/211 53/22/212
f 45/77/213 55/5/214 54/23/215 44/75/216
f 45/77/217 46/78/218 56/6/219 55/5/220
f 47/79/221 57/45/222 56/48/223 46/80/224
f 48/81/225 58/52/226 57/45/227 47/79/228
f 48/83/229 49/82/230 59/41/231 58/40/232
f 50/84/233 60/32/234 59/41/235 49/82/236
f 50/84/237 51/85/238 61/33/239 60/32/240
f 52/86/241 62/44/242 61/33/243 51/85/244
f 52/86/245 43/76/246 53/22/247 62/44/248
f 63/87/249 65/88/250 81/89/251 83/90/252
f 64/91/253 63/92/254 68/93/255 67/94/256
f 65/88/257 64/95/258 70/96/259 69/97/260
f 66/98/261 68/99/262 84/100/263 86/101/264
f 67/102/265 66/98/266 74/103/267 73/104/268
f 69/97/269 71/105/270 76/106/271 75/107/272
f 71/105/273 70/108/274 73/109/275 72/110/276
f 72/110/277 74/103/278 80/111/279 79/112/280
f 75/107/281 77/113/282 82/114/283 81/89/284
f 77/115/285 76/106/286 79/112/287 78/116/288
f 78/117/289 80/111/290 86/101/291 85/118/292
f 83/119/293 82/120/294 85/121/295 84/122/296
f 64/91/297 67/94/298 73/109/299 70/108/300
f 71/105/301 72/110/302 79/112/303 76/106/304
f 77/115/305 78/116/306 85/121/307 82/120/308
f 83/123/309 84/124/310 68/125/311 63/126/312
f 66/98/313 86/101/314 80/111/315 74/103/316
f 81/89/317 65/88/318 69/97/319 75/107/320
f 63/87/321 64/95/322 65/88/323
f 66/98/324 67/102/325 68/99/326
f 69/97/327 70/96/328 71/105/329
f 72/110/330 73/104/331 74/103/332
f 75/107/333 76/106/334 77/113/335
f 78/117/336 79/112/337 80/111/338
f 81/89/339 82/114/340 83/90/341
f 84/100/342 85/118/343 86/101/344
f 87/127/345 88/128/346 90/129/347 89/130/348
f 91/131/349 92/132/350 94/133/351 93/134/352
f 88/128/353 94/133/354 92/132/355 90/129/356
f 93/135/357 87/127/358 89/130/359 91/136/360
f 95/137/361 97/138/362 98/139/363 96/140/364
f 99/141/365 101/142/366 102/143/367 100/144/368
f 96/140/369 98/139/370 100/144/371 102/143/372
f 101/145/373 99/146/374 97/138/375 95/137/376
f 103/147/377 105/148/378 106/149/379 104/150/380
f 107/151/381 109/152/382 110/153/383 108/154/384
f 104/150/385 106/149/386 108/154/387 110/153/388
f 109/152/389 107/151/390 105/155/391 103/156/392
f 111/157/393 112/158/394 114/159/395 113/160/396
f 115/161/397 116/162/398 118/163/399 117/164/400
f 112/158/401 118/163/402 116/162/403 114/159/404
f 117/164/405 111/165/406 113/166/407 115/161/408
