# This file uses centimeters as units for non-parametric coordinates.

mtllib OliveTallLUpperLeg.mtl
g default
v -1.308184 -0.002535 -0.191937
v -0.941785 -0.002535 -0.234711
v -0.575385 -0.002535 -0.177648
v -0.208985 -0.002535 -0.198853
v 0.157416 -0.002535 -0.220743
v 0.523816 -0.002535 -0.185324
v 0.890215 -0.002535 -0.214569
v 1.256616 -0.002535 -0.185326
v 1.623015 -0.002535 -0.169511
v 1.738819 -0.002539 0.038438
v 1.623017 -0.002535 0.294592
v 1.256617 -0.002535 0.299481
v 0.890217 -0.002535 0.301279
v 0.523817 -0.002535 0.299483
v 0.157417 -0.002535 0.294597
v -0.208983 -0.002535 0.286600
v -0.575383 -0.002535 0.276090
v -0.941783 -0.002535 0.263860
v -1.308182 -0.002535 0.250825
v -1.757763 -0.296465 -0.194139
v -1.728971 -0.310314 -0.191102
v -1.726047 -0.296362 -0.219561
v -1.725127 -0.265835 -0.231463
v -1.755340 -0.264745 -0.222818
v -1.770196 -0.266158 -0.195320
v -1.763629 -0.002609 -0.226826
v -1.778772 -0.002523 -0.198408
v -1.732735 -0.002798 -0.235930
v -1.791893 0.287769 0.171193
v -1.801430 0.285799 0.140712
v -1.788407 0.315198 0.139981
v -1.758492 0.327431 0.141982
v -1.761447 0.317178 0.172139
v -1.763402 0.288528 0.186136
v -1.755340 0.259657 -0.222674
v -1.725128 0.260749 -0.231306
v -1.726051 0.291280 -0.219389
v -1.728977 0.305231 -0.190928
v -1.757768 0.291381 -0.193984
v -1.770199 0.261069 -0.195181
v -1.309230 -0.326476 -0.169643
v -1.310128 -0.339400 -0.140067
v -1.309855 -0.296823 -0.182351
v -1.791894 -0.292842 0.171180
v -1.763404 -0.293600 0.186124
v -1.761449 -0.322249 0.172125
v -1.758494 -0.332503 0.141968
v -1.788408 -0.320271 0.139967
v -1.801432 -0.290873 0.140699
v -1.309240 0.321399 -0.169210
v -1.310133 0.334316 -0.139631
v -1.309883 0.291759 -0.181941
v 1.622745 0.298604 0.258555
v 1.622852 0.269969 0.273165
v 1.622254 0.308486 0.227969
v 1.256434 0.301005 0.263713
v 1.256210 0.311221 0.233281
v 1.256398 0.272345 0.278172
v 1.622746 -0.303671 0.258704
v 1.622259 -0.313559 0.228118
v 1.622850 -0.275029 0.273302
v 1.256436 -0.306070 0.263713
v 1.256398 -0.277410 0.278172
v 1.256219 -0.316286 0.233281
v 0.890127 0.302254 0.265164
v 0.889942 0.273617 0.280023
v 0.890186 0.311430 0.234233
v 0.523833 0.305693 0.263683
v 0.524180 0.315896 0.233241
v 0.523508 0.277018 0.278126
v 0.890127 -0.307319 0.265164
v 0.890186 -0.316495 0.234234
v 0.889941 -0.278682 0.280023
v 0.523835 -0.310763 0.263683
v 0.523507 -0.282088 0.278125
v 0.524189 -0.320966 0.233241
v 0.157528 0.307564 0.258554
v 0.157073 0.278901 0.273232
v 0.158135 0.317139 0.227810
v -0.208787 0.311506 0.251010
v -0.207955 0.322591 0.221024
v -0.209333 0.282790 0.265075
v 0.157528 -0.312640 0.258406
v 0.158140 -0.322211 0.227662
v 0.157073 -0.283983 0.273094
v -0.208789 -0.316570 0.250939
v -0.209333 -0.287858 0.265009
v -0.207963 -0.327655 0.220954
v -0.575116 0.313241 0.240289
v -0.575741 0.284538 0.254611
v -0.574109 0.323651 0.209958
v -0.941469 0.315277 0.227976
v -0.940360 0.325503 0.197553
v -0.942130 0.286573 0.242362
v -0.575117 -0.318314 0.240256
v -0.574111 -0.328725 0.209925
v -0.575741 -0.289612 0.254579
v -0.941469 -0.320350 0.227939
v -0.942130 -0.291647 0.242327
v -0.940362 -0.330575 0.197517
v -0.576128 0.290982 -0.155229
v -0.577491 0.304172 -0.126128
v -0.575864 0.261723 -0.167852
v -0.948889 0.285838 -0.213993
v -0.941491 0.254815 -0.226257
v -0.966760 0.299875 -0.185778
v -0.205707 0.300778 -0.175939
v -0.196043 0.313628 -0.147460
v -0.210533 0.271591 -0.188305
v -0.576124 -0.296051 -0.155644
v -0.577489 -0.309250 -0.126544
v -0.575850 -0.266777 -0.168242
v -0.948886 -0.290907 -0.214233
v -0.966741 -0.304949 -0.186017
v -0.941495 -0.259875 -0.226474
v -0.205697 -0.305839 -0.176251
v -0.196014 -0.318697 -0.147769
v -0.210531 -0.276641 -0.188596
v 0.153928 0.264386 -0.199088
v 0.157619 0.234549 -0.211494
v 0.145035 0.278217 -0.170518
v 0.525875 0.278105 -0.162998
v 0.531542 0.291907 -0.134427
v 0.523298 0.248569 -0.175405
v 0.153962 -0.269466 -0.199155
v 0.145006 -0.283298 -0.170583
v 0.157763 -0.239623 -0.211549
v 0.525868 -0.283175 -0.162997
v 0.531544 -0.296977 -0.134426
v 0.523268 -0.253637 -0.175402
v 0.890321 0.251338 -0.192210
v 0.890298 0.221994 -0.204673
v 0.890504 0.265215 -0.163482
v 1.256175 0.273532 -0.162797
v 1.254141 0.286787 -0.133929
v 1.257555 0.244299 -0.175351
v 0.890323 -0.256408 -0.192210
v 0.890513 -0.270285 -0.163482
v 0.890297 -0.227064 -0.204673
v 1.256175 -0.278608 -0.162797
v 1.254136 -0.291862 -0.133928
v 1.257557 -0.249375 -0.175351
v 1.623411 0.266735 -0.147495
v 1.623655 0.237515 -0.159934
v 1.623758 0.280371 -0.118776
v 1.623354 -0.271837 -0.147425
v 1.623741 -0.285468 -0.118706
v 1.623474 -0.242622 -0.159869
v -1.306437 0.318727 0.215503
v -1.305569 0.330540 0.185864
v -1.304742 0.289933 0.229365
v -1.800670 -0.002540 0.188876
v -1.810130 -0.002547 0.158144
v -1.772320 -0.002540 0.203965
v -1.306431 -0.323798 0.215504
v -1.305570 -0.335611 0.185865
v -1.304722 -0.295004 0.229368
v -1.750170 -0.289773 -0.216925
v -1.785296 0.311424 0.164801
v -1.750172 0.284689 -0.216767
v -1.785297 -0.316496 0.164787
vt 0.171185 0.450895
vt 0.171811 0.454261
vt 0.135216 0.457474
vt 0.134968 0.454029
vt 0.126190 0.495137
vt 0.122793 0.494536
vt 0.127335 0.460537
vt 0.130657 0.461337
vt 0.178056 0.451023
vt 0.174555 0.450848
vt 0.170157 0.405945
vt 0.173526 0.406584
vt 0.166828 0.405392
vt 0.122632 0.497836
vt 0.096611 0.498495
vt 0.096162 0.495091
vt 0.178254 0.454352
vt 0.205957 0.450821
vt 0.206051 0.454247
vt 0.070554 0.500528
vt 0.069903 0.497237
vt 0.232969 0.449114
vt 0.232984 0.452464
vt 0.064217 0.459029
vt 0.064490 0.455462
vt 0.095871 0.454792
vt 0.095360 0.457863
vt 0.064848 0.451957
vt 0.096317 0.451699
vt 0.058339 0.451333
vt 0.058621 0.454782
vt 0.024486 0.457928
vt 0.024162 0.454530
vt 0.060853 0.459334
vt 0.066501 0.497898
vt 0.061589 0.451580
vt 0.061127 0.403497
vt 0.064467 0.403829
vt 0.057788 0.403069
vt 0.020768 0.454991
vt 0.019675 0.407648
vt 0.023101 0.407811
vt 0.236424 0.449343
vt 0.235771 0.406237
vt 0.239074 0.407011
vt 0.175368 0.367383
vt 0.178708 0.367267
vt 0.172207 0.368402
vt 0.128070 0.453723
vt 0.127740 0.457140
vt 0.131481 0.453952
vt 0.129510 0.404326
vt 0.132778 0.405019
vt 0.126260 0.403421
vt 0.013145 0.368410
vt 0.016562 0.370607
vt 0.233234 0.368129
vt 0.236680 0.369745
vt 0.062054 0.054906
vt 0.070345 0.094504
vt 0.067011 0.093795
vt 0.073678 0.095207
vt 0.133635 0.056161
vt 0.135014 0.094812
vt 0.131626 0.094278
vt 0.138409 0.095342
vt 0.068863 0.132433
vt 0.065511 0.131665
vt 0.072221 0.133178
vt 0.067180 0.170558
vt 0.063801 0.169776
vt 0.070569 0.171309
vt 0.134781 0.133417
vt 0.131396 0.132867
vt 0.138169 0.133961
vt 0.133959 0.172056
vt 0.130528 0.171460
vt 0.137392 0.172649
vt 0.065125 0.209043
vt 0.061729 0.208332
vt 0.068527 0.209737
vt 0.063398 0.247579
vt 0.059995 0.246855
vt 0.066806 0.248285
vt 0.132914 0.210371
vt 0.129474 0.209800
vt 0.136357 0.210924
vt 0.131449 0.248933
vt 0.128026 0.248322
vt 0.134871 0.249537
vt 0.061802 0.286631
vt 0.058425 0.285984
vt 0.065183 0.287274
vt 0.060700 0.325716
vt 0.057247 0.325141
vt 0.064148 0.326309
vt 0.130341 0.287508
vt 0.126964 0.286887
vt 0.133717 0.288118
vt 0.129953 0.325998
vt 0.126517 0.325435
vt 0.133396 0.326535
vt 0.060671 0.364626
vt 0.057256 0.364014
vt 0.064080 0.365259
vt 0.129158 0.365236
vt 0.125849 0.364558
vt 0.132464 0.365890
vt 0.020686 0.326998
vt 0.017301 0.326522
vt 0.015552 0.285214
vt 0.018859 0.284925
vt 0.238513 0.330263
vt 0.235219 0.329492
vt 0.238037 0.290523
vt 0.241365 0.290909
vt 0.013864 0.245931
vt 0.017156 0.247558
vt 0.235855 0.250671
vt 0.239247 0.251699
vt 0.170369 0.327146
vt 0.173904 0.327648
vt 0.177433 0.328232
vt 0.176398 0.288310
vt 0.179632 0.289417
vt 0.173206 0.286771
vt 0.181268 0.250348
vt 0.184685 0.250514
vt 0.177893 0.250594
vt 0.018648 0.205330
vt 0.021949 0.205552
vt 0.238025 0.210173
vt 0.241408 0.210437
vt 0.017816 0.166121
vt 0.021087 0.167037
vt 0.235679 0.169472
vt 0.239054 0.169841
vt 0.180215 0.210830
vt 0.183678 0.211609
vt 0.176798 0.209726
vt 0.183863 0.171584
vt 0.187259 0.172045
vt 0.180470 0.171076
vt 0.022952 0.127740
vt 0.026172 0.128821
vt 0.237056 0.127811
vt 0.240446 0.128090
vt 0.026585 0.089385
vt 0.029839 0.090365
vt 0.234071 0.087064
vt 0.237464 0.087206
vt 0.181038 0.132578
vt 0.184434 0.132902
vt 0.177647 0.132253
vt 0.179195 0.092949
vt 0.182647 0.093276
vt 0.175744 0.092577
vt 0.223824 0.047954
vt 0.177645 0.053310
vt 0.102643 0.095182
vt 0.101838 0.133424
vt 0.100530 0.171653
vt 0.098973 0.209932
vt 0.097410 0.248359
vt 0.096082 0.287014
vt 0.095370 0.325755
vt 0.095167 0.364683
vt 0.205729 0.366885
vt 0.206622 0.328341
vt 0.208827 0.289466
vt 0.210311 0.250335
vt 0.211041 0.210790
vt 0.211543 0.170851
vt 0.210822 0.130768
vt 0.208554 0.090691
vt 0.095783 0.403619
vt 0.204517 0.405385
vt 0.125333 0.497660
vt 0.174796 0.453644
vt 0.061424 0.454992
vt 0.067705 0.500484
vt 0.235686 0.451998
vt 0.021673 0.457742
vt 0.131139 0.457427
vn -0.058118 -0.995937 -0.068792
vn -0.058871 -0.998265 -0.000663
vn -0.394900 -0.915452 -0.077477
vn -0.393452 -0.911465 -0.120113
vn -0.912340 -0.387618 -0.131867
vn -0.916229 -0.390046 -0.091594
vn -0.995883 -0.067222 -0.060823
vn -0.990503 -0.063135 -0.122134
vn 0.084702 -0.056821 -0.994785
vn 0.006559 -0.068993 -0.997596
vn 0.008349 -0.376103 -0.926540
vn 0.067017 -0.375379 -0.924445
vn -0.030717 -0.906347 -0.421417
vn 0.009638 -0.908739 -0.417254
vn 0.007132 -0.998273 -0.058308
vn -0.992481 0.000021 -0.122399
vn -0.880806 0.000060 -0.473478
vn -0.880197 -0.057481 -0.471114
vn -0.276778 -0.046445 -0.959811
vn -0.279248 0.000365 -0.960219
vn 0.083263 0.000478 -0.996527
vn -0.990501 0.063147 -0.122150
vn -0.880110 0.057701 -0.471250
vn -0.276452 0.046923 -0.959881
vn 0.084968 0.057715 -0.994711
vn -0.995881 0.067238 -0.060825
vn -0.998482 0.000007 -0.055073
vn -0.955484 0.000003 0.295045
vn -0.954366 0.070935 0.290094
vn -0.463779 0.091560 0.881207
vn -0.467882 -0.000019 0.883791
vn -0.122109 -0.000012 0.992517
vn -0.119730 0.103923 0.987352
vn -0.058867 0.998266 -0.000694
vn -0.058107 0.995931 -0.068889
vn -0.393430 0.911463 -0.120196
vn -0.394892 0.915450 -0.077531
vn -0.916245 0.389999 -0.091629
vn -0.912349 0.387581 -0.131910
vn -0.069182 0.107475 0.991798
vn -0.061737 0.437465 0.897114
vn -0.101545 0.433903 0.895219
vn -0.053135 0.939212 0.339202
vn -0.020805 0.938676 0.344171
vn 0.006622 0.999972 0.003411
vn 0.007131 0.998271 -0.058352
vn 0.009657 0.908797 -0.417127
vn -0.030492 0.906411 -0.421295
vn 0.067508 0.375884 -0.924205
vn 0.008397 0.376709 -0.926294
vn 0.006657 0.069994 -0.997525
vn 0.016809 -0.068069 -0.997539
vn 0.017088 -0.382869 -0.923645
vn 0.048547 -0.909119 -0.413697
vn 0.030378 -0.996091 -0.082950
vn -0.119744 -0.103947 0.987348
vn -0.463798 -0.091601 0.881193
vn -0.954356 -0.070946 0.290124
vn 0.006626 -0.999972 0.003437
vn -0.020795 -0.938671 0.344186
vn -0.053144 -0.939203 0.339225
vn -0.101570 -0.433938 0.895199
vn -0.061722 -0.437510 0.897093
vn -0.069164 -0.107510 0.991795
vn 0.030373 0.996084 -0.083026
vn 0.048599 0.909208 -0.413496
vn 0.017014 0.383608 -0.923339
vn 0.016818 0.069169 -0.997463
vn 0.931290 0.363370 -0.025713
vn 0.245543 0.968598 -0.039071
vn 0.336417 0.896216 0.289171
vn 0.911922 0.000106 0.410363
vn 0.292415 0.433703 0.852288
vn 0.213366 0.118918 0.969708
vn 0.213173 -0.118664 0.969781
vn 0.292162 -0.433513 0.852472
vn 0.931284 -0.363383 -0.025750
vn 0.336382 -0.896188 0.289300
vn 0.245565 -0.968595 -0.039010
vn -0.005658 0.998632 -0.051979
vn 0.007007 0.951678 0.307018
vn 0.010447 0.453956 0.890963
vn 0.009558 0.117640 0.993010
vn 0.006776 0.998108 -0.061116
vn 0.006082 0.953528 0.301242
vn 0.002862 0.455360 0.890303
vn 0.000453 0.116733 0.993163
vn 0.009456 -0.117525 0.993025
vn 0.010274 -0.453862 0.891013
vn 0.006937 -0.951661 0.307074
vn -0.005672 -0.998634 -0.051947
vn 0.000453 -0.116734 0.993163
vn 0.002865 -0.455354 0.890306
vn 0.006089 -0.953524 0.301255
vn 0.006777 -0.998108 -0.061103
vn 0.012392 0.998330 -0.056419
vn 0.004446 0.952546 0.304364
vn -0.004865 0.454070 0.890953
vn -0.008576 0.115991 0.993213
vn 0.018781 0.998905 -0.042855
vn 0.002721 0.949125 0.314888
vn -0.012120 0.450480 0.892704
vn -0.016975 0.114528 0.993275
vn -0.008677 -0.116106 0.993199
vn -0.005028 -0.454146 0.890913
vn 0.004395 -0.952553 0.304340
vn 0.012415 -0.998331 -0.056410
vn -0.017020 -0.114822 0.993240
vn -0.012200 -0.450686 0.892599
vn 0.002686 -0.949147 0.314822
vn 0.018794 -0.998904 -0.042856
vn 0.020827 0.999567 -0.020801
vn -0.000270 0.944374 0.328873
vn -0.019080 0.445763 0.894948
vn -0.024569 0.113385 0.993247
vn -0.004751 0.999773 -0.020790
vn -0.006102 0.944491 0.328480
vn -0.025636 0.445534 0.894898
vn -0.030434 0.112453 0.993191
vn -0.024490 -0.113634 0.993221
vn -0.018945 -0.445937 0.894864
vn -0.000218 -0.944389 0.328831
vn 0.020825 -0.999567 -0.020774
vn -0.030410 -0.112586 0.993177
vn -0.025592 -0.445610 0.894861
vn -0.006076 -0.944492 0.328478
vn -0.004747 -0.999773 -0.020762
vn 0.023566 0.999558 -0.018134
vn -0.003162 0.942944 0.332937
vn -0.027384 0.444010 0.895603
vn -0.033727 0.111462 0.993196
vn -0.033702 -0.111544 0.993188
vn -0.027343 -0.444066 0.895577
vn -0.003148 -0.942942 0.332944
vn 0.023568 -0.999558 -0.018106
vn -0.003514 0.996836 -0.079409
vn 0.024178 0.996451 -0.080635
vn -0.000721 0.910341 -0.413859
vn 0.005223 0.911775 -0.410656
vn 0.038555 0.396649 -0.917160
vn -0.039469 0.391670 -0.919259
vn -0.056739 0.079549 -0.995215
vn 0.046517 0.077072 -0.995940
vn 0.023699 0.994417 -0.102827
vn 0.030415 0.901998 -0.430667
vn 0.024535 0.386965 -0.921768
vn 0.017316 0.075364 -0.997006
vn -0.003516 -0.996840 -0.079364
vn 0.005193 -0.911679 -0.410871
vn 0.038525 -0.395866 -0.917500
vn 0.046484 -0.075899 -0.996032
vn -0.056502 -0.078606 -0.995303
vn -0.039066 -0.391005 -0.919559
vn -0.000579 -0.910281 -0.413990
vn 0.024184 -0.996454 -0.080596
vn 0.017562 -0.074971 -0.997031
vn 0.024807 -0.386590 -0.921918
vn 0.030549 -0.901983 -0.430689
vn 0.023745 -0.994419 -0.102799
vn 0.013995 0.993743 -0.110812
vn 0.018626 0.899751 -0.436005
vn 0.012966 0.388842 -0.921213
vn 0.012400 0.085471 -0.996264
vn 0.006671 0.992597 -0.121275
vn 0.005745 0.901798 -0.432120
vn 0.002103 0.392261 -0.919852
vn -0.000155 0.080229 -0.996776
vn 0.012457 -0.085407 -0.996268
vn 0.013020 -0.388768 -0.921244
vn 0.018680 -0.899750 -0.436007
vn 0.014020 -0.993743 -0.110809
vn -0.000157 -0.080230 -0.996776
vn 0.002097 -0.392250 -0.919856
vn 0.005740 -0.901800 -0.432115
vn 0.006670 -0.992598 -0.121264
vn -0.006429 0.993920 -0.109914
vn 0.007049 0.905413 -0.424473
vn 0.047721 0.393532 -0.918071
vn 0.058935 0.084774 -0.994656
vn 0.271775 0.957291 -0.098654
vn 0.345535 0.848800 -0.400179
vn 0.257540 0.382229 -0.887454
vn 0.202038 0.083272 -0.975831
vn 0.058989 -0.084834 -0.994647
vn 0.047794 -0.393544 -0.918063
vn 0.007051 -0.905433 -0.424431
vn -0.006442 -0.993924 -0.109879
vn 0.201981 -0.083410 -0.975831
vn 0.258295 -0.381411 -0.887586
vn 0.345275 -0.848750 -0.400511
vn 0.271795 -0.957289 -0.098619
vn 0.874834 -0.000371 -0.484422
vn 0.009374 0.000063 0.999956
vn 0.287957 0.000134 0.957643
vn 0.000197 -0.000000 1.000000
vn -0.008978 -0.000062 0.999960
vn -0.025008 -0.000132 0.999687
vn -0.017430 -0.000151 0.999848
vn -0.034251 -0.000043 0.999413
vn -0.030797 -0.000071 0.999526
vn 0.048229 0.000608 -0.998836
vn 0.016032 0.000573 -0.999871
vn 0.016822 0.000200 -0.999858
vn -0.058202 0.000480 -0.998305
vn 0.010309 0.000034 -0.999947
vn -0.000224 -0.000001 -1.000000
vn 0.264471 -0.000154 -0.964394
vn 0.060490 -0.000035 -0.998169
vn -0.070210 -0.000018 0.997532
vn 0.004410 0.000543 -0.999990
vn -0.843644 -0.323193 -0.428733
vn -0.325917 -0.851843 -0.410050
vn -0.235261 -0.312783 -0.920228
vn -0.401407 0.388895 0.829236
vn -0.905244 0.364154 0.218918
vn -0.344685 0.909343 0.232995
vn -0.843546 0.323295 -0.428849
vn -0.234875 0.313145 -0.920203
vn -0.325758 0.851894 -0.410071
vn -0.905222 -0.364184 0.218958
vn -0.401424 -0.388938 0.829209
vn -0.344686 -0.909335 0.233026
s 1
g FoodTallLUpperLeg
usemtl Eye_blinn1SG
f 21/1/1 47/4/2 48/3/3 20/2/4
s 2
f 20/5/5 48/8/6 49/7/7 25/6/8
s 3
f 23/9/9 43/12/10 41/11/11 22/10/12
s 1
f 22/10/13 41/11/14 42/13/15 21/1/1
s 2
f 25/6/8 27/16/16 26/15/17 24/14/18
s 3
f 24/17/19 26/19/20 28/18/21 23/9/9
s 2
f 27/16/16 40/21/22 35/20/23 26/15/17
s 3
f 26/19/20 35/23/24 36/22/25 28/18/21
s 2
f 30/24/26 153/27/27 152/26/28 29/25/29
s 6
f 29/25/30 152/26/31 154/29/32 34/28/33
s 7
f 32/30/34 38/33/35 39/32/36 31/31/37
s 2
f 31/34/38 39/35/39 40/21/22 30/24/26
s 6
f 34/28/33 151/38/40 149/37/41 33/36/42
s 7
f 33/36/43 149/37/44 150/39/45 32/30/34
f 38/33/35 51/42/46 50/41/47 37/40/48
s 3
f 37/43/49 50/45/50 52/44/51 36/22/25
f 43/12/10 115/47/52 113/46/53 41/11/11
s 1
f 41/11/14 113/46/54 114/48/55 42/13/15
s 6
f 45/49/56 154/29/32 152/26/31 44/50/57
s 2
f 44/50/58 152/26/28 153/27/27 49/7/7
s 1
f 47/4/2 156/53/59 155/52/60 46/51/61
s 6
f 46/51/62 155/52/63 157/54/64 45/49/56
s 7
f 51/42/46 106/56/65 104/55/66 50/41/47
s 3
f 50/45/50 104/58/67 105/57/68 52/44/51
s 7
f 10/59/69 55/61/70 53/60/71
s 6
f 10/59/72 53/60/73 54/62/74
f 10/63/72 61/65/75 59/64/76
s 1
f 10/63/77 59/64/78 60/66/79
s 7
f 55/61/70 57/68/80 56/67/81 53/60/71
s 6
f 53/60/73 56/67/82 58/69/83 54/62/74
s 7
f 57/68/80 67/71/84 65/70/85 56/67/81
s 6
f 56/67/82 65/70/86 66/72/87 58/69/83
f 61/65/75 63/74/88 62/73/89 59/64/76
s 1
f 59/64/78 62/73/90 64/75/91 60/66/79
s 6
f 63/74/88 73/77/92 71/76/93 62/73/89
s 1
f 62/73/90 71/76/94 72/78/95 64/75/91
s 7
f 67/71/84 69/80/96 68/79/97 65/70/85
s 6
f 65/70/86 68/79/98 70/81/99 66/72/87
s 7
f 69/80/96 79/83/100 77/82/101 68/79/97
s 6
f 68/79/98 77/82/102 78/84/103 70/81/99
f 73/77/92 75/86/104 74/85/105 71/76/93
s 1
f 71/76/94 74/85/106 76/87/107 72/78/95
s 6
f 75/86/104 85/89/108 83/88/109 74/85/105
s 1
f 74/85/106 83/88/110 84/90/111 76/87/107
s 7
f 79/83/100 81/92/112 80/91/113 77/82/101
s 6
f 77/82/102 80/91/114 82/93/115 78/84/103
s 7
f 81/92/112 91/95/116 89/94/117 80/91/113
s 6
f 80/91/114 89/94/118 90/96/119 82/93/115
f 85/89/108 87/98/120 86/97/121 83/88/109
s 1
f 83/88/110 86/97/122 88/99/123 84/90/111
s 6
f 87/98/120 97/101/124 95/100/125 86/97/121
s 1
f 86/97/122 95/100/126 96/102/127 88/99/123
s 7
f 91/95/116 93/104/128 92/103/129 89/94/117
s 6
f 89/94/118 92/103/130 94/105/131 90/96/119
s 7
f 93/104/128 150/39/45 149/37/44 92/103/129
s 6
f 92/103/130 149/37/41 151/38/40 94/105/131
f 97/101/124 99/107/132 98/106/133 95/100/125
s 1
f 95/100/126 98/106/134 100/108/135 96/102/127
s 6
f 99/107/132 157/54/64 155/52/63 98/106/133
s 1
f 98/106/134 155/52/60 156/53/59 100/108/135
s 7
f 102/109/136 108/112/137 107/111/138 101/110/139
s 3
f 101/113/140 107/116/141 109/115/142 103/114/143
f 103/114/143 105/57/68 104/58/67 101/113/140
s 7
f 101/110/139 104/55/66 106/56/65 102/109/136
f 108/112/137 121/118/144 119/117/145 107/111/138
s 3
f 107/116/141 119/120/146 120/119/147 109/115/142
s 1
f 111/121/148 114/48/55 113/46/54 110/122/149
s 3
f 110/122/150 113/46/53 115/47/52 112/123/151
f 112/123/151 118/125/152 116/124/153 110/122/150
s 1
f 110/122/149 116/124/154 117/126/155 111/121/148
s 3
f 118/125/152 127/128/156 125/127/157 116/124/153
s 1
f 116/124/154 125/127/158 126/129/159 117/126/155
s 7
f 121/118/144 123/131/160 122/130/161 119/117/145
s 3
f 119/120/146 122/133/162 124/132/163 120/119/147
s 7
f 123/131/160 133/135/164 131/134/165 122/130/161
s 3
f 122/133/162 131/137/166 132/136/167 124/132/163
f 127/128/156 130/139/168 128/138/169 125/127/157
s 1
f 125/127/158 128/138/170 129/140/171 126/129/159
s 3
f 130/139/168 139/142/172 137/141/173 128/138/169
s 1
f 128/138/170 137/141/174 138/143/175 129/140/171
s 7
f 133/135/164 135/145/176 134/144/177 131/134/165
s 3
f 131/137/166 134/147/178 136/146/179 132/136/167
s 7
f 135/145/176 145/149/180 143/148/181 134/144/177
s 3
f 134/147/178 143/151/182 144/150/183 136/146/179
f 139/142/172 142/153/184 140/152/185 137/141/173
s 1
f 137/141/174 140/152/186 141/154/187 138/143/175
s 3
f 142/153/184 148/156/188 146/155/189 140/152/185
s 1
f 140/152/186 146/155/190 147/157/191 141/154/187
s 7
f 145/149/180 10/59/69 143/148/181
s 3
f 143/151/182 10/158/192 144/150/183
f 148/156/188 10/159/192 146/155/189
s 1
f 146/155/190 10/159/77 147/157/191
s 6
f 58/69/83 12/161/193 11/160/194 54/62/74
f 13/162/195 66/72/87 70/81/99 14/163/196
f 82/93/115 16/165/197 15/164/198 78/84/103
f 94/105/131 18/167/199 17/166/200 90/96/119
s 3
f 103/114/143 3/169/201 2/168/202 105/57/68
f 120/119/147 5/171/203 4/170/204 109/115/142
f 6/172/205 124/132/163 132/136/167 7/173/206
f 144/150/183 9/175/207 8/174/208 136/146/179
s 1
f 111/121/148 96/102/127 100/108/135 114/48/55
f 126/129/159 84/90/111 88/99/123 117/126/155
f 76/87/107 129/140/171 138/143/175 72/78/95
f 147/157/191 60/66/79 64/75/91 141/154/187
s 7
f 106/56/65 93/104/128 91/95/116 102/109/136
f 108/112/137 81/92/112 79/83/100 121/118/144
f 67/71/84 133/135/164 123/131/160 69/80/96
f 135/145/176 57/68/80 55/61/70 145/149/180
s 6
f 151/38/40 19/176/209 18/167/199 94/105/131
s 7
f 51/42/46 150/39/45 93/104/128 106/56/65
s 3
f 105/57/68 2/168/202 1/177/210 52/44/51
s 1
f 156/53/59 42/13/15 114/48/55 100/108/135
s 6
f 90/96/119 17/166/200 16/165/197 82/93/115
s 7
f 102/109/136 91/95/116 81/92/112 108/112/137
s 3
f 109/115/142 4/170/204 3/169/201 103/114/143
s 1
f 96/102/127 111/121/148 117/126/155 88/99/123
s 6
f 78/84/103 15/164/198 14/163/196 70/81/99
s 7
f 121/118/144 79/83/100 69/80/96 123/131/160
s 3
f 124/132/163 6/172/205 5/171/203 120/119/147
s 1
f 84/90/111 126/129/159 129/140/171 76/87/107
s 6
f 66/72/87 13/162/195 12/161/193 58/69/83
s 7
f 133/135/164 67/71/84 57/68/80 135/145/176
s 3
f 136/146/179 8/174/208 7/173/206 132/136/167
s 1
f 72/78/95 138/143/175 141/154/187 64/75/91
s 6
f 54/62/74 11/160/194 10/59/72
s 7
f 145/149/180 55/61/70 10/59/69
s 3
f 10/158/192 9/175/207 144/150/183
s 1
f 60/66/79 147/157/191 10/63/77
s 6
f 19/176/209 151/38/40 34/28/33 154/29/32
s 2
f 153/27/27 30/24/26 40/21/22 27/16/16
s 7
f 150/39/45 51/42/46 38/33/35 32/30/34
s 1
f 42/13/15 156/53/59 47/4/2 21/1/1
s 3
f 52/44/51 1/177/210 28/18/21 36/22/25
s 2
f 49/7/7 153/27/27 27/16/16 25/6/8
s 3
f 1/177/210 43/12/10 23/9/9 28/18/21
f 2/168/202 115/47/52 43/12/10 1/177/210
f 3/169/201 112/123/151 115/47/52 2/168/202
f 4/170/204 118/125/152 112/123/151 3/169/201
f 5/171/203 127/128/156 118/125/152 4/170/204
f 6/172/205 130/139/168 127/128/156 5/171/203
f 130/139/168 6/172/205 7/173/206 139/142/172
f 8/174/208 142/153/184 139/142/172 7/173/206
f 9/175/207 148/156/188 142/153/184 8/174/208
f 10/158/192 148/156/188 9/175/207
s 6
f 11/160/194 61/65/75 10/59/72
f 12/161/193 63/74/88 61/65/75 11/160/194
f 13/162/195 73/77/92 63/74/88 12/161/193
f 73/77/92 13/162/195 14/163/196 75/86/104
f 15/164/198 85/89/108 75/86/104 14/163/196
f 16/165/197 87/98/120 85/89/108 15/164/198
f 17/166/200 97/101/124 87/98/120 16/165/197
f 18/167/199 99/107/132 97/101/124 17/166/200
f 19/176/209 157/54/64 99/107/132 18/167/199
f 157/54/64 19/176/209 154/29/32 45/49/56
s 2
f 24/14/18 158/178/211 20/5/5 25/6/8
s 1
f 20/2/4 158/179/212 22/10/13 21/1/1
s 3
f 22/10/12 158/179/213 24/17/19 23/9/9
s 6
f 33/36/42 159/180/214 29/25/30 34/28/33
s 2
f 29/25/29 159/180/215 31/34/38 30/24/26
s 7
f 31/31/37 159/180/216 33/36/43 32/30/34
s 2
f 39/35/39 160/181/217 35/20/23 40/21/22
s 3
f 35/23/24 160/182/218 37/43/49 36/22/25
s 7
f 37/40/48 160/183/219 39/32/36 38/33/35
s 2
f 48/8/6 161/184/220 44/50/58 49/7/7
s 6
f 44/50/57 161/184/221 46/51/62 45/49/56
s 1
f 46/51/61 161/184/222 48/3/3 47/4/2
