# This file uses centimeters as units for non-parametric coordinates.

g default
v 3.640532 1.149354 -3.542142
v 0.000000 1.149354 -5.009341
v -3.640532 1.149354 -3.542142
v -5.148489 1.149354 0.000000
v -3.640532 1.149354 3.542142
v 0.000000 1.149354 5.009341
v 3.640534 1.149354 3.542142
v 5.148489 1.149354 0.000000
v 4.986509 5.281155 -4.851739
v 0.000000 5.281155 -6.861399
v -4.986509 5.281155 -4.851739
v -7.051991 5.281155 0.000000
v -4.986509 5.281155 4.851739
v 0.000000 5.281155 6.861399
v 4.986509 5.281155 4.851741
v 7.051991 5.281155 0.000000
v 3.525995 9.015495 -3.430700
v 0.000000 9.015495 -4.851739
v -3.525995 9.015495 -3.430700
v -4.986509 9.015495 0.000000
v -3.525995 9.015495 3.430700
v 0.000000 9.015495 4.851739
v 3.525997 9.015495 3.430700
v 4.986509 9.015495 0.000000
v 0.000000 0.000000 0.000000
v 0.000000 10.562309 0.000000
vt 0.505054 0.324766
vt 0.320947 0.300591
vt 0.688371 0.299832
vt 0.881441 0.214157
vt 0.320947 0.300591
vt 0.124765 0.214901
vt 0.505054 0.324766
vt 0.688370 0.299832
vt 0.881441 0.214157
vt 0.124765 0.214901
vt 0.506287 0.499935
vt 0.291632 0.502642
vt 0.719913 0.498551
vt 0.990278 0.494874
vt 0.291632 0.502642
vt 0.018019 0.504397
vt 0.506287 0.499935
vt 0.719913 0.498551
vt 0.990278 0.494874
vt 0.018019 0.504397
vt 0.507209 0.675589
vt 0.325220 0.700487
vt 0.685569 0.697123
vt 0.877439 0.779850
vt 0.325220 0.700487
vt 0.133834 0.790475
vt 0.507209 0.675589
vt 0.685569 0.697123
vt 0.877439 0.779850
vt 0.133834 0.790475
vt 0.508270 0.034189
vt 0.508270 0.034189
vt 0.506171 0.961929
vt 0.506171 0.961929
vn 0.000000 -0.744433 -0.667698
vn 0.462143 -0.748202 -0.476044
vn 0.000000 -1.000000 0.000000
vn -0.462143 -0.748202 -0.476044
vn 0.000000 -0.744433 -0.667698
vn 0.000000 -1.000000 0.000000
vn -0.659096 -0.752059 0.000000
vn -0.462143 -0.748202 -0.476044
vn 0.000000 -1.000000 0.000000
vn -0.462143 -0.748202 0.476044
vn -0.659096 -0.752059 0.000000
vn 0.000000 -1.000000 0.000000
vn 0.000000 -0.744433 0.667698
vn -0.462143 -0.748202 0.476044
vn 0.000000 -1.000000 0.000000
vn 0.462143 -0.748202 0.476044
vn 0.000000 -0.744433 0.667698
vn 0.000000 -1.000000 0.000000
vn 0.659096 -0.752059 0.000000
vn 0.462143 -0.748202 0.476044
vn 0.000000 -1.000000 0.000000
vn 0.462143 -0.748202 -0.476044
vn 0.659096 -0.752059 0.000000
vn 0.000000 -1.000000 0.000000
vn 0.462143 -0.748202 -0.476044
vn 0.000000 -0.744433 -0.667698
vn 0.000000 0.000000 -1.000000
vn 0.698609 0.000000 -0.715504
vn 0.000000 -0.744433 -0.667698
vn -0.462143 -0.748202 -0.476044
vn -0.698609 0.000000 -0.715504
vn 0.000000 0.000000 -1.000000
vn -0.462143 -0.748202 -0.476044
vn -0.659096 -0.752059 0.000000
vn -1.000000 0.000000 0.000000
vn -0.698609 0.000000 -0.715504
vn -0.659096 -0.752059 0.000000
vn -0.462143 -0.748202 0.476044
vn -0.698609 0.000000 0.715504
vn -1.000000 0.000000 0.000000
vn -0.462143 -0.748202 0.476044
vn 0.000000 -0.744433 0.667698
vn 0.000000 0.000000 1.000000
vn -0.698609 0.000000 0.715504
vn 0.000000 -0.744433 0.667698
vn 0.462143 -0.748202 0.476044
vn 0.698609 0.000000 0.715504
vn 0.000000 0.000000 1.000000
vn 0.462143 -0.748202 0.476044
vn 0.659096 -0.752059 0.000000
vn 1.000000 0.000000 0.000000
vn 0.698609 0.000000 0.715504
vn 0.659096 -0.752059 0.000000
vn 0.462143 -0.748202 -0.476044
vn 0.698609 0.000000 -0.715504
vn 1.000000 0.000000 0.000000
vn 0.698609 0.000000 -0.715504
vn 0.000000 0.000000 -1.000000
vn 0.000000 0.744433 -0.667698
vn 0.462143 0.748202 -0.476044
vn 0.000000 0.000000 -1.000000
vn -0.698609 0.000000 -0.715504
vn -0.462143 0.748202 -0.476044
vn 0.000000 0.744433 -0.667698
vn -0.698609 0.000000 -0.715504
vn -1.000000 0.000000 0.000000
vn -0.659096 0.752059 0.000000
vn -0.462143 0.748202 -0.476044
vn -1.000000 0.000000 0.000000
vn -0.698609 0.000000 0.715504
vn -0.462143 0.748202 0.476044
vn -0.659096 0.752059 0.000000
vn -0.698609 0.000000 0.715504
vn 0.000000 0.000000 1.000000
vn 0.000000 0.744433 0.667698
vn -0.462143 0.748202 0.476044
vn 0.000000 0.000000 1.000000
vn 0.698609 0.000000 0.715504
vn 0.462143 0.748202 0.476044
vn 0.000000 0.744433 0.667698
vn 0.698609 0.000000 0.715504
vn 1.000000 0.000000 0.000000
vn 0.659096 0.752059 0.000000
vn 0.462143 0.748202 0.476044
vn 1.000000 0.000000 0.000000
vn 0.698609 0.000000 -0.715504
vn 0.462143 0.748202 -0.476044
vn 0.659096 0.752059 0.000000
vn 0.462143 0.748202 -0.476044
vn 0.000000 0.744433 -0.667698
vn 0.000000 1.000000 0.000000
vn 0.000000 0.744433 -0.667698
vn -0.462143 0.748202 -0.476044
vn 0.000000 1.000000 0.000000
vn -0.462143 0.748202 -0.476044
vn -0.659096 0.752059 0.000000
vn 0.000000 1.000000 0.000000
vn -0.659096 0.752059 0.000000
vn -0.462143 0.748202 0.476044
vn 0.000000 1.000000 0.000000
vn -0.462143 0.748202 0.476044
vn 0.000000 0.744433 0.667698
vn 0.000000 1.000000 0.000000
vn 0.000000 0.744433 0.667698
vn 0.462143 0.748202 0.476044
vn 0.000000 1.000000 0.000000
vn 0.462143 0.748202 0.476044
vn 0.659096 0.752059 0.000000
vn 0.000000 1.000000 0.000000
vn 0.659096 0.752059 0.000000
vn 0.462143 0.748202 -0.476044
vn 0.000000 1.000000 0.000000
s off
g ForestBush01:pSphere59
usemtl lambert2SG
f 2/1/1 1/2/2 25/31/3
f 3/3/4 2/1/5 25/31/6
f 4/4/7 3/3/8 25/31/9
f 5/5/10 4/6/11 25/32/12
f 6/7/13 5/5/14 25/32/15
f 7/8/16 6/7/17 25/32/18
f 8/9/19 7/8/20 25/32/21
f 1/2/22 8/10/23 25/31/24
f 1/2/25 2/1/26 10/11/27 9/12/28
f 2/1/29 3/3/30 11/13/31 10/11/32
f 3/3/33 4/4/34 12/14/35 11/13/36
f 4/6/37 5/5/38 13/15/39 12/16/40
f 5/5/41 6/7/42 14/17/43 13/15/44
f 6/7/45 7/8/46 15/18/47 14/17/48
f 7/8/49 8/9/50 16/19/51 15/18/52
f 8/10/53 1/2/54 9/12/55 16/20/56
f 9/12/57 10/11/58 18/21/59 17/22/60
f 10/11/61 11/13/62 19/23/63 18/21/64
f 11/13/65 12/14/66 20/24/67 19/23/68
f 12/16/69 13/15/70 21/25/71 20/26/72
f 13/15/73 14/17/74 22/27/75 21/25/76
f 14/17/77 15/18/78 23/28/79 22/27/80
f 15/18/81 16/19/82 24/29/83 23/28/84
f 16/20/85 9/12/86 17/22/87 24/30/88
f 17/22/89 18/21/90 26/33/91
f 18/21/92 19/23/93 26/33/94
f 19/23/95 20/24/96 26/33/97
f 20/26/98 21/25/99 26/34/100
f 21/25/101 22/27/102 26/34/103
f 22/27/104 23/28/105 26/34/106
f 23/28/107 24/29/108 26/34/109
f 24/30/110 17/22/111 26/33/112
