# This file uses centimeters as units for non-parametric coordinates.

mtllib SpaghettiLTopIncisor.mtl
g default
v -0.057201 1.329992 -0.613754
v -0.226639 1.329992 -0.579796
v -0.227339 1.470369 -0.583289
v -0.057902 1.470369 -0.617247
v 0.127962 0.651255 0.075439
v -0.135724 0.651255 0.128286
v -0.172961 0.650380 -0.057512
v 0.090725 0.650380 -0.110359
v 0.014919 1.443583 -0.335512
v -0.186903 1.443583 -0.295064
v -0.201541 1.269340 -0.368100
v 0.000281 1.269340 -0.408549
v 0.075152 1.257288 -0.088428
v -0.148204 1.257288 -0.043664
v -0.176371 1.133339 -0.184210
v 0.046985 1.133339 -0.228974
v 0.116439 0.960184 0.057768
v -0.130932 0.960184 0.107345
v -0.167156 0.916255 -0.073398
v 0.080215 0.916255 -0.122975
v -0.142103 0.302566 0.131240
v -0.179340 0.301674 -0.054558
v 0.096463 0.301863 -0.109834
v 0.133700 0.302566 0.075964
v -0.148477 -0.051134 0.134220
v -0.185715 -0.052027 -0.051580
v 0.102205 -0.052027 -0.109284
v 0.139442 -0.051134 0.076516
vt 0.888770 0.720243
vt 0.888769 0.710387
vt 0.896107 0.711169
vt 0.896107 0.719459
vt 0.762392 0.058601
vt 0.752424 0.058584
vt 0.752705 0.046951
vt 0.762113 0.046958
vt 0.888770 0.668030
vt 0.896107 0.667735
vt 0.896106 0.678675
vt 0.888770 0.679051
vt 0.827855 0.629252
vt 0.837771 0.629244
vt 0.837566 0.639201
vt 0.828012 0.639193
vt 0.896107 0.762849
vt 0.888770 0.762556
vt 0.888769 0.751569
vt 0.896107 0.751947
vt 0.760419 0.023925
vt 0.754291 0.023936
vt 0.755052 0.016467
vt 0.759608 0.016461
vt 0.888770 0.699618
vt 0.896107 0.699701
vt 0.829525 0.656141
vt 0.835922 0.656157
vt 0.835053 0.662671
vt 0.830330 0.662657
vt 0.896107 0.730922
vt 0.888770 0.731007
vt 0.761401 0.034362
vt 0.753379 0.034369
vt 0.888770 0.689555
vt 0.896107 0.689621
vt 0.828587 0.648288
vt 0.836924 0.648302
vt 0.896106 0.741005
vt 0.888770 0.741069
vt 0.888770 0.654375
vt 0.896107 0.654357
vt 0.827682 0.616464
vt 0.837940 0.616435
vt 0.896107 0.776168
vt 0.888769 0.776144
vt 0.762553 0.071384
vt 0.752263 0.071375
vt 0.888769 0.640670
vt 0.896106 0.640669
vt 0.827448 0.603536
vt 0.838148 0.603521
vt 0.896107 0.789833
vt 0.888769 0.789833
vt 0.762769 0.084243
vt 0.752099 0.084252
vn -0.196445 -0.025372 -0.980187
vn -0.196445 -0.025372 -0.980187
vn -0.196445 -0.025372 -0.980187
vn -0.196445 -0.025372 -0.980187
vn 0.196414 0.031039 0.980030
vn 0.196413 0.031103 0.980028
vn 0.189772 0.259581 0.946892
vn 0.189793 0.259191 0.946995
vn -0.980543 0.024561 0.194763
vn -0.980536 0.024375 0.194823
vn -0.982126 0.034699 0.184997
vn -0.982182 0.034878 0.184669
vn -0.196446 -0.025151 -0.980192
vn -0.196446 -0.025094 -0.980193
vn -0.190937 -0.236441 -0.952701
vn -0.190912 -0.236943 -0.952581
vn 0.980002 0.020772 -0.197902
vn 0.979987 0.020963 -0.197955
vn 0.977799 0.031661 -0.207139
vn 0.977869 0.031475 -0.206836
vn 0.076499 0.921115 0.381701
vn 0.076400 0.921328 0.381206
vn 0.018040 0.995777 0.090011
vn 0.018040 0.995777 0.090011
vn -0.988512 0.020362 0.149765
vn -0.988506 0.020375 0.149801
vn -0.991078 0.014621 0.132482
vn -0.991078 0.014621 0.132482
vn -0.090400 -0.887904 -0.451060
vn -0.090483 -0.887684 -0.451476
vn -0.053934 -0.961598 -0.269111
vn -0.053934 -0.961598 -0.269111
vn 0.970684 0.018855 -0.239620
vn 0.970676 0.018845 -0.239654
vn 0.966536 0.013804 -0.256159
vn 0.966536 0.013804 -0.256159
vn 0.152748 0.629116 0.762156
vn 0.152693 0.629463 0.761880
vn 0.076400 0.921328 0.381206
vn 0.076499 0.921115 0.381701
vn -0.984906 0.032257 0.170056
vn -0.984922 0.032177 0.169982
vn -0.988506 0.020375 0.149801
vn -0.988512 0.020362 0.149765
vn -0.153033 -0.627320 -0.763577
vn -0.153108 -0.626844 -0.763953
vn -0.090483 -0.887684 -0.451476
vn -0.090400 -0.887904 -0.451060
vn 0.974918 0.029622 -0.220586
vn 0.974931 0.029695 -0.220518
vn 0.970676 0.018845 -0.239654
vn 0.970684 0.018855 -0.239620
vn 0.189793 0.259191 0.946995
vn 0.189772 0.259581 0.946892
vn 0.152693 0.629463 0.761880
vn 0.152748 0.629116 0.762156
vn -0.982182 0.034878 0.184669
vn -0.982126 0.034699 0.184997
vn -0.984922 0.032177 0.169982
vn -0.984906 0.032257 0.170056
vn -0.190912 -0.236943 -0.952581
vn -0.190937 -0.236441 -0.952701
vn -0.153108 -0.626844 -0.763953
vn -0.153033 -0.627320 -0.763577
vn 0.977869 0.031475 -0.206836
vn 0.977799 0.031661 -0.207139
vn 0.974931 0.029695 -0.220518
vn 0.974918 0.029622 -0.220586
vn -0.980334 0.019461 0.196381
vn -0.980334 0.019461 0.196381
vn -0.980536 0.024375 0.194823
vn -0.980543 0.024561 0.194763
vn -0.196506 -0.004714 -0.980491
vn -0.196506 -0.004714 -0.980491
vn -0.196446 -0.025094 -0.980193
vn -0.196446 -0.025151 -0.980192
vn 0.980368 0.015720 -0.196549
vn 0.980368 0.015720 -0.196549
vn 0.979987 0.020963 -0.197955
vn 0.980002 0.020772 -0.197902
vn 0.196506 0.004714 0.980491
vn 0.196506 0.004714 0.980491
vn 0.196413 0.031103 0.980028
vn 0.196414 0.031039 0.980030
vn -0.980336 0.019395 0.196382
vn -0.980336 0.019395 0.196382
vn -0.980334 0.019461 0.196381
vn -0.980334 0.019461 0.196381
vn -0.196506 -0.004714 -0.980491
vn -0.196506 -0.004714 -0.980491
vn -0.196506 -0.004714 -0.980491
vn -0.196506 -0.004714 -0.980491
vn 0.980368 0.015665 -0.196551
vn 0.980368 0.015665 -0.196551
vn 0.980368 0.015720 -0.196549
vn 0.980368 0.015720 -0.196549
vn 0.196506 0.004713 0.980491
vn 0.196506 0.004713 0.980491
vn 0.196506 0.004714 0.980491
vn 0.196506 0.004714 0.980491
s off
g FoodLBuckTeeth
usemtl blinn6SG
f 1/1/1 2/2/2 3/3/3 4/4/4
f 6/5/5 5/6/6 17/7/7 18/8/8
f 7/9/9 6/10/10 18/11/11 19/12/12
f 8/13/13 7/14/14 19/15/15 20/16/16
f 5/17/17 8/18/18 20/19/19 17/20/20
f 10/21/21 9/22/22 4/23/23 3/24/24
f 11/25/25 10/26/26 3/3/27 2/2/28
f 12/27/29 11/28/30 2/29/31 1/30/32
f 9/31/33 12/32/34 1/1/35 4/4/36
f 14/33/37 13/34/38 9/22/39 10/21/40
f 15/35/41 14/36/42 10/26/43 11/25/44
f 16/37/45 15/38/46 11/28/47 12/27/48
f 13/39/49 16/40/50 12/32/51 9/31/52
f 18/8/53 17/7/54 13/34/55 14/33/56
f 19/12/57 18/11/58 14/36/59 15/35/60
f 20/16/61 19/15/62 15/38/63 16/37/64
f 17/20/65 20/19/66 16/40/67 13/39/68
f 22/41/69 21/42/70 6/10/71 7/9/72
f 23/43/73 22/44/74 7/14/75 8/13/76
f 24/45/77 23/46/78 8/18/79 5/17/80
f 21/47/81 24/48/82 5/6/83 6/5/84
f 26/49/85 25/50/86 21/42/87 22/41/88
f 27/51/89 26/52/90 22/44/91 23/43/92
f 28/53/93 27/54/94 23/46/95 24/45/96
f 25/55/97 28/56/98 24/48/99 21/47/100
