# This file uses centimeters as units for non-parametric coordinates.

mtllib SpaghettiShortLLowerLeg.mtl
g default
v 0.877422 0.108202 0.101812
v 0.883277 0.133793 -0.048814
v 0.808195 0.079744 -0.170598
v 0.696157 -0.022282 -0.192200
v 0.612794 -0.112519 -0.100968
v 0.606939 -0.138110 0.049658
v 0.682021 -0.084061 0.171442
v 0.794059 0.017964 0.193045
v 0.769342 0.229502 0.122491
v 0.770370 0.257541 -0.027989
v 0.692670 0.204130 -0.148577
v 0.581759 0.100554 -0.168634
v 0.502605 0.007489 -0.076411
v 0.501578 -0.020550 0.074069
v 0.579277 0.032862 0.194657
v 0.690189 0.136437 0.214714
v 0.643059 0.351329 0.140234
v 0.650614 0.373481 -0.011039
v 0.584423 0.309359 -0.133262
v 0.483259 0.196524 -0.154838
v 0.406383 0.101073 -0.063128
v 0.398828 0.078921 0.088145
v 0.465019 0.143044 0.210368
v 0.566183 0.255879 0.231944
v 0.469081 0.474010 0.140750
v 0.497752 0.486816 -0.009068
v 0.467786 0.401640 -0.132674
v 0.396738 0.268375 -0.157662
v 0.326226 0.165088 -0.069393
v 0.297556 0.152282 0.080425
v 0.327522 0.237458 0.204031
v 0.398570 0.370723 0.229019
v 0.210555 0.531082 0.088134
v 0.280147 0.557934 -0.045535
v 0.336381 0.470379 -0.157799
v 0.346315 0.319704 -0.182897
v 0.304130 0.194173 -0.106125
v 0.234538 0.167320 0.027544
v 0.178305 0.254875 0.139808
v 0.168370 0.405550 0.164905
v 0.006504 0.468835 -0.014275
v 0.078680 0.521259 -0.138669
v 0.180350 0.463261 -0.237314
v 0.251956 0.328815 -0.252425
v 0.251554 0.196679 -0.175151
v 0.179377 0.144255 -0.050757
v 0.077707 0.202254 0.047888
v 0.006101 0.336699 0.063000
v -0.117128 0.404444 -0.118876
v -0.048056 0.446468 -0.248855
v 0.058853 0.384850 -0.339436
v 0.140973 0.255683 -0.337560
v 0.150200 0.134631 -0.244325
v 0.081128 0.092605 -0.114346
v -0.025781 0.154224 -0.023764
v -0.107902 0.283392 -0.025641
v -0.224351 0.339242 -0.205094
v -0.164870 0.358569 -0.344807
v -0.066919 0.280207 -0.432536
v 0.012123 0.150057 -0.416890
v 0.025955 0.044360 -0.307034
v -0.033526 0.025032 -0.167321
v -0.131477 0.103395 -0.079592
v -0.210519 0.233545 -0.095238
v -0.323325 0.281663 -0.250444
v -0.297142 0.270210 -0.400826
v -0.229398 0.167021 -0.491349
v -0.159778 0.032543 -0.468985
v -0.129063 -0.054449 -0.346836
v -0.155246 -0.042996 -0.196454
v -0.222989 0.060193 -0.105931
v -0.292610 0.194671 -0.128294
v -0.422935 0.241604 -0.251368
v -0.458373 0.192831 -0.392069
v -0.441499 0.061265 -0.468470
v -0.382197 -0.076025 -0.435816
v -0.315205 -0.138615 -0.313236
v -0.279768 -0.089842 -0.172534
v -0.296642 0.041724 -0.096134
v -0.355944 0.179013 -0.128788
v -0.549609 0.207848 -0.211130
v -0.627723 0.118809 -0.308093
v -0.627894 -0.030531 -0.341695
v -0.550022 -0.152691 -0.292254
v -0.439723 -0.176110 -0.188731
v -0.361609 -0.087072 -0.091768
v -0.361438 0.062268 -0.058166
v -0.439310 0.184427 -0.107607
v -0.670738 0.176605 -0.099684
v -0.757222 0.059627 -0.147312
v -0.741441 -0.092608 -0.149943
v -0.632640 -0.190923 -0.106036
v -0.494553 -0.177728 -0.041312
v -0.408069 -0.060750 0.006316
v -0.423850 0.091485 0.008947
v -0.532651 0.189800 -0.034960
v -0.719209 0.172735 0.061169
v -0.816404 0.056181 0.041173
v -0.804165 -0.096396 0.042440
v -0.689661 -0.195621 0.064226
v -0.539966 -0.183368 0.093770
v -0.442771 -0.066815 0.113766
v -0.455010 0.085763 0.112499
v -0.569514 0.184987 0.090713
v -0.716568 0.182992 0.229224
v -0.828277 0.078341 0.228520
v -0.833313 -0.074624 0.231379
v -0.728727 -0.186295 0.236127
v -0.575782 -0.191259 0.239982
v -0.464073 -0.086607 0.240687
v -0.459037 0.066357 0.237827
v -0.563623 0.178028 0.233080
v -0.693683 0.192760 0.386214
v -0.813758 0.098934 0.400705
v -0.832315 -0.052860 0.407480
v -0.738482 -0.173702 0.402570
v -0.587226 -0.192805 0.388851
v -0.467151 -0.098978 0.374360
v -0.448594 0.052815 0.367585
v -0.542427 0.173657 0.372495
v -0.640454 -0.000022 0.387532
v 0.935432 -0.066987 -0.033003
v 0.900070 -0.096370 -0.094191
v 0.844649 -0.148027 -0.105052
v 0.801632 -0.191696 -0.059223
v 0.796219 -0.201799 0.016451
v 0.831581 -0.172416 0.077640
v 0.887001 -0.120760 0.088501
v 0.930019 -0.077091 0.042671
v 0.936166 0.035503 -0.047601
v 0.874918 -0.015389 -0.153584
v 0.778926 -0.104861 -0.172395
v 0.704418 -0.180499 -0.093016
v 0.695042 -0.197997 0.038055
v 0.756290 -0.147105 0.144037
v 0.852283 -0.057634 0.162849
v 0.926790 0.018005 0.083470
v 0.884208 -0.153846 -0.009558
vt 0.924475 0.472298
vt 0.932260 0.472298
vt 0.940044 0.472298
vt 0.947829 0.472298
vt 0.955614 0.472298
vt 0.963399 0.472298
vt 0.971184 0.472298
vt 0.978968 0.472298
vt 0.986753 0.472298
vt 0.924475 0.482214
vt 0.932260 0.482214
vt 0.940044 0.482214
vt 0.947829 0.482214
vt 0.955614 0.482214
vt 0.963399 0.482214
vt 0.971184 0.482214
vt 0.978968 0.482214
vt 0.986753 0.482214
vt 0.924475 0.492130
vt 0.932260 0.492130
vt 0.940044 0.492130
vt 0.947829 0.492130
vt 0.955614 0.492130
vt 0.963399 0.492130
vt 0.971184 0.492130
vt 0.978968 0.492130
vt 0.986753 0.492130
vt 0.924475 0.502045
vt 0.932260 0.502045
vt 0.940044 0.502045
vt 0.947829 0.502045
vt 0.955614 0.502045
vt 0.963399 0.502045
vt 0.971184 0.502045
vt 0.978968 0.502045
vt 0.986753 0.502045
vt 0.924475 0.511961
vt 0.932260 0.511961
vt 0.940044 0.511961
vt 0.947829 0.511961
vt 0.955614 0.511961
vt 0.963399 0.511961
vt 0.971184 0.511961
vt 0.978968 0.511961
vt 0.986753 0.511961
vt 0.924475 0.521877
vt 0.932260 0.521877
vt 0.940044 0.521877
vt 0.947829 0.521877
vt 0.955614 0.521877
vt 0.963399 0.521877
vt 0.971184 0.521877
vt 0.978968 0.521877
vt 0.986753 0.521877
vt 0.924475 0.531793
vt 0.932260 0.531793
vt 0.940044 0.531793
vt 0.947829 0.531793
vt 0.955614 0.531793
vt 0.963399 0.531793
vt 0.971184 0.531793
vt 0.978968 0.531793
vt 0.986753 0.531793
vt 0.924475 0.541709
vt 0.932260 0.541709
vt 0.940044 0.541709
vt 0.947829 0.541709
vt 0.955614 0.541709
vt 0.963399 0.541709
vt 0.971184 0.541709
vt 0.978968 0.541709
vt 0.986753 0.541709
vt 0.924475 0.551625
vt 0.932260 0.551625
vt 0.940044 0.551625
vt 0.947829 0.551625
vt 0.955614 0.551625
vt 0.963399 0.551625
vt 0.971184 0.551625
vt 0.978968 0.551625
vt 0.986753 0.551625
vt 0.924475 0.561540
vt 0.932260 0.561540
vt 0.940044 0.561540
vt 0.947829 0.561540
vt 0.955614 0.561540
vt 0.963399 0.561540
vt 0.971184 0.561540
vt 0.978968 0.561540
vt 0.986753 0.561540
vt 0.924475 0.571456
vt 0.932260 0.571456
vt 0.940044 0.571456
vt 0.947829 0.571456
vt 0.955614 0.571456
vt 0.963399 0.571456
vt 0.971184 0.571456
vt 0.978968 0.571456
vt 0.986753 0.571456
vt 0.924475 0.581372
vt 0.932260 0.581372
vt 0.940044 0.581372
vt 0.947829 0.581372
vt 0.955614 0.581372
vt 0.963399 0.581372
vt 0.971184 0.581372
vt 0.978968 0.581372
vt 0.986753 0.581372
vt 0.924475 0.591288
vt 0.932260 0.591288
vt 0.940044 0.591288
vt 0.947829 0.591288
vt 0.955614 0.591288
vt 0.963399 0.591288
vt 0.971184 0.591288
vt 0.978968 0.591288
vt 0.986753 0.591288
vt 0.924475 0.601204
vt 0.932260 0.601204
vt 0.940044 0.601204
vt 0.947829 0.601204
vt 0.955614 0.601204
vt 0.963399 0.601204
vt 0.971184 0.601204
vt 0.978968 0.601204
vt 0.986753 0.601204
vt 0.924475 0.611120
vt 0.932260 0.611120
vt 0.940044 0.611120
vt 0.947829 0.611120
vt 0.955614 0.611120
vt 0.963399 0.611120
vt 0.971184 0.611120
vt 0.978968 0.611120
vt 0.986753 0.611120
vt 0.968410 0.804146
vt 0.959257 0.800355
vt 0.950103 0.804146
vt 0.946312 0.813299
vt 0.950103 0.822453
vt 0.959257 0.826244
vt 0.968410 0.822453
vt 0.972201 0.813299
vt 0.959257 0.812782
vt 0.953800 0.681439
vt 0.950014 0.685145
vt 0.942522 0.682362
vt 0.950510 0.674328
vt 0.950052 0.690246
vt 0.942687 0.693158
vt 0.953829 0.693868
vt 0.950645 0.700846
vt 0.959241 0.693948
vt 0.962173 0.701169
vt 0.963182 0.690329
vt 0.970781 0.693479
vt 0.963227 0.685070
vt 0.970949 0.682053
vt 0.959296 0.681364
vt 0.962372 0.674024
vt 0.931169 0.677945
vt 0.945583 0.664143
vt 0.931178 0.697324
vt 0.945619 0.711064
vt 0.966105 0.711168
vt 0.980666 0.697502
vt 0.980745 0.677889
vt 0.966155 0.664004
vt 0.956580 0.687677
vn 0.739978 0.472409 0.478813
vn 0.754007 0.598031 -0.271721
vn 0.676737 0.695153 -0.242465
vn 0.662434 0.559108 0.498578
vn 0.368993 0.337999 -0.865795
vn 0.301981 0.433030 -0.849289
vn -0.190456 -0.152971 -0.969704
vn -0.255170 -0.084034 -0.963238
vn -0.608416 -0.595666 -0.524416
vn -0.664713 -0.554527 -0.500656
vn -0.640741 -0.734369 0.223950
vn -0.671925 -0.691212 0.265976
vn -0.255220 -0.478576 0.840136
vn -0.277097 -0.412476 0.867803
vn 0.322639 0.025569 0.946177
vn 0.272959 0.105196 0.956257
vn 0.621458 0.757830 -0.198705
vn 0.558987 0.644291 0.521942
vn 0.333626 0.452450 -0.827033
vn -0.174931 -0.129533 -0.976023
vn -0.584654 -0.638878 -0.500014
vn -0.611852 -0.734591 0.293280
vn -0.273927 -0.376115 0.885156
vn 0.200839 0.189040 0.961212
vn 0.445581 0.887288 -0.119072
vn 0.273997 0.792187 0.545312
vn 0.385439 0.525765 -0.758293
vn 0.028555 -0.167159 -0.985516
vn -0.405716 -0.771713 -0.489749
vn -0.496674 -0.799780 0.337146
vn -0.327143 -0.317480 0.890047
vn -0.025363 0.324239 0.945635
vn 0.100746 0.990120 -0.097536
vn -0.181783 0.845586 0.501936
vn 0.351330 0.657647 -0.666384
vn 0.452990 -0.052795 -0.889951
vn 0.275845 -0.821344 -0.499303
vn -0.164974 -0.936885 0.308270
vn -0.399839 -0.400960 0.824232
vn -0.379820 0.310492 0.871397
vn -0.212998 0.957545 -0.194268
vn -0.544858 0.738419 0.397325
vn 0.237076 0.681857 -0.692002
vn 0.583922 0.026799 -0.811368
vn 0.610488 -0.662576 -0.433933
vn 0.226228 -0.943384 0.242585
vn -0.305186 -0.582979 0.752992
vn -0.599423 0.128210 0.790098
vn -0.300508 0.887840 -0.348476
vn -0.643897 0.706383 0.293973
vn 0.204455 0.574206 -0.792771
vn 0.598476 -0.057554 -0.799071
vn 0.660041 -0.664881 -0.349684
vn 0.328317 -0.889573 0.317595
vn -0.215267 -0.566343 0.795560
vn -0.620551 0.108769 0.776586
vn -0.296061 0.820187 -0.489532
vn -0.604972 0.768369 0.208850
vn 0.158931 0.410349 -0.897972
vn 0.521258 -0.210081 -0.827137
vn 0.612061 -0.724152 -0.317782
vn 0.359690 -0.850371 0.384046
vn -0.134026 -0.467657 0.873690
vn -0.555247 0.229117 0.799504
vn -0.328357 0.724589 -0.605931
vn -0.479149 0.868466 0.127213
vn -0.024014 0.197461 -0.980017
vn 0.282900 -0.411952 -0.866177
vn 0.454652 -0.827708 -0.328925
vn 0.387839 -0.829062 0.402787
vn 0.059197 -0.342657 0.937594
vn -0.346525 0.426384 0.835534
vn -0.467396 0.607508 -0.642243
vn -0.338467 0.940924 0.010116
vn -0.343930 -0.013783 -0.938894
vn -0.058762 -0.612902 -0.787971
vn 0.257082 -0.931075 -0.258860
vn 0.446587 -0.783911 0.431327
vn 0.381322 -0.137024 0.914231
vn 0.024374 0.690651 0.722777
vn -0.686672 0.440367 -0.578411
vn -0.367574 0.919799 -0.137325
vn -0.647907 -0.239045 -0.723239
vn -0.298177 -0.799868 -0.520865
vn 0.210409 -0.976465 -0.047377
vn 0.635644 -0.605512 0.478865
vn 0.675188 0.228254 0.701442
vn 0.199231 0.894742 0.399679
vn -0.868539 0.286907 -0.404134
vn -0.487977 0.855936 -0.171030
vn -0.800638 -0.416811 -0.430404
vn -0.324427 -0.915704 -0.237135
vn 0.349804 -0.932222 0.092738
vn 0.852104 -0.366883 0.373249
vn 0.783245 0.477676 0.397935
vn 0.184346 0.970123 0.157728
vn -0.936441 0.291018 -0.195924
vn -0.489230 0.867016 -0.094533
vn -0.881486 -0.431178 -0.192530
vn -0.356842 -0.930157 -0.086441
vn 0.383852 -0.920819 0.068924
vn 0.919556 -0.347785 0.182926
vn 0.866145 0.466672 0.178913
vn 0.252479 0.965722 0.060293
vn -0.920763 0.387936 -0.041244
vn -0.394716 0.918261 -0.031558
vn -0.937137 -0.347803 -0.028411
vn -0.442175 -0.896929 0.000033
vn 0.312415 -0.949538 0.027825
vn 0.899915 -0.434445 0.037552
vn 0.931182 0.363800 0.023440
vn 0.374145 0.927357 -0.004989
vn -0.888547 0.458318 0.020717
vn -0.317794 0.948062 -0.013657
vn -0.959459 -0.278534 0.043090
vn -0.502296 -0.863682 0.041852
vn 0.246933 -0.968888 0.016755
vn 0.865342 -0.500816 -0.019145
vn 0.957783 0.284131 -0.043842
vn 0.452574 0.890781 -0.041054
vn 0.094396 0.032870 0.994992
vn 0.094396 0.032870 0.994992
vn 0.094396 0.032870 0.994992
vn 0.094396 0.032870 0.994992
vn 0.094396 0.032870 0.994992
vn 0.094396 0.032870 0.994992
vn 0.094396 0.032870 0.994992
vn 0.094396 0.032870 0.994992
vn 0.094396 0.032870 0.994992
vn 0.971927 -0.133260 -0.193905
vn 0.747510 -0.319733 -0.582236
vn 0.586689 0.041861 -0.808730
vn 0.920857 0.292890 -0.257369
vn 0.395783 -0.647567 -0.651163
vn 0.076184 -0.413984 -0.907090
vn 0.122773 -0.924720 -0.360304
vn -0.314977 -0.810424 -0.493965
vn 0.088414 -0.988835 0.119953
vn -0.357281 -0.913775 0.193302
vn 0.312838 -0.802360 0.508283
vn -0.022700 -0.660577 0.750415
vn 0.664570 -0.474523 0.577213
vn 0.492094 -0.201093 0.846998
vn 0.937573 -0.197378 0.286355
vn 0.882852 0.193192 0.428077
vn 0.686040 -0.725989 -0.047846
s 1
g FoodShortLLowerLeg
usemtl blinn6SG
f 1/1/1 2/2/2 10/11/3 9/10/4
f 2/2/2 3/3/5 11/12/6 10/11/3
f 3/3/5 4/4/7 12/13/8 11/12/6
f 4/4/7 5/5/9 13/14/10 12/13/8
f 5/5/9 6/6/11 14/15/12 13/14/10
f 6/6/11 7/7/13 15/16/14 14/15/12
f 7/7/13 8/8/15 16/17/16 15/16/14
f 8/8/15 1/9/1 9/18/4 16/17/16
f 9/10/4 10/11/3 18/20/17 17/19/18
f 10/11/3 11/12/6 19/21/19 18/20/17
f 11/12/6 12/13/8 20/22/20 19/21/19
f 12/13/8 13/14/10 21/23/21 20/22/20
f 13/14/10 14/15/12 22/24/22 21/23/21
f 14/15/12 15/16/14 23/25/23 22/24/22
f 15/16/14 16/17/16 24/26/24 23/25/23
f 16/17/16 9/18/4 17/27/18 24/26/24
f 17/19/18 18/20/17 26/29/25 25/28/26
f 18/20/17 19/21/19 27/30/27 26/29/25
f 19/21/19 20/22/20 28/31/28 27/30/27
f 20/22/20 21/23/21 29/32/29 28/31/28
f 21/23/21 22/24/22 30/33/30 29/32/29
f 22/24/22 23/25/23 31/34/31 30/33/30
f 23/25/23 24/26/24 32/35/32 31/34/31
f 24/26/24 17/27/18 25/36/26 32/35/32
f 25/28/26 26/29/25 34/38/33 33/37/34
f 26/29/25 27/30/27 35/39/35 34/38/33
f 27/30/27 28/31/28 36/40/36 35/39/35
f 28/31/28 29/32/29 37/41/37 36/40/36
f 29/32/29 30/33/30 38/42/38 37/41/37
f 30/33/30 31/34/31 39/43/39 38/42/38
f 31/34/31 32/35/32 40/44/40 39/43/39
f 32/35/32 25/36/26 33/45/34 40/44/40
f 33/37/34 34/38/33 42/47/41 41/46/42
f 34/38/33 35/39/35 43/48/43 42/47/41
f 35/39/35 36/40/36 44/49/44 43/48/43
f 36/40/36 37/41/37 45/50/45 44/49/44
f 37/41/37 38/42/38 46/51/46 45/50/45
f 38/42/38 39/43/39 47/52/47 46/51/46
f 39/43/39 40/44/40 48/53/48 47/52/47
f 40/44/40 33/45/34 41/54/42 48/53/48
f 41/46/42 42/47/41 50/56/49 49/55/50
f 42/47/41 43/48/43 51/57/51 50/56/49
f 43/48/43 44/49/44 52/58/52 51/57/51
f 44/49/44 45/50/45 53/59/53 52/58/52
f 45/50/45 46/51/46 54/60/54 53/59/53
f 46/51/46 47/52/47 55/61/55 54/60/54
f 47/52/47 48/53/48 56/62/56 55/61/55
f 48/53/48 41/54/42 49/63/50 56/62/56
f 49/55/50 50/56/49 58/65/57 57/64/58
f 50/56/49 51/57/51 59/66/59 58/65/57
f 51/57/51 52/58/52 60/67/60 59/66/59
f 52/58/52 53/59/53 61/68/61 60/67/60
f 53/59/53 54/60/54 62/69/62 61/68/61
f 54/60/54 55/61/55 63/70/63 62/69/62
f 55/61/55 56/62/56 64/71/64 63/70/63
f 56/62/56 49/63/50 57/72/58 64/71/64
f 57/64/58 58/65/57 66/74/65 65/73/66
f 58/65/57 59/66/59 67/75/67 66/74/65
f 59/66/59 60/67/60 68/76/68 67/75/67
f 60/67/60 61/68/61 69/77/69 68/76/68
f 61/68/61 62/69/62 70/78/70 69/77/69
f 62/69/62 63/70/63 71/79/71 70/78/70
f 63/70/63 64/71/64 72/80/72 71/79/71
f 64/71/64 57/72/58 65/81/66 72/80/72
f 65/73/66 66/74/65 74/83/73 73/82/74
f 66/74/65 67/75/67 75/84/75 74/83/73
f 67/75/67 68/76/68 76/85/76 75/84/75
f 68/76/68 69/77/69 77/86/77 76/85/76
f 69/77/69 70/78/70 78/87/78 77/86/77
f 70/78/70 71/79/71 79/88/79 78/87/78
f 71/79/71 72/80/72 80/89/80 79/88/79
f 72/80/72 65/81/66 73/90/74 80/89/80
f 73/82/74 74/83/73 82/92/81 81/91/82
f 74/83/73 75/84/75 83/93/83 82/92/81
f 75/84/75 76/85/76 84/94/84 83/93/83
f 76/85/76 77/86/77 85/95/85 84/94/84
f 77/86/77 78/87/78 86/96/86 85/95/85
f 78/87/78 79/88/79 87/97/87 86/96/86
f 79/88/79 80/89/80 88/98/88 87/97/87
f 80/89/80 73/90/74 81/99/82 88/98/88
f 81/91/82 82/92/81 90/101/89 89/100/90
f 82/92/81 83/93/83 91/102/91 90/101/89
f 83/93/83 84/94/84 92/103/92 91/102/91
f 84/94/84 85/95/85 93/104/93 92/103/92
f 85/95/85 86/96/86 94/105/94 93/104/93
f 86/96/86 87/97/87 95/106/95 94/105/94
f 87/97/87 88/98/88 96/107/96 95/106/95
f 88/98/88 81/99/82 89/108/90 96/107/96
f 89/100/90 90/101/89 98/110/97 97/109/98
f 90/101/89 91/102/91 99/111/99 98/110/97
f 91/102/91 92/103/92 100/112/100 99/111/99
f 92/103/92 93/104/93 101/113/101 100/112/100
f 93/104/93 94/105/94 102/114/102 101/113/101
f 94/105/94 95/106/95 103/115/103 102/114/102
f 95/106/95 96/107/96 104/116/104 103/115/103
f 96/107/96 89/108/90 97/117/98 104/116/104
f 97/109/98 98/110/97 106/119/105 105/118/106
f 98/110/97 99/111/99 107/120/107 106/119/105
f 99/111/99 100/112/100 108/121/108 107/120/107
f 100/112/100 101/113/101 109/122/109 108/121/108
f 101/113/101 102/114/102 110/123/110 109/122/109
f 102/114/102 103/115/103 111/124/111 110/123/110
f 103/115/103 104/116/104 112/125/112 111/124/111
f 104/116/104 97/117/98 105/126/106 112/125/112
f 105/118/106 106/119/105 114/128/113 113/127/114
f 106/119/105 107/120/107 115/129/115 114/128/113
f 107/120/107 108/121/108 116/130/116 115/129/115
f 108/121/108 109/122/109 117/131/117 116/130/116
f 109/122/109 110/123/110 118/132/118 117/131/117
f 110/123/110 111/124/111 119/133/119 118/132/118
f 111/124/111 112/125/112 120/134/120 119/133/119
f 112/125/112 105/126/106 113/135/114 120/134/120
s 2
f 113/142/121 114/141/122 121/144/123
f 114/141/122 115/140/124 121/144/123
f 115/140/124 116/139/125 121/144/123
f 116/139/125 117/138/126 121/144/123
f 117/138/126 118/137/127 121/144/123
f 118/137/127 119/136/128 121/144/123
f 119/136/128 120/143/129 121/144/123
f 120/143/129 113/142/121 121/144/123
s 1
f 122/145/130 123/146/131 131/147/132 130/148/133
f 123/146/131 124/149/134 132/150/135 131/147/132
f 124/149/134 125/151/136 133/152/137 132/150/135
f 125/151/136 126/153/138 134/154/139 133/152/137
f 126/153/138 127/155/140 135/156/141 134/154/139
f 127/155/140 128/157/142 136/158/143 135/156/141
f 128/157/142 129/159/144 137/160/145 136/158/143
f 129/159/144 122/145/130 130/148/133 137/160/145
f 130/148/133 131/147/132 3/161/5 2/162/2
f 131/147/132 132/150/135 4/163/7 3/161/5
f 132/150/135 133/152/137 5/164/9 4/163/7
f 133/152/137 134/154/139 6/165/11 5/164/9
f 134/154/139 135/156/141 7/166/13 6/165/11
f 135/156/141 136/158/143 8/167/15 7/166/13
f 136/158/143 137/160/145 1/168/1 8/167/15
f 137/160/145 130/148/133 2/162/2 1/168/1
f 123/146/131 122/145/130 138/169/146
f 124/149/134 123/146/131 138/169/146
f 125/151/136 124/149/134 138/169/146
f 126/153/138 125/151/136 138/169/146
f 127/155/140 126/153/138 138/169/146
f 128/157/142 127/155/140 138/169/146
f 129/159/144 128/157/142 138/169/146
f 122/145/130 129/159/144 138/169/146
