# This file uses centimeters as units for non-parametric coordinates.

mtllib RiceCrackersSnakpodShortRUpperLeg.mtl
g default
v -0.391811 -0.402963 0.436693
v 0.481587 -0.400500 0.436697
v -0.391811 0.380615 0.436692
v 0.481587 0.392318 0.436696
v -0.391807 0.418243 -0.436707
v 0.481591 0.392292 -0.436703
v -0.391807 -0.404305 -0.436707
v 0.481591 -0.389730 -0.436703
v -0.506691 0.520686 -0.000008
v 0.596474 -0.001410 -0.551585
v 0.044894 -0.489533 -0.551587
v -0.506688 0.000094 -0.551590
v 0.596471 -0.512142 -0.000003
v -0.506691 -0.494636 -0.000008
v 0.044889 -0.498517 0.551576
v 0.596469 -0.014897 0.551579
v 0.044889 0.497253 0.551576
v -0.506694 0.024641 0.551574
v 0.596471 0.509217 -0.000003
v 0.044894 0.493242 -0.551587
v 0.044888 -0.005029 0.753303
v 0.044891 0.695592 -0.000005
v 0.044895 0.009288 -0.753314
v 0.044891 -0.675412 -0.000005
v 0.798199 0.011490 -0.000002
v -0.708419 0.000486 -0.000009
v -0.234999 -0.251703 0.655043
v 0.324773 -0.246037 0.655047
v 0.324773 0.247811 0.655046
v -0.234999 0.271646 0.655043
v -0.234997 0.585570 0.279878
v 0.324775 0.594590 0.279881
v 0.324777 0.599104 -0.279889
v -0.234993 0.588456 -0.279892
v -0.234993 0.253034 -0.655057
v 0.324779 0.272035 -0.655054
v 0.324779 -0.241593 -0.655054
v -0.234991 -0.257516 -0.655057
v -0.234995 -0.595392 -0.279892
v 0.324777 -0.596342 -0.279889
v 0.324775 -0.622048 0.279881
v -0.234995 -0.622645 0.279878
v 0.699940 -0.241369 0.279883
v 0.699943 -0.261094 -0.279887
v 0.699943 0.245125 -0.279887
v 0.699938 0.239433 0.279883
v -0.610158 -0.266782 -0.279893
v -0.610160 -0.252687 0.279877
v -0.610160 0.243914 0.279877
v -0.610158 0.240850 -0.279894
v 0.044888 -0.296208 0.702685
v 0.345614 -0.009353 0.702686
v 0.044888 0.262536 0.702685
v -0.255840 0.001467 0.702682
v 0.044890 0.641871 0.300722
v 0.345617 0.637961 -0.000004
v 0.044893 0.627993 -0.300734
v -0.255837 0.633180 -0.000007
v 0.044895 0.256415 -0.702695
v 0.345620 0.005084 -0.702694
v 0.044895 -0.282851 -0.702695
v -0.255833 0.005804 -0.702695
v 0.044893 -0.620169 -0.300734
v 0.345617 -0.653494 -0.000004
v 0.044890 -0.657364 0.300722
v -0.255837 -0.645211 -0.000007
v 0.747580 -0.261023 -0.000002
v 0.747581 -0.002482 -0.300730
v 0.747581 0.258727 -0.000002
v 0.747578 -0.003731 0.300725
v -0.657799 -0.277454 -0.000009
v -0.657801 0.000642 0.300719
v -0.657801 0.261967 -0.000009
v -0.657798 -0.019775 -0.300737
v -0.214156 -0.444515 0.513613
v 0.303931 -0.471685 0.513615
v 0.558508 -0.246669 0.513616
v 0.558508 0.231703 0.513616
v 0.303931 0.454830 0.513615
v -0.214156 0.436120 0.513613
v -0.468732 0.247516 0.513611
v -0.468732 -0.221416 0.513611
v 0.558509 0.466977 0.259040
v 0.558511 0.460126 -0.259046
v 0.303936 0.486313 -0.513623
v -0.214151 0.469933 -0.513626
v -0.468729 0.474314 -0.259050
v -0.468731 0.474339 0.259035
v 0.558513 0.234742 -0.513622
v 0.558513 -0.250709 -0.513622
v 0.303936 -0.471863 -0.513623
v -0.214151 -0.484795 -0.513626
v -0.468728 -0.258457 -0.513627
v -0.468728 0.243907 -0.513627
v 0.558511 -0.466032 -0.259046
v 0.558509 -0.478467 0.259040
v -0.468731 -0.463089 0.259035
v -0.468729 -0.464812 -0.259050
vt 0.704424 0.920078
vt 0.711168 0.903443
vt 0.730562 0.908738
vt 0.716344 0.932811
vt 0.763988 0.662384
vt 0.757502 0.699130
vt 0.736542 0.690651
vt 0.740383 0.662493
vt 0.738831 0.729221
vt 0.723329 0.715060
vt 0.712565 0.879981
vt 0.733553 0.880668
vt 0.760048 0.881770
vt 0.750617 0.918645
vt 0.730654 0.948321
vt 0.711699 0.704161
vt 0.711333 0.857015
vt 0.733050 0.852262
vt 0.707275 0.839007
vt 0.718420 0.828536
vt 0.733025 0.814105
vt 0.752720 0.844362
vt 0.569805 0.875021
vt 0.716223 0.686405
vt 0.580006 0.838850
vt 0.716842 0.663234
vt 0.733012 0.597117
vt 0.756221 0.625441
vt 0.733164 0.635405
vt 0.719625 0.611815
vt 0.599137 0.847575
vt 0.596467 0.875811
vt 0.600500 0.809413
vt 0.615779 0.825324
vt 0.625525 0.836026
vt 0.620790 0.854088
vt 0.617396 0.876736
vt 0.596033 0.942166
vt 0.576605 0.912034
vt 0.598224 0.903851
vt 0.612361 0.927619
vt 0.715768 0.639661
vt 0.709849 0.622222
vt 0.692675 0.640575
vt 0.691220 0.619170
vt 0.694153 0.663963
vt 0.669761 0.664808
vt 0.669150 0.640485
vt 0.668476 0.618972
vt 0.620334 0.899159
vt 0.623479 0.917353
vt 0.641188 0.900798
vt 0.640756 0.922993
vt 0.640183 0.877499
vt 0.664848 0.878425
vt 0.664270 0.902734
vt 0.663624 0.925785
vt 0.693709 0.687262
vt 0.693957 0.709243
vt 0.642553 0.854402
vt 0.643667 0.832245
vt 0.671106 0.711234
vt 0.670465 0.689159
vt 0.666628 0.831814
vt 0.665822 0.854303
vt 0.647324 0.688621
vt 0.688587 0.856504
vt 0.644999 0.665503
vt 0.647989 0.711166
vt 0.630125 0.706955
vt 0.626384 0.688312
vt 0.621824 0.666106
vt 0.689295 0.879217
vt 0.689368 0.834111
vt 0.687029 0.901713
vt 0.686737 0.924708
vt 0.695724 0.812081
vt 0.667360 0.807174
vt 0.668375 0.783345
vt 0.703880 0.793558
vt 0.639617 0.812282
vt 0.645810 0.642228
vt 0.631215 0.789609
vt 0.635407 0.942238
vt 0.662930 0.948166
vt 0.645859 0.620642
vt 0.662823 0.972557
vt 0.625984 0.963266
vt 0.691231 0.945188
vt 0.699612 0.965799
vt 0.639552 0.598688
vt 0.630206 0.578471
vt 0.624348 0.643426
vt 0.629164 0.626354
vt 0.602967 0.638467
vt 0.617089 0.614830
vt 0.667572 0.594177
vt 0.598841 0.666605
vt 0.576725 0.666700
vt 0.582890 0.629837
vt 0.601863 0.599487
vt 0.605983 0.693988
vt 0.618962 0.718410
vt 0.605012 0.733062
vt 0.583559 0.703717
vt 0.672738 0.758533
vt 0.635158 0.752509
vt 0.643478 0.732117
vt 0.671895 0.735624
vt 0.695971 0.597058
vt 0.702867 0.577375
vt 0.666400 0.570366
vt 0.700094 0.730553
vt 0.709840 0.749912
vn -0.553991 -0.602018 0.575038
vn -0.316138 -0.681883 0.659615
vn -0.339838 -0.355088 0.870875
vn -0.665820 -0.331451 0.668449
vn -0.014519 -0.726832 0.686662
vn -0.005062 -0.392281 0.919831
vn -0.000112 -0.000584 1.000000
vn -0.345350 -0.003519 0.938468
vn -0.706461 0.010915 0.707668
vn 0.299907 -0.690312 0.658426
vn 0.326934 -0.352288 0.876931
vn 0.565994 -0.596238 0.569343
vn 0.662506 -0.354900 0.659645
vn 0.706832 -0.003832 0.707371
vn 0.345316 0.000508 0.938486
vn 0.326070 0.356896 0.875388
vn 0.005830 0.371877 0.928264
vn 0.664436 0.340166 0.665441
vn 0.556020 0.611926 0.562484
vn 0.300686 0.695917 0.652140
vn -0.007757 0.740469 0.672046
vn -0.315275 0.379350 0.869883
vn -0.661505 0.359924 0.657925
vn -0.299406 0.712717 0.634343
vn -0.531923 0.641364 0.552910
vn -0.308853 0.887983 0.340728
vn -0.632679 0.704403 0.321766
vn -0.017088 0.938885 0.343806
vn -0.012579 0.999891 -0.007713
vn -0.304323 0.952561 -0.003834
vn -0.676103 0.736807 0.000057
vn 0.311163 0.893472 0.323861
vn 0.651866 0.692430 0.309209
vn 0.685030 0.728515 -0.000601
vn 0.321151 0.947012 -0.005529
vn 0.299329 0.903504 -0.306731
vn -0.017851 0.946497 -0.322217
vn 0.659331 0.689895 -0.298878
vn 0.586421 0.607156 -0.536165
vn 0.278370 0.723182 -0.632074
vn -0.020522 0.733788 -0.679068
vn -0.278604 0.909505 -0.308513
vn -0.651521 0.697357 -0.298686
vn -0.270588 0.712450 -0.647454
vn -0.555461 0.623156 -0.550581
vn -0.315584 0.361837 -0.877200
vn -0.671626 0.338921 -0.658826
vn -0.008006 0.367753 -0.929889
vn -0.000005 0.001247 -0.999999
vn -0.345448 0.000363 -0.938438
vn -0.707114 0.003082 -0.707093
vn 0.318206 0.369246 -0.873157
vn 0.672199 0.337431 -0.659006
vn 0.706892 -0.001467 -0.707320
vn 0.345513 0.000719 -0.938414
vn 0.323361 -0.346121 -0.880703
vn 0.006977 -0.373952 -0.927422
vn 0.659101 -0.347525 -0.666943
vn 0.548689 -0.622085 -0.558526
vn 0.283451 -0.717091 -0.636738
vn 0.013094 -0.742635 -0.669568
vn -0.319197 -0.344131 -0.882999
vn -0.659579 -0.341828 -0.669409
vn -0.269252 -0.731984 -0.625861
vn -0.555246 -0.632168 -0.540432
vn -0.280429 -0.912644 -0.297390
vn -0.638964 -0.716068 -0.281019
vn 0.001396 -0.947549 -0.319607
vn -0.006928 -0.998515 -0.054042
vn -0.317616 -0.947510 -0.036676
vn -0.680452 -0.732781 -0.004193
vn 0.277014 -0.904422 -0.324475
vn 0.646240 -0.699298 -0.305541
vn 0.694604 -0.719315 -0.010530
vn 0.296901 -0.953989 -0.041877
vn 0.297077 -0.903745 0.308206
vn -0.015110 -0.944803 0.327291
vn 0.669772 -0.679681 0.299062
vn -0.315888 -0.896279 0.311286
vn -0.657188 -0.689813 0.303745
vn 0.881439 -0.350926 0.316096
vn 0.931890 -0.362723 0.003715
vn 0.999982 0.005946 0.000019
vn 0.938416 -0.000758 0.345507
vn 0.877542 -0.358027 -0.318963
vn 0.938467 -0.003369 -0.345353
vn 0.873767 0.360689 -0.326242
vn 0.926875 0.375370 0.000847
vn 0.874766 0.355131 0.329646
vn -0.875119 -0.364022 -0.318834
vn -0.925463 -0.378751 0.008121
vn -0.999992 0.003996 -0.000162
vn -0.938383 -0.008523 -0.345493
vn -0.873390 -0.356132 0.332205
vn -0.938281 -0.005461 0.345831
vn -0.877899 0.355979 0.320268
vn -0.931460 0.363817 -0.004302
vn -0.883417 0.339653 -0.322816
s 1
g FoodShortRUpperLeg
usemtl delete15:blinn6SG
f 1/1/1 75/2/2 27/3/3 82/4/4
f 75/2/2 15/11/5 51/12/6 27/3/3
f 27/3/3 51/12/6 21/13/7 54/14/8
f 82/4/4 27/3/3 54/14/8 18/15/9
f 15/11/5 76/17/10 28/18/11 51/12/6
f 76/17/10 2/19/12 77/20/13 28/18/11
f 28/18/11 77/20/13 16/21/14 52/22/15
f 51/12/6 28/18/11 52/22/15 21/13/7
f 21/5/7 52/6/15 29/7/16 53/8/17
f 52/6/15 16/9/14 78/10/18 29/7/16
f 29/7/16 78/10/18 4/16/19 79/24/20
f 53/8/17 29/7/16 79/24/20 17/26/21
f 18/27/9 54/28/8 30/29/22 81/30/23
f 54/28/8 21/5/7 53/8/17 30/29/22
f 30/29/22 53/8/17 17/26/21 80/42/24
f 81/30/23 30/29/22 80/42/24 3/43/25
f 3/43/25 80/42/24 31/44/26 88/45/27
f 80/42/24 17/26/21 55/46/28 31/44/26
f 31/44/26 55/46/28 22/47/29 58/48/30
f 88/45/27 31/44/26 58/48/30 9/49/31
f 17/26/21 79/24/20 32/58/32 55/46/28
f 79/24/20 4/16/19 83/59/33 32/58/32
f 32/58/32 83/59/33 19/62/34 56/63/35
f 55/46/28 32/58/32 56/63/35 22/47/29
f 22/47/29 56/63/35 33/66/36 57/68/37
f 56/63/35 19/62/34 84/69/38 33/66/36
f 33/66/36 84/69/38 6/70/39 85/71/40
f 57/68/37 33/66/36 85/71/40 20/72/41
f 9/49/31 58/48/30 34/82/42 87/86/43
f 58/48/30 22/47/29 57/68/37 34/82/42
f 34/82/42 57/68/37 20/72/41 86/93/44
f 87/86/43 34/82/42 86/93/44 5/94/45
f 5/94/45 86/93/44 35/95/46 94/96/47
f 86/93/44 20/72/41 59/98/48 35/95/46
f 35/95/46 59/98/48 23/99/49 62/100/50
f 94/96/47 35/95/46 62/100/50 12/101/51
f 20/72/41 85/71/40 36/102/52 59/98/48
f 85/71/40 6/70/39 89/103/53 36/102/52
f 36/102/52 89/103/53 10/104/54 60/105/55
f 59/98/48 36/102/52 60/105/55 23/99/49
f 23/23/49 60/25/55 37/31/56 61/32/57
f 60/25/55 10/33/54 90/34/58 37/31/56
f 37/31/56 90/34/58 8/35/59 91/36/60
f 61/32/57 37/31/56 91/36/60 11/37/61
f 12/38/51 62/39/50 38/40/62 93/41/63
f 62/39/50 23/23/49 61/32/57 38/40/62
f 38/40/62 61/32/57 11/37/61 92/50/64
f 93/41/63 38/40/62 92/50/64 7/51/65
f 7/51/65 92/50/64 39/52/66 98/53/67
f 92/50/64 11/37/61 63/54/68 39/52/66
f 39/52/66 63/54/68 24/55/69 66/56/70
f 98/53/67 39/52/66 66/56/70 14/57/71
f 11/37/61 91/36/60 40/60/72 63/54/68
f 91/36/60 8/35/59 95/61/73 40/60/72
f 40/60/72 95/61/73 13/64/74 64/65/75
f 63/54/68 40/60/72 64/65/75 24/55/69
f 24/55/69 64/65/75 41/67/76 65/73/77
f 64/65/75 13/64/74 96/74/78 41/67/76
f 41/67/76 96/74/78 2/19/12 76/17/10
f 65/73/77 41/67/76 76/17/10 15/11/5
f 14/57/71 66/56/70 42/75/79 97/76/80
f 66/56/70 24/55/69 65/73/77 42/75/79
f 42/75/79 65/73/77 15/11/5 75/2/2
f 97/76/80 42/75/79 75/2/2 1/1/1
f 2/19/12 96/74/78 43/77/81 77/20/13
f 96/74/78 13/64/74 67/78/82 43/77/81
f 43/77/81 67/78/82 25/79/83 70/80/84
f 77/20/13 43/77/81 70/80/84 16/21/14
f 13/64/74 95/61/73 44/81/85 67/78/82
f 95/61/73 8/35/59 90/34/58 44/81/85
f 44/81/85 90/34/58 10/33/54 68/83/86
f 67/78/82 44/81/85 68/83/86 25/79/83
f 25/106/83 68/107/86 45/108/87 69/109/88
f 68/107/86 10/104/54 89/103/53 45/108/87
f 45/108/87 89/103/53 6/70/39 84/69/38
f 69/109/88 45/108/87 84/69/38 19/62/34
f 16/9/14 70/114/84 46/113/89 78/10/18
f 70/114/84 25/106/83 69/109/88 46/113/89
f 46/113/89 69/109/88 19/62/34 83/59/33
f 78/10/18 46/113/89 83/59/33 4/16/19
f 7/51/65 98/53/67 47/84/90 93/41/63
f 98/53/67 14/57/71 71/85/91 47/84/90
f 47/84/90 71/85/91 26/87/92 74/88/93
f 93/41/63 47/84/90 74/88/93 12/38/51
f 14/57/71 97/76/80 48/89/94 71/85/91
f 97/76/80 1/1/1 82/4/4 48/89/94
f 48/89/94 82/4/4 18/15/9 72/90/95
f 71/85/91 48/89/94 72/90/95 26/87/92
f 26/112/92 72/111/95 49/110/96 73/97/97
f 72/111/95 18/27/9 81/30/23 49/110/96
f 49/110/96 81/30/23 3/43/25 88/45/27
f 73/97/97 49/110/96 88/45/27 9/49/31
f 12/101/51 74/92/93 50/91/98 94/96/47
f 74/92/93 26/112/92 73/97/97 50/91/98
f 50/91/98 73/97/97 9/49/31 87/86/43
f 94/96/47 50/91/98 87/86/43 5/94/45
