# This file uses centimeters as units for non-parametric coordinates.

mtllib RiceCrackersSnakpodShortRLowerLeg.mtl
g default
v 0.447041 -0.438789 -0.474589
v -0.502115 -0.436112 -0.474581
v 0.447041 0.412755 -0.474585
v -0.502115 0.425473 -0.474577
v 0.447049 0.453644 0.474571
v -0.502107 0.425442 0.474579
v 0.447049 -0.440250 0.474569
v -0.502107 -0.424412 0.474577
v 0.571891 0.564974 -0.000008
v -0.626953 -0.002409 0.599426
v -0.027529 -0.532871 0.599419
v 0.571896 -0.000775 0.599416
v -0.626958 -0.557440 -0.000001
v 0.571891 -0.538415 -0.000011
v -0.027540 -0.542631 -0.599431
v -0.626963 -0.017062 -0.599424
v -0.027540 0.539511 -0.599428
v 0.571886 0.025905 -0.599434
v -0.626958 0.552510 0.000002
v -0.027529 0.535148 0.599422
v -0.027541 -0.006338 -0.818654
v -0.027535 0.755051 -0.000002
v -0.027528 0.009216 0.818644
v -0.027535 -0.734872 -0.000007
v -0.846183 0.011612 0.000002
v 0.791117 -0.000347 -0.000012
v 0.276624 -0.274408 -0.711876
v -0.331702 -0.268251 -0.711872
v -0.331702 0.268433 -0.711869
v 0.276624 0.294335 -0.711874
v 0.276627 0.635487 -0.304167
v -0.331699 0.645290 -0.304162
v -0.331694 0.650193 0.304162
v 0.276630 0.638621 0.304157
v 0.276636 0.274104 0.711862
v -0.331690 0.294753 0.711867
v -0.331690 -0.263425 0.711865
v 0.276634 -0.280729 0.711860
v 0.276632 -0.647911 0.304153
v -0.331694 -0.648943 0.304158
v -0.331699 -0.676878 -0.304166
v 0.276625 -0.677526 -0.304171
v -0.739405 -0.263179 -0.304161
v -0.739400 -0.284617 0.304162
v -0.739400 0.265510 0.304164
v -0.739403 0.259327 -0.304160
v 0.684336 -0.290798 0.304150
v 0.684331 -0.275479 -0.304173
v 0.684331 0.264196 -0.304172
v 0.684336 0.260865 0.304152
v -0.027541 -0.322774 -0.763646
v -0.354351 -0.011037 -0.763643
v -0.027541 0.284435 -0.763644
v 0.299272 0.000722 -0.763647
v -0.027537 0.696671 -0.326815
v -0.354344 0.692421 0.000000
v -0.027532 0.681588 0.326811
v 0.299278 0.687226 -0.000005
v -0.027528 0.277778 0.763637
v -0.354338 0.004647 0.763639
v -0.027528 -0.308262 0.763635
v 0.299284 0.005430 0.763631
v -0.027532 -0.674837 0.326806
v -0.354344 -0.711052 -0.000004
v -0.027537 -0.715257 -0.326819
v 0.299278 -0.702051 -0.000010
v -0.791173 -0.284538 0.000001
v -0.791170 -0.003573 0.326815
v -0.791175 0.280293 0.000003
v -0.791176 -0.004928 -0.326810
v 0.736106 -0.302395 -0.000012
v 0.736104 -0.000177 -0.326823
v 0.736108 0.283814 -0.000010
v 0.736109 -0.022367 0.326802
v 0.253975 -0.483945 -0.558178
v -0.309050 -0.513472 -0.558174
v -0.585709 -0.268938 -0.558170
v -0.585709 0.250927 -0.558169
v -0.309050 0.493408 -0.558170
v 0.253975 0.473074 -0.558175
v 0.530633 0.268112 -0.558178
v 0.530633 -0.241495 -0.558180
v -0.585706 0.506608 -0.281510
v -0.585702 0.499160 0.281513
v -0.309041 0.527618 0.558169
v 0.253984 0.509817 0.558164
v 0.530640 0.514580 0.281504
v 0.530635 0.514608 -0.281520
v -0.585699 0.254226 0.558170
v -0.585699 -0.273332 0.558169
v -0.309041 -0.513669 0.558166
v 0.253984 -0.527723 0.558161
v 0.530642 -0.281753 0.558159
v 0.530642 0.264186 0.558161
v -0.585702 -0.507331 0.281510
v -0.585706 -0.520843 -0.281513
v 0.530635 -0.504131 -0.281523
v 0.530640 -0.506005 0.281501
vt 0.704424 0.920078
vt 0.711168 0.903443
vt 0.730562 0.908738
vt 0.716344 0.932811
vt 0.763988 0.662384
vt 0.757502 0.699130
vt 0.736542 0.690651
vt 0.740383 0.662493
vt 0.738831 0.729221
vt 0.723329 0.715060
vt 0.712565 0.879981
vt 0.733553 0.880668
vt 0.760048 0.881770
vt 0.750617 0.918645
vt 0.730654 0.948321
vt 0.711699 0.704161
vt 0.711333 0.857015
vt 0.733050 0.852262
vt 0.707275 0.839007
vt 0.718420 0.828536
vt 0.733025 0.814105
vt 0.752720 0.844362
vt 0.569805 0.875021
vt 0.716223 0.686405
vt 0.580006 0.838850
vt 0.716842 0.663234
vt 0.733012 0.597117
vt 0.756221 0.625441
vt 0.733164 0.635405
vt 0.719625 0.611815
vt 0.599137 0.847575
vt 0.596467 0.875811
vt 0.600500 0.809413
vt 0.615779 0.825324
vt 0.625525 0.836026
vt 0.620790 0.854088
vt 0.617396 0.876736
vt 0.596033 0.942166
vt 0.576605 0.912034
vt 0.598224 0.903851
vt 0.612361 0.927619
vt 0.715768 0.639661
vt 0.709849 0.622222
vt 0.692675 0.640575
vt 0.691220 0.619170
vt 0.694153 0.663963
vt 0.669761 0.664808
vt 0.669150 0.640485
vt 0.668476 0.618972
vt 0.620334 0.899159
vt 0.623479 0.917353
vt 0.641188 0.900798
vt 0.640756 0.922993
vt 0.640183 0.877499
vt 0.664848 0.878425
vt 0.664270 0.902734
vt 0.663624 0.925785
vt 0.693709 0.687262
vt 0.693957 0.709243
vt 0.642553 0.854402
vt 0.643667 0.832245
vt 0.671106 0.711234
vt 0.670465 0.689159
vt 0.666628 0.831814
vt 0.665822 0.854303
vt 0.647324 0.688621
vt 0.688587 0.856504
vt 0.644999 0.665503
vt 0.647989 0.711166
vt 0.630125 0.706955
vt 0.626384 0.688312
vt 0.621824 0.666106
vt 0.689295 0.879217
vt 0.689368 0.834111
vt 0.687029 0.901713
vt 0.686737 0.924708
vt 0.695724 0.812081
vt 0.667360 0.807174
vt 0.668375 0.783345
vt 0.703880 0.793558
vt 0.639617 0.812282
vt 0.645810 0.642228
vt 0.631215 0.789609
vt 0.635407 0.942238
vt 0.662930 0.948166
vt 0.645859 0.620642
vt 0.662823 0.972557
vt 0.625984 0.963266
vt 0.691231 0.945188
vt 0.699612 0.965799
vt 0.639552 0.598688
vt 0.630206 0.578471
vt 0.624348 0.643426
vt 0.629164 0.626354
vt 0.602967 0.638467
vt 0.617089 0.614830
vt 0.667572 0.594177
vt 0.598841 0.666605
vt 0.576725 0.666700
vt 0.582890 0.629837
vt 0.601863 0.599487
vt 0.605983 0.693988
vt 0.618962 0.718410
vt 0.605012 0.733062
vt 0.583559 0.703717
vt 0.672738 0.758533
vt 0.635158 0.752509
vt 0.643478 0.732117
vt 0.671895 0.735624
vt 0.695971 0.597058
vt 0.702867 0.577375
vt 0.666400 0.570366
vt 0.700094 0.730553
vt 0.709840 0.749912
vn 0.553984 -0.602016 -0.575047
vn 0.316130 -0.681881 -0.659621
vn 0.339827 -0.355085 -0.870880
vn 0.665812 -0.331449 -0.668459
vn 0.014510 -0.726830 -0.686665
vn 0.005049 -0.392279 -0.919833
vn 0.000099 -0.000581 -1.000000
vn 0.345337 -0.003516 -0.938472
vn 0.706452 0.010917 -0.707677
vn -0.299916 -0.690310 -0.658424
vn -0.326945 -0.352285 -0.876928
vn -0.566001 -0.596236 -0.569338
vn -0.662515 -0.354898 -0.659638
vn -0.706841 -0.003830 -0.707362
vn -0.345328 0.000511 -0.938482
vn -0.326081 0.356899 -0.875382
vn -0.005842 0.371880 -0.928262
vn -0.664445 0.340168 -0.665431
vn -0.556027 0.611928 -0.562475
vn -0.300694 0.695919 -0.652134
vn 0.007748 0.740471 -0.672044
vn 0.315263 0.379353 -0.869885
vn 0.661496 0.359926 -0.657933
vn 0.299397 0.712719 -0.634345
vn 0.531916 0.641366 -0.552915
vn 0.308849 0.887984 -0.340730
vn 0.632675 0.704404 -0.321772
vn 0.017083 0.938886 -0.343803
vn 0.012579 0.999891 0.007716
vn 0.304323 0.952561 0.003833
vn 0.676103 0.736807 -0.000063
vn -0.311167 0.893472 -0.323854
vn -0.651870 0.692431 -0.309199
vn -0.685030 0.728515 0.000613
vn -0.321151 0.947012 0.005536
vn -0.299325 0.903503 0.306737
vn 0.017855 0.946496 0.322220
vn -0.659327 0.689894 0.298888
vn -0.586414 0.607154 0.536174
vn -0.278361 0.723181 0.632080
vn 0.020531 0.733786 0.679070
vn 0.278608 0.909504 0.308512
vn 0.651525 0.697356 0.298680
vn 0.270597 0.712448 0.647453
vn 0.555468 0.623154 0.550576
vn 0.315596 0.361835 0.877197
vn 0.671635 0.338918 0.658818
vn 0.008018 0.367750 0.929890
vn 0.000018 0.001244 0.999999
vn 0.345460 0.000360 0.938433
vn 0.707123 0.003080 0.707084
vn -0.318195 0.369243 0.873162
vn -0.672190 0.337429 0.659016
vn -0.706883 -0.001470 0.707329
vn -0.345500 0.000716 0.938418
vn -0.323349 -0.346124 0.880706
vn -0.006965 -0.373955 0.927421
vn -0.659092 -0.347527 0.666950
vn -0.548682 -0.622086 0.558531
vn -0.283443 -0.717093 0.636740
vn -0.013085 -0.742637 0.669566
vn 0.319208 -0.344133 0.882994
vn 0.659588 -0.341831 0.669399
vn 0.269261 -0.731986 0.625855
vn 0.555253 -0.632169 0.540422
vn 0.280433 -0.912645 0.297384
vn 0.638967 -0.716069 0.281009
vn -0.001392 -0.947550 0.319604
vn 0.006929 -0.998515 0.054039
vn 0.317617 -0.947510 0.036669
vn 0.680452 -0.732781 0.004182
vn -0.277010 -0.904423 0.324476
vn -0.646236 -0.699299 0.305547
vn -0.694604 -0.719315 0.010537
vn -0.296901 -0.953990 0.041878
vn -0.297081 -0.903744 -0.308205
vn 0.015106 -0.944802 -0.327294
vn -0.669776 -0.679680 -0.299056
vn 0.315884 -0.896278 -0.311293
vn 0.657184 -0.689812 -0.303756
vn -0.881443 -0.350925 -0.316085
vn -0.931890 -0.362723 -0.003704
vn -0.999982 0.005946 -0.000006
vn -0.938420 -0.000757 -0.345495
vn -0.877537 -0.358028 0.318974
vn -0.938462 -0.003370 0.345365
vn -0.873763 0.360688 0.326255
vn -0.926875 0.375370 -0.000833
vn -0.874770 0.355132 -0.329633
vn 0.875123 -0.364023 0.318821
vn 0.925463 -0.378751 -0.008135
vn 0.999992 0.003996 0.000149
vn 0.938387 -0.008524 0.345481
vn 0.873386 -0.356131 -0.332217
vn 0.938276 -0.005460 -0.345844
vn 0.877895 0.355980 -0.320278
vn 0.931460 0.363817 0.004291
vn 0.883421 0.339652 0.322805
s 1
g FoodShortRLowerLeg
usemtl delete15:blinn6SG
f 1/1/1 75/2/2 27/3/3 82/4/4
f 75/2/2 15/11/5 51/12/6 27/3/3
f 27/3/3 51/12/6 21/13/7 54/14/8
f 82/4/4 27/3/3 54/14/8 18/15/9
f 15/11/5 76/17/10 28/18/11 51/12/6
f 76/17/10 2/19/12 77/20/13 28/18/11
f 28/18/11 77/20/13 16/21/14 52/22/15
f 51/12/6 28/18/11 52/22/15 21/13/7
f 21/5/7 52/6/15 29/7/16 53/8/17
f 52/6/15 16/9/14 78/10/18 29/7/16
f 29/7/16 78/10/18 4/16/19 79/24/20
f 53/8/17 29/7/16 79/24/20 17/26/21
f 18/27/9 54/28/8 30/29/22 81/30/23
f 54/28/8 21/5/7 53/8/17 30/29/22
f 30/29/22 53/8/17 17/26/21 80/42/24
f 81/30/23 30/29/22 80/42/24 3/43/25
f 3/43/25 80/42/24 31/44/26 88/45/27
f 80/42/24 17/26/21 55/46/28 31/44/26
f 31/44/26 55/46/28 22/47/29 58/48/30
f 88/45/27 31/44/26 58/48/30 9/49/31
f 17/26/21 79/24/20 32/58/32 55/46/28
f 79/24/20 4/16/19 83/59/33 32/58/32
f 32/58/32 83/59/33 19/62/34 56/63/35
f 55/46/28 32/58/32 56/63/35 22/47/29
f 22/47/29 56/63/35 33/66/36 57/68/37
f 56/63/35 19/62/34 84/69/38 33/66/36
f 33/66/36 84/69/38 6/70/39 85/71/40
f 57/68/37 33/66/36 85/71/40 20/72/41
f 9/49/31 58/48/30 34/82/42 87/86/43
f 58/48/30 22/47/29 57/68/37 34/82/42
f 34/82/42 57/68/37 20/72/41 86/93/44
f 87/86/43 34/82/42 86/93/44 5/94/45
f 5/94/45 86/93/44 35/95/46 94/96/47
f 86/93/44 20/72/41 59/98/48 35/95/46
f 35/95/46 59/98/48 23/99/49 62/100/50
f 94/96/47 35/95/46 62/100/50 12/101/51
f 20/72/41 85/71/40 36/102/52 59/98/48
f 85/71/40 6/70/39 89/103/53 36/102/52
f 36/102/52 89/103/53 10/104/54 60/105/55
f 59/98/48 36/102/52 60/105/55 23/99/49
f 23/23/49 60/25/55 37/31/56 61/32/57
f 60/25/55 10/33/54 90/34/58 37/31/56
f 37/31/56 90/34/58 8/35/59 91/36/60
f 61/32/57 37/31/56 91/36/60 11/37/61
f 12/38/51 62/39/50 38/40/62 93/41/63
f 62/39/50 23/23/49 61/32/57 38/40/62
f 38/40/62 61/32/57 11/37/61 92/50/64
f 93/41/63 38/40/62 92/50/64 7/51/65
f 7/51/65 92/50/64 39/52/66 98/53/67
f 92/50/64 11/37/61 63/54/68 39/52/66
f 39/52/66 63/54/68 24/55/69 66/56/70
f 98/53/67 39/52/66 66/56/70 14/57/71
f 11/37/61 91/36/60 40/60/72 63/54/68
f 91/36/60 8/35/59 95/61/73 40/60/72
f 40/60/72 95/61/73 13/64/74 64/65/75
f 63/54/68 40/60/72 64/65/75 24/55/69
f 24/55/69 64/65/75 41/67/76 65/73/77
f 64/65/75 13/64/74 96/74/78 41/67/76
f 41/67/76 96/74/78 2/19/12 76/17/10
f 65/73/77 41/67/76 76/17/10 15/11/5
f 14/57/71 66/56/70 42/75/79 97/76/80
f 66/56/70 24/55/69 65/73/77 42/75/79
f 42/75/79 65/73/77 15/11/5 75/2/2
f 97/76/80 42/75/79 75/2/2 1/1/1
f 2/19/12 96/74/78 43/77/81 77/20/13
f 96/74/78 13/64/74 67/78/82 43/77/81
f 43/77/81 67/78/82 25/79/83 70/80/84
f 77/20/13 43/77/81 70/80/84 16/21/14
f 13/64/74 95/61/73 44/81/85 67/78/82
f 95/61/73 8/35/59 90/34/58 44/81/85
f 44/81/85 90/34/58 10/33/54 68/83/86
f 67/78/82 44/81/85 68/83/86 25/79/83
f 25/106/83 68/107/86 45/108/87 69/109/88
f 68/107/86 10/104/54 89/103/53 45/108/87
f 45/108/87 89/103/53 6/70/39 84/69/38
f 69/109/88 45/108/87 84/69/38 19/62/34
f 16/9/14 70/114/84 46/113/89 78/10/18
f 70/114/84 25/106/83 69/109/88 46/113/89
f 46/113/89 69/109/88 19/62/34 83/59/33
f 78/10/18 46/113/89 83/59/33 4/16/19
f 7/51/65 98/53/67 47/84/90 93/41/63
f 98/53/67 14/57/71 71/85/91 47/84/90
f 47/84/90 71/85/91 26/87/92 74/88/93
f 93/41/63 47/84/90 74/88/93 12/38/51
f 14/57/71 97/76/80 48/89/94 71/85/91
f 97/76/80 1/1/1 82/4/4 48/89/94
f 48/89/94 82/4/4 18/15/9 72/90/95
f 71/85/91 48/89/94 72/90/95 26/87/92
f 26/112/92 72/111/95 49/110/96 73/97/97
f 72/111/95 18/27/9 81/30/23 49/110/96
f 49/110/96 81/30/23 3/43/25 88/45/27
f 73/97/97 49/110/96 88/45/27 9/49/31
f 12/101/51 74/92/93 50/91/98 94/96/47
f 74/92/93 26/112/92 73/97/97 50/91/98
f 50/91/98 73/97/97 9/49/31 87/86/43
f 94/96/47 50/91/98 87/86/43 5/94/45
