# This file uses centimeters as units for non-parametric coordinates.

mtllib CookieMediumRUpperLeg.mtl
g default
v -1.260027 -0.173924 -0.100014
v -1.260026 -0.100719 -0.173219
v -1.260026 -0.000719 -0.200014
v -1.260026 0.099281 -0.173220
v -1.260027 0.172486 -0.100015
v -1.260027 0.199281 -0.000015
v -1.260028 0.172486 0.099985
v -1.260028 0.099281 0.173191
v -1.260028 -0.000719 0.199986
v -1.260028 -0.100719 0.173191
v -1.260028 -0.173924 0.099986
v -1.260027 -0.200719 -0.000014
v -1.113616 -0.300719 -0.173218
v -1.113615 -0.173925 -0.300013
v -1.113615 -0.000720 -0.346424
v -1.113615 0.172486 -0.300014
v -1.113616 0.299281 -0.173219
v -1.113617 0.345691 -0.000014
v -1.113618 0.299281 0.173191
v -1.113619 0.172486 0.299986
v -1.113619 -0.000719 0.346397
v -1.113619 -0.173924 0.299987
v -1.113618 -0.300719 0.173192
v -1.113617 -0.347129 -0.000013
v -0.913616 -0.323769 -0.186525
v -0.913615 -0.187232 -0.323061
v -0.913615 -0.000720 -0.373037
v -0.913615 0.185793 -0.323062
v -0.913616 0.322330 -0.186525
v -0.913617 0.372306 -0.000013
v -0.913618 0.322330 0.186500
v -0.913619 0.185794 0.323037
v -0.913619 -0.000719 0.373013
v -0.913619 -0.187231 0.323037
v -0.913618 -0.323768 0.186501
v -0.913617 -0.373744 -0.000012
v -0.455027 -0.249438 -0.143607
v -0.455026 -0.144318 -0.248729
v -0.455026 -0.000719 -0.287206
v -0.455026 0.142879 -0.248729
v -0.455027 0.248000 -0.143608
v -0.455028 0.286477 -0.000010
v -0.455029 0.248000 0.143588
v -0.455029 0.142879 0.248709
v -0.455030 -0.000719 0.287187
v -0.455029 -0.144317 0.248710
v -0.455029 -0.249438 0.143589
v -0.455028 -0.287915 -0.000009
v 0.114199 -0.236696 -0.136247
v 0.114199 -0.136961 -0.235983
v 0.114199 -0.000719 -0.272489
v 0.114199 0.135522 -0.235983
v 0.114199 0.235258 -0.136248
v 0.114198 0.271764 -0.000007
v 0.114197 0.235258 0.136235
v 0.114196 0.135523 0.235970
v 0.114196 -0.000719 0.272476
v 0.114196 -0.136960 0.235971
v 0.114197 -0.236696 0.136235
v 0.114198 -0.273202 -0.000006
v 0.683425 -0.287665 -0.165671
v 0.683425 -0.166388 -0.286949
v 0.683426 -0.000719 -0.331340
v 0.683425 0.164949 -0.286949
v 0.683425 0.286227 -0.165672
v 0.683424 0.330618 -0.000003
v 0.683423 0.286227 0.165665
v 0.683422 0.164950 0.286943
v 0.683422 -0.000719 0.331334
v 0.683422 -0.166387 0.286943
v 0.683423 -0.287665 0.165666
v 0.683424 -0.332056 -0.000003
v 1.118414 -0.361858 -0.208503
v 1.118415 -0.209223 -0.361138
v 1.118415 -0.000720 -0.417007
v 1.118415 0.207784 -0.361139
v 1.118414 0.360419 -0.208504
v 1.118412 0.416287 -0.000001
v 1.118411 0.360419 0.208502
v 1.118410 0.207785 0.361138
v 1.118410 -0.000719 0.417006
v 1.118410 -0.209222 0.361138
v 1.118411 -0.361857 0.208503
v 1.118412 -0.417726 0.000000
v 1.335868 -0.326901 -0.188320
v 1.335869 -0.189041 -0.326181
v 1.335869 -0.000720 -0.376641
v 1.335869 0.187602 -0.326181
v 1.335868 0.325462 -0.188321
v 1.335867 0.375923 0.000000
v 1.335866 0.325463 0.188322
v 1.335865 0.187602 0.326182
v 1.335865 -0.000719 0.376643
v 1.335865 -0.189040 0.326183
v 1.335866 -0.326901 0.188322
v 1.335867 -0.377361 0.000001
v 1.495055 -0.189040 -0.108725
v 1.495055 -0.109447 -0.188319
v 1.495056 -0.000719 -0.217453
v 1.495055 0.108008 -0.188319
v 1.495055 0.187602 -0.108726
v 1.495054 0.216735 0.000002
v 1.495054 0.187602 0.108729
v 1.495053 0.108008 0.188323
v 1.495053 -0.000719 0.217456
v 1.495053 -0.109446 0.188323
v 1.495054 -0.189040 0.108729
v 1.495054 -0.218174 0.000002
v -1.313617 -0.000719 -0.000015
v 1.553321 -0.000719 0.000002
vt 0.442334 0.556099
vt 0.429541 0.543306
vt 0.412065 0.538623
vt 0.394589 0.543306
vt 0.381796 0.556099
vt 0.377113 0.573575
vt 0.381796 0.591051
vt 0.394589 0.603844
vt 0.412065 0.608527
vt 0.429541 0.603844
vt 0.442334 0.591051
vt 0.447016 0.573575
vt 0.472603 0.538623
vt 0.447016 0.513037
vt 0.412065 0.503672
vt 0.377113 0.513037
vt 0.351527 0.538623
vt 0.342161 0.573575
vt 0.351527 0.608527
vt 0.377113 0.634113
vt 0.412065 0.643478
vt 0.447016 0.634113
vt 0.472603 0.608527
vt 0.481968 0.573575
vt 0.502872 0.521147
vt 0.464492 0.482768
vt 0.412065 0.468720
vt 0.359637 0.482768
vt 0.321258 0.521147
vt 0.307210 0.573575
vt 0.321258 0.626002
vt 0.359637 0.664382
vt 0.412065 0.678430
vt 0.464492 0.664382
vt 0.502872 0.626002
vt 0.516920 0.573575
vt 0.414762 0.578914
vt 0.449780 0.578914
vt 0.484798 0.578914
vt 0.519815 0.578914
vt 0.554833 0.578914
vt 0.589850 0.578914
vt 0.624868 0.578914
vt 0.659886 0.578914
vt 0.694903 0.578914
vt 0.729921 0.578914
vt 0.764939 0.578914
vt 0.799956 0.578914
vt 0.834974 0.578914
vt 0.414762 0.622274
vt 0.449780 0.622274
vt 0.484798 0.622274
vt 0.519815 0.622274
vt 0.554833 0.622274
vt 0.589850 0.622274
vt 0.624868 0.622274
vt 0.659886 0.622274
vt 0.694903 0.622274
vt 0.729921 0.622274
vt 0.764939 0.622274
vt 0.799956 0.622274
vt 0.834974 0.622274
vt 0.414762 0.665634
vt 0.449780 0.665634
vt 0.484798 0.665634
vt 0.519815 0.665634
vt 0.554833 0.665634
vt 0.589850 0.665634
vt 0.624868 0.665634
vt 0.659886 0.665634
vt 0.694903 0.665634
vt 0.729921 0.665634
vt 0.764939 0.665634
vt 0.799956 0.665634
vt 0.834974 0.665634
vt 0.414762 0.708993
vt 0.449780 0.708993
vt 0.484798 0.708993
vt 0.519815 0.708993
vt 0.554833 0.708993
vt 0.589850 0.708993
vt 0.624868 0.708993
vt 0.659886 0.708993
vt 0.694903 0.708993
vt 0.729921 0.708993
vt 0.764939 0.708993
vt 0.799956 0.708993
vt 0.834974 0.708993
vt 0.414762 0.752353
vt 0.449780 0.752353
vt 0.484798 0.752353
vt 0.519815 0.752353
vt 0.554833 0.752353
vt 0.589850 0.752353
vt 0.624868 0.752353
vt 0.659886 0.752353
vt 0.694903 0.752353
vt 0.729921 0.752353
vt 0.764939 0.752353
vt 0.799956 0.752353
vt 0.834974 0.752353
vt 0.895063 0.708151
vt 0.856683 0.669772
vt 0.804256 0.655724
vt 0.751828 0.669772
vt 0.713449 0.708151
vt 0.699401 0.760579
vt 0.713449 0.813006
vt 0.751828 0.851386
vt 0.804256 0.865434
vt 0.856683 0.851386
vt 0.895063 0.813006
vt 0.909111 0.760579
vt 0.864794 0.725627
vt 0.839207 0.700041
vt 0.804256 0.690676
vt 0.769304 0.700041
vt 0.743718 0.725627
vt 0.734353 0.760579
vt 0.743718 0.795531
vt 0.769304 0.821117
vt 0.804256 0.830482
vt 0.839207 0.821117
vt 0.864794 0.795531
vt 0.874159 0.760579
vt 0.834525 0.743103
vt 0.821732 0.730310
vt 0.804256 0.725627
vt 0.786780 0.730310
vt 0.773987 0.743103
vt 0.769304 0.760579
vt 0.773987 0.778055
vt 0.786780 0.790848
vt 0.804256 0.795531
vt 0.821732 0.790848
vt 0.834525 0.778055
vt 0.839207 0.760579
vt 0.412065 0.569381
vt 0.804256 0.756385
vn -0.780817 -0.541056 -0.312383
vn -0.780816 -0.312379 -0.541060
vn -0.382825 -0.461910 -0.800052
vn -0.382827 -0.800051 -0.461911
vn -0.780815 -0.000001 -0.624762
vn -0.382824 -0.000001 -0.923821
vn -0.780816 0.312378 -0.541061
vn -0.382825 0.461909 -0.800053
vn -0.780817 0.541056 -0.312384
vn -0.382827 0.800050 -0.461913
vn -0.780819 0.624758 -0.000005
vn -0.382830 0.923819 -0.000003
vn -0.780821 0.541056 0.312374
vn -0.382833 0.800051 0.461906
vn -0.780822 0.312379 0.541051
vn -0.382835 0.461910 0.800048
vn -0.780823 0.000001 0.624753
vn -0.382835 0.000001 0.923817
vn -0.780822 -0.312378 0.541052
vn -0.382835 -0.461909 0.800049
vn -0.780821 -0.541055 0.312375
vn -0.382832 -0.800050 0.461908
vn -0.780819 -0.624758 -0.000004
vn -0.382830 -0.923819 -0.000001
vn 0.083097 -0.498272 -0.863030
vn 0.083095 -0.863031 -0.498269
vn 0.083098 -0.000001 -0.996541
vn 0.083097 0.498270 -0.863031
vn 0.083095 0.863030 -0.498271
vn 0.083092 0.996542 -0.000001
vn 0.083089 0.863031 0.498270
vn 0.083087 0.498272 0.863030
vn 0.083087 0.000001 0.996542
vn 0.083087 -0.498270 0.863032
vn 0.083089 -0.863030 0.498272
vn 0.083092 -0.996542 0.000002
vn 0.105245 -0.497225 -0.861215
vn 0.105242 -0.861217 -0.497222
vn 0.105245 -0.000001 -0.994446
vn 0.105245 0.497223 -0.861216
vn 0.105242 0.861216 -0.497224
vn 0.105240 0.994447 -0.000001
vn 0.105237 0.861217 0.497223
vn 0.105235 0.497225 0.861216
vn 0.105234 0.000001 0.994448
vn 0.105235 -0.497223 0.861217
vn 0.105237 -0.861216 0.497225
vn 0.105240 -0.994447 0.000002
vn -0.041588 -0.499568 -0.865276
vn -0.041590 -0.865277 -0.499567
vn -0.041587 -0.000001 -0.999135
vn -0.041588 0.499566 -0.865277
vn -0.041590 0.865275 -0.499569
vn -0.041593 0.999135 -0.000001
vn -0.041596 0.865277 0.499566
vn -0.041598 0.499568 0.865275
vn -0.041599 0.000001 0.999134
vn -0.041598 -0.499566 0.865276
vn -0.041596 -0.865275 0.499568
vn -0.041593 -0.999135 0.000001
vn -0.148366 -0.494467 -0.856440
vn -0.148368 -0.856441 -0.494466
vn -0.148365 -0.000001 -0.988933
vn -0.148366 0.494465 -0.856441
vn -0.148368 0.856439 -0.494468
vn -0.148371 0.988932 -0.000002
vn -0.148374 0.856441 0.494464
vn -0.148376 0.494467 0.856439
vn -0.148377 0.000001 0.988931
vn -0.148376 -0.494465 0.856440
vn -0.148374 -0.856439 0.494466
vn -0.148371 -0.988932 0.000000
vn -0.064099 -0.498973 -0.864244
vn -0.064101 -0.864245 -0.498971
vn -0.064098 -0.000001 -0.997944
vn -0.064099 0.498971 -0.864245
vn -0.064101 0.864244 -0.498973
vn -0.064104 0.997943 -0.000002
vn -0.064107 0.864245 0.498970
vn -0.064109 0.498973 0.864243
vn -0.064110 0.000001 0.997943
vn -0.064109 -0.498971 0.864244
vn -0.064107 -0.864244 0.498972
vn -0.064104 -0.997943 0.000001
vn 0.407230 -0.456665 -0.790962
vn 0.407228 -0.790965 -0.456661
vn 0.407231 -0.000001 -0.913325
vn 0.407230 0.456663 -0.790963
vn 0.407228 0.790964 -0.456662
vn 0.407226 0.913328 0.000001
vn 0.407223 0.790965 0.456665
vn 0.407221 0.456665 0.790967
vn 0.407220 0.000001 0.913330
vn 0.407221 -0.456663 0.790968
vn 0.407223 -0.790964 0.456667
vn 0.407226 -0.913328 0.000003
vn 0.780822 -0.312379 -0.541051
vn 0.780821 -0.541056 -0.312374
vn 0.780823 -0.000001 -0.624753
vn 0.780822 0.312378 -0.541051
vn 0.780821 0.541055 -0.312375
vn 0.780819 0.624757 0.000004
vn 0.780817 0.541056 0.312383
vn 0.780816 0.312379 0.541060
vn 0.780815 0.000001 0.624762
vn 0.780816 -0.312378 0.541060
vn 0.780817 -0.541055 0.312384
vn 0.780819 -0.624757 0.000005
vn -1.000000 -0.000000 -0.000006
vn 1.000000 0.000000 0.000006
s 1
g FoodMediumRUpperLeg
usemtl Eye_blinn1SG
f 1/1/1 2/2/2 14/14/3 13/13/4
f 2/2/2 3/3/5 15/15/6 14/14/3
f 3/3/5 4/4/7 16/16/8 15/15/6
f 4/4/7 5/5/9 17/17/10 16/16/8
f 5/5/9 6/6/11 18/18/12 17/17/10
f 6/6/11 7/7/13 19/19/14 18/18/12
f 7/7/13 8/8/15 20/20/16 19/19/14
f 8/8/15 9/9/17 21/21/18 20/20/16
f 9/9/17 10/10/19 22/22/20 21/21/18
f 10/10/19 11/11/21 23/23/22 22/22/20
f 11/11/21 12/12/23 24/24/24 23/23/22
f 12/12/23 1/1/1 13/13/4 24/24/24
f 13/13/4 14/14/3 26/26/25 25/25/26
f 14/14/3 15/15/6 27/27/27 26/26/25
f 15/15/6 16/16/8 28/28/28 27/27/27
f 16/16/8 17/17/10 29/29/29 28/28/28
f 17/17/10 18/18/12 30/30/30 29/29/29
f 18/18/12 19/19/14 31/31/31 30/30/30
f 19/19/14 20/20/16 32/32/32 31/31/31
f 20/20/16 21/21/18 33/33/33 32/32/32
f 21/21/18 22/22/20 34/34/34 33/33/33
f 22/22/20 23/23/22 35/35/35 34/34/34
f 23/23/22 24/24/24 36/36/36 35/35/35
f 24/24/24 13/13/4 25/25/26 36/36/36
f 25/37/26 26/38/25 38/51/37 37/50/38
f 26/38/25 27/39/27 39/52/39 38/51/37
f 27/39/27 28/40/28 40/53/40 39/52/39
f 28/40/28 29/41/29 41/54/41 40/53/40
f 29/41/29 30/42/30 42/55/42 41/54/41
f 30/42/30 31/43/31 43/56/43 42/55/42
f 31/43/31 32/44/32 44/57/44 43/56/43
f 32/44/32 33/45/33 45/58/45 44/57/44
f 33/45/33 34/46/34 46/59/46 45/58/45
f 34/46/34 35/47/35 47/60/47 46/59/46
f 35/47/35 36/48/36 48/61/48 47/60/47
f 36/48/36 25/49/26 37/62/38 48/61/48
f 37/50/38 38/51/37 50/64/49 49/63/50
f 38/51/37 39/52/39 51/65/51 50/64/49
f 39/52/39 40/53/40 52/66/52 51/65/51
f 40/53/40 41/54/41 53/67/53 52/66/52
f 41/54/41 42/55/42 54/68/54 53/67/53
f 42/55/42 43/56/43 55/69/55 54/68/54
f 43/56/43 44/57/44 56/70/56 55/69/55
f 44/57/44 45/58/45 57/71/57 56/70/56
f 45/58/45 46/59/46 58/72/58 57/71/57
f 46/59/46 47/60/47 59/73/59 58/72/58
f 47/60/47 48/61/48 60/74/60 59/73/59
f 48/61/48 37/62/38 49/75/50 60/74/60
f 49/63/50 50/64/49 62/77/61 61/76/62
f 50/64/49 51/65/51 63/78/63 62/77/61
f 51/65/51 52/66/52 64/79/64 63/78/63
f 52/66/52 53/67/53 65/80/65 64/79/64
f 53/67/53 54/68/54 66/81/66 65/80/65
f 54/68/54 55/69/55 67/82/67 66/81/66
f 55/69/55 56/70/56 68/83/68 67/82/67
f 56/70/56 57/71/57 69/84/69 68/83/68
f 57/71/57 58/72/58 70/85/70 69/84/69
f 58/72/58 59/73/59 71/86/71 70/85/70
f 59/73/59 60/74/60 72/87/72 71/86/71
f 60/74/60 49/75/50 61/88/62 72/87/72
f 61/76/62 62/77/61 74/90/73 73/89/74
f 62/77/61 63/78/63 75/91/75 74/90/73
f 63/78/63 64/79/64 76/92/76 75/91/75
f 64/79/64 65/80/65 77/93/77 76/92/76
f 65/80/65 66/81/66 78/94/78 77/93/77
f 66/81/66 67/82/67 79/95/79 78/94/78
f 67/82/67 68/83/68 80/96/80 79/95/79
f 68/83/68 69/84/69 81/97/81 80/96/80
f 69/84/69 70/85/70 82/98/82 81/97/81
f 70/85/70 71/86/71 83/99/83 82/98/82
f 71/86/71 72/87/72 84/100/84 83/99/83
f 72/87/72 61/88/62 73/101/74 84/100/84
f 73/112/74 74/111/73 86/123/85 85/124/86
f 74/111/73 75/110/75 87/122/87 86/123/85
f 75/110/75 76/109/76 88/121/88 87/122/87
f 76/109/76 77/108/77 89/120/89 88/121/88
f 77/108/77 78/107/78 90/119/90 89/120/89
f 78/107/78 79/106/79 91/118/91 90/119/90
f 79/106/79 80/105/80 92/117/92 91/118/91
f 80/105/80 81/104/81 93/116/93 92/117/92
f 81/104/81 82/103/82 94/115/94 93/116/93
f 82/103/82 83/102/83 95/114/95 94/115/94
f 83/102/83 84/113/84 96/125/96 95/114/95
f 84/113/84 73/112/74 85/124/86 96/125/96
f 85/124/86 86/123/85 98/135/97 97/136/98
f 86/123/85 87/122/87 99/134/99 98/135/97
f 87/122/87 88/121/88 100/133/100 99/134/99
f 88/121/88 89/120/89 101/132/101 100/133/100
f 89/120/89 90/119/90 102/131/102 101/132/101
f 90/119/90 91/118/91 103/130/103 102/131/102
f 91/118/91 92/117/92 104/129/104 103/130/103
f 92/117/92 93/116/93 105/128/105 104/129/104
f 93/116/93 94/115/94 106/127/106 105/128/105
f 94/115/94 95/114/95 107/126/107 106/127/106
f 95/114/95 96/125/96 108/137/108 107/126/107
f 96/125/96 85/124/86 97/136/98 108/137/108
f 2/2/2 1/1/1 109/138/109
f 3/3/5 2/2/2 109/138/109
f 4/4/7 3/3/5 109/138/109
f 5/5/9 4/4/7 109/138/109
f 6/6/11 5/5/9 109/138/109
f 7/7/13 6/6/11 109/138/109
f 8/8/15 7/7/13 109/138/109
f 9/9/17 8/8/15 109/138/109
f 10/10/19 9/9/17 109/138/109
f 11/11/21 10/10/19 109/138/109
f 12/12/23 11/11/21 109/138/109
f 1/1/1 12/12/23 109/138/109
f 97/136/98 98/135/97 110/139/110
f 98/135/97 99/134/99 110/139/110
f 99/134/99 100/133/100 110/139/110
f 100/133/100 101/132/101 110/139/110
f 101/132/101 102/131/102 110/139/110
f 102/131/102 103/130/103 110/139/110
f 103/130/103 104/129/104 110/139/110
f 104/129/104 105/128/105 110/139/110
f 105/128/105 106/127/106 110/139/110
f 106/127/106 107/126/107 110/139/110
f 107/126/107 108/137/108 110/139/110
f 108/137/108 97/136/98 110/139/110
