# This file uses centimeters as units for non-parametric coordinates.

mtllib CookieMediumLLowerLeg.mtl
g default
v 1.421811 -0.215040 -0.123815
v 1.421811 -0.124392 -0.214462
v 1.421811 -0.000565 -0.247641
v 1.421811 0.123261 -0.214462
v 1.421811 0.213908 -0.123814
v 1.421810 0.247087 0.000012
v 1.421810 0.213908 0.123839
v 1.421809 0.123260 0.214486
v 1.421809 -0.000566 0.247665
v 1.421809 -0.124393 0.214485
v 1.421810 -0.215040 0.123838
v 1.421810 -0.248219 0.000011
v 1.240516 -0.372045 -0.214463
v 1.240517 -0.215039 -0.371469
v 1.240517 -0.000565 -0.428937
v 1.240517 0.213909 -0.371468
v 1.240516 0.370914 -0.214462
v 1.240515 0.428382 0.000012
v 1.240515 0.370913 0.214486
v 1.240514 0.213907 0.371491
v 1.240514 -0.000567 0.428959
v 1.240514 -0.215041 0.371490
v 1.240515 -0.372046 0.214484
v 1.240515 -0.429514 0.000010
v 0.992863 -0.400586 -0.230943
v 0.992863 -0.231517 -0.400011
v 0.992864 -0.000565 -0.461894
v 0.992863 0.230387 -0.400010
v 0.992863 0.399455 -0.230941
v 0.992862 0.461338 0.000011
v 0.992861 0.399455 0.230963
v 0.992861 0.230385 0.400032
v 0.992861 -0.000567 0.461915
v 0.992861 -0.231519 0.400031
v 0.992861 -0.400587 0.230962
v 0.992862 -0.462470 0.000010
v 0.634093 -0.308546 -0.177804
v 0.634093 -0.178378 -0.307972
v 0.634093 -0.000565 -0.355616
v 0.634093 0.177247 -0.307971
v 0.634093 0.307415 -0.177803
v 0.634092 0.355059 0.000010
v 0.634092 0.307414 0.177822
v 0.634091 0.177246 0.307990
v 0.634091 -0.000567 0.355635
v 0.634091 -0.178379 0.307989
v 0.634092 -0.308547 0.177821
v 0.634092 -0.356191 0.000009
v 0.134517 -0.308405 -0.177724
v 0.134517 -0.178296 -0.307832
v 0.134517 -0.000565 -0.355454
v 0.134517 0.177166 -0.307831
v 0.134517 0.307273 -0.177723
v 0.134516 0.354896 0.000008
v 0.134515 0.307273 0.177739
v 0.134515 0.177164 0.307847
v 0.134515 -0.000567 0.355469
v 0.134515 -0.178297 0.307846
v 0.134515 -0.308405 0.177738
v 0.134516 -0.356028 0.000007
v -0.365059 -0.414695 -0.239093
v -0.365059 -0.239663 -0.414124
v -0.365058 -0.000565 -0.478190
v -0.365059 0.238533 -0.414123
v -0.365059 0.413564 -0.239091
v -0.365060 0.477630 0.000007
v -0.365061 0.413563 0.239105
v -0.365061 0.238531 0.414136
v -0.365062 -0.000567 0.478201
v -0.365061 -0.239664 0.414135
v -0.365061 -0.414696 0.239103
v -0.365060 -0.478762 0.000005
v -0.717302 -0.493993 -0.284877
v -0.717302 -0.285446 -0.493423
v -0.717301 -0.000565 -0.569756
v -0.717302 0.284316 -0.493422
v -0.717302 0.492862 -0.284875
v -0.717303 0.569195 0.000006
v -0.717304 0.492861 0.284886
v -0.717305 0.284314 0.493433
v -0.717305 -0.000567 0.569766
v -0.717305 -0.285447 0.493432
v -0.717304 -0.493994 0.284884
v -0.717303 -0.570327 0.000004
v -0.985946 -0.454155 -0.261877
v -0.985945 -0.262445 -0.453586
v -0.985945 -0.000565 -0.523756
v -0.985945 0.261315 -0.453585
v -0.985946 0.453024 -0.261875
v -0.985947 0.523194 0.000005
v -0.985948 0.453023 0.261885
v -0.985948 0.261313 0.453594
v -0.985949 -0.000567 0.523764
v -0.985948 -0.262447 0.453593
v -0.985948 -0.454156 0.261883
v -0.985947 -0.524326 0.000003
v -1.062545 -0.262446 -0.151193
v -1.062545 -0.151762 -0.261877
v -1.062545 -0.000565 -0.302389
v -1.062545 0.150631 -0.261876
v -1.062545 0.261315 -0.151192
v -1.062546 0.301827 0.000004
v -1.062546 0.261314 0.151201
v -1.062547 0.150630 0.261884
v -1.062547 -0.000566 0.302397
v -1.062547 -0.151763 0.261884
v -1.062546 -0.262446 0.151200
v -1.062546 -0.302959 0.000003
v 1.488169 -0.000566 0.000012
v -1.091455 -0.000566 0.000004
vt 0.442334 0.556099
vt 0.429541 0.543306
vt 0.412065 0.538623
vt 0.394589 0.543306
vt 0.381796 0.556099
vt 0.377113 0.573575
vt 0.381796 0.591051
vt 0.394589 0.603844
vt 0.412065 0.608527
vt 0.429541 0.603844
vt 0.442334 0.591051
vt 0.447016 0.573575
vt 0.472603 0.538623
vt 0.447016 0.513037
vt 0.412065 0.503672
vt 0.377113 0.513037
vt 0.351527 0.538623
vt 0.342161 0.573575
vt 0.351527 0.608527
vt 0.377113 0.634113
vt 0.412065 0.643478
vt 0.447016 0.634113
vt 0.472603 0.608527
vt 0.481968 0.573575
vt 0.502872 0.521147
vt 0.464492 0.482768
vt 0.412065 0.468720
vt 0.359637 0.482768
vt 0.321258 0.521147
vt 0.307210 0.573575
vt 0.321258 0.626002
vt 0.359637 0.664382
vt 0.412065 0.678430
vt 0.464492 0.664382
vt 0.502872 0.626002
vt 0.516920 0.573575
vt 0.414762 0.578914
vt 0.449780 0.578914
vt 0.484798 0.578914
vt 0.519815 0.578914
vt 0.554833 0.578914
vt 0.589850 0.578914
vt 0.624868 0.578914
vt 0.659886 0.578914
vt 0.694903 0.578914
vt 0.729921 0.578914
vt 0.764939 0.578914
vt 0.799956 0.578914
vt 0.834974 0.578914
vt 0.414762 0.622274
vt 0.449780 0.622274
vt 0.484798 0.622274
vt 0.519815 0.622274
vt 0.554833 0.622274
vt 0.589850 0.622274
vt 0.624868 0.622274
vt 0.659886 0.622274
vt 0.694903 0.622274
vt 0.729921 0.622274
vt 0.764939 0.622274
vt 0.799956 0.622274
vt 0.834974 0.622274
vt 0.414762 0.665634
vt 0.449780 0.665634
vt 0.484798 0.665634
vt 0.519815 0.665634
vt 0.554833 0.665634
vt 0.589850 0.665634
vt 0.624868 0.665634
vt 0.659886 0.665634
vt 0.694903 0.665634
vt 0.729921 0.665634
vt 0.764939 0.665634
vt 0.799956 0.665634
vt 0.834974 0.665634
vt 0.414762 0.708993
vt 0.449780 0.708993
vt 0.484798 0.708993
vt 0.519815 0.708993
vt 0.554833 0.708993
vt 0.589850 0.708993
vt 0.624868 0.708993
vt 0.659886 0.708993
vt 0.694903 0.708993
vt 0.729921 0.708993
vt 0.764939 0.708993
vt 0.799956 0.708993
vt 0.834974 0.708993
vt 0.414762 0.752353
vt 0.449780 0.752353
vt 0.484798 0.752353
vt 0.519815 0.752353
vt 0.554833 0.752353
vt 0.589850 0.752353
vt 0.624868 0.752353
vt 0.659886 0.752353
vt 0.694903 0.752353
vt 0.729921 0.752353
vt 0.764939 0.752353
vt 0.799956 0.752353
vt 0.834974 0.752353
vt 0.895063 0.708151
vt 0.856683 0.669772
vt 0.804256 0.655724
vt 0.751828 0.669772
vt 0.713449 0.708151
vt 0.699401 0.760579
vt 0.713449 0.813006
vt 0.751828 0.851386
vt 0.804256 0.865434
vt 0.856683 0.851386
vt 0.895063 0.813006
vt 0.909111 0.760579
vt 0.864794 0.725627
vt 0.839207 0.700041
vt 0.804256 0.690676
vt 0.769304 0.700041
vt 0.743718 0.725627
vt 0.734353 0.760579
vt 0.743718 0.795531
vt 0.769304 0.821117
vt 0.804256 0.830482
vt 0.839207 0.821117
vt 0.864794 0.795531
vt 0.874159 0.760579
vt 0.834525 0.743103
vt 0.821732 0.730310
vt 0.804256 0.725627
vt 0.786780 0.730310
vt 0.773987 0.743103
vt 0.769304 0.760579
vt 0.773987 0.778055
vt 0.786780 0.790848
vt 0.804256 0.795531
vt 0.821732 0.790848
vt 0.834525 0.778055
vt 0.839207 0.760579
vt 0.412065 0.569381
vt 0.804256 0.756385
vn 0.780820 -0.541055 -0.312378
vn 0.382831 -0.800050 -0.461910
vn 0.382832 -0.461908 -0.800050
vn 0.780820 -0.312377 -0.541054
vn 0.382833 0.000002 -0.923818
vn 0.780821 0.000001 -0.624755
vn 0.382832 0.461911 -0.800049
vn 0.780821 0.312380 -0.541053
vn 0.382831 0.800051 -0.461907
vn 0.780820 0.541056 -0.312375
vn 0.382830 0.923819 0.000003
vn 0.780819 0.624758 0.000004
vn 0.382828 0.800049 0.461913
vn 0.780818 0.541055 0.312383
vn 0.382827 0.461908 0.800053
vn 0.780817 0.312378 0.541059
vn 0.382827 -0.000002 0.923820
vn 0.780817 -0.000001 0.624760
vn 0.382827 -0.461911 0.800051
vn 0.780817 -0.312380 0.541058
vn 0.382828 -0.800052 0.461909
vn 0.780818 -0.541057 0.312380
vn 0.382830 -0.923819 -0.000001
vn 0.780819 -0.624758 0.000001
vn -0.108550 -0.860907 -0.497047
vn -0.108549 -0.497044 -0.860909
vn -0.108548 0.000002 -0.994091
vn -0.108549 0.497047 -0.860907
vn -0.108550 0.860909 -0.497044
vn -0.108552 0.994091 0.000002
vn -0.108553 0.860907 0.497047
vn -0.108554 0.497044 0.860909
vn -0.108555 -0.000002 0.994091
vn -0.108555 -0.497047 0.860907
vn -0.108553 -0.860909 0.497043
vn -0.108551 -0.994091 -0.000002
vn -0.136232 -0.857950 -0.495341
vn -0.136231 -0.495337 -0.857953
vn -0.136231 0.000002 -0.990677
vn -0.136231 0.495340 -0.857951
vn -0.136232 0.857952 -0.495337
vn -0.136234 0.990677 0.000001
vn -0.136236 0.857950 0.495339
vn -0.136237 0.495337 0.857952
vn -0.136237 -0.000002 0.990676
vn -0.136237 -0.495340 0.857950
vn -0.136235 -0.857952 0.495337
vn -0.136234 -0.990677 -0.000002
vn 0.133579 -0.858263 -0.495521
vn 0.133580 -0.495517 -0.858265
vn 0.133580 0.000002 -0.991038
vn 0.133580 0.495521 -0.858263
vn 0.133578 0.858266 -0.495517
vn 0.133577 0.991039 0.000002
vn 0.133575 0.858264 0.495521
vn 0.133574 0.495518 0.858266
vn 0.133574 -0.000002 0.991039
vn 0.133574 -0.495521 0.858264
vn 0.133575 -0.858265 0.495518
vn 0.133577 -0.991039 -0.000002
vn 0.244973 -0.839637 -0.484766
vn 0.244975 -0.484763 -0.839638
vn 0.244975 0.000002 -0.969529
vn 0.244975 0.484767 -0.839636
vn 0.244973 0.839639 -0.484763
vn 0.244972 0.969530 0.000003
vn 0.244970 0.839637 0.484768
vn 0.244969 0.484764 0.839640
vn 0.244969 -0.000002 0.969531
vn 0.244969 -0.484767 0.839638
vn 0.244970 -0.839639 0.484765
vn 0.244972 -0.969530 -0.000001
vn 0.067212 -0.864066 -0.498871
vn 0.067213 -0.498868 -0.864068
vn 0.067213 0.000002 -0.997739
vn 0.067213 0.498871 -0.864066
vn 0.067211 0.864068 -0.498868
vn 0.067210 0.997739 0.000002
vn 0.067208 0.864066 0.498871
vn 0.067207 0.498868 0.864068
vn 0.067207 -0.000002 0.997739
vn 0.067207 -0.498871 0.864066
vn 0.067208 -0.864068 0.498868
vn 0.067210 -0.997739 -0.000002
vn -0.501282 -0.749356 -0.432644
vn -0.501281 -0.432640 -0.749359
vn -0.501281 0.000002 -0.865285
vn -0.501281 0.432643 -0.749358
vn -0.501283 0.749358 -0.432642
vn -0.501284 0.865283 0.000000
vn -0.501285 0.749356 0.432641
vn -0.501286 0.432640 0.749356
vn -0.501287 -0.000002 0.865281
vn -0.501286 -0.432643 0.749354
vn -0.501285 -0.749358 0.432638
vn -0.501284 -0.865283 -0.000003
vn -0.963042 -0.233265 -0.134679
vn -0.963041 -0.134675 -0.233269
vn -0.963041 0.000001 -0.269354
vn -0.963041 0.134676 -0.233268
vn -0.963042 0.233265 -0.134678
vn -0.963042 0.269351 -0.000003
vn -0.963042 0.233265 0.134673
vn -0.963043 0.134675 0.233262
vn -0.963043 -0.000001 0.269348
vn -0.963043 -0.134676 0.233262
vn -0.963042 -0.233265 0.134672
vn -0.963042 -0.269351 -0.000004
vn 1.000000 0.000000 0.000003
vn -1.000000 -0.000000 -0.000003
s 1
g FoodMediumLLowerLeg
usemtl Eye_blinn1SG
f 1/1/1 13/13/2 14/14/3 2/2/4
f 2/2/4 14/14/3 15/15/5 3/3/6
f 3/3/6 15/15/5 16/16/7 4/4/8
f 4/4/8 16/16/7 17/17/9 5/5/10
f 5/5/10 17/17/9 18/18/11 6/6/12
f 6/6/12 18/18/11 19/19/13 7/7/14
f 7/7/14 19/19/13 20/20/15 8/8/16
f 8/8/16 20/20/15 21/21/17 9/9/18
f 9/9/18 21/21/17 22/22/19 10/10/20
f 10/10/20 22/22/19 23/23/21 11/11/22
f 11/11/22 23/23/21 24/24/23 12/12/24
f 12/12/24 24/24/23 13/13/2 1/1/1
f 13/13/2 25/25/25 26/26/26 14/14/3
f 14/14/3 26/26/26 27/27/27 15/15/5
f 15/15/5 27/27/27 28/28/28 16/16/7
f 16/16/7 28/28/28 29/29/29 17/17/9
f 17/17/9 29/29/29 30/30/30 18/18/11
f 18/18/11 30/30/30 31/31/31 19/19/13
f 19/19/13 31/31/31 32/32/32 20/20/15
f 20/20/15 32/32/32 33/33/33 21/21/17
f 21/21/17 33/33/33 34/34/34 22/22/19
f 22/22/19 34/34/34 35/35/35 23/23/21
f 23/23/21 35/35/35 36/36/36 24/24/23
f 24/24/23 36/36/36 25/25/25 13/13/2
f 25/37/25 37/50/37 38/51/38 26/38/26
f 26/38/26 38/51/38 39/52/39 27/39/27
f 27/39/27 39/52/39 40/53/40 28/40/28
f 28/40/28 40/53/40 41/54/41 29/41/29
f 29/41/29 41/54/41 42/55/42 30/42/30
f 30/42/30 42/55/42 43/56/43 31/43/31
f 31/43/31 43/56/43 44/57/44 32/44/32
f 32/44/32 44/57/44 45/58/45 33/45/33
f 33/45/33 45/58/45 46/59/46 34/46/34
f 34/46/34 46/59/46 47/60/47 35/47/35
f 35/47/35 47/60/47 48/61/48 36/48/36
f 36/48/36 48/61/48 37/62/37 25/49/25
f 37/50/37 49/63/49 50/64/50 38/51/38
f 38/51/38 50/64/50 51/65/51 39/52/39
f 39/52/39 51/65/51 52/66/52 40/53/40
f 40/53/40 52/66/52 53/67/53 41/54/41
f 41/54/41 53/67/53 54/68/54 42/55/42
f 42/55/42 54/68/54 55/69/55 43/56/43
f 43/56/43 55/69/55 56/70/56 44/57/44
f 44/57/44 56/70/56 57/71/57 45/58/45
f 45/58/45 57/71/57 58/72/58 46/59/46
f 46/59/46 58/72/58 59/73/59 47/60/47
f 47/60/47 59/73/59 60/74/60 48/61/48
f 48/61/48 60/74/60 49/75/49 37/62/37
f 49/63/49 61/76/61 62/77/62 50/64/50
f 50/64/50 62/77/62 63/78/63 51/65/51
f 51/65/51 63/78/63 64/79/64 52/66/52
f 52/66/52 64/79/64 65/80/65 53/67/53
f 53/67/53 65/80/65 66/81/66 54/68/54
f 54/68/54 66/81/66 67/82/67 55/69/55
f 55/69/55 67/82/67 68/83/68 56/70/56
f 56/70/56 68/83/68 69/84/69 57/71/57
f 57/71/57 69/84/69 70/85/70 58/72/58
f 58/72/58 70/85/70 71/86/71 59/73/59
f 59/73/59 71/86/71 72/87/72 60/74/60
f 60/74/60 72/87/72 61/88/61 49/75/49
f 61/76/61 73/89/73 74/90/74 62/77/62
f 62/77/62 74/90/74 75/91/75 63/78/63
f 63/78/63 75/91/75 76/92/76 64/79/64
f 64/79/64 76/92/76 77/93/77 65/80/65
f 65/80/65 77/93/77 78/94/78 66/81/66
f 66/81/66 78/94/78 79/95/79 67/82/67
f 67/82/67 79/95/79 80/96/80 68/83/68
f 68/83/68 80/96/80 81/97/81 69/84/69
f 69/84/69 81/97/81 82/98/82 70/85/70
f 70/85/70 82/98/82 83/99/83 71/86/71
f 71/86/71 83/99/83 84/100/84 72/87/72
f 72/87/72 84/100/84 73/101/73 61/88/61
f 73/112/73 85/124/85 86/123/86 74/111/74
f 74/111/74 86/123/86 87/122/87 75/110/75
f 75/110/75 87/122/87 88/121/88 76/109/76
f 76/109/76 88/121/88 89/120/89 77/108/77
f 77/108/77 89/120/89 90/119/90 78/107/78
f 78/107/78 90/119/90 91/118/91 79/106/79
f 79/106/79 91/118/91 92/117/92 80/105/80
f 80/105/80 92/117/92 93/116/93 81/104/81
f 81/104/81 93/116/93 94/115/94 82/103/82
f 82/103/82 94/115/94 95/114/95 83/102/83
f 83/102/83 95/114/95 96/125/96 84/113/84
f 84/113/84 96/125/96 85/124/85 73/112/73
f 85/124/85 97/136/97 98/135/98 86/123/86
f 86/123/86 98/135/98 99/134/99 87/122/87
f 87/122/87 99/134/99 100/133/100 88/121/88
f 88/121/88 100/133/100 101/132/101 89/120/89
f 89/120/89 101/132/101 102/131/102 90/119/90
f 90/119/90 102/131/102 103/130/103 91/118/91
f 91/118/91 103/130/103 104/129/104 92/117/92
f 92/117/92 104/129/104 105/128/105 93/116/93
f 93/116/93 105/128/105 106/127/106 94/115/94
f 94/115/94 106/127/106 107/126/107 95/114/95
f 95/114/95 107/126/107 108/137/108 96/125/96
f 96/125/96 108/137/108 97/136/97 85/124/85
f 2/2/4 109/138/109 1/1/1
f 3/3/6 109/138/109 2/2/4
f 4/4/8 109/138/109 3/3/6
f 5/5/10 109/138/109 4/4/8
f 6/6/12 109/138/109 5/5/10
f 7/7/14 109/138/109 6/6/12
f 8/8/16 109/138/109 7/7/14
f 9/9/18 109/138/109 8/8/16
f 10/10/20 109/138/109 9/9/18
f 11/11/22 109/138/109 10/10/20
f 12/12/24 109/138/109 11/11/22
f 1/1/1 109/138/109 12/12/24
f 97/136/97 110/139/110 98/135/98
f 98/135/98 110/139/110 99/134/99
f 99/134/99 110/139/110 100/133/100
f 100/133/100 110/139/110 101/132/101
f 101/132/101 110/139/110 102/131/102
f 102/131/102 110/139/110 103/130/103
f 103/130/103 110/139/110 104/129/104
f 104/129/104 110/139/110 105/128/105
f 105/128/105 110/139/110 106/127/106
f 106/127/106 110/139/110 107/126/107
f 107/126/107 110/139/110 108/137/108
f 108/137/108 110/139/110 97/136/97
