# This file uses centimeters as units for non-parametric coordinates.

mtllib FlooftyRLowerCanine.mtl
g default
v -0.277452 0.789783 0.100627
v 0.209683 0.789783 0.089753
v -0.282599 0.789783 -0.129996
v 0.204536 0.789783 -0.140870
v 0.285133 0.690714 0.123433
v -0.033208 0.810656 0.125525
v -0.344099 0.810656 -0.013255
v 0.271183 0.810656 -0.026988
v -0.039710 0.810656 -0.165767
v -0.358049 0.690714 -0.163677
v 0.278408 0.690714 -0.177883
v -0.351324 0.690714 0.137640
v -0.031868 0.692608 0.185473
v -0.036458 0.847307 -0.020122
v -0.041047 0.692608 -0.225716
v 0.397810 0.692608 -0.029815
v -0.470728 0.692608 -0.010428
v -0.031719 -0.007238 0.192156
v -0.361799 -0.007238 0.142888
v 0.295831 -0.007238 0.128209
v -0.041197 -0.007238 -0.232399
v -0.368749 -0.007238 -0.168452
v 0.288883 -0.007238 -0.183132
v 0.411926 -0.007238 -0.030130
v -0.484844 -0.007238 -0.010113
v -0.319899 0.757504 0.121895
v -0.177910 0.803758 0.118725
v -0.321398 0.803758 0.054673
v -0.034686 0.838110 0.059286
v -0.204188 0.838110 -0.016377
v 0.251535 0.803758 0.041885
v 0.131270 0.838110 -0.023865
v -0.038232 0.838110 -0.099529
v 0.248482 0.803758 -0.094916
v 0.104994 0.803758 -0.158968
v -0.324454 0.803758 -0.082128
v -0.183965 0.803758 -0.152518
v -0.325953 0.757504 -0.149349
v -0.040599 0.765078 -0.205668
v -0.214282 0.691661 -0.208084
v 0.246984 0.757504 -0.162138
v 0.132800 0.691661 -0.215831
v 0.366915 0.691661 -0.111326
v 0.355464 0.765078 -0.028870
v 0.370584 0.691661 0.052993
v -0.439831 0.691661 0.071082
v -0.428380 0.765078 -0.011373
v -0.443499 0.691661 -0.093236
v -0.031719 0.395395 0.192156
v -0.361799 0.395395 0.142888
v -0.211390 -0.007238 0.182008
v 0.295831 0.395395 0.128209
v 0.147317 -0.007238 0.174001
v -0.368749 0.395395 -0.168452
v -0.041197 0.395395 -0.232399
v -0.220235 -0.007238 -0.214244
v 0.288883 0.395395 -0.183132
v 0.138472 -0.007238 -0.222250
v 0.411926 0.395395 -0.030130
v 0.383929 -0.007238 0.055448
v 0.380140 -0.007238 -0.114374
v -0.484844 0.395395 -0.010113
v -0.456845 -0.007238 -0.095692
v -0.453056 -0.007238 0.074131
v 0.141366 0.691661 0.167840
v -0.032317 0.765078 0.165425
v 0.253037 0.757504 0.109106
v 0.111050 0.803758 0.112275
v -0.205719 0.691661 0.175589
v 0.123507 0.761292 0.149361
v -0.188701 0.761292 0.156330
v -0.190913 0.829454 0.057267
v 0.121296 0.829454 0.050298
v 0.117997 0.829454 -0.097510
v -0.194212 0.829454 -0.090541
v -0.196423 0.761292 -0.189604
v 0.115786 0.761292 -0.196573
v 0.327243 0.761292 -0.102181
v 0.330542 0.761292 0.045627
v -0.400159 0.761292 0.061937
v -0.403458 0.761292 -0.085871
v -0.211390 0.395395 0.182008
v 0.147317 0.395395 0.174001
v -0.220235 0.395395 -0.214244
v 0.138472 0.395395 -0.222250
v 0.383929 0.395395 0.055448
v 0.380140 0.395395 -0.114374
v -0.456845 0.395395 -0.095692
v -0.453056 0.395395 0.074131
vt -0.915034 0.487405
vt -0.915242 0.495665
vt -0.923271 0.494687
vt -0.923172 0.487384
vt -0.915886 0.502691
vt -0.923814 0.500931
vt -0.927893 0.498923
vt -0.928391 0.494023
vt -0.928355 0.487402
vt -0.915951 0.472189
vt -0.915343 0.479179
vt -0.923384 0.480059
vt -0.923954 0.473908
vt -0.928306 0.480751
vt -0.928211 0.475801
vt -0.932391 0.480458
vt -0.931869 0.473902
vt -0.932400 0.487410
vt -0.935916 0.487436
vt -0.935937 0.480081
vt -0.935942 0.473057
vt -0.932386 0.494358
vt -0.931725 0.500963
vt -0.935891 0.501815
vt -0.935895 0.494790
vt -0.939440 0.494414
vt -0.939433 0.487462
vt -0.939965 0.500970
vt -0.943621 0.499071
vt -0.943526 0.494121
vt -0.943476 0.487470
vt -0.939447 0.480514
vt -0.940107 0.473909
vt -0.943440 0.480850
vt -0.943939 0.475949
vt -0.948560 0.480185
vt -0.948019 0.473941
vt -0.948660 0.487487
vt -0.956798 0.487467
vt -0.956590 0.479207
vt -0.955947 0.472181
vt -0.948449 0.494813
vt -0.947878 0.500963
vt -0.955880 0.502683
vt -0.956489 0.495693
vt -0.917908 0.511779
vt -0.955036 0.507801
vt -0.946694 0.505433
vt -0.926950 0.508481
vt -0.941431 0.501718
vt -0.932387 0.504046
vt -0.916815 0.507796
vt -0.925127 0.505280
vt -0.930142 0.501417
vt -0.953925 0.463093
vt -0.916797 0.467071
vt -0.925139 0.469439
vt -0.944882 0.466391
vt -0.930401 0.473154
vt -0.939445 0.470825
vt -0.955019 0.467076
vt -0.946706 0.469592
vt -0.941691 0.473456
vt -0.902847 0.478676
vt -0.902552 0.487428
vt -0.903405 0.471193
vt -0.888517 0.470467
vt -0.888004 0.478195
vt -0.887707 0.487298
vt -0.902740 0.496204
vt -0.903262 0.503722
vt -0.887820 0.496439
vt -0.888225 0.504237
vt -0.969092 0.478667
vt -0.968571 0.471150
vt -0.969280 0.487444
vt -0.984124 0.487573
vt -0.984012 0.478433
vt -0.983607 0.470634
vt -0.968985 0.496196
vt -0.968427 0.503679
vt -0.983316 0.504404
vt -0.983828 0.496676
vt -0.903806 0.509198
vt -0.967392 0.513384
vt -0.888641 0.509854
vt -0.888980 0.514186
vt -0.967884 0.509128
vt -0.982857 0.509968
vt -0.968025 0.465674
vt -0.904440 0.461488
vt -0.983191 0.465018
vt -0.982851 0.460685
vt -0.903949 0.465744
vt -0.888976 0.464904
vt -0.939278 0.504548
vt -0.954069 0.511806
vt -0.945036 0.508787
vt -0.932554 0.470324
vt -0.917763 0.463065
vt -0.926796 0.466085
vt -0.967513 0.461393
vt -0.889342 0.460604
vt -0.904320 0.513478
vt -0.982489 0.514267
vn 0.022262 0.069914 0.997305
vn 0.192903 0.074744 0.978367
vn 0.172927 0.448879 0.876700
vn 0.019959 0.447336 0.894143
vn 0.449273 0.092100 0.888635
vn 0.381255 0.502149 0.776203
vn 0.257427 0.799220 0.543120
vn 0.134309 0.816840 0.561011
vn 0.012719 0.821612 0.569905
vn -0.409178 0.092101 0.907795
vn -0.149055 0.074744 0.986000
vn -0.133639 0.448882 0.883541
vn -0.346243 0.502151 0.792439
vn -0.109145 0.816841 0.566443
vn -0.232932 0.799225 0.554059
vn -0.112342 0.961417 0.251109
vn -0.290811 0.907015 0.304554
vn 0.005491 0.969252 0.246009
vn 0.000000 1.000000 -0.000001
vn -0.124604 0.992203 0.002779
vn -0.331443 0.943446 0.007396
vn 0.123433 0.961417 0.245850
vn 0.304107 0.907017 0.291273
vn 0.331438 0.943448 -0.007399
vn 0.124600 0.992203 -0.002781
vn 0.112340 0.961417 -0.251111
vn -0.005491 0.969252 -0.246009
vn 0.290809 0.907016 -0.304551
vn 0.232933 0.799224 -0.554060
vn 0.109144 0.816843 -0.566440
vn -0.012720 0.821614 -0.569902
vn -0.123431 0.961417 -0.245849
vn -0.304113 0.907012 -0.291280
vn -0.134308 0.816840 -0.561011
vn -0.257423 0.799223 -0.543117
vn -0.172927 0.448881 -0.876699
vn -0.381255 0.502150 -0.776202
vn -0.019958 0.447337 -0.894143
vn -0.022260 0.069912 -0.997305
vn -0.192902 0.074744 -0.978367
vn -0.449272 0.092101 -0.888635
vn 0.133640 0.448879 -0.883543
vn 0.346243 0.502147 -0.792442
vn 0.409169 0.092099 -0.907799
vn 0.149055 0.074742 -0.986000
vn 0.990109 0.138551 -0.022098
vn 0.775349 0.121209 -0.619792
vn 0.592770 0.637617 -0.492004
vn 0.712183 0.701814 -0.015899
vn 0.802228 0.121206 0.584584
vn 0.614129 0.637619 0.465066
vn -0.990108 0.138554 0.022099
vn -0.775341 0.121210 0.619802
vn -0.592768 0.637618 0.492005
vn -0.712180 0.701817 0.015898
vn -0.802226 0.121209 -0.584586
vn -0.614129 0.637617 -0.465070
vn -0.148078 0.010181 0.988923
vn 0.022315 0.009509 0.999706
vn -0.408709 0.012777 0.912575
vn -0.407622 0.000000 0.913151
vn -0.147623 0.000000 0.989044
vn 0.022315 0.000000 0.999751
vn 0.192057 0.010181 0.981331
vn 0.449019 0.012776 0.893431
vn 0.191608 0.000000 0.981471
vn 0.447960 0.000000 0.894054
vn -0.192058 0.010181 -0.981331
vn -0.449020 0.012777 -0.893430
vn -0.022313 0.009509 -0.999706
vn -0.022315 0.000000 -0.999751
vn -0.191610 0.000000 -0.981471
vn -0.447960 0.000000 -0.894053
vn 0.148078 0.010181 -0.988923
vn 0.408701 0.012777 -0.912579
vn 0.407615 0.000000 -0.913154
vn 0.147623 0.000000 -0.989044
vn 0.807042 0.017249 0.590243
vn 0.999552 0.019977 -0.022306
vn 0.806455 0.000000 0.591295
vn 0.999751 0.000000 -0.022307
vn 0.779907 0.017250 -0.625658
vn 0.779274 0.000000 -0.626684
vn -0.807041 0.017249 -0.590243
vn -0.999552 0.019978 0.022306
vn -0.806455 0.000000 -0.591295
vn -0.999751 0.000000 0.022307
vn -0.779898 0.017250 0.625669
vn -0.779265 0.000000 0.626694
s 1
g GrumpusRLowerCanine
usemtl lambert12SG
f 13/1/1 65/2/2 70/3/3 66/4/4
f 65/2/2 5/5/5 67/6/6 70/3/3
f 70/3/3 67/6/6 2/7/7 68/8/8
f 66/4/4 70/3/3 68/8/8 6/9/9
f 12/10/10 69/11/11 71/12/12 26/13/13
f 69/11/11 13/1/1 66/4/4 71/12/12
f 71/12/12 66/4/4 6/9/9 27/14/14
f 26/13/13 71/12/12 27/14/14 1/15/15
f 1/15/15 27/14/14 72/16/16 28/17/17
f 27/14/14 6/9/9 29/18/18 72/16/16
f 72/16/16 29/18/18 14/19/19 30/20/20
f 28/17/17 72/16/16 30/20/20 7/21/21
f 6/9/9 68/8/8 73/22/22 29/18/18
f 68/8/8 2/7/7 31/23/23 73/22/22
f 73/22/22 31/23/23 8/24/24 32/25/25
f 29/18/18 73/22/22 32/25/25 14/19/19
f 14/19/19 32/25/25 74/26/26 33/27/27
f 32/25/25 8/24/24 34/28/28 74/26/26
f 74/26/26 34/28/28 4/29/29 35/30/30
f 33/27/27 74/26/26 35/30/30 9/31/31
f 7/21/21 30/20/20 75/32/32 36/33/33
f 30/20/20 14/19/19 33/27/27 75/32/32
f 75/32/32 33/27/27 9/31/31 37/34/34
f 36/33/33 75/32/32 37/34/34 3/35/35
f 3/35/35 37/34/34 76/36/36 38/37/37
f 37/34/34 9/31/31 39/38/38 76/36/36
f 76/36/36 39/38/38 15/39/39 40/40/40
f 38/37/37 76/36/36 40/40/40 10/41/41
f 9/31/31 35/30/30 77/42/42 39/38/38
f 35/30/30 4/29/29 41/43/43 77/42/42
f 77/42/42 41/43/43 11/44/44 42/45/45
f 39/38/38 77/42/42 42/45/45 15/39/39
f 16/97/46 43/47/47 78/48/48 44/98/49
f 43/47/47 11/44/44 41/43/43 78/48/48
f 78/48/48 41/43/43 4/29/29 34/50/28
f 44/98/49 78/48/48 34/50/28 8/96/24
f 5/5/5 45/52/50 79/53/51 67/6/6
f 45/52/50 16/46/46 44/49/49 79/53/51
f 79/53/51 44/49/49 8/51/24 31/54/23
f 67/6/6 79/53/51 31/54/23 2/7/7
f 17/100/52 46/56/53 80/57/54 47/101/55
f 46/56/53 12/10/10 26/13/13 80/57/54
f 80/57/54 26/13/13 1/15/15 28/59/17
f 47/101/55 80/57/54 28/59/17 7/99/21
f 10/41/41 48/61/56 81/62/57 38/37/37
f 48/61/56 17/55/52 47/58/55 81/62/57
f 81/62/57 47/58/55 7/60/21 36/63/33
f 38/37/37 81/62/57 36/63/33 3/35/35
f 13/1/1 69/11/11 82/64/58 49/65/59
f 69/11/11 12/10/10 50/66/60 82/64/58
f 82/64/58 50/66/60 19/67/61 51/68/62
f 49/65/59 82/64/58 51/68/62 18/69/63
f 5/5/5 65/2/2 83/70/64 52/71/65
f 65/2/2 13/1/1 49/65/59 83/70/64
f 83/70/64 49/65/59 18/69/63 53/72/66
f 52/71/65 83/70/64 53/72/66 20/73/67
f 10/41/41 40/40/40 84/74/68 54/75/69
f 40/40/40 15/39/39 55/76/70 84/74/68
f 84/74/68 55/76/70 21/77/71 56/78/72
f 54/75/69 84/74/68 56/78/72 22/79/73
f 15/39/39 42/45/45 85/80/74 55/76/70
f 42/45/45 11/44/44 57/81/75 85/80/74
f 85/80/74 57/81/75 23/82/76 58/83/77
f 55/76/70 85/80/74 58/83/77 21/77/71
f 16/46/46 45/52/50 86/84/78 59/104/79
f 45/52/50 5/5/5 52/71/65 86/84/78
f 86/84/78 52/71/65 20/73/67 60/86/80
f 59/104/79 86/84/78 60/86/80 24/87/81
f 11/44/44 43/47/47 87/88/82 57/81/75
f 43/47/47 16/97/46 59/85/79 87/88/82
f 87/88/82 59/85/79 24/105/81 61/89/83
f 57/81/75 87/88/82 61/89/83 23/82/76
f 17/55/52 48/61/56 88/90/84 62/102/85
f 48/61/56 10/41/41 54/75/69 88/90/84
f 88/90/84 54/75/69 22/79/73 63/92/86
f 62/102/85 88/90/84 63/92/86 25/93/87
f 12/10/10 46/56/53 89/94/88 50/66/60
f 46/56/53 17/100/52 62/91/85 89/94/88
f 89/94/88 62/91/85 25/103/87 64/95/89
f 50/66/60 89/94/88 64/95/89 19/67/61
