# This file uses centimeters as units for non-parametric coordinates.

mtllib BreakableLogCOL.mtl
g default
v 0.000000 5.196096 -8.821595
v -2.220459 4.276352 -8.821595
v -3.140203 2.055893 -8.821595
v -2.220459 -0.164567 -8.821590
v 0.000000 -1.084311 -8.821590
v 2.220457 -0.164567 -8.821590
v 3.140202 2.055893 -8.821595
v 2.220457 4.276352 -8.821595
v -0.495344 5.515583 0.000001
v -2.932898 4.511447 0.000001
v -3.939962 2.055893 0.000001
v -2.930567 -0.474890 0.000001
v -0.493671 -1.901002 0.000001
v 1.943224 -0.474890 0.000001
v 3.160629 2.055893 0.000001
v 1.943224 4.492791 0.000001
v 0.000000 5.696597 8.821591
v -2.574368 4.630259 8.821595
v -3.640707 2.055893 8.821595
v -2.574368 -0.518474 8.821591
v 0.000000 -1.584816 8.707974
v 2.574368 -0.518474 8.296285
v 3.640707 2.055893 7.747983
v 2.574368 4.630260 8.821591
v 0.000000 4.767161 -8.806712
v -1.917156 3.973049 -8.806712
v -2.711267 2.055893 -8.806712
v -1.917156 0.138736 -8.806707
v 0.000000 -0.655376 -8.806707
v 1.917154 0.138736 -8.806707
v 2.711267 2.055893 -8.806712
v 1.917156 3.973049 -8.806712
v 0.000000 5.026874 8.831050
v -2.100801 4.156693 8.831050
v -2.970984 2.055892 8.831050
v -2.100801 -0.044909 8.831050
v 0.000000 -0.915093 8.717427
v 2.100801 -0.044909 8.305743
v 2.970984 2.055892 7.757440
v 2.100801 4.156694 8.831050
v 1.428707 5.478004 6.813741
v 0.858746 5.295264 0.000001
v 1.232298 5.007554 -9.155951
v 1.063972 4.604373 -9.141068
v 1.165892 4.848492 6.823199
v -1.478508 5.407119 9.491517
v -1.899261 5.276498 0.000001
v -1.275251 4.946414 -9.388554
v -1.101059 4.551584 -9.373671
v -1.206530 4.790647 9.500976
v -3.413692 3.393105 8.401803
v -3.725073 3.321700 0.000001
v -2.944399 3.209274 -9.566793
v -2.542210 3.051728 -9.551910
v -2.785728 3.147119 8.411256
v -3.351496 0.569574 6.616586
v -3.666197 0.648941 0.000001
v -2.890753 0.773903 -8.449071
v -2.495892 0.949016 -8.434188
v -2.734974 0.842988 6.626044
v -1.375523 -1.341367 8.248696
v -1.795742 -1.529905 0.000001
v -1.186424 -0.874331 -7.268074
v -1.024364 -0.474078 -7.253191
v -1.122488 -0.716427 8.258153
v 1.458429 -1.309141 9.580747
v 0.886877 -1.483376 0.000001
v 1.257935 -0.846535 -9.264470
v 1.086107 -0.450079 -9.249587
v 1.190145 -0.690129 9.590205
v 3.386953 0.653878 8.821591
v 2.822794 0.728743 0.452378
v 2.921335 0.846617 -8.443344
v 2.522295 1.011798 -8.428461
v 2.763908 0.911784 8.831050
v 3.341587 3.450855 9.211942
v 2.779852 3.376365 0.452378
v 2.882204 3.259084 -6.910226
v 2.488512 3.094734 -6.895343
v 2.726889 3.194244 9.221398
v -3.597927 3.345502 2.800602
v -3.800703 2.055893 2.940533
v -3.602400 0.622485 2.205530
v -2.772327 -0.426829 2.940532
v -1.636719 -1.263068 2.749566
v -0.291273 -1.517764 2.902659
v 1.147661 -1.195524 3.193583
v 2.329384 -0.426829 2.765429
v 3.625875 0.703788 2.470874
v 4.128653 2.055893 2.582663
v 3.582085 3.401195 2.600991
v 2.349222 4.538614 2.940532
v 1.014357 5.356177 2.271248
v -0.289608 5.566987 2.940532
v -1.689716 5.287816 3.163840
v -2.772327 4.538614 2.940533
v 5.181647 1.479902 0.365682
v 5.387099 2.089741 0.220219
v 4.846302 1.487580 -0.409827
v 4.982880 2.089741 -0.753791
v 5.154374 2.697487 0.427964
v 4.819383 2.689848 -0.401878
v 2.975292 2.086067 -2.302648
v 2.985898 1.256254 -1.980677
v 2.970844 2.913826 -1.949064
vt 0.181462 0.625683
vt 0.207848 0.611471
vt 0.206556 0.737225
vt 0.181046 0.742111
vt 0.125255 0.626704
vt 0.152225 0.634820
vt 0.152802 0.745231
vt 0.127065 0.742965
vt 0.069654 0.626410
vt 0.095589 0.670981
vt 0.098722 0.757868
vt 0.072101 0.743771
vt 0.012691 0.627935
vt 0.040381 0.637442
vt 0.044198 0.748115
vt 0.017011 0.744823
vt 0.404541 0.636331
vt 0.431689 0.611504
vt 0.433352 0.738436
vt 0.405269 0.745787
vt 0.349165 0.646646
vt 0.376734 0.625480
vt 0.372696 0.749488
vt 0.347303 0.747998
vt 0.294332 0.624336
vt 0.322333 0.617230
vt 0.322129 0.745725
vt 0.290773 0.739839
vt 0.237920 0.624384
vt 0.266241 0.663600
vt 0.261128 0.753637
vt 0.234779 0.740970
vt 0.924347 0.810559
vt 0.909709 0.822439
vt 0.906507 0.816915
vt 0.919879 0.806123
vt 0.943587 0.773654
vt 0.937875 0.793324
vt 0.932162 0.790479
vt 0.937313 0.772677
vt 0.933786 0.737517
vt 0.942657 0.753427
vt 0.936581 0.755281
vt 0.929060 0.741770
vt 0.880154 0.714585
vt 0.909109 0.720332
vt 0.906590 0.726301
vt 0.880124 0.720923
vt 0.845239 0.729099
vt 0.860487 0.718675
vt 0.863009 0.724533
vt 0.849322 0.733898
vt 0.826908 0.761774
vt 0.832808 0.743450
vt 0.838378 0.746511
vt 0.833254 0.762144
vt 0.853878 0.822754
vt 0.833292 0.795460
vt 0.839198 0.792832
vt 0.857846 0.817781
vt 0.890188 0.829470
vt 0.871118 0.831182
vt 0.872335 0.824874
vt 0.888910 0.823287
vt 0.855289 0.831423
vt 0.850650 0.841185
vt 0.830985 0.827401
vt 0.838252 0.819515
vt 0.825260 0.803259
vt 0.815472 0.807800
vt 0.810044 0.785286
vt 0.820916 0.785031
vt 0.825296 0.745932
vt 0.815323 0.741759
vt 0.841114 0.708015
vt 0.848656 0.715919
vt 0.866517 0.705689
vt 0.863624 0.695349
vt 0.887610 0.694850
vt 0.886090 0.705518
vt 0.908974 0.712940
vt 0.913972 0.703332
vt 0.938706 0.720514
vt 0.931593 0.728563
vt 0.944595 0.744483
vt 0.954188 0.739515
vt 0.963131 0.767041
vt 0.952494 0.768515
vt 0.950862 0.797886
vt 0.961401 0.800516
vt 0.950251 0.822315
vt 0.942666 0.814670
vt 0.913267 0.835332
vt 0.916895 0.845620
vt 0.876358 0.848177
vt 0.876842 0.837340
vt 0.530334 0.945940
vt 0.512913 0.956784
vt 0.498106 0.620248
vt 0.518145 0.631387
vt 0.568291 0.944686
vt 0.550668 0.958514
vt 0.540171 0.638090
vt 0.559692 0.630015
vt 0.606126 0.943891
vt 0.588245 0.937549
vt 0.582708 0.668808
vt 0.601513 0.629136
vt 0.643825 0.943571
vt 0.625122 0.915941
vt 0.622810 0.639104
vt 0.643113 0.630810
vt 0.681773 0.943697
vt 0.663547 0.951483
vt 0.664737 0.615246
vt 0.684509 0.638293
vt 0.719618 0.944260
vt 0.700808 0.937169
vt 0.705390 0.629163
vt 0.725791 0.648692
vt 0.757079 0.945274
vt 0.739404 0.910623
vt 0.747196 0.623080
vt 0.767468 0.630656
vt 0.795246 0.946771
vt 0.775798 0.951903
vt 0.786957 0.667192
vt 0.809538 0.632307
vt 0.492437 0.947619
vt 0.476752 0.633220
vt 0.460957 0.629818
vt 0.462181 0.745400
vt 0.161045 0.988741
vt 0.136455 0.975146
vt 0.129055 0.799705
vt 0.152988 0.799177
vt 0.109161 0.969491
vt 0.100902 0.801066
vt 0.086745 0.978741
vt 0.074904 0.802300
vt 0.057780 0.950753
vt 0.045171 0.803631
vt 0.037352 0.985208
vt 0.018565 0.805174
vt 0.439577 0.984762
vt 0.413685 0.991548
vt 0.435844 0.803097
vt 0.464819 0.804506
vt 0.390373 0.981621
vt 0.406277 0.802215
vt 0.365262 0.972846
vt 0.376208 0.791463
vt 0.339816 0.978920
vt 0.346536 0.799305
vt 0.315623 0.939513
vt 0.316946 0.790036
vt 0.287466 0.976156
vt 0.288806 0.798894
vt 0.262167 0.981296
vt 0.261177 0.798555
vt 0.237131 0.973578
vt 0.233312 0.798581
vt 0.210571 0.984150
vt 0.204772 0.799054
vt 0.186872 0.973219
vt 0.180240 0.798924
vt 0.867335 0.915881
vt 0.878539 0.909264
vt 0.884399 0.925925
vt 0.873122 0.935355
vt 0.853868 0.915888
vt 0.858354 0.933929
vt 0.850910 0.866120
vt 0.877586 0.854140
vt 0.915685 0.875956
vt 0.893572 0.917264
vt 0.794740 0.965399
vt 0.811245 0.941676
vt 0.851475 0.946064
vt 0.844803 0.958541
vt 0.821794 0.870289
vt 0.802012 0.913047
vt 0.846994 0.932406
vt 0.846994 0.932406
vt 0.851475 0.946064
vt 0.844803 0.958541
vn -0.681079 0.731991 -0.017909
vn -0.378810 0.925256 -0.020101
vn -0.382924 0.923674 0.013965
vn -0.718898 0.693982 0.039673
vn -0.998308 0.057530 -0.008516
vn -0.924152 0.381726 -0.015084
vn -0.923240 0.380596 0.052667
vn -0.998111 -0.006986 0.061037
vn -0.639145 -0.768973 -0.013179
vn -0.921844 -0.387561 0.000572
vn -0.925257 -0.376232 0.048469
vn -0.705017 -0.707076 0.054719
vn 0.072854 -0.997107 -0.021670
vn -0.385876 -0.922346 -0.019409
vn -0.431999 -0.899201 0.069389
vn 0.025993 -0.998269 0.052755
vn 0.695481 -0.718024 -0.027325
vn 0.355653 -0.934324 -0.023431
vn 0.408033 -0.912906 -0.010554
vn 0.666592 -0.743523 -0.053181
vn 0.999654 0.026100 0.003121
vn 0.901341 -0.432817 -0.015903
vn 0.791039 -0.610955 0.031482
vn 0.962122 -0.000297 0.272619
vn 0.796491 0.603983 -0.028419
vn 0.895054 0.445718 -0.014602
vn 0.795279 0.605584 0.028258
vn 0.674164 0.735366 -0.068850
vn -0.134882 0.990619 -0.021922
vn 0.387428 0.921223 -0.035334
vn 0.369306 0.927656 -0.055387
vn -0.041893 0.998985 -0.016544
vn -0.365729 -0.287881 -0.885080
vn 0.046213 -0.121357 -0.991533
vn 0.052307 -0.118671 -0.991555
vn -0.365729 -0.287881 -0.885080
vn 0.004941 -0.432682 -0.901533
vn 0.145270 -0.064729 -0.987272
vn 0.148011 -0.057744 -0.987299
vn 0.009117 -0.425846 -0.904750
vn 0.447472 -0.195394 -0.872691
vn -0.027759 -0.008329 -0.999580
vn -0.025627 -0.013136 -0.999585
vn 0.439635 -0.188310 -0.878214
vn -0.645576 0.095789 -0.757665
vn -0.791525 0.175711 -0.585332
vn -0.791525 0.175711 -0.585332
vn -0.641243 0.093615 -0.761606
vn 0.219226 0.258730 -0.940744
vn -0.039830 0.101454 -0.994043
vn -0.043121 0.100028 -0.994050
vn 0.217476 0.259252 -0.941006
vn -0.189457 0.544079 -0.817364
vn 0.027454 -0.011403 -0.999558
vn 0.027473 -0.011357 -0.999558
vn -0.188835 0.528767 -0.827494
vn 0.402353 -0.571053 -0.715549
vn 0.464446 -0.724619 -0.509134
vn 0.464446 -0.724619 -0.509134
vn 0.402589 -0.571590 -0.714988
vn 0.091225 0.042266 -0.994933
vn -0.034158 -0.083049 -0.995960
vn -0.034517 -0.082899 -0.995960
vn 0.096911 0.042545 -0.994383
vn 0.036246 -0.078390 0.996264
vn 0.029107 -0.081538 0.996245
vn -0.290860 -0.252491 0.922848
vn -0.289209 -0.252335 0.923410
vn -0.071596 0.027899 0.997043
vn -0.070242 0.031355 0.997037
vn 0.158108 -0.559246 0.813785
vn 0.156422 -0.536844 0.829054
vn -0.500856 0.718698 0.482304
vn -0.500856 0.718698 0.482304
vn -0.275823 0.501803 0.819827
vn -0.248481 0.472528 0.845562
vn 0.004952 -0.100467 0.994928
vn 0.004347 -0.100209 0.994957
vn -0.445637 -0.043022 0.894179
vn -0.445920 -0.043280 0.894026
vn 0.075271 0.188743 0.979138
vn 0.095934 0.198060 0.975484
vn 0.600478 0.395688 0.694879
vn 0.600478 0.395688 0.694879
vn -0.020340 0.220001 0.975288
vn -0.015683 0.232981 0.972355
vn 0.135791 0.624234 0.769346
vn 0.135791 0.624234 0.769346
vn 0.033551 -0.381985 0.923559
vn 0.039936 -0.401668 0.914914
vn -0.544969 0.423575 0.723598
vn -0.523753 0.415549 0.743641
vn 0.822127 -0.158342 0.546840
vn 0.822127 -0.158342 0.546840
vn 0.705607 -0.064210 0.705689
vn 0.693019 -0.055270 0.718798
vn 0.718768 -0.695100 0.014404
vn 0.378272 -0.925584 0.014304
vn 0.377985 -0.925701 0.014304
vn 0.683037 -0.730243 0.014350
vn 0.999261 -0.035377 0.015026
vn 0.921711 -0.387598 0.014709
vn 0.924482 -0.380942 0.014711
vn 0.998201 -0.058069 0.014926
vn 0.727827 0.685579 0.015781
vn 0.922871 0.384775 0.016032
vn 0.922902 0.384702 0.016032
vn 0.634000 0.773174 0.015654
vn -0.113329 0.993452 0.014496
vn 0.382641 0.923762 0.015776
vn 0.386581 0.922121 0.015775
vn -0.072337 0.997272 0.014712
vn -0.680097 0.732974 0.014706
vn -0.377835 0.925760 0.014451
vn -0.352819 0.935580 0.014427
vn -0.698018 0.715928 0.014761
vn -0.997527 0.068555 0.015514
vn -0.922398 0.385936 0.015312
vn -0.908718 0.417130 0.015282
vn -0.999531 -0.026324 0.015674
vn -0.664867 -0.746803 0.015387
vn -0.921128 -0.388952 0.015492
vn -0.901031 -0.433481 0.015399
vn -0.803248 -0.595449 0.015261
vn 0.046318 -0.998818 0.014742
vn -0.382248 -0.923925 0.015794
vn -0.382923 -0.923645 0.015794
vn 0.133252 -0.990979 0.014317
vn 0.387428 0.921223 -0.035334
vn 0.796491 0.603983 -0.028419
vn 0.674164 0.735366 -0.068850
vn 0.369306 0.927656 -0.055387
vn -0.034517 -0.082899 -0.995960
vn -0.034158 -0.083049 -0.995960
vn 0.402353 -0.571053 -0.715549
vn 0.402589 -0.571590 -0.714988
vn -0.382923 -0.923645 0.015794
vn -0.382248 -0.923925 0.015794
vn -0.664867 -0.746803 0.015387
vn -0.803248 -0.595449 0.015261
vn -0.544969 0.423575 0.723598
vn -0.694919 0.473193 0.541457
vn -0.694919 0.473193 0.541457
vn -0.523753 0.415549 0.743641
vn -0.378810 0.925256 -0.020101
vn -0.134882 0.990619 -0.021922
vn -0.041893 0.998985 -0.016544
vn -0.382924 0.923674 0.013965
vn 0.052307 -0.118671 -0.991555
vn 0.046213 -0.121357 -0.991533
vn 0.091225 0.042266 -0.994933
vn 0.096911 0.042545 -0.994383
vn 0.377985 -0.925701 0.014304
vn 0.378272 -0.925584 0.014304
vn 0.046318 -0.998818 0.014742
vn 0.133252 -0.990979 0.014317
vn 0.705607 -0.064210 0.705689
vn 0.029107 -0.081538 0.996245
vn 0.036246 -0.078390 0.996264
vn 0.693019 -0.055270 0.718798
vn -0.924152 0.381726 -0.015084
vn -0.681079 0.731991 -0.017909
vn -0.718898 0.693982 0.039673
vn -0.923240 0.380596 0.052667
vn 0.148011 -0.057744 -0.987299
vn 0.145270 -0.064729 -0.987272
vn 0.313088 0.424416 -0.849616
vn 0.313088 0.424416 -0.849616
vn 0.924482 -0.380942 0.014711
vn 0.921711 -0.387598 0.014709
vn 0.718768 -0.695100 0.014404
vn 0.683037 -0.730243 0.014350
vn -0.290860 -0.252491 0.922848
vn -0.070242 0.031355 0.997037
vn -0.071596 0.027899 0.997043
vn -0.289209 -0.252335 0.923410
vn -0.921844 -0.387561 0.000572
vn -0.998308 0.057530 -0.008516
vn -0.998111 -0.006986 0.061037
vn -0.925257 -0.376232 0.048469
vn -0.025627 -0.013136 -0.999585
vn -0.027759 -0.008329 -0.999580
vn 0.004941 -0.432682 -0.901533
vn 0.009117 -0.425846 -0.904750
vn 0.922902 0.384702 0.016032
vn 0.922871 0.384775 0.016032
vn 0.999261 -0.035377 0.015026
vn 0.998201 -0.058069 0.014926
vn 0.158108 -0.559246 0.813785
vn 0.168983 -0.831565 0.529098
vn 0.168983 -0.831565 0.529098
vn 0.156422 -0.536844 0.829054
vn -0.385876 -0.922346 -0.019409
vn -0.639145 -0.768973 -0.013179
vn -0.705017 -0.707076 0.054719
vn -0.431999 -0.899201 0.069389
vn 0.678235 -0.423197 -0.600751
vn 0.678235 -0.423197 -0.600751
vn 0.447472 -0.195394 -0.872691
vn 0.439635 -0.188310 -0.878214
vn 0.386581 0.922121 0.015775
vn 0.382641 0.923762 0.015776
vn 0.727827 0.685579 0.015781
vn 0.634000 0.773174 0.015654
vn -0.275823 0.501803 0.819827
vn 0.004347 -0.100209 0.994957
vn 0.004952 -0.100467 0.994928
vn -0.248481 0.472528 0.845562
vn 0.355653 -0.934324 -0.023431
vn 0.072854 -0.997107 -0.021670
vn 0.025993 -0.998269 0.052755
vn 0.408033 -0.912906 -0.010554
vn -0.043121 0.100028 -0.994050
vn -0.039830 0.101454 -0.994043
vn -0.645576 0.095789 -0.757665
vn -0.641243 0.093615 -0.761606
vn -0.352819 0.935580 0.014427
vn -0.377835 0.925760 0.014451
vn -0.113329 0.993452 0.014496
vn -0.072337 0.997272 0.014712
vn -0.445637 -0.043022 0.894179
vn 0.095934 0.198060 0.975484
vn 0.075271 0.188743 0.979138
vn -0.445920 -0.043280 0.894026
vn 0.901341 -0.432817 -0.015903
vn 0.695481 -0.718024 -0.027325
vn 0.666592 -0.743523 -0.053181
vn 0.791039 -0.610955 0.031482
vn 0.027473 -0.011357 -0.999558
vn 0.027454 -0.011403 -0.999558
vn 0.219226 0.258730 -0.940744
vn 0.217476 0.259252 -0.941006
vn -0.908718 0.417130 0.015282
vn -0.922398 0.385936 0.015312
vn -0.680097 0.732974 0.014706
vn -0.698018 0.715928 0.014761
vn -0.197617 -0.320225 0.926501
vn -0.015683 0.232981 0.972355
vn -0.020340 0.220001 0.975288
vn -0.197617 -0.320225 0.926501
vn 0.895054 0.445718 -0.014602
vn 0.999654 0.026100 0.003121
vn 0.962122 -0.000297 0.272619
vn 0.795279 0.605584 0.028258
vn -0.185870 0.837178 -0.514379
vn -0.185870 0.837178 -0.514379
vn -0.189457 0.544079 -0.817364
vn -0.188835 0.528767 -0.827494
vn -0.901031 -0.433481 0.015399
vn -0.921128 -0.388952 0.015492
vn -0.997527 0.068555 0.015514
vn -0.999531 -0.026324 0.015674
vn 0.156092 -0.732445 0.662691
vn 0.039936 -0.401668 0.914914
vn 0.033551 -0.381985 0.923559
vn 0.156092 -0.732445 0.662691
vn -0.923452 0.381569 -0.040513
vn -0.999065 0.018637 -0.039015
vn -0.999407 -0.011874 -0.032313
vn -0.935933 0.351899 -0.014023
vn -0.999065 0.018637 -0.039015
vn -0.922110 -0.384546 -0.042872
vn -0.927204 -0.372904 -0.035154
vn -0.999407 -0.011874 -0.032313
vn -0.922110 -0.384546 -0.042872
vn -0.730117 -0.681885 -0.044292
vn -0.731349 -0.681401 -0.028659
vn -0.927204 -0.372904 -0.035154
vn -0.730117 -0.681885 -0.044292
vn -0.379340 -0.924157 -0.045110
vn -0.458504 -0.888365 -0.024124
vn -0.731349 -0.681401 -0.028659
vn -0.379340 -0.924157 -0.045110
vn 0.089840 -0.995339 -0.035065
vn 0.010095 -0.999632 -0.025198
vn -0.458504 -0.888365 -0.024124
vn 0.089840 -0.995339 -0.035065
vn 0.380586 -0.924164 -0.032783
vn 0.432879 -0.900983 -0.029079
vn 0.010095 -0.999632 -0.025198
vn 0.380586 -0.924164 -0.032783
vn 0.693351 -0.719953 -0.030513
vn 0.709906 -0.702584 -0.049086
vn 0.432879 -0.900983 -0.029079
vn 0.693351 -0.719953 -0.030513
vn 0.923675 -0.382127 -0.028358
vn 0.717723 -0.675694 -0.168258
vn 0.709906 -0.702584 -0.049086
vn 0.923675 -0.382127 -0.028358
vn 0.998005 -0.058327 -0.024183
vn 0.999457 0.019790 -0.026354
vn 0.717723 -0.675694 -0.168258
vn 0.998005 -0.058327 -0.024183
vn 0.923997 0.382046 -0.016440
vn 0.695157 0.697141 -0.175361
vn 0.999457 0.019790 -0.026354
vn 0.923997 0.382046 -0.016440
vn 0.667157 0.744369 -0.028571
vn 0.698851 0.713595 -0.048872
vn 0.695157 0.697141 -0.175361
vn 0.667157 0.744369 -0.028571
vn 0.391193 0.919531 -0.037821
vn 0.415051 0.909791 0.003600
vn 0.698851 0.713595 -0.048872
vn 0.391193 0.919531 -0.037821
vn -0.017558 0.998714 -0.047565
vn 0.022338 0.998194 0.055767
vn 0.415051 0.909791 0.003600
vn -0.017558 0.998714 -0.047565
vn -0.376972 0.924722 -0.052747
vn -0.391493 0.917521 0.069920
vn 0.022338 0.998194 0.055767
vn -0.376972 0.924722 -0.052747
vn -0.727880 0.684046 -0.047669
vn -0.758338 0.651341 0.026036
vn -0.391493 0.917521 0.069920
vn -0.727880 0.684046 -0.047669
vn -0.923452 0.381569 -0.040513
vn -0.935933 0.351899 -0.014023
vn -0.758338 0.651341 0.026036
vn -0.998111 -0.006986 0.061037
vn -0.923240 0.380596 0.052667
vn -0.935933 0.351899 -0.014023
vn -0.999407 -0.011874 -0.032313
vn -0.925257 -0.376232 0.048469
vn -0.998111 -0.006986 0.061037
vn -0.999407 -0.011874 -0.032313
vn -0.927204 -0.372904 -0.035154
vn -0.705017 -0.707076 0.054719
vn -0.925257 -0.376232 0.048469
vn -0.927204 -0.372904 -0.035154
vn -0.731349 -0.681401 -0.028659
vn -0.431999 -0.899201 0.069389
vn -0.705017 -0.707076 0.054719
vn -0.731349 -0.681401 -0.028659
vn -0.458504 -0.888365 -0.024124
vn 0.025993 -0.998269 0.052755
vn -0.431999 -0.899201 0.069389
vn -0.458504 -0.888365 -0.024124
vn 0.010095 -0.999632 -0.025198
vn 0.408033 -0.912906 -0.010554
vn 0.025993 -0.998269 0.052755
vn 0.010095 -0.999632 -0.025198
vn 0.432879 -0.900983 -0.029079
vn 0.666592 -0.743523 -0.053181
vn 0.408033 -0.912906 -0.010554
vn 0.432879 -0.900983 -0.029079
vn 0.709906 -0.702584 -0.049086
vn 0.791039 -0.610955 0.031482
vn 0.666592 -0.743523 -0.053181
vn 0.709906 -0.702584 -0.049086
vn 0.717723 -0.675694 -0.168258
vn 0.954528 -0.002102 0.298115
vn 0.650975 -0.749406 0.120927
vn 0.146447 -0.798680 -0.583664
vn -0.044907 0.006278 -0.998971
vn 0.630685 0.764711 0.132110
vn 0.954528 -0.002102 0.298115
vn -0.044907 0.006278 -0.998971
vn 0.132414 0.814776 -0.564452
vn 0.674164 0.735366 -0.068850
vn 0.795279 0.605584 0.028258
vn 0.695157 0.697141 -0.175361
vn 0.698851 0.713595 -0.048872
vn 0.369306 0.927656 -0.055387
vn 0.674164 0.735366 -0.068850
vn 0.698851 0.713595 -0.048872
vn 0.415051 0.909791 0.003600
vn -0.041893 0.998985 -0.016544
vn 0.369306 0.927656 -0.055387
vn 0.415051 0.909791 0.003600
vn 0.022338 0.998194 0.055767
vn -0.382924 0.923674 0.013965
vn -0.041893 0.998985 -0.016544
vn 0.022338 0.998194 0.055767
vn -0.391493 0.917521 0.069920
vn -0.718898 0.693982 0.039673
vn -0.382924 0.923674 0.013965
vn -0.391493 0.917521 0.069920
vn -0.758338 0.651341 0.026036
vn -0.923240 0.380596 0.052667
vn -0.718898 0.693982 0.039673
vn -0.758338 0.651341 0.026036
vn -0.935933 0.351899 -0.014023
vn 0.962122 -0.000297 0.272619
vn 0.791039 -0.610955 0.031482
vn 0.650975 -0.749406 0.120927
vn 0.954528 -0.002102 0.298115
vn 0.791039 -0.610955 0.031482
vn 0.717723 -0.675694 -0.168258
vn 0.146447 -0.798680 -0.583664
vn 0.650975 -0.749406 0.120927
vn 0.717723 -0.675694 -0.168258
vn -0.337059 -0.004772 -0.941471
vn -0.044907 0.006278 -0.998971
vn 0.146447 -0.798680 -0.583664
vn 0.795279 0.605584 0.028258
vn 0.962122 -0.000297 0.272619
vn 0.954528 -0.002102 0.298115
vn 0.630685 0.764711 0.132110
vn -0.337059 -0.004772 -0.941471
vn 0.695157 0.697141 -0.175361
vn 0.132414 0.814776 -0.564452
vn -0.044907 0.006278 -0.998971
vn 0.695157 0.697141 -0.175361
vn 0.795279 0.605584 0.028258
vn 0.630685 0.764711 0.132110
vn 0.132414 0.814776 -0.564452
vn -0.044907 0.006278 -0.998971
vn 0.146447 -0.798680 -0.583664
vn 0.146447 -0.798680 -0.583664
vn -0.044907 0.006278 -0.998971
vn 0.146447 -0.798680 -0.583664
vn 0.717723 -0.675694 -0.168258
vn 0.146447 -0.798680 -0.583664
vn 0.695157 0.697141 -0.175361
vn 0.132414 0.814776 -0.564452
vn 0.132414 0.814776 -0.564452
vn 0.132414 0.814776 -0.564452
vn -0.044907 0.006278 -0.998971
vn -0.044907 0.006278 -0.998971
vn 0.132414 0.814776 -0.564452
s off
g pCylinder19
usemtl initialShadingGroup
f 18/1/1 46/2/2 95/3/3 96/4/4
f 19/5/5 51/6/6 81/7/7 82/8/8
f 20/9/9 56/10/10 83/11/11 84/12/12
f 21/13/13 61/14/14 85/15/15 86/16/16
f 22/17/17 66/18/18 87/19/19 88/20/20
f 23/21/21 71/22/22 89/23/23 90/24/24
f 24/25/25 76/26/26 91/27/27 92/28/28
f 17/29/29 41/30/30 93/31/31 94/32/32
f 2/33/33 48/34/34 49/35/35 26/36/36
f 3/37/37 53/38/38 54/39/39 27/40/40
f 4/41/41 58/42/42 59/43/43 28/44/44
f 5/45/45 63/46/46 64/47/47 29/48/48
f 6/49/49 68/50/50 69/51/51 30/52/52
f 7/53/53 73/54/54 74/55/55 31/56/56
f 8/57/57 78/58/58 79/59/59 32/60/60
f 1/61/61 43/62/62 44/63/63 25/64/64
f 50/65/65 46/66/66 18/67/67 34/68/68
f 55/69/69 51/70/70 19/71/71 35/72/72
f 60/73/73 56/74/74 20/75/75 36/76/76
f 65/77/77 61/78/78 21/79/79 37/80/80
f 70/81/81 66/82/82 22/83/83 38/84/84
f 75/85/85 71/86/86 23/87/87 39/88/88
f 80/89/89 76/90/90 24/91/91 40/92/92
f 45/93/93 41/94/94 17/95/95 33/96/96
f 26/97/97 49/98/98 50/99/99 34/100/100
f 27/101/101 54/102/102 55/103/103 35/104/104
f 28/105/105 59/106/106 60/107/107 36/108/108
f 29/109/109 64/110/110 65/111/111 37/112/112
f 30/113/113 69/114/114 70/115/115 38/116/116
f 31/117/117 74/118/118 75/119/119 39/120/120
f 32/121/121 79/122/122 80/123/123 40/124/124
f 25/125/125 44/126/126 45/127/127 33/128/128
f 41/30/129 24/25/130 92/28/131 93/31/132
f 44/63/133 43/62/134 8/57/135 32/60/136
f 45/127/137 44/126/138 32/121/139 40/124/140
f 24/91/141 41/94/142 45/93/143 40/92/144
f 46/2/145 17/29/146 94/32/147 95/3/148
f 49/35/149 48/34/150 1/61/151 25/64/152
f 50/99/153 49/98/154 25/129/155 33/130/156
f 17/95/157 46/66/158 50/65/159 33/96/160
f 51/6/161 18/1/162 96/4/163 81/7/164
f 54/39/165 53/38/166 2/33/167 26/36/168
f 55/103/169 54/102/170 26/97/171 34/100/172
f 18/67/173 51/70/174 55/69/175 34/68/176
f 56/10/177 19/5/178 82/8/179 83/11/180
f 59/43/181 58/42/182 3/37/183 27/40/184
f 60/107/185 59/106/186 27/101/187 35/104/188
f 19/71/189 56/74/190 60/73/191 35/72/192
f 61/14/193 20/9/194 84/12/195 85/15/196
f 64/47/197 63/46/198 4/41/199 28/44/200
f 65/111/201 64/110/202 28/105/203 36/108/204
f 20/75/205 61/78/206 65/77/207 36/76/208
f 66/18/209 21/131/210 86/132/211 87/19/212
f 69/51/213 68/50/214 5/45/215 29/48/216
f 70/115/217 69/114/218 29/109/219 37/112/220
f 21/79/221 66/82/222 70/81/223 37/80/224
f 71/22/225 22/17/226 88/20/227 89/23/228
f 74/55/229 73/54/230 6/49/231 30/52/232
f 75/119/233 74/118/234 30/113/235 38/116/236
f 22/83/237 71/86/238 75/85/239 38/84/240
f 76/26/241 23/21/242 90/24/243 91/27/244
f 79/59/245 78/58/246 7/53/247 31/56/248
f 80/123/249 79/122/250 31/117/251 39/120/252
f 23/87/253 76/90/254 80/89/255 39/88/256
f 53/133/257 3/134/258 11/135/259 52/136/260
f 3/134/261 58/137/262 57/138/263 11/135/264
f 58/137/265 4/139/266 12/140/267 57/138/268
f 4/139/269 63/141/270 62/142/271 12/140/272
f 63/141/273 5/143/274 13/144/275 62/142/276
f 5/145/277 68/146/278 67/147/279 13/148/280
f 68/146/281 6/149/282 14/150/283 67/147/284
f 6/149/285 73/151/286 72/152/287 14/150/288
f 73/151/289 7/153/290 15/154/291 72/152/292
f 7/153/293 78/155/294 77/156/295 15/154/296
f 78/155/297 8/157/298 16/158/299 77/156/300
f 8/157/301 43/159/302 42/160/303 16/158/304
f 43/159/305 1/161/306 9/162/307 42/160/308
f 1/161/309 48/163/310 47/164/311 9/162/312
f 48/163/313 2/165/314 10/166/315 47/164/316
f 2/165/317 53/133/318 52/136/319 10/166/320
f 82/8/321 81/7/322 52/136/323 11/135/324
f 83/11/325 82/8/326 11/135/327 57/138/328
f 84/12/329 83/11/330 57/138/331 12/140/332
f 85/15/333 84/12/334 12/140/335 62/142/336
f 86/16/337 85/15/338 62/142/339 13/144/340
f 87/19/341 86/132/342 13/148/343 67/147/344
f 88/20/345 87/19/346 67/147/347 14/150/348
f 89/23/349 88/20/350 14/150/351 72/152/352
f 98/167/353 97/168/354 99/169/355 100/170/356
f 101/171/357 98/167/358 100/170/359 102/172/360
f 92/28/361 91/27/362 77/156/363 16/158/364
f 93/31/365 92/28/366 16/158/367 42/160/368
f 94/32/369 93/31/370 42/160/371 9/162/372
f 95/3/373 94/32/374 9/162/375 47/164/376
f 96/4/377 95/3/378 47/164/379 10/166/380
f 81/7/381 96/4/382 10/166/383 52/136/384
f 90/173/385 89/174/386 97/168/387 98/167/388
f 89/174/389 72/175/390 99/176/391 97/168/392
f 72/177/393 15/178/394 103/179/395 104/180/396
f 91/181/397 90/173/398 98/167/399 101/171/400
f 15/178/401 77/182/402 105/183/403 103/179/404
f 77/182/405 91/181/406 101/171/407 102/184/408
f 100/185/409 99/186/410 104/180/411 103/179/412
f 99/186/413 72/177/414 104/180/415
f 77/182/416 102/184/417 105/183/418
f 102/184/419 100/185/420 103/179/421 105/183/422
