# This file uses centimeters as units for non-parametric coordinates.

mtllib CookieLUpperCanine.mtl
g default
v -0.077681 -0.077269 -0.459652
v -0.262039 0.492192 -0.576561
v -0.275811 0.521736 -0.555033
v -0.428806 0.401906 -0.597653
v -0.450133 0.427359 -0.577080
v -0.561204 0.264713 -0.605236
v -0.588527 0.283953 -0.585007
v -0.646271 0.094046 -0.598569
v -0.677447 0.105556 -0.578038
v -0.675680 -0.093391 -0.578303
v -0.708188 -0.090370 -0.556854
v 0.520319 -0.061147 -0.341001
v 0.541980 -0.056666 -0.308805
v 0.491191 0.124712 -0.372882
v 0.511534 0.137611 -0.342129
v 0.406380 0.290799 -0.413255
v 0.422880 0.311221 -0.384331
v 0.274184 0.420857 -0.458171
v 0.284697 0.447170 -0.431281
v 0.107545 0.502156 -0.503231
v 0.110512 0.532150 -0.478382
v -0.077224 0.526736 -0.544026
v -0.082627 0.557843 -0.521024
v -0.287447 0.520667 -0.476268
v -0.288779 0.530705 -0.490895
v -0.458328 0.428153 -0.497881
v -0.463101 0.436328 -0.512942
v -0.593991 0.287577 -0.505650
v -0.601494 0.292923 -0.520869
v -0.681157 0.112700 -0.498819
v -0.690415 0.114525 -0.513899
v -0.711292 -0.079360 -0.478053
v -0.721156 -0.081401 -0.492715
v 0.514209 -0.046321 -0.234898
v 0.529012 -0.047697 -0.244666
v 0.484363 0.144123 -0.267565
v 0.498566 0.146580 -0.277990
v 0.397458 0.314306 -0.308934
v 0.409912 0.320191 -0.320193
v 0.262003 0.447573 -0.354957
v 0.271730 0.456139 -0.367142
v 0.091254 0.530876 -0.401129
v 0.097544 0.541120 -0.414244
v -0.098073 0.556063 -0.442930
v -0.095595 0.566813 -0.456886
v -0.275189 0.482806 -0.468496
v -0.098104 0.515908 -0.437321
v -0.434984 0.396296 -0.488706
v -0.561846 0.264842 -0.495972
v -0.643355 0.101311 -0.489583
v -0.671536 -0.078288 -0.470165
v 0.474452 -0.047393 -0.242786
v 0.446544 0.130695 -0.273333
v 0.365278 0.289838 -0.312019
v 0.238610 0.414457 -0.355056
v 0.078939 0.492353 -0.398232
v -0.689942 -0.075148 -0.447787
v -0.661106 0.108634 -0.467658
v -0.577698 0.275974 -0.474195
v -0.447881 0.410492 -0.466760
v -0.284365 0.499018 -0.446079
v -0.103153 0.532889 -0.414178
v 0.078014 0.508788 -0.374179
v 0.241403 0.429074 -0.329997
v 0.371021 0.301552 -0.285958
v 0.454180 0.138702 -0.246371
v 0.482739 -0.043533 -0.215112
v -0.714881 -0.067491 -0.393102
v -0.685389 0.120475 -0.413425
v -0.600082 0.291625 -0.420110
v -0.467311 0.429204 -0.412506
v -0.300071 0.519745 -0.391355
v -0.114736 0.554388 -0.358728
v 0.070556 0.529738 -0.317817
v 0.237664 0.448210 -0.272630
v 0.370233 0.317784 -0.227588
v 0.455285 0.151228 -0.187100
v 0.484494 -0.035156 -0.155130
v -0.750418 -0.042911 -0.217340
v -0.720925 0.145054 -0.237663
v -0.635618 0.316204 -0.244349
v -0.502847 0.453783 -0.236744
v -0.335607 0.544325 -0.215593
v -0.150272 0.578967 -0.182966
v 0.035020 0.554317 -0.142056
v 0.202128 0.472789 -0.096868
v 0.334697 0.342363 -0.051826
v 0.419749 0.175807 -0.011338
v 0.448958 -0.010577 0.020632
v -0.748663 -0.034534 -0.157358
v -0.719826 0.149249 -0.177228
v -0.636418 0.316588 -0.183766
v -0.506602 0.451106 -0.176329
v -0.343085 0.539632 -0.155650
v -0.161874 0.573503 -0.123748
v 0.019293 0.549402 -0.083749
v 0.182683 0.469689 -0.039567
v 0.312301 0.342166 0.004473
v 0.395460 0.179316 0.044059
v 0.424019 -0.002919 0.075318
v -0.740375 -0.030674 -0.129682
v -0.712195 0.148925 -0.149100
v -0.630686 0.312456 -0.155489
v -0.503824 0.443910 -0.148223
v -0.344029 0.530420 -0.128013
v -0.166943 0.563522 -0.096838
v 0.010099 0.539967 -0.057750
v 0.169770 0.462071 -0.014573
v 0.296438 0.337452 0.028464
v 0.377704 0.178309 0.067150
v 0.405612 0.000221 0.097697
v 0.354626 0.331717 -0.139500
v 0.221467 0.462723 -0.184742
v 0.053614 0.544614 -0.230131
v -0.132502 0.569373 -0.271223
v -0.318663 0.534577 -0.303995
v -0.486646 0.443633 -0.325241
v -0.620008 0.305441 -0.332879
v -0.705695 0.133530 -0.326163
v -0.735319 -0.055273 -0.305750
v 0.469395 -0.022794 -0.066719
v 0.440056 0.164419 -0.098832
v 0.295884 0.367218 0.133259
v 0.163688 0.497277 0.088344
v 0.409823 0.015275 0.205513
v 0.380696 0.201138 0.173632
v -0.002953 0.578584 0.043298
v -0.187720 0.603162 0.002488
v -0.786180 -0.016963 -0.031774
v -0.807903 -0.021401 -0.063664
v -0.756770 0.170474 -0.052040
v -0.777162 0.174525 -0.084848
v -0.671703 0.341141 -0.058707
v -0.688241 0.352922 -0.091817
v -0.539306 0.478334 -0.051124
v -0.549847 0.496328 -0.083890
v -0.372537 0.568620 -0.030032
v -0.375526 0.590704 -0.061844
v -0.182341 0.626813 -0.027834
v 0.010797 0.601120 0.014808
v 0.184983 0.516139 0.061910
v 0.323166 0.380190 0.108859
v 0.411819 0.206580 0.151061
v 0.442265 0.012303 0.184386
v -0.780131 -0.031746 -0.137570
v -0.794935 -0.030370 -0.127802
v -0.749996 0.160315 -0.158335
v -0.764193 0.165555 -0.148985
v -0.662832 0.335191 -0.165168
v -0.675274 0.343953 -0.155955
v -0.527168 0.475767 -0.157397
v -0.536880 0.487359 -0.148028
v -0.356286 0.568281 -0.135785
v -0.362558 0.581735 -0.125981
v -0.166913 0.603677 -0.102447
v -0.169373 0.617843 -0.091972
v 0.022414 0.578491 -0.060646
v 0.023765 0.592151 -0.049330
v 0.193162 0.495187 -0.014475
v 0.197950 0.507170 -0.002228
v 0.328619 0.361920 0.031549
v 0.336133 0.371221 0.044721
v 0.415523 0.191737 0.072918
v 0.424787 0.197610 0.086923
v 0.445368 0.001293 0.105585
v 0.455233 0.003334 0.120247
v -0.188118 -0.000884 0.086569
vt 0.232819 0.660271
vt 0.232687 0.605533
vt 0.251365 0.605543
vt 0.251521 0.660252
vt 0.232562 0.550583
vt 0.251223 0.550729
vt 0.232914 0.495451
vt 0.251522 0.495881
vt 0.234658 0.439933
vt 0.253361 0.440550
vt 0.232848 0.985418
vt 0.232850 0.931433
vt 0.251624 0.931433
vt 0.251624 0.985419
vt 0.232855 0.877416
vt 0.251622 0.877414
vt 0.232861 0.823333
vt 0.251620 0.823330
vt 0.232870 0.769142
vt 0.251615 0.769134
vt 0.232867 0.714799
vt 0.251593 0.714784
vt 0.952718 0.276318
vt 0.926277 0.328213
vt 0.775672 0.218792
vt 0.885093 0.369398
vt 0.833198 0.395840
vt 0.775672 0.404951
vt 0.775672 0.032633
vt 0.833198 0.041744
vt 0.885093 0.068186
vt 0.926277 0.109370
vt 0.952718 0.161265
vt 0.961829 0.218792
vt 0.262430 0.660247
vt 0.262516 0.714782
vt 0.262266 0.605549
vt 0.262128 0.550798
vt 0.262447 0.496209
vt 0.264233 0.442302
vt 0.262585 0.985419
vt 0.262584 0.931433
vt 0.262578 0.877416
vt 0.262568 0.823331
vt 0.262552 0.769136
vt 0.227825 0.660283
vt 0.227702 0.605539
vt 0.227867 0.714809
vt 0.227586 0.550554
vt 0.227952 0.495372
vt 0.229699 0.440353
vt 0.227830 0.985419
vt 0.227831 0.931434
vt 0.227838 0.877418
vt 0.227848 0.823337
vt 0.227862 0.769148
vt 0.578372 0.283069
vt 0.568097 0.218193
vt 0.581718 0.218193
vt 0.591327 0.278860
vt 0.608193 0.341595
vt 0.619213 0.333589
vt 0.654639 0.388041
vt 0.662646 0.377021
vt 0.713165 0.417862
vt 0.717374 0.404907
vt 0.778041 0.428138
vt 0.778041 0.414516
vt 0.778041 0.008248
vt 0.778041 0.021870
vt 0.713165 0.018524
vt 0.717374 0.031478
vt 0.654639 0.048344
vt 0.662646 0.059364
vt 0.608193 0.094790
vt 0.619213 0.102797
vt 0.578372 0.153316
vt 0.591327 0.157525
vt 0.094275 0.439472
vt 0.092879 0.493123
vt 0.087802 0.493042
vt 0.089191 0.438714
vt 0.092622 0.547082
vt 0.087531 0.547070
vt 0.092670 0.601283
vt 0.087560 0.601293
vt 0.092877 0.655774
vt 0.087744 0.655789
vt 0.093050 0.710560
vt 0.087901 0.710569
vt 0.093095 0.765490
vt 0.087940 0.765490
vt 0.093075 0.820455
vt 0.087916 0.820455
vt 0.093112 0.875454
vt 0.087949 0.875466
vt 0.093322 0.930502
vt 0.088154 0.930526
vt 0.093648 0.985659
vt 0.088471 0.985686
vt 0.074333 0.492846
vt 0.075399 0.437759
vt 0.074048 0.547033
vt 0.074025 0.601310
vt 0.074142 0.655824
vt 0.074254 0.710589
vt 0.074275 0.765489
vt 0.074236 0.820455
vt 0.074256 0.875493
vt 0.074442 0.930588
vt 0.074742 0.985759
vt 0.052600 0.492650
vt 0.052938 0.437335
vt 0.052361 0.546967
vt 0.052265 0.601310
vt 0.052285 0.655853
vt 0.052334 0.710605
vt 0.052323 0.765479
vt 0.052248 0.820447
vt 0.052237 0.875530
vt 0.052396 0.930678
vt 0.052678 0.985870
vt 0.030458 0.437480
vt 0.030851 0.492623
vt 0.017358 0.492679
vt 0.016636 0.438268
vt 0.030653 0.546901
vt 0.017140 0.546854
vt 0.030489 0.601279
vt 0.016929 0.601246
vt 0.030423 0.655851
vt 0.016814 0.655837
vt 0.030421 0.710604
vt 0.016786 0.710596
vt 0.030377 0.765454
vt 0.016723 0.765431
vt 0.030250 0.820421
vt 0.016556 0.820395
vt 0.030195 0.875555
vt 0.016469 0.875565
vt 0.030334 0.930761
vt 0.016596 0.930812
vt 0.030614 0.985981
vt 0.016884 0.986054
vt 0.012271 0.492705
vt 0.011534 0.438965
vt 0.012037 0.546834
vt 0.011808 0.601231
vt 0.011678 0.655829
vt 0.011641 0.710591
vt 0.011572 0.765420
vt 0.011391 0.820382
vt 0.011290 0.875567
vt 0.011418 0.930830
vt 0.011708 0.986081
vt 0.215834 0.433881
vt 0.217038 0.489945
vt 0.198375 0.490258
vt 0.196769 0.434346
vt 0.217310 0.545860
vt 0.198560 0.545922
vt 0.217206 0.601912
vt 0.198442 0.601886
vt 0.217079 0.657705
vt 0.198337 0.657675
vt 0.217050 0.712955
vt 0.198356 0.712941
vt 0.217039 0.767594
vt 0.198391 0.767591
vt 0.220849 0.434331
vt 0.222027 0.489883
vt 0.222296 0.545844
vt 0.222194 0.601922
vt 0.222075 0.657718
vt 0.222056 0.712964
vt 0.222053 0.767600
vt 0.222063 0.821758
vt 0.217043 0.821755
vt 0.222046 0.875644
vt 0.217023 0.875641
vt 0.222042 0.929417
vt 0.217018 0.929416
vt 0.222033 0.983157
vt 0.217009 0.983156
vt 0.187382 0.490475
vt 0.185733 0.435934
vt 0.187558 0.545942
vt 0.187440 0.601874
vt 0.187415 0.657673
vt 0.198431 0.821750
vt 0.187367 0.712952
vt 0.187401 0.767597
vt 0.187378 0.821758
vt 0.198426 0.875637
vt 0.198428 0.929413
vt 0.187449 0.875647
vt 0.187455 0.929412
vt 0.198422 0.983152
vt 0.187449 0.983152
vt 0.354549 0.414925
vt 0.354549 0.428438
vt 0.414736 0.405392
vt 0.418912 0.418244
vt 0.469031 0.377727
vt 0.476974 0.388660
vt 0.512120 0.334638
vt 0.523053 0.342581
vt 0.539785 0.280343
vt 0.552637 0.284519
vt 0.549318 0.220156
vt 0.562831 0.220156
vt 0.539785 0.159970
vt 0.552637 0.155794
vt 0.512120 0.105674
vt 0.523053 0.097731
vt 0.469031 0.062585
vt 0.476974 0.051653
vt 0.414736 0.034921
vt 0.418912 0.022068
vt 0.354549 0.025388
vt 0.354549 0.011874
vt 0.355475 0.218792
vt 0.355475 0.404951
vt 0.297949 0.395840
vt 0.246054 0.369398
vt 0.204871 0.328213
vt 0.178429 0.276318
vt 0.169318 0.218792
vt 0.178429 0.161265
vt 0.204871 0.109370
vt 0.246054 0.068186
vt 0.297949 0.041744
vt 0.355475 0.032633
vn -0.327944 0.943559 -0.046361
vn -0.239280 0.864132 -0.442743
vn -0.502908 0.721407 -0.476083
vn -0.598401 0.797136 -0.080570
vn -0.712200 0.504536 -0.488072
vn -0.813115 0.574646 -0.092870
vn -0.846675 0.234743 -0.477533
vn -0.951075 0.297863 -0.082057
vn -0.882818 0.088638 -0.461277
vn -0.986622 0.147230 -0.070008
vn 0.929632 0.198899 0.310198
vn 0.986149 0.139033 -0.090445
vn 0.951421 0.283220 -0.120765
vn 0.893615 0.347594 0.283954
vn 0.817351 0.545770 -0.184589
vn 0.756070 0.616948 0.218481
vn 0.608375 0.751366 -0.255594
vn 0.541681 0.827872 0.145639
vn 0.344956 0.879882 -0.326824
vn 0.271432 0.959719 0.072560
vn 0.052872 0.918738 -0.391312
vn -0.028219 0.999581 0.006404
vn 0.165520 -0.042911 -0.985272
vn 0.196337 -0.135800 -0.971087
vn 0.138514 -0.057534 -0.988688
vn 0.117073 -0.079752 -0.989916
vn 0.103296 -0.107390 -0.988836
vn 0.098532 -0.122239 -0.987598
vn 0.292198 -0.117023 -0.949171
vn 0.287504 -0.102427 -0.952287
vn 0.273770 -0.075525 -0.958825
vn 0.252362 -0.054464 -0.966099
vn 0.225374 -0.041300 -0.973397
vn 0.195450 -0.037318 -0.980003
vn -0.343420 0.341350 0.874953
vn -0.270152 0.381016 0.884220
vn -0.188956 0.396200 0.898511
vn -0.401590 0.281086 0.871617
vn -0.438965 0.206108 0.874545
vn -0.451447 0.165629 0.876791
vn 0.060779 0.219578 0.973700
vn 0.073541 0.179789 0.980953
vn 0.023515 0.292552 0.955961
vn -0.034571 0.349689 0.936228
vn -0.107783 0.385402 0.916432
vn -0.345953 0.711716 0.611373
vn -0.148389 0.748637 0.646161
vn -0.524222 0.615197 0.588832
vn -0.665750 0.468544 0.580727
vn -0.756687 0.286102 0.587852
vn -0.783875 0.187000 0.592090
vn 0.459229 0.318891 0.829106
vn 0.487843 0.221294 0.844416
vn 0.368570 0.496441 0.785941
vn 0.227249 0.635475 0.737923
vn 0.049126 0.722376 0.689753
vn -0.866185 0.082616 -0.492848
vn -0.830134 0.227071 -0.509232
vn -0.697105 0.493965 -0.519657
vn -0.490055 0.708508 -0.507801
vn -0.229266 0.849695 -0.474822
vn 0.059752 0.903716 -0.423942
vn 0.348696 0.865279 -0.360144
vn 0.609286 0.738148 -0.289670
vn 0.816016 0.534764 -0.219422
vn 0.948648 0.275030 -0.156286
vn 0.983157 0.132479 -0.125903
vn -0.942242 0.113783 -0.315014
vn -0.906025 0.264803 -0.330149
vn -0.767339 0.543045 -0.341018
vn -0.551488 0.766711 -0.328655
vn -0.279603 0.913908 -0.294268
vn 0.021705 0.970227 -0.241225
vn 0.322940 0.930153 -0.174716
vn 0.594614 0.797610 -0.101253
vn 0.810134 0.585575 -0.028025
vn 0.948407 0.314796 0.037799
vn 0.983886 0.165706 0.067161
vn -0.968346 0.128825 -0.213799
vn -0.932313 0.280907 -0.227781
vn -0.792829 0.560747 -0.238713
vn -0.575738 0.785699 -0.226279
vn -0.302291 0.933742 -0.191695
vn 0.000749 0.990384 -0.138347
vn 0.303715 0.950080 -0.071456
vn 0.576950 0.816776 0.002430
vn 0.793709 0.603522 0.076077
vn 0.932778 0.331184 0.142279
vn 0.968582 0.181034 0.170515
vn -0.983652 0.142424 -0.110199
vn -0.982933 0.163369 0.084582
vn -0.948206 0.308738 0.074747
vn -0.947946 0.293797 -0.122810
vn -0.815177 0.575629 0.064320
vn -0.809258 0.572041 -0.133681
vn -0.608131 0.790172 0.076187
vn -0.593408 0.795706 -0.121318
vn -0.347337 0.931364 0.109173
vn -0.321522 0.942903 -0.086931
vn -0.058322 0.985385 0.160050
vn -0.020216 0.999221 -0.033888
vn 0.230624 0.946945 0.223846
vn 0.281019 0.959148 0.032622
vn 0.491219 0.819811 0.294303
vn 0.552695 0.826604 0.106086
vn 0.697951 0.616426 0.364532
vn 0.768215 0.614567 0.179311
vn 0.830583 0.356692 0.427671
vn 0.906487 0.343790 0.245133
vn 0.866416 0.213226 0.451507
vn 0.942476 0.194348 0.271969
vn -0.487727 -0.017840 -0.872814
vn -0.458956 0.080174 -0.884834
vn -0.368012 0.262615 -0.891964
vn -0.226477 0.409277 -0.883855
vn -0.048207 0.505799 -0.861304
vn 0.149365 0.542698 -0.826540
vn 0.346887 0.516440 -0.782917
vn 0.525014 0.429535 -0.734752
vn 0.666336 0.290500 -0.686736
vn 0.757000 0.112940 -0.643580
vn 0.784047 0.016436 -0.620483
vn -0.929399 0.107656 -0.353027
vn -0.985876 0.160028 0.049392
vn -0.950932 0.306924 0.039057
vn -0.893157 0.257799 -0.368523
vn -0.816485 0.576662 0.028521
vn -0.755202 0.534580 -0.379333
vn -0.607235 0.793489 0.040509
vn -0.540483 0.757074 -0.367039
vn -0.343665 0.936184 0.073855
vn -0.270022 0.903498 -0.332835
vn -0.051570 0.990779 0.125287
vn 0.029702 0.959520 -0.280072
vn 0.240450 0.951928 0.189782
vn 0.329356 0.919656 -0.213913
vn -0.060658 -0.055566 -0.996611
vn -0.073478 -0.095799 -0.992685
vn -0.023283 0.019417 -0.999540
vn 0.034889 0.079704 -0.996208
vn 0.108161 0.119360 -0.986942
vn 0.189359 0.134525 -0.972649
vn 0.270538 0.123738 -0.954724
vn 0.599601 0.787810 -0.140836
vn 0.343748 0.088025 -0.934927
vn 0.813989 0.576888 -0.067994
vn 0.401825 0.030877 -0.915196
vn 0.951535 0.307531 -0.002517
vn 0.439085 -0.042098 -0.897459
vn 0.986853 0.159316 0.027180
vn 0.451509 -0.081651 -0.888523
vn -0.286047 0.162466 0.944342
vn -0.290690 0.147819 0.945330
vn -0.272485 0.189671 0.943280
vn -0.251380 0.211540 0.944489
vn -0.224756 0.225930 0.947861
vn 0.503803 0.823438 0.261022
vn -0.195334 0.231443 0.953037
vn -0.165890 0.227495 0.959545
vn -0.139296 0.214525 0.966735
vn 0.712728 0.617892 0.332006
vn 0.846783 0.355394 0.395795
vn -0.118268 0.193809 0.973885
vn -0.104753 0.167344 0.980318
vn 0.882702 0.210407 0.420198
vn -0.100094 0.152951 0.983152
vn -0.196323 0.135472 0.971136
s 1
g FoodLUpperCaninesOverbite
usemtl Eye_blinn1SG
f 25/1/1 3/4/2 5/3/3 27/2/4
f 27/2/4 5/3/3 7/6/5 29/5/6
f 29/5/6 7/6/5 9/8/7 31/7/8
f 31/7/8 9/8/7 11/10/9 33/9/10
f 35/11/11 13/14/12 15/13/13 37/12/14
f 37/12/14 15/13/13 17/16/15 39/15/16
f 39/15/16 17/16/15 19/18/17 41/17/18
f 41/17/18 19/18/17 21/20/19 43/19/20
f 43/19/20 21/20/19 23/22/21 45/21/22
f 45/21/22 23/22/21 3/4/2 25/1/1
f 2/23/23 1/25/24 4/24/25
f 4/24/25 1/25/24 6/26/26
f 6/26/26 1/25/24 8/27/27
f 8/27/27 1/25/24 10/28/28
f 12/29/29 1/25/24 14/30/30
f 14/30/30 1/25/24 16/31/31
f 16/31/31 1/25/24 18/32/32
f 18/32/32 1/25/24 20/33/33
f 20/33/33 1/25/24 22/34/34
f 22/34/34 1/25/24 2/23/23
f 3/4/2 23/22/21 22/36/34 2/35/23
f 2/35/23 4/37/25 5/3/3 3/4/2
f 4/37/25 6/38/26 7/6/5 5/3/3
f 6/38/26 8/39/27 9/8/7 7/6/5
f 8/39/27 10/40/28 11/10/9 9/8/7
f 12/41/29 14/42/30 15/13/13 13/14/12
f 14/42/30 16/43/31 17/16/15 15/13/13
f 16/43/31 18/44/32 19/18/17 17/16/15
f 18/44/32 20/45/33 21/20/19 19/18/17
f 20/45/33 22/36/34 23/22/21 21/20/19
f 25/1/1 27/2/4 26/47/35 24/46/36
f 24/46/36 44/48/37 45/21/22 25/1/1
f 27/2/4 29/5/6 28/49/38 26/47/35
f 29/5/6 31/7/8 30/50/39 28/49/38
f 31/7/8 33/9/10 32/51/40 30/50/39
f 35/11/11 37/12/14 36/53/41 34/52/42
f 37/12/14 39/15/16 38/54/43 36/53/41
f 39/15/16 41/17/18 40/55/44 38/54/43
f 41/17/18 43/19/20 42/56/45 40/55/44
f 43/19/20 45/21/22 44/48/37 42/56/45
f 24/57/36 46/60/46 47/59/47 44/58/37
f 26/61/35 48/62/48 46/60/46 24/57/36
f 28/63/38 49/64/49 48/62/48 26/61/35
f 30/65/39 50/66/50 49/64/49 28/63/38
f 32/67/40 51/68/51 50/66/50 30/65/39
f 36/71/41 53/72/52 52/70/53 34/69/42
f 38/73/43 54/74/54 53/72/52 36/71/41
f 40/75/44 55/76/55 54/74/54 38/73/43
f 42/77/45 56/78/56 55/76/55 40/75/44
f 44/58/37 47/59/47 56/78/56 42/77/45
f 51/79/51 57/82/57 58/81/58 50/80/50
f 50/80/50 58/81/58 59/84/59 49/83/49
f 49/83/49 59/84/59 60/86/60 48/85/48
f 48/85/48 60/86/60 61/88/61 46/87/46
f 46/87/46 61/88/61 62/90/62 47/89/47
f 47/89/47 62/90/62 63/92/63 56/91/56
f 56/91/56 63/92/63 64/94/64 55/93/55
f 55/93/55 64/94/64 65/96/65 54/95/54
f 54/95/54 65/96/65 66/98/66 53/97/52
f 53/97/52 66/98/66 67/100/67 52/99/53
f 57/82/57 68/102/68 69/101/69 58/81/58
f 58/81/58 69/101/69 70/103/70 59/84/59
f 59/84/59 70/103/70 71/104/71 60/86/60
f 60/86/60 71/104/71 72/105/72 61/88/61
f 61/88/61 72/105/72 73/106/73 62/90/62
f 62/90/62 73/106/73 74/107/74 63/92/63
f 63/92/63 74/107/74 75/108/75 64/94/64
f 64/94/64 75/108/75 76/109/76 65/96/65
f 65/96/65 76/109/76 77/110/77 66/98/66
f 66/98/66 77/110/77 78/111/78 67/100/67
f 68/102/68 120/113/79 119/112/80 69/101/69
f 69/101/69 119/112/80 118/114/81 70/103/70
f 70/103/70 118/114/81 117/115/82 71/104/71
f 71/104/71 117/115/82 116/116/83 72/105/72
f 72/105/72 116/116/83 115/117/84 73/106/73
f 73/106/73 115/117/84 114/118/85 74/107/74
f 74/107/74 114/118/85 113/119/86 75/108/75
f 75/108/75 113/119/86 112/120/87 76/109/76
f 76/109/76 112/120/87 122/121/88 77/110/77
f 77/110/77 122/121/88 121/122/89 78/111/78
f 79/123/90 90/126/91 91/125/92 80/124/93
f 80/124/93 91/125/92 92/128/94 81/127/95
f 81/127/95 92/128/94 93/130/96 82/129/97
f 82/129/97 93/130/96 94/132/98 83/131/99
f 83/131/99 94/132/98 95/134/100 84/133/101
f 84/133/101 95/134/100 96/136/102 85/135/103
f 85/135/103 96/136/102 97/138/104 86/137/105
f 86/137/105 97/138/104 98/140/106 87/139/107
f 87/139/107 98/140/106 99/142/108 88/141/109
f 88/141/109 99/142/108 100/144/110 89/143/111
f 90/126/91 101/146/112 102/145/113 91/125/92
f 91/125/92 102/145/113 103/147/114 92/128/94
f 92/128/94 103/147/114 104/148/115 93/130/96
f 93/130/96 104/148/115 105/149/116 94/132/98
f 94/132/98 105/149/116 106/150/117 95/134/100
f 95/134/100 106/150/117 107/151/118 96/136/102
f 96/136/102 107/151/118 108/152/119 97/138/104
f 97/138/104 108/152/119 109/153/120 98/140/106
f 98/140/106 109/153/120 110/154/121 99/142/108
f 99/142/108 110/154/121 111/155/122 100/144/110
f 113/119/86 86/137/105 87/139/107 112/120/87
f 114/118/85 85/135/103 86/137/105 113/119/86
f 115/117/84 84/133/101 85/135/103 114/118/85
f 116/116/83 83/131/99 84/133/101 115/117/84
f 117/115/82 82/129/97 83/131/99 116/116/83
f 118/114/81 81/127/95 82/129/97 117/115/82
f 119/112/80 80/124/93 81/127/95 118/114/81
f 120/113/79 79/123/90 80/124/93 119/112/80
f 122/121/88 88/141/109 89/143/111 121/122/89
f 112/120/87 87/139/107 88/141/109 122/121/88
f 146/156/123 130/159/124 132/158/125 148/157/126
f 148/157/126 132/158/125 134/161/127 150/160/128
f 150/160/128 134/161/127 136/163/129 152/162/130
f 152/162/130 136/163/129 138/165/131 154/164/132
f 154/164/132 138/165/131 139/167/133 156/166/134
f 156/166/134 139/167/133 140/169/135 158/168/136
f 146/156/123 148/157/126 147/171/137 145/170/138
f 148/157/126 150/160/128 149/172/139 147/171/137
f 150/160/128 152/162/130 151/173/140 149/172/139
f 152/162/130 154/164/132 153/174/141 151/173/140
f 154/164/132 156/166/134 155/175/142 153/174/141
f 156/166/134 158/168/136 157/176/143 155/175/142
f 158/168/136 160/178/144 159/177/145 157/176/143
f 160/178/144 162/180/146 161/179/147 159/177/145
f 162/180/146 164/182/148 163/181/149 161/179/147
f 164/182/148 166/184/150 165/183/151 163/181/149
f 131/185/152 132/158/125 130/159/124 129/186/153
f 133/187/154 134/161/127 132/158/125 131/185/152
f 135/188/155 136/163/129 134/161/127 133/187/154
f 137/189/156 138/165/131 136/163/129 135/188/155
f 140/169/135 141/190/157 160/178/144 158/168/136
f 139/167/133 138/165/131 137/189/156 128/191/158
f 140/169/135 139/167/133 128/191/158 127/192/159
f 141/190/157 140/169/135 127/192/159 124/193/160
f 142/194/161 162/180/146 160/178/144 141/190/157
f 143/195/162 164/182/148 162/180/146 142/194/161
f 141/190/157 124/193/160 123/196/163 142/194/161
f 142/194/161 123/196/163 126/197/164 143/195/162
f 144/198/165 166/184/150 164/182/148 143/195/162
f 143/195/162 126/197/164 125/199/166 144/198/165
f 101/200/112 145/201/138 147/203/137 102/202/113
f 102/202/113 147/203/137 149/205/139 103/204/114
f 103/204/114 149/205/139 151/207/140 104/206/115
f 104/206/115 151/207/140 153/209/141 105/208/116
f 105/208/116 153/209/141 155/211/142 106/210/117
f 106/210/117 155/211/142 157/213/143 107/212/118
f 107/212/118 157/213/143 159/215/145 108/214/119
f 108/214/119 159/215/145 161/217/147 109/216/120
f 109/216/120 161/217/147 163/219/149 110/218/121
f 110/218/121 163/219/149 165/221/151 111/220/122
f 129/223/153 167/222/167 131/224/152
f 131/224/152 167/222/167 133/225/154
f 133/225/154 167/222/167 135/226/155
f 135/226/155 167/222/167 137/227/156
f 137/227/156 167/222/167 128/228/158
f 128/228/158 167/222/167 127/229/159
f 127/229/159 167/222/167 124/230/160
f 124/230/160 167/222/167 123/231/163
f 123/231/163 167/222/167 126/232/164
f 126/232/164 167/222/167 125/233/166
