# This file uses centimeters as units for non-parametric coordinates.

mtllib CeleryTallRLowerArm.mtl
g default
v 1.298567 -0.144158 -0.285955
v 1.298587 -0.144158 0.286014
v 1.297070 -0.079130 0.223499
v 1.295977 -0.032320 0.190124
v 1.295109 0.004827 0.138141
v 1.294551 0.028679 0.072639
v 1.294357 0.036897 0.000030
v 1.294546 0.028679 -0.072580
v 1.295100 0.004827 -0.138082
v 1.295963 -0.032320 -0.190065
v 1.297054 -0.079130 -0.223439
v 1.297903 -0.115805 -0.405468
v 1.297931 -0.115805 0.405527
v 1.298551 -0.064065 0.408644
v 1.295816 0.053164 0.364020
v 1.293933 0.133799 0.264485
v 1.292721 0.185572 0.139062
v 1.292301 0.203410 0.000030
v 1.292711 0.185572 -0.139002
v 1.293915 0.133799 -0.264425
v 1.295791 0.053164 -0.363961
v 1.298522 -0.064065 -0.408585
v 1.298720 -0.150809 -0.352425
v 1.296569 -0.058524 -0.331818
v 1.294613 0.025491 -0.285112
v 1.293205 0.085969 -0.207138
v 1.292303 0.124797 -0.108884
v 1.291995 0.138176 0.000030
v 1.292311 0.124797 0.108944
v 1.293220 0.085969 0.207198
v 1.294633 0.025491 0.285171
v 1.296592 -0.058524 0.331876
v 1.298745 -0.150809 0.352483
v 0.146622 -0.139101 0.340056
v 0.139936 -0.022162 0.302927
v 0.135342 0.058303 0.220109
v 0.132392 0.109924 0.115751
v 0.131382 0.127747 0.000070
v 0.132384 0.109924 -0.115611
v 0.135327 0.058302 -0.219968
v 0.139915 -0.022162 -0.302788
v 0.146598 -0.139101 -0.339917
v 0.149566 -0.201006 -0.322949
v 0.151551 -0.235917 -0.280695
v 0.151173 -0.229259 -0.227744
v 0.147474 -0.164412 -0.177945
v 0.144809 -0.117719 -0.151358
v 0.142693 -0.080664 -0.109950
v 0.141334 -0.056843 -0.057770
v 0.140870 -0.048646 0.000070
v 0.141339 -0.056843 0.057910
v 0.142701 -0.080664 0.110090
v 0.144819 -0.117719 0.151498
v 0.147486 -0.164412 0.178085
v 0.151189 -0.229259 0.227884
v 0.151571 -0.235916 0.280834
v 0.149589 -0.201005 0.323088
v -1.005073 -0.225861 0.312069
v -1.015271 -0.117085 0.278002
v -1.022287 -0.042263 0.202010
v -1.026793 0.005775 0.106255
v -1.028348 0.022328 0.000111
v -1.026801 0.005775 -0.106035
v -1.022301 -0.042263 -0.201790
v -1.015290 -0.117085 -0.277781
v -1.005095 -0.225861 -0.311850
v -0.999703 -0.283399 -0.296279
v -0.996658 -0.315880 -0.257510
v -0.997234 -0.309705 -0.208924
v -1.002889 -0.249366 -0.163231
v -1.006959 -0.205932 -0.138835
v -1.010188 -0.171462 -0.100839
v -1.012261 -0.149332 -0.052963
v -1.012974 -0.141705 0.000110
v -1.012257 -0.149332 0.053183
v -1.010181 -0.171462 0.101060
v -1.006950 -0.205932 0.139056
v -1.002877 -0.249366 0.163450
v -0.997220 -0.309705 0.209143
v -0.996639 -0.315878 0.257729
v -0.999682 -0.283399 0.296500
v -2.158226 -0.321455 0.305853
v -2.168193 -0.215266 0.272469
v -2.175051 -0.142224 0.198001
v -2.179456 -0.095328 0.104167
v -2.180976 -0.079168 0.000151
v -2.179463 -0.095328 -0.103865
v -2.175065 -0.142224 -0.197699
v -2.168212 -0.215266 -0.272167
v -2.158249 -0.321455 -0.305552
v -2.152090 -0.387055 -0.290296
v -2.149114 -0.418762 -0.252302
v -2.149677 -0.412737 -0.204692
v -2.155204 -0.353832 -0.159914
v -2.159182 -0.311432 -0.136009
v -2.162339 -0.277781 -0.098775
v -2.164365 -0.256178 -0.051857
v -2.165062 -0.248733 0.000151
v -2.164361 -0.256178 0.052159
v -2.162332 -0.277781 0.099075
v -2.159173 -0.311432 0.136309
v -2.155193 -0.353832 0.160214
v -2.149663 -0.412737 0.204992
v -2.149097 -0.418762 0.252602
v -2.152070 -0.387055 0.290595
vt 0.070151 0.029912
vt 0.071721 0.037749
vt 0.066118 0.037063
vt 0.060958 0.031453
vt 0.066361 0.022727
vt 0.058225 0.027435
vt 0.059887 0.017472
vt 0.053903 0.024200
vt 0.051659 0.014008
vt 0.048413 0.022063
vt 0.042483 0.012675
vt 0.042295 0.021233
vt 0.033258 0.013603
vt 0.036146 0.021792
vt 0.024886 0.016700
vt 0.030567 0.023686
vt 0.018186 0.021665
vt 0.026107 0.026727
vt 0.014083 0.028676
vt 0.023200 0.030620
vt 0.012170 0.036436
vt 0.017797 0.035998
vt 0.007754 0.033380
vt 0.007585 0.029003
vt 0.011575 0.019181
vt 0.020135 0.012553
vt 0.030827 0.008413
vt 0.042605 0.007164
vt 0.054317 0.008931
vt 0.064816 0.013539
vt 0.073075 0.020537
vt 0.076628 0.030525
vt 0.076267 0.034890
vt 0.024493 0.793942
vt 0.014120 0.794364
vt 0.009171 0.696745
vt 0.019742 0.696019
vt 0.034253 0.793737
vt 0.030555 0.695654
vt 0.044087 0.793626
vt 0.042016 0.695444
vt 0.053969 0.793584
vt 0.053859 0.695367
vt 0.063852 0.793605
vt 0.065702 0.695417
vt 0.073687 0.793694
vt 0.077163 0.695602
vt 0.083446 0.793876
vt 0.087977 0.695943
vt 0.093820 0.794274
vt 0.098550 0.696645
vt 0.099234 0.794662
vt 0.102892 0.697206
vt 0.181831 0.985960
vt 0.175867 0.888766
vt 0.180500 0.888741
vt 0.187200 0.986061
vt 0.171360 0.888802
vt 0.176187 0.985985
vt 0.168574 0.986376
vt 0.164451 0.889012
vt 0.163724 0.986672
vt 0.159909 0.889170
vt 0.158330 0.986895
vt 0.155213 0.889288
vt 0.152442 0.987051
vt 0.150367 0.889374
vt 0.146268 0.987139
vt 0.145433 0.889430
vt 0.140094 0.987157
vt 0.140498 0.889458
vt 0.134204 0.987101
vt 0.135651 0.889455
vt 0.128807 0.986968
vt 0.130954 0.889416
vt 0.123953 0.986755
vt 0.126410 0.889335
vt 0.116334 0.986495
vt 0.119498 0.889243
vt 0.114991 0.889284
vt 0.110690 0.986566
vt 0.110358 0.889337
vt 0.105324 0.986758
vt 0.008707 0.794764
vt 0.004830 0.697316
vt 0.026896 0.891914
vt 0.017225 0.891937
vt 0.035930 0.891919
vt 0.044996 0.891924
vt 0.054081 0.891919
vt 0.063166 0.891901
vt 0.072232 0.891876
vt 0.081266 0.891851
vt 0.090937 0.891852
vt 0.095995 0.891895
vt 0.172708 0.791515
vt 0.176987 0.791415
vt 0.168569 0.791554
vt 0.162155 0.791581
vt 0.157932 0.791598
vt 0.153590 0.791618
vt 0.149131 0.791643
vt 0.144601 0.791677
vt 0.140072 0.791720
vt 0.135613 0.791770
vt 0.131271 0.791825
vt 0.127048 0.791879
vt 0.120635 0.791962
vt 0.116496 0.791993
vt 0.112215 0.791966
vt 0.012167 0.891991
vt 0.027616 0.989668
vt 0.018179 0.989650
vt 0.036441 0.989686
vt 0.045305 0.989695
vt 0.054193 0.989692
vt 0.063080 0.989676
vt 0.071944 0.989647
vt 0.080769 0.989609
vt 0.090206 0.989569
vt 0.095918 0.989561
vt 0.171273 0.693740
vt 0.175460 0.693680
vt 0.167219 0.693779
vt 0.160951 0.693829
vt 0.156825 0.693862
vt 0.152577 0.693896
vt 0.148209 0.693932
vt 0.143770 0.693969
vt 0.139330 0.694007
vt 0.134963 0.694046
vt 0.130715 0.694085
vt 0.126589 0.694122
vt 0.120322 0.694178
vt 0.116268 0.694208
vt 0.112080 0.694220
vt 0.012467 0.989655
vt 0.056088 0.087234
vt 0.059432 0.091870
vt 0.047021 0.094100
vt 0.048575 0.088027
vt 0.060319 0.101271
vt 0.046552 0.098199
vt 0.056917 0.109423
vt 0.044756 0.102051
vt 0.051147 0.116161
vt 0.041811 0.105276
vt 0.043574 0.120828
vt 0.038003 0.107559
vt 0.034939 0.122966
vt 0.033707 0.108678
vt 0.026088 0.122365
vt 0.029342 0.108522
vt 0.017886 0.119085
vt 0.025335 0.107106
vt 0.011797 0.111867
vt 0.022080 0.104570
vt 0.010831 0.106236
vt 0.016656 0.101425
vt 0.052085 0.085997
vt 0.012748 0.102512
vn 0.999795 0.017523 -0.010113
vn 0.999832 0.017816 -0.004310
vn 0.999728 0.023310 -0.000036
vn 0.999728 0.023308 -0.000037
vn 0.999844 0.014384 -0.010291
vn 0.999795 0.017523 -0.010113
vn 0.999728 0.023308 -0.000037
vn 0.999728 0.023306 -0.000033
vn 0.999917 0.011088 -0.006615
vn 0.999844 0.014384 -0.010291
vn 0.999728 0.023306 -0.000033
vn 0.999728 0.023309 -0.000032
vn 0.999949 0.009529 -0.003359
vn 0.999917 0.011088 -0.006615
vn 0.999728 0.023309 -0.000032
vn 0.999728 0.023310 -0.000034
vn 0.999959 0.009055 -0.000035
vn 0.999949 0.009529 -0.003359
vn 0.999728 0.023310 -0.000034
vn 0.999728 0.023312 -0.000035
vn 0.999949 0.009529 0.003289
vn 0.999959 0.009055 -0.000035
vn 0.999728 0.023312 -0.000035
vn 0.999728 0.023313 -0.000036
vn 0.999917 0.011087 0.006545
vn 0.999949 0.009529 0.003289
vn 0.999728 0.023313 -0.000036
vn 0.999728 0.023309 -0.000038
vn 0.999844 0.014383 0.010220
vn 0.999917 0.011087 0.006545
vn 0.999728 0.023309 -0.000038
vn 0.999728 0.023306 -0.000037
vn 0.999796 0.017524 0.010042
vn 0.999844 0.014383 0.010220
vn 0.999728 0.023306 -0.000037
vn 0.999728 0.023308 -0.000034
vn 0.999832 0.017815 0.004239
vn 0.999796 0.017524 0.010042
vn 0.999728 0.023308 -0.000034
vn 0.999728 0.023311 -0.000036
vn 0.999898 0.009309 0.010853
vn 0.999788 0.011526 0.017037
vn 0.999796 0.017524 0.010042
vn 0.999832 0.017815 0.004239
vn 0.999788 0.011526 0.017037
vn 0.999762 0.009511 0.019608
vn 0.999844 0.014383 0.010220
vn 0.999796 0.017524 0.010042
vn 0.999762 0.009511 0.019608
vn 0.999906 0.001355 0.013676
vn 0.999917 0.011087 0.006545
vn 0.999844 0.014383 0.010220
vn 0.999906 0.001355 0.013676
vn 0.999968 -0.003245 0.007345
vn 0.999949 0.009529 0.003289
vn 0.999917 0.011087 0.006545
vn 0.999968 -0.003245 0.007345
vn 0.999988 -0.004828 -0.000035
vn 0.999959 0.009055 -0.000035
vn 0.999949 0.009529 0.003289
vn 0.999988 -0.004828 -0.000035
vn 0.999967 -0.003244 -0.007415
vn 0.999949 0.009529 -0.003359
vn 0.999959 0.009055 -0.000035
vn 0.999967 -0.003244 -0.007415
vn 0.999905 0.001357 -0.013747
vn 0.999917 0.011088 -0.006615
vn 0.999949 0.009529 -0.003359
vn 0.999905 0.001357 -0.013747
vn 0.999761 0.009511 -0.019680
vn 0.999844 0.014384 -0.010291
vn 0.999917 0.011088 -0.006615
vn 0.999761 0.009511 -0.019680
vn 0.999787 0.011527 -0.017107
vn 0.999795 0.017523 -0.010113
vn 0.999844 0.014384 -0.010291
vn 0.999787 0.011527 -0.017107
vn 0.999897 0.009315 -0.010922
vn 0.999832 0.017816 -0.004310
vn 0.999795 0.017523 -0.010113
vn -0.070227 0.535415 0.841665
vn -0.051080 0.142312 0.988503
vn -0.069470 0.179176 0.981361
vn -0.079016 0.552332 0.829871
vn -0.077550 0.826445 0.557652
vn -0.070227 0.535415 0.841665
vn -0.079016 0.552332 0.829871
vn -0.075804 0.837761 0.540749
vn -0.077893 0.954483 0.287914
vn -0.077550 0.826445 0.557652
vn -0.075804 0.837761 0.540749
vn -0.069200 0.958480 0.276637
vn -0.077696 0.996977 0.000003
vn -0.077893 0.954483 0.287914
vn -0.069200 0.958480 0.276637
vn -0.066449 0.997790 0.000002
vn -0.077913 0.954483 -0.287908
vn -0.077696 0.996977 0.000003
vn -0.066449 0.997790 0.000002
vn -0.069220 0.958480 -0.276633
vn -0.077589 0.826444 -0.557647
vn -0.077913 0.954483 -0.287908
vn -0.069220 0.958480 -0.276633
vn -0.075842 0.837760 -0.540745
vn -0.070285 0.535414 -0.841660
vn -0.077589 0.826444 -0.557647
vn -0.075842 0.837760 -0.540745
vn -0.079074 0.552331 -0.829866
vn -0.051149 0.142311 -0.988500
vn -0.070285 0.535414 -0.841660
vn -0.079074 0.552331 -0.829866
vn -0.069540 0.179174 -0.981357
vn 0.000669 -0.528753 -0.848776
vn -0.051149 0.142311 -0.988500
vn -0.069540 0.179174 -0.981357
vn -0.019259 -0.512813 -0.858284
vn 0.052447 -0.961025 -0.271440
vn 0.057553 -0.962543 -0.264952
vn 0.000669 -0.528753 -0.848776
vn -0.019259 -0.512813 -0.858284
vn 0.077351 -0.830395 0.551779
vn 0.057553 -0.962543 -0.264952
vn 0.052447 -0.961025 -0.271440
vn 0.087077 -0.849131 0.520955
vn 0.087077 -0.849131 0.520955
vn 0.077846 -0.606370 0.791363
vn 0.065439 -0.583896 0.809187
vn 0.077351 -0.830395 0.551779
vn 0.077846 -0.606370 0.791363
vn 0.074338 -0.672342 0.736498
vn 0.065784 -0.649958 0.757118
vn 0.065439 -0.583896 0.809187
vn 0.074338 -0.672342 0.736498
vn 0.076467 -0.862834 0.499671
vn 0.073472 -0.849640 0.522219
vn 0.065784 -0.649958 0.757118
vn 0.076467 -0.862834 0.499671
vn 0.075469 -0.965268 0.250123
vn 0.076595 -0.961406 0.264255
vn 0.073472 -0.849640 0.522219
vn 0.075469 -0.965268 0.250123
vn 0.074759 -0.997202 -0.000003
vn 0.077369 -0.997002 -0.000003
vn 0.076595 -0.961406 0.264255
vn 0.074759 -0.997202 -0.000003
vn 0.075451 -0.965268 -0.250129
vn 0.076577 -0.961407 -0.264260
vn 0.077369 -0.997002 -0.000003
vn 0.075451 -0.965268 -0.250129
vn 0.076431 -0.862834 -0.499676
vn 0.073435 -0.849640 -0.522225
vn 0.076577 -0.961407 -0.264260
vn 0.076431 -0.862834 -0.499676
vn 0.074287 -0.672346 -0.736500
vn 0.065731 -0.649960 -0.757120
vn 0.073435 -0.849640 -0.522225
vn 0.074287 -0.672346 -0.736500
vn 0.077791 -0.606371 -0.791368
vn 0.065383 -0.583896 -0.809192
vn 0.065731 -0.649960 -0.757120
vn 0.077791 -0.606371 -0.791368
vn 0.087040 -0.849130 -0.520962
vn 0.077312 -0.830395 -0.551786
vn 0.065383 -0.583896 -0.809192
vn 0.057571 -0.962541 0.264953
vn 0.077312 -0.830395 -0.551786
vn 0.087040 -0.849130 -0.520962
vn 0.052466 -0.961025 0.271438
vn 0.000729 -0.528752 0.848776
vn 0.057571 -0.962541 0.264953
vn 0.052466 -0.961025 0.271438
vn -0.019199 -0.512813 0.858286
vn -0.051080 0.142312 0.988503
vn 0.000729 -0.528752 0.848776
vn -0.019199 -0.512813 0.858286
vn -0.069470 0.179176 0.981361
vn -0.054320 0.512760 0.856812
vn -0.023177 0.108549 0.993821
vn -0.051080 0.142312 0.988503
vn -0.070227 0.535415 0.841665
vn -0.075988 0.810418 0.580903
vn -0.054320 0.512760 0.856812
vn -0.070227 0.535415 0.841665
vn -0.077550 0.826445 0.557652
vn -0.085852 0.948764 0.304100
vn -0.075988 0.810418 0.580903
vn -0.077550 0.826445 0.557652
vn -0.077893 0.954483 0.287914
vn -0.089210 0.996013 0.000003
vn -0.085852 0.948764 0.304100
vn -0.077893 0.954483 0.287914
vn -0.077696 0.996977 0.000003
vn -0.085874 0.948764 -0.304094
vn -0.089210 0.996013 0.000003
vn -0.077696 0.996977 0.000003
vn -0.077913 0.954483 -0.287908
vn -0.076028 0.810418 -0.580897
vn -0.085874 0.948764 -0.304094
vn -0.077913 0.954483 -0.287908
vn -0.077589 0.826444 -0.557647
vn -0.054380 0.512760 -0.856808
vn -0.076028 0.810418 -0.580897
vn -0.077589 0.826444 -0.557647
vn -0.070285 0.535414 -0.841660
vn -0.023246 0.108546 -0.993820
vn -0.054380 0.512760 -0.856808
vn -0.070285 0.535414 -0.841660
vn -0.051149 0.142311 -0.988500
vn 0.028263 -0.506233 -0.861934
vn -0.023246 0.108546 -0.993820
vn -0.051149 0.142311 -0.988500
vn 0.000669 -0.528753 -0.848776
vn 0.057553 -0.962543 -0.264952
vn 0.071984 -0.955257 -0.286884
vn 0.028263 -0.506233 -0.861934
vn 0.000669 -0.528753 -0.848776
vn 0.070436 -0.812854 0.578192
vn 0.071984 -0.955257 -0.286884
vn 0.057553 -0.962543 -0.264952
vn 0.077351 -0.830395 0.551779
vn 0.077351 -0.830395 0.551779
vn 0.065439 -0.583896 0.809187
vn 0.052353 -0.557312 0.828651
vn 0.070436 -0.812854 0.578192
vn 0.065439 -0.583896 0.809187
vn 0.065784 -0.649958 0.757118
vn 0.057556 -0.623596 0.779625
vn 0.052353 -0.557312 0.828651
vn 0.065784 -0.649958 0.757118
vn 0.073472 -0.849640 0.522219
vn 0.073730 -0.832277 0.549435
vn 0.057556 -0.623596 0.779625
vn 0.073472 -0.849640 0.522219
vn 0.076595 -0.961406 0.264255
vn 0.083216 -0.955734 0.282218
vn 0.073730 -0.832277 0.549435
vn 0.076595 -0.961406 0.264255
vn 0.077369 -0.997002 -0.000003
vn 0.086310 -0.996268 -0.000003
vn 0.083216 -0.955734 0.282218
vn 0.077369 -0.997002 -0.000003
vn 0.076577 -0.961407 -0.264260
vn 0.083196 -0.955735 -0.282223
vn 0.086310 -0.996268 -0.000003
vn 0.076577 -0.961407 -0.264260
vn 0.073435 -0.849640 -0.522225
vn 0.073692 -0.832277 -0.549441
vn 0.083196 -0.955735 -0.282223
vn 0.073435 -0.849640 -0.522225
vn 0.065731 -0.649960 -0.757120
vn 0.057502 -0.623596 -0.779629
vn 0.073692 -0.832277 -0.549441
vn 0.065731 -0.649960 -0.757120
vn 0.065383 -0.583896 -0.809192
vn 0.052295 -0.557313 -0.828654
vn 0.057502 -0.623596 -0.779629
vn 0.065383 -0.583896 -0.809192
vn 0.077312 -0.830395 -0.551786
vn 0.070396 -0.812854 -0.578198
vn 0.052295 -0.557313 -0.828654
vn 0.072004 -0.955256 0.286882
vn 0.070396 -0.812854 -0.578198
vn 0.077312 -0.830395 -0.551786
vn 0.057571 -0.962541 0.264953
vn 0.028323 -0.506234 0.861931
vn 0.072004 -0.955256 0.286882
vn 0.057571 -0.962541 0.264953
vn 0.000729 -0.528752 0.848776
vn -0.023177 0.108549 0.993821
vn 0.028323 -0.506234 0.861931
vn 0.000729 -0.528752 0.848776
vn -0.051080 0.142312 0.988503
vn -0.047757 0.512295 0.857481
vn -0.013995 0.108134 0.994038
vn -0.023177 0.108549 0.993821
vn -0.054320 0.512760 0.856812
vn -0.072239 0.809822 0.582212
vn -0.047757 0.512295 0.857481
vn -0.054320 0.512760 0.856812
vn -0.075988 0.810418 0.580903
vn -0.083739 0.948646 0.305054
vn -0.072239 0.809822 0.582212
vn -0.075988 0.810418 0.580903
vn -0.085852 0.948764 0.304100
vn -0.087691 0.996148 0.000003
vn -0.083739 0.948646 0.305054
vn -0.085852 0.948764 0.304100
vn -0.089210 0.996013 0.000003
vn -0.083761 0.948646 -0.305048
vn -0.087691 0.996148 0.000003
vn -0.089210 0.996013 0.000003
vn -0.085874 0.948764 -0.304094
vn -0.072280 0.809821 -0.582207
vn -0.083761 0.948646 -0.305048
vn -0.085874 0.948764 -0.304094
vn -0.076028 0.810418 -0.580897
vn -0.047817 0.512296 -0.857477
vn -0.072280 0.809821 -0.582207
vn -0.076028 0.810418 -0.580897
vn -0.054380 0.512760 -0.856808
vn -0.014065 0.108132 -0.994037
vn -0.047817 0.512296 -0.857477
vn -0.054380 0.512760 -0.856808
vn -0.023246 0.108546 -0.993820
vn 0.039400 -0.494774 -0.868128
vn -0.014065 0.108132 -0.994037
vn -0.023246 0.108546 -0.993820
vn 0.028263 -0.506233 -0.861934
vn 0.071984 -0.955257 -0.286884
vn 0.083881 -0.953865 -0.288280
vn 0.039400 -0.494774 -0.868128
vn 0.028263 -0.506233 -0.861934
vn 0.074781 -0.812290 0.578439
vn 0.083881 -0.953865 -0.288280
vn 0.071984 -0.955257 -0.286884
vn 0.070436 -0.812854 0.578192
vn 0.070436 -0.812854 0.578192
vn 0.052353 -0.557312 0.828651
vn 0.052781 -0.556103 0.829436
vn 0.074781 -0.812290 0.578439
vn 0.052353 -0.557312 0.828651
vn 0.057556 -0.623596 0.779625
vn 0.058840 -0.621645 0.781086
vn 0.052781 -0.556103 0.829436
vn 0.057556 -0.623596 0.779625
vn 0.073730 -0.832277 0.549435
vn 0.077652 -0.830823 0.551093
vn 0.058840 -0.621645 0.781086
vn 0.073730 -0.832277 0.549435
vn 0.083216 -0.955734 0.282218
vn 0.088820 -0.954917 0.283274
vn 0.077652 -0.830823 0.551093
vn 0.083216 -0.955734 0.282218
vn 0.086310 -0.996268 -0.000003
vn 0.092488 -0.995714 -0.000003
vn 0.088820 -0.954917 0.283274
vn 0.086310 -0.996268 -0.000003
vn 0.083196 -0.955735 -0.282223
vn 0.088800 -0.954917 -0.283280
vn 0.092488 -0.995714 -0.000003
vn 0.083196 -0.955735 -0.282223
vn 0.073692 -0.832277 -0.549441
vn 0.077613 -0.830823 -0.551099
vn 0.088800 -0.954917 -0.283280
vn 0.073692 -0.832277 -0.549441
vn 0.057502 -0.623596 -0.779629
vn 0.058785 -0.621645 -0.781090
vn 0.077613 -0.830823 -0.551099
vn 0.057502 -0.623596 -0.779629
vn 0.052295 -0.557313 -0.828654
vn 0.052723 -0.556105 -0.829438
vn 0.058785 -0.621645 -0.781090
vn 0.052295 -0.557313 -0.828654
vn 0.070396 -0.812854 -0.578198
vn 0.074740 -0.812291 -0.578444
vn 0.052723 -0.556105 -0.829438
vn 0.083901 -0.953866 0.288270
vn 0.074740 -0.812291 -0.578444
vn 0.070396 -0.812854 -0.578198
vn 0.072004 -0.955256 0.286882
vn 0.039461 -0.494776 0.868124
vn 0.083901 -0.953866 0.288270
vn 0.072004 -0.955256 0.286882
vn 0.028323 -0.506234 0.861931
vn -0.013995 0.108134 0.994038
vn 0.039461 -0.494776 0.868124
vn 0.028323 -0.506234 0.861931
vn -0.023177 0.108549 0.993821
vn -0.995625 -0.093442 0.000034
vn -0.995625 -0.093442 0.000034
vn -0.995625 -0.093442 0.000034
vn -0.995625 -0.093442 0.000034
vn -0.995625 -0.093440 0.000035
vn -0.995625 -0.093440 0.000035
vn -0.995625 -0.093440 0.000035
vn -0.995625 -0.093440 0.000035
vn -0.995625 -0.093439 0.000035
vn -0.995625 -0.093439 0.000035
vn -0.995625 -0.093439 0.000035
vn -0.995625 -0.093439 0.000035
vn -0.995625 -0.093441 0.000036
vn -0.995625 -0.093441 0.000036
vn -0.995625 -0.093441 0.000036
vn -0.995625 -0.093441 0.000036
vn -0.995625 -0.093441 0.000036
vn -0.995625 -0.093441 0.000036
vn -0.995625 -0.093441 0.000036
vn -0.995625 -0.093441 0.000036
vn -0.995625 -0.093441 0.000034
vn -0.995625 -0.093441 0.000034
vn -0.995625 -0.093441 0.000034
vn -0.995625 -0.093441 0.000034
vn -0.995625 -0.093441 0.000034
vn -0.995625 -0.093441 0.000034
vn -0.995625 -0.093441 0.000034
vn -0.995625 -0.093441 0.000034
vn -0.995625 -0.093438 0.000035
vn -0.995625 -0.093438 0.000035
vn -0.995625 -0.093438 0.000035
vn -0.995625 -0.093438 0.000035
vn -0.995625 -0.093440 0.000035
vn -0.995625 -0.093440 0.000035
vn -0.995625 -0.093440 0.000035
vn -0.995625 -0.093440 0.000035
vn -0.995625 -0.093442 0.000036
vn -0.995625 -0.093442 0.000036
vn -0.995625 -0.093442 0.000036
vn -0.995625 -0.093442 0.000036
vn -0.995627 -0.093422 0.000030
vn -0.995627 -0.093422 0.000030
vn -0.995627 -0.093422 0.000030
vn -0.995627 -0.093419 0.000040
vn -0.995627 -0.093419 0.000040
vn -0.995627 -0.093419 0.000040
s off
g FoodTallRLowerArm
usemtl blinn1SG
f 32/1/1 33/2/2 2/3/3 3/4/4
f 31/5/5 32/1/6 3/4/7 4/6/8
f 30/7/9 31/5/10 4/6/11 5/8/12
f 29/9/13 30/7/14 5/8/15 6/10/16
f 28/11/17 29/9/18 6/10/19 7/12/20
f 27/13/21 28/11/22 7/12/23 8/14/24
f 26/15/25 27/13/26 8/14/27 9/16/28
f 25/17/29 26/15/30 9/16/31 10/18/32
f 24/19/33 25/17/34 10/18/35 11/20/36
f 23/21/37 24/19/38 11/20/39 1/22/40
f 12/23/41 22/24/42 24/19/43 23/21/44
f 22/24/45 21/25/46 25/17/47 24/19/48
f 21/25/49 20/26/50 26/15/51 25/17/52
f 20/26/53 19/27/54 27/13/55 26/15/56
f 19/27/57 18/28/58 28/11/59 27/13/60
f 18/28/61 17/29/62 29/9/63 28/11/64
f 17/29/65 16/30/66 30/7/67 29/9/68
f 16/30/69 15/31/70 31/5/71 30/7/72
f 15/31/73 14/32/74 32/1/75 31/5/76
f 14/32/77 13/33/78 33/2/79 32/1/80
f 35/34/81 34/35/82 14/36/83 15/37/84
f 36/38/85 35/34/86 15/37/87 16/39/88
f 37/40/89 36/38/90 16/39/91 17/41/92
f 38/42/93 37/40/94 17/41/95 18/43/96
f 39/44/97 38/42/98 18/43/99 19/45/100
f 40/46/101 39/44/102 19/45/103 20/47/104
f 41/48/105 40/46/106 20/47/107 21/49/108
f 42/50/109 41/48/110 21/49/111 22/51/112
f 43/52/113 42/50/114 22/51/115 12/53/116
f 23/54/117 44/55/118 43/56/119 12/57/120
f 45/58/121 44/55/122 23/54/123 1/59/124
f 1/59/125 11/60/126 46/61/127 45/58/128
f 11/60/129 10/62/130 47/63/131 46/61/132
f 10/62/133 9/64/134 48/65/135 47/63/136
f 9/64/137 8/66/138 49/67/139 48/65/140
f 8/66/141 7/68/142 50/69/143 49/67/144
f 7/68/145 6/70/146 51/71/147 50/69/148
f 6/70/149 5/72/150 52/73/151 51/71/152
f 5/72/153 4/74/154 53/75/155 52/73/156
f 4/74/157 3/76/158 54/77/159 53/75/160
f 3/76/161 2/78/162 55/79/163 54/77/164
f 56/80/165 55/79/166 2/78/167 33/81/168
f 57/82/169 56/80/170 33/81/171 13/83/172
f 34/35/173 57/84/174 13/85/175 14/36/176
f 59/86/177 58/87/178 34/35/179 35/34/180
f 60/88/181 59/86/182 35/34/183 36/38/184
f 61/89/185 60/88/186 36/38/187 37/40/188
f 62/90/189 61/89/190 37/40/191 38/42/192
f 63/91/193 62/90/194 38/42/195 39/44/196
f 64/92/197 63/91/198 39/44/199 40/46/200
f 65/93/201 64/92/202 40/46/203 41/48/204
f 66/94/205 65/93/206 41/48/207 42/50/208
f 67/95/209 66/94/210 42/50/211 43/52/212
f 44/55/213 68/96/214 67/97/215 43/56/216
f 69/98/217 68/96/218 44/55/219 45/58/220
f 45/58/221 46/61/222 70/99/223 69/98/224
f 46/61/225 47/63/226 71/100/227 70/99/228
f 47/63/229 48/65/230 72/101/231 71/100/232
f 48/65/233 49/67/234 73/102/235 72/101/236
f 49/67/237 50/69/238 74/103/239 73/102/240
f 50/69/241 51/71/242 75/104/243 74/103/244
f 51/71/245 52/73/246 76/105/247 75/104/248
f 52/73/249 53/75/250 77/106/251 76/105/252
f 53/75/253 54/77/254 78/107/255 77/106/256
f 54/77/257 55/79/258 79/108/259 78/107/260
f 80/109/261 79/108/262 55/79/263 56/80/264
f 81/110/265 80/109/266 56/80/267 57/82/268
f 58/87/269 81/111/270 57/84/271 34/35/272
f 83/112/273 82/113/274 58/87/275 59/86/276
f 84/114/277 83/112/278 59/86/279 60/88/280
f 85/115/281 84/114/282 60/88/283 61/89/284
f 86/116/285 85/115/286 61/89/287 62/90/288
f 87/117/289 86/116/290 62/90/291 63/91/292
f 88/118/293 87/117/294 63/91/295 64/92/296
f 89/119/297 88/118/298 64/92/299 65/93/300
f 90/120/301 89/119/302 65/93/303 66/94/304
f 91/121/305 90/120/306 66/94/307 67/95/308
f 68/96/309 92/122/310 91/123/311 67/97/312
f 93/124/313 92/122/314 68/96/315 69/98/316
f 69/98/317 70/99/318 94/125/319 93/124/320
f 70/99/321 71/100/322 95/126/323 94/125/324
f 71/100/325 72/101/326 96/127/327 95/126/328
f 72/101/329 73/102/330 97/128/331 96/127/332
f 73/102/333 74/103/334 98/129/335 97/128/336
f 74/103/337 75/104/338 99/130/339 98/129/340
f 75/104/341 76/105/342 100/131/343 99/130/344
f 76/105/345 77/106/346 101/132/347 100/131/348
f 77/106/349 78/107/350 102/133/351 101/132/352
f 78/107/353 79/108/354 103/134/355 102/133/356
f 104/135/357 103/134/358 79/108/359 80/109/360
f 105/136/361 104/135/362 80/109/363 81/110/364
f 82/113/365 105/137/366 81/111/367 58/87/368
f 105/138/369 82/139/370 102/140/371 103/141/372
f 82/139/373 83/142/374 101/143/375 102/140/376
f 83/142/377 84/144/378 100/145/379 101/143/380
f 84/144/381 85/146/382 99/147/383 100/145/384
f 85/146/385 86/148/386 98/149/387 99/147/388
f 86/148/389 87/150/390 97/151/391 98/149/392
f 87/150/393 88/152/394 96/153/395 97/151/396
f 88/152/397 89/154/398 95/155/399 96/153/400
f 89/154/401 90/156/402 94/157/403 95/155/404
f 90/156/405 91/158/406 93/159/407 94/157/408
f 104/160/409 105/138/410 103/141/411
f 92/161/412 93/159/413 91/158/414
