# This file uses centimeters as units for non-parametric coordinates.

mtllib HotSauceCOL.mtl
g default
v -0.778345 -1.293721 -0.210358
v -0.957192 -1.162615 -0.130008
v -0.957192 -1.162615 0.130008
v -0.778345 -1.293721 0.210358
v -0.667811 -1.374749 0.000000
v -0.952402 -1.296352 0.000000
v 0.334984 0.058032 0.874140
v -0.614139 0.158219 0.540249
v -0.614139 0.158219 -0.540248
v 0.334984 0.058032 -0.874140
v 0.921573 -0.003886 0.000000
v -0.044773 -1.004640 0.646832
v -0.710863 -0.657068 0.399764
v -0.710863 -0.657068 -0.399764
v -0.044773 -1.004640 -0.646832
v 0.366894 -1.141509 0.000000
v 0.127780 0.939715 0.393267
v -0.334533 0.939715 0.243051
v -0.334533 0.939715 -0.243051
v 0.127780 0.939715 -0.393267
v 0.413504 0.939715 0.000000
v 0.087641 1.315025 -0.269733
v 0.000000 1.315025 0.000000
v -0.229448 1.315025 -0.166704
v -0.229448 1.315025 0.166704
v 0.087641 1.315025 0.269731
v 0.283612 1.315025 0.000000
vt 0.420215 0.145421
vt 0.464382 0.168963
vt 0.533833 0.168693
vt 0.577840 0.144851
vt 0.590706 0.097079
vt 0.406998 0.097757
vt 0.465629 0.127432
vt 0.532287 0.127184
vt 0.165682 0.852691
vt 0.153314 0.790960
vt 0.098979 0.822815
vt 0.105804 0.749920
vt 0.181935 0.733252
vt 0.215272 0.798598
vt 0.181947 0.677984
vt 0.093649 0.677068
vt 0.434120 0.677984
vt 0.346707 0.678281
vt 0.261428 0.678373
vt 0.792425 0.441882
vt 0.620878 0.479020
vt 0.379599 0.479905
vt 0.207819 0.444053
vt 0.015595 0.420035
vt 0.984446 0.416458
vt 0.719673 0.251749
vt 0.576838 0.301066
vt 0.422331 0.301628
vt 0.279168 0.253376
vt 0.162760 0.157397
vt 0.835373 0.154910
vn 0.110597 -0.993865 0.000000
vn -0.231581 -0.699016 -0.676570
vn 0.187652 -0.434938 -0.880691
vn 0.734582 -0.678520 0.000000
vn -0.231581 -0.699016 -0.676570
vn -0.874089 0.048942 -0.483294
vn -0.816370 0.057536 -0.574656
vn 0.187652 -0.434938 -0.880691
vn -0.874089 0.048942 -0.483294
vn -0.874089 0.048942 0.483294
vn -0.816370 0.057536 0.574656
vn -0.816370 0.057536 -0.574656
vn -0.874089 0.048942 0.483294
vn -0.231581 -0.699016 0.676569
vn 0.187652 -0.434938 0.880691
vn -0.816370 0.057536 0.574656
vn -0.231581 -0.699016 0.676569
vn 0.110597 -0.993865 0.000000
vn 0.734582 -0.678520 0.000000
vn 0.187652 -0.434938 0.880691
vn -0.729170 -0.684332 0.000000
vn -0.231581 -0.699016 -0.676570
vn 0.110597 -0.993865 0.000000
vn -0.231581 -0.699016 -0.676570
vn -0.729170 -0.684332 0.000000
vn -0.874089 0.048942 -0.483294
vn -0.874089 0.048942 -0.483294
vn -0.729170 -0.684332 0.000000
vn -0.874089 0.048942 0.483294
vn -0.874089 0.048942 0.483294
vn -0.729170 -0.684332 0.000000
vn -0.231581 -0.699016 0.676569
vn -0.231581 -0.699016 0.676569
vn -0.729170 -0.684332 0.000000
vn 0.110597 -0.993865 0.000000
vn -0.008879 0.999587 0.027327
vn -0.000000 1.000000 -0.000000
vn -0.028734 0.999587 -0.000000
vn -0.000000 1.000000 -0.000000
vn -0.008879 0.999587 0.027327
vn 0.023246 0.999587 0.016890
vn -0.000000 1.000000 -0.000000
vn 0.023246 0.999587 0.016890
vn 0.023246 0.999587 -0.016890
vn -0.000000 1.000000 -0.000000
vn 0.023246 0.999587 -0.016890
vn -0.008879 0.999587 -0.027327
vn -0.000000 1.000000 -0.000000
vn -0.008879 0.999587 -0.027327
vn -0.028734 0.999587 -0.000000
vn 0.305134 -0.158044 0.939103
vn -0.798850 -0.158043 0.580397
vn -0.801532 0.143980 0.580358
vn 0.344531 -0.014943 0.938656
vn -0.798850 -0.158043 0.580397
vn -0.798850 -0.158043 -0.580397
vn -0.801532 0.143980 -0.580358
vn -0.801532 0.143980 0.580358
vn -0.798850 -0.158043 -0.580397
vn 0.305134 -0.158044 -0.939103
vn 0.344530 -0.014943 -0.938656
vn -0.801532 0.143980 -0.580358
vn 0.305134 -0.158044 -0.939103
vn 0.987432 -0.158042 0.000000
vn 0.995889 -0.090579 0.000000
vn 0.344530 -0.014943 -0.938656
vn 0.987432 -0.158042 0.000000
vn 0.305134 -0.158044 0.939103
vn 0.344531 -0.014943 0.938656
vn 0.995889 -0.090579 0.000000
vn 0.187652 -0.434938 0.880691
vn 0.344531 -0.014943 0.938656
vn -0.801532 0.143980 0.580358
vn -0.816370 0.057536 0.574656
vn -0.816370 0.057536 0.574656
vn -0.801532 0.143980 0.580358
vn -0.801532 0.143980 -0.580358
vn -0.816370 0.057536 -0.574656
vn -0.816370 0.057536 -0.574656
vn -0.801532 0.143980 -0.580358
vn 0.344530 -0.014943 -0.938656
vn 0.187652 -0.434938 -0.880691
vn 0.187652 -0.434938 -0.880691
vn 0.344530 -0.014943 -0.938656
vn 0.995889 -0.090579 0.000000
vn 0.734582 -0.678520 0.000000
vn 0.734582 -0.678520 0.000000
vn 0.995889 -0.090579 0.000000
vn 0.344531 -0.014943 0.938656
vn 0.187652 -0.434938 0.880691
vn 0.023246 0.999587 -0.016890
vn 0.023246 0.999587 0.016890
vn -0.798850 -0.158043 -0.580397
vn -0.798850 -0.158043 0.580397
vn -0.008879 0.999587 -0.027327
vn 0.023246 0.999587 -0.016890
vn -0.798850 -0.158043 0.580397
vn 0.305134 -0.158044 0.939103
vn -0.028734 0.999587 -0.000000
vn -0.008879 0.999587 -0.027327
vn 0.305134 -0.158044 0.939103
vn 0.987432 -0.158042 0.000000
vn 0.987432 -0.158042 0.000000
vn 0.305134 -0.158044 -0.939103
vn -0.008879 0.999587 0.027327
vn -0.028734 0.999587 -0.000000
vn 0.023246 0.999587 0.016890
vn -0.008879 0.999587 0.027327
vn 0.305134 -0.158044 -0.939103
vn -0.798850 -0.158043 -0.580397
s off
g HotSauceCOL:pCylinder8
usemtl lambert2SG
f 5/6/1 1/1/2 15/29/3 16/30/4
f 1/1/5 2/2/6 14/28/7 15/29/8
f 2/2/9 3/3/10 13/27/11 14/28/12
f 3/3/13 4/4/14 12/26/15 13/27/16
f 4/4/17 5/5/18 16/31/19 12/26/20
f 6/7/21 1/1/22 5/6/23
f 1/1/24 6/7/25 2/2/26
f 2/2/27 6/8/28 3/3/29
f 3/3/30 6/8/31 4/4/32
f 4/4/33 6/8/34 5/5/35
f 22/9/36 23/10/37 27/14/38
f 23/10/39 22/9/40 24/11/41
f 23/10/42 24/11/43 25/12/44
f 23/10/45 25/12/46 26/13/47
f 23/10/48 26/13/49 27/14/50
f 17/15/51 18/16/52 8/21/53 7/20/54
f 18/16/55 19/17/56 9/22/57 8/21/58
f 19/17/59 20/18/60 10/23/61 9/22/62
f 20/18/63 21/19/64 11/24/65 10/23/66
f 21/19/67 17/15/68 7/20/69 11/25/70
f 12/26/71 7/20/72 8/21/73 13/27/74
f 13/27/75 8/21/76 9/22/77 14/28/78
f 14/28/79 9/22/80 10/23/81 15/29/82
f 15/29/83 10/23/84 11/24/85 16/30/86
f 16/31/87 11/25/88 7/20/89 12/26/90
f 25/12/91 24/11/92 19/17/93 18/16/94
f 26/13/95 25/12/96 18/16/97 17/15/98
f 27/14/99 26/13/100 17/15/101 21/19/102
f 21/19/103 20/18/104 22/9/105 27/14/106
f 24/11/107 22/9/108 20/18/109 19/17/110
