# This file uses centimeters as units for non-parametric coordinates.

mtllib HangingSignPostCOL.mtl
g default
v 0.700845 0.040858 0.000793
v -0.735941 0.040858 -0.000793
v -0.735941 1.477636 -0.000793
v 0.700845 1.477636 0.000793
v 1.030769 -0.219626 -35.133408
v -0.926970 -0.219626 -35.135567
v -0.926970 1.738119 -35.135567
v 1.030769 1.738119 -35.133408
v 0.051903 0.759247 -35.134491
vt 0.071216 0.302162
vt 0.067132 0.608397
vt 0.081344 0.302244
vt 0.080934 0.608499
vt 0.091474 0.302196
vt 0.094737 0.608435
vt 0.101743 0.302035
vt 0.108640 0.608191
vt 0.060947 0.301979
vt 0.053228 0.608117
vt 0.213766 0.618298
vt 0.216967 0.627639
vt 0.226308 0.624439
vt 0.220167 0.636981
vt 0.207625 0.630839
vn 0.707074 -0.707084 0.008880
vn 0.707074 -0.707084 0.008880
vn -0.707096 -0.707085 0.006791
vn -0.707095 -0.707086 0.006791
vn -0.707095 -0.707086 0.006791
vn -0.707096 -0.707085 0.006791
vn -0.707096 0.707085 0.006791
vn -0.707095 0.707086 0.006791
vn -0.707095 0.707086 0.006791
vn -0.707096 0.707085 0.006791
vn 0.707074 0.707084 0.008880
vn 0.707074 0.707084 0.008880
vn 0.707074 0.707084 0.008880
vn 0.707074 0.707084 0.008880
vn 0.707074 -0.707084 0.008880
vn 0.707074 -0.707084 0.008880
vn 0.001475 0.000000 -0.999999
vn 0.001482 0.000001 -0.999999
vn 0.001469 0.000000 -0.999999
vn 0.001475 0.000000 -0.999999
vn 0.001469 0.000000 -0.999999
vn 0.001467 0.000000 -0.999999
vn 0.001475 0.000000 -0.999999
vn 0.001467 0.000000 -0.999999
vn 0.001482 -0.000001 -0.999999
vn 0.001475 0.000000 -0.999999
vn 0.001482 -0.000001 -0.999999
vn 0.001482 0.000001 -0.999999
s off
g HangingSignPostCOL:pCylinder48
usemtl lambert2SG
f 5/2/1 1/1/2 2/3/3 6/4/4
f 6/4/5 2/3/6 3/5/7 7/6/8
f 7/6/9 3/5/10 4/7/11 8/8/12
f 8/10/13 4/9/14 1/1/15 5/2/16
f 9/12/17 5/11/18 6/13/19
f 9/12/20 6/13/21 7/14/22
f 9/12/23 7/14/24 8/15/25
f 9/12/26 8/15/27 5/11/28
