# This file uses centimeters as units for non-parametric coordinates.

mtllib PizzaCutter_piece01COL.mtl
g default
v -0.737379 6.497334 -2.459677
v 2.154143 6.497334 -1.520163
v 2.154145 6.497334 1.520165
v -0.737379 6.497334 2.459678
v -2.524439 6.497334 -0.000000
v -0.886937 5.579646 2.919969
v 2.545691 5.579646 1.804639
v 2.545691 5.579646 -1.804639
v -0.886937 5.579646 -2.919968
v -3.008417 5.579646 -0.000000
v -0.923706 3.934751 3.033129
v 2.641952 3.934751 1.874577
v 2.641952 3.934751 -1.874577
v -0.923706 3.934751 -3.033129
v -3.127402 3.934751 -0.000000
v 1.968321 15.639989 -1.385155
v 1.968321 15.639989 1.385155
v -0.666402 15.639989 -2.241228
v -2.294749 15.639989 -0.000000
v -0.666402 15.639989 2.241229
v -0.163214 15.639989 -0.692578
vt 0.677127 0.040203
vt 0.676982 0.058947
vt 0.621562 0.059312
vt 0.621329 0.040484
vt 0.733000 0.040367
vt 0.732928 0.058810
vt 0.789743 0.041018
vt 0.787905 0.059218
vt 0.510690 0.059361
vt 0.508955 0.040751
vt 0.565734 0.040117
vt 0.565856 0.058734
vt 0.621330 0.008995
vt 0.677622 0.008994
vt 0.732936 0.008921
vt 0.788184 0.009005
vt 0.510385 0.008943
vt 0.565504 0.008943
vt 0.212475 0.812349
vt 0.259504 0.812185
vt 0.396727 0.877117
vt 0.356807 0.877167
vt 0.029460 0.811489
vt 0.072273 0.811745
vt 0.237949 0.876856
vt 0.199146 0.876819
vt 0.277866 0.875945
vt 0.119946 0.808690
vt 0.317720 0.876341
vt 0.167266 0.809724
vt 0.238506 0.876382
vn -0.744116 0.392439 0.540631
vn -0.744116 0.392439 0.540631
vn -0.744116 0.392439 0.540631
vn -0.744116 0.392439 0.540631
vn 0.284228 0.392438 0.874761
vn 0.284228 0.392438 0.874761
vn 0.284228 0.392438 0.874761
vn 0.284228 0.392438 0.874761
vn 0.919778 0.392438 -0.000000
vn 0.919778 0.392438 -0.000000
vn 0.919778 0.392438 -0.000000
vn 0.919778 0.392438 -0.000000
vn 0.284227 0.392439 -0.874761
vn 0.284227 0.392439 -0.874761
vn 0.284227 0.392439 -0.874761
vn 0.284227 0.392439 -0.874761
vn -0.744116 0.392439 -0.540632
vn -0.744116 0.392439 -0.540632
vn -0.744116 0.392439 -0.540632
vn -0.744116 0.392439 -0.540632
vn -0.807635 0.058421 0.586781
vn -0.807635 0.058421 0.586781
vn -0.807635 0.058421 0.586781
vn -0.807635 0.058421 0.586781
vn 0.308489 0.058421 0.949432
vn 0.308489 0.058421 0.949432
vn 0.308489 0.058421 0.949432
vn 0.308489 0.058421 0.949432
vn 0.998292 0.058422 0.000000
vn 0.998292 0.058422 0.000000
vn 0.998292 0.058422 0.000000
vn 0.998292 0.058422 0.000000
vn 0.308489 0.058421 -0.949432
vn 0.308489 0.058421 -0.949432
vn 0.308489 0.058421 -0.949432
vn 0.308489 0.058421 -0.949432
vn -0.807635 0.058421 -0.586781
vn -0.807635 0.058421 -0.586781
vn -0.807635 0.058421 -0.586781
vn -0.807635 0.058421 -0.586781
vn 0.999794 0.020321 -0.000000
vn 0.999794 0.020321 -0.000000
vn 0.999794 0.020321 -0.000000
vn 0.999794 0.020321 -0.000000
vn 0.308953 0.020321 -0.950860
vn 0.308953 0.020321 -0.950860
vn 0.308953 0.020321 -0.950860
vn 0.308953 0.020321 -0.950860
vn -0.808850 0.020321 -0.587664
vn -0.808850 0.020321 -0.587664
vn -0.808850 0.020321 -0.587664
vn -0.808850 0.020321 -0.587664
vn -0.808850 0.020321 0.587664
vn -0.808850 0.020321 0.587664
vn -0.808850 0.020321 0.587664
vn -0.808850 0.020321 0.587664
vn 0.308953 0.020321 0.950860
vn 0.308953 0.020321 0.950860
vn 0.308953 0.020321 0.950860
vn 0.308953 0.020321 0.950860
vn 0.000000 1.000000 -0.000000
vn 0.000000 1.000000 0.000000
vn 0.000000 1.000000 -0.000000
vn 0.000000 1.000000 -0.000000
vn 0.000000 1.000000 -0.000000
vn 0.000000 1.000000 -0.000000
s off
g polySurface298
usemtl lambert2SG
f 6/1/1 4/2/2 5/3/3 10/4/4
f 4/2/5 6/1/6 7/5/7 3/6/8
f 3/6/9 7/5/10 8/7/11 2/8/12
f 2/9/13 8/10/14 9/11/15 1/12/16
f 1/12/17 9/11/18 10/4/19 5/3/20
f 15/13/21 11/14/22 6/1/23 10/4/24
f 7/5/25 6/1/26 11/14/27 12/15/28
f 8/7/29 7/5/30 12/15/31 13/16/32
f 9/11/33 8/10/34 13/17/35 14/18/36
f 10/4/37 9/11/38 14/18/39 15/13/40
f 3/19/41 2/20/42 16/21/43 17/22/44
f 2/23/45 1/24/46 18/25/47 16/26/48
f 19/27/49 18/25/50 1/24/51 5/28/52
f 20/29/53 19/27/54 5/28/55 4/30/56
f 4/30/57 3/19/58 17/22/59 20/29/60
s 1
f 21/31/61 18/25/62 19/27/63
f 17/22/64 21/31/61 20/29/65
f 16/26/66 21/31/61 17/22/64
f 20/29/65 21/31/61 19/27/63
f 16/26/66 18/25/62 21/31/61
