# This file uses centimeters as units for non-parametric coordinates.

mtllib RuinRoof02_smallCOL.mtl
g default
v -5.620508 -0.283729 24.577675
v -6.202870 -0.989952 23.064377
v -7.464200 -0.283729 24.083334
v -0.344904 15.293015 4.912398
v -1.391445 13.157771 5.130287
v -2.188597 15.293015 4.418054
v -6.542355 -0.283729 24.330502
v 7.386295 -0.308961 24.011450
v 6.161531 -0.995625 23.018698
v 5.592873 -0.308961 24.489153
v 2.121272 15.227481 4.404389
v 1.345058 13.151372 5.095618
v 0.327850 15.227481 4.882088
v 6.489583 -0.308961 24.250301
v 6.495682 0.000000 -24.241692
v -6.495617 0.000000 -24.241228
v -17.745926 0.000000 -17.745926
v -24.241692 0.000000 -6.495682
v -24.241228 0.000000 6.495615
v -17.745687 0.000000 17.746094
v -6.495682 0.000000 24.241692
v 6.495617 0.000000 24.241228
v 17.746092 0.000000 17.745686
v 24.241692 0.000000 6.495682
v 24.241228 0.000000 -6.495617
v 17.745926 0.000000 -17.745926
v 1.377848 12.895146 -5.142199
v -1.377848 12.895146 -5.142199
v -3.764350 12.895146 -3.764350
v -5.142199 12.895146 -1.377848
v -5.142199 12.895146 1.377848
v -3.764350 12.895146 3.764350
v -1.377848 12.895146 5.142199
v 1.377848 12.895146 5.142199
v 3.764350 12.895146 3.764350
v 5.142199 12.895146 1.377848
v 5.142199 12.895146 -1.377848
v 3.764350 12.895146 -3.764350
v 0.000000 12.895146 0.000000
v 3.971414 7.486294 14.821147
v -3.971447 7.486294 14.821379
v -0.000016 9.585110 12.187866
v 0.000000 12.895146 5.142199
v 1.985699 9.192715 12.678854
v -1.985732 9.192715 12.678969
v 6.562967 1.050019 24.656912
v 1.297943 16.586462 5.049850
v -6.618293 1.113960 24.748571
v -1.342689 16.690704 5.083293
vt 0.917209 0.884468
vt 0.917311 0.351875
vt 0.888149 0.864210
vt 0.887761 0.371532
vt 0.859120 0.884513
vt 0.858179 0.351922
vt 0.975688 0.884479
vt 0.975790 0.351887
vt 0.441165 0.054314
vt 0.441171 0.033225
vt 0.471636 0.033229
vt 0.441170 0.012136
vt 0.975302 0.351441
vt 0.975228 0.883599
vt 0.858829 0.351368
vt 0.857712 0.883524
vt 0.887827 0.371664
vt 0.887276 0.863940
vt 0.916870 0.351433
vt 0.916796 0.883591
vt 0.441216 0.054452
vt 0.441171 0.033237
vt 0.471818 0.033169
vt 0.441121 0.012022
vt 0.303824 0.889199
vt 0.303824 0.819992
vt 0.432967 0.854595
vt 0.036283 0.775371
vt 0.036414 0.449063
vt 0.509606 0.576050
vt 0.509577 0.648754
vt 0.036998 0.350065
vt 0.036986 0.023742
vt 0.510238 0.150552
vt 0.510237 0.223256
vt 0.036494 0.775205
vt 0.036343 0.448899
vt 0.509649 0.575465
vt 0.509685 0.648169
vt 0.510687 0.236902
vt 0.273464 0.499274
vt 0.036990 0.435330
vt 0.037157 0.362626
vt 0.252822 0.283894
vt 0.311502 0.235188
vt 0.510396 0.186893
vt 0.510292 0.222516
vt 0.273010 0.712084
vt 0.036448 0.449129
vt 0.509665 0.576028
vt 0.509650 0.648732
vt 0.510509 0.236987
vt 0.509857 0.563303
vt 0.036870 0.435555
vt 0.037015 0.362851
vt 0.037110 0.350006
vt 0.037099 0.023682
vt 0.510350 0.150493
vt 0.510350 0.223197
vt 0.510068 0.236380
vt 0.510721 0.562693
vt 0.037221 0.436849
vt 0.037074 0.364145
vt 0.036709 0.775422
vt 0.036111 0.449114
vt 0.509585 0.575044
vt 0.509719 0.647748
vt 0.037073 0.350033
vt 0.037062 0.023709
vt 0.510313 0.150520
vt 0.510313 0.223224
vt 0.510381 0.236403
vt 0.509926 0.562716
vt 0.036856 0.435264
vt 0.036955 0.362560
vt 0.467571 0.983738
vt 0.398363 0.983739
vt 0.398363 0.725453
vt 0.432967 0.725453
vt 0.562110 0.819992
vt 0.562111 0.889199
vt 0.527506 0.949134
vt 0.527506 0.760056
vt 0.467571 0.725452
vt 0.338427 0.760056
vt 0.338427 0.949135
vt 0.509939 0.563217
vt 0.036369 0.775435
vt 0.311787 0.137431
vt 0.253390 0.088381
vt 0.510501 0.151270
vt 0.325070 0.186349
vt 0.945440 0.350857
vt 0.945366 0.883015
vt 0.945798 0.885052
vt 0.945901 0.352460
vt 0.420272 0.033999
vt 0.441226 0.054452
vt 0.441175 0.054314
vt 0.420146 0.032517
vn 0.963811 0.009940 0.266402
vn 0.935855 0.106974 0.335756
vn -0.160026 0.794079 0.586371
vn -0.155311 0.794080 0.587636
vn 0.157127 -0.794920 -0.586015
vn 0.935855 0.106974 0.335756
vn 0.963811 0.009940 0.266402
vn 0.157127 -0.794920 -0.586015
vn -0.978293 0.106975 -0.177479
vn 0.157127 -0.794920 -0.586015
vn 0.157127 -0.794920 -0.586015
vn -0.967802 0.009941 -0.251517
vn -0.160026 0.794079 0.586371
vn -0.978293 0.106975 -0.177479
vn -0.967802 0.009941 -0.251517
vn -0.155311 0.794080 0.587636
vn -0.122833 -0.880364 0.458117
vn -0.118417 -0.889340 0.441646
vn -0.120006 -0.886159 0.447572
vn -0.118417 -0.889340 0.441646
vn -0.122833 -0.880364 0.458117
vn -0.120006 -0.886159 0.447572
vn 0.968215 0.009940 -0.249923
vn 0.978584 0.106975 -0.175868
vn 0.159042 0.794079 0.586638
vn 0.154356 0.794080 0.587887
vn -0.156162 -0.794920 -0.586273
vn 0.978584 0.106975 -0.175868
vn 0.968215 0.009940 -0.249923
vn -0.156161 -0.794920 -0.586273
vn -0.936406 0.106975 0.334215
vn -0.156162 -0.794920 -0.586273
vn -0.156161 -0.794920 -0.586273
vn -0.964249 0.009940 0.264813
vn 0.159042 0.794079 0.586638
vn -0.936406 0.106975 0.334215
vn -0.964249 0.009940 0.264813
vn 0.154356 0.794080 0.587887
vn 0.122077 -0.880364 0.458319
vn 0.117690 -0.889340 0.441841
vn 0.119269 -0.886159 0.447769
vn 0.117692 -0.889341 0.441839
vn 0.122077 -0.880364 0.458319
vn 0.119269 -0.886159 0.447769
vn -0.113983 -0.993013 0.030542
vn -0.113983 -0.993013 -0.030542
vn 0.000000 -1.000000 0.000000
vn -0.430570 -0.793237 0.430562
vn -0.588165 -0.793236 0.157603
vn -0.587262 -0.793953 0.157361
vn -0.429910 -0.793954 0.429900
vn -0.588165 -0.793236 0.157603
vn -0.588161 -0.793241 -0.157592
vn -0.587258 -0.793958 -0.157349
vn -0.587262 -0.793953 0.157361
vn -0.588161 -0.793241 -0.157592
vn -0.470637 -0.791917 -0.389061
vn -0.458750 -0.793451 -0.399981
vn -0.587258 -0.793958 -0.157349
vn -0.470637 -0.791917 -0.389061
vn -0.305363 -0.783657 -0.540957
vn -0.274196 -0.788850 -0.550030
vn -0.458750 -0.793451 -0.399981
vn -0.305363 -0.783657 -0.540957
vn -0.001179 -0.783147 -0.621835
vn -0.000008 -0.789332 -0.613967
vn -0.274196 -0.788850 -0.550030
vn 0.305369 -0.783662 -0.540947
vn 0.470646 -0.791915 -0.389054
vn 0.458761 -0.793449 -0.399970
vn 0.274198 -0.788855 -0.550022
vn 0.470646 -0.791915 -0.389054
vn 0.588164 -0.793236 -0.157606
vn 0.587261 -0.793953 -0.157364
vn 0.458761 -0.793449 -0.399970
vn 0.588164 -0.793236 -0.157606
vn 0.588161 -0.793241 0.157594
vn 0.587258 -0.793958 0.157351
vn 0.587261 -0.793953 -0.157364
vn 0.588161 -0.793241 0.157594
vn 0.430562 -0.793237 0.430570
vn 0.429900 -0.793954 0.429910
vn 0.587258 -0.793958 0.157351
vn 0.430562 -0.793237 0.430570
vn 0.157603 -0.793236 0.588165
vn 0.157360 -0.793953 0.587262
vn 0.429900 -0.793954 0.429910
vn 0.157603 -0.793236 0.588165
vn -0.157594 -0.793241 0.588161
vn -0.157351 -0.793958 0.587258
vn 0.157360 -0.793953 0.587262
vn -0.157594 -0.793241 0.588161
vn -0.430570 -0.793237 0.430562
vn -0.429910 -0.793954 0.429900
vn -0.157351 -0.793958 0.587258
vn 0.030542 -0.993013 0.113983
vn -0.030542 -0.993013 0.113983
vn 0.000000 -1.000000 0.000000
vn 0.000000 -1.000000 0.000000
vn -0.040720 -0.992958 -0.111249
vn 0.000000 -0.995477 -0.095002
vn 0.113983 -0.993013 -0.030542
vn 0.113983 -0.993013 0.030542
vn 0.000000 -1.000000 0.000000
vn 0.113983 -0.993013 0.030542
vn 0.083441 -0.993013 0.083441
vn 0.000000 -1.000000 0.000000
vn 0.083441 -0.993013 -0.083441
vn 0.113983 -0.993013 -0.030542
vn 0.000000 -1.000000 0.000000
vn 0.000000 -1.000000 0.000000
vn 0.040720 -0.992958 -0.111249
vn 0.083441 -0.993013 -0.083441
vn 0.000000 -1.000000 0.000000
vn -0.083441 -0.993013 -0.083441
vn -0.040720 -0.992958 -0.111249
vn 0.000000 -1.000000 0.000000
vn -0.113983 -0.993013 -0.030542
vn -0.083441 -0.993013 -0.083441
vn -0.083441 -0.993013 0.083441
vn -0.113983 -0.993013 0.030542
vn 0.000000 -1.000000 0.000000
vn -0.030542 -0.993013 0.113983
vn -0.083441 -0.993013 0.083441
vn 0.000000 -1.000000 0.000000
vn 0.083441 -0.993013 0.083441
vn 0.030542 -0.993013 0.113983
vn 0.000000 -1.000000 0.000000
vn -0.470637 -0.791917 -0.389061
vn -0.311087 -0.782884 -0.538812
vn -0.305363 -0.783657 -0.540957
vn 0.311095 -0.782889 -0.538799
vn 0.470646 -0.791915 -0.389054
vn 0.305369 -0.783662 -0.540947
vn -0.000008 -0.789332 -0.613967
vn 0.001159 -0.783151 -0.621831
vn 0.305369 -0.783662 -0.540947
vn 0.274198 -0.788855 -0.550022
vn 0.000000 -1.000000 0.000000
vn 0.000000 -0.995477 -0.095002
vn 0.040720 -0.992958 -0.111249
vn -0.000008 -0.789332 -0.613967
vn -0.001179 -0.783147 -0.621835
vn -0.000018 -0.783226 -0.621738
vn -0.000008 -0.789332 -0.613967
vn -0.000018 -0.783226 -0.621738
vn 0.001159 -0.783151 -0.621831
vn -0.248565 -0.283726 0.926129
vn -0.247839 -0.289965 0.924390
vn -0.248600 -0.280190 0.927196
vn 0.247040 -0.283738 0.926533
vn 0.247081 -0.280190 0.927602
vn 0.246311 -0.290000 0.924787
vn -0.248605 -0.280190 0.927194
vn -0.247839 -0.289965 0.924390
vn -0.248565 -0.283726 0.926129
vn 0.247040 -0.283738 0.926533
vn 0.246311 -0.290000 0.924787
vn 0.247081 -0.280187 0.927602
s off
g RuinRoof02_small1:polySurface12
usemtl lambert2SG
f 1/1/1 4/2/2 49/96/3 48/95/4
f 5/4/5 4/2/6 1/1/7 2/3/8
f 6/6/9 5/4/10 2/3/11 3/5/12
f 49/96/13 6/8/14 3/7/15 48/95/16
f 2/11/17 1/9/18 7/10/19
f 3/12/20 2/11/21 7/10/22
f 8/13/23 11/14/24 47/94/25 46/93/26
f 12/18/27 11/16/28 8/15/29 9/17/30
f 13/20/31 12/18/32 9/17/33 10/19/34
f 47/94/35 13/20/36 10/19/37 46/93/38
f 9/23/39 8/21/40 14/22/41
f 10/24/42 9/23/43 14/22/44
f 37/25/45 36/26/46 39/27/47
f 26/28/48 25/29/49 37/30/50 38/31/51
f 25/32/52 24/33/53 36/34/54 37/35/55
f 24/36/56 23/37/57 35/38/58 36/39/59
f 23/40/60 40/41/61 34/42/62 35/43/63
f 40/44/64 44/45/65 43/46/66 34/47/67
f 41/48/68 20/49/69 32/50/70 33/51/71
f 20/52/72 19/53/73 31/54/74 32/55/75
f 19/56/76 18/57/77 30/58/78 31/59/79
f 18/60/80 17/61/81 29/62/82 30/63/83
f 17/64/84 16/65/85 28/66/86 29/67/87
f 16/68/88 15/69/89 27/70/90 28/71/91
f 15/72/92 26/73/93 38/74/94 27/75/95
f 28/76/96 27/77/97 39/27/98
f 39/27/99 34/78/100 43/79/101
f 31/80/102 30/81/103 39/27/104
f 30/81/105 29/82/106 39/27/107
f 32/83/108 31/80/109 39/27/110
f 39/27/111 33/84/112 32/83/113
f 39/27/114 35/85/115 34/78/116
f 39/27/117 36/26/118 35/85/119
f 38/86/120 37/25/121 39/27/122
f 27/77/123 38/86/124 39/27/125
f 29/82/126 28/76/127 39/27/128
f 23/40/129 22/87/130 40/41/131
f 21/88/132 20/49/133 41/48/134
f 43/46/135 45/89/136 41/90/137 33/91/138
f 39/27/139 43/79/140 33/84/141
f 43/46/142 44/45/143 42/92/144
f 43/46/145 42/92/146 45/89/147
f 7/10/148 48/97/149 3/12/150
f 14/22/151 8/98/152 46/100/153
f 1/99/154 48/97/155 7/10/156
f 14/22/157 46/100/158 10/24/159
