# This file uses centimeters as units for non-parametric coordinates.

mtllib BeachBoardwalk02COL.mtl
g default
v -51.377148 2.934422 8.821332
v 43.757660 -8.144701 7.667920
v -51.377148 4.399846 8.940281
v 43.757660 -6.674459 7.667920
v -44.241890 5.966922 -10.365818
v 50.941830 -6.674459 -11.683590
v -44.241890 4.501498 -10.484767
v 50.941830 -8.144701 -11.683590
v 23.293379 0.173999 -20.253117
v 23.293379 -1.293526 -20.342468
v 23.293379 -2.548040 0.261399
v 23.293379 -1.080515 0.350753
v -3.727133 3.504301 -9.218170
v -3.727133 2.034059 -9.218170
v 2.902820 2.034059 10.330153
v 2.902820 3.504301 10.330153
v -22.742838 4.764110 -0.754032
v -22.742838 3.307742 -0.552525
v -23.368494 6.135577 19.885311
v -23.368494 7.591946 19.683804
v 37.120640 -3.672854 -17.894608
v 37.120640 -5.142378 -17.883863
v 33.528557 -5.015892 2.103270
v 33.528557 -3.546368 2.092528
v 8.320273 2.221604 -15.631701
v 8.316213 0.755574 -15.733464
v 13.442193 -0.639444 3.918771
v 13.446254 0.826585 4.020535
v -13.232734 5.207503 -3.326973
v -13.232734 3.743433 -3.192398
v -8.506279 5.551748 16.480654
v -8.506279 7.015820 16.346079
v -30.654268 5.464910 -2.366764
v -30.643450 3.999130 -2.269581
v -38.091255 5.223362 16.637484
v -38.102074 6.689141 16.540302
vt 0.375000 0.000000
vt 0.625000 0.000000
vt 0.375000 0.250000
vt 0.625000 0.250000
vt 0.375000 0.500000
vt 0.625000 0.500000
vt 0.375000 0.750000
vt 0.625000 0.750000
vt 0.375000 1.000000
vt 0.625000 1.000000
vt 0.875000 0.000000
vt 0.875000 0.250000
vt 0.125000 0.000000
vt 0.125000 0.250000
vt 0.562500 0.500000
vt 0.562500 0.750000
vt 0.562500 0.000000
vt 0.562500 1.000000
vt 0.562500 0.250000
vt 0.500000 0.500000
vt 0.500000 0.750000
vt 0.500000 0.000000
vt 0.500000 1.000000
vt 0.500000 0.250000
vt 0.437500 0.500000
vt 0.437500 0.750000
vt 0.437500 0.000000
vt 0.437500 1.000000
vt 0.437500 0.250000
vt 0.593750 0.500000
vt 0.593750 0.750000
vt 0.593750 0.000000
vt 0.593750 1.000000
vt 0.593750 0.250000
vt 0.531250 0.500000
vt 0.531250 0.750000
vt 0.531250 0.000000
vt 0.531250 1.000000
vt 0.531250 0.250000
vt 0.468750 0.500000
vt 0.468750 0.750000
vt 0.468750 0.000000
vt 0.468750 1.000000
vt 0.468750 0.250000
vt 0.406250 0.500000
vt 0.406250 0.750000
vt 0.406250 0.000000
vt 0.406250 1.000000
vt 0.406250 0.250000
vn -0.500897 -0.008275 0.865467
vn -0.371215 0.042815 0.927559
vn -0.357743 0.047880 0.932592
vn -0.500897 -0.008275 0.865467
vn -0.058623 0.998190 -0.013416
vn -0.028606 0.998326 -0.050274
vn -0.028257 0.998314 -0.050701
vn -0.058623 0.998190 -0.013416
vn 0.512439 0.008268 -0.858684
vn 0.419390 -0.025608 -0.907445
vn 0.403539 -0.031170 -0.914431
vn 0.512439 0.008268 -0.858684
vn 0.058388 -0.998205 0.013326
vn 0.028403 -0.998333 0.050243
vn 0.028282 -0.998329 0.050391
vn 0.058388 -0.998205 0.013326
vn 0.937481 0.000000 0.348036
vn 0.937481 0.000000 0.348036
vn 0.937481 0.000000 0.348036
vn 0.937481 0.000000 0.348036
vn -0.938357 0.027966 -0.344533
vn -0.938357 0.027966 -0.344533
vn -0.938357 0.027966 -0.344533
vn -0.938357 0.027966 -0.344533
vn -0.099500 0.049191 -0.993821
vn 0.283409 0.013200 -0.958908
vn 0.317836 0.008758 -0.948105
vn -0.038201 0.044430 -0.998282
vn -0.206369 -0.977408 -0.045677
vn -0.209303 -0.976773 -0.045901
vn -0.233449 -0.970938 -0.052730
vn -0.231315 -0.971409 -0.053456
vn 0.119297 -0.048063 0.991695
vn 0.047453 -0.043146 0.997941
vn -0.364155 -0.008527 0.931300
vn -0.316248 -0.013280 0.948584
vn 0.209505 0.976729 0.045919
vn 0.206348 0.977412 0.045679
vn 0.231391 0.971392 0.053440
vn 0.233494 0.970927 0.052738
vn -0.502905 -0.003046 -0.864336
vn -0.381766 0.046891 -0.923069
vn -0.365846 0.049600 -0.929353
vn -0.497821 0.002349 -0.867277
vn -0.176661 -0.982416 0.060416
vn -0.173860 -0.983516 0.049686
vn -0.168220 -0.985602 -0.017070
vn -0.167554 -0.985797 -0.011423
vn 0.492816 0.011183 0.870062
vn 0.497551 0.000393 0.867435
vn 0.420284 -0.047330 0.906158
vn 0.444861 -0.042882 0.894573
vn 0.174368 0.983409 -0.050030
vn 0.177077 0.982347 -0.060311
vn 0.167754 0.985763 0.011431
vn 0.168371 0.985577 0.016982
vn -0.052503 -0.108046 -0.992759
vn -0.409422 -0.073469 -0.909382
vn -0.412385 -0.072697 -0.908105
vn -0.057374 -0.108156 -0.992477
vn 0.005064 -0.994313 0.106374
vn 0.006060 -0.994268 0.106743
vn -0.092543 -0.990073 0.105788
vn -0.071608 -0.991662 0.107141
vn 0.006652 0.107682 0.994163
vn 0.003319 0.107584 0.994190
vn 0.354244 0.076881 0.931987
vn 0.334548 0.082320 0.938776
vn -0.006148 0.994265 -0.106765
vn -0.005107 0.994313 -0.106379
vn 0.072229 0.991611 -0.107193
vn 0.092230 0.990088 -0.105920
vn 0.408997 -0.003334 -0.912530
vn 0.408997 -0.003334 -0.912530
vn -0.220257 -0.973763 -0.057205
vn -0.220257 -0.973763 -0.057205
vn -0.477464 0.003210 0.878645
vn -0.477464 0.003210 0.878645
vn 0.220166 0.973785 0.057180
vn 0.220166 0.973785 0.057180
s 1
g pCube1
usemtl initialShadingGroup
f 1/1/1 35/47/2 36/49/3 3/3/4
s 2
f 3/3/5 36/49/6 33/45/7 5/5/8
s 3
f 5/5/9 33/45/10 34/46/11 7/7/12
s 4
f 7/7/13 34/46/14 35/48/15 1/9/16
s off
f 2/2/17 8/11/18 6/12/19 4/4/20
f 7/13/21 1/1/22 3/3/23 5/14/24
s 3
f 9/15/25 21/30/26 22/31/27 10/16/28
s 4
f 11/18/29 10/16/30 22/31/31 23/33/32
s 1
f 12/19/33 11/17/34 23/32/35 24/34/36
s 2
f 9/15/37 12/19/38 24/34/39 21/30/40
s 3
f 13/20/41 25/35/42 26/36/43 14/21/44
s 4
f 15/23/45 14/21/46 26/36/47 27/38/48
s 1
f 16/24/49 15/22/50 27/37/51 28/39/52
s 2
f 13/20/53 16/24/54 28/39/55 25/35/56
s 3
f 17/25/57 29/40/58 30/41/59 18/26/60
s 4
f 19/28/61 18/26/62 30/41/63 31/43/64
s 1
f 20/29/65 19/27/66 31/42/67 32/44/68
s 2
f 17/25/69 20/29/70 32/44/71 29/40/72
s 3
f 21/30/26 6/6/73 8/8/74 22/31/27
s 4
f 23/33/32 22/31/31 8/8/75 2/10/76
s 1
f 24/34/36 23/32/35 2/2/77 4/4/78
s 2
f 21/30/40 24/34/39 4/4/79 6/6/80
s 3
f 25/35/42 9/15/25 10/16/28 26/36/43
s 4
f 27/38/48 26/36/47 10/16/30 11/18/29
s 1
f 28/39/52 27/37/51 11/17/34 12/19/33
s 2
f 25/35/56 28/39/55 12/19/38 9/15/37
s 3
f 29/40/58 13/20/41 14/21/44 30/41/59
s 4
f 31/43/64 30/41/63 14/21/46 15/23/45
s 1
f 32/44/68 31/42/67 15/22/50 16/24/49
s 2
f 29/40/72 32/44/71 16/24/54 13/20/53
s 3
f 33/45/10 17/25/57 18/26/60 34/46/11
s 4
f 35/48/15 34/46/14 18/26/62 19/28/61
s 1
f 36/49/3 35/47/2 19/27/66 20/29/65
s 2
f 33/45/7 36/49/6 20/29/70 17/25/69
