# This file uses centimeters as units for non-parametric coordinates.

mtllib CornLLowerCanine.mtl
g default
v -0.119496 1.052154 -0.159620
v -0.089567 1.052154 -0.226393
v -0.030262 1.052154 -0.269255
v 0.042528 1.052154 -0.276722
v 0.109301 1.052154 -0.246794
v 0.152163 1.052154 -0.187489
v 0.159630 1.052154 -0.114698
v 0.129702 1.052154 -0.047926
v 0.070397 1.052154 -0.005063
v -0.002394 1.052154 0.002404
v -0.069166 1.052154 -0.027525
v -0.112028 1.052154 -0.086830
v -0.205783 0.927575 -0.173507
v -0.157351 0.927575 -0.281563
v -0.061379 0.927575 -0.350925
v 0.056415 0.927575 -0.363009
v 0.164471 0.927575 -0.314577
v 0.233833 0.927575 -0.218606
v 0.245917 0.927575 -0.100811
v 0.197485 0.927575 0.007245
v 0.101514 0.927575 0.076607
v -0.016281 0.927575 0.088691
v -0.124337 0.927575 0.040259
v -0.193699 0.927575 -0.055712
v -0.279665 0.749388 -0.185398
v -0.215389 0.749388 -0.328801
v -0.088023 0.749388 -0.420854
v 0.068306 0.749388 -0.436891
v 0.211709 0.749388 -0.372615
v 0.303762 0.749388 -0.245249
v 0.319799 0.749388 -0.088920
v 0.255524 0.749388 0.054483
v 0.128157 0.749388 0.146536
v -0.028172 0.749388 0.162573
v -0.171575 0.749388 0.098297
v -0.263627 0.749388 -0.029069
v 0.020067 1.099098 -0.137159
v -0.356344 0.371736 -0.197739
v -0.388341 -0.009897 -0.202888
v -0.275625 0.371736 -0.377829
v -0.300761 -0.009897 -0.398286
v -0.115675 0.371736 -0.493431
v -0.127214 -0.009897 -0.523716
v 0.080646 0.371736 -0.513571
v 0.085796 -0.009897 -0.545568
v 0.260736 0.371736 -0.432851
v 0.281194 -0.009897 -0.457987
v 0.376339 0.371736 -0.272902
v 0.406624 -0.009897 -0.284440
v 0.396479 0.371736 -0.076580
v 0.428476 -0.009897 -0.071430
v 0.315759 0.371736 0.103510
v 0.340895 -0.009897 0.123968
v 0.155810 0.371736 0.219112
v 0.167349 -0.009897 0.249397
v -0.040512 0.371736 0.239252
v -0.045662 -0.009897 0.271249
v -0.220602 0.371736 0.158533
v -0.241060 -0.009897 0.183669
v -0.336204 0.371736 -0.001417
v -0.366489 -0.009897 0.010122
vt 0.274168 0.922593
vt 0.264940 0.931095
vt 0.242876 0.918258
vt 0.261479 0.900444
vt 0.261198 0.943072
vt 0.235672 0.942986
vt 0.263947 0.955315
vt 0.241798 0.968004
vt 0.272449 0.964544
vt 0.259612 0.986607
vt 0.284426 0.968285
vt 0.284341 0.993812
vt 0.296670 0.965537
vt 0.309359 0.987686
vt 0.305898 0.957034
vt 0.327962 0.969872
vt 0.309640 0.945057
vt 0.335166 0.945143
vt 0.306891 0.932814
vt 0.329040 0.920125
vt 0.298389 0.923585
vt 0.311226 0.901521
vt 0.286411 0.919844
vt 0.286497 0.894318
vt 0.823487 0.991529
vt 0.788232 0.991550
vt 0.788241 0.942339
vt 0.823492 0.942331
vt 0.752983 0.991550
vt 0.752994 0.942343
vt 0.717741 0.991528
vt 0.717750 0.942328
vt 0.682505 0.991491
vt 0.682510 0.942311
vt 0.647273 0.991461
vt 0.647273 0.942290
vt 0.612041 0.991446
vt 0.612036 0.942273
vt 0.576805 0.991440
vt 0.576796 0.942265
vt 0.541564 0.991446
vt 0.541554 0.942267
vt 0.964505 0.991463
vt 0.929257 0.991470
vt 0.929247 0.942280
vt 0.964494 0.942272
vt 0.894002 0.991488
vt 0.893997 0.942294
vt 0.858745 0.991507
vt 0.858744 0.942312
vt 0.285419 0.944065
vt 0.823496 0.865764
vt 0.823499 0.800176
vt 0.858744 0.800161
vt 0.858744 0.865745
vt 0.788249 0.865765
vt 0.788254 0.800186
vt 0.753003 0.865771
vt 0.753010 0.800191
vt 0.717759 0.865761
vt 0.717765 0.800183
vt 0.682516 0.865757
vt 0.682519 0.800171
vt 0.647273 0.865737
vt 0.647273 0.800156
vt 0.612031 0.865727
vt 0.612028 0.800146
vt 0.576788 0.865702
vt 0.576783 0.800118
vt 0.541544 0.865692
vt 0.541538 0.800111
vt 0.964478 0.800104
vt 0.964484 0.865686
vt 0.929239 0.865703
vt 0.929233 0.800118
vt 0.893992 0.865732
vt 0.893988 0.800149
vn -0.722359 0.681676 -0.116256
vn -0.567453 0.681677 -0.461860
vn -0.693047 0.448884 -0.564083
vn -0.882238 0.448883 -0.141987
vn -0.567453 0.681677 -0.461860
vn -0.260499 0.681677 -0.683709
vn -0.318155 0.448884 -0.835033
vn -0.693047 0.448884 -0.564083
vn -0.260499 0.681677 -0.683709
vn 0.116256 0.681676 -0.722359
vn 0.141987 0.448883 -0.882238
vn -0.318155 0.448884 -0.835033
vn 0.116256 0.681676 -0.722359
vn 0.461860 0.681676 -0.567453
vn 0.564083 0.448883 -0.693047
vn 0.141987 0.448883 -0.882238
vn 0.461860 0.681676 -0.567453
vn 0.683709 0.681676 -0.260499
vn 0.835034 0.448883 -0.318155
vn 0.564083 0.448883 -0.693047
vn 0.683709 0.681676 -0.260499
vn 0.722359 0.681676 0.116256
vn 0.882238 0.448883 0.141987
vn 0.835034 0.448883 -0.318155
vn 0.722359 0.681676 0.116256
vn 0.567453 0.681676 0.461860
vn 0.693048 0.448883 0.564083
vn 0.882238 0.448883 0.141987
vn 0.567453 0.681676 0.461860
vn 0.260499 0.681677 0.683709
vn 0.318155 0.448883 0.835034
vn 0.693048 0.448883 0.564083
vn 0.260499 0.681677 0.683709
vn -0.116256 0.681676 0.722359
vn -0.141987 0.448883 0.882238
vn 0.318155 0.448883 0.835034
vn -0.116256 0.681676 0.722359
vn -0.461860 0.681676 0.567453
vn -0.564083 0.448883 0.693047
vn -0.141987 0.448883 0.882238
vn -0.461860 0.681676 0.567453
vn -0.683709 0.681676 0.260499
vn -0.835034 0.448883 0.318155
vn -0.564083 0.448883 0.693047
vn -0.683709 0.681676 0.260499
vn -0.722359 0.681676 -0.116256
vn -0.882238 0.448883 -0.141987
vn -0.835034 0.448883 0.318155
vn -0.882238 0.448883 -0.141987
vn -0.693047 0.448884 -0.564083
vn -0.750783 0.250824 -0.611075
vn -0.955734 0.250824 -0.153815
vn -0.693047 0.448884 -0.564083
vn -0.318155 0.448884 -0.835033
vn -0.344659 0.250824 -0.904598
vn -0.750783 0.250824 -0.611075
vn -0.318155 0.448884 -0.835033
vn 0.141987 0.448883 -0.882238
vn 0.153816 0.250824 -0.955734
vn -0.344659 0.250824 -0.904598
vn 0.141987 0.448883 -0.882238
vn 0.564083 0.448883 -0.693047
vn 0.611075 0.250824 -0.750782
vn 0.153816 0.250824 -0.955734
vn 0.564083 0.448883 -0.693047
vn 0.835034 0.448883 -0.318155
vn 0.904598 0.250824 -0.344659
vn 0.611075 0.250824 -0.750782
vn 0.835034 0.448883 -0.318155
vn 0.882238 0.448883 0.141987
vn 0.955734 0.250824 0.153815
vn 0.904598 0.250824 -0.344659
vn 0.882238 0.448883 0.141987
vn 0.693048 0.448883 0.564083
vn 0.750783 0.250824 0.611075
vn 0.955734 0.250824 0.153815
vn 0.693048 0.448883 0.564083
vn 0.318155 0.448883 0.835034
vn 0.344659 0.250824 0.904598
vn 0.750783 0.250824 0.611075
vn 0.318155 0.448883 0.835034
vn -0.141987 0.448883 0.882238
vn -0.153816 0.250824 0.955734
vn 0.344659 0.250824 0.904598
vn -0.141987 0.448883 0.882238
vn -0.564083 0.448883 0.693047
vn -0.611075 0.250824 0.750782
vn -0.153816 0.250824 0.955734
vn -0.564083 0.448883 0.693047
vn -0.835034 0.448883 0.318155
vn -0.904598 0.250824 0.344659
vn -0.611075 0.250824 0.750782
vn -0.835034 0.448883 0.318155
vn -0.882238 0.448883 -0.141987
vn -0.955734 0.250824 -0.153815
vn -0.904598 0.250824 0.344659
vn -0.567453 0.681677 -0.461860
vn -0.722359 0.681676 -0.116256
vn 0.000000 1.000000 0.000000
vn -0.260499 0.681677 -0.683709
vn -0.567453 0.681677 -0.461860
vn 0.000000 1.000000 0.000000
vn 0.116256 0.681676 -0.722359
vn -0.260499 0.681677 -0.683709
vn 0.000000 1.000000 0.000000
vn 0.461860 0.681676 -0.567453
vn 0.116256 0.681676 -0.722359
vn 0.000000 1.000000 0.000000
vn 0.683709 0.681676 -0.260499
vn 0.461860 0.681676 -0.567453
vn 0.000000 1.000000 0.000000
vn 0.722359 0.681676 0.116256
vn 0.683709 0.681676 -0.260499
vn 0.000000 1.000000 0.000000
vn 0.567453 0.681676 0.461860
vn 0.722359 0.681676 0.116256
vn 0.000000 1.000000 0.000000
vn 0.260499 0.681677 0.683709
vn 0.567453 0.681676 0.461860
vn 0.000000 1.000000 0.000000
vn -0.116256 0.681676 0.722359
vn 0.260499 0.681677 0.683709
vn 0.000000 1.000000 0.000000
vn -0.461860 0.681676 0.567453
vn -0.116256 0.681676 0.722359
vn 0.000000 1.000000 0.000000
vn -0.683709 0.681676 0.260499
vn -0.461860 0.681676 0.567453
vn 0.000000 1.000000 0.000000
vn -0.722359 0.681676 -0.116256
vn -0.683709 0.681676 0.260499
vn 0.000000 1.000000 0.000000
vn -0.977886 0.137733 -0.157379
vn -0.984824 0.070715 -0.158496
vn -0.932131 0.070715 0.355150
vn -0.925564 0.137733 0.352648
vn -0.984824 0.070715 -0.158496
vn -0.977886 0.137733 -0.157379
vn -0.768184 0.137733 -0.625238
vn -0.773634 0.070714 -0.629675
vn -0.773634 0.070714 -0.629675
vn -0.768184 0.137733 -0.625238
vn -0.352648 0.137733 -0.925564
vn -0.355150 0.070714 -0.932131
vn -0.355150 0.070714 -0.932131
vn -0.352648 0.137733 -0.925564
vn 0.157380 0.137733 -0.977886
vn 0.158496 0.070714 -0.984824
vn 0.158496 0.070714 -0.984824
vn 0.157380 0.137733 -0.977886
vn 0.625238 0.137733 -0.768184
vn 0.629675 0.070715 -0.773634
vn 0.629675 0.070715 -0.773634
vn 0.625238 0.137733 -0.768184
vn 0.925564 0.137733 -0.352648
vn 0.932131 0.070715 -0.355150
vn 0.932131 0.070715 -0.355150
vn 0.925564 0.137733 -0.352648
vn 0.977886 0.137733 0.157380
vn 0.984824 0.070715 0.158497
vn 0.984824 0.070715 0.158497
vn 0.977886 0.137733 0.157380
vn 0.768184 0.137733 0.625238
vn 0.773634 0.070715 0.629674
vn 0.773634 0.070715 0.629674
vn 0.768184 0.137733 0.625238
vn 0.352648 0.137733 0.925564
vn 0.355150 0.070715 0.932131
vn 0.355150 0.070715 0.932131
vn 0.352648 0.137733 0.925564
vn -0.157380 0.137733 0.977886
vn -0.158497 0.070715 0.984824
vn -0.158497 0.070715 0.984824
vn -0.157380 0.137733 0.977886
vn -0.625238 0.137733 0.768184
vn -0.629674 0.070715 0.773634
vn -0.629674 0.070715 0.773634
vn -0.625238 0.137733 0.768184
vn -0.925564 0.137733 0.352648
vn -0.932131 0.070715 0.355150
vn -0.955734 0.250824 -0.153815
vn -0.750783 0.250824 -0.611075
vn -0.768184 0.137733 -0.625238
vn -0.977886 0.137733 -0.157379
vn -0.750783 0.250824 -0.611075
vn -0.344659 0.250824 -0.904598
vn -0.352648 0.137733 -0.925564
vn -0.768184 0.137733 -0.625238
vn -0.344659 0.250824 -0.904598
vn 0.153816 0.250824 -0.955734
vn 0.157380 0.137733 -0.977886
vn -0.352648 0.137733 -0.925564
vn 0.153816 0.250824 -0.955734
vn 0.611075 0.250824 -0.750782
vn 0.625238 0.137733 -0.768184
vn 0.157380 0.137733 -0.977886
vn 0.611075 0.250824 -0.750782
vn 0.904598 0.250824 -0.344659
vn 0.925564 0.137733 -0.352648
vn 0.625238 0.137733 -0.768184
vn 0.904598 0.250824 -0.344659
vn 0.955734 0.250824 0.153815
vn 0.977886 0.137733 0.157380
vn 0.925564 0.137733 -0.352648
vn 0.955734 0.250824 0.153815
vn 0.750783 0.250824 0.611075
vn 0.768184 0.137733 0.625238
vn 0.977886 0.137733 0.157380
vn 0.750783 0.250824 0.611075
vn 0.344659 0.250824 0.904598
vn 0.352648 0.137733 0.925564
vn 0.768184 0.137733 0.625238
vn 0.344659 0.250824 0.904598
vn -0.153816 0.250824 0.955734
vn -0.157380 0.137733 0.977886
vn 0.352648 0.137733 0.925564
vn -0.153816 0.250824 0.955734
vn -0.611075 0.250824 0.750782
vn -0.625238 0.137733 0.768184
vn -0.157380 0.137733 0.977886
vn -0.611075 0.250824 0.750782
vn -0.904598 0.250824 0.344659
vn -0.925564 0.137733 0.352648
vn -0.625238 0.137733 0.768184
vn -0.904598 0.250824 0.344659
vn -0.955734 0.250824 -0.153815
vn -0.977886 0.137733 -0.157379
vn -0.925564 0.137733 0.352648
s off
g FoodLLowerCaninesUnderbite
usemtl blinn4SG
f 1/1/1 2/2/2 14/3/3 13/4/4
f 2/2/5 3/5/6 15/6/7 14/3/8
f 3/5/9 4/7/10 16/8/11 15/6/12
f 4/7/13 5/9/14 17/10/15 16/8/16
f 5/9/17 6/11/18 18/12/19 17/10/20
f 6/11/21 7/13/22 19/14/23 18/12/24
f 7/13/25 8/15/26 20/16/27 19/14/28
f 8/15/29 9/17/30 21/18/31 20/16/32
f 9/17/33 10/19/34 22/20/35 21/18/36
f 10/19/37 11/21/38 23/22/39 22/20/40
f 11/21/41 12/23/42 24/24/43 23/22/44
f 12/23/45 1/1/46 13/4/47 24/24/48
f 13/25/49 14/26/50 26/27/51 25/28/52
f 14/26/53 15/29/54 27/30/55 26/27/56
f 15/29/57 16/31/58 28/32/59 27/30/60
f 16/31/61 17/33/62 29/34/63 28/32/64
f 17/33/65 18/35/66 30/36/67 29/34/68
f 18/35/69 19/37/70 31/38/71 30/36/72
f 19/37/73 20/39/74 32/40/75 31/38/76
f 20/39/77 21/41/78 33/42/79 32/40/80
f 21/43/81 22/44/82 34/45/83 33/46/84
f 22/44/85 23/47/86 35/48/87 34/45/88
f 23/47/89 24/49/90 36/50/91 35/48/92
f 24/49/93 13/25/94 25/28/95 36/50/96
f 2/2/97 1/1/98 37/51/99
f 3/5/100 2/2/101 37/51/102
f 4/7/103 3/5/104 37/51/105
f 5/9/106 4/7/107 37/51/108
f 6/11/109 5/9/110 37/51/111
f 7/13/112 6/11/113 37/51/114
f 8/15/115 7/13/116 37/51/117
f 9/17/118 8/15/119 37/51/120
f 10/19/121 9/17/122 37/51/123
f 11/21/124 10/19/125 37/51/126
f 12/23/127 11/21/128 37/51/129
f 1/1/130 12/23/131 37/51/132
f 38/52/133 39/53/134 61/54/135 60/55/136
f 39/53/137 38/52/138 40/56/139 41/57/140
f 41/57/141 40/56/142 42/58/143 43/59/144
f 43/59/145 42/58/146 44/60/147 45/61/148
f 45/61/149 44/60/150 46/62/151 47/63/152
f 47/63/153 46/62/154 48/64/155 49/65/156
f 49/65/157 48/64/158 50/66/159 51/67/160
f 51/67/161 50/66/162 52/68/163 53/69/164
f 53/69/165 52/68/166 54/70/167 55/71/168
f 55/72/169 54/73/170 56/74/171 57/75/172
f 57/75/173 56/74/174 58/76/175 59/77/176
f 59/77/177 58/76/178 60/55/179 61/54/180
f 25/28/181 26/27/182 40/56/183 38/52/184
f 26/27/185 27/30/186 42/58/187 40/56/188
f 27/30/189 28/32/190 44/60/191 42/58/192
f 28/32/193 29/34/194 46/62/195 44/60/196
f 29/34/197 30/36/198 48/64/199 46/62/200
f 30/36/201 31/38/202 50/66/203 48/64/204
f 31/38/205 32/40/206 52/68/207 50/66/208
f 32/40/209 33/42/210 54/70/211 52/68/212
f 33/46/213 34/45/214 56/74/215 54/73/216
f 34/45/217 35/48/218 58/76/219 56/74/220
f 35/48/221 36/50/222 60/55/223 58/76/224
f 36/50/225 25/28/226 38/52/227 60/55/228
