# This file uses centimeters as units for non-parametric coordinates.

mtllib CornNose.mtl
g default
v 0.621058 0.508718 0.142060
v 0.358568 0.770319 0.163637
v 0.000000 0.866072 0.171535
v -0.358568 0.770319 0.163637
v -0.621058 0.508718 0.142060
v -0.717136 0.151363 0.112585
v -0.621058 -0.205991 0.083110
v -0.358568 -0.476589 0.170601
v 0.000000 -0.584880 0.314716
v 0.358568 -0.476589 0.170601
v 0.621058 -0.205991 0.083110
v 0.717136 0.151363 0.112585
v 0.649519 0.473833 0.764908
v 0.375000 0.747423 0.787474
v 0.000000 0.847564 0.795734
v -0.375000 0.747423 0.787474
v -0.649519 0.473833 0.764908
v -0.750000 0.100102 0.734083
v -0.649519 -0.273629 0.703257
v -0.375000 -0.547219 0.680691
v 0.000000 -0.647360 0.672431
v 0.375000 -0.547219 0.680691
v 0.649519 -0.273629 0.703257
v 0.750000 0.100102 0.734083
v 0.609801 0.444162 0.845669
v 0.352068 0.701022 0.866856
v 0.000000 0.795039 0.874610
v -0.352068 0.701022 0.866856
v -0.609800 0.444162 0.845669
v -0.704137 0.093285 0.816729
v -0.609800 -0.257591 0.787788
v -0.352068 -0.514451 0.766602
v 0.000000 -0.608468 0.758848
v 0.352068 -0.514451 0.766602
v 0.609800 -0.257591 0.787788
v 0.704137 0.093285 0.816729
v 0.350163 0.294768 0.833347
v 0.202167 0.442264 0.845513
v 0.000000 0.095529 0.789527
v 0.000000 0.496251 0.849966
v -0.202167 0.442264 0.845513
v -0.350163 0.294768 0.833347
v -0.404334 0.093285 0.816729
v -0.350163 -0.108198 0.800110
v -0.202167 -0.255693 0.787945
v 0.000000 -0.309680 0.783492
v 0.202167 -0.255693 0.787945
v 0.350163 -0.108198 0.800110
v 0.404334 0.093285 0.816729
vt 0.823502 0.738847
vt 0.788260 0.738862
vt 0.788264 0.680890
vt 0.823504 0.680885
vt 0.753016 0.738850
vt 0.753021 0.680893
vt 0.717770 0.738857
vt 0.717774 0.680878
vt 0.682523 0.738838
vt 0.682525 0.680867
vt 0.647274 0.738826
vt 0.647274 0.680879
vt 0.612025 0.738808
vt 0.612023 0.680864
vt 0.576892 0.728625
vt 0.576773 0.680827
vt 0.541945 0.714497
vt 0.541526 0.680814
vt 0.964055 0.714497
vt 0.929111 0.728629
vt 0.929223 0.680838
vt 0.964467 0.680819
vt 0.893985 0.738816
vt 0.893982 0.680885
vt 0.858744 0.738836
vt 0.858744 0.680901
vt 0.788266 0.672082
vt 0.823505 0.672081
vt 0.753023 0.672092
vt 0.717776 0.672070
vt 0.682526 0.672058
vt 0.647274 0.672076
vt 0.612022 0.672065
vt 0.576772 0.672015
vt 0.541525 0.672004
vt 0.929222 0.672031
vt 0.964465 0.672009
vt 0.893982 0.672087
vt 0.858743 0.672102
vt 0.417099 0.788793
vt 0.438896 0.782952
vt 0.438897 0.826546
vt 0.460693 0.788791
vt 0.476650 0.804748
vt 0.482491 0.826545
vt 0.476651 0.848342
vt 0.460695 0.864299
vt 0.438898 0.870140
vt 0.417101 0.864300
vt 0.401144 0.848344
vt 0.395302 0.826547
vt 0.401142 0.804750
vt 0.400951 0.760823
vt 0.438897 0.750655
vt 0.476842 0.760822
vt 0.504620 0.788600
vt 0.514787 0.826546
vt 0.504620 0.864491
vt 0.476842 0.892269
vt 0.438897 0.902437
vt 0.400952 0.892269
vt 0.373174 0.864491
vt 0.363006 0.826546
vt 0.373173 0.788601
vn 0.864704 0.502087 -0.014001
vn 0.499237 0.866317 0.016041
vn 0.499956 0.861923 0.084458
vn 0.865949 0.497169 0.054373
vn 0.499237 0.866317 0.016041
vn 0.000000 0.999634 0.027037
vn 0.000000 0.995432 0.095469
vn 0.499956 0.861923 0.084458
vn 0.000000 0.999634 0.027037
vn -0.499237 0.866317 0.016041
vn -0.499956 0.861923 0.084458
vn 0.000000 0.995432 0.095469
vn -0.499237 0.866317 0.016041
vn -0.864704 0.502087 -0.014001
vn -0.865949 0.497169 0.054373
vn -0.499956 0.861923 0.084458
vn -0.864704 0.502087 -0.014001
vn -0.998474 0.004540 -0.055039
vn -0.999911 -0.001095 0.013276
vn -0.865949 0.497169 0.054373
vn -0.998474 0.004540 -0.055039
vn -0.864704 -0.493008 -0.096077
vn -0.865949 -0.499359 -0.027821
vn -0.999911 -0.001095 0.013276
vn -0.864704 -0.493008 -0.096077
vn -0.499237 -0.857238 -0.126119
vn -0.499956 -0.864113 -0.057905
vn -0.865949 -0.499359 -0.027821
vn -0.499237 -0.857238 -0.126119
vn 0.000000 -0.990555 -0.137115
vn 0.000000 -0.997622 -0.068917
vn -0.499956 -0.864113 -0.057905
vn 0.000000 -0.990555 -0.137115
vn 0.499237 -0.857238 -0.126119
vn 0.499956 -0.864113 -0.057905
vn 0.000000 -0.997622 -0.068917
vn 0.499237 -0.857238 -0.126119
vn 0.864704 -0.493008 -0.096077
vn 0.865949 -0.499359 -0.027821
vn 0.499956 -0.864113 -0.057905
vn 0.864704 -0.493008 -0.096077
vn 0.998474 0.004540 -0.055039
vn 0.999911 -0.001095 0.013276
vn 0.865949 -0.499359 -0.027821
vn 0.998474 0.004540 -0.055039
vn 0.864704 0.502087 -0.014001
vn 0.865949 0.497169 0.054373
vn 0.999911 -0.001095 0.013276
vn 0.865949 0.497169 0.054373
vn 0.499956 0.861923 0.084458
vn 0.174818 0.224756 0.958605
vn 0.302794 0.097213 0.948085
vn 0.499956 0.861923 0.084458
vn 0.000000 0.995432 0.095469
vn 0.000000 0.271439 0.962456
vn 0.174818 0.224756 0.958605
vn 0.000000 0.995432 0.095469
vn -0.499956 0.861923 0.084458
vn -0.174819 0.224756 0.958605
vn 0.000000 0.271439 0.962456
vn -0.499956 0.861923 0.084458
vn -0.865949 0.497169 0.054373
vn -0.302794 0.097213 0.948085
vn -0.174819 0.224756 0.958605
vn -0.865949 0.497169 0.054373
vn -0.999911 -0.001095 0.013276
vn -0.349637 -0.077013 0.933715
vn -0.302794 0.097213 0.948085
vn -0.999911 -0.001095 0.013276
vn -0.865949 -0.499359 -0.027821
vn -0.302794 -0.251240 0.919345
vn -0.349637 -0.077013 0.933715
vn -0.865949 -0.499359 -0.027821
vn -0.499956 -0.864113 -0.057905
vn -0.174818 -0.378783 0.908825
vn -0.302794 -0.251240 0.919345
vn -0.499956 -0.864113 -0.057905
vn 0.000000 -0.997622 -0.068917
vn 0.000000 -0.425466 0.904974
vn -0.174818 -0.378783 0.908825
vn 0.000000 -0.997622 -0.068917
vn 0.499956 -0.864113 -0.057905
vn 0.174818 -0.378783 0.908825
vn 0.000000 -0.425466 0.904974
vn 0.499956 -0.864113 -0.057905
vn 0.865949 -0.499359 -0.027821
vn 0.302794 -0.251240 0.919345
vn 0.174818 -0.378783 0.908825
vn 0.865949 -0.499359 -0.027821
vn 0.999911 -0.001095 0.013276
vn 0.349637 -0.077013 0.933715
vn 0.302794 -0.251240 0.919345
vn 0.999911 -0.001095 0.013276
vn 0.865949 0.497169 0.054373
vn 0.302794 0.097213 0.948085
vn 0.349637 -0.077013 0.933715
vn -0.015204 -0.090937 0.995741
vn -0.008778 -0.097341 0.995212
vn 0.000000 -0.082202 0.996616
vn -0.008778 -0.097341 0.995212
vn 0.000000 -0.099685 0.995019
vn 0.000000 -0.082202 0.996616
vn 0.000000 -0.099685 0.995019
vn 0.008778 -0.097341 0.995212
vn 0.000000 -0.082202 0.996616
vn 0.008778 -0.097341 0.995212
vn 0.015204 -0.090937 0.995741
vn 0.000000 -0.082202 0.996616
vn 0.015204 -0.090937 0.995741
vn 0.017556 -0.082189 0.996462
vn 0.000000 -0.082202 0.996616
vn 0.017556 -0.082189 0.996462
vn 0.015204 -0.073441 0.997184
vn 0.000000 -0.082202 0.996616
vn 0.015204 -0.073441 0.997184
vn 0.008778 -0.067036 0.997712
vn 0.000000 -0.082202 0.996616
vn 0.008778 -0.067036 0.997712
vn 0.000000 -0.064692 0.997905
vn 0.000000 -0.082202 0.996616
vn 0.000000 -0.064692 0.997905
vn -0.008778 -0.067036 0.997712
vn 0.000000 -0.082202 0.996616
vn -0.008778 -0.067036 0.997712
vn -0.015204 -0.073441 0.997184
vn 0.000000 -0.082202 0.996616
vn -0.015204 -0.073441 0.997184
vn -0.017556 -0.082189 0.996462
vn 0.000000 -0.082202 0.996616
vn -0.017556 -0.082189 0.996462
vn -0.015204 -0.090937 0.995741
vn 0.000000 -0.082202 0.996616
vn 0.302794 0.097213 0.948085
vn 0.174818 0.224756 0.958605
vn -0.008778 -0.097341 0.995212
vn -0.015204 -0.090937 0.995741
vn 0.174818 0.224756 0.958605
vn 0.000000 0.271439 0.962456
vn 0.000000 -0.099685 0.995019
vn -0.008778 -0.097341 0.995212
vn 0.000000 0.271439 0.962456
vn -0.174819 0.224756 0.958605
vn 0.008778 -0.097341 0.995212
vn 0.000000 -0.099685 0.995019
vn -0.174819 0.224756 0.958605
vn -0.302794 0.097213 0.948085
vn 0.015204 -0.090937 0.995741
vn 0.008778 -0.097341 0.995212
vn -0.302794 0.097213 0.948085
vn -0.349637 -0.077013 0.933715
vn 0.017556 -0.082189 0.996462
vn 0.015204 -0.090937 0.995741
vn -0.349637 -0.077013 0.933715
vn -0.302794 -0.251240 0.919345
vn 0.015204 -0.073441 0.997184
vn 0.017556 -0.082189 0.996462
vn -0.302794 -0.251240 0.919345
vn -0.174818 -0.378783 0.908825
vn 0.008778 -0.067036 0.997712
vn 0.015204 -0.073441 0.997184
vn -0.174818 -0.378783 0.908825
vn 0.000000 -0.425466 0.904974
vn 0.000000 -0.064692 0.997905
vn 0.008778 -0.067036 0.997712
vn 0.000000 -0.425466 0.904974
vn 0.174818 -0.378783 0.908825
vn -0.008778 -0.067036 0.997712
vn 0.000000 -0.064692 0.997905
vn 0.174818 -0.378783 0.908825
vn 0.302794 -0.251240 0.919345
vn -0.015204 -0.073441 0.997184
vn -0.008778 -0.067036 0.997712
vn 0.302794 -0.251240 0.919345
vn 0.349637 -0.077013 0.933715
vn -0.017556 -0.082189 0.996462
vn -0.015204 -0.073441 0.997184
vn 0.349637 -0.077013 0.933715
vn 0.302794 0.097213 0.948085
vn -0.015204 -0.090937 0.995741
vn -0.017556 -0.082189 0.996462
s off
g FoodNose
usemtl blinn4SG
f 1/1/1 2/2/2 14/3/3 13/4/4
f 2/2/5 3/5/6 15/6/7 14/3/8
f 3/5/9 4/7/10 16/8/11 15/6/12
f 4/7/13 5/9/14 17/10/15 16/8/16
f 5/9/17 6/11/18 18/12/19 17/10/20
f 6/11/21 7/13/22 19/14/23 18/12/24
f 7/13/25 8/15/26 20/16/27 19/14/28
f 8/15/29 9/17/30 21/18/31 20/16/32
f 9/19/33 10/20/34 22/21/35 21/22/36
f 10/20/37 11/23/38 23/24/39 22/21/40
f 11/23/41 12/25/42 24/26/43 23/24/44
f 12/25/45 1/1/46 13/4/47 24/26/48
f 13/4/49 14/3/50 26/27/51 25/28/52
f 14/3/53 15/6/54 27/29/55 26/27/56
f 15/6/57 16/8/58 28/30/59 27/29/60
f 16/8/61 17/10/62 29/31/63 28/30/64
f 17/10/65 18/12/66 30/32/67 29/31/68
f 18/12/69 19/14/70 31/33/71 30/32/72
f 19/14/73 20/16/74 32/34/75 31/33/76
f 20/16/77 21/18/78 33/35/79 32/34/80
f 21/22/81 22/21/82 34/36/83 33/37/84
f 22/21/85 23/24/86 35/38/87 34/36/88
f 23/24/89 24/26/90 36/39/91 35/38/92
f 24/26/93 13/4/94 25/28/95 36/39/96
f 37/40/97 38/41/98 39/42/99
f 38/41/100 40/43/101 39/42/102
f 40/43/103 41/44/104 39/42/105
f 41/44/106 42/45/107 39/42/108
f 42/45/109 43/46/110 39/42/111
f 43/46/112 44/47/113 39/42/114
f 44/47/115 45/48/116 39/42/117
f 45/48/118 46/49/119 39/42/120
f 46/49/121 47/50/122 39/42/123
f 47/50/124 48/51/125 39/42/126
f 48/51/127 49/52/128 39/42/129
f 49/52/130 37/40/131 39/42/132
f 25/53/133 26/54/134 38/41/135 37/40/136
f 26/54/137 27/55/138 40/43/139 38/41/140
f 27/55/141 28/56/142 41/44/143 40/43/144
f 28/56/145 29/57/146 42/45/147 41/44/148
f 29/57/149 30/58/150 43/46/151 42/45/152
f 30/58/153 31/59/154 44/47/155 43/46/156
f 31/59/157 32/60/158 45/48/159 44/47/160
f 32/60/161 33/61/162 46/49/163 45/48/164
f 33/61/165 34/62/166 47/50/167 46/49/168
f 34/62/169 35/63/170 48/51/171 47/50/172
f 35/63/173 36/64/174 49/52/175 48/51/176
f 36/64/177 25/53/178 37/40/179 49/52/180
