# This file uses centimeters as units for non-parametric coordinates.

mtllib IcePopTallRUpperArm.mtl
g default
v 1.819015 0.238749 0.145241
v 1.819033 0.239124 -0.152738
v 1.819045 0.101635 -0.358426
v 1.819045 -0.100707 -0.358050
v 1.819033 -0.238444 -0.151819
v 1.819015 -0.238819 0.146160
v 1.819003 -0.101330 0.351512
v 1.819003 0.101012 0.351136
v 1.598903 0.460525 0.319583
v 1.598941 0.461176 -0.328008
v 1.598959 0.256122 -0.618294
v 1.598959 -0.254246 -0.617643
v 1.598941 -0.460220 -0.326009
v 1.598903 -0.460871 0.321581
v 1.598886 -0.255817 0.611353
v 1.598886 0.254551 0.610703
v 1.298235 0.555781 0.394401
v 1.298282 0.556532 -0.403190
v 1.298300 0.295720 -0.713425
v 1.298300 -0.293601 -0.712673
v 1.298282 -0.555476 -0.400729
v 1.298235 -0.556227 0.396862
v 1.298216 -0.295415 0.706450
v 1.298217 0.293907 0.705698
v -1.267518 0.555781 0.394250
v -1.267471 0.556532 -0.403341
v -1.267452 0.295720 -0.713576
v -1.267452 -0.293601 -0.712824
v -1.267471 -0.555476 -0.400880
v -1.267518 -0.556227 0.396711
v -1.267536 -0.295415 0.706299
v -1.267536 0.293907 0.705547
v -1.351927 0.460525 0.319409
v -1.351889 0.461176 -0.328181
v -1.351871 0.256122 -0.618467
v -1.351872 -0.254246 -0.617817
v -1.351889 -0.460220 -0.326183
v -1.351927 -0.460871 0.321408
v -1.351944 -0.255817 0.611180
v -1.351944 0.254551 0.610529
v -1.413710 0.247974 0.138434
v -1.413693 0.248350 -0.146312
v -1.413681 0.101635 -0.358616
v -1.413681 -0.100707 -0.358240
v -1.413693 -0.247669 -0.145434
v -1.413710 -0.248045 0.139313
v -1.413722 -0.101330 0.351321
v -1.413722 0.101012 0.350945
v 1.899586 0.000153 -0.003452
v -1.413700 0.000153 -0.003647
vt 0.127097 0.048577
vt 0.164817 0.050401
vt 0.175635 0.085911
vt 0.110889 0.084178
vt 0.198436 0.047423
vt 0.208938 0.085386
vt 0.220063 0.029187
vt 0.260899 0.067275
vt 0.670631 0.462123
vt 0.644037 0.450015
vt 0.660496 0.417164
vt 0.697950 0.424963
vt 0.612224 0.449336
vt 0.596668 0.416687
vt 0.585955 0.459642
vt 0.560344 0.423805
vt 0.066428 0.018244
vt 0.089974 0.041144
vt 0.075750 0.081932
vt 0.020066 0.061177
vt 0.178813 0.113751
vt 0.104708 0.112757
vt 0.215995 0.112703
vt 0.272609 0.108802
vt 0.667367 0.387115
vt 0.707507 0.388081
vt 0.590385 0.387102
vt 0.550907 0.388193
vt 0.066834 0.110981
vt 0.008491 0.106798
vt 0.178227 0.357983
vt 0.102597 0.357368
vt 0.216519 0.357650
vt 0.273368 0.355101
vt 0.667285 0.137082
vt 0.707377 0.137704
vt 0.589942 0.137124
vt 0.550376 0.137893
vt 0.063960 0.356673
vt 0.005952 0.353880
vt 0.981834 0.033828
vt 0.973644 0.134006
vt 0.966517 0.120041
vt 0.971647 0.044978
vt 0.951100 0.145358
vt 0.948100 0.135401
vt 0.905773 0.145649
vt 0.910480 0.135026
vt 0.887202 0.124694
vt 0.896236 0.113741
vt 0.889268 0.034625
vt 0.897704 0.045574
vt 0.909113 0.013876
vt 0.913486 0.024440
vt 0.952537 0.010772
vt 0.951029 0.022350
vt 0.952181 0.095721
vt 0.953451 0.066182
vt 0.938891 0.112040
vt 0.923660 0.111709
vt 0.913202 0.093515
vt 0.913654 0.065900
vt 0.925849 0.047899
vt 0.941473 0.047363
vt 0.152359 0.004395
vt 0.627243 0.479347
vt 0.933327 0.079993
vn 0.796236 0.592842 0.120606
vn 0.796496 0.592805 -0.119065
vn 0.500153 0.843675 -0.195088
vn 0.499761 0.843497 0.196854
vn 0.796496 0.592805 -0.119065
vn 0.844191 0.223429 -0.487259
vn 0.533529 0.325169 -0.780777
vn 0.500153 0.843675 -0.195088
vn 0.844191 0.223429 -0.487259
vn 0.843766 -0.225362 -0.487104
vn 0.532963 -0.327373 -0.780242
vn 0.533529 0.325169 -0.780777
vn 0.843766 -0.225362 -0.487104
vn 0.796211 -0.592905 -0.120466
vn 0.499747 -0.843539 -0.196711
vn 0.532963 -0.327373 -0.780242
vn 0.796211 -0.592905 -0.120466
vn 0.796521 -0.592743 0.119206
vn 0.500167 -0.843634 0.195230
vn 0.499747 -0.843539 -0.196711
vn 0.796521 -0.592743 0.119206
vn 0.844136 -0.223081 0.487513
vn 0.533455 -0.324660 0.781039
vn 0.500167 -0.843634 0.195230
vn 0.844136 -0.223081 0.487513
vn 0.843713 0.225014 0.487357
vn 0.532891 0.326866 0.780504
vn 0.533455 -0.324660 0.781039
vn 0.843713 0.225014 0.487357
vn 0.796236 0.592842 0.120606
vn 0.499761 0.843497 0.196854
vn 0.532891 0.326866 0.780504
vn 0.499761 0.843497 0.196854
vn 0.500153 0.843675 -0.195088
vn 0.020708 0.973097 -0.229463
vn 0.020670 0.972645 0.231376
vn 0.500153 0.843675 -0.195088
vn 0.533529 0.325169 -0.780777
vn 0.022345 0.342703 -0.939178
vn 0.020708 0.973097 -0.229463
vn 0.533529 0.325169 -0.780777
vn 0.532963 -0.327373 -0.780242
vn 0.022319 -0.345429 -0.938179
vn 0.022345 0.342703 -0.939178
vn 0.532963 -0.327373 -0.780242
vn 0.499747 -0.843539 -0.196711
vn 0.020695 -0.972676 -0.231243
vn 0.022319 -0.345429 -0.938179
vn 0.499747 -0.843539 -0.196711
vn 0.500167 -0.843634 0.195230
vn 0.020683 -0.973067 0.229594
vn 0.020695 -0.972676 -0.231243
vn 0.500167 -0.843634 0.195230
vn 0.533455 -0.324660 0.781039
vn 0.022237 -0.342076 0.939409
vn 0.020683 -0.973067 0.229594
vn 0.533455 -0.324660 0.781039
vn 0.532891 0.326866 0.780504
vn 0.022211 0.344804 0.938412
vn 0.022237 -0.342076 0.939409
vn 0.532891 0.326866 0.780504
vn 0.499761 0.843497 0.196854
vn 0.020670 0.972645 0.231376
vn 0.022211 0.344804 0.938412
vn 0.020670 0.972645 0.231376
vn 0.020708 0.973097 -0.229463
vn -0.018689 0.973169 -0.229331
vn -0.018720 0.972715 0.231245
vn 0.020708 0.973097 -0.229463
vn 0.022345 0.342703 -0.939178
vn -0.020165 0.342081 -0.939454
vn -0.018689 0.973169 -0.229331
vn 0.022345 0.342703 -0.939178
vn 0.022319 -0.345429 -0.938179
vn -0.020154 -0.344815 -0.938454
vn -0.020165 0.342081 -0.939454
vn 0.022319 -0.345429 -0.938179
vn 0.020695 -0.972676 -0.231243
vn -0.018695 -0.972746 -0.231117
vn -0.020154 -0.344815 -0.938454
vn 0.020695 -0.972676 -0.231243
vn 0.020683 -0.973067 0.229594
vn -0.018714 -0.973139 0.229458
vn -0.018695 -0.972746 -0.231117
vn 0.020683 -0.973067 0.229594
vn 0.022237 -0.342076 0.939409
vn -0.020281 -0.341452 0.939680
vn -0.018714 -0.973139 0.229458
vn 0.022237 -0.342076 0.939409
vn 0.022211 0.344804 0.938412
vn -0.020269 0.344189 0.938682
vn -0.020281 -0.341452 0.939680
vn 0.022211 0.344804 0.938412
vn 0.020670 0.972645 0.231376
vn -0.018720 0.972715 0.231245
vn -0.020269 0.344189 0.938682
vn -0.018720 0.972715 0.231245
vn -0.018689 0.973169 -0.229331
vn -0.889389 0.446503 -0.098090
vn -0.889244 0.446594 0.098992
vn -0.018689 0.973169 -0.229331
vn -0.020165 0.342081 -0.939454
vn -0.904764 0.165897 -0.392276
vn -0.889389 0.446503 -0.098090
vn -0.020165 0.342081 -0.939454
vn -0.020154 -0.344815 -0.938454
vn -0.904536 -0.167196 -0.392249
vn -0.904764 0.165897 -0.392276
vn -0.020154 -0.344815 -0.938454
vn -0.018695 -0.972746 -0.231117
vn -0.889223 -0.446618 -0.099067
vn -0.904536 -0.167196 -0.392249
vn -0.018695 -0.972746 -0.231117
vn -0.018714 -0.973139 0.229458
vn -0.889410 -0.446479 0.098016
vn -0.889223 -0.446618 -0.099067
vn -0.018714 -0.973139 0.229458
vn -0.020281 -0.341452 0.939680
vn -0.904831 -0.165616 0.392241
vn -0.889410 -0.446479 0.098016
vn -0.020281 -0.341452 0.939680
vn -0.020269 0.344189 0.938682
vn -0.904604 0.166915 0.392214
vn -0.904831 -0.165616 0.392241
vn -0.020269 0.344189 0.938682
vn -0.018720 0.972715 0.231245
vn -0.889244 0.446594 0.098992
vn -0.904604 0.166915 0.392214
vn -0.889244 0.446594 0.098992
vn -0.889389 0.446503 -0.098090
vn -0.979429 0.198551 -0.035995
vn -0.979393 0.198652 0.036412
vn -0.889389 0.446503 -0.098090
vn -0.904764 0.165897 -0.392276
vn -0.984460 0.072701 -0.159855
vn -0.979429 0.198551 -0.035995
vn -0.904764 0.165897 -0.392276
vn -0.904536 -0.167196 -0.392249
vn -0.984387 -0.073453 -0.159961
vn -0.984460 0.072701 -0.159855
vn -0.904536 -0.167196 -0.392249
vn -0.889223 -0.446618 -0.099067
vn -0.979385 -0.198675 -0.036523
vn -0.984387 -0.073453 -0.159961
vn -0.889223 -0.446618 -0.099067
vn -0.889410 -0.446479 0.098016
vn -0.979438 -0.198529 0.035885
vn -0.979385 -0.198675 -0.036523
vn -0.889410 -0.446479 0.098016
vn -0.904831 -0.165616 0.392241
vn -0.984481 -0.072586 0.159779
vn -0.979438 -0.198529 0.035885
vn -0.904831 -0.165616 0.392241
vn -0.904604 0.166915 0.392214
vn -0.984408 0.073338 0.159885
vn -0.984481 -0.072586 0.159779
vn -0.904604 0.166915 0.392214
vn -0.889244 0.446594 0.098992
vn -0.979393 0.198652 0.036412
vn -0.984408 0.073338 0.159885
vn 0.796496 0.592805 -0.119065
vn 0.796236 0.592842 0.120606
vn 1.000000 0.000000 0.000008
vn 0.844191 0.223429 -0.487259
vn 0.796496 0.592805 -0.119065
vn 1.000000 0.000000 0.000008
vn 0.843766 -0.225362 -0.487104
vn 0.844191 0.223429 -0.487259
vn 1.000000 0.000000 0.000008
vn 0.796211 -0.592905 -0.120466
vn 0.843766 -0.225362 -0.487104
vn 1.000000 0.000000 0.000008
vn 0.796521 -0.592743 0.119206
vn 0.796211 -0.592905 -0.120466
vn 1.000000 0.000000 0.000008
vn 0.844136 -0.223081 0.487513
vn 0.796521 -0.592743 0.119206
vn 1.000000 0.000000 0.000008
vn 0.843713 0.225014 0.487357
vn 0.844136 -0.223081 0.487513
vn 1.000000 0.000000 0.000008
vn 0.796236 0.592842 0.120606
vn 0.843713 0.225014 0.487357
vn 1.000000 0.000000 0.000008
vn -0.979393 0.198652 0.036412
vn -0.979429 0.198551 -0.035995
vn -1.000000 -0.000002 -0.000059
vn -0.979429 0.198551 -0.035995
vn -0.984460 0.072701 -0.159855
vn -1.000000 -0.000002 -0.000059
vn -0.984460 0.072701 -0.159855
vn -0.984387 -0.073453 -0.159961
vn -1.000000 -0.000001 -0.000057
vn -0.984387 -0.073453 -0.159961
vn -0.979385 -0.198675 -0.036523
vn -1.000000 0.000000 -0.000059
vn -0.979385 -0.198675 -0.036523
vn -0.979438 -0.198529 0.035885
vn -1.000000 0.000000 -0.000059
vn -0.979438 -0.198529 0.035885
vn -0.984481 -0.072586 0.159779
vn -1.000000 0.000000 -0.000059
vn -0.984481 -0.072586 0.159779
vn -0.984408 0.073338 0.159885
vn -1.000000 0.000000 -0.000059
vn -0.984408 0.073338 0.159885
vn -0.979393 0.198652 0.036412
vn -1.000000 -0.000001 -0.000060
s off
g FoodTallRUpperArm
usemtl Eye_blinn1SG
f 1/1/1 2/2/2 10/3/3 9/4/4
f 2/2/5 3/5/6 11/6/7 10/3/8
f 3/5/9 4/7/10 12/8/11 11/6/12
f 4/9/13 5/10/14 13/11/15 12/12/16
f 5/10/17 6/13/18 14/14/19 13/11/20
f 6/13/21 7/15/22 15/16/23 14/14/24
f 7/17/25 8/18/26 16/19/27 15/20/28
f 8/18/29 1/1/30 9/4/31 16/19/32
f 9/4/33 10/3/34 18/21/35 17/22/36
f 10/3/37 11/6/38 19/23/39 18/21/40
f 11/6/41 12/8/42 20/24/43 19/23/44
f 12/12/45 13/11/46 21/25/47 20/26/48
f 13/11/49 14/14/50 22/27/51 21/25/52
f 14/14/53 15/16/54 23/28/55 22/27/56
f 15/20/57 16/19/58 24/29/59 23/30/60
f 16/19/61 9/4/62 17/22/63 24/29/64
f 17/22/65 18/21/66 26/31/67 25/32/68
f 18/21/69 19/23/70 27/33/71 26/31/72
f 19/23/73 20/24/74 28/34/75 27/33/76
f 20/26/77 21/25/78 29/35/79 28/36/80
f 21/25/81 22/27/82 30/37/83 29/35/84
f 22/27/85 23/28/86 31/38/87 30/37/88
f 23/30/89 24/29/90 32/39/91 31/40/92
f 24/29/93 17/22/94 25/32/95 32/39/96
f 25/41/97 26/42/98 34/43/99 33/44/100
f 26/42/101 27/45/102 35/46/103 34/43/104
f 27/45/105 28/47/106 36/48/107 35/46/108
f 28/47/109 29/49/110 37/50/111 36/48/112
f 29/49/113 30/51/114 38/52/115 37/50/116
f 30/51/117 31/53/118 39/54/119 38/52/120
f 31/53/121 32/55/122 40/56/123 39/54/124
f 32/55/125 25/41/126 33/44/127 40/56/128
f 33/44/129 34/43/130 42/57/131 41/58/132
f 34/43/133 35/46/134 43/59/135 42/57/136
f 35/46/137 36/48/138 44/60/139 43/59/140
f 36/48/141 37/50/142 45/61/143 44/60/144
f 37/50/145 38/52/146 46/62/147 45/61/148
f 38/52/149 39/54/150 47/63/151 46/62/152
f 39/54/153 40/56/154 48/64/155 47/63/156
f 40/56/157 33/44/158 41/58/159 48/64/160
f 2/2/161 1/1/162 49/65/163
f 3/5/164 2/2/165 49/65/166
f 4/7/167 3/5/168 49/65/169
f 5/10/170 4/9/171 49/66/172
f 6/13/173 5/10/174 49/66/175
f 7/15/176 6/13/177 49/66/178
f 8/18/179 7/17/180 49/65/181
f 1/1/182 8/18/183 49/65/184
f 41/58/185 42/57/186 50/67/187
f 42/57/188 43/59/189 50/67/190
f 43/59/191 44/60/192 50/67/193
f 44/60/194 45/61/195 50/67/196
f 45/61/197 46/62/198 50/67/199
f 46/62/200 47/63/201 50/67/202
f 47/63/203 48/64/204 50/67/205
f 48/64/206 41/58/207 50/67/208
