# This file uses centimeters as units for non-parametric coordinates.

mtllib IcePopMediumLUpperLeg.mtl
g default
v 1.435079 0.141524 -0.230438
v 1.435079 -0.150102 -0.230806
v 1.435079 -0.351404 -0.096249
v 1.435080 -0.351036 0.101780
v 1.435080 -0.149202 0.236579
v 1.435080 0.142424 0.236947
v 1.435080 0.343396 0.102390
v 1.435079 0.343029 -0.095639
v 1.219669 0.312161 -0.447486
v 1.219669 -0.321622 -0.448123
v 1.219670 -0.605719 -0.247440
v 1.219672 -0.605082 0.252046
v 1.219672 -0.319666 0.453628
v 1.219672 0.314117 0.454265
v 1.219672 0.597711 0.253583
v 1.219670 0.597074 -0.245903
v 0.925415 0.385401 -0.540710
v 0.925415 -0.395184 -0.541445
v 0.925416 -0.698804 -0.286194
v 0.925418 -0.698069 0.290563
v 0.925419 -0.392775 0.546854
v 0.925419 0.387810 0.547589
v 0.925418 0.690797 0.292338
v 0.925416 0.690061 -0.284419
v -1.108744 0.385401 -0.540703
v -1.108744 -0.395184 -0.541438
v -1.108744 -0.698804 -0.286187
v -1.108742 -0.698069 0.290570
v -1.108741 -0.392775 0.546861
v -1.108741 0.387810 0.547596
v -1.108742 0.690797 0.292345
v -1.108744 0.690061 -0.284412
v -1.191358 0.312161 -0.447478
v -1.191358 -0.321622 -0.448115
v -1.191357 -0.605719 -0.247432
v -1.191355 -0.605082 0.252054
v -1.191355 -0.319666 0.453636
v -1.191355 0.314117 0.454273
v -1.191355 0.597711 0.253591
v -1.191357 0.597074 -0.245895
v -1.251833 0.135048 -0.239458
v -1.251833 -0.143626 -0.239826
v -1.251833 -0.351404 -0.096239
v -1.251832 -0.351036 0.101789
v -1.251832 -0.142767 0.245618
v -1.251832 0.135909 0.245985
v -1.251832 0.343396 0.102399
v -1.251833 0.343029 -0.095630
v 1.513924 -0.004004 0.003070
v -1.251830 -0.004003 0.003079
vt 0.127097 0.048577
vt 0.164817 0.050401
vt 0.175635 0.085911
vt 0.110889 0.084178
vt 0.198436 0.047423
vt 0.208938 0.085386
vt 0.220063 0.029187
vt 0.260899 0.067275
vt 0.670631 0.462123
vt 0.644037 0.450015
vt 0.660496 0.417164
vt 0.697950 0.424963
vt 0.612224 0.449336
vt 0.596668 0.416687
vt 0.585955 0.459642
vt 0.560344 0.423805
vt 0.066428 0.018244
vt 0.089974 0.041144
vt 0.075750 0.081932
vt 0.020066 0.061177
vt 0.178813 0.113751
vt 0.104708 0.112757
vt 0.215995 0.112703
vt 0.272609 0.108802
vt 0.667367 0.387115
vt 0.707507 0.388081
vt 0.590385 0.387102
vt 0.550907 0.388193
vt 0.066834 0.110981
vt 0.008491 0.106798
vt 0.178332 0.265573
vt 0.102891 0.264915
vt 0.216470 0.265146
vt 0.273267 0.262517
vt 0.667312 0.233103
vt 0.707392 0.233740
vt 0.590000 0.233140
vt 0.550452 0.233919
vt 0.064359 0.264068
vt 0.006368 0.261179
vt 0.986747 0.048263
vt 0.987208 0.111554
vt 0.977695 0.103966
vt 0.976770 0.055603
vt 0.961963 0.148478
vt 0.958369 0.138540
vt 0.904159 0.146904
vt 0.908300 0.137634
vt 0.879720 0.112466
vt 0.888707 0.105597
vt 0.881603 0.044809
vt 0.890312 0.052138
vt 0.908536 0.012510
vt 0.912271 0.022023
vt 0.967941 0.015516
vt 0.963193 0.025808
vt 0.956031 0.089796
vt 0.955939 0.071119
vt 0.942493 0.109441
vt 0.923377 0.109261
vt 0.909982 0.089989
vt 0.910629 0.069556
vt 0.925388 0.051132
vt 0.944325 0.052735
vt 0.152359 0.004395
vt 0.627243 0.479347
vt 0.933740 0.080559
vn 0.796241 0.120559 -0.592845
vn 0.796487 -0.119112 -0.592808
vn 0.500138 -0.195117 -0.843677
vn 0.499769 0.196824 -0.843499
vn 0.796487 -0.119112 -0.592808
vn 0.844161 -0.487309 -0.223432
vn 0.533482 -0.780808 -0.325171
vn 0.500138 -0.195117 -0.843677
vn 0.844161 -0.487309 -0.223432
vn 0.843738 -0.487154 0.225359
vn 0.532918 -0.780273 0.327371
vn 0.533482 -0.780808 -0.325171
vn 0.843738 -0.487154 0.225359
vn 0.796205 -0.120513 0.592903
vn 0.499738 -0.196740 0.843537
vn 0.532918 -0.780273 0.327371
vn 0.796205 -0.120513 0.592903
vn 0.796530 0.119159 0.592740
vn 0.500181 0.195201 0.843632
vn 0.499738 -0.196740 0.843537
vn 0.796530 0.119159 0.592740
vn 0.844166 0.487463 0.223078
vn 0.533502 0.781008 0.324658
vn 0.500181 0.195201 0.843632
vn 0.844166 0.487463 0.223078
vn 0.843741 0.487308 -0.225017
vn 0.532936 0.780472 -0.326868
vn 0.533502 0.781008 0.324658
vn 0.843741 0.487308 -0.225017
vn 0.796241 0.120559 -0.592845
vn 0.499769 0.196824 -0.843499
vn 0.532936 0.780472 -0.326868
vn 0.499769 0.196824 -0.843499
vn 0.500138 -0.195117 -0.843677
vn 0.020691 -0.229464 -0.973097
vn 0.020681 0.231375 -0.972645
vn 0.500138 -0.195117 -0.843677
vn 0.533482 -0.780808 -0.325171
vn 0.022289 -0.939179 -0.342703
vn 0.020691 -0.229464 -0.973097
vn 0.533482 -0.780808 -0.325171
vn 0.532918 -0.780273 0.327371
vn 0.022265 -0.938181 0.345429
vn 0.022289 -0.939179 -0.342703
vn 0.532918 -0.780273 0.327371
vn 0.499738 -0.196740 0.843537
vn 0.020684 -0.231244 0.972676
vn 0.022265 -0.938181 0.345429
vn 0.499738 -0.196740 0.843537
vn 0.500181 0.195201 0.843632
vn 0.020700 0.229593 0.973067
vn 0.020684 -0.231244 0.972676
vn 0.500181 0.195201 0.843632
vn 0.533502 0.781008 0.324658
vn 0.022293 0.939408 0.342076
vn 0.020700 0.229593 0.973067
vn 0.533502 0.781008 0.324658
vn 0.532936 0.780472 -0.326868
vn 0.022265 0.938411 -0.344804
vn 0.022293 0.939408 0.342076
vn 0.532936 0.780472 -0.326868
vn 0.499769 0.196824 -0.843499
vn 0.020681 0.231375 -0.972645
vn 0.022265 0.938411 -0.344804
vn 0.020681 0.231375 -0.972645
vn 0.020691 -0.229464 -0.973097
vn -0.018706 -0.229330 -0.973169
vn -0.018709 0.231246 -0.972715
vn 0.020691 -0.229464 -0.973097
vn 0.022289 -0.939179 -0.342703
vn -0.020221 -0.939453 -0.342081
vn -0.018706 -0.229330 -0.973169
vn 0.022289 -0.939179 -0.342703
vn 0.022265 -0.938181 0.345429
vn -0.020208 -0.938453 0.344815
vn -0.020221 -0.939453 -0.342081
vn 0.022265 -0.938181 0.345429
vn 0.020684 -0.231244 0.972676
vn -0.018706 -0.231116 0.972746
vn -0.020208 -0.938453 0.344815
vn 0.020684 -0.231244 0.972676
vn 0.020700 0.229593 0.973067
vn -0.018697 0.229459 0.973139
vn -0.018706 -0.231116 0.972746
vn 0.020700 0.229593 0.973067
vn 0.022293 0.939408 0.342076
vn -0.020225 0.939682 0.341452
vn -0.018697 0.229459 0.973139
vn 0.022293 0.939408 0.342076
vn 0.022265 0.938411 -0.344804
vn -0.020215 0.938683 -0.344189
vn -0.020225 0.939682 0.341452
vn 0.022265 0.938411 -0.344804
vn 0.020681 0.231375 -0.972645
vn -0.018709 0.231246 -0.972715
vn -0.020215 0.938683 -0.344189
vn -0.018709 0.231246 -0.972715
vn -0.018706 -0.229330 -0.973169
vn -0.889397 -0.098038 -0.446500
vn -0.889239 0.099044 -0.446591
vn -0.018706 -0.229330 -0.973169
vn -0.020221 -0.939453 -0.342081
vn -0.904787 -0.392223 -0.165894
vn -0.889397 -0.098038 -0.446500
vn -0.020221 -0.939453 -0.342081
vn -0.020208 -0.938453 0.344815
vn -0.904559 -0.392196 0.167199
vn -0.904787 -0.392223 -0.165894
vn -0.020208 -0.938453 0.344815
vn -0.018706 -0.231116 0.972746
vn -0.889228 -0.099015 0.446621
vn -0.904559 -0.392196 0.167199
vn -0.018706 -0.231116 0.972746
vn -0.018697 0.229459 0.973139
vn -0.889402 0.098068 0.446482
vn -0.889228 -0.099015 0.446621
vn -0.018697 0.229459 0.973139
vn -0.020225 0.939682 0.341452
vn -0.904807 0.392294 0.165619
vn -0.889402 0.098068 0.446482
vn -0.020225 0.939682 0.341452
vn -0.020215 0.938683 -0.344189
vn -0.904581 0.392267 -0.166912
vn -0.904807 0.392294 0.165619
vn -0.020215 0.938683 -0.344189
vn -0.018709 0.231246 -0.972715
vn -0.889239 0.099044 -0.446591
vn -0.904581 0.392267 -0.166912
vn -0.889239 0.099044 -0.446591
vn -0.889397 -0.098038 -0.446500
vn -0.979432 -0.035937 -0.198548
vn -0.979392 0.036470 -0.198649
vn -0.889397 -0.098038 -0.446500
vn -0.904787 -0.392223 -0.165894
vn -0.984469 -0.159797 -0.072698
vn -0.979432 -0.035937 -0.198548
vn -0.904787 -0.392223 -0.165894
vn -0.904559 -0.392196 0.167199
vn -0.984396 -0.159903 0.073456
vn -0.984469 -0.159797 -0.072698
vn -0.904559 -0.392196 0.167199
vn -0.889228 -0.099015 0.446621
vn -0.979386 -0.036465 0.198678
vn -0.984396 -0.159903 0.073456
vn -0.889228 -0.099015 0.446621
vn -0.889402 0.098068 0.446482
vn -0.979435 0.035943 0.198532
vn -0.979386 -0.036465 0.198678
vn -0.889402 0.098068 0.446482
vn -0.904807 0.392294 0.165619
vn -0.984471 0.159837 0.072589
vn -0.979435 0.035943 0.198532
vn -0.904807 0.392294 0.165619
vn -0.904581 0.392267 -0.166912
vn -0.984398 0.159943 -0.073335
vn -0.984471 0.159837 0.072589
vn -0.904581 0.392267 -0.166912
vn -0.889239 0.099044 -0.446591
vn -0.979392 0.036470 -0.198649
vn -0.984398 0.159943 -0.073335
vn 0.796487 -0.119112 -0.592808
vn 0.796241 0.120559 -0.592845
vn 1.000000 -0.000051 -0.000003
vn 0.844161 -0.487309 -0.223432
vn 0.796487 -0.119112 -0.592808
vn 1.000000 -0.000051 -0.000003
vn 0.843738 -0.487154 0.225359
vn 0.844161 -0.487309 -0.223432
vn 1.000000 -0.000051 -0.000003
vn 0.796205 -0.120513 0.592903
vn 0.843738 -0.487154 0.225359
vn 1.000000 -0.000051 -0.000003
vn 0.796530 0.119159 0.592740
vn 0.796205 -0.120513 0.592903
vn 1.000000 -0.000051 -0.000003
vn 0.844166 0.487463 0.223078
vn 0.796530 0.119159 0.592740
vn 1.000000 -0.000051 -0.000003
vn 0.843741 0.487308 -0.225017
vn 0.844166 0.487463 0.223078
vn 1.000000 -0.000051 -0.000003
vn 0.796241 0.120559 -0.592845
vn 0.843741 0.487308 -0.225017
vn 1.000000 -0.000051 -0.000003
vn -0.979392 0.036470 -0.198649
vn -0.979432 -0.035937 -0.198548
vn -1.000000 0.000000 0.000005
vn -0.979432 -0.035937 -0.198548
vn -0.984469 -0.159797 -0.072698
vn -1.000000 0.000000 0.000005
vn -0.984469 -0.159797 -0.072698
vn -0.984396 -0.159903 0.073456
vn -1.000000 0.000002 0.000004
vn -0.984396 -0.159903 0.073456
vn -0.979386 -0.036465 0.198678
vn -1.000000 0.000000 0.000003
vn -0.979386 -0.036465 0.198678
vn -0.979435 0.035943 0.198532
vn -1.000000 0.000000 0.000003
vn -0.979435 0.035943 0.198532
vn -0.984471 0.159837 0.072589
vn -1.000000 0.000000 0.000003
vn -0.984471 0.159837 0.072589
vn -0.984398 0.159943 -0.073335
vn -1.000000 0.000000 0.000003
vn -0.984398 0.159943 -0.073335
vn -0.979392 0.036470 -0.198649
vn -1.000000 -0.000001 0.000004
s off
g FoodMediumLUpperLeg
usemtl Eye_blinn1SG
f 1/1/1 2/2/2 10/3/3 9/4/4
f 2/2/5 3/5/6 11/6/7 10/3/8
f 3/5/9 4/7/10 12/8/11 11/6/12
f 4/9/13 5/10/14 13/11/15 12/12/16
f 5/10/17 6/13/18 14/14/19 13/11/20
f 6/13/21 7/15/22 15/16/23 14/14/24
f 7/17/25 8/18/26 16/19/27 15/20/28
f 8/18/29 1/1/30 9/4/31 16/19/32
f 9/4/33 10/3/34 18/21/35 17/22/36
f 10/3/37 11/6/38 19/23/39 18/21/40
f 11/6/41 12/8/42 20/24/43 19/23/44
f 12/12/45 13/11/46 21/25/47 20/26/48
f 13/11/49 14/14/50 22/27/51 21/25/52
f 14/14/53 15/16/54 23/28/55 22/27/56
f 15/20/57 16/19/58 24/29/59 23/30/60
f 16/19/61 9/4/62 17/22/63 24/29/64
f 17/22/65 18/21/66 26/31/67 25/32/68
f 18/21/69 19/23/70 27/33/71 26/31/72
f 19/23/73 20/24/74 28/34/75 27/33/76
f 20/26/77 21/25/78 29/35/79 28/36/80
f 21/25/81 22/27/82 30/37/83 29/35/84
f 22/27/85 23/28/86 31/38/87 30/37/88
f 23/30/89 24/29/90 32/39/91 31/40/92
f 24/29/93 17/22/94 25/32/95 32/39/96
f 25/41/97 26/42/98 34/43/99 33/44/100
f 26/42/101 27/45/102 35/46/103 34/43/104
f 27/45/105 28/47/106 36/48/107 35/46/108
f 28/47/109 29/49/110 37/50/111 36/48/112
f 29/49/113 30/51/114 38/52/115 37/50/116
f 30/51/117 31/53/118 39/54/119 38/52/120
f 31/53/121 32/55/122 40/56/123 39/54/124
f 32/55/125 25/41/126 33/44/127 40/56/128
f 33/44/129 34/43/130 42/57/131 41/58/132
f 34/43/133 35/46/134 43/59/135 42/57/136
f 35/46/137 36/48/138 44/60/139 43/59/140
f 36/48/141 37/50/142 45/61/143 44/60/144
f 37/50/145 38/52/146 46/62/147 45/61/148
f 38/52/149 39/54/150 47/63/151 46/62/152
f 39/54/153 40/56/154 48/64/155 47/63/156
f 40/56/157 33/44/158 41/58/159 48/64/160
f 2/2/161 1/1/162 49/65/163
f 3/5/164 2/2/165 49/65/166
f 4/7/167 3/5/168 49/65/169
f 5/10/170 4/9/171 49/66/172
f 6/13/173 5/10/174 49/66/175
f 7/15/176 6/13/177 49/66/178
f 8/18/179 7/17/180 49/65/181
f 1/1/182 8/18/183 49/65/184
f 41/58/185 42/57/186 50/67/187
f 42/57/188 43/59/189 50/67/190
f 43/59/191 44/60/192 50/67/193
f 44/60/194 45/61/195 50/67/196
f 45/61/197 46/62/198 50/67/199
f 46/62/200 47/63/201 50/67/202
f 47/63/203 48/64/204 50/67/205
f 48/64/206 41/58/207 50/67/208
