# This file uses centimeters as units for non-parametric coordinates.

mtllib IcePopShortRLowerLeg.mtl
g default
v -0.751788 -0.148997 -0.228195
v -0.751788 0.142629 -0.228561
v -0.751787 0.343931 -0.094004
v -0.751786 0.343562 0.104025
v -0.751784 0.141728 0.238824
v -0.751784 -0.149898 0.239190
v -0.751786 -0.350871 0.104632
v -0.751787 -0.350502 -0.093396
v -0.536382 -0.319634 -0.445246
v -0.536382 0.314149 -0.445881
v -0.536380 0.598245 -0.245197
v -0.536376 0.597607 0.254289
v -0.536374 0.312191 0.455870
v -0.536374 -0.321592 0.456505
v -0.536376 -0.605186 0.255822
v -0.536380 -0.604547 -0.243664
v -0.242129 -0.392874 -0.538473
v -0.242129 0.387712 -0.539206
v -0.242127 0.691331 -0.283954
v -0.242122 0.690594 0.292803
v -0.242120 0.385300 0.549093
v -0.242120 -0.395285 0.549826
v -0.242122 -0.698272 0.294574
v -0.242127 -0.697534 -0.282184
v 0.751267 -0.392874 -0.538482
v 0.751267 0.387712 -0.539214
v 0.751269 0.691331 -0.283962
v 0.751274 0.690594 0.292794
v 0.751276 0.385300 0.549085
v 0.751276 -0.395285 0.549817
v 0.751274 -0.698272 0.294565
v 0.751269 -0.697534 -0.282192
v 0.833882 -0.319634 -0.445257
v 0.833882 0.314149 -0.445892
v 0.833883 0.598245 -0.245209
v 0.833887 0.597607 0.254277
v 0.833889 0.312191 0.455859
v 0.833889 -0.321592 0.456494
v 0.833887 -0.605186 0.255811
v 0.833883 -0.604547 -0.243675
v 0.894360 -0.142521 -0.237238
v 0.894360 0.136153 -0.237605
v 0.894361 0.343931 -0.094018
v 0.894362 0.343562 0.104011
v 0.894364 0.135293 0.247839
v 0.894364 -0.143383 0.248205
v 0.894362 -0.350871 0.104618
v 0.894361 -0.350502 -0.093410
v -0.830631 -0.003470 0.005315
v 0.894360 -0.003471 0.005300
vt 0.127097 0.048577
vt 0.164817 0.050401
vt 0.175635 0.085911
vt 0.110889 0.084178
vt 0.198436 0.047423
vt 0.208938 0.085386
vt 0.220063 0.029187
vt 0.260899 0.067275
vt 0.670631 0.462123
vt 0.644037 0.450015
vt 0.660496 0.417164
vt 0.697950 0.424963
vt 0.612224 0.449336
vt 0.596668 0.416687
vt 0.585955 0.459642
vt 0.560344 0.423805
vt 0.066428 0.018244
vt 0.089974 0.041144
vt 0.075750 0.081932
vt 0.020066 0.061177
vt 0.178813 0.113751
vt 0.104708 0.112757
vt 0.215995 0.112703
vt 0.272609 0.108802
vt 0.667367 0.387115
vt 0.707507 0.388081
vt 0.590385 0.387102
vt 0.550907 0.388193
vt 0.066834 0.110981
vt 0.008491 0.106798
vt 0.178636 0.210236
vt 0.103777 0.209445
vt 0.216311 0.209506
vt 0.272955 0.206611
vt 0.667391 0.288242
vt 0.707433 0.288934
vt 0.590173 0.288262
vt 0.550681 0.289080
vt 0.065552 0.208119
vt 0.007597 0.204922
vt 0.986597 0.048617
vt 0.987807 0.108808
vt 0.978600 0.101490
vt 0.977048 0.055797
vt 0.962921 0.148000
vt 0.959439 0.138269
vt 0.904197 0.146717
vt 0.908195 0.137800
vt 0.879667 0.111157
vt 0.888130 0.104485
vt 0.881552 0.044939
vt 0.889789 0.051997
vt 0.908821 0.011713
vt 0.912474 0.020864
vt 0.969359 0.015289
vt 0.964575 0.025454
vt 0.956527 0.088608
vt 0.956375 0.070793
vt 0.942942 0.108347
vt 0.923403 0.108442
vt 0.909611 0.089244
vt 0.910309 0.069190
vt 0.925545 0.050986
vt 0.944768 0.052808
vt 0.152359 0.004395
vt 0.627243 0.479347
vt 0.933822 0.080034
vn -0.796248 -0.120557 -0.592836
vn -0.796494 0.119114 -0.592798
vn -0.500148 0.195120 -0.843670
vn -0.499779 -0.196821 -0.843494
vn -0.796494 0.119114 -0.592798
vn -0.844164 0.487310 -0.223420
vn -0.533486 0.780809 -0.325162
vn -0.500148 0.195120 -0.843670
vn -0.844164 0.487310 -0.223420
vn -0.843736 0.487153 0.225371
vn -0.532914 0.780272 0.327380
vn -0.533486 0.780809 -0.325162
vn -0.843736 0.487153 0.225371
vn -0.796198 0.120511 0.592912
vn -0.499728 0.196737 0.843544
vn -0.532914 0.780272 0.327380
vn -0.796198 0.120511 0.592912
vn -0.796523 -0.119161 0.592749
vn -0.500171 -0.195204 0.843638
vn -0.499728 0.196737 0.843544
vn -0.796523 -0.119161 0.592749
vn -0.844163 -0.487464 0.223087
vn -0.533498 -0.781009 0.324662
vn -0.500171 -0.195204 0.843638
vn -0.844163 -0.487464 0.223087
vn -0.843744 -0.487307 -0.225008
vn -0.532939 -0.780471 -0.326864
vn -0.533498 -0.781009 0.324662
vn -0.843744 -0.487307 -0.225008
vn -0.796248 -0.120557 -0.592836
vn -0.499779 -0.196821 -0.843494
vn -0.532939 -0.780471 -0.326864
vn -0.499779 -0.196821 -0.843494
vn -0.500148 0.195120 -0.843670
vn -0.020702 0.229467 -0.973096
vn -0.020692 -0.231372 -0.972645
vn -0.500148 0.195120 -0.843670
vn -0.533486 0.780809 -0.325162
vn -0.022293 0.939180 -0.342700
vn -0.020702 0.229467 -0.973096
vn -0.533486 0.780809 -0.325162
vn -0.532914 0.780272 0.327380
vn -0.022261 0.938180 0.345432
vn -0.022293 0.939180 -0.342700
vn -0.532914 0.780272 0.327380
vn -0.499728 0.196737 0.843544
vn -0.020673 0.231241 0.972677
vn -0.022261 0.938180 0.345432
vn -0.499728 0.196737 0.843544
vn -0.500171 -0.195204 0.843638
vn -0.020689 -0.229596 0.973066
vn -0.020673 0.231241 0.972677
vn -0.500171 -0.195204 0.843638
vn -0.533498 -0.781009 0.324662
vn -0.022289 -0.939409 0.342073
vn -0.020689 -0.229596 0.973066
vn -0.533498 -0.781009 0.324662
vn -0.532939 -0.780471 -0.326864
vn -0.022269 -0.938409 -0.344807
vn -0.022289 -0.939409 0.342073
vn -0.532939 -0.780471 -0.326864
vn -0.499779 -0.196821 -0.843494
vn -0.020692 -0.231372 -0.972645
vn -0.022269 -0.938409 -0.344807
vn -0.020692 -0.231372 -0.972645
vn -0.020702 0.229467 -0.973096
vn 0.018695 0.229333 -0.973168
vn 0.018698 -0.231243 -0.972716
vn -0.020702 0.229467 -0.973096
vn -0.022293 0.939180 -0.342700
vn 0.020217 0.939454 -0.342078
vn 0.018695 0.229333 -0.973168
vn -0.022293 0.939180 -0.342700
vn -0.022261 0.938180 0.345432
vn 0.020212 0.938452 0.344818
vn 0.020217 0.939454 -0.342078
vn -0.022261 0.938180 0.345432
vn -0.020673 0.231241 0.972677
vn 0.018717 0.231113 0.972747
vn 0.020212 0.938452 0.344818
vn -0.020673 0.231241 0.972677
vn -0.020689 -0.229596 0.973066
vn 0.018708 -0.229462 0.973138
vn 0.018717 0.231113 0.972747
vn -0.020689 -0.229596 0.973066
vn -0.022289 -0.939409 0.342073
vn 0.020229 -0.939683 0.341449
vn 0.018708 -0.229462 0.973138
vn -0.022289 -0.939409 0.342073
vn -0.022269 -0.938409 -0.344807
vn 0.020211 -0.938682 -0.344192
vn 0.020229 -0.939683 0.341449
vn -0.022269 -0.938409 -0.344807
vn -0.020692 -0.231372 -0.972645
vn 0.018698 -0.231243 -0.972716
vn 0.020211 -0.938682 -0.344192
vn 0.018698 -0.231243 -0.972716
vn 0.018695 0.229333 -0.973168
vn 0.889391 0.098039 -0.446510
vn 0.889234 -0.099043 -0.446602
vn 0.018695 0.229333 -0.973168
vn 0.020217 0.939454 -0.342078
vn 0.904786 0.392223 -0.165903
vn 0.889391 0.098039 -0.446510
vn 0.020217 0.939454 -0.342078
vn 0.020212 0.938452 0.344818
vn 0.904561 0.392195 0.167189
vn 0.904786 0.392223 -0.165903
vn 0.020212 0.938452 0.344818
vn 0.018717 0.231113 0.972747
vn 0.889233 0.099014 0.446611
vn 0.904561 0.392195 0.167189
vn 0.018717 0.231113 0.972747
vn 0.018708 -0.229462 0.973138
vn 0.889408 -0.098069 0.446471
vn 0.889233 0.099014 0.446611
vn 0.018708 -0.229462 0.973138
vn 0.020229 -0.939683 0.341449
vn 0.904809 -0.392295 0.165607
vn 0.889408 -0.098069 0.446471
vn 0.020229 -0.939683 0.341449
vn 0.020211 -0.938682 -0.344192
vn 0.904579 -0.392266 -0.166924
vn 0.904809 -0.392295 0.165607
vn 0.020211 -0.938682 -0.344192
vn 0.018698 -0.231243 -0.972716
vn 0.889234 -0.099043 -0.446602
vn 0.904579 -0.392266 -0.166924
vn 0.889234 -0.099043 -0.446602
vn 0.889391 0.098039 -0.446510
vn 0.979430 0.035938 -0.198559
vn 0.979390 -0.036469 -0.198660
vn 0.889391 0.098039 -0.446510
vn 0.904786 0.392223 -0.165903
vn 0.984469 0.159797 -0.072709
vn 0.979430 0.035938 -0.198559
vn 0.904786 0.392223 -0.165903
vn 0.904561 0.392195 0.167189
vn 0.984397 0.159903 0.073445
vn 0.984469 0.159797 -0.072709
vn 0.904561 0.392195 0.167189
vn 0.889233 0.099014 0.446611
vn 0.979388 0.036464 0.198667
vn 0.984397 0.159903 0.073445
vn 0.889233 0.099014 0.446611
vn 0.889408 -0.098069 0.446471
vn 0.979437 -0.035944 0.198521
vn 0.979388 0.036464 0.198667
vn 0.889408 -0.098069 0.446471
vn 0.904809 -0.392295 0.165607
vn 0.984472 -0.159837 0.072577
vn 0.979437 -0.035944 0.198521
vn 0.904809 -0.392295 0.165607
vn 0.904579 -0.392266 -0.166924
vn 0.984398 -0.159943 -0.073347
vn 0.984472 -0.159837 0.072577
vn 0.904579 -0.392266 -0.166924
vn 0.889234 -0.099043 -0.446602
vn 0.979390 -0.036469 -0.198660
vn 0.984398 -0.159943 -0.073347
vn -0.796494 0.119114 -0.592798
vn -0.796248 -0.120557 -0.592836
vn -1.000000 0.000051 0.000008
vn -0.844164 0.487310 -0.223420
vn -0.796494 0.119114 -0.592798
vn -1.000000 0.000051 0.000008
vn -0.843736 0.487153 0.225371
vn -0.844164 0.487310 -0.223420
vn -1.000000 0.000051 0.000008
vn -0.796198 0.120511 0.592912
vn -0.843736 0.487153 0.225371
vn -1.000000 0.000051 0.000008
vn -0.796523 -0.119161 0.592749
vn -0.796198 0.120511 0.592912
vn -1.000000 0.000051 0.000008
vn -0.844163 -0.487464 0.223087
vn -0.796523 -0.119161 0.592749
vn -1.000000 0.000051 0.000008
vn -0.843744 -0.487307 -0.225008
vn -0.844163 -0.487464 0.223087
vn -1.000000 0.000051 0.000008
vn -0.796248 -0.120557 -0.592836
vn -0.843744 -0.487307 -0.225008
vn -1.000000 0.000051 0.000008
vn 0.979390 -0.036469 -0.198660
vn 0.979430 0.035938 -0.198559
vn 1.000000 0.000000 -0.000006
vn 0.979430 0.035938 -0.198559
vn 0.984469 0.159797 -0.072709
vn 1.000000 0.000000 -0.000006
vn 0.984469 0.159797 -0.072709
vn 0.984397 0.159903 0.073445
vn 1.000000 -0.000002 -0.000007
vn 0.984397 0.159903 0.073445
vn 0.979388 0.036464 0.198667
vn 1.000000 0.000000 -0.000008
vn 0.979388 0.036464 0.198667
vn 0.979437 -0.035944 0.198521
vn 1.000000 0.000000 -0.000008
vn 0.979437 -0.035944 0.198521
vn 0.984472 -0.159837 0.072577
vn 1.000000 0.000000 -0.000008
vn 0.984472 -0.159837 0.072577
vn 0.984398 -0.159943 -0.073347
vn 1.000000 0.000000 -0.000008
vn 0.984398 -0.159943 -0.073347
vn 0.979390 -0.036469 -0.198660
vn 1.000000 0.000001 -0.000007
s off
g FoodShortRLowerLeg
usemtl Eye_blinn1SG
f 1/1/1 2/2/2 10/3/3 9/4/4
f 2/2/5 3/5/6 11/6/7 10/3/8
f 3/5/9 4/7/10 12/8/11 11/6/12
f 4/9/13 5/10/14 13/11/15 12/12/16
f 5/10/17 6/13/18 14/14/19 13/11/20
f 6/13/21 7/15/22 15/16/23 14/14/24
f 7/17/25 8/18/26 16/19/27 15/20/28
f 8/18/29 1/1/30 9/4/31 16/19/32
f 9/4/33 10/3/34 18/21/35 17/22/36
f 10/3/37 11/6/38 19/23/39 18/21/40
f 11/6/41 12/8/42 20/24/43 19/23/44
f 12/12/45 13/11/46 21/25/47 20/26/48
f 13/11/49 14/14/50 22/27/51 21/25/52
f 14/14/53 15/16/54 23/28/55 22/27/56
f 15/20/57 16/19/58 24/29/59 23/30/60
f 16/19/61 9/4/62 17/22/63 24/29/64
f 17/22/65 18/21/66 26/31/67 25/32/68
f 18/21/69 19/23/70 27/33/71 26/31/72
f 19/23/73 20/24/74 28/34/75 27/33/76
f 20/26/77 21/25/78 29/35/79 28/36/80
f 21/25/81 22/27/82 30/37/83 29/35/84
f 22/27/85 23/28/86 31/38/87 30/37/88
f 23/30/89 24/29/90 32/39/91 31/40/92
f 24/29/93 17/22/94 25/32/95 32/39/96
f 25/41/97 26/42/98 34/43/99 33/44/100
f 26/42/101 27/45/102 35/46/103 34/43/104
f 27/45/105 28/47/106 36/48/107 35/46/108
f 28/47/109 29/49/110 37/50/111 36/48/112
f 29/49/113 30/51/114 38/52/115 37/50/116
f 30/51/117 31/53/118 39/54/119 38/52/120
f 31/53/121 32/55/122 40/56/123 39/54/124
f 32/55/125 25/41/126 33/44/127 40/56/128
f 33/44/129 34/43/130 42/57/131 41/58/132
f 34/43/133 35/46/134 43/59/135 42/57/136
f 35/46/137 36/48/138 44/60/139 43/59/140
f 36/48/141 37/50/142 45/61/143 44/60/144
f 37/50/145 38/52/146 46/62/147 45/61/148
f 38/52/149 39/54/150 47/63/151 46/62/152
f 39/54/153 40/56/154 48/64/155 47/63/156
f 40/56/157 33/44/158 41/58/159 48/64/160
f 2/2/161 1/1/162 49/65/163
f 3/5/164 2/2/165 49/65/166
f 4/7/167 3/5/168 49/65/169
f 5/10/170 4/9/171 49/66/172
f 6/13/173 5/10/174 49/66/175
f 7/15/176 6/13/177 49/66/178
f 8/18/179 7/17/180 49/65/181
f 1/1/182 8/18/183 49/65/184
f 41/58/185 42/57/186 50/67/187
f 42/57/188 43/59/189 50/67/190
f 43/59/191 44/60/192 50/67/193
f 44/60/194 45/61/195 50/67/196
f 45/61/197 46/62/198 50/67/199
f 46/62/200 47/63/201 50/67/202
f 47/63/203 48/64/204 50/67/205
f 48/64/206 41/58/207 50/67/208
