# This file uses centimeters as units for non-parametric coordinates.

mtllib LWristBGlass.mtl
g default
v -0.328902 0.661440 0.081995
v -0.297276 0.661798 0.158334
v -0.246969 0.662366 0.223885
v -0.181413 0.663106 0.274182
v -0.105072 0.663967 0.305796
v -0.023151 0.664892 0.316574
v 0.058768 0.665816 0.305780
v 0.135102 0.666679 0.274151
v 0.200649 0.667418 0.223841
v 0.250942 0.667985 0.158280
v 0.282554 0.668342 0.081935
v 0.293331 0.668463 0.000009
v 0.282538 0.668341 -0.081915
v 0.250911 0.667984 -0.158254
v 0.200604 0.667416 -0.223805
v 0.135048 0.666676 -0.274101
v 0.058708 0.665814 -0.305715
v -0.023214 0.664890 -0.316493
v -0.105132 0.663965 -0.305700
v -0.181466 0.663104 -0.274071
v -0.247013 0.662364 -0.223761
v -0.297306 0.661797 -0.158199
v -0.328919 0.661440 -0.081855
v -0.339696 0.661318 0.000071
v -0.168061 0.663453 0.038878
v -0.153072 0.663622 0.075054
v -0.129233 0.663891 0.106116
v -0.098166 0.664241 0.129951
v -0.061991 0.664650 0.144932
v -0.023170 0.665088 0.150040
v 0.015650 0.665527 0.144925
v 0.051823 0.665935 0.129936
v 0.082885 0.666285 0.106096
v 0.106718 0.666554 0.075029
v 0.121699 0.666723 0.038849
v 0.126806 0.666781 0.000025
v 0.121692 0.666722 -0.038797
v 0.106703 0.666554 -0.074973
v 0.082864 0.666284 -0.106036
v 0.051798 0.665934 -0.129871
v 0.015622 0.665525 -0.144853
v -0.023199 0.665087 -0.149960
v -0.062019 0.664649 -0.144845
v -0.098192 0.664240 -0.129856
v -0.129255 0.663890 -0.106015
v -0.153087 0.663621 -0.074948
v -0.168068 0.663453 -0.038768
v -0.173175 0.663395 0.000055
vt 0.463234 0.790211
vt 0.469980 0.773985
vt 0.499106 0.790852
vt 0.495732 0.798965
vt 0.480696 0.760058
vt 0.504463 0.783889
vt 0.494652 0.749379
vt 0.511442 0.778549
vt 0.510896 0.742676
vt 0.519563 0.775198
vt 0.528321 0.740405
vt 0.528276 0.774062
vt 0.545740 0.742722
vt 0.536986 0.775221
vt 0.561966 0.749468
vt 0.545099 0.778594
vt 0.575893 0.760185
vt 0.552062 0.783952
vt 0.586572 0.774140
vt 0.557402 0.790930
vt 0.593275 0.790384
vt 0.560753 0.799052
vt 0.595546 0.807809
vt 0.561889 0.807764
vt 0.593229 0.825228
vt 0.560730 0.816474
vt 0.586482 0.841454
vt 0.557357 0.824587
vt 0.575766 0.855382
vt 0.551999 0.831551
vt 0.561811 0.866060
vt 0.545021 0.836890
vt 0.545567 0.872763
vt 0.536899 0.840241
vt 0.528142 0.875034
vt 0.528186 0.841377
vt 0.510722 0.872717
vt 0.519477 0.840218
vt 0.494496 0.865970
vt 0.511364 0.836845
vt 0.480569 0.855255
vt 0.504400 0.831487
vt 0.469891 0.841299
vt 0.499061 0.824509
vt 0.463187 0.825055
vt 0.495710 0.816387
vt 0.460917 0.807630
vt 0.494574 0.807675
vn 0.044940 0.998990 0.000302
vn 0.045058 0.998984 0.000587
vn 0.045058 0.998984 0.000587
vn 0.044940 0.998990 0.000302
vn 0.045058 0.998984 0.000587
vn 0.045245 0.998976 0.000831
vn 0.045245 0.998976 0.000831
vn 0.045058 0.998984 0.000587
vn 0.045245 0.998976 0.000831
vn 0.045489 0.998964 0.001018
vn 0.045489 0.998964 0.001018
vn 0.045245 0.998976 0.000831
vn 0.045489 0.998964 0.001018
vn 0.045773 0.998951 0.001137
vn 0.045773 0.998951 0.001137
vn 0.045489 0.998964 0.001018
vn 0.045773 0.998951 0.001137
vn 0.046078 0.998937 0.001177
vn 0.046078 0.998937 0.001177
vn 0.045773 0.998951 0.001137
vn 0.046078 0.998937 0.001177
vn 0.046383 0.998923 0.001136
vn 0.046383 0.998923 0.001136
vn 0.046078 0.998937 0.001177
vn 0.046383 0.998923 0.001136
vn 0.046667 0.998910 0.001018
vn 0.046667 0.998910 0.001018
vn 0.046383 0.998923 0.001136
vn 0.046667 0.998910 0.001018
vn 0.046911 0.998899 0.000830
vn 0.046911 0.998899 0.000830
vn 0.046667 0.998910 0.001018
vn 0.046911 0.998899 0.000830
vn 0.047099 0.998890 0.000587
vn 0.047099 0.998890 0.000587
vn 0.046911 0.998899 0.000830
vn 0.047099 0.998890 0.000587
vn 0.047216 0.998885 0.000302
vn 0.047216 0.998885 0.000302
vn 0.047099 0.998890 0.000587
vn 0.047216 0.998885 0.000302
vn 0.047256 0.998883 -0.000003
vn 0.047256 0.998883 -0.000003
vn 0.047216 0.998885 0.000302
vn 0.047256 0.998883 -0.000003
vn 0.047216 0.998885 -0.000308
vn 0.047216 0.998885 -0.000308
vn 0.047256 0.998883 -0.000003
vn 0.047216 0.998885 -0.000308
vn 0.047098 0.998890 -0.000592
vn 0.047098 0.998890 -0.000592
vn 0.047216 0.998885 -0.000308
vn 0.047098 0.998890 -0.000592
vn 0.046911 0.998899 -0.000837
vn 0.046911 0.998899 -0.000837
vn 0.047098 0.998890 -0.000592
vn 0.046911 0.998899 -0.000837
vn 0.046667 0.998910 -0.001025
vn 0.046667 0.998910 -0.001025
vn 0.046911 0.998899 -0.000837
vn 0.046667 0.998910 -0.001025
vn 0.046383 0.998923 -0.001142
vn 0.046383 0.998923 -0.001142
vn 0.046667 0.998910 -0.001025
vn 0.046383 0.998923 -0.001142
vn 0.046078 0.998937 -0.001183
vn 0.046078 0.998937 -0.001183
vn 0.046383 0.998923 -0.001142
vn 0.046078 0.998937 -0.001183
vn 0.045773 0.998951 -0.001143
vn 0.045773 0.998951 -0.001143
vn 0.046078 0.998937 -0.001183
vn 0.045773 0.998951 -0.001143
vn 0.045489 0.998964 -0.001025
vn 0.045489 0.998964 -0.001025
vn 0.045773 0.998951 -0.001143
vn 0.045489 0.998964 -0.001025
vn 0.045244 0.998976 -0.000837
vn 0.045244 0.998976 -0.000837
vn 0.045489 0.998964 -0.001025
vn 0.045244 0.998976 -0.000837
vn 0.045057 0.998984 -0.000592
vn 0.045057 0.998984 -0.000592
vn 0.045244 0.998976 -0.000837
vn 0.045057 0.998984 -0.000592
vn 0.044939 0.998990 -0.000309
vn 0.044939 0.998990 -0.000309
vn 0.045057 0.998984 -0.000592
vn 0.044939 0.998990 -0.000309
vn 0.044899 0.998992 -0.000003
vn 0.044899 0.998992 -0.000003
vn 0.044939 0.998990 -0.000309
vn 0.044899 0.998992 -0.000003
vn 0.044940 0.998990 0.000302
vn 0.044940 0.998990 0.000302
vn 0.044899 0.998992 -0.000003
s off
g WatchBGlass1
usemtl blinn7SG
f 1/1/1 2/2/2 26/3/3 25/4/4
f 2/2/5 3/5/6 27/6/7 26/3/8
f 3/5/9 4/7/10 28/8/11 27/6/12
f 4/7/13 5/9/14 29/10/15 28/8/16
f 5/9/17 6/11/18 30/12/19 29/10/20
f 6/11/21 7/13/22 31/14/23 30/12/24
f 7/13/25 8/15/26 32/16/27 31/14/28
f 8/15/29 9/17/30 33/18/31 32/16/32
f 9/17/33 10/19/34 34/20/35 33/18/36
f 10/19/37 11/21/38 35/22/39 34/20/40
f 11/21/41 12/23/42 36/24/43 35/22/44
f 12/23/45 13/25/46 37/26/47 36/24/48
f 13/25/49 14/27/50 38/28/51 37/26/52
f 14/27/53 15/29/54 39/30/55 38/28/56
f 15/29/57 16/31/58 40/32/59 39/30/60
f 16/31/61 17/33/62 41/34/63 40/32/64
f 17/33/65 18/35/66 42/36/67 41/34/68
f 18/35/69 19/37/70 43/38/71 42/36/72
f 19/37/73 20/39/74 44/40/75 43/38/76
f 20/39/77 21/41/78 45/42/79 44/40/80
f 21/41/81 22/43/82 46/44/83 45/42/84
f 22/43/85 23/45/86 47/46/87 46/44/88
f 23/45/89 24/47/90 48/48/91 47/46/92
f 24/47/93 1/1/94 25/4/95 48/48/96
