# This file uses centimeters as units for non-parametric coordinates.

mtllib TropicalShishkabobTallLUpperLeg.mtl
g default
v 0.115537 0.343171 0.360440
v 0.103067 -0.386502 0.356369
v 0.190154 0.308291 -0.078842
v 0.182640 -0.383592 -0.076030
v 0.105480 0.268427 -0.454211
v 0.101650 -0.392989 -0.469484
v -1.583299 0.187434 -0.228021
v -1.583299 -0.222153 -0.225908
v -1.619468 0.189801 0.002067
v -1.619468 -0.235858 -0.003910
v -1.583298 0.195023 0.272653
v -1.583298 -0.266457 0.260787
v 0.075150 -0.825106 0.297019
v 0.128505 -0.865186 -0.047438
v 0.097843 -0.849741 -0.373539
v 0.096217 0.828431 0.318263
v 0.148893 0.830173 -0.066752
v 0.091838 0.678358 -0.357869
v -1.583299 0.416590 -0.192770
v -1.619467 0.508997 0.002308
v -1.583299 -0.477829 -0.174354
v -1.619467 -0.529453 0.008864
v -1.583298 0.509637 0.247595
v -1.583298 -0.548119 0.225944
v -1.023460 0.649584 0.287808
v -1.017020 0.264851 0.320282
v -1.021176 -0.306758 0.310499
v -1.030482 -0.652891 0.265096
v -1.012697 -0.658084 -0.008867
v -1.022918 -0.621065 -0.252542
v -1.021649 -0.283019 -0.322580
v -1.020373 0.229924 -0.318694
v -1.024920 0.533131 -0.259988
v -1.005902 0.649912 -0.020276
v -0.463621 0.758393 0.312673
v -0.450741 0.312579 0.351170
v -0.459055 -0.354630 0.344131
v -0.477666 -0.756846 0.290104
v -0.442096 -0.781537 -0.028677
v -0.462537 -0.756043 -0.322627
v -0.459999 -0.347410 -0.408285
v -0.457446 0.255014 -0.398281
v -0.466541 0.621674 -0.318079
v -0.428504 0.759513 -0.044575
v 0.138028 -0.370111 0.630708
v 0.138027 -0.521331 0.333924
v 0.138025 -0.573438 0.004936
v 0.138024 -0.521331 -0.324052
v 0.138023 -0.370111 -0.620836
v 0.538736 -0.694290 0.866237
v 0.538734 -0.902425 0.457748
v 0.538733 -0.974144 0.004935
v 0.538731 -0.902425 -0.447878
v 0.538730 -0.694290 -0.856367
v 1.043655 -0.902426 1.017455
v 1.043654 -1.147103 0.537247
v 1.043652 -1.231413 0.004933
v 1.043650 -1.147103 -0.527381
v 1.043648 -0.902425 -1.007587
v 1.603363 -0.974144 1.069559
v 1.603361 -1.231413 0.564639
v 1.603359 -1.320062 0.004931
v 1.603357 -1.231413 -0.554776
v 1.603356 -0.974144 -1.059696
v 1.603377 -0.370111 0.630703
v 1.603376 -0.521331 0.333919
v 1.603375 -0.573438 0.004931
v 1.603374 -0.521331 -0.324057
v 1.603373 -0.370111 -0.620841
v 0.138025 0.491191 0.004936
v 1.603378 0.491191 0.004931
vt 0.050221 0.224277
vt 0.083929 0.220365
vt 0.091756 0.280851
vt 0.060052 0.288032
vt 0.093669 0.320139
vt 0.066206 0.331599
vt 0.327894 0.177928
vt 0.324470 0.115818
vt 0.369362 0.085928
vt 0.379998 0.163051
vt 0.396151 0.265299
vt 0.339673 0.273106
vt 0.443326 0.149285
vt 0.458411 0.255785
vt 0.462815 0.321313
vt 0.408113 0.335358
vt 0.430679 0.079277
vt 0.354569 0.340203
vt 0.009995 0.229033
vt 0.008243 0.181442
vt 0.045203 0.176857
vt 0.021644 0.298405
vt 0.077166 0.186004
vt 0.034003 0.339367
vt 0.267044 0.338451
vt 0.258578 0.277629
vt 0.247668 0.189485
vt 0.240195 0.134668
vt 0.539341 0.242456
vt 0.547787 0.303038
vt 0.526313 0.143166
vt 0.518460 0.076442
vt 0.263628 0.381308
vt 0.350182 0.390117
vt 0.317462 0.065696
vt 0.233562 0.090205
vt 0.209836 0.042515
vt 0.290493 0.013765
vt 0.333276 0.440251
vt 0.249451 0.426835
vt 0.610534 0.140514
vt 0.604706 0.082999
vt 0.690440 0.094261
vt 0.695667 0.141100
vt 0.621289 0.225447
vt 0.703906 0.209598
vt 0.629006 0.277148
vt 0.709260 0.251628
vt 0.084365 0.347739
vt 0.175996 0.366920
vt 0.165055 0.406106
vt 0.083118 0.380879
vt 0.180863 0.330613
vt 0.175373 0.279480
vt 0.165928 0.203505
vt 0.158908 0.158230
vt 0.149690 0.119710
vt 0.062422 0.156411
vt 0.129766 0.078664
vt 0.052427 0.120497
vt 0.253805 0.984203
vt 0.216231 0.965081
vt 0.295382 0.856026
vt 0.295449 0.990777
vt 0.337086 0.984162
vt 0.374641 0.965003
vt 0.385633 0.347498
vt 0.427579 0.354652
vt 0.420638 0.425658
vt 0.363802 0.417396
vt 0.471197 0.353891
vt 0.477710 0.424735
vt 0.514200 0.346256
vt 0.534051 0.415206
vt 0.554495 0.331328
vt 0.588830 0.396746
vt 0.417258 0.496718
vt 0.349751 0.490213
vt 0.484251 0.495091
vt 0.550408 0.484451
vt 0.615423 0.465960
vt 0.416803 0.568357
vt 0.343849 0.563167
vt 0.490983 0.565944
vt 0.564128 0.554290
vt 0.634200 0.535914
vt 0.367924 0.773301
vt 0.338374 0.683538
vt 0.375864 0.664253
vt 0.431706 0.740491
vt 0.297125 0.784795
vt 0.296759 0.690295
vt 0.226238 0.773849
vt 0.255094 0.683860
vt 0.162205 0.741533
vt 0.217455 0.664865
vt 0.296238 0.555544
vt 0.066128 0.856137
vt 0.145279 0.747082
vt 0.445379 0.746935
vt 0.524637 0.855912
vt 0.145393 0.976336
vt 0.445489 0.976189
vt 0.516327 0.964934
vt 0.074545 0.965150
vt 0.010620 0.932619
vt 0.580220 0.932340
vn -0.999965 0.002349 0.008045
vn -0.438779 0.054092 -0.896966
vn -0.431953 -0.064197 -0.899608
vn -0.999979 -0.005534 0.003503
vn -0.431953 -0.064197 -0.899608
vn -0.433916 -0.555272 -0.709500
vn -0.579748 -0.810751 -0.081083
vn -0.999979 -0.005534 0.003503
vn 0.464025 0.086123 -0.881626
vn 0.371315 0.531213 -0.761536
vn 0.606650 0.782087 -0.142535
vn 0.999752 0.021931 -0.003956
vn 0.999752 0.021931 -0.003956
vn 0.999216 -0.039526 0.002066
vn 0.448180 -0.079341 -0.890416
vn 0.464025 0.086123 -0.881626
vn 0.558773 0.033317 0.828651
vn 0.547113 -0.064485 0.834571
vn 0.999216 -0.039526 0.002066
vn 0.999752 0.021931 -0.003956
vn 0.547113 -0.064485 0.834571
vn 0.413247 -0.612563 0.673790
vn 0.618119 -0.785789 0.021567
vn 0.999216 -0.039526 0.002066
vn 0.606650 0.782087 -0.142535
vn 0.435245 0.616752 0.655880
vn 0.558773 0.033317 0.828651
vn 0.999752 0.021931 -0.003956
vn 0.448180 -0.079341 -0.890416
vn 0.999216 -0.039526 0.002066
vn 0.618119 -0.785789 0.021567
vn 0.365152 -0.628780 -0.686513
vn -0.413759 0.014795 0.910266
vn -0.432491 0.581791 0.688819
vn -0.567225 0.808252 -0.158065
vn -0.999965 0.002349 0.008045
vn -0.413759 0.014795 0.910266
vn -0.999965 0.002349 0.008045
vn -0.999979 -0.005534 0.003503
vn -0.408876 -0.051717 0.911123
vn -0.567225 0.808252 -0.158065
vn -0.426286 0.511987 -0.745755
vn -0.438779 0.054092 -0.896966
vn -0.999965 0.002349 0.008045
vn -0.408876 -0.051717 0.911123
vn -0.999979 -0.005534 0.003503
vn -0.579748 -0.810751 -0.081083
vn -0.405382 -0.625062 0.667055
vn -0.200311 -0.650941 -0.732224
vn -0.132055 -0.073548 -0.988510
vn 0.448180 -0.079341 -0.890416
vn 0.365152 -0.628780 -0.686513
vn -0.132055 -0.073548 -0.988510
vn -0.120438 0.091320 -0.988512
vn 0.464025 0.086123 -0.881626
vn 0.448180 -0.079341 -0.890416
vn -0.120438 0.091320 -0.988512
vn -0.148096 0.576171 -0.803800
vn 0.371315 0.531213 -0.761536
vn 0.464025 0.086123 -0.881626
vn 0.413247 -0.612563 0.673790
vn 0.547113 -0.064485 0.834571
vn -0.040903 -0.055909 0.997598
vn -0.128645 -0.657854 0.742077
vn 0.547113 -0.064485 0.834571
vn 0.558773 0.033317 0.828651
vn -0.037710 0.028346 0.998887
vn -0.040903 -0.055909 0.997598
vn 0.558773 0.033317 0.828651
vn 0.435245 0.616752 0.655880
vn -0.123128 0.663628 0.737860
vn -0.037710 0.028346 0.998887
vn -0.175492 -0.984467 -0.005321
vn -0.200311 -0.650941 -0.732224
vn 0.365152 -0.628780 -0.686513
vn 0.618119 -0.785789 0.021567
vn 0.606650 0.782087 -0.142535
vn 0.371315 0.531213 -0.761536
vn -0.148096 0.576171 -0.803800
vn -0.154408 0.965730 -0.208622
vn 0.606650 0.782087 -0.142535
vn -0.154408 0.965730 -0.208622
vn -0.123128 0.663628 0.737860
vn 0.435245 0.616752 0.655880
vn -0.175492 -0.984467 -0.005321
vn 0.618119 -0.785789 0.021567
vn 0.413247 -0.612563 0.673790
vn -0.128645 -0.657854 0.742077
vn -0.071965 0.023880 0.997121
vn -0.181607 0.656528 0.732113
vn -0.432491 0.581791 0.688819
vn -0.413759 0.014795 0.910266
vn -0.073999 -0.057700 0.995588
vn -0.071965 0.023880 0.997121
vn -0.413759 0.014795 0.910266
vn -0.408876 -0.051717 0.911123
vn -0.173561 -0.663214 0.728027
vn -0.073999 -0.057700 0.995588
vn -0.408876 -0.051717 0.911123
vn -0.405382 -0.625062 0.667055
vn -0.579748 -0.810751 -0.081083
vn -0.215555 -0.974250 -0.066130
vn -0.173561 -0.663214 0.728027
vn -0.405382 -0.625062 0.667055
vn -0.579748 -0.810751 -0.081083
vn -0.433916 -0.555272 -0.709500
vn -0.239927 -0.623810 -0.743839
vn -0.215555 -0.974250 -0.066130
vn -0.433916 -0.555272 -0.709500
vn -0.431953 -0.064197 -0.899608
vn -0.163533 -0.074507 -0.983720
vn -0.239927 -0.623810 -0.743839
vn -0.431953 -0.064197 -0.899608
vn -0.438779 0.054092 -0.896966
vn -0.152285 0.075577 -0.985443
vn -0.163533 -0.074507 -0.983720
vn -0.438779 0.054092 -0.896966
vn -0.426286 0.511987 -0.745755
vn -0.194801 0.574823 -0.794752
vn -0.152285 0.075577 -0.985443
vn -0.210282 0.956378 -0.202790
vn -0.194801 0.574823 -0.794752
vn -0.426286 0.511987 -0.745755
vn -0.567225 0.808252 -0.158065
vn -0.181607 0.656528 0.732113
vn -0.210282 0.956378 -0.202790
vn -0.567225 0.808252 -0.158065
vn -0.432491 0.581791 0.688819
vn -0.037710 0.028346 0.998887
vn -0.123128 0.663628 0.737860
vn -0.181607 0.656528 0.732113
vn -0.071965 0.023880 0.997121
vn -0.040903 -0.055909 0.997598
vn -0.037710 0.028346 0.998887
vn -0.071965 0.023880 0.997121
vn -0.073999 -0.057700 0.995588
vn -0.128645 -0.657854 0.742077
vn -0.040903 -0.055909 0.997598
vn -0.073999 -0.057700 0.995588
vn -0.173561 -0.663214 0.728027
vn -0.215555 -0.974250 -0.066130
vn -0.175492 -0.984467 -0.005321
vn -0.128645 -0.657854 0.742077
vn -0.173561 -0.663214 0.728027
vn -0.215555 -0.974250 -0.066130
vn -0.239927 -0.623810 -0.743839
vn -0.200311 -0.650941 -0.732224
vn -0.175492 -0.984467 -0.005321
vn -0.239927 -0.623810 -0.743839
vn -0.163533 -0.074507 -0.983720
vn -0.132055 -0.073548 -0.988510
vn -0.200311 -0.650941 -0.732224
vn -0.163533 -0.074507 -0.983720
vn -0.152285 0.075577 -0.985443
vn -0.120438 0.091320 -0.988512
vn -0.132055 -0.073548 -0.988510
vn -0.152285 0.075577 -0.985443
vn -0.194801 0.574823 -0.794752
vn -0.148096 0.576171 -0.803800
vn -0.120438 0.091320 -0.988512
vn -0.154408 0.965730 -0.208622
vn -0.148096 0.576171 -0.803800
vn -0.194801 0.574823 -0.794752
vn -0.210282 0.956378 -0.202790
vn -0.123128 0.663628 0.737860
vn -0.154408 0.965730 -0.208622
vn -0.210282 0.956378 -0.202790
vn -0.181607 0.656528 0.732113
vn -1.000000 -0.000000 0.000003
vn -1.000000 -0.000000 0.000003
vn -1.000000 -0.000000 0.000003
vn -1.000000 -0.000000 0.000003
vn -1.000000 -0.000000 0.000003
vn -1.000000 -0.000000 0.000003
vn -1.000000 -0.000000 0.000003
vn -1.000000 -0.000000 0.000003
vn -1.000000 -0.000000 0.000003
vn -1.000000 -0.000000 0.000003
vn -1.000000 -0.000000 0.000003
vn -1.000000 -0.000000 0.000003
vn -0.702713 -0.633927 0.323004
vn -0.707106 -0.672499 0.218510
vn -0.565462 -0.784406 0.254871
vn -0.560698 -0.737771 0.375915
vn -0.707106 -0.672499 0.218510
vn -0.707107 -0.707107 0.000002
vn -0.565463 -0.824773 0.000002
vn -0.565462 -0.784406 0.254871
vn -0.707107 -0.707107 0.000002
vn -0.707108 -0.672498 -0.218506
vn -0.565464 -0.784406 -0.254867
vn -0.565463 -0.824773 0.000002
vn -0.707108 -0.672498 -0.218506
vn -0.702715 -0.633927 -0.323000
vn -0.560701 -0.737770 -0.375911
vn -0.565464 -0.784406 -0.254867
vn -0.560698 -0.737771 0.375915
vn -0.565462 -0.784406 0.254871
vn -0.296608 -0.908258 0.295112
vn -0.293272 -0.851828 0.434028
vn -0.565462 -0.784406 0.254871
vn -0.565463 -0.824773 0.000002
vn -0.296609 -0.954999 0.000001
vn -0.296608 -0.908258 0.295112
vn -0.565463 -0.824773 0.000002
vn -0.565464 -0.784406 -0.254867
vn -0.296610 -0.908258 -0.295110
vn -0.296609 -0.954999 0.000001
vn -0.565464 -0.784406 -0.254867
vn -0.560701 -0.737770 -0.375911
vn -0.293274 -0.851828 -0.434027
vn -0.296610 -0.908258 -0.295110
vn -0.293272 -0.851828 0.434028
vn -0.296608 -0.908258 0.295112
vn -0.156434 -0.939348 0.305212
vn -0.154553 -0.880301 0.448535
vn -0.296608 -0.908258 0.295112
vn -0.296609 -0.954999 0.000001
vn -0.156435 -0.987688 0.000001
vn -0.156434 -0.939348 0.305212
vn -0.296609 -0.954999 0.000001
vn -0.296610 -0.908258 -0.295110
vn -0.156435 -0.939347 -0.305213
vn -0.156435 -0.987688 0.000001
vn -0.296610 -0.908258 -0.295110
vn -0.293274 -0.851828 -0.434027
vn -0.154557 -0.880300 -0.448536
vn -0.156435 -0.939347 -0.305213
vn 1.000000 -0.000019 0.000003
vn 1.000000 -0.000014 0.000002
vn 1.000000 -0.000013 0.000004
vn 1.000000 -0.000018 0.000006
vn 1.000000 -0.000020 -0.000003
vn 1.000000 -0.000015 -0.000003
vn 1.000000 -0.000014 0.000002
vn 1.000000 -0.000019 0.000003
vn 1.000000 -0.000019 -0.000009
vn 1.000000 -0.000014 -0.000008
vn 1.000000 -0.000015 -0.000003
vn 1.000000 -0.000020 -0.000003
vn 1.000000 -0.000018 -0.000012
vn 1.000000 -0.000013 -0.000010
vn 1.000000 -0.000014 -0.000008
vn 1.000000 -0.000019 -0.000009
vn 1.000000 -0.000014 0.000002
vn 1.000000 -0.000003 -0.000003
vn 1.000000 -0.000013 0.000004
vn 1.000000 -0.000015 -0.000003
vn 1.000000 -0.000003 -0.000003
vn 1.000000 -0.000014 0.000002
vn 1.000000 -0.000014 -0.000008
vn 1.000000 -0.000003 -0.000003
vn 1.000000 -0.000015 -0.000003
vn 1.000000 -0.000013 -0.000010
vn 1.000000 -0.000003 -0.000003
vn 1.000000 -0.000014 -0.000008
vn 0.000003 0.587785 0.809017
vn 0.000003 0.587785 0.809017
vn 0.000003 0.587785 0.809017
vn 0.000003 0.587785 0.809017
vn -0.000003 0.587785 -0.809017
vn -0.000003 0.587785 -0.809017
vn -0.000003 0.587785 -0.809017
vn -0.000003 0.587785 -0.809017
vn 0.000003 0.587785 0.809017
vn 0.000003 0.587785 0.809017
vn 0.000003 0.587785 0.809017
vn -0.000003 0.587786 -0.809017
vn -0.000003 0.587785 -0.809017
vn -0.000003 0.587785 -0.809017
vn 0.000003 0.587785 0.809017
vn 0.000003 0.587785 0.809017
vn 0.000003 0.587785 0.809017
vn 0.000003 0.587785 0.809017
vn 0.000003 0.587785 0.809017
vn 0.000003 0.587785 0.809017
vn -0.000003 0.587786 -0.809017
vn -0.000003 0.587786 -0.809017
vn -0.000003 0.587785 -0.809017
vn -0.000003 0.587785 -0.809017
vn -0.000003 0.587785 -0.809017
vn -0.000003 0.587785 -0.809017
s off
g FoodTallLUpperLeg
usemtl blinn2SG
f 9/1/1 7/2/2 8/3/3 10/4/4
f 8/3/5 21/5/6 22/6/7 10/4/8
f 5/7/9 18/8/10 17/9/11 3/10/12
f 3/10/13 4/11/14 6/12/15 5/7/16
f 1/13/17 2/14/18 4/11/19 3/10/20
f 2/14/21 13/15/22 14/16/23 4/11/24
f 17/9/25 16/17/26 1/13/27 3/10/28
f 6/12/29 4/11/30 14/16/31 15/18/32
f 11/19/33 23/20/34 20/21/35 9/1/36
f 11/19/37 9/1/38 10/4/39 12/22/40
f 20/21/41 19/23/42 7/2/43 9/1/44
f 12/22/45 10/4/46 22/6/47 24/24/48
f 40/25/49 41/26/50 6/12/51 15/18/52
f 41/26/53 42/27/54 5/7/55 6/12/56
f 42/27/57 43/28/58 18/8/59 5/7/60
f 13/15/61 2/14/62 37/29/63 38/30/64
f 2/14/65 1/13/66 36/31/67 37/29/68
f 1/13/69 16/17/70 35/32/71 36/31/72
f 39/33/73 40/25/74 15/18/75 14/34/76
f 17/35/77 18/8/78 43/28/79 44/36/80
f 17/35/81 44/36/82 35/37/83 16/38/84
f 39/33/85 14/34/86 13/39/87 38/40/88
f 26/41/89 25/42/90 23/43/91 11/44/92
f 27/45/93 26/41/94 11/44/95 12/46/96
f 28/47/97 27/45/98 12/46/99 24/48/100
f 22/49/101 29/50/102 28/51/103 24/52/104
f 22/49/105 21/5/106 30/53/107 29/50/108
f 21/5/109 8/3/110 31/54/111 30/53/112
f 8/3/113 7/2/114 32/55/115 31/54/116
f 7/2/117 19/23/118 33/56/119 32/55/120
f 34/57/121 33/56/122 19/23/123 20/58/124
f 25/59/125 34/57/126 20/58/127 23/60/128
f 36/31/129 35/32/130 25/42/131 26/41/132
f 37/29/133 36/31/134 26/41/135 27/45/136
f 38/30/137 37/29/138 27/45/139 28/47/140
f 29/50/141 39/33/142 38/40/143 28/51/144
f 29/50/145 30/53/146 40/25/147 39/33/148
f 30/53/149 31/54/150 41/26/151 40/25/152
f 31/54/153 32/55/154 42/27/155 41/26/156
f 32/55/157 33/56/158 43/28/159 42/27/160
f 44/36/161 43/28/162 33/56/163 34/57/164
f 35/37/165 44/36/166 34/57/167 25/59/168
f 46/61/169 45/62/170 70/63/171
f 47/64/172 46/61/173 70/63/174
f 48/65/175 47/64/176 70/63/177
f 49/66/178 48/65/179 70/63/180
f 45/67/181 46/68/182 51/69/183 50/70/184
f 46/68/185 47/71/186 52/72/187 51/69/188
f 47/71/189 48/73/190 53/74/191 52/72/192
f 48/73/193 49/75/194 54/76/195 53/74/196
f 50/70/197 51/69/198 56/77/199 55/78/200
f 51/69/201 52/72/202 57/79/203 56/77/204
f 52/72/205 53/74/206 58/80/207 57/79/208
f 53/74/209 54/76/210 59/81/211 58/80/212
f 55/78/213 56/77/214 61/82/215 60/83/216
f 56/77/217 57/79/218 62/84/219 61/82/220
f 57/79/221 58/80/222 63/85/223 62/84/224
f 58/80/225 59/81/226 64/86/227 63/85/228
f 61/87/229 66/88/230 65/89/231 60/90/232
f 62/91/233 67/92/234 66/88/235 61/87/236
f 63/93/237 68/94/238 67/92/239 62/91/240
f 64/95/241 69/96/242 68/94/243 63/93/244
f 66/88/245 71/97/246 65/89/247
f 67/92/248 71/97/249 66/88/250
f 68/94/251 71/97/252 67/92/253
f 69/96/254 71/97/255 68/94/256
f 70/63/257 45/62/258 65/98/259 71/99/260
f 49/66/261 70/63/262 71/100/263 69/101/264
f 50/102/265 65/98/266 45/62/267
f 54/103/268 69/101/269 59/104/270
f 65/98/271 55/105/272 60/106/273
f 50/102/274 55/105/275 65/98/276
f 54/103/277 49/66/278 69/101/279
f 59/104/280 69/101/281 64/107/282
