# This file uses centimeters as units for non-parametric coordinates.

mtllib PeanutButterSaucePlant_leaves.mtl
g default
v 0.761651 5.115253 -0.878556
v 1.254925 5.156831 -0.684434
v 1.720819 4.906154 -0.631190
v 1.010333 5.569379 -1.458950
v 1.503607 5.610956 -1.264829
v 1.969501 5.360279 -1.211584
v 1.223757 5.647166 -2.220753
v 1.717031 5.688744 -2.026631
v 2.182925 5.438066 -1.973387
v -1.160546 4.400186 0.487592
v -0.793380 4.663838 0.207577
v -0.460736 4.632602 -0.206069
v -1.683024 4.830734 0.104740
v -1.315858 5.094386 -0.175274
v -0.983214 5.063149 -0.588921
v -2.249956 4.881552 -0.450192
v -1.882790 5.145204 -0.730206
v -1.550146 5.113968 -1.143852
v -2.029242 1.572024 -1.011644
v -2.161139 1.853799 -1.442848
v -2.350718 1.821700 -1.938591
v -2.703240 1.818228 -0.711578
v -2.835137 2.100003 -1.142782
v -3.024716 2.067905 -1.638525
v -3.451516 1.660256 -0.494618
v -3.583413 1.942031 -0.925822
v -3.772992 1.909933 -1.421565
v 2.789124 1.598718 -1.821511
v 2.538963 1.589079 -1.352408
v 2.400425 1.279452 -0.942933
v 3.377542 1.934244 -1.439258
v 3.127380 1.924606 -0.970155
v 2.988843 1.614979 -0.560680
v 4.109698 1.883473 -1.133788
v 3.859537 1.873834 -0.664685
v 3.721000 1.564207 -0.255210
v 2.242225 7.373275 0.211146
v 2.142877 7.850517 -0.001224
v 1.878358 8.105883 -0.385346
v 1.739104 7.576948 0.768207
v 1.639756 8.054190 0.555836
v 1.375237 8.309557 0.171716
v 1.023292 7.494910 1.104102
v 0.923944 7.972152 0.891732
v 0.659425 8.227518 0.507611
v -0.164764 9.081063 -0.491200
v -0.353663 8.890179 -0.032276
v -0.331222 8.482014 0.307766
v 0.282513 9.541922 -0.052472
v 0.093615 9.351037 0.406453
v 0.116056 8.942872 0.746495
v 1.001935 9.722985 0.233171
v 0.813036 9.532101 0.692096
v 0.835478 9.123936 1.032138
v -0.122582 6.933488 -0.571495
v 0.327032 7.183421 -0.706076
v 0.757932 7.160129 -1.016742
v -0.483553 7.457715 -1.018503
v -0.033940 7.707648 -1.153084
v 0.396960 7.684356 -1.463750
v -0.868622 7.630107 -1.692258
v -0.419009 7.880041 -1.826839
v 0.011891 7.856749 -2.137505
v 2.705699 8.275973 1.124917
v 3.034093 7.899765 0.942280
v 3.064205 7.459207 0.646084
v 3.010534 8.732698 0.574092
v 3.338927 8.356491 0.391455
v 3.369040 7.915932 0.095259
v 2.931269 9.106560 -0.122966
v 3.259663 8.730351 -0.305602
v 3.289775 8.289793 -0.601798
vt 0.809950 0.687797
vt 0.864679 0.687797
vt 0.864679 0.767186
vt 0.809950 0.767186
vt 0.919409 0.687797
vt 0.919409 0.767186
vt 0.864679 0.846574
vt 0.809950 0.846574
vt 0.919409 0.846574
vt 0.809950 0.687797
vt 0.864679 0.687797
vt 0.864679 0.767186
vt 0.809950 0.767186
vt 0.919409 0.687797
vt 0.919409 0.767186
vt 0.864679 0.846574
vt 0.809950 0.846574
vt 0.919409 0.846574
vt 0.809950 0.687797
vt 0.864679 0.687797
vt 0.864679 0.767186
vt 0.809950 0.767186
vt 0.919409 0.687797
vt 0.919409 0.767186
vt 0.864679 0.846574
vt 0.809950 0.846574
vt 0.919409 0.846574
vt 0.809950 0.687797
vt 0.864679 0.687797
vt 0.864679 0.767186
vt 0.809950 0.767186
vt 0.919409 0.687797
vt 0.919409 0.767186
vt 0.864679 0.846574
vt 0.809950 0.846574
vt 0.919409 0.846574
vt 0.809950 0.687797
vt 0.864679 0.687797
vt 0.864679 0.767186
vt 0.809950 0.767186
vt 0.919409 0.687797
vt 0.919409 0.767186
vt 0.864679 0.846574
vt 0.809950 0.846574
vt 0.919409 0.846574
vt 0.809950 0.687797
vt 0.864679 0.687797
vt 0.864679 0.767186
vt 0.809950 0.767186
vt 0.919409 0.687797
vt 0.919409 0.767186
vt 0.864679 0.846574
vt 0.809950 0.846574
vt 0.919409 0.846574
vt 0.809950 0.687797
vt 0.864679 0.687797
vt 0.864679 0.767186
vt 0.809950 0.767186
vt 0.919409 0.687797
vt 0.919409 0.767186
vt 0.864679 0.846574
vt 0.809950 0.846574
vt 0.919409 0.846574
vt 0.809950 0.687797
vt 0.864679 0.687797
vt 0.864679 0.767186
vt 0.809950 0.767186
vt 0.919409 0.687797
vt 0.919409 0.767186
vt 0.864679 0.846574
vt 0.809950 0.846574
vt 0.919409 0.846574
vn -0.272176 0.810974 0.517921
vn 0.011462 0.785128 0.619228
vn 0.096477 0.912592 0.397327
vn -0.196761 0.933406 0.300064
vn 0.011462 0.785128 0.619228
vn 0.294053 0.687535 0.663949
vn 0.382861 0.807048 0.449546
vn 0.096477 0.912592 0.397327
vn -0.196761 0.933406 0.300064
vn 0.096477 0.912592 0.397327
vn 0.174021 0.973532 0.148160
vn -0.111140 0.991330 0.070088
vn 0.096477 0.912592 0.397327
vn 0.382861 0.807048 0.449546
vn 0.443916 0.870327 0.213235
vn 0.174021 0.973532 0.148160
vn 0.047557 0.695359 0.717087
vn 0.266285 0.800538 0.536871
vn 0.077112 0.919343 0.385828
vn -0.140853 0.806299 0.574493
vn 0.266285 0.800538 0.536871
vn 0.460679 0.832563 0.307595
vn 0.282040 0.946747 0.155316
vn 0.077112 0.919343 0.385828
vn -0.140853 0.806299 0.574493
vn 0.077112 0.919343 0.385828
vn -0.116458 0.971190 0.207913
vn -0.313834 0.861342 0.399498
vn 0.077112 0.919343 0.385828
vn 0.282040 0.946747 0.155316
vn 0.091135 0.995837 -0.001911
vn -0.116458 0.971190 0.207913
vn 0.462284 0.800407 0.381631
vn 0.384985 0.915955 0.113199
vn 0.139443 0.967233 0.212168
vn 0.226208 0.845661 0.483413
vn 0.384985 0.915955 0.113199
vn 0.272505 0.947800 -0.165577
vn 0.031942 0.996540 -0.076738
vn 0.139443 0.967233 0.212168
vn 0.226208 0.845661 0.483413
vn 0.139443 0.967233 0.212168
vn -0.114641 0.948519 0.295246
vn -0.016595 0.834670 0.550500
vn 0.139443 0.967233 0.212168
vn 0.031942 0.996540 -0.076738
vn -0.202628 0.979154 0.014090
vn -0.114641 0.948519 0.295246
vn -0.390451 0.900866 -0.189708
vn -0.529369 0.845249 0.072952
vn -0.307978 0.929785 0.201619
vn -0.172350 0.982421 -0.071724
vn -0.529369 0.845249 0.072952
vn -0.619913 0.712392 0.328946
vn -0.407240 0.789490 0.459197
vn -0.307978 0.929785 0.201619
vn -0.172350 0.982421 -0.071724
vn -0.307978 0.929785 0.201619
vn -0.065756 0.946820 0.314973
vn 0.049595 0.997665 0.046947
vn -0.307978 0.929785 0.201619
vn -0.407240 0.789490 0.459197
vn -0.175338 0.812912 0.555366
vn -0.065756 0.946820 0.314973
vn 0.749257 0.393142 0.532966
vn 0.672587 0.638560 0.373989
vn 0.475292 0.685313 0.551765
vn 0.559294 0.431423 0.707859
vn 0.672587 0.638560 0.373989
vn 0.534454 0.825625 0.180837
vn 0.339410 0.874135 0.347402
vn 0.475292 0.685313 0.551765
vn 0.559294 0.431423 0.707859
vn 0.475292 0.685313 0.551765
vn 0.244964 0.682409 0.688702
vn 0.339501 0.440502 0.831082
vn 0.475292 0.685313 0.551765
vn 0.339410 0.874135 0.347402
vn 0.128937 0.864449 0.485904
vn 0.244964 0.682409 0.688702
vn -0.715658 0.698439 -0.004064
vn -0.801408 0.546594 0.242860
vn -0.618613 0.685044 0.384751
vn -0.535645 0.834872 0.126780
vn -0.801408 0.546594 0.242860
vn -0.813923 0.344800 0.467591
vn -0.636234 0.472870 0.609591
vn -0.618613 0.685044 0.384751
vn -0.535645 0.834872 0.126780
vn -0.618613 0.685044 0.384751
vn -0.392372 0.773295 0.498055
vn -0.326998 0.912705 0.245035
vn -0.618613 0.685044 0.384751
vn -0.636234 0.472870 0.609591
vn -0.423325 0.566045 0.707382
vn -0.392372 0.773295 0.498055
vn -0.099797 0.604920 0.790008
vn 0.167767 0.703983 0.690118
vn 0.037660 0.858480 0.511462
vn -0.232124 0.750656 0.618574
vn 0.167767 0.703983 0.690118
vn 0.420000 0.738714 0.527163
vn 0.299968 0.887615 0.349513
vn 0.037660 0.858480 0.511462
vn -0.232124 0.750656 0.618574
vn 0.037660 0.858480 0.511462
vn -0.094364 0.950186 0.297055
vn -0.344995 0.842930 0.412853
vn 0.037660 0.858480 0.511462
vn 0.299968 0.887615 0.349513
vn 0.164545 0.974084 0.155196
vn -0.094364 0.950186 0.297055
vn 0.704494 0.303511 0.641537
vn 0.849110 0.065417 0.524150
vn 0.922960 0.219942 0.315864
vn 0.770983 0.458336 0.442169
vn 0.849110 0.065417 0.524150
vn 0.916132 -0.178654 0.358866
vn 0.987627 -0.035234 0.152813
vn 0.922960 0.219942 0.315864
vn 0.770983 0.458336 0.442169
vn 0.922960 0.219942 0.315864
vn 0.929869 0.357675 0.086097
vn 0.785349 0.578311 0.220867
vn 0.922960 0.219942 0.315864
vn 0.987627 -0.035234 0.152813
vn 0.992811 0.105661 -0.056226
vn 0.929869 0.357675 0.086097
s off
g PeanutButterSaucePlant_leaves:pPlane147
usemtl blinn1SG
f 1/1/1 2/2/2 5/3/3 4/4/4
f 2/2/5 3/5/6 6/6/7 5/3/8
f 4/4/9 5/3/10 8/7/11 7/8/12
f 5/3/13 6/6/14 9/9/15 8/7/16
f 10/10/17 11/11/18 14/12/19 13/13/20
f 11/11/21 12/14/22 15/15/23 14/12/24
f 13/13/25 14/12/26 17/16/27 16/17/28
f 14/12/29 15/15/30 18/18/31 17/16/32
f 19/19/33 20/20/34 23/21/35 22/22/36
f 20/20/37 21/23/38 24/24/39 23/21/40
f 22/22/41 23/21/42 26/25/43 25/26/44
f 23/21/45 24/24/46 27/27/47 26/25/48
f 28/28/49 29/29/50 32/30/51 31/31/52
f 29/29/53 30/32/54 33/33/55 32/30/56
f 31/31/57 32/30/58 35/34/59 34/35/60
f 32/30/61 33/33/62 36/36/63 35/34/64
f 37/37/65 38/38/66 41/39/67 40/40/68
f 38/38/69 39/41/70 42/42/71 41/39/72
f 40/40/73 41/39/74 44/43/75 43/44/76
f 41/39/77 42/42/78 45/45/79 44/43/80
f 46/46/81 47/47/82 50/48/83 49/49/84
f 47/47/85 48/50/86 51/51/87 50/48/88
f 49/49/89 50/48/90 53/52/91 52/53/92
f 50/48/93 51/51/94 54/54/95 53/52/96
f 55/55/97 56/56/98 59/57/99 58/58/100
f 56/56/101 57/59/102 60/60/103 59/57/104
f 58/58/105 59/57/106 62/61/107 61/62/108
f 59/57/109 60/60/110 63/63/111 62/61/112
f 64/64/113 65/65/114 68/66/115 67/67/116
f 65/65/117 66/68/118 69/69/119 68/66/120
f 67/67/121 68/66/122 71/70/123 70/71/124
f 68/66/125 69/69/126 72/72/127 71/70/128
