# This file uses centimeters as units for non-parametric coordinates.

mtllib RamenTallRUpperLeg.mtl
g default
v 1.885393 0.063371 0.159915
v 1.885393 0.063371 0.107412
v 1.885392 0.026245 0.070286
v 1.885392 -0.026257 0.070286
v 1.885393 -0.063383 0.107412
v 1.885393 -0.063383 0.159915
v 1.885393 -0.026257 0.197040
v 1.885393 0.026245 0.197040
v 1.300764 0.115296 0.181425
v 1.300764 0.115296 0.085907
v 1.300763 0.047754 0.018365
v 1.300763 -0.047765 0.018365
v 1.300764 -0.115307 0.085907
v 1.300764 -0.115307 0.181425
v 1.300764 -0.047765 0.248967
v 1.300764 0.047754 0.248967
v 0.697484 0.132441 0.188530
v 0.697483 0.132441 0.078807
v 0.697483 0.054856 0.001222
v 0.697483 -0.054867 0.001222
v 0.697483 -0.132453 0.078807
v 0.697484 -0.132453 0.188530
v 0.697484 -0.054867 0.266116
v 0.697484 0.054856 0.266116
v -0.724033 0.132441 0.188537
v -0.724034 0.132441 0.078814
v -0.724034 0.054856 0.001229
v -0.724034 -0.054867 0.001229
v -0.724034 -0.132453 0.078814
v -0.724033 -0.132453 0.188537
v -0.724033 -0.054867 0.266123
v -0.724033 0.054856 0.266123
v 2.052278 -0.000006 0.133662
v -0.936052 0.132441 0.001230
v -0.936052 -0.132453 0.001230
v -0.936051 -0.132453 0.266124
v -0.936051 0.132441 0.266124
v -1.581099 0.132441 0.266127
v -1.581101 0.132441 0.001233
v -1.581101 -0.132453 0.001233
v -1.581099 -0.132453 0.266127
vt 0.108957 0.535407
vt 0.113533 0.534267
vt 0.122646 0.589062
vt 0.115220 0.589600
vt 0.118202 0.532662
vt 0.130207 0.588325
vt 0.081627 0.533233
vt 0.086334 0.534685
vt 0.078588 0.589334
vt 0.071078 0.588690
vt 0.090934 0.535681
vt 0.085969 0.589784
vt 0.095463 0.536241
vt 0.093292 0.590035
vt 0.099955 0.536383
vt 0.100580 0.590087
vt 0.104442 0.536108
vt 0.107882 0.589942
vt 0.122801 0.639395
vt 0.115401 0.639405
vt 0.130207 0.639389
vt 0.078467 0.639413
vt 0.071078 0.639404
vt 0.085852 0.639421
vt 0.093237 0.639429
vt 0.100625 0.639426
vt 0.108012 0.639418
vt 0.122727 0.755936
vt 0.115345 0.755904
vt 0.130207 0.755963
vt 0.078439 0.755883
vt 0.071078 0.755925
vt 0.085843 0.755857
vt 0.093186 0.755847
vt 0.100587 0.755855
vt 0.107937 0.755874
vt 0.099400 0.517564
vt 0.035484 0.505901
vt 0.035484 0.490643
vt 0.050776 0.505815
vt 0.050743 0.490643
vt 0.125686 0.769085
vt 0.111317 0.768786
vt 0.082326 0.768611
vt 0.067951 0.768639
vt 0.096819 0.768641
vt 0.125383 0.803955
vt 0.110954 0.803791
vt 0.082307 0.803541
vt 0.068065 0.803535
vt 0.096600 0.803629
vn 0.121172 0.917073 0.379861
vn 0.121168 0.917073 -0.379861
vn 0.057070 0.922375 -0.382056
vn 0.057074 0.922375 0.382056
vn 0.121165 0.379864 -0.917073
vn 0.057068 0.382061 -0.922374
vn 0.121164 -0.379865 -0.917073
vn 0.057068 -0.382060 -0.922374
vn 0.121167 -0.917074 -0.379861
vn 0.057070 -0.922374 -0.382058
vn 0.121171 -0.917073 0.379861
vn 0.057074 -0.922374 0.382058
vn 0.121173 -0.379862 0.917073
vn 0.057076 -0.382059 0.922374
vn 0.121174 0.379861 0.917073
vn 0.057077 0.382060 0.922373
vn 0.008692 0.923846 -0.382666
vn 0.008695 0.923846 0.382665
vn 0.008689 0.382669 -0.923845
vn 0.008689 -0.382668 -0.923845
vn 0.008692 -0.923845 -0.382668
vn 0.008696 -0.923845 0.382668
vn 0.008698 -0.382669 0.923844
vn 0.008698 0.382670 0.923844
vn -0.000002 0.923881 -0.382680
vn 0.000002 0.923881 0.382679
vn -0.000004 0.382683 -0.923880
vn -0.000004 -0.382682 -0.923880
vn -0.000002 -0.923880 -0.382683
vn 0.000002 -0.923880 0.382682
vn 0.000004 -0.382684 0.923879
vn 0.000004 0.382685 0.923879
vn 1.000000 0.000001 -0.000009
vn -1.000000 -0.000000 0.000005
vn -1.000000 -0.000000 0.000005
vn -1.000000 -0.000000 0.000005
vn -1.000000 -0.000000 0.000005
vn -0.000000 1.000000 -0.000000
vn -0.000000 1.000000 -0.000000
vn -0.000000 1.000000 -0.000000
vn -0.000000 1.000000 -0.000000
vn 0.250507 0.684568 -0.684553
vn 0.250507 0.684568 -0.684553
vn 0.250507 0.684568 -0.684553
vn -0.000005 -0.000000 -1.000000
vn -0.000005 -0.000000 -1.000000
vn -0.000005 -0.000000 -1.000000
vn -0.000005 -0.000000 -1.000000
vn 0.250506 -0.684559 -0.684562
vn 0.250506 -0.684559 -0.684563
vn 0.250506 -0.684559 -0.684562
vn 0.000000 -1.000000 0.000000
vn 0.000000 -1.000000 0.000000
vn 0.000000 -1.000000 0.000000
vn 0.000000 -1.000000 0.000000
vn 0.250512 -0.684561 0.684558
vn 0.250512 -0.684561 0.684558
vn 0.250512 -0.684561 0.684558
vn 0.000005 0.000000 1.000000
vn 0.000005 0.000000 1.000000
vn 0.000005 0.000000 1.000000
vn 0.000005 0.000000 1.000000
vn 0.250510 0.684571 0.684549
vn 0.250510 0.684571 0.684549
vn 0.250510 0.684571 0.684549
vn -0.000000 1.000000 -0.000000
vn -0.000000 1.000000 -0.000000
vn -0.000005 -0.000000 -1.000000
vn -0.000005 -0.000000 -1.000000
vn 0.000000 -1.000000 0.000000
vn 0.000000 -1.000000 0.000000
vn 0.000005 0.000000 1.000000
vn 0.000005 0.000000 1.000000
vn 0.000005 0.000000 1.000000
vn 0.000005 0.000000 1.000000
s 1
g FoodTallRUpperLeg
usemtl delete11:blinn1SG
f 1/1/1 2/2/2 10/3/3 9/4/4
f 2/2/2 3/5/5 11/6/6 10/3/3
f 3/7/5 4/8/7 12/9/8 11/10/6
f 4/8/7 5/11/9 13/12/10 12/9/8
f 5/11/9 6/13/11 14/14/12 13/12/10
f 6/13/11 7/15/13 15/16/14 14/14/12
f 7/15/13 8/17/15 16/18/16 15/16/14
f 8/17/15 1/1/1 9/4/4 16/18/16
f 9/4/4 10/3/3 18/19/17 17/20/18
f 10/3/3 11/6/6 19/21/19 18/19/17
f 11/10/6 12/9/8 20/22/20 19/23/19
f 12/9/8 13/12/10 21/24/21 20/22/20
f 13/12/10 14/14/12 22/25/22 21/24/21
f 14/14/12 15/16/14 23/26/23 22/25/22
f 15/16/14 16/18/16 24/27/24 23/26/23
f 16/18/16 9/4/4 17/20/18 24/27/24
f 17/20/18 18/19/17 26/28/25 25/29/26
f 18/19/17 19/21/19 27/30/27 26/28/25
f 19/23/19 20/22/20 28/31/28 27/32/27
f 20/22/20 21/24/21 29/33/29 28/31/28
f 21/24/21 22/25/22 30/34/30 29/33/29
f 22/25/22 23/26/23 31/35/31 30/34/30
f 23/26/23 24/27/24 32/36/32 31/35/31
f 24/27/24 17/20/18 25/29/26 32/36/32
f 2/2/2 1/1/1 33/37/33
f 3/5/5 2/2/2 33/37/33
f 4/8/7 3/7/5 33/37/33
f 5/11/9 4/8/7 33/37/33
f 6/13/11 5/11/9 33/37/33
f 7/15/13 6/13/11 33/37/33
f 8/17/15 7/15/13 33/37/33
f 1/1/1 8/17/15 33/37/33
s 2
f 39/38/34 40/39/35 38/40/36
f 40/39/35 41/41/37 38/40/36
s 3
f 25/29/38 26/28/39 34/42/40 37/43/41
s off
f 26/28/42 27/30/43 34/42/44
s 4
f 27/32/45 28/31/46 35/44/47 34/45/48
s off
f 28/31/49 29/33/50 35/44/51
s 5
f 29/33/52 30/34/53 36/46/54 35/44/55
s off
f 30/34/56 31/35/57 36/46/58
f 31/35/59 32/36/60 37/43/61 36/46/62
f 32/36/63 25/29/64 37/43/65
s 3
f 37/43/41 34/42/40 39/47/66 38/48/67
s 4
f 34/45/48 35/44/47 40/49/68 39/50/69
s 5
f 35/44/55 36/46/54 41/51/70 40/49/71
s off
f 36/46/72 37/43/73 38/48/74 41/51/75
