# This file uses centimeters as units for non-parametric coordinates.

mtllib CakeSliceMediumRLowerLeg.mtl
g default
v 0.984704 0.517061 0.570693
v 0.950893 0.600844 0.561634
v 0.869266 0.635549 0.539762
v 1.058729 0.517067 0.008411
v 1.023726 0.600850 0.008412
v 0.939220 0.635554 0.008413
v 0.984704 0.517072 -0.553870
v 0.950893 0.600856 -0.544809
v 0.869266 0.635560 -0.522937
v 1.084908 0.339627 0.008409
v 1.009991 0.339621 0.577466
v 1.009991 0.339632 -0.560647
v 1.103143 -0.010855 0.008406
v 1.027604 -0.010861 0.582182
v 1.027604 -0.010849 -0.565370
v 1.084908 -0.361335 0.008402
v 1.009991 -0.361341 0.577459
v 1.009991 -0.361329 -0.560654
v 0.726625 0.588371 1.070958
v 0.743693 0.600839 1.061858
v 0.661474 0.619751 1.033343
v 0.670338 0.635544 1.020018
v 0.774130 0.517055 1.079061
v 0.753450 0.512491 1.086444
v 0.726236 0.587941 -1.053909
v 0.743693 0.600861 -1.045034
v 0.670338 0.635565 -1.003193
v 0.661474 0.619773 -1.016518
v 0.753450 0.512513 -1.069622
v 0.774130 0.517078 -1.062239
v -1.095449 0.620605 0.018983
v -1.079934 0.635554 0.008413
v -1.095449 0.620605 -0.002158
v 0.755449 -0.533237 1.087587
v 0.760089 -0.549450 1.072309
v 0.775826 -0.534939 1.080188
v 0.970282 -0.549445 0.566817
v 0.986675 -0.534781 0.571210
v 1.043799 -0.549439 0.008400
v 1.060770 -0.534775 0.008400
v 0.970282 -0.549433 -0.550016
v 0.986675 -0.534769 -0.554409
v 0.775826 -0.534917 -1.063387
v 0.760153 -0.549428 -1.055694
v 0.755449 -0.533214 -1.070786
v -1.095449 -0.534490 -0.002170
v -1.079934 -0.549439 0.008400
v -1.095449 -0.534490 0.018971
v 0.775739 -0.359737 1.099304
v 0.796819 -0.361347 1.092099
v 0.775747 -0.359716 -1.082504
v 0.796816 -0.361324 -1.075303
v 0.796819 0.339615 1.092107
v 0.775742 0.337937 1.099313
v 0.775743 0.337959 -1.082494
v 0.796820 0.339638 -1.075288
v 0.812611 -0.010866 1.101220
v 0.791458 -0.010866 1.108383
v 0.791458 -0.010843 -1.091571
v 0.812611 -0.010843 -1.084409
v -1.095449 0.337948 -0.002161
v -1.095449 0.337948 0.018980
v -1.095449 -0.010855 -0.002165
v -1.095449 -0.010855 0.018976
v -1.095449 -0.359726 -0.002168
v -1.095449 -0.359726 0.018973
v -1.095449 0.512502 0.018982
v -1.095449 0.512502 -0.002159
vt 0.489513 0.651118
vt 0.500538 0.639056
vt 0.563797 0.718513
vt 0.549700 0.726781
vt 0.124431 0.436221
vt 0.124312 0.420063
vt 0.226140 0.419899
vt 0.226108 0.436046
vt 0.602329 0.812487
vt 0.586455 0.816205
vt 0.327958 0.420223
vt 0.327763 0.436443
vt 0.124022 0.388103
vt 0.226208 0.387983
vt 0.328408 0.388324
vt 0.123437 0.325714
vt 0.226292 0.325607
vt 0.329149 0.325929
vt 0.123034 0.263393
vt 0.226327 0.263325
vt 0.329634 0.263476
vt 0.415560 0.582409
vt 0.419703 0.583117
vt 0.412897 0.597993
vt 0.409374 0.596079
vt 0.026594 0.437238
vt 0.022630 0.435877
vt 0.022192 0.421125
vt 0.026159 0.421181
vt 0.240120 0.908542
vt 0.235706 0.908271
vt 0.020799 0.389309
vt 0.024774 0.389243
vt 0.429565 0.436407
vt 0.425523 0.437795
vt 0.426032 0.421736
vt 0.429998 0.421695
vt 0.611788 0.910316
vt 0.610334 0.914348
vt 0.595439 0.913010
vt 0.595484 0.909002
vt 0.238206 0.912527
vt 0.427510 0.389780
vt 0.431478 0.389861
vt 0.404044 0.193806
vt 0.400267 0.193806
vt 0.400268 0.162664
vt 0.404043 0.162664
vt 0.019388 0.232302
vt 0.023266 0.232302
vt 0.023285 0.263672
vt 0.019312 0.263737
vt 0.013447 0.574749
vt 0.012467 0.570755
vt 0.387224 0.568336
vt 0.385363 0.572341
vt 0.009377 0.574381
vt 0.022557 0.672739
vt 0.018647 0.673625
vt 0.062219 0.766797
vt 0.058778 0.768866
vt 0.126741 0.845903
vt 0.124123 0.848945
vt 0.209080 0.899855
vt 0.207490 0.903595
vt 0.429582 0.232302
vt 0.433460 0.232302
vt 0.433538 0.263900
vt 0.429561 0.263838
vt 0.212147 0.902562
vt 0.389773 0.572572
vt 0.023472 0.326448
vt 0.019499 0.326497
vt 0.433116 0.326986
vt 0.429143 0.326926
vt 0.122761 0.232302
vt 0.226343 0.232302
vt 0.329934 0.232302
vt 0.014538 0.162467
vt 0.019122 0.193613
vt 0.785187 0.193613
vt 0.789772 0.162467
vt 0.011313 0.100228
vt 0.400268 0.100437
vt 0.404043 0.100437
vt 0.792997 0.100228
vt 0.014555 0.037978
vt 0.400269 0.038198
vt 0.404042 0.038198
vt 0.789752 0.037979
vt 0.018758 0.007025
vt 0.400273 0.007015
vt 0.404037 0.007016
vt 0.785551 0.007026
vt 0.779663 0.207155
vt 0.404047 0.213093
vt 0.400264 0.213093
vt 0.024727 0.207074
vt 0.038075 0.212761
vt 0.766235 0.212760
vn 0.036165 0.999300 0.009623
vn 0.700001 0.689473 0.186081
vn 0.724299 0.689486 0.000007
vn 0.037434 0.999299 0.000010
vn 0.700001 0.689473 0.186081
vn 0.941683 0.224878 0.250326
vn 0.974386 0.224883 0.000002
vn 0.724299 0.689486 0.000007
vn 0.037434 0.999299 0.000010
vn 0.724299 0.689486 0.000007
vn 0.700001 0.689477 -0.186067
vn 0.036164 0.999300 -0.009603
vn 0.724299 0.689486 0.000007
vn 0.974386 0.224883 0.000002
vn 0.941683 0.224884 -0.250322
vn 0.700001 0.689477 -0.186067
vn 0.963077 0.083267 0.256027
vn 0.996527 0.083273 0.000001
vn 0.974386 0.224883 0.000002
vn 0.941683 0.224878 0.250326
vn 0.996527 0.083273 0.000001
vn 0.963077 0.083274 -0.256025
vn 0.941683 0.224884 -0.250322
vn 0.974386 0.224883 0.000002
vn 0.966432 -0.000003 0.256924
vn 1.000000 0.000000 0.000000
vn 0.996527 0.083273 0.000001
vn 0.963077 0.083267 0.256027
vn 1.000000 0.000000 0.000000
vn 0.966432 0.000003 -0.256924
vn 0.963077 0.083274 -0.256025
vn 0.996527 0.083273 0.000001
vn 0.963322 -0.080133 0.256103
vn 0.996785 -0.080128 -0.000001
vn 1.000000 0.000000 0.000000
vn 0.966432 -0.000003 0.256924
vn 0.996785 -0.080128 -0.000001
vn 0.963322 -0.080127 -0.256105
vn 0.966432 0.000003 -0.256924
vn 1.000000 0.000000 0.000000
vn -0.486361 0.014914 0.873631
vn 0.659168 0.689253 0.300712
vn 0.005336 0.998031 0.062488
vn -0.494353 0.123114 0.860499
vn 0.659168 0.689253 0.300712
vn -0.486361 0.014914 0.873631
vn -0.491732 0.002153 0.870744
vn 0.889586 0.223881 0.398139
vn -0.494353 0.123114 0.860499
vn 0.005336 0.998031 0.062488
vn -0.087370 0.996176 0.000010
vn -0.504646 0.150769 0.850060
vn 0.889586 0.223881 0.398139
vn -0.491732 0.002153 0.870744
vn -0.493078 0.000658 0.869985
vn 0.909369 0.082854 0.407656
vn -0.486421 0.014877 -0.873598
vn 0.659026 0.689265 -0.300997
vn 0.889517 0.223920 -0.398271
vn -0.491719 0.002186 -0.870751
vn 0.659026 0.689265 -0.300997
vn -0.486421 0.014877 -0.873598
vn -0.494339 0.123083 -0.860511
vn 0.005323 0.998031 -0.062502
vn 0.005323 0.998031 -0.062502
vn -0.494339 0.123083 -0.860511
vn -0.504649 0.150414 -0.850121
vn -0.087370 0.996176 0.000010
vn -0.491719 0.002186 -0.870751
vn 0.889517 0.223920 -0.398271
vn 0.909369 0.082862 -0.407654
vn -0.493078 0.000676 -0.869985
vn -0.508562 -0.000009 0.861025
vn -0.508555 0.000009 -0.861030
vn -0.507279 0.000009 -0.861782
vn -0.507279 -0.000009 0.861782
vn -0.492865 -0.071753 0.867142
vn 0.892677 -0.209194 0.399206
vn 0.909646 -0.079728 0.407662
vn -0.493149 -0.000638 0.869945
vn -0.018359 -0.998001 0.060475
vn -0.492865 -0.071753 0.867142
vn -0.505940 -0.067267 0.859942
vn -0.085223 -0.996362 -0.000010
vn 0.892677 -0.209194 0.399206
vn -0.018359 -0.998001 0.060475
vn 0.015209 -0.999876 0.004033
vn 0.945142 -0.208714 0.251288
vn 0.945142 -0.208714 0.251288
vn 0.015209 -0.999876 0.004033
vn 0.015781 -0.999876 -0.000010
vn 0.978162 -0.207844 -0.000002
vn 0.978162 -0.207844 -0.000002
vn 0.015781 -0.999876 -0.000010
vn 0.015206 -0.999876 -0.004052
vn 0.945172 -0.208564 -0.251297
vn 0.945172 -0.208564 -0.251297
vn 0.015206 -0.999876 -0.004052
vn -0.018312 -0.998011 -0.060324
vn 0.892696 -0.209147 -0.399188
vn 0.892696 -0.209147 -0.399188
vn -0.492871 -0.071720 -0.867142
vn -0.493151 -0.000620 -0.869944
vn 0.909648 -0.079720 -0.407658
vn -0.492871 -0.071720 -0.867142
vn -0.018312 -0.998011 -0.060324
vn -0.085223 -0.996362 -0.000010
vn -0.505951 -0.066985 -0.859957
vn -0.493149 -0.000638 0.869945
vn 0.909646 -0.079728 0.407662
vn 0.912522 -0.000004 0.409027
vn -0.492940 -0.000009 0.870063
vn 0.909648 -0.079720 -0.407658
vn -0.493151 -0.000620 -0.869944
vn -0.492941 0.000009 -0.870063
vn 0.912524 0.000004 -0.409023
vn 0.909369 0.082854 0.407656
vn -0.493078 0.000658 0.869985
vn -0.492940 -0.000009 0.870063
vn 0.912522 -0.000004 0.409027
vn -0.493078 0.000676 -0.869985
vn 0.909369 0.082862 -0.407654
vn 0.912524 0.000004 -0.409023
vn -0.492941 0.000009 -0.870063
vn 0.005336 0.998031 0.062488
vn 0.036165 0.999300 0.009623
vn -0.087370 0.996176 0.000010
vn 0.036165 0.999300 0.009623
vn 0.037434 0.999299 0.000010
vn -0.087370 0.996176 0.000010
vn 0.037434 0.999299 0.000010
vn 0.036164 0.999300 -0.009603
vn -0.087370 0.996176 0.000010
vn 0.036164 0.999300 -0.009603
vn 0.005323 0.998031 -0.062502
vn -0.087370 0.996176 0.000010
vn 0.005336 0.998031 0.062488
vn 0.659168 0.689253 0.300712
vn 0.700001 0.689473 0.186081
vn 0.036165 0.999300 0.009623
vn 0.659168 0.689253 0.300712
vn 0.889586 0.223881 0.398139
vn 0.941683 0.224878 0.250326
vn 0.700001 0.689473 0.186081
vn 0.036164 0.999300 -0.009603
vn 0.700001 0.689477 -0.186067
vn 0.659026 0.689265 -0.300997
vn 0.005323 0.998031 -0.062502
vn 0.700001 0.689477 -0.186067
vn 0.941683 0.224884 -0.250322
vn 0.889517 0.223920 -0.398271
vn 0.659026 0.689265 -0.300997
vn 0.015209 -0.999876 0.004033
vn -0.018359 -0.998001 0.060475
vn -0.085223 -0.996362 -0.000010
vn 0.015781 -0.999876 -0.000010
vn 0.015209 -0.999876 0.004033
vn -0.085223 -0.996362 -0.000010
vn 0.015206 -0.999876 -0.004052
vn 0.015781 -0.999876 -0.000010
vn -0.085223 -0.996362 -0.000010
vn -0.018312 -0.998011 -0.060324
vn 0.015206 -0.999876 -0.004052
vn -0.085223 -0.996362 -0.000010
vn 0.892677 -0.209194 0.399206
vn 0.945142 -0.208714 0.251288
vn 0.963322 -0.080133 0.256103
vn 0.909646 -0.079728 0.407662
vn 0.945142 -0.208714 0.251288
vn 0.978162 -0.207844 -0.000002
vn 0.996785 -0.080128 -0.000001
vn 0.963322 -0.080133 0.256103
vn 0.978162 -0.207844 -0.000002
vn 0.945172 -0.208564 -0.251297
vn 0.963322 -0.080127 -0.256105
vn 0.996785 -0.080128 -0.000001
vn 0.945172 -0.208564 -0.251297
vn 0.892696 -0.209147 -0.399188
vn 0.909648 -0.079720 -0.407658
vn 0.963322 -0.080127 -0.256105
vn 0.909369 0.082854 0.407656
vn 0.963077 0.083267 0.256027
vn 0.941683 0.224878 0.250326
vn 0.889586 0.223881 0.398139
vn 0.963077 0.083274 -0.256025
vn 0.909369 0.082862 -0.407654
vn 0.889517 0.223920 -0.398271
vn 0.941683 0.224884 -0.250322
vn 0.912522 -0.000004 0.409027
vn 0.966432 -0.000003 0.256924
vn 0.963077 0.083267 0.256027
vn 0.909369 0.082854 0.407656
vn 0.966432 0.000003 -0.256924
vn 0.912524 0.000004 -0.409023
vn 0.909369 0.082862 -0.407654
vn 0.963077 0.083274 -0.256025
vn 0.909646 -0.079728 0.407662
vn 0.963322 -0.080133 0.256103
vn 0.966432 -0.000003 0.256924
vn 0.912522 -0.000004 0.409027
vn 0.963322 -0.080127 -0.256105
vn 0.909648 -0.079720 -0.407658
vn 0.912524 0.000004 -0.409023
vn 0.966432 0.000003 -0.256924
vn -0.493078 0.000676 -0.869985
vn -0.507279 0.000009 -0.861782
vn -0.508555 0.000009 -0.861030
vn -0.491719 0.002186 -0.870751
vn -0.491732 0.002153 0.870744
vn -0.508562 -0.000009 0.861025
vn -0.507279 -0.000009 0.861782
vn -0.493078 0.000658 0.869985
vn -0.504646 0.150769 0.850060
vn -0.087370 0.996176 0.000010
vn -0.504649 0.150414 -0.850121
vn -0.492865 -0.071753 0.867142
vn -0.018359 -0.998001 0.060475
vn 0.892677 -0.209194 0.399206
vn 0.892696 -0.209147 -0.399188
vn -0.018312 -0.998011 -0.060324
vn -0.492871 -0.071720 -0.867142
vn -0.505951 -0.066985 -0.859957
vn -0.085223 -0.996362 -0.000010
vn -0.505940 -0.067267 0.859942
vn -0.492941 0.000009 -0.870063
vn -0.507254 0.000009 -0.861796
vn -0.507279 0.000009 -0.861782
vn -0.493078 0.000676 -0.869985
vn -0.507279 -0.000009 0.861782
vn -0.507279 0.000009 -0.861782
vn -0.507254 0.000009 -0.861796
vn -0.507254 -0.000009 0.861796
vn -0.493078 0.000658 0.869985
vn -0.507279 -0.000009 0.861782
vn -0.507254 -0.000009 0.861796
vn -0.492940 -0.000009 0.870063
vn -0.493151 -0.000620 -0.869944
vn -0.507286 0.000009 -0.861778
vn -0.507254 0.000009 -0.861796
vn -0.492941 0.000009 -0.870063
vn -0.507254 -0.000009 0.861796
vn -0.507254 0.000009 -0.861796
vn -0.507286 0.000009 -0.861778
vn -0.507286 -0.000009 0.861778
vn -0.492940 -0.000009 0.870063
vn -0.507254 -0.000009 0.861796
vn -0.507286 -0.000009 0.861778
vn -0.493149 -0.000638 0.869945
vn -0.492871 -0.071720 -0.867142
vn -0.505951 -0.066985 -0.859957
vn -0.507286 0.000009 -0.861778
vn -0.493151 -0.000620 -0.869944
vn -0.507286 -0.000009 0.861778
vn -0.507286 0.000009 -0.861778
vn -0.505951 -0.066985 -0.859957
vn -0.505940 -0.067267 0.859942
vn -0.493149 -0.000638 0.869945
vn -0.507286 -0.000009 0.861778
vn -0.505940 -0.067267 0.859942
vn -0.492865 -0.071753 0.867142
vn -0.486361 0.014914 0.873631
vn -0.508562 -0.000009 0.861025
vn -0.491732 0.002153 0.870744
vn -0.504646 0.150769 0.850060
vn -0.504649 0.150414 -0.850121
vn -0.508555 0.000009 -0.861030
vn -0.508562 -0.000009 0.861025
vn -0.486421 0.014877 -0.873598
vn -0.508555 0.000009 -0.861030
vn -0.504649 0.150414 -0.850121
vn -0.494339 0.123083 -0.860511
vn -0.491719 0.002186 -0.870751
vn -0.508555 0.000009 -0.861030
vn -0.486421 0.014877 -0.873598
vn -0.486361 0.014914 0.873631
vn -0.494353 0.123114 0.860499
vn -0.504646 0.150769 0.850060
vn -0.508562 -0.000009 0.861025
s off
g FoodMediumRLowerLeg
usemtl blinn6SG
f 3/1/1 2/2/2 5/3/3 6/4/4
f 2/5/5 1/6/6 4/7/7 5/8/8
f 6/4/9 5/3/10 8/9/11 9/10/12
f 5/8/13 4/7/14 7/11/15 8/12/16
f 11/13/17 10/14/18 4/7/19 1/6/20
f 10/14/21 12/15/22 7/11/23 4/7/24
f 14/16/25 13/17/26 10/14/27 11/13/28
f 13/17/29 15/18/30 12/15/31 10/14/32
f 17/19/33 16/20/34 13/17/35 14/16/36
f 16/20/37 18/21/38 15/18/39 13/17/40
f 19/22/41 20/23/42 22/24/43 21/25/44
f 20/26/45 19/27/46 24/28/47 23/29/48
f 21/25/49 22/24/50 32/30/51 31/31/52
f 23/29/53 24/28/54 54/32/55 53/33/56
f 25/34/57 26/35/58 30/36/59 29/37/60
f 26/38/61 25/39/62 28/40/63 27/41/64
f 27/41/65 28/40/66 33/42/67 32/30/68
f 29/37/69 30/36/70 56/43/71 55/44/72
f 67/45/73 68/46/74 61/47/75 62/48/76
f 34/49/77 36/50/78 50/51/79 49/52/80
f 35/53/81 34/54/82 48/55/83 47/56/84
f 36/57/85 35/53/86 37/58/87 38/59/88
f 38/59/89 37/58/90 39/60/91 40/61/92
f 40/61/93 39/60/94 41/62/95 42/63/96
f 42/63/97 41/62/98 44/64/99 43/65/100
f 43/66/101 45/67/102 51/68/103 52/69/104
f 45/70/105 44/64/106 47/56/107 46/71/108
f 49/52/109 50/51/110 57/72/111 58/73/112
f 52/69/113 51/68/114 59/74/115 60/75/116
f 53/33/117 54/32/118 58/73/119 57/72/120
f 55/44/121 56/43/122 60/75/123 59/74/124
f 22/24/125 3/1/126 32/30/127
f 3/1/128 6/4/129 32/30/130
f 6/4/131 9/10/132 32/30/133
f 9/10/134 27/41/135 32/30/136
f 22/24/137 20/23/138 2/2/139 3/1/140
f 20/26/141 23/29/142 1/6/143 2/5/144
f 9/10/145 8/9/146 26/38/147 27/41/148
f 8/12/149 7/11/150 30/36/151 26/35/152
f 37/58/153 35/53/154 47/56/155
f 39/60/156 37/58/157 47/56/158
f 41/62/159 39/60/160 47/56/161
f 44/64/162 41/62/163 47/56/164
f 36/50/165 38/76/166 17/19/167 50/51/168
f 38/76/169 40/77/170 16/20/171 17/19/172
f 40/77/173 42/78/174 18/21/175 16/20/176
f 42/78/177 43/66/178 52/69/179 18/21/180
f 53/33/181 11/13/182 1/6/183 23/29/184
f 12/15/185 56/43/186 30/36/187 7/11/188
f 57/72/189 14/16/190 11/13/191 53/33/192
f 15/18/193 60/75/194 56/43/195 12/15/196
f 50/51/197 17/19/198 14/16/199 57/72/200
f 18/21/201 52/69/202 60/75/203 15/18/204
f 55/79/205 61/47/206 68/46/207 29/80/208
f 24/81/209 67/45/210 62/48/211 54/82/212
f 31/31/213 32/30/214 33/42/215
f 34/54/216 35/53/217 36/57/218
f 43/65/219 44/64/220 45/70/221
f 46/71/222 47/56/223 48/55/224
f 59/83/225 63/84/226 61/47/227 55/79/228
f 62/48/229 61/47/230 63/84/231 64/85/232
f 54/82/233 62/48/234 64/85/235 58/86/236
f 51/87/237 65/88/238 63/84/239 59/83/240
f 64/85/241 63/84/242 65/88/243 66/89/244
f 58/86/245 64/85/246 66/89/247 49/90/248
f 45/91/249 46/92/250 65/88/251 51/87/252
f 66/89/253 65/88/254 46/92/255 48/93/256
f 49/90/257 66/89/258 48/93/259 34/94/260
f 19/95/261 67/45/262 24/81/263
f 31/96/264 33/97/265 68/46/266 67/45/267
f 25/98/268 68/46/269 33/97/270 28/99/271
f 29/80/272 68/46/273 25/98/274
f 19/95/275 21/100/276 31/96/277 67/45/278
