# This file uses centimeters as units for non-parametric coordinates.

mtllib AppleRUpperCanine.mtl
g default
v 0.025594 1.533602 -0.342473
v 0.008503 1.486229 -0.209453
v -0.003786 1.382394 -0.104005
v -0.013610 1.235237 -0.010696
v -0.022995 1.074295 0.081308
v -0.032780 0.889251 0.179658
v -0.038502 0.699329 0.248653
v -0.040236 0.507357 0.288456
v -0.037995 0.327014 0.297232
v -0.029855 0.170689 0.259019
v 0.023182 -0.026305 -0.105411
v 0.038773 -0.016621 -0.222039
v -0.015213 0.048328 0.167967
v 0.003763 -0.006521 0.035384
v 0.038721 1.524866 -0.438292
v 0.120597 1.470182 -0.215072
v 0.105295 1.517014 -0.344003
v -0.051786 1.533555 -0.361855
v -0.099925 1.481844 -0.238931
v 0.131452 1.366779 -0.113164
v -0.132885 1.369562 -0.144116
v 0.141098 1.228424 -0.016813
v -0.161627 1.225704 -0.054787
v 0.150368 1.072518 0.078966
v -0.189427 1.066891 0.034392
v 0.159799 0.889201 0.179878
v -0.218008 0.882099 0.129097
v 0.165209 0.699471 0.249663
v -0.234542 0.691872 0.195593
v 0.166821 0.507502 0.289481
v -0.239504 0.499778 0.234522
v 0.164731 0.327191 0.298163
v -0.233077 0.319613 0.244388
v 0.156405 0.175951 0.253079
v -0.208473 0.166751 0.206703
v 0.093200 -0.009821 -0.224776
v 0.107367 -0.013617 -0.111982
v -0.058621 -0.033415 -0.125300
v -0.013756 -0.022332 -0.234924
v 0.124211 0.008972 0.020751
v 0.141942 0.064475 0.153161
v -0.166826 0.050256 0.123122
v -0.112568 -0.008560 0.001967
v 0.093307 1.512949 -0.438902
v -0.014066 1.525584 -0.452071
v -0.013910 0.751626 -0.343498
v 0.038746 0.754123 -0.330165
v 0.093254 0.751563 -0.331839
vt 0.890726 0.013575
vt 0.887489 0.030951
vt 0.901649 0.031505
vt 0.900906 0.013950
vt 0.915666 0.029849
vt 0.910852 0.012273
vt 0.884689 0.049415
vt 0.901822 0.049831
vt 0.918824 0.048892
vt 0.882314 0.070800
vt 0.901878 0.071549
vt 0.921351 0.070538
vt 0.880102 0.093892
vt 0.901953 0.094785
vt 0.923773 0.093709
vt 0.877828 0.120302
vt 0.902044 0.121029
vt 0.926242 0.120167
vt 0.876469 0.145931
vt 0.902110 0.146240
vt 0.927727 0.145838
vt 0.876070 0.170865
vt 0.902134 0.170621
vt 0.928191 0.170848
vt 0.876676 0.193915
vt 0.902117 0.192957
vt 0.927538 0.194005
vt 0.878761 0.214147
vt 0.902093 0.212741
vt 0.925330 0.214447
vt 0.890006 0.268506
vt 0.892791 0.282609
vt 0.899682 0.281775
vt 0.900697 0.266990
vt 0.906452 0.282883
vt 0.911227 0.268639
vt 0.886329 0.251589
vt 0.901474 0.249148
vt 0.902113 0.231442
vt 0.882193 0.233350
vt 0.916635 0.251587
vt 0.921554 0.233418
vt 0.892670 0.001578
vt 0.899727 0.001909
vt 0.906540 0.000500
vt 0.786090 0.691533
vt 0.882853 0.691448
vt 0.883137 0.684583
vt 0.785188 0.684681
vt 0.883052 0.677740
vt 0.784695 0.677854
vt 0.981086 0.684485
vt 0.981409 0.677627
vt 0.979617 0.691362
vt 0.980812 0.665294
vt 0.783653 0.705639
vt 0.784157 0.722708
vt 0.972201 0.649666
vt 0.956538 0.638991
vt 0.937037 0.629666
vt 0.915675 0.620647
vt 0.890979 0.611377
vt 0.866102 0.606024
vt 0.841479 0.604432
vt 0.818855 0.606540
vt 0.800471 0.614553
vt 0.787428 0.628079
vt 0.782235 0.645598
vt 0.781381 0.663253
vt 0.788769 0.740320
vt 0.800924 0.754829
vt 0.818990 0.763149
vt 0.841615 0.765223
vt 0.866235 0.763590
vt 0.891099 0.758153
vt 0.915704 0.748692
vt 0.936805 0.739395
vt 0.970389 0.718732
vt 0.955727 0.729719
vt 0.978472 0.703357
vn 0.183830 0.957601 0.221826
vn 0.054988 0.973812 0.220607
vn -0.027602 0.819797 0.571988
vn 0.149904 0.806382 0.572081
vn -0.072530 0.973025 0.219003
vn -0.199929 0.804035 0.559962
vn -0.086008 0.619499 0.780271
vn 0.104477 0.612387 0.783624
vn -0.272093 0.598200 0.753739
vn -0.110034 0.529196 0.841335
vn 0.057433 0.527800 0.847425
vn -0.274024 0.515090 0.812153
vn -0.120981 0.490602 0.862944
vn 0.019407 0.490264 0.871358
vn -0.259017 0.481173 0.837486
vn -0.128578 0.407810 0.903968
vn 0.002007 0.407615 0.913152
vn -0.257202 0.401014 0.879224
vn -0.133849 0.272594 0.952773
vn -0.004021 0.272910 0.962031
vn -0.261709 0.267626 0.927300
vn -0.135307 0.128119 0.982485
vn -0.004918 0.129464 0.991572
vn -0.263682 0.124578 0.956531
vn -0.129959 -0.092058 0.987237
vn 0.004550 -0.090628 0.995874
vn -0.262032 -0.091299 0.960731
vn -0.099942 -0.429175 0.897675
vn 0.047147 -0.429435 0.901866
vn -0.244644 -0.415735 0.875964
vn 0.145890 -0.985975 0.081054
vn 0.091926 -0.991664 0.090291
vn 0.122745 -0.990655 -0.059460
vn 0.135220 -0.989159 -0.057268
vn 0.035967 -0.994983 0.093354
vn 0.109752 -0.992040 -0.061729
vn 0.147850 -0.945203 0.291087
vn 0.113076 -0.767850 0.630571
vn -0.035491 -0.769517 0.637640
vn 0.039321 -0.951938 0.303758
vn -0.182311 -0.755623 0.629123
vn -0.068281 -0.951605 0.299642
vn 0.206229 0.976389 -0.064301
vn 0.118239 0.990264 -0.073461
vn 0.026097 0.996264 -0.082328
vn -0.034657 -0.139002 -0.989685
vn 0.118239 -0.138011 -0.983348
vn 0.107597 -0.138185 -0.984545
vn -0.036849 -0.138991 -0.989608
vn 0.249529 -0.134503 -0.958981
vn 0.249215 -0.134514 -0.959061
vn 0.248896 -0.134525 -0.959142
vn 0.119041 -0.137996 -0.983253
vn -0.039158 -0.138979 -0.989521
vn -0.922042 -0.053939 -0.383313
vn -0.922425 -0.053659 -0.382431
vn -0.922952 -0.053655 -0.381156
vn 0.992090 -0.017489 -0.124304
vn 0.992086 -0.017666 -0.124311
vn 0.992153 -0.017281 -0.123831
vn -0.921896 -0.053645 -0.383707
vn -0.921879 -0.053676 -0.383742
vn -0.922034 -0.053837 -0.383347
vn -0.922040 -0.053849 -0.383331
vn -0.922040 -0.053853 -0.383330
vn -0.922041 -0.053861 -0.383328
vn -0.922037 -0.053876 -0.383333
vn -0.922032 -0.053895 -0.383343
vn -0.921926 -0.054140 -0.383564
vn -0.921440 -0.054984 -0.384610
vn -0.921937 -0.054618 -0.383470
vn -0.922772 -0.053512 -0.381612
vn -0.922221 -0.053897 -0.382888
vn 0.991976 -0.017673 -0.125183
vn 0.992095 -0.017440 -0.124274
vn 0.992034 -0.017738 -0.124716
vn 0.992086 -0.017479 -0.124336
vn 0.992082 -0.017522 -0.124362
vn 0.992088 -0.017421 -0.124328
vn 0.992088 -0.017451 -0.124323
vn 0.992088 -0.017406 -0.124329
vn 0.992088 -0.017401 -0.124331
vn 0.992130 -0.017608 -0.123967
vn 0.992146 -0.017581 -0.123843
vn 0.992083 -0.017583 -0.124345
vn 0.992055 -0.017586 -0.124566
s 1
g FoodRUpperCaninesOverbite
usemtl Walk_blinn1SG
f 17/1/1 1/4/2 2/3/3 16/2/4
f 1/4/2 18/6/5 19/5/6 2/3/3
f 16/2/4 2/3/3 3/8/7 20/7/8
f 2/3/3 19/5/6 21/9/9 3/8/7
f 20/7/8 3/8/7 4/11/10 22/10/11
f 3/8/7 21/9/9 23/12/12 4/11/10
f 22/10/11 4/11/10 5/14/13 24/13/14
f 4/11/10 23/12/12 25/15/15 5/14/13
f 24/13/14 5/14/13 6/17/16 26/16/17
f 5/14/13 25/15/15 27/18/18 6/17/16
f 26/16/17 6/17/16 7/20/19 28/19/20
f 6/17/16 27/18/18 29/21/21 7/20/19
f 28/19/20 7/20/19 8/23/22 30/22/23
f 7/20/19 29/21/21 31/24/24 8/23/22
f 30/22/23 8/23/22 9/26/25 32/25/26
f 8/23/22 31/24/24 33/27/27 9/26/25
f 32/25/26 9/26/25 10/29/28 34/28/29
f 9/26/25 33/27/27 35/30/30 10/29/28
f 37/31/31 11/34/32 12/33/33 36/32/34
f 11/34/32 38/36/35 39/35/36 12/33/33
f 40/37/37 41/40/38 13/39/39 14/38/40
f 14/38/40 13/39/39 42/42/41 43/41/42
f 34/28/29 10/29/28 13/39/39 41/40/38
f 10/29/28 35/30/30 42/42/41 13/39/39
f 40/37/37 14/38/40 11/34/32 37/31/31
f 14/38/40 43/41/42 38/36/35 11/34/32
f 44/43/43 15/44/44 1/4/2 17/1/1
f 15/44/44 45/45/45 18/6/5 1/4/2
s 3
f 36/46/46 12/49/47 47/48/48 48/47/49
f 12/49/47 39/51/50 46/50/51 47/48/48
f 47/48/48 46/50/51 45/53/52 15/52/53
f 48/47/49 47/48/48 15/52/53 44/54/54
s 4
f 46/50/55 18/55/56 45/53/57
s 5
f 48/47/58 40/57/59 37/56/60
s 4
f 19/58/61 46/50/55 21/59/62
f 19/58/61 18/55/56 46/50/55
f 23/60/63 46/50/55 25/61/64
f 21/59/62 46/50/55 23/60/63
f 27/62/65 46/50/55 29/63/66
f 25/61/64 46/50/55 27/62/65
f 31/64/67 46/50/55 33/65/68
f 29/63/66 46/50/55 31/64/67
f 35/66/69 46/50/55 42/67/70
f 33/65/68 46/50/55 35/66/69
f 43/68/71 46/50/55 38/69/72
f 42/67/70 46/50/55 43/68/71
f 38/69/72 46/50/55 39/51/73
s 5
f 48/47/58 37/56/60 36/46/74
f 48/47/58 34/71/75 41/70/76
f 48/47/58 41/70/76 40/57/59
f 48/47/58 30/73/77 32/72/78
f 48/47/58 32/72/78 34/71/75
f 48/47/58 26/75/79 28/74/80
f 48/47/58 28/74/80 30/73/77
f 48/47/58 22/77/81 24/76/82
f 48/47/58 24/76/82 26/75/79
f 16/78/83 20/79/84 48/47/58
f 48/47/58 20/79/84 22/77/81
f 16/78/83 48/47/58 17/80/85
f 17/80/85 48/47/58 44/54/86
