# This file uses centimeters as units for non-parametric coordinates.

mtllib AppleRHorn.mtl
g default
v 0.464152 0.379140 -0.013370
v 0.282253 0.593913 -0.013370
v 0.015553 0.717266 -0.013370
v -0.322607 0.787306 -0.013370
v -0.685325 0.845151 -0.013370
v -1.097087 0.897792 -0.013370
v -1.497051 0.892184 -0.013370
v -1.880097 0.830638 -0.013370
v -2.219648 0.719407 -0.013370
v -2.481482 0.537458 -0.013370
v -2.587140 -0.282184 -0.013370
v -2.439558 -0.591467 -0.013370
v -2.273986 -0.791153 -0.013370
v 0.484689 -0.163546 -0.013370
v -2.643072 0.280913 -0.013370
v -2.650422 -0.005380 -0.013370
v 0.515958 0.194102 -0.013370
v 0.525629 0.015788 -0.013370
v 0.263204 0.543085 0.204310
v 0.439300 0.343876 0.141866
v 0.473031 0.363813 -0.170222
v 0.288343 0.565153 -0.233928
v 0.001169 0.654218 0.248763
v 0.012242 0.668496 -0.277590
v -0.321686 0.730928 0.288069
v -0.318159 0.738501 -0.315612
v -0.676622 0.794357 0.325831
v -0.676056 0.797481 -0.352389
v -1.085843 0.847888 0.364248
v -1.085916 0.848529 -0.390196
v -1.485339 0.840954 0.386291
v -1.485339 0.840954 -0.412066
v -1.868193 0.778565 0.392855
v -1.868193 0.778565 -0.418630
v -2.207879 0.668311 0.384339
v -2.207930 0.668360 -0.410130
v -2.456472 0.481654 0.350425
v -2.462747 0.485513 -0.377584
v -2.428791 -0.601391 0.065869
v -2.554042 -0.307279 0.150410
v -2.591227 -0.302250 -0.179290
v -2.444802 -0.601847 -0.092482
v 0.483571 -0.166380 0.005599
v 0.486396 -0.165599 -0.031411
v -2.272472 -0.793458 0.006364
v -2.274118 -0.793748 -0.032163
v -2.604325 -0.052729 0.219473
v -2.593450 0.224122 0.291416
v -2.617112 0.239724 -0.322436
v -2.637705 -0.037636 -0.250382
v 0.497598 0.170360 0.093045
v 0.514113 -0.000084 0.047402
v 0.530040 0.010414 -0.074928
v 0.523797 0.183151 -0.120488
v -1.623029 -0.645876 -0.031913
v -1.623506 -0.643460 -0.013370
v -1.622861 -0.645940 0.006109
v -0.335623 -0.352546 -0.031661
v -0.336774 -0.350325 -0.013370
v -0.337094 -0.353001 0.005854
v -0.863401 0.035851 -0.164686
v -0.640477 -0.049939 -0.128973
v -0.436953 -0.207068 -0.075783
v -1.600866 -0.471612 -0.076245
v -1.487854 -0.241242 -0.129366
v -1.319083 -0.068594 -0.164663
v -1.103174 0.029191 -0.177321
v -0.862682 0.034689 0.138461
v -1.103254 0.026423 0.150610
v -1.318804 -0.069027 0.138577
v -1.487030 -0.241324 0.103628
v -1.600960 -0.470976 0.050397
v -0.439771 -0.207477 0.049870
v -0.641241 -0.051298 0.102875
vt 0.801571 0.292334
vt 0.804861 0.274960
vt 0.790699 0.274361
vt 0.791386 0.291908
vt 0.776678 0.275982
vt 0.781444 0.293573
vt 0.807709 0.256498
vt 0.790577 0.256035
vt 0.773572 0.256931
vt 0.810140 0.235119
vt 0.790578 0.234320
vt 0.771102 0.235279
vt 0.812412 0.212031
vt 0.790564 0.211082
vt 0.768741 0.212101
vt 0.814755 0.185628
vt 0.790540 0.184838
vt 0.766341 0.185637
vt 0.816179 0.160003
vt 0.790540 0.159627
vt 0.764922 0.159963
vt 0.816643 0.135071
vt 0.790580 0.135246
vt 0.764523 0.134952
vt 0.816096 0.112020
vt 0.790654 0.112911
vt 0.765236 0.111797
vt 0.814064 0.091782
vt 0.790729 0.093128
vt 0.767497 0.091362
vt 0.802951 0.037388
vt 0.798914 0.016685
vt 0.793802 0.017170
vt 0.792263 0.038883
vt 0.788769 0.016392
vt 0.781742 0.037205
vt 0.796567 0.000671
vt 0.795301 0.000732
vt 0.794117 0.000500
vt 0.806591 0.054319
vt 0.791442 0.056721
vt 0.790758 0.074427
vt 0.810681 0.072569
vt 0.776289 0.054245
vt 0.771321 0.072401
vt 0.799529 0.304375
vt 0.792522 0.303905
vt 0.793928 0.315121
vt 0.797968 0.315601
vt 0.785766 0.305386
vt 0.790083 0.315983
vt 0.795794 0.326656
vt 0.797016 0.326656
vt 0.794668 0.326942
vt 0.863741 0.974313
vt 0.863782 0.932997
vt 0.862708 0.932566
vt 0.862365 0.974324
vt 0.861697 0.932949
vt 0.861065 0.974309
vt 0.863436 0.836496
vt 0.864164 0.788701
vt 0.862971 0.788652
vt 0.862630 0.836312
vt 0.864233 0.836212
vt 0.865416 0.788782
vt 0.814369 0.791266
vt 0.835120 0.870644
vt 0.843952 0.857454
vt 0.829337 0.782604
vt 0.841212 0.781881
vt 0.857455 0.846194
vt 0.851979 0.783827
vt 0.852276 0.927170
vt 0.844984 0.981661
vt 0.840921 0.915232
vt 0.822796 0.984751
vt 0.805108 0.982315
vt 0.834248 0.900989
vt 0.787966 0.975570
vt 0.775632 0.961374
vt 0.769192 0.942376
vt 0.768840 0.919725
vt 0.831578 0.885856
vt 0.771976 0.895535
vt 0.778158 0.871282
vt 0.787659 0.847312
vt 0.796042 0.826287
vt 0.804510 0.806915
vt 0.912286 0.795214
vt 0.891043 0.872183
vt 0.922246 0.810076
vt 0.930770 0.829019
vt 0.939166 0.849849
vt 0.894985 0.887453
vt 0.948447 0.873856
vt 0.954609 0.898127
vt 0.892890 0.902457
vt 0.957289 0.922430
vt 0.956408 0.945035
vt 0.949111 0.963497
vt 0.935313 0.976437
vt 0.885510 0.916267
vt 0.917971 0.982058
vt 0.900774 0.983601
vt 0.873532 0.927663
vt 0.879532 0.981263
vt 0.868060 0.847854
vt 0.876142 0.785392
vt 0.881881 0.859186
vt 0.886635 0.784932
vt 0.898058 0.786574
vt 0.026679 0.707894
vt 0.026745 0.715948
vt 0.043062 0.719269
vt 0.042985 0.704450
vt 0.058384 0.721446
vt 0.058333 0.702160
vt 0.073378 0.722176
vt 0.073406 0.701319
vt 0.088688 0.721415
vt 0.088660 0.702135
vt 0.103801 0.719184
vt 0.103847 0.704439
vt 0.120027 0.715880
vt 0.120186 0.707888
vt 0.015668 0.711927
vt 0.015521 0.713168
vt 0.015515 0.710747
vt 0.131265 0.711964
vt 0.131433 0.710803
vt 0.131381 0.713194
vn 0.821955 0.521084 0.229915
vn 0.833656 0.542709 0.102395
vn 0.562715 0.824112 0.064747
vn 0.555499 0.796016 0.240374
vn 0.829643 0.557770 -0.024187
vn 0.547051 0.830116 -0.107897
vn 0.299947 0.953452 0.031014
vn 0.297859 0.928899 0.220062
vn 0.283829 0.945882 -0.157314
vn 0.193185 0.981067 0.013692
vn 0.194773 0.964114 0.180411
vn 0.185396 0.970685 -0.152967
vn 0.149131 0.988805 0.005018
vn 0.150067 0.977950 0.145234
vn 0.145176 0.980106 -0.135337
vn 0.056985 0.998374 0.001429
vn 0.057486 0.989576 0.132040
vn 0.055522 0.990030 -0.129455
vn -0.086844 0.996222 0.000202
vn -0.085914 0.987774 0.130084
vn -0.086316 0.987751 -0.129991
vn -0.232445 0.972610 0.000018
vn -0.230477 0.964294 0.130450
vn -0.230430 0.964269 -0.130721
vn -0.439755 0.898116 0.001805
vn -0.437425 0.888872 0.136260
vn -0.433639 0.891279 -0.132590
vn -0.722200 0.691558 0.013195
vn -0.719492 0.675940 0.159486
vn -0.706313 0.695326 -0.132830
vn -0.942512 -0.307135 0.131680
vn -0.952028 -0.293843 0.085440
vn -0.878380 -0.469269 0.090749
vn -0.877805 -0.471639 0.083756
vn -0.957613 -0.285770 0.036242
vn -0.878981 -0.467277 0.095106
vn -0.767885 -0.636628 0.071120
vn -0.771249 -0.636305 0.017075
vn -0.762135 -0.635035 0.126021
vn -0.982104 -0.085748 0.167690
vn -0.937674 0.296001 0.182073
vn -0.946216 0.321548 0.035793
vn -0.996159 -0.062100 0.061735
vn -0.934642 0.337969 -0.110552
vn -0.997635 -0.051594 -0.045419
vn 0.960562 0.187087 0.205715
vn 0.986229 -0.036473 0.161313
vn 0.992176 -0.023660 0.122585
vn 0.972049 0.197755 0.126547
vn 0.996851 -0.023736 0.075658
vn 0.978174 0.202886 0.044861
vn 0.971417 -0.213467 0.103828
vn 0.971210 -0.216430 0.099546
vn 0.970969 -0.219479 0.095128
vn 0.219526 -0.966893 -0.130102
vn 0.221415 -0.975179 0.001322
vn 0.221414 -0.975176 -0.002617
vn 0.219526 -0.966893 -0.130102
vn 0.219490 -0.966670 0.131807
vn 0.219490 -0.966670 0.131807
vn 0.221708 -0.975090 -0.006740
vn 0.219808 -0.966705 0.131018
vn 0.219808 -0.966705 0.131018
vn 0.221712 -0.975107 0.003260
vn 0.219791 -0.966679 -0.131237
vn 0.219791 -0.966679 -0.131237
vn 0.057940 -0.252352 -0.965899
vn 0.057626 -0.251487 -0.966144
vn 0.057823 -0.252260 -0.965930
vn 0.057807 -0.252253 -0.965933
vn 0.057426 -0.251593 -0.966128
vn 0.057665 -0.252637 -0.965841
vn 0.057659 -0.252621 -0.965846
vn 0.057769 -0.252903 -0.965765
vn 0.057769 -0.252903 -0.965765
vn 0.057555 -0.251773 -0.966073
vn 0.057651 -0.252657 -0.965837
vn 0.057651 -0.252657 -0.965837
vn 0.057552 -0.251749 -0.966080
vn 0.057529 -0.250624 -0.966374
vn 0.057034 -0.253244 -0.965720
vn 0.056987 -0.253019 -0.965782
vn 0.056999 -0.253683 -0.965607
vn 0.057340 -0.252914 -0.965788
vn 0.057466 -0.252539 -0.965879
vn 0.057632 -0.252232 -0.965949
vn 0.057642 -0.252212 -0.965954
vn 0.057647 -0.252203 -0.965956
vn 0.057697 -0.252213 -0.965950
vn 0.057730 -0.252208 -0.965950
vn 0.057739 -0.252231 -0.965943
vn 0.057702 -0.252255 -0.965939
vn 0.057992 -0.252631 -0.965823
vn 0.057306 -0.252031 0.966021
vn 0.057298 -0.251892 0.966058
vn 0.057518 -0.252290 0.965941
vn 0.057649 -0.252351 0.965917
vn 0.057615 -0.252377 0.965912
vn 0.057622 -0.252401 0.965906
vn 0.057667 -0.252382 0.965908
vn 0.057723 -0.252385 0.965904
vn 0.057719 -0.252373 0.965907
vn 0.057686 -0.252502 0.965875
vn 0.057707 -0.252365 0.965910
vn 0.057793 -0.252206 0.965946
vn 0.057678 -0.252535 0.965867
vn 0.057645 -0.252297 0.965931
vn 0.057685 -0.252729 0.965816
vn 0.057901 -0.251904 0.966018
vn 0.057869 -0.252601 0.965838
vn 0.057868 -0.252597 0.965840
vn 0.057696 -0.252042 0.965995
vn 0.057696 -0.252042 0.965995
vn 0.057580 -0.253026 0.965745
vn 0.057549 -0.252514 0.965880
vn 0.057549 -0.252514 0.965880
vn 0.057577 -0.252980 0.965757
vn 0.057551 -0.252961 0.965763
vn 0.057400 -0.252360 0.965929
vn 0.057390 -0.252233 0.965963
vn 0.922698 -0.385522 -0.000929
vn 0.790219 -0.612821 -0.001799
vn 0.790028 -0.613068 -0.001800
vn 0.922471 -0.386065 -0.000931
vn 0.550696 -0.834698 -0.003690
vn 0.550882 -0.834575 -0.003689
vn 0.222267 -0.974970 -0.005619
vn 0.222807 -0.974846 -0.005617
vn -0.137309 -0.990512 -0.005589
vn -0.138190 -0.990390 -0.005585
vn -0.456305 -0.889799 -0.006530
vn -0.456269 -0.889818 -0.006530
vn -0.656321 -0.754371 -0.012931
vn -0.655188 -0.755356 -0.012856
vn 0.991991 -0.126310 0.000004
vn 0.991991 -0.126310 0.000004
vn 0.991991 -0.126310 0.000004
vn -0.817797 -0.574986 -0.024482
vn -0.817797 -0.574986 -0.024482
vn -0.817797 -0.574986 -0.024482
s 1
g FoodRHorn
usemtl Walk_blinn1SG
f 20/1/1 1/4/2 2/3/3 19/2/4
f 1/4/2 21/6/5 22/5/6 2/3/3
f 19/2/4 2/3/3 3/8/7 23/7/8
f 2/3/3 22/5/6 24/9/9 3/8/7
f 23/7/8 3/8/7 4/11/10 25/10/11
f 3/8/7 24/9/9 26/12/12 4/11/10
f 25/10/11 4/11/10 5/14/13 27/13/14
f 4/11/10 26/12/12 28/15/15 5/14/13
f 27/13/14 5/14/13 6/17/16 29/16/17
f 5/14/13 28/15/15 30/18/18 6/17/16
f 29/16/17 6/17/16 7/20/19 31/19/20
f 6/17/16 30/18/18 32/21/21 7/20/19
f 31/19/20 7/20/19 8/23/22 33/22/23
f 7/20/19 32/21/21 34/24/24 8/23/22
f 33/22/23 8/23/22 9/26/25 35/25/26
f 8/23/22 34/24/24 36/27/27 9/26/25
f 35/25/26 9/26/25 10/29/28 37/28/29
f 9/26/25 36/27/27 38/30/30 10/29/28
f 40/31/31 11/34/32 12/33/33 39/32/34
f 11/34/32 41/36/35 42/35/36 12/33/33
f 39/32/34 12/33/33 13/38/37 45/37/38
f 12/33/33 42/35/36 46/39/39 13/38/37
f 47/40/40 48/43/41 15/42/42 16/41/43
f 16/41/43 15/42/42 49/45/44 50/44/45
f 37/28/29 10/29/28 15/42/42 48/43/41
f 10/29/28 38/30/30 49/45/44 15/42/42
f 47/40/40 16/41/43 11/34/32 40/31/31
f 16/41/43 50/44/45 41/36/35 11/34/32
f 51/46/46 52/49/47 18/48/48 17/47/49
f 17/47/49 18/48/48 53/51/50 54/50/51
f 51/46/46 17/47/49 1/4/2 20/1/1
f 17/47/49 54/50/51 21/6/5 1/4/2
f 18/48/48 52/49/47 43/53/52 14/52/53
f 53/51/50 18/48/48 14/52/53 44/54/54
s 4
f 45/55/55 13/58/56 56/57/57 57/56/58
f 13/58/56 46/60/59 55/59/60 56/57/57
s 5
f 59/61/61 58/64/62 44/63/63 14/62/64
f 60/65/65 59/61/61 14/62/64 43/66/66
s 6
f 22/67/67 21/70/68 62/69/69 61/68/70
f 21/70/68 54/71/71 62/69/69
f 54/71/71 53/73/72 63/72/73 62/69/69
f 63/72/73 53/73/72 44/63/74 58/64/75
f 64/74/76 55/59/77 46/60/78 42/75/79
f 42/75/79 41/77/80 65/76/81 64/74/76
f 41/77/80 50/78/82 65/76/81
f 50/78/82 49/80/83 66/79/84 65/76/81
f 49/80/83 38/81/85 66/79/84
f 38/81/85 36/82/86 66/79/84
f 36/82/86 34/83/87 66/79/84
f 34/83/87 32/85/88 67/84/89 66/79/84
f 32/85/88 30/86/90 67/84/89
f 30/86/90 28/87/91 61/68/70 67/84/89
f 28/87/91 26/88/92 61/68/70
f 26/88/92 24/89/93 61/68/70
f 24/89/93 22/67/67 61/68/70
s 8
f 19/90/94 23/92/95 68/91/96
f 23/92/95 25/93/97 68/91/96
f 25/93/97 27/94/98 68/91/96
f 27/94/98 29/96/99 69/95/100 68/91/96
f 29/96/99 31/97/101 69/95/100
f 31/97/101 33/99/102 70/98/103 69/95/100
f 33/99/102 35/100/104 70/98/103
f 35/100/104 37/101/105 70/98/103
f 37/101/105 48/102/106 70/98/103
f 48/102/106 47/104/107 71/103/108 70/98/103
f 47/104/107 40/105/109 71/103/108
f 40/105/109 39/107/110 72/106/111 71/103/108
f 72/106/111 39/107/110 45/55/112 57/56/113
f 73/108/114 60/65/115 43/66/116 52/109/117
f 52/109/117 51/111/118 74/110/119 73/108/114
f 51/111/118 20/112/120 74/110/119
f 20/112/120 19/90/94 68/91/96 74/110/119
s 10
f 64/113/121 65/116/122 71/115/123 72/114/124
f 65/116/122 66/118/125 70/117/126 71/115/123
f 66/118/125 67/120/127 69/119/128 70/117/126
f 67/120/127 61/122/129 68/121/130 69/119/128
f 61/122/129 62/124/131 74/123/132 68/121/130
f 62/124/131 63/126/133 73/125/134 74/123/132
f 56/127/135 55/129/136 64/113/121 72/114/124 57/128/137
f 59/130/138 60/132/139 73/125/134 63/126/133 58/131/140
