# This file uses centimeters as units for non-parametric coordinates.

mtllib AppleMediumLLowerArm.mtl
g default
v 1.386838 0.005195 1.067492
v 1.201212 0.005195 1.126397
v 0.999540 0.005195 1.100526
v 0.775616 0.005195 1.017115
v 0.541790 0.005195 0.917523
v 0.281141 0.005195 0.796829
v 0.048843 0.005195 0.646349
v -0.152957 0.005195 0.469315
v -0.310983 0.005195 0.279176
v -0.397446 0.005195 0.076199
v -0.157710 0.005195 -0.442962
v -0.021160 0.005195 -0.529481
v -0.397716 0.005195 -0.133592
v -0.296661 0.005195 -0.304053
v 1.485292 0.005195 0.978134
v 1.208756 -0.145428 1.089604
v 1.385254 -0.102220 1.037685
v 1.397682 0.113727 1.061779
v 1.215363 0.157810 1.111787
v 1.014314 -0.176187 1.058288
v 1.015548 0.188021 1.070730
v 0.796904 -0.203384 0.984419
v 0.796184 0.214330 0.990155
v 0.565583 -0.229514 0.890962
v 0.564765 0.239777 0.893002
v 0.306095 -0.256097 0.771726
v 0.305816 0.265938 0.772074
v 0.074560 -0.271349 0.620639
v 0.074560 0.281071 0.620639
v -0.126817 -0.275891 0.443182
v -0.126817 0.285613 0.443182
v -0.285282 -0.269998 0.253567
v -0.285331 0.279731 0.253577
v -0.362255 -0.246532 0.052704
v -0.367351 0.257211 0.052658
v -0.005450 -0.068314 -0.531413
v -0.129080 -0.108132 -0.445484
v -0.152721 0.120003 -0.456222
v -0.018779 0.078966 -0.539341
v -0.252223 -0.155920 -0.314834
v -0.347739 -0.205701 -0.148609
v -0.367347 0.219052 -0.148175
v -0.277339 0.169194 -0.318276
v 1.483272 -0.068438 0.957465
v 1.493916 0.079314 0.974601
v 0.737569 0.079141 0.217630
v 0.732066 0.005195 0.224326
v 0.738911 -0.068376 0.213026
v -1.046323 0.005306 -0.063642
v -0.926849 0.005306 -0.294189
v -0.712319 0.005306 -0.459935
v -0.422561 0.005306 -0.592412
v -0.108212 0.005306 -0.718968
v 0.251321 0.005306 -0.850921
v 0.612208 0.005306 -0.928059
v 0.969377 0.005306 -0.951407
v 1.297632 0.005306 -0.921132
v 1.570515 0.005306 -0.811282
v 1.833960 0.005306 -0.095787
v 1.786792 0.005306 0.114524
v 1.768564 0.005306 -0.613743
v 1.834001 0.005306 -0.357755
v -1.054899 0.005306 0.113429
v -0.899273 -0.195524 -0.252387
v -1.016727 -0.137913 -0.037033
v -1.051161 0.150017 -0.048032
v -0.926417 0.208792 -0.267071
v -0.686427 -0.236536 -0.406184
v -0.699321 0.249073 -0.416750
v -0.411806 -0.272799 -0.541516
v -0.416535 0.284153 -0.547604
v -0.105603 -0.307639 -0.671495
v -0.106754 0.318083 -0.674190
v 0.251460 -0.343083 -0.803726
v 0.251397 0.352963 -0.804318
v 0.612201 -0.363419 -0.879574
v 0.612201 0.373141 -0.879574
v 0.969368 -0.369475 -0.902124
v 0.969368 0.379197 -0.902124
v 1.297544 -0.361618 -0.872757
v 1.297579 0.371354 -0.872811
v 1.559486 -0.330330 -0.755952
v 1.564337 0.341328 -0.760711
v 1.773801 -0.092706 0.131158
v 1.809346 -0.145796 -0.066417
v 1.841759 0.158384 -0.078581
v 1.793841 0.103668 0.126065
v 1.802269 -0.209514 -0.305695
v 1.735602 -0.275888 -0.552466
v 1.753681 0.290449 -0.571362
v 1.829192 0.223971 -0.326130
v -1.033508 -0.092871 0.131010
v -1.059699 0.104132 0.124891
v 0.367071 0.103900 0.125477
v 0.365946 0.005306 0.113978
v 0.370146 -0.092789 0.131084
vt 0.890726 0.013575
vt 0.887489 0.030951
vt 0.901649 0.031505
vt 0.900906 0.013950
vt 0.915666 0.029849
vt 0.910852 0.012273
vt 0.884689 0.049415
vt 0.901822 0.049831
vt 0.918824 0.048892
vt 0.882314 0.070800
vt 0.901878 0.071549
vt 0.921351 0.070538
vt 0.880102 0.093892
vt 0.901953 0.094785
vt 0.923773 0.093709
vt 0.877828 0.120302
vt 0.902044 0.121029
vt 0.926242 0.120167
vt 0.876469 0.145931
vt 0.902110 0.146240
vt 0.927727 0.145838
vt 0.876070 0.170865
vt 0.902134 0.170621
vt 0.928191 0.170848
vt 0.876676 0.193915
vt 0.902117 0.192957
vt 0.927538 0.194005
vt 0.878761 0.214147
vt 0.902093 0.212741
vt 0.925330 0.214447
vt 0.890006 0.268506
vt 0.892791 0.282609
vt 0.899682 0.281775
vt 0.900697 0.266990
vt 0.906452 0.282883
vt 0.911227 0.268639
vt 0.886329 0.251589
vt 0.901474 0.249148
vt 0.902113 0.231442
vt 0.882193 0.233350
vt 0.916635 0.251587
vt 0.921554 0.233418
vt 0.892670 0.001578
vt 0.899727 0.001909
vt 0.906540 0.000500
vt 0.786090 0.691533
vt 0.882853 0.691448
vt 0.883137 0.684583
vt 0.785188 0.684681
vt 0.883052 0.677740
vt 0.784695 0.677854
vt 0.981086 0.684485
vt 0.981409 0.677627
vt 0.979617 0.691362
vt 0.980812 0.665294
vt 0.783653 0.705639
vt 0.784157 0.722708
vt 0.972201 0.649666
vt 0.956538 0.638991
vt 0.937037 0.629666
vt 0.915675 0.620647
vt 0.890979 0.611377
vt 0.866102 0.606024
vt 0.841479 0.604432
vt 0.818855 0.606540
vt 0.800471 0.614553
vt 0.787428 0.628079
vt 0.782235 0.645598
vt 0.781381 0.663253
vt 0.788769 0.740320
vt 0.800924 0.754829
vt 0.818990 0.763149
vt 0.841615 0.765223
vt 0.866235 0.763590
vt 0.891099 0.758153
vt 0.915704 0.748692
vt 0.936805 0.739395
vt 0.970389 0.718732
vt 0.955727 0.729719
vt 0.978472 0.703357
vt 0.486989 0.017934
vt 0.482673 0.041101
vt 0.501554 0.041840
vt 0.500563 0.018434
vt 0.520243 0.039632
vt 0.513824 0.016198
vt 0.478940 0.065720
vt 0.501784 0.066275
vt 0.524454 0.065023
vt 0.475774 0.094234
vt 0.501858 0.095232
vt 0.527823 0.093884
vt 0.472824 0.125023
vt 0.501958 0.126214
vt 0.531052 0.124779
vt 0.469792 0.160236
vt 0.502080 0.161206
vt 0.534344 0.160056
vt 0.467980 0.194408
vt 0.502168 0.194820
vt 0.536324 0.194284
vt 0.467448 0.227653
vt 0.502199 0.227329
vt 0.536943 0.227632
vt 0.468256 0.258387
vt 0.502177 0.257110
vt 0.536071 0.258507
vt 0.471036 0.285364
vt 0.502145 0.283488
vt 0.533128 0.285764
vt 0.486029 0.357842
vt 0.489742 0.376645
vt 0.498930 0.375534
vt 0.500284 0.355820
vt 0.507957 0.377012
vt 0.514324 0.358019
vt 0.481127 0.335286
vt 0.501320 0.332032
vt 0.502171 0.308423
vt 0.475612 0.310968
vt 0.521534 0.335284
vt 0.528094 0.311058
vt 0.489581 0.001937
vt 0.498991 0.002379
vt 0.508074 0.000500
vt 0.670572 0.588354
vt 0.670458 0.459336
vt 0.661305 0.458959
vt 0.661436 0.589557
vt 0.652182 0.459071
vt 0.652333 0.590214
vt 0.661175 0.328360
vt 0.652030 0.327929
vt 0.670345 0.330318
vt 0.635586 0.328725
vt 0.689380 0.591604
vt 0.712139 0.590932
vt 0.614749 0.340206
vt 0.600517 0.361090
vt 0.588083 0.387091
vt 0.576058 0.415574
vt 0.563698 0.448502
vt 0.556560 0.481671
vt 0.554437 0.514502
vt 0.557248 0.544668
vt 0.567933 0.569180
vt 0.585967 0.586570
vt 0.609326 0.593494
vt 0.632865 0.594633
vt 0.735622 0.584782
vt 0.754968 0.568575
vt 0.766060 0.544488
vt 0.768825 0.514321
vt 0.766648 0.481494
vt 0.759398 0.448343
vt 0.746784 0.415535
vt 0.734389 0.387402
vt 0.706838 0.342622
vt 0.721487 0.362172
vt 0.686337 0.331845
vn 0.418906 -0.229902 0.878444
vn 0.417312 -0.102387 0.902977
vn 0.038205 -0.064743 0.997170
vn 0.047036 -0.240372 0.969541
vn 0.405902 0.024189 0.913597
vn 0.021748 0.107903 0.993924
vn -0.253106 -0.031014 0.966941
vn -0.241816 -0.220064 0.945038
vn -0.262729 0.157316 0.951959
vn -0.358202 -0.013693 0.933544
vn -0.347840 -0.180410 0.920032
vn -0.359277 0.152964 0.920610
vn -0.399624 -0.005019 0.916665
vn -0.393058 -0.145232 0.907972
vn -0.398347 0.135333 0.907196
vn -0.482745 -0.001429 0.875760
vn -0.477641 -0.132038 0.868576
vn -0.479547 0.129454 0.867915
vn -0.603399 -0.000202 0.797439
vn -0.598118 -0.130083 0.790780
vn -0.598448 0.129991 0.790546
vn -0.714140 -0.000018 0.700003
vn -0.708050 -0.130451 0.694008
vn -0.707998 0.130722 0.694011
vn -0.850075 -0.001805 0.526659
vn -0.843185 -0.136261 0.520070
vn -0.841260 0.132590 0.524121
vn -0.979396 -0.013195 0.201516
vn -0.968797 -0.159484 0.189732
vn -0.967946 0.132830 0.213158
vn -0.644417 -0.136840 -0.752331
vn -0.660327 -0.084503 -0.746209
vn -0.538115 -0.094994 -0.837501
vn -0.537751 -0.107682 -0.836199
vn -0.670109 -0.029407 -0.741680
vn -0.538400 -0.081786 -0.838711
vn -0.786067 -0.167692 -0.594961
vn -0.951481 -0.182074 -0.248061
vn -0.972303 -0.035794 -0.230966
vn -0.810548 -0.061737 -0.582410
vn -0.971235 0.110551 -0.210904
vn -0.817385 0.045418 -0.574299
vn 0.659075 -0.214121 0.720952
vn 0.666267 -0.125960 0.734998
vn 0.668081 -0.033576 0.743330
vn 0.697022 0.169571 -0.696711
vn 0.707230 0.017226 -0.706774
vn 0.707054 0.027933 -0.706607
vn 0.696755 0.171739 -0.696447
vn 0.702605 -0.116177 -0.702032
vn 0.702632 -0.115861 -0.702057
vn 0.702660 -0.115542 -0.702082
vn 0.707241 0.016416 -0.706782
vn 0.696470 0.174021 -0.696165
vn 0.182940 0.965945 -0.182985
vn 0.182374 0.966200 -0.182202
vn 0.181319 0.966551 -0.181391
vn 0.182894 -0.965975 -0.182870
vn 0.182790 -0.965969 -0.183009
vn 0.182650 -0.966105 -0.182427
vn 0.183441 0.965847 -0.182999
vn 0.183452 0.965836 -0.183047
vn 0.183029 0.965940 -0.182924
vn 0.183010 0.965943 -0.182923
vn 0.183004 0.965944 -0.182927
vn 0.182998 0.965943 -0.182936
vn 0.182993 0.965942 -0.182948
vn 0.182991 0.965940 -0.182962
vn 0.183029 0.965867 -0.183305
vn 0.183395 0.965542 -0.184650
vn 0.182665 0.965874 -0.183630
vn 0.181780 0.966432 -0.181564
vn 0.182613 0.966063 -0.182685
vn 0.183471 -0.965740 -0.183535
vn 0.182902 -0.965984 -0.182816
vn 0.183066 -0.965860 -0.183309
vn 0.182923 -0.965968 -0.182882
vn 0.182917 -0.965960 -0.182928
vn 0.182952 -0.965972 -0.182832
vn 0.182934 -0.965971 -0.182852
vn 0.182963 -0.965972 -0.182818
vn 0.182971 -0.965970 -0.182820
vn 0.182557 -0.966059 -0.182766
vn 0.182482 -0.966090 -0.182676
vn 0.182867 -0.965962 -0.182967
vn 0.183041 -0.965904 -0.183101
vn -0.917364 -0.229905 -0.324941
vn -0.933586 -0.102388 -0.343415
vn -0.732121 -0.064743 -0.678091
vn -0.718828 -0.240374 -0.652309
vn -0.933028 0.024188 -0.358991
vn -0.718189 0.107904 -0.687431
vn -0.504758 -0.031014 -0.862704
vn -0.497253 -0.220063 -0.839233
vn -0.487360 0.157315 -0.858913
vn -0.406829 -0.013694 -0.913402
vn -0.404601 -0.180409 -0.896522
vn -0.396923 0.152961 -0.905016
vn -0.365605 -0.005019 -0.930757
vn -0.364101 -0.145231 -0.919967
vn -0.359811 0.135332 -0.923159
vn -0.277903 -0.001429 -0.960608
vn -0.276433 -0.132037 -0.951920
vn -0.274618 0.129453 -0.952799
vn -0.137205 -0.000202 -0.990543
vn -0.136229 -0.130083 -0.982100
vn -0.135832 0.129990 -0.982167
vn 0.009997 -0.000018 -0.999950
vn 0.009929 -0.130451 -0.991405
vn 0.009890 0.130722 -0.991370
vn 0.228689 -0.001803 -0.973498
vn 0.228475 -0.136261 -0.963967
vn 0.224250 0.132592 -0.965470
vn 0.550045 -0.013194 -0.835030
vn 0.550884 -0.159484 -0.819202
vn 0.533717 0.132832 -0.835166
vn 0.987649 -0.136845 0.076308
vn 0.994571 -0.084504 0.060728
vn 0.972708 -0.094997 0.211694
vn 0.971530 -0.107690 0.211028
vn 0.998286 -0.029404 0.050607
vn 0.973765 -0.081782 0.212351
vn 0.976534 -0.167694 -0.135132
vn 0.848202 -0.182074 -0.497396
vn 0.850838 -0.035794 -0.524207
vn 0.984970 -0.061737 -0.161318
vn 0.835897 0.110550 -0.537638
vn 0.984069 0.045417 -0.171888
vn -0.975826 -0.214123 -0.043753
vn -0.990844 -0.125963 -0.048598
vn -0.998019 -0.033582 -0.053205
vn -0.000222 0.169572 0.985518
vn -0.000323 0.017226 0.999852
vn -0.000317 0.027931 0.999610
vn -0.000222 0.171733 0.985144
vn -0.000405 -0.116176 0.993229
vn -0.000405 -0.115857 0.993266
vn -0.000405 -0.115535 0.993303
vn -0.000325 0.016412 0.999865
vn -0.000222 0.174009 0.984744
vn 0.000032 0.965945 0.258748
vn -0.000121 0.966201 0.257791
vn 0.000052 0.966552 0.256471
vn -0.000016 -0.965975 0.258634
vn 0.000157 -0.965967 0.258664
vn -0.000157 -0.966104 0.258153
vn -0.000312 0.965847 0.259111
vn -0.000287 0.965836 0.259155
vn -0.000074 0.965940 0.258766
vn -0.000061 0.965943 0.258754
vn -0.000054 0.965943 0.258754
vn -0.000045 0.965943 0.258754
vn -0.000033 0.965942 0.258760
vn -0.000020 0.965939 0.258769
vn 0.000196 0.965866 0.259042
vn 0.000888 0.965541 0.260249
vn 0.000682 0.965875 0.259007
vn -0.000155 0.966433 0.256921
vn 0.000050 0.966064 0.258305
vn 0.000043 -0.965741 0.259506
vn -0.000059 -0.965984 0.258601
vn 0.000175 -0.965860 0.259066
vn -0.000029 -0.965968 0.258662
vn 0.000007 -0.965960 0.258690
vn -0.000086 -0.965972 0.258648
vn -0.000058 -0.965971 0.258649
vn -0.000103 -0.965973 0.258645
vn -0.000106 -0.965971 0.258652
vn 0.000149 -0.966058 0.258324
vn 0.000138 -0.966090 0.258204
vn 0.000072 -0.965961 0.258688
vn 0.000043 -0.965903 0.258906
s 1
g FoodMediumLLowerArm
usemtl Walk_blinn1SG
f 17/1/1 1/4/2 2/3/3 16/2/4
f 1/4/2 18/6/5 19/5/6 2/3/3
f 16/2/4 2/3/3 3/8/7 20/7/8
f 2/3/3 19/5/6 21/9/9 3/8/7
f 20/7/8 3/8/7 4/11/10 22/10/11
f 3/8/7 21/9/9 23/12/12 4/11/10
f 22/10/11 4/11/10 5/14/13 24/13/14
f 4/11/10 23/12/12 25/15/15 5/14/13
f 24/13/14 5/14/13 6/17/16 26/16/17
f 5/14/13 25/15/15 27/18/18 6/17/16
f 26/16/17 6/17/16 7/20/19 28/19/20
f 6/17/16 27/18/18 29/21/21 7/20/19
f 28/19/20 7/20/19 8/23/22 30/22/23
f 7/20/19 29/21/21 31/24/24 8/23/22
f 30/22/23 8/23/22 9/26/25 32/25/26
f 8/23/22 31/24/24 33/27/27 9/26/25
f 32/25/26 9/26/25 10/29/28 34/28/29
f 9/26/25 33/27/27 35/30/30 10/29/28
f 37/31/31 11/34/32 12/33/33 36/32/34
f 11/34/32 38/36/35 39/35/36 12/33/33
f 40/37/37 41/40/38 13/39/39 14/38/40
f 14/38/40 13/39/39 42/42/41 43/41/42
f 34/28/29 10/29/28 13/39/39 41/40/38
f 10/29/28 35/30/30 42/42/41 13/39/39
f 40/37/37 14/38/40 11/34/32 37/31/31
f 14/38/40 43/41/42 38/36/35 11/34/32
f 44/43/43 15/44/44 1/4/2 17/1/1
f 15/44/44 45/45/45 18/6/5 1/4/2
s 3
f 36/46/46 12/49/47 47/48/48 48/47/49
f 12/49/47 39/51/50 46/50/51 47/48/48
f 47/48/48 46/50/51 45/53/52 15/52/53
f 48/47/49 47/48/48 15/52/53 44/54/54
s 4
f 46/50/55 18/55/56 45/53/57
s 5
f 48/47/58 40/57/59 37/56/60
s 4
f 19/58/61 46/50/55 21/59/62
f 19/58/61 18/55/56 46/50/55
f 23/60/63 46/50/55 25/61/64
f 21/59/62 46/50/55 23/60/63
f 27/62/65 46/50/55 29/63/66
f 25/61/64 46/50/55 27/62/65
f 31/64/67 46/50/55 33/65/68
f 29/63/66 46/50/55 31/64/67
f 35/66/69 46/50/55 42/67/70
f 33/65/68 46/50/55 35/66/69
f 43/68/71 46/50/55 38/69/72
f 42/67/70 46/50/55 43/68/71
f 38/69/72 46/50/55 39/51/73
s 5
f 48/47/58 37/56/60 36/46/74
f 48/47/58 34/71/75 41/70/76
f 48/47/58 41/70/76 40/57/59
f 48/47/58 30/73/77 32/72/78
f 48/47/58 32/72/78 34/71/75
f 48/47/58 26/75/79 28/74/80
f 48/47/58 28/74/80 30/73/77
f 48/47/58 22/77/81 24/76/82
f 48/47/58 24/76/82 26/75/79
f 16/78/83 20/79/84 48/47/58
f 48/47/58 20/79/84 22/77/81
f 16/78/83 48/47/58 17/80/85
f 17/80/85 48/47/58 44/54/86
s 10
f 65/81/87 49/84/88 50/83/89 64/82/90
f 49/84/88 66/86/91 67/85/92 50/83/89
f 64/82/90 50/83/89 51/88/93 68/87/94
f 50/83/89 67/85/92 69/89/95 51/88/93
f 68/87/94 51/88/93 52/91/96 70/90/97
f 51/88/93 69/89/95 71/92/98 52/91/96
f 70/90/97 52/91/96 53/94/99 72/93/100
f 52/91/96 71/92/98 73/95/101 53/94/99
f 72/93/100 53/94/99 54/97/102 74/96/103
f 53/94/99 73/95/101 75/98/104 54/97/102
f 74/96/103 54/97/102 55/100/105 76/99/106
f 54/97/102 75/98/104 77/101/107 55/100/105
f 76/99/106 55/100/105 56/103/108 78/102/109
f 55/100/105 77/101/107 79/104/110 56/103/108
f 78/102/109 56/103/108 57/106/111 80/105/112
f 56/103/108 79/104/110 81/107/113 57/106/111
f 80/105/112 57/106/111 58/109/114 82/108/115
f 57/106/111 81/107/113 83/110/116 58/109/114
f 85/111/117 59/114/118 60/113/119 84/112/120
f 59/114/118 86/116/121 87/115/122 60/113/119
f 88/117/123 89/120/124 61/119/125 62/118/126
f 62/118/126 61/119/125 90/122/127 91/121/128
f 82/108/115 58/109/114 61/119/125 89/120/124
f 58/109/114 83/110/116 90/122/127 61/119/125
f 88/117/123 62/118/126 59/114/118 85/111/117
f 62/118/126 91/121/128 86/116/121 59/114/118
f 92/123/129 63/124/130 49/84/88 65/81/87
f 63/124/130 93/125/131 66/86/91 49/84/88
s 12
f 84/126/132 60/129/133 95/128/134 96/127/135
f 60/129/133 87/131/136 94/130/137 95/128/134
f 95/128/134 94/130/137 93/133/138 63/132/139
f 96/127/135 95/128/134 63/132/139 92/134/140
s 13
f 94/130/141 66/135/142 93/133/143
s 14
f 96/127/144 88/137/145 85/136/146
s 13
f 67/138/147 94/130/141 69/139/148
f 67/138/147 66/135/142 94/130/141
f 71/140/149 94/130/141 73/141/150
f 69/139/148 94/130/141 71/140/149
f 75/142/151 94/130/141 77/143/152
f 73/141/150 94/130/141 75/142/151
f 79/144/153 94/130/141 81/145/154
f 77/143/152 94/130/141 79/144/153
f 83/146/155 94/130/141 90/147/156
f 81/145/154 94/130/141 83/146/155
f 91/148/157 94/130/141 86/149/158
f 90/147/156 94/130/141 91/148/157
f 86/149/158 94/130/141 87/131/159
s 14
f 96/127/144 85/136/146 84/126/160
f 96/127/144 82/151/161 89/150/162
f 96/127/144 89/150/162 88/137/145
f 96/127/144 78/153/163 80/152/164
f 96/127/144 80/152/164 82/151/161
f 96/127/144 74/155/165 76/154/166
f 96/127/144 76/154/166 78/153/163
f 96/127/144 70/157/167 72/156/168
f 96/127/144 72/156/168 74/155/165
f 64/158/169 68/159/170 96/127/144
f 96/127/144 68/159/170 70/157/167
f 64/158/169 96/127/144 65/160/171
f 65/160/171 96/127/144 92/134/172
