# This file uses centimeters as units for non-parametric coordinates.

mtllib AppleMediumLUpperArm.mtl
g default
v 1.043171 0.004531 -0.075284
v 0.954405 0.004531 -0.246611
v 0.794995 0.004531 -0.369791
v 0.579682 0.004531 -0.468252
v 0.346095 0.004531 -0.562315
v 0.078933 0.004531 -0.660390
v -0.189240 0.004531 -0.717732
v -0.454652 0.004531 -0.735104
v -0.698581 0.004531 -0.712626
v -0.901370 0.004531 -0.631012
v -1.097178 0.004531 -0.099339
v -1.062139 0.004531 0.056947
v -1.048553 0.004531 -0.484231
v -1.097194 0.004531 -0.294009
v 1.049535 0.004531 0.056299
v 0.933909 0.153768 -0.215549
v 1.021178 0.110957 -0.055512
v 1.046766 -0.103004 -0.063684
v 0.954082 -0.146681 -0.226460
v 0.775751 0.184244 -0.329849
v 0.785333 -0.176614 -0.337701
v 0.571688 0.211192 -0.430432
v 0.575202 -0.202682 -0.434954
v 0.344154 0.237081 -0.527037
v 0.345010 -0.227895 -0.529039
v 0.078825 0.263419 -0.625319
v 0.078874 -0.253815 -0.625759
v -0.189237 0.278532 -0.681703
v -0.189237 -0.268810 -0.681703
v -0.454650 0.283032 -0.698482
v -0.454650 -0.273310 -0.698482
v -0.698519 0.277193 -0.676678
v -0.698546 -0.267481 -0.676718
v -0.893177 0.253943 -0.589895
v -0.896782 -0.245169 -0.593432
v -1.052487 0.077363 0.069309
v -1.078890 0.116815 -0.077512
v -1.102975 -0.109222 -0.086553
v -1.067379 -0.068563 0.065523
v -1.073616 0.164164 -0.255320
v -1.024062 0.213487 -0.438695
v -1.037495 -0.207361 -0.452736
v -1.093621 -0.157961 -0.270507
v 1.033638 0.077487 0.069363
v 1.053100 -0.068907 0.064816
v -0.007138 -0.068735 0.065170
v -0.006302 0.004531 0.056624
v -0.009425 0.077425 0.069336
vt 0.486989 0.017934
vt 0.482673 0.041101
vt 0.501554 0.041840
vt 0.500563 0.018434
vt 0.520243 0.039632
vt 0.513824 0.016198
vt 0.478940 0.065720
vt 0.501784 0.066275
vt 0.524454 0.065023
vt 0.475774 0.094234
vt 0.501858 0.095232
vt 0.527823 0.093884
vt 0.472824 0.125023
vt 0.501958 0.126214
vt 0.531052 0.124779
vt 0.469792 0.160236
vt 0.502080 0.161206
vt 0.534344 0.160056
vt 0.467980 0.194408
vt 0.502168 0.194820
vt 0.536324 0.194284
vt 0.467448 0.227653
vt 0.502199 0.227329
vt 0.536943 0.227632
vt 0.468256 0.258387
vt 0.502177 0.257110
vt 0.536071 0.258507
vt 0.471036 0.285364
vt 0.502145 0.283488
vt 0.533128 0.285764
vt 0.486029 0.357842
vt 0.489742 0.376645
vt 0.498930 0.375534
vt 0.500284 0.355820
vt 0.507957 0.377012
vt 0.514324 0.358019
vt 0.481127 0.335286
vt 0.501320 0.332032
vt 0.502171 0.308423
vt 0.475612 0.310968
vt 0.521534 0.335284
vt 0.528094 0.311058
vt 0.489581 0.001937
vt 0.498991 0.002379
vt 0.508074 0.000500
vt 0.670572 0.588354
vt 0.670458 0.459336
vt 0.661305 0.458959
vt 0.661436 0.589557
vt 0.652182 0.459071
vt 0.652333 0.590214
vt 0.661175 0.328360
vt 0.652030 0.327929
vt 0.670345 0.330318
vt 0.635586 0.328725
vt 0.689380 0.591604
vt 0.712139 0.590932
vt 0.614749 0.340206
vt 0.600517 0.361090
vt 0.588083 0.387091
vt 0.576058 0.415574
vt 0.563698 0.448502
vt 0.556560 0.481671
vt 0.554437 0.514502
vt 0.557248 0.544668
vt 0.567933 0.569180
vt 0.585967 0.586570
vt 0.609326 0.593494
vt 0.632865 0.594633
vt 0.735622 0.584782
vt 0.754968 0.568575
vt 0.766060 0.544488
vt 0.768825 0.514321
vt 0.766648 0.481494
vt 0.759398 0.448343
vt 0.746784 0.415535
vt 0.734389 0.387402
vt 0.706838 0.342622
vt 0.721487 0.362172
vt 0.686337 0.331845
vn 0.917389 0.229906 -0.324870
vn 0.933613 0.102389 -0.343342
vn 0.732174 0.064745 -0.678034
vn 0.718877 0.240375 -0.652255
vn 0.933057 -0.024188 -0.358916
vn 0.718242 -0.107902 -0.687376
vn 0.504826 0.031015 -0.862664
vn 0.497320 0.220063 -0.839193
vn 0.487426 -0.157314 -0.858876
vn 0.406900 0.013693 -0.913370
vn 0.404672 0.180409 -0.896489
vn 0.396994 -0.152963 -0.904985
vn 0.365677 0.005018 -0.930728
vn 0.364171 0.145232 -0.919939
vn 0.359883 -0.135333 -0.923130
vn 0.277978 0.001429 -0.960586
vn 0.276507 0.132038 -0.951898
vn 0.274693 -0.129452 -0.952778
vn 0.137284 0.000202 -0.990532
vn 0.136309 0.130083 -0.982089
vn 0.135911 -0.129989 -0.982156
vn -0.009918 0.000018 -0.999951
vn -0.009851 0.130451 -0.991406
vn -0.009812 -0.130721 -0.991371
vn -0.228614 0.001804 -0.973516
vn -0.228401 0.136262 -0.963984
vn -0.224176 -0.132592 -0.965487
vn -0.549979 0.013194 -0.835075
vn -0.550818 0.159486 -0.819246
vn -0.533651 -0.132833 -0.835208
vn -0.987655 0.136842 0.076232
vn -0.994576 0.084503 0.060651
vn -0.972725 0.094995 0.211619
vn -0.971547 0.107680 0.210954
vn -0.998290 0.029405 0.050529
vn -0.973781 0.081788 0.212275
vn -0.976524 0.167693 -0.135206
vn -0.848164 0.182075 -0.497460
vn -0.850798 0.035793 -0.524273
vn -0.984957 0.061736 -0.161393
vn -0.835854 -0.110553 -0.537704
vn -0.984055 -0.045420 -0.171965
vn 0.975831 0.214118 -0.043681
vn 0.990848 0.125959 -0.048523
vn 0.998023 0.033579 -0.053128
vn 0.000145 -0.169573 0.985518
vn 0.000245 -0.017225 0.999852
vn 0.000239 -0.027930 0.999610
vn 0.000145 -0.171733 0.985143
vn 0.000327 0.116177 0.993229
vn 0.000327 0.115859 0.993266
vn 0.000328 0.115536 0.993303
vn 0.000247 -0.016412 0.999865
vn 0.000145 -0.174007 0.984744
vn -0.000052 -0.965945 0.258748
vn 0.000102 -0.966200 0.257795
vn -0.000071 -0.966550 0.256478
vn -0.000004 0.965975 0.258634
vn -0.000177 0.965969 0.258660
vn 0.000136 0.966104 0.258152
vn 0.000292 -0.965848 0.259110
vn 0.000266 -0.965837 0.259152
vn 0.000055 -0.965940 0.258768
vn 0.000042 -0.965943 0.258755
vn 0.000035 -0.965944 0.258753
vn 0.000023 -0.965943 0.258755
vn 0.000011 -0.965941 0.258761
vn 0.000000 -0.965940 0.258765
vn -0.000215 -0.965868 0.259036
vn -0.000909 -0.965541 0.260250
vn -0.000704 -0.965873 0.259014
vn 0.000134 -0.966432 0.256922
vn -0.000071 -0.966067 0.258292
vn -0.000064 0.965741 0.259510
vn 0.000038 0.965984 0.258603
vn -0.000195 0.965860 0.259065
vn 0.000008 0.965968 0.258660
vn -0.000027 0.965961 0.258689
vn 0.000067 0.965972 0.258648
vn 0.000036 0.965971 0.258650
vn 0.000082 0.965972 0.258645
vn 0.000086 0.965971 0.258651
vn -0.000169 0.966059 0.258322
vn -0.000159 0.966089 0.258209
vn -0.000092 0.965963 0.258681
vn -0.000064 0.965904 0.258899
s 1
g FoodMediumLUpperArm
usemtl Walk_blinn1SG
f 17/1/1 1/4/2 2/3/3 16/2/4
f 1/4/2 18/6/5 19/5/6 2/3/3
f 16/2/4 2/3/3 3/8/7 20/7/8
f 2/3/3 19/5/6 21/9/9 3/8/7
f 20/7/8 3/8/7 4/11/10 22/10/11
f 3/8/7 21/9/9 23/12/12 4/11/10
f 22/10/11 4/11/10 5/14/13 24/13/14
f 4/11/10 23/12/12 25/15/15 5/14/13
f 24/13/14 5/14/13 6/17/16 26/16/17
f 5/14/13 25/15/15 27/18/18 6/17/16
f 26/16/17 6/17/16 7/20/19 28/19/20
f 6/17/16 27/18/18 29/21/21 7/20/19
f 28/19/20 7/20/19 8/23/22 30/22/23
f 7/20/19 29/21/21 31/24/24 8/23/22
f 30/22/23 8/23/22 9/26/25 32/25/26
f 8/23/22 31/24/24 33/27/27 9/26/25
f 32/25/26 9/26/25 10/29/28 34/28/29
f 9/26/25 33/27/27 35/30/30 10/29/28
f 37/31/31 11/34/32 12/33/33 36/32/34
f 11/34/32 38/36/35 39/35/36 12/33/33
f 40/37/37 41/40/38 13/39/39 14/38/40
f 14/38/40 13/39/39 42/42/41 43/41/42
f 34/28/29 10/29/28 13/39/39 41/40/38
f 10/29/28 35/30/30 42/42/41 13/39/39
f 40/37/37 14/38/40 11/34/32 37/31/31
f 14/38/40 43/41/42 38/36/35 11/34/32
f 44/43/43 15/44/44 1/4/2 17/1/1
f 15/44/44 45/45/45 18/6/5 1/4/2
s 3
f 36/46/46 12/49/47 47/48/48 48/47/49
f 12/49/47 39/51/50 46/50/51 47/48/48
f 47/48/48 46/50/51 45/53/52 15/52/53
f 48/47/49 47/48/48 15/52/53 44/54/54
s 4
f 46/50/55 18/55/56 45/53/57
s 5
f 48/47/58 40/57/59 37/56/60
s 4
f 19/58/61 46/50/55 21/59/62
f 19/58/61 18/55/56 46/50/55
f 23/60/63 46/50/55 25/61/64
f 21/59/62 46/50/55 23/60/63
f 27/62/65 46/50/55 29/63/66
f 25/61/64 46/50/55 27/62/65
f 31/64/67 46/50/55 33/65/68
f 29/63/66 46/50/55 31/64/67
f 35/66/69 46/50/55 42/67/70
f 33/65/68 46/50/55 35/66/69
f 43/68/71 46/50/55 38/69/72
f 42/67/70 46/50/55 43/68/71
f 38/69/72 46/50/55 39/51/73
s 5
f 48/47/58 37/56/60 36/46/74
f 48/47/58 34/71/75 41/70/76
f 48/47/58 41/70/76 40/57/59
f 48/47/58 30/73/77 32/72/78
f 48/47/58 32/72/78 34/71/75
f 48/47/58 26/75/79 28/74/80
f 48/47/58 28/74/80 30/73/77
f 48/47/58 22/77/81 24/76/82
f 48/47/58 24/76/82 26/75/79
f 16/78/83 20/79/84 48/47/58
f 48/47/58 20/79/84 22/77/81
f 16/78/83 48/47/58 17/80/85
f 17/80/85 48/47/58 44/54/86
