# This file uses centimeters as units for non-parametric coordinates.

mtllib AppleShortLLowerLeg.mtl
g default
v 1.040546 -0.001303 -0.116600
v 0.935541 -0.001302 -0.247005
v 0.778757 -0.001302 -0.324294
v 0.578692 -0.001302 -0.370933
v 0.363842 -0.001302 -0.410681
v 0.119749 -0.001302 -0.448058
v -0.118185 -0.001302 -0.450622
v -0.346886 -0.001302 -0.419670
v -0.550452 -0.001302 -0.358529
v -0.708844 -0.001303 -0.254188
v -0.783765 -0.001304 0.231683
v -0.700561 -0.001305 0.417785
v -0.605042 -0.001305 0.538977
v 1.044757 -0.001304 0.206430
v -0.808722 -0.001303 -0.104008
v -0.817315 -0.001304 0.066138
v 1.068626 -0.001303 -0.005798
v 1.071748 -0.001303 0.100386
v 0.923464 0.128188 -0.217059
v 1.025248 0.091041 -0.095996
v 1.045601 -0.094609 -0.107355
v 0.938738 -0.132506 -0.229813
v 0.769273 0.154632 -0.287012
v 0.776069 -0.158479 -0.295341
v 0.578408 0.178014 -0.337392
v 0.580618 -0.181097 -0.341844
v 0.368268 0.200477 -0.380346
v 0.368652 -0.202974 -0.382197
v 0.125700 0.223331 -0.418215
v 0.125665 -0.225464 -0.418598
v -0.111976 0.236444 -0.419982
v -0.111976 -0.238475 -0.419983
v -0.340575 0.240348 -0.388526
v -0.340575 -0.242379 -0.388527
v -0.544207 0.235282 -0.327969
v -0.544236 -0.237323 -0.328000
v -0.694794 0.215107 -0.220633
v -0.698469 -0.217962 -0.223022
v -0.694303 0.045832 0.423846
v -0.764452 0.096123 0.247095
v -0.786491 -0.100005 0.243555
v -0.703832 -0.048366 0.423880
v 1.044050 0.009980 0.208099
v 1.045741 -0.012036 0.207676
v -0.604176 0.010434 0.540370
v -0.605158 -0.012485 0.540518
v -0.790600 0.137207 0.094976
v -0.780050 0.180004 -0.069502
v -0.793892 -0.185157 -0.079131
v -0.810229 -0.142294 0.085508
v 1.057358 0.061999 0.008051
v 1.064666 0.034846 0.109655
v 1.074292 -0.037924 0.103647
v 1.073126 -0.065024 0.000831
v -0.215785 -0.012335 0.462182
v -0.216033 -0.001305 0.460738
v -0.215686 0.010283 0.462223
v 0.554142 -0.012186 0.306728
v 0.553491 -0.001304 0.305390
v 0.553262 0.010131 0.306977
v 0.246009 -0.091316 0.067971
v 0.377313 -0.070072 0.122277
v 0.496029 -0.038431 0.218721
v -0.200035 -0.038707 0.358878
v -0.129431 -0.070307 0.223546
v -0.026519 -0.091303 0.123363
v 0.103321 -0.098833 0.068396
v 0.246419 0.089015 0.068673
v 0.103231 0.096243 0.070041
v -0.026360 0.089084 0.123625
v -0.128942 0.068294 0.223607
v -0.200082 0.036628 0.358497
v 0.494347 0.036315 0.218922
v 0.376837 0.067846 0.123074
vt 0.634251 0.292334
vt 0.637541 0.274959
vt 0.623379 0.274360
vt 0.624066 0.291908
vt 0.609358 0.275981
vt 0.614124 0.293573
vt 0.640389 0.256499
vt 0.623257 0.256035
vt 0.606252 0.256930
vt 0.642820 0.235118
vt 0.623259 0.234318
vt 0.603782 0.235279
vt 0.645092 0.212032
vt 0.623244 0.211082
vt 0.601421 0.212102
vt 0.647435 0.185628
vt 0.623220 0.184838
vt 0.599021 0.185638
vt 0.648860 0.160003
vt 0.623220 0.159627
vt 0.597602 0.159963
vt 0.649323 0.135070
vt 0.623260 0.135246
vt 0.597203 0.134952
vt 0.648777 0.112019
vt 0.623334 0.112911
vt 0.597917 0.111797
vt 0.646744 0.091781
vt 0.623409 0.093128
vt 0.600177 0.091361
vt 0.635631 0.037388
vt 0.631594 0.016687
vt 0.626482 0.017171
vt 0.624943 0.038885
vt 0.621449 0.016392
vt 0.614422 0.037205
vt 0.629247 0.000671
vt 0.627981 0.000731
vt 0.626797 0.000500
vt 0.639271 0.054319
vt 0.624122 0.056722
vt 0.623438 0.074427
vt 0.643361 0.072569
vt 0.608969 0.054245
vt 0.604002 0.072400
vt 0.632209 0.304372
vt 0.625202 0.303905
vt 0.626608 0.315120
vt 0.630648 0.315602
vt 0.618446 0.305383
vt 0.622763 0.315982
vt 0.628474 0.326658
vt 0.629696 0.326656
vt 0.627348 0.326944
vt 0.488797 0.976920
vt 0.488669 0.935605
vt 0.487594 0.935178
vt 0.487421 0.976937
vt 0.486584 0.935565
vt 0.486121 0.976927
vt 0.487930 0.839106
vt 0.488463 0.791308
vt 0.487270 0.791264
vt 0.487123 0.838925
vt 0.488725 0.838819
vt 0.489715 0.791384
vt 0.438679 0.794076
vt 0.459753 0.873369
vt 0.468532 0.860143
vt 0.453611 0.785354
vt 0.465483 0.784582
vt 0.481988 0.848828
vt 0.476258 0.786484
vt 0.477140 0.929825
vt 0.470070 0.984344
vt 0.465736 0.917933
vt 0.447895 0.987526
vt 0.430197 0.985161
vt 0.459004 0.903717
vt 0.413028 0.978486
vt 0.400636 0.964340
vt 0.394118 0.945369
vt 0.393675 0.922720
vt 0.456274 0.888595
vt 0.396712 0.898517
vt 0.402794 0.874239
vt 0.412197 0.850231
vt 0.420495 0.829172
vt 0.428883 0.809765
vt 0.536611 0.797625
vt 0.515682 0.874680
vt 0.546631 0.812446
vt 0.555233 0.831354
vt 0.563713 0.852150
vt 0.519687 0.889933
vt 0.573092 0.876119
vt 0.579353 0.900364
vt 0.517652 0.904946
vt 0.582132 0.924656
vt 0.581344 0.947265
vt 0.574121 0.965756
vt 0.560377 0.978752
vt 0.510329 0.918786
vt 0.543058 0.984444
vt 0.525868 0.986057
vt 0.498398 0.930231
vt 0.504616 0.983805
vt 0.492600 0.850445
vt 0.500427 0.787950
vt 0.506467 0.861720
vt 0.510919 0.787448
vt 0.522348 0.789043
vt 0.027198 0.683937
vt 0.027264 0.691991
vt 0.043581 0.695311
vt 0.043504 0.680493
vt 0.058903 0.697488
vt 0.058852 0.678203
vt 0.073897 0.698218
vt 0.073924 0.677362
vt 0.089207 0.697458
vt 0.089179 0.678178
vt 0.104320 0.695227
vt 0.104366 0.680482
vt 0.120546 0.691923
vt 0.120704 0.683931
vt 0.016187 0.687970
vt 0.016040 0.689211
vt 0.016034 0.686790
vt 0.131784 0.688008
vt 0.131952 0.686845
vt 0.131900 0.689237
vn 0.834621 0.229907 -0.500550
vn 0.846853 0.102390 -0.521877
vn 0.582972 0.064746 -0.809909
vn 0.575060 0.240376 -0.782001
vn 0.843215 -0.024188 -0.537032
vn 0.567461 -0.107901 -0.816299
vn 0.323492 0.031017 -0.945722
vn 0.320796 0.220067 -0.921228
vn 0.307192 -0.157313 -0.938555
vn 0.217447 0.013696 -0.975976
vn 0.218614 0.180414 -0.958988
vn 0.209403 -0.152962 -0.965791
vn 0.173598 0.005021 -0.984804
vn 0.174265 0.145236 -0.973929
vn 0.169427 -0.135332 -0.976207
vn 0.081718 0.001432 -0.996655
vn 0.082001 0.132041 -0.987847
vn 0.080048 -0.129451 -0.988350
vn -0.062122 0.000205 -0.998069
vn -0.061402 0.130086 -0.989600
vn -0.061804 -0.129987 -0.989588
vn -0.208263 0.000021 -0.978073
vn -0.206502 0.130454 -0.969711
vn -0.206456 -0.130718 -0.969685
vn -0.417355 0.001807 -0.908742
vn -0.415255 0.136264 -0.899442
vn -0.411410 -0.132587 -0.901755
vn -0.704834 0.013197 -0.709249
vn -0.702514 0.159488 -0.693569
vn -0.688858 -0.132828 -0.712623
vn -0.949835 0.131683 0.283676
vn -0.959019 0.085441 0.270152
vn -0.889743 0.090751 0.447351
vn -0.889226 0.083762 0.449735
vn -0.964403 0.036241 0.261943
vn -0.890294 0.095104 0.445345
vn -0.783432 0.071109 0.617397
vn -0.786788 0.017075 0.616988
vn -0.777644 0.125999 0.615950
vn -0.983927 0.167692 0.061376
vn -0.930049 0.182076 -0.319152
vn -0.937955 0.035795 -0.344906
vn -0.997392 0.061736 0.037385
vn -0.925976 -0.110551 -0.361035
vn -0.998607 -0.045420 0.026845
vn 0.964906 0.205705 -0.163223
vn 0.985023 0.161306 0.060909
vn 0.991286 0.122571 0.048247
vn 0.976653 0.126540 -0.173601
vn 0.995958 0.075639 0.048441
vn 0.982903 0.044858 -0.178576
vn 0.965827 0.103826 0.237483
vn 0.965547 0.099531 0.240441
vn 0.965232 0.095101 0.243483
vn 0.195492 -0.130071 0.972041
vn 0.197174 0.001310 0.980368
vn 0.197173 -0.002627 0.980365
vn 0.195492 -0.130071 0.972041
vn 0.195462 0.131756 0.971821
vn 0.195462 0.131756 0.971821
vn 0.197466 -0.006731 0.980287
vn 0.195776 0.130994 0.971860
vn 0.195776 0.130994 0.971860
vn 0.197470 0.003262 0.980303
vn 0.195758 -0.131211 0.971835
vn 0.195758 -0.131211 0.971835
vn 0.051667 -0.965900 0.253709
vn 0.051373 -0.966144 0.252837
vn 0.051552 -0.965931 0.253613
vn 0.051535 -0.965934 0.253606
vn 0.051170 -0.966129 0.252935
vn 0.051384 -0.965842 0.253985
vn 0.051378 -0.965847 0.253969
vn 0.051481 -0.965765 0.254258
vn 0.051481 -0.965765 0.254258
vn 0.051295 -0.966074 0.253120
vn 0.051370 -0.965837 0.254007
vn 0.051370 -0.965837 0.254007
vn 0.051293 -0.966081 0.253095
vn 0.051298 -0.966375 0.251970
vn 0.050739 -0.965721 0.254577
vn 0.050697 -0.965782 0.254351
vn 0.050693 -0.965607 0.255015
vn 0.051053 -0.965788 0.254256
vn 0.051188 -0.965879 0.253884
vn 0.051360 -0.965950 0.253581
vn 0.051371 -0.965954 0.253563
vn 0.051379 -0.965956 0.253554
vn 0.051428 -0.965950 0.253565
vn 0.051462 -0.965950 0.253558
vn 0.051468 -0.965944 0.253582
vn 0.051431 -0.965939 0.253607
vn 0.051712 -0.965823 0.253990
vn 0.051041 0.966020 0.253377
vn 0.051035 0.966057 0.253239
vn 0.051247 0.965940 0.253642
vn 0.051375 0.965916 0.253706
vn 0.051341 0.965911 0.253731
vn 0.051348 0.965905 0.253755
vn 0.051393 0.965907 0.253738
vn 0.051447 0.965903 0.253743
vn 0.051444 0.965906 0.253731
vn 0.051408 0.965875 0.253858
vn 0.051434 0.965909 0.253722
vn 0.051524 0.965945 0.253565
vn 0.051401 0.965866 0.253890
vn 0.051374 0.965931 0.253650
vn 0.051403 0.965815 0.254083
vn 0.051639 0.966018 0.253265
vn 0.051590 0.965838 0.253961
vn 0.051588 0.965839 0.253957
vn 0.051431 0.965994 0.253399
vn 0.051431 0.965994 0.253399
vn 0.051290 0.965743 0.254380
vn 0.051271 0.965881 0.253859
vn 0.051271 0.965881 0.253859
vn 0.051289 0.965756 0.254334
vn 0.051263 0.965762 0.254315
vn 0.051127 0.965928 0.253710
vn 0.051119 0.965963 0.253580
vn 0.912857 -0.000929 0.408279
vn 0.774785 -0.001799 0.632222
vn 0.774588 -0.001800 0.632464
vn 0.912616 -0.000931 0.408817
vn 0.529835 -0.003692 0.848093
vn 0.530024 -0.003690 0.847975
vn 0.198028 -0.005622 0.980180
vn 0.198572 -0.005620 0.980070
vn -0.161822 -0.005594 0.986804
vn -0.162699 -0.005590 0.986660
vn -0.478226 -0.006534 0.878213
vn -0.478189 -0.006533 0.878232
vn -0.674818 -0.012933 0.737871
vn -0.673710 -0.012858 0.738884
vn 0.988555 0.000000 0.150858
vn 0.988555 0.000000 0.150858
vn 0.988555 0.000000 0.150858
vn -0.831800 -0.024485 0.554535
vn -0.831800 -0.024485 0.554535
vn -0.831800 -0.024485 0.554535
s 1
g FoodShortLLowerLeg
usemtl Walk_blinn1SG
f 20/1/1 1/4/2 2/3/3 19/2/4
f 1/4/2 21/6/5 22/5/6 2/3/3
f 19/2/4 2/3/3 3/8/7 23/7/8
f 2/3/3 22/5/6 24/9/9 3/8/7
f 23/7/8 3/8/7 4/11/10 25/10/11
f 3/8/7 24/9/9 26/12/12 4/11/10
f 25/10/11 4/11/10 5/14/13 27/13/14
f 4/11/10 26/12/12 28/15/15 5/14/13
f 27/13/14 5/14/13 6/17/16 29/16/17
f 5/14/13 28/15/15 30/18/18 6/17/16
f 29/16/17 6/17/16 7/20/19 31/19/20
f 6/17/16 30/18/18 32/21/21 7/20/19
f 31/19/20 7/20/19 8/23/22 33/22/23
f 7/20/19 32/21/21 34/24/24 8/23/22
f 33/22/23 8/23/22 9/26/25 35/25/26
f 8/23/22 34/24/24 36/27/27 9/26/25
f 35/25/26 9/26/25 10/29/28 37/28/29
f 9/26/25 36/27/27 38/30/30 10/29/28
f 40/31/31 11/34/32 12/33/33 39/32/34
f 11/34/32 41/36/35 42/35/36 12/33/33
f 39/32/34 12/33/33 13/38/37 45/37/38
f 12/33/33 42/35/36 46/39/39 13/38/37
f 47/40/40 48/43/41 15/42/42 16/41/43
f 16/41/43 15/42/42 49/45/44 50/44/45
f 37/28/29 10/29/28 15/42/42 48/43/41
f 10/29/28 38/30/30 49/45/44 15/42/42
f 47/40/40 16/41/43 11/34/32 40/31/31
f 16/41/43 50/44/45 41/36/35 11/34/32
f 51/46/46 52/49/47 18/48/48 17/47/49
f 17/47/49 18/48/48 53/51/50 54/50/51
f 51/46/46 17/47/49 1/4/2 20/1/1
f 17/47/49 54/50/51 21/6/5 1/4/2
f 18/48/48 52/49/47 43/53/52 14/52/53
f 53/51/50 18/48/48 14/52/53 44/54/54
s 4
f 45/55/55 13/58/56 56/57/57 57/56/58
f 13/58/56 46/60/59 55/59/60 56/57/57
s 5
f 59/61/61 58/64/62 44/63/63 14/62/64
f 60/65/65 59/61/61 14/62/64 43/66/66
s 6
f 22/67/67 21/70/68 62/69/69 61/68/70
f 21/70/68 54/71/71 62/69/69
f 54/71/71 53/73/72 63/72/73 62/69/69
f 63/72/73 53/73/72 44/63/74 58/64/75
f 64/74/76 55/59/77 46/60/78 42/75/79
f 42/75/79 41/77/80 65/76/81 64/74/76
f 41/77/80 50/78/82 65/76/81
f 50/78/82 49/80/83 66/79/84 65/76/81
f 49/80/83 38/81/85 66/79/84
f 38/81/85 36/82/86 66/79/84
f 36/82/86 34/83/87 66/79/84
f 34/83/87 32/85/88 67/84/89 66/79/84
f 32/85/88 30/86/90 67/84/89
f 30/86/90 28/87/91 61/68/70 67/84/89
f 28/87/91 26/88/92 61/68/70
f 26/88/92 24/89/93 61/68/70
f 24/89/93 22/67/67 61/68/70
s 8
f 19/90/94 23/92/95 68/91/96
f 23/92/95 25/93/97 68/91/96
f 25/93/97 27/94/98 68/91/96
f 27/94/98 29/96/99 69/95/100 68/91/96
f 29/96/99 31/97/101 69/95/100
f 31/97/101 33/99/102 70/98/103 69/95/100
f 33/99/102 35/100/104 70/98/103
f 35/100/104 37/101/105 70/98/103
f 37/101/105 48/102/106 70/98/103
f 48/102/106 47/104/107 71/103/108 70/98/103
f 47/104/107 40/105/109 71/103/108
f 40/105/109 39/107/110 72/106/111 71/103/108
f 72/106/111 39/107/110 45/55/112 57/56/113
f 73/108/114 60/65/115 43/66/116 52/109/117
f 52/109/117 51/111/118 74/110/119 73/108/114
f 51/111/118 20/112/120 74/110/119
f 20/112/120 19/90/94 68/91/96 74/110/119
s 10
f 64/113/121 65/116/122 71/115/123 72/114/124
f 65/116/122 66/118/125 70/117/126 71/115/123
f 66/118/125 67/120/127 69/119/128 70/117/126
f 67/120/127 61/122/129 68/121/130 69/119/128
f 61/122/129 62/124/131 74/123/132 68/121/130
f 62/124/131 63/126/133 73/125/134 74/123/132
f 56/127/135 55/129/136 64/113/121 72/114/124 57/128/137
f 59/130/138 60/132/139 73/125/134 63/126/133 58/131/140
