# This file uses centimeters as units for non-parametric coordinates.

mtllib ChiliRTopIncisor.mtl
g default
v -0.160887 0.936325 -0.046094
v 0.270738 0.936325 -0.055491
v 0.447502 0.412123 -0.047801
v 0.236180 0.442509 0.161144
v -0.116933 0.442509 0.168831
v 0.189624 0.854863 0.073824
v -0.074221 0.854863 0.079568
v -0.278818 0.828856 -0.086325
v 0.386807 0.828856 -0.100816
v 0.178580 1.092796 -0.159977
v -0.073363 1.092796 -0.154493
v 0.059869 0.662838 0.176280
v -0.249680 0.431886 0.094290
v 0.060191 0.446163 0.191046
v -0.102993 0.659079 0.152107
v 0.365557 0.431886 0.080896
v 0.221525 0.659079 0.145043
v 0.058225 0.873246 0.100739
v 0.304167 0.829514 -0.004082
v 0.169170 0.996022 -0.018546
v -0.192046 0.829514 0.006720
v -0.057807 0.996022 -0.013605
v -0.183027 0.992450 -0.126011
v 0.052508 1.126726 -0.161879
v 0.289380 0.992450 -0.136295
v 0.442763 0.628195 -0.072555
v -0.333490 0.628195 -0.055656
v -0.240158 0.647856 0.072348
v 0.355090 0.647856 0.059390
v 0.055912 1.023361 -0.005510
v -0.337149 0.412123 -0.030719
v -0.105828 0.239978 0.139638
v -0.217470 0.243184 0.080739
v 0.059444 0.238035 0.156714
v 0.223814 0.239978 0.132461
v 0.332788 0.243184 0.068760
v 0.397189 0.242938 -0.040475
v -0.286564 0.242938 -0.025590
v -0.067868 0.102109 0.056489
v -0.147464 0.109390 0.020199
v 0.057481 0.099465 0.066566
v 0.182272 0.102109 0.051043
v 0.260214 0.109390 0.011324
v 0.306515 0.109952 -0.052235
v -0.196488 0.109952 -0.041285
v 0.000402 0.011078 -0.050277
v -0.045406 0.015096 -0.062503
v 0.055008 0.011042 -0.047046
v 0.109421 0.011078 -0.052650
v 0.154654 0.015096 -0.066859
v 0.181819 0.021623 -0.084891
v -0.073331 0.021623 -0.079336
v -0.023566 -0.062850 -0.097875
v -0.007498 -0.070239 -0.097775
v 0.021498 -0.070243 -0.098407
v 0.053874 -0.070232 -0.099111
v 0.086250 -0.070243 -0.099816
v 0.115246 -0.070239 -0.100447
v 0.131297 -0.064872 -0.101123
v 0.059605 0.450889 0.164108
v -0.107647 0.447551 0.143310
v 0.059284 0.659263 0.149367
v -0.093182 0.655657 0.126701
v -0.229915 0.437497 0.074631
v -0.219240 0.645260 0.053346
v 0.344955 0.437497 0.062116
v 0.225793 0.447551 0.136051
v 0.333364 0.645260 0.041315
v 0.210618 0.655657 0.120087
v 0.178716 0.842949 0.051382
v 0.057694 0.860814 0.076362
v 0.283426 0.818868 -0.020391
v 0.252363 0.919242 -0.069270
v 0.158371 0.975358 -0.034647
v 0.055537 1.001048 -0.022745
v -0.064300 0.842949 0.056672
v -0.172034 0.818868 -0.010475
v -0.047719 0.975358 -0.030161
v -0.143129 0.919242 -0.060660
v -0.063032 1.069130 -0.166073
v -0.164371 0.974783 -0.138087
v 0.052264 1.100819 -0.173054
v 0.167755 1.069130 -0.171097
v 0.270216 0.974783 -0.147548
v 0.362564 0.818953 -0.112285
v 0.416856 0.626398 -0.084672
v 0.422873 0.417921 -0.061294
v -0.313130 0.417921 -0.045272
v -0.308135 0.626398 -0.068889
v -0.255096 0.818953 -0.098837
v -0.200137 0.255199 0.061465
v -0.097401 0.250938 0.115373
v 0.058887 0.248639 0.131130
v 0.214341 0.250938 0.108586
v 0.314632 0.255199 0.050258
v 0.375789 0.255339 -0.055031
v -0.265818 0.255339 -0.041064
v -0.133743 0.127583 0.002265
v -0.061450 0.119553 0.034964
v 0.056994 0.116764 0.044214
v 0.174924 0.119553 0.029818
v 0.245725 0.127583 -0.005996
v 0.289158 0.128799 -0.065908
v -0.179742 0.128799 -0.055700
v -0.031665 0.032419 -0.110669
v 0.009211 0.026635 -0.112221
v 0.053613 0.023363 -0.111121
v 0.097924 0.026635 -0.114152
v 0.138829 0.032419 -0.114381
v 0.172635 0.031222 -0.104007
v -0.064987 0.031222 -0.098834
vt 0.100720 0.718912
vt 0.077955 0.717090
vt 0.078129 0.700027
vt 0.100439 0.700232
vt 0.101942 0.734362
vt 0.077515 0.733304
vt 0.101063 0.681560
vt 0.078268 0.682964
vt 0.078126 0.666745
vt 0.102568 0.666135
vt 0.055344 0.699818
vt 0.056313 0.685648
vt 0.055996 0.670857
vt 0.038875 0.687309
vt 0.042559 0.674239
vt 0.037018 0.699650
vt 0.055465 0.728786
vt 0.056052 0.714003
vt 0.038649 0.712022
vt 0.042092 0.725158
vt 0.031160 0.728695
vt 0.020022 0.714321
vt 0.017068 0.699467
vt 0.020294 0.684669
vt 0.031694 0.670502
vt 0.052285 0.657180
vt 0.077708 0.649502
vt 0.105356 0.650182
vt 0.076781 0.750536
vt 0.104437 0.750363
vt 0.051503 0.742392
vt 0.122356 0.717778
vt 0.123181 0.730597
vt 0.122415 0.700433
vt 0.122674 0.683091
vt 0.123734 0.670289
vt 0.127039 0.656956
vt 0.126240 0.743988
vt 0.139337 0.714427
vt 0.140451 0.723780
vt 0.139273 0.700588
vt 0.139591 0.686753
vt 0.140876 0.677422
vt 0.144463 0.669541
vt 0.143893 0.731726
vt 0.159270 0.706242
vt 0.158593 0.711239
vt 0.159425 0.700773
vt 0.159370 0.695302
vt 0.158785 0.690294
vt 0.158045 0.686038
vt 0.157775 0.715480
vt 0.170111 0.704589
vt 0.170100 0.707978
vt 0.170137 0.700871
vt 0.170178 0.697153
vt 0.170230 0.693764
vt 0.170153 0.710990
vt 0.269287 0.644648
vt 0.269737 0.625011
vt 0.292798 0.625085
vt 0.292811 0.643204
vt 0.267914 0.661326
vt 0.293119 0.660757
vt 0.269412 0.605372
vt 0.268147 0.588685
vt 0.293347 0.589415
vt 0.292926 0.606966
vt 0.315596 0.609874
vt 0.316341 0.625160
vt 0.316219 0.593861
vt 0.330331 0.597671
vt 0.333986 0.611709
vt 0.335734 0.625222
vt 0.315498 0.640440
vt 0.316019 0.656457
vt 0.333900 0.638722
vt 0.330155 0.652737
vt 0.352882 0.641192
vt 0.341209 0.656575
vt 0.356143 0.625287
vt 0.352984 0.609361
vt 0.341409 0.593903
vt 0.320224 0.579616
vt 0.293982 0.571436
vt 0.265514 0.572048
vt 0.293639 0.678739
vt 0.265175 0.677946
vt 0.319933 0.670727
vt 0.246252 0.656986
vt 0.247132 0.643109
vt 0.247075 0.624939
vt 0.247248 0.606769
vt 0.246458 0.592887
vt 0.243275 0.579019
vt 0.242981 0.670832
vt 0.228630 0.649775
vt 0.229264 0.639491
vt 0.229134 0.624881
vt 0.229358 0.610273
vt 0.228790 0.599984
vt 0.225586 0.591488
vt 0.225372 0.658251
vt 0.212416 0.638116
vt 0.212625 0.631919
vt 0.212865 0.624829
vt 0.212671 0.617737
vt 0.212503 0.611539
vt 0.212056 0.607290
vt 0.211942 0.642362
vt 0.202905 0.632055
vt 0.202935 0.628613
vt 0.202951 0.624797
vt 0.202961 0.620980
vt 0.202954 0.617537
vt 0.202966 0.614130
vt 0.202893 0.635462
vt 0.355523 0.642617
vt 0.343273 0.658846
vt 0.359242 0.625297
vt 0.355633 0.607953
vt 0.343488 0.591647
vt 0.321866 0.576883
vt 0.294900 0.568361
vt 0.265570 0.568869
vt 0.294538 0.681820
vt 0.265211 0.681125
vt 0.321557 0.673471
vt 0.242133 0.576086
vt 0.241821 0.673758
vt 0.223459 0.589096
vt 0.223229 0.660629
vt 0.209900 0.605717
vt 0.209776 0.643922
vt 0.170338 0.690753
vn 0.298234 0.020067 -0.954282
vn 0.328445 -0.226782 -0.916894
vn -0.021287 -0.208388 -0.977815
vn -0.021752 0.034032 -0.999184
vn 0.677256 0.015945 -0.735574
vn 0.663115 -0.229922 -0.712330
vn -0.339482 0.020067 -0.940398
vn -0.368036 -0.226782 -0.901731
vn -0.693487 -0.229922 -0.682797
vn -0.708627 0.015945 -0.705403
vn -0.019452 -0.448603 -0.893520
vn -0.376285 -0.437675 -0.816609
vn -0.645869 -0.418572 -0.638475
vn -0.370344 -0.656836 -0.656819
vn -0.596682 -0.550363 -0.584013
vn -0.015100 -0.720187 -0.693616
vn 0.617470 -0.418572 -0.665979
vn 0.340390 -0.437675 -0.832211
vn 0.341409 -0.656836 -0.672314
vn 0.570701 -0.550362 -0.609427
vn 0.358198 -0.511938 -0.780778
vn 0.218463 -0.634089 -0.741758
vn -0.015882 -0.683769 -0.729526
vn -0.250538 -0.634088 -0.731548
vn -0.391837 -0.511938 -0.764450
vn -0.560621 -0.360027 -0.745711
vn -0.679707 -0.203159 -0.704787
vn -0.710764 0.003642 -0.703421
vn 0.648392 -0.203159 -0.733699
vn 0.679479 0.003642 -0.733686
vn 0.527637 -0.360027 -0.769402
vn 0.257221 0.307330 -0.916180
vn 0.627857 0.315389 -0.711566
vn -0.020676 0.312391 -0.949728
vn -0.296849 0.307330 -0.904118
vn -0.658230 0.315388 -0.683567
vn -0.655259 0.252586 -0.711924
vn 0.623656 0.252587 -0.739765
vn 0.187413 0.680692 -0.708192
vn 0.464272 0.654843 -0.596349
vn -0.015891 0.683328 -0.729938
vn -0.218056 0.680692 -0.699364
vn -0.489785 0.654843 -0.575579
vn -0.417493 0.482772 -0.769825
vn 0.383596 0.482771 -0.787265
vn 0.091520 0.718834 -0.689131
vn 0.186662 0.728148 -0.659513
vn -0.014929 0.727679 -0.685756
vn -0.121424 0.718835 -0.684495
vn -0.215187 0.728147 -0.650766
vn -0.069399 0.556653 -0.827841
vn 0.034455 0.557069 -0.829751
vn -0.019339 -0.137007 -0.990381
vn -0.062539 -0.137948 -0.988463
vn -0.021567 -0.134421 -0.990689
vn -0.023780 -0.137007 -0.990285
vn 0.019029 -0.136347 -0.990478
vn -0.585438 -0.595805 0.549798
vn -0.300932 -0.022410 0.953382
vn 0.021751 -0.035623 0.999129
vn 0.021297 0.206295 0.978258
vn -0.329246 0.223533 0.917404
vn -0.672416 -0.020025 0.739903
vn -0.660166 0.225224 0.716558
vn 0.342138 -0.022410 0.939382
vn 0.703979 -0.020026 0.709939
vn 0.690725 0.225224 0.687149
vn 0.368859 0.223533 0.902206
vn 0.373957 0.436570 0.818268
vn 0.019450 0.448791 0.893425
vn 0.644337 0.415409 0.642078
vn 0.595272 0.551007 0.584843
vn 0.365207 0.657720 0.658808
vn 0.015125 0.719066 0.694777
vn -0.337992 0.436570 0.833768
vn -0.615785 0.415409 0.669511
vn -0.336189 0.657720 0.674078
vn -0.569256 0.551007 0.610196
vn -0.377678 0.835716 0.398670
vn -0.685690 0.652693 0.322213
vn 0.009391 0.902124 0.431374
vn 0.394671 0.835716 0.381856
vn 0.699061 0.652693 0.292069
vn 0.849443 0.404431 0.338943
vn 0.903646 0.191212 0.383227
vn 0.920844 -0.057885 0.385611
vn -0.886111 0.191213 0.422190
vn -0.903190 -0.057884 0.425320
vn -0.833887 0.404430 0.375590
vn -0.621566 -0.317858 0.715976
vn -0.259827 -0.307991 0.915222
vn 0.020675 -0.312477 0.949700
vn 0.299410 -0.307991 0.903048
vn 0.652136 -0.317857 0.688248
vn 0.875674 -0.353072 0.329446
vn -0.860508 -0.353073 0.367241
vn -0.493257 -0.641536 0.587477
vn -0.199643 -0.636803 0.744732
vn 0.016899 -0.630208 0.776242
vn 0.231864 -0.636802 0.735338
vn 0.518356 -0.641536 0.565455
vn 0.732113 -0.656752 0.180797
vn -0.723550 -0.656753 0.212486
vn -0.333658 -0.753973 0.565859
vn -0.124456 -0.735489 0.666008
vn 0.014811 -0.732742 0.680346
vn 0.153322 -0.735489 0.659961
vn 0.356449 -0.752791 0.553399
vn 0.604983 -0.792230 0.079801
vn -0.600736 -0.792681 0.103799
vn -0.214196 -0.486698 0.846903
vn -0.077302 -0.512191 0.855386
vn 0.018495 -0.527155 0.849568
vn 0.114455 -0.512191 0.851211
vn 0.252424 -0.483842 0.837961
vn 0.600972 -0.596932 0.531512
s 1
g FoodRBuckTeeth
usemtl blinn3SG
f 61/1/1 63/2/2 62/3/3 60/4/4
f 64/5/5 65/6/6 63/2/2 61/1/1
f 67/7/7 69/8/8 68/9/9 66/10/10
f 60/4/4 62/3/3 69/8/8 67/7/7
f 62/3/3 71/11/11 70/12/12 69/8/8
f 69/8/8 70/12/12 72/13/13 68/9/9
f 70/12/12 74/14/14 73/15/15 72/13/13
f 71/11/11 75/16/16 74/14/14 70/12/12
f 65/6/6 77/17/17 76/18/18 63/2/2
f 63/2/2 76/18/18 71/11/11 62/3/3
f 76/18/18 78/19/19 75/16/16 71/11/11
f 77/17/17 79/20/20 78/19/19 76/18/18
f 79/20/20 81/21/21 80/22/22 78/19/19
f 78/19/19 80/22/22 82/23/23 75/16/16
f 75/16/16 82/23/23 83/24/24 74/14/14
f 74/14/14 83/24/24 84/25/25 73/15/15
f 85/26/26 72/13/13 73/15/15 84/25/25
f 86/27/27 68/9/9 72/13/13 85/26/26
f 87/28/28 66/10/10 68/9/9 86/27/27
f 89/29/29 65/6/6 64/5/5 88/30/30
f 90/31/31 77/17/17 65/6/6 89/29/29
f 81/21/21 79/20/20 77/17/17 90/31/31
f 61/1/1 92/32/32 91/33/33 64/5/5
f 60/4/4 93/34/34 92/32/32 61/1/1
f 67/7/7 94/35/35 93/34/34 60/4/4
f 66/10/10 95/36/36 94/35/35 67/7/7
f 87/28/28 96/37/37 95/36/36 66/10/10
f 64/5/5 91/33/33 97/38/38 88/30/30
f 92/32/32 99/39/39 98/40/40 91/33/33
f 93/34/34 100/41/41 99/39/39 92/32/32
f 94/35/35 101/42/42 100/41/41 93/34/34
f 95/36/36 102/43/43 101/42/42 94/35/35
f 96/37/37 103/44/44 102/43/43 95/36/36
f 91/33/33 98/40/40 104/45/45 97/38/38
f 99/39/39 106/46/46 105/47/47 98/40/40
f 100/41/41 107/48/48 106/46/46 99/39/39
f 101/42/42 108/49/49 107/48/48 100/41/41
f 102/43/43 109/50/50 108/49/49 101/42/42
f 103/44/44 110/51/51 109/50/50 102/43/43
f 98/40/40 105/47/47 111/52/52 104/45/45
f 106/46/46 55/53/53 54/54/54 105/47/47
f 107/48/48 56/55/55 55/53/53 106/46/46
f 108/49/49 57/56/56 56/55/55 107/48/48
f 109/50/50 58/57/57 57/56/56 108/49/49
f 110/51/51 58/57/57 109/50/50
f 111/52/52 54/54/54 53/58/58
f 5/59/59 14/60/60 12/61/61 15/62/62
f 13/63/63 5/59/59 15/62/62 28/64/64
f 4/65/65 16/66/66 29/67/67 17/68/68
f 14/60/60 4/65/65 17/68/68 12/61/61
f 12/61/61 17/68/68 6/69/69 18/70/70
f 17/68/68 29/67/67 19/71/71 6/69/69
f 6/69/69 19/71/71 2/72/72 20/73/73
f 18/70/70 6/69/69 20/73/73 30/74/74
f 28/64/64 15/62/62 7/75/75 21/76/76
f 15/62/62 12/61/61 18/70/70 7/75/75
f 7/75/75 18/70/70 30/74/74 22/77/77
f 21/76/76 7/75/75 22/77/77 1/78/78
f 1/78/78 22/77/77 11/79/79 23/80/80
f 22/77/77 30/74/74 24/81/81 11/79/79
f 30/74/74 20/73/73 10/82/82 24/81/81
f 20/73/73 2/72/72 25/83/83 10/82/82
f 9/84/84 25/83/83 2/72/72 19/71/71
f 26/85/85 9/84/84 19/71/71 29/67/67
f 3/86/86 26/85/85 29/67/67 16/66/66
f 27/87/87 31/88/88 13/63/63 28/64/64
f 8/89/89 27/87/87 28/64/64 21/76/76
f 23/80/80 8/89/89 21/76/76 1/78/78
f 5/59/59 13/63/63 33/90/90 32/91/91
f 14/60/60 5/59/59 32/91/91 34/92/92
f 4/65/65 14/60/60 34/92/92 35/93/93
f 16/66/66 4/65/65 35/93/93 36/94/94
f 3/86/86 16/66/66 36/94/94 37/95/95
f 13/63/63 31/88/88 38/96/96 33/90/90
f 32/91/91 33/90/90 40/97/97 39/98/98
f 34/92/92 32/91/91 39/98/98 41/99/99
f 35/93/93 34/92/92 41/99/99 42/100/100
f 36/94/94 35/93/93 42/100/100 43/101/101
f 37/95/95 36/94/94 43/101/101 44/102/102
f 33/90/90 38/96/96 45/103/103 40/97/97
f 39/98/98 40/97/97 47/104/104 46/105/105
f 41/99/99 39/98/98 46/105/105 48/106/106
f 42/100/100 41/99/99 48/106/106 49/107/107
f 43/101/101 42/100/100 49/107/107 50/108/108
f 44/102/102 43/101/101 50/108/108 51/109/109
f 40/97/97 45/103/103 52/110/110 47/104/104
f 46/105/105 47/104/104 54/111/111 55/112/112
f 48/106/106 46/105/105 55/112/112 56/113/113
f 49/107/107 48/106/106 56/113/113 57/114/114
f 50/108/108 49/107/107 57/114/114 58/115/115
f 51/109/109 50/108/108 58/115/115 59/116/116
f 47/104/104 52/110/110 53/117/58 54/111/111
f 11/79/79 80/118/22 81/119/21 23/80/80
f 24/81/81 82/120/23 80/118/22 11/79/79
f 10/82/82 83/121/24 82/120/23 24/81/81
f 25/83/83 84/122/25 83/121/24 10/82/82
f 9/84/84 85/123/26 84/122/25 25/83/83
f 26/85/85 86/124/27 85/123/26 9/84/84
f 3/86/86 87/125/28 86/124/27 26/85/85
f 27/87/87 89/126/29 88/127/30 31/88/88
f 8/89/89 90/128/31 89/126/29 27/87/87
f 23/80/80 81/119/21 90/128/31 8/89/89
f 37/95/95 96/129/37 87/125/28 3/86/86
f 31/88/88 88/127/30 97/130/38 38/96/96
f 44/102/102 103/131/44 96/129/37 37/95/95
f 38/96/96 97/130/38 104/132/45 45/103/103
f 51/109/109 110/133/51 103/131/44 44/102/102
f 45/103/103 104/132/45 111/134/52 52/110/110
f 59/116/116 110/133/51 51/109/109
f 52/110/110 111/134/52 53/117/58
f 105/47/47 54/54/54 111/52/52
f 110/51/51 59/135/116 58/57/57
