# This file uses centimeters as units for non-parametric coordinates.

mtllib ChiliRUpperCanine.mtl
g default
v -0.403879 1.322531 -0.137118
v 0.260723 1.362017 -0.087251
v 0.578025 0.569310 -0.032949
v 0.219150 0.601364 0.256173
v -0.324564 0.569060 0.215376
v 0.123901 1.231654 0.102173
v -0.282359 1.207518 0.071689
v -0.569414 1.144920 -0.213302
v 0.455495 1.205812 -0.136399
v 0.120869 1.592768 -0.266597
v -0.267065 1.569720 -0.295705
v -0.073727 0.925571 0.246414
v -0.516354 0.538821 0.081204
v -0.056086 0.591477 0.275850
v -0.319988 0.904261 0.185056
v 0.430969 0.595104 0.152286
v 0.179696 0.933948 0.222549
v -0.083688 1.248535 0.123444
v 0.313893 1.201351 0.000131
v 0.093764 1.445632 -0.047369
v -0.450159 1.155956 -0.057199
v -0.255727 1.424867 -0.073593
v -0.430881 1.405373 -0.265131
v -0.075586 1.633506 -0.289357
v 0.296517 1.448589 -0.210552
v 0.555153 0.901848 -0.078397
v -0.640097 0.830835 -0.168081
v -0.517727 0.872575 0.042215
v 0.398818 0.927029 0.110987
v -0.084663 1.477701 -0.045028
v -0.630157 0.497529 -0.123603
v -0.284999 0.256826 0.178334
v -0.447953 0.250215 0.070956
v -0.033459 0.269399 0.229305
v 0.222574 0.286982 0.216420
v 0.399317 0.300553 0.134529
v 0.514740 0.303698 -0.023970
v -0.538081 0.241147 -0.102967
v -0.201827 0.045685 0.060272
v -0.319312 0.048807 -0.007662
v -0.010511 0.053352 0.094543
v 0.183331 0.068568 0.089172
v 0.308418 0.086102 0.039439
v 0.389081 0.089832 -0.051492
v -0.385428 0.043817 -0.109606
v -0.072716 -0.090892 -0.091059
v -0.141618 -0.089170 -0.116826
v 0.010702 -0.085854 -0.077948
v 0.095148 -0.080918 -0.078463
v 0.166430 -0.070868 -0.093712
v 0.210300 -0.058692 -0.117614
v -0.182573 -0.082033 -0.147092
v -0.053353 0.598126 0.234162
v -0.306904 0.577138 0.177331
v -0.070255 0.919408 0.205018
v -0.300782 0.899324 0.147525
v -0.483526 0.548867 0.053724
v -0.482493 0.870074 0.016169
v 0.401641 0.601457 0.120142
v 0.206516 0.607641 0.215854
v 0.368391 0.920627 0.080014
v 0.167001 0.927116 0.182624
v 0.111586 1.211769 0.066376
v -0.079722 1.228763 0.086233
v 0.285433 1.182653 -0.027731
v 0.236092 1.333655 -0.110670
v 0.081444 1.412389 -0.073122
v -0.080649 1.442848 -0.070921
v -0.262602 1.189537 0.038299
v -0.415871 1.140987 -0.080352
v -0.235886 1.393535 -0.096932
v -0.372874 1.297475 -0.156363
v -0.247332 1.533886 -0.311258
v -0.398818 1.379553 -0.280392
v -0.071961 1.593250 -0.305793
v 0.108027 1.554999 -0.284594
v 0.270346 1.419309 -0.230182
v 0.420858 1.188044 -0.157358
v 0.517333 0.896425 -0.100849
v 0.541696 0.575698 -0.057564
v -0.591579 0.508367 -0.142597
v -0.598986 0.830102 -0.184610
v -0.530196 1.131539 -0.228717
v -0.419492 0.269932 0.043508
v -0.269377 0.273985 0.141911
v -0.031410 0.285154 0.189523
v 0.210634 0.302503 0.177928
v 0.373133 0.317024 0.102981
v 0.482943 0.320553 -0.049942
v -0.504983 0.261857 -0.124070
v -0.297155 0.077756 -0.033777
v -0.190285 0.072727 0.027567
v -0.009439 0.079517 0.059540
v 0.173678 0.094351 0.054877
v 0.287137 0.112471 0.010065
v 0.362786 0.117028 -0.075699
v -0.359213 0.074132 -0.129873
v -0.114800 -0.062224 -0.189434
v -0.051243 -0.067427 -0.185552
v 0.017107 -0.068371 -0.177143
v 0.085354 -0.059311 -0.175303
v 0.147721 -0.046627 -0.169736
v 0.198210 -0.045139 -0.148697
v -0.167674 -0.066877 -0.176151
vt 0.100720 0.718912
vt 0.077955 0.717090
vt 0.078129 0.700027
vt 0.100439 0.700232
vt 0.101942 0.734362
vt 0.077515 0.733304
vt 0.101063 0.681560
vt 0.078268 0.682964
vt 0.078126 0.666745
vt 0.102568 0.666135
vt 0.055344 0.699818
vt 0.056313 0.685648
vt 0.055996 0.670857
vt 0.038875 0.687309
vt 0.042559 0.674239
vt 0.037018 0.699650
vt 0.055465 0.728786
vt 0.056052 0.714003
vt 0.038649 0.712022
vt 0.042092 0.725158
vt 0.031160 0.728695
vt 0.020022 0.714321
vt 0.017068 0.699467
vt 0.020294 0.684669
vt 0.031694 0.670502
vt 0.052285 0.657180
vt 0.077708 0.649502
vt 0.105356 0.650182
vt 0.076781 0.750536
vt 0.104437 0.750363
vt 0.051503 0.742392
vt 0.122356 0.717778
vt 0.123181 0.730597
vt 0.122415 0.700433
vt 0.122674 0.683091
vt 0.123734 0.670289
vt 0.127039 0.656956
vt 0.126240 0.743988
vt 0.139337 0.714427
vt 0.140451 0.723780
vt 0.139273 0.700588
vt 0.139591 0.686753
vt 0.140876 0.677422
vt 0.144463 0.669541
vt 0.143893 0.731726
vt 0.159270 0.706242
vt 0.158593 0.711239
vt 0.159425 0.700773
vt 0.159370 0.695302
vt 0.158785 0.690294
vt 0.158045 0.686038
vt 0.157775 0.715480
vt 0.269287 0.644648
vt 0.269737 0.625011
vt 0.292798 0.625085
vt 0.292811 0.643204
vt 0.267914 0.661326
vt 0.293119 0.660757
vt 0.269412 0.605372
vt 0.268147 0.588685
vt 0.293347 0.589415
vt 0.292926 0.606966
vt 0.315596 0.609874
vt 0.316341 0.625160
vt 0.316219 0.593861
vt 0.330331 0.597671
vt 0.333986 0.611709
vt 0.335734 0.625222
vt 0.315498 0.640440
vt 0.316019 0.656457
vt 0.333900 0.638722
vt 0.330155 0.652737
vt 0.352882 0.641192
vt 0.341209 0.656575
vt 0.356143 0.625287
vt 0.352984 0.609361
vt 0.341409 0.593903
vt 0.320224 0.579616
vt 0.293982 0.571436
vt 0.265514 0.572048
vt 0.293639 0.678739
vt 0.265175 0.677946
vt 0.319933 0.670727
vt 0.246252 0.656986
vt 0.247132 0.643109
vt 0.247075 0.624939
vt 0.247248 0.606769
vt 0.246458 0.592887
vt 0.243275 0.579019
vt 0.242981 0.670832
vt 0.228630 0.649775
vt 0.229264 0.639491
vt 0.229134 0.624881
vt 0.229358 0.610273
vt 0.228790 0.599984
vt 0.225586 0.591488
vt 0.225372 0.658251
vt 0.212416 0.638116
vt 0.212625 0.631919
vt 0.212865 0.624829
vt 0.212671 0.617737
vt 0.212503 0.611539
vt 0.212056 0.607290
vt 0.211942 0.642362
vt 0.355523 0.642617
vt 0.343273 0.658846
vt 0.359242 0.625297
vt 0.355633 0.607953
vt 0.343488 0.591647
vt 0.321866 0.576883
vt 0.294900 0.568361
vt 0.265570 0.568869
vt 0.294538 0.681820
vt 0.265211 0.681125
vt 0.321557 0.673471
vt 0.242133 0.576086
vt 0.241821 0.673758
vt 0.223459 0.589096
vt 0.223229 0.660629
vt 0.209900 0.605717
vt 0.209776 0.643922
vn 0.388080 0.024223 -0.921307
vn 0.428726 -0.219837 -0.876279
vn 0.086113 -0.223139 -0.970976
vn 0.073718 0.018497 -0.997108
vn 0.743606 0.045751 -0.667051
vn 0.741506 -0.200168 -0.640392
vn -0.246885 -0.013502 -0.968951
vn -0.264751 -0.261038 -0.928314
vn -0.609246 -0.280419 -0.741744
vn -0.636300 -0.036233 -0.770591
vn 0.093615 -0.461599 -0.882135
vn -0.269044 -0.470820 -0.840205
vn -0.555345 -0.465256 -0.689296
vn -0.266031 -0.686951 -0.676259
vn -0.504157 -0.593103 -0.627737
vn 0.094173 -0.729580 -0.677381
vn 0.702547 -0.390522 -0.594912
vn 0.444539 -0.428424 -0.786662
vn 0.442651 -0.644846 -0.623084
vn 0.658189 -0.524044 -0.540523
vn 0.461517 -0.500759 -0.732285
vn 0.325944 -0.630437 -0.704492
vn 0.094787 -0.693786 -0.713916
vn -0.141034 -0.658182 -0.739531
vn -0.285282 -0.545128 -0.788321
vn -0.463588 -0.403273 -0.788960
vn -0.594960 -0.253199 -0.762832
vn -0.637906 -0.048612 -0.768579
vn 0.727411 -0.174634 -0.663609
vn 0.746341 0.033629 -0.664713
vn 0.619978 -0.338895 -0.707656
vn 0.327015 0.309051 -0.893056
vn 0.674876 0.342037 -0.653876
vn 0.053880 0.297101 -0.953325
vn -0.224666 0.276274 -0.934451
vn -0.605664 0.265956 -0.749959
vn -0.596320 0.203046 -0.776643
vn 0.677078 0.278703 -0.681095
vn 0.215818 0.680514 -0.700231
vn 0.481500 0.672764 -0.561735
vn 0.015788 0.670747 -0.741518
vn -0.187901 0.656527 -0.730524
vn -0.468441 0.616326 -0.633013
vn -0.367753 0.446119 -0.815926
vn 0.429881 0.493508 -0.756077
vn 0.109573 0.856233 -0.504836
vn 0.243570 0.849117 -0.468694
vn -0.010793 0.848947 -0.528367
vn -0.133331 0.841801 -0.523062
vn -0.269432 0.818638 -0.507187
vn -0.141259 0.634151 -0.760197
vn 0.177074 0.653066 -0.736308
vn -0.390539 -0.026735 0.920198
vn -0.073622 -0.020085 0.997084
vn -0.086026 0.221057 0.971459
vn -0.429385 0.216554 0.876774
vn -0.738982 -0.049474 0.671906
vn -0.738715 0.195714 0.644977
vn 0.249760 0.011307 0.968242
vn 0.631476 0.031947 0.774737
vn 0.606349 0.275627 0.745903
vn 0.265711 0.257851 0.928930
vn 0.266633 0.469602 0.841654
vn -0.093618 0.461786 0.882037
vn 0.553655 0.462059 0.692797
vn 0.502640 0.593674 0.628415
vn 0.260682 0.687555 0.677726
vn -0.094196 0.728479 0.678561
vn -0.442245 0.427486 0.788464
vn -0.701033 0.387514 0.598653
vn -0.437688 0.646064 0.625325
vn -0.656867 0.524784 0.541413
vn -0.462382 0.817352 0.343715
vn -0.750387 0.615270 0.241585
vn -0.084826 0.907117 0.412242
vn 0.306636 0.863040 0.401417
vn 0.628392 0.697187 0.345042
vn 0.787593 0.458997 0.411119
vn 0.849461 0.250027 0.464652
vn 0.880717 0.002453 0.473637
vn -0.932576 0.144153 0.330940
vn -0.935450 -0.105449 0.337363
vn -0.888477 0.359416 0.285357
vn -0.668912 -0.344065 0.658920
vn -0.329473 -0.309878 0.891865
vn -0.053873 -0.297186 0.953299
vn 0.227354 -0.276796 0.933646
vn 0.599297 -0.268717 0.754079
vn 0.858371 -0.295664 0.419263
vn -0.870322 -0.398372 0.289551
vn -0.510204 -0.661332 0.549848
vn -0.234066 -0.636916 0.734542
vn -0.022366 -0.617010 0.786638
vn 0.195581 -0.611389 0.766780
vn 0.497046 -0.601488 0.625426
vn 0.747764 -0.609423 0.263539
vn -0.701620 -0.695536 0.154785
vn -0.334233 -0.818862 0.466641
vn -0.142715 -0.791071 0.594844
vn -0.001616 -0.773394 0.633923
vn 0.144813 -0.773988 0.616419
vn 0.355190 -0.777901 0.518372
vn 0.609415 -0.781967 0.130926
vn -0.525747 -0.849410 0.045753
s 1
g FoodRUpperCaninesOverbite
usemtl blinn3SG
f 54/1/1 56/2/2 55/3/3 53/4/4
f 57/5/5 58/6/6 56/2/2 54/1/1
f 60/7/7 62/8/8 61/9/9 59/10/10
f 53/4/4 55/3/3 62/8/8 60/7/7
f 55/3/3 64/11/11 63/12/12 62/8/8
f 62/8/8 63/12/12 65/13/13 61/9/9
f 63/12/12 67/14/14 66/15/15 65/13/13
f 64/11/11 68/16/16 67/14/14 63/12/12
f 58/6/6 70/17/17 69/18/18 56/2/2
f 56/2/2 69/18/18 64/11/11 55/3/3
f 69/18/18 71/19/19 68/16/16 64/11/11
f 70/17/17 72/20/20 71/19/19 69/18/18
f 72/20/20 74/21/21 73/22/22 71/19/19
f 71/19/19 73/22/22 75/23/23 68/16/16
f 68/16/16 75/23/23 76/24/24 67/14/14
f 67/14/14 76/24/24 77/25/25 66/15/15
f 78/26/26 65/13/13 66/15/15 77/25/25
f 79/27/27 61/9/9 65/13/13 78/26/26
f 80/28/28 59/10/10 61/9/9 79/27/27
f 82/29/29 58/6/6 57/5/5 81/30/30
f 83/31/31 70/17/17 58/6/6 82/29/29
f 74/21/21 72/20/20 70/17/17 83/31/31
f 54/1/1 85/32/32 84/33/33 57/5/5
f 53/4/4 86/34/34 85/32/32 54/1/1
f 60/7/7 87/35/35 86/34/34 53/4/4
f 59/10/10 88/36/36 87/35/35 60/7/7
f 80/28/28 89/37/37 88/36/36 59/10/10
f 57/5/5 84/33/33 90/38/38 81/30/30
f 85/32/32 92/39/39 91/40/40 84/33/33
f 86/34/34 93/41/41 92/39/39 85/32/32
f 87/35/35 94/42/42 93/41/41 86/34/34
f 88/36/36 95/43/43 94/42/42 87/35/35
f 89/37/37 96/44/44 95/43/43 88/36/36
f 84/33/33 91/40/40 97/45/45 90/38/38
f 92/39/39 99/46/46 98/47/47 91/40/40
f 93/41/41 100/48/48 99/46/46 92/39/39
f 94/42/42 101/49/49 100/48/48 93/41/41
f 95/43/43 102/50/50 101/49/49 94/42/42
f 96/44/44 103/51/51 102/50/50 95/43/43
f 91/40/40 98/47/47 104/52/52 97/45/45
f 5/53/53 14/54/54 12/55/55 15/56/56
f 13/57/57 5/53/53 15/56/56 28/58/58
f 4/59/59 16/60/60 29/61/61 17/62/62
f 14/54/54 4/59/59 17/62/62 12/55/55
f 12/55/55 17/62/62 6/63/63 18/64/64
f 17/62/62 29/61/61 19/65/65 6/63/63
f 6/63/63 19/65/65 2/66/66 20/67/67
f 18/64/64 6/63/63 20/67/67 30/68/68
f 28/58/58 15/56/56 7/69/69 21/70/70
f 15/56/56 12/55/55 18/64/64 7/69/69
f 7/69/69 18/64/64 30/68/68 22/71/71
f 21/70/70 7/69/69 22/71/71 1/72/72
f 1/72/72 22/71/71 11/73/73 23/74/74
f 22/71/71 30/68/68 24/75/75 11/73/73
f 30/68/68 20/67/67 10/76/76 24/75/75
f 20/67/67 2/66/66 25/77/77 10/76/76
f 9/78/78 25/77/77 2/66/66 19/65/65
f 26/79/79 9/78/78 19/65/65 29/61/61
f 3/80/80 26/79/79 29/61/61 16/60/60
f 27/81/81 31/82/82 13/57/57 28/58/58
f 8/83/83 27/81/81 28/58/58 21/70/70
f 23/74/74 8/83/83 21/70/70 1/72/72
f 5/53/53 13/57/57 33/84/84 32/85/85
f 14/54/54 5/53/53 32/85/85 34/86/86
f 4/59/59 14/54/54 34/86/86 35/87/87
f 16/60/60 4/59/59 35/87/87 36/88/88
f 3/80/80 16/60/60 36/88/88 37/89/89
f 13/57/57 31/82/82 38/90/90 33/84/84
f 32/85/85 33/84/84 40/91/91 39/92/92
f 34/86/86 32/85/85 39/92/92 41/93/93
f 35/87/87 34/86/86 41/93/93 42/94/94
f 36/88/88 35/87/87 42/94/94 43/95/95
f 37/89/89 36/88/88 43/95/95 44/96/96
f 33/84/84 38/90/90 45/97/97 40/91/91
f 39/92/92 40/91/91 47/98/98 46/99/99
f 41/93/93 39/92/92 46/99/99 48/100/100
f 42/94/94 41/93/93 48/100/100 49/101/101
f 43/95/95 42/94/94 49/101/101 50/102/102
f 44/96/96 43/95/95 50/102/102 51/103/103
f 40/91/91 45/97/97 52/104/104 47/98/98
f 11/73/73 73/105/22 74/106/21 23/74/74
f 24/75/75 75/107/23 73/105/22 11/73/73
f 10/76/76 76/108/24 75/107/23 24/75/75
f 25/77/77 77/109/25 76/108/24 10/76/76
f 9/78/78 78/110/26 77/109/25 25/77/77
f 26/79/79 79/111/27 78/110/26 9/78/78
f 3/80/80 80/112/28 79/111/27 26/79/79
f 27/81/81 82/113/29 81/114/30 31/82/82
f 8/83/83 83/115/31 82/113/29 27/81/81
f 23/74/74 74/106/21 83/115/31 8/83/83
f 37/89/89 89/116/37 80/112/28 3/80/80
f 31/82/82 81/114/30 90/117/38 38/90/90
f 44/96/96 96/118/44 89/116/37 37/89/89
f 38/90/90 90/117/38 97/119/45 45/97/97
f 51/103/103 103/120/51 96/118/44 44/96/96
f 45/97/97 97/119/45 104/121/52 52/104/104
