# This file uses centimeters as units for non-parametric coordinates.

mtllib ChiliShortRLowerLeg.mtl
g default
v -0.606633 0.291878 -0.071417
v -0.606633 -0.291437 -0.071417
v 0.101627 -0.529984 -0.086999
v 0.060574 -0.238385 -0.363027
v 0.060574 0.238827 -0.363027
v -0.496567 -0.178065 -0.243710
v -0.496567 0.178506 -0.243710
v -0.461430 0.449996 -0.013605
v -0.461430 -0.449555 -0.013605
v -0.818044 -0.170022 0.072432
v -0.818044 0.170463 0.072432
v -0.237117 0.000221 -0.378290
v 0.074926 0.415948 -0.258433
v 0.055637 0.000221 -0.398244
v -0.232038 0.219504 -0.340849
v 0.074926 -0.415507 -0.258433
v -0.232038 -0.219063 -0.340849
v -0.521404 0.000221 -0.276203
v -0.462318 -0.335080 -0.141842
v -0.687290 -0.153152 -0.118335
v -0.462318 0.335521 -0.141842
v -0.687290 0.153593 -0.118335
v -0.682465 0.319435 0.037185
v -0.863888 0.000221 0.078709
v -0.682465 -0.318994 0.037185
v -0.190312 -0.524309 -0.053423
v -0.190312 0.524751 -0.053423
v -0.216876 0.402442 -0.229077
v -0.216876 -0.402000 -0.229077
v -0.724228 0.000221 -0.132614
v 0.101627 0.530425 -0.086999
v 0.334217 0.222966 -0.323918
v 0.329885 0.372041 -0.241075
v 0.336842 0.000221 -0.351846
v 0.334217 -0.222525 -0.323918
v 0.329885 -0.371600 -0.241075
v 0.330217 -0.461805 -0.095414
v 0.330217 0.462246 -0.095414
v 0.520494 0.169245 -0.212716
v 0.510657 0.275697 -0.161355
v 0.524066 0.000221 -0.230015
v 0.520494 -0.168804 -0.212716
v 0.510657 -0.275255 -0.161355
v 0.509897 -0.339668 -0.076861
v 0.509897 0.340110 -0.076861
v 0.643488 0.073887 -0.070504
v 0.638058 0.135406 -0.052640
v 0.643536 0.000221 -0.076474
v 0.643488 -0.073446 -0.070504
v 0.638058 -0.134964 -0.052640
v 0.629240 -0.172190 -0.029082
v 0.629240 0.172631 -0.029082
v 0.747525 0.104863 0.001982
v 0.758126 0.083162 0.004041
v 0.758132 0.043975 0.003846
v 0.758116 0.000221 0.004931
v 0.758132 -0.043534 0.003846
v 0.758126 -0.082721 0.004041
v 0.747525 -0.104422 0.001982
v 0.049252 0.000221 -0.361840
v 0.053761 0.225533 -0.328827
v -0.232287 0.000221 -0.341918
v -0.227415 0.205504 -0.306817
v 0.067345 0.388672 -0.232459
v -0.213368 0.373626 -0.204022
v 0.067345 -0.388231 -0.232459
v 0.053761 -0.225091 -0.328827
v -0.213368 -0.373185 -0.204022
v -0.227415 -0.205064 -0.306817
v -0.480469 -0.163990 -0.213074
v -0.504607 0.000221 -0.243258
v -0.447934 -0.307543 -0.119203
v -0.583551 -0.267021 -0.052263
v -0.659370 -0.139038 -0.096268
v -0.694081 0.000221 -0.109322
v -0.480469 0.164432 -0.213074
v -0.447934 0.307984 -0.119203
v -0.659370 0.139479 -0.096268
v -0.583551 0.267462 -0.052263
v -0.786069 0.156168 0.087771
v -0.658594 0.293880 0.052949
v -0.828885 0.000221 0.093811
v -0.786069 -0.155727 0.087771
v -0.658594 -0.293439 0.052949
v -0.448048 -0.417145 0.002601
v -0.187884 -0.489670 -0.036294
v 0.093794 -0.497112 -0.068048
v 0.093794 0.497553 -0.068048
v -0.187884 0.490112 -0.036294
v -0.448048 0.417586 0.002600
v 0.313651 0.348060 -0.215549
v 0.319409 0.210871 -0.291389
v 0.322515 0.000221 -0.317269
v 0.319409 -0.210430 -0.291389
v 0.313651 -0.347619 -0.215549
v 0.313462 -0.433326 -0.075122
v 0.313462 0.433768 -0.075122
v 0.486076 0.256634 -0.137533
v 0.496926 0.159944 -0.183829
v 0.500694 0.000221 -0.199808
v 0.496926 -0.159502 -0.183829
v 0.486076 -0.256193 -0.137533
v 0.484432 -0.316625 -0.057881
v 0.484432 0.317066 -0.057881
v 0.614653 0.115426 0.012017
v 0.622467 0.060165 0.012911
v 0.626889 0.000221 0.010121
v 0.622467 -0.059724 0.012911
v 0.614653 -0.114985 0.012017
v 0.616271 -0.160345 -0.002990
v 0.616271 0.160787 -0.002990
vt 0.100720 0.565340
vt 0.077955 0.563518
vt 0.078129 0.546456
vt 0.100439 0.546660
vt 0.101942 0.580790
vt 0.077515 0.579732
vt 0.101063 0.527988
vt 0.078268 0.529393
vt 0.078126 0.513173
vt 0.102568 0.512564
vt 0.055344 0.546246
vt 0.056313 0.532077
vt 0.055996 0.517286
vt 0.038876 0.533737
vt 0.042559 0.520667
vt 0.037018 0.546078
vt 0.055465 0.575214
vt 0.056052 0.560431
vt 0.038649 0.558451
vt 0.042092 0.571586
vt 0.031160 0.575123
vt 0.020022 0.560749
vt 0.017068 0.545895
vt 0.020294 0.531097
vt 0.031694 0.516931
vt 0.052285 0.503609
vt 0.077708 0.495930
vt 0.105357 0.496610
vt 0.076781 0.596964
vt 0.104437 0.596792
vt 0.051503 0.588821
vt 0.122356 0.564207
vt 0.123181 0.577025
vt 0.122415 0.546862
vt 0.122674 0.529519
vt 0.123734 0.516718
vt 0.127039 0.503385
vt 0.126240 0.590417
vt 0.139337 0.560856
vt 0.140451 0.570208
vt 0.139273 0.547017
vt 0.139591 0.533181
vt 0.140876 0.523851
vt 0.144463 0.515969
vt 0.143893 0.578154
vt 0.159270 0.552670
vt 0.158593 0.557667
vt 0.159425 0.547201
vt 0.159370 0.541730
vt 0.158785 0.536722
vt 0.158045 0.532467
vt 0.157775 0.561908
vt 0.170110 0.551017
vt 0.170100 0.554407
vt 0.170137 0.547299
vt 0.170178 0.543581
vt 0.170229 0.540192
vt 0.170153 0.557419
vt 0.269287 0.794784
vt 0.269737 0.775148
vt 0.292798 0.775221
vt 0.292811 0.793341
vt 0.267914 0.811463
vt 0.293119 0.810894
vt 0.269412 0.755509
vt 0.268147 0.738822
vt 0.293347 0.739552
vt 0.292926 0.757103
vt 0.315596 0.760011
vt 0.316341 0.775297
vt 0.316219 0.743998
vt 0.330331 0.747808
vt 0.333986 0.761846
vt 0.335734 0.775358
vt 0.315498 0.790577
vt 0.316019 0.806594
vt 0.333900 0.788859
vt 0.330155 0.802874
vt 0.352882 0.791329
vt 0.341209 0.806712
vt 0.356143 0.775424
vt 0.352984 0.759498
vt 0.341409 0.744040
vt 0.320224 0.729753
vt 0.293982 0.721573
vt 0.265514 0.722185
vt 0.293639 0.828876
vt 0.265175 0.828083
vt 0.319933 0.820864
vt 0.246252 0.807123
vt 0.247132 0.793246
vt 0.247075 0.775075
vt 0.247248 0.756905
vt 0.246457 0.743024
vt 0.243275 0.729156
vt 0.242981 0.820969
vt 0.228630 0.799912
vt 0.229264 0.789628
vt 0.229134 0.775018
vt 0.229358 0.760409
vt 0.228790 0.750121
vt 0.225586 0.741625
vt 0.225372 0.808388
vt 0.212416 0.788253
vt 0.212625 0.782056
vt 0.212865 0.774966
vt 0.212671 0.767874
vt 0.212503 0.761676
vt 0.212056 0.757427
vt 0.211942 0.792499
vt 0.202905 0.782192
vt 0.202935 0.778750
vt 0.202951 0.774934
vt 0.202961 0.771117
vt 0.202954 0.767674
vt 0.202966 0.764267
vt 0.202893 0.785599
vt 0.355523 0.792754
vt 0.343273 0.808982
vt 0.359242 0.775433
vt 0.355633 0.758090
vt 0.343488 0.741783
vt 0.321866 0.727019
vt 0.294900 0.718498
vt 0.265570 0.719005
vt 0.294538 0.831957
vt 0.265211 0.831262
vt 0.321558 0.823608
vt 0.242133 0.726223
vt 0.241821 0.823895
vt 0.223459 0.739233
vt 0.223229 0.810766
vt 0.209900 0.755854
vt 0.209776 0.794059
vt 0.170338 0.537182
vn -0.293185 -0.328487 0.897852
vn -0.014268 -0.342287 0.939487
vn -0.015342 -0.000000 0.999882
vn -0.290735 -0.000000 0.956804
vn -0.276320 -0.695135 0.663653
vn -0.010294 -0.736222 0.676662
vn -0.014268 -0.342287 0.939487
vn -0.293185 -0.328487 0.897852
vn -0.293185 0.328487 0.897852
vn -0.014268 0.342287 0.939487
vn -0.010294 0.736222 0.676662
vn -0.276320 0.695135 0.663653
vn -0.290735 -0.000000 0.956804
vn -0.015342 -0.000000 0.999882
vn -0.014268 0.342287 0.939487
vn -0.293185 0.328487 0.897852
vn -0.015342 -0.000000 0.999882
vn 0.278083 0.000000 0.960557
vn 0.264391 0.334353 0.904602
vn -0.014268 0.342287 0.939487
vn -0.014268 0.342287 0.939487
vn 0.264391 0.334353 0.904602
vn 0.245334 0.707875 0.662363
vn -0.010294 0.736222 0.676662
vn 0.264391 0.334353 0.904602
vn 0.618043 0.329176 0.713909
vn 0.499052 0.618496 0.606968
vn 0.245334 0.707875 0.662363
vn 0.278083 0.000000 0.960557
vn 0.663095 -0.000000 0.748535
vn 0.618043 0.329176 0.713909
vn 0.264391 0.334353 0.904602
vn -0.010294 -0.736222 0.676662
vn 0.245333 -0.707875 0.662363
vn 0.264391 -0.334353 0.904602
vn -0.014268 -0.342287 0.939487
vn -0.014268 -0.342287 0.939487
vn 0.264391 -0.334353 0.904602
vn 0.278083 0.000000 0.960557
vn -0.015342 -0.000000 0.999882
vn 0.264391 -0.334353 0.904602
vn 0.618043 -0.329176 0.713909
vn 0.663095 -0.000000 0.748535
vn 0.278083 0.000000 0.960557
vn 0.245333 -0.707875 0.662363
vn 0.499052 -0.618496 0.606968
vn 0.618043 -0.329176 0.713909
vn 0.264391 -0.334353 0.904602
vn 0.499052 -0.618496 0.606968
vn 0.425791 -0.509002 0.748077
vn 0.636647 -0.264354 0.724429
vn 0.618043 -0.329176 0.713909
vn 0.618043 -0.329176 0.713909
vn 0.636647 -0.264354 0.724429
vn 0.706657 0.000000 0.707556
vn 0.663095 -0.000000 0.748535
vn 0.663095 -0.000000 0.748535
vn 0.706657 0.000000 0.707556
vn 0.636647 0.264355 0.724429
vn 0.618043 0.329176 0.713909
vn 0.618043 0.329176 0.713909
vn 0.636647 0.264355 0.724429
vn 0.425791 0.509002 0.748077
vn 0.499052 0.618496 0.606968
vn 0.200898 0.712528 0.672268
vn 0.245334 0.707875 0.662363
vn 0.499052 0.618496 0.606968
vn 0.425791 0.509002 0.748077
vn -0.009312 0.776715 0.629784
vn -0.010294 0.736222 0.676662
vn 0.245334 0.707875 0.662363
vn 0.200898 0.712528 0.672268
vn -0.214776 0.730266 0.648524
vn -0.276320 0.695135 0.663653
vn -0.010294 0.736222 0.676662
vn -0.009312 0.776715 0.629784
vn -0.009312 -0.776715 0.629784
vn -0.010294 -0.736222 0.676662
vn -0.276320 -0.695135 0.663653
vn -0.214776 -0.730266 0.648524
vn 0.200897 -0.712528 0.672268
vn 0.245333 -0.707875 0.662363
vn -0.010294 -0.736222 0.676662
vn -0.009312 -0.776715 0.629784
vn 0.425791 -0.509002 0.748077
vn 0.499052 -0.618496 0.606968
vn 0.245333 -0.707875 0.662363
vn 0.200897 -0.712528 0.672268
vn -0.293185 -0.328487 0.897852
vn -0.470409 -0.302281 0.829060
vn -0.470414 -0.614321 0.633499
vn -0.276320 -0.695135 0.663653
vn -0.290735 -0.000000 0.956804
vn -0.466522 -0.000000 0.884510
vn -0.470409 -0.302281 0.829060
vn -0.293185 -0.328487 0.897852
vn -0.293185 0.328487 0.897852
vn -0.470409 0.302281 0.829060
vn -0.466522 -0.000000 0.884510
vn -0.290735 -0.000000 0.956804
vn -0.276320 0.695135 0.663653
vn -0.470414 0.614321 0.633499
vn -0.470409 0.302281 0.829060
vn -0.293185 0.328487 0.897852
vn -0.214776 0.730266 0.648524
vn -0.382893 0.606801 0.696553
vn -0.470414 0.614321 0.633499
vn -0.276320 0.695135 0.663653
vn -0.276320 -0.695135 0.663653
vn -0.470414 -0.614321 0.633499
vn -0.382893 -0.606801 0.696553
vn -0.214776 -0.730266 0.648524
vn -0.470409 -0.302281 0.829060
vn -0.696541 -0.216012 0.684229
vn -0.678037 -0.448542 0.582302
vn -0.470414 -0.614321 0.633499
vn -0.466522 -0.000000 0.884510
vn -0.704253 -0.000000 0.709949
vn -0.696541 -0.216012 0.684229
vn -0.470409 -0.302281 0.829060
vn -0.470409 0.302281 0.829060
vn -0.696541 0.216012 0.684229
vn -0.704253 -0.000000 0.709949
vn -0.466522 -0.000000 0.884510
vn -0.470414 0.614321 0.633499
vn -0.678037 0.448542 0.582302
vn -0.696541 0.216012 0.684229
vn -0.470409 0.302281 0.829060
vn -0.382893 0.606801 0.696553
vn -0.553583 0.336773 0.761662
vn -0.678037 0.448542 0.582302
vn -0.470414 0.614321 0.633499
vn -0.470414 -0.614321 0.633499
vn -0.678037 -0.448542 0.582302
vn -0.553583 -0.336773 0.761662
vn -0.382893 -0.606801 0.696553
vn -0.696541 -0.216012 0.684229
vn -0.768023 -0.086621 0.634537
vn -0.753955 -0.131993 0.643529
vn -0.678037 -0.448542 0.582302
vn -0.704253 -0.000000 0.709949
vn -0.785630 -0.000000 0.618697
vn -0.768023 -0.086621 0.634537
vn -0.696541 -0.216012 0.684229
vn -0.696541 0.216012 0.684229
vn -0.768023 0.086621 0.634537
vn -0.785630 -0.000000 0.618697
vn -0.704253 -0.000000 0.709949
vn -0.678037 0.448542 0.582302
vn -0.753955 0.131993 0.643529
vn -0.768023 0.086621 0.634537
vn -0.696541 0.216012 0.684229
vn -0.553583 0.336773 0.761662
vn -0.573531 -0.021054 0.818913
vn -0.753955 0.131993 0.643529
vn -0.678037 0.448542 0.582302
vn -0.678037 -0.448542 0.582302
vn -0.753955 -0.131993 0.643529
vn -0.573531 0.021054 0.818913
vn -0.553583 -0.336773 0.761662
vn -0.768023 -0.086621 0.634537
vn 0.003070 0.137905 0.990441
vn 0.006132 0.452905 0.891538
vn -0.753955 -0.131993 0.643529
vn -0.785630 -0.000000 0.618697
vn 0.000684 0.000000 1.000000
vn 0.003070 0.137905 0.990441
vn -0.768023 -0.086621 0.634537
vn -0.768023 0.086621 0.634537
vn 0.003070 -0.137905 0.990441
vn 0.000684 0.000000 1.000000
vn -0.785630 -0.000000 0.618697
vn -0.753955 0.131993 0.643529
vn 0.006132 -0.452904 0.891538
vn 0.003070 -0.137905 0.990441
vn -0.768023 0.086621 0.634537
vn -0.573531 -0.021054 0.818913
vn 0.006132 -0.452904 0.891538
vn -0.753955 0.131993 0.643529
vn -0.573531 0.021054 0.818913
vn 0.006132 0.452905 0.891538
vn 0.008818 0.889009 0.457805
vn 0.291845 0.331586 -0.897150
vn 0.289489 0.000000 -0.957181
vn 0.014665 0.000000 -0.999892
vn 0.013840 0.345200 -0.938427
vn 0.275701 0.691524 -0.667670
vn 0.291845 0.331586 -0.897150
vn 0.013840 0.345200 -0.938427
vn 0.010216 0.732160 -0.681056
vn 0.291846 -0.331586 -0.897149
vn 0.275701 -0.691524 -0.667670
vn 0.010216 -0.732160 -0.681056
vn 0.013840 -0.345200 -0.938427
vn 0.289489 0.000000 -0.957181
vn 0.291846 -0.331586 -0.897149
vn 0.013840 -0.345200 -0.938427
vn 0.014665 0.000000 -0.999892
vn 0.014665 0.000000 -0.999892
vn 0.013840 -0.345200 -0.938427
vn -0.266337 -0.335446 -0.903626
vn -0.281259 0.000000 -0.959632
vn 0.013840 -0.345200 -0.938427
vn 0.010216 -0.732160 -0.681056
vn -0.245803 -0.703882 -0.666431
vn -0.266337 -0.335446 -0.903626
vn -0.266337 -0.335446 -0.903626
vn -0.245803 -0.703882 -0.666431
vn -0.499117 -0.615986 -0.609462
vn -0.616225 -0.327827 -0.716097
vn -0.281259 0.000000 -0.959632
vn -0.266337 -0.335446 -0.903626
vn -0.616225 -0.327827 -0.716097
vn -0.660867 -0.000000 -0.750503
vn 0.010216 0.732160 -0.681056
vn 0.013840 0.345200 -0.938427
vn -0.266337 0.335446 -0.903626
vn -0.245803 0.703882 -0.666431
vn 0.013840 0.345200 -0.938427
vn 0.014665 0.000000 -0.999892
vn -0.281259 0.000000 -0.959632
vn -0.266337 0.335446 -0.903626
vn -0.266337 0.335446 -0.903626
vn -0.281259 0.000000 -0.959632
vn -0.660867 -0.000000 -0.750503
vn -0.616225 0.327827 -0.716097
vn -0.245803 0.703882 -0.666431
vn -0.266337 0.335446 -0.903626
vn -0.616225 0.327827 -0.716097
vn -0.499117 0.615986 -0.609462
vn -0.499117 0.615986 -0.609462
vn -0.616225 0.327827 -0.716097
vn -0.841611 0.350635 -0.410787
vn -0.605925 0.715619 -0.347484
vn -0.616225 0.327827 -0.716097
vn -0.660867 -0.000000 -0.750503
vn -0.899448 0.000000 -0.437029
vn -0.841611 0.350635 -0.410787
vn -0.660867 -0.000000 -0.750503
vn -0.616225 -0.327827 -0.716097
vn -0.841611 -0.350635 -0.410787
vn -0.899448 0.000000 -0.437029
vn -0.616225 -0.327827 -0.716097
vn -0.499117 -0.615986 -0.609462
vn -0.605925 -0.715619 -0.347484
vn -0.841611 -0.350635 -0.410787
vn -0.264024 -0.904322 -0.335400
vn -0.605925 -0.715619 -0.347484
vn -0.499117 -0.615986 -0.609462
vn -0.245803 -0.703882 -0.666431
vn 0.005022 -0.940482 -0.339807
vn -0.264024 -0.904322 -0.335400
vn -0.245803 -0.703882 -0.666431
vn 0.010216 -0.732160 -0.681056
vn 0.260040 -0.908105 -0.328214
vn 0.005022 -0.940482 -0.339807
vn 0.010216 -0.732160 -0.681056
vn 0.275701 -0.691524 -0.667670
vn 0.005022 0.940482 -0.339807
vn 0.260040 0.908105 -0.328213
vn 0.275701 0.691524 -0.667670
vn 0.010216 0.732160 -0.681056
vn -0.264024 0.904322 -0.335400
vn 0.005022 0.940482 -0.339807
vn 0.010216 0.732160 -0.681056
vn -0.245803 0.703882 -0.666431
vn -0.605925 0.715619 -0.347484
vn -0.264024 0.904322 -0.335400
vn -0.245803 0.703882 -0.666431
vn -0.499117 0.615986 -0.609462
vn 0.291845 0.331586 -0.897150
vn 0.275701 0.691524 -0.667670
vn 0.471472 0.611108 -0.635815
vn 0.471114 0.304742 -0.827758
vn 0.289489 0.000000 -0.957181
vn 0.291845 0.331586 -0.897150
vn 0.471114 0.304742 -0.827758
vn 0.467382 0.000000 -0.884056
vn 0.291846 -0.331586 -0.897149
vn 0.289489 0.000000 -0.957181
vn 0.467382 0.000000 -0.884056
vn 0.471114 -0.304742 -0.827758
vn 0.275701 -0.691524 -0.667670
vn 0.291846 -0.331586 -0.897149
vn 0.471114 -0.304742 -0.827758
vn 0.471472 -0.611108 -0.635815
vn 0.260040 -0.908105 -0.328214
vn 0.275701 -0.691524 -0.667670
vn 0.471472 -0.611108 -0.635815
vn 0.471972 -0.827638 -0.303741
vn 0.275701 0.691524 -0.667670
vn 0.260040 0.908105 -0.328213
vn 0.471972 0.827638 -0.303741
vn 0.471472 0.611108 -0.635815
vn 0.471114 0.304742 -0.827758
vn 0.471472 0.611108 -0.635815
vn 0.664280 0.476057 -0.576283
vn 0.664556 0.230384 -0.710837
vn 0.467382 0.000000 -0.884056
vn 0.471114 0.304742 -0.827758
vn 0.664556 0.230384 -0.710837
vn 0.668325 0.000000 -0.743869
vn 0.471114 -0.304742 -0.827758
vn 0.467382 0.000000 -0.884056
vn 0.668325 0.000000 -0.743869
vn 0.664556 -0.230384 -0.710837
vn 0.471472 -0.611108 -0.635815
vn 0.471114 -0.304742 -0.827758
vn 0.664556 -0.230384 -0.710837
vn 0.664280 -0.476057 -0.576283
vn 0.471972 -0.827638 -0.303741
vn 0.471472 -0.611108 -0.635815
vn 0.664280 -0.476057 -0.576283
vn 0.673456 -0.720370 -0.165907
vn 0.471472 0.611108 -0.635815
vn 0.471972 0.827638 -0.303741
vn 0.673456 0.720370 -0.165907
vn 0.664280 0.476057 -0.576283
vn 0.664556 0.230384 -0.710837
vn 0.664280 0.476057 -0.576283
vn 0.753557 0.369052 -0.544016
vn 0.750261 0.152536 -0.643305
vn 0.668325 0.000000 -0.743869
vn 0.664556 0.230384 -0.710837
vn 0.750261 0.152536 -0.643305
vn 0.752195 0.000000 -0.658940
vn 0.664556 -0.230384 -0.710837
vn 0.668325 0.000000 -0.743869
vn 0.752195 0.000000 -0.658940
vn 0.750261 -0.152536 -0.643305
vn 0.664280 -0.476057 -0.576283
vn 0.664556 -0.230384 -0.710837
vn 0.750261 -0.152536 -0.643305
vn 0.753557 -0.369052 -0.544016
vn 0.673456 -0.720370 -0.165907
vn 0.664280 -0.476057 -0.576283
vn 0.753557 -0.369052 -0.544016
vn 0.716233 -0.691409 -0.094675
vn 0.664280 0.476057 -0.576283
vn 0.673456 0.720370 -0.165907
vn 0.716233 0.691409 -0.094675
vn 0.753557 0.369052 -0.544016
vn 0.750261 0.152536 -0.643305
vn 0.753557 0.369052 -0.544016
vn -0.006309 0.434701 -0.900553
vn -0.014185 0.119889 -0.992686
vn 0.752195 0.000000 -0.658940
vn 0.750261 0.152536 -0.643305
vn -0.014185 0.119889 -0.992686
vn -0.014163 0.000000 -0.999900
vn 0.750261 -0.152536 -0.643305
vn 0.752195 0.000000 -0.658940
vn -0.014163 0.000000 -0.999900
vn -0.014185 -0.119889 -0.992686
vn 0.753557 -0.369052 -0.544016
vn 0.750261 -0.152536 -0.643305
vn -0.014185 -0.119889 -0.992686
vn -0.006308 -0.434701 -0.900553
vn 0.716233 -0.691409 -0.094675
vn 0.753557 -0.369052 -0.544016
vn -0.006308 -0.434701 -0.900553
vn 0.009776 -0.901171 -0.433354
vn 0.753557 0.369052 -0.544016
vn 0.716233 0.691409 -0.094675
vn 0.009775 0.901171 -0.433354
vn -0.006309 0.434701 -0.900553
vn -0.841611 0.350635 -0.410787
vn 0.636647 -0.264354 0.724429
vn 0.425791 -0.509002 0.748077
vn -0.605925 0.715619 -0.347484
vn -0.899448 0.000000 -0.437029
vn 0.706657 0.000000 0.707556
vn 0.636647 -0.264354 0.724429
vn -0.841611 0.350635 -0.410787
vn -0.841611 -0.350635 -0.410787
vn 0.636647 0.264355 0.724429
vn 0.706657 0.000000 0.707556
vn -0.899448 0.000000 -0.437029
vn -0.605925 -0.715619 -0.347484
vn 0.425791 0.509002 0.748077
vn 0.636647 0.264355 0.724429
vn -0.841611 -0.350635 -0.410787
vn -0.264024 -0.904322 -0.335400
vn 0.200898 0.712528 0.672268
vn 0.425791 0.509002 0.748077
vn -0.605925 -0.715619 -0.347484
vn 0.005022 -0.940482 -0.339807
vn -0.009312 0.776715 0.629784
vn 0.200898 0.712528 0.672268
vn -0.264024 -0.904322 -0.335400
vn 0.260040 -0.908105 -0.328214
vn -0.214776 0.730266 0.648524
vn -0.009312 0.776715 0.629784
vn 0.005022 -0.940482 -0.339807
vn 0.005022 0.940482 -0.339807
vn -0.009312 -0.776715 0.629784
vn -0.214776 -0.730266 0.648524
vn 0.260040 0.908105 -0.328213
vn -0.264024 0.904322 -0.335400
vn 0.200897 -0.712528 0.672268
vn -0.009312 -0.776715 0.629784
vn 0.005022 0.940482 -0.339807
vn -0.605925 0.715619 -0.347484
vn 0.425791 -0.509002 0.748077
vn 0.200897 -0.712528 0.672268
vn -0.264024 0.904322 -0.335400
vn 0.471972 -0.827638 -0.303741
vn -0.382893 0.606801 0.696553
vn -0.214776 0.730266 0.648524
vn 0.260040 -0.908105 -0.328214
vn 0.260040 0.908105 -0.328213
vn -0.214776 -0.730266 0.648524
vn -0.382893 -0.606801 0.696553
vn 0.471972 0.827638 -0.303741
vn 0.673456 -0.720370 -0.165907
vn -0.553583 0.336773 0.761662
vn -0.382893 0.606801 0.696553
vn 0.471972 -0.827638 -0.303741
vn 0.471972 0.827638 -0.303741
vn -0.382893 -0.606801 0.696553
vn -0.553583 -0.336773 0.761662
vn 0.673456 0.720370 -0.165907
vn 0.716233 -0.691409 -0.094675
vn -0.573531 -0.021054 0.818913
vn -0.553583 0.336773 0.761662
vn 0.673456 -0.720370 -0.165907
vn 0.673456 0.720370 -0.165907
vn -0.553583 -0.336773 0.761662
vn -0.573531 0.021054 0.818913
vn 0.716233 0.691409 -0.094675
vn 0.008818 -0.889009 0.457805
vn -0.573531 -0.021054 0.818913
vn 0.716233 -0.691409 -0.094675
vn 0.716233 0.691409 -0.094675
vn -0.573531 0.021054 0.818913
vn 0.009775 0.901171 -0.433354
vn -0.753955 -0.131993 0.643529
vn 0.006132 0.452905 0.891538
vn -0.573531 0.021054 0.818913
vn -0.573531 -0.021054 0.818913
vn 0.008818 -0.889009 0.457805
vn 0.006132 -0.452904 0.891538
vn 0.006132 -0.452904 0.891538
vn 0.006132 -0.452904 0.891538
s off
g FoodShortRLowerLeg
usemtl blinn3SG
f 61/1/1 63/2/2 62/3/3 60/4/4
f 64/5/5 65/6/6 63/2/7 61/1/8
f 67/7/9 69/8/10 68/9/11 66/10/12
f 60/4/13 62/3/14 69/8/15 67/7/16
f 62/3/17 71/11/18 70/12/19 69/8/20
f 69/8/21 70/12/22 72/13/23 68/9/24
f 70/12/25 74/14/26 73/15/27 72/13/28
f 71/11/29 75/16/30 74/14/31 70/12/32
f 65/6/33 77/17/34 76/18/35 63/2/36
f 63/2/37 76/18/38 71/11/39 62/3/40
f 76/18/41 78/19/42 75/16/43 71/11/44
f 77/17/45 79/20/46 78/19/47 76/18/48
f 79/20/49 81/21/50 80/22/51 78/19/52
f 78/19/53 80/22/54 82/23/55 75/16/56
f 75/16/57 82/23/58 83/24/59 74/14/60
f 74/14/61 83/24/62 84/25/63 73/15/64
f 85/26/65 72/13/66 73/15/67 84/25/68
f 86/27/69 68/9/70 72/13/71 85/26/72
f 87/28/73 66/10/74 68/9/75 86/27/76
f 89/29/77 65/6/78 64/5/79 88/30/80
f 90/31/81 77/17/82 65/6/83 89/29/84
f 81/21/85 79/20/86 77/17/87 90/31/88
f 61/1/89 92/32/90 91/33/91 64/5/92
f 60/4/93 93/34/94 92/32/95 61/1/96
f 67/7/97 94/35/98 93/34/99 60/4/100
f 66/10/101 95/36/102 94/35/103 67/7/104
f 87/28/105 96/37/106 95/36/107 66/10/108
f 64/5/109 91/33/110 97/38/111 88/30/112
f 92/32/113 99/39/114 98/40/115 91/33/116
f 93/34/117 100/41/118 99/39/119 92/32/120
f 94/35/121 101/42/122 100/41/123 93/34/124
f 95/36/125 102/43/126 101/42/127 94/35/128
f 96/37/129 103/44/130 102/43/131 95/36/132
f 91/33/133 98/40/134 104/45/135 97/38/136
f 99/39/137 106/46/138 105/47/139 98/40/140
f 100/41/141 107/48/142 106/46/143 99/39/144
f 101/42/145 108/49/146 107/48/147 100/41/148
f 102/43/149 109/50/150 108/49/151 101/42/152
f 103/44/153 110/51/154 109/50/155 102/43/156
f 98/40/157 105/47/158 111/52/159 104/45/160
f 106/46/161 55/53/162 54/54/163 105/47/164
f 107/48/165 56/55/166 55/53/167 106/46/168
f 108/49/169 57/56/170 56/55/171 107/48/172
f 109/50/173 58/57/174 57/56/175 108/49/176
f 110/51/177 58/57/178 109/50/179
f 111/52/180 54/54/181 53/58/182
f 5/59/183 14/60/184 12/61/185 15/62/186
f 13/63/187 5/59/188 15/62/189 28/64/190
f 4/65/191 16/66/192 29/67/193 17/68/194
f 14/60/195 4/65/196 17/68/197 12/61/198
f 12/61/199 17/68/200 6/69/201 18/70/202
f 17/68/203 29/67/204 19/71/205 6/69/206
f 6/69/207 19/71/208 2/72/209 20/73/210
f 18/70/211 6/69/212 20/73/213 30/74/214
f 28/64/215 15/62/216 7/75/217 21/76/218
f 15/62/219 12/61/220 18/70/221 7/75/222
f 7/75/223 18/70/224 30/74/225 22/77/226
f 21/76/227 7/75/228 22/77/229 1/78/230
f 1/78/231 22/77/232 11/79/233 23/80/234
f 22/77/235 30/74/236 24/81/237 11/79/238
f 30/74/239 20/73/240 10/82/241 24/81/242
f 20/73/243 2/72/244 25/83/245 10/82/246
f 9/84/247 25/83/248 2/72/249 19/71/250
f 26/85/251 9/84/252 19/71/253 29/67/254
f 3/86/255 26/85/256 29/67/257 16/66/258
f 27/87/259 31/88/260 13/63/261 28/64/262
f 8/89/263 27/87/264 28/64/265 21/76/266
f 23/80/267 8/89/268 21/76/269 1/78/270
f 5/59/271 13/63/272 33/90/273 32/91/274
f 14/60/275 5/59/276 32/91/277 34/92/278
f 4/65/279 14/60/280 34/92/281 35/93/282
f 16/66/283 4/65/284 35/93/285 36/94/286
f 3/86/287 16/66/288 36/94/289 37/95/290
f 13/63/291 31/88/292 38/96/293 33/90/294
f 32/91/295 33/90/296 40/97/297 39/98/298
f 34/92/299 32/91/300 39/98/301 41/99/302
f 35/93/303 34/92/304 41/99/305 42/100/306
f 36/94/307 35/93/308 42/100/309 43/101/310
f 37/95/311 36/94/312 43/101/313 44/102/314
f 33/90/315 38/96/316 45/103/317 40/97/318
f 39/98/319 40/97/320 47/104/321 46/105/322
f 41/99/323 39/98/324 46/105/325 48/106/326
f 42/100/327 41/99/328 48/106/329 49/107/330
f 43/101/331 42/100/332 49/107/333 50/108/334
f 44/102/335 43/101/336 50/108/337 51/109/338
f 40/97/339 45/103/340 52/110/341 47/104/342
f 46/105/343 47/104/344 54/111/345 55/112/346
f 48/106/347 46/105/348 55/112/349 56/113/350
f 49/107/351 48/106/352 56/113/353 57/114/354
f 50/108/355 49/107/356 57/114/357 58/115/358
f 51/109/359 50/108/360 58/115/361 59/116/362
f 47/104/363 52/110/364 53/117/365 54/111/366
f 11/79/367 80/118/368 81/119/369 23/80/370
f 24/81/371 82/120/372 80/118/373 11/79/374
f 10/82/375 83/121/376 82/120/377 24/81/378
f 25/83/379 84/122/380 83/121/381 10/82/382
f 9/84/383 85/123/384 84/122/385 25/83/386
f 26/85/387 86/124/388 85/123/389 9/84/390
f 3/86/391 87/125/392 86/124/393 26/85/394
f 27/87/395 89/126/396 88/127/397 31/88/398
f 8/89/399 90/128/400 89/126/401 27/87/402
f 23/80/403 81/119/404 90/128/405 8/89/406
f 37/95/407 96/129/408 87/125/409 3/86/410
f 31/88/411 88/127/412 97/130/413 38/96/414
f 44/102/415 103/131/416 96/129/417 37/95/418
f 38/96/419 97/130/420 104/132/421 45/103/422
f 51/109/423 110/133/424 103/131/425 44/102/426
f 45/103/427 104/132/428 111/134/429 52/110/430
f 59/116/431 110/133/432 51/109/433
f 52/110/434 111/134/435 53/117/436
f 105/47/437 54/54/438 111/52/439
f 110/51/440 59/135/441 58/57/442
