# This file uses centimeters as units for non-parametric coordinates.

g default
v 2.110657 11.485214 -17.175974
v 2.110657 11.485214 20.326643
v 2.853960 12.228518 -16.953417
v 1.367353 12.228518 -16.953417
v 1.367353 10.741910 -16.953417
v 2.853961 10.741910 -16.953417
v 2.853960 12.228518 20.104086
v 1.367353 12.228518 20.104086
v 1.367353 10.741910 20.104086
v 2.853961 10.741910 20.104086
v 9.668094 11.485214 -17.201811
v 9.668094 11.485214 20.355789
v 10.413685 12.230806 -16.979254
v 8.922503 12.230806 -16.979254
v 8.922503 10.739622 -16.979254
v 10.413685 10.739622 -16.979254
v 10.413685 12.230806 20.133232
v 8.922503 12.230806 20.133232
v 8.922503 10.739622 20.133232
v 10.413685 10.739622 20.133232
v -8.064749 11.485214 -13.021579
v -8.064749 11.485214 3.192844
v -7.334702 12.215261 -12.799022
v -8.794796 12.215261 -12.799022
v -8.794796 10.755167 -12.799022
v -7.334702 10.755167 -12.799022
v -7.334702 12.215261 2.970287
v -8.794796 12.215261 2.970287
v -8.794796 10.755167 2.970287
v -7.334702 10.755167 2.970287
v -0.774332 11.485214 -13.006796
v -0.774332 11.485214 3.243389
v -0.043848 12.215698 -12.784239
v -1.504816 12.215698 -12.784239
v -1.504816 10.754730 -12.784239
v -0.043848 10.754730 -12.784239
v -0.043848 12.215698 3.020832
v -1.504816 12.215698 3.020832
v -1.504816 10.754730 3.020832
v -0.043848 10.754730 3.020832
v -8.199517 11.336785 2.981920
v -8.199517 -0.211582 23.718313
v -7.624818 11.729284 3.458324
v -8.774217 11.729284 3.458324
v -8.774217 10.725108 2.899085
v -7.624817 10.725108 2.899085
v -7.624818 0.400098 23.801151
v -8.774217 0.400098 23.801151
v -8.774217 -0.604079 23.241915
v -7.624817 -0.604079 23.241915
v -0.642080 11.342642 2.971405
v -0.642080 -0.214610 23.723753
v -0.066796 11.735540 3.448293
v -1.217364 11.735540 3.448293
v -1.217364 10.730342 2.888485
v -0.066796 10.730342 2.888485
v -0.066796 0.397692 23.806675
v -1.217364 0.397692 23.806675
v -1.217364 -0.607505 23.246864
v -0.066796 -0.607505 23.246864
v -7.808906 0.000000 1.815547
v -6.585648 0.000000 1.815547
v -7.808906 12.198231 1.815547
v -6.585648 12.198231 1.815547
v -7.808906 12.198231 -10.147433
v -6.585648 12.198231 -10.147433
v -7.808906 0.000000 -10.147433
v -6.585648 0.000000 -10.147433
v 2.277577 0.000000 16.537659
v 3.500835 0.000000 16.537659
v 2.277577 12.198231 16.537659
v 3.500835 12.198231 16.537659
v 2.277577 12.198231 -9.159053
v 3.500835 12.198231 -9.159053
v 2.277577 0.000000 -9.159053
v 3.500835 0.000000 -9.159053
v 0.763238 12.202524 18.338005
v 11.324165 12.202524 16.630421
v 0.763238 13.107497 18.338005
v 11.324165 13.107497 16.630421
v 0.763238 13.107497 -15.070724
v 11.324165 13.107497 -15.070724
v 0.763238 12.202524 -15.070724
v 11.324165 12.202524 -15.070724
v 0.763238 13.107498 -11.204363
v 0.763238 12.202524 -11.204363
v 11.324165 12.202524 -11.401980
v 11.324165 13.107497 -11.401980
v 0.763238 13.107497 3.193473
v 0.763238 12.202524 3.193473
v 11.324165 12.202524 2.259953
v 11.324165 13.107497 2.259953
v -9.652390 12.157378 3.145382
v -9.652390 13.062351 3.145382
v -9.652390 13.062351 -11.160192
v -9.652390 12.157378 -11.160192
v -9.652390 0.228585 24.391993
v 0.908538 0.228585 24.391994
v 0.908538 1.024774 24.822180
v -9.652390 1.024774 24.822180
v -10.177270 -0.147025 27.733624
v -0.115123 0.212105 28.040243
v -0.145915 1.007698 28.470428
v -10.208061 0.648568 28.163811
vt 0.579299 0.845271
vt 0.589313 0.841165
vt 0.593458 0.851196
vt 0.599351 0.837076
vt 0.585248 0.831111
vt 0.485240 0.737360
vt 0.484895 0.729193
vt 0.476728 0.729551
vt 0.484531 0.721019
vt 0.493062 0.728835
vt 0.510051 0.315142
vt 0.510051 0.832531
vt 0.527340 0.315142
vt 0.527340 0.832531
vt 0.544629 0.315142
vt 0.544629 0.832531
vt 0.561918 0.315142
vt 0.561918 0.832531
vt 0.617615 0.851044
vt 0.613511 0.841033
vt 0.623539 0.836892
vt 0.609422 0.830998
vt 0.603460 0.845100
vt 0.493624 0.767232
vt 0.485459 0.767578
vt 0.485817 0.775745
vt 0.477289 0.767944
vt 0.485100 0.759412
vt 0.586580 0.306480
vt 0.586580 0.823655
vt 0.603865 0.306480
vt 0.603865 0.823655
vt 0.621149 0.306480
vt 0.621149 0.823655
vt 0.638434 0.306480
vt 0.638434 0.823655
vt 0.641406 0.874457
vt 0.637314 0.864502
vt 0.647273 0.860388
vt 0.633248 0.854543
vt 0.627328 0.868558
vt 0.494164 0.787331
vt 0.485599 0.787295
vt 0.485547 0.795817
vt 0.477045 0.787259
vt 0.485615 0.778773
vt 0.663147 0.670711
vt 0.663147 0.888761
vt 0.680320 0.670711
vt 0.680321 0.888761
vt 0.697494 0.670711
vt 0.697494 0.888761
vt 0.714668 0.670711
vt 0.714668 0.888761
vt 0.617894 0.874085
vt 0.613837 0.864216
vt 0.623711 0.860137
vt 0.609805 0.854340
vt 0.603936 0.868236
vt 0.493213 0.832338
vt 0.484721 0.832302
vt 0.484667 0.840752
vt 0.476238 0.832267
vt 0.484736 0.823852
vt 0.746902 0.671631
vt 0.746902 0.888533
vt 0.763930 0.671631
vt 0.763930 0.888533
vt 0.780958 0.671631
vt 0.780958 0.888533
vt 0.797987 0.671631
vt 0.797987 0.888533
vt 0.729874 0.671631
vt 0.729874 0.888533
vt 0.633378 0.830890
vt 0.637499 0.841010
vt 0.627378 0.845156
vt 0.641598 0.851127
vt 0.647646 0.836921
vt 0.475687 0.810240
vt 0.484214 0.810162
vt 0.484131 0.801684
vt 0.492720 0.810080
vt 0.484298 0.818640
vt 0.793250 0.665027
vt 0.794111 0.338727
vt 0.775815 0.664981
vt 0.776677 0.338681
vt 0.758381 0.664935
vt 0.759243 0.338635
vt 0.740947 0.664889
vt 0.741808 0.338589
vt 0.593909 0.874137
vt 0.589801 0.864033
vt 0.599906 0.859899
vt 0.585713 0.853933
vt 0.579670 0.868111
vt 0.493654 0.747957
vt 0.485141 0.748030
vt 0.485221 0.756493
vt 0.476651 0.748109
vt 0.485062 0.739569
vt 0.672423 0.338606
vt 0.671418 0.664230
vt 0.689825 0.338660
vt 0.688820 0.664284
vt 0.707228 0.338713
vt 0.706223 0.664337
vt 0.724630 0.338767
vt 0.723625 0.664391
vt 0.655020 0.338552
vt 0.654016 0.664176
vt 0.375000 0.000000
vt 0.625000 0.000000
vt 0.625000 0.250000
vt 0.375000 0.250000
vt 0.375000 0.500000
vt 0.625000 0.500000
vt 0.625000 0.750000
vt 0.375000 0.750000
vt 0.875000 0.000000
vt 0.875000 0.250000
vt 0.125000 0.000000
vt 0.125000 0.250000
vt 0.375000 0.000000
vt 0.625000 0.000000
vt 0.625000 0.250000
vt 0.375000 0.250000
vt 0.375000 0.500000
vt 0.625000 0.500000
vt 0.625000 0.750000
vt 0.375000 0.750000
vt 0.875000 0.000000
vt 0.875000 0.250000
vt 0.125000 0.000000
vt 0.125000 0.250000
vt 0.375000 0.000000
vt 0.625000 0.000000
vt 0.625000 0.250000
vt 0.375000 0.250000
vt 0.625000 0.363328
vt 0.375000 0.363491
vt 0.375000 0.500000
vt 0.625000 0.500000
vt 0.625000 0.750000
vt 0.375000 0.750000
vt 0.375000 0.886509
vt 0.625000 0.886672
vt 0.625000 1.000000
vt 0.375000 1.000000
vt 0.738328 0.000000
vt 0.738328 0.250000
vt 0.261672 0.000011
vt 0.261672 0.249985
vt 0.125000 0.000000
vt 0.153932 0.000011
vt 0.153932 0.249985
vt 0.125000 0.250000
vt 0.625000 0.778932
vt 0.375000 0.778429
vt 0.846068 0.250000
vt 0.846068 0.000000
vt 0.875000 0.000000
vt 0.875000 0.250000
vt 0.375000 0.471571
vt 0.625000 0.471068
vt 0.375000 0.000000
vt 0.625000 0.000000
vt 0.625000 0.250000
vt 0.375000 0.250000
vt 0.375000 0.250000
vt 0.621560 0.193739
vt 0.621560 0.488309
vt 0.375000 0.500000
vt 0.621560 0.736965
vt 0.375000 0.750000
vt 0.621561 0.990091
vt 0.375000 1.000000
vt 0.125000 0.000000
vt 0.375000 0.000000
vt 0.125000 0.250000
vt 0.621560 0.010370
vt 0.625000 0.000000
vt 0.375000 0.000000
vt 0.625000 0.250000
vt 0.375000 0.250000
vn 0.707099 0.707100 -0.004537
vn 0.000001 0.000000 -1.000000
vn -0.707099 0.707100 -0.004537
vn 0.000001 0.000000 -1.000000
vn 0.707099 0.707100 -0.004537
vn 0.707099 -0.707100 -0.004537
vn -0.707099 0.707100 -0.004537
vn 0.000001 0.000000 -1.000000
vn -0.707099 -0.707100 -0.004537
vn -0.707099 -0.707100 -0.004537
vn 0.000001 0.000000 -1.000000
vn 0.707099 -0.707100 -0.004537
vn 0.707099 0.707100 0.004537
vn 0.000000 0.000000 1.000000
vn 0.707099 -0.707100 0.004537
vn 0.000000 0.000000 1.000000
vn 0.707099 0.707100 0.004537
vn -0.707099 0.707100 0.004537
vn 0.000000 0.000000 1.000000
vn -0.707099 0.707100 0.004537
vn -0.707099 -0.707100 0.004537
vn 0.000000 0.000000 1.000000
vn -0.707099 -0.707100 0.004537
vn 0.707099 -0.707100 0.004537
vn -0.707099 0.707100 0.004537
vn 0.707099 0.707100 0.004537
vn 0.707099 0.707100 -0.004537
vn -0.707099 0.707100 -0.004537
vn -0.707099 -0.707100 0.004537
vn -0.707099 0.707100 0.004537
vn -0.707099 0.707100 -0.004537
vn -0.707099 -0.707100 -0.004537
vn 0.707099 -0.707100 0.004537
vn -0.707099 -0.707100 0.004537
vn -0.707099 -0.707100 -0.004537
vn 0.707099 -0.707100 -0.004537
vn 0.707099 0.707100 0.004537
vn 0.707099 -0.707100 0.004537
vn 0.707099 -0.707100 -0.004537
vn 0.707099 0.707100 -0.004537
vn 0.707099 0.707100 -0.004538
vn 0.000001 0.000000 -1.000000
vn -0.707099 0.707100 -0.004538
vn 0.000001 0.000000 -1.000000
vn 0.707099 0.707100 -0.004538
vn 0.707100 -0.707099 -0.004538
vn -0.707099 0.707100 -0.004538
vn 0.000001 0.000000 -1.000000
vn -0.707099 -0.707100 -0.004538
vn -0.707099 -0.707100 -0.004538
vn 0.000001 0.000000 -1.000000
vn 0.707100 -0.707099 -0.004538
vn 0.707099 0.707100 0.004538
vn 0.000000 0.000000 1.000000
vn 0.707100 -0.707099 0.004538
vn 0.000000 0.000000 1.000000
vn 0.707099 0.707100 0.004538
vn -0.707099 0.707100 0.004538
vn 0.000000 0.000000 1.000000
vn -0.707099 0.707100 0.004538
vn -0.707099 -0.707100 0.004538
vn 0.000000 0.000000 1.000000
vn -0.707099 -0.707100 0.004538
vn 0.707100 -0.707099 0.004538
vn -0.707099 0.707100 0.004538
vn 0.707099 0.707100 0.004538
vn 0.707099 0.707100 -0.004538
vn -0.707099 0.707100 -0.004538
vn -0.707099 -0.707100 0.004538
vn -0.707099 0.707100 0.004538
vn -0.707099 0.707100 -0.004538
vn -0.707099 -0.707100 -0.004538
vn 0.707100 -0.707099 0.004538
vn -0.707099 -0.707100 0.004538
vn -0.707099 -0.707100 -0.004538
vn 0.707100 -0.707099 -0.004538
vn 0.707099 0.707100 0.004538
vn 0.707100 -0.707099 0.004538
vn 0.707100 -0.707099 -0.004538
vn 0.707099 0.707100 -0.004538
vn 0.707066 0.707067 -0.010633
vn 0.000000 0.000000 -1.000000
vn -0.707066 0.707067 -0.010633
vn 0.000000 0.000000 -1.000000
vn 0.707066 0.707067 -0.010633
vn 0.707067 -0.707067 -0.010633
vn -0.707066 0.707067 -0.010633
vn 0.000000 0.000000 -1.000000
vn -0.707067 -0.707067 -0.010633
vn -0.707067 -0.707067 -0.010633
vn 0.000000 0.000000 -1.000000
vn 0.707067 -0.707067 -0.010633
vn 0.707066 0.707067 0.010633
vn 0.000000 0.000000 1.000000
vn 0.707067 -0.707067 0.010634
vn 0.000000 0.000000 1.000000
vn 0.707066 0.707067 0.010633
vn -0.707066 0.707067 0.010633
vn 0.000000 0.000000 1.000000
vn -0.707066 0.707067 0.010633
vn -0.707067 -0.707067 0.010634
vn 0.000000 0.000000 1.000000
vn -0.707067 -0.707067 0.010634
vn 0.707067 -0.707067 0.010634
vn -0.707066 0.707067 0.010633
vn 0.707066 0.707067 0.010633
vn 0.707066 0.707067 -0.010633
vn -0.707066 0.707067 -0.010633
vn -0.707067 -0.707067 0.010634
vn -0.707066 0.707067 0.010633
vn -0.707066 0.707067 -0.010633
vn -0.707067 -0.707067 -0.010633
vn 0.707067 -0.707067 0.010634
vn -0.707067 -0.707067 0.010634
vn -0.707067 -0.707067 -0.010633
vn 0.707067 -0.707067 -0.010633
vn 0.707066 0.707067 0.010633
vn 0.707067 -0.707067 0.010634
vn 0.707067 -0.707067 -0.010633
vn 0.707066 0.707067 -0.010633
vn 0.707066 0.707068 -0.010600
vn 0.000000 0.000000 -1.000000
vn -0.707067 0.707068 -0.010599
vn 0.000000 0.000000 -1.000000
vn 0.707066 0.707068 -0.010600
vn 0.707067 -0.707067 -0.010600
vn -0.707067 0.707068 -0.010599
vn 0.000000 0.000000 -1.000000
vn -0.707067 -0.707067 -0.010600
vn -0.707067 -0.707067 -0.010600
vn 0.000000 0.000000 -1.000000
vn 0.707067 -0.707067 -0.010600
vn 0.707066 0.707068 0.010600
vn 0.000000 0.000000 1.000000
vn 0.707067 -0.707067 0.010600
vn 0.000000 0.000000 1.000000
vn 0.707066 0.707068 0.010600
vn -0.707067 0.707068 0.010600
vn 0.000000 0.000000 1.000000
vn -0.707067 0.707068 0.010600
vn -0.707067 -0.707067 0.010600
vn 0.000000 0.000000 1.000000
vn -0.707067 -0.707067 0.010600
vn 0.707067 -0.707067 0.010600
vn -0.707067 0.707068 0.010600
vn 0.707066 0.707068 0.010600
vn 0.707066 0.707068 -0.010600
vn -0.707067 0.707068 -0.010599
vn -0.707067 -0.707067 0.010600
vn -0.707067 0.707068 0.010600
vn -0.707067 0.707068 -0.010599
vn -0.707067 -0.707067 -0.010600
vn 0.707067 -0.707067 0.010600
vn -0.707067 -0.707067 0.010600
vn -0.707067 -0.707067 -0.010600
vn 0.707067 -0.707067 -0.010600
vn 0.707066 0.707068 0.010600
vn 0.707067 -0.707067 0.010600
vn 0.707067 -0.707067 -0.010600
vn 0.707066 0.707068 -0.010600
vn 0.707088 0.621271 0.337711
vn 0.000000 0.486550 -0.873653
vn -0.707088 0.621271 0.337711
vn 0.000000 0.486550 -0.873653
vn 0.707088 0.621271 0.337711
vn 0.707088 -0.614229 -0.350355
vn -0.707088 0.621271 0.337711
vn 0.000000 0.486550 -0.873653
vn -0.707088 -0.614229 -0.350355
vn -0.707088 -0.614229 -0.350355
vn 0.000000 0.486550 -0.873653
vn 0.707088 -0.614229 -0.350355
vn 0.707088 0.614230 0.350356
vn 0.000000 -0.486550 0.873653
vn 0.707088 -0.621271 -0.337711
vn 0.000000 -0.486550 0.873653
vn 0.707088 0.614230 0.350356
vn -0.707087 0.614230 0.350356
vn 0.000000 -0.486550 0.873653
vn -0.707087 0.614230 0.350356
vn -0.707088 -0.621271 -0.337711
vn 0.000000 -0.486550 0.873653
vn -0.707088 -0.621271 -0.337711
vn 0.707088 -0.621271 -0.337711
vn -0.707087 0.614230 0.350356
vn 0.707088 0.614230 0.350356
vn 0.707088 0.621271 0.337711
vn -0.707088 0.621271 0.337711
vn -0.707088 -0.621271 -0.337711
vn -0.707087 0.614230 0.350356
vn -0.707088 0.621271 0.337711
vn -0.707088 -0.614229 -0.350355
vn 0.707088 -0.621271 -0.337711
vn -0.707088 -0.621271 -0.337711
vn -0.707088 -0.614229 -0.350355
vn 0.707088 -0.614229 -0.350355
vn 0.707088 0.614230 0.350356
vn 0.707088 -0.621271 -0.337711
vn 0.707088 -0.614229 -0.350355
vn 0.707088 0.621271 0.337711
vn 0.707088 0.621272 0.337709
vn 0.000000 0.486550 -0.873653
vn -0.707088 0.621272 0.337709
vn 0.000000 0.486550 -0.873653
vn 0.707088 0.621272 0.337709
vn 0.707088 -0.614229 -0.350357
vn -0.707088 0.621272 0.337709
vn 0.000000 0.486550 -0.873653
vn -0.707088 -0.614229 -0.350357
vn -0.707088 -0.614229 -0.350357
vn 0.000000 0.486550 -0.873653
vn 0.707088 -0.614229 -0.350357
vn 0.707088 0.614228 0.350357
vn 0.000000 -0.486547 0.873654
vn 0.707088 -0.621273 -0.337709
vn 0.000000 -0.486547 0.873654
vn 0.707088 0.614228 0.350357
vn -0.707088 0.614228 0.350357
vn 0.000000 -0.486547 0.873654
vn -0.707088 0.614228 0.350357
vn -0.707088 -0.621273 -0.337709
vn 0.000000 -0.486547 0.873654
vn -0.707088 -0.621273 -0.337709
vn 0.707088 -0.621273 -0.337709
vn -0.707088 0.614228 0.350357
vn 0.707088 0.614228 0.350357
vn 0.707088 0.621272 0.337709
vn -0.707088 0.621272 0.337709
vn -0.707088 -0.621273 -0.337709
vn -0.707088 0.614228 0.350357
vn -0.707088 0.621272 0.337709
vn -0.707088 -0.614229 -0.350357
vn 0.707088 -0.621273 -0.337709
vn -0.707088 -0.621273 -0.337709
vn -0.707088 -0.614229 -0.350357
vn 0.707088 -0.614229 -0.350357
vn 0.707088 0.614228 0.350357
vn 0.707088 -0.621273 -0.337709
vn 0.707088 -0.614229 -0.350357
vn 0.707088 0.621272 0.337709
vn 0.000000 0.000000 1.000000
vn 0.000000 0.000000 1.000000
vn 0.000000 0.000000 1.000000
vn 0.000000 0.000000 1.000000
vn 0.000000 0.000000 -1.000000
vn 0.000000 0.000000 -1.000000
vn 0.000000 0.000000 -1.000000
vn 0.000000 0.000000 -1.000000
vn 1.000000 0.000000 0.000000
vn 1.000000 0.000000 0.000000
vn 1.000000 0.000000 0.000000
vn 1.000000 0.000000 0.000000
vn -1.000000 0.000000 0.000000
vn -1.000000 0.000000 0.000000
vn -1.000000 0.000000 0.000000
vn -1.000000 0.000000 0.000000
vn 0.000000 0.000000 1.000000
vn 0.000000 0.000000 1.000000
vn 0.000000 0.000000 1.000000
vn 0.000000 0.000000 1.000000
vn 0.000000 0.000000 -1.000000
vn 0.000000 0.000000 -1.000000
vn 0.000000 0.000000 -1.000000
vn 0.000000 0.000000 -1.000000
vn 1.000000 0.000000 0.000000
vn 1.000000 0.000000 0.000000
vn 1.000000 0.000000 0.000000
vn 1.000000 0.000000 0.000000
vn -1.000000 0.000000 0.000000
vn -1.000000 0.000000 0.000000
vn -1.000000 0.000000 0.000000
vn -1.000000 0.000000 0.000000
vn 0.159616 0.000000 0.987179
vn 0.159616 0.000000 0.987179
vn 0.159616 0.000000 0.987179
vn 0.159616 0.000000 0.987179
vn 0.000000 1.000000 0.000000
vn 0.000000 1.000000 0.000000
vn 0.000000 1.000000 0.000000
vn 0.000000 1.000000 0.000000
vn 0.000000 0.000000 -1.000000
vn 0.000000 0.000000 -1.000000
vn 0.000000 0.000000 -1.000000
vn 0.000000 0.000000 -1.000000
vn 0.000000 -1.000000 0.000000
vn 0.000000 -1.000000 0.000000
vn 0.000000 -1.000000 0.000000
vn 0.000000 -1.000000 0.000000
vn 1.000000 0.000000 0.000000
vn 1.000000 0.000000 0.000000
vn 1.000000 0.000000 0.000000
vn 1.000000 0.000000 0.000000
vn -1.000000 0.000000 0.000000
vn -1.000000 0.000000 0.000000
vn -1.000000 0.000000 0.000000
vn -1.000000 0.000000 0.000000
vn -1.000000 0.000000 0.000000
vn -1.000000 0.000000 0.000000
vn -1.000000 0.000000 0.000000
vn -1.000000 0.000000 0.000000
vn 0.000000 -1.000000 0.000000
vn 0.000000 -1.000000 0.000000
vn 0.000000 -1.000000 0.000000
vn 0.000000 -1.000000 0.000000
vn 1.000000 0.000000 0.000000
vn 1.000000 0.000000 0.000000
vn 1.000000 0.000000 0.000000
vn 1.000000 0.000000 0.000000
vn 0.000000 1.000000 0.000000
vn 0.000000 1.000000 0.000000
vn 0.000000 1.000000 0.000000
vn 0.000000 1.000000 0.000000
vn 0.000000 -1.000000 0.000000
vn 0.000000 -1.000000 0.000000
vn 0.000000 -1.000000 0.000000
vn 0.000000 -1.000000 0.000000
vn 1.000000 0.000000 0.000000
vn 1.000000 0.000000 0.000000
vn 1.000000 0.000000 0.000000
vn 1.000000 0.000000 0.000000
vn 0.000000 1.000000 0.000000
vn 0.000000 1.000000 0.000000
vn 0.000000 1.000000 0.000000
vn 0.000000 1.000000 0.000000
vn -0.009813 -0.475904 0.879442
vn -0.009813 -0.475904 0.879442
vn -0.009813 -0.475904 0.879442
vn -0.009813 -0.475904 0.879442
vn -0.003593 0.948105 0.317938
vn -0.003589 0.947645 0.319306
vn -0.004334 0.999991 0.000000
vn -0.004334 0.999991 0.000000
vn -0.004241 0.000000 -0.999991
vn -0.004241 0.000000 -0.999991
vn -0.004241 0.000000 -0.999991
vn -0.004241 0.000000 -0.999991
vn 0.004334 -0.999991 0.000000
vn 0.004334 -0.999991 0.000000
vn 0.003600 -0.947350 -0.320181
vn 0.003604 -0.947819 -0.318790
vn -1.000000 0.000000 0.000000
vn -1.000000 0.000000 0.000000
vn -1.000000 0.000000 0.000000
vn -1.000000 0.000000 0.000000
vn 0.003604 -0.947819 -0.318790
vn 0.003600 -0.947350 -0.320181
vn 0.004640 -0.893523 -0.448994
vn 0.005106 -0.899480 -0.436933
vn 0.999981 0.001502 -0.005941
vn 0.999981 0.001502 -0.005941
vn 0.999081 -0.019207 0.038317
vn 0.999738 -0.010742 0.020226
vn -0.003589 0.947645 0.319306
vn -0.003593 0.948105 0.317938
vn -0.005078 0.900988 0.433814
vn -0.004601 0.894979 0.446084
vn -1.000000 0.000000 0.000000
vn -1.000000 0.000000 0.000000
vn -0.999876 0.006034 -0.014531
vn -0.999714 0.009166 -0.022073
vn 0.005106 -0.899480 -0.436933
vn 0.004640 -0.893523 -0.448994
vn 0.018160 -0.998483 -0.051986
vn 0.018160 -0.998483 -0.051986
vn 0.999738 -0.010742 0.020226
vn 0.999081 -0.019207 0.038317
vn 0.953987 -0.128086 0.271116
vn 0.953987 -0.128086 0.271116
vn -0.004601 0.894979 0.446084
vn -0.005078 0.900988 0.433814
vn -0.018161 0.998482 0.051996
vn -0.018161 0.998482 0.051996
vn -0.999714 0.009166 -0.022073
vn -0.999876 0.006034 -0.014531
vn -0.986300 0.063267 -0.152348
vn -0.986300 0.063267 -0.152348
s off
g GrottoPlatformCOL:polySurface19
usemtl lambert2SG
f 3/1/1 1/2/2 4/3/3
f 1/2/4 3/1/5 6/5/6
f 4/3/7 1/2/8 5/4/9
f 5/4/10 1/2/11 6/5/12
f 7/6/13 2/7/14 10/10/15
f 2/7/16 7/6/17 8/8/18
f 2/7/19 8/8/20 9/9/21
f 2/7/22 9/9/23 10/10/24
f 8/14/25 7/12/26 3/11/27 4/13/28
f 9/16/29 8/14/30 4/13/31 5/15/32
f 10/18/33 9/16/34 5/15/35 6/17/36
f 7/12/37 10/18/38 6/17/39 3/11/40
f 13/19/41 11/20/42 14/21/43
f 11/20/44 13/19/45 16/23/46
f 14/21/47 11/20/48 15/22/49
f 15/22/50 11/20/51 16/23/52
f 17/24/53 12/25/54 20/28/55
f 12/25/56 17/24/57 18/26/58
f 12/25/59 18/26/60 19/27/61
f 12/25/62 19/27/63 20/28/64
f 18/32/65 17/30/66 13/29/67 14/31/68
f 19/34/69 18/32/70 14/31/71 15/33/72
f 20/36/73 19/34/74 15/33/75 16/35/76
f 17/30/77 20/36/78 16/35/79 13/29/80
f 23/37/81 21/38/82 24/39/83
f 21/38/84 23/37/85 26/41/86
f 24/39/87 21/38/88 25/40/89
f 25/40/90 21/38/91 26/41/92
f 27/42/93 22/43/94 30/46/95
f 22/43/96 27/42/97 28/44/98
f 22/43/99 28/44/100 29/45/101
f 22/43/102 29/45/103 30/46/104
f 28/50/105 27/48/106 23/47/107 24/49/108
f 29/52/109 28/50/110 24/49/111 25/51/112
f 30/54/113 29/52/114 25/51/115 26/53/116
f 27/48/117 30/54/118 26/53/119 23/47/120
f 33/55/121 31/56/122 34/57/123
f 31/56/124 33/55/125 36/59/126
f 34/57/127 31/56/128 35/58/129
f 35/58/130 31/56/131 36/59/132
f 37/60/133 32/61/134 40/64/135
f 32/61/136 37/60/137 38/62/138
f 32/61/139 38/62/140 39/63/141
f 32/61/142 39/63/143 40/64/144
f 38/68/145 37/66/146 33/65/147 34/67/148
f 39/70/149 38/68/150 34/67/151 35/69/152
f 40/72/153 39/70/154 35/69/155 36/71/156
f 37/66/157 40/74/158 36/73/159 33/65/160
f 43/75/161 41/76/162 44/77/163
f 41/76/164 43/75/165 46/79/166
f 44/77/167 41/76/168 45/78/169
f 45/78/170 41/76/171 46/79/172
f 47/80/173 42/81/174 50/84/175
f 42/81/176 47/80/177 48/82/178
f 42/81/179 48/82/180 49/83/181
f 42/81/182 49/83/183 50/84/184
f 48/88/185 47/86/186 43/85/187 44/87/188
f 49/90/189 48/88/190 44/87/191 45/89/192
f 50/92/193 49/90/194 45/89/195 46/91/196
f 47/86/197 50/92/198 46/91/199 43/85/200
f 53/93/201 51/94/202 54/95/203
f 51/94/204 53/93/205 56/97/206
f 54/95/207 51/94/208 55/96/209
f 55/96/210 51/94/211 56/97/212
f 57/98/213 52/99/214 60/102/215
f 52/99/216 57/98/217 58/100/218
f 52/99/219 58/100/220 59/101/221
f 52/99/222 59/101/223 60/102/224
f 58/106/225 57/104/226 53/103/227 54/105/228
f 59/108/229 58/106/230 54/105/231 55/107/232
f 60/110/233 59/108/234 55/107/235 56/109/236
f 57/104/237 60/112/238 56/111/239 53/103/240
f 61/113/241 62/114/242 64/115/243 63/116/244
f 65/117/245 66/118/246 68/119/247 67/120/248
f 62/114/249 68/121/250 66/122/251 64/115/252
f 67/123/253 61/113/254 63/116/255 65/124/256
f 69/125/257 70/126/258 72/127/259 71/128/260
f 73/129/261 74/130/262 76/131/263 75/132/264
f 70/126/265 76/133/266 74/134/267 72/127/268
f 75/135/269 69/125/270 71/128/271 73/136/272
f 77/137/273 78/138/274 80/139/275 79/140/276
f 79/140/277 80/139/278 92/141/279 89/142/280
f 81/143/281 82/144/282 84/145/283 83/146/284
f 90/147/285 91/148/286 78/149/287 77/150/288
f 78/138/289 91/151/290 92/152/291 80/139/292
f 90/153/293 77/137/294 79/140/295 89/154/296
f 83/155/297 86/156/298 85/157/299 81/158/300
f 83/146/301 84/145/302 87/159/303 86/160/304
f 88/161/305 87/162/306 84/163/307 82/164/308
f 85/165/309 88/166/310 82/144/311 81/143/312
f 86/160/313 87/159/314 91/148/315 90/147/316
f 92/152/317 91/151/318 87/162/319 88/161/320
f 89/142/321 92/141/322 88/166/323 85/165/324
f 101/167/325 102/168/326 103/169/327 104/170/328
f 94/171/329 89/172/330 85/173/331 95/174/332
f 95/174/333 85/173/334 86/175/335 96/176/336
f 96/176/337 86/175/338 90/177/339 93/178/340
f 96/179/341 93/180/342 94/171/343 95/181/344
f 93/180/345 90/182/346 98/183/347 97/184/348
f 90/182/349 89/172/350 99/185/351 98/183/352
f 89/172/353 94/171/354 100/186/355 99/185/356
f 94/171/357 93/180/358 97/184/359 100/186/360
f 97/184/361 98/183/362 102/168/363 101/167/364
f 98/183/365 99/185/366 103/169/367 102/168/368
f 99/185/369 100/186/370 104/170/371 103/169/372
f 100/186/373 97/184/374 101/167/375 104/170/376
