# This file uses centimeters as units for non-parametric coordinates.

mtllib SawmillSign_post.mtl
g default
v -13.805461 -0.340852 0.193955
v -13.805461 0.340853 0.193955
v -13.805461 -0.340852 -0.193955
v -13.805461 0.340853 -0.193955
v -0.092476 -0.340852 0.193955
v -0.092476 0.340853 0.193955
v -0.092476 -0.340852 -0.193955
v -0.092476 0.340853 -0.193955
v -13.805461 0.000001 0.402713
v -13.805461 0.000001 -0.402713
v -0.092480 0.000001 -0.402713
v -0.092480 0.000001 0.402713
v -13.896307 -0.415233 -0.236282
v -13.896307 -0.415233 0.236282
v -13.896307 0.000001 0.490596
v -13.896307 0.415236 0.236282
v -13.896307 0.415236 -0.236282
v -13.896307 0.000001 -0.490596
v -14.046175 -0.466070 -0.265209
v -14.046175 -0.466070 0.265209
v -14.046175 0.000000 0.550658
v -14.046175 0.466071 0.265209
v -14.046175 0.466071 -0.265209
v -14.046175 0.000000 -0.550658
v -14.221233 -0.466070 -0.265209
v -14.221233 -0.466070 0.265209
v -14.221233 0.000000 0.550658
v -14.221233 0.466071 0.265209
v -14.221233 0.466071 -0.265209
v -14.221233 0.000000 -0.550658
v -14.368334 -0.423881 -0.241201
v -14.368334 -0.423881 0.241201
v -14.368334 0.000000 0.500812
v -14.368334 0.423882 0.241201
v -14.368334 0.423882 -0.241201
v -14.368334 0.000000 -0.500812
v -14.494438 -0.296601 -0.168776
v -14.494438 -0.296601 0.168776
v -14.494438 0.000001 0.350431
v -14.494438 0.296602 0.168776
v -14.494438 0.296602 -0.168776
v -14.494438 0.000001 -0.350431
v -14.578214 -0.151616 -0.086276
v -14.578214 -0.151616 0.086276
v -14.578214 0.000003 0.179138
v -14.578214 0.151622 0.086276
v -14.578214 0.151622 -0.086276
v -14.578214 0.000003 -0.179138
v -6.896831 0.758814 -0.193955
v -6.896831 1.440518 -0.193955
v -6.896831 0.758814 0.193955
v -6.896831 1.440518 0.193955
v -6.896831 1.099665 0.402713
v -6.896831 1.099665 -0.402713
v -3.441725 0.352591 -0.193955
v -3.441725 -0.329114 0.193955
v -3.441727 0.011739 -0.402713
v -3.441725 -0.329114 -0.193955
v -3.441725 0.352591 0.193955
v -3.441727 0.011739 0.402713
v -5.169277 0.259145 -0.193955
v -5.169277 0.940849 0.193955
v -5.169279 0.599996 0.402713
v -5.169277 0.940849 -0.193955
v -5.169277 0.259145 0.193955
v -5.169279 0.599996 -0.402713
v -10.541777 -0.340567 -0.193955
v -10.541777 0.341136 0.193955
v -10.541777 0.000284 0.402713
v -10.541777 0.341136 -0.193955
v -10.541777 -0.340567 0.193955
v -10.541777 0.000284 -0.402713
v -8.719301 0.898355 -0.193955
v -8.719301 0.216651 0.193955
v -8.719303 0.557502 -0.402713
v -8.719301 0.216651 -0.193955
v -8.719301 0.898355 0.193955
v -8.719303 0.557502 0.402713
v -9.630539 -0.160321 -0.193955
v -9.630539 0.521383 0.193955
v -9.630539 0.180531 0.402713
v -9.630539 0.521383 -0.193955
v -9.630539 -0.160321 0.193955
v -9.630539 0.180531 -0.402713
v -7.808066 1.271562 -0.193955
v -7.808066 0.589857 0.193955
v -7.808066 0.930710 -0.402713
v -7.808066 0.589857 -0.193955
v -7.808066 1.271562 0.193955
v -7.808066 0.930710 0.402713
v -6.033053 0.605435 -0.193955
v -6.033053 1.287141 0.193955
v -6.033054 0.946288 0.402713
v -6.033053 1.287141 -0.193955
v -6.033053 0.605435 0.193955
v -6.033054 0.946288 -0.402713
v -4.305501 0.572411 -0.193955
v -4.305501 -0.109294 0.193955
v -4.305503 0.231559 -0.402713
v -4.305501 -0.109294 -0.193955
v -4.305501 0.572411 0.193955
v -4.305503 0.231559 0.402713
v -0.241763 -1.462732 0.684757
v -0.241763 1.419512 0.684757
v -0.241763 -1.462732 -0.684757
v -0.241763 1.419512 -0.684757
v 0.000003 -1.462732 0.684757
v 0.000003 1.419512 0.684757
v 0.000003 -1.462732 -0.684757
v 0.000003 1.419512 -0.684757
vt 0.765062 0.970488
vt 0.717211 0.970488
vt 0.717472 0.961308
vt 0.764801 0.961308
vt 0.809927 0.564226
vt 0.830061 0.564144
vt 0.830752 0.734196
vt 0.810619 0.734278
vt 0.862486 0.200312
vt 0.843843 0.200388
vt 0.843167 0.034145
vt 0.861810 0.034069
vt 0.882522 0.563931
vt 0.883214 0.733983
vt 0.909423 0.735011
vt 0.908711 0.562886
vt 0.828581 0.200450
vt 0.827905 0.034207
vt 0.843843 0.200388
vt 0.843167 0.034145
vt 0.701681 0.964738
vt 0.679587 0.928665
vt 0.687038 0.918765
vt 0.713954 0.962712
vt 0.766650 0.874503
vt 0.792121 0.916090
vt 0.784537 0.917193
vt 0.762040 0.880460
vt 0.794728 0.918258
vt 0.767812 0.962204
vt 0.762040 0.953927
vt 0.719848 0.865792
vt 0.760903 0.865792
vt 0.765890 0.873149
vt 0.715876 0.873149
vt 0.682018 0.908415
vt 0.702908 0.874267
vt 0.714975 0.874494
vt 0.689526 0.916094
vt 0.776162 0.872998
vt 0.797069 0.907136
vt 0.799387 0.928411
vt 0.777293 0.964485
vt 0.720235 0.953927
vt 0.697737 0.917193
vt 0.697737 0.917193
vt 0.720235 0.953927
vt 0.720235 0.880460
vt 0.762040 0.880460
vt 0.720235 0.880460
vt 0.762040 0.953927
vt 0.722126 0.950602
vt 0.760147 0.950602
vt 0.784537 0.917193
vt 0.780608 0.917193
vt 0.760147 0.883785
vt 0.701665 0.917193
vt 0.722126 0.883785
vt 0.727834 0.893817
vt 0.713518 0.917193
vt 0.727834 0.940571
vt 0.754439 0.940571
vt 0.734337 0.929144
vt 0.747937 0.929144
vt 0.754439 0.893817
vt 0.768756 0.917193
vt 0.755255 0.917193
vt 0.747937 0.905244
vt 0.727018 0.917193
vt 0.734337 0.905244
vt 0.881611 0.339894
vt 0.809015 0.340189
vt 0.809208 0.387506
vt 0.881802 0.387210
vt 0.844781 0.431069
vt 0.863425 0.430994
vt 0.863247 0.387286
vt 0.844604 0.387362
vt 0.829519 0.431131
vt 0.829341 0.387424
vt 0.844604 0.387362
vt 0.844781 0.431069
vt 0.907983 0.386613
vt 0.907793 0.340833
vt 0.829149 0.340107
vt 0.864658 0.734058
vt 0.846014 0.734134
vt 0.845322 0.564082
vt 0.863966 0.564006
vt 0.846014 0.734134
vt 0.845322 0.564082
vt 0.882338 0.518966
vt 0.809744 0.519261
vt 0.908533 0.519602
vt 0.829877 0.519180
vt 0.809386 0.431214
vt 0.829697 0.474839
vt 0.809564 0.474920
vt 0.881980 0.430918
vt 0.882158 0.474626
vt 0.908351 0.475695
vt 0.908167 0.431153
vt 0.863783 0.519042
vt 0.845139 0.519118
vt 0.844959 0.474777
vt 0.863602 0.474701
vt 0.845139 0.519118
vt 0.844959 0.474777
vt 0.807771 0.034288
vt 0.808447 0.200532
vt 0.880365 0.033993
vt 0.881042 0.200236
vt 0.907216 0.201200
vt 0.906525 0.034008
vt 0.844032 0.246904
vt 0.862675 0.246828
vt 0.828770 0.246966
vt 0.844032 0.246904
vt 0.863055 0.339969
vt 0.844411 0.340045
vt 0.844222 0.293504
vt 0.862865 0.293428
vt 0.828960 0.293566
vt 0.844411 0.340045
vt 0.844222 0.293504
vt 0.808637 0.247048
vt 0.808827 0.293648
vt 0.881231 0.246752
vt 0.881421 0.293353
vt 0.907601 0.294278
vt 0.907409 0.247781
vt 0.912975 0.763619
vt 0.912975 0.936444
vt 0.822773 0.936444
vt 0.822773 0.763619
vt 0.810931 0.945655
vt 0.810931 0.753971
vt 0.924816 0.753971
vt 0.924816 0.945655
vn 0.415294 0.794089 0.443794
vn 0.415294 0.794089 -0.443794
vn 0.509025 0.751037 -0.420521
vn 0.509025 0.751037 0.420521
vn -0.010400 -0.040501 -0.999125
vn 0.111707 0.856550 -0.503829
vn 0.003100 0.872174 -0.489186
vn 0.000000 -0.001200 -0.999999
vn 0.006400 -0.032299 0.999458
vn -0.086104 0.861140 0.501023
vn 0.415294 0.794089 0.443794
vn 0.427020 0.000000 0.904242
vn -0.108905 -0.874942 -0.471823
vn -0.003100 -0.872720 -0.488211
vn -0.003100 -0.872720 0.488211
vn -0.108905 -0.874942 0.471823
vn -0.086104 0.861140 -0.501023
vn 0.415294 0.794089 -0.443794
vn 0.415294 0.794089 0.443794
vn -0.086104 0.861140 0.501023
vn 0.084401 -0.875709 0.475405
vn 0.006400 -0.032299 0.999458
vn 0.427020 0.000000 0.904242
vn 0.415428 -0.794055 0.443730
vn -0.108905 -0.874942 -0.471823
vn -0.010400 -0.040501 -0.999125
vn 0.000000 -0.001200 -0.999999
vn -0.003100 -0.872720 -0.488211
vn 0.415294 0.794089 -0.443794
vn 0.427020 0.000000 -0.904242
vn 0.516113 0.000000 -0.856521
vn 0.509025 0.751037 -0.420521
vn 0.509025 -0.751037 0.420521
vn 0.516113 0.000000 0.856521
vn 0.178701 0.000000 0.983904
vn 0.175299 -0.858794 0.481397
vn 0.516113 0.000000 0.856521
vn 0.509025 0.751037 0.420521
vn 0.175299 0.858794 0.481397
vn 0.178701 0.000000 0.983904
vn 0.415428 -0.794055 -0.443730
vn 0.415428 -0.794055 0.443730
vn 0.509025 -0.751037 0.420521
vn 0.509025 -0.751037 -0.420521
vn 0.427020 0.000000 -0.904242
vn 0.415428 -0.794055 -0.443730
vn 0.509025 -0.751037 -0.420521
vn 0.516113 0.000000 -0.856521
vn 0.415428 -0.794055 0.443730
vn 0.427020 0.000000 0.904242
vn 0.516113 0.000000 0.856521
vn 0.509025 -0.751037 0.420521
vn 0.427020 0.000000 0.904242
vn 0.415294 0.794089 0.443794
vn 0.509025 0.751037 0.420521
vn 0.516113 0.000000 0.856521
vn 0.175299 0.858794 -0.481397
vn 0.178701 0.000000 -0.983904
vn -0.154499 0.000000 -0.987993
vn -0.151408 0.862248 -0.483327
vn 0.175299 -0.858794 -0.481397
vn 0.175299 -0.858794 0.481397
vn -0.151408 -0.862248 0.483327
vn -0.151408 -0.862248 -0.483327
vn 0.509025 0.751037 0.420521
vn 0.509025 0.751037 -0.420521
vn 0.175299 0.858794 -0.481397
vn 0.175299 0.858794 0.481397
vn 0.509025 -0.751037 -0.420521
vn 0.509025 -0.751037 0.420521
vn 0.175299 -0.858794 0.481397
vn 0.175299 -0.858794 -0.481397
vn 0.509025 0.751037 -0.420521
vn 0.516113 0.000000 -0.856521
vn 0.178701 0.000000 -0.983904
vn 0.175299 0.858794 -0.481397
vn 0.516113 0.000000 -0.856521
vn 0.509025 -0.751037 -0.420521
vn 0.175299 -0.858794 -0.481397
vn 0.178701 0.000000 -0.983904
vn -0.151408 0.862248 0.483327
vn -0.151408 0.862248 -0.483327
vn -0.520109 0.745213 -0.417307
vn -0.520109 0.745213 0.417307
vn -0.151408 -0.862248 0.483327
vn -0.154499 0.000000 0.987993
vn -0.525804 0.000000 0.850606
vn -0.520109 -0.745213 0.417307
vn 0.178701 0.000000 -0.983904
vn 0.175299 -0.858794 -0.481397
vn -0.151408 -0.862248 -0.483327
vn -0.154499 0.000000 -0.987993
vn 0.178701 0.000000 0.983904
vn 0.175299 0.858794 0.481397
vn -0.151408 0.862248 0.483327
vn -0.154499 0.000000 0.987993
vn 0.175299 -0.858794 0.481397
vn 0.178701 0.000000 0.983904
vn -0.154499 0.000000 0.987993
vn -0.151408 -0.862248 0.483327
vn 0.175299 0.858794 0.481397
vn 0.175299 0.858794 -0.481397
vn -0.151408 0.862248 -0.483327
vn -0.151408 0.862248 0.483327
vn -0.525804 0.000000 -0.850606
vn -0.520109 -0.745213 -0.417307
vn -0.814021 -0.507113 -0.283207
vn -0.819570 0.000000 -0.572979
vn -0.520109 0.745213 -0.417307
vn -0.525804 0.000000 -0.850606
vn -0.819570 0.000000 -0.572979
vn -0.814021 0.507113 -0.283207
vn -0.151408 -0.862248 -0.483327
vn -0.151408 -0.862248 0.483327
vn -0.520109 -0.745213 0.417307
vn -0.520109 -0.745213 -0.417307
vn -0.151408 0.862248 -0.483327
vn -0.154499 0.000000 -0.987993
vn -0.525804 0.000000 -0.850606
vn -0.520109 0.745213 -0.417307
vn -0.154499 0.000000 -0.987993
vn -0.151408 -0.862248 -0.483327
vn -0.520109 -0.745213 -0.417307
vn -0.525804 0.000000 -0.850606
vn -0.154499 0.000000 0.987993
vn -0.151408 0.862248 0.483327
vn -0.520109 0.745213 0.417307
vn -0.525804 0.000000 0.850606
vn -0.814021 0.507113 0.283207
vn -0.814021 0.507113 -0.283207
vn -0.954365 0.261018 -0.145110
vn -0.954365 0.261018 0.145110
vn -0.814021 -0.507113 0.283207
vn -0.819570 0.000000 0.572979
vn -0.954842 0.000000 0.297113
vn -0.954365 -0.261018 0.145110
vn -0.525804 0.000000 0.850606
vn -0.520109 0.745213 0.417307
vn -0.814021 0.507113 0.283207
vn -0.819570 0.000000 0.572979
vn -0.520109 -0.745213 0.417307
vn -0.525804 0.000000 0.850606
vn -0.819570 0.000000 0.572979
vn -0.814021 -0.507113 0.283207
vn -0.520109 0.745213 0.417307
vn -0.520109 0.745213 -0.417307
vn -0.814021 0.507113 -0.283207
vn -0.814021 0.507113 0.283207
vn -0.520109 -0.745213 -0.417307
vn -0.520109 -0.745213 0.417307
vn -0.814021 -0.507113 0.283207
vn -0.814021 -0.507113 -0.283207
vn -0.954842 0.000000 0.297113
vn -0.954365 0.261018 0.145110
vn -0.954365 0.261018 -0.145110
vn -0.954842 0.000000 -0.297113
vn -0.954365 -0.261018 0.145110
vn -0.954842 0.000000 0.297113
vn -0.954842 0.000000 -0.297113
vn -0.954365 -0.261018 -0.145110
vn -0.814021 -0.507113 -0.283207
vn -0.814021 -0.507113 0.283207
vn -0.954365 -0.261018 0.145110
vn -0.954365 -0.261018 -0.145110
vn -0.814021 0.507113 -0.283207
vn -0.819570 0.000000 -0.572979
vn -0.954842 0.000000 -0.297113
vn -0.954365 0.261018 -0.145110
vn -0.819570 0.000000 -0.572979
vn -0.814021 -0.507113 -0.283207
vn -0.954365 -0.261018 -0.145110
vn -0.954842 0.000000 -0.297113
vn -0.819570 0.000000 0.572979
vn -0.814021 0.507113 0.283207
vn -0.954365 0.261018 0.145110
vn -0.954842 0.000000 0.297113
vn 0.250608 -0.833027 -0.493216
vn -0.020301 0.032902 -0.999252
vn -0.000500 0.059502 -0.998228
vn 0.003400 -0.857788 -0.513993
vn -0.244208 -0.834629 0.493717
vn 0.019801 0.033002 0.999259
vn -0.000500 0.059502 0.998228
vn 0.003400 -0.857788 0.513993
vn 0.238706 0.850322 -0.469012
vn -0.003300 0.884553 -0.466428
vn -0.003300 0.884553 0.466428
vn 0.238706 0.850322 0.469012
vn 0.250608 -0.833027 -0.493216
vn 0.003400 -0.857788 -0.513993
vn 0.003400 -0.857788 0.513993
vn 0.250608 -0.833027 0.493216
vn 0.019801 0.033002 0.999259
vn 0.238706 0.850322 0.469012
vn -0.003300 0.884553 0.466428
vn -0.000500 0.059502 0.998228
vn -0.020301 0.032902 -0.999252
vn -0.245012 0.848741 -0.468623
vn -0.003300 0.884553 -0.466428
vn -0.000500 0.059502 -0.998228
vn 0.000000 -0.001200 0.999999
vn 0.003100 0.872174 0.489186
vn 0.111707 0.856550 0.503829
vn -0.010400 -0.040501 0.999125
vn 0.003100 0.872174 -0.489186
vn 0.111707 0.856550 -0.503829
vn 0.111707 0.856550 0.503829
vn 0.003100 0.872174 0.489186
vn -0.003100 -0.872720 0.488211
vn 0.000000 -0.001200 0.999999
vn -0.010400 -0.040501 0.999125
vn -0.108905 -0.874942 0.471823
vn -0.279301 -0.837703 -0.469302
vn -0.017501 -0.024401 -0.999549
vn -0.010400 -0.040501 -0.999125
vn -0.108905 -0.874942 -0.471823
vn -0.279301 -0.837703 -0.469302
vn -0.108905 -0.874942 -0.471823
vn -0.108905 -0.874942 0.471823
vn -0.279301 -0.837703 0.469302
vn -0.017501 -0.024401 -0.999549
vn 0.284203 0.825808 -0.487104
vn 0.111707 0.856550 -0.503829
vn -0.010400 -0.040501 -0.999125
vn 0.019801 0.033002 -0.999259
vn 0.238706 0.850322 -0.469012
vn 0.336314 0.815033 -0.471819
vn 0.003100 0.003400 -0.999989
vn -0.244208 -0.834629 -0.493717
vn -0.337196 -0.813289 -0.474194
vn -0.337196 -0.813289 0.474194
vn -0.244208 -0.834629 0.493717
vn -0.244208 -0.834629 -0.493717
vn 0.019801 0.033002 -0.999259
vn 0.003100 0.003400 -0.999989
vn -0.337196 -0.813289 -0.474194
vn -0.017501 -0.024401 0.999549
vn 0.284203 0.825808 0.487104
vn 0.336314 0.815033 0.471819
vn 0.003100 0.003400 0.999989
vn 0.284203 0.825808 -0.487104
vn 0.336314 0.815033 -0.471819
vn 0.336314 0.815033 0.471819
vn 0.284203 0.825808 0.487104
vn -0.279301 -0.837703 0.469302
vn -0.017501 -0.024401 0.999549
vn 0.003100 0.003400 0.999989
vn -0.337196 -0.813289 0.474194
vn 0.427020 0.000000 -0.904242
vn 0.415294 0.794089 -0.443794
vn -0.086104 0.861140 -0.501023
vn 0.006400 -0.032299 -0.999458
vn 0.415428 -0.794055 -0.443730
vn 0.084401 -0.875709 -0.475405
vn 0.084401 -0.875709 0.475405
vn 0.415428 -0.794055 0.443730
vn 0.415428 -0.794055 -0.443730
vn 0.427020 0.000000 -0.904242
vn 0.006400 -0.032299 -0.999458
vn 0.084401 -0.875709 -0.475405
vn 0.251615 -0.846750 0.468727
vn 0.020100 -0.031400 0.999305
vn 0.006400 -0.032299 0.999458
vn 0.084401 -0.875709 0.475405
vn -0.257216 0.831653 -0.492131
vn -0.086104 0.861140 -0.501023
vn -0.086104 0.861140 0.501023
vn -0.257216 0.831653 0.492131
vn 0.020100 -0.031400 0.999305
vn -0.257216 0.831653 0.492131
vn -0.086104 0.861140 0.501023
vn 0.006400 -0.032299 0.999458
vn -0.020301 0.032902 0.999252
vn -0.245012 0.848741 0.468623
vn -0.335202 0.814805 0.473003
vn -0.000500 0.000500 1.000000
vn -0.245012 0.848741 -0.468623
vn -0.335202 0.814805 -0.473003
vn -0.335202 0.814805 0.473003
vn -0.245012 0.848741 0.468623
vn 0.250608 -0.833027 0.493216
vn -0.020301 0.032902 0.999252
vn -0.000500 0.000500 1.000000
vn 0.335398 -0.814496 0.473397
vn 0.020100 -0.031400 -0.999305
vn -0.257216 0.831653 -0.492131
vn -0.335202 0.814805 -0.473003
vn -0.000500 0.000500 -1.000000
vn 0.251615 -0.846750 -0.468727
vn 0.335398 -0.814496 -0.473397
vn 0.335398 -0.814496 0.473397
vn 0.251615 -0.846750 0.468727
vn 0.251615 -0.846750 -0.468727
vn 0.020100 -0.031400 -0.999305
vn -0.000500 0.000500 -1.000000
vn 0.335398 -0.814496 -0.473397
vn 0.084401 -0.875709 -0.475405
vn 0.006400 -0.032299 -0.999458
vn 0.020100 -0.031400 -0.999305
vn 0.251615 -0.846750 -0.468727
vn 0.084401 -0.875709 -0.475405
vn 0.251615 -0.846750 -0.468727
vn 0.251615 -0.846750 0.468727
vn 0.084401 -0.875709 0.475405
vn 0.006400 -0.032299 -0.999458
vn -0.086104 0.861140 -0.501023
vn -0.257216 0.831653 -0.492131
vn 0.020100 -0.031400 -0.999305
vn -0.000500 0.000500 1.000000
vn -0.335202 0.814805 0.473003
vn -0.257216 0.831653 0.492131
vn 0.020100 -0.031400 0.999305
vn -0.335202 0.814805 -0.473003
vn -0.257216 0.831653 -0.492131
vn -0.257216 0.831653 0.492131
vn -0.335202 0.814805 0.473003
vn 0.335398 -0.814496 0.473397
vn -0.000500 0.000500 1.000000
vn 0.020100 -0.031400 0.999305
vn 0.251615 -0.846750 0.468727
vn 0.003400 -0.857788 0.513993
vn -0.000500 0.059502 0.998228
vn -0.020301 0.032902 0.999252
vn 0.250608 -0.833027 0.493216
vn -0.003300 0.884553 -0.466428
vn -0.245012 0.848741 -0.468623
vn -0.245012 0.848741 0.468623
vn -0.003300 0.884553 0.466428
vn -0.000500 0.059502 0.998228
vn -0.003300 0.884553 0.466428
vn -0.245012 0.848741 0.468623
vn -0.020301 0.032902 0.999252
vn -0.000500 0.000500 -1.000000
vn -0.335202 0.814805 -0.473003
vn -0.245012 0.848741 -0.468623
vn -0.020301 0.032902 -0.999252
vn 0.335398 -0.814496 -0.473397
vn 0.250608 -0.833027 -0.493216
vn 0.250608 -0.833027 0.493216
vn 0.335398 -0.814496 0.473397
vn 0.335398 -0.814496 -0.473397
vn -0.000500 0.000500 -1.000000
vn -0.020301 0.032902 -0.999252
vn 0.250608 -0.833027 -0.493216
vn 0.003400 -0.857788 -0.513993
vn -0.000500 0.059502 -0.998228
vn 0.019801 0.033002 -0.999259
vn -0.244208 -0.834629 -0.493717
vn 0.003400 -0.857788 -0.513993
vn -0.244208 -0.834629 -0.493717
vn -0.244208 -0.834629 0.493717
vn 0.003400 -0.857788 0.513993
vn -0.000500 0.059502 -0.998228
vn -0.003300 0.884553 -0.466428
vn 0.238706 0.850322 -0.469012
vn 0.019801 0.033002 -0.999259
vn 0.003100 0.003400 0.999989
vn 0.336314 0.815033 0.471819
vn 0.238706 0.850322 0.469012
vn 0.019801 0.033002 0.999259
vn 0.336314 0.815033 -0.471819
vn 0.238706 0.850322 -0.469012
vn 0.238706 0.850322 0.469012
vn 0.336314 0.815033 0.471819
vn -0.337196 -0.813289 0.474194
vn 0.003100 0.003400 0.999989
vn 0.019801 0.033002 0.999259
vn -0.244208 -0.834629 0.493717
vn -0.108905 -0.874942 0.471823
vn -0.010400 -0.040501 0.999125
vn -0.017501 -0.024401 0.999549
vn -0.279301 -0.837703 0.469302
vn 0.111707 0.856550 -0.503829
vn 0.284203 0.825808 -0.487104
vn 0.284203 0.825808 0.487104
vn 0.111707 0.856550 0.503829
vn -0.010400 -0.040501 0.999125
vn 0.111707 0.856550 0.503829
vn 0.284203 0.825808 0.487104
vn -0.017501 -0.024401 0.999549
vn 0.003100 0.003400 -0.999989
vn 0.336314 0.815033 -0.471819
vn 0.284203 0.825808 -0.487104
vn -0.017501 -0.024401 -0.999549
vn -0.337196 -0.813289 -0.474194
vn -0.279301 -0.837703 -0.469302
vn -0.279301 -0.837703 0.469302
vn -0.337196 -0.813289 0.474194
vn -0.337196 -0.813289 -0.474194
vn 0.003100 0.003400 -0.999989
vn -0.017501 -0.024401 -0.999549
vn -0.279301 -0.837703 -0.469302
vn -1.000000 0.000000 0.000000
vn -1.000000 0.000000 0.000000
vn -1.000000 0.000000 0.000000
vn -1.000000 0.000000 0.000000
vn 0.000000 0.000000 -1.000000
vn 0.000000 0.000000 -1.000000
vn 0.000000 0.000000 -1.000000
vn 0.000000 0.000000 -1.000000
vn 0.000000 0.000000 1.000000
vn 0.000000 0.000000 1.000000
vn 0.000000 0.000000 1.000000
vn 0.000000 0.000000 1.000000
vn 0.000000 -1.000000 0.000000
vn 0.000000 -1.000000 0.000000
vn 0.000000 -1.000000 0.000000
vn 0.000000 -1.000000 0.000000
vn 0.000000 1.000000 0.000000
vn 0.000000 1.000000 0.000000
vn 0.000000 1.000000 0.000000
vn 0.000000 1.000000 0.000000
s off
g polySurface6
usemtl blinn1SG
f 2/1/1 4/2/2 17/3/3 16/4/4
f 57/5/5 55/6/6 8/7/7 11/8/8
f 69/9/9 68/10/10 2/11/11 9/12/12
f 58/13/13 7/14/14 5/15/15 56/16/16
f 70/17/17 4/18/18 2/11/19 68/10/20
f 71/19/21 69/9/22 9/12/23 1/20/24
f 58/13/25 57/5/26 11/8/27 7/14/28
f 4/21/29 10/22/30 18/23/31 17/24/32
f 14/25/33 15/26/34 21/27/35 20/28/36
f 15/29/37 16/30/38 22/31/39 21/27/40
f 3/32/41 1/33/42 14/34/43 13/35/44
f 10/36/45 3/37/46 13/38/47 18/39/48
f 1/40/49 9/41/50 15/26/51 14/25/52
f 9/42/53 2/43/54 16/30/55 15/29/56
f 23/44/57 24/45/58 30/46/59 29/47/60
f 19/48/61 20/28/62 26/49/63 25/50/64
f 16/4/65 17/3/66 23/44/67 22/31/68
f 13/35/69 14/34/70 20/28/71 19/48/72
f 17/24/73 18/23/74 24/45/75 23/44/76
f 18/39/77 13/38/78 19/48/79 24/45/80
f 28/51/81 29/47/82 35/52/83 34/53/84
f 26/49/85 27/54/86 33/55/87 32/56/88
f 24/45/89 19/48/90 25/50/91 30/46/92
f 21/27/93 22/31/94 28/51/95 27/54/96
f 20/28/97 21/27/98 27/54/99 26/49/100
f 22/31/101 23/44/102 29/47/103 28/51/104
f 36/57/105 31/58/106 37/59/107 42/60/108
f 35/52/109 36/57/110 42/60/111 41/61/112
f 25/50/113 26/49/114 32/56/115 31/58/116
f 29/47/117 30/46/118 36/57/119 35/52/120
f 30/46/121 25/50/122 31/58/123 36/57/124
f 27/54/125 28/51/126 34/53/127 33/55/128
f 40/62/129 41/61/130 47/63/131 46/64/132
f 38/65/133 39/66/134 45/67/135 44/68/136
f 33/55/137 34/53/138 40/62/139 39/66/140
f 32/56/141 33/55/142 39/66/143 38/65/144
f 34/53/145 35/52/146 41/61/147 40/62/148
f 31/58/149 32/56/150 38/65/151 37/59/152
f 45/67/153 46/64/154 47/63/155 48/69/156
f 44/68/157 45/67/158 48/69/159 43/70/160
f 37/59/161 38/65/162 44/68/163 43/70/164
f 41/61/165 42/60/166 48/69/167 47/63/168
f 42/60/169 37/59/170 43/70/171 48/69/172
f 39/66/173 40/62/174 46/64/175 45/67/176
f 88/71/177 87/72/178 54/73/179 49/74/180
f 95/75/181 93/76/182 53/77/183 51/78/184
f 94/79/185 50/80/186 52/81/187 92/82/188
f 88/71/189 49/74/190 51/83/191 86/84/192
f 93/76/193 92/82/194 52/81/195 53/77/196
f 87/72/197 85/85/198 50/80/199 54/73/200
f 12/86/201 6/87/202 59/88/203 60/89/204
f 8/7/205 55/6/206 59/88/207 6/87/208
f 5/90/209 12/86/210 60/89/211 56/91/212
f 100/92/213 99/93/214 57/5/215 58/13/216
f 100/92/217 58/13/218 56/16/219 98/94/220
f 99/93/221 97/95/222 55/6/223 57/5/224
f 96/96/225 94/79/226 64/97/227 66/98/228
f 91/99/229 61/100/230 65/101/231 95/102/232
f 91/99/233 96/96/234 66/98/235 61/100/236
f 102/103/237 101/104/238 62/105/239 63/106/240
f 97/95/241 64/97/242 62/105/243 101/104/244
f 98/107/245 102/103/246 63/106/247 65/108/248
f 10/109/249 4/18/250 70/17/251 72/110/252
f 3/111/253 67/112/254 71/113/255 1/114/256
f 3/111/257 10/109/258 72/110/259 67/112/260
f 83/115/261 81/116/262 69/9/263 71/19/264
f 82/117/265 70/17/266 68/10/267 80/118/268
f 81/116/269 80/118/270 68/10/271 69/9/272
f 90/119/273 89/120/274 77/121/275 78/122/276
f 85/85/277 73/123/278 77/121/279 89/120/280
f 86/124/281 90/119/282 78/122/283 74/125/284
f 84/126/285 82/117/286 73/123/287 75/127/288
f 79/128/289 76/129/290 74/130/291 83/131/292
f 79/128/293 84/126/294 75/127/295 76/129/296
f 67/112/297 72/110/298 84/126/299 79/128/300
f 67/112/301 79/128/302 83/131/303 71/113/304
f 72/110/305 70/17/306 82/117/307 84/126/308
f 78/122/309 77/121/310 80/118/311 81/116/312
f 73/123/313 82/117/314 80/118/315 77/121/316
f 74/125/317 78/122/318 81/116/319 83/115/320
f 51/78/321 53/77/322 90/119/323 86/124/324
f 50/80/325 85/85/326 89/120/327 52/81/328
f 53/77/329 52/81/330 89/120/331 90/119/332
f 75/127/333 73/123/334 85/85/335 87/72/336
f 76/129/337 88/71/338 86/84/339 74/130/340
f 76/129/341 75/127/342 87/72/343 88/71/344
f 49/74/345 54/73/346 96/96/347 91/99/348
f 49/74/349 91/99/350 95/102/351 51/83/352
f 54/73/353 50/80/354 94/79/355 96/96/356
f 63/106/357 62/105/358 92/82/359 93/76/360
f 64/97/361 94/79/362 92/82/363 62/105/364
f 65/108/365 63/106/366 93/76/367 95/75/368
f 56/91/369 60/89/370 102/103/371 98/107/372
f 55/6/373 97/95/374 101/104/375 59/88/376
f 60/89/377 59/88/378 101/104/379 102/103/380
f 66/98/381 64/97/382 97/95/383 99/93/384
f 61/100/385 100/92/386 98/94/387 65/101/388
f 61/100/389 66/98/390 99/93/391 100/92/392
f 103/132/393 104/133/394 106/134/395 105/135/396
f 105/135/397 106/134/398 110/136/399 109/137/400
f 107/138/401 108/139/402 104/133/403 103/132/404
f 105/135/405 109/137/406 107/138/407 103/132/408
f 110/136/409 106/134/410 104/133/411 108/139/412
