# This file uses centimeters as units for non-parametric coordinates.

mtllib SignPost_singleCOL.mtl
g default
v 0.576907 0.000000 -0.576908
v -0.576908 0.000000 -0.576908
v -0.576908 0.000000 0.576908
v 0.576907 0.000000 0.576908
v 0.440145 17.550529 -0.440145
v -0.440146 17.550529 -0.440145
v -0.440146 17.550529 0.440145
v 0.440145 17.550529 0.440145
v 0.000000 0.000000 0.000000
v 0.000000 17.550529 0.000000
v -5.223461 8.618007 1.053388
v 5.032033 8.618007 1.053388
v -5.223461 17.261635 1.053388
v 5.032033 17.261635 1.053388
v -5.223461 17.261635 0.349756
v 5.032033 17.261635 0.349756
v -5.223461 8.618007 0.349756
v 5.032033 8.618007 0.349756
vt 0.512777 0.970271
vt 0.517193 0.657782
vt 0.466593 0.658017
vt 0.473909 0.970450
vt 0.483513 0.657713
vt 0.486950 0.970229
vt 0.500271 0.657636
vt 0.499735 0.970169
vt 0.483769 0.985687
vt 0.489402 0.972086
vt 0.493386 0.981703
vt 0.497369 0.991320
vt 0.503003 0.977720
vt 0.493446 0.981730
vt 0.503155 0.985750
vt 0.489426 0.991437
vt 0.483739 0.977708
vt 0.497468 0.972022
vt 0.375000 0.000000
vt 0.625000 0.000000
vt 0.625000 0.250000
vt 0.375000 0.250000
vt 0.625000 0.500000
vt 0.375000 0.500000
vt 0.625000 0.750000
vt 0.375000 0.750000
vt 0.625000 1.000000
vt 0.375000 1.000000
vt 0.875000 0.000000
vt 0.875000 0.250000
vt 0.125000 0.000000
vt 0.125000 0.250000
vn 0.707082 0.008303 -0.707083
vn 0.707082 0.008303 -0.707082
vn -0.707082 0.008303 -0.707082
vn -0.707082 0.008303 -0.707083
vn -0.707082 0.008303 -0.707083
vn -0.707082 0.008303 -0.707082
vn -0.707082 0.008303 0.707082
vn -0.707082 0.008303 0.707083
vn -0.707082 0.008303 0.707083
vn -0.707082 0.008303 0.707082
vn 0.707082 0.008303 0.707082
vn 0.707082 0.008303 0.707083
vn 0.707082 0.008303 0.707083
vn 0.707082 0.008303 0.707082
vn 0.707082 0.008303 -0.707082
vn 0.707082 0.008303 -0.707083
vn 0.000000 -1.000000 0.000000
vn 0.000000 -1.000000 0.000000
vn 0.000000 -1.000000 0.000000
vn 0.000000 -1.000000 0.000000
vn 0.000000 -1.000000 0.000000
vn 0.000000 -1.000000 0.000000
vn 0.000000 -1.000000 0.000000
vn 0.000000 -1.000000 0.000000
vn 0.000000 -1.000000 0.000000
vn 0.000000 -1.000000 0.000000
vn 0.000000 -1.000000 0.000000
vn 0.000000 -1.000000 0.000000
vn 0.000000 1.000000 0.000000
vn 0.000000 1.000000 0.000000
vn 0.000000 1.000000 0.000003
vn 0.000000 1.000000 0.000000
vn 0.000000 1.000000 0.000003
vn 0.000000 1.000000 0.000000
vn 0.000000 1.000000 0.000000
vn 0.000000 1.000000 0.000000
vn 0.000000 1.000000 -0.000003
vn 0.000000 1.000000 0.000000
vn 0.000000 1.000000 -0.000003
vn 0.000000 1.000000 0.000000
vn 0.000000 0.000000 1.000000
vn 0.000000 0.000000 1.000000
vn 0.000000 0.000000 1.000000
vn 0.000000 0.000000 1.000000
vn 0.000000 1.000000 0.000000
vn 0.000000 1.000000 0.000000
vn 0.000000 1.000000 0.000000
vn 0.000000 1.000000 0.000000
vn 0.000000 0.000000 -1.000000
vn 0.000000 0.000000 -1.000000
vn 0.000000 0.000000 -1.000000
vn 0.000000 0.000000 -1.000000
vn 0.000000 -1.000000 0.000000
vn 0.000000 -1.000000 0.000000
vn 0.000000 -1.000000 0.000000
vn 0.000000 -1.000000 0.000000
vn 1.000000 0.000000 0.000000
vn 1.000000 0.000000 0.000000
vn 1.000000 0.000000 0.000000
vn 1.000000 0.000000 0.000000
vn -1.000000 0.000000 0.000000
vn -1.000000 0.000000 0.000000
vn -1.000000 0.000000 0.000000
vn -1.000000 0.000000 0.000000
s off
g SignPostCOL_polySurface2
usemtl initialShadingGroup
f 5/1/1 1/2/2 2/3/3 6/4/4
f 6/4/5 2/3/6 3/5/7 7/6/8
f 7/6/9 3/5/10 4/7/11 8/8/12
f 8/8/13 4/7/14 1/2/15 5/1/16
f 2/9/17 1/10/18 9/11/19
f 3/12/20 2/9/21 9/11/22
f 4/13/23 3/12/24 9/11/25
f 1/10/26 4/13/27 9/11/28
f 10/14/29 5/15/30 6/16/31
f 10/14/32 6/16/33 7/17/34
f 10/14/35 7/17/36 8/18/37
f 10/14/38 8/18/39 5/15/40
f 11/19/41 12/20/42 14/21/43 13/22/44
f 13/22/45 14/21/46 16/23/47 15/24/48
f 15/24/49 16/23/50 18/25/51 17/26/52
f 17/26/53 18/25/54 12/27/55 11/28/56
f 12/20/57 18/29/58 16/30/59 14/21/60
f 17/31/61 11/19/62 13/22/63 15/32/64
