# This file uses centimeters as units for non-parametric coordinates.

mtllib WoodBridge01Plank.mtl
g default
v -6.803989 -0.320018 1.320019
v -6.624006 -0.500000 1.320019
v -6.623996 -0.320018 1.500000
v 6.641011 -0.500000 1.320019
v 6.820993 -0.320018 1.320019
v 6.641011 -0.320018 1.500000
v -6.624006 0.500000 1.320019
v -6.803989 0.320018 1.320019
v -6.623996 0.320018 1.500000
v 6.820993 0.320018 1.320019
v 6.641011 0.500000 1.320019
v 6.641011 0.320018 1.500000
v -6.624006 0.320018 -1.500000
v -6.803989 0.320018 -1.320019
v -6.624006 0.500000 -1.320019
v 6.820993 0.320018 -1.320019
v 6.641011 0.320018 -1.500000
v 6.641011 0.500000 -1.320019
v -6.624006 -0.500000 -1.320019
v -6.803989 -0.320018 -1.320019
v -6.624006 -0.320018 -1.500000
v 6.820993 -0.320018 -1.320019
v 6.641011 -0.500000 -1.320019
v 6.641011 -0.320018 -1.500000
vt 0.233420 0.936812
vt 0.023348 0.936744
vt 0.547310 0.266233
vt 0.557451 0.266244
vt 0.557228 0.476401
vt 0.547088 0.476391
vt 0.557223 0.480434
vt 0.557178 0.522255
vt 0.547040 0.522244
vt 0.547084 0.480423
vt 0.454091 0.948974
vt 0.547423 0.220331
vt 0.023355 0.894954
vt 0.233429 0.894949
vt 0.237434 0.894726
vt 0.557568 0.220357
vt 0.557460 0.262208
vt 0.237804 0.937023
vt 0.233468 0.890928
vt 0.023316 0.890933
vt 0.547314 0.262181
vt 0.454457 0.990780
vt 0.244309 0.992651
vt 0.243929 0.950847
vt 0.557577 0.216322
vt 0.239933 0.950691
vt 0.240316 0.992878
vt 0.243852 0.946824
vt 0.454095 0.944868
vt 0.458091 0.948744
vt 0.458453 0.990937
vt 0.547035 0.526276
vt 0.557174 0.526287
vt 0.023307 0.940765
vt 0.019363 0.894762
vt 0.454532 0.994803
vt 0.019355 0.936935
vt 0.244306 0.996674
vt 0.233462 0.940841
vt 0.547434 0.216297
vt 0.547954 0.006082
vt 0.558097 0.006107
vn -0.366999 -0.854764 -0.367002
vn 0.367001 -0.854763 -0.367002
vn 0.367001 -0.854763 0.367002
vn -0.366997 -0.854762 0.367009
vn 0.367000 -0.367000 0.854764
vn 0.367000 0.367000 0.854764
vn -0.366988 0.366995 0.854772
vn -0.366988 -0.366995 0.854772
vn -0.854757 0.367000 0.367016
vn -0.854762 0.367003 -0.367003
vn -0.854762 -0.367003 -0.367003
vn -0.854757 -0.367000 0.367016
vn 0.854763 -0.367001 -0.367002
vn 0.854763 0.367001 -0.367002
vn 0.854763 0.367001 0.367002
vn 0.854763 -0.367001 0.367002
vn 0.367001 0.854763 0.367002
vn 0.367001 0.854763 -0.367002
vn -0.366999 0.854764 -0.367002
vn -0.366997 0.854762 0.367009
vn 0.367000 0.367000 -0.854764
vn 0.367000 -0.367000 -0.854764
vn -0.366998 -0.367001 -0.854765
vn -0.366998 0.367001 -0.854765
s 1
g WalkPlank01
usemtl phong1SG
f 19/1/1 23/2/2 4/13/3 2/14/4
f 6/3/5 12/4/6 9/5/7 3/6/8
f 8/7/9 14/8/10 20/9/11 1/10/12
f 22/12/13 16/16/14 10/17/15 5/21/16
f 11/11/17 18/22/18 15/23/19 7/24/20
f 17/25/21 24/40/22 21/41/23 13/42/24
f 2/14/4 1/15/12 20/18/11 19/1/1
f 3/19/8 2/14/4 4/13/3 6/20/5
f 1/10/12 3/6/8 9/5/7 8/7/9
f 5/35/16 4/13/3 23/2/2 22/37/13
f 6/3/5 5/21/16 10/17/15 12/4/6
f 8/26/9 7/24/20 15/23/19 14/27/10
f 7/24/20 9/28/7 12/29/6 11/11/17
f 11/11/17 10/30/15 16/31/14 18/22/18
f 14/8/10 13/33/24 21/32/23 20/9/11
f 13/38/24 15/23/19 18/22/18 17/36/21
f 17/25/21 16/16/14 22/12/13 24/40/22
f 19/1/1 21/39/23 24/34/22 23/2/2
f 1/15/12 2/14/4 3/19/8
f 4/13/3 5/35/16 6/20/5
f 7/24/20 8/26/9 9/28/7
f 10/30/15 11/11/17 12/29/6
f 13/38/24 14/27/10 15/23/19
f 16/31/14 17/36/21 18/22/18
f 19/1/1 20/18/11 21/39/23
f 22/37/13 23/2/2 24/34/22
