# This file uses centimeters as units for non-parametric coordinates.

mtllib OrangeTallRLowerLeg.mtl
g default
v 1.569805 0.101895 0.178714
v 1.569805 0.001414 0.165485
v 1.569805 -0.099067 0.178713
v 1.419952 0.195528 -0.170729
v 1.419952 0.001415 -0.196285
v 1.419952 -0.192700 -0.170730
v 1.181572 0.275934 -0.470801
v 1.181572 0.001414 -0.506943
v 1.181572 -0.273104 -0.470803
v 0.870910 0.337631 -0.701054
v 0.870910 0.001415 -0.745318
v 0.870910 -0.334801 -0.701055
v 0.509138 0.376416 -0.845796
v 0.509137 0.001416 -0.895167
v 0.509138 -0.373584 -0.845798
v 0.120909 0.389645 -0.895163
v 0.120908 0.001415 -0.946274
v 0.120909 -0.386813 -0.895164
v -0.267319 0.376416 -0.845791
v -0.267320 0.001416 -0.895161
v -0.267319 -0.373584 -0.845792
v -0.629090 0.337631 -0.701043
v -0.629090 0.001415 -0.745307
v -0.629090 -0.334801 -0.701044
v -0.939749 0.275934 -0.470786
v -0.939749 0.001414 -0.506927
v -0.939749 -0.273104 -0.470787
v -1.178124 0.195528 -0.170710
v -1.178124 0.001415 -0.196266
v -1.178124 -0.192700 -0.170711
v -1.327972 0.101895 0.178735
v -1.327972 0.001414 0.165506
v -1.327972 -0.099067 0.178734
v 1.419953 0.376414 -0.095803
v 1.569806 0.195527 0.217499
v 1.569806 -0.192702 0.217498
v 1.419953 -0.373586 -0.095804
v 1.181573 0.531745 -0.364841
v 1.181573 -0.528916 -0.364842
v 0.870911 0.650934 -0.571279
v 0.870911 -0.648103 -0.571282
v 0.509139 0.725859 -0.701051
v 0.509139 -0.723029 -0.701054
v 0.120910 0.751414 -0.745311
v 0.120910 -0.748583 -0.745314
v -0.267318 0.725859 -0.701045
v -0.267318 -0.723029 -0.701049
v -0.629089 0.650934 -0.571268
v -0.629089 -0.648103 -0.571271
v -0.939748 0.531745 -0.364826
v -0.939748 -0.528916 -0.364827
v -1.178123 0.376414 -0.095784
v -1.178123 -0.373586 -0.095785
v -1.327972 0.195527 0.217520
v -1.327972 -0.192702 0.217519
v 1.620919 0.001413 0.553713
v -1.379081 0.001413 0.553735
v 1.419957 0.001386 0.553735
v 1.181580 0.001429 0.553705
v 0.870919 0.001462 0.553682
v 0.509148 0.001483 0.553670
v 0.120919 0.001491 0.553667
v -0.267309 0.001483 0.553676
v -0.629081 0.001409 0.553724
v -0.939741 0.001429 0.553720
v -1.178119 0.001386 0.553754
v 1.419955 -0.192717 0.217504
v 1.181577 -0.192688 0.217497
v 0.870917 -0.192659 0.217491
v 0.509145 -0.192637 0.217488
v 0.120917 -0.192630 0.217488
v -0.267312 -0.192637 0.217494
v -0.629083 -0.192701 0.217513
v -0.939743 -0.192688 0.217512
v -1.178121 -0.192717 0.217522
v 0.870913 -0.528904 -0.364843
v 0.509141 -0.528891 -0.364843
v 0.120913 -0.528886 -0.364841
v -0.267316 -0.528891 -0.364837
v -0.629087 -0.528916 -0.364829
v 1.181575 -0.373579 -0.095803
v 0.870915 -0.373556 -0.095800
v 0.509143 -0.373537 -0.095797
v 0.120915 -0.373530 -0.095795
v -0.267314 -0.373537 -0.095792
v -0.629085 -0.373585 -0.095789
v -0.939746 -0.373579 -0.095787
v 0.509140 -0.648093 -0.571280
v 0.120911 -0.648089 -0.571277
v -0.267317 -0.648093 -0.571274
v 1.419955 0.195519 0.217502
v 1.181577 0.195534 0.217500
v 0.870917 0.195552 0.217497
v 0.509145 0.195562 0.217498
v 0.120917 0.195566 0.217500
v -0.267312 0.195562 0.217504
v -0.629083 0.195522 0.217516
v -0.939743 0.195534 0.217515
v -1.178121 0.195519 0.217521
v -0.939746 0.376417 -0.095787
v -0.629085 0.376410 -0.095787
v -0.267314 0.376439 -0.095800
v 0.120915 0.376441 -0.095802
v 0.509143 0.376439 -0.095806
v 0.870915 0.376429 -0.095805
v 1.181575 0.376417 -0.095802
v 0.870913 0.531751 -0.364840
v 0.509141 0.531759 -0.364841
v 0.120913 0.531761 -0.364839
v -0.267316 0.531759 -0.364836
v -0.629087 0.531743 -0.364827
v -0.267317 0.650938 -0.571271
v 0.120911 0.650940 -0.571274
v 0.509140 0.650938 -0.571277
vt 0.919735 0.525127
vt 0.908274 0.520889
vt 0.919286 0.475072
vt 0.941746 0.482191
vt 0.896038 0.519561
vt 0.895622 0.472832
vt 0.883812 0.521182
vt 0.871930 0.475390
vt 0.872388 0.525709
vt 0.849385 0.482878
vt 0.928765 0.429159
vt 0.961013 0.437151
vt 0.895445 0.426635
vt 0.862051 0.429289
vt 0.829563 0.437447
vt 0.936043 0.383054
vt 0.976050 0.389886
vt 0.895471 0.380876
vt 0.854811 0.382939
vt 0.814512 0.389590
vt 0.940692 0.336742
vt 0.985724 0.340783
vt 0.895630 0.335409
vt 0.850511 0.336438
vt 0.805281 0.339997
vt 0.942453 0.290270
vt 0.989296 0.290570
vt 0.895853 0.290083
vt 0.849253 0.289896
vt 0.802409 0.289596
vt 0.941194 0.243728
vt 0.986425 0.240170
vt 0.896075 0.244758
vt 0.851013 0.243424
vt 0.805981 0.239383
vt 0.936894 0.197227
vt 0.977193 0.190576
vt 0.896234 0.199290
vt 0.855662 0.197112
vt 0.815656 0.190280
vt 0.929654 0.150877
vt 0.962142 0.142720
vt 0.896260 0.153531
vt 0.862941 0.151008
vt 0.830692 0.143015
vt 0.919775 0.104776
vt 0.942320 0.097288
vt 0.896083 0.107334
vt 0.872420 0.105095
vt 0.849959 0.097975
vt 0.907893 0.058985
vt 0.919318 0.054457
vt 0.895668 0.060605
vt 0.883431 0.059277
vt 0.871970 0.055039
vt 0.896626 0.566719
vt 0.895079 0.013447
vt 0.975918 0.823419
vt 0.957626 0.823392
vt 0.957695 0.776002
vt 0.982225 0.776039
vt 0.957822 0.684456
vt 0.976053 0.728641
vt 0.957761 0.728615
vt 0.928529 0.823351
vt 0.928598 0.775964
vt 0.928778 0.646496
vt 0.928725 0.684417
vt 0.890608 0.823297
vt 0.890676 0.775912
vt 0.890898 0.617346
vt 0.890857 0.646443
vt 0.846448 0.823234
vt 0.846516 0.775851
vt 0.846765 0.598992
vt 0.846739 0.617284
vt 0.799059 0.823167
vt 0.799126 0.775784
vt 0.799385 0.592686
vt 0.799350 0.617217
vt 0.751669 0.823100
vt 0.751735 0.775717
vt 0.751988 0.598857
vt 0.751962 0.617149
vt 0.707510 0.823037
vt 0.707575 0.775650
vt 0.707802 0.617085
vt 0.669588 0.822985
vt 0.669654 0.775597
vt 0.669840 0.646128
vt 0.707761 0.646183
vt 0.640491 0.822944
vt 0.640557 0.775553
vt 0.640688 0.684007
vt 0.669786 0.684049
vt 0.622199 0.822919
vt 0.616027 0.775520
vt 0.622333 0.728140
vt 0.640625 0.728165
vt 0.928663 0.728576
vt 0.890742 0.728525
vt 0.846582 0.728464
vt 0.799193 0.728398
vt 0.751803 0.728329
vt 0.707643 0.728263
vt 0.669723 0.728208
vt 0.890804 0.684366
vt 0.846698 0.646382
vt 0.846644 0.684305
vt 0.799309 0.646315
vt 0.799255 0.684239
vt 0.751920 0.646247
vt 0.751866 0.684170
vt 0.707707 0.684103
vt 0.957563 0.867552
vt 0.928411 0.905430
vt 0.928465 0.867510
vt 0.890491 0.905376
vt 0.890545 0.867457
vt 0.846331 0.905314
vt 0.846385 0.867394
vt 0.798942 0.905247
vt 0.798996 0.867327
vt 0.751554 0.905180
vt 0.751607 0.867260
vt 0.707394 0.905117
vt 0.707448 0.867196
vt 0.669474 0.905064
vt 0.669527 0.867144
vt 0.640429 0.867103
vt 0.890449 0.934473
vt 0.846264 0.952702
vt 0.846290 0.934410
vt 0.798866 0.958873
vt 0.798901 0.934343
vt 0.751487 0.952567
vt 0.751513 0.934276
vt 0.707353 0.934214
vn 0.943842 0.126437 -0.305247
vn 0.944721 0.084861 -0.316705
vn 0.845959 0.138014 -0.515078
vn 0.843883 0.205319 -0.495687
vn 0.944720 0.000001 -0.327878
vn 0.845959 0.000001 -0.533248
vn 0.944721 -0.084859 -0.316705
vn 0.845959 -0.138012 -0.515078
vn 0.943842 -0.126436 -0.305248
vn 0.843883 -0.205318 -0.495688
vn 0.689295 0.187509 -0.699795
vn 0.686181 0.278375 -0.672058
vn 0.689294 0.000001 -0.724481
vn 0.689295 -0.187506 -0.699795
vn 0.686182 -0.278373 -0.672059
vn 0.486567 0.226116 -0.843875
vn 0.483380 0.335006 -0.808774
vn 0.486567 0.000001 -0.873643
vn 0.486567 -0.226112 -0.843875
vn 0.483381 -0.335002 -0.808775
vn 0.251583 0.250496 -0.934857
vn 0.249566 0.370577 -0.894645
vn 0.251583 0.000002 -0.967836
vn 0.251584 -0.250491 -0.934858
vn 0.249566 -0.370572 -0.894647
vn -0.000007 0.258821 -0.965925
vn -0.000007 0.382687 -0.923878
vn -0.000007 0.000002 -1.000000
vn -0.000007 -0.258817 -0.965926
vn -0.000007 -0.382682 -0.923880
vn -0.251597 0.250496 -0.934853
vn -0.249579 0.370577 -0.894641
vn -0.251597 0.000002 -0.967832
vn -0.251597 -0.250491 -0.934855
vn -0.249579 -0.370572 -0.894643
vn -0.486579 0.226116 -0.843867
vn -0.483392 0.335006 -0.808766
vn -0.486580 0.000001 -0.873636
vn -0.486579 -0.226112 -0.843868
vn -0.483392 -0.335002 -0.808768
vn -0.689305 0.187509 -0.699785
vn -0.686191 0.278375 -0.672048
vn -0.689305 0.000001 -0.724471
vn -0.689305 -0.187506 -0.699786
vn -0.686190 -0.278373 -0.672050
vn -0.845967 0.138014 -0.515066
vn -0.843890 0.205319 -0.495674
vn -0.845967 0.000001 -0.533236
vn -0.845967 -0.138012 -0.515066
vn -0.843889 -0.205318 -0.495676
vn -0.944725 0.084861 -0.316691
vn -0.943847 0.126437 -0.305233
vn -0.944725 0.000001 -0.327864
vn -0.944725 -0.084859 -0.316691
vn -0.943846 -0.126436 -0.305235
vn 0.992010 0.000000 -0.126158
vn -0.992012 0.000000 -0.126143
vn -0.000049 0.866018 0.500013
vn 0.000018 0.866020 0.500009
vn 0.000020 0.866020 0.500009
vn -0.000052 0.866018 0.500012
vn -0.000051 -0.866030 0.499991
vn 0.000133 -0.866043 0.499970
vn -0.000031 -0.866036 0.499981
vn 0.000048 0.866027 0.499997
vn 0.000061 0.866027 0.499998
vn -0.000043 -0.866010 0.500027
vn -0.000061 -0.866017 0.500015
vn 0.000035 0.866033 0.499987
vn 0.000040 0.866033 0.499987
vn -0.000029 -0.866000 0.500043
vn -0.000037 -0.866003 0.500039
vn 0.000018 0.866036 0.499982
vn 0.000020 0.866036 0.499982
vn -0.000009 -0.865995 0.500052
vn -0.000014 -0.865997 0.500049
vn 0.000004 0.866037 0.499980
vn 0.000004 0.866037 0.499980
vn 0.000004 -0.865996 0.500052
vn 0.000004 -0.865996 0.500052
vn -0.000040 0.866033 0.499986
vn -0.000049 0.866033 0.499986
vn 0.000016 -0.865995 0.500052
vn 0.000027 -0.866001 0.500043
vn -0.000028 0.866027 0.499997
vn -0.000033 0.866027 0.499997
vn 0.000042 -0.866014 0.500019
vn -0.000000 0.866024 0.500003
vn -0.000004 0.866024 0.500003
vn -0.000001 -0.866021 0.500007
vn 0.000045 -0.866016 0.500016
vn -0.000010 0.866020 0.500009
vn -0.000013 0.866020 0.500009
vn 0.000058 -0.866030 0.499991
vn 0.000014 -0.866024 0.500003
vn 0.000057 0.866018 0.500013
vn 0.000060 0.866018 0.500012
vn -0.000126 -0.866043 0.499970
vn 0.000039 -0.866036 0.499981
vn 0.000140 -0.866041 0.499973
vn -0.000033 -0.866036 0.499981
vn -0.000105 -0.866020 0.500009
vn -0.000134 -0.866020 0.500010
vn -0.000074 -0.866005 0.500036
vn -0.000085 -0.866005 0.500036
vn -0.000035 -0.865998 0.500048
vn -0.000039 -0.865998 0.500047
vn 0.000004 -0.865996 0.500051
vn 0.000004 -0.865996 0.500050
vn 0.000099 -0.866003 0.500038
vn 0.000115 -0.866004 0.500037
vn 0.000081 -0.866016 0.500016
vn 0.000092 -0.866017 0.500015
vn 0.000034 -0.866027 0.499998
vn 0.000047 -0.866027 0.499998
vn 0.000041 -0.866036 0.499981
vn -0.000133 -0.866041 0.499973
vn -0.000052 -0.866005 0.500036
vn -0.000020 -0.865998 0.500048
vn -0.000027 -0.865998 0.500048
vn 0.000004 -0.865996 0.500052
vn 0.000004 -0.865995 0.500052
vn 0.000045 -0.866003 0.500038
vn 0.000070 -0.866003 0.500039
vn 0.000060 -0.866016 0.500017
vn 0.000024 0.866023 0.500005
vn 0.000021 0.866031 0.499990
vn 0.000029 0.866028 0.499995
vn 0.000020 0.866034 0.499985
vn 0.000027 0.866033 0.499986
vn 0.000013 0.866037 0.499981
vn 0.000015 0.866036 0.499981
vn 0.000004 0.866037 0.499980
vn 0.000004 0.866037 0.499980
vn -0.000014 0.866034 0.499986
vn -0.000026 0.866033 0.499987
vn -0.000013 0.866027 0.499997
vn -0.000020 0.866027 0.499997
vn 0.000009 0.866025 0.500001
vn 0.000005 0.866025 0.500002
vn -0.000016 0.866023 0.500005
vn 0.000015 0.866035 0.499983
vn 0.000009 0.866037 0.499981
vn 0.000011 0.866037 0.499981
vn 0.000004 0.866037 0.499980
vn 0.000004 0.866037 0.499979
vn -0.000001 0.866037 0.499981
vn -0.000006 0.866035 0.499984
vn -0.000010 0.866029 0.499994
s 1
g FoodTallRLowerLeg
usemtl Orange_blinn1SG
f 35/1/1 1/2/2 4/3/3 34/4/4
f 1/2/2 2/5/5 5/6/6 4/3/3
f 2/5/5 3/7/7 6/8/8 5/6/6
f 3/7/7 36/9/9 37/10/10 6/8/8
f 34/4/4 4/3/3 7/11/11 38/12/12
f 4/3/3 5/6/6 8/13/13 7/11/11
f 5/6/6 6/8/8 9/14/14 8/13/13
f 6/8/8 37/10/10 39/15/15 9/14/14
f 38/12/12 7/11/11 10/16/16 40/17/17
f 7/11/11 8/13/13 11/18/18 10/16/16
f 8/13/13 9/14/14 12/19/19 11/18/18
f 9/14/14 39/15/15 41/20/20 12/19/19
f 40/17/17 10/16/16 13/21/21 42/22/22
f 10/16/16 11/18/18 14/23/23 13/21/21
f 11/18/18 12/19/19 15/24/24 14/23/23
f 12/19/19 41/20/20 43/25/25 15/24/24
f 42/22/22 13/21/21 16/26/26 44/27/27
f 13/21/21 14/23/23 17/28/28 16/26/26
f 14/23/23 15/24/24 18/29/29 17/28/28
f 15/24/24 43/25/25 45/30/30 18/29/29
f 44/27/27 16/26/26 19/31/31 46/32/32
f 16/26/26 17/28/28 20/33/33 19/31/31
f 17/28/28 18/29/29 21/34/34 20/33/33
f 18/29/29 45/30/30 47/35/35 21/34/34
f 46/32/32 19/31/31 22/36/36 48/37/37
f 19/31/31 20/33/33 23/38/38 22/36/36
f 20/33/33 21/34/34 24/39/39 23/38/38
f 21/34/34 47/35/35 49/40/40 24/39/39
f 48/37/37 22/36/36 25/41/41 50/42/42
f 22/36/36 23/38/38 26/43/43 25/41/41
f 23/38/38 24/39/39 27/44/44 26/43/43
f 24/39/39 49/40/40 51/45/45 27/44/44
f 50/42/42 25/41/41 28/46/46 52/47/47
f 25/41/41 26/43/43 29/48/48 28/46/46
f 26/43/43 27/44/44 30/49/49 29/48/48
f 27/44/44 51/45/45 53/50/50 30/49/49
f 52/47/47 28/46/46 31/51/51 54/52/52
f 28/46/46 29/48/48 32/53/53 31/51/51
f 29/48/48 30/49/49 33/54/54 32/53/53
f 30/49/49 53/50/50 55/55/55 33/54/54
f 1/2/2 35/1/1 56/56/56
f 2/5/5 1/2/2 56/56/56
f 3/7/7 2/5/5 56/56/56
f 36/9/9 3/7/7 56/56/56
f 54/52/52 31/51/51 57/57/57
f 31/51/51 32/53/53 57/57/57
f 32/53/53 33/54/54 57/57/57
f 33/54/54 55/55/55 57/57/57
s 2
f 35/58/58 91/59/59 58/60/60 56/61/61
s 3
f 37/62/62 36/63/63 67/64/64
s 2
f 91/59/59 92/65/65 59/66/66 58/60/60
s 3
f 39/67/67 37/62/62 81/68/68
s 2
f 92/65/65 93/69/69 60/70/70 59/66/66
s 3
f 41/71/71 39/67/67 76/72/72
s 2
f 93/69/69 94/73/73 61/74/74 60/70/70
s 3
f 43/75/75 41/71/71 88/76/76
s 2
f 94/73/73 95/77/77 62/78/78 61/74/74
s 3
f 45/79/79 43/75/75 88/76/76 89/80/80
s 2
f 95/77/77 96/81/81 63/82/82 62/78/78
s 3
f 47/83/83 45/79/79 89/80/80 90/84/84
s 2
f 96/81/81 97/85/85 64/86/86 63/82/82
s 3
f 49/87/87 47/83/83 90/84/84
s 2
f 97/85/85 98/88/88 65/89/89 64/86/86
s 3
f 51/90/90 49/87/87 80/91/91
s 2
f 98/88/88 99/92/92 66/93/93 65/89/89
s 3
f 53/94/94 51/90/90 87/95/95
s 2
f 99/92/92 54/96/96 57/97/97 66/93/93
s 3
f 55/98/98 53/94/94 75/99/99
f 67/64/64 36/63/63 56/61/100 58/60/101
f 68/100/102 67/64/64 58/60/101 59/66/103
f 69/101/104 68/100/102 59/66/103 60/70/105
f 70/102/106 69/101/104 60/70/105 61/74/107
f 71/103/108 70/102/106 61/74/107 62/78/109
f 72/104/110 71/103/108 62/78/109 63/82/111
f 73/105/112 72/104/110 63/82/111 64/86/113
f 74/106/114 73/105/112 64/86/113 65/89/115
f 75/99/99 74/106/114 65/89/115 66/93/116
f 55/98/98 75/99/99 66/93/116 57/97/117
f 76/72/72 39/67/67 81/68/68 82/107/118
f 77/108/119 76/72/72 82/107/118 83/109/120
f 78/110/121 77/108/119 83/109/120 84/111/122
f 79/112/123 78/110/121 84/111/122 85/113/124
f 80/91/91 79/112/123 85/113/124 86/114/125
f 51/90/90 80/91/91 86/114/125 87/95/95
f 81/68/68 37/62/62 67/64/64 68/100/102
f 82/107/118 81/68/68 68/100/102 69/101/104
f 83/109/120 82/107/118 69/101/104 70/102/106
f 84/111/122 83/109/120 70/102/106 71/103/108
f 85/113/124 84/111/122 71/103/108 72/104/110
f 86/114/125 85/113/124 72/104/110 73/105/112
f 87/95/95 86/114/125 73/105/112 74/106/114
f 53/94/94 87/95/95 74/106/114 75/99/99
f 88/76/76 41/71/71 76/72/72 77/108/119
f 89/80/80 88/76/76 77/108/119 78/110/121
f 90/84/84 89/80/80 78/110/121 79/112/123
f 49/87/87 90/84/84 79/112/123 80/91/91
s 2
f 35/58/58 34/115/126 91/59/59
f 34/115/126 38/116/127 106/117/128
f 38/116/127 107/118/129 105/119/130 106/117/128
f 107/118/129 108/120/131 104/121/132 105/119/130
f 108/120/131 109/122/133 103/123/134 104/121/132
f 109/122/133 110/124/135 102/125/136 103/123/134
f 110/124/135 111/126/137 101/127/138 102/125/136
f 111/126/137 50/128/139 100/129/140 101/127/138
f 50/128/139 52/130/141 100/129/140
f 52/130/141 54/96/96 99/92/92
f 100/129/140 52/130/141 99/92/92 98/88/88
f 101/127/138 100/129/140 98/88/88 97/85/85
f 102/125/136 101/127/138 97/85/85 96/81/81
f 103/123/134 102/125/136 96/81/81 95/77/77
f 104/121/132 103/123/134 95/77/77 94/73/73
f 105/119/130 104/121/132 94/73/73 93/69/69
f 106/117/128 105/119/130 93/69/69 92/65/65
f 34/115/126 106/117/128 92/65/65 91/59/59
f 38/116/127 40/131/142 107/118/129
f 40/131/142 42/132/143 114/133/144
f 42/132/143 44/134/145 113/135/146 114/133/144
f 44/134/145 46/136/147 112/137/148 113/135/146
f 46/136/147 48/138/149 112/137/148
f 48/138/149 50/128/139 111/126/137
f 112/137/148 48/138/149 111/126/137 110/124/135
f 113/135/146 112/137/148 110/124/135 109/122/133
f 114/133/144 113/135/146 109/122/133 108/120/131
f 40/131/142 114/133/144 108/120/131 107/118/129
