# This file uses centimeters as units for non-parametric coordinates.

mtllib BreakableStatue_piece03COL.mtl
g default
v -9.359922 -1.294672 1.374937
v -9.359922 -1.294672 -1.382339
v -4.446973 2.022014 1.374937
v -4.446973 2.022014 -1.382339
v -13.272527 3.158305 -1.382339
v -13.272527 3.158305 1.374937
v -8.859751 2.590160 5.975064
v -4.391284 3.361899 1.394880
v -4.395328 3.330492 -1.253258
v -8.911000 2.192101 -5.787160
v -12.994178 4.412864 -1.267227
v -12.990516 4.441314 1.346684
v -8.482752 5.518297 5.819365
v -11.388187 0.403486 -4.007064
v -12.861558 0.039486 -1.382339
v -6.969895 -0.181810 -4.007834
v -5.634534 -0.890994 -1.382339
v -11.388885 2.807719 -4.428662
v -11.382182 0.402968 3.997499
v -11.446213 2.923167 4.626653
v -9.231891 -0.300245 -4.793949
v -6.973258 -0.179884 4.001035
v -9.231053 -0.293747 4.774117
v -5.634532 -0.890993 1.374937
v -12.861559 0.039487 1.374937
v -11.060942 5.367750 4.513167
v -6.273279 2.257150 4.626653
v -6.025548 4.723533 4.534347
v -6.358672 2.155264 -4.426983
v -8.826242 3.109741 -3.988390
v -8.738132 4.309310 -1.198199
v -8.614655 4.316244 1.344275
v -8.520287 5.334140 4.114645
vt 0.255938 0.380661
vt 0.213844 0.357396
vt 0.047612 0.161004
vt 0.026853 0.120505
vt 0.227155 0.337110
vt 0.268691 0.361019
vt 0.045585 0.108878
vt 0.068082 0.150337
vt 0.432315 0.333888
vt 0.391109 0.335190
vt 0.061167 0.035987
vt 0.091855 0.082005
vt 0.019195 0.048105
vt 0.117041 0.124200
vt 0.344960 0.338903
vt 0.334191 0.385366
vt 0.295003 0.315639
vt 0.254728 0.291659
vt 0.143823 0.179128
vt 0.182298 0.213796
vt 0.105679 0.209955
vt 0.065985 0.234785
vt 0.209385 0.257314
vt 0.172998 0.291106
vt 0.141783 0.327125
vt 0.380460 0.304928
vt 0.327868 0.268029
vt 0.357404 0.219615
vt 0.391260 0.266206
vt 0.281218 0.239704
vt 0.224219 0.210020
vt 0.310386 0.191234
vt 0.253747 0.182907
vt 0.392967 0.389541
vt 0.440921 0.384515
vt 0.136418 0.253278
vt 0.092401 0.289993
vt 0.259738 0.194630
vt 0.244658 0.228557
vt 0.224429 0.216841
vt 0.347454 0.214785
vt 0.315042 0.269969
vt 0.283143 0.249773
vt 0.314611 0.195548
vt 0.378409 0.304277
vt 0.354547 0.291287
vt 0.378780 0.262087
vt 0.342374 0.326217
vt 0.285923 0.323629
vt 0.253073 0.305544
vt 0.223788 0.258704
vn 0.963076 0.101683 -0.249288
vn 0.954383 -0.028967 0.297178
vn 0.936845 -0.234377 0.259593
vn 0.945355 -0.248203 -0.211422
vn -0.930378 0.220619 0.292787
vn -0.905166 0.342430 -0.251827
vn -0.977491 -0.002381 -0.210962
vn -0.965270 0.011958 0.260982
vn -0.119918 -0.923866 -0.363444
vn -0.127034 -0.985912 -0.108810
vn -0.434319 -0.890551 -0.135225
vn -0.388053 -0.858822 -0.334424
vn 0.155742 -0.930167 -0.332466
vn 0.193146 -0.971979 -0.133980
vn -0.127034 -0.985912 -0.108810
vn -0.119918 -0.923866 -0.363444
vn -0.126822 -0.985949 0.108728
vn 0.193416 -0.971897 0.134186
vn 0.156154 -0.929520 0.334080
vn -0.119525 -0.923082 0.365558
vn -0.434781 -0.890280 0.135524
vn -0.126822 -0.985949 0.108728
vn -0.119525 -0.923082 0.365558
vn -0.388173 -0.858190 0.335903
vn -0.127034 -0.985912 -0.108810
vn 0.193146 -0.971979 -0.133980
vn 0.193416 -0.971897 0.134186
vn -0.126822 -0.985949 0.108728
vn -0.434319 -0.890551 -0.135225
vn -0.127034 -0.985912 -0.108810
vn -0.126822 -0.985949 0.108728
vn -0.434781 -0.890280 0.135524
vn 0.945355 -0.248203 -0.211422
vn 0.936845 -0.234377 0.259593
vn 0.871327 -0.429226 0.237810
vn 0.871256 -0.433868 -0.229505
vn -0.965270 0.011958 0.260982
vn -0.977491 -0.002381 -0.210962
vn -0.952837 -0.199304 -0.228868
vn -0.951639 -0.195467 0.237013
vn -0.841396 0.001380 0.540418
vn -0.965270 0.011958 0.260982
vn -0.951639 -0.195467 0.237013
vn -0.833383 -0.187520 0.519912
vn -0.479332 -0.301181 0.824337
vn -0.050025 -0.400504 0.914929
vn -0.017076 -0.136018 0.990559
vn -0.487576 -0.067878 0.870438
vn 0.451683 -0.189996 0.871713
vn -0.017076 -0.136018 0.990559
vn -0.050025 -0.400504 0.914929
vn 0.386334 -0.412332 0.825063
vn 0.936845 -0.234377 0.259593
vn 0.814095 -0.214370 0.539718
vn 0.759211 -0.392511 0.519167
vn 0.871327 -0.429226 0.237810
vn 0.810727 -0.196105 -0.551602
vn 0.963076 0.101683 -0.249288
vn 0.945355 -0.248203 -0.211422
vn 0.810727 -0.196105 -0.551602
vn 0.945355 -0.248203 -0.211422
vn 0.871256 -0.433868 -0.229505
vn 0.757591 -0.402111 -0.514162
vn 0.393548 -0.441861 -0.806151
vn -0.055063 -0.437740 -0.897414
vn -0.023059 -0.190810 -0.981356
vn 0.464459 -0.193934 -0.864099
vn -0.055063 -0.437740 -0.897414
vn -0.493689 -0.326981 -0.805825
vn -0.500651 -0.069948 -0.862818
vn -0.023059 -0.190810 -0.981356
vn -0.834576 -0.196009 -0.514843
vn -0.952837 -0.199304 -0.228868
vn -0.977491 -0.002381 -0.210962
vn -0.833014 0.015388 -0.553038
vn -0.905166 0.342430 -0.251827
vn -0.833014 0.015388 -0.553038
vn -0.977491 -0.002381 -0.210962
vn -0.822728 0.219384 0.524395
vn -0.930378 0.220619 0.292787
vn -0.965270 0.011958 0.260982
vn -0.841396 0.001380 0.540418
vn -0.487576 -0.067878 0.870438
vn -0.017076 -0.136018 0.990559
vn 0.011199 0.094635 0.995449
vn -0.469971 0.147763 0.870226
vn 0.488521 0.020431 0.872313
vn 0.011199 0.094635 0.995449
vn -0.017076 -0.136018 0.990559
vn 0.451683 -0.189996 0.871713
vn 0.954383 -0.028967 0.297178
vn 0.848223 -0.005529 0.529610
vn 0.814095 -0.214370 0.539718
vn 0.936845 -0.234377 0.259593
vn 0.212657 0.953101 -0.215352
vn 0.125079 0.968607 -0.214838
vn 0.126828 0.968374 -0.214865
vn 0.196314 0.980488 -0.010252
vn 0.126175 0.991968 -0.008880
vn 0.130764 0.991373 -0.008971
vn 0.196314 0.980488 -0.010252
vn 0.118163 0.904161 -0.410525
vn 0.115577 0.904478 -0.410562
vn 0.209862 0.888817 -0.407384
vn 0.191265 0.892206 -0.409129
vn 0.191265 0.892206 -0.409129
vn 0.118184 0.903601 -0.411749
vn 0.116255 0.903834 -0.411788
vn 0.201413 0.923509 -0.326441
vn 0.123542 0.936583 -0.327947
vn 0.122899 0.936666 -0.327951
vn 0.201413 0.923509 -0.326441
vn 0.020645 0.911854 -0.409996
vn 0.115577 0.904478 -0.410562
vn 0.118163 0.904161 -0.410525
vn 0.116255 0.903834 -0.411788
vn 0.118184 0.903601 -0.411749
vn 0.039530 0.910300 -0.412058
vn 0.039530 0.910300 -0.412058
vn 0.130764 0.991373 -0.008971
vn 0.126175 0.991968 -0.008880
vn 0.058046 0.998286 -0.007518
vn 0.058046 0.998286 -0.007518
vn 0.122899 0.936666 -0.327951
vn 0.123542 0.936583 -0.327947
vn 0.044480 0.943839 -0.327399
vn 0.044480 0.943839 -0.327399
vn 0.126828 0.968374 -0.214865
vn 0.125079 0.968607 -0.214838
vn 0.037792 0.976393 -0.212669
vn 0.123542 0.936583 -0.327947
vn 0.044480 0.943839 -0.327399
vn 0.044480 0.943839 -0.327399
vn 0.126828 0.968374 -0.214865
vn 0.125079 0.968607 -0.214838
vn 0.037792 0.976393 -0.212669
vn 0.044480 0.943839 -0.327399
vn 0.126828 0.968374 -0.214865
vn 0.125079 0.968607 -0.214838
vn 0.037792 0.976393 -0.212669
vn 0.044480 0.943839 -0.327399
vn 0.126828 0.968374 -0.214865
vn 0.125079 0.968607 -0.214838
vn 0.037792 0.976393 -0.212669
vn 0.044480 0.943839 -0.327399
vn 0.126828 0.968374 -0.214865
vn 0.125079 0.968607 -0.214838
vn 0.037792 0.976393 -0.212669
vn 0.044480 0.943839 -0.327399
vn 0.126828 0.968374 -0.214865
vn 0.125079 0.968607 -0.214838
vn 0.037792 0.976393 -0.212669
vn 0.044480 0.943839 -0.327399
vn 0.126828 0.968374 -0.214865
vn 0.125079 0.968607 -0.214838
vn 0.037792 0.976393 -0.212669
vn 0.044480 0.943839 -0.327399
vn 0.126828 0.968374 -0.214865
vn 0.125079 0.968607 -0.214838
vn 0.037792 0.976393 -0.212669
vn 0.044480 0.943839 -0.327399
vn 0.126828 0.968374 -0.214865
vn 0.125079 0.968607 -0.214838
vn 0.037792 0.976393 -0.212669
vn 0.044480 0.943839 -0.327399
vn 0.126828 0.968374 -0.214865
vn 0.125079 0.968607 -0.214838
vn 0.037792 0.976393 -0.212669
vn 0.125079 0.968607 -0.214838
vn 0.037792 0.976393 -0.212669
vn 0.044480 0.943839 -0.327399
vn 0.126828 0.968374 -0.214865
vn 0.125079 0.968607 -0.214838
vn 0.037792 0.976393 -0.212669
vn 0.044480 0.943839 -0.327399
vn 0.126828 0.968374 -0.214865
vn 0.125079 0.968607 -0.214838
vn 0.037792 0.976393 -0.212669
vn 0.044480 0.943839 -0.327399
vn 0.126828 0.968374 -0.214865
vn 0.125079 0.968607 -0.214838
vn 0.037792 0.976393 -0.212669
vn 0.044480 0.943839 -0.327399
vn 0.126828 0.968374 -0.214865
vn 0.125079 0.968607 -0.214838
vn 0.037792 0.976393 -0.212669
vn 0.044480 0.943839 -0.327399
vn 0.126828 0.968374 -0.214865
vn 0.125079 0.968607 -0.214838
vn 0.037792 0.976393 -0.212669
vn 0.044480 0.943839 -0.327399
vn 0.126828 0.968374 -0.214865
vn 0.125079 0.968607 -0.214838
vn 0.037792 0.976393 -0.212669
vn 0.044480 0.943839 -0.327399
vn 0.126828 0.968374 -0.214865
vn 0.125079 0.968607 -0.214838
vn 0.037792 0.976393 -0.212669
vn 0.126828 0.968374 -0.214865
vn 0.125079 0.968607 -0.214838
vn 0.037792 0.976393 -0.212669
vn 0.037792 0.976393 -0.212669
vn 0.126828 0.968374 -0.214865
vn 0.125079 0.968607 -0.214838
vn 0.037792 0.976393 -0.212669
vn 0.037792 0.976393 -0.212669
vn 0.044480 0.943839 -0.327399
vn 0.044480 0.943839 -0.327399
vn 0.126828 0.968374 -0.214865
vn 0.125079 0.968607 -0.214838
vn 0.037792 0.976393 -0.212669
vn 0.037792 0.976393 -0.212669
vn 0.122899 0.936666 -0.327951
vn 0.123542 0.936583 -0.327947
vn 0.044480 0.943839 -0.327399
vn 0.044480 0.943839 -0.327399
vn 0.126828 0.968374 -0.214865
vn 0.125079 0.968607 -0.214838
vn 0.037792 0.976393 -0.212669
vn 0.037792 0.976393 -0.212669
vn 0.126828 0.968374 -0.214865
vn 0.125079 0.968607 -0.214838
vn 0.037792 0.976393 -0.212669
vn 0.037792 0.976393 -0.212669
vn 0.126828 0.968374 -0.214865
vn 0.125079 0.968607 -0.214838
vn 0.037792 0.976393 -0.212669
vn 0.037792 0.976393 -0.212669
vn 0.122899 0.936666 -0.327951
vn 0.123542 0.936583 -0.327947
vn 0.044480 0.943839 -0.327399
vn 0.044480 0.943839 -0.327399
vn 0.126828 0.968374 -0.214865
vn 0.125079 0.968607 -0.214838
vn 0.037792 0.976393 -0.212669
vn 0.037792 0.976393 -0.212669
vn 0.126828 0.968374 -0.214865
vn 0.125079 0.968607 -0.214838
vn 0.037792 0.976393 -0.212669
vn 0.037792 0.976393 -0.212669
vn 0.122899 0.936666 -0.327951
vn 0.123542 0.936583 -0.327947
vn 0.044480 0.943839 -0.327399
vn 0.044480 0.943839 -0.327399
vn 0.126828 0.968374 -0.214865
vn 0.125079 0.968607 -0.214838
vn 0.037792 0.976393 -0.212669
vn 0.037792 0.976393 -0.212669
vn 0.126828 0.968374 -0.214865
vn 0.125079 0.968607 -0.214838
vn 0.037792 0.976393 -0.212669
vn 0.037792 0.976393 -0.212669
vn 0.126828 0.968374 -0.214865
vn 0.125079 0.968607 -0.214838
vn 0.037792 0.976393 -0.212669
vn 0.037792 0.976393 -0.212669
vn 0.122899 0.936666 -0.327951
vn 0.123542 0.936583 -0.327947
vn 0.044480 0.943839 -0.327399
vn 0.044480 0.943839 -0.327399
vn 0.126828 0.968374 -0.214865
vn 0.125079 0.968607 -0.214838
vn 0.037792 0.976393 -0.212669
vn 0.037792 0.976393 -0.212669
vn 0.037792 0.976393 -0.212669
vn 0.037792 0.976393 -0.212669
s off
g polySurface11
usemtl lambert2SG
f 9/1/1 8/2/2 3/5/3 4/6/4
f 12/3/5 11/4/6 5/7/7 6/8/8
f 21/26/9 2/27/10 15/28/11 14/29/12
f 16/15/13 17/17/14 2/27/15 21/26/16
f 1/30/17 24/18/18 22/23/19 23/31/20
f 25/32/21 1/30/22 23/31/23 19/33/24
f 2/27/25 17/17/26 24/18/27 1/30/28
f 15/28/29 2/27/30 1/30/31 25/32/32
f 4/6/33 3/5/34 24/18/35 17/17/36
f 6/8/37 5/7/38 15/12/39 25/14/40
f 20/21/41 6/8/42 25/14/43 19/19/44
f 19/19/45 23/20/46 7/36/47 20/21/48
f 27/24/49 7/36/50 23/20/51 22/23/52
f 3/5/53 27/24/54 22/23/55 24/18/56
f 29/16/57 9/1/58 4/6/59
f 29/16/60 4/6/61 17/17/62 16/15/63
f 16/15/64 21/10/65 10/34/66 29/16/67
f 21/10/68 14/9/69 18/35/70 10/34/71
f 14/11/72 15/12/73 5/7/74 18/13/75
f 11/4/76 18/13/77 5/7/78
f 26/22/79 12/3/80 6/8/81 20/21/82
f 20/21/83 7/36/84 13/37/85 26/22/86
f 28/25/87 13/37/88 7/36/89 27/24/90
f 8/2/91 28/25/92 27/24/93 3/5/94
f 28/38/95 33/39/96 13/40/97
f 9/41/98 31/42/99 32/43/100 8/44/101
f 10/45/102 30/46/103 29/47/104
f 9/41/105 29/47/106 30/46/107 31/42/108
f 8/44/109 32/43/110 33/39/111 28/38/112
f 18/48/113 30/46/114 10/45/115
f 31/42/116 30/46/117 18/48/118 11/49/119
f 32/43/120 31/42/121 11/49/122 12/50/123
f 33/39/124 32/43/125 12/50/126 26/51/127
f 13/40/128 33/39/129 26/51/130
