# This file uses centimeters as units for non-parametric coordinates.

mtllib DonutRTopIncisor.mtl
g default
v -0.320970 0.198699 -0.225227
v -0.085643 -0.041301 -0.178100
v -0.097162 0.032863 -0.180398
v -0.130589 0.099767 -0.187087
v -0.182651 0.152862 -0.197513
v -0.248252 0.186952 -0.210655
v -0.352844 0.246298 -0.066191
v -0.070819 -0.041325 -0.009712
v -0.084625 0.047555 -0.012465
v -0.124684 0.127736 -0.020482
v -0.187077 0.191367 -0.032977
v -0.265696 0.232221 -0.048727
v -0.374600 0.374034 0.042367
v 0.032689 -0.041342 0.123931
v 0.012751 0.087016 0.119955
v -0.045101 0.202809 0.108378
v -0.135207 0.294704 0.090333
v -0.248744 0.353703 0.067588
v -0.379333 0.541349 0.065979
v 0.192018 -0.041346 0.180399
v 0.164049 0.138717 0.174821
v 0.082893 0.301154 0.158580
v -0.043508 0.430065 0.133267
v -0.202780 0.512830 0.101359
v -0.365538 0.695123 -0.002851
v 0.356583 -0.041335 0.141762
v 0.321234 0.186243 0.134712
v 0.218661 0.391544 0.114186
v 0.058905 0.554472 0.082193
v -0.142396 0.659079 0.041865
v -0.337596 0.786535 -0.142270
v 0.474135 -0.041314 0.020288
v 0.434400 0.214505 0.012364
v 0.319099 0.445283 -0.010709
v 0.139518 0.628429 -0.046672
v -0.086764 0.746016 -0.092005
v -0.304379 0.786560 -0.308013
v 0.507352 -0.041289 -0.145455
v 0.467617 0.214530 -0.153380
v 0.352316 0.445308 -0.176453
v 0.172735 0.628454 -0.212416
v -0.053546 0.746041 -0.257749
v -0.276431 0.695191 -0.447459
v 0.445689 -0.041268 -0.302846
v 0.410341 0.186310 -0.309896
v 0.307767 0.391612 -0.330422
v 0.148012 0.554540 -0.362415
v -0.053290 0.659146 -0.402743
v -0.262628 0.541438 -0.516334
v 0.308723 -0.041257 -0.401915
v 0.280754 0.138805 -0.407493
v 0.199597 0.301242 -0.423733
v 0.073197 0.430152 -0.449046
v -0.086076 0.512918 -0.480954
v -0.267350 0.374115 -0.492771
v 0.139939 -0.041261 -0.411207
v 0.120001 0.087097 -0.415183
v 0.062148 0.202891 -0.426760
v -0.027957 0.294785 -0.444804
v -0.141494 0.353785 -0.467550
v -0.289099 0.246347 -0.384250
v -0.007075 -0.041277 -0.327772
v -0.020880 0.047603 -0.330525
v -0.060940 0.127784 -0.338541
v -0.123333 0.191415 -0.351036
v -0.201951 0.232269 -0.366786
v -0.320979 0.498699 -0.225184
vt 0.390378 0.334849
vt 0.414941 0.339046
vt 0.354635 0.257216
vt 0.333300 0.249333
vt 0.337497 0.224769
vt 0.366218 0.235152
vt 0.372491 0.271307
vt 0.390325 0.253901
vt 0.385119 0.290225
vt 0.407458 0.279183
vt 0.391283 0.312120
vt 0.415941 0.308522
vt 0.449672 0.346057
vt 0.344508 0.190038
vt 0.383618 0.204287
vt 0.416411 0.229925
vt 0.439677 0.264441
vt 0.451137 0.304457
vt 0.490071 0.354283
vt 0.352734 0.149639
vt 0.403926 0.168407
vt 0.446813 0.202076
vt 0.477196 0.247350
vt 0.492102 0.299797
vt 0.532821 0.362747
vt 0.361197 0.106889
vt 0.425186 0.130365
vt 0.478788 0.172465
vt 0.516756 0.229069
vt 0.535375 0.294636
vt 0.576810 0.371165
vt 0.369616 0.062899
vt 0.446785 0.091130
vt 0.511454 0.141825
vt 0.557292 0.210024
vt 0.579812 0.289049
vt 0.621889 0.379626
vt 0.378076 0.017820
vt 0.468762 0.050872
vt 0.544796 0.110329
vt 0.598735 0.190371
vt 0.625300 0.283165
vt 0.472876 0.689241
vt 0.517923 0.696848
vt 0.691924 0.476516
vt 0.773180 0.477706
vt 0.765573 0.522754
vt 0.698610 0.521709
vt 0.614277 0.500494
vt 0.634602 0.541409
vt 0.547841 0.547292
vt 0.579814 0.579924
vt 0.499117 0.612330
vt 0.539609 0.633485
vt 0.562029 0.704538
vt 0.757883 0.566859
vt 0.704925 0.566033
vt 0.654305 0.581612
vt 0.610976 0.612070
vt 0.579180 0.654428
vt 0.604634 0.712116
vt 0.750304 0.609464
vt 0.710883 0.608894
vt 0.673216 0.620534
vt 0.640989 0.643244
vt 0.617357 0.674801
vt 0.643715 0.718850
vt 0.743570 0.648545
vt 0.716556 0.648143
vt 0.690740 0.656109
vt 0.668648 0.671663
vt 0.652445 0.693282
vt 0.677789 0.723943
vt 0.738477 0.682619
vt 0.722241 0.682124
vt 0.706647 0.686669
vt 0.693221 0.695812
vt 0.683277 0.708655
vt 0.102327 0.822350
vt 0.146966 0.837742
vt 0.098437 0.906059
vt 0.176197 0.874823
vt 0.180740 0.921822
vt 0.159153 0.963816
vt 0.118289 0.987473
vt 0.071122 0.985281
vt 0.032627 0.957937
vt 0.015027 0.914122
vt 0.023909 0.867747
vt 0.056453 0.833536
vn -0.932504 -0.309017 -0.186936
vn -0.968426 -0.156435 -0.194112
vn -0.901735 -0.127265 0.413132
vn -0.870264 -0.250250 0.424282
vn -0.793226 -0.587785 -0.159065
vn -0.932504 -0.309017 -0.186936
vn -0.870264 -0.250250 0.424282
vn -0.757513 -0.475924 0.446845
vn -0.576301 -0.809017 -0.115623
vn -0.793226 -0.587785 -0.159065
vn -0.757513 -0.475924 0.446845
vn -0.581902 -0.655021 0.482013
vn -0.302966 -0.951056 -0.060864
vn -0.576301 -0.809017 -0.115623
vn -0.581902 -0.655021 0.482013
vn -0.360626 -0.770008 0.526342
vn 0.000029 -1.000000 -0.000146
vn -0.302966 -0.951056 -0.060864
vn -0.360626 -0.770008 0.526342
vn -0.115339 -0.809630 0.575496
vn -0.870264 -0.250250 0.424282
vn -0.901735 -0.127265 0.413132
vn -0.522937 -0.054876 0.850603
vn -0.507112 -0.107094 0.855201
vn -0.757513 -0.475924 0.446845
vn -0.870264 -0.250250 0.424282
vn -0.507112 -0.107094 0.855201
vn -0.458906 -0.203578 0.864847
vn -0.581902 -0.655021 0.482013
vn -0.757513 -0.475924 0.446845
vn -0.458906 -0.203578 0.864847
vn -0.383826 -0.280149 0.879883
vn -0.360626 -0.770008 0.526342
vn -0.581902 -0.655021 0.482013
vn -0.383826 -0.280149 0.879883
vn -0.289222 -0.329310 0.898836
vn -0.115339 -0.809630 0.575496
vn -0.360626 -0.770008 0.526342
vn -0.289222 -0.329310 0.898836
vn -0.184353 -0.346249 0.919851
vn -0.507112 -0.107094 0.855201
vn -0.522937 -0.054876 0.850603
vn 0.012672 0.032926 0.999377
vn 0.002652 0.064416 0.997920
vn -0.458906 -0.203578 0.864847
vn -0.507112 -0.107094 0.855201
vn 0.002652 0.064416 0.997920
vn -0.026447 0.122657 0.992097
vn -0.383826 -0.280149 0.879883
vn -0.458906 -0.203578 0.864847
vn -0.026447 0.122657 0.992097
vn -0.071768 0.168878 0.983021
vn -0.289222 -0.329310 0.898836
vn -0.383826 -0.280149 0.879883
vn -0.071768 0.168878 0.983021
vn -0.128875 0.198553 0.971580
vn -0.184353 -0.346249 0.919851
vn -0.289222 -0.329310 0.898836
vn -0.128875 0.198553 0.971580
vn -0.192178 0.208779 0.958895
vn 0.002652 0.064416 0.997920
vn 0.012672 0.032926 0.999377
vn 0.530155 0.108397 0.840944
vn 0.500228 0.212847 0.839326
vn -0.026447 0.122657 0.992097
vn 0.002652 0.064416 0.997920
vn 0.500228 0.212847 0.839326
vn 0.404246 0.404957 0.820119
vn -0.071768 0.168878 0.983021
vn -0.026447 0.122657 0.992097
vn 0.404246 0.404957 0.820119
vn 0.254755 0.557416 0.790182
vn -0.128875 0.198553 0.971580
vn -0.071768 0.168878 0.983021
vn 0.254755 0.557416 0.790182
vn 0.066389 0.655301 0.752445
vn -0.192178 0.208779 0.958895
vn -0.128875 0.198553 0.971580
vn 0.066389 0.655301 0.752445
vn -0.142416 0.689030 0.710602
vn 0.500228 0.212847 0.839326
vn 0.530155 0.108397 0.840944
vn 0.882715 0.150894 0.445022
vn 0.846679 0.297852 0.440930
vn 0.404246 0.404957 0.820119
vn 0.500228 0.212847 0.839326
vn 0.846679 0.297852 0.440930
vn 0.712415 0.566584 0.414063
vn 0.254755 0.557416 0.790182
vn 0.404246 0.404957 0.820119
vn 0.712415 0.566584 0.414063
vn 0.503300 0.779851 0.372185
vn 0.066389 0.655301 0.752445
vn 0.254755 0.557416 0.790182
vn 0.503300 0.779851 0.372185
vn 0.239804 0.916777 0.319396
vn -0.142416 0.689030 0.710602
vn 0.066389 0.655301 0.752445
vn 0.239804 0.916777 0.319396
vn -0.052281 0.963958 0.260865
vn 0.846679 0.297852 0.440930
vn 0.882715 0.150894 0.445022
vn 0.986024 0.150972 -0.070452
vn 0.951186 0.297931 -0.080519
vn 0.712415 0.566584 0.414063
vn 0.846679 0.297852 0.440930
vn 0.951186 0.297931 -0.080519
vn 0.816921 0.566663 -0.107387
vn 0.503300 0.779851 0.372185
vn 0.712415 0.566584 0.414063
vn 0.816921 0.566663 -0.107387
vn 0.607807 0.779930 -0.149264
vn 0.239804 0.916777 0.319396
vn 0.503300 0.779851 0.372185
vn 0.607807 0.779930 -0.149264
vn 0.344311 0.916856 -0.202052
vn -0.052281 0.963958 0.260865
vn 0.239804 0.916777 0.319396
vn 0.344311 0.916856 -0.202052
vn 0.052226 0.964038 -0.260583
vn 0.951186 0.297931 -0.080519
vn 0.986024 0.150972 -0.070452
vn 0.813264 0.108611 -0.571669
vn 0.785019 0.213063 -0.581678
vn 0.816921 0.566663 -0.107387
vn 0.951186 0.297931 -0.080519
vn 0.785019 0.213063 -0.581678
vn 0.689037 0.405173 -0.600885
vn 0.607807 0.779930 -0.149264
vn 0.816921 0.566663 -0.107387
vn 0.689037 0.405173 -0.600885
vn 0.539547 0.557632 -0.630822
vn 0.344311 0.916856 -0.202052
vn 0.607807 0.779930 -0.149264
vn 0.539547 0.557632 -0.630822
vn 0.351180 0.655517 -0.668558
vn 0.052226 0.964038 -0.260583
vn 0.344311 0.916856 -0.202052
vn 0.351180 0.655517 -0.668558
vn 0.142376 0.689245 -0.710402
vn 0.785019 0.213063 -0.581678
vn 0.813264 0.108611 -0.571669
vn 0.396805 0.033219 -0.917302
vn 0.386995 0.064707 -0.919809
vn 0.689037 0.405173 -0.600885
vn 0.785019 0.213063 -0.581678
vn 0.386995 0.064707 -0.919809
vn 0.357896 0.122949 -0.925632
vn 0.539547 0.557632 -0.630822
vn 0.689037 0.405173 -0.600885
vn 0.357896 0.122949 -0.925632
vn 0.312575 0.169170 -0.934708
vn 0.351180 0.655517 -0.668558
vn 0.539547 0.557632 -0.630822
vn 0.312575 0.169170 -0.934708
vn 0.255468 0.198845 -0.946148
vn 0.142376 0.689245 -0.710402
vn 0.351180 0.655517 -0.668558
vn 0.255468 0.198845 -0.946148
vn 0.192166 0.209071 -0.958834
vn 0.386995 0.064707 -0.919809
vn 0.396805 0.033219 -0.917302
vn -0.154765 -0.054596 -0.986442
vn -0.138386 -0.106814 -0.984601
vn 0.357896 0.122949 -0.925632
vn 0.386995 0.064707 -0.919809
vn -0.138386 -0.106814 -0.984601
vn -0.090181 -0.203298 -0.974955
vn 0.312575 0.169170 -0.934708
vn 0.357896 0.122949 -0.925632
vn -0.090181 -0.203298 -0.974955
vn -0.015100 -0.279869 -0.959919
vn 0.255468 0.198845 -0.946148
vn 0.312575 0.169170 -0.934708
vn -0.015100 -0.279869 -0.959919
vn 0.079504 -0.329030 -0.940967
vn 0.192166 0.209071 -0.958834
vn 0.255468 0.198845 -0.946148
vn 0.079504 -0.329030 -0.940967
vn 0.184373 -0.345970 -0.919952
vn -0.138386 -0.106814 -0.984601
vn -0.154765 -0.054596 -0.986442
vn -0.672884 -0.127091 -0.728749
vn -0.639540 -0.250075 -0.726947
vn -0.090181 -0.203298 -0.974955
vn -0.138386 -0.106814 -0.984601
vn -0.639540 -0.250075 -0.726947
vn -0.526788 -0.475750 -0.704384
vn -0.015100 -0.279869 -0.959919
vn -0.090181 -0.203298 -0.974955
vn -0.526788 -0.475750 -0.704384
vn -0.351178 -0.654846 -0.669216
vn 0.079504 -0.329030 -0.940967
vn -0.015100 -0.279869 -0.959919
vn -0.351178 -0.654846 -0.669216
vn -0.129901 -0.769833 -0.624886
vn 0.184373 -0.345970 -0.919952
vn 0.079504 -0.329030 -0.940967
vn -0.129901 -0.769833 -0.624886
vn 0.115386 -0.809455 -0.575733
vn -0.639540 -0.250075 -0.726947
vn -0.672884 -0.127091 -0.728749
vn -0.968426 -0.156435 -0.194112
vn -0.932504 -0.309017 -0.186936
vn -0.526788 -0.475750 -0.704384
vn -0.639540 -0.250075 -0.726947
vn -0.932504 -0.309017 -0.186936
vn -0.793226 -0.587785 -0.159065
vn -0.351178 -0.654846 -0.669216
vn -0.526788 -0.475750 -0.704384
vn -0.793226 -0.587785 -0.159065
vn -0.576301 -0.809017 -0.115623
vn -0.129901 -0.769833 -0.624886
vn -0.351178 -0.654846 -0.669216
vn -0.576301 -0.809017 -0.115623
vn -0.302966 -0.951056 -0.060864
vn 0.115386 -0.809455 -0.575733
vn -0.129901 -0.769833 -0.624886
vn -0.302966 -0.951056 -0.060864
vn 0.000029 -1.000000 -0.000146
vn 0.000029 -1.000000 -0.000146
vn 0.000029 -1.000000 -0.000146
vn 0.000029 -1.000000 -0.000146
vn 0.000029 -1.000000 -0.000146
vn 0.000029 -1.000000 -0.000146
vn 0.000029 -1.000000 -0.000146
vn 0.000029 -1.000000 -0.000146
vn 0.000029 -1.000000 -0.000146
vn 0.000029 -1.000000 -0.000146
vn 0.000029 -1.000000 -0.000146
vn 0.000029 -1.000000 -0.000146
vn 0.000029 -1.000000 -0.000146
vn 0.000029 -1.000000 -0.000146
vn 0.000029 -1.000000 -0.000146
vn 0.000029 -1.000000 -0.000146
vn 0.000029 -1.000000 -0.000146
vn 0.000029 -1.000000 -0.000146
vn 0.000029 -1.000000 -0.000146
vn 0.000029 -1.000000 -0.000146
vn 0.000029 -1.000000 -0.000146
vn 0.000029 -1.000000 -0.000146
vn 0.000029 -1.000000 -0.000146
vn 0.000029 -1.000000 -0.000146
vn 0.000029 -1.000000 -0.000146
vn 0.000029 -1.000000 -0.000146
vn 0.000029 -1.000000 -0.000146
vn 0.000029 -1.000000 -0.000146
vn 0.000029 -1.000000 -0.000146
vn 0.000029 -1.000000 -0.000146
vn 0.000029 -1.000000 -0.000146
vn 0.000029 -1.000000 -0.000146
vn 0.000029 -1.000000 -0.000146
vn 0.000029 -1.000000 -0.000146
s off
g FoodRBuckTeeth
usemtl blinn1SG
f 3/3/1 2/4/2 8/5/3 9/6/4
f 4/7/5 3/3/6 9/6/7 10/8/8
f 5/9/9 4/7/10 10/8/11 11/10/12
f 6/11/13 5/9/14 11/10/15 12/12/16
f 1/1/17 6/11/18 12/12/19 7/2/20
f 9/6/21 8/5/22 14/14/23 15/15/24
f 10/8/25 9/6/26 15/15/27 16/16/28
f 11/10/29 10/8/30 16/16/31 17/17/32
f 12/12/33 11/10/34 17/17/35 18/18/36
f 7/2/37 12/12/38 18/18/39 13/13/40
f 15/15/41 14/14/42 20/20/43 21/21/44
f 16/16/45 15/15/46 21/21/47 22/22/48
f 17/17/49 16/16/50 22/22/51 23/23/52
f 18/18/53 17/17/54 23/23/55 24/24/56
f 13/13/57 18/18/58 24/24/59 19/19/60
f 21/21/61 20/20/62 26/26/63 27/27/64
f 22/22/65 21/21/66 27/27/67 28/28/68
f 23/23/69 22/22/70 28/28/71 29/29/72
f 24/24/73 23/23/74 29/29/75 30/30/76
f 19/19/77 24/24/78 30/30/79 25/25/80
f 27/27/81 26/26/82 32/32/83 33/33/84
f 28/28/85 27/27/86 33/33/87 34/34/88
f 29/29/89 28/28/90 34/34/91 35/35/92
f 30/30/93 29/29/94 35/35/95 36/36/96
f 25/25/97 30/30/98 36/36/99 31/31/100
f 33/33/101 32/32/102 38/38/103 39/39/104
f 34/34/105 33/33/106 39/39/107 40/40/108
f 35/35/109 34/34/110 40/40/111 41/41/112
f 36/36/113 35/35/114 41/41/115 42/42/116
f 31/31/117 36/36/118 42/42/119 37/37/120
f 39/45/121 38/46/122 44/47/123 45/48/124
f 40/49/125 39/45/126 45/48/127 46/50/128
f 41/51/129 40/49/130 46/50/131 47/52/132
f 42/53/133 41/51/134 47/52/135 48/54/136
f 37/43/137 42/53/138 48/54/139 43/44/140
f 45/48/141 44/47/142 50/56/143 51/57/144
f 46/50/145 45/48/146 51/57/147 52/58/148
f 47/52/149 46/50/150 52/58/151 53/59/152
f 48/54/153 47/52/154 53/59/155 54/60/156
f 43/44/157 48/54/158 54/60/159 49/55/160
f 51/57/161 50/56/162 56/62/163 57/63/164
f 52/58/165 51/57/166 57/63/167 58/64/168
f 53/59/169 52/58/170 58/64/171 59/65/172
f 54/60/173 53/59/174 59/65/175 60/66/176
f 49/55/177 54/60/178 60/66/179 55/61/180
f 57/63/181 56/62/182 62/68/183 63/69/184
f 58/64/185 57/63/186 63/69/187 64/70/188
f 59/65/189 58/64/190 64/70/191 65/71/192
f 60/66/193 59/65/194 65/71/195 66/72/196
f 55/61/197 60/66/198 66/72/199 61/67/200
f 63/69/201 62/68/202 2/74/203 3/75/204
f 64/70/205 63/69/206 3/75/207 4/76/208
f 65/71/209 64/70/210 4/76/211 5/77/212
f 66/72/213 65/71/214 5/77/215 6/78/216
f 61/67/217 66/72/218 6/78/219 1/73/220
f 1/79/221 7/80/222 67/81/223
f 7/80/224 13/82/225 67/81/226
f 13/82/227 19/83/228 67/81/229
f 19/83/230 25/84/231 67/81/232
f 25/84/233 31/85/234 67/81/235
f 31/85/236 37/86/237 67/81/238
f 37/86/239 43/87/240 67/81/241
f 43/87/242 49/88/243 67/81/244
f 49/88/245 55/89/246 67/81/247
f 55/89/248 61/90/249 67/81/250
f 61/90/251 1/79/252 67/81/253
