# This file uses centimeters as units for non-parametric coordinates.

mtllib SweetFryTallLLowerArm.mtl
g default
v 2.231316 -0.325523 -0.296506
v 2.104451 -0.009420 -0.309893
v 1.877615 0.271640 -0.295841
v 1.897077 0.285362 -0.009501
v 1.878738 0.271670 0.276915
v 2.105628 -0.009389 0.290106
v 2.232441 -0.325492 0.276250
v 2.251455 -0.338226 -0.010166
v 2.124276 -0.008911 -0.009931
v -0.750652 -0.321875 -0.356468
v -1.081435 -0.288554 -0.290002
v -0.421721 -0.271636 -0.291298
v -0.759728 0.030761 -0.373222
v -0.429099 0.015052 -0.304920
v -1.088815 -0.001866 -0.303625
v -0.768738 0.383399 -0.356469
v -0.436425 0.301742 -0.291298
v -1.096139 0.284824 -0.290003
v -0.768448 0.399668 -0.004216
v -0.436202 0.314969 -0.004921
v -1.095917 0.298052 -0.003626
v -0.767326 0.383436 0.348037
v -0.435300 0.301772 0.281456
v -1.095017 0.284855 0.282753
v -0.758248 0.030801 0.364794
v -0.427920 0.015083 0.295078
v -1.087637 -0.001834 0.296374
v -0.749239 -0.321837 0.348038
v -0.420596 -0.271607 0.281456
v -1.080313 -0.288524 0.282754
v -0.749529 -0.338106 -0.004215
v -0.420821 -0.284833 -0.004921
v -1.080535 -0.301750 -0.003625
v 0.816816 0.020002 -0.307367
v 0.809492 0.306692 -0.293745
v 0.809714 0.319918 -0.007368
v 0.810617 0.306721 0.279009
v 0.817994 0.020034 0.292632
v 0.825318 -0.266656 0.279010
v 0.825095 -0.279885 -0.007367
v 0.824193 -0.266687 -0.293744
v 1.884678 -0.004998 -0.309459
v 1.891968 -0.288047 -0.295835
v 1.892887 -0.299553 -0.009461
v 1.893154 -0.285583 0.276910
v 1.885970 -0.004369 0.290537
v -0.127083 0.380756 -0.357695
v -0.126795 0.397025 -0.005444
v -0.125671 0.380792 0.346809
v -0.116595 0.028157 0.363566
v -0.107586 -0.324480 0.346811
v -0.107876 -0.340750 -0.005442
v -0.108997 -0.324518 -0.357694
v -0.118073 0.028118 -0.374450
v 0.186535 0.304218 -0.292522
v 0.186757 0.317444 -0.006145
v 0.187657 0.304248 0.280232
v 0.195037 0.017558 0.293855
v 0.202361 -0.269132 0.280233
v 0.202136 -0.282358 -0.006144
v 0.201236 -0.269162 -0.292521
v 0.193858 0.017526 -0.306144
v 0.495957 0.380127 -0.358887
v 0.496244 0.396396 -0.006634
v 0.497367 0.380164 0.345619
v 0.506441 0.027528 0.362373
v 0.515451 -0.325109 0.345620
v 0.515162 -0.341379 -0.006633
v 0.514040 -0.325146 -0.358886
v 0.504964 0.027489 -0.375643
v 1.074597 0.367461 -0.359995
v 1.079695 0.383855 -0.007751
v 1.076009 0.367498 0.344511
v 1.085030 0.018137 0.361268
v 1.093996 -0.332816 0.344510
v 1.093697 -0.349314 -0.007739
v 1.092574 -0.333602 -0.359992
v 1.083525 0.017914 -0.376748
v 1.343555 0.289167 -0.294794
v 1.353397 0.302641 -0.008435
v 1.344678 0.289197 0.277962
v 1.351981 0.007832 0.291585
v 1.359235 -0.276120 0.277961
v 1.358990 -0.289719 -0.008414
v 1.358081 -0.277367 -0.294789
v 1.350748 0.007502 -0.308412
v 1.608841 0.342759 -0.361015
v 1.623559 0.359399 -0.008790
v 1.610253 0.342796 0.343491
v 1.619173 -0.000016 0.360247
v 1.628051 -0.347602 0.343486
v 1.627733 -0.364558 -0.008759
v 1.626603 -0.349884 -0.361009
v 1.617611 -0.000606 -0.377769
v -1.665801 -0.321428 -0.288853
v -1.676375 -0.332076 -0.002477
v -1.664677 -0.321398 0.283901
v -1.673183 -0.034740 -0.302476
v -1.686655 -0.033085 -0.002477
v -1.672004 -0.034708 0.297523
v -1.390448 0.345659 -0.355278
v -1.390160 0.361929 -0.003023
v -1.389036 0.345696 0.349230
v -1.379958 -0.006939 0.365985
v -1.370951 -0.359577 0.349231
v -1.371241 -0.375847 -0.003022
v -1.372362 -0.359615 -0.355277
v -1.381438 -0.006978 -0.372031
vt 0.555114 0.625010
vt 0.554172 0.609361
vt 0.568386 0.608802
vt 0.569375 0.624743
vt 0.713393 0.625456
vt 0.713602 0.609244
vt 0.729400 0.609287
vt 0.729024 0.625862
vt 0.555609 0.640446
vt 0.570055 0.640435
vt 0.713185 0.641814
vt 0.728641 0.642044
vt 0.569393 0.656511
vt 0.554951 0.656051
vt 0.713196 0.658210
vt 0.728645 0.658251
vt 0.569269 0.672707
vt 0.554909 0.671616
vt 0.713136 0.674575
vt 0.728647 0.674524
vt 0.567539 0.688681
vt 0.553229 0.686617
vt 0.713325 0.690625
vt 0.729072 0.690996
vt 0.551167 0.701359
vt 0.565357 0.706346
vt 0.713568 0.705899
vt 0.729537 0.709091
vt 0.553803 0.593778
vt 0.553072 0.578645
vt 0.567426 0.574363
vt 0.568048 0.592398
vt 0.713581 0.593330
vt 0.713590 0.578133
vt 0.729317 0.574397
vt 0.729366 0.592546
vt 0.518065 0.670238
vt 0.517352 0.655169
vt 0.535716 0.655598
vt 0.535889 0.671391
vt 0.518766 0.640150
vt 0.536620 0.639828
vt 0.695936 0.609392
vt 0.696009 0.592418
vt 0.678278 0.609016
vt 0.678418 0.593113
vt 0.695843 0.626177
vt 0.678317 0.625243
vt 0.695760 0.642197
vt 0.678336 0.641654
vt 0.695684 0.658247
vt 0.678197 0.658109
vt 0.695636 0.674370
vt 0.678126 0.674532
vt 0.695613 0.690692
vt 0.677904 0.690619
vt 0.695617 0.708710
vt 0.677669 0.705908
vt 0.678563 0.577909
vt 0.696109 0.574237
vt 0.612132 0.624900
vt 0.628679 0.625177
vt 0.629020 0.641462
vt 0.612549 0.641171
vt 0.612305 0.657437
vt 0.628873 0.657741
vt 0.611957 0.673687
vt 0.628525 0.674084
vt 0.610951 0.689636
vt 0.627692 0.690673
vt 0.609940 0.704889
vt 0.626784 0.708733
vt 0.611574 0.592645
vt 0.611524 0.577403
vt 0.628282 0.573664
vt 0.628230 0.591787
vt 0.611639 0.608624
vt 0.628252 0.608589
vt 0.543821 0.624996
vt 0.536291 0.609216
vt 0.534875 0.594394
vt 0.535338 0.579479
vt 0.541813 0.685725
vt 0.533309 0.701333
vt 0.661798 0.658066
vt 0.661939 0.641783
vt 0.661640 0.674411
vt 0.661165 0.690969
vt 0.660682 0.709056
vt 0.661661 0.592066
vt 0.661839 0.573932
vt 0.661557 0.608883
vt 0.661753 0.625521
vt 0.645227 0.657864
vt 0.645400 0.641392
vt 0.645007 0.674309
vt 0.644433 0.690416
vt 0.643876 0.705707
vt 0.645023 0.592763
vt 0.645132 0.577537
vt 0.644952 0.608693
vt 0.645195 0.624958
vt 0.598532 0.641002
vt 0.598080 0.657220
vt 0.597843 0.673497
vt 0.596455 0.689825
vt 0.594961 0.707782
vt 0.596965 0.591961
vt 0.596809 0.573832
vt 0.597129 0.608583
vt 0.597889 0.624926
vt 0.584197 0.640688
vt 0.583457 0.656861
vt 0.583429 0.673063
vt 0.582012 0.688691
vt 0.580524 0.703768
vt 0.582667 0.592791
vt 0.582394 0.577557
vt 0.582880 0.608709
vt 0.583601 0.624781
vt 0.759833 0.658175
vt 0.759827 0.641933
vt 0.759912 0.674492
vt 0.744360 0.658182
vt 0.744494 0.626595
vt 0.744369 0.674556
vt 0.744588 0.689601
vt 0.745286 0.705901
vt 0.744951 0.593275
vt 0.744882 0.578074
vt 0.745029 0.609205
vt 0.744314 0.641781
vn 0.150817 -0.004483 -0.988552
vn 0.127208 -0.043430 -0.990925
vn 0.004669 -0.047808 -0.998846
vn -0.002576 -0.000287 -0.999997
vn -0.001714 -0.001297 -0.999998
vn 0.006317 -0.047298 -0.998861
vn -0.004100 -0.047567 -0.998860
vn 0.029726 -0.004232 -0.999549
vn 0.221184 0.053376 -0.973770
vn -0.011802 0.048418 -0.998757
vn -0.007182 0.047274 -0.998856
vn 0.128526 0.050340 -0.990428
vn 0.556511 0.828127 -0.067086
vn 0.026019 0.998396 -0.050288
vn 0.038132 0.999273 -0.000108
vn 0.581860 0.813288 -0.001199
vn -0.060723 0.998155 0.000064
vn -0.058590 0.997221 -0.046011
vn -0.514377 0.856464 -0.043421
vn -0.487430 0.873161 0.000925
vn 0.026223 0.998401 0.050080
vn 0.556728 0.828163 0.064809
vn -0.058421 0.997225 0.046138
vn -0.514219 0.856458 0.045372
vn 0.226175 0.053677 0.972607
vn -0.008067 0.048615 0.998785
vn 0.001287 -0.000167 0.999999
vn 0.155497 -0.004335 0.987827
vn 0.002111 -0.001196 0.999997
vn -0.003358 0.047373 0.998872
vn 0.132514 0.050443 0.989897
vn 0.033675 -0.004128 0.999424
vn 0.131356 -0.043559 0.990378
vn 0.008090 -0.047960 0.998817
vn 0.010149 -0.047196 0.998834
vn -0.000186 -0.047462 0.998873
vn 0.052454 -0.998620 0.002748
vn 0.064036 -0.996915 0.045397
vn -0.018706 -0.998668 0.048079
vn -0.018355 -0.999826 0.003268
vn 0.060823 -0.998149 -0.000072
vn 0.061485 -0.997047 0.046001
vn 0.054146 -0.997505 0.045299
vn 0.053589 -0.998563 -0.000051
vn 0.064978 -0.997090 -0.039877
vn -0.020195 -0.998932 -0.041554
vn 0.061314 -0.997052 -0.046140
vn 0.053966 -0.997510 -0.045412
vn 0.929662 0.364713 0.052079
vn 0.930911 0.365242 -0.001847
vn 0.866325 0.499477 -0.001725
vn 0.861889 0.503637 0.059142
vn 0.929451 0.364707 -0.055768
vn 0.861650 0.503630 -0.062575
vn 0.025514 -0.998611 -0.046100
vn 0.025635 -0.999671 0.000007
vn -0.004493 -0.998930 -0.046022
vn -0.004284 -0.999991 0.000053
vn -0.006120 -0.047619 -0.998847
vn -0.000743 -0.047481 -0.998872
vn -0.002018 0.002124 -0.999996
vn -0.001993 -0.001391 -0.999997
vn -0.003174 0.047377 -0.998872
vn 0.000846 0.047481 -0.998872
vn 0.002925 0.998931 -0.046139
vn -0.025706 0.998606 -0.046101
vn -0.025635 0.999671 0.000004
vn 0.004273 0.999991 -0.000066
vn -0.025511 0.998611 0.046099
vn 0.003088 0.998935 0.046026
vn 0.004678 0.047584 0.998856
vn 0.000743 0.047482 0.998872
vn 0.001909 0.002227 0.999996
vn 0.001833 -0.001290 0.999998
vn 0.003177 -0.047378 0.998872
vn -0.002304 -0.047520 0.998868
vn -0.004327 -0.998926 0.046142
vn 0.025701 -0.998606 0.046103
vn -0.001575 -0.000379 -0.999999
vn -0.001949 0.000781 -0.999998
vn -0.005450 0.047322 -0.998865
vn 0.003439 0.047651 -0.998858
vn 0.021864 0.999761 -0.000109
vn 0.019000 0.998788 -0.045401
vn -0.003722 0.998928 -0.046134
vn -0.004118 0.999992 -0.000032
vn 0.019155 0.998793 0.045220
vn -0.003529 0.998933 0.046045
vn 0.002335 -0.000288 0.999997
vn 0.007309 0.047754 0.998832
vn -0.001542 0.047421 0.998874
vn 0.001978 0.000884 0.999998
vn -0.005286 -0.047655 0.998850
vn 0.005369 -0.047320 0.998865
vn -0.014178 -0.999900 0.000343
vn -0.014918 -0.998815 0.046316
vn 0.003822 -0.998928 0.046138
vn 0.004089 -0.999992 0.000057
vn -0.015647 -0.998837 -0.045599
vn 0.003632 -0.998933 -0.046045
vn -0.009398 -0.047744 -0.998815
vn 0.001439 -0.047427 -0.998874
vn -0.004817 -0.032887 -0.999447
vn -0.005440 -0.046253 -0.998915
vn -0.110177 -0.993909 0.002324
vn -0.108460 -0.993374 -0.038005
vn -0.111714 -0.992826 0.042632
vn -0.001095 -0.032977 0.999456
vn -0.001776 -0.046360 0.998923
vn -0.004125 0.999991 -0.000035
vn -0.003707 0.998928 -0.046133
vn -0.003514 0.998933 0.046045
vn 0.001983 0.001180 0.999997
vn -0.001556 0.047424 0.998874
vn 0.005350 -0.047324 0.998865
vn 0.004084 -0.999992 0.000051
vn 0.003838 -0.998928 0.046134
vn 0.003650 -0.998933 -0.046048
vn -0.001943 0.001076 -0.999998
vn 0.001422 -0.047428 -0.998874
vn -0.005466 0.047321 -0.998865
vn 0.001189 0.999999 -0.000064
vn 0.000588 0.998935 -0.046137
vn 0.000753 0.998940 0.046030
vn 0.001885 -0.000917 0.999998
vn 0.005022 0.047591 0.998854
vn -0.001342 -0.047494 0.998871
vn -0.001147 -0.999999 0.000044
vn -0.000702 -0.998935 0.046139
vn -0.000870 -0.998940 -0.046032
vn -0.001941 -0.001018 -0.999998
vn -0.005158 -0.047596 -0.998853
vn 0.001185 0.047491 -0.998871
vn 0.030693 0.998327 -0.049013
vn 0.034188 0.999415 -0.000105
vn 0.030898 0.998331 0.048783
vn 0.001360 0.000505 0.999999
vn -0.008143 0.047701 0.998828
vn 0.008033 -0.047489 0.998839
vn -0.018374 -0.999831 0.001158
vn -0.018632 -0.998731 0.046787
vn -0.020113 -0.998807 -0.044496
vn -0.002479 0.000393 -0.999997
vn 0.004607 -0.047498 -0.998861
vn -0.011924 0.047559 -0.998797
vn 0.048988 0.997719 -0.046442
vn 0.040732 0.999170 -0.000150
vn 0.049152 0.997725 0.046142
vn 0.003146 -0.000064 0.999995
vn 0.014724 0.048713 0.998704
vn -0.005988 -0.048081 0.998825
vn -0.029126 -0.999573 0.002241
vn -0.027336 -0.998500 0.047441
vn -0.028724 -0.998663 -0.042977
vn -0.000839 -0.000154 -1.000000
vn -0.010454 -0.048038 -0.998791
vn 0.010757 0.048559 -0.998762
vn -0.918968 0.394329 0.001794
vn -0.910965 0.410792 -0.037327
vn -0.998658 -0.031081 -0.041430
vn -0.999514 -0.031106 0.001965
vn -0.910806 0.410805 0.040882
vn -0.998488 -0.031072 0.045347
vn -0.225247 -0.031884 0.973780
vn -0.223245 -0.051950 0.973377
vn -0.140157 -0.989135 0.044371
vn -0.140377 -0.990098 0.000326
vn -0.140326 -0.989140 -0.043714
vn -0.226914 -0.052051 -0.972523
vn -0.228917 -0.031982 -0.972920
s 1
g FoodTallLLowerArm
usemtl Delete:blinn4SG
f 42/1/1 43/2/2 93/3/3 94/4/4
f 15/5/5 11/6/6 107/7/7 108/8/8
f 3/9/9 42/1/1 94/4/4 87/10/10
f 18/11/11 15/5/5 108/8/8 101/12/12
s 3
f 3/9/13 87/10/14 88/13/15 4/14/16
f 21/15/17 18/11/18 101/12/19 102/16/20
f 4/14/16 88/13/15 89/17/21 5/18/22
f 24/19/23 21/15/17 102/16/20 103/20/24
s 5
f 5/18/25 89/17/26 90/21/27 46/22/28
f 27/23/29 24/19/30 103/20/31 104/24/32
f 45/25/33 46/22/28 90/21/27 91/26/34
f 30/27/35 27/23/29 104/24/32 105/28/36
s 7
f 44/29/37 45/30/38 91/31/39 92/32/40
f 33/33/41 30/34/42 105/35/43 106/36/44
f 43/2/45 44/29/37 92/32/40 93/3/46
f 11/6/47 33/33/41 106/36/44 107/7/48
s 3
f 7/37/49 8/38/50 9/39/51 6/40/52
f 8/38/50 1/41/53 2/42/54 9/39/51
f 6/40/52 9/39/51 4/14/16 5/18/22
f 9/39/51 2/42/54 3/9/13 4/14/16
s 7
f 11/6/47 10/43/55 31/44/56 33/33/41
f 10/43/55 12/45/57 32/46/58 31/44/56
s 1
f 12/45/59 10/43/60 13/47/61 14/48/62
f 10/43/60 11/6/6 15/5/5 13/47/61
f 14/48/62 13/47/61 16/49/63 17/50/64
f 13/47/61 15/5/5 18/11/11 16/49/63
s 3
f 17/50/65 16/49/66 19/51/67 20/52/68
f 16/49/66 18/11/18 21/15/17 19/51/67
f 20/52/68 19/51/67 22/53/69 23/54/70
f 19/51/67 21/15/17 24/19/23 22/53/69
s 5
f 23/54/71 22/53/72 25/55/73 26/56/74
f 22/53/72 24/19/30 27/23/29 25/55/73
f 26/56/74 25/55/73 28/57/75 29/58/76
f 25/55/73 27/23/29 30/27/35 28/57/75
s 7
f 29/59/77 28/60/78 31/44/56 32/46/58
f 28/60/78 30/34/42 33/33/41 31/44/56
s 1
f 34/61/79 70/62/80 63/63/81 35/64/82
s 3
f 36/65/83 35/64/84 63/63/85 64/66/86
f 37/67/87 36/65/83 64/66/86 65/68/88
s 5
f 38/69/89 37/67/90 65/68/91 66/70/92
f 39/71/93 38/69/89 66/70/92 67/72/94
s 7
f 40/73/95 39/74/96 67/75/97 68/76/98
f 41/77/99 40/73/95 68/76/98 69/78/100
s 1
f 34/61/79 41/77/101 69/78/102 70/62/80
f 2/79/103 42/1/1 3/9/9
f 1/80/104 43/2/2 42/1/1 2/79/103
s 7
f 8/81/105 44/29/37 43/2/45 1/80/106
f 7/82/107 45/30/38 44/29/37 8/81/105
s 5
f 6/83/108 46/22/28 45/25/33 7/84/109
f 5/18/25 46/22/28 6/83/108
s 3
f 48/85/110 47/86/111 17/50/65 20/52/68
f 49/87/112 48/85/110 20/52/68 23/54/70
s 5
f 50/88/113 49/87/114 23/54/71 26/56/74
f 51/89/115 50/88/113 26/56/74 29/58/76
s 7
f 52/90/116 51/91/117 29/59/77 32/46/58
f 53/92/118 52/90/116 32/46/58 12/45/57
s 1
f 54/93/119 53/92/120 12/45/59 14/48/62
f 47/86/121 54/93/119 14/48/62 17/50/64
s 3
f 56/94/122 55/95/123 47/86/111 48/85/110
f 57/96/124 56/94/122 48/85/110 49/87/112
s 5
f 58/97/125 57/96/126 49/87/114 50/88/113
f 59/98/127 58/97/125 50/88/113 51/89/115
s 7
f 60/99/128 59/100/129 51/91/117 52/90/116
f 61/101/130 60/99/128 52/90/116 53/92/118
s 1
f 62/102/131 61/101/132 53/92/120 54/93/119
f 55/95/133 62/102/131 54/93/119 47/86/121
s 3
f 64/66/86 63/63/85 55/95/123 56/94/122
f 65/68/88 64/66/86 56/94/122 57/96/124
s 5
f 66/70/92 65/68/91 57/96/126 58/97/125
f 67/72/94 66/70/92 58/97/125 59/98/127
s 7
f 68/76/98 67/75/97 59/100/129 60/99/128
f 69/78/100 68/76/98 60/99/128 61/101/130
s 1
f 70/62/80 69/78/102 61/101/132 62/102/131
f 63/63/81 70/62/80 62/102/131 55/95/133
s 3
f 71/103/134 35/64/84 36/65/83 72/104/135
f 73/105/136 72/104/135 36/65/83 37/67/87
s 5
f 74/106/137 73/105/138 37/67/90 38/69/89
f 75/107/139 74/106/137 38/69/89 39/71/93
s 7
f 76/108/140 75/109/141 39/74/96 40/73/95
f 77/110/142 76/108/140 40/73/95 41/77/99
s 1
f 78/111/143 77/110/144 41/77/101 34/61/79
f 71/103/145 78/111/143 34/61/79 35/64/82
s 3
f 79/112/146 71/103/134 72/104/135 80/113/147
f 81/114/148 80/113/147 72/104/135 73/105/136
s 5
f 82/115/149 81/114/150 73/105/138 74/106/137
f 83/116/151 82/115/149 74/106/137 75/107/139
s 7
f 84/117/152 83/118/153 75/109/141 76/108/140
f 85/119/154 84/117/152 76/108/140 77/110/142
s 1
f 86/120/155 85/119/156 77/110/144 78/111/143
f 79/112/157 86/120/155 78/111/143 71/103/145
s 3
f 87/10/14 79/112/146 80/113/147 88/13/15
f 89/17/21 88/13/15 80/113/147 81/114/148
s 5
f 90/21/27 89/17/26 81/114/150 82/115/149
f 91/26/34 90/21/27 82/115/149 83/116/151
s 7
f 92/32/40 91/31/39 83/118/153 84/117/152
f 93/3/46 92/32/40 84/117/152 85/119/154
s 1
f 94/4/4 93/3/3 85/119/156 86/120/155
f 87/10/10 94/4/4 86/120/155 79/112/157
s 3
f 99/124/158 98/132/159 95/122/160 96/121/161
f 100/126/162 99/124/158 96/121/161 97/123/163
f 102/16/20 101/12/19 98/132/159 99/124/158
f 103/20/24 102/16/20 99/124/158 100/126/162
s 5
f 104/24/32 103/20/31 100/127/164
f 105/28/36 104/24/32 100/127/164 97/128/165
s 7
f 106/36/44 105/35/43 97/130/166 96/129/167
f 107/7/48 106/36/44 96/129/167 95/131/168
s 1
f 108/8/8 107/7/7 95/131/169 98/125/170
f 101/12/12 108/8/8 98/125/170
