# This file uses centimeters as units for non-parametric coordinates.

mtllib SweetFryLTopIncisor.mtl
g default
v 0.231835 1.112875 -0.518239
v -0.043403 0.999279 -0.500851
v -0.286037 0.804202 -0.445175
v -0.290618 0.865850 -0.201482
v -0.270764 0.895173 0.047424
v -0.027403 1.094580 0.015179
v 0.247108 1.203848 -0.025639
v 0.250353 1.175298 -0.275405
v -0.036071 1.063478 -0.245871
v -0.053289 -0.108859 -0.295894
v -0.303547 -0.115102 -0.274855
v -0.307460 -0.070004 -0.028126
v -0.288274 -0.024129 0.217743
v -0.037289 -0.013558 0.220136
v 0.212969 -0.007315 0.199097
v 0.216882 -0.052413 -0.047632
v 0.197696 -0.098288 -0.293501
v -0.044566 0.810148 -0.465884
v 0.203237 0.820617 -0.463372
v 0.220946 0.866494 -0.217461
v 0.216381 0.911624 0.029277
v -0.029090 0.905542 0.050143
v -0.361709 0.102232 -0.371699
v -0.366690 0.161855 -0.068976
v -0.342924 0.214157 0.234208
v -0.037068 0.227090 0.237253
v 0.269285 0.234720 0.211427
v 0.274299 0.179228 -0.092057
v 0.251154 0.122793 -0.394497
v -0.056586 0.109821 -0.397476
v -0.294792 0.344550 -0.360016
v -0.299039 0.397924 -0.114805
v -0.279519 0.435522 0.132584
v -0.033190 0.445991 0.135140
v 0.214675 0.452154 0.114188
v 0.218914 0.407039 -0.132546
v 0.200467 0.361164 -0.378437
v -0.048928 0.350645 -0.380888
v -0.346679 0.562099 -0.457069
v -0.351994 0.629996 -0.155863
v -0.327894 0.674024 0.148838
v -0.027764 0.686821 0.152086
v 0.275645 0.694351 0.126366
v 0.281059 0.638847 -0.177124
v 0.258823 0.582413 -0.479589
v -0.046961 0.569505 -0.482644
vt 0.555114 0.625010
vt 0.554172 0.609361
vt 0.568386 0.608802
vt 0.569375 0.624743
vt 0.555609 0.640446
vt 0.570055 0.640435
vt 0.569393 0.656511
vt 0.554951 0.656051
vt 0.569269 0.672707
vt 0.554909 0.671616
vt 0.567539 0.688681
vt 0.553229 0.686617
vt 0.551167 0.701359
vt 0.565357 0.706346
vt 0.553803 0.593778
vt 0.553072 0.578645
vt 0.567426 0.574363
vt 0.568048 0.592398
vt 0.518065 0.670238
vt 0.517352 0.655169
vt 0.535716 0.655598
vt 0.535889 0.671391
vt 0.518766 0.640150
vt 0.536620 0.639828
vt 0.612132 0.624900
vt 0.612549 0.641171
vt 0.612305 0.657437
vt 0.611957 0.673687
vt 0.610951 0.689636
vt 0.609940 0.704889
vt 0.611574 0.592645
vt 0.611524 0.577403
vt 0.611639 0.608624
vt 0.543821 0.624996
vt 0.536291 0.609216
vt 0.534875 0.594394
vt 0.535338 0.579479
vt 0.541813 0.685725
vt 0.533309 0.701333
vt 0.598532 0.641002
vt 0.598080 0.657220
vt 0.597843 0.673497
vt 0.596455 0.689825
vt 0.594961 0.707782
vt 0.596965 0.591961
vt 0.596809 0.573832
vt 0.597129 0.608583
vt 0.597889 0.624926
vt 0.584197 0.640688
vt 0.583457 0.656861
vt 0.583429 0.673063
vt 0.582012 0.688691
vt 0.580524 0.703768
vt 0.582667 0.592791
vt 0.582394 0.577557
vt 0.582880 0.608709
vt 0.583601 0.624781
vn -0.027837 -0.029139 -0.999188
vn 0.011346 -0.052466 -0.998558
vn 0.017194 -0.174396 -0.984525
vn -0.030232 -0.182123 -0.982811
vn -0.086195 0.042256 -0.995382
vn -0.078741 -0.191380 -0.978352
vn -0.837502 0.528528 -0.138738
vn -0.999733 0.008286 -0.021590
vn -0.999245 0.029206 0.025608
vn -0.821011 0.565423 -0.078981
vn -0.996674 0.026512 0.077062
vn -0.833507 0.552433 -0.009088
vn -0.027097 0.396712 0.917543
vn -0.017958 0.171035 0.985101
vn 0.030703 0.180861 0.983029
vn 0.032338 0.330405 0.943285
vn 0.071956 0.307444 0.948842
vn 0.078338 0.187739 0.979090
vn 0.997405 0.060371 -0.039228
vn 0.996842 0.079410 0.000688
vn 0.999835 -0.001484 0.018102
vn 0.999618 -0.009179 -0.026064
vn 0.994398 0.065024 -0.083336
vn 0.997381 -0.019048 -0.069778
vn -0.375936 0.920843 -0.103542
vn -0.378129 0.912381 -0.156775
vn -0.511379 0.847757 -0.140708
vn -0.513617 0.854289 -0.079927
vn -0.379222 0.901265 -0.209551
vn -0.517321 0.832197 -0.199567
vn 0.002397 -0.183956 -0.982932
vn 0.015780 -0.184361 -0.982732
vn 0.994961 -0.099724 -0.010341
vn 0.993170 -0.105282 -0.050285
vn 0.995131 -0.094007 0.029603
vn 0.063512 0.178691 0.981853
vn 0.076880 0.178039 0.981016
vn -0.999690 0.013115 -0.021174
vn -0.969316 -0.243880 0.030791
vn -0.968904 -0.236220 0.073657
vn -0.999332 0.025329 0.026323
vn -0.996709 0.030882 0.074946
vn -0.966652 -0.228107 0.116410
vn 0.030032 0.180927 0.983038
vn -0.017039 0.170977 0.985128
vn -0.006752 -0.070717 0.997474
vn 0.038539 -0.070756 0.996749
vn 0.077869 0.187680 0.979139
vn 0.085439 -0.070644 0.993836
vn 0.999558 -0.009578 -0.028136
vn 0.999857 -0.001644 0.016812
vn 0.971625 -0.229382 0.057700
vn 0.971115 -0.238175 0.014448
vn 0.997165 -0.019499 -0.072681
vn 0.968716 -0.246496 -0.028794
vn -0.030914 -0.182035 -0.982806
vn 0.016886 -0.174461 -0.984519
vn 0.026448 -0.420724 -0.906803
vn -0.020539 -0.421303 -0.906687
vn -0.077884 -0.191504 -0.978397
vn -0.065777 -0.420981 -0.904681
vn -0.999260 0.031579 -0.021946
vn -0.999180 0.031758 0.025097
vn -0.996440 0.048367 0.069055
vn 0.030575 0.182692 0.982695
vn -0.018376 0.193447 0.980939
vn 0.078657 0.173894 0.981618
vn 0.999485 -0.019960 -0.025134
vn 0.999768 -0.010088 0.019027
vn 0.997188 -0.027696 -0.069639
vn -0.030390 -0.180420 -0.983120
vn 0.017637 -0.189265 -0.981768
vn -0.079199 -0.169195 -0.982395
s 1
g FoodLBuckTeeth
usemtl Delete:blinn4SG
f 18/1/1 19/2/2 45/3/3 46/4/4
f 3/5/5 18/1/1 46/4/4 39/6/6
s 2
f 3/5/7 39/6/8 40/7/9 4/8/10
f 4/8/10 40/7/9 41/9/11 5/10/12
s 3
f 5/10/13 41/9/14 42/11/15 22/12/16
f 21/13/17 22/12/16 42/11/15 43/14/18
s 4
f 20/15/19 21/16/20 43/17/21 44/18/22
f 19/2/23 20/15/19 44/18/22 45/3/24
s 2
f 7/19/25 8/20/26 9/21/27 6/22/28
f 8/20/26 1/23/29 2/24/30 9/21/27
f 6/22/28 9/21/27 4/8/10 5/10/12
f 9/21/27 2/24/30 3/5/7 4/8/10
s 1
f 2/34/31 18/1/1 3/5/5
f 1/35/32 19/2/2 18/1/1 2/34/31
s 4
f 8/36/33 20/15/19 19/2/23 1/35/34
f 7/37/35 21/16/20 20/15/19 8/36/33
s 3
f 6/38/36 22/12/16 21/13/17 7/39/37
f 5/10/13 22/12/16 6/38/36
s 2
f 23/40/38 11/26/39 12/27/40 24/41/41
f 25/42/42 24/41/41 12/27/40 13/28/43
s 3
f 26/43/44 25/42/45 13/28/46 14/29/47
f 27/44/48 26/43/44 14/29/47 15/30/49
s 4
f 28/45/50 27/46/51 15/32/52 16/31/53
f 29/47/54 28/45/50 16/31/53 17/33/55
s 1
f 30/48/56 29/47/57 17/33/58 10/25/59
f 23/40/60 30/48/56 10/25/59 11/26/61
s 2
f 31/49/62 23/40/38 24/41/41 32/50/63
f 33/51/64 32/50/63 24/41/41 25/42/42
s 3
f 34/52/65 33/51/66 25/42/45 26/43/44
f 35/53/67 34/52/65 26/43/44 27/44/48
s 4
f 36/54/68 35/55/69 27/46/51 28/45/50
f 37/56/70 36/54/68 28/45/50 29/47/54
s 1
f 38/57/71 37/56/72 29/47/57 30/48/56
f 31/49/73 38/57/71 30/48/56 23/40/60
s 2
f 39/6/8 31/49/62 32/50/63 40/7/9
f 41/9/11 40/7/9 32/50/63 33/51/64
s 3
f 42/11/15 41/9/14 33/51/66 34/52/65
f 43/14/18 42/11/15 34/52/65 35/53/67
s 4
f 44/18/22 43/17/21 35/55/69 36/54/68
f 45/3/24 44/18/22 36/54/68 37/56/70
s 1
f 46/4/4 45/3/3 37/56/72 38/57/71
f 39/6/6 46/4/4 38/57/71 31/49/73
