# This file uses centimeters as units for non-parametric coordinates.

mtllib Seaweed.mtl
g default
v 1.323786 -0.548537 -1.524169
v -0.500562 -0.190987 -0.562061
v -1.362378 -0.548537 1.311750
v 1.125755 2.188567 -1.711743
v -0.698593 2.546116 -0.749635
v -1.560410 2.188567 1.124177
v 1.323786 4.925670 -1.524169
v -0.500562 5.283219 -0.562061
v -1.362378 4.925670 1.311750
v -1.319017 -0.548537 1.565162
v 0.530742 -0.190987 0.652865
v 1.443040 -0.548537 -1.196895
v -1.126143 2.188567 1.758036
v 0.723616 2.546116 0.845738
v 1.635914 2.188567 -1.004021
v -1.319017 4.925670 1.565162
v 0.530742 5.283219 0.652865
v 1.443040 4.925670 -1.196895
v 3.460284 -0.575008 -0.778931
v 0.000000 -0.200204 -1.953376
v -3.460284 -0.575008 -0.778931
v 3.460284 2.294185 -1.262192
v 0.000000 2.668990 -2.436637
v -3.460284 2.294185 -1.262192
v 3.460284 5.163379 -0.778931
v 0.000000 5.538183 -1.953376
v -3.460284 5.163379 -0.778931
v -3.460284 -0.575008 0.840575
v 0.000000 -0.200204 2.015020
v 3.460284 -0.575008 0.840575
v -3.460284 2.294185 1.323836
v 0.000000 2.668990 2.498281
v 3.460284 2.294185 1.323836
v -3.460284 5.163379 0.840575
v 0.000000 5.538183 2.015020
v 3.460284 5.163379 0.840575
v -0.983970 -0.575008 -3.460284
v -2.158415 -0.200204 0.000000
v -0.983970 -0.575008 3.460284
v -1.467231 2.294185 -3.460284
v -2.641676 2.668990 0.000000
v -1.467231 2.294185 3.460284
v -0.983970 5.163379 -3.460284
v -2.158415 5.538183 0.000000
v -0.983970 5.163379 3.460284
v 0.953185 -0.575008 3.460284
v 2.127630 -0.200204 0.000000
v 0.953185 -0.575008 -3.460284
v 1.436446 2.294185 3.460284
v 2.610891 2.668990 0.000000
v 1.436446 2.294185 -3.460284
v 0.953185 5.163379 3.460284
v 2.127630 5.538183 0.000000
v 0.953185 5.163379 -3.460284
v 1.001748 -0.415435 -2.482396
v 2.091839 -0.144644 -0.077876
v 4.420341 -0.415435 1.166349
v 0.746957 1.657516 -2.243677
v 1.837049 1.928307 0.160843
v 4.165550 1.657516 1.405068
v 1.001748 3.730467 -2.482396
v 2.091839 4.001258 -0.077876
v 4.420341 3.730467 1.166349
v 5.274196 -0.415435 0.366352
v 4.184104 -0.144644 -2.038167
v 1.855603 -0.415435 -3.282393
v 5.528986 1.657516 0.127633
v 4.438895 1.928307 -2.276886
v 2.110394 1.657516 -3.521112
v 5.274196 3.730467 0.366352
v 4.184104 4.001258 -2.038167
v 1.855603 3.730467 -3.282393
v 1.800700 -0.415435 1.138599
v 4.205220 -0.144644 0.048507
v 5.449445 -0.415435 -2.279994
v 2.039419 1.657516 1.393389
v 4.443939 1.928307 0.303298
v 5.688164 1.657516 -2.025203
v 1.800700 3.730467 1.138599
v 4.205220 4.001258 0.048507
v 5.449445 3.730467 -2.279994
v 4.492537 -0.415435 -3.301324
v 2.088018 -0.144644 -2.211233
v 0.843792 -0.415435 0.117269
v 4.253818 1.657516 -3.556115
v 1.849298 1.928307 -2.466023
v 0.605073 1.657516 -0.137522
v 4.492537 3.730467 -3.301324
v 2.088018 4.001258 -2.211233
v 0.843792 3.730467 0.117269
v -5.116720 -0.415435 -0.873676
v -4.026628 -0.144644 1.530844
v -1.698128 -0.415435 2.775069
v -5.371511 1.657516 -0.634957
v -4.281419 1.928307 1.769563
v -1.952918 1.657516 3.013788
v -5.116720 3.730467 -0.873676
v -4.026628 4.001258 1.530844
v -1.698128 3.730467 2.775069
v -0.844272 -0.415435 1.975073
v -1.934363 -0.144644 -0.429447
v -4.262865 -0.415435 -1.673672
v -0.589481 1.657516 1.736353
v -1.679573 1.928307 -0.668166
v -4.008074 1.657516 -1.912392
v -0.844272 3.730467 1.975073
v -1.934363 4.001258 -0.429447
v -4.262865 3.730467 -1.673672
v -4.317768 -0.415435 2.747319
v -1.913248 -0.144644 1.657228
v -0.669023 -0.415435 -0.671273
v -4.079049 1.657516 3.002110
v -1.674529 1.928307 1.912018
v -0.430304 1.657516 -0.416483
v -4.317768 3.730467 2.747319
v -1.913248 4.001258 1.657228
v -0.669023 3.730467 -0.671273
v -1.625931 -0.415435 -1.692604
v -4.030450 -0.144644 -0.602512
v -5.274675 -0.415435 1.725989
v -1.864650 1.657516 -1.947394
v -4.269169 1.928307 -0.857303
v -5.513395 1.657516 1.471198
v -1.625931 3.730467 -1.692604
v -4.030450 4.001258 -0.602512
v -5.274675 3.730467 1.725989
vt 0.000000 0.000000
vt 0.500000 0.000000
vt 0.500000 0.417408
vt 0.000000 0.417408
vt 1.000000 0.000000
vt 1.000000 0.417408
vt 0.500000 0.815888
vt 0.000000 0.815888
vt 1.000000 0.815888
vt 0.000000 0.000000
vt 0.500000 0.000000
vt 0.500000 0.417408
vt 0.000000 0.417408
vt 1.000000 0.000000
vt 1.000000 0.417408
vt 0.500000 0.815888
vt 0.000000 0.815888
vt 1.000000 0.815888
vt 0.000000 0.000000
vt 0.500000 0.000000
vt 0.500000 0.417408
vt 0.000000 0.417408
vt 1.000000 0.000000
vt 1.000000 0.417408
vt 0.500000 0.815888
vt 0.000000 0.815888
vt 1.000000 0.815888
vt 0.000000 0.000000
vt 0.500000 0.000000
vt 0.500000 0.417408
vt 0.000000 0.417408
vt 1.000000 0.000000
vt 1.000000 0.417408
vt 0.500000 0.815888
vt 0.000000 0.815888
vt 1.000000 0.815888
vt 0.000000 0.000000
vt 0.500000 0.000000
vt 0.500000 0.417408
vt 0.000000 0.417408
vt 1.000000 0.000000
vt 1.000000 0.417408
vt 0.500000 0.815888
vt 0.000000 0.815888
vt 1.000000 0.815888
vt 0.000000 0.000000
vt 0.500000 0.000000
vt 0.500000 0.417408
vt 0.000000 0.417408
vt 1.000000 0.000000
vt 1.000000 0.417408
vt 0.500000 0.815888
vt 0.000000 0.815888
vt 1.000000 0.815888
vt 0.000000 0.000000
vt 0.500000 0.000000
vt 0.500000 0.417408
vt 0.000000 0.417408
vt 1.000000 0.000000
vt 1.000000 0.417408
vt 0.500000 0.815888
vt 0.000000 0.815888
vt 1.000000 0.815888
vt 0.000000 0.000000
vt 0.500000 0.000000
vt 0.500000 0.417408
vt 0.000000 0.417408
vt 1.000000 0.000000
vt 1.000000 0.417408
vt 0.500000 0.815888
vt 0.000000 0.815888
vt 1.000000 0.815888
vt 0.000000 0.000000
vt 0.500000 0.000000
vt 0.500000 0.417408
vt 0.000000 0.417408
vt 1.000000 0.000000
vt 1.000000 0.417408
vt 0.500000 0.815888
vt 0.000000 0.815888
vt 1.000000 0.815888
vt 0.000000 0.000000
vt 0.500000 0.000000
vt 0.500000 0.417408
vt 0.000000 0.417408
vt 1.000000 0.000000
vt 1.000000 0.417408
vt 0.500000 0.815888
vt 0.000000 0.815888
vt 1.000000 0.815888
vt 0.000000 0.000000
vt 0.500000 0.000000
vt 0.500000 0.417408
vt 0.000000 0.417408
vt 1.000000 0.000000
vt 1.000000 0.417408
vt 0.500000 0.815888
vt 0.000000 0.815888
vt 1.000000 0.815888
vt 0.000000 0.000000
vt 0.500000 0.000000
vt 0.500000 0.417408
vt 0.000000 0.417408
vt 1.000000 0.000000
vt 1.000000 0.417408
vt 0.500000 0.815888
vt 0.000000 0.815888
vt 1.000000 0.815888
vt 0.000000 0.000000
vt 0.500000 0.000000
vt 0.500000 0.417408
vt 0.000000 0.417408
vt 1.000000 0.000000
vt 1.000000 0.417408
vt 0.500000 0.815888
vt 0.000000 0.815888
vt 1.000000 0.815888
vt 0.000000 0.000000
vt 0.500000 0.000000
vt 0.500000 0.417408
vt 0.000000 0.417408
vt 1.000000 0.000000
vt 1.000000 0.417408
vt 0.500000 0.815888
vt 0.000000 0.815888
vt 1.000000 0.815888
vn -0.478813 -0.094457 -0.872821
vn -0.722438 -0.099163 -0.684288
vn -0.725972 0.011065 -0.687636
vn -0.467997 -0.010067 -0.883673
vn -0.722438 -0.099163 -0.684288
vn -0.897489 -0.094457 -0.430803
vn -0.907739 -0.010067 -0.419415
vn -0.725972 0.011065 -0.687636
vn -0.467997 -0.010067 -0.883673
vn -0.725972 0.011065 -0.687636
vn -0.722438 0.099163 -0.684288
vn -0.450050 0.093423 -0.888103
vn -0.725972 0.011065 -0.687636
vn -0.907739 -0.010067 -0.419415
vn -0.911190 0.093423 -0.401254
vn -0.722438 0.099163 -0.684288
vn 0.454975 -0.094457 0.885480
vn 0.703622 -0.099163 0.703622
vn 0.707064 0.011065 0.707063
vn 0.443869 -0.010067 0.896035
vn 0.703622 -0.099163 0.703622
vn 0.885480 -0.094457 0.454975
vn 0.896035 -0.010067 0.443869
vn 0.707064 0.011065 0.707063
vn 0.443869 -0.010067 0.896035
vn 0.707064 0.011065 0.707063
vn 0.703622 0.099163 0.703622
vn 0.425809 0.093423 0.899977
vn 0.707064 0.011065 0.707063
vn 0.896035 -0.010067 0.443869
vn 0.899977 0.093423 0.425809
vn 0.703622 0.099163 0.703622
vn 0.301923 -0.158340 -0.940091
vn 0.000000 -0.166092 -0.986110
vn 0.000000 0.011203 -0.999937
vn 0.320420 -0.009914 -0.947224
vn 0.000000 -0.166092 -0.986110
vn -0.301923 -0.158340 -0.940091
vn -0.320420 -0.009914 -0.947224
vn 0.000000 0.011203 -0.999937
vn 0.320420 -0.009914 -0.947224
vn 0.000000 0.011203 -0.999937
vn 0.000000 0.166092 -0.986110
vn 0.332604 0.156635 -0.929968
vn 0.000000 0.011203 -0.999937
vn -0.320420 -0.009914 -0.947224
vn -0.332604 0.156635 -0.929968
vn 0.000000 0.166092 -0.986110
vn -0.301923 -0.158340 0.940091
vn 0.000000 -0.166092 0.986110
vn 0.000000 0.011203 0.999937
vn -0.320420 -0.009914 0.947224
vn 0.000000 -0.166092 0.986110
vn 0.301923 -0.158340 0.940091
vn 0.320420 -0.009914 0.947224
vn 0.000000 0.011203 0.999937
vn -0.320420 -0.009914 0.947224
vn 0.000000 0.011203 0.999937
vn 0.000000 0.166092 0.986110
vn -0.332604 0.156635 0.929968
vn 0.000000 0.011203 0.999937
vn 0.320420 -0.009914 0.947224
vn 0.332604 0.156635 0.929968
vn 0.000000 0.166092 0.986110
vn -0.940091 -0.158340 -0.301923
vn -0.986110 -0.166092 0.000000
vn -0.999937 0.011203 0.000000
vn -0.947224 -0.009914 -0.320420
vn -0.986110 -0.166092 0.000000
vn -0.940091 -0.158340 0.301923
vn -0.947224 -0.009914 0.320420
vn -0.999937 0.011203 0.000000
vn -0.947224 -0.009914 -0.320420
vn -0.999937 0.011203 0.000000
vn -0.986110 0.166092 0.000000
vn -0.929968 0.156635 -0.332604
vn -0.999937 0.011203 0.000000
vn -0.947224 -0.009914 0.320420
vn -0.929968 0.156635 0.332604
vn -0.986110 0.166092 0.000000
vn 0.940091 -0.158340 0.301923
vn 0.986110 -0.166092 0.000000
vn 0.999937 0.011203 0.000000
vn 0.947224 -0.009914 0.320420
vn 0.986110 -0.166092 0.000000
vn 0.940091 -0.158340 -0.301923
vn 0.947224 -0.009914 -0.320420
vn 0.999937 0.011203 0.000000
vn 0.947224 -0.009914 0.320420
vn 0.999937 0.011203 0.000000
vn 0.986110 0.166092 0.000000
vn 0.929968 0.156635 0.332604
vn 0.999937 0.011203 0.000000
vn 0.947224 -0.009914 -0.320420
vn 0.929968 0.156635 -0.332604
vn 0.986110 0.166092 0.000000
vn -0.892459 -0.158340 0.422429
vn -0.719611 -0.166092 0.674220
vn -0.729702 0.011203 0.683674
vn -0.910311 -0.009914 0.413807
vn -0.719611 -0.166092 0.674220
vn -0.479599 -0.158340 0.863083
vn -0.472157 -0.009914 0.881459
vn -0.729702 0.011203 0.683674
vn -0.910311 -0.009914 0.413807
vn -0.729702 0.011203 0.683674
vn -0.719611 0.166092 0.674220
vn -0.906048 0.156635 0.393118
vn -0.729702 0.011203 0.683674
vn -0.472157 -0.009914 0.881459
vn -0.451235 0.156635 0.878551
vn -0.719611 0.166092 0.674220
vn 0.892458 -0.158341 -0.422429
vn 0.719611 -0.166092 -0.674220
vn 0.729702 0.011203 -0.683674
vn 0.910311 -0.009914 -0.413807
vn 0.719611 -0.166092 -0.674220
vn 0.479599 -0.158340 -0.863083
vn 0.472157 -0.009914 -0.881459
vn 0.729702 0.011203 -0.683674
vn 0.910311 -0.009914 -0.413807
vn 0.729702 0.011203 -0.683674
vn 0.719611 0.166092 -0.674220
vn 0.906048 0.156636 -0.393118
vn 0.729702 0.011203 -0.683674
vn 0.472157 -0.009914 -0.881459
vn 0.451235 0.156635 -0.878551
vn 0.719611 0.166092 -0.674220
vn 0.422429 -0.158340 0.892459
vn 0.674220 -0.166091 0.719611
vn 0.683674 0.011203 0.729702
vn 0.413807 -0.009914 0.910311
vn 0.674220 -0.166091 0.719611
vn 0.863083 -0.158340 0.479599
vn 0.881459 -0.009914 0.472157
vn 0.683674 0.011203 0.729702
vn 0.413807 -0.009914 0.910311
vn 0.683674 0.011203 0.729702
vn 0.674220 0.166091 0.719611
vn 0.393118 0.156635 0.906048
vn 0.683674 0.011203 0.729702
vn 0.881459 -0.009914 0.472157
vn 0.878551 0.156635 0.451235
vn 0.674220 0.166091 0.719611
vn -0.422429 -0.158340 -0.892458
vn -0.674220 -0.166092 -0.719611
vn -0.683674 0.011203 -0.729702
vn -0.413807 -0.009914 -0.910311
vn -0.674220 -0.166092 -0.719611
vn -0.863083 -0.158340 -0.479599
vn -0.881459 -0.009914 -0.472157
vn -0.683674 0.011203 -0.729702
vn -0.413807 -0.009914 -0.910311
vn -0.683674 0.011203 -0.729702
vn -0.674220 0.166092 -0.719611
vn -0.393118 0.156635 -0.906048
vn -0.683674 0.011203 -0.729702
vn -0.881459 -0.009914 -0.472157
vn -0.878551 0.156635 -0.451235
vn -0.674220 0.166092 -0.719611
vn -0.892459 -0.158340 0.422429
vn -0.719611 -0.166091 0.674220
vn -0.729702 0.011203 0.683674
vn -0.910311 -0.009914 0.413807
vn -0.719611 -0.166091 0.674220
vn -0.479599 -0.158341 0.863083
vn -0.472157 -0.009914 0.881459
vn -0.729702 0.011203 0.683674
vn -0.910311 -0.009914 0.413807
vn -0.729702 0.011203 0.683674
vn -0.719611 0.166091 0.674220
vn -0.906048 0.156635 0.393118
vn -0.729702 0.011203 0.683674
vn -0.472157 -0.009914 0.881459
vn -0.451235 0.156635 0.878551
vn -0.719611 0.166091 0.674220
vn 0.892459 -0.158340 -0.422429
vn 0.719611 -0.166092 -0.674220
vn 0.729702 0.011203 -0.683674
vn 0.910311 -0.009914 -0.413807
vn 0.719611 -0.166092 -0.674220
vn 0.479599 -0.158341 -0.863083
vn 0.472157 -0.009914 -0.881459
vn 0.729702 0.011203 -0.683674
vn 0.910311 -0.009914 -0.413807
vn 0.729702 0.011203 -0.683674
vn 0.719611 0.166092 -0.674220
vn 0.906048 0.156635 -0.393118
vn 0.729702 0.011203 -0.683674
vn 0.472157 -0.009914 -0.881459
vn 0.451235 0.156635 -0.878551
vn 0.719611 0.166092 -0.674220
vn 0.422429 -0.158340 0.892459
vn 0.674220 -0.166092 0.719611
vn 0.683674 0.011203 0.729702
vn 0.413807 -0.009914 0.910311
vn 0.674220 -0.166092 0.719611
vn 0.863083 -0.158340 0.479599
vn 0.881459 -0.009914 0.472157
vn 0.683674 0.011203 0.729702
vn 0.413807 -0.009914 0.910311
vn 0.683674 0.011203 0.729702
vn 0.674220 0.166091 0.719611
vn 0.393118 0.156635 0.906048
vn 0.683674 0.011203 0.729702
vn 0.881459 -0.009914 0.472157
vn 0.878551 0.156635 0.451235
vn 0.674220 0.166091 0.719611
vn -0.422429 -0.158340 -0.892459
vn -0.674220 -0.166092 -0.719611
vn -0.683674 0.011203 -0.729702
vn -0.413807 -0.009914 -0.910311
vn -0.674220 -0.166092 -0.719611
vn -0.863083 -0.158340 -0.479599
vn -0.881459 -0.009914 -0.472157
vn -0.683674 0.011203 -0.729702
vn -0.413807 -0.009914 -0.910311
vn -0.683674 0.011203 -0.729702
vn -0.674220 0.166092 -0.719611
vn -0.393118 0.156635 -0.906048
vn -0.683674 0.011203 -0.729702
vn -0.881459 -0.009914 -0.472157
vn -0.878551 0.156635 -0.451235
vn -0.674220 0.166092 -0.719611
s off
g Seaweed:pPlane137
usemtl blinn1SG
f 1/1/1 2/2/2 5/3/3 4/4/4
f 2/2/5 3/5/6 6/6/7 5/3/8
f 4/4/9 5/3/10 8/7/11 7/8/12
f 5/3/13 6/6/14 9/9/15 8/7/16
f 10/10/17 11/11/18 14/12/19 13/13/20
f 11/11/21 12/14/22 15/15/23 14/12/24
f 13/13/25 14/12/26 17/16/27 16/17/28
f 14/12/29 15/15/30 18/18/31 17/16/32
f 19/19/33 20/20/34 23/21/35 22/22/36
f 20/20/37 21/23/38 24/24/39 23/21/40
f 22/22/41 23/21/42 26/25/43 25/26/44
f 23/21/45 24/24/46 27/27/47 26/25/48
f 28/28/49 29/29/50 32/30/51 31/31/52
f 29/29/53 30/32/54 33/33/55 32/30/56
f 31/31/57 32/30/58 35/34/59 34/35/60
f 32/30/61 33/33/62 36/36/63 35/34/64
f 37/37/65 38/38/66 41/39/67 40/40/68
f 38/38/69 39/41/70 42/42/71 41/39/72
f 40/40/73 41/39/74 44/43/75 43/44/76
f 41/39/77 42/42/78 45/45/79 44/43/80
f 46/46/81 47/47/82 50/48/83 49/49/84
f 47/47/85 48/50/86 51/51/87 50/48/88
f 49/49/89 50/48/90 53/52/91 52/53/92
f 50/48/93 51/51/94 54/54/95 53/52/96
f 55/55/97 56/56/98 59/57/99 58/58/100
f 56/56/101 57/59/102 60/60/103 59/57/104
f 58/58/105 59/57/106 62/61/107 61/62/108
f 59/57/109 60/60/110 63/63/111 62/61/112
f 64/64/113 65/65/114 68/66/115 67/67/116
f 65/65/117 66/68/118 69/69/119 68/66/120
f 67/67/121 68/66/122 71/70/123 70/71/124
f 68/66/125 69/69/126 72/72/127 71/70/128
f 73/73/129 74/74/130 77/75/131 76/76/132
f 74/74/133 75/77/134 78/78/135 77/75/136
f 76/76/137 77/75/138 80/79/139 79/80/140
f 77/75/141 78/78/142 81/81/143 80/79/144
f 82/82/145 83/83/146 86/84/147 85/85/148
f 83/83/149 84/86/150 87/87/151 86/84/152
f 85/85/153 86/84/154 89/88/155 88/89/156
f 86/84/157 87/87/158 90/90/159 89/88/160
f 91/91/161 92/92/162 95/93/163 94/94/164
f 92/92/165 93/95/166 96/96/167 95/93/168
f 94/94/169 95/93/170 98/97/171 97/98/172
f 95/93/173 96/96/174 99/99/175 98/97/176
f 100/100/177 101/101/178 104/102/179 103/103/180
f 101/101/181 102/104/182 105/105/183 104/102/184
f 103/103/185 104/102/186 107/106/187 106/107/188
f 104/102/189 105/105/190 108/108/191 107/106/192
f 109/109/193 110/110/194 113/111/195 112/112/196
f 110/110/197 111/113/198 114/114/199 113/111/200
f 112/112/201 113/111/202 116/115/203 115/116/204
f 113/111/205 114/114/206 117/117/207 116/115/208
f 118/118/209 119/119/210 122/120/211 121/121/212
f 119/119/213 120/122/214 123/123/215 122/120/216
f 121/121/217 122/120/218 125/124/219 124/125/220
f 122/120/221 123/123/222 126/126/223 125/124/224
