# This file uses centimeters as units for non-parametric coordinates.

mtllib PancakesShortRUpperLeg.mtl
g default
v -0.625066 -0.393443 -0.079528
v -0.754326 -0.226533 -0.079528
v -0.686632 0.014363 -0.079528
v -0.640775 0.232513 -0.079528
v -0.282612 -0.473074 -0.029527
v -0.282612 -0.261618 0.070473
v -0.282613 0.003319 0.070473
v -0.282612 0.230164 0.070473
v 0.097388 -0.434700 -0.029525
v 0.097388 -0.243897 0.070475
v 0.097388 0.002068 0.070475
v 0.097388 0.214941 0.070475
v 0.477388 -0.357593 -0.079523
v 0.477388 -0.206242 0.020478
v 0.477388 0.003319 0.020478
v 0.477387 0.254086 0.020478
v 0.857388 -0.379257 -0.079521
v 0.857387 -0.218487 0.020479
v 0.857388 0.003319 0.020479
v 0.857387 0.266441 0.020479
v 1.237388 -0.364599 -0.022064
v 1.237388 -0.221008 -0.022064
v 1.237388 0.003319 -0.022064
v 1.237388 0.256181 -0.022064
v -0.593529 0.409092 -0.079528
v -0.282612 0.395793 -0.029527
v 0.097389 0.369518 -0.029525
v 0.477389 0.459389 -0.079523
v 0.857388 0.487427 -0.079521
v 1.237389 0.436147 -0.022064
v -0.685871 -0.344597 -0.079528
v -0.282613 -0.426703 0.070473
v 0.097388 -0.388327 0.070475
v 0.477387 -0.311222 0.020478
v 0.857387 -0.332886 0.020479
v -0.633758 0.375680 -0.079528
v -0.282613 0.360692 0.070473
v 0.097388 0.334417 0.070475
v 0.477387 0.424286 0.020478
v 0.857388 0.452326 0.020479
v -0.595247 0.374036 0.020473
v -0.602230 0.232260 0.020473
v -0.648101 0.013309 0.020472
v -0.715886 -0.229392 0.020472
v -0.648101 -0.352288 0.020472
v -0.282612 -0.261618 -0.029527
v -0.282612 0.003319 -0.029527
v -0.282611 0.230164 -0.029527
v 0.097388 -0.243897 -0.029525
v 0.097389 0.002068 -0.029525
v 0.097389 0.214941 -0.029525
v 0.477389 -0.206242 -0.079523
v 0.477388 0.003319 -0.079523
v 0.477388 0.254086 -0.079523
v 0.857388 -0.218487 -0.079521
v 0.857389 0.003319 -0.079521
v 0.857388 0.266441 -0.079521
vt 0.455739 0.648229
vt 0.459293 0.643784
vt 0.458728 0.646567
vt 0.467993 0.638742
vt 0.485741 0.643730
vt 0.485663 0.646569
vt 0.467782 0.641574
vt 0.501812 0.647109
vt 0.501793 0.649949
vt 0.512350 0.647627
vt 0.512229 0.650464
vt 0.449844 0.673496
vt 0.453258 0.673496
vt 0.456085 0.701496
vt 0.452672 0.701495
vt 0.465411 0.673497
vt 0.484927 0.673498
vt 0.484835 0.701498
vt 0.466715 0.701497
vt 0.501642 0.673498
vt 0.500520 0.701498
vt 0.511253 0.673499
vt 0.509319 0.701498
vt 0.461761 0.729497
vt 0.458348 0.729497
vt 0.484927 0.729498
vt 0.469488 0.729498
vt 0.503404 0.729498
vt 0.515935 0.729499
vt 0.460159 0.757497
vt 0.456744 0.757497
vt 0.484927 0.757498
vt 0.468584 0.757498
vt 0.504312 0.757498
vt 0.517999 0.757499
vt 0.457824 0.785497
vt 0.484927 0.785498
vt 0.468398 0.785498
vt 0.503558 0.785498
vt 0.516809 0.785499
vt 0.514738 0.650545
vt 0.513838 0.673499
vt 0.511904 0.701499
vt 0.518519 0.729500
vt 0.520584 0.757499
vt 0.465411 0.673497
vt 0.466715 0.701497
vt 0.484835 0.701498
vt 0.484927 0.673498
vt 0.500520 0.701498
vt 0.501642 0.673498
vt 0.469488 0.729498
vt 0.484927 0.729498
vt 0.503404 0.729498
vt 0.468584 0.757498
vt 0.484927 0.757498
vt 0.504312 0.757498
vt 0.468398 0.785498
vt 0.484927 0.785498
vt 0.503558 0.785498
vt 0.467993 0.638759
vt 0.459293 0.643784
vt 0.455739 0.648229
vt 0.452672 0.701495
vt 0.449844 0.673496
vt 0.458348 0.729497
vt 0.456744 0.757497
vt 0.456117 0.785497
vt 0.514738 0.650545
vt 0.512350 0.647627
vt 0.501806 0.647127
vt 0.511904 0.701499
vt 0.513838 0.673499
vt 0.518519 0.729500
vt 0.520584 0.757499
vt 0.518102 0.785499
vt 0.485737 0.643751
vn -0.271466 -0.894748 0.354588
vn -0.277626 -0.380438 0.882151
vn -0.806342 -0.522906 0.276373
vn -0.935261 0.015062 0.353639
vn -0.364453 -0.001228 0.931221
vn -0.325189 0.065597 0.943371
vn -0.908029 0.225609 0.352965
vn -0.358306 0.043096 0.932609
vn -0.923975 0.137214 0.356991
vn -0.298159 0.482168 0.823781
vn -0.923327 0.139627 0.357731
vn -0.078953 -0.914156 0.397599
vn 0.163098 -0.895058 0.415055
vn 0.120135 -0.469045 0.874965
vn -0.076887 -0.484432 0.871444
vn -0.063137 -0.000512 0.998005
vn 0.059857 -0.000000 0.998207
vn 0.064537 0.000000 0.997915
vn -0.066213 0.007910 0.997774
vn 0.068778 0.000000 0.997632
vn -0.071748 0.005291 0.997409
vn 0.029518 0.456993 0.888981
vn -0.035821 0.508080 0.860564
vn 0.090828 -0.903457 0.418947
vn 0.098820 -0.497846 0.861617
vn 0.068626 -0.000000 0.997643
vn 0.064728 0.000000 0.997903
vn 0.060330 0.000000 0.998178
vn -0.028328 0.481280 0.876109
vn -0.044413 -0.906313 0.420267
vn 0.023242 -0.429098 0.902959
vn 0.058301 -0.000000 0.998299
vn 0.056381 0.000000 0.998409
vn 0.056289 -0.000000 0.998415
vn 0.038159 0.348200 0.936644
vn 0.105046 -0.071891 0.991866
vn 0.111261 -0.000000 0.993791
vn 0.111261 0.000000 0.993791
vn 0.111261 -0.000000 0.993791
vn 0.113064 0.045619 0.992540
vn -0.056941 0.942373 0.329685
vn -0.063371 0.941662 0.330540
vn 0.027842 0.943242 0.330937
vn -0.119640 0.936781 0.328829
vn -0.024162 0.943283 0.331109
vn 0.061571 0.004965 -0.998090
vn 0.062912 -0.007529 -0.997991
vn -0.064537 -0.000000 -0.997915
vn -0.060824 0.000000 -0.998149
vn 0.068617 -0.008110 -0.997610
vn -0.068401 0.000000 -0.997658
vn -0.064728 -0.000000 -0.997903
vn -0.068120 0.000000 -0.997677
vn -0.060987 0.000000 -0.998139
vn 0.076051 0.000000 -0.997104
vn 0.075893 -0.000000 -0.997116
vn 0.074442 -0.000000 -0.997225
vn 0.149503 0.000000 -0.988761
vn 0.149503 -0.000000 -0.988761
vn 0.149503 -0.000000 -0.988761
vn 0.116944 0.001850 -0.993137
vn 0.127540 0.043569 -0.990876
vn 0.000005 -0.000000 -1.000000
vn -0.054019 0.000000 -0.998540
vn 0.060181 0.020558 -0.997976
vn -0.071352 0.000000 -0.997451
vn 0.074908 0.000000 -0.997190
vn 0.149503 0.000000 -0.988761
vn 0.144971 -0.020014 -0.989233
vn 0.135372 -0.015676 -0.990671
vn 0.000005 -0.000000 -1.000000
vn 0.074790 -0.010325 -0.997146
vn -0.072495 0.000000 -0.997369
vn -0.053554 0.000000 -0.998565
vn 0.071587 -0.000000 -0.997434
vn 0.149502 -0.000001 -0.988761
vn 0.119009 -0.014451 -0.992788
s 1
g FoodShortRUpperLeg
usemtl Delete:blinn4SG
f 1/1/1 45/3/2 31/2/3
f 2/4/4 44/7/5 43/6/6 3/5/7
f 3/5/7 43/6/6 42/9/8 4/8/9
f 4/8/9 42/9/8 41/11/10 36/10/11
f 5/12/12 9/15/13 33/14/14 32/13/15
f 6/16/16 10/19/17 11/18/18 7/17/19
f 7/17/19 11/18/18 12/21/20 8/20/21
f 8/20/21 12/21/20 38/23/22 37/22/23
f 9/15/13 13/25/24 34/24/25 33/14/14
f 10/19/17 14/27/26 15/26/27 11/18/18
f 11/18/18 15/26/27 16/28/28 12/21/20
f 12/21/20 16/28/28 39/29/29 38/23/22
f 13/25/24 17/31/30 35/30/31 34/24/25
f 14/27/26 18/33/32 19/32/33 15/26/27
f 15/26/27 19/32/33 20/34/34 16/28/28
f 16/28/28 20/34/34 40/35/35 39/29/29
f 17/31/30 21/36/36 35/30/31
f 18/33/32 22/38/37 23/37/38 19/32/33
f 19/32/33 23/37/38 24/39/39 20/34/34
f 20/34/34 24/39/39 30/40/40 40/35/35
f 31/2/3 45/3/2 44/7/5 2/4/4
f 33/14/14 10/19/17 6/16/16 32/13/15
f 34/24/25 14/27/26 10/19/17 33/14/14
f 35/30/31 18/33/32 14/27/26 34/24/25
f 21/36/36 22/38/37 18/33/32 35/30/31
f 36/10/11 41/11/10 25/41/41
f 38/23/22 27/43/42 26/42/43 37/22/23
f 39/29/29 28/44/44 27/43/42 38/23/22
f 40/35/35 29/45/45 28/44/44 39/29/29
f 30/40/40 29/45/45 40/35/35
f 41/11/10 37/22/23 26/42/43 25/41/41
f 42/9/8 8/20/21 37/22/23 41/11/10
f 43/6/6 7/17/19 8/20/21 42/9/8
f 44/7/5 6/16/16 7/17/19 43/6/6
f 45/3/2 32/13/15 6/16/16 44/7/5
f 1/1/1 5/12/12 32/13/15 45/3/2
s 3
f 46/46/46 47/49/47 50/48/48 49/47/49
f 47/49/47 48/51/50 51/50/51 50/48/48
f 49/47/49 50/48/48 53/53/52 52/52/53
f 50/48/48 51/50/51 54/54/54 53/53/52
f 52/52/53 53/53/52 56/56/55 55/55/56
f 53/53/52 54/54/54 57/57/57 56/56/55
f 55/55/56 56/56/55 23/59/58 22/58/59
f 56/56/55 57/57/57 24/60/60 23/59/58
f 2/61/61 1/63/62 31/62/63
f 9/64/64 5/65/65 46/46/46 49/47/49
f 13/66/66 9/64/64 49/47/49 52/52/53
f 17/67/67 13/66/66 52/52/53 55/55/56
f 21/68/68 17/67/67 55/55/56 22/58/59
f 25/69/69 4/71/70 36/70/71
f 51/50/51 48/51/50 26/73/72 27/72/73
f 54/54/54 51/50/51 27/72/73 28/74/74
f 57/57/57 54/54/54 28/74/74 29/75/75
f 24/60/60 57/57/57 29/75/75 30/76/76
f 48/51/50 4/71/70 25/69/69 26/73/72
f 3/77/77 4/71/70 48/51/50 47/49/47
f 2/61/61 3/77/77 47/49/47 46/46/46
f 5/65/65 1/63/62 2/61/61 46/46/46
