# This file uses centimeters as units for non-parametric coordinates.

mtllib FryMediumRUpperArm.mtl
g default
v 1.415605 -0.262090 -0.273330
v 1.305082 0.012351 -0.286246
v 1.093699 0.289810 -0.273461
v 1.113190 0.301721 -0.002827
v 1.093469 0.289816 0.267795
v 1.304839 0.012357 0.280752
v 1.415371 -0.262084 0.267926
v 1.434353 -0.275147 -0.002696
v 1.324196 0.011778 -0.002738
v -1.217518 -0.267746 0.266902
v -1.090770 -0.000411 0.279820
v -0.863166 0.263903 0.267034
v -0.881910 0.276960 -0.003600
v -0.862936 0.263897 -0.274220
v -1.090530 -0.000417 -0.287178
v -1.217288 -0.267752 -0.274352
v -1.237017 -0.279657 -0.003733
v -1.109887 0.000162 -0.003688
v 0.196880 0.020031 0.280321
v 0.205000 0.290920 0.267449
v 0.205489 0.303401 -0.003179
v 0.205230 0.290914 -0.273805
v 0.197119 0.020025 -0.286679
v 0.188999 -0.250864 -0.273806
v 0.188510 -0.263345 -0.003180
v 0.188769 -0.250858 0.267448
vt 0.546015 0.498880
vt 0.545159 0.516525
vt 0.545528 0.534075
vt 0.504781 0.533922
vt 0.505702 0.516105
vt 0.525343 0.516244
vt 0.525419 0.533922
vt 0.505094 0.498232
vt 0.525678 0.498559
vt 0.524812 0.466682
vt 0.607798 0.466545
vt 0.608363 0.483419
vt 0.532579 0.483287
vt 0.608913 0.500183
vt 0.546279 0.499624
vt 0.608853 0.516884
vt 0.545369 0.516454
vt 0.608731 0.533595
vt 0.546020 0.533304
vt 0.607995 0.550381
vt 0.532064 0.549478
vt 0.607232 0.567294
vt 0.524043 0.566005
vt 0.524764 0.432851
vt 0.607785 0.432711
vt 0.607766 0.449632
vt 0.523620 0.449768
vt 0.505964 0.533121
vt 0.504869 0.516090
vt 0.523857 0.516264
vt 0.524403 0.534040
vt 0.506273 0.499085
vt 0.524715 0.498508
vt 0.680114 0.466638
vt 0.681333 0.449699
vt 0.673415 0.483674
vt 0.660873 0.500750
vt 0.661936 0.517152
vt 0.660783 0.533484
vt 0.673275 0.550712
vt 0.679777 0.567833
vt 0.680224 0.432812
vn 0.929666 0.364221 0.055354
vn 0.931096 0.364774 0.000397
vn 0.873678 0.486504 0.000369
vn 0.871960 0.485563 0.062569
vn 0.929712 0.364224 -0.054563
vn 0.872014 0.485561 -0.061832
vn 0.801403 0.598125 0.000336
vn 0.799503 0.596734 0.068581
vn 0.799565 0.596727 -0.067911
vn 0.000275 -0.047934 0.998851
vn -0.000248 -0.047578 0.998868
vn -0.000511 0.000079 1.000000
vn -0.000546 0.000276 1.000000
vn -0.000773 0.047736 0.998860
vn -0.001365 0.048486 0.998823
vn -0.024782 0.998542 0.047949
vn -0.011626 0.998850 0.046511
vn -0.011621 0.999933 -0.000016
vn -0.024792 0.999693 -0.000021
vn -0.011590 0.998849 -0.046543
vn -0.024745 0.998541 -0.047992
vn -0.000589 0.048469 -0.998825
vn 0.000003 0.047715 -0.998861
vn 0.000267 0.000060 -1.000000
vn 0.000232 0.000257 -1.000000
vn 0.000529 -0.047596 -0.998867
vn 0.001052 -0.047956 -0.998849
vn 0.011729 -0.998937 -0.044569
vn 0.001222 -0.998955 -0.045695
vn 0.001205 -0.999999 0.000011
vn 0.011723 -0.999931 0.000016
vn 0.001186 -0.998954 0.045718
vn 0.011694 -0.998937 0.044600
vn -0.906206 0.419198 -0.055353
vn -0.907596 0.419844 -0.000389
vn -0.843000 0.537913 -0.000363
vn -0.841343 0.536869 -0.062568
vn -0.906243 0.419220 0.054576
vn -0.841393 0.536874 0.061843
vn -0.764179 0.645004 -0.000331
vn -0.762365 0.643504 -0.068580
vn -0.762431 0.643496 0.067919
vn -0.000477 -0.000118 1.000000
vn -0.000181 0.046986 0.998896
vn 0.001531 0.998983 0.045065
vn 0.001550 0.999999 -0.000011
vn 0.001565 0.998982 -0.045086
vn 0.000595 0.046961 -0.998897
vn 0.000301 -0.000137 -1.000000
vn 0.000007 -0.047235 -0.998884
vn -0.009285 -0.998860 -0.046816
vn -0.009313 -0.999957 0.000007
vn -0.009321 -0.998859 0.046830
vn -0.000771 -0.047221 0.998884
s 1
g FoodMediumRUpperArm
usemtl FryHat:initialShadingGroup
f 7/4/1 8/5/2 9/6/3 6/7/4
f 8/5/2 1/8/5 2/9/6 9/6/3
f 6/7/4 9/6/3 4/2/7 5/3/8
f 9/6/3 2/9/6 3/1/9 4/2/7
s 2
f 10/10/10 26/11/11 19/12/12 11/13/13
f 11/13/13 19/12/12 20/14/14 12/15/15
s 3
f 12/15/16 20/14/17 21/16/18 13/17/19
f 13/17/19 21/16/18 22/18/20 14/19/21
s 4
f 14/19/22 22/18/23 23/20/24 15/21/25
f 15/21/25 23/20/24 24/22/26 16/23/27
s 5
f 16/24/28 24/25/29 25/26/30 17/27/31
f 17/27/31 25/26/30 26/11/32 10/10/33
s 6
f 16/28/34 17/29/35 18/30/36 15/31/37
f 17/29/35 10/32/38 11/33/39 18/30/36
f 15/31/37 18/30/36 13/17/40 14/19/41
f 18/30/36 11/33/39 12/15/42 13/17/40
s 2
f 19/12/12 6/36/43 5/37/44 20/14/14
s 3
f 21/16/18 20/14/17 5/37/45 4/38/46
f 22/18/20 21/16/18 4/38/46 3/39/47
s 4
f 23/20/24 22/18/23 3/39/48 2/40/49
f 24/22/26 23/20/24 2/40/49 1/41/50
s 5
f 25/26/30 24/25/29 1/42/51 8/35/52
f 26/11/32 25/26/30 8/35/52 7/34/53
s 2
f 19/12/12 26/11/11 7/34/54 6/36/43
