# This file uses centimeters as units for non-parametric coordinates.

mtllib FryShortLUpperArm.mtl
g default
v -0.964567 -0.264012 -0.261596
v -0.877379 -0.002005 -0.273757
v -0.700657 0.266386 -0.261719
v -0.718463 0.276905 -0.006929
v -0.700452 0.266401 0.247850
v -0.877162 -0.001989 0.260048
v -0.964359 -0.263997 0.247972
v -0.980702 -0.276950 -0.006806
v -0.894348 -0.003214 -0.006845
v 0.897450 -0.219174 0.247048
v 0.773980 0.027813 0.259209
v 0.560964 0.268415 0.247171
v 0.577099 0.281354 -0.007621
v 0.560760 0.268401 -0.262396
v 0.773766 0.027798 -0.274595
v 0.897245 -0.219190 -0.262520
v 0.915270 -0.229692 -0.007743
v 0.790953 0.029023 -0.007701
v 0.014795 0.032816 0.259653
v -0.003360 0.287314 0.247533
v -0.004298 0.299035 -0.007252
v -0.003564 0.287299 -0.262034
v 0.014581 0.032800 -0.274153
v 0.032735 -0.221697 -0.262034
v 0.033673 -0.233418 -0.007251
v 0.032940 -0.221683 0.247533
vt 0.506030 0.498937
vt 0.504551 0.516218
vt 0.504910 0.533138
vt 0.546611 0.533744
vt 0.545783 0.515803
vt 0.522888 0.516767
vt 0.524765 0.534242
vt 0.545531 0.498792
vt 0.524161 0.498270
vt 0.524812 0.466682
vt 0.583907 0.467991
vt 0.584524 0.484874
vt 0.532579 0.483287
vt 0.585179 0.499665
vt 0.546279 0.499624
vt 0.585285 0.516744
vt 0.545369 0.516454
vt 0.584975 0.533695
vt 0.546020 0.533304
vt 0.584124 0.548511
vt 0.532064 0.549478
vt 0.583323 0.565336
vt 0.524043 0.566005
vt 0.524764 0.432851
vt 0.583867 0.432689
vt 0.583853 0.449651
vt 0.523620 0.449768
vt 0.505964 0.533121
vt 0.504869 0.516090
vt 0.523857 0.516264
vt 0.524403 0.534040
vt 0.506273 0.499085
vt 0.524715 0.498508
vt 0.647541 0.467803
vt 0.648694 0.449877
vt 0.640991 0.484816
vt 0.628585 0.499981
vt 0.629740 0.516957
vt 0.628446 0.533811
vt 0.640738 0.549147
vt 0.647104 0.566205
vt 0.647588 0.432782
vn -0.950352 0.306673 0.052746
vn -0.902141 0.427251 0.059980
vn -0.903773 0.428012 0.000354
vn -0.951679 0.307095 0.000379
vn -0.902189 0.427250 -0.059274
vn -0.950394 0.306673 -0.051989
vn -0.838670 0.540602 0.066200
vn -0.840522 0.541777 0.000323
vn -0.838722 0.540599 -0.065555
vn 0.000498 -0.048222 0.998836
vn 0.001001 0.000608 0.999999
vn 0.000793 0.000231 1.000000
vn 0.001431 -0.047665 0.998862
vn 0.001501 0.049437 0.998776
vn 0.000153 0.048128 0.998841
vn 0.031904 0.998276 0.049263
vn 0.031911 0.999491 -0.000040
vn 0.000710 1.000000 -0.000028
vn 0.000735 0.998895 0.046997
vn 0.031841 0.998274 -0.049343
vn 0.000683 0.998892 -0.047053
vn 0.000281 0.049188 -0.998790
vn -0.000182 0.000409 -1.000000
vn -0.000242 0.000111 -1.000000
vn -0.000903 0.047984 -0.998848
vn -0.000645 -0.048371 -0.998829
vn 0.000419 -0.047762 -0.998859
vn 0.003542 -0.999038 -0.043702
vn 0.003570 -0.999994 0.000028
vn 0.023106 -0.999733 0.000020
vn 0.023059 -0.998704 -0.045372
vn 0.003592 -0.999036 0.043757
vn 0.023105 -0.998701 0.045412
vn 0.897234 0.438392 -0.052764
vn 0.832398 0.550922 -0.059991
vn 0.833906 0.551906 -0.000350
vn 0.898488 0.438998 -0.000373
vn 0.832445 0.550926 0.059291
vn 0.897274 0.438399 0.052019
vn 0.753479 0.654131 -0.066203
vn 0.755147 0.655556 -0.000322
vn 0.753533 0.654133 0.065561
vn -0.001194 0.046818 0.998903
vn 0.000585 -0.000145 1.000000
vn -0.030486 0.999535 -0.000017
vn -0.030435 0.998537 0.044685
vn -0.030475 0.998535 -0.044718
vn -0.000302 -0.000186 -1.000000
vn -0.002088 0.046780 -0.998903
vn 0.001484 -0.047152 -0.998887
vn 0.042635 -0.999091 0.000013
vn 0.042567 -0.997986 -0.047024
vn 0.042609 -0.997983 0.047049
vn 0.002364 -0.047108 0.998887
s 1
g FoodShortLUpperArm
usemtl FryHat:initialShadingGroup
f 7/4/1 6/7/2 9/6/3 8/5/4
f 8/5/4 9/6/3 2/9/5 1/8/6
f 6/7/2 5/3/7 4/2/8 9/6/3
f 9/6/3 4/2/8 3/1/9 2/9/5
s 2
f 10/10/10 11/13/11 19/12/12 26/11/13
f 11/13/11 12/15/14 20/14/15 19/12/12
s 3
f 12/15/16 13/17/17 21/16/18 20/14/19
f 13/17/17 14/19/20 22/18/21 21/16/18
s 4
f 14/19/22 15/21/23 23/20/24 22/18/25
f 15/21/23 16/23/26 24/22/27 23/20/24
s 5
f 16/24/28 17/27/29 25/26/30 24/25/31
f 17/27/29 10/10/32 26/11/33 25/26/30
s 6
f 16/28/34 15/31/35 18/30/36 17/29/37
f 17/29/37 18/30/36 11/33/38 10/32/39
f 15/31/35 14/19/40 13/17/41 18/30/36
f 18/30/36 13/17/41 12/15/42 11/33/38
s 2
f 19/12/12 20/14/15 5/37/43 6/36/44
s 3
f 21/16/18 4/38/45 5/37/46 20/14/19
f 22/18/21 3/39/47 4/38/45 21/16/18
s 4
f 23/20/24 2/40/48 3/39/49 22/18/25
f 24/22/27 1/41/50 2/40/48 23/20/24
s 5
f 25/26/30 8/35/51 1/42/52 24/25/31
f 26/11/33 7/34/53 8/35/51 25/26/30
s 2
f 19/12/12 6/36/44 7/34/54 26/11/13
