# This file uses centimeters as units for non-parametric coordinates.

mtllib FryShortRLowerLeg.mtl
g default
v 1.114772 0.303310 -0.291804
v 1.004716 0.316950 -0.001595
v 0.793812 0.303396 0.291630
v 0.813305 0.017009 0.304234
v 0.793549 -0.269361 0.291570
v 1.004438 -0.283049 -0.001659
v 1.114505 -0.269448 -0.291865
v 1.133475 0.016925 -0.305621
v 1.023813 0.016939 -0.002203
v -0.849324 -0.268300 -0.322464
v -0.722106 -0.282010 -0.039366
v -0.494026 -0.268526 0.240714
v -0.512730 0.017861 0.254531
v -0.493763 0.304230 0.240775
v -0.721831 0.317988 -0.039302
v -0.849061 0.304456 -0.322404
v -0.868833 0.018088 -0.335068
v -0.741206 0.017998 -0.038757
v 0.075624 -0.282557 -0.000826
v 0.084221 -0.268968 0.285831
v 0.084748 0.017410 0.299072
v 0.084484 0.303788 0.285892
v 0.075899 0.317444 -0.000762
v 0.067302 0.303857 -0.287418
v 0.066775 0.017481 -0.300659
v 0.067039 -0.268899 -0.287479
vt 0.506030 0.498937
vt 0.504551 0.516218
vt 0.504910 0.533138
vt 0.546611 0.533744
vt 0.545783 0.515803
vt 0.522888 0.516767
vt 0.524765 0.534242
vt 0.545531 0.498792
vt 0.524161 0.498270
vt 0.524812 0.466682
vt 0.578895 0.467991
vt 0.579511 0.484874
vt 0.532579 0.483287
vt 0.580166 0.499665
vt 0.546279 0.499624
vt 0.580272 0.516744
vt 0.545369 0.516454
vt 0.579962 0.533695
vt 0.546020 0.533304
vt 0.579111 0.548511
vt 0.532064 0.549478
vt 0.578311 0.565336
vt 0.524043 0.566005
vt 0.524764 0.432851
vt 0.578854 0.432689
vt 0.578841 0.449651
vt 0.523620 0.449768
vt 0.505964 0.533121
vt 0.504869 0.516090
vt 0.523857 0.516264
vt 0.524403 0.534040
vt 0.506273 0.499085
vt 0.524715 0.498508
vt 0.640649 0.467803
vt 0.641802 0.449877
vt 0.634099 0.484816
vt 0.621693 0.499981
vt 0.622848 0.516957
vt 0.621553 0.533811
vt 0.633846 0.549147
vt 0.640212 0.566205
vt 0.640696 0.432782
vn 0.936899 -0.052840 0.345583
vn 0.938211 -0.000473 0.346064
vn 0.885361 -0.000460 0.464904
vn 0.883758 -0.060086 0.464070
vn 0.936947 0.051895 0.345596
vn 0.883813 0.059168 0.464085
vn 0.817474 -0.000439 0.575966
vn 0.815668 -0.066314 0.574707
vn 0.815728 0.065439 0.574722
vn 0.001405 -0.998831 -0.048314
vn 0.000377 -0.998856 -0.047814
vn -0.000911 -1.000000 0.000096
vn -0.001155 -0.999999 0.000475
vn -0.002196 -0.998845 0.048006
vn -0.003712 -0.998779 0.049263
vn -0.075981 -0.049458 0.995882
vn -0.041814 -0.047214 0.998009
vn -0.041830 -0.000087 0.999125
vn -0.076037 -0.000071 0.997105
vn -0.041752 0.047041 0.998020
vn -0.075907 0.049316 0.995895
vn -0.002279 0.998783 0.049264
vn -0.000940 0.998840 0.048137
vn 0.000314 1.000000 0.000251
vn 0.000227 1.000000 0.000536
vn 0.001568 0.998864 -0.047635
vn 0.002734 0.998834 -0.048194
vn 0.037437 0.043828 -0.998337
vn 0.016526 0.045449 -0.998830
vn 0.016516 0.000098 -0.999864
vn 0.037444 0.000088 -0.999299
vn 0.016473 -0.045252 -0.998840
vn 0.037380 -0.043651 -0.998347
vn -0.914540 0.052767 0.401040
vn -0.915821 0.000378 0.401587
vn -0.855948 0.000338 0.517061
vn -0.854397 0.059978 0.516147
vn -0.914587 -0.052013 0.401031
vn -0.854452 -0.059303 0.516135
vn -0.781528 0.000293 0.623870
vn -0.779800 0.066173 0.622522
vn -0.779861 -0.065589 0.622506
vn -0.000666 -1.000000 -0.000283
vn -0.000680 -0.998906 0.046749
vn -0.007599 -0.044915 0.998962
vn -0.007581 -0.000102 0.999971
vn -0.007549 0.044710 0.998972
vn 0.000399 0.998894 0.047009
vn 0.000401 1.000000 -0.000033
vn 0.000402 0.998891 -0.047075
vn -0.004392 0.047049 -0.998883
vn -0.004422 0.000108 -0.999990
vn -0.004441 -0.046833 -0.998893
vn -0.000651 -0.998880 -0.047314
s 1
g FoodShortRLowerLeg
usemtl FryHat:initialShadingGroup
f 7/4/1 8/5/2 9/6/3 6/7/4
f 8/5/2 1/8/5 2/9/6 9/6/3
f 6/7/4 9/6/3 4/2/7 5/3/8
f 9/6/3 2/9/6 3/1/9 4/2/7
s 2
f 10/10/10 26/11/11 19/12/12 11/13/13
f 11/13/13 19/12/12 20/14/14 12/15/15
s 3
f 12/15/16 20/14/17 21/16/18 13/17/19
f 13/17/19 21/16/18 22/18/20 14/19/21
s 4
f 14/19/22 22/18/23 23/20/24 15/21/25
f 15/21/25 23/20/24 24/22/26 16/23/27
s 5
f 16/24/28 24/25/29 25/26/30 17/27/31
f 17/27/31 25/26/30 26/11/32 10/10/33
s 6
f 16/28/34 17/29/35 18/30/36 15/31/37
f 17/29/35 10/32/38 11/33/39 18/30/36
f 15/31/37 18/30/36 13/17/40 14/19/41
f 18/30/36 11/33/39 12/15/42 13/17/40
s 2
f 19/12/12 6/36/43 5/37/44 20/14/14
s 3
f 21/16/18 20/14/17 5/37/45 4/38/46
f 22/18/20 21/16/18 4/38/46 3/39/47
s 4
f 23/20/24 22/18/23 3/39/48 2/40/49
f 24/22/26 23/20/24 2/40/49 1/41/50
s 5
f 25/26/30 24/25/29 1/42/51 8/35/52
f 26/11/32 25/26/30 8/35/52 7/34/53
s 2
f 19/12/12 26/11/11 7/34/54 6/36/43
