# This file uses centimeters as units for non-parametric coordinates.

mtllib FryTallRLowerLeg.mtl
g default
v 1.665626 0.287869 -0.302063
v 1.559657 0.301529 -0.010342
v 1.352878 0.287986 0.285814
v 1.372585 0.001602 0.298176
v 1.352680 -0.284771 0.285821
v 1.559447 -0.298469 -0.010334
v 1.665424 -0.284889 -0.302056
v 1.684173 0.001485 -0.316109
v 1.578776 0.001522 -0.011183
v -1.367426 -0.283969 -0.275689
v -1.236254 -0.297632 0.005600
v -1.004264 -0.284089 0.282453
v -1.022807 0.002296 0.296498
v -1.004066 0.288667 0.282445
v -1.236048 0.302366 0.005592
v -1.367228 0.288787 -0.275697
v -1.387146 0.002415 -0.288050
v -1.255377 0.002375 0.006442
v 0.521512 -0.298191 0.038870
v -0.292960 -0.297947 0.043243
v -0.280176 -0.284327 0.325936
v 0.534098 -0.284564 0.327485
v -0.279162 0.002052 0.339532
v 0.534654 0.001815 0.340472
v -0.279978 0.288429 0.325928
v 0.534296 0.288192 0.327477
v -0.292755 0.302053 0.043235
v 0.521717 0.301809 0.038862
v -0.305098 0.288432 -0.241683
v 0.508993 0.288186 -0.248535
v -0.305577 0.002055 -0.254649
v 0.508235 0.001807 -0.261866
v -0.305296 -0.284324 -0.241675
v 0.508788 -0.284572 -0.248527
vt 0.546063 0.499834
vt 0.545383 0.516431
vt 0.545799 0.533036
vt 0.503849 0.533457
vt 0.502952 0.516067
vt 0.521779 0.516248
vt 0.522498 0.534002
vt 0.504794 0.499294
vt 0.522817 0.498516
vt 0.546063 0.499834
vt 0.545383 0.516431
vt 0.545799 0.533036
vt 0.503849 0.533457
vt 0.502952 0.516067
vt 0.521779 0.516248
vt 0.522498 0.534002
vt 0.504794 0.499294
vt 0.522817 0.498516
vt 0.645068 0.483559
vt 0.711592 0.483985
vt 0.645640 0.500336
vt 0.699017 0.500971
vt 0.645653 0.516924
vt 0.700049 0.517118
vt 0.531980 0.549413
vt 0.645555 0.533515
vt 0.698984 0.533238
vt 0.590890 0.566473
vt 0.524029 0.565899
vt 0.644934 0.550426
vt 0.711491 0.550319
vt 0.524691 0.432899
vt 0.523541 0.449776
vt 0.644610 0.567302
vt 0.717918 0.567353
vt 0.524756 0.466688
vt 0.644414 0.450189
vt 0.644937 0.433442
vt 0.718416 0.432749
vt 0.719502 0.449673
vt 0.532504 0.483301
vt 0.644419 0.466830
vt 0.718269 0.466916
vt 0.591789 0.466267
vt 0.593124 0.483814
vt 0.593379 0.500950
vt 0.593725 0.516932
vt 0.593750 0.534108
vt 0.592057 0.549919
vt 0.591872 0.432742
vt 0.591590 0.449565
vn 0.941662 -0.052702 0.332408
vn 0.942974 -0.000327 0.332867
vn 0.891791 -0.000306 0.452447
vn 0.890185 -0.059939 0.451640
vn 0.941697 0.052050 0.332412
vn 0.890224 0.059329 0.451643
vn 0.825462 -0.000280 0.564458
vn 0.823647 -0.066162 0.563231
vn 0.823690 0.065604 0.563233
vn 0.001397 -0.998823 -0.048488
vn 0.000384 -0.998847 -0.048003
vn -0.000548 -1.000000 0.000333
vn -0.000674 -1.000000 0.000600
vn -0.001478 -0.998814 0.048668
vn -0.002744 -0.998761 0.049688
vn -0.058787 -0.049915 0.997022
vn -0.030176 -0.048156 0.998384
vn -0.030197 0.000024 0.999544
vn -0.058845 0.000034 0.998267
vn -0.030147 0.048204 0.998383
vn -0.058755 0.049983 0.997020
vn -0.002087 0.998763 0.049685
vn -0.000855 0.998816 0.048649
vn 0.000083 1.000000 0.000310
vn -0.000011 1.000000 0.000589
vn 0.001021 0.998845 -0.048030
vn 0.002065 0.998821 -0.048509
vn 0.031418 0.043025 -0.998580
vn 0.011402 0.044463 -0.998946
vn 0.011399 -0.000018 -0.999935
vn 0.031433 -0.000025 -0.999506
vn 0.011373 -0.044499 -0.998945
vn 0.031389 -0.043075 -0.998579
vn -0.908834 0.052713 0.413815
vn -0.910100 0.000319 0.414388
vn -0.848612 0.000300 0.529015
vn -0.847081 0.059942 0.528073
vn -0.908867 -0.052076 0.413823
vn -0.847122 -0.059344 0.528074
vn -0.772699 0.000275 0.634773
vn -0.770995 0.066156 0.633396
vn -0.771045 -0.065607 0.633392
vn 0.000922 -0.998871 0.047504
vn -0.000318 -1.000000 0.000043
vn -0.000215 -1.000000 0.000022
vn 0.002055 -0.998876 0.047359
vn 0.024554 0.000005 0.999699
vn 0.024515 -0.046169 0.998633
vn 0.050554 -0.045949 0.997664
vn 0.050619 -0.000004 0.998718
vn 0.024540 0.046179 0.998632
vn 0.050577 0.045940 0.997663
vn 0.000245 1.000000 -0.000016
vn 0.001475 0.998874 0.047430
vn 0.002572 0.998880 0.047248
vn 0.000313 1.000000 -0.000062
vn -0.000986 0.998873 -0.047462
vn -0.001947 0.998875 -0.047372
vn -0.027402 -0.000005 -0.999625
vn -0.027360 0.046081 -0.998563
vn -0.046091 0.046263 -0.997865
vn -0.046153 0.000002 -0.998934
vn -0.027387 -0.046090 -0.998562
vn -0.046117 -0.046260 -0.997864
vn -0.001557 -0.998874 -0.047417
vn -0.002485 -0.998877 -0.047315
s 1
g FoodTallRLowerLeg
usemtl FryHat:initialShadingGroup
f 7/4/1 8/5/2 9/6/3 6/7/4
f 8/5/2 1/8/5 2/9/6 9/6/3
f 6/7/4 9/6/3 4/2/7 5/3/8
f 9/6/3 2/9/6 3/1/9 4/2/7
s 2
f 10/36/10 33/44/11 20/45/12 11/41/13
f 11/41/13 20/45/12 21/46/14 12/10/15
s 3
f 12/10/16 21/46/17 23/47/18 13/11/19
f 13/11/19 23/47/18 25/48/20 14/12/21
s 4
f 14/12/22 25/48/23 27/49/24 15/25/25
f 15/25/25 27/49/24 29/28/26 16/29/27
s 5
f 16/32/28 29/50/29 31/51/30 17/33/31
f 17/33/31 31/51/30 33/44/32 10/36/33
s 6
f 16/13/34 17/14/35 18/15/36 15/16/37
f 17/14/35 10/17/38 11/18/39 18/15/36
f 15/16/37 18/15/36 13/11/40 14/12/41
f 18/15/36 11/18/39 12/10/42 13/11/40
s 2
f 22/21/43 19/19/44 6/20/45 5/22/46
s 3
f 24/23/47 22/21/48 5/22/49 4/24/50
f 26/26/51 24/23/47 4/24/50 3/27/52
s 4
f 28/30/53 26/26/54 3/27/55 2/31/56
f 30/34/57 28/30/53 2/31/56 1/35/58
s 5
f 32/37/59 30/38/60 1/39/61 8/40/62
f 34/42/63 32/37/59 8/40/62 7/43/64
s 2
f 19/19/44 34/42/65 7/43/66 6/20/45
f 19/19/44 20/45/12 33/44/11 34/42/65
f 20/45/12 19/19/44 22/21/43 21/46/14
s 3
f 21/46/17 22/21/48 24/23/47 23/47/18
f 23/47/18 24/23/47 26/26/51 25/48/20
s 4
f 25/48/23 26/26/54 28/30/53 27/49/24
f 27/49/24 28/30/53 30/34/57 29/28/26
s 5
f 29/50/29 30/38/60 32/37/59 31/51/30
f 31/51/30 32/37/59 34/42/63 33/44/32
