# This file uses centimeters as units for non-parametric coordinates.

mtllib SweetFryTallLUpperArm.mtl
g default
v 1.687223 -0.277111 -0.255282
v 1.578464 -0.006128 -0.266747
v 1.384006 0.234817 -0.254678
v 1.400718 0.246580 -0.009210
v 1.385025 0.234842 0.236326
v 1.579533 -0.006101 0.247613
v 1.688243 -0.277087 0.235723
v 1.704515 -0.288002 -0.009814
v 1.595490 -0.005691 -0.009601
v -0.869128 -0.273984 -0.306394
v -1.152692 -0.245420 -0.249383
v -0.587140 -0.230917 -0.250558
v -0.876911 0.028319 -0.320756
v -0.593466 0.014852 -0.262236
v -1.159020 0.000349 -0.261060
v -0.884632 0.330623 -0.306393
v -0.599745 0.260622 -0.250557
v -1.165296 0.246119 -0.249382
v -0.884350 0.344571 -0.004418
v -0.599527 0.271961 -0.005055
v -1.165078 0.257457 -0.003880
v -0.883352 0.330656 0.297557
v -0.598725 0.260647 0.240446
v -1.164278 0.246144 0.241623
v -0.875570 0.028352 0.311921
v -0.592397 0.014879 0.252124
v -1.157950 0.000375 0.253299
v -0.867848 -0.273953 0.297556
v -0.586120 -0.230892 0.240445
v -1.151674 -0.245394 0.241622
v -0.868131 -0.287900 -0.004419
v -0.586340 -0.242231 -0.005056
v -1.151892 -0.256733 -0.003881
v 0.474616 0.019095 -0.264455
v 0.468339 0.264866 -0.252777
v 0.468558 0.276204 -0.007274
v 0.469360 0.264890 0.238227
v 0.475685 0.019122 0.249904
v 0.481963 -0.226648 0.238226
v 0.481744 -0.237988 -0.007275
v 0.480943 -0.226673 -0.252778
v 1.390060 -0.002336 -0.266354
v 1.396311 -0.244986 -0.254674
v 1.397127 -0.254850 -0.009176
v 1.397384 -0.242873 0.236321
v 1.391227 -0.001798 0.248005
v -0.334563 0.328357 -0.307507
v -0.334281 0.342305 -0.005533
v -0.333284 0.328390 0.296442
v -0.325502 0.026087 0.310806
v -0.317780 -0.276219 0.296441
v -0.318062 -0.290166 -0.005534
v -0.319058 -0.276250 -0.307508
v -0.326841 0.026053 -0.321872
v -0.065702 0.262744 -0.251667
v -0.065483 0.274083 -0.006165
v -0.064683 0.262769 0.239337
v -0.058356 0.017000 0.251014
v -0.052079 -0.228771 0.239336
v -0.052299 -0.240109 -0.006166
v -0.053099 -0.228795 -0.251668
v -0.059425 0.016973 -0.263345
v 0.199548 0.327819 -0.308591
v 0.199830 0.341766 -0.006615
v 0.200827 0.327850 0.295360
v 0.208608 0.025548 0.309723
v 0.216329 -0.276758 0.295359
v 0.216047 -0.290705 -0.006616
v 0.215051 -0.276789 -0.308592
v 0.207269 0.025514 -0.322955
v 0.695598 0.316961 -0.309596
v 0.700003 0.331014 -0.007630
v 0.696878 0.316992 0.294354
v 0.704613 0.017497 0.308718
v 0.712298 -0.283365 0.294351
v 0.712007 -0.297508 -0.007620
v 0.711010 -0.284038 -0.309595
v 0.703251 0.017306 -0.323959
v 0.926174 0.249841 -0.253728
v 0.934639 0.261392 -0.008243
v 0.927192 0.249867 0.237277
v 0.933456 0.008662 0.248954
v 0.939673 -0.234761 0.237274
v 0.939434 -0.246418 -0.008225
v 0.938626 -0.235830 -0.253726
v 0.932339 0.008380 -0.265403
v 1.153589 0.295785 -0.310524
v 1.166240 0.310049 -0.008574
v 1.154869 0.295816 0.293427
v 1.162517 0.001935 0.307790
v 1.170127 -0.296040 0.293421
v 1.169820 -0.310576 -0.008548
v 1.168815 -0.297997 -0.310520
v 1.161105 0.001428 -0.324887
v -1.653650 -0.273602 -0.248340
v -1.662685 -0.282730 -0.002838
v -1.652629 -0.273576 0.242664
v -1.659979 -0.027833 -0.260018
v -1.671499 -0.026415 -0.002838
v -1.658910 -0.027807 0.254342
v -1.417605 0.298271 -0.305311
v -1.417323 0.312217 -0.003334
v -1.416326 0.298302 0.298640
v -1.408542 -0.004001 0.313003
v -1.400822 -0.306306 0.298639
v -1.401104 -0.320254 -0.003335
v -1.402100 -0.306338 -0.305312
v -1.409883 -0.004034 -0.319675
vt 0.555114 0.625010
vt 0.554172 0.609361
vt 0.568386 0.608802
vt 0.569375 0.624743
vt 0.713393 0.625456
vt 0.713602 0.609244
vt 0.729400 0.609287
vt 0.729024 0.625862
vt 0.555609 0.640446
vt 0.570055 0.640435
vt 0.713185 0.641814
vt 0.728641 0.642044
vt 0.569393 0.656511
vt 0.554951 0.656051
vt 0.713196 0.658210
vt 0.728645 0.658251
vt 0.569269 0.672707
vt 0.554909 0.671616
vt 0.713136 0.674575
vt 0.728647 0.674524
vt 0.567539 0.688681
vt 0.553229 0.686617
vt 0.713325 0.690625
vt 0.729072 0.690996
vt 0.551167 0.701359
vt 0.565357 0.706346
vt 0.713568 0.705899
vt 0.729537 0.709091
vt 0.553803 0.593778
vt 0.553072 0.578645
vt 0.567426 0.574363
vt 0.568048 0.592398
vt 0.713581 0.593330
vt 0.713590 0.578133
vt 0.729317 0.574397
vt 0.729366 0.592546
vt 0.518065 0.670238
vt 0.517352 0.655169
vt 0.535716 0.655598
vt 0.535889 0.671391
vt 0.518766 0.640150
vt 0.536620 0.639828
vt 0.695936 0.609392
vt 0.696009 0.592418
vt 0.678278 0.609016
vt 0.678418 0.593113
vt 0.695843 0.626177
vt 0.678317 0.625243
vt 0.695760 0.642197
vt 0.678336 0.641654
vt 0.695684 0.658247
vt 0.678197 0.658109
vt 0.695636 0.674370
vt 0.678126 0.674532
vt 0.695613 0.690692
vt 0.677904 0.690619
vt 0.695617 0.708710
vt 0.677669 0.705908
vt 0.678563 0.577909
vt 0.696109 0.574237
vt 0.612132 0.624900
vt 0.628679 0.625177
vt 0.629020 0.641462
vt 0.612549 0.641171
vt 0.612305 0.657437
vt 0.628873 0.657741
vt 0.611957 0.673687
vt 0.628525 0.674084
vt 0.610951 0.689636
vt 0.627692 0.690673
vt 0.609940 0.704889
vt 0.626784 0.708733
vt 0.611574 0.592645
vt 0.611524 0.577403
vt 0.628282 0.573664
vt 0.628230 0.591787
vt 0.611639 0.608624
vt 0.628252 0.608589
vt 0.543821 0.624996
vt 0.536291 0.609216
vt 0.534875 0.594394
vt 0.535338 0.579479
vt 0.541813 0.685725
vt 0.533309 0.701333
vt 0.661798 0.658066
vt 0.661939 0.641783
vt 0.661640 0.674411
vt 0.661165 0.690969
vt 0.660682 0.709056
vt 0.661661 0.592066
vt 0.661839 0.573932
vt 0.661557 0.608883
vt 0.661753 0.625521
vt 0.645227 0.657864
vt 0.645400 0.641392
vt 0.645007 0.674309
vt 0.644433 0.690416
vt 0.643876 0.705707
vt 0.645023 0.592763
vt 0.645132 0.577537
vt 0.644952 0.608693
vt 0.645195 0.624958
vt 0.598532 0.641002
vt 0.598080 0.657220
vt 0.597843 0.673497
vt 0.596455 0.689825
vt 0.594961 0.707782
vt 0.596965 0.591961
vt 0.596809 0.573832
vt 0.597129 0.608583
vt 0.597889 0.624926
vt 0.584197 0.640688
vt 0.583457 0.656861
vt 0.583429 0.673063
vt 0.582012 0.688691
vt 0.580524 0.703768
vt 0.582667 0.592791
vt 0.582394 0.577557
vt 0.582880 0.608709
vt 0.583601 0.624781
vt 0.759833 0.658175
vt 0.759827 0.641933
vt 0.759912 0.674492
vt 0.744360 0.658182
vt 0.744494 0.626595
vt 0.744369 0.674556
vt 0.744588 0.689601
vt 0.745286 0.705901
vt 0.744951 0.593275
vt 0.744882 0.578074
vt 0.745029 0.609205
vt 0.744314 0.641781
vn 0.150704 -0.004483 -0.988569
vn 0.127095 -0.043430 -0.990939
vn 0.004555 -0.047807 -0.998846
vn -0.002691 -0.000287 -0.999996
vn -0.001828 -0.001297 -0.999998
vn 0.006202 -0.047298 -0.998862
vn -0.004214 -0.047567 -0.998859
vn 0.029611 -0.004231 -0.999553
vn 0.221072 0.053376 -0.973796
vn -0.011916 0.048418 -0.998756
vn -0.007296 0.047273 -0.998855
vn 0.128412 0.050340 -0.990442
vn 0.556503 0.828128 -0.067151
vn 0.026013 0.998396 -0.050290
vn 0.038131 0.999273 -0.000112
vn 0.581859 0.813288 -0.001264
vn -0.060723 0.998155 0.000073
vn -0.058595 0.997222 -0.045999
vn -0.514382 0.856464 -0.043358
vn -0.487430 0.873161 0.000982
vn 0.026228 0.998401 0.050077
vn 0.556735 0.828163 0.064750
vn -0.058417 0.997225 0.046145
vn -0.514213 0.856459 0.045428
vn 0.226286 0.053679 0.972581
vn -0.007953 0.048615 0.998786
vn 0.001401 -0.000166 0.999999
vn 0.155611 -0.004335 0.987809
vn 0.002225 -0.001196 0.999997
vn -0.003244 0.047375 0.998872
vn 0.132627 0.050445 0.989882
vn 0.033790 -0.004128 0.999421
vn 0.131469 -0.043559 0.990363
vn 0.008204 -0.047960 0.998816
vn 0.010264 -0.047197 0.998833
vn -0.000071 -0.047463 0.998873
vn 0.052454 -0.998620 0.002740
vn 0.064040 -0.996915 0.045385
vn -0.018702 -0.998668 0.048083
vn -0.018356 -0.999826 0.003269
vn 0.060822 -0.998149 -0.000078
vn 0.061489 -0.997048 0.045995
vn 0.054150 -0.997505 0.045293
vn 0.053589 -0.998563 -0.000056
vn 0.064974 -0.997090 -0.039885
vn -0.020202 -0.998932 -0.041555
vn 0.061308 -0.997052 -0.046146
vn 0.053961 -0.997510 -0.045415
vn 0.929669 0.364710 0.051977
vn 0.930912 0.365239 -0.001952
vn 0.866325 0.499478 -0.001824
vn 0.861895 0.503638 0.059047
vn 0.929445 0.364706 -0.055875
vn 0.861643 0.503631 -0.062676
vn 0.025508 -0.998611 -0.046102
vn 0.025635 -0.999671 0.000003
vn -0.004499 -0.998931 -0.046017
vn -0.004284 -0.999991 0.000055
vn -0.006234 -0.047620 -0.998846
vn -0.000857 -0.047480 -0.998872
vn -0.002133 0.002124 -0.999995
vn -0.002107 -0.001391 -0.999997
vn -0.003288 0.047377 -0.998872
vn 0.000732 0.047482 -0.998872
vn 0.002919 0.998931 -0.046141
vn -0.025711 0.998606 -0.046095
vn -0.025636 0.999671 0.000007
vn 0.004273 0.999991 -0.000071
vn -0.025507 0.998611 0.046098
vn 0.003092 0.998936 0.046018
vn 0.004790 0.047583 0.998856
vn 0.000859 0.047482 0.998872
vn 0.002023 0.002227 0.999995
vn 0.001946 -0.001290 0.999997
vn 0.003292 -0.047378 0.998872
vn -0.002191 -0.047519 0.998868
vn -0.004321 -0.998926 0.046140
vn 0.025706 -0.998606 0.046098
vn -0.001688 -0.000379 -0.999999
vn -0.002064 0.000781 -0.999998
vn -0.005565 0.047321 -0.998864
vn 0.003325 0.047650 -0.998859
vn 0.021863 0.999761 -0.000109
vn 0.018995 0.998788 -0.045400
vn -0.003729 0.998928 -0.046131
vn -0.004118 0.999992 -0.000031
vn 0.019160 0.998793 0.045219
vn -0.003525 0.998933 0.046044
vn 0.002450 -0.000288 0.999997
vn 0.007423 0.047754 0.998832
vn -0.001427 0.047422 0.998874
vn 0.002093 0.000884 0.999997
vn -0.005171 -0.047655 0.998851
vn 0.005483 -0.047321 0.998865
vn -0.014177 -0.999900 0.000343
vn -0.014911 -0.998815 0.046319
vn 0.003828 -0.998928 0.046136
vn 0.004090 -0.999992 0.000056
vn -0.015651 -0.998837 -0.045600
vn 0.003628 -0.998933 -0.046046
vn -0.009511 -0.047743 -0.998814
vn 0.001324 -0.047427 -0.998874
vn -0.004930 -0.032887 -0.999447
vn -0.005552 -0.046253 -0.998914
vn -0.110176 -0.993909 0.002337
vn -0.108462 -0.993374 -0.037990
vn -0.111709 -0.992826 0.042642
vn -0.000980 -0.032977 0.999456
vn -0.001661 -0.046360 0.998923
vn -0.004124 0.999992 -0.000036
vn -0.003711 0.998928 -0.046135
vn -0.003508 0.998933 0.046044
vn 0.002097 0.001180 0.999997
vn -0.001443 0.047423 0.998874
vn 0.005463 -0.047323 0.998865
vn 0.004084 -0.999992 0.000051
vn 0.003844 -0.998928 0.046131
vn 0.003645 -0.998933 -0.046044
vn -0.002058 0.001076 -0.999997
vn 0.001308 -0.047428 -0.998874
vn -0.005581 0.047321 -0.998864
vn 0.001189 0.999999 -0.000062
vn 0.000583 0.998935 -0.046137
vn 0.000759 0.998940 0.046034
vn 0.002000 -0.000917 0.999998
vn 0.005137 0.047591 0.998854
vn -0.001228 -0.047493 0.998871
vn -0.001148 -0.999999 0.000044
vn -0.000696 -0.998935 0.046137
vn -0.000875 -0.998940 -0.046030
vn -0.002055 -0.001018 -0.999997
vn -0.005272 -0.047595 -0.998853
vn 0.001072 0.047491 -0.998871
vn 0.030688 0.998326 -0.049015
vn 0.034189 0.999415 -0.000106
vn 0.030903 0.998331 0.048785
vn 0.001475 0.000505 0.999999
vn -0.008029 0.047701 0.998829
vn 0.008148 -0.047490 0.998839
vn -0.018374 -0.999831 0.001159
vn -0.018627 -0.998731 0.046792
vn -0.020120 -0.998807 -0.044498
vn -0.002593 0.000393 -0.999997
vn 0.004493 -0.047497 -0.998861
vn -0.012038 0.047558 -0.998796
vn 0.048983 0.997719 -0.046447
vn 0.040732 0.999170 -0.000155
vn 0.049158 0.997725 0.046135
vn 0.003261 -0.000065 0.999995
vn 0.014839 0.048712 0.998703
vn -0.005873 -0.048082 0.998826
vn -0.029126 -0.999573 0.002245
vn -0.027332 -0.998500 0.047450
vn -0.028730 -0.998663 -0.042978
vn -0.000954 -0.000154 -1.000000
vn -0.010569 -0.048037 -0.998790
vn 0.010642 0.048559 -0.998764
vn -0.918968 0.394328 0.001899
vn -0.910969 0.410792 -0.037220
vn -0.998663 -0.031082 -0.041313
vn -0.999514 -0.031108 0.002080
vn -0.910802 0.410804 0.040983
vn -0.998483 -0.031077 0.045460
vn -0.225134 -0.031884 0.973806
vn -0.223133 -0.051952 0.973403
vn -0.140152 -0.989135 0.044383
vn -0.140377 -0.990098 0.000342
vn -0.140329 -0.989140 -0.043696
vn -0.227025 -0.052051 -0.972497
vn -0.229029 -0.031982 -0.972894
s 1
g FoodTallLUpperArm
usemtl Delete:blinn4SG
f 42/1/1 43/2/2 93/3/3 94/4/4
f 15/5/5 11/6/6 107/7/7 108/8/8
f 3/9/9 42/1/1 94/4/4 87/10/10
f 18/11/11 15/5/5 108/8/8 101/12/12
s 3
f 3/9/13 87/10/14 88/13/15 4/14/16
f 21/15/17 18/11/18 101/12/19 102/16/20
f 4/14/16 88/13/15 89/17/21 5/18/22
f 24/19/23 21/15/17 102/16/20 103/20/24
s 5
f 5/18/25 89/17/26 90/21/27 46/22/28
f 27/23/29 24/19/30 103/20/31 104/24/32
f 45/25/33 46/22/28 90/21/27 91/26/34
f 30/27/35 27/23/29 104/24/32 105/28/36
s 7
f 44/29/37 45/30/38 91/31/39 92/32/40
f 33/33/41 30/34/42 105/35/43 106/36/44
f 43/2/45 44/29/37 92/32/40 93/3/46
f 11/6/47 33/33/41 106/36/44 107/7/48
s 3
f 7/37/49 8/38/50 9/39/51 6/40/52
f 8/38/50 1/41/53 2/42/54 9/39/51
f 6/40/52 9/39/51 4/14/16 5/18/22
f 9/39/51 2/42/54 3/9/13 4/14/16
s 7
f 11/6/47 10/43/55 31/44/56 33/33/41
f 10/43/55 12/45/57 32/46/58 31/44/56
s 1
f 12/45/59 10/43/60 13/47/61 14/48/62
f 10/43/60 11/6/6 15/5/5 13/47/61
f 14/48/62 13/47/61 16/49/63 17/50/64
f 13/47/61 15/5/5 18/11/11 16/49/63
s 3
f 17/50/65 16/49/66 19/51/67 20/52/68
f 16/49/66 18/11/18 21/15/17 19/51/67
f 20/52/68 19/51/67 22/53/69 23/54/70
f 19/51/67 21/15/17 24/19/23 22/53/69
s 5
f 23/54/71 22/53/72 25/55/73 26/56/74
f 22/53/72 24/19/30 27/23/29 25/55/73
f 26/56/74 25/55/73 28/57/75 29/58/76
f 25/55/73 27/23/29 30/27/35 28/57/75
s 7
f 29/59/77 28/60/78 31/44/56 32/46/58
f 28/60/78 30/34/42 33/33/41 31/44/56
s 1
f 34/61/79 70/62/80 63/63/81 35/64/82
s 3
f 36/65/83 35/64/84 63/63/85 64/66/86
f 37/67/87 36/65/83 64/66/86 65/68/88
s 5
f 38/69/89 37/67/90 65/68/91 66/70/92
f 39/71/93 38/69/89 66/70/92 67/72/94
s 7
f 40/73/95 39/74/96 67/75/97 68/76/98
f 41/77/99 40/73/95 68/76/98 69/78/100
s 1
f 34/61/79 41/77/101 69/78/102 70/62/80
f 2/79/103 42/1/1 3/9/9
f 1/80/104 43/2/2 42/1/1 2/79/103
s 7
f 8/81/105 44/29/37 43/2/45 1/80/106
f 7/82/107 45/30/38 44/29/37 8/81/105
s 5
f 6/83/108 46/22/28 45/25/33 7/84/109
f 5/18/25 46/22/28 6/83/108
s 3
f 48/85/110 47/86/111 17/50/65 20/52/68
f 49/87/112 48/85/110 20/52/68 23/54/70
s 5
f 50/88/113 49/87/114 23/54/71 26/56/74
f 51/89/115 50/88/113 26/56/74 29/58/76
s 7
f 52/90/116 51/91/117 29/59/77 32/46/58
f 53/92/118 52/90/116 32/46/58 12/45/57
s 1
f 54/93/119 53/92/120 12/45/59 14/48/62
f 47/86/121 54/93/119 14/48/62 17/50/64
s 3
f 56/94/122 55/95/123 47/86/111 48/85/110
f 57/96/124 56/94/122 48/85/110 49/87/112
s 5
f 58/97/125 57/96/126 49/87/114 50/88/113
f 59/98/127 58/97/125 50/88/113 51/89/115
s 7
f 60/99/128 59/100/129 51/91/117 52/90/116
f 61/101/130 60/99/128 52/90/116 53/92/118
s 1
f 62/102/131 61/101/132 53/92/120 54/93/119
f 55/95/133 62/102/131 54/93/119 47/86/121
s 3
f 64/66/86 63/63/85 55/95/123 56/94/122
f 65/68/88 64/66/86 56/94/122 57/96/124
s 5
f 66/70/92 65/68/91 57/96/126 58/97/125
f 67/72/94 66/70/92 58/97/125 59/98/127
s 7
f 68/76/98 67/75/97 59/100/129 60/99/128
f 69/78/100 68/76/98 60/99/128 61/101/130
s 1
f 70/62/80 69/78/102 61/101/132 62/102/131
f 63/63/81 70/62/80 62/102/131 55/95/133
s 3
f 71/103/134 35/64/84 36/65/83 72/104/135
f 73/105/136 72/104/135 36/65/83 37/67/87
s 5
f 74/106/137 73/105/138 37/67/90 38/69/89
f 75/107/139 74/106/137 38/69/89 39/71/93
s 7
f 76/108/140 75/109/141 39/74/96 40/73/95
f 77/110/142 76/108/140 40/73/95 41/77/99
s 1
f 78/111/143 77/110/144 41/77/101 34/61/79
f 71/103/145 78/111/143 34/61/79 35/64/82
s 3
f 79/112/146 71/103/134 72/104/135 80/113/147
f 81/114/148 80/113/147 72/104/135 73/105/136
s 5
f 82/115/149 81/114/150 73/105/138 74/106/137
f 83/116/151 82/115/149 74/106/137 75/107/139
s 7
f 84/117/152 83/118/153 75/109/141 76/108/140
f 85/119/154 84/117/152 76/108/140 77/110/142
s 1
f 86/120/155 85/119/156 77/110/144 78/111/143
f 79/112/157 86/120/155 78/111/143 71/103/145
s 3
f 87/10/14 79/112/146 80/113/147 88/13/15
f 89/17/21 88/13/15 80/113/147 81/114/148
s 5
f 90/21/27 89/17/26 81/114/150 82/115/149
f 91/26/34 90/21/27 82/115/149 83/116/151
s 7
f 92/32/40 91/31/39 83/118/153 84/117/152
f 93/3/46 92/32/40 84/117/152 85/119/154
s 1
f 94/4/4 93/3/3 85/119/156 86/120/155
f 87/10/10 94/4/4 86/120/155 79/112/157
s 3
f 99/124/158 98/132/159 95/122/160 96/121/161
f 100/126/162 99/124/158 96/121/161 97/123/163
f 102/16/20 101/12/19 98/132/159 99/124/158
f 103/20/24 102/16/20 99/124/158 100/126/162
s 5
f 104/24/32 103/20/31 100/127/164
f 105/28/36 104/24/32 100/127/164 97/128/165
s 7
f 106/36/44 105/35/43 97/130/166 96/129/167
f 107/7/48 106/36/44 96/129/167 95/131/168
s 1
f 108/8/8 107/7/7 95/131/169 98/125/170
f 101/12/12 108/8/8 98/125/170
