# This file uses centimeters as units for non-parametric coordinates.

mtllib SweetFryTallLLowerLeg.mtl
g default
v -1.398894 -0.336584 -0.314285
v -1.274517 -0.352179 0.002805
v -1.049897 -0.335787 0.285640
v -1.069482 -0.002270 0.299207
v -1.051053 0.331339 0.285662
v -1.275730 0.346689 0.002828
v -1.400054 0.330542 -0.314263
v -1.418950 -0.003067 -0.327146
v -1.294365 -0.002782 0.003158
v 1.681521 -0.406238 -0.287203
v 1.253636 -0.330346 -0.239552
v 1.589262 -0.425745 0.065493
v 1.258762 -0.346210 0.047186
v 1.263835 -0.330347 0.333925
v 1.598163 0.004061 0.071627
v 1.263491 0.003223 0.347150
v 1.698129 0.004062 -0.303443
v 1.587740 0.433885 0.065522
v 1.262675 0.336793 0.333946
v 1.680070 0.414363 -0.287175
v 1.257549 0.352658 0.047209
v 1.252478 0.336794 -0.239530
v 1.252824 0.003224 -0.252755
v 0.012848 -0.349154 0.042345
v 0.017916 -0.333275 0.329083
v 0.017573 0.000295 0.342309
v 0.016759 0.333850 0.329105
v 0.011635 0.349730 0.042368
v 0.006564 0.333851 -0.244371
v 0.006905 0.000296 -0.257596
v 0.007722 -0.333274 -0.244393
v -1.054787 -0.351662 0.008954
v -1.059852 -0.335780 -0.274143
v -1.060699 -0.002230 -0.285657
v -1.061092 0.331335 -0.271688
v -1.056118 0.347219 0.009574
v 0.953883 -0.407700 0.410504
v 0.953448 0.002583 0.426772
v 0.952433 0.412900 0.410532
v 0.946127 0.432408 0.057835
v 0.939889 0.412901 -0.294862
v 0.940328 0.002585 -0.311130
v 0.941342 -0.407699 -0.294889
v 0.947647 -0.427222 0.057806
v 0.640874 -0.331819 0.331504
v 0.640532 0.001751 0.344730
v 0.639720 0.335322 0.331526
v 0.634590 0.351186 0.044788
v 0.629521 0.335323 -0.241951
v 0.629866 0.001752 -0.255176
v 0.630679 -0.331818 -0.241973
v 0.635803 -0.347682 0.044766
v 0.330870 -0.409142 0.404980
v 0.330433 0.001159 0.421247
v 0.329417 0.411459 0.405007
v 0.323114 0.430981 0.052311
v 0.316876 0.411460 -0.300386
v 0.317315 0.001160 -0.316654
v 0.318328 -0.409140 -0.300414
v 0.324634 -0.428650 0.052282
v -0.247653 -0.410467 0.387767
v -0.252901 -0.000175 0.404120
v -0.249107 0.410135 0.387795
v -0.255383 0.429658 0.038374
v -0.261590 0.410134 -0.312640
v -0.261142 -0.000163 -0.329136
v -0.260121 -0.410463 -0.313415
v -0.253834 -0.429987 0.038162
v -0.515992 -0.334539 0.307361
v -0.525956 -0.000989 0.320758
v -0.517148 0.332602 0.307384
v -0.522240 0.348467 0.025970
v -0.527263 0.332601 -0.258029
v -0.526893 -0.000967 -0.271627
v -0.526065 -0.334535 -0.259268
v -0.520970 -0.350399 0.025650
v -0.781686 -0.411688 0.358867
v -0.796556 -0.001430 0.375392
v -0.783140 0.408914 0.358895
v -0.789368 0.428422 0.016023
v -0.795512 0.408909 -0.331622
v -0.795041 -0.001383 -0.348575
v -0.794005 -0.411681 -0.333894
v -0.787758 -0.431208 0.015444
vt 0.555114 0.625010
vt 0.554172 0.609361
vt 0.568386 0.608802
vt 0.569375 0.624743
vt 0.555609 0.640446
vt 0.570055 0.640435
vt 0.713185 0.641814
vt 0.569393 0.656511
vt 0.554951 0.656051
vt 0.713196 0.658210
vt 0.569269 0.672707
vt 0.554909 0.671616
vt 0.713136 0.674575
vt 0.567539 0.688681
vt 0.553229 0.686617
vt 0.551167 0.701359
vt 0.565357 0.706346
vt 0.553803 0.593778
vt 0.553072 0.578645
vt 0.567426 0.574363
vt 0.568048 0.592398
vt 0.518065 0.670238
vt 0.517352 0.655169
vt 0.535716 0.655598
vt 0.535889 0.671391
vt 0.518766 0.640150
vt 0.536620 0.639828
vt 0.695936 0.609392
vt 0.696009 0.592418
vt 0.678278 0.609016
vt 0.678418 0.593113
vt 0.695802 0.623532
vt 0.678317 0.625243
vt 0.678336 0.641654
vt 0.695684 0.658247
vt 0.678197 0.658109
vt 0.695636 0.674370
vt 0.678126 0.674532
vt 0.695624 0.693186
vt 0.677904 0.690619
vt 0.695617 0.708710
vt 0.677669 0.705908
vt 0.678563 0.577909
vt 0.696109 0.574237
vt 0.612132 0.624900
vt 0.628679 0.625177
vt 0.629020 0.641462
vt 0.612549 0.641171
vt 0.612305 0.657437
vt 0.628873 0.657741
vt 0.611957 0.673687
vt 0.628525 0.674084
vt 0.610951 0.689636
vt 0.627692 0.690673
vt 0.609940 0.704889
vt 0.626784 0.708733
vt 0.611574 0.592645
vt 0.611524 0.577403
vt 0.628282 0.573664
vt 0.628230 0.591787
vt 0.611639 0.608624
vt 0.628252 0.608589
vt 0.543821 0.624996
vt 0.536291 0.609216
vt 0.534875 0.594394
vt 0.535338 0.579479
vt 0.541813 0.685725
vt 0.533309 0.701333
vt 0.661798 0.658066
vt 0.661939 0.641783
vt 0.661640 0.674411
vt 0.661165 0.690969
vt 0.660682 0.709056
vt 0.661661 0.592066
vt 0.661839 0.573932
vt 0.661557 0.608883
vt 0.661753 0.625521
vt 0.645227 0.657864
vt 0.645400 0.641392
vt 0.645007 0.674309
vt 0.644433 0.690416
vt 0.643876 0.705707
vt 0.645023 0.592763
vt 0.645132 0.577537
vt 0.644952 0.608693
vt 0.645195 0.624958
vt 0.598532 0.641002
vt 0.598080 0.657220
vt 0.597843 0.673497
vt 0.596455 0.689825
vt 0.594961 0.707782
vt 0.596965 0.591961
vt 0.596809 0.573832
vt 0.597129 0.608583
vt 0.597889 0.624926
vt 0.584197 0.640688
vt 0.583457 0.656861
vt 0.583429 0.673063
vt 0.582012 0.688691
vt 0.580524 0.703768
vt 0.582667 0.592791
vt 0.582394 0.577557
vt 0.582880 0.608709
vt 0.583601 0.624781
vt 0.695760 0.642197
vn -0.174856 -0.984572 -0.006579
vn -0.147233 -0.987754 -0.051615
vn -0.004933 -0.998434 -0.055720
vn 0.003067 -0.999995 -0.000309
vn -0.255707 -0.964914 0.059632
vn 0.013362 -0.998313 0.056497
vn -0.563333 -0.057660 0.824216
vn -0.033867 -0.043192 0.998493
vn -0.045981 -0.000098 0.998942
vn -0.588232 -0.001060 0.808692
vn -0.034078 0.043005 0.998493
vn -0.563527 0.055643 0.824221
vn -0.261488 0.963347 0.059886
vn 0.008880 0.998354 0.056667
vn -0.001565 0.999999 -0.000204
vn -0.180375 0.983577 -0.006442
vn -0.152153 0.987000 -0.051769
vn -0.009046 0.998395 -0.055902
vn -0.044605 0.002356 -0.999002
vn -0.056219 0.038982 -0.997657
vn 0.026560 0.041294 -0.998794
vn 0.026212 0.002809 -0.999653
vn -0.057152 -0.034247 -0.997778
vn 0.028059 -0.035683 -0.998969
vn -0.932835 0.044683 0.357524
vn -0.933753 -0.001634 0.357915
vn -0.870223 -0.001526 0.492657
vn -0.866219 0.050756 0.497081
vn -0.932667 -0.047948 0.357538
vn -0.866023 -0.053797 0.497101
vn -0.114964 -0.036849 -0.992686
vn 0.012332 -0.037938 -0.999204
vn 0.010476 0.000054 -0.999945
vn -0.115113 -0.000180 -0.993353
vn 0.009141 -0.997331 -0.072440
vn -0.203131 -0.975741 -0.081656
vn -0.208108 -0.976134 -0.062077
vn 0.039232 -0.998943 -0.023968
vn 0.161417 -0.985532 0.051681
vn 0.483652 -0.032217 0.874667
vn 0.847048 -0.027849 0.530787
vn 0.838565 0.001467 0.544799
vn 0.479916 0.000811 0.877314
vn 0.966684 -0.026289 0.254620
vn 0.967017 0.001692 0.254708
vn 0.846903 0.030800 0.530854
vn 0.483499 0.033857 0.874690
vn 0.966591 0.029690 0.254597
vn 0.157244 0.986203 0.051744
vn -0.212520 0.975151 -0.062576
vn 0.034924 0.999099 -0.024129
vn -0.207452 0.974781 -0.082251
vn 0.004881 0.997340 -0.072726
vn 0.012230 0.038045 -0.999201
vn -0.115107 0.036508 -0.992682
vn 0.001911 -0.999998 -0.000428
vn 0.002325 -0.999997 0.000925
vn 0.005973 -0.998461 0.055136
vn -0.004365 -0.998451 0.055463
vn -0.029719 -0.000096 0.999558
vn -0.026853 -0.038991 0.998879
vn -0.004122 -0.039622 0.999206
vn -0.003738 -0.000031 0.999993
vn -0.027013 0.038832 0.998881
vn -0.004318 0.039540 0.999209
vn -0.002778 0.999996 -0.000357
vn -0.009007 0.998415 0.055561
vn 0.001296 0.998472 0.055243
vn -0.002376 0.999997 0.001012
vn 0.006530 0.998439 -0.055464
vn -0.005882 0.998460 -0.055161
vn 0.022036 0.000296 -0.999757
vn 0.022771 0.039776 -0.998949
vn 0.004029 0.039620 -0.999207
vn 0.003770 0.000049 -0.999993
vn 0.023502 -0.039156 -0.998957
vn 0.004222 -0.039540 -0.999209
vn 0.011454 -0.998392 -0.055518
vn -0.001180 -0.998473 -0.055226
vn 0.005972 -0.999249 -0.038277
vn 0.006820 -0.998526 -0.053838
vn 0.117985 0.002002 -0.993013
vn 0.116288 -0.032629 -0.992679
vn 0.119539 0.036615 -0.992154
vn 0.001481 0.999261 -0.038397
vn 0.002401 0.998540 -0.053974
vn -0.003734 -0.000032 0.999993
vn -0.004144 -0.039622 0.999206
vn -0.004339 0.039541 0.999209
vn -0.002396 0.999996 0.001357
vn 0.001303 0.998474 0.055210
vn -0.005872 0.998462 -0.055124
vn 0.003774 0.000046 -0.999993
vn 0.004010 0.039619 -0.999207
vn 0.004204 -0.039541 -0.999209
vn 0.002330 -0.999996 0.001269
vn -0.001146 -0.998472 -0.055240
vn 0.006007 -0.998460 0.055147
vn -0.009046 -0.000057 0.999959
vn -0.008431 -0.039625 0.999179
vn -0.008614 0.039529 0.999181
vn -0.002258 0.999997 -0.001083
vn -0.006355 0.998446 0.055357
vn 0.001925 0.998469 -0.055274
vn 0.009006 0.000040 -0.999960
vn 0.008547 0.039623 -0.999178
vn 0.008729 -0.039528 -0.999180
vn 0.002342 -0.999997 -0.001171
vn 0.006512 -0.998445 -0.055363
vn -0.001743 -0.998470 0.055273
vn -0.038551 -0.042094 0.998370
vn -0.042044 -0.000093 0.999116
vn -0.038764 0.041893 0.998370
vn -0.001653 0.999998 0.000578
vn 0.008980 0.998411 0.055630
vn -0.008983 0.998425 -0.055378
vn 0.026228 0.000995 -0.999656
vn 0.026480 0.040182 -0.998841
vn 0.027970 -0.038210 -0.998878
vn 0.002951 -0.999995 0.000480
vn -0.004861 -0.998455 -0.055361
vn 0.013515 -0.998367 0.055497
vn -0.056843 -0.039887 0.997586
vn -0.048582 -0.000134 0.998819
vn -0.057007 0.039618 0.997587
vn -0.003741 0.999993 -0.000102
vn -0.017662 0.998242 0.056571
vn 0.007336 0.998409 -0.055913
vn 0.036978 0.001928 -0.999314
vn 0.035190 0.040748 -0.998550
vn 0.036580 -0.036904 -0.998649
vn 0.001038 -0.999999 -0.000171
vn 0.012672 -0.998359 -0.055837
vn -0.012908 -0.998322 0.056441
s 1
g FoodTallLLowerLeg
usemtl Delete:blinn4SG
f 32/1/1 33/2/2 83/3/3 84/4/4
f 3/5/5 32/1/1 84/4/4 77/6/6
s 2
f 3/5/7 77/6/8 78/8/9 4/9/10
f 4/9/10 78/8/9 79/11/11 5/12/12
s 3
f 5/12/13 79/11/14 80/14/15 36/15/16
f 35/16/17 36/15/16 80/14/15 81/17/18
s 4
f 34/18/19 35/19/20 81/20/21 82/21/22
f 33/2/23 34/18/19 82/21/22 83/3/24
s 2
f 7/22/25 8/23/26 9/24/27 6/25/28
f 8/23/26 1/26/29 2/27/30 9/24/27
f 6/25/28 9/24/27 4/9/10 5/12/12
f 9/24/27 2/27/30 3/5/7 4/9/10
s 4
f 10/28/31 11/30/32 23/31/33 17/29/34
s 1
f 11/30/35 10/28/36 12/32/37 13/33/38
f 13/33/38 12/32/37 14/34/39
s 2
f 14/34/40 12/105/41 15/35/42 16/36/43
f 12/105/41 10/7/44 17/10/45 15/35/42
f 16/36/43 15/35/42 18/37/46 19/38/47
f 15/35/42 17/10/45 20/13/48 18/37/46
s 3
f 19/38/49 18/39/50 21/40/51
f 21/40/51 18/39/50 20/41/52 22/42/53
s 4
f 22/43/54 20/44/55 17/29/34 23/31/33
s 1
f 24/45/56 60/46/57 53/47/58 25/48/59
s 2
f 26/49/60 25/48/61 53/47/62 54/50/63
f 27/51/64 26/49/60 54/50/63 55/52/65
s 3
f 28/53/66 27/51/67 55/52/68 56/54/69
f 29/55/70 28/53/66 56/54/69 57/56/71
s 4
f 30/57/72 29/58/73 57/59/74 58/60/75
f 31/61/76 30/57/72 58/60/75 59/62/77
s 1
f 24/45/56 31/61/78 59/62/79 60/46/57
f 2/63/80 32/1/1 3/5/5
f 1/64/81 33/2/2 32/1/1 2/63/80
s 4
f 8/65/82 34/18/19 33/2/23 1/64/83
f 7/66/84 35/19/20 34/18/19 8/65/82
s 3
f 6/67/85 36/15/16 35/16/17 7/68/86
f 5/12/13 36/15/16 6/67/85
s 2
f 38/69/87 37/70/88 14/34/40 16/36/43
f 39/71/89 38/69/87 16/36/43 19/38/47
s 3
f 40/72/90 39/71/91 19/38/49 21/40/51
f 41/73/92 40/72/90 21/40/51 22/42/53
s 4
f 42/74/93 41/75/94 22/43/54 23/31/33
f 43/76/95 42/74/93 23/31/33 11/30/32
s 1
f 44/77/96 43/76/97 11/30/35 13/33/38
f 37/70/98 44/77/96 13/33/38 14/34/39
s 2
f 46/78/99 45/79/100 37/70/88 38/69/87
f 47/80/101 46/78/99 38/69/87 39/71/89
s 3
f 48/81/102 47/80/103 39/71/91 40/72/90
f 49/82/104 48/81/102 40/72/90 41/73/92
s 4
f 50/83/105 49/84/106 41/75/94 42/74/93
f 51/85/107 50/83/105 42/74/93 43/76/95
s 1
f 52/86/108 51/85/109 43/76/97 44/77/96
f 45/79/110 52/86/108 44/77/96 37/70/98
s 2
f 54/50/63 53/47/62 45/79/100 46/78/99
f 55/52/65 54/50/63 46/78/99 47/80/101
s 3
f 56/54/69 55/52/68 47/80/103 48/81/102
f 57/56/71 56/54/69 48/81/102 49/82/104
s 4
f 58/60/75 57/59/74 49/84/106 50/83/105
f 59/62/77 58/60/75 50/83/105 51/85/107
s 1
f 60/46/57 59/62/79 51/85/109 52/86/108
f 53/47/58 60/46/57 52/86/108 45/79/110
s 2
f 61/87/111 25/48/61 26/49/60 62/88/112
f 63/89/113 62/88/112 26/49/60 27/51/64
s 3
f 64/90/114 63/89/115 27/51/67 28/53/66
f 65/91/116 64/90/114 28/53/66 29/55/70
s 4
f 66/92/117 65/93/118 29/58/73 30/57/72
f 67/94/119 66/92/117 30/57/72 31/61/76
s 1
f 68/95/120 67/94/121 31/61/78 24/45/56
f 61/87/122 68/95/120 24/45/56 25/48/59
s 2
f 69/96/123 61/87/111 62/88/112 70/97/124
f 71/98/125 70/97/124 62/88/112 63/89/113
s 3
f 72/99/126 71/98/127 63/89/115 64/90/114
f 73/100/128 72/99/126 64/90/114 65/91/116
s 4
f 74/101/129 73/102/130 65/93/118 66/92/117
f 75/103/131 74/101/129 66/92/117 67/94/119
s 1
f 76/104/132 75/103/133 67/94/121 68/95/120
f 69/96/134 76/104/132 68/95/120 61/87/122
s 2
f 77/6/8 69/96/123 70/97/124 78/8/9
f 79/11/11 78/8/9 70/97/124 71/98/125
s 3
f 80/14/15 79/11/14 71/98/127 72/99/126
f 81/17/18 80/14/15 72/99/126 73/100/128
s 4
f 82/21/22 81/20/21 73/102/130 74/101/129
f 83/3/24 82/21/22 74/101/129 75/103/131
s 1
f 84/4/4 83/3/3 75/103/133 76/104/132
f 77/6/6 84/4/4 76/104/132 69/96/134
