# This file uses centimeters as units for non-parametric coordinates.

g default
v 0.025544 16.735176 -2.901791
v 3.840678 11.477425 -0.622729
v 5.119946 14.224525 -1.045711
v -0.011767 11.616835 4.279413
v -0.256634 16.541174 4.847743
v 3.161933 16.671318 4.913657
v 1.965071 17.012077 -1.644034
v -2.358407 15.476758 3.278405
v 4.646904 16.671318 2.981586
v 4.411407 16.537815 -0.973397
v -0.115276 12.913163 -3.049809
v 4.766673 12.828573 -0.848660
v 0.049098 10.492038 -0.864975
v -1.479921 11.762884 2.749078
v -0.311892 14.217321 5.636910
v 5.122073 14.315359 3.048553
v -2.432347 13.979370 3.074837
v 2.944996 12.898597 5.272816
v -0.178833 12.884649 5.270511
v 1.919454 17.346752 2.701209
v -0.810356 17.225498 3.393847
v 2.852139 12.742998 -3.045867
v 2.698540 10.526277 -0.574121
v -0.073364 10.579899 2.629532
v -3.505137 12.076771 1.257746
v 1.829643 18.674335 1.948722
v -2.876522 19.314129 1.826959
v -2.403927 10.560130 -1.026241
v -4.253797 13.745028 1.437716
v 1.863187 18.500378 -1.356988
v -4.296643 16.980446 -1.195486
v -3.490740 11.884377 -0.966698
v -2.579139 17.155298 3.322906
v -2.846837 19.139860 -1.457025
v -2.497177 13.599997 -2.709611
v -2.511148 16.980446 -2.837715
v -2.458299 10.737170 1.363572
v -4.362213 17.154715 1.439509
v -4.240171 13.601763 -1.125551
v 2.704553 10.645948 2.558578
v 3.851105 11.576668 2.553918
v 4.777046 12.907614 2.822814
v 3.125330 14.313604 5.639676
v 2.655423 11.521998 4.170256
v 2.995408 14.151062 -3.388059
v -1.056194 19.515705 -1.605435
v -1.060551 19.688026 1.943213
v -1.253867 16.882900 -3.133045
v -1.894495 12.610888 2.807382
v -2.450552 12.080063 -1.867926
v -0.033089 11.634514 -1.957392
v 2.775340 11.585807 -1.874998
v 2.778764 16.402660 -2.470248
v -0.122808 14.142248 -3.365648
vt 0.124293 0.326834
vt 0.052650 0.314465
vt 0.057864 0.209506
vt 0.125736 0.207441
vt 0.180409 0.332366
vt 0.184836 0.210522
vt 0.278561 0.329845
vt 0.282750 0.215772
vt 0.160072 0.454265
vt 0.253640 0.481357
vt 0.184516 0.584459
vt 0.118522 0.576872
vt 0.043546 0.438725
vt 0.108308 0.444146
vt 0.057712 0.552484
vt 0.024005 0.531630
vt 0.945603 0.904382
vt 0.960835 0.811379
vt 0.862146 0.852228
vt 0.831858 0.967457
vt 0.785452 0.924455
vt 0.729981 0.986482
vt 0.877810 0.678203
vt 0.897695 0.576730
vt 0.785512 0.583804
vt 0.795382 0.664985
vt 0.791790 0.484514
vt 0.848827 0.457094
vt 0.800663 0.428073
vt 0.782719 0.538180
vt 0.885242 0.516674
vt 0.893245 0.337155
vt 0.868503 0.263084
vt 0.840256 0.324186
vt 0.778101 0.216285
vt 0.700154 0.232111
vt 0.746579 0.281999
vt 0.132277 0.571519
vt 0.202599 0.645279
vt 0.113644 0.685951
vt 0.083972 0.589388
vt 0.101437 0.771784
vt 0.130424 0.872624
vt 0.072118 0.815409
vt 0.773513 0.126942
vt 0.794936 0.236169
vt 0.271172 0.858439
vt 0.206751 0.793892
vt 0.851720 0.230064
vt 0.841288 0.112636
vt 0.955267 0.109993
vt 0.952926 0.237864
vt 0.849988 0.325526
vt 0.894561 0.328734
vt 0.874614 0.424322
vt 0.788974 0.423621
vt 0.750256 0.525153
vt 0.719752 0.480553
vt 0.768018 0.476170
vt 0.709699 0.415820
vt 0.727825 0.297425
vt 0.807494 0.317269
vt 0.694813 0.576596
vt 0.656024 0.530337
vt 0.102909 0.454125
vt 0.152473 0.460154
vt 0.183623 0.941153
vt 0.130462 0.978004
vt 0.084986 0.912378
vt 0.043170 0.071886
vt 0.112701 0.056788
vt 0.175911 0.045021
vt 0.282004 0.044224
vt 0.782283 0.709715
vt 0.705189 0.412049
vt 0.689129 0.470867
vt 0.676438 0.586100
vt 0.693045 0.687863
vt 0.226250 0.704698
vt 0.143999 0.736122
vt 0.727799 0.664195
vt 0.669283 0.640372
vt 0.813326 0.572012
vt 0.838232 0.522079
vt 0.031808 0.933997
vt 0.010202 0.870274
vt 0.035952 0.851417
vt 0.861326 0.467287
vt 0.678123 0.535669
vt 0.970878 0.288450
vn 0.306445 -0.464530 0.830845
vn 0.295128 -0.730298 0.616088
vn 0.700816 -0.668349 0.249332
vn 0.864955 -0.428387 0.261414
vn 0.344292 -0.068121 0.936388
vn 0.306445 -0.464530 0.830845
vn 0.864955 -0.428387 0.261414
vn 0.953946 -0.075971 0.290200
vn 0.262709 0.681609 0.682930
vn 0.344292 -0.068121 0.936388
vn 0.953946 -0.075971 0.290200
vn 0.559907 0.806776 0.188725
vn -0.338750 -0.038514 0.940088
vn -0.246138 0.634196 0.732947
vn -0.801928 0.147355 0.578963
vn -0.855964 -0.159668 0.491763
vn -0.285348 -0.712495 0.641036
vn -0.287744 -0.455226 0.842599
vn -0.790473 -0.424037 0.441979
vn -0.633844 -0.617314 0.466009
vn -0.287744 -0.455226 0.842599
vn -0.338750 -0.038514 0.940088
vn -0.855964 -0.159668 0.491763
vn -0.790473 -0.424037 0.441979
vn 0.262709 0.681609 0.682930
vn 0.559907 0.806776 0.188725
vn 0.258803 0.959975 0.107095
vn -0.246138 0.634196 0.732947
vn -0.391473 0.752040 0.530268
vn -0.635825 0.432584 0.639216
vn 0.552903 0.778457 -0.297158
vn 0.936145 -0.076559 -0.343177
vn 0.381679 -0.082607 -0.920596
vn 0.279375 0.724328 -0.630316
vn 0.294352 -0.688000 -0.663335
vn 0.713476 -0.659812 -0.235798
vn 0.416974 -0.843584 -0.338376
vn 0.323522 -0.462139 -0.825688
vn 0.381679 -0.082607 -0.920596
vn 0.936145 -0.076559 -0.343177
vn 0.861054 -0.416616 -0.291576
vn 0.700816 -0.668349 0.249332
vn 0.295128 -0.730298 0.616088
vn 0.409842 -0.847189 0.338084
vn -0.285348 -0.712495 0.641036
vn -0.633844 -0.617314 0.466009
vn -0.261812 -0.860425 0.437176
vn 0.712532 0.598391 0.366368
vn -0.016701 0.867786 0.496657
vn -0.018298 0.406257 0.913576
vn 0.327852 0.557121 0.762974
vn -0.634706 -0.045260 0.771427
vn -0.763484 -0.259905 0.591220
vn -0.620290 -0.227801 0.750564
vn -0.335850 0.830602 0.444190
vn -0.348604 0.811077 -0.469712
vn -0.829088 0.144220 -0.540197
vn -0.839815 0.092480 0.534937
vn -0.027942 0.848604 -0.528290
vn -0.016701 0.867786 0.496657
vn 0.712532 0.598391 0.366368
vn 0.737786 0.526328 -0.422671
vn -0.021714 0.203012 -0.978936
vn 0.221087 0.227498 -0.948349
vn -0.205366 -0.086318 -0.974871
vn -0.464429 -0.322730 -0.824713
vn -0.244705 -0.817724 -0.521005
vn -0.751274 -0.471594 -0.461722
vn -0.320431 -0.516301 -0.794202
vn -0.464429 -0.322730 -0.824713
vn -0.792328 -0.274851 -0.544678
vn -0.829088 0.144220 -0.540197
vn -0.472066 0.176758 -0.863661
vn -0.829088 0.144220 -0.540197
vn -0.348604 0.811077 -0.469712
vn -0.472066 0.176758 -0.863661
vn -0.751274 -0.471594 -0.461722
vn -0.244705 -0.817724 -0.521005
vn -0.467994 -0.761151 0.449033
vn -0.715569 -0.440283 0.542320
vn 0.924395 0.293462 -0.243668
vn 0.737786 0.526328 -0.422671
vn 0.712532 0.598391 0.366368
vn 0.903182 0.346826 0.252932
vn -0.829088 0.144220 -0.540197
vn -0.792328 -0.274851 -0.544678
vn -0.763484 -0.259905 0.591220
vn -0.839815 0.092480 0.534937
vn -0.792328 -0.274851 -0.544678
vn -0.751274 -0.471594 -0.461722
vn -0.715569 -0.440283 0.542320
vn -0.763484 -0.259905 0.591220
vn 0.416974 -0.843584 -0.338376
vn 0.713476 -0.659812 -0.235798
vn 0.700816 -0.668349 0.249332
vn 0.409842 -0.847189 0.338084
vn 0.713476 -0.659812 -0.235798
vn 0.861054 -0.416616 -0.291576
vn 0.864955 -0.428387 0.261414
vn 0.700816 -0.668349 0.249332
vn 0.861054 -0.416616 -0.291576
vn 0.936145 -0.076559 -0.343177
vn 0.953946 -0.075971 0.290200
vn 0.864955 -0.428387 0.261414
vn 0.936145 -0.076559 -0.343177
vn 0.552903 0.778457 -0.297158
vn 0.559907 0.806776 0.188725
vn 0.953946 -0.075971 0.290200
vn 0.552903 0.778457 -0.297158
vn 0.288414 0.919833 -0.265942
vn 0.258803 0.959975 0.107095
vn 0.559907 0.806776 0.188725
vn 0.057762 0.979824 0.191335
vn -0.391473 0.752040 0.530268
vn -0.246138 0.634196 0.732947
vn 0.262709 0.681609 0.682930
vn -0.246138 0.634196 0.732947
vn -0.338750 -0.038514 0.940088
vn 0.344292 -0.068121 0.936388
vn 0.262709 0.681609 0.682930
vn -0.338750 -0.038514 0.940088
vn -0.287744 -0.455226 0.842599
vn 0.306445 -0.464530 0.830845
vn 0.344292 -0.068121 0.936388
vn -0.287744 -0.455226 0.842599
vn -0.285348 -0.712495 0.641036
vn 0.295128 -0.730298 0.616088
vn 0.306445 -0.464530 0.830845
vn -0.285348 -0.712495 0.641036
vn -0.261812 -0.860425 0.437176
vn 0.409842 -0.847189 0.338084
vn 0.295128 -0.730298 0.616088
vn -0.261812 -0.860425 0.437176
vn -0.158750 -0.855842 -0.492273
vn 0.416974 -0.843584 -0.338376
vn 0.409842 -0.847189 0.338084
vn -0.158750 -0.855842 -0.492273
vn -0.112383 -0.665261 -0.738104
vn 0.294352 -0.688000 -0.663335
vn 0.416974 -0.843584 -0.338376
vn 0.279375 0.724328 -0.630316
vn 0.381679 -0.082607 -0.920596
vn -0.093116 -0.066339 -0.993443
vn 0.057299 0.389169 -0.919383
vn -0.027942 0.848604 -0.528290
vn -0.348604 0.811077 -0.469712
vn -0.335850 0.830602 0.444190
vn -0.016701 0.867786 0.496657
vn -0.016701 0.867786 0.496657
vn -0.335850 0.830602 0.444190
vn -0.477034 0.152524 0.865549
vn -0.018298 0.406257 0.913576
vn -0.173056 0.088440 0.980933
vn -0.018298 0.406257 0.913576
vn -0.477034 0.152524 0.865549
vn -0.258056 -0.878136 0.402846
vn -0.529417 -0.447250 0.720892
vn -0.467994 -0.761151 0.449033
vn -0.244705 -0.817724 -0.521005
vn -0.041480 -0.841377 -0.538854
vn -0.258056 -0.878136 0.402846
vn -0.467994 -0.761151 0.449033
vn -0.320431 -0.516301 -0.794202
vn -0.121248 -0.578568 -0.806571
vn -0.041480 -0.841377 -0.538854
vn -0.244705 -0.817724 -0.521005
vn -0.464429 -0.322730 -0.824713
vn -0.472066 0.176758 -0.863661
vn -0.021714 0.203012 -0.978936
vn -0.348604 0.811077 -0.469712
vn -0.027942 0.848604 -0.528290
vn -0.021714 0.203012 -0.978936
vn -0.472066 0.176758 -0.863661
vn -0.467994 -0.761151 0.449033
vn -0.529417 -0.447250 0.720892
vn -0.589419 -0.364918 0.720708
vn -0.715569 -0.440283 0.542320
vn -0.589419 -0.364918 0.720708
vn -0.620290 -0.227801 0.750564
vn -0.763484 -0.259905 0.591220
vn -0.715569 -0.440283 0.542320
vn -0.320431 -0.516301 -0.794202
vn -0.751274 -0.471594 -0.461722
vn -0.792328 -0.274851 -0.544678
vn -0.464429 -0.322730 -0.824713
vn -0.207014 -0.497671 -0.842300
vn -0.121248 -0.578568 -0.806571
vn -0.320431 -0.516301 -0.794202
vn -0.464429 -0.322730 -0.824713
vn 0.323522 -0.462139 -0.825688
vn 0.294352 -0.688000 -0.663335
vn -0.112383 -0.665261 -0.738104
vn -0.104923 -0.476481 -0.872902
vn 0.713476 -0.659812 -0.235798
vn 0.294352 -0.688000 -0.663335
vn 0.323522 -0.462139 -0.825688
vn 0.861054 -0.416616 -0.291576
vn 0.288414 0.919833 -0.265942
vn 0.279375 0.724328 -0.630316
vn 0.057299 0.389169 -0.919383
vn 0.552903 0.778457 -0.297158
vn 0.279375 0.724328 -0.630316
vn 0.288414 0.919833 -0.265942
vn -0.027942 0.848604 -0.528290
vn 0.737786 0.526328 -0.422671
vn 0.487981 0.250239 -0.836215
vn 0.221087 0.227498 -0.948349
vn -0.021714 0.203012 -0.978936
vn -0.093116 -0.066339 -0.993443
vn 0.381679 -0.082607 -0.920596
vn 0.323522 -0.462139 -0.825688
vn -0.104923 -0.476481 -0.872902
vn -0.464429 -0.322730 -0.824713
vn -0.205366 -0.086318 -0.974871
vn -0.207014 -0.497671 -0.842300
vn -0.839815 0.092480 0.534937
vn -0.477034 0.152524 0.865549
vn -0.335850 0.830602 0.444190
vn -0.634706 -0.045260 0.771427
vn -0.477034 0.152524 0.865549
vn -0.839815 0.092480 0.534937
vn -0.763484 -0.259905 0.591220
s off
g polySurface56
usemtl initialShadingGroup
f 18/1/1 44/2/2 41/3/3 42/4/4
f 43/5/5 18/1/6 42/4/7 16/6/8
f 6/7/9 43/5/10 16/6/11 9/8/12
f 15/9/13 5/10/14 8/11/15 17/12/16
f 4/13/17 19/14/18 49/15/19 14/16/20
f 19/14/21 15/9/22 17/12/23 49/15/24
f 6/17/25 9/18/26 20/19/27
f 5/20/28 21/21/29 8/22/30
f 10/23/31 3/24/32 45/25/33 53/26/34
f 52/27/35 2/28/36 23/29/37
f 22/30/38 45/25/39 3/24/40 12/31/41
f 41/32/42 44/33/43 40/34/44
f 4/35/45 14/36/46 24/37/47
f 26/38/48 47/39/49 21/40/50 20/41/51
f 8/42/52 29/43/53 17/44/54
f 27/45/55 34/46/56 31/47/57 38/48/58
f 46/49/59 47/50/60 26/51/61 30/52/62
f 48/53/63 1/54/64 54/55/65 35/56/66
f 28/57/67 32/58/68 50/59/69
f 35/56/70 39/60/71 31/61/72 36/62/73
f 31/61/74 34/46/75 36/62/76
f 32/58/77 28/57/78 37/63/79 25/64/80
f 7/65/81 30/66/82 26/38/83 20/41/84
f 31/47/85 39/67/86 29/43/87 38/48/88
f 39/67/89 32/68/90 25/69/91 29/43/92
f 23/29/93 2/28/94 41/32/95 40/34/96
f 2/70/97 12/71/98 42/4/99 41/3/100
f 12/71/101 3/72/102 16/6/103 42/4/104
f 3/72/105 10/73/106 9/8/107 16/6/108
f 10/23/109 7/74/110 20/19/111 9/18/112
f 20/19/113 21/21/114 5/20/115 6/17/116
f 5/10/117 15/9/118 43/5/119 6/7/120
f 15/9/121 19/14/122 18/1/123 43/5/124
f 19/14/125 4/13/126 44/2/127 18/1/128
f 4/35/129 24/37/130 40/34/131 44/33/132
f 24/37/133 13/75/134 23/29/135 40/34/136
f 13/75/137 51/76/138 52/27/139 23/29/140
f 53/26/141 45/25/142 54/77/143 1/78/144
f 46/49/145 34/46/146 27/45/147 47/50/148
f 47/39/149 27/79/150 33/80/151 21/40/152
f 8/42/153 21/40/154 33/80/155
f 24/81/156 14/82/157 37/63/158
f 28/57/159 13/83/160 24/81/161 37/63/162
f 50/59/163 51/84/164 13/83/165 28/57/166
f 35/56/167 36/62/168 48/53/169
f 34/46/170 46/49/171 48/53/172 36/62/173
f 37/85/174 14/86/175 49/87/176 25/69/177
f 49/87/178 17/44/179 29/43/180 25/69/181
f 50/59/182 32/58/183 39/60/184 35/56/185
f 11/88/186 51/84/187 50/59/188 35/56/189
f 22/30/190 52/27/191 51/76/192 11/89/193
f 2/28/194 52/27/195 22/30/196 12/31/197
f 7/74/198 53/26/199 1/78/200
f 10/23/201 53/26/202 7/74/203
f 46/49/204 30/52/205 7/90/206 1/54/207 48/53/208
f 54/77/209 45/25/210 22/30/211 11/89/212
f 35/56/213 54/55/214 11/88/215
f 38/48/216 33/80/217 27/79/218
f 8/42/219 33/80/220 38/48/221 29/43/222
