# This file uses centimeters as units for non-parametric coordinates.

g default
v 0.000005 39.357371 8.883329
v 0.000001 40.523270 5.118096
v -8.897887 34.663887 3.303737
v -8.897887 33.497983 7.068967
v 8.708329 34.486925 3.248940
v 8.708328 33.321013 7.014170
v 0.000002 24.865713 4.395982
v 0.000002 26.031618 0.630754
v -18.147575 15.204610 1.404421
v -19.604175 17.769030 2.198495
v -19.604175 18.934938 -1.566735
v -18.147571 16.370514 -2.360808
v 19.554785 17.776919 2.200938
v 18.113512 15.204609 1.404420
v 19.554784 18.942822 -1.564293
v 18.113514 16.370509 -2.360810
vt 0.458333 0.312500
vt 0.458333 0.688440
vt 0.433334 0.312503
vt 0.483330 0.688435
vt 0.396040 -0.034762
vt 1.000000 0.000000
vt 0.500000 1.000000
vt 0.000000 0.000000
vt 0.604411 -0.038729
vt 0.000000 0.000000
vt 0.603960 -0.034762
vt 0.395589 -0.038729
vt 1.000000 0.000000
vt -0.539665 -0.082935
vt -0.075652 -0.011626
vt 0.000000 0.000000
vt 0.000000 0.000000
vt 0.215566 -0.008552
vt 1.518200 -0.060229
vt 0.500000 1.000000
vt -0.518200 -0.060229
vt -0.073578 -0.008552
vt 0.000000 0.000000
vt 0.000000 0.000000
vt 0.215835 -0.011626
vt 1.539665 -0.082935
vt 0.383178 0.688439
vt 0.383177 0.312500
vt 0.433335 0.688435
vt 0.483332 0.312503
vt 0.533384 0.312500
vt 0.547983 0.688440
vt 0.618751 0.312500
vt 0.621593 0.312500
vt 0.621593 0.688440
vt 0.618751 0.688440
vt 0.547983 0.312500
vt 0.533384 0.688439
vt 0.500000 1.000000
vt 0.500000 1.000000
vt 0.500000 1.000000
vt 0.500000 1.000000
vt 0.500000 1.000000
vt 0.500000 1.000000
vt 0.000000 0.000000
vt 0.000000 0.000000
vt 0.215835 -0.011626
vt -0.073578 -0.008552
vt 0.500000 1.000000
vt 0.500000 1.000000
vt 0.500000 1.000000
vt 0.500000 1.000000
vt 0.500000 1.000000
vt 0.500000 1.000000
vt 0.000000 0.000000
vt 0.000000 0.000000
vt 0.215566 -0.008552
vt -0.075652 -0.011626
vn 0.756093 0.625178 0.193587
vn 0.756093 0.625178 0.193587
vn 0.832091 0.529820 0.164059
vn 0.832091 0.529820 0.164059
vn -0.000000 -0.955252 -0.295793
vn -0.000000 -0.955252 -0.295793
vn -0.000000 -0.955252 -0.295793
vn -0.000000 -0.955252 -0.295793
vn -0.838361 0.520722 0.161242
vn -0.838361 0.520722 0.161242
vn -0.755394 0.625949 0.193825
vn -0.755394 0.625949 0.193825
vn 0.000000 -0.295794 0.955252
vn 0.000000 -0.295794 0.955252
vn -0.000000 -0.295794 0.955252
vn -0.000000 -0.295794 0.955252
vn -0.000000 -0.295794 0.955252
vn 0.000000 -0.295794 0.955252
vn -0.000000 -0.295794 0.955252
vn -0.000000 0.295794 -0.955252
vn -0.000000 0.295794 -0.955252
vn -0.000000 0.295794 -0.955252
vn 0.000000 0.295794 -0.955252
vn 0.000000 0.295794 -0.955252
vn -0.000000 0.295794 -0.955252
vn 0.000000 0.295794 -0.955252
vn -0.000000 -0.295794 0.955252
vn -0.000000 -0.295794 0.955252
vn -0.000000 -0.295794 0.955252
vn -0.567569 0.786483 0.243534
vn -0.567569 0.786483 0.243534
vn 0.000000 0.295794 -0.955252
vn 0.000000 0.295794 -0.955252
vn 0.000000 0.295794 -0.955252
vn -0.000000 0.295794 -0.955252
vn -0.000000 0.295794 -0.955252
vn -0.000000 0.295794 -0.955252
vn 0.587308 0.773146 0.239405
vn 0.587308 0.773146 0.239405
vn -0.000000 -0.295794 0.955252
vn -0.000000 -0.295794 0.955252
vn -0.000000 -0.295794 0.955252
vn -0.878953 -0.455568 -0.141067
vn -0.878953 -0.455568 -0.141067
vn -0.878953 -0.455568 -0.141067
vn -0.878953 -0.455568 -0.141067
vn 0.881658 -0.450773 -0.139582
vn 0.881658 -0.450773 -0.139582
vn 0.881658 -0.450773 -0.139582
vn 0.881658 -0.450773 -0.139582
s 1
g pCylinder16 group5
f 5/4/1 6/30/2 13/31/3 15/38/4
s off
f 16/32/5 14/37/6 9/33/7 12/36/8
s 2
f 11/27/9 10/28/10 4/3/11 3/29/12
s 3
f 4/14/13 10/58/14 7/50/15
f 6/19/16 7/53/15 13/18/17
f 10/15/14 9/56/18 7/49/15
f 13/57/17 7/54/15 14/17/19
f 7/7/15 9/16/18 14/55/19
s 5
f 5/21/20 15/48/21 8/40/22
f 3/26/23 8/43/22 11/25/24
f 15/22/21 16/46/25 8/39/22
f 11/47/24 8/44/22 12/24/26
f 8/20/22 16/23/25 12/45/26
s off
f 1/8/27 4/9/28 7/51/29
s 2
f 3/29/12 4/3/11 1/1/30 2/2/31
s off
f 8/42/32 3/12/33 2/13/34
f 2/10/35 5/11/36 8/41/37
s 1
f 1/1/38 6/30/2 5/4/1 2/2/39
s off
f 7/52/40 6/5/41 1/6/42
f 9/33/43 10/34/44 11/35/45 12/36/46
f 13/31/47 14/37/48 16/32/49 15/38/50
g default
v 5.756300 25.634679 -4.298270
v 3.323402 28.044059 -3.960799
v -0.000000 28.925953 -3.837276
v -3.323402 28.044059 -3.960799
v -5.756300 25.634679 -4.298270
v -6.646803 22.343406 -4.759265
v -5.756300 19.052132 -5.220259
v -3.323402 16.642752 -5.557731
v 0.000000 15.760858 -5.681254
v 3.323402 16.642752 -5.557731
v 5.756300 19.052132 -5.220259
v 6.646803 22.343406 -4.759265
v 8.140638 26.075981 2.475228
v 4.700000 29.483358 2.952484
v 0.000000 30.730545 3.127172
v -4.700000 29.483358 2.952484
v -8.140638 26.075981 2.475228
v -9.400000 21.421417 1.823283
v -8.140638 16.766853 1.171338
v -4.700000 13.359475 0.694082
v 0.000000 12.112289 0.519394
v 4.700000 13.359475 0.694082
v 8.140638 16.766853 1.171338
v 9.400000 21.421417 1.823283
v 8.140638 25.618232 5.743326
v 4.700000 29.025610 6.220582
v 0.000000 30.272796 6.395270
v -4.700000 29.025610 6.220582
v -8.140638 25.618232 5.743326
v -9.400000 20.963668 5.091381
v -8.140638 16.309104 4.439437
v -4.700000 12.901727 3.962180
v 0.000000 11.654540 3.787492
v 4.700000 12.901727 3.962180
v 8.140638 16.309104 4.439437
v 9.400000 20.963668 5.091381
v 5.756300 23.332953 12.134923
v 3.323402 25.742333 12.472395
v -0.000000 26.624227 12.595918
v -3.323402 25.742333 12.472395
v -5.756300 23.332953 12.134923
v -6.646803 20.041679 11.673929
v -5.756300 16.750406 11.212934
v -3.323402 14.341026 10.875463
v 0.000000 13.459132 10.751940
v 3.323402 14.341026 10.875463
v 5.756300 16.750406 11.212934
v 6.646803 20.041679 11.673929
v 0.000000 22.725306 -7.485845
v 0.000000 19.659779 14.400509
vt 0.567658 0.117188
vt 0.539063 0.088592
vt 0.500000 0.078125
vt 0.460938 0.088592
vt 0.432342 0.117188
vt 0.421875 0.156250
vt 0.432342 0.195313
vt 0.460938 0.223908
vt 0.500000 0.234375
vt 0.539063 0.223908
vt 0.567658 0.195313
vt 0.578125 0.156250
vt 0.635316 0.078125
vt 0.578125 0.020934
vt 0.500000 0.000000
vt 0.421875 0.020934
vt 0.364684 0.078125
vt 0.343750 0.156250
vt 0.364684 0.234375
vt 0.421875 0.291566
vt 0.500000 0.312500
vt 0.578125 0.291566
vt 0.635316 0.234375
vt 0.656250 0.156250
vt 0.375000 0.312500
vt 0.395833 0.312500
vt 0.416667 0.312500
vt 0.437500 0.312500
vt 0.458333 0.312500
vt 0.479167 0.312500
vt 0.500000 0.312500
vt 0.520833 0.312500
vt 0.541667 0.312500
vt 0.562500 0.312500
vt 0.583333 0.312500
vt 0.604167 0.312500
vt 0.625000 0.312500
vt 0.375000 0.688440
vt 0.395833 0.688440
vt 0.416667 0.688440
vt 0.437500 0.688440
vt 0.458333 0.688440
vt 0.479167 0.688440
vt 0.500000 0.688440
vt 0.520833 0.688440
vt 0.541667 0.688440
vt 0.562500 0.688440
vt 0.583333 0.688440
vt 0.604167 0.688440
vt 0.625000 0.688440
vt 0.635316 0.765625
vt 0.578125 0.708434
vt 0.500000 0.687500
vt 0.421875 0.708434
vt 0.364684 0.765625
vt 0.343750 0.843750
vt 0.364684 0.921875
vt 0.421875 0.979066
vt 0.500000 1.000000
vt 0.578125 0.979066
vt 0.635316 0.921875
vt 0.656250 0.843750
vt 0.567658 0.804688
vt 0.539063 0.776092
vt 0.500000 0.765625
vt 0.460938 0.776092
vt 0.432342 0.804688
vt 0.421875 0.843750
vt 0.432342 0.882813
vt 0.460938 0.911408
vt 0.500000 0.921875
vt 0.539063 0.911408
vt 0.567658 0.882813
vt 0.578125 0.843750
vt 0.500000 0.150000
vt 0.500000 0.837500
vn 0.724607 0.490274 -0.484331
vn 0.418352 0.793568 -0.441850
vn 0.484432 0.865294 -0.128812
vn 0.839061 0.514093 -0.178003
vn 0.000000 0.904582 -0.426300
vn 0.000000 0.993842 -0.110806
vn -0.418352 0.793568 -0.441850
vn -0.484432 0.865294 -0.128812
vn -0.724607 0.490274 -0.484331
vn -0.839061 0.514093 -0.178003
vn -0.836704 0.075966 -0.542361
vn -0.968864 0.034344 -0.245199
vn -0.724607 -0.338342 -0.600391
vn -0.839061 -0.445405 -0.312395
vn -0.418352 -0.641636 -0.642872
vn -0.484432 -0.796606 -0.361587
vn 0.000000 -0.752649 -0.658422
vn 0.000000 -0.925154 -0.379592
vn 0.418352 -0.641636 -0.642872
vn 0.484432 -0.796606 -0.361587
vn 0.724607 -0.338342 -0.600391
vn 0.839061 -0.445405 -0.312396
vn 0.836704 0.075966 -0.542361
vn 0.968864 0.034344 -0.245199
vn 0.484432 0.796606 0.361587
vn 0.839061 0.445405 0.312396
vn 0.000000 0.925154 0.379592
vn -0.484432 0.796606 0.361587
vn -0.839061 0.445405 0.312396
vn -0.968864 -0.034344 0.245199
vn -0.839061 -0.514093 0.178003
vn -0.484432 -0.865294 0.128812
vn 0.000000 -0.993842 0.110806
vn 0.484432 -0.865294 0.128812
vn 0.839061 -0.514093 0.178003
vn 0.968864 -0.034344 0.245199
vn 0.418352 0.641636 0.642872
vn 0.724607 0.338342 0.600391
vn 0.000000 0.752649 0.658422
vn -0.418352 0.641636 0.642872
vn -0.724607 0.338342 0.600391
vn -0.836704 -0.075966 0.542361
vn -0.724607 -0.490274 0.484331
vn -0.418352 -0.793568 0.441850
vn 0.000000 -0.904582 0.426300
vn 0.418352 -0.793568 0.441850
vn 0.724607 -0.490274 0.484331
vn 0.836704 -0.075966 0.542361
vn 0.000000 0.138712 -0.990333
vn -0.000000 -0.138712 0.990333
s 1
g group5 pCylinder14
f 17/59/51 18/60/52 30/72/53 29/71/54
f 18/60/52 19/61/55 31/73/56 30/72/53
f 19/61/55 20/62/57 32/74/58 31/73/56
f 20/62/57 21/63/59 33/75/60 32/74/58
f 21/63/59 22/64/61 34/76/62 33/75/60
f 22/64/61 23/65/63 35/77/64 34/76/62
f 23/65/63 24/66/65 36/78/66 35/77/64
f 24/66/65 25/67/67 37/79/68 36/78/66
f 25/67/67 26/68/69 38/80/70 37/79/68
f 26/68/69 27/69/71 39/81/72 38/80/70
f 27/69/71 28/70/73 40/82/74 39/81/72
f 28/70/73 17/59/51 29/71/54 40/82/74
f 29/83/54 30/84/53 42/97/75 41/96/76
f 30/84/53 31/85/56 43/98/77 42/97/75
f 31/85/56 32/86/58 44/99/78 43/98/77
f 32/86/58 33/87/60 45/100/79 44/99/78
f 33/87/60 34/88/62 46/101/80 45/100/79
f 34/88/62 35/89/64 47/102/81 46/101/80
f 35/89/64 36/90/66 48/103/82 47/102/81
f 36/90/66 37/91/68 49/104/83 48/103/82
f 37/91/68 38/92/70 50/105/84 49/104/83
f 38/92/70 39/93/72 51/106/85 50/105/84
f 39/93/72 40/94/74 52/107/86 51/106/85
f 40/94/74 29/95/54 41/108/76 52/107/86
f 41/119/76 42/118/75 54/130/87 53/131/88
f 42/118/75 43/117/77 55/129/89 54/130/87
f 43/117/77 44/116/78 56/128/90 55/129/89
f 44/116/78 45/115/79 57/127/91 56/128/90
f 45/115/79 46/114/80 58/126/92 57/127/91
f 46/114/80 47/113/81 59/125/93 58/126/92
f 47/113/81 48/112/82 60/124/94 59/125/93
f 48/112/82 49/111/83 61/123/95 60/124/94
f 49/111/83 50/110/84 62/122/96 61/123/95
f 50/110/84 51/109/85 63/121/97 62/122/96
f 51/109/85 52/120/86 64/132/98 63/121/97
f 52/120/86 41/119/76 53/131/88 64/132/98
f 18/60/52 17/59/51 65/133/99
f 19/61/55 18/60/52 65/133/99
f 20/62/57 19/61/55 65/133/99
f 21/63/59 20/62/57 65/133/99
f 22/64/61 21/63/59 65/133/99
f 23/65/63 22/64/61 65/133/99
f 24/66/65 23/65/63 65/133/99
f 25/67/67 24/66/65 65/133/99
f 26/68/69 25/67/67 65/133/99
f 27/69/71 26/68/69 65/133/99
f 28/70/73 27/69/71 65/133/99
f 17/59/51 28/70/73 65/133/99
f 53/131/88 54/130/87 66/134/100
f 54/130/87 55/129/89 66/134/100
f 55/129/89 56/128/90 66/134/100
f 56/128/90 57/127/91 66/134/100
f 57/127/91 58/126/92 66/134/100
f 58/126/92 59/125/93 66/134/100
f 59/125/93 60/124/94 66/134/100
f 60/124/94 61/123/95 66/134/100
f 61/123/95 62/122/96 66/134/100
f 62/122/96 63/121/97 66/134/100
f 63/121/97 64/132/98 66/134/100
f 64/132/98 53/131/88 66/134/100
g default
v 5.756300 3.032749 -6.088635
v 3.323402 3.454070 -8.484775
v -0.000000 3.608284 -9.361823
v -3.323402 3.454070 -8.484775
v -5.756300 3.032749 -6.088635
v -6.646803 2.457214 -2.815447
v -5.756300 1.881679 0.457740
v -3.323402 1.460358 2.853880
v 0.000000 1.306144 3.730928
v 3.323402 1.460358 2.853880
v 5.756300 1.881679 0.457740
v 6.646803 2.457214 -2.815447
v 8.140638 9.817519 -6.293364
v 4.700000 10.413357 -9.682017
v 0.000000 10.631448 -10.922351
v -4.700000 10.413357 -9.682017
v -8.140638 9.817519 -6.293364
v -9.400000 9.003590 -1.664377
v -8.140638 8.189660 2.964609
v -4.700000 7.593822 6.353262
v 0.000000 7.375731 7.593596
v 4.700000 7.593822 6.353262
v 8.140638 8.189660 2.964609
v 9.400000 9.003590 -1.664377
v 8.140638 16.514777 -5.115764
v 4.700000 17.110614 -8.504417
v 0.000000 17.328706 -9.744751
v -4.700000 17.110614 -8.504417
v -8.140638 16.514777 -5.115764
v -9.400000 15.700847 -0.486777
v -8.140638 14.886918 4.142209
v -4.700000 14.291080 7.530863
v 0.000000 14.072988 8.771196
v 4.700000 14.291080 7.530863
v 8.140638 14.886918 4.142209
v 9.400000 15.700847 -0.486777
v 5.756300 22.822758 -2.608895
v 3.323402 23.244079 -5.005035
v -0.000000 23.398293 -5.882083
v -3.323402 23.244079 -5.005035
v -5.756300 22.822758 -2.608895
v -6.646803 22.247223 0.664293
v -5.756300 21.671688 3.937481
v -3.323402 21.250367 6.333620
v 0.000000 21.096153 7.210668
v 3.323402 21.250367 6.333620
v 5.756300 21.671688 3.937481
v 6.646803 22.247223 0.664293
v 0.000000 -0.254383 -3.292236
v 0.000000 24.958820 1.141082
vt 0.567658 0.117188
vt 0.539063 0.088592
vt 0.500000 0.078125
vt 0.460938 0.088592
vt 0.432342 0.117188
vt 0.421875 0.156250
vt 0.432342 0.195313
vt 0.460938 0.223908
vt 0.500000 0.234375
vt 0.539063 0.223908
vt 0.567658 0.195313
vt 0.578125 0.156250
vt 0.635316 0.078125
vt 0.578125 0.020934
vt 0.500000 0.000000
vt 0.421875 0.020934
vt 0.364684 0.078125
vt 0.343750 0.156250
vt 0.364684 0.234375
vt 0.421875 0.291566
vt 0.500000 0.312500
vt 0.578125 0.291566
vt 0.635316 0.234375
vt 0.656250 0.156250
vt 0.375000 0.312500
vt 0.395833 0.312500
vt 0.416667 0.312500
vt 0.437500 0.312500
vt 0.458333 0.312500
vt 0.479167 0.312500
vt 0.500000 0.312500
vt 0.520833 0.312500
vt 0.541667 0.312500
vt 0.562500 0.312500
vt 0.583333 0.312500
vt 0.604167 0.312500
vt 0.625000 0.312500
vt 0.375000 0.688440
vt 0.395833 0.688440
vt 0.416667 0.688440
vt 0.437500 0.688440
vt 0.458333 0.688440
vt 0.479167 0.688440
vt 0.500000 0.688440
vt 0.520833 0.688440
vt 0.541667 0.688440
vt 0.562500 0.688440
vt 0.583333 0.688440
vt 0.604167 0.688440
vt 0.625000 0.688440
vt 0.635316 0.765625
vt 0.578125 0.708434
vt 0.500000 0.687500
vt 0.421875 0.708434
vt 0.364684 0.765625
vt 0.343750 0.843750
vt 0.364684 0.921875
vt 0.421875 0.979066
vt 0.500000 1.000000
vt 0.578125 0.979066
vt 0.635316 0.921875
vt 0.656250 0.843750
vt 0.567658 0.804688
vt 0.539063 0.776092
vt 0.500000 0.765625
vt 0.460938 0.776092
vt 0.432342 0.804688
vt 0.421875 0.843750
vt 0.432342 0.882813
vt 0.460938 0.911408
vt 0.500000 0.921875
vt 0.539063 0.911408
vt 0.567658 0.882813
vt 0.578125 0.843750
vt 0.500000 0.150000
vt 0.500000 0.837500
vn 0.724607 -0.466932 -0.506872
vn 0.418352 -0.413896 -0.808500
vn 0.491943 -0.028534 -0.870160
vn 0.852071 -0.090900 -0.515473
vn 0.000000 -0.394483 -0.918903
vn 0.000000 -0.005707 -0.999984
vn -0.418352 -0.413896 -0.808500
vn -0.491943 -0.028534 -0.870160
vn -0.724607 -0.466932 -0.506872
vn -0.852071 -0.090900 -0.515473
vn -0.836704 -0.539381 -0.094841
vn -0.983887 -0.176093 -0.030963
vn -0.724607 -0.611829 0.317190
vn -0.852071 -0.261286 0.453548
vn -0.418352 -0.664865 0.618818
vn -0.491943 -0.323651 0.808234
vn -0.000000 -0.684278 0.729221
vn -0.000000 -0.346479 0.938058
vn 0.418352 -0.664865 0.618818
vn 0.491943 -0.323651 0.808234
vn 0.724607 -0.611829 0.317190
vn 0.852071 -0.261286 0.453548
vn 0.836704 -0.539381 -0.094841
vn 0.983887 -0.176093 -0.030963
vn 0.491943 0.323651 -0.808234
vn 0.852071 0.261286 -0.453548
vn 0.000000 0.346479 -0.938058
vn -0.491943 0.323651 -0.808234
vn -0.852071 0.261286 -0.453548
vn -0.983887 0.176093 0.030963
vn -0.852071 0.090900 0.515473
vn -0.491943 0.028534 0.870160
vn 0.000000 0.005707 0.999984
vn 0.491943 0.028534 0.870160
vn 0.852071 0.090900 0.515473
vn 0.983887 0.176093 0.030963
vn 0.418352 0.664865 -0.618818
vn 0.724607 0.611829 -0.317190
vn 0.000000 0.684278 -0.729221
vn -0.418352 0.664865 -0.618818
vn -0.724607 0.611829 -0.317190
vn -0.836704 0.539381 0.094841
vn -0.724607 0.466932 0.506872
vn -0.418352 0.413896 0.808500
vn 0.000000 0.394483 0.918903
vn 0.418352 0.413896 0.808500
vn 0.724607 0.466932 0.506872
vn 0.836704 0.539381 0.094841
vn 0.000000 -0.984891 -0.173176
vn 0.000000 0.984891 0.173176
s 1
g group5 pCylinder15
f 67/135/101 68/136/102 80/148/103 79/147/104
f 68/136/102 69/137/105 81/149/106 80/148/103
f 69/137/105 70/138/107 82/150/108 81/149/106
f 70/138/107 71/139/109 83/151/110 82/150/108
f 71/139/109 72/140/111 84/152/112 83/151/110
f 72/140/111 73/141/113 85/153/114 84/152/112
f 73/141/113 74/142/115 86/154/116 85/153/114
f 74/142/115 75/143/117 87/155/118 86/154/116
f 75/143/117 76/144/119 88/156/120 87/155/118
f 76/144/119 77/145/121 89/157/122 88/156/120
f 77/145/121 78/146/123 90/158/124 89/157/122
f 78/146/123 67/135/101 79/147/104 90/158/124
f 79/159/104 80/160/103 92/173/125 91/172/126
f 80/160/103 81/161/106 93/174/127 92/173/125
f 81/161/106 82/162/108 94/175/128 93/174/127
f 82/162/108 83/163/110 95/176/129 94/175/128
f 83/163/110 84/164/112 96/177/130 95/176/129
f 84/164/112 85/165/114 97/178/131 96/177/130
f 85/165/114 86/166/116 98/179/132 97/178/131
f 86/166/116 87/167/118 99/180/133 98/179/132
f 87/167/118 88/168/120 100/181/134 99/180/133
f 88/168/120 89/169/122 101/182/135 100/181/134
f 89/169/122 90/170/124 102/183/136 101/182/135
f 90/170/124 79/171/104 91/184/126 102/183/136
f 91/195/126 92/194/125 104/206/137 103/207/138
f 92/194/125 93/193/127 105/205/139 104/206/137
f 93/193/127 94/192/128 106/204/140 105/205/139
f 94/192/128 95/191/129 107/203/141 106/204/140
f 95/191/129 96/190/130 108/202/142 107/203/141
f 96/190/130 97/189/131 109/201/143 108/202/142
f 97/189/131 98/188/132 110/200/144 109/201/143
f 98/188/132 99/187/133 111/199/145 110/200/144
f 99/187/133 100/186/134 112/198/146 111/199/145
f 100/186/134 101/185/135 113/197/147 112/198/146
f 101/185/135 102/196/136 114/208/148 113/197/147
f 102/196/136 91/195/126 103/207/138 114/208/148
f 68/136/102 67/135/101 115/209/149
f 69/137/105 68/136/102 115/209/149
f 70/138/107 69/137/105 115/209/149
f 71/139/109 70/138/107 115/209/149
f 72/140/111 71/139/109 115/209/149
f 73/141/113 72/140/111 115/209/149
f 74/142/115 73/141/113 115/209/149
f 75/143/117 74/142/115 115/209/149
f 76/144/119 75/143/117 115/209/149
f 77/145/121 76/144/119 115/209/149
f 78/146/123 77/145/121 115/209/149
f 67/135/101 78/146/123 115/209/149
f 103/207/138 104/206/137 116/210/150
f 104/206/137 105/205/139 116/210/150
f 105/205/139 106/204/140 116/210/150
f 106/204/140 107/203/141 116/210/150
f 107/203/141 108/202/142 116/210/150
f 108/202/142 109/201/143 116/210/150
f 109/201/143 110/200/144 116/210/150
f 110/200/144 111/199/145 116/210/150
f 111/199/145 112/198/146 116/210/150
f 112/198/146 113/197/147 116/210/150
f 113/197/147 114/208/148 116/210/150
f 114/208/148 103/207/138 116/210/150
g default
v 6.171747 3.859415 -4.907891
v -6.171745 3.859415 -4.907891
v -9.797353 3.859415 8.414639
v -0.000000 3.859415 14.086788
v 9.797353 3.859415 8.414639
v 6.171747 8.126081 -4.907891
v -6.171745 8.126081 -4.907891
v -9.797353 8.126081 8.414639
v -0.000000 8.126081 14.086788
v 9.797353 8.126081 8.414639
v 0.000000 3.859415 3.586788
v 0.000000 8.126081 3.586788
vt 0.548284 0.007647
vt 0.373591 0.064409
vt 0.373591 0.248091
vt 0.548284 0.304853
vt 0.656250 0.156250
vt 0.375000 0.312500
vt 0.425000 0.312500
vt 0.475000 0.312500
vt 0.525000 0.312500
vt 0.575000 0.312500
vt 0.625000 0.312500
vt 0.375000 0.688440
vt 0.425000 0.688440
vt 0.475000 0.688440
vt 0.525000 0.688440
vt 0.575000 0.688440
vt 0.625000 0.688440
vt 0.548284 0.695147
vt 0.373591 0.751909
vt 0.373591 0.935591
vt 0.548284 0.992353
vt 0.656250 0.843750
vt 0.500000 0.150000
vt 0.500000 0.837500
vn 0.000000 0.000000 -1.000000
vn 0.000000 0.000000 -1.000000
vn 0.000000 0.000000 -1.000000
vn 0.000000 0.000000 -1.000000
vn -0.964907 0.000000 -0.262591
vn -0.964907 0.000000 -0.262591
vn -0.964907 0.000000 -0.262591
vn -0.964907 0.000000 -0.262591
vn -0.501036 0.000000 0.865426
vn -0.501036 0.000000 0.865426
vn -0.501036 0.000000 0.865426
vn -0.501036 0.000000 0.865426
vn 0.501036 0.000000 0.865426
vn 0.501036 0.000000 0.865426
vn 0.501036 0.000000 0.865426
vn 0.501036 0.000000 0.865426
vn 0.964907 0.000000 -0.262591
vn 0.964907 0.000000 -0.262591
vn 0.964907 0.000000 -0.262591
vn 0.964907 0.000000 -0.262591
vn 0.000000 -1.000000 0.000000
vn -0.000000 -1.000000 0.000000
vn -0.000000 -1.000000 0.000000
vn 0.000000 -1.000000 -0.000000
vn 0.000000 -1.000000 -0.000000
vn -0.000000 -1.000000 0.000000
vn 0.000000 1.000000 -0.000000
vn 0.000000 1.000000 -0.000000
vn 0.000000 1.000000 -0.000000
vn 0.000000 1.000000 0.000000
vn -0.000000 1.000000 0.000000
vn -0.000000 1.000000 0.000000
s off
g group5 pCylinder13
f 117/216/151 118/217/152 123/223/153 122/222/154
f 118/217/155 119/218/156 124/224/157 123/223/158
f 119/218/159 120/219/160 125/225/161 124/224/162
f 120/219/163 121/220/164 126/226/165 125/225/166
f 121/220/167 117/221/168 122/227/169 126/226/170
s 1
f 118/212/171 117/211/172 127/233/173
f 119/213/174 118/212/171 127/233/173
f 120/214/175 119/213/174 127/233/173
f 121/215/176 120/214/175 127/233/173
f 117/211/172 121/215/176 127/233/173
s 2
f 122/231/177 123/230/178 128/234/179
f 123/230/178 124/229/180 128/234/179
f 124/229/180 125/228/181 128/234/179
f 125/228/181 126/232/182 128/234/179
f 126/232/182 122/231/177 128/234/179
g default
v -17.296796 -0.007061 -9.937195
v -0.000001 -0.007061 20.021736
v 17.296795 -0.007061 -9.937192
v -17.296796 3.934550 -9.937195
v -0.000001 3.934550 20.021736
v 17.296795 3.934550 -9.937192
v 0.000000 -0.007061 0.049117
v 0.000000 3.934550 0.049117
vt 0.421875 0.020934
vt 0.421875 0.291566
vt 0.656250 0.156250
vt 0.375000 0.312500
vt 0.458333 0.312500
vt 0.541667 0.312500
vt 0.625000 0.312500
vt 0.375000 0.688440
vt 0.458333 0.688440
vt 0.541667 0.688440
vt 0.625000 0.688440
vt 0.421875 0.708434
vt 0.421875 0.979066
vt 0.656250 0.843750
vt 0.500000 0.150000
vt 0.500000 0.837500
vn -0.866025 0.000000 0.500000
vn -0.866025 0.000000 0.500000
vn -0.866025 0.000000 0.500000
vn -0.866025 0.000000 0.500000
vn 0.866025 0.000000 0.500000
vn 0.866025 0.000000 0.500000
vn 0.866025 0.000000 0.500000
vn 0.866025 0.000000 0.500000
vn 0.000000 0.000000 -1.000000
vn 0.000000 0.000000 -1.000000
vn 0.000000 0.000000 -1.000000
vn 0.000000 0.000000 -1.000000
vn 0.000000 -1.000000 0.000000
vn -0.000000 -1.000000 -0.000000
vn -0.000000 -1.000000 -0.000000
vn -0.000000 -1.000000 -0.000000
vn 0.000000 1.000000 0.000000
vn -0.000000 1.000000 -0.000000
vn -0.000000 1.000000 -0.000000
vn -0.000000 1.000000 -0.000000
s off
g group5 pCylinder10
f 129/238/183 130/239/184 133/243/185 132/242/186
f 130/239/187 131/240/188 134/244/189 133/243/190
f 131/240/191 129/241/192 132/245/193 134/244/194
s 1
f 130/236/195 129/235/196 135/249/197
f 131/237/198 130/236/195 135/249/197
f 129/235/196 131/237/198 135/249/197
s 2
f 132/247/199 133/246/200 136/250/201
f 133/246/200 134/248/202 136/250/201
f 134/248/202 132/247/199 136/250/201
