# This file uses centimeters as units for non-parametric coordinates.

g default
v -2.654892 3.512707 2.486530
v 2.654892 3.512707 2.486530
v -2.654892 7.132920 2.486530
v 2.654892 7.132920 2.486530
v -2.654892 7.132920 1.321854
v 2.654892 7.132920 1.321854
v -2.654892 3.512707 1.321854
v 2.654892 3.512707 1.321854
vt 0.375000 0.000000
vt 0.625000 0.000000
vt 0.375000 0.250000
vt 0.625000 0.250000
vt 0.375000 0.500000
vt 0.625000 0.500000
vt 0.375000 0.750000
vt 0.625000 0.750000
vt 0.375000 1.000000
vt 0.625000 1.000000
vt 0.875000 0.000000
vt 0.875000 0.250000
vt 0.125000 0.000000
vt 0.125000 0.250000
vn 0.000000 0.000000 1.000000
vn 0.000000 0.000000 1.000000
vn 0.000000 0.000000 1.000000
vn 0.000000 0.000000 1.000000
vn 0.000000 1.000000 0.000000
vn 0.000000 1.000000 0.000000
vn 0.000000 1.000000 0.000000
vn 0.000000 1.000000 0.000000
vn 0.000000 0.000000 -1.000000
vn 0.000000 0.000000 -1.000000
vn 0.000000 0.000000 -1.000000
vn 0.000000 0.000000 -1.000000
vn 0.000000 -1.000000 0.000000
vn 0.000000 -1.000000 0.000000
vn 0.000000 -1.000000 0.000000
vn 0.000000 -1.000000 0.000000
vn 1.000000 0.000000 0.000000
vn 1.000000 0.000000 0.000000
vn 1.000000 0.000000 0.000000
vn 1.000000 0.000000 0.000000
vn -1.000000 0.000000 0.000000
vn -1.000000 0.000000 0.000000
vn -1.000000 0.000000 0.000000
vn -1.000000 0.000000 0.000000
s off
g pCube2
f 1/1/1 2/2/2 4/4/3 3/3/4
f 3/3/5 4/4/6 6/6/7 5/5/8
f 5/5/9 6/6/10 8/8/11 7/7/12
f 7/7/13 8/8/14 2/10/15 1/9/16
f 2/2/17 8/11/18 6/12/19 4/4/20
f 7/13/21 1/1/22 3/3/23 5/14/24
g default
v -2.709883 -0.001188 1.654914
v 2.709883 -0.001188 1.654914
v -2.709883 3.625504 1.654914
v 2.709883 3.625504 1.654914
v 0.000000 3.625504 -2.751597
v 0.000000 -0.001188 -2.751597
vt 0.375000 0.000000
vt 0.625000 0.000000
vt 0.375000 0.250000
vt 0.625000 0.250000
vt 0.500000 0.500000
vt 0.500000 0.750000
vt 0.375000 1.000000
vt 0.625000 1.000000
vt 0.875000 0.000000
vt 0.875000 0.250000
vt 0.125000 0.000000
vt 0.125000 0.250000
vn 0.000000 0.000000 1.000000
vn 0.000000 0.000000 1.000000
vn 0.000000 0.000000 1.000000
vn 0.000000 0.000000 1.000000
vn 0.000000 1.000000 0.000000
vn 0.000000 1.000000 0.000000
vn 0.000000 1.000000 0.000000
vn 0.000000 -1.000000 0.000000
vn 0.000000 -1.000000 0.000000
vn 0.000000 -1.000000 0.000000
vn 0.851815 0.000000 -0.523843
vn 0.851815 0.000000 -0.523843
vn 0.851815 0.000000 -0.523843
vn 0.851815 0.000000 -0.523843
vn -0.851815 0.000000 -0.523843
vn -0.851815 0.000000 -0.523843
vn -0.851815 0.000000 -0.523843
vn -0.851815 0.000000 -0.523843
s off
g pCube1
f 9/15/25 10/16/26 12/18/27 11/17/28
f 11/17/29 12/18/30 13/19/31
f 14/20/32 10/22/33 9/21/34
f 10/16/35 14/23/36 13/24/37 12/18/38
f 14/25/39 9/15/40 11/17/41 13/26/42
