# This file uses centimeters as units for non-parametric coordinates.

mtllib Icicles03COL.mtl
g default
v -1.152052 0.000000 -1.995414
v -1.152053 0.000000 1.995414
v 2.304105 0.000000 0.000000
v 0.000000 -16.860882 0.000000
vt 0.745605 0.693438
vt 0.863352 0.694043
vt 0.979312 0.673633
vt 0.629844 0.671829
vt 0.808112 0.047075
vn -0.495509 -0.133733 0.858246
vn -0.495509 -0.133733 -0.858246
vn -0.495496 -0.133933 0.858223
vn 0.991017 -0.133733 0.000000
vn -0.495509 -0.133733 0.858246
vn 0.990991 -0.133931 0.000000
vn -0.495509 -0.133733 -0.858246
vn 0.991017 -0.133733 0.000000
vn -0.495494 -0.133932 -0.858224
vn 0.991017 -0.133733 0.000000
vn 0.990991 -0.133931 0.000000
vn -0.495494 -0.133932 -0.858224
vn 0.000000 -1.000000 0.000011
vn -0.495494 -0.133932 -0.858224
vn 0.990991 -0.133931 0.000000
vn 0.000000 -1.000000 0.000011
vn 0.990991 -0.133931 0.000000
vn -0.495496 -0.133933 0.858223
vn -0.495494 -0.133932 -0.858224
vn 0.000000 -1.000000 0.000011
vn -0.495496 -0.133933 0.858223
s off
g Icicles03:pCylinder7
usemtl lambert2SG
f 2/2/1 1/1/2 4/5/3
f 3/3/4 2/2/5 4/5/6
f 1/1/7 3/4/8 4/5/9
