# This file uses centimeters as units for non-parametric coordinates.

mtllib Icicles02COL.mtl
g default
v -1.739123 0.000000 -3.402238
v 4.553082 0.000000 -2.102699
v 4.952712 0.000000 2.300261
v -1.739122 0.000000 3.402238
v -5.727893 0.000000 -1.398325
v -0.000000 -15.107189 0.000000
vt 0.250000 0.500000
vt 0.350000 0.500000
vt 0.450000 0.500000
vt 0.550000 0.500000
vt 0.650000 0.500000
vt 0.750000 0.500000
vt 0.500000 1.000000
vn 0.198439 -0.193538 -0.960815
vn 0.198439 -0.193538 -0.960815
vn 0.198439 -0.193538 -0.960815
vn 0.950510 -0.298477 -0.086272
vn 0.950510 -0.298477 -0.086272
vn 0.950510 -0.298477 -0.086272
vn 0.159223 -0.199421 0.966892
vn 0.159223 -0.199421 0.966892
vn 0.159223 -0.199421 0.966892
vn -0.749166 -0.226429 0.622479
vn -0.749166 -0.226429 0.622479
vn -0.749166 -0.226429 0.622479
vn -0.435216 -0.245197 -0.866294
vn -0.435216 -0.245197 -0.866294
vn -0.435216 -0.245197 -0.866294
s off
g pCone1
usemtl lambert2SG
f 1/1/1 2/2/2 6/7/3
f 2/2/4 3/3/5 6/7/6
f 3/3/7 4/4/8 6/7/9
f 4/4/10 5/5/11 6/7/12
f 5/5/13 1/6/14 6/7/15
