# This file uses centimeters as units for non-parametric coordinates.

mtllib mountainHookRock.mtl
g default
v -1.846376 -1.598862 1.606997
v 1.942323 -1.598862 1.606997
v -1.848223 1.924861 1.602663
v 1.730731 1.802662 1.568070
v -1.450151 1.385108 -1.516579
v 1.937260 1.900658 -2.158810
v -1.848223 -1.858633 -2.189639
v 1.944079 -1.858633 -2.189639
v 2.903116 -1.111513 0.892905
v 2.435646 1.049016 0.778759
v 1.226369 2.684770 1.048445
v -1.136650 2.690689 1.049049
v 1.232117 2.673063 -1.304442
v -0.908953 2.370811 -0.925720
v -2.578536 0.955725 -1.150992
v 2.905613 1.274576 -1.549946
v 1.232044 1.087102 -2.889443
v -0.909171 0.784778 -2.514802
v 1.234857 -1.270234 -2.911873
v -1.136650 -1.270234 -2.911873
v 0.050456 -0.186676 3.143739
v 0.050456 2.885397 0.043653
v 0.050456 -0.214689 -3.056433
v 0.050456 -2.849903 0.043653
v 3.240605 0.007772 -0.351147
v -3.240605 0.053530 -0.327867
v 0.050456 -1.232342 2.935433
v -1.229229 -0.051417 2.829534
v 1.142851 -1.863289 2.053832
v 2.288698 -0.973392 1.916033
v 1.327130 -0.051417 2.829534
v 0.050456 1.022895 2.935433
v 2.028769 1.047409 1.862131
v 1.129064 2.060423 2.050985
v -2.193402 1.181911 1.915869
v -1.044685 2.069979 2.052482
v -2.193402 2.292713 0.805067
v 0.050456 2.677091 1.281237
v -1.176132 2.836914 -0.061236
v 2.029247 2.157626 0.752255
v 1.327130 2.916883 -0.157103
v 0.100317 2.608759 -1.108690
v 2.287447 2.288497 -1.450875
v 1.138660 2.040945 -2.248958
v -1.874374 1.855504 -0.910117
v -0.736050 1.647836 -1.758967
v -1.874602 0.745327 -2.021870
v 0.100317 0.954563 -2.762886
v -1.176273 -0.145471 -3.045145
v 2.287344 1.178096 -2.560588
v 1.327130 -0.069753 -3.143739
v 0.050456 -1.452273 -2.848127
v 2.288782 -1.078669 -2.566315
v 1.143195 -2.253561 -2.285556
v -2.193402 -1.078669 -2.566315
v -1.044685 -2.253561 -2.285556
v -2.192672 -2.133463 -1.453084
v 0.050456 -2.916883 -1.193931
v -1.228547 -2.688157 -0.153850
v 2.288083 -2.133463 -1.453084
v 1.326496 -2.688157 -0.153850
v 0.050456 -2.507021 1.281237
v 2.286920 -1.939020 0.809618
v -2.191458 -1.939020 0.809618
v 3.114993 -1.240349 -0.327867
v 2.872442 -0.062883 0.925617
v 3.114993 0.053530 -1.640578
v 2.872442 1.249828 -0.387093
v -3.019653 -1.240349 -0.327867
v -2.966765 -0.018949 -1.550163
v -3.019653 0.053530 0.984843
v -2.966765 1.293761 -0.237453
v -1.136533 -1.091128 2.638799
v 0.050456 -2.010069 2.313578
v -2.811699 -1.109630 0.893863
v -2.360049 0.056544 2.079852
v -1.135985 -2.365773 1.051810
v 2.354996 0.008145 2.055620
v 1.234243 -2.365773 1.051810
v 0.050456 2.055236 2.313578
v 1.234749 -1.091128 2.638799
v 1.226369 1.095788 2.637427
v -2.262696 2.327834 -0.161438
v 2.355633 2.413371 -0.352226
v -1.136650 1.101274 2.638464
v 0.142237 1.929456 -2.069367
v -2.811699 1.275260 0.893863
v -2.811699 -1.168200 -1.549598
v -2.262696 -0.079886 -2.569157
v 2.455389 0.053530 -2.735586
v 2.907039 -1.168200 -1.549598
v 0.050456 -2.467516 -2.226272
v 1.234596 -2.705249 -1.320740
v -1.136367 -2.705249 -1.320740
v -2.359833 -2.194863 -0.327298
v 2.455183 -2.194863 -0.327298
v -1.044311 -1.863289 2.053832
v -2.193314 -0.973392 1.916033
vt 0.600451 0.291669
vt 0.666124 0.280322
vt 0.671653 0.337442
vt 0.601983 0.340954
vt 0.740220 0.279216
vt 0.737901 0.336401
vt 0.735536 0.391975
vt 0.668898 0.394883
vt 0.601713 0.397215
vt 0.811654 0.289471
vt 0.804060 0.345260
vt 0.868594 0.303553
vt 0.877019 0.350395
vt 0.874943 0.410725
vt 0.802930 0.403190
vt 0.795502 0.465986
vt 0.731085 0.455679
vt 0.858294 0.476299
vt 0.843821 0.526439
vt 0.794419 0.530554
vt 0.725605 0.524524
vt 0.665595 0.457079
vt 0.597144 0.457639
vt 0.652615 0.523198
vt 0.591292 0.511024
vt 0.612056 0.574934
vt 0.542212 0.567297
vt 0.535406 0.509602
vt 0.614408 0.649955
vt 0.543814 0.634432
vt 0.476056 0.620243
vt 0.484715 0.558861
vt 0.489012 0.504320
vt 0.580299 0.714876
vt 0.514084 0.694745
vt 0.542926 0.756035
vt 0.488869 0.742573
vt 0.429428 0.731789
vt 0.451704 0.681347
vt 0.393095 0.667043
vt 0.412473 0.609073
vt 0.375765 0.721552
vt 0.327877 0.708627
vt 0.329495 0.656385
vt 0.346057 0.595389
vt 0.431799 0.555504
vt 0.441658 0.499180
vt 0.368908 0.539000
vt 0.390897 0.492749
vt 0.346011 0.515067
vt 0.327580 0.450783
vt 0.383282 0.439747
vt 0.291022 0.536121
vt 0.272930 0.469943
vt 0.260824 0.403735
vt 0.322850 0.393770
vt 0.376317 0.388422
vt 0.232444 0.551168
vt 0.212349 0.488438
vt 0.183889 0.556612
vt 0.153847 0.511727
vt 0.129415 0.447357
vt 0.194135 0.425499
vt 0.185275 0.358169
vt 0.249295 0.333817
vt 0.123122 0.377610
vt 0.129213 0.321180
vt 0.175020 0.290730
vt 0.238981 0.264232
vt 0.315681 0.335648
vt 0.371233 0.341304
vt 0.310238 0.267765
vt 0.370166 0.287085
vt 0.362959 0.225633
vt 0.426165 0.219385
vt 0.422442 0.283593
vt 0.367702 0.152737
vt 0.433862 0.152619
vt 0.502651 0.153931
vt 0.490121 0.222799
vt 0.481232 0.283874
vt 0.366062 0.083095
vt 0.428383 0.085424
vt 0.370327 0.028690
vt 0.420711 0.016359
vt 0.488960 0.010784
vt 0.494708 0.082260
vt 0.566260 0.088019
vt 0.575193 0.157867
vt 0.559606 0.020340
vt 0.613183 0.037453
vt 0.632426 0.091904
vt 0.642983 0.161333
vt 0.560200 0.226544
vt 0.542655 0.287673
vt 0.628272 0.232433
vt 0.505795 0.985315
vt 0.448450 0.989053
vt 0.456519 0.930496
vt 0.524643 0.941181
vt 0.376487 0.986164
vt 0.389737 0.922512
vt 0.402244 0.858055
vt 0.471805 0.874526
vt 0.544102 0.882042
vt 0.308988 0.969770
vt 0.324337 0.905921
vt 0.260881 0.948762
vt 0.257595 0.891851
vt 0.266906 0.821944
vt 0.336565 0.839969
vt 0.356210 0.777724
vt 0.415172 0.792449
vt 0.292841 0.755320
vt 0.481994 0.807118
vt 0.550215 0.812334
vt 0.426214 0.338711
vt 0.483034 0.337119
vt 0.483322 0.394914
vt 0.429182 0.390957
vt 0.541505 0.339347
vt 0.542360 0.395204
vt 0.538930 0.453226
vt 0.487171 0.450237
vt 0.439601 0.441334
vn -0.544332 -0.646281 0.534811
vn -0.339013 -0.734847 0.587427
vn -0.402185 -0.373097 0.836090
vn -0.680559 -0.344025 0.646906
vn -0.339013 -0.734847 0.587427
vn -0.000008 -0.777572 0.628794
vn -0.000012 -0.407452 0.913227
vn -0.402185 -0.373097 0.836090
vn -0.402185 -0.373097 0.836090
vn -0.000012 -0.407452 0.913227
vn 0.000038 -0.011952 0.999929
vn -0.408443 0.001103 0.912783
vn -0.680559 -0.344025 0.646906
vn -0.402185 -0.373097 0.836090
vn -0.408443 0.001103 0.912783
vn -0.719270 0.005762 0.694707
vn -0.000008 -0.777572 0.628794
vn 0.339760 -0.734643 0.587251
vn 0.407834 -0.367399 0.835876
vn -0.000012 -0.407452 0.913227
vn 0.339760 -0.734643 0.587251
vn 0.545517 -0.645692 0.534315
vn 0.712322 -0.297741 0.635568
vn 0.407834 -0.367399 0.835876
vn 0.407834 -0.367399 0.835876
vn 0.712322 -0.297741 0.635568
vn 0.776866 0.111727 0.619674
vn 0.433587 0.024565 0.900777
vn -0.000012 -0.407452 0.913227
vn 0.407834 -0.367399 0.835876
vn 0.433587 0.024565 0.900777
vn 0.000038 -0.011952 0.999929
vn 0.000038 -0.011952 0.999929
vn 0.433587 0.024565 0.900777
vn 0.403758 0.349142 0.845623
vn 0.000827 0.330755 0.943716
vn 0.433587 0.024565 0.900777
vn 0.776866 0.111727 0.619674
vn 0.760598 0.359369 0.540690
vn 0.403758 0.349142 0.845623
vn 0.403758 0.349142 0.845623
vn 0.760598 0.359369 0.540690
vn 0.716464 0.497295 0.489261
vn 0.335898 0.672647 0.659332
vn 0.000827 0.330755 0.943716
vn 0.403758 0.349142 0.845623
vn 0.335898 0.672647 0.659332
vn 0.002503 0.688466 0.725264
vn -0.719270 0.005762 0.694707
vn -0.408443 0.001103 0.912783
vn -0.356945 0.331426 0.873354
vn -0.671570 0.321930 0.667349
vn -0.408443 0.001103 0.912783
vn 0.000038 -0.011952 0.999929
vn 0.000827 0.330755 0.943716
vn -0.356945 0.331426 0.873354
vn -0.356945 0.331426 0.873354
vn 0.000827 0.330755 0.943716
vn 0.002503 0.688466 0.725264
vn -0.269368 0.683601 0.678329
vn -0.671570 0.321930 0.667349
vn -0.356945 0.331426 0.873354
vn -0.269368 0.683601 0.678329
vn -0.541363 0.602387 0.586563
vn -0.541363 0.602387 0.586563
vn -0.269368 0.683601 0.678329
vn -0.219541 0.922864 0.316423
vn -0.632423 0.725965 0.270214
vn -0.269368 0.683601 0.678329
vn 0.002503 0.688466 0.725264
vn -0.002458 0.931191 0.364523
vn -0.219541 0.922864 0.316423
vn -0.219541 0.922864 0.316423
vn -0.002458 0.931191 0.364523
vn -0.050459 0.998190 -0.032720
vn -0.241487 0.957582 -0.157229
vn -0.632423 0.725965 0.270214
vn -0.219541 0.922864 0.316423
vn -0.241487 0.957582 -0.157229
vn -0.624476 0.747966 -0.224892
vn 0.002503 0.688466 0.725264
vn 0.335898 0.672647 0.659332
vn 0.274164 0.895120 0.351559
vn -0.002458 0.931191 0.364523
vn 0.335898 0.672647 0.659332
vn 0.716464 0.497295 0.489261
vn 0.737395 0.568845 0.364231
vn 0.274164 0.895120 0.351559
vn 0.274164 0.895120 0.351559
vn 0.737395 0.568845 0.364231
vn 0.725556 0.680325 0.103567
vn 0.209617 0.977690 0.013531
vn -0.002458 0.931191 0.364523
vn 0.274164 0.895120 0.351559
vn 0.209617 0.977690 0.013531
vn -0.050459 0.998190 -0.032720
vn -0.050459 0.998190 -0.032720
vn 0.209617 0.977690 0.013531
vn 0.078670 0.926463 -0.368072
vn -0.177506 0.886906 -0.426485
vn 0.209617 0.977690 0.013531
vn 0.725556 0.680325 0.103567
vn 0.621182 0.725759 -0.295646
vn 0.078670 0.926463 -0.368072
vn 0.078670 0.926463 -0.368072
vn 0.621182 0.725759 -0.295646
vn 0.389921 0.649357 -0.652915
vn -0.020447 0.706105 -0.707812
vn -0.177506 0.886906 -0.426485
vn 0.078670 0.926463 -0.368072
vn -0.020447 0.706105 -0.707812
vn -0.259046 0.684723 -0.681212
vn -0.624476 0.747966 -0.224892
vn -0.241487 0.957582 -0.157229
vn -0.292374 0.788746 -0.540737
vn -0.471390 0.640873 -0.605866
vn -0.241487 0.957582 -0.157229
vn -0.050459 0.998190 -0.032720
vn -0.177506 0.886906 -0.426485
vn -0.292374 0.788746 -0.540737
vn -0.292374 0.788746 -0.540737
vn -0.177506 0.886906 -0.426485
vn -0.259046 0.684723 -0.681212
vn -0.370695 0.657506 -0.655951
vn -0.471390 0.640873 -0.605866
vn -0.292374 0.788746 -0.540737
vn -0.370695 0.657506 -0.655951
vn -0.412196 0.644859 -0.643623
vn -0.412196 0.644859 -0.643623
vn -0.370695 0.657506 -0.655951
vn -0.290572 0.550415 -0.782695
vn -0.471347 0.607220 -0.639622
vn -0.370695 0.657506 -0.655951
vn -0.259046 0.684723 -0.681212
vn -0.191882 0.436323 -0.879092
vn -0.290572 0.550415 -0.782695
vn -0.290572 0.550415 -0.782695
vn -0.191882 0.436323 -0.879092
vn -0.064007 0.049666 -0.996713
vn -0.216702 0.181146 -0.959284
vn -0.471347 0.607220 -0.639622
vn -0.290572 0.550415 -0.782695
vn -0.216702 0.181146 -0.959284
vn -0.610875 0.244737 -0.752951
vn -0.259046 0.684723 -0.681212
vn -0.020447 0.706105 -0.707812
vn 0.042154 0.374955 -0.926084
vn -0.191882 0.436323 -0.879092
vn -0.020447 0.706105 -0.707812
vn 0.389921 0.649357 -0.652915
vn 0.570234 0.348988 -0.743667
vn 0.042154 0.374955 -0.926084
vn 0.042154 0.374955 -0.926084
vn 0.570234 0.348988 -0.743667
vn 0.639706 0.010296 -0.768551
vn 0.125492 0.014532 -0.991988
vn -0.191882 0.436323 -0.879092
vn 0.042154 0.374955 -0.926084
vn 0.125492 0.014532 -0.991988
vn -0.064007 0.049666 -0.996713
vn -0.064007 0.049666 -0.996713
vn 0.125492 0.014532 -0.991988
vn 0.154167 -0.340716 -0.927440
vn -0.007634 -0.362147 -0.932090
vn 0.125492 0.014532 -0.991988
vn 0.639706 0.010296 -0.768551
vn 0.608818 -0.323188 -0.724493
vn 0.154167 -0.340716 -0.927440
vn 0.154167 -0.340716 -0.927440
vn 0.608818 -0.323188 -0.724493
vn 0.502331 -0.625392 -0.597117
vn 0.209115 -0.723214 -0.658204
vn -0.007634 -0.362147 -0.932090
vn 0.154167 -0.340716 -0.927440
vn 0.209115 -0.723214 -0.658204
vn 0.000003 -0.766103 -0.642718
vn -0.610875 0.244737 -0.752951
vn -0.216702 0.181146 -0.959284
vn -0.170372 -0.311693 -0.934784
vn -0.614372 -0.264348 -0.743416
vn -0.216702 0.181146 -0.959284
vn -0.064007 0.049666 -0.996713
vn -0.007634 -0.362147 -0.932090
vn -0.170372 -0.311693 -0.934784
vn -0.170372 -0.311693 -0.934784
vn -0.007634 -0.362147 -0.932090
vn 0.000003 -0.766103 -0.642718
vn -0.208615 -0.723305 -0.658263
vn -0.614372 -0.264348 -0.743416
vn -0.170372 -0.311693 -0.934784
vn -0.208615 -0.723305 -0.658263
vn -0.501473 -0.625779 -0.597433
vn -0.501473 -0.625779 -0.597433
vn -0.208615 -0.723305 -0.658263
vn -0.277517 -0.939926 -0.198807
vn -0.625265 -0.732861 -0.268252
vn -0.208615 -0.723305 -0.658263
vn 0.000003 -0.766103 -0.642718
vn -0.000002 -0.987081 -0.160220
vn -0.277517 -0.939926 -0.198807
vn -0.277517 -0.939926 -0.198807
vn -0.000002 -0.987081 -0.160220
vn -0.000001 -0.986734 0.162348
vn -0.294299 -0.947364 0.126050
vn -0.625265 -0.732861 -0.268252
vn -0.277517 -0.939926 -0.198807
vn -0.294299 -0.947364 0.126050
vn -0.642524 -0.764244 0.055616
vn 0.000003 -0.766103 -0.642718
vn 0.209115 -0.723214 -0.658204
vn 0.278130 -0.939749 -0.198787
vn -0.000002 -0.987081 -0.160220
vn 0.209115 -0.723214 -0.658204
vn 0.502331 -0.625392 -0.597117
vn 0.625874 -0.732353 -0.268218
vn 0.278130 -0.939749 -0.198787
vn 0.278130 -0.939749 -0.198787
vn 0.625874 -0.732353 -0.268218
vn 0.643177 -0.763691 0.055671
vn 0.294910 -0.947178 0.126023
vn -0.000002 -0.987081 -0.160220
vn 0.278130 -0.939749 -0.198787
vn 0.294910 -0.947178 0.126023
vn -0.000001 -0.986734 0.162348
vn -0.000001 -0.986734 0.162348
vn 0.294910 -0.947178 0.126023
vn 0.296926 -0.889480 0.347362
vn -0.000002 -0.933120 0.359565
vn 0.294910 -0.947178 0.126023
vn 0.643177 -0.763691 0.055671
vn 0.598634 -0.728458 0.333145
vn 0.296926 -0.889480 0.347362
vn 0.296926 -0.889480 0.347362
vn 0.598634 -0.728458 0.333145
vn 0.545517 -0.645692 0.534315
vn 0.339760 -0.734643 0.587251
vn -0.000002 -0.933120 0.359565
vn 0.296926 -0.889480 0.347362
vn 0.339760 -0.734643 0.587251
vn -0.000008 -0.777572 0.628794
vn -0.642524 -0.764244 0.055616
vn -0.294299 -0.947364 0.126050
vn -0.296274 -0.889672 0.347428
vn -0.597793 -0.729145 0.333153
vn -0.294299 -0.947364 0.126050
vn -0.000001 -0.986734 0.162348
vn -0.000002 -0.933120 0.359565
vn -0.296274 -0.889672 0.347428
vn -0.296274 -0.889672 0.347428
vn -0.000002 -0.933120 0.359565
vn -0.000008 -0.777572 0.628794
vn -0.339013 -0.734847 0.587427
vn -0.597793 -0.729145 0.333153
vn -0.296274 -0.889672 0.347428
vn -0.339013 -0.734847 0.587427
vn -0.544332 -0.646281 0.534811
vn 0.545517 -0.645692 0.534315
vn 0.598634 -0.728458 0.333145
vn 0.892021 -0.292016 0.345001
vn 0.712322 -0.297741 0.635568
vn 0.598634 -0.728458 0.333145
vn 0.643177 -0.763691 0.055671
vn 0.942392 -0.332656 0.035190
vn 0.892021 -0.292016 0.345001
vn 0.892021 -0.292016 0.345001
vn 0.942392 -0.332656 0.035190
vn 0.990147 0.099508 0.098524
vn 0.925089 0.153417 0.347381
vn 0.712322 -0.297741 0.635568
vn 0.892021 -0.292016 0.345001
vn 0.925089 0.153417 0.347381
vn 0.776866 0.111727 0.619674
vn 0.643177 -0.763691 0.055671
vn 0.625874 -0.732353 -0.268218
vn 0.887329 -0.334433 -0.317493
vn 0.942392 -0.332656 0.035190
vn 0.625874 -0.732353 -0.268218
vn 0.502331 -0.625392 -0.597117
vn 0.608818 -0.323188 -0.724493
vn 0.887329 -0.334433 -0.317493
vn 0.887329 -0.334433 -0.317493
vn 0.608818 -0.323188 -0.724493
vn 0.639706 0.010296 -0.768551
vn 0.950814 0.025958 -0.308673
vn 0.942392 -0.332656 0.035190
vn 0.887329 -0.334433 -0.317493
vn 0.950814 0.025958 -0.308673
vn 0.990147 0.099508 0.098524
vn 0.990147 0.099508 0.098524
vn 0.950814 0.025958 -0.308673
vn 0.901115 0.345891 -0.261442
vn 0.924271 0.346642 0.159881
vn 0.950814 0.025958 -0.308673
vn 0.639706 0.010296 -0.768551
vn 0.570234 0.348988 -0.743667
vn 0.901115 0.345891 -0.261442
vn 0.901115 0.345891 -0.261442
vn 0.570234 0.348988 -0.743667
vn 0.389921 0.649357 -0.652915
vn 0.621182 0.725759 -0.295646
vn 0.924271 0.346642 0.159881
vn 0.901115 0.345891 -0.261442
vn 0.621182 0.725759 -0.295646
vn 0.725556 0.680325 0.103567
vn 0.776866 0.111727 0.619674
vn 0.925089 0.153417 0.347381
vn 0.867276 0.352083 0.351951
vn 0.760598 0.359369 0.540690
vn 0.925089 0.153417 0.347381
vn 0.990147 0.099508 0.098524
vn 0.924271 0.346642 0.159881
vn 0.867276 0.352083 0.351951
vn 0.867276 0.352083 0.351951
vn 0.924271 0.346642 0.159881
vn 0.725556 0.680325 0.103567
vn 0.737395 0.568845 0.364231
vn 0.760598 0.359369 0.540690
vn 0.867276 0.352083 0.351951
vn 0.737395 0.568845 0.364231
vn 0.716464 0.497295 0.489261
vn -0.501473 -0.625779 -0.597433
vn -0.625265 -0.732861 -0.268252
vn -0.883883 -0.319250 -0.341806
vn -0.614372 -0.264348 -0.743416
vn -0.625265 -0.732861 -0.268252
vn -0.642524 -0.764244 0.055616
vn -0.930952 -0.365029 0.009022
vn -0.883883 -0.319250 -0.341806
vn -0.883883 -0.319250 -0.341806
vn -0.930952 -0.365029 0.009022
vn -0.998110 0.043071 -0.043836
vn -0.892362 0.155964 -0.423515
vn -0.614372 -0.264348 -0.743416
vn -0.883883 -0.319250 -0.341806
vn -0.892362 0.155964 -0.423515
vn -0.610875 0.244737 -0.752951
vn -0.642524 -0.764244 0.055616
vn -0.597793 -0.729145 0.333153
vn -0.870923 -0.358216 0.336413
vn -0.930952 -0.365029 0.009022
vn -0.597793 -0.729145 0.333153
vn -0.544332 -0.646281 0.534811
vn -0.680559 -0.344025 0.646906
vn -0.870923 -0.358216 0.336413
vn -0.870923 -0.358216 0.336413
vn -0.680559 -0.344025 0.646906
vn -0.719270 0.005762 0.694707
vn -0.939183 0.002172 0.343411
vn -0.930952 -0.365029 0.009022
vn -0.870923 -0.358216 0.336413
vn -0.939183 0.002172 0.343411
vn -0.998110 0.043071 -0.043836
vn -0.998110 0.043071 -0.043836
vn -0.939183 0.002172 0.343411
vn -0.885426 0.343600 0.312985
vn -0.897075 0.417558 -0.144574
vn -0.939183 0.002172 0.343411
vn -0.719270 0.005762 0.694707
vn -0.671570 0.321930 0.667349
vn -0.885426 0.343600 0.312985
vn -0.885426 0.343600 0.312985
vn -0.671570 0.321930 0.667349
vn -0.541363 0.602387 0.586563
vn -0.632423 0.725965 0.270214
vn -0.897075 0.417558 -0.144574
vn -0.885426 0.343600 0.312985
vn -0.632423 0.725965 0.270214
vn -0.624476 0.747966 -0.224892
vn -0.610875 0.244737 -0.752951
vn -0.892362 0.155964 -0.423515
vn -0.698839 0.505840 -0.505718
vn -0.471347 0.607220 -0.639622
vn -0.892362 0.155964 -0.423515
vn -0.998110 0.043071 -0.043836
vn -0.897075 0.417558 -0.144574
vn -0.698839 0.505840 -0.505718
vn -0.698839 0.505840 -0.505718
vn -0.897075 0.417558 -0.144574
vn -0.624476 0.747966 -0.224892
vn -0.471390 0.640873 -0.605866
vn -0.471347 0.607220 -0.639622
vn -0.698839 0.505840 -0.505718
vn -0.471390 0.640873 -0.605866
vn -0.412196 0.644859 -0.643623
s off
g mountainHookRock:pCube21
usemtl blinn1SG
f 1/1/1 97/2/2 73/3/3 98/4/4
f 97/2/5 74/5/6 27/6/7 73/3/8
f 73/3/9 27/6/10 21/7/11 28/8/12
f 98/4/13 73/3/14 28/8/15 76/9/16
f 74/5/17 29/10/18 81/11/19 27/6/20
f 29/10/21 2/12/22 30/13/23 81/11/24
f 81/11/25 30/13/26 78/14/27 31/15/28
f 27/6/29 81/11/30 31/15/31 21/7/32
f 21/7/33 31/15/34 82/16/35 32/17/36
f 31/15/37 78/14/38 33/18/39 82/16/40
f 82/16/41 33/18/42 4/19/43 34/20/44
f 32/17/45 82/16/46 34/20/47 80/21/48
f 76/9/49 28/8/50 85/22/51 35/23/52
f 28/8/53 21/7/54 32/17/55 85/22/56
f 85/22/57 32/17/58 80/21/59 36/24/60
f 35/23/61 85/22/62 36/24/63 3/25/64
f 3/25/65 36/26/66 12/27/67 37/28/68
f 36/26/69 80/29/70 38/30/71 12/27/72
f 12/27/73 38/30/74 22/31/75 39/32/76
f 37/28/77 12/27/78 39/32/79 83/33/80
f 80/29/81 34/34/82 11/35/83 38/30/84
f 34/34/85 4/36/86 40/37/87 11/35/88
f 11/35/89 40/37/90 84/38/91 41/39/92
f 38/30/93 11/35/94 41/39/95 22/31/96
f 22/31/97 41/39/98 13/40/99 42/41/100
f 41/39/101 84/38/102 43/42/103 13/40/104
f 13/40/105 43/42/106 6/43/107 44/44/108
f 42/41/109 13/40/110 44/44/111 86/45/112
f 83/33/113 39/32/114 14/46/115 45/47/116
f 39/32/117 22/31/118 42/41/119 14/46/120
f 14/46/121 42/41/122 86/45/123 46/48/124
f 45/47/125 14/46/126 46/48/127 5/49/128
f 5/49/129 46/50/130 18/51/131 47/52/132
f 46/50/133 86/53/134 48/54/135 18/51/136
f 18/51/137 48/54/138 23/55/139 49/56/140
f 47/52/141 18/51/142 49/56/143 89/57/144
f 86/53/145 44/58/146 17/59/147 48/54/148
f 44/58/149 6/60/150 50/61/151 17/59/152
f 17/59/153 50/61/154 90/62/155 51/63/156
f 48/54/157 17/59/158 51/63/159 23/55/160
f 23/55/161 51/63/162 19/64/163 52/65/164
f 51/63/165 90/62/166 53/66/167 19/64/168
f 19/64/169 53/66/170 8/67/171 54/68/172
f 52/65/173 19/64/174 54/68/175 92/69/176
f 89/57/177 49/56/178 20/70/179 55/71/180
f 49/56/181 23/55/182 52/65/183 20/70/184
f 20/70/185 52/65/186 92/69/187 56/72/188
f 55/71/189 20/70/190 56/72/191 7/73/192
f 7/73/193 56/74/194 94/75/195 57/76/196
f 56/74/197 92/77/198 58/78/199 94/75/200
f 94/75/201 58/78/202 24/79/203 59/80/204
f 57/76/205 94/75/206 59/80/207 95/81/208
f 92/77/209 54/82/210 93/83/211 58/78/212
f 54/82/213 8/84/214 60/85/215 93/83/216
f 93/83/217 60/85/218 96/86/219 61/87/220
f 58/78/221 93/83/222 61/87/223 24/79/224
f 24/79/225 61/87/226 79/88/227 62/89/228
f 61/87/229 96/86/230 63/90/231 79/88/232
f 79/88/233 63/90/234 2/91/235 29/92/236
f 62/89/237 79/88/238 29/92/239 74/93/240
f 95/81/241 59/80/242 77/94/243 64/95/244
f 59/80/245 24/79/246 62/89/247 77/94/248
f 77/94/249 62/89/250 74/93/251 97/96/252
f 64/95/253 77/94/254 97/96/255 1/1/256
f 2/97/257 63/98/258 9/99/259 30/100/260
f 63/98/261 96/101/262 65/102/263 9/99/264
f 9/99/265 65/102/266 25/103/267 66/104/268
f 30/100/269 9/99/270 66/104/271 78/105/272
f 96/101/273 60/106/274 91/107/275 65/102/276
f 60/106/277 8/108/278 53/109/279 91/107/280
f 91/107/281 53/109/282 90/110/283 67/111/284
f 65/102/285 91/107/286 67/111/287 25/103/288
f 25/103/289 67/111/290 16/112/291 68/113/292
f 67/111/293 90/110/294 50/114/295 16/112/296
f 16/112/297 50/114/298 6/43/299 43/42/300
f 68/113/301 16/112/302 43/42/303 84/38/304
f 78/105/305 66/104/306 10/115/307 33/116/308
f 66/104/309 25/103/310 68/113/311 10/115/312
f 10/115/313 68/113/314 84/38/315 40/37/316
f 33/116/317 10/115/318 40/37/319 4/36/320
f 7/73/321 57/76/322 88/117/323 55/71/324
f 57/76/325 95/81/326 69/118/327 88/117/328
f 88/117/329 69/118/330 26/119/331 70/120/332
f 55/71/333 88/117/334 70/120/335 89/57/336
f 95/81/337 64/95/338 75/121/339 69/118/340
f 64/95/341 1/1/342 98/4/343 75/121/344
f 75/121/345 98/4/346 76/9/347 71/122/348
f 69/118/349 75/121/350 71/122/351 26/119/352
f 26/119/353 71/122/354 87/123/355 72/124/356
f 71/122/357 76/9/358 35/23/359 87/123/360
f 87/123/361 35/23/362 3/25/363 37/28/364
f 72/124/365 87/123/366 37/28/367 83/33/368
f 89/57/369 70/120/370 15/125/371 47/52/372
f 70/120/373 26/119/374 72/124/375 15/125/376
f 15/125/377 72/124/378 83/33/379 45/47/380
f 47/52/381 15/125/382 45/47/383 5/49/384
