# This file uses centimeters as units for non-parametric coordinates.

mtllib SnowPile02.mtl
g default
v -7.222582 0.000000 30.714458
v 1.340688 0.000000 34.957806
v 8.089151 0.000000 30.060741
v 14.396502 -0.002521 18.806858
v 16.746853 0.000000 9.557507
v -11.656037 0.036585 -5.131222
v -16.557186 0.000000 -0.063931
v -17.543411 0.000000 9.695621
v -14.389575 0.000000 20.247807
v -2.393570 8.241482 16.052036
v 1.921310 7.065996 13.251545
v 2.981171 6.453763 17.371861
v 1.901736 6.019726 21.345303
v -0.773861 5.820949 23.193806
v -4.118970 5.891462 21.745991
v -6.937390 6.588976 18.083378
v -8.210919 7.624999 13.858288
v -7.394774 8.313094 10.233952
v -4.719179 8.360863 8.740833
v -1.200471 7.832404 9.949245
v -13.715516 4.778121 11.531345
v -11.311906 3.918107 19.553913
v -5.890840 3.176558 27.567875
v 0.574202 3.684154 31.436626
v 5.690511 3.529100 27.095974
v 8.995840 4.036054 18.267712
v 9.888864 4.702777 10.685017
v 0.398871 5.867031 4.423351
v -8.376699 5.535097 0.877548
v -12.635190 4.957689 4.336987
v 7.794810 0.000000 -31.386827
v -0.588481 0.000000 -34.957802
v -7.416083 0.000000 -31.222662
v -10.080089 0.000000 -20.323006
v -8.955750 0.000000 -10.930470
v 17.028179 0.000000 4.408047
v 17.543411 0.000000 -0.715462
v 17.304226 0.000000 -10.568581
v 14.586747 0.000000 -21.139378
v 2.537698 12.799418 -12.695206
v -1.682438 10.914844 -11.215675
v -2.690024 10.872900 -15.448555
v -1.577743 10.788761 -19.319687
v 1.153763 10.790251 -20.951359
v 4.461151 10.873564 -19.225109
v 7.156900 10.914844 -15.707981
v 8.265564 10.792099 -11.905148
v 7.309434 10.631544 -8.922550
v 4.577929 10.649464 -7.531597
v 1.114390 10.803069 -8.270794
v -5.123750 5.089072 -28.119427
v -7.165666 5.195275 -19.393269
v -5.518848 5.244932 -11.535835
v -0.297583 6.369133 -5.509678
v 8.766581 5.449358 -1.969654
v 12.495657 4.957689 -5.365349
v 13.565505 5.057434 -12.334309
v 11.496631 5.233825 -19.810833
v 6.366444 5.199208 -27.932400
v 0.045055 5.090137 -31.998705
v -4.609471 2.236884 -5.900379
v -5.959615 2.255176 -3.000755
v 10.251197 3.076627 6.521061
v 0.105891 5.408898 1.029125
v -0.098669 5.307431 -2.437466
v 9.650195 3.240650 2.275703
v -8.252256 -2.912566 35.093212
v 1.531821 -2.912566 39.941494
v 9.242368 -2.912566 34.346294
v 16.448914 -2.915087 21.488026
v 19.134338 -2.912566 10.920055
v -13.317760 -2.875981 -5.862747
v -18.917633 -2.912566 -0.073044
v -20.044456 -2.912566 11.077862
v -16.440998 -2.912566 23.134403
v 8.906063 -2.912566 -35.861435
v -0.672377 -2.912566 -39.941498
v -8.473344 -2.912566 -35.673866
v -11.517138 -2.912566 -23.220318
v -10.232510 -2.912566 -12.488754
v 19.455772 -2.912566 5.036472
v 20.044456 -2.912566 -0.817459
v 19.771172 -2.912566 -12.075272
v 16.666281 -2.912566 -24.153072
vt 0.614348 0.861724
vt 0.551815 0.883362
vt 0.572795 0.810142
vt 0.603330 0.801412
vt 0.510286 0.841564
vt 0.551401 0.790264
vt 0.487806 0.755856
vt 0.545731 0.753217
vt 0.490021 0.685769
vt 0.559516 0.717617
vt 0.583032 0.639264
vt 0.590733 0.693080
vt 0.666422 0.626438
vt 0.620809 0.688299
vt 0.697096 0.661548
vt 0.639984 0.703991
vt 0.697675 0.723035
vt 0.643413 0.734663
vt 0.672619 0.793326
vt 0.630719 0.770879
vt 0.593971 0.745960
vt 0.754641 0.715086
vt 0.715252 0.814333
vt 0.628478 0.904259
vt 0.537844 0.929025
vt 0.474864 0.874967
vt 0.424736 0.757974
vt 0.415845 0.666484
vt 0.486087 0.644933
vt 0.591271 0.608276
vt 0.721792 0.568210
vt 0.754382 0.624858
vt 0.553432 0.368931
vt 0.601506 0.349214
vt 0.586525 0.430857
vt 0.564691 0.439703
vt 0.637236 0.375848
vt 0.603205 0.442424
vt 0.657202 0.437518
vt 0.608616 0.466630
vt 0.649785 0.498875
vt 0.601133 0.491958
vt 0.601324 0.546621
vt 0.582858 0.510274
vt 0.514906 0.564863
vt 0.559536 0.513463
vt 0.483965 0.530902
vt 0.541418 0.502769
vt 0.481676 0.473537
vt 0.537181 0.482901
vt 0.505410 0.419737
vt 0.546090 0.459849
vt 0.574476 0.480961
vt 0.669029 0.338430
vt 0.702783 0.424002
vt 0.704267 0.507703
vt 0.660983 0.578295
vt 0.418155 0.617903
vt 0.416895 0.569295
vt 0.426816 0.478194
vt 0.464476 0.392338
vt 0.536572 0.322624
vt 0.611358 0.305696
vt 0.654269 0.551221
vt 0.496893 0.606101
vt 0.597701 0.575597
vt 0.635516 0.957981
vt 0.527511 0.986530
vt 0.451264 0.923117
vt 0.389778 0.784681
vt 0.379188 0.676575
vt 0.753850 0.558429
vt 0.788937 0.625377
vt 0.789789 0.732516
vt 0.741693 0.852249
vt 0.530964 0.277320
vt 0.617392 0.256645
vt 0.682985 0.295046
vt 0.725177 0.394616
vt 0.733629 0.490533
vt 0.381918 0.621660
vt 0.380205 0.565355
vt 0.394760 0.458029
vt 0.444274 0.357845
vn -0.441765 0.768535 0.462815
vn 0.010937 0.837395 0.546488
vn -0.014185 0.956679 0.290798
vn -0.267551 0.902508 0.337485
vn 0.010937 0.837395 0.546488
vn 0.450600 0.827511 0.334941
vn 0.268115 0.939388 0.213692
vn -0.014185 0.956679 0.290798
vn 0.450600 0.827511 0.334941
vn 0.499814 0.843647 0.196077
vn 0.326596 0.935393 0.135557
vn 0.268115 0.939388 0.213692
vn 0.499814 0.843647 0.196077
vn 0.444732 0.895525 -0.015785
vn 0.298828 0.952760 -0.054313
vn 0.326596 0.935393 0.135557
vn 0.444732 0.895525 -0.015785
vn 0.221687 0.930859 -0.290442
vn 0.225236 0.950701 -0.213156
vn 0.298828 0.952760 -0.054313
vn 0.221687 0.930859 -0.290442
vn -0.209934 0.882697 -0.420444
vn -0.001556 0.961742 -0.273951
vn 0.225236 0.950701 -0.213156
vn -0.209934 0.882697 -0.420444
vn -0.563076 0.795977 -0.222185
vn -0.343135 0.934456 -0.095134
vn -0.001556 0.961742 -0.273951
vn -0.563076 0.795977 -0.222185
vn -0.683561 0.722368 0.104539
vn -0.436113 0.885373 0.160996
vn -0.343135 0.934456 -0.095134
vn -0.683561 0.722368 0.104539
vn -0.605629 0.715301 0.348651
vn -0.371869 0.872955 0.315693
vn -0.436113 0.885373 0.160996
vn -0.605629 0.715301 0.348651
vn -0.441765 0.768535 0.462815
vn -0.267551 0.902508 0.337485
vn -0.371869 0.872955 0.315693
vn 0.326596 0.935393 0.135557
vn 0.298828 0.952760 -0.054313
vn 0.044921 0.984559 0.169189
vn 0.268115 0.939388 0.213692
vn 0.326596 0.935393 0.135557
vn 0.044921 0.984559 0.169189
vn -0.014185 0.956679 0.290798
vn 0.268115 0.939388 0.213692
vn 0.044921 0.984559 0.169189
vn -0.267551 0.902508 0.337485
vn -0.014185 0.956679 0.290798
vn 0.044921 0.984559 0.169189
vn -0.371869 0.872955 0.315693
vn -0.267551 0.902508 0.337485
vn 0.044921 0.984559 0.169189
vn -0.436113 0.885373 0.160996
vn -0.371869 0.872955 0.315693
vn 0.044921 0.984559 0.169189
vn -0.343135 0.934456 -0.095134
vn -0.436113 0.885373 0.160996
vn 0.044921 0.984559 0.169189
vn -0.001556 0.961742 -0.273951
vn -0.343135 0.934456 -0.095134
vn 0.044921 0.984559 0.169189
vn 0.225236 0.950701 -0.213156
vn -0.001556 0.961742 -0.273951
vn 0.044921 0.984559 0.169189
vn 0.298828 0.952760 -0.054313
vn 0.225236 0.950701 -0.213156
vn 0.044921 0.984559 0.169189
vn -0.758483 0.649887 0.048483
vn -0.670809 0.672203 0.313303
vn -0.605629 0.715301 0.348651
vn -0.683561 0.722368 0.104539
vn -0.670809 0.672203 0.313303
vn -0.466470 0.744679 0.477346
vn -0.441765 0.768535 0.462815
vn -0.605629 0.715301 0.348651
vn -0.466470 0.744679 0.477346
vn 0.037837 0.831550 0.554160
vn 0.010937 0.837395 0.546488
vn -0.441765 0.768535 0.462815
vn 0.037837 0.831550 0.554160
vn 0.528827 0.752080 0.393342
vn 0.450600 0.827511 0.334941
vn 0.010937 0.837395 0.546488
vn 0.528827 0.752080 0.393342
vn 0.622608 0.747374 0.231927
vn 0.499814 0.843647 0.196077
vn 0.450600 0.827511 0.334941
vn 0.622608 0.747374 0.231927
vn 0.621845 0.777690 0.092231
vn 0.444732 0.895525 -0.015785
vn 0.499814 0.843647 0.196077
vn 0.221687 0.930859 -0.290442
vn 0.444732 0.895525 -0.015785
vn 0.361800 0.923739 -0.125725
vn 0.109414 0.966258 -0.233183
vn -0.510206 0.749832 -0.421239
vn -0.660404 0.679127 -0.320395
vn -0.563076 0.795977 -0.222185
vn -0.209934 0.882697 -0.420444
vn -0.660404 0.679127 -0.320395
vn -0.758483 0.649887 0.048483
vn -0.683561 0.722368 0.104539
vn -0.563076 0.795977 -0.222185
vn 0.513249 0.671777 -0.534127
vn 0.005279 0.724164 -0.689608
vn 0.004195 0.896263 -0.443504
vn 0.413840 0.819176 -0.397098
vn 0.005279 0.724164 -0.689608
vn -0.614284 0.682789 -0.395544
vn -0.508284 0.816304 -0.274399
vn 0.004195 0.896263 -0.443504
vn -0.614284 0.682789 -0.395544
vn -0.812917 0.580043 -0.052115
vn -0.726248 0.687210 0.017502
vn -0.508284 0.816304 -0.274399
vn -0.812917 0.580043 -0.052115
vn -0.798934 0.539931 0.264914
vn -0.707732 0.607417 0.360778
vn -0.726248 0.687210 0.017502
vn -0.798934 0.539931 0.264914
vn -0.450997 0.686892 0.569896
vn -0.415324 0.636764 0.649644
vn -0.707732 0.607417 0.360778
vn -0.450997 0.686892 0.569896
vn 0.221757 0.871404 0.437583
vn 0.026768 0.747524 0.663695
vn -0.415324 0.636764 0.649644
vn 0.221757 0.871404 0.437583
vn 0.630547 0.755631 0.177290
vn 0.541109 0.780674 0.312648
vn 0.026768 0.747524 0.663695
vn 0.630547 0.755631 0.177290
vn 0.767762 0.636133 -0.076662
vn 0.670217 0.742098 -0.010014
vn 0.541109 0.780674 0.312648
vn 0.767762 0.636133 -0.076662
vn 0.708884 0.619253 -0.337654
vn 0.591563 0.761097 -0.266055
vn 0.670217 0.742098 -0.010014
vn 0.708884 0.619253 -0.337654
vn 0.513249 0.671777 -0.534127
vn 0.413840 0.819176 -0.397098
vn 0.591563 0.761097 -0.266055
vn -0.726248 0.687210 0.017502
vn -0.707732 0.607417 0.360778
vn -0.008770 0.999358 0.034746
vn -0.508284 0.816304 -0.274399
vn -0.726248 0.687210 0.017502
vn -0.008770 0.999358 0.034746
vn 0.004195 0.896263 -0.443504
vn -0.508284 0.816304 -0.274399
vn -0.008770 0.999358 0.034746
vn 0.413840 0.819176 -0.397098
vn 0.004195 0.896263 -0.443504
vn -0.008770 0.999358 0.034746
vn 0.591563 0.761097 -0.266055
vn 0.413840 0.819176 -0.397098
vn -0.008770 0.999358 0.034746
vn 0.670217 0.742098 -0.010014
vn 0.591563 0.761097 -0.266055
vn -0.008770 0.999358 0.034746
vn 0.541109 0.780674 0.312648
vn 0.670217 0.742098 -0.010014
vn -0.008770 0.999358 0.034746
vn 0.026768 0.747524 0.663695
vn 0.541109 0.780674 0.312648
vn -0.008770 0.999358 0.034746
vn -0.415324 0.636764 0.649644
vn 0.026768 0.747524 0.663695
vn -0.008770 0.999358 0.034746
vn -0.707732 0.607417 0.360778
vn -0.415324 0.636764 0.649644
vn -0.008770 0.999358 0.034746
vn -0.660926 0.643545 -0.386040
vn -0.873421 0.485714 -0.034889
vn -0.812917 0.580043 -0.052115
vn -0.614284 0.682789 -0.395544
vn -0.873421 0.485714 -0.034889
vn -0.797046 0.603874 0.007356
vn -0.798934 0.539931 0.264914
vn -0.812917 0.580043 -0.052115
vn 0.221687 0.930859 -0.290442
vn 0.109414 0.966258 -0.233183
vn -0.210008 0.920191 -0.330371
vn -0.209934 0.882697 -0.420444
vn 0.568162 0.817802 0.091608
vn 0.662072 0.743530 0.093937
vn 0.630547 0.755631 0.177290
vn 0.221757 0.871404 0.437583
vn 0.662072 0.743530 0.093937
vn 0.758811 0.647243 -0.072686
vn 0.767762 0.636133 -0.076662
vn 0.630547 0.755631 0.177290
vn 0.758811 0.647243 -0.072686
vn 0.711165 0.631378 -0.309203
vn 0.708884 0.619253 -0.337654
vn 0.767762 0.636133 -0.076662
vn 0.711165 0.631378 -0.309203
vn 0.499549 0.694686 -0.517553
vn 0.513249 0.671777 -0.534127
vn 0.708884 0.619253 -0.337654
vn 0.499549 0.694686 -0.517553
vn -0.015311 0.772701 -0.634585
vn 0.005279 0.724164 -0.689608
vn 0.513249 0.671777 -0.534127
vn -0.015311 0.772701 -0.634585
vn -0.660926 0.643545 -0.386040
vn -0.614284 0.682789 -0.395544
vn 0.005279 0.724164 -0.689608
vn 0.621845 0.777690 0.092231
vn 0.361800 0.923739 -0.125725
vn 0.444732 0.895525 -0.015785
vn -0.797046 0.603874 0.007356
vn -0.532991 0.839224 0.107812
vn -0.798934 0.539931 0.264914
vn -0.510206 0.749832 -0.421239
vn -0.210008 0.920191 -0.330371
vn -0.532991 0.839224 0.107812
vn -0.797046 0.603874 0.007356
vn -0.209934 0.882697 -0.420444
vn -0.210008 0.920191 -0.330371
vn -0.510206 0.749832 -0.421239
vn 0.568162 0.817802 0.091608
vn 0.221757 0.871404 0.437583
vn 0.237234 0.960690 0.144203
vn -0.206808 0.954392 0.215330
vn 0.237234 0.960690 0.144203
vn 0.221757 0.871404 0.437583
vn -0.450997 0.686892 0.569896
vn -0.532991 0.839224 0.107812
vn -0.206808 0.954392 0.215330
vn -0.450997 0.686892 0.569896
vn -0.798934 0.539931 0.264914
vn -0.210008 0.920191 -0.330371
vn 0.109414 0.966258 -0.233183
vn -0.206808 0.954392 0.215330
vn -0.532991 0.839224 0.107812
vn 0.109414 0.966258 -0.233183
vn 0.361800 0.923739 -0.125725
vn 0.237234 0.960690 0.144203
vn -0.206808 0.954392 0.215330
vn 0.568162 0.817802 0.091608
vn 0.237234 0.960690 0.144203
vn 0.361800 0.923739 -0.125725
vn 0.621845 0.777690 0.092231
vn 0.037837 0.831550 0.554160
vn -0.466470 0.744679 0.477346
vn -0.363888 0.812733 0.455028
vn 0.011271 0.863504 0.504216
vn 0.528827 0.752080 0.393342
vn 0.037837 0.831550 0.554160
vn 0.011271 0.863504 0.504216
vn 0.444343 0.792001 0.418682
vn 0.622608 0.747374 0.231927
vn 0.528827 0.752080 0.393342
vn 0.444343 0.792001 0.418682
vn 0.633772 0.716004 0.292696
vn 0.621845 0.777690 0.092231
vn 0.622608 0.747374 0.231927
vn 0.633772 0.716004 0.292696
vn 0.731107 0.666831 0.144287
vn -0.660404 0.679127 -0.320395
vn -0.510206 0.749832 -0.421239
vn -0.694546 0.521247 -0.495890
vn -0.752730 0.610674 -0.245918
vn -0.758483 0.649887 0.048483
vn -0.660404 0.679127 -0.320395
vn -0.752730 0.610674 -0.245918
vn -0.729021 0.676256 0.105861
vn -0.670809 0.672203 0.313303
vn -0.758483 0.649887 0.048483
vn -0.729021 0.676256 0.105861
vn -0.594021 0.737293 0.321773
vn -0.466470 0.744679 0.477346
vn -0.670809 0.672203 0.313303
vn -0.594021 0.737293 0.321773
vn -0.363888 0.812733 0.455028
vn -0.015311 0.772701 -0.634585
vn 0.499549 0.694686 -0.517553
vn 0.344895 0.823527 -0.450389
vn 0.000065 0.863370 -0.504571
vn -0.660926 0.643545 -0.386040
vn -0.015311 0.772701 -0.634585
vn 0.000065 0.863370 -0.504571
vn -0.431434 0.798432 -0.419965
vn -0.873421 0.485714 -0.034889
vn -0.660926 0.643545 -0.386040
vn -0.431434 0.798432 -0.419965
vn -0.831342 0.540178 -0.130681
vn -0.797046 0.603874 0.007356
vn -0.873421 0.485714 -0.034889
vn -0.831342 0.540178 -0.130681
vn -0.906685 0.419723 -0.041893
vn 0.662072 0.743530 0.093937
vn 0.568162 0.817802 0.091608
vn 0.760721 0.646508 0.057725
vn 0.758827 0.651171 0.012574
vn 0.758811 0.647243 -0.072686
vn 0.662072 0.743530 0.093937
vn 0.758827 0.651171 0.012574
vn 0.725722 0.677269 -0.120976
vn 0.711165 0.631378 -0.309203
vn 0.758811 0.647243 -0.072686
vn 0.725722 0.677269 -0.120976
vn 0.595333 0.742574 -0.306859
vn 0.499549 0.694686 -0.517553
vn 0.711165 0.631378 -0.309203
vn 0.595333 0.742574 -0.306859
vn 0.344895 0.823527 -0.450389
vn 0.568162 0.817802 0.091608
vn 0.621845 0.777690 0.092231
vn 0.731107 0.666831 0.144287
vn 0.760721 0.646508 0.057725
vn -0.510206 0.749832 -0.421239
vn -0.797046 0.603874 0.007356
vn -0.906685 0.419723 -0.041893
vn -0.694546 0.521247 -0.495890
s off
g SnowPile02:pCone3
usemtl blinn1SG
f 23/1/1 24/2/2 14/3/3 15/4/4
f 24/2/5 25/5/6 13/6/7 14/3/8
f 25/5/9 26/7/10 12/8/11 13/6/12
f 26/7/13 27/9/14 11/10/15 12/8/16
f 27/9/17 28/11/18 20/12/19 11/10/20
f 28/11/21 29/13/22 19/14/23 20/12/24
f 29/13/25 30/15/26 18/16/27 19/14/28
f 30/15/29 21/17/30 17/18/31 18/16/32
f 21/17/33 22/19/34 16/20/35 17/18/36
f 22/19/37 23/1/38 15/4/39 16/20/40
f 12/8/41 11/10/42 10/21/43
f 13/6/44 12/8/45 10/21/46
f 14/3/47 13/6/48 10/21/49
f 15/4/50 14/3/51 10/21/52
f 16/20/53 15/4/54 10/21/55
f 17/18/56 16/20/57 10/21/58
f 18/16/59 17/18/60 10/21/61
f 19/14/62 18/16/63 10/21/64
f 20/12/65 19/14/66 10/21/67
f 11/10/68 20/12/69 10/21/70
f 8/22/71 9/23/72 22/19/73 21/17/74
f 9/23/75 1/24/76 23/1/77 22/19/78
f 1/24/79 2/25/80 24/2/81 23/1/82
f 2/25/83 3/26/84 25/5/85 24/2/86
f 3/26/87 4/27/88 26/7/89 25/5/90
f 4/27/91 5/28/92 27/9/93 26/7/94
f 28/11/95 27/9/96 63/29/97 64/30/98
f 6/31/99 7/32/100 30/15/101 29/13/102
f 7/32/103 8/22/104 21/17/105 30/15/106
f 59/33/107 60/34/108 44/35/109 45/36/110
f 60/34/111 51/37/112 43/38/113 44/35/114
f 51/37/115 52/39/116 42/40/117 43/38/118
f 52/39/119 53/41/120 41/42/121 42/40/122
f 53/41/123 54/43/124 50/44/125 41/42/126
f 54/43/127 55/45/128 49/46/129 50/44/130
f 55/45/131 56/47/132 48/48/133 49/46/134
f 56/47/135 57/49/136 47/50/137 48/48/138
f 57/49/139 58/51/140 46/52/141 47/50/142
f 58/51/143 59/33/144 45/36/145 46/52/146
f 42/40/147 41/42/148 40/53/149
f 43/38/150 42/40/151 40/53/152
f 44/35/153 43/38/154 40/53/155
f 45/36/156 44/35/157 40/53/158
f 46/52/159 45/36/160 40/53/161
f 47/50/162 46/52/163 40/53/164
f 48/48/165 47/50/166 40/53/167
f 49/46/168 48/48/169 40/53/170
f 50/44/171 49/46/172 40/53/173
f 41/42/174 50/44/175 40/53/176
f 33/54/177 34/55/178 52/39/179 51/37/180
f 34/55/181 35/56/182 53/41/183 52/39/184
f 28/11/185 64/30/186 62/57/187 29/13/188
f 36/58/189 37/59/190 56/47/191 55/45/192
f 37/59/193 38/60/194 57/49/195 56/47/196
f 38/60/197 39/61/198 58/51/199 57/49/200
f 39/61/201 31/62/202 59/33/203 58/51/204
f 31/62/205 32/63/206 60/34/207 59/33/208
f 32/63/209 33/54/210 51/37/211 60/34/212
f 5/28/213 63/29/214 27/9/215
f 35/56/216 61/64/217 53/41/218
f 6/31/219 62/57/220 61/64/221 35/56/222
f 29/13/223 62/57/224 6/31/225
f 36/58/226 55/45/227 66/65/228
f 65/66/229 66/65/230 55/45/231 54/43/232
f 61/64/233 65/66/234 54/43/235 53/41/236
f 62/57/237 64/30/238 65/66/239 61/64/240
f 64/30/241 63/29/242 66/65/243 65/66/244
f 36/58/245 66/65/246 63/29/247 5/28/248
f 2/25/249 1/24/250 67/67/251 68/68/252
f 3/26/253 2/25/254 68/68/255 69/69/256
f 4/27/257 3/26/258 69/69/259 70/70/260
f 5/28/261 4/27/262 70/70/263 71/71/264
f 7/32/265 6/31/266 72/72/267 73/73/268
f 8/22/269 7/32/270 73/73/271 74/74/272
f 9/23/273 8/22/274 74/74/275 75/75/276
f 1/24/277 9/23/278 75/75/279 67/67/280
f 32/63/281 31/62/282 76/76/283 77/77/284
f 33/54/285 32/63/286 77/77/287 78/78/288
f 34/55/289 33/54/290 78/78/291 79/79/292
f 35/56/293 34/55/294 79/79/295 80/80/296
f 37/59/297 36/58/298 81/81/299 82/82/300
f 38/60/301 37/59/302 82/82/303 83/83/304
f 39/61/305 38/60/306 83/83/307 84/84/308
f 31/62/309 39/61/310 84/84/311 76/76/312
f 36/58/313 5/28/314 71/71/315 81/81/316
f 6/31/317 35/56/318 80/80/319 72/72/320
