# This file uses centimeters as units for non-parametric coordinates.

mtllib Axe.mtl
g default
v 0.381440 0.202593 -2.439019
v 0.102989 0.202593 -2.456557
v -0.036259 0.000000 -2.465386
v 0.102989 -0.202593 -2.456557
v 0.381440 -0.202593 -2.439019
v 0.520607 0.000000 -2.430314
v -0.139796 0.181734 4.249531
v -0.428745 0.181734 4.034625
v -0.573220 0.000000 3.927172
v -0.428745 -0.181734 4.034625
v -0.139796 -0.181734 4.249531
v 0.004679 0.000000 4.356985
v -0.284932 0.000000 4.283577
v 0.261632 0.000000 2.384224
v 0.152119 -0.159041 2.384224
v -0.066905 -0.159041 2.384224
v -0.176417 0.000000 2.384224
v -0.066905 0.159041 2.384224
v 0.152120 0.159041 2.384224
v 0.265725 0.000000 -1.102265
v 0.153879 -0.162968 -1.100949
v -0.070699 -0.162892 -1.102024
v -0.183032 0.000000 -1.103976
v -0.070699 0.162892 -1.102024
v 0.153879 0.162968 -1.100949
v 0.580660 0.000000 -2.114280
v 0.410819 -0.247555 -2.125897
v 0.111480 -0.247585 -2.136916
v -0.058638 0.000000 -2.149011
v 0.111480 0.247585 -2.136916
v 0.410819 0.247555 -2.125897
v 0.031348 0.000000 3.763310
v -0.074370 -0.181734 3.696352
v -0.285806 -0.181734 3.562437
v -0.391524 0.000000 3.495479
v -0.285806 0.181734 3.562437
v -0.074370 0.181734 3.696352
v 0.209817 0.199986 -1.646807
v 0.346681 0.000000 -1.642474
v 0.209817 -0.199987 -1.646807
v -0.065259 -0.199941 -1.658957
v -0.202845 0.000000 -1.665955
v -0.065259 0.199941 -1.658957
v 0.413168 0.246535 -2.447248
v 0.073804 0.247088 -2.466243
v 0.403216 0.210174 -2.749739
v 0.109132 0.217538 -2.768701
v -0.096448 0.000000 -2.475754
v -0.045513 0.000000 -2.778444
v 0.073804 -0.247088 -2.466243
v 0.109132 -0.217538 -2.768701
v 0.413168 -0.246535 -2.447248
v 0.403216 -0.210174 -2.749739
v 0.582280 0.000000 -2.437764
v 0.542655 0.000000 -2.740520
v -0.177867 -0.277811 -3.247426
v -0.177867 0.277811 -3.247426
v -0.832630 0.138906 -3.327657
v -0.862509 -0.138906 -3.331318
v 0.541423 0.143872 -3.791955
v 0.377279 0.203466 -3.810017
v 0.213134 0.143872 -3.828078
v 0.145143 0.000000 -3.835560
v 0.213134 -0.143872 -3.828078
v 0.377279 -0.203466 -3.810017
v 0.541423 -0.143872 -3.791955
v 0.609414 0.000000 -3.784473
v 0.523565 0.143872 -3.629662
v 0.359421 0.203466 -3.647723
v 0.195276 0.143872 -3.665785
v 0.127285 0.000000 -3.673267
v 0.195276 -0.143872 -3.665785
v 0.359421 -0.203466 -3.647723
v 0.523565 -0.143872 -3.629662
v 0.591556 0.000000 -3.622180
v 0.377279 0.000000 -3.810017
v -1.502937 0.000000 -2.710862
v -1.407806 0.000000 -2.645664
v -0.907219 -0.102813 -2.718930
v -0.910470 -0.137697 -2.754167
v -0.910413 0.137331 -2.754350
v -0.907219 0.102618 -2.718930
v -1.334185 0.000000 -4.088044
v -1.226128 0.000000 -4.128345
v -0.769691 0.137331 -3.902782
v -0.758040 0.102618 -3.936383
v -0.769703 -0.137697 -3.902973
v -0.758040 -0.102813 -3.936383
v 0.704557 -0.286755 -2.673306
v 0.663774 -0.285530 -2.643653
v 0.669715 -0.319633 -2.678377
v 0.663774 0.285530 -2.643653
v 0.704557 0.286755 -2.673306
v 0.669715 0.319633 -2.678377
v -1.423482 -0.000505 -3.400056
v 0.797569 0.285720 -3.127902
v 0.762217 0.319683 -3.132234
v 0.817068 0.286755 -3.591506
v 0.784651 0.285530 -3.630128
v 0.782031 0.319633 -3.594997
v 0.784651 -0.285530 -3.630128
v 0.817068 -0.286755 -3.591506
v 0.782031 -0.319633 -3.594997
v 0.762217 -0.319683 -3.132234
v 0.797569 -0.285720 -3.127902
v -0.238305 0.242405 -2.754188
v -0.234387 0.277730 -2.789341
v -0.122114 0.277730 -3.705605
v -0.117429 0.242405 -3.740664
v -0.117429 -0.242513 -3.740664
v -0.123328 -0.277674 -3.705862
v -0.235627 -0.277674 -2.789385
v -0.238305 -0.242513 -2.754188
vt 0.091692 0.849886
vt 0.057999 0.848902
vt 0.060190 0.811706
vt 0.090804 0.814198
vt 0.029800 0.849726
vt 0.026774 0.811987
vt 0.213998 0.831128
vt 0.186193 0.836747
vt 0.176070 0.801209
vt 0.208817 0.794690
vt 0.153296 0.844280
vt 0.146770 0.809201
vt 0.122666 0.849479
vt 0.118949 0.813546
vt 0.084637 0.055665
vt 0.048387 0.076553
vt 0.062431 0.041738
vt 0.019699 0.067904
vt 0.024976 0.038500
vt 0.061327 0.015375
vt 0.090359 0.025224
vt 0.131111 0.274496
vt 0.109026 0.275048
vt 0.110228 0.114341
vt 0.135235 0.120672
vt 0.156282 0.273379
vt 0.161647 0.133072
vt 0.178650 0.272972
vt 0.186064 0.140503
vt 0.061731 0.273055
vt 0.039304 0.272488
vt 0.034015 0.139673
vt 0.058535 0.132412
vt 0.086970 0.274345
vt 0.085099 0.120246
vt 0.131729 0.686991
vt 0.108447 0.688569
vt 0.158050 0.684961
vt 0.180952 0.683603
vt 0.058564 0.688517
vt 0.035362 0.688101
vt 0.085089 0.688799
vt 0.112828 0.754482
vt 0.141159 0.750802
vt 0.172213 0.744728
vt 0.199537 0.738555
vt 0.025127 0.751472
vt 0.052661 0.753276
vt 0.084228 0.754923
vt 0.111053 0.044755
vt 0.137156 0.056705
vt 0.171645 0.077543
vt 0.198410 0.088921
vt 0.021736 0.088249
vt 0.287713 0.075755
vt 0.326720 0.072001
vt 0.327790 0.110804
vt 0.290546 0.113287
vt 0.253014 0.076303
vt 0.257014 0.115529
vt 0.430366 0.074731
vt 0.465090 0.075415
vt 0.461104 0.114643
vt 0.427664 0.112324
vt 0.391300 0.071262
vt 0.390602 0.110182
vt 0.359029 0.070790
vt 0.359268 0.110682
vt 0.289591 0.069790
vt 0.325533 0.065822
vt 0.256897 0.069634
vt 0.428535 0.068766
vt 0.461205 0.068743
vt 0.392604 0.065094
vt 0.359007 0.063301
vt 0.815507 0.094503
vt 0.793350 0.094461
vt 0.793389 0.073854
vt 0.815546 0.073896
vt 0.771192 0.094419
vt 0.771231 0.073812
vt 0.751086 0.094381
vt 0.751125 0.073774
vt 0.920141 0.094701
vt 0.900035 0.094663
vt 0.900074 0.074056
vt 0.920180 0.074094
vt 0.877877 0.094622
vt 0.877916 0.074015
vt 0.855720 0.094580
vt 0.855759 0.073973
vt 0.835614 0.094542
vt 0.835653 0.073934
vt 0.366010 0.189761
vt 0.346139 0.182590
vt 0.366010 0.165278
vt 0.385881 0.182590
vt 0.394112 0.165278
vt 0.385881 0.147966
vt 0.366010 0.140795
vt 0.346139 0.147966
vt 0.337908 0.165278
vt 0.767048 0.320175
vt 0.773870 0.308267
vt 0.787391 0.378406
vt 0.781525 0.378842
vt 0.772234 0.900780
vt 0.765412 0.888947
vt 0.779233 0.828932
vt 0.785104 0.829190
vt 0.801330 0.457136
vt 0.795435 0.457072
vt 0.794144 0.748585
vt 0.800031 0.748374
vt 0.946983 0.886377
vt 0.940556 0.898368
vt 0.925254 0.827643
vt 0.931120 0.827223
vt 0.936142 0.307827
vt 0.943033 0.319699
vt 0.928895 0.378471
vt 0.923029 0.378067
vt 0.909663 0.747698
vt 0.915566 0.747826
vt 0.915396 0.456853
vt 0.909505 0.456943
vt 0.800414 0.567635
vt 0.801995 0.562203
vt 0.855537 0.564224
vt 0.855531 0.569940
vt 0.731006 0.639231
vt 0.731114 0.633269
vt 0.800092 0.635832
vt 0.797154 0.641225
vt 0.796336 0.562996
vt 0.802662 0.641160
vt 0.855384 0.633290
vt 0.855365 0.638997
vt 0.910722 0.635783
vt 0.908013 0.641061
vt 0.913518 0.641295
vt 0.979580 0.634017
vt 0.979713 0.639964
vt 0.914750 0.562950
vt 0.909093 0.562159
vt 0.910674 0.567594
vt 0.754753 0.828813
vt 0.736424 0.748879
vt 0.855292 0.828244
vt 0.856360 0.900932
vt 0.955606 0.826621
vt 0.973004 0.747968
vt 0.855202 0.375416
vt 0.855411 0.456867
vt 0.854891 0.748679
vt 0.855010 0.307315
vn 0.433769 0.885486 -0.166608
vn -0.483808 0.868202 -0.110250
vn -0.385197 0.920026 -0.071945
vn 0.496090 0.861095 0.111403
vn -0.483808 0.868202 -0.110250
vn -0.997512 0.000000 -0.070504
vn -0.978198 0.000000 -0.207673
vn -0.385197 0.920026 -0.071945
vn -0.997512 0.000000 -0.070504
vn -0.483808 -0.868202 -0.110250
vn -0.385197 -0.920026 -0.071945
vn -0.978198 0.000000 -0.207673
vn -0.483808 -0.868202 -0.110250
vn 0.433769 -0.885486 -0.166608
vn 0.496090 -0.861095 0.111403
vn -0.385197 -0.920026 -0.071945
vn 0.433769 -0.885486 -0.166608
vn 0.982318 0.000000 -0.187220
vn 0.978657 -0.000000 0.205501
vn 0.496090 -0.861095 0.111403
vn 0.982318 0.000000 -0.187220
vn 0.433769 0.885486 -0.166608
vn 0.496090 0.861095 0.111403
vn 0.978657 -0.000000 0.205501
vn 0.440460 0.873050 0.209235
vn -0.402162 0.913948 0.054445
vn -0.560529 0.000000 0.828135
vn -0.402162 0.913948 0.054445
vn -0.984869 0.000000 -0.173303
vn -0.560529 0.000000 0.828135
vn -0.984869 0.000000 -0.173303
vn -0.402162 -0.913948 0.054445
vn -0.560529 0.000000 0.828135
vn -0.402162 -0.913948 0.054445
vn 0.440459 -0.873050 0.209235
vn -0.560529 0.000000 0.828135
vn 0.440459 -0.873050 0.209235
vn 0.962857 -0.000000 0.270014
vn -0.560529 0.000000 0.828135
vn 0.962857 -0.000000 0.270014
vn 0.440460 0.873050 0.209235
vn -0.560529 0.000000 0.828135
vn 0.456661 -0.889388 0.021208
vn 0.998921 -0.000000 0.046432
vn 0.991413 -0.000000 0.130768
vn 0.479460 -0.875280 0.063278
vn -0.421431 -0.906583 -0.022439
vn 0.456661 -0.889388 0.021208
vn 0.479460 -0.875280 0.063278
vn -0.357258 -0.928665 -0.099736
vn -0.998668 0.000000 -0.051596
vn -0.421431 -0.906583 -0.022439
vn -0.357258 -0.928665 -0.099736
vn -0.972723 0.000000 -0.231970
vn -0.421431 0.906583 -0.022439
vn -0.998668 0.000000 -0.051596
vn -0.972723 0.000000 -0.231970
vn -0.357258 0.928665 -0.099736
vn 0.456661 0.889388 0.021208
vn -0.421431 0.906583 -0.022439
vn -0.357258 0.928665 -0.099736
vn 0.479460 0.875280 0.063278
vn 0.998921 -0.000000 0.046432
vn 0.456661 0.889388 0.021208
vn 0.479460 0.875280 0.063278
vn 0.991413 -0.000000 0.130768
vn 0.432838 -0.901311 0.017041
vn 0.999699 -0.000000 0.024520
vn 0.998921 -0.000000 0.046432
vn 0.456661 -0.889388 0.021208
vn -0.439551 -0.898165 0.009757
vn 0.432838 -0.901311 0.017041
vn 0.456661 -0.889388 0.021208
vn -0.421431 -0.906583 -0.022439
vn -0.999974 0.000000 0.007158
vn -0.439551 -0.898165 0.009757
vn -0.421431 -0.906583 -0.022439
vn -0.998668 0.000000 -0.051596
vn -0.439551 0.898165 0.009757
vn -0.999974 0.000000 0.007158
vn -0.998668 0.000000 -0.051596
vn -0.421431 0.906583 -0.022439
vn 0.432838 0.901311 0.017041
vn -0.439551 0.898165 0.009757
vn -0.421431 0.906583 -0.022439
vn 0.456661 0.889388 0.021208
vn 0.999699 -0.000000 0.024520
vn 0.432838 0.901311 0.017041
vn 0.456661 0.889388 0.021208
vn 0.998921 -0.000000 0.046432
vn 0.496090 -0.861095 0.111403
vn 0.978657 -0.000000 0.205501
vn 0.945879 -0.000000 0.324520
vn 0.397697 -0.899519 0.180840
vn -0.385197 -0.920026 -0.071945
vn 0.496090 -0.861095 0.111403
vn 0.397697 -0.899519 0.180840
vn -0.487313 -0.872719 -0.029784
vn -0.978198 0.000000 -0.207673
vn -0.385197 -0.920026 -0.071945
vn -0.487313 -0.872719 -0.029784
vn -0.991417 0.000000 -0.130740
vn -0.385197 0.920026 -0.071945
vn -0.978198 0.000000 -0.207673
vn -0.991417 0.000000 -0.130740
vn -0.487313 0.872719 -0.029784
vn 0.496090 0.861095 0.111403
vn -0.385197 0.920026 -0.071945
vn -0.487313 0.872719 -0.029784
vn 0.397697 0.899519 0.180840
vn 0.978657 -0.000000 0.205501
vn 0.496090 0.861095 0.111403
vn 0.397697 0.899519 0.180840
vn 0.945879 -0.000000 0.324520
vn 0.479460 -0.875280 0.063278
vn 0.991413 -0.000000 0.130768
vn 0.962857 -0.000000 0.270014
vn 0.440459 -0.873050 0.209235
vn -0.357258 -0.928665 -0.099736
vn 0.479460 -0.875280 0.063278
vn 0.440459 -0.873050 0.209235
vn -0.402162 -0.913948 0.054445
vn -0.972723 0.000000 -0.231970
vn -0.357258 -0.928665 -0.099736
vn -0.402162 -0.913948 0.054445
vn -0.984869 0.000000 -0.173303
vn -0.357258 0.928665 -0.099736
vn -0.972723 0.000000 -0.231970
vn -0.984869 0.000000 -0.173303
vn -0.402162 0.913948 0.054445
vn 0.479460 0.875280 0.063278
vn -0.357258 0.928665 -0.099736
vn -0.402162 0.913948 0.054445
vn 0.440460 0.873050 0.209235
vn 0.991413 -0.000000 0.130768
vn 0.479460 0.875280 0.063278
vn 0.440460 0.873050 0.209235
vn 0.962857 -0.000000 0.270014
vn 0.945879 -0.000000 0.324520
vn 0.397697 0.899519 0.180840
vn 0.432838 0.901311 0.017041
vn 0.999699 -0.000000 0.024520
vn 0.397697 -0.899519 0.180840
vn 0.945879 -0.000000 0.324520
vn 0.999699 -0.000000 0.024520
vn 0.432838 -0.901311 0.017041
vn -0.487313 -0.872719 -0.029784
vn 0.397697 -0.899519 0.180840
vn 0.432838 -0.901311 0.017041
vn -0.439551 -0.898165 0.009757
vn -0.991417 0.000000 -0.130740
vn -0.487313 -0.872719 -0.029784
vn -0.439551 -0.898165 0.009757
vn -0.999974 0.000000 0.007158
vn -0.487313 0.872719 -0.029784
vn -0.991417 0.000000 -0.130740
vn -0.999974 0.000000 0.007158
vn -0.439551 0.898165 0.009757
vn 0.397697 0.899519 0.180840
vn -0.487313 0.872719 -0.029784
vn -0.439551 0.898165 0.009757
vn 0.432838 0.901311 0.017041
vn -0.422908 0.895214 -0.140502
vn 0.449419 0.885554 -0.117542
vn 0.436551 0.891963 -0.117582
vn -0.419700 0.896746 -0.140353
vn -0.984686 0.000000 -0.174339
vn -0.422908 0.895214 -0.140502
vn -0.419700 0.896746 -0.140353
vn -0.984686 0.000000 -0.174339
vn -0.422908 -0.895214 -0.140502
vn -0.984686 0.000000 -0.174339
vn -0.984686 0.000000 -0.174339
vn -0.419700 -0.896746 -0.140352
vn 0.449419 -0.885554 -0.117542
vn -0.422908 -0.895214 -0.140502
vn -0.419700 -0.896746 -0.140352
vn 0.436551 -0.891963 -0.117582
vn 0.992617 0.000000 -0.121295
vn 0.449419 -0.885554 -0.117542
vn 0.436551 -0.891963 -0.117582
vn 0.992616 0.000000 -0.121295
vn 0.449419 0.885554 -0.117542
vn 0.992617 0.000000 -0.121295
vn 0.992616 0.000000 -0.121295
vn 0.436551 0.891963 -0.117582
vn -0.115061 0.145303 0.982674
vn 0.021702 0.161221 0.986680
vn 0.037088 0.153585 0.987439
vn -0.123932 0.136736 0.982825
vn -0.179297 0.000000 0.983795
vn -0.115061 0.145303 0.982674
vn -0.123932 0.136736 0.982825
vn -0.179297 0.000000 0.983795
vn -0.115062 -0.145303 0.982674
vn -0.179297 0.000000 0.983795
vn -0.179297 0.000000 0.983795
vn -0.123934 -0.136736 0.982824
vn 0.021705 -0.161221 0.986680
vn -0.115062 -0.145303 0.982674
vn -0.123934 -0.136736 0.982824
vn 0.037091 -0.153585 0.987439
vn 0.111780 -0.000000 0.993733
vn 0.021705 -0.161221 0.986680
vn 0.037091 -0.153585 0.987439
vn 0.111780 -0.000000 0.993733
vn 0.021702 0.161221 0.986680
vn 0.111780 -0.000000 0.993733
vn 0.111780 -0.000000 0.993733
vn 0.037088 0.153585 0.987439
vn 0.652955 0.753981 0.071848
vn 0.000001 1.000000 0.000000
vn 0.000001 1.000000 0.000000
vn 0.652955 0.753981 0.071848
vn 0.000001 1.000000 0.000000
vn -0.652954 0.753982 -0.071849
vn -0.652954 0.753982 -0.071849
vn 0.000001 1.000000 0.000000
vn -0.652954 0.753982 -0.071849
vn -0.994000 0.000000 -0.109376
vn -0.994000 0.000000 -0.109376
vn -0.652954 0.753982 -0.071849
vn -0.994000 0.000000 -0.109376
vn -0.652954 -0.753982 -0.071849
vn -0.652954 -0.753982 -0.071849
vn -0.994000 0.000000 -0.109376
vn -0.652954 -0.753982 -0.071849
vn 0.000000 -1.000000 0.000000
vn 0.000000 -1.000000 0.000000
vn -0.652954 -0.753982 -0.071849
vn 0.000000 -1.000000 0.000000
vn 0.652955 -0.753982 0.071848
vn 0.652955 -0.753981 0.071848
vn 0.000000 -1.000000 0.000000
vn 0.652955 -0.753982 0.071848
vn 0.994001 -0.000000 0.109375
vn 0.994001 0.000000 0.109375
vn 0.652955 -0.753981 0.071848
vn 0.994001 -0.000000 0.109375
vn 0.652955 0.753981 0.071848
vn 0.652955 0.753981 0.071848
vn 0.994001 0.000000 0.109375
vn 0.109373 0.000000 -0.994001
vn 0.109376 0.000000 -0.994000
vn 0.109374 0.000000 -0.994001
vn 0.109373 0.000001 -0.994001
vn 0.109373 0.000000 -0.994001
vn 0.109374 0.000000 -0.994001
vn 0.109376 0.000000 -0.994000
vn 0.109373 0.000001 -0.994001
vn 0.109374 0.000000 -0.994001
vn 0.109373 -0.000001 -0.994001
vn 0.109376 0.000000 -0.994000
vn 0.109374 0.000000 -0.994001
vn 0.109373 0.000000 -0.994001
vn 0.109373 -0.000001 -0.994001
vn 0.109374 0.000000 -0.994001
vn 0.109376 0.000000 -0.994000
vn 0.109373 0.000000 -0.994001
vn 0.109374 0.000000 -0.994001
vn 0.109376 0.000000 -0.994000
vn 0.109376 0.000000 -0.994000
vn 0.109374 0.000000 -0.994001
vn 0.109376 0.000000 -0.994000
vn 0.109376 0.000000 -0.994000
vn 0.109374 0.000000 -0.994001
vn -0.216816 0.001365 0.976212
vn -0.229609 -0.973282 -0.001142
vn -0.214073 -0.976358 0.029973
vn 0.032374 -0.159212 0.986713
vn -0.224592 0.974429 -0.006844
vn -0.216816 0.001365 0.976212
vn 0.032328 0.159555 0.986660
vn -0.213732 0.976589 0.024333
vn 0.032374 -0.159212 0.986713
vn -0.214073 -0.976358 0.029973
vn -0.122380 -0.991420 0.045939
vn -0.078371 -0.078592 0.993822
vn -0.213732 0.976589 0.024333
vn 0.032328 0.159555 0.986660
vn -0.078406 0.078536 0.993823
vn -0.123438 0.991371 0.044112
vn 0.025298 0.001364 -0.999679
vn -0.219600 0.974429 -0.047584
vn -0.201534 0.976589 -0.075217
vn 0.269594 0.159555 -0.949664
vn -0.223092 -0.973282 -0.054329
vn 0.025298 0.001364 -0.999679
vn 0.269652 -0.159212 -0.949705
vn -0.200503 -0.976358 -0.080773
vn 0.269594 0.159555 -0.949664
vn -0.201534 0.976589 -0.075217
vn -0.109136 0.991371 -0.072611
vn 0.163865 0.078536 -0.983352
vn -0.200503 -0.976358 -0.080773
vn 0.269652 -0.159212 -0.949705
vn 0.163899 -0.078592 -0.983341
vn -0.107668 -0.991419 -0.074128
vn 0.963206 -0.056774 0.262698
vn -0.020165 -0.997978 0.060277
vn -0.005543 -0.999985 -0.000679
vn 0.991008 -0.056190 0.121432
vn -0.085532 -0.064881 0.994221
vn 0.963206 -0.056774 0.262698
vn 0.963206 0.056774 0.262698
vn -0.085541 0.064939 0.994216
vn -0.020165 -0.997978 0.060277
vn -0.085532 -0.064881 0.994221
vn -0.078371 -0.078592 0.993822
vn -0.122380 -0.991420 0.045939
vn -0.085541 0.064939 0.994216
vn -0.020162 0.997972 0.060378
vn -0.123438 0.991371 0.044112
vn -0.078406 0.078536 0.993823
vn -0.020162 0.997972 0.060378
vn 0.963206 0.056774 0.262698
vn 0.991008 0.056190 0.121432
vn -0.005514 0.999985 -0.000676
vn -0.005514 0.999985 -0.000676
vn 0.991008 0.056190 0.121432
vn 0.998137 0.056774 -0.022367
vn -0.004987 0.997972 -0.063460
vn 0.157036 0.064939 -0.985456
vn 0.998137 0.056774 -0.022367
vn 0.998137 -0.056774 -0.022367
vn 0.157046 -0.064881 -0.985458
vn -0.004987 0.997972 -0.063460
vn 0.157036 0.064939 -0.985456
vn 0.163865 0.078536 -0.983352
vn -0.109136 0.991371 -0.072611
vn 0.157046 -0.064881 -0.985458
vn -0.005015 -0.997978 -0.063363
vn -0.107668 -0.991419 -0.074128
vn 0.163899 -0.078592 -0.983341
vn -0.005015 -0.997978 -0.063363
vn 0.998137 -0.056774 -0.022367
vn 0.991008 -0.056190 0.121432
vn -0.005543 -0.999985 -0.000679
vn 0.032328 0.159555 0.986660
vn 0.032374 -0.159212 0.986713
vn -0.078371 -0.078592 0.993822
vn -0.078406 0.078536 0.993823
vn -0.224592 0.974429 -0.006844
vn -0.213732 0.976589 0.024333
vn -0.216152 0.976000 -0.026486
vn -0.226948 0.973510 -0.027809
vn 0.269652 -0.159212 -0.949705
vn 0.269594 0.159555 -0.949664
vn 0.163865 0.078536 -0.983352
vn 0.163899 -0.078592 -0.983341
vn -0.214073 -0.976358 0.029973
vn -0.216315 -0.975964 -0.026506
vn -0.115565 -0.993199 -0.014161
vn -0.122380 -0.991420 0.045939
vn 0.963206 -0.056774 0.262698
vn 0.991008 -0.056190 0.121432
vn 0.991008 0.056190 0.121432
vn 0.963206 0.056774 0.262698
vn -0.123438 0.991371 0.044112
vn -0.020162 0.997972 0.060378
vn -0.005514 0.999985 -0.000676
vn -0.117073 0.993020 -0.014345
vn 0.163899 -0.078592 -0.983341
vn 0.163865 0.078536 -0.983352
vn 0.157036 0.064939 -0.985456
vn 0.157046 -0.064881 -0.985458
vn -0.122380 -0.991420 0.045939
vn -0.115565 -0.993199 -0.014161
vn -0.005543 -0.999985 -0.000679
vn -0.020165 -0.997978 0.060277
vn -0.078406 0.078536 0.993823
vn -0.078371 -0.078592 0.993822
vn -0.085532 -0.064881 0.994221
vn -0.085541 0.064939 0.994216
vn -0.216315 -0.975964 -0.026506
vn -0.200503 -0.976358 -0.080773
vn -0.107668 -0.991419 -0.074128
vn -0.115565 -0.993199 -0.014161
vn -0.005543 -0.999985 -0.000679
vn -0.115565 -0.993199 -0.014161
vn -0.107668 -0.991419 -0.074128
vn -0.005015 -0.997978 -0.063363
vn 0.991008 0.056190 0.121432
vn 0.991008 -0.056190 0.121432
vn 0.998137 -0.056774 -0.022367
vn 0.998137 0.056774 -0.022367
vn -0.117073 0.993020 -0.014345
vn -0.005514 0.999985 -0.000676
vn -0.004987 0.997972 -0.063460
vn -0.109136 0.991371 -0.072611
vn -0.226948 0.973510 -0.027809
vn -0.216152 0.976000 -0.026486
vn -0.201534 0.976589 -0.075217
vn -0.219600 0.974429 -0.047584
vn -0.213732 0.976589 0.024333
vn -0.123438 0.991371 0.044112
vn -0.117073 0.993020 -0.014345
vn -0.216152 0.976000 -0.026486
vn -0.201534 0.976589 -0.075217
vn -0.216152 0.976000 -0.026486
vn -0.117073 0.993020 -0.014345
vn -0.109136 0.991371 -0.072611
vn -0.216816 0.001365 0.976212
vn 0.032374 -0.159212 0.986713
vn 0.032328 0.159555 0.986660
vn -0.231508 -0.972419 -0.028368
vn -0.216315 -0.975964 -0.026506
vn -0.214073 -0.976358 0.029973
vn -0.229609 -0.973282 -0.001142
vn -0.223092 -0.973282 -0.054329
vn -0.200503 -0.976358 -0.080773
vn -0.216315 -0.975964 -0.026506
vn -0.231508 -0.972419 -0.028368
vn 0.025298 0.001364 -0.999679
vn 0.269594 0.159555 -0.949664
vn 0.269652 -0.159212 -0.949705
vn 0.963206 -0.056774 0.262698
vn -0.085532 -0.064881 0.994221
vn -0.020165 -0.997978 0.060277
vn -0.085541 0.064939 0.994216
vn 0.963206 0.056774 0.262698
vn -0.020162 0.997972 0.060378
vn 0.998137 0.056774 -0.022367
vn 0.157036 0.064939 -0.985456
vn -0.004987 0.997972 -0.063460
vn 0.157046 -0.064881 -0.985458
vn 0.998137 -0.056774 -0.022367
vn -0.005015 -0.997978 -0.063363
s off
g Axe:pCylinder10
usemtl blinn1SG
f 1/1/1 2/2/2 30/3/3 31/4/4
f 2/2/5 3/5/6 29/6/7 30/3/8
f 3/7/9 4/8/10 28/9/11 29/10/12
f 4/8/13 5/11/14 27/12/15 28/9/16
f 5/11/17 6/13/18 26/14/19 27/12/20
f 6/13/21 1/1/22 31/4/23 26/14/24
f 7/15/25 8/16/26 13/17/27
f 8/16/28 9/18/29 13/17/30
f 9/18/31 10/19/32 13/17/33
f 10/19/34 11/20/35 13/17/36
f 11/20/37 12/21/38 13/17/39
f 12/21/40 7/15/41 13/17/42
f 15/22/43 14/23/44 32/24/45 33/25/46
f 16/26/47 15/22/48 33/25/49 34/27/50
f 17/28/51 16/26/52 34/27/53 35/29/54
f 18/30/55 17/31/56 35/32/57 36/33/58
f 19/34/59 18/30/60 36/33/61 37/35/62
f 14/23/63 19/34/64 37/35/65 32/24/66
f 21/36/67 20/37/68 14/23/69 15/22/70
f 22/38/71 21/36/72 15/22/73 16/26/74
f 23/39/75 22/38/76 16/26/77 17/28/78
f 24/40/79 23/41/80 17/31/81 18/30/82
f 25/42/83 24/40/84 18/30/85 19/34/86
f 20/37/87 25/42/88 19/34/89 14/23/90
f 27/12/91 26/14/92 39/43/93 40/44/94
f 28/9/95 27/12/96 40/44/97 41/45/98
f 29/10/99 28/9/100 41/45/101 42/46/102
f 30/3/103 29/6/104 42/47/105 43/48/106
f 31/4/107 30/3/108 43/48/109 38/49/110
f 26/14/111 31/4/112 38/49/113 39/43/114
f 33/25/115 32/24/116 12/50/117 11/51/118
f 34/27/119 33/25/120 11/51/121 10/52/122
f 35/29/123 34/27/124 10/52/125 9/53/126
f 36/33/127 35/32/128 9/54/129 8/16/130
f 37/35/131 36/33/132 8/16/133 7/15/134
f 32/24/135 37/35/136 7/15/137 12/50/138
f 39/43/139 38/49/140 25/42/141 20/37/142
f 40/44/143 39/43/144 20/37/145 21/36/146
f 41/45/147 40/44/148 21/36/149 22/38/150
f 42/46/151 41/45/152 22/38/153 23/39/154
f 43/48/155 42/47/156 23/41/157 24/40/158
f 38/49/159 43/48/160 24/40/161 25/42/162
f 45/55/163 44/56/164 46/57/165 47/58/166
f 48/59/167 45/55/168 47/58/169 49/60/170
f 50/61/171 48/62/172 49/63/173 51/64/174
f 52/65/175 50/61/176 51/64/177 53/66/178
f 54/67/179 52/65/180 53/66/181 55/68/182
f 44/56/183 54/67/184 55/68/185 46/57/186
f 2/69/187 1/70/188 44/56/189 45/55/190
f 3/71/191 2/69/192 45/55/193 48/59/194
f 4/72/195 3/73/196 48/62/197 50/61/198
f 5/74/199 4/72/200 50/61/201 52/65/202
f 6/75/203 5/74/204 52/65/205 54/67/206
f 1/70/207 6/75/208 54/67/209 44/56/210
f 60/76/211 61/77/212 69/78/213 68/79/214
f 61/77/215 62/80/216 70/81/217 69/78/218
f 62/80/219 63/82/220 71/83/221 70/81/222
f 63/84/223 64/85/224 72/86/225 71/87/226
f 64/85/227 65/88/228 73/89/229 72/86/230
f 65/88/231 66/90/232 74/91/233 73/89/234
f 66/90/235 67/92/236 75/93/237 74/91/238
f 67/92/239 60/76/240 68/79/241 75/93/242
f 61/94/243 60/95/244 76/96/245
f 62/97/246 61/94/247 76/96/248
f 63/98/249 62/97/250 76/96/251
f 64/99/252 63/98/253 76/96/254
f 65/100/255 64/99/256 76/96/257
f 66/101/258 65/100/259 76/96/260
f 67/102/261 66/101/262 76/96/263
f 60/95/264 67/102/265 76/96/266
f 78/103/267 77/104/268 80/105/269 79/106/270
f 77/107/271 78/108/272 82/109/273 81/110/274
f 79/106/275 80/105/276 112/111/277 113/112/278
f 81/110/279 82/109/280 106/113/281 107/114/282
f 84/115/283 83/116/284 85/117/285 86/118/286
f 83/119/287 84/120/288 88/121/289 87/122/290
f 86/118/291 85/117/292 108/123/293 109/124/294
f 87/122/295 88/121/296 110/125/297 111/126/298
f 89/127/299 91/128/300 104/129/301 105/130/302
f 90/131/303 89/132/304 93/133/305 92/134/306
f 91/128/307 90/135/308 113/112/309 112/111/310
f 92/134/311 94/136/312 107/114/313 106/113/314
f 94/136/315 93/133/316 96/137/317 97/138/318
f 97/138/319 96/137/320 98/139/321 100/140/322
f 99/141/323 98/139/324 102/142/325 101/143/326
f 100/140/327 99/141/328 109/124/329 108/123/330
f 101/144/331 103/145/332 111/126/333 110/125/334
f 103/145/335 102/146/336 105/130/337 104/129/338
f 82/109/339 79/147/340 113/148/341 106/113/342
f 77/107/343 81/110/344 58/149/345 95/150/346
f 88/151/347 86/118/348 109/124/349 110/152/350
f 80/105/351 59/153/352 56/154/353 112/111/354
f 89/127/355 105/130/356 96/137/357 93/133/358
f 107/114/359 94/136/360 97/138/361 57/155/362
f 110/152/363 109/124/364 99/141/365 101/143/366
f 112/111/367 56/154/368 104/129/369 91/128/370
f 106/113/371 113/148/372 90/131/373 92/134/374
f 59/153/375 87/122/376 111/126/377 56/154/378
f 104/129/379 56/154/380 111/126/381 103/145/382
f 96/137/383 105/130/384 102/146/385 98/139/386
f 57/155/387 97/138/388 100/140/389 108/123/390
f 95/150/391 58/149/392 85/117/393 83/116/394
f 81/110/395 107/114/396 57/155/397 58/149/398
f 85/117/399 58/149/400 57/155/401 108/123/402
f 78/108/403 79/147/404 82/109/405
f 95/156/406 59/153/407 80/105/408 77/104/409
f 83/119/410 87/122/411 59/153/412 95/156/413
f 84/115/414 86/118/415 88/151/416
f 89/127/417 90/135/418 91/128/419
f 92/134/420 93/133/421 94/136/422
f 98/139/423 99/141/424 100/140/425
f 101/144/426 102/146/427 103/145/428
