# This file uses centimeters as units for non-parametric coordinates.

mtllib Cabinet01COL.mtl
g default
v -1.453537 11.381773 1.554237
v -1.453537 11.381773 2.290786
v 1.453537 11.381773 2.290786
v 1.453537 11.381773 1.554237
v 3.413241 10.004810 2.290786
v 3.413242 10.004810 1.554237
v 0.000000 10.004810 2.290786
v -3.413241 10.004810 1.554237
v -3.413241 10.004810 2.290786
v 0.000000 10.004810 1.554237
v -3.077394 7.052082 2.038456
v -3.077394 7.052082 -2.230336
v 3.077394 7.052082 -2.230336
v 3.077394 7.052082 2.038456
v -3.077394 6.550364 2.038456
v -3.077394 6.550364 -2.230336
v 3.077394 6.550364 -2.230336
v 3.077394 6.550364 2.038456
v -3.077394 3.704137 2.038456
v -3.077394 3.704137 -2.230336
v 3.077394 3.704137 -2.230336
v 3.077394 3.704137 2.038456
v -3.077394 4.205855 2.038456
v -3.077394 4.205855 -2.230336
v 3.077394 4.205855 -2.230336
v 3.077394 4.205855 2.038456
v 3.614565 -0.000000 -2.654278
v -3.614565 -0.000000 -2.654278
v 3.025527 9.608759 2.502314
v 3.025527 1.147461 2.502314
v -3.025527 9.608759 2.502314
v -3.025527 1.147461 2.502314
v 3.025527 9.608759 -2.159335
v -3.025526 9.608759 -2.159335
v -3.025526 1.147461 -2.159335
v 3.025527 1.147461 -2.159335
v 3.614565 10.040460 -2.654278
v -3.614565 10.040460 -2.654278
v 3.614565 0.000000 2.502314
v -3.614565 -0.000000 2.502314
v -3.614565 10.040460 2.502314
v 3.614565 10.040460 2.502314
vt 0.909212 0.842143
vt 0.933633 0.842173
vt 0.909230 0.842156
vt 0.933651 0.842160
vt 0.909310 0.762258
vt 0.933731 0.762288
vt 0.573340 0.933955
vt 0.682912 0.933955
vt 0.615464 0.975608
vt 0.909244 0.762271
vt 0.933665 0.762275
vt 0.463866 0.873111
vt 0.573438 0.873111
vt 0.531314 0.914764
vt 0.463767 0.933955
vt 0.531215 0.975608
vt 0.683011 0.873111
vt 0.615563 0.914763
vt 0.017308 0.802488
vt 0.017302 0.785853
vt 0.221370 0.785770
vt 0.221376 0.802405
vt 0.017366 0.944023
vt 0.221434 0.943941
vt 0.017244 0.644317
vt 0.221312 0.644234
vt 0.017306 0.802456
vt 0.017304 0.785821
vt 0.221372 0.785802
vt 0.221374 0.802437
vt 0.017291 0.644285
vt 0.221359 0.644266
vt 0.017319 0.943992
vt 0.221387 0.943973
vt 0.635053 0.435216
vt 0.635053 0.243458
vt 0.789615 0.243458
vt 0.789615 0.435217
vt 0.789410 0.213995
vt 0.634848 0.213752
vt 0.635150 0.021994
vt 0.789711 0.022236
vt 0.459150 0.022273
vt 0.613712 0.022273
vt 0.613712 0.302816
vt 0.459150 0.302816
vt 0.613814 0.591338
vt 0.459253 0.591338
vt 0.459253 0.328678
vt 0.613814 0.328678
vt 0.017419 0.346261
vt 0.211809 0.352495
vt 0.211809 0.620570
vt 0.017420 0.626804
vt 0.017069 0.021846
vt 0.256758 0.021846
vt 0.251622 0.325879
vt 0.022205 0.325879
vt 0.819660 0.352165
vt 0.834298 0.377522
vt 0.832267 0.568797
vt 0.820033 0.584840
vt 0.874247 0.549958
vt 0.855025 0.568705
vt 0.854645 0.340928
vt 0.871984 0.358685
vt 0.872315 0.025406
vt 0.873234 0.326944
vt 0.853500 0.307817
vt 0.852858 0.045666
vt 0.831785 0.317769
vt 0.814145 0.327432
vt 0.814651 0.025334
vt 0.832209 0.036163
vt 0.439154 0.023085
vt 0.437919 0.329244
vt 0.277011 0.328576
vt 0.275197 0.022424
vt 0.464085 0.616302
vt 0.628044 0.616302
vt 0.628044 0.855991
vt 0.464085 0.855991
vt 0.435283 0.328627
vt 0.274374 0.328553
vt 0.274551 0.022393
vt 0.438509 0.022488
vt 0.813356 0.672251
vt 0.649433 0.675109
vt 0.649433 0.455964
vt 0.813356 0.453553
vn 0.241858 0.970312 0.000000
vn 0.241858 0.970312 0.000000
vn -0.241858 0.970312 0.000000
vn -0.241858 0.970312 0.000000
vn 0.601587 0.798807 0.000000
vn 0.128646 0.991691 0.000000
vn 0.241858 0.970312 0.000000
vn 0.241858 0.970312 0.000000
vn 0.000000 0.000000 1.000000
vn 0.000000 0.000000 1.000000
vn 0.000000 0.000000 1.000000
vn -0.290251 0.956951 0.000000
vn -0.601587 0.798807 0.000000
vn -0.241858 0.970312 0.000000
vn -0.241858 0.970312 0.000000
vn 0.000000 0.000000 -1.000000
vn 0.000000 0.000000 -1.000000
vn 0.000000 0.000000 -1.000000
vn 0.000000 0.000000 1.000000
vn 0.000000 0.000000 1.000000
vn 0.000000 0.000000 1.000000
vn 0.000000 0.000000 -1.000000
vn 0.000000 0.000000 -1.000000
vn 0.000000 0.000000 -1.000000
vn 0.000000 0.000000 -1.000000
vn 0.000000 0.000000 -1.000000
vn 0.000000 0.000000 -1.000000
vn 0.000000 0.000000 1.000000
vn 0.000000 0.000000 1.000000
vn 0.000000 0.000000 1.000000
vn 0.000000 0.000000 1.000000
vn 0.000000 0.000000 1.000000
vn 0.000000 0.000000 1.000000
vn 0.000000 0.000000 1.000000
vn 0.000000 1.000000 0.000000
vn 0.000000 1.000000 0.000000
vn 0.000000 1.000000 0.000000
vn 0.000000 1.000000 0.000000
vn 0.000000 -1.000000 0.000000
vn 0.000000 -1.000000 0.000000
vn 0.000000 -1.000000 0.000000
vn 0.000000 -1.000000 0.000000
vn 0.000000 0.000000 1.000000
vn 0.000000 0.000000 1.000000
vn 0.000000 0.000000 1.000000
vn 0.000000 0.000000 1.000000
vn 0.000000 -1.000000 0.000000
vn 0.000000 -1.000000 0.000000
vn 0.000000 -1.000000 0.000000
vn 0.000000 -1.000000 0.000000
vn 0.000000 1.000000 0.000000
vn 0.000000 1.000000 0.000000
vn 0.000000 1.000000 0.000000
vn 0.000000 1.000000 0.000000
vn 0.000000 -1.000000 0.000000
vn -0.031125 -0.999516 0.000000
vn -0.031125 -0.999516 0.000000
vn 0.000000 -1.000000 0.000001
vn -0.023773 0.999717 0.000000
vn -0.023773 0.999717 0.000000
vn 0.000000 1.000000 0.000000
vn 0.000000 1.000000 0.000000
vn 1.000000 0.000000 0.000000
vn 1.000000 0.000000 0.000000
vn 1.000000 0.000000 0.000000
vn 1.000000 0.000000 0.000000
vn -0.999883 -0.015282 -0.000001
vn -0.999883 -0.015282 -0.000001
vn -0.999883 0.015282 -0.000001
vn -0.999883 0.015282 -0.000001
vn 0.000000 0.000000 1.000000
vn 0.000000 0.000000 1.000000
vn 0.000000 0.000000 1.000000
vn 0.000000 0.000000 1.000000
vn 0.000000 0.000000 -1.000000
vn 0.000000 0.000000 -1.000000
vn 0.000000 0.000000 -1.000000
vn 0.000000 0.000000 -1.000000
vn 0.000000 0.000000 1.000000
vn 0.000000 0.000000 1.000000
vn 0.000000 0.000000 1.000000
vn 0.000000 0.000000 1.000000
vn 0.000000 0.000000 1.000000
vn 0.000000 0.000000 1.000000
vn 0.000000 0.000000 1.000000
vn 0.000000 0.000000 1.000000
vn 0.000000 0.000000 1.000000
vn 0.000000 0.000000 1.000000
vn 0.000000 0.000000 1.000000
vn 0.000000 0.000000 1.000000
vn 0.000000 0.000000 1.000000
vn 0.000000 0.000000 1.000000
vn 0.000000 0.000000 1.000000
vn 0.000000 0.000000 1.000000
vn 1.000000 0.000000 0.000000
vn 0.999525 0.030812 0.000000
vn 0.999923 0.012394 0.000000
vn 1.000000 0.000000 0.000000
vn 0.000000 -1.000000 0.000000
vn 0.000000 -1.000000 0.000000
vn 0.000000 -1.000000 0.000000
vn 0.000000 -1.000000 0.000000
vn -0.999923 0.012394 0.000000
vn -0.999525 0.030812 0.000000
vn -1.000000 0.000000 0.000000
vn -1.000000 0.000000 0.000000
vn 0.128646 0.991691 0.000000
vn 0.063512 0.997981 0.000000
vn -0.086210 0.996277 0.000000
vn -0.290251 0.956951 0.000000
s off
g polySurface83
usemtl lambert2SG
f 3/1/1 4/2/2 1/3/3 2/4/4
f 5/5/5 6/6/6 4/2/7 3/1/8
f 7/7/9 5/8/10 3/9/11
f 8/10/12 9/11/13 2/4/14 1/3/15
f 6/12/16 10/13/17 4/14/18
f 9/15/19 7/7/20 2/16/21
f 10/13/22 8/17/23 1/18/24
f 10/13/25 1/18/26 4/14/27
f 3/9/28 2/16/29 7/7/30
f 11/19/31 15/20/32 18/21/33 14/22/34
f 12/23/35 11/19/36 14/22/37 13/24/38
f 16/25/39 17/26/40 18/21/41 15/20/42
f 23/27/43 19/28/44 22/29/45 26/30/46
f 20/31/47 21/32/48 22/29/49 19/28/50
f 24/33/51 23/27/52 26/30/53 25/34/54
f 34/35/55 33/36/56 29/37/57 31/38/58
f 30/39/59 36/40/60 35/41/61 32/42/62
f 32/43/63 35/44/64 34/45/65 31/46/66
f 29/47/67 33/48/68 36/49/69 30/50/70
f 35/51/71 36/52/72 33/53/73 34/54/74
f 27/55/75 28/56/76 38/57/77 37/58/78
f 39/59/79 30/60/80 32/61/81 40/62/82
f 29/63/83 42/64/84 41/65/85 31/66/86
f 39/67/87 42/68/88 29/69/89 30/70/90
f 31/71/91 41/72/92 40/73/93 32/74/94
f 27/75/95 37/76/96 42/77/97 39/78/98
f 27/79/99 39/80/100 40/81/101 28/82/102
f 41/83/103 38/84/104 28/85/105 40/86/106
f 42/87/107 37/88/108 38/89/109 41/90/110
