# This file uses centimeters as units for non-parametric coordinates.

mtllib Cup01_Straw.mtl
g default
v 0.515998 2.653626 -0.017072
v 0.531080 2.694725 -0.017072
v 0.575003 2.732679 -0.017072
v 0.635998 2.734829 -0.017072
v 0.492566 2.653626 -0.073641
v 0.510788 2.706440 -0.073641
v 0.563287 2.752971 -0.073641
v 0.635998 2.758260 -0.073641
v 0.435998 2.653626 -0.097072
v 0.461798 2.734725 -0.097072
v 0.535003 2.801961 -0.097072
v 0.635998 2.814829 -0.097072
v 0.379429 2.653626 -0.073641
v 0.412808 2.763009 -0.073641
v 0.506719 2.850951 -0.073641
v 0.635998 2.871397 -0.073641
v 0.355998 2.653626 -0.017072
v 0.392516 2.774725 -0.017072
v 0.495003 2.871243 -0.017072
v 0.635998 2.894829 -0.017072
v 0.379429 2.653626 0.039496
v 0.412808 2.763009 0.039496
v 0.506719 2.850951 0.039496
v 0.635998 2.871397 0.039496
v 0.435998 2.653626 0.062928
v 0.461798 2.734725 0.062928
v 0.535003 2.801961 0.062928
v 0.635998 2.814829 0.062928
v 0.492566 2.653626 0.039496
v 0.510788 2.706440 0.039496
v 0.563287 2.752971 0.039496
v 0.635998 2.758260 0.039496
v 0.515998 0.188915 -0.017072
v 0.492566 0.188915 -0.073641
v 0.435998 0.791276 -0.017072
v 0.435998 0.188915 -0.097072
v 0.379429 0.188915 -0.073641
v 0.355998 0.188915 -0.017072
v 0.379429 0.188915 0.039496
v 0.435998 0.188915 0.062928
v 0.492566 0.188915 0.039496
v 1.716224 2.734829 -0.017072
v 1.716224 2.758260 -0.073641
v 1.572629 2.814829 -0.017072
v 1.716224 2.814829 -0.097072
v 1.716224 2.871397 -0.073641
v 1.716224 2.894829 -0.017072
v 1.716224 2.871397 0.039496
v 1.716224 2.814829 0.062928
v 1.716224 2.758260 0.039496
vt 0.726529 0.253791
vt 0.726529 0.251931
vt 0.715423 0.251901
vt 0.715423 0.253787
vt 0.726529 0.256110
vt 0.715423 0.256096
vt 0.726529 0.258363
vt 0.715423 0.258400
vt 0.717010 0.251839
vt 0.717010 0.253758
vt 0.717010 0.256060
vt 0.717010 0.258482
vt 0.718596 0.251786
vt 0.718596 0.253733
vt 0.718596 0.256032
vt 0.718596 0.258559
vt 0.720183 0.251766
vt 0.720183 0.253725
vt 0.720183 0.256022
vt 0.720183 0.258591
vt 0.721769 0.251786
vt 0.721769 0.253733
vt 0.721769 0.256032
vt 0.721769 0.258559
vt 0.723356 0.251839
vt 0.723356 0.253758
vt 0.723356 0.256060
vt 0.723356 0.258482
vt 0.724942 0.251901
vt 0.724942 0.253787
vt 0.724942 0.256096
vt 0.724942 0.258400
vt 0.726529 0.187979
vt 0.715423 0.187979
vt 0.717010 0.187979
vt 0.718596 0.187979
vt 0.720183 0.187979
vt 0.721769 0.187979
vt 0.904632 0.377975
vt 0.723356 0.187979
vt 0.724942 0.187979
vt 0.917725 0.383398
vt 0.715423 0.286469
vt 0.726529 0.286469
vt 0.904632 0.396491
vt 0.717010 0.286470
vt 0.718596 0.286471
vt 0.923148 0.396491
vt 0.720183 0.286471
vt 0.721769 0.286471
vt 0.917725 0.409583
vt 0.723356 0.286470
vt 0.724942 0.286469
vt 0.904632 0.415006
vt 0.891540 0.409583
vt 0.886117 0.396491
vt 0.891540 0.383398
vt 0.922079 0.312239
vt 0.927503 0.299146
vt 0.908987 0.299146
vt 0.908987 0.317662
vt 0.895895 0.312239
vt 0.890471 0.299146
vt 0.895895 0.286054
vt 0.908987 0.280631
vt 0.922079 0.286054
vt 0.713837 0.286469
vt 0.713837 0.187979
vt 0.713837 0.258363
vt 0.713837 0.256110
vt 0.713837 0.251931
vt 0.713837 0.253791
vn 0.806035 -0.591868 -0.000000
vn 0.999974 -0.007176 0.000000
vn 0.704803 -0.005188 -0.709384
vn 0.513854 -0.365545 -0.776100
vn 0.360700 -0.932682 -0.000000
vn 0.238553 -0.576059 -0.781824
vn 0.003269 -0.999995 0.000000
vn 0.003275 -0.705061 -0.709139
vn -0.004679 0.001373 -0.999988
vn -0.105396 0.068685 -0.992056
vn -0.053378 0.118782 -0.991485
vn -0.001668 0.007614 -0.999970
vn -0.709501 0.009267 -0.704644
vn -0.641651 0.413776 -0.645813
vn -0.333695 0.686786 -0.645734
vn -0.012122 0.712383 -0.701686
vn -0.999920 0.012630 0.000000
vn -0.842704 0.538377 0.000000
vn -0.444095 0.895980 0.000000
vn -0.017462 0.999848 0.000000
vn -0.709501 0.009267 0.704644
vn -0.641651 0.413776 0.645813
vn -0.333694 0.686786 0.645735
vn -0.012122 0.712383 0.701686
vn -0.004679 0.001373 0.999988
vn -0.105395 0.068684 0.992056
vn -0.053377 0.118782 0.991485
vn -0.001668 0.007614 0.999970
vn 0.704803 -0.005188 0.709384
vn 0.513853 -0.365546 0.776100
vn 0.238554 -0.576059 0.781823
vn 0.003275 -0.705061 0.709139
vn 0.486689 0.873575 0.000000
vn 0.486690 0.617711 0.617710
vn 1.000000 -0.000000 -0.000000
vn 0.486688 -0.000002 0.873576
vn 0.486690 -0.617712 0.617710
vn 0.486689 -0.873575 0.000000
vn 0.486690 -0.617711 -0.617710
vn 0.486688 0.000001 -0.873576
vn 0.486690 0.617712 -0.617710
vn -0.700952 -0.131655 0.700952
vn -0.991296 -0.131655 -0.000000
vn -0.000000 -1.000000 0.000000
vn 0.000000 -0.131655 0.991296
vn 0.700952 -0.131655 0.700952
vn 0.991296 -0.131654 0.000000
vn 0.700952 -0.131655 -0.700952
vn -0.000000 -0.131655 -0.991296
vn -0.700952 -0.131655 -0.700952
vn 1.000000 0.000000 0.000000
vn 0.707107 0.000000 -0.707107
vn -0.000000 0.000000 -1.000000
vn -0.707107 0.000000 -0.707107
vn -1.000000 0.000000 0.000000
vn -0.707107 0.000000 0.707107
vn 0.000000 0.000000 1.000000
vn 0.707107 0.000000 0.707107
vn 0.000000 -0.707107 -0.707106
vn 0.000000 -1.000000 0.000000
vn 0.000000 0.000000 -1.000000
vn 0.000000 0.707107 -0.707107
vn 0.000000 1.000000 0.000000
vn 0.000000 0.707107 0.707107
vn 0.000000 0.000000 1.000000
vn 0.000000 -0.707108 0.707106
s 1
g pTorus2
usemtl cup:Cup01:blinn1SG
f 2/72/1 1/71/2 5/3/3 6/4/4
f 3/70/5 2/72/1 6/4/4 7/6/6
f 4/69/7 3/70/5 7/6/6 8/8/8
f 6/4/4 5/3/3 9/9/9 10/10/10
f 7/6/6 6/4/4 10/10/10 11/11/11
f 8/8/8 7/6/6 11/11/11 12/12/12
f 10/10/10 9/9/9 13/13/13 14/14/14
f 11/11/11 10/10/10 14/14/14 15/15/15
f 12/12/12 11/11/11 15/15/15 16/16/16
f 14/14/14 13/13/13 17/17/17 18/18/18
f 15/15/15 14/14/14 18/18/18 19/19/19
f 16/16/16 15/15/15 19/19/19 20/20/20
f 18/18/18 17/17/17 21/21/21 22/22/22
f 19/19/19 18/18/18 22/22/22 23/23/23
f 20/20/20 19/19/19 23/23/23 24/24/24
f 22/22/22 21/21/21 25/25/25 26/26/26
f 23/23/23 22/22/22 26/26/26 27/27/27
f 24/24/24 23/23/23 27/27/27 28/28/28
f 26/26/26 25/25/25 29/29/29 30/30/30
f 27/27/27 26/26/26 30/30/30 31/31/31
f 28/28/28 27/27/27 31/31/31 32/32/32
f 30/30/30 29/29/29 1/2/2 2/1/1
f 31/31/31 30/30/30 2/1/1 3/5/5
f 32/32/32 31/31/31 3/5/5 4/7/7
s 2
f 42/39/33 43/42/34 44/45/35
f 43/42/34 45/48/36 44/45/35
f 45/48/36 46/51/37 44/45/35
f 46/51/37 47/54/38 44/45/35
f 47/54/38 48/55/39 44/45/35
f 48/55/39 49/56/40 44/45/35
f 49/56/40 50/57/41 44/45/35
f 50/57/41 42/39/33 44/45/35
s 3
f 34/58/42 33/59/43 35/60/44
f 36/61/45 34/58/42 35/60/44
f 37/62/46 36/61/45 35/60/44
f 38/63/47 37/62/46 35/60/44
f 39/64/48 38/63/47 35/60/44
f 40/65/49 39/64/48 35/60/44
f 41/66/50 40/65/49 35/60/44
f 33/59/43 41/66/50 35/60/44
s 1
f 5/3/3 1/71/2 33/68/51 34/34/52
f 9/9/9 5/3/3 34/34/52 36/35/53
f 13/13/13 9/9/9 36/35/53 37/36/54
f 17/17/17 13/13/13 37/36/54 38/37/55
f 21/21/21 17/17/17 38/37/55 39/38/56
f 25/25/25 21/21/21 39/38/56 40/40/57
f 29/29/29 25/25/25 40/40/57 41/41/58
f 1/2/2 29/29/29 41/41/58 33/33/51
f 4/69/7 8/8/8 43/43/59 42/67/60
f 8/8/8 12/12/12 45/46/61 43/43/59
f 12/12/12 16/16/16 46/47/62 45/46/61
f 16/16/16 20/20/20 47/49/63 46/47/62
f 20/20/20 24/24/24 48/50/64 47/49/63
f 24/24/24 28/28/28 49/52/65 48/50/64
f 28/28/28 32/32/32 50/53/66 49/52/65
f 32/32/32 4/7/7 42/44/60 50/53/66
