# This file uses centimeters as units for non-parametric coordinates.

mtllib Flare01_coalsmall.mtl
g default
v 2.412927 5.920482 -1.838093
v 0.921656 5.920482 -2.974096
v -0.921656 5.920482 -2.974096
v -2.412927 5.920482 -1.838092
v -2.982541 5.920482 0.000000
v -2.412927 5.920482 1.838092
v -0.921656 5.920482 2.974096
v 0.921656 5.920482 2.974096
v 2.412926 5.920482 1.838092
v 2.982541 5.920482 0.000000
v 1.827740 7.632920 -1.374443
v 0.613247 7.632920 -1.978889
v -0.665711 7.632920 -2.223894
v -1.605501 7.632920 -1.223021
v -2.206747 7.632920 0.000000
v -1.605501 7.632920 1.223021
v -0.665710 7.632920 2.223894
v 0.613247 7.632920 1.978889
v 1.827740 7.632920 1.374442
v 1.984508 7.632920 0.000000
v 0.745635 7.893955 -0.568002
v 0.343532 7.956982 -1.032833
v -0.284807 7.893955 -0.919046
v -0.814490 7.956982 -0.638326
v -0.921656 7.893955 0.000000
v -0.814490 7.956982 0.638326
v -0.284807 7.893955 0.919046
v 0.343532 7.956982 1.032833
v 0.745635 7.893955 0.568002
v 1.059228 7.956982 0.000000
v 0.000000 7.983902 0.000000
vt 0.859974 0.671284
vt 0.832748 0.584970
vt 0.884750 0.552631
vt 0.950648 0.604370
vt 0.750062 0.671576
vt 0.774552 0.594968
vt 0.657578 0.608208
vt 0.729613 0.552782
vt 0.617970 0.498982
vt 0.706706 0.496938
vt 0.652497 0.388051
vt 0.727010 0.440098
vt 0.741941 0.320486
vt 0.769948 0.395880
vt 0.851737 0.315688
vt 0.828540 0.403173
vt 0.945408 0.378326
vt 0.881981 0.433067
vt 0.987998 0.490420
vt 0.892247 0.492643
vt 0.818339 0.540487
vt 0.836080 0.519609
vt 0.790219 0.536896
vt 0.766845 0.524163
vt 0.761347 0.495676
vt 0.765523 0.466966
vt 0.788282 0.453166
vt 0.816205 0.448276
vt 0.834892 0.468311
vt 0.848501 0.493658
vt 0.802125 0.494733
vn 0.284219 0.461384 -0.840443
vn 0.251620 0.627739 -0.736635
vn 0.664047 0.592480 -0.456080
vn 0.723107 0.467985 -0.508042
vn -0.282863 0.482009 -0.829250
vn -0.255543 0.604706 -0.754340
vn 0.251620 0.627739 -0.736635
vn 0.284219 0.461384 -0.840443
vn -0.728889 0.458010 -0.508870
vn -0.645956 0.620135 -0.445167
vn -0.255543 0.604706 -0.754340
vn -0.282863 0.482009 -0.829250
vn -0.883221 0.468957 -0.000000
vn -0.803297 0.595579 -0.000000
vn -0.645956 0.620135 -0.445167
vn -0.728889 0.458010 -0.508870
vn -0.728889 0.458010 0.508870
vn -0.645956 0.620135 0.445167
vn -0.803297 0.595579 -0.000000
vn -0.883221 0.468957 -0.000000
vn -0.282863 0.482009 0.829250
vn -0.255543 0.604706 0.754340
vn -0.645956 0.620135 0.445167
vn -0.728889 0.458010 0.508870
vn 0.284219 0.461384 0.840443
vn 0.251620 0.627739 0.736635
vn -0.255543 0.604706 0.754340
vn -0.282863 0.482009 0.829250
vn 0.723107 0.467985 0.508042
vn 0.664047 0.592480 0.456080
vn 0.251620 0.627739 0.736635
vn 0.284219 0.461384 0.840443
vn 0.896967 0.442098 0.000000
vn 0.790853 0.612007 0.000000
vn 0.664047 0.592480 0.456080
vn 0.723107 0.467985 0.508042
vn 0.723107 0.467985 -0.508042
vn 0.664047 0.592480 -0.456080
vn 0.790853 0.612007 0.000000
vn 0.896967 0.442098 0.000000
vn 0.664047 0.592480 -0.456080
vn 0.251620 0.627739 -0.736635
vn 0.069866 0.977542 -0.198821
vn 0.183440 0.975004 -0.125364
vn 0.251620 0.627739 -0.736635
vn -0.255543 0.604706 -0.754340
vn -0.072096 0.975956 -0.205697
vn 0.069866 0.977542 -0.198821
vn -0.255543 0.604706 -0.754340
vn -0.645956 0.620135 -0.445167
vn -0.176576 0.976640 -0.122456
vn -0.072096 0.975956 -0.205697
vn -0.645956 0.620135 -0.445167
vn -0.803297 0.595579 -0.000000
vn -0.227287 0.973828 0.000000
vn -0.176576 0.976640 -0.122456
vn -0.803297 0.595579 -0.000000
vn -0.645956 0.620135 0.445167
vn -0.176576 0.976640 0.122456
vn -0.227287 0.973828 0.000000
vn -0.645956 0.620135 0.445167
vn -0.255543 0.604706 0.754340
vn -0.072096 0.975956 0.205697
vn -0.176576 0.976640 0.122456
vn -0.255543 0.604706 0.754340
vn 0.251620 0.627739 0.736635
vn 0.069866 0.977542 0.198821
vn -0.072096 0.975956 0.205697
vn 0.251620 0.627739 0.736635
vn 0.664047 0.592480 0.456080
vn 0.183440 0.975004 0.125365
vn 0.069866 0.977542 0.198821
vn 0.664047 0.592480 0.456080
vn 0.790853 0.612007 0.000000
vn 0.218516 0.975833 0.000000
vn 0.183440 0.975004 0.125365
vn 0.790853 0.612007 0.000000
vn 0.664047 0.592480 -0.456080
vn 0.183440 0.975004 -0.125364
vn 0.218516 0.975833 0.000000
vn 0.183440 0.975004 -0.125364
vn 0.069866 0.977542 -0.198821
vn -0.002310 0.999997 0.000000
vn 0.069866 0.977542 -0.198821
vn -0.072096 0.975956 -0.205697
vn -0.002310 0.999997 0.000000
vn -0.072096 0.975956 -0.205697
vn -0.176576 0.976640 -0.122456
vn -0.002310 0.999997 0.000000
vn -0.176576 0.976640 -0.122456
vn -0.227287 0.973828 0.000000
vn -0.002310 0.999997 0.000000
vn -0.227287 0.973828 0.000000
vn -0.176576 0.976640 0.122456
vn -0.002310 0.999997 0.000000
vn -0.176576 0.976640 0.122456
vn -0.072096 0.975956 0.205697
vn -0.002310 0.999997 0.000000
vn -0.072096 0.975956 0.205697
vn 0.069866 0.977542 0.198821
vn -0.002310 0.999997 0.000000
vn 0.069866 0.977542 0.198821
vn 0.183440 0.975004 0.125365
vn -0.002310 0.999997 0.000000
vn 0.183440 0.975004 0.125365
vn 0.218516 0.975833 0.000000
vn -0.002310 0.999997 0.000000
vn 0.218516 0.975833 0.000000
vn 0.183440 0.975004 -0.125364
vn -0.002310 0.999997 0.000000
s off
g polySurface1 pSphere2
usemtl blinn1SG
f 2/1/1 12/2/2 11/3/3 1/4/4
f 3/5/5 13/6/6 12/2/7 2/1/8
f 4/7/9 14/8/10 13/6/11 3/5/12
f 5/9/13 15/10/14 14/8/15 4/7/16
f 6/11/17 16/12/18 15/10/19 5/9/20
f 7/13/21 17/14/22 16/12/23 6/11/24
f 8/15/25 18/16/26 17/14/27 7/13/28
f 9/17/29 19/18/30 18/16/31 8/15/32
f 10/19/33 20/20/34 19/18/35 9/17/36
f 1/4/37 11/3/38 20/20/39 10/19/40
f 11/3/41 12/2/42 22/21/43 21/22/44
f 12/2/45 13/6/46 23/23/47 22/21/48
f 13/6/49 14/8/50 24/24/51 23/23/52
f 14/8/53 15/10/54 25/25/55 24/24/56
f 15/10/57 16/12/58 26/26/59 25/25/60
f 16/12/61 17/14/62 27/27/63 26/26/64
f 17/14/65 18/16/66 28/28/67 27/27/68
f 18/16/69 19/18/70 29/29/71 28/28/72
f 19/18/73 20/20/74 30/30/75 29/29/76
f 20/20/77 11/3/78 21/22/79 30/30/80
f 21/22/81 22/21/82 31/31/83
f 22/21/84 23/23/85 31/31/86
f 23/23/87 24/24/88 31/31/89
f 24/24/90 25/25/91 31/31/92
f 25/25/93 26/26/94 31/31/95
f 26/26/96 27/27/97 31/31/98
f 27/27/99 28/28/100 31/31/101
f 28/28/102 29/29/103 31/31/104
f 29/29/105 30/30/106 31/31/107
f 30/30/108 21/22/109 31/31/110
