# This file uses centimeters as units for non-parametric coordinates.

mtllib LizEggPhoto01COL.mtl
g default
v 1.079782 2.583599 -0.386795
v 1.082897 2.669854 -0.098883
v -1.079782 2.583599 -0.386795
v -1.079782 2.669854 -0.098883
v -1.079782 -0.003327 0.388751
v -1.079782 0.082927 0.676663
v 1.079782 -0.003327 0.388751
v 1.079782 0.082927 0.676663
vt 0.252091 0.637586
vt 0.121674 0.462992
vt 0.243183 0.455709
vt 0.197284 0.599924
vt 0.259014 0.455709
vt 0.259014 0.544409
vt 0.243183 0.544409
vt 0.173548 0.599923
vt 0.173553 0.463063
vt 0.197289 0.463064
vt 0.145438 0.600016
vt 0.236230 0.548716
vt 0.252091 0.548716
vt 0.236230 0.637586
vt 0.121674 0.600016
vt 0.145438 0.462992
vn 0.000000 0.286982 0.957936
vn 0.000000 0.286983 0.957936
vn 0.000000 0.286981 0.957936
vn 0.000000 0.286982 0.957936
vn 0.000000 0.957934 -0.286988
vn 0.000000 0.957934 -0.286988
vn 0.000000 0.957934 -0.286988
vn 0.000000 0.957934 -0.286988
vn -1.000000 0.000000 0.000000
vn -1.000000 0.000000 0.000000
vn -1.000000 0.000000 0.000000
vn -1.000000 0.000000 0.000000
vn 0.000000 -0.286982 -0.957936
vn 0.000000 -0.286983 -0.957936
vn 0.000000 -0.286982 -0.957936
vn 0.000000 -0.286983 -0.957936
vn 0.000000 -0.957936 0.286983
vn 0.000000 -0.957936 0.286983
vn 0.000000 -0.957936 0.286983
vn 0.000000 -0.957936 0.286983
vn 1.000000 0.000000 0.000000
vn 1.000000 0.000000 0.000000
vn 1.000000 0.000000 0.000000
vn 1.000000 0.000000 0.000000
s off
g pCube12
usemtl initialShadingGroup
f 6/1/1 8/2/2 2/3/3 4/4/4
f 2/3/5 1/5/6 3/6/7 4/7/8
f 4/4/9 3/8/10 5/9/11 6/10/12
f 5/9/13 3/6/14 1/11/15 7/12/16
f 7/12/17 8/13/18 6/1/19 5/14/20
f 1/11/21 2/15/22 8/2/23 7/16/24
