# This file uses centimeters as units for non-parametric coordinates.

mtllib Maps03COL.mtl
g default
v 0.390644 0.000000 -0.390644
v -0.390644 0.000000 -0.390644
v -0.390644 0.000000 0.390644
v 0.390644 0.000000 0.390644
v 0.390644 5.912611 -0.390644
v -0.390644 5.912611 -0.390644
v -0.390644 5.912611 0.390644
v 0.390644 5.912611 0.390644
v 0.000000 5.912611 0.000000
v 0.000000 0.000000 0.000000
vt 0.840718 0.292426
vt 0.838539 0.680678
vt 0.885668 0.292852
vt 0.884120 0.680702
vt 0.930739 0.296109
vt 0.929764 0.677786
vt 0.795684 0.294794
vt 0.792989 0.677748
vt 0.580058 0.599240
vt 0.595066 0.577644
vt 0.579850 0.556297
vt 0.579829 0.506773
vt 0.579871 0.463806
vt 0.568411 0.463852
vt 0.553219 0.531595
vt 0.568326 0.506827
vt 0.568295 0.556429
vt 0.568307 0.599420
vn 0.705816 -0.057756 -0.706037
vn 0.705816 0.057756 -0.706037
vn -0.705816 0.057756 -0.706037
vn -0.705816 -0.057756 -0.706037
vn -0.705816 -0.057756 -0.706037
vn -0.705816 0.057756 -0.706037
vn -0.706099 0.056232 0.705877
vn -0.706099 -0.056232 0.705877
vn -0.706099 -0.056232 0.705877
vn -0.706099 0.056232 0.705877
vn 0.784283 0.053770 0.618069
vn 0.784283 -0.053770 0.618069
vn 0.784283 -0.053770 0.618069
vn 0.784283 0.053770 0.618069
vn 0.705816 0.057756 -0.706037
vn 0.705816 -0.057756 -0.706037
vn 0.000000 1.000000 0.000000
vn -0.378894 0.844322 0.378893
vn 0.378893 0.844322 0.378892
vn 0.000000 1.000000 0.000000
vn 0.378893 0.844322 0.378892
vn 0.378894 0.844322 -0.378893
vn 0.000000 1.000000 0.000000
vn 0.378894 0.844322 -0.378893
vn -0.378894 0.844322 -0.378894
vn 0.000000 1.000000 0.000000
vn -0.378894 0.844322 -0.378894
vn -0.378894 0.844322 0.378893
vn 0.000000 -1.000000 0.000000
vn 0.378893 -0.844323 0.378893
vn -0.378893 -0.844323 0.378893
vn 0.000000 -1.000000 0.000000
vn -0.378893 -0.844323 0.378893
vn -0.378893 -0.844323 -0.378893
vn 0.000000 -1.000000 0.000000
vn -0.378893 -0.844323 -0.378893
vn 0.378893 -0.844323 -0.378893
vn 0.000000 -1.000000 0.000000
vn 0.378893 -0.844323 -0.378893
vn 0.378893 -0.844323 0.378893
s off
g Maps03COL:pTorus7
usemtl lambert2SG
f 5/2/1 1/1/2 2/3/3 6/4/4
f 6/4/5 2/3/6 3/5/7 7/6/8
f 7/6/9 3/5/10 4/7/11 8/8/12
f 8/8/13 4/7/14 1/1/15 5/2/16
f 9/10/17 5/9/18 6/11/19
f 9/10/20 6/11/21 7/12/22
f 9/10/23 7/12/24 8/13/25
f 9/10/26 8/13/27 5/9/28
f 10/15/29 2/14/30 1/16/31
f 10/15/32 1/16/33 4/17/34
f 10/15/35 4/17/36 3/18/37
f 10/15/38 3/18/39 2/14/40
