# This file uses centimeters as units for non-parametric coordinates.

mtllib Maps02.mtl
g default
v -2.956305 0.135194 -0.326388
v -2.956305 0.461582 -0.461582
v -2.956305 0.787970 -0.326388
v -2.956306 0.923164 0.000000
v -2.956305 0.787970 0.326388
v -2.956305 0.461582 0.461582
v -2.956305 0.135194 0.326388
v -2.956305 0.000000 0.000000
v 2.956305 0.135194 -0.326388
v 2.956305 0.461582 -0.461582
v 2.956305 0.787970 -0.326388
v 2.956305 0.923164 0.000000
v 2.956305 0.787970 0.326388
v 2.956305 0.461582 0.461582
v 2.956305 0.135194 0.326388
v 2.956306 0.000000 0.000000
v 2.850876 0.233341 -0.228241
v 2.850876 0.138801 0.000000
v 2.850876 0.233341 0.228241
v 2.850876 0.461582 0.322781
v 2.850876 0.689823 0.228241
v 2.850876 0.784364 0.000000
v 2.850876 0.689823 -0.228241
v 2.850876 0.461582 -0.322781
v -2.850876 0.689823 -0.228241
v -2.850876 0.461582 -0.322781
v -2.850876 0.233341 -0.228241
v -2.850876 0.138801 0.000000
v -2.850876 0.233341 0.228241
v -2.850876 0.461582 0.322781
v -2.850876 0.689823 0.228241
v -2.850876 0.784364 0.000000
v -2.956305 0.026126 2.178351
v 2.956305 0.026126 2.178351
v -2.956305 0.204623 0.769699
v 2.956305 0.204623 0.769699
v -2.956305 0.044800 1.088879
v 2.956306 0.044800 1.088879
vt 0.200932 0.437831
vt 0.224115 0.437876
vt 0.223393 0.825868
vt 0.200211 0.825824
vt 0.247298 0.437920
vt 0.246576 0.825912
vt 0.270481 0.437964
vt 0.269759 0.825956
vt 0.293664 0.438008
vt 0.292941 0.825999
vt 0.316847 0.438051
vt 0.316124 0.826042
vt 0.340030 0.438094
vt 0.339306 0.826085
vt 0.154566 0.437743
vt 0.177749 0.437786
vt 0.177028 0.825780
vt 0.153845 0.825736
vt 0.526159 0.577986
vt 0.526174 0.556298
vt 0.541348 0.556334
vt 0.541333 0.577938
vt 0.526191 0.531455
vt 0.541365 0.531446
vt 0.526206 0.506502
vt 0.541380 0.506561
vt 0.526194 0.484994
vt 0.541368 0.484959
vt 0.526155 0.463333
vt 0.541329 0.463362
vt 0.526205 0.438495
vt 0.541379 0.438454
vt 0.526204 0.624449
vt 0.526189 0.599513
vt 0.541364 0.599521
vt 0.541378 0.624379
vt 0.499852 0.531466
vt 0.499873 0.506521
vt 0.515071 0.506562
vt 0.515050 0.531491
vt 0.499918 0.484886
vt 0.515115 0.484915
vt 0.499952 0.463313
vt 0.515149 0.463305
vt 0.499962 0.438396
vt 0.515159 0.438340
vt 0.499928 0.624627
vt 0.499906 0.599716
vt 0.515103 0.599702
vt 0.515126 0.624629
vt 0.499802 0.578118
vt 0.515000 0.578093
vt 0.499864 0.556520
vt 0.515060 0.556406
vt 0.421436 0.824926
vt 0.404675 0.824926
vt 0.404675 0.438072
vt 0.421436 0.438072
vt 0.438198 0.824926
vt 0.438198 0.438072
vt 0.454960 0.824926
vt 0.454960 0.438072
vt 0.471721 0.824926
vt 0.471721 0.438072
vt 0.488483 0.824926
vt 0.488483 0.438072
vt 0.371151 0.824926
vt 0.354389 0.824926
vt 0.354390 0.438072
vt 0.371151 0.438072
vt 0.387913 0.824926
vt 0.387913 0.438072
vt 0.014496 0.436840
vt 0.044196 0.436840
vt 0.044196 0.828182
vt 0.014497 0.828182
vt 0.067822 0.436840
vt 0.067822 0.828182
vt 0.139942 0.436840
vt 0.139942 0.828182
vn 0.000000 -0.707107 -0.707107
vn 0.000000 0.000000 -1.000000
vn 0.000000 0.000000 -1.000000
vn 0.000000 -0.707107 -0.707107
vn 0.000000 0.000000 -1.000000
vn -0.000000 0.707107 -0.707107
vn -0.000000 0.707107 -0.707107
vn 0.000000 0.000000 -1.000000
vn -0.000000 0.707107 -0.707107
vn 0.000000 1.000000 0.000000
vn 0.000000 1.000000 0.000000
vn -0.000000 0.707107 -0.707107
vn 0.000000 1.000000 0.000000
vn 0.000000 0.707107 0.707107
vn 0.000000 0.707107 0.707107
vn 0.000000 1.000000 0.000000
vn 0.000000 0.707107 0.707107
vn 0.000000 0.707107 0.707107
vn 0.000000 0.000000 1.000000
vn 0.000000 0.000000 1.000000
vn 0.000000 0.000000 1.000000
vn 0.000000 -0.382684 0.923879
vn 0.000000 -0.382684 0.923879
vn 0.000000 0.000000 1.000000
vn 0.000000 -0.923879 0.382684
vn 0.000000 -1.000000 0.000000
vn 0.000000 -1.000000 0.000000
vn 0.000000 -0.923879 0.382684
vn 0.000000 -1.000000 0.000000
vn 0.000000 -0.707107 -0.707107
vn 0.000000 -0.707107 -0.707107
vn 0.000000 -1.000000 0.000000
vn 0.796325 0.427707 0.427707
vn 0.796325 0.000000 0.604869
vn 0.796325 0.000000 0.604869
vn 0.796325 0.427707 0.427707
vn 0.796325 0.000000 0.604869
vn 0.796325 -0.427707 0.427707
vn 0.796325 -0.427707 0.427707
vn 0.796325 0.000000 0.604869
vn 0.796325 -0.427707 0.427707
vn 0.796325 -0.604870 0.000000
vn 0.796325 -0.604870 0.000000
vn 0.796325 -0.427707 0.427707
vn 0.796325 -0.604870 0.000000
vn 0.796325 -0.427708 -0.427707
vn 0.796325 -0.427707 -0.427707
vn 0.796325 -0.604870 0.000000
vn 0.796325 -0.427708 -0.427707
vn 0.796325 0.000000 -0.604869
vn 0.796325 0.000000 -0.604869
vn 0.796325 -0.427707 -0.427707
vn 0.796325 0.000000 -0.604869
vn 0.796325 0.427708 -0.427707
vn 0.796325 0.427708 -0.427707
vn 0.796325 0.000000 -0.604869
vn 0.796325 0.427708 -0.427707
vn 0.796325 0.604870 0.000000
vn 0.796325 0.604870 0.000000
vn 0.796325 0.427708 -0.427707
vn 0.796325 0.604870 0.000000
vn 0.796325 0.427707 0.427707
vn 0.796325 0.427707 0.427707
vn 0.796325 0.604870 0.000000
vn -0.796326 -0.427706 0.427706
vn -0.796326 0.000000 0.604867
vn -0.796326 0.000000 0.604867
vn -0.796326 -0.427706 0.427706
vn -0.796326 0.000000 0.604867
vn -0.796326 0.427706 0.427706
vn -0.796326 0.427706 0.427706
vn -0.796326 0.000000 0.604867
vn -0.796326 0.427706 0.427706
vn -0.796326 0.604867 0.000000
vn -0.796326 0.604867 0.000000
vn -0.796326 0.427706 0.427706
vn -0.796326 0.604867 0.000000
vn -0.796326 0.427706 -0.427706
vn -0.796326 0.427706 -0.427706
vn -0.796326 0.604867 0.000000
vn -0.796326 0.427706 -0.427706
vn -0.796326 0.000000 -0.604867
vn -0.796326 0.000000 -0.604867
vn -0.796326 0.427706 -0.427706
vn -0.796326 0.000000 -0.604867
vn -0.796326 -0.427707 -0.427706
vn -0.796326 -0.427706 -0.427706
vn -0.796326 0.000000 -0.604867
vn -0.796326 -0.427707 -0.427706
vn -0.796326 -0.604868 0.000000
vn -0.796326 -0.604868 0.000000
vn -0.796326 -0.427706 -0.427706
vn -0.796326 -0.604868 0.000000
vn -0.796326 -0.427706 0.427706
vn -0.796326 -0.427706 0.427706
vn -0.796326 -0.604868 0.000000
vn 0.000000 1.000000 0.000000
vn 0.000000 0.707107 0.707107
vn 0.000000 0.707107 0.707107
vn 0.000000 1.000000 0.000000
vn -0.000000 0.707107 -0.707107
vn 0.000000 1.000000 0.000000
vn 0.000000 1.000000 0.000000
vn -0.000000 0.707107 -0.707107
vn 0.000000 0.000000 -1.000000
vn -0.000000 0.707107 -0.707107
vn -0.000000 0.707107 -0.707107
vn 0.000000 0.000000 -1.000000
vn 0.000000 -0.707107 -0.707107
vn 0.000000 0.000000 -1.000000
vn 0.000000 0.000000 -1.000000
vn 0.000000 -0.707107 -0.707107
vn 0.000000 -1.000000 0.000000
vn 0.000000 -0.707107 -0.707107
vn 0.000000 -0.707107 -0.707107
vn 0.000000 -1.000000 0.000000
vn 0.000000 -0.707107 0.707107
vn 0.000000 -1.000000 0.000000
vn 0.000000 -1.000000 0.000000
vn 0.000000 -0.707107 0.707107
vn 0.000000 0.000000 1.000000
vn 0.000000 -0.707107 0.707107
vn 0.000000 -0.707107 0.707107
vn 0.000000 0.000000 1.000000
vn 0.000000 0.707107 0.707107
vn 0.000000 0.000000 1.000000
vn 0.000000 0.000000 1.000000
vn 0.000000 0.707107 0.707107
vn 0.000000 0.987957 -0.154727
vn 0.000000 0.993046 0.117728
vn 0.000000 0.993046 0.117728
vn 0.000000 0.987957 -0.154727
vn 0.000000 0.993046 0.117728
vn 0.000000 0.992067 0.125709
vn 0.000000 0.992067 0.125709
vn 0.000000 0.993046 0.117728
vn 0.000000 0.992067 0.125709
vn 0.000000 0.999853 0.017137
vn 0.000000 0.999853 0.017137
vn 0.000000 0.992067 0.125709
s off
g Maps02:pCylinder28
usemtl blinn1SG
f 1/1/1 2/2/2 10/3/3 9/4/4
f 2/2/5 3/5/6 11/6/7 10/3/8
f 3/5/9 4/7/10 12/8/11 11/6/12
f 4/7/13 5/9/14 13/10/15 12/8/16
f 13/10/17 5/9/18 6/11/19 14/12/20
f 6/11/21 7/13/22 15/14/23 14/12/24
f 7/15/25 8/16/26 16/17/27 15/18/28
f 8/16/29 1/1/30 9/4/31 16/17/32
f 9/19/33 10/20/34 24/21/35 17/22/36
f 10/20/37 11/23/38 23/24/39 24/21/40
f 11/23/41 12/25/42 22/26/43 23/24/44
f 12/25/45 13/27/46 21/28/47 22/26/48
f 13/27/49 14/29/50 20/30/51 21/28/52
f 14/29/53 15/31/54 19/32/55 20/30/56
f 15/33/57 16/34/58 18/35/59 19/36/60
f 16/34/61 9/19/62 17/22/63 18/35/64
f 3/37/65 2/38/66 26/39/67 25/40/68
f 2/38/69 1/41/70 27/42/71 26/39/72
f 1/41/73 8/43/74 28/44/75 27/42/76
f 8/43/77 7/45/78 29/46/79 28/44/80
f 7/47/81 6/48/82 30/49/83 29/50/84
f 6/48/85 5/51/86 31/52/87 30/49/88
f 5/51/89 4/53/90 32/54/91 31/52/92
f 4/53/93 3/37/94 25/40/95 32/54/96
f 18/55/97 17/56/98 27/57/99 28/58/100
f 19/59/101 18/55/102 28/58/103 29/60/104
f 20/61/105 19/59/106 29/60/107 30/62/108
f 21/63/109 20/61/110 30/62/111 31/64/112
f 22/65/113 21/63/114 31/64/115 32/66/116
f 23/67/117 22/68/118 32/69/119 25/70/120
f 24/71/121 23/67/122 25/70/123 26/72/124
f 17/56/125 24/71/126 26/72/127 27/57/128
f 7/73/129 35/74/130 36/75/131 15/76/132
f 35/74/133 37/77/134 38/78/135 36/75/136
f 37/77/137 33/79/138 34/80/139 38/78/140
