# This file uses centimeters as units for non-parametric coordinates.

mtllib Maps01.mtl
g default
v -6.771551 0.598708 2.599658
v 1.955035 0.200168 2.599658
v -6.771551 0.598708 -3.311055
v 1.955035 0.200168 -3.311055
v 1.516299 0.098076 2.599658
v 1.516299 0.098076 -3.311055
v 1.047653 0.028235 2.599658
v 1.047653 0.028235 -3.311055
v 0.517790 0.023424 2.599658
v 0.517790 0.023424 -3.311055
v 0.008189 0.031061 2.599658
v 0.008189 0.031061 -3.311055
v -4.878699 0.031061 2.599658
v -4.878699 0.031061 -3.311055
v -5.458691 0.032804 2.599658
v -5.458691 0.032804 -3.311055
v -6.033541 0.074756 2.599658
v -6.033541 0.074756 -3.311055
v -6.455254 0.304438 2.599658
v -6.455254 0.304438 -3.311055
v 0.204819 0.000000 0.905869
v 5.142465 0.262414 3.311055
v 1.833905 0.000000 -2.438509
v 6.771551 0.262414 -0.033323
v 4.915805 0.050808 3.200647
v 6.544892 0.050808 -0.143731
v 4.627750 -0.013145 3.060331
v 6.256836 -0.013145 -0.284046
v 4.286179 -0.007288 2.893948
v 5.915266 -0.007288 -0.450430
v 3.978524 0.000000 2.744086
v 5.607611 0.000000 -0.600292
vt 0.043262 0.426503
vt 0.014672 0.426503
vt 0.014673 0.035356
vt 0.043263 0.035356
vt 0.604897 0.426503
vt 0.575087 0.426503
vt 0.575087 0.035356
vt 0.604897 0.035357
vt 0.543731 0.426503
vt 0.543731 0.035356
vt 0.508665 0.426503
vt 0.508666 0.035356
vt 0.474938 0.426502
vt 0.474939 0.035357
vt 0.151566 0.426502
vt 0.151565 0.035357
vt 0.113184 0.426502
vt 0.113183 0.035356
vt 0.075041 0.426503
vt 0.075041 0.035356
vt 0.618181 0.035270
vt 0.895261 0.035318
vt 0.895215 0.280875
vt 0.618137 0.280829
vt 0.964505 0.035330
vt 0.986232 0.035333
vt 0.986184 0.280893
vt 0.964458 0.280888
vt 0.942938 0.035326
vt 0.942890 0.280884
vt 0.917855 0.035322
vt 0.917809 0.280879
vn 0.578896 0.815401 0.000000
vn 0.681154 0.732140 0.000000
vn 0.681154 0.732140 0.000000
vn 0.578896 0.815401 0.000000
vn -0.226640 0.973979 0.000000
vn -0.186170 0.982518 0.000000
vn -0.186170 0.982518 0.000000
vn -0.226640 0.973979 0.000000
vn -0.186170 0.982518 0.000000
vn -0.074555 0.997217 0.000000
vn -0.074555 0.997217 0.000000
vn -0.186170 0.982518 0.000000
vn -0.074555 0.997217 0.000000
vn 0.002719 0.999996 0.000000
vn 0.002719 0.999996 0.000000
vn -0.074555 0.997217 0.000000
vn 0.002719 0.999996 0.000000
vn 0.001415 0.999999 0.000000
vn 0.001415 0.999999 0.000000
vn 0.002719 0.999996 0.000000
vn 0.001415 0.999999 0.000000
vn 0.000319 1.000000 0.000000
vn 0.000319 1.000000 0.000000
vn 0.001415 0.999999 0.000000
vn 0.000319 1.000000 0.000000
vn 0.037809 0.999285 0.000000
vn 0.037809 0.999285 0.000000
vn 0.000319 1.000000 0.000000
vn 0.037809 0.999285 0.000000
vn 0.262977 0.964802 0.000000
vn 0.262977 0.964802 0.000000
vn 0.037809 0.999285 0.000000
vn 0.262977 0.964802 0.000000
vn 0.578896 0.815401 0.000000
vn 0.578896 0.815401 0.000000
vn 0.262977 0.964802 0.000000
vn 0.000000 1.000000 0.000000
vn 0.001443 0.999999 0.000703
vn 0.001443 0.999999 0.000703
vn 0.000000 1.000000 0.000000
vn -0.389887 0.901066 -0.189919
vn -0.577959 0.765966 -0.281531
vn -0.577959 0.765966 -0.281531
vn -0.389887 0.901066 -0.189918
vn -0.074321 0.996577 -0.036203
vn -0.389887 0.901066 -0.189919
vn -0.389887 0.901066 -0.189918
vn -0.074321 0.996577 -0.036203
vn 0.016362 0.999834 0.007970
vn -0.074321 0.996577 -0.036203
vn -0.074321 0.996577 -0.036203
vn 0.016362 0.999834 0.007970
vn 0.001443 0.999999 0.000703
vn 0.016362 0.999834 0.007970
vn 0.016362 0.999834 0.007970
vn 0.001443 0.999999 0.000703
s off
g Maps01:pPlane9
usemtl blinn1SG
f 20/1/1 3/2/2 1/3/3 19/4/4
f 4/5/5 6/6/6 5/7/7 2/8/8
f 6/6/9 8/9/10 7/10/11 5/7/12
f 8/9/13 10/11/14 9/12/15 7/10/16
f 10/11/17 12/13/18 11/14/19 9/12/20
f 12/13/21 14/15/22 13/16/23 11/14/24
f 14/15/25 16/17/26 15/18/27 13/16/28
f 16/17/29 18/19/30 17/20/31 15/18/32
f 18/19/33 20/1/34 19/4/35 17/20/36
f 21/21/37 31/22/38 32/23/39 23/24/40
f 25/25/41 22/26/42 24/27/43 26/28/44
f 27/29/45 25/25/46 26/28/47 28/30/48
f 29/31/49 27/29/50 28/30/51 30/32/52
f 31/22/53 29/31/54 30/32/55 32/23/56
