# This file uses centimeters as units for non-parametric coordinates.

mtllib StrawBale02COL.mtl
g default
v -3.466233 4.617376 0.810820
v 3.620101 4.617376 1.279673
v -3.466233 9.492615 0.810820
v 3.620101 9.492615 1.279673
v -3.190696 9.492615 -3.353706
v 3.895638 9.492615 -2.884853
v -3.190696 4.617376 -3.353706
v 3.895638 4.617376 -2.884853
v -0.245087 0.003580 -1.851390
v 4.906798 0.003579 3.061151
v -0.245087 4.610217 -1.851390
v 4.906798 4.610217 3.061151
v 2.641936 4.610217 -4.879072
v 7.793822 4.610217 0.033469
v 2.641936 0.003580 -4.879072
v 7.793822 0.003580 0.033469
v -6.014915 -0.003579 3.440085
v 0.420195 -0.003579 0.341727
v -6.014915 4.617376 3.440085
v 0.420195 4.617376 0.341727
v -7.835770 4.617376 -0.341727
v -1.400661 4.617376 -3.440085
v -7.835770 -0.003579 -0.341727
v -1.400661 -0.003579 -3.440085
vt 0.056213 0.512031
vt 0.057992 0.713580
vt 0.309145 0.244690
vt 0.692731 0.247525
vt 0.945440 0.511409
vt 0.943947 0.713029
vt 0.306086 0.493297
vt 0.308288 0.727509
vt 0.695470 0.493129
vt 0.693581 0.727272
vt 0.316314 0.967672
vt 0.685863 0.967433
vt 0.321266 0.012938
vt 0.687140 0.017704
vt 0.056213 0.512031
vt 0.057992 0.713580
vt 0.309145 0.244690
vt 0.692731 0.247525
vt 0.945440 0.511409
vt 0.943947 0.713029
vt 0.306086 0.493297
vt 0.308288 0.727509
vt 0.695470 0.493129
vt 0.693581 0.727272
vt 0.316314 0.967672
vt 0.685863 0.967433
vt 0.321266 0.012938
vt 0.687140 0.017704
vt 0.056213 0.512031
vt 0.057992 0.713580
vt 0.309145 0.244690
vt 0.692731 0.247525
vt 0.945440 0.511409
vt 0.943947 0.713029
vt 0.306086 0.493297
vt 0.308288 0.727509
vt 0.695470 0.493129
vt 0.693581 0.727272
vt 0.316314 0.967672
vt 0.685863 0.967433
vt 0.321266 0.012938
vt 0.687140 0.017704
vn -0.070435 0.991957 0.105170
vn 0.055966 0.991957 0.113533
vn 0.070435 0.991957 -0.105169
vn -0.055966 0.991957 -0.113532
vn -0.055966 -0.991957 -0.113533
vn 0.070436 -0.991957 -0.105169
vn 0.055966 -0.991957 0.113533
vn -0.070436 -0.991957 0.105169
vn -0.983433 0.179853 0.022659
vn -0.971875 0.179853 -0.152028
vn -0.971875 -0.179853 -0.152027
vn -0.983433 -0.179853 0.022659
vn 0.008775 0.238397 -0.971128
vn 0.119247 0.238397 -0.963819
vn 0.119247 -0.238397 -0.963819
vn 0.008775 -0.238397 -0.971128
vn 0.983433 0.179853 -0.022659
vn 0.971875 0.179853 0.152028
vn 0.971875 -0.179853 0.152027
vn 0.983433 -0.179853 -0.022659
vn -0.008775 0.238397 0.971128
vn -0.119247 0.238397 0.963819
vn -0.119247 -0.238397 0.963819
vn -0.008775 -0.238397 0.971128
vn -0.121467 0.991957 0.035603
vn -0.029788 0.991957 0.123022
vn 0.121467 0.991957 -0.035603
vn 0.029788 0.991957 -0.123022
vn 0.029788 -0.991957 -0.123022
vn 0.121467 -0.991957 -0.035603
vn -0.029788 -0.991957 0.123022
vn -0.121467 -0.991957 0.035603
vn -0.769499 0.179853 -0.612800
vn -0.648686 0.179853 -0.739500
vn -0.648686 -0.179853 -0.739500
vn -0.769499 -0.179853 -0.612800
vn 0.629046 0.238397 -0.739911
vn 0.709172 0.238397 -0.663508
vn 0.709172 -0.238397 -0.663507
vn 0.629046 -0.238397 -0.739910
vn 0.769499 0.179853 0.612800
vn 0.648686 0.179853 0.739500
vn 0.648686 -0.179853 0.739500
vn 0.769499 -0.179853 0.612800
vn -0.629046 0.238397 0.739910
vn -0.709172 0.238397 0.663507
vn -0.709172 -0.238397 0.663508
vn -0.629046 -0.238397 0.739910
vn -0.009527 0.991957 0.126218
vn 0.104610 0.991957 0.071264
vn 0.009527 0.991957 -0.126218
vn -0.104610 0.991957 -0.071264
vn -0.104610 -0.991957 -0.071264
vn 0.009527 -0.991957 -0.126218
vn 0.104610 -0.991957 0.071264
vn -0.009527 -0.991957 0.126218
vn -0.844822 0.179853 0.503914
vn -0.920768 0.179853 0.346177
vn -0.920768 -0.179853 0.346177
vn -0.844822 -0.179853 0.503914
vn -0.470496 0.238397 -0.849588
vn -0.370743 0.238397 -0.897617
vn -0.370743 -0.238397 -0.897617
vn -0.470496 -0.238397 -0.849588
vn 0.844822 0.179853 -0.503914
vn 0.920768 0.179853 -0.346177
vn 0.920768 -0.179853 -0.346177
vn 0.844822 -0.179853 -0.503914
vn 0.470496 0.238397 0.849588
vn 0.370743 0.238397 0.897617
vn 0.370743 -0.238397 0.897617
vn 0.470496 -0.238397 0.849588
vn -0.470496 0.238397 -0.849588
vn -0.370743 0.238397 -0.897617
vn -0.370743 -0.238397 -0.897617
vn -0.470496 -0.238397 -0.849588
vn 0.844822 0.179853 -0.503914
vn 0.920768 0.179853 -0.346177
vn 0.920768 -0.179853 -0.346177
vn 0.844822 -0.179853 -0.503914
vn 0.470496 0.238397 0.849588
vn 0.370743 0.238397 0.897617
vn 0.370743 -0.238397 0.897617
vn 0.470496 -0.238397 0.849588
vn -0.370743 -0.238397 -0.897617
vn -0.470496 -0.238397 -0.849588
vn 0.844822 0.179853 -0.503914
vn 0.920768 0.179853 -0.346177
vn 0.920768 -0.179853 -0.346177
vn 0.844822 -0.179853 -0.503914
vn 0.470496 0.238397 0.849588
vn 0.370743 0.238397 0.897617
vn 0.370743 -0.238397 0.897617
vn 0.470496 -0.238397 0.849588
vn -0.470496 0.238397 -0.849588
vn -0.370743 0.238397 -0.897617
vn -0.370743 -0.238397 -0.897617
vn -0.470496 -0.238397 -0.849588
vn 0.844822 0.179853 -0.503914
vn 0.920768 0.179853 -0.346177
vn 0.920768 -0.179853 -0.346177
vn 0.844822 -0.179853 -0.503914
vn 0.470496 0.238397 0.849588
vn 0.370743 0.238397 0.897617
vn 0.370743 -0.238397 0.897617
vn 0.470496 -0.238397 0.849588
vn -0.370743 -0.238397 -0.897617
vn -0.470496 -0.238397 -0.849588
vn 0.844822 0.179853 -0.503914
vn 0.920768 0.179853 -0.346177
vn 0.920768 -0.179853 -0.346177
vn 0.844822 -0.179853 -0.503914
vn 0.470496 0.238397 0.849588
vn 0.370743 0.238397 0.897617
vn 0.370743 -0.238397 0.897617
vn 0.470496 -0.238397 0.849588
vn -0.370743 -0.238397 -0.897617
vn -0.470496 -0.238397 -0.849588
vn 0.844822 0.179853 -0.503914
vn 0.920768 0.179853 -0.346177
vn 0.920768 -0.179853 -0.346177
vn 0.844822 -0.179853 -0.503914
vn 0.470496 0.238397 0.849588
vn 0.370743 0.238397 0.897617
vn 0.370743 -0.238397 0.897617
vn 0.470496 -0.238397 0.849588
vn 0.844822 0.179853 -0.503914
vn 0.920768 0.179853 -0.346177
vn 0.920768 -0.179853 -0.346177
vn 0.844822 -0.179853 -0.503914
vn 0.470496 0.238397 0.849588
vn 0.370743 0.238397 0.897617
vn 0.370743 -0.238397 0.897617
vn 0.470496 -0.238397 0.849588
vn -0.470496 0.238397 -0.849588
vn -0.370743 0.238397 -0.897617
vn -0.370743 -0.238397 -0.897617
vn -0.470496 -0.238397 -0.849588
vn 0.844822 0.179853 -0.503914
vn 0.920768 0.179853 -0.346177
vn 0.920768 -0.179853 -0.346177
vn 0.844822 -0.179853 -0.503914
vn 0.470496 0.238397 0.849588
vn 0.370743 0.238397 0.897617
vn 0.370743 -0.238397 0.897617
vn 0.470496 -0.238397 0.849588
vn -0.370743 -0.238397 -0.897617
vn -0.470496 -0.238397 -0.849588
vn 0.844822 0.179853 -0.503914
vn 0.920768 0.179853 -0.346177
vn 0.920768 -0.179853 -0.346177
vn 0.844822 -0.179853 -0.503914
vn 0.470496 0.238397 0.849588
vn 0.370743 0.238397 0.897617
vn 0.370743 -0.238397 0.897617
vn 0.470496 -0.238397 0.849588
vn -0.470496 -0.238397 -0.849588
vn 0.844822 0.179853 -0.503914
vn 0.920768 0.179853 -0.346177
vn 0.920768 -0.179853 -0.346177
vn 0.844822 -0.179853 -0.503914
vn 0.470496 0.238397 0.849588
vn 0.470496 -0.238397 0.849588
vn 0.920768 -0.179853 -0.346177
vn 0.470496 0.238397 0.849588
vn 0.370743 0.238397 0.897617
vn 0.370743 -0.238397 0.897617
vn 0.470496 -0.238397 0.849588
vn 0.920768 -0.179853 -0.346177
vn 0.844822 -0.179853 -0.503914
vn 0.920768 0.179853 -0.346177
vn 0.470496 0.238397 0.849588
vn 0.470496 -0.238397 0.849588
vn 0.920768 -0.179853 -0.346177
vn 0.470496 0.238397 0.849588
vn 0.370743 0.238397 0.897617
vn 0.370743 -0.238397 0.897617
vn 0.470496 -0.238397 0.849588
vn 0.920768 -0.179853 -0.346177
vn 0.844822 -0.179853 -0.503914
vn 0.920768 0.179853 -0.346177
vn 0.470496 0.238397 0.849588
vn 0.470496 -0.238397 0.849588
vn 0.920768 -0.179853 -0.346177
vn 0.470496 0.238397 0.849588
vn 0.370743 0.238397 0.897617
vn 0.370743 -0.238397 0.897617
vn 0.470496 -0.238397 0.849588
vn 0.920768 0.179853 -0.346177
vn 0.470496 0.238397 0.849588
vn 0.470496 -0.238397 0.849588
vn 0.920768 -0.179853 -0.346177
vn 0.470496 0.238397 0.849588
vn 0.370743 0.238397 0.897617
vn 0.370743 -0.238397 0.897617
vn 0.470496 -0.238397 0.849588
vn 0.470496 -0.238397 0.849588
vn 0.920768 -0.179853 -0.346177
vn 0.470496 0.238397 0.849588
vn 0.370743 0.238397 0.897617
vn 0.370743 -0.238397 0.897617
vn 0.470496 -0.238397 0.849588
vn 0.920768 0.179853 -0.346177
vn 0.470496 0.238397 0.849588
vn 0.470496 -0.238397 0.849588
vn 0.920768 -0.179853 -0.346177
vn 0.470496 0.238397 0.849588
vn 0.370743 0.238397 0.897617
vn 0.370743 -0.238397 0.897617
vn 0.470496 -0.238397 0.849588
vn 0.920768 -0.179853 -0.346177
vn 0.844822 -0.179853 -0.503914
vn 0.920768 0.179853 -0.346177
vn 0.470496 0.238397 0.849588
vn 0.470496 -0.238397 0.849588
vn 0.920768 -0.179853 -0.346177
vn 0.470496 0.238397 0.849588
vn 0.370743 0.238397 0.897617
vn 0.370743 -0.238397 0.897617
vn 0.470496 -0.238397 0.849588
vn 0.920768 0.179853 -0.346177
vn 0.470496 0.238397 0.849588
vn 0.470496 -0.238397 0.849588
vn 0.920768 -0.179853 -0.346177
vn 0.470496 0.238397 0.849588
vn 0.370743 0.238397 0.897617
vn 0.370743 -0.238397 0.897617
vn 0.470496 -0.238397 0.849588
vn 0.470496 -0.238397 0.849588
vn 0.920768 -0.179853 -0.346177
vn 0.470496 0.238397 0.849588
vn 0.370743 0.238397 0.897617
vn 0.370743 -0.238397 0.897617
vn 0.470496 -0.238397 0.849588
vn 0.920768 0.179853 -0.346177
vn 0.470496 0.238397 0.849588
vn 0.470496 -0.238397 0.849588
vn 0.920768 -0.179853 -0.346177
vn 0.470496 0.238397 0.849588
vn 0.370743 0.238397 0.897617
vn 0.370743 -0.238397 0.897617
vn 0.470496 -0.238397 0.849588
vn 0.470496 -0.238397 0.849588
vn 0.920768 -0.179853 -0.346177
vn 0.470496 0.238397 0.849588
vn 0.370743 0.238397 0.897617
vn 0.370743 -0.238397 0.897617
vn 0.470496 -0.238397 0.849588
vn 0.920768 0.179853 -0.346177
vn 0.470496 0.238397 0.849588
vn 0.470496 -0.238397 0.849588
vn 0.920768 -0.179853 -0.346177
vn 0.470496 0.238397 0.849588
vn 0.370743 0.238397 0.897617
vn 0.370743 -0.238397 0.897617
vn 0.470496 -0.238397 0.849588
vn 0.920768 -0.179853 -0.346177
vn 0.844822 -0.179853 -0.503914
vn 0.920768 0.179853 -0.346177
vn 0.470496 0.238397 0.849588
vn 0.470496 -0.238397 0.849588
vn 0.920768 -0.179853 -0.346177
vn 0.470496 0.238397 0.849588
vn 0.370743 0.238397 0.897617
vn 0.370743 -0.238397 0.897617
vn 0.470496 -0.238397 0.849588
vn 0.920768 0.179853 -0.346177
vn 0.470496 0.238397 0.849588
vn 0.470496 -0.238397 0.849588
vn 0.920768 -0.179853 -0.346177
vn 0.470496 0.238397 0.849588
vn 0.370743 0.238397 0.897617
vn 0.370743 -0.238397 0.897617
vn 0.470496 -0.238397 0.849588
vn 0.920768 0.179853 -0.346177
vn 0.470496 0.238397 0.849588
vn 0.470496 -0.238397 0.849588
vn 0.920768 -0.179853 -0.346177
vn 0.470496 0.238397 0.849588
vn 0.370743 0.238397 0.897617
vn 0.370743 -0.238397 0.897617
vn 0.470496 -0.238397 0.849588
vn 0.470496 -0.238397 0.849588
vn 0.920768 -0.179853 -0.346177
vn 0.470496 0.238397 0.849588
vn 0.370743 0.238397 0.897617
vn 0.370743 -0.238397 0.897617
vn 0.470496 -0.238397 0.849588
s off
g StrawBale02:pCube5
usemtl blinn1SG
f 3/7/1 4/9/2 6/10/3 5/8/4
f 7/13/5 8/14/6 2/4/7 1/3/8
f 3/7/9 5/8/10 7/2/11 1/1/12
f 5/8/13 6/10/14 8/12/15 7/11/16
f 6/10/17 4/9/18 2/5/19 8/6/20
f 4/9/21 3/7/22 1/3/23 2/4/24
f 11/21/25 12/23/26 14/24/27 13/22/28
f 15/27/29 16/28/30 10/18/31 9/17/32
f 11/21/33 13/22/34 15/16/35 9/15/36
f 13/22/37 14/24/38 16/26/39 15/25/40
f 14/24/41 12/23/42 10/19/43 16/20/44
f 12/23/45 11/21/46 9/17/47 10/18/48
f 19/35/49 20/37/50 22/38/51 21/36/52
f 23/41/53 24/42/54 18/32/55 17/31/56
f 19/35/57 21/36/58 23/30/59 17/29/60
f 21/36/61 22/38/62 24/40/63 23/39/64
f 22/38/65 20/37/66 18/33/67 24/34/68
f 20/37/69 19/35/70 17/31/71 18/32/72
