# This file uses centimeters as units for non-parametric coordinates.

mtllib TriffanyCactusCOL.mtl
g default
v 1.054310 1.901216 -0.322090
v -0.000000 1.901216 -1.088091
v -1.054310 1.901216 -0.322090
v -0.651598 1.901216 0.917325
v 0.651598 1.901216 0.917325
v 1.994887 10.453211 -0.627702
v -0.000000 10.453211 -2.077071
v -1.994886 10.453211 -0.627702
v -1.232908 10.453211 1.717428
v 1.232907 10.453211 1.717427
v -0.000000 12.113941 0.020476
v -1.071327 11.283574 1.495033
v 1.071327 11.283574 1.495031
v 1.733445 11.283574 -0.542754
v -0.000000 11.283574 -1.802176
v -1.733445 11.283574 -0.542754
v -0.815252 11.824130 1.142575
v 0.815251 11.824130 1.142573
v 1.319105 11.824130 -0.408126
v -0.000000 11.824130 -1.366513
v -1.319105 11.824130 -0.408126
v 1.166874 8.290520 1.626541
v -1.166875 8.290520 1.626542
v -1.888044 8.290520 -0.592986
v -0.000000 8.290520 -1.964730
v 1.888044 8.290520 -0.592986
v 1.278672 7.084198 1.780418
v -1.278673 7.084198 1.780419
v -2.068936 7.084198 -0.651762
v -0.000000 7.084198 -2.154932
v 2.068937 7.084198 -0.651762
v -1.227390 8.831934 -0.450913
v -1.228979 9.343186 -0.323791
v -1.229470 9.392345 0.255662
v -1.228184 8.911473 0.486662
v -1.226900 8.565122 0.049975
v -4.327508 11.238435 -0.029864
v -3.269700 11.333292 0.022149
v -2.953498 10.982386 0.891225
v -3.795079 10.672591 1.377390
v -4.657098 10.829649 0.807474
v -3.827673 11.497868 0.880491
v -3.308497 11.401955 1.011917
v -3.849715 11.206410 1.316168
v -4.390926 11.304871 0.958682
v -4.184206 11.561266 0.433491
v -3.515222 11.621272 0.466395
v -3.508208 9.676857 0.905513
v -2.953987 10.018871 0.461012
v -3.165680 10.108731 -0.348219
v -3.850736 9.794189 -0.402328
v -4.062428 9.542679 0.365266
v -2.607767 9.034516 0.640089
v -2.286150 9.547162 0.332115
v -2.408997 9.518436 -0.379591
v -2.806536 8.988035 -0.511475
v -2.929383 8.688957 0.118724
v 1.248325 8.498117 -0.440121
v 1.249894 9.009369 -0.314552
v 1.250379 9.058528 0.257827
v 1.249110 8.577656 0.486006
v 1.247841 8.231304 0.054651
v 4.310591 10.904617 -0.024213
v 3.265699 10.999475 0.027165
v 2.953358 10.648568 0.885630
v 3.784664 10.338775 1.365858
v 4.636157 10.495831 0.802901
v 3.816859 11.164050 0.875027
v 3.304022 11.068137 1.004848
v 3.838632 10.872593 1.305385
v 4.373235 10.971053 0.952263
v 4.169038 11.227448 0.433485
v 3.508223 11.287455 0.465987
v 3.501294 9.343040 0.899743
v 2.953841 9.685054 0.460670
v 3.162949 9.774914 -0.338681
v 3.839641 9.460372 -0.392129
v 4.048748 9.208862 0.366092
v 2.611847 8.700699 0.637560
v 2.294158 9.213345 0.333346
v 2.415505 9.184619 -0.369670
v 2.808190 8.654219 -0.499943
v 2.929537 8.355140 0.122560
v 0.467134 0.000000 -1.518144
v -1.317550 0.000000 -0.938264
v -1.317550 0.000000 0.938264
v 0.467134 0.000000 1.518144
v 1.570130 0.000000 0.000000
v -0.026140 0.000000 0.000000
v -1.995158 2.380612 1.430577
v -1.995160 2.380612 -1.430575
v 0.725958 2.380612 -2.314721
v 2.407701 2.380612 0.000000
v 0.725958 2.380612 2.314721
v -0.026140 2.410490 0.000000
vt 0.663920 0.525086
vt 0.692415 0.225486
vt 0.726109 0.228883
vt 0.721637 0.525221
vt 0.760273 0.225719
vt 0.779083 0.524302
vt 0.701117 0.224226
vt 0.692107 0.524811
vt 0.741434 0.223731
vt 0.749813 0.524657
vt 0.723662 0.956805
vt 0.701339 0.943953
vt 0.723611 0.934390
vt 0.745880 0.943819
vt 0.721435 0.958003
vt 0.709581 0.937281
vt 0.733326 0.937294
vt 0.700611 0.906233
vt 0.704207 0.921720
vt 0.742365 0.906251
vt 0.738728 0.921739
vt 0.681013 0.908377
vt 0.688626 0.927412
vt 0.723556 0.905142
vt 0.723569 0.919582
vt 0.766148 0.908173
vt 0.758569 0.927247
vt 0.745153 0.767572
vt 0.697949 0.767643
vt 0.770327 0.768147
vt 0.723168 0.767354
vt 0.676050 0.768675
vt 0.935946 0.599730
vt 0.876866 0.667304
vt 0.953015 0.630059
vt 0.918718 0.690019
vt 0.974634 0.632688
vt 0.944427 0.697574
vt 0.933656 0.602394
vt 0.898004 0.674856
vt 0.910866 0.578297
vt 0.855748 0.652464
vt 0.847880 0.942107
vt 0.838775 0.928361
vt 0.853522 0.928165
vt 0.848372 0.942731
vt 0.861264 0.934108
vt 0.846698 0.926884
vt 0.832350 0.934212
vt 0.872871 0.913730
vt 0.846149 0.909897
vt 0.819764 0.913569
vt 0.833265 0.910936
vt 0.857636 0.910605
vt 0.852738 0.800025
vt 0.892438 0.812209
vt 0.870637 0.806357
vt 0.832919 0.796768
vt 0.814401 0.792560
vt 0.935946 0.599730
vt 0.876866 0.667304
vt 0.953015 0.630059
vt 0.918718 0.690019
vt 0.974634 0.632688
vt 0.944427 0.697574
vt 0.933656 0.602394
vt 0.898004 0.674856
vt 0.910866 0.578297
vt 0.855748 0.652464
vt 0.847880 0.942107
vt 0.838775 0.928361
vt 0.853522 0.928165
vt 0.861264 0.934108
vt 0.848372 0.942731
vt 0.846698 0.926884
vt 0.832350 0.934212
vt 0.872871 0.913730
vt 0.846149 0.909897
vt 0.819764 0.913569
vt 0.833265 0.910936
vt 0.857636 0.910605
vt 0.852738 0.800025
vt 0.892438 0.812209
vt 0.870637 0.806357
vt 0.832919 0.796768
vt 0.814401 0.792560
vt 0.379742 0.110502
vt 0.486435 0.089719
vt 0.481978 0.110539
vt 0.615716 0.088682
vt 0.074756 0.109266
vt 0.091049 0.087625
vt 0.177760 0.109994
vt 0.221776 0.089098
vt 0.278888 0.110505
vt 0.354180 0.090260
vt 0.702483 0.052598
vt 0.762678 0.096332
vt 0.702483 0.140066
vt 0.785670 0.167095
vt 0.837083 0.096331
vt 0.785670 0.025568
vt 0.450859 0.100954
vn 0.950951 -0.014921 -0.308982
vn 0.949583 -0.055650 -0.308537
vn 0.000000 -0.055650 -0.998450
vn 0.000000 -0.014921 -0.999889
vn 0.000000 -0.014921 -0.999889
vn 0.000000 -0.055650 -0.998450
vn -0.949583 -0.055650 -0.308538
vn -0.950951 -0.014921 -0.308983
vn -0.950951 -0.014921 -0.308983
vn -0.949583 -0.055650 -0.308538
vn -0.586874 -0.055650 0.807763
vn -0.587720 -0.014921 0.808927
vn -0.587720 -0.014921 0.808927
vn -0.586874 -0.055650 0.807763
vn 0.586874 -0.055650 0.807763
vn 0.587720 -0.014921 0.808927
vn 0.587720 -0.014921 0.808927
vn 0.586874 -0.055650 0.807763
vn 0.949583 -0.055650 -0.308537
vn 0.950951 -0.014921 -0.308982
vn 0.333399 0.936542 -0.108324
vn 0.615893 0.761991 -0.200116
vn 0.000000 0.761991 -0.647588
vn 0.000000 0.936544 -0.350549
vn 0.000000 0.761991 -0.647588
vn -0.615893 0.761991 -0.200114
vn -0.333399 0.936543 -0.108316
vn -0.615893 0.761991 -0.200114
vn -0.380643 0.761990 0.523911
vn -0.206052 0.936542 0.283604
vn -0.380643 0.761990 0.523911
vn 0.380643 0.761991 0.523909
vn 0.206052 0.936541 0.283607
vn 0.380643 0.761991 0.523909
vn 0.615893 0.761991 -0.200116
vn -0.587164 0.045970 0.808162
vn -0.471959 0.596054 0.649596
vn -0.763645 0.596054 -0.248124
vn -0.950051 0.045970 -0.308690
vn -0.471959 0.596054 0.649596
vn -0.587164 0.045970 0.808162
vn 0.587164 0.045970 0.808162
vn 0.471959 0.596054 0.649595
vn 0.471959 0.596054 0.649595
vn 0.587164 0.045970 0.808162
vn 0.950051 0.045970 -0.308690
vn 0.763645 0.596054 -0.248124
vn 0.763645 0.596054 -0.248124
vn 0.950051 0.045970 -0.308690
vn 0.000000 0.045970 -0.998943
vn 0.000000 0.596054 -0.802944
vn 0.000000 0.596054 -0.802944
vn 0.000000 0.045970 -0.998943
vn -0.950051 0.045970 -0.308690
vn -0.763645 0.596054 -0.248124
vn -0.380643 0.761990 0.523911
vn -0.615893 0.761991 -0.200114
vn -0.763645 0.596054 -0.248124
vn -0.471959 0.596054 0.649596
vn 0.380643 0.761991 0.523909
vn -0.380643 0.761990 0.523911
vn -0.471959 0.596054 0.649596
vn 0.471959 0.596054 0.649595
vn 0.615893 0.761991 -0.200116
vn 0.380643 0.761991 0.523909
vn 0.471959 0.596054 0.649595
vn 0.763645 0.596054 -0.248124
vn 0.000000 0.761991 -0.647588
vn 0.615893 0.761991 -0.200116
vn 0.763645 0.596054 -0.248124
vn 0.000000 0.596054 -0.802944
vn -0.615893 0.761991 -0.200114
vn 0.000000 0.761991 -0.647588
vn 0.000000 0.596054 -0.802944
vn -0.763645 0.596054 -0.248124
vn 0.950051 0.045970 -0.308690
vn 0.587164 0.045970 0.808162
vn 0.587692 0.017851 0.808888
vn 0.950905 0.017851 -0.308967
vn 0.587692 0.017851 0.808888
vn 0.587164 0.045970 0.808162
vn -0.587164 0.045970 0.808162
vn -0.587692 0.017851 0.808888
vn -0.587692 0.017851 0.808888
vn -0.587164 0.045970 0.808162
vn -0.950051 0.045970 -0.308690
vn -0.950905 0.017851 -0.308968
vn -0.950905 0.017851 -0.308968
vn -0.950051 0.045970 -0.308690
vn 0.000000 0.045970 -0.998943
vn 0.000000 0.017851 -0.999841
vn 0.000000 0.017851 -0.999841
vn 0.000000 0.045970 -0.998943
vn 0.950051 0.045970 -0.308690
vn 0.950905 0.017851 -0.308967
vn 0.950905 0.017851 -0.308967
vn 0.587692 0.017851 0.808888
vn 0.587720 -0.014921 0.808927
vn 0.950951 -0.014921 -0.308982
vn -0.587720 -0.014921 0.808927
vn 0.587720 -0.014921 0.808927
vn 0.587692 0.017851 0.808888
vn -0.587692 0.017851 0.808888
vn -0.950951 -0.014921 -0.308983
vn -0.587720 -0.014921 0.808927
vn -0.587692 0.017851 0.808888
vn -0.950905 0.017851 -0.308968
vn 0.000000 -0.014921 -0.999889
vn -0.950951 -0.014921 -0.308983
vn -0.950905 0.017851 -0.308968
vn 0.000000 0.017851 -0.999841
vn 0.950951 -0.014921 -0.308982
vn 0.000000 -0.014921 -0.999889
vn 0.000000 0.017851 -0.999841
vn 0.950905 0.017851 -0.308967
vn -0.271148 -0.390610 -0.879717
vn -0.120275 -0.546661 -0.828671
vn -0.229295 -0.972987 0.026835
vn -0.456559 -0.884521 0.095791
vn 0.424435 0.514449 -0.745116
vn -0.120275 -0.546661 -0.828671
vn -0.271148 -0.390610 -0.879717
vn 0.427074 0.550267 -0.717506
vn 0.632240 0.615416 0.470675
vn 0.424435 0.514449 -0.745116
vn 0.427074 0.550267 -0.717506
vn 0.663177 0.594133 0.455194
vn 0.118786 -0.440194 0.890011
vn 0.632240 0.615416 0.470675
vn 0.663177 0.594133 0.455194
vn 0.061411 -0.321051 0.945069
vn -0.229295 -0.972987 0.026835
vn 0.118786 -0.440194 0.890011
vn 0.061411 -0.321051 0.945069
vn -0.456559 -0.884521 0.095791
vn -0.179048 0.983754 0.013014
vn -0.358985 0.904076 -0.231897
vn -0.549709 0.768300 0.327927
vn -0.358985 0.904076 -0.231897
vn 0.197548 0.980034 -0.022527
vn 0.388321 0.884169 -0.259716
vn 0.388321 0.884169 -0.259716
vn 0.327096 0.898489 0.292790
vn 0.611523 0.717781 0.332911
vn 0.611523 0.717781 0.332911
vn -0.006759 0.877821 0.478941
vn 0.003451 0.693063 0.720869
vn 0.003451 0.693063 0.720869
vn -0.265532 0.922586 0.279871
vn -0.549709 0.768300 0.327927
vn -0.020072 -0.152588 0.988086
vn 0.953105 0.044198 0.299396
vn 0.611523 0.717781 0.332911
vn 0.003451 0.693063 0.720869
vn -0.961559 -0.030254 0.272927
vn -0.020072 -0.152588 0.988086
vn 0.003451 0.693063 0.720869
vn -0.549709 0.768300 0.327927
vn -0.643910 0.208020 -0.736279
vn -0.961559 -0.030254 0.272927
vn -0.549709 0.768300 0.327927
vn -0.358985 0.904076 -0.231897
vn 0.622362 0.261038 -0.737919
vn -0.643910 0.208020 -0.736279
vn -0.358985 0.904076 -0.231897
vn 0.388321 0.884169 -0.259716
vn 0.953105 0.044198 0.299396
vn 0.622362 0.261038 -0.737919
vn 0.388321 0.884169 -0.259716
vn 0.611523 0.717781 0.332911
vn -0.095511 -0.254517 0.962340
vn -0.020072 -0.152588 0.988086
vn -0.961559 -0.030254 0.272927
vn -0.894981 -0.411191 0.173006
vn 0.953105 0.044198 0.299396
vn -0.020072 -0.152588 0.988086
vn -0.095511 -0.254517 0.962340
vn 0.878250 0.282616 0.385752
vn 0.622362 0.261038 -0.737919
vn 0.953105 0.044198 0.299396
vn 0.878250 0.282616 0.385752
vn 0.513520 0.384956 -0.766881
vn -0.643910 0.208020 -0.736279
vn 0.622362 0.261038 -0.737919
vn 0.513520 0.384956 -0.766881
vn -0.631269 -0.088504 -0.770498
vn -0.961559 -0.030254 0.272927
vn -0.643910 0.208020 -0.736279
vn -0.631269 -0.088504 -0.770498
vn -0.894981 -0.411191 0.173006
vn -0.456559 -0.884521 0.095791
vn 0.061411 -0.321051 0.945069
vn -0.095511 -0.254517 0.962340
vn -0.894981 -0.411191 0.173006
vn 0.061411 -0.321051 0.945069
vn 0.663177 0.594133 0.455194
vn 0.878250 0.282616 0.385752
vn -0.095511 -0.254517 0.962340
vn 0.663177 0.594133 0.455194
vn 0.427074 0.550267 -0.717506
vn 0.513520 0.384956 -0.766881
vn 0.878250 0.282616 0.385752
vn 0.427074 0.550267 -0.717506
vn -0.271148 -0.390610 -0.879717
vn -0.631269 -0.088504 -0.770498
vn 0.513520 0.384956 -0.766881
vn -0.271148 -0.390610 -0.879717
vn -0.456559 -0.884521 0.095791
vn -0.894981 -0.411191 0.173006
vn -0.631269 -0.088504 -0.770498
vn 0.229295 -0.972987 0.026835
vn 0.120275 -0.546661 -0.828671
vn 0.271148 -0.390610 -0.879717
vn 0.456559 -0.884521 0.095791
vn 0.271148 -0.390610 -0.879717
vn 0.120275 -0.546661 -0.828671
vn -0.424435 0.514449 -0.745116
vn -0.427074 0.550267 -0.717506
vn -0.427074 0.550267 -0.717506
vn -0.424435 0.514449 -0.745116
vn -0.632240 0.615416 0.470675
vn -0.663177 0.594133 0.455194
vn -0.663177 0.594133 0.455194
vn -0.632240 0.615416 0.470675
vn -0.118786 -0.440194 0.890011
vn -0.061411 -0.321051 0.945069
vn -0.061411 -0.321051 0.945069
vn -0.118786 -0.440194 0.890011
vn 0.229295 -0.972987 0.026835
vn 0.456559 -0.884521 0.095791
vn 0.358985 0.904076 -0.231897
vn 0.265532 0.922586 0.279871
vn 0.549709 0.768300 0.327927
vn 0.179048 0.983754 0.013014
vn 0.358985 0.904076 -0.231897
vn -0.388321 0.884169 -0.259716
vn -0.197548 0.980034 -0.022527
vn -0.388321 0.884169 -0.259716
vn -0.611523 0.717781 0.332911
vn -0.327096 0.898489 0.292790
vn -0.611523 0.717781 0.332911
vn -0.003451 0.693063 0.720869
vn 0.006759 0.877821 0.478941
vn -0.003451 0.693063 0.720869
vn 0.549709 0.768300 0.327927
vn -0.953105 0.044198 0.299396
vn 0.020072 -0.152588 0.988086
vn -0.003451 0.693063 0.720869
vn -0.611523 0.717781 0.332911
vn 0.020072 -0.152588 0.988086
vn 0.961559 -0.030254 0.272927
vn 0.549709 0.768300 0.327927
vn -0.003451 0.693063 0.720869
vn 0.961559 -0.030254 0.272927
vn 0.643910 0.208020 -0.736279
vn 0.358985 0.904076 -0.231897
vn 0.549709 0.768300 0.327927
vn 0.643910 0.208020 -0.736279
vn -0.622362 0.261038 -0.737919
vn -0.388321 0.884169 -0.259716
vn 0.358985 0.904076 -0.231897
vn -0.622362 0.261038 -0.737919
vn -0.953105 0.044198 0.299396
vn -0.611523 0.717781 0.332911
vn -0.388321 0.884169 -0.259716
vn 0.961559 -0.030254 0.272927
vn 0.020072 -0.152588 0.988086
vn 0.095511 -0.254517 0.962340
vn 0.894981 -0.411191 0.173006
vn 0.095511 -0.254517 0.962340
vn 0.020072 -0.152588 0.988086
vn -0.953105 0.044198 0.299396
vn -0.878250 0.282616 0.385752
vn -0.878250 0.282616 0.385752
vn -0.953105 0.044198 0.299396
vn -0.622362 0.261038 -0.737919
vn -0.513520 0.384956 -0.766881
vn -0.513520 0.384956 -0.766881
vn -0.622362 0.261038 -0.737919
vn 0.643910 0.208020 -0.736279
vn 0.631269 -0.088504 -0.770498
vn 0.631269 -0.088504 -0.770498
vn 0.643910 0.208020 -0.736279
vn 0.961559 -0.030254 0.272927
vn 0.894981 -0.411191 0.173006
vn -0.061411 -0.321051 0.945069
vn 0.456559 -0.884521 0.095791
vn 0.894981 -0.411191 0.173006
vn 0.095511 -0.254517 0.962340
vn -0.663177 0.594133 0.455194
vn -0.061411 -0.321051 0.945069
vn 0.095511 -0.254517 0.962340
vn -0.878250 0.282616 0.385752
vn -0.427074 0.550267 -0.717506
vn -0.663177 0.594133 0.455194
vn -0.878250 0.282616 0.385752
vn -0.513520 0.384956 -0.766881
vn 0.271148 -0.390610 -0.879717
vn -0.427074 0.550267 -0.717506
vn -0.513520 0.384956 -0.766881
vn 0.631269 -0.088504 -0.770498
vn 0.456559 -0.884521 0.095791
vn 0.271148 -0.390610 -0.879717
vn 0.631269 -0.088504 -0.770498
vn 0.894981 -0.411191 0.173006
vn 0.299488 -0.246416 -0.921730
vn 0.303485 -0.188362 -0.934032
vn 0.982100 -0.188362 0.000000
vn 0.969164 -0.246416 0.000000
vn 0.303485 -0.188362 -0.934032
vn 0.299488 -0.246416 -0.921730
vn -0.784071 -0.246415 -0.569660
vn -0.794535 -0.188362 -0.577264
vn -0.794535 -0.188362 -0.577264
vn -0.784071 -0.246415 -0.569660
vn -0.784071 -0.246415 0.569660
vn -0.794535 -0.188362 0.577264
vn -0.794535 -0.188362 0.577264
vn -0.784071 -0.246415 0.569660
vn 0.299488 -0.246416 0.921730
vn 0.303486 -0.188362 0.934032
vn 0.303486 -0.188362 0.934032
vn 0.299488 -0.246416 0.921730
vn 0.969164 -0.246416 0.000000
vn 0.982100 -0.188362 0.000000
vn 0.000000 -1.000000 0.000000
vn 0.000000 -1.000000 0.000000
vn 0.000000 -1.000000 0.000000
vn 0.000000 -1.000000 0.000000
vn 0.000000 -1.000000 0.000000
vn 0.000000 -1.000000 0.000000
vn 0.000000 -1.000000 0.000000
vn 0.000000 -1.000000 0.000000
vn 0.000000 -1.000000 0.000000
vn 0.000000 -1.000000 0.000000
vn 0.000000 -1.000000 0.000000
vn 0.000000 -1.000000 0.000000
vn 0.000000 -1.000000 0.000000
vn 0.000000 -1.000000 0.000000
vn 0.000000 -1.000000 0.000000
vn 0.000000 1.000000 0.000000
vn -0.092697 0.993414 0.067349
vn 0.035407 0.993414 0.108972
vn -0.092697 0.993414 -0.067348
vn -0.092697 0.993414 0.067349
vn 0.000000 1.000000 0.000000
vn 0.035407 0.993414 -0.108972
vn -0.092697 0.993414 -0.067348
vn 0.000000 1.000000 0.000000
vn 0.114580 0.993414 0.000000
vn 0.035407 0.993414 -0.108972
vn 0.000000 1.000000 0.000000
vn 0.035407 0.993414 0.108972
vn 0.114580 0.993414 0.000000
vn 0.000000 1.000000 0.000000
s off
g TriffanyCactusCOL:polySurface22
usemtl lambert2SG
f 31/1/1 1/2/2 2/3/3 30/4/4
f 30/4/5 2/3/6 3/5/7 29/6/8
f 29/6/9 3/5/10 4/7/11 28/8/12
f 28/8/13 4/7/14 5/9/15 27/10/16
f 27/10/17 5/9/18 1/2/19 31/1/20
f 11/11/21 19/12/22 20/13/23
f 11/11/24 20/13/25 21/14/26
f 11/11/27 21/14/28 17/16/29
f 11/15/30 17/16/31 18/17/32
f 11/15/33 18/17/34 19/12/35
f 9/18/36 12/19/37 16/27/38 8/26/39
f 12/19/40 9/18/41 10/20/42 13/21/43
f 13/21/44 10/20/45 6/22/46 14/23/47
f 14/23/48 6/22/49 7/24/50 15/25/51
f 15/25/52 7/24/53 8/26/54 16/27/55
f 17/16/56 21/14/57 16/27/58 12/19/59
f 18/17/60 17/16/61 12/19/62 13/21/63
f 19/12/64 18/17/65 13/21/66 14/23/67
f 20/13/68 19/12/69 14/23/70 15/25/71
f 21/14/72 20/13/73 15/25/74 16/27/75
f 6/22/76 10/20/77 22/28/78 26/32/79
f 22/28/80 10/20/81 9/18/82 23/29/83
f 23/29/84 9/18/85 8/26/86 24/30/87
f 24/30/88 8/26/89 7/24/90 25/31/91
f 25/31/92 7/24/93 6/22/94 26/32/95
f 26/32/96 22/28/97 27/10/98 31/1/99
f 28/8/100 27/10/101 22/28/102 23/29/103
f 29/6/104 28/8/105 23/29/106 24/30/107
f 30/4/108 29/6/109 24/30/110 25/31/111
f 31/1/112 30/4/113 25/31/114 26/32/115
f 56/34/116 32/33/117 36/41/118 57/42/119
f 33/35/120 32/33/121 56/34/122 55/36/123
f 34/37/124 33/35/125 55/36/126 54/38/127
f 35/39/128 34/37/129 54/38/130 53/40/131
f 36/41/132 35/39/133 53/40/134 57/42/135
f 42/43/136 46/44/137 45/49/138
f 46/44/139 42/43/140 47/45/141
f 47/45/142 42/46/143 43/47/144
f 43/47/145 42/46/146 44/48/147
f 44/48/148 42/46/149 45/49/150
f 40/51/151 39/50/152 43/47/153 44/48/154
f 41/52/155 40/51/156 44/48/157 45/49/158
f 37/53/159 41/52/160 45/49/161 46/44/162
f 38/54/163 37/53/164 46/44/165 47/45/166
f 39/50/167 38/54/168 47/45/169 43/47/170
f 48/55/171 40/51/172 41/52/173 52/59/174
f 39/50/175 40/51/176 48/55/177 49/56/178
f 38/54/179 39/50/180 49/56/181 50/57/182
f 37/53/183 38/54/184 50/57/185 51/58/186
f 41/52/187 37/53/188 51/58/189 52/59/190
f 57/42/191 53/40/192 48/55/193 52/59/194
f 53/40/195 54/38/196 49/56/197 48/55/198
f 54/38/199 55/36/200 50/57/201 49/56/202
f 55/36/203 56/34/204 51/58/205 50/57/206
f 56/34/207 57/42/208 52/59/209 51/58/210
f 62/68/211 58/60/212 82/61/213 83/69/214
f 82/61/215 58/60/216 59/62/217 81/63/218
f 81/63/219 59/62/220 60/64/221 80/65/222
f 80/65/223 60/64/224 61/66/225 79/67/226
f 79/67/227 61/66/228 62/68/229 83/69/230
f 72/71/231 68/74/232 71/76/233
f 68/70/234 72/71/235 73/72/236
f 68/70/237 73/72/238 69/73/239
f 68/74/240 69/73/241 70/75/242
f 68/74/243 70/75/244 71/76/245
f 65/77/246 66/78/247 70/75/248 69/73/249
f 66/78/250 67/79/251 71/76/252 70/75/253
f 67/79/254 63/80/255 72/71/256 71/76/257
f 63/80/258 64/81/259 73/72/260 72/71/261
f 64/81/262 65/77/263 69/73/264 73/72/265
f 67/79/266 66/78/267 74/82/268 78/86/269
f 74/82/270 66/78/271 65/77/272 75/83/273
f 75/83/274 65/77/275 64/81/276 76/84/277
f 76/84/278 64/81/279 63/80/280 77/85/281
f 77/85/282 63/80/283 67/79/284 78/86/285
f 79/67/286 83/69/287 78/86/288 74/82/289
f 80/65/290 79/67/291 74/82/292 75/83/293
f 81/63/294 80/65/295 75/83/296 76/84/297
f 82/61/298 81/63/299 76/84/300 77/85/301
f 83/69/302 82/61/303 77/85/304 78/86/305
f 84/87/306 92/88/307 93/96/308 88/95/309
f 92/88/310 84/87/311 85/89/312 91/90/313
f 91/90/314 85/89/315 86/91/316 90/92/317
f 90/92/318 86/91/319 87/93/320 94/94/321
f 94/94/322 87/93/323 88/95/324 93/96/325
f 89/98/326 84/97/327 88/102/328
f 85/99/329 84/97/330 89/98/331
f 86/100/332 85/99/333 89/98/334
f 87/101/335 86/100/336 89/98/337
f 88/102/338 87/101/339 89/98/340
f 95/103/341 90/92/342 94/94/343
f 91/90/344 90/92/345 95/103/346
f 92/88/347 91/90/348 95/103/349
f 93/96/350 92/88/351 95/103/352
f 94/94/353 93/96/354 95/103/355
