# This file uses centimeters as units for non-parametric coordinates.

mtllib TriffanyCactus_vestCOL.mtl
g default
v 0.000000 8.559638 2.061735
v 0.000000 8.587780 1.904766
v 1.728781 9.746784 0.738542
v 1.355307 9.843826 -1.355058
v 1.735376 9.851069 -0.730820
v 0.739744 9.832062 -1.733289
v 0.000000 9.832061 -1.858431
v 1.392531 9.456977 1.263392
v 1.849947 9.846106 -0.003164
v 0.754183 6.579958 -1.687235
v 1.324278 6.668378 -1.330251
v 0.000000 6.534183 -1.808190
v 1.687454 6.725399 -0.725129
v 1.806493 6.756732 0.000054
v 1.324131 6.668293 1.330441
v 0.756663 6.580084 1.687366
v 1.687457 6.725423 0.725239
v 0.768301 9.151572 1.654364
v 0.818761 6.577628 -1.855561
v 1.462921 6.668215 -1.446334
v 0.000000 6.529244 -1.989817
v 1.861176 6.718815 -0.784563
v 1.990553 6.747809 0.000069
v 0.821289 6.577871 1.855621
v 1.463026 6.668238 1.446320
v 1.861214 6.718819 0.784610
v 0.000000 6.534963 2.108842
v 0.000000 6.539547 1.928774
v -1.728781 9.746784 0.738542
v -1.355307 9.843826 -1.355058
v -1.735376 9.851069 -0.730820
v -0.739744 9.832062 -1.733289
v -1.392531 9.456977 1.263392
v -1.849947 9.846106 -0.003164
v -0.754183 6.579958 -1.687235
v -1.324278 6.668378 -1.330251
v -1.687454 6.725399 -0.725129
v -1.806493 6.756732 0.000054
v -1.324131 6.668293 1.330441
v -0.756663 6.580084 1.687366
v -1.687457 6.725423 0.725239
v -0.768301 9.151572 1.654364
v -0.818761 6.577628 -1.855561
v -1.462921 6.668215 -1.446334
v -1.861176 6.718815 -0.784563
v -1.990553 6.747809 0.000069
v -0.821289 6.577871 1.855621
v -1.463026 6.668238 1.446320
v -1.861214 6.718819 0.784610
v 0.855710 9.132302 1.884434
v 1.536739 9.433106 1.470188
v 1.969268 9.698148 0.802358
v 2.104379 9.822546 -0.003461
v 1.965501 9.799999 -0.821204
v 1.530784 9.802038 -1.529250
v 0.828595 9.803629 -1.967193
v 0.000000 9.803622 -2.109716
v -0.828595 9.803629 -1.967193
v -1.530784 9.802038 -1.529250
v -1.965501 9.799999 -0.821204
v -2.104379 9.822546 -0.003461
v -1.969268 9.698148 0.802358
v -1.536739 9.433106 1.470188
v -0.855710 9.132302 1.884434
vt 0.041017 0.625877
vt 0.181818 0.448389
vt 0.260170 0.447834
vt 0.105596 0.446104
vt 0.035701 0.416090
vt 0.300581 0.449101
vt 0.205484 0.076117
vt 0.049478 0.067344
vt 0.355246 0.072028
vt 0.114657 0.665757
vt 0.129581 0.798426
vt 0.116933 0.770364
vt 0.138789 0.756284
vt 0.154175 0.790042
vt 0.146537 0.875027
vt 0.138493 0.836994
vt 0.164210 0.831620
vt 0.172323 0.869733
vt 0.815171 0.573589
vt 0.833296 0.607132
vt 0.811090 0.621444
vt 0.792272 0.585785
vt 0.800212 0.539597
vt 0.776587 0.549936
vt 0.076921 0.705436
vt 0.097420 0.690266
vt 0.205972 0.054263
vt 0.277833 0.049600
vt 0.355301 0.045994
vt 0.094678 0.046980
vt 0.132192 0.051302
vt 0.054633 0.041196
vt 0.107288 0.420268
vt 0.181900 0.426122
vt 0.258761 0.426053
vt 0.297271 0.423935
vt 0.207231 0.035693
vt 0.277088 0.031278
vt 0.355295 0.027658
vt 0.097586 0.027962
vt 0.135050 0.032458
vt 0.108133 0.401725
vt 0.181043 0.407259
vt 0.256759 0.406872
vt 0.295486 0.404610
vt 0.661698 0.622517
vt 0.453477 0.450753
vt 0.530029 0.450635
vt 0.604729 0.447665
vt 0.373186 0.450548
vt 0.504487 0.076306
vt 0.579710 0.074562
vt 0.618990 0.075478
vt 0.431187 0.074888
vt 0.675793 0.629852
vt 0.590668 0.809584
vt 0.578875 0.849587
vt 0.554121 0.842371
vt 0.566254 0.801358
vt 0.814480 0.116635
vt 0.778956 0.179663
vt 0.755531 0.169947
vt 0.793272 0.101957
vt 0.759608 0.248290
vt 0.734497 0.243809
vt 0.754489 0.321876
vt 0.728923 0.321880
vt 0.635323 0.705613
vt 0.613515 0.692700
vt 0.504501 0.054546
vt 0.432697 0.049361
vt 0.578225 0.053280
vt 0.615820 0.050827
vt 0.656028 0.047627
vt 0.529678 0.428757
vt 0.602697 0.422225
vt 0.672385 0.411297
vt 0.416883 0.427557
vt 0.454660 0.429355
vt 0.376713 0.424521
vt 0.433579 0.031052
vt 0.503583 0.035979
vt 0.576078 0.034389
vt 0.614012 0.031682
vt 0.652449 0.028670
vt 0.530328 0.410291
vt 0.601618 0.404044
vt 0.418528 0.408593
vt 0.456430 0.410576
vt 0.596482 0.670513
vt 0.775532 0.469401
vt 0.751016 0.476257
vt 0.735345 0.400333
vt 0.760652 0.396801
vt 0.552840 0.924383
vt 0.541425 0.879043
vt 0.816306 0.070453
vt 0.842751 0.040039
vt 0.861262 0.058898
vt 0.580145 0.766896
vt 0.602709 0.779201
vt 0.187066 0.828282
vt 0.200796 0.903615
vt 0.755588 0.564390
vt 0.725330 0.483600
vt 0.702457 0.322182
vt 0.707811 0.239319
vt 0.730434 0.159952
vt 0.826050 0.026963
vt 0.531358 0.837639
vt 0.545530 0.792621
vt 0.563105 0.738585
vn 0.360702 -0.307295 0.880604
vn 0.679975 -0.306739 0.665992
vn 0.588418 0.174540 0.789494
vn 0.375487 0.144827 0.915443
vn -0.160745 0.145012 0.976285
vn 0.061368 -0.323059 0.944387
vn 0.360702 -0.307295 0.880604
vn 0.375487 0.144827 0.915443
vn 0.679223 -0.307160 -0.666566
vn 0.348608 -0.308724 -0.884964
vn 0.348414 0.199369 -0.915893
vn 0.712061 0.150331 -0.685835
vn 0.348608 -0.308724 -0.884964
vn 0.000000 -0.320672 -0.947190
vn 0.000000 0.201936 -0.979399
vn 0.348414 0.199369 -0.915893
vn -0.030139 0.957114 0.288139
vn -0.318515 0.929926 0.183809
vn -0.164778 0.920961 0.353098
vn 0.166352 0.922359 0.348684
vn 0.015131 0.999674 0.020578
vn -0.030139 0.957114 0.288139
vn 0.166352 0.922359 0.348684
vn 0.199194 0.979782 0.018689
vn 0.062844 0.997622 -0.028291
vn 0.015131 0.999674 0.020578
vn 0.199194 0.979782 0.018689
vn 0.276260 0.951110 -0.138094
vn -0.318515 0.929926 0.183809
vn -0.375685 0.915951 0.141048
vn -0.230039 0.896028 0.379757
vn -0.164778 0.920961 0.353098
vn -0.375685 0.915951 0.141048
vn -0.798567 0.560983 0.218150
vn -0.160745 0.145012 0.976285
vn -0.230039 0.896028 0.379757
vn 0.123514 -0.989043 -0.080866
vn 0.165286 -0.985757 -0.031048
vn -0.031074 -0.985641 0.165972
vn 0.029802 -0.984852 0.170816
vn 0.000000 -0.995124 -0.098633
vn 0.123514 -0.989043 -0.080866
vn 0.029802 -0.984852 0.170816
vn 0.000000 -0.988035 0.154230
vn -0.167571 -0.985860 0.000014
vn -0.110254 -0.986511 0.120996
vn 0.119441 -0.992810 0.007959
vn 0.070390 -0.997520 0.000006
vn 0.165286 -0.985757 -0.031048
vn 0.119441 -0.992810 0.007959
vn -0.110254 -0.986511 0.120996
vn -0.031074 -0.985641 0.165972
vn 0.165436 -0.985732 0.031030
vn 0.126878 -0.988723 0.079550
vn 0.029621 -0.984696 -0.171744
vn -0.030998 -0.985694 -0.165669
vn 0.126878 -0.988723 0.079550
vn 0.008554 -0.994358 0.105733
vn -0.018412 -0.988126 -0.152541
vn 0.029621 -0.984696 -0.171744
vn 0.070390 -0.997520 0.000006
vn 0.119456 -0.992807 -0.007993
vn -0.110130 -0.986525 -0.120997
vn -0.167571 -0.985860 0.000014
vn 0.119456 -0.992807 -0.007993
vn 0.165436 -0.985732 0.031030
vn -0.030998 -0.985694 -0.165669
vn -0.110130 -0.986525 -0.120997
vn 0.854152 -0.336876 0.396155
vn 0.940609 -0.339491 -0.000019
vn 0.966321 0.257336 0.001158
vn 0.921062 0.080087 0.381092
vn 0.854222 -0.336653 -0.396195
vn 0.891921 0.102776 -0.440356
vn 0.854222 -0.336653 -0.396195
vn 0.679223 -0.307160 -0.666566
vn 0.712061 0.150331 -0.685835
vn 0.891921 0.102776 -0.440356
vn 0.679975 -0.306739 0.665992
vn 0.854152 -0.336876 0.396155
vn 0.921062 0.080087 0.381092
vn 0.588418 0.174540 0.789494
vn -0.679974 -0.306740 0.665992
vn -0.360702 -0.307295 0.880604
vn -0.395561 0.128477 0.909409
vn -0.592435 0.162089 0.789144
vn -0.360702 -0.307295 0.880604
vn -0.061369 -0.323058 0.944387
vn 0.161102 0.147334 0.975878
vn -0.395561 0.128477 0.909409
vn -0.348609 -0.308724 -0.884964
vn -0.679223 -0.307160 -0.666566
vn -0.712061 0.150331 -0.685835
vn -0.348414 0.199369 -0.915893
vn 0.000000 -0.320672 -0.947190
vn -0.348609 -0.308724 -0.884964
vn -0.348414 0.199369 -0.915893
vn 0.000000 0.201936 -0.979399
vn 0.318515 0.929926 0.183809
vn 0.030139 0.957114 0.288139
vn -0.166352 0.922359 0.348684
vn 0.164778 0.920961 0.353099
vn -0.062844 0.997622 -0.028291
vn -0.034826 0.998772 -0.035228
vn -0.212990 0.954388 -0.209236
vn -0.276260 0.951110 -0.138094
vn -0.034826 0.998772 -0.035228
vn -0.004205 0.999891 -0.014124
vn -0.091487 0.966209 -0.240976
vn -0.212990 0.954388 -0.209236
vn -0.004205 0.999891 -0.014124
vn 0.000000 1.000000 -0.000731
vn 0.000000 0.970962 -0.239235
vn -0.091487 0.966209 -0.240976
vn 0.161102 0.147334 0.975878
vn 0.798529 0.560979 0.218299
vn 0.375637 0.915967 0.141073
vn 0.233513 0.899374 0.369592
vn -0.123514 -0.989043 -0.080866
vn -0.029802 -0.984852 0.170816
vn 0.031074 -0.985641 0.165970
vn -0.165286 -0.985757 -0.031049
vn 0.000000 -0.995124 -0.098633
vn 0.000000 -0.988035 0.154230
vn -0.029802 -0.984852 0.170816
vn -0.123514 -0.989043 -0.080866
vn -0.070390 -0.997520 0.000006
vn -0.119441 -0.992810 0.007959
vn 0.110254 -0.986511 0.120995
vn 0.167571 -0.985860 0.000014
vn -0.165286 -0.985757 -0.031049
vn 0.031074 -0.985641 0.165970
vn 0.110254 -0.986511 0.120995
vn -0.119441 -0.992810 0.007959
vn -0.165437 -0.985732 0.031029
vn 0.030998 -0.985694 -0.165669
vn -0.029621 -0.984696 -0.171745
vn -0.126878 -0.988723 0.079550
vn -0.126878 -0.988723 0.079550
vn -0.029621 -0.984696 -0.171745
vn 0.018412 -0.988126 -0.152541
vn -0.008554 -0.994358 0.105733
vn 0.167571 -0.985860 0.000014
vn 0.110130 -0.986525 -0.120998
vn -0.119456 -0.992807 -0.007994
vn -0.070390 -0.997520 0.000006
vn -0.119456 -0.992807 -0.007994
vn 0.110130 -0.986525 -0.120998
vn 0.030998 -0.985694 -0.165669
vn -0.165437 -0.985732 0.031029
vn -0.966321 0.257336 0.001158
vn -0.940609 -0.339491 -0.000019
vn -0.854152 -0.336876 0.396155
vn -0.921062 0.080087 0.381092
vn -0.854222 -0.336653 -0.396195
vn -0.891921 0.102776 -0.440356
vn -0.679223 -0.307160 -0.666566
vn -0.854222 -0.336653 -0.396195
vn -0.891921 0.102776 -0.440356
vn -0.712061 0.150331 -0.685835
vn -0.854152 -0.336876 0.396155
vn -0.679974 -0.306740 0.665992
vn -0.592435 0.162089 0.789144
vn -0.921062 0.080087 0.381092
vn 0.034826 0.998772 -0.035228
vn 0.212990 0.954387 -0.209237
vn 0.091487 0.966209 -0.240976
vn 0.004205 0.999891 -0.014123
vn 0.004205 0.999891 -0.014123
vn 0.091487 0.966209 -0.240976
vn 0.000000 0.970962 -0.239235
vn 0.000000 1.000000 -0.000731
vn 0.062844 0.997622 -0.028291
vn 0.276260 0.951110 -0.138094
vn 0.212990 0.954387 -0.209237
vn 0.034826 0.998772 -0.035228
vn 0.030139 0.957114 0.288139
vn -0.015131 0.999674 0.020577
vn -0.199195 0.979782 0.018688
vn -0.166352 0.922359 0.348684
vn -0.199195 0.979782 0.018688
vn -0.015131 0.999674 0.020577
vn -0.062844 0.997622 -0.028291
vn -0.276260 0.951110 -0.138094
vn 0.318515 0.929926 0.183809
vn 0.164778 0.920961 0.353099
vn 0.233513 0.899374 0.369592
vn 0.375637 0.915967 0.141073
s off
g TriffanyCactus_vestCOL:polySurface1
usemtl lambert2SG
f 24/4/1 25/33/2 51/57/3 50/13/4
f 1/1/5 27/5/6 24/5/7 50/10/8
f 20/26/9 19/27/10 56/105/11 55/93/12
f 19/7/13 21/28/14 57/106/15 56/67/16
f 3/17/17 8/11/18 51/12/19 52/14/20
f 9/18/21 3/15/22 52/16/23 53/18/24
f 5/22/25 9/19/26 53/20/27 54/22/28
f 8/24/29 18/12/30 50/25/31 51/26/32
f 18/13/33 2/25/34 1/1/35 50/1/36
f 19/6/37 20/28/38 11/27/39 10/37/40
f 21/38/41 19/29/42 10/28/43 12/38/44
f 14/32/45 13/40/46 22/39/47 23/30/48
f 20/41/49 22/27/50 13/31/51 11/41/52
f 25/40/53 24/34/54 16/33/55 15/42/56
f 24/43/57 27/33/58 28/5/59 16/5/60
f 23/44/61 26/36/62 17/35/63 14/45/64
f 26/45/65 25/35/66 15/34/67 17/43/68
s 1
f 26/3/69 23/36/70 53/103/71 52/18/72
f 53/22/71 23/8/70 22/30/73 54/21/74
s off
f 22/31/75 20/31/76 55/104/77 54/92/78
f 25/2/79 26/34/80 52/102/81 51/14/82
f 48/48/83 47/75/84 64/111/85 63/69/86
f 47/49/87 27/76/88 1/90/89 64/46/90
f 43/54/91 44/69/92 59/67/93 58/62/94
f 21/9/95 43/71/96 58/107/97 57/65/98
f 33/100/99 29/56/100 62/57/101 63/59/102
f 31/59/103 30/60/104 59/61/105 60/62/106
f 30/63/107 32/61/108 58/64/109 59/65/110
f 32/62/111 7/64/112 57/66/113 58/67/114
f 1/65/115 2/46/116 42/55/117 64/68/118
f 43/80/119 35/71/120 36/81/121 44/82/122
f 21/70/123 12/29/124 35/39/125 43/81/126
f 46/85/127 45/71/128 37/72/129 38/84/130
f 44/73/131 36/70/132 37/82/133 45/83/134
f 48/74/135 39/75/136 40/86/137 47/87/138
f 47/76/139 40/76/140 28/87/141 27/77/142
f 38/80/143 41/88/144 49/89/145 46/75/146
f 49/79/147 41/79/148 39/89/149 48/86/150
s 2
f 61/96/151 46/50/152 49/78/153 62/110/154
f 45/52/155 46/73/152 61/109/151 60/97/156
s off
f 44/51/157 45/53/158 60/108/159 59/63/160
f 49/47/161 48/79/162 63/112/163 62/59/164
f 4/69/165 55/91/166 56/92/167 6/93/168
f 6/94/169 56/94/170 57/93/171 7/67/172
f 5/66/173 54/23/174 55/24/175 4/92/176
f 29/58/177 34/16/178 61/95/179 62/96/180
f 61/97/181 34/98/182 31/99/183 60/60/184
f 33/101/185 63/101/186 64/100/187 42/69/188
