# This file uses centimeters as units for non-parametric coordinates.

mtllib UkuleleCOL.mtl
g default
v -0.279284 -0.122999 0.238828
v 0.279284 -0.122999 0.238828
v -0.279284 0.288669 0.238828
v 0.279284 0.288669 0.238828
v -0.236987 0.288669 -2.131447
v 0.236987 0.288669 -2.131447
v -0.236987 0.139967 -2.131447
v 0.236987 0.139967 -2.131447
v -0.404912 0.079799 -3.370050
v 0.404912 0.079799 -3.370050
v 0.404912 -0.066420 -3.342983
v -0.404912 -0.066420 -3.342983
v 0.351059 0.252165 -2.438921
v -0.351059 0.252165 -2.438921
v -0.351059 0.105947 -2.411853
v 0.351059 0.105947 -2.411853
v 0.269856 0.139967 -0.289521
v 0.269856 0.288669 -0.289521
v -0.269856 0.288669 -0.289521
v -0.269856 0.139967 -0.289521
v 0.652749 -0.458151 2.501222
v 1.194969 -0.427106 2.502433
v -0.652749 -0.458151 2.501222
v 0.467568 -0.458151 1.724797
v 0.908910 -0.427106 1.739052
v 0.447856 -0.427106 3.409552
v -1.194969 -0.427106 2.502433
v -0.467568 -0.458151 1.724797
v 1.191597 0.302033 2.502568
v 0.891428 -0.427106 3.218140
v -0.447856 -0.427106 3.409552
v -0.908910 -0.427106 1.739052
v 0.905996 0.302033 1.740636
v 0.447006 0.302033 3.406313
v -0.891428 -0.427106 3.218140
v -1.191597 0.302033 2.502568
v 0.455512 -0.458151 0.719325
v 0.652749 0.336527 2.501222
v 0.889251 0.302033 3.215474
v 0.880433 -0.427106 0.720167
v -0.447006 0.302033 3.406313
v -0.905996 0.302033 1.740636
v -0.455512 -0.458151 0.719325
v 0.467568 0.336527 1.724797
v -0.889251 0.302033 3.215474
v -0.652749 0.336527 2.501222
v -0.880433 -0.427106 0.720167
v 0.377723 -0.427106 0.178955
v 0.877034 0.302033 0.720261
v 0.641583 -0.427106 0.285439
v -0.467568 0.336527 1.724797
v -0.377723 -0.427106 0.178955
v -0.877034 0.302033 0.720261
v -0.641583 -0.427106 0.285439
v 0.377048 0.302033 0.182252
v 0.455512 0.336527 0.719325
v 0.639573 0.302033 0.288198
v -0.377048 0.302033 0.182252
v -0.639573 0.302033 0.288198
v -0.455512 0.336527 0.719325
vt 0.778038 0.937575
vt 0.721195 0.937580
vt 0.722155 0.883808
vt 0.777079 0.883806
vt 0.499379 0.961476
vt 0.501492 0.976144
vt 0.642995 0.699204
vt 0.642042 0.645573
vt 0.679327 0.936828
vt 0.707030 0.883537
vt 0.792214 0.883538
vt 0.819932 0.936832
vt 0.493699 0.868675
vt 0.422693 0.868109
vt 0.434090 0.836466
vt 0.482369 0.836703
vt 0.506598 0.864739
vt 0.496795 0.834754
vt 0.299362 0.798524
vt 0.310803 0.770082
vt 0.410331 0.863893
vt 0.419400 0.834377
vt 0.416692 0.961300
vt 0.401672 0.960106
vt 0.294039 0.893721
vt 0.514256 0.960335
vt 0.697775 0.699203
vt 0.698732 0.645567
vt 0.369931 0.798458
vt 0.358436 0.770020
vt 0.375441 0.893638
vt 0.414551 0.975966
vt 0.646349 0.886184
vt 0.710404 0.696085
vt 0.725500 0.696352
vt 0.773732 0.696353
vt 0.788869 0.696082
vt 0.694438 0.886188
vt 0.880946 0.590983
vt 0.753601 0.590882
vt 0.935169 0.591344
vt 0.862828 0.514848
vt 0.771315 0.514892
vt 0.907099 0.515865
vt 0.860995 0.680960
vt 0.773076 0.680668
vt 0.699643 0.591169
vt 0.508060 0.530033
vt 0.570453 0.530168
vt 0.904611 0.662063
vt 0.727125 0.516133
vt 0.570277 0.612029
vt 0.507884 0.611894
vt 0.435068 0.386898
vt 0.570737 0.400627
vt 0.508344 0.400491
vt 0.497056 0.386895
vt 0.729701 0.661516
vt 0.435069 0.515588
vt 0.497057 0.515600
vt 0.861087 0.416650
vt 0.772741 0.416674
vt 0.930815 0.115746
vt 0.984793 0.115001
vt 0.570630 0.449140
vt 0.508237 0.449003
vt 0.903493 0.416202
vt 0.435044 0.596902
vt 0.497033 0.596938
vt 0.913551 0.192240
vt 0.957752 0.190521
vt 0.803188 0.116429
vt 0.822499 0.026235
vt 0.910556 0.025821
vt 0.435071 0.435093
vt 0.497060 0.435092
vt 0.749191 0.116259
vt 0.730319 0.416242
vt 0.853886 0.362788
vt 0.779912 0.362792
vt 0.821361 0.192824
vt 0.954150 0.044694
vt 0.570054 0.714876
vt 0.507661 0.714740
vt 0.879836 0.373387
vt 0.777092 0.191547
vt 0.779037 0.045574
vt 0.434960 0.699068
vt 0.496949 0.699131
vt 0.753961 0.373397
vt 0.507483 0.796363
vt 0.569876 0.796499
vt 0.434866 0.780158
vt 0.496854 0.780228
vt 0.954633 0.291533
vt 0.912212 0.291012
vt 0.569940 0.767410
vt 0.507547 0.767274
vt 0.823232 0.291505
vt 0.434901 0.751258
vt 0.496889 0.751326
vt 0.780828 0.292280
vt 0.905018 0.344975
vt 0.830786 0.345350
vt 0.930902 0.334315
vt 0.804809 0.334908
vn 0.000000 1.000000 0.000000
vn 0.000000 1.000000 0.000000
vn 0.000000 1.000000 0.000000
vn 0.000000 1.000000 0.000000
vn 0.033026 -0.181921 -0.982758
vn 0.033026 -0.181921 -0.982758
vn -0.033027 -0.181921 -0.982758
vn -0.033027 -0.181921 -0.982758
vn 0.999841 0.000000 -0.017842
vn 0.999841 0.000000 -0.017842
vn 0.999841 0.000000 -0.017842
vn 0.999841 0.000000 -0.017842
vn -0.999841 0.000000 -0.017842
vn -0.999841 0.000000 -0.017842
vn -0.999841 0.000000 -0.017842
vn -0.999841 0.000000 -0.017842
vn 0.000000 0.983294 -0.182023
vn -0.000000 0.983294 -0.182023
vn 0.000000 0.999987 -0.005157
vn 0.000000 0.999984 -0.005625
vn 0.992058 0.022896 0.123684
vn 0.992058 0.022896 0.123684
vn 0.999997 0.001306 -0.002304
vn 0.999998 0.001399 -0.001193
vn -0.992058 0.022896 0.123684
vn -0.992058 0.022896 0.123684
vn -0.999998 0.001399 -0.001193
vn -0.999997 0.001306 -0.002304
vn -0.000000 0.983294 -0.182023
vn 0.000000 0.983294 -0.182023
vn 0.000000 0.983294 -0.182023
vn 0.000000 0.983294 -0.182023
vn -0.992058 0.022896 0.123684
vn -0.992058 0.022896 0.123684
vn -0.998387 0.010335 0.055829
vn -0.998387 0.010335 0.055829
vn 0.000000 -0.983294 0.182023
vn 0.000000 -0.983294 0.182023
vn 0.000000 -0.983294 0.182023
vn 0.000000 -0.983294 0.182023
vn 0.992058 0.022896 0.123684
vn 0.992058 0.022896 0.123684
vn 0.998387 0.010335 0.055829
vn 0.998387 0.010335 0.055829
vn 0.000000 -0.992882 -0.119103
vn 0.000000 -0.993109 -0.117193
vn 0.000000 -0.895245 -0.445574
vn 0.000000 -0.895245 -0.445574
vn 0.000000 -0.983294 0.182023
vn 0.000000 -0.983294 0.182023
vn 0.000000 -0.999992 0.003981
vn 0.000000 -0.999990 0.004424
vn 0.999841 0.000000 -0.017842
vn 0.999841 0.000000 -0.017842
vn 0.999998 0.001399 -0.001193
vn 0.999997 0.001306 -0.002304
vn 0.000000 1.000000 0.000000
vn 0.000000 1.000000 0.000000
vn 0.000000 0.999984 -0.005625
vn 0.000000 0.999987 -0.005157
vn -0.999998 0.001399 -0.001193
vn -0.999841 0.000000 -0.017842
vn -0.999841 0.000000 -0.017842
vn -0.999997 0.001306 -0.002304
vn 0.000000 -0.999990 0.004424
vn 0.000000 -0.999992 0.003981
vn 0.000000 -0.993109 -0.117193
vn 0.000000 -0.992882 -0.119103
vn 0.000000 -1.000000 0.000000
vn 0.000000 -1.000000 0.000000
vn 0.000000 -1.000000 0.000000
vn 0.000000 -1.000000 0.000000
vn 0.000000 -1.000000 0.000000
vn 0.000000 -1.000000 0.000000
vn 0.000000 -1.000000 0.000000
vn 0.000000 -1.000000 0.000000
vn 0.000000 -1.000000 0.000000
vn 0.000000 -1.000000 0.000000
vn 0.000000 -1.000000 0.000000
vn 0.000000 -1.000000 0.000000
vn 0.000000 -1.000000 0.000000
vn 0.000000 -1.000000 0.000000
vn 0.000000 -1.000000 0.000000
vn 0.000000 -1.000000 0.000000
vn 0.000000 -1.000000 0.000000
vn 0.000000 -1.000000 0.000000
vn 0.000000 -1.000000 0.000000
vn 0.000000 -1.000000 0.000000
vn 0.000000 -1.000000 0.000000
vn 0.000000 -1.000000 0.000000
vn 0.000000 -1.000000 0.000000
vn 0.000000 -1.000000 0.000000
vn 0.998956 0.000000 -0.045689
vn 0.998956 0.000000 -0.045689
vn 0.881266 0.000000 -0.472620
vn 0.881266 0.000000 -0.472620
vn 0.000000 -1.000000 0.000000
vn 0.000000 -1.000000 0.000000
vn 0.000000 -1.000000 0.000000
vn 0.000000 -1.000000 0.000000
vn 0.000000 -1.000000 0.000000
vn 0.000000 -1.000000 0.000000
vn 0.000000 -1.000000 0.000000
vn 0.000000 -1.000000 0.000000
vn 0.621677 0.000000 0.783274
vn 0.998956 0.000000 -0.045689
vn 0.998956 0.000000 -0.045689
vn 0.621677 0.000000 0.783274
vn -0.259363 0.000000 0.965780
vn 0.259363 0.000000 0.965780
vn 0.259363 0.000000 0.965780
vn -0.259363 0.000000 0.965780
vn -0.881266 0.000000 -0.472620
vn -0.998956 0.000000 -0.045689
vn -0.998956 0.000000 -0.045689
vn -0.881266 0.000000 -0.472620
vn 0.000000 -1.000000 0.000000
vn 0.000000 -1.000000 0.000000
vn 0.000000 -1.000000 0.000000
vn 0.000000 -1.000000 0.000000
vn 0.000000 1.000000 0.000000
vn 0.000000 1.000000 0.000000
vn 0.000000 1.000000 0.000000
vn 0.000000 1.000000 0.000000
vn 0.881266 0.000000 -0.472620
vn 0.881266 0.000000 -0.472620
vn 0.997283 0.000000 0.073671
vn 0.997283 0.000000 0.073671
vn 0.259363 0.000000 0.965780
vn 0.259363 0.000000 0.965780
vn 0.621677 0.000000 0.783274
vn 0.621677 0.000000 0.783274
vn -0.998956 0.000000 -0.045689
vn -0.998956 0.000000 -0.045689
vn -0.621677 0.000000 0.783274
vn -0.621677 0.000000 0.783274
vn 0.000000 -1.000000 0.000000
vn 0.000000 -1.000000 0.000000
vn 0.000000 -1.000000 0.000000
vn 0.000000 -1.000000 0.000000
vn 0.000000 1.000000 0.000000
vn 0.000000 1.000000 0.000000
vn 0.000000 1.000000 0.000000
vn 0.000000 1.000000 0.000000
vn 0.000000 1.000000 0.000000
vn 0.000000 1.000000 0.000000
vn 0.000000 1.000000 0.000000
vn 0.000000 1.000000 0.000000
vn 0.000000 -1.000000 0.000000
vn 0.000000 -1.000000 0.000000
vn 0.000000 -1.000000 0.000000
vn 0.000000 -1.000000 0.000000
vn 0.000000 1.000000 0.000000
vn 0.000000 1.000000 0.000000
vn 0.000000 1.000000 0.000000
vn 0.000000 1.000000 0.000000
vn -0.621677 0.000000 0.783274
vn -0.259363 0.000000 0.965780
vn -0.259363 0.000000 0.965780
vn -0.621677 0.000000 0.783274
vn -0.881266 0.000000 -0.472620
vn -0.881266 0.000000 -0.472620
vn -0.997283 0.000000 0.073671
vn -0.997283 0.000000 0.073671
vn 0.000000 1.000000 0.000000
vn 0.000000 1.000000 0.000000
vn 0.000000 1.000000 0.000000
vn 0.000000 1.000000 0.000000
vn 0.000000 1.000000 0.000000
vn 0.000000 1.000000 0.000000
vn 0.000000 1.000000 0.000000
vn 0.000000 1.000000 0.000000
vn 0.000000 1.000000 0.000000
vn 0.000000 1.000000 0.000000
vn 0.000000 1.000000 0.000000
vn 0.000000 1.000000 0.000000
vn 0.000000 -1.000000 0.000000
vn 0.000000 -1.000000 0.000000
vn 0.000000 -1.000000 0.000000
vn 0.000000 -1.000000 0.000000
vn 0.000000 1.000000 0.000000
vn 0.000000 1.000000 0.000000
vn 0.000000 1.000000 0.000000
vn 0.000000 1.000000 0.000000
vn 0.997283 0.000000 0.073671
vn 0.997283 0.000000 0.073671
vn 0.588722 0.000000 -0.808336
vn 0.588722 0.000000 -0.808336
vn 0.000000 1.000000 0.000000
vn 0.000000 1.000000 0.000000
vn 0.000000 1.000000 0.000000
vn 0.000000 1.000000 0.000000
vn 0.176957 0.000000 -0.984219
vn 0.176957 0.000000 -0.984219
vn -0.176957 0.000000 -0.984219
vn -0.176957 0.000000 -0.984219
vn 0.176957 0.000000 -0.984219
vn 0.176957 0.000000 -0.984219
vn 0.588722 0.000000 -0.808336
vn 0.588722 0.000000 -0.808336
vn -0.588722 0.000000 -0.808336
vn -0.997283 0.000000 0.073671
vn -0.997283 0.000000 0.073671
vn -0.588722 0.000000 -0.808336
vn 0.000000 1.000000 0.000000
vn 0.000000 1.000000 0.000000
vn 0.000000 1.000000 0.000000
vn 0.000000 1.000000 0.000000
vn -0.588722 0.000000 -0.808336
vn -0.176957 0.000000 -0.984219
vn -0.176957 0.000000 -0.984219
vn -0.588722 0.000000 -0.808336
vn 0.000000 1.000000 0.000000
vn 0.000000 1.000000 0.000000
vn 0.000000 1.000000 0.000000
vn 0.000000 1.000000 0.000000
vn 0.000000 1.000000 0.000000
vn 0.000000 1.000000 0.000000
vn 0.000000 1.000000 0.000000
vn 0.000000 1.000000 0.000000
s off
g UkuleleCOL:polySurface1
usemtl lambert2SG
f 3/1/1 4/2/2 18/3/3 19/4/4
f 10/5/5 11/6/6 12/32/7 9/23/8
f 2/9/9 17/10/10 18/3/11 4/2/12
f 20/11/13 1/12/14 3/1/15 19/4/16
f 13/13/17 14/14/18 5/15/19 6/16/20
f 16/17/21 13/13/22 6/16/23 8/18/24
f 14/14/25 15/21/26 7/22/27 5/15/28
f 14/14/29 13/13/30 10/5/31 9/23/32
f 15/21/33 14/14/34 9/23/35 12/24/36
f 11/25/37 16/19/38 15/29/39 12/31/40
f 13/13/41 16/17/42 11/26/43 10/5/44
f 20/27/45 17/7/46 2/8/47 1/28/48
f 15/29/49 16/19/50 8/20/51 7/30/52
f 18/3/53 17/10/54 8/34/55 6/35/56
f 19/4/57 18/3/58 6/35/59 5/36/60
f 7/37/61 20/11/62 19/4/63 5/36/64
f 7/38/65 8/33/66 17/7/67 20/27/68
f 21/39/69 23/40/70 28/43/71 24/42/72
f 22/41/73 21/39/74 24/42/75 25/44/76
f 23/40/77 21/39/78 26/45/79 31/46/80
f 21/39/81 22/41/82 30/50/83 26/45/84
f 28/43/85 23/40/86 27/47/87 32/51/88
f 24/42/89 28/43/90 43/62/91 37/61/92
f 29/48/93 22/49/94 25/52/95 33/53/96
f 25/44/97 24/42/98 37/61/99 40/67/100
f 27/47/101 23/40/102 31/46/103 35/58/104
f 30/65/105 22/49/106 29/48/107 39/66/108
f 31/54/109 26/55/110 34/56/111 41/57/112
f 32/68/113 27/59/114 36/60/115 42/69/116
f 28/43/117 32/51/118 47/78/119 43/62/120
f 38/63/121 29/64/122 33/71/123 44/70/124
f 33/53/125 25/52/126 40/83/127 49/84/128
f 34/56/129 26/55/130 30/65/131 39/66/132
f 36/60/133 27/59/134 35/75/135 45/76/136
f 37/61/137 43/62/138 52/80/139 48/79/140
f 46/72/141 38/63/142 44/70/143 51/81/144
f 39/82/145 29/64/146 38/63/147 34/74/148
f 40/67/149 37/61/150 48/79/151 50/85/152
f 41/73/153 34/74/154 38/63/155 46/72/156
f 35/75/157 31/54/158 41/57/159 45/76/160
f 32/68/161 42/69/162 53/89/163 47/88/164
f 42/86/165 36/77/166 46/72/167 51/81/168
f 44/70/169 33/71/170 49/95/171 56/96/172
f 41/73/173 46/72/174 36/77/175 45/87/176
f 52/80/177 43/62/178 47/78/179 54/90/180
f 51/81/181 44/70/182 56/96/183 60/99/184
f 49/84/185 40/83/186 50/97/187 57/98/188
f 53/102/189 42/86/190 51/81/191 60/99/192
f 55/91/193 48/92/194 52/93/195 58/94/196
f 48/92/197 55/91/198 57/98/199 50/97/200
f 54/100/201 47/88/202 53/89/203 59/101/204
f 56/96/205 49/95/206 57/105/207 55/103/208
f 59/101/209 58/94/210 52/93/211 54/100/212
f 56/96/213 55/103/214 58/104/215 60/99/216
f 59/106/217 53/102/218 60/99/219 58/104/220
