# This file uses centimeters as units for non-parametric coordinates.

mtllib WallHooksCOL.mtl
g default
v -4.441395 -1.123127 0.545050
v 4.441397 -1.123127 0.545050
v -4.441395 1.123124 0.545050
v 4.441397 1.123124 0.545050
v -4.441395 1.123124 0.020821
v 4.441397 1.123124 0.020821
v -4.441395 -1.123127 0.020821
v 4.441397 -1.123127 0.020821
vt 0.850441 0.111570
vt 0.963854 0.111503
vt 0.963786 0.555767
vt 0.850289 0.555785
vt 0.986468 0.113568
vt 0.986450 0.553838
vt 0.717496 0.551971
vt 0.717747 0.115182
vt 0.827778 0.113459
vt 0.827706 0.553745
vt 0.960073 0.085372
vt 0.854230 0.085349
vt 0.960018 0.581939
vt 0.854061 0.582024
vn 0.000000 0.000000 1.000000
vn 0.000000 0.000000 1.000000
vn 0.000000 0.000000 1.000000
vn 0.000000 0.000000 1.000000
vn 0.000000 1.000000 0.000000
vn 0.000000 1.000000 0.000000
vn 0.000000 1.000000 0.000000
vn 0.000000 1.000000 0.000000
vn 0.000000 0.000000 -1.000000
vn 0.000000 0.000000 -1.000000
vn 0.000000 0.000000 -1.000000
vn 0.000000 0.000000 -1.000000
vn 0.000000 -1.000000 0.000000
vn 0.000000 -1.000000 0.000000
vn 0.000000 -1.000000 0.000000
vn 0.000000 -1.000000 0.000000
vn 1.000000 0.000000 0.000000
vn 1.000000 0.000000 0.000000
vn 1.000000 0.000000 0.000000
vn 1.000000 0.000000 0.000000
vn -1.000000 0.000000 0.000000
vn -1.000000 0.000000 0.000000
vn -1.000000 0.000000 0.000000
vn -1.000000 0.000000 0.000000
s off
g WallHooks_wambusCOL:polySurface3
usemtl initialShadingGroup
f 2/1/1 4/2/2 3/3/3 1/4/4
f 4/2/5 6/5/6 5/6/7 3/3/8
f 5/7/9 6/8/10 8/9/11 7/10/12
f 8/9/13 2/1/14 1/4/15 7/10/16
f 6/11/17 4/2/18 2/1/19 8/12/20
f 3/3/21 5/13/22 7/14/23 1/4/24
