# This file uses centimeters as units for non-parametric coordinates.

mtllib Wheelbarrow_brokenCOL.mtl
g default
v -5.533335 2.990411 -1.597250
v -7.356178 2.075667 -1.096129
v -8.301689 0.797333 -2.468170
v -7.424365 0.433741 -4.341330
v -5.601522 1.348485 -4.842450
v -4.656007 2.626819 -3.470409
v -5.175461 2.428807 -1.320623
v -6.998304 1.514063 -0.819502
v -7.943816 0.235729 -2.191543
v -7.066491 -0.127863 -4.064702
v -5.243647 0.786881 -4.565822
v -4.298133 2.065215 -3.193782
v -6.089402 1.100923 -2.668256
v -6.510423 1.761625 -2.993696
v -7.234845 -0.110798 0.903271
v 5.301283 2.309607 2.513843
v -7.393023 0.679235 0.903271
v 5.143107 3.099641 2.513843
v -7.393023 0.725893 -0.881202
v -7.234845 -0.110798 -0.881202
v 5.110259 3.020288 -2.506620
v 4.952083 3.883224 -2.506620
v 2.588070 -0.132129 2.462955
v 3.131197 -0.040365 2.521673
v 1.915330 2.985662 2.447611
v 2.730245 3.196770 2.537017
v 1.950618 2.991625 2.111901
v 2.765532 3.202732 2.201307
v 2.623358 -0.126166 2.127244
v 3.166484 -0.034403 2.185963
v 2.622588 0.230965 -2.124401
v 3.165939 0.322766 -2.180933
v 1.949790 3.348746 -2.109628
v 2.765047 3.559911 -2.195706
v 1.915816 3.343006 -2.445478
v 2.731073 3.554171 -2.531556
v 2.588614 0.225225 -2.460250
v 3.131966 0.317026 -2.516783
v 3.140489 2.955444 1.621934
v 3.047330 2.381454 1.674228
v 3.163737 2.927322 1.354673
v 3.070578 2.353333 1.406967
v 7.475765 2.305998 2.079760
v 7.400091 1.704632 2.136457
v 7.501126 2.275319 1.788206
v 7.425453 1.673953 1.844903
v 8.999058 1.018886 2.347706
v 8.529064 0.634513 2.347269
v 8.554426 0.603834 2.055713
v 9.024422 0.988206 2.056151
v 3.136403 2.790415 -1.661075
v 3.622081 2.470725 -1.714909
v 3.169782 2.796054 -1.393425
v 3.655460 2.476364 -1.447258
v 5.510467 6.484557 -2.047345
v 6.028319 6.169646 -2.105292
v 5.546881 6.490709 -1.755366
v 6.064732 6.175798 -1.813313
v 7.311223 7.349697 -2.290149
v 7.468990 6.763345 -2.297470
v 7.505404 6.769497 -2.005491
v 7.347637 7.355849 -1.998170
v -4.302170 1.112418 2.341965
v 3.180378 2.978833 3.043779
v -4.302170 1.706696 -2.821092
v 3.180378 3.687642 -3.113209
v -4.095738 1.586323 1.955797
v -4.095737 2.101366 -2.361026
v 2.808746 3.316040 2.617596
v 2.808746 3.921482 -2.641608
v -5.306830 3.280567 2.515504
v -5.026808 3.383980 2.173964
v -5.027019 3.898922 -2.142420
v -5.312219 3.865328 -2.576844
v 3.064393 5.377421 3.254578
v 2.739223 5.341418 2.831713
v 2.739012 5.946760 -2.427051
v 3.064369 6.076469 -2.817754
vt 0.849367 0.521788
vt 0.879552 0.521842
vt 0.878898 0.619969
vt 0.847616 0.619572
vt 0.849165 0.422063
vt 0.880098 0.421933
vt 0.848770 0.320801
vt 0.879640 0.320680
vt 0.848653 0.220235
vt 0.879251 0.220295
vt 0.848988 0.121434
vt 0.878999 0.121535
vt 0.848032 0.023753
vt 0.879245 0.023656
vt 0.777905 0.321520
vt 0.756222 0.118941
vt 0.767223 0.016552
vt 0.822915 0.321429
vt 0.753802 0.320769
vt 0.754545 0.219300
vt 0.766982 0.625452
vt 0.756507 0.524449
vt 0.754183 0.423137
vt 0.694260 0.589486
vt 0.663774 0.589597
vt 0.668705 0.059282
vt 0.698298 0.037195
vt 0.546848 0.556700
vt 0.619879 0.593325
vt 0.665442 0.629804
vt 0.695593 0.629697
vt 0.548440 0.586500
vt 0.581551 0.576835
vt 0.531460 0.009318
vt 0.580754 0.040248
vt 0.101606 -0.329978
vt 1.039946 -0.125290
vt 1.099657 1.644391
vt 0.175424 1.490748
vt 0.259848 0.628855
vt 0.282478 0.629881
vt 0.282356 0.763276
vt 0.248033 0.758756
vt 0.330494 0.758831
vt 0.296163 0.763288
vt 0.296285 0.629894
vt 0.318917 0.628909
vt 0.260474 0.615063
vt 0.283104 0.616088
vt 0.246099 0.627604
vt 0.234283 0.757505
vt 0.410307 0.756306
vt 0.387609 0.755292
vt 0.387645 0.621499
vt 0.422073 0.626011
vt 0.339367 0.625988
vt 0.373798 0.621496
vt 0.373761 0.755288
vt 0.351062 0.756290
vt 0.374372 0.769122
vt 0.351673 0.770124
vt 0.337270 0.757528
vt 0.325575 0.627226
vt 0.094763 0.598685
vt 0.120808 0.599064
vt 0.120169 0.780151
vt 0.095126 0.779635
vt 0.096769 0.880904
vt 0.094076 0.866232
vt 0.120733 0.861135
vt 0.124059 0.874434
vt 0.080163 0.779578
vt 0.057095 0.780429
vt 0.057613 0.600705
vt 0.082066 0.599466
vt 0.097008 0.584813
vt 0.119474 0.585550
vt 0.133462 0.599768
vt 0.133529 0.780185
vt 0.117056 0.794400
vt 0.130656 0.793720
vt 0.133981 0.859485
vt 0.060246 0.793660
vt 0.080434 0.864799
vt 0.056270 0.859255
vt 0.187361 0.599442
vt 0.186905 0.779485
vt 0.162156 0.780015
vt 0.161509 0.599532
vt 0.187685 0.870372
vt 0.185057 0.885352
vt 0.156774 0.879078
vt 0.160007 0.865175
vt 0.202209 0.779449
vt 0.199983 0.600118
vt 0.224327 0.601321
vt 0.224976 0.780261
vt 0.185472 0.585945
vt 0.163305 0.586020
vt 0.148851 0.780052
vt 0.148884 0.600269
vt 0.163612 0.795031
vt 0.146084 0.863477
vt 0.149293 0.794381
vt 0.202030 0.868931
vt 0.223312 0.794256
vt 0.227407 0.863132
vt 0.268450 0.026168
vt 0.289540 0.320668
vt 0.055334 0.320782
vt 0.076084 0.023746
vt 0.296887 0.321831
vt 0.277397 0.016589
vt 0.511719 0.016588
vt 0.492246 0.321768
vt 0.255440 0.028575
vt 0.088867 0.028575
vt 0.272158 0.310290
vt 0.072199 0.310290
vt 0.266885 0.017088
vt 0.255440 0.028575
vt 0.088867 0.028575
vt 0.075683 0.015935
vt 0.287593 0.324550
vt 0.272158 0.310290
vt 0.072199 0.310290
vt 0.056729 0.323856
vn 0.761046 0.602898 0.239423
vn 0.761046 0.602898 0.239423
vn 0.761046 0.602898 0.239423
vn 0.761046 0.602898 0.239423
vn 0.018745 0.451380 0.892135
vn 0.018745 0.451380 0.892135
vn 0.018745 0.451380 0.892135
vn 0.018745 0.451380 0.892135
vn -0.742302 -0.151519 0.652710
vn -0.742302 -0.151519 0.652710
vn -0.742302 -0.151519 0.652710
vn -0.742302 -0.151519 0.652710
vn -0.761047 -0.602897 -0.239422
vn -0.761047 -0.602897 -0.239422
vn -0.761047 -0.602897 -0.239422
vn -0.761047 -0.602897 -0.239422
vn -0.018744 -0.451381 -0.892134
vn -0.018744 -0.451381 -0.892134
vn -0.018744 -0.451381 -0.892134
vn -0.018744 -0.451381 -0.892134
vn 0.742301 0.151517 -0.652711
vn 0.742301 0.151517 -0.652711
vn 0.742301 0.151517 -0.652711
vn 0.742301 0.151517 -0.652711
vn 0.521930 -0.773036 0.360562
vn 0.521930 -0.773036 0.360562
vn 0.521930 -0.773036 0.360562
vn -0.521930 0.773035 -0.360562
vn -0.521931 0.773035 -0.360562
vn -0.521931 0.773035 -0.360562
vn 0.469375 -0.799409 0.375010
vn 0.469375 -0.799409 0.375010
vn 0.469375 -0.799409 0.375010
vn 0.522585 -0.757256 0.391750
vn 0.522585 -0.757256 0.391750
vn 0.522585 -0.757256 0.391750
vn 0.470031 -0.783629 0.406198
vn 0.470031 -0.783629 0.406198
vn 0.470031 -0.783629 0.406198
vn 0.496636 -0.762552 0.414568
vn 0.496636 -0.762552 0.414568
vn 0.496636 -0.762552 0.414568
vn 0.495325 -0.794112 0.352192
vn 0.495325 -0.794112 0.352192
vn 0.495325 -0.794112 0.352192
vn -0.495325 0.794112 -0.352192
vn -0.495325 0.794112 -0.352192
vn -0.495325 0.794112 -0.352192
vn -0.470030 0.783630 -0.406198
vn -0.470030 0.783630 -0.406198
vn -0.470030 0.783630 -0.406198
vn -0.496636 0.762553 -0.414568
vn -0.496636 0.762553 -0.414568
vn -0.496636 0.762553 -0.414568
vn -0.469375 0.799409 -0.375011
vn -0.469375 0.799409 -0.375011
vn -0.469375 0.799409 -0.375011
vn -0.522586 0.757256 -0.391749
vn -0.522586 0.757256 -0.391749
vn -0.522586 0.757256 -0.391749
vn -0.122720 -0.024570 0.992137
vn -0.122720 -0.024570 0.992137
vn -0.122720 -0.024571 0.992137
vn -0.122720 -0.024570 0.992137
vn -0.192687 0.980925 0.025648
vn -0.192687 0.980925 0.025648
vn -0.192687 0.980925 0.025648
vn 0.189573 -0.981867 0.000000
vn 0.189573 -0.981867 0.000000
vn 0.189573 -0.981867 0.000000
vn -0.981607 -0.190897 -0.002496
vn -0.981607 -0.190897 -0.002496
vn -0.981607 -0.190897 -0.002496
vn -0.981607 -0.190897 -0.002496
vn -0.124691 -0.023209 -0.991924
vn -0.124691 -0.023209 -0.991924
vn -0.124691 -0.023209 -0.991924
vn -0.124691 -0.023209 -0.991924
vn 0.982131 0.187963 -0.009397
vn 0.982131 0.187963 -0.009397
vn 0.982131 0.187963 -0.009397
vn 0.982131 0.187963 -0.009397
vn -0.224991 0.961365 0.158608
vn -0.224991 0.961365 0.158608
vn -0.224991 0.961365 0.158608
vn 0.225275 -0.963452 -0.144955
vn 0.225275 -0.963452 -0.144955
vn 0.225275 -0.963452 -0.144955
vn -0.104518 -0.017659 0.994366
vn -0.104518 -0.017659 0.994366
vn -0.104518 -0.017659 0.994366
vn -0.104518 -0.017659 0.994366
vn 0.104519 0.017659 -0.994366
vn 0.104519 0.017659 -0.994366
vn 0.104519 0.017659 -0.994366
vn 0.104519 0.017659 -0.994366
vn 0.166593 -0.986026 -0.000001
vn 0.166593 -0.986026 -0.000001
vn 0.166593 -0.986026 -0.000001
vn 0.166593 -0.986026 -0.000001
vn 0.986897 0.121735 0.105896
vn 0.986897 0.121735 0.105896
vn 0.986897 0.121735 0.105896
vn 0.986898 0.121735 0.105896
vn -0.971899 -0.210232 -0.105895
vn -0.971899 -0.210232 -0.105895
vn -0.971900 -0.210232 -0.105895
vn -0.971899 -0.210232 -0.105895
vn 0.100628 0.017002 0.994779
vn 0.100628 0.017002 0.994779
vn 0.100628 0.017002 0.994779
vn 0.100628 0.017002 0.994779
vn -0.100629 -0.017002 -0.994779
vn -0.100629 -0.017002 -0.994779
vn -0.100629 -0.017002 -0.994779
vn -0.100629 -0.017002 -0.994779
vn 0.166592 -0.986026 0.000000
vn 0.166592 -0.986026 0.000000
vn 0.166592 -0.986026 0.000000
vn 0.166592 -0.986026 0.000000
vn 0.987304 0.121804 -0.101954
vn 0.987304 0.121804 -0.101954
vn 0.987304 0.121804 -0.101954
vn 0.987304 0.121804 -0.101954
vn -0.972306 -0.210301 0.101951
vn -0.972306 -0.210301 0.101951
vn -0.972306 -0.210301 0.101951
vn -0.972306 -0.210301 0.101951
vn -0.088924 0.104625 0.990528
vn -0.088924 0.104625 0.990528
vn -0.088924 0.104625 0.990528
vn -0.088924 0.104625 0.990528
vn 0.627177 -0.767040 0.135273
vn 0.627177 -0.767040 0.135273
vn 0.627177 -0.767040 0.135273
vn 0.627177 -0.767040 0.135273
vn 0.083451 -0.103891 -0.991082
vn 0.083451 -0.103891 -0.991082
vn 0.083451 -0.103891 -0.991082
vn 0.083451 -0.103891 -0.991082
vn -0.983419 0.150375 -0.101367
vn -0.983419 0.150375 -0.101367
vn -0.983419 0.150375 -0.101367
vn -0.983419 0.150375 -0.101367
vn -0.162283 -0.982696 0.089286
vn -0.162283 -0.982696 0.089286
vn -0.162283 -0.982696 0.089286
vn -0.162283 -0.982696 0.089286
vn 0.156826 0.983531 -0.089849
vn 0.156826 0.983531 -0.089849
vn 0.156826 0.983531 -0.089849
vn 0.156826 0.983531 -0.089849
vn -0.086188 0.104260 0.990809
vn -0.086188 0.104260 0.990809
vn -0.086188 0.104260 0.990809
vn -0.086188 0.104260 0.990809
vn -0.689440 -0.724161 0.016227
vn -0.689440 -0.724161 0.016227
vn -0.689440 -0.724161 0.016227
vn -0.689440 -0.724161 0.016227
vn 0.086187 -0.104259 -0.990809
vn 0.086187 -0.104259 -0.990809
vn 0.086187 -0.104259 -0.990809
vn 0.086187 -0.104259 -0.990809
vn 0.647664 0.761554 -0.023796
vn 0.647664 0.761554 -0.023796
vn 0.647664 0.761554 -0.023796
vn 0.647664 0.761554 -0.023796
vn -0.125186 -0.023253 -0.991861
vn -0.125186 -0.023253 -0.991861
vn -0.125186 -0.023253 -0.991861
vn -0.125186 -0.023253 -0.991861
vn 0.957702 0.259242 -0.124902
vn 0.957702 0.259242 -0.124902
vn 0.957702 0.259242 -0.124902
vn 0.957702 0.259242 -0.124902
vn 0.122266 0.018555 0.992324
vn 0.122266 0.018555 0.992324
vn 0.122266 0.018555 0.992324
vn 0.122266 0.018555 0.992324
vn -0.541219 -0.836563 0.085122
vn -0.541219 -0.836563 0.085122
vn -0.541219 -0.836563 0.085122
vn -0.541219 -0.836563 0.085122
vn 0.830227 -0.549788 -0.091955
vn 0.830227 -0.549788 -0.091955
vn 0.830227 -0.549788 -0.091955
vn 0.830227 -0.549788 -0.091955
vn -0.833230 0.545146 0.092429
vn -0.833230 0.545146 0.092429
vn -0.833230 0.545146 0.092429
vn -0.833230 0.545146 0.092429
vn -0.123726 -0.020903 -0.992096
vn -0.123726 -0.020903 -0.992096
vn -0.123726 -0.020903 -0.992096
vn -0.123726 -0.020903 -0.992096
vn 0.377719 -0.925509 -0.027606
vn 0.377719 -0.925509 -0.027606
vn 0.377719 -0.925509 -0.027606
vn 0.377719 -0.925509 -0.027606
vn 0.123726 0.020903 0.992096
vn 0.123726 0.020903 0.992096
vn 0.123726 0.020903 0.992096
vn 0.123726 0.020903 0.992096
vn -0.429008 0.902642 0.034487
vn -0.429008 0.902642 0.034487
vn -0.429008 0.902642 0.034487
vn -0.429008 0.902642 0.034487
vn -0.251501 0.961296 0.112507
vn -0.251501 0.961296 0.112507
vn -0.251501 0.961296 0.112507
vn -0.251501 0.961296 0.112507
vn -0.250561 0.962951 0.099717
vn -0.250561 0.962951 0.099717
vn -0.250561 0.962952 0.099717
vn -0.250561 0.962952 0.099717
vn -0.250304 0.961607 0.112517
vn -0.250304 0.961607 0.112517
vn -0.250304 0.961607 0.112517
vn -0.250304 0.961607 0.112517
vn -0.250784 0.962869 0.099955
vn -0.250784 0.962869 0.099955
vn -0.250784 0.962869 0.099955
vn -0.250784 0.962869 0.099955
vn 0.250303 -0.961816 -0.110718
vn 0.250303 -0.961816 -0.110718
vn 0.250303 -0.961816 -0.110718
vn 0.250303 -0.961816 -0.110718
vn -0.250471 0.961772 0.110720
vn -0.250471 0.961772 0.110720
vn -0.250471 0.961772 0.110720
vn -0.250471 0.961772 0.110720
vn 0.889308 0.454091 0.054154
vn 0.889308 0.454091 0.054154
vn 0.889308 0.454091 0.054154
vn 0.889308 0.454091 0.054154
vn -0.907264 -0.417863 -0.047564
vn -0.907264 -0.417863 -0.047564
vn -0.907264 -0.417863 -0.047564
vn -0.907264 -0.417863 -0.047564
vn -0.065341 -0.099595 0.992880
vn -0.065341 -0.099595 0.992880
vn -0.065341 -0.099595 0.992880
vn -0.065341 -0.099595 0.992880
vn 0.057167 0.126935 -0.990262
vn 0.057167 0.126935 -0.990262
vn 0.057167 0.126935 -0.990262
vn 0.057167 0.126935 -0.990262
vn 0.063559 -0.095914 0.993358
vn 0.063559 -0.095914 0.993358
vn 0.063559 -0.095914 0.993358
vn 0.063559 -0.095914 0.993358
vn -0.060554 0.102840 -0.992853
vn -0.060554 0.102840 -0.992853
vn -0.060554 0.102840 -0.992853
vn -0.060554 0.102840 -0.992853
vn -0.999416 -0.033947 -0.003888
vn -0.999416 -0.033947 -0.003888
vn -0.999416 -0.033947 -0.003888
vn -0.999416 -0.033947 -0.003888
vn 0.998841 0.047821 0.005503
vn 0.998841 0.047821 0.005503
vn 0.998841 0.047821 0.005503
vn 0.998841 0.047821 0.005503
s off
g Wheelbarrow_brokenCOL:polySurface113
usemtl lambert2SG
f 1/1/1 7/2/2 12/3/3 6/4/4
f 7/2/5 1/1/6 2/5/7 8/6/8
f 8/6/9 2/5/10 3/7/11 9/8/12
f 9/8/13 3/7/14 4/9/15 10/10/16
f 10/10/17 4/9/18 5/11/19 11/12/20
f 11/12/21 5/11/22 6/13/23 12/14/24
f 13/15/25 11/16/26 12/17/27
f 14/18/28 3/7/29 2/5/30
f 9/19/31 10/20/32 13/15/33
f 12/21/34 7/22/35 13/15/36
f 13/15/37 8/23/38 9/19/39
f 7/22/40 8/23/41 13/15/42
f 10/20/43 11/16/44 13/15/45
f 2/5/46 1/1/47 14/18/48
f 14/18/49 6/13/50 5/11/51
f 5/11/52 4/9/53 14/18/54
f 1/1/55 6/4/56 14/18/57
f 4/9/58 3/7/59 14/18/60
f 17/24/61 15/25/62 16/26/63 18/27/64
f 17/24/65 18/27/66 19/28/67
f 20/29/68 16/26/69 15/25/70
f 20/30/71 15/25/72 17/24/73 19/31/74
f 20/34/75 19/35/76 22/33/77 21/32/78
f 18/36/79 16/37/80 21/38/81 22/39/82
f 18/36/83 22/33/84 19/28/85
f 16/26/86 20/34/87 21/38/88
f 23/40/89 24/41/90 26/42/91 25/43/92
f 27/44/93 28/45/94 30/46/95 29/47/96
f 29/48/97 30/49/98 24/41/99 23/40/100
f 24/41/101 30/46/102 28/45/103 26/42/104
f 29/50/105 23/40/106 25/43/107 27/51/108
f 31/52/109 32/53/110 34/54/111 33/55/112
f 35/56/113 36/57/114 38/58/115 37/59/116
f 37/59/117 38/58/118 32/60/119 31/61/120
f 32/53/121 38/58/122 36/57/123 34/54/124
f 37/59/125 31/62/126 33/63/127 35/56/128
f 39/64/129 40/65/130 44/66/131 43/67/132
f 50/68/133 47/69/134 48/70/135 49/71/136
f 45/72/137 46/73/138 42/74/139 41/75/140
f 41/76/141 42/77/142 40/65/143 39/64/144
f 40/65/145 42/78/146 46/79/147 44/66/148
f 41/75/149 39/64/150 43/67/151 45/72/152
f 47/69/153 43/67/154 44/80/155 48/70/156
f 44/80/157 46/81/158 49/82/159 48/70/160
f 46/83/161 45/72/162 50/84/163 49/85/164
f 45/72/165 43/67/166 47/69/167 50/84/168
f 51/86/169 55/87/170 56/88/171 52/89/172
f 59/90/173 62/91/174 61/92/175 60/93/176
f 57/94/177 53/95/178 54/96/179 58/97/180
f 53/98/181 51/86/182 52/89/183 54/99/184
f 52/89/185 56/88/186 58/100/187 54/101/188
f 53/95/189 57/94/190 55/87/191 51/86/192
f 56/102/193 55/87/194 59/90/195 60/93/196
f 56/102/197 60/93/198 61/103/199 58/104/200
f 62/105/201 57/94/202 58/106/203 61/107/204
f 57/94/205 62/105/206 59/90/207 55/87/208
f 71/120/209 72/121/210 73/122/211 74/123/212
f 71/120/213 75/124/214 76/125/215 72/121/216
f 68/117/217 67/116/218 69/118/219 70/119/220
f 74/123/221 73/122/222 77/126/223 78/127/224
f 63/115/225 65/112/226 66/113/227 64/114/228
f 77/126/229 76/125/230 75/124/231 78/127/232
f 67/116/233 68/117/234 73/122/235 72/121/236
f 65/111/237 63/108/238 71/120/239 74/123/240
f 63/108/241 64/109/242 75/124/243 71/120/244
f 69/118/245 67/116/246 72/121/247 76/125/248
f 68/117/249 70/119/250 77/126/251 73/122/252
f 66/110/253 65/111/254 74/123/255 78/127/256
f 70/119/257 69/118/258 76/125/259 77/126/260
f 64/109/261 66/110/262 78/127/263 75/124/264
