# This file uses centimeters as units for non-parametric coordinates.

mtllib CromdoMartBillboardCOL.mtl
g default
v -10.772886 37.903847 -26.987467
v -0.572576 37.903847 8.072187
v -10.772886 55.126926 -26.987467
v -0.572576 55.126926 8.072187
v -9.506705 55.169552 -27.355860
v 0.693607 55.169552 7.703800
v -9.506705 37.861225 -27.355860
v 0.693607 37.861225 7.703800
vt 0.798391 0.937220
vt 0.411670 0.937221
vt 0.007376 0.809565
vt 0.827235 0.809565
vt 0.395486 0.933872
vt 0.008764 0.933871
vt 0.006880 0.866576
vt 0.826740 0.866578
vt 0.810853 0.782942
vt -0.009007 0.782942
vt -0.009007 0.396513
vt 0.810853 0.396512
vt 0.826740 0.896585
vt 0.006879 0.896585
vt 0.827366 0.397852
vt 0.007507 0.397852
vt 0.007507 0.009216
vt 0.827366 0.009216
vt 0.007375 0.779557
vt 0.827235 0.779557
vt 0.396443 0.963895
vt 0.007807 0.963895
vt 0.799348 0.907197
vt 0.410712 0.907197
vn -0.960187 0.000000 0.279358
vn -0.960187 0.000000 0.279358
vn -0.960187 0.000000 0.279358
vn -0.960187 0.000000 0.279358
vn 0.000000 1.000000 0.000000
vn 0.000000 1.000000 0.000000
vn 0.000000 1.000000 0.000000
vn 0.000000 1.000000 0.000000
vn 0.960187 0.000000 -0.279358
vn 0.960187 0.000000 -0.279358
vn 0.960187 0.000000 -0.279358
vn 0.960187 0.000000 -0.279358
vn 0.000000 -1.000000 0.000000
vn 0.000000 -1.000000 0.000000
vn 0.000000 -1.000000 0.000000
vn 0.000000 -1.000000 0.000000
vn 0.279360 0.000000 0.960186
vn 0.279360 0.000000 0.960186
vn 0.279360 0.000000 0.960186
vn 0.279360 0.000000 0.960186
vn -0.279365 0.000000 -0.960185
vn -0.279365 0.000000 -0.960185
vn -0.279365 0.000000 -0.960185
vn -0.279365 0.000000 -0.960185
vn -0.960187 0.000001 0.279360
vn -0.960187 0.000001 0.279359
vn -0.960187 0.000001 0.279359
vn -0.960187 0.000001 0.279359
vn -0.960187 -0.000001 0.279357
vn -0.960187 0.000001 0.279359
vn -0.960187 0.000001 0.279359
vn -0.960187 -0.000001 0.279357
vn -0.960187 -0.000001 0.279357
vn -0.960187 0.000001 0.279359
vn -0.960187 0.000001 0.279359
vn -0.960187 -0.000001 0.279357
vn -0.960187 -0.000001 0.279357
vn -0.960187 0.000001 0.279359
vn -0.960187 -0.000001 0.279357
vn -0.960187 0.000001 0.279359
vn 0.000000 1.000000 0.000004
vn 0.000000 1.000000 0.000004
vn 0.000000 1.000000 0.000004
vn -0.279358 0.000000 -0.960187
vn -0.279358 0.000000 -0.960187
vn -0.279358 0.000000 -0.960187
vn -0.279358 0.000000 -0.960187
vn 0.279359 0.000000 0.960187
vn 0.279359 0.000000 0.960187
vn 0.279359 0.000000 0.960187
vn 0.279359 0.000000 0.960187
vn 0.279359 0.000000 0.960187
vn 0.279359 0.000000 0.960187
vn 0.279359 0.000000 0.960187
vn 0.279359 0.000000 0.960187
vn 0.279359 0.000000 0.960187
vn 0.000000 -1.000000 -0.000002
vn 0.000000 -1.000000 -0.000002
vn 0.279359 0.000000 0.960187
vn 0.279359 0.000000 0.960187
vn 0.279359 0.000000 0.960187
vn 0.279359 0.000000 0.960187
vn 0.279359 0.000000 0.960187
vn 0.279359 0.000000 0.960187
vn 0.279359 0.000000 0.960187
vn 0.279359 0.000000 0.960187
vn 0.279359 0.000000 0.960187
vn 0.279359 0.000000 0.960187
vn 0.279359 0.000000 0.960187
vn 0.279359 0.000000 0.960187
vn 0.279359 0.000000 0.960187
vn 0.279359 0.000000 0.960187
vn 0.000000 -1.000000 -0.000002
vn 0.000000 -1.000000 -0.000002
vn 0.279359 0.000000 0.960187
vn 0.279359 0.000000 0.960187
vn 0.279359 0.000000 0.960187
vn 0.279359 0.000000 0.960187
vn 0.279359 0.000000 0.960187
vn 0.279359 0.000000 0.960187
vn 0.279359 0.000000 0.960187
vn 0.279359 0.000000 0.960187
vn 0.279359 0.000000 0.960187
vn 0.279359 0.000000 0.960187
vn 0.279359 0.000000 0.960187
vn 0.279359 0.000000 0.960187
vn 0.279359 0.000000 0.960187
vn 0.279359 0.000000 0.960187
s off
g pCube1
usemtl blinn1SG
f 4/9/1 3/10/2 1/11/3 2/12/4
f 3/7/5 4/8/6 6/13/7 5/14/8
f 5/15/9 6/16/10 8/17/11 7/18/12
f 7/19/13 8/20/14 2/4/15 1/3/16
f 2/5/17 8/21/18 6/22/19 4/6/20
f 7/23/21 1/1/22 3/2/23 5/24/24
