# This file uses centimeters as units for non-parametric coordinates.

mtllib SuckerRLowerCanine.mtl
g default
v 0.136216 0.784753 0.220804
v 0.208312 0.784753 0.085897
v -0.010368 0.784753 0.265282
v 0.163918 0.784753 -0.060585
v 0.028927 0.784753 -0.132783
v -0.145344 0.784753 0.193102
v -0.117565 0.784753 -0.088380
v -0.189753 0.784753 0.046602
v 0.009287 0.784753 0.066258
v 0.208312 -0.015727 0.085897
v 0.136216 -0.015727 0.220804
v -0.010368 -0.015727 0.265282
v -0.145344 -0.015727 0.193102
v -0.189753 -0.015727 0.046602
v -0.117565 -0.015727 -0.088380
v 0.028927 -0.015727 -0.132783
v 0.163918 -0.015727 -0.060585
vt 0.344915 0.853498
vt 0.344891 0.868320
vt 0.345015 0.779421
vt 0.345004 0.794241
vt 0.344933 0.838683
vt 0.344982 0.809053
vt 0.280393 0.871780
vt 0.302424 0.871796
vt 0.302422 0.893828
vt 0.286845 0.887374
vt 0.324458 0.871797
vt 0.318004 0.887376
vt 0.286847 0.856215
vt 0.302426 0.849763
vt 0.318006 0.856217
vt 0.344866 0.883123
vt 0.344827 0.897947
vt 0.344960 0.823861
vt 0.422619 0.883394
vt 0.422732 0.868560
vt 0.422813 0.853680
vt 0.422847 0.838789
vt 0.422846 0.823897
vt 0.422802 0.809040
vt 0.422727 0.794206
vt 0.422487 0.898205
vt 0.422642 0.779410
vn 0.000000 1.000000 -0.000000
vn 0.000000 1.000000 -0.000000
vn 0.000000 1.000000 -0.000000
vn 0.000000 1.000000 -0.000000
vn 0.000000 1.000000 -0.000000
vn 0.000000 1.000000 -0.000000
vn 0.000000 1.000000 -0.000000
vn 0.000000 1.000000 -0.000000
vn 0.000000 1.000000 -0.000000
vn 0.000000 1.000000 -0.000000
vn 0.000000 1.000000 -0.000000
vn 0.000000 1.000000 -0.000000
vn 0.000000 1.000000 -0.000000
vn 0.000000 1.000000 -0.000000
vn 0.000000 1.000000 -0.000000
vn 0.000000 1.000000 -0.000000
vn 0.634454 0.000000 0.772961
vn 0.995176 -0.000000 0.098104
vn 0.995176 -0.000000 0.098104
vn 0.634454 0.000000 0.772961
vn -0.098075 0.000000 0.995179
vn -0.098075 0.000000 0.995179
vn -0.773134 0.000000 0.634243
vn -0.773134 0.000000 0.634243
vn -0.995164 0.000000 -0.098224
vn -0.995164 0.000000 -0.098224
vn -0.634223 -0.000000 -0.773151
vn -0.634223 -0.000000 -0.773151
vn 0.098252 -0.000000 -0.995162
vn 0.098252 -0.000000 -0.995162
vn 0.773170 -0.000000 -0.634199
vn 0.773170 -0.000000 -0.634199
s off
g FoodRLowerCaninesUnderbite
usemtl Sucker_lambert3SG
f 1/7/1 9/8/2 6/9/3 3/10/4
f 9/8/5 7/11/6 8/12/7 6/9/8
f 9/8/9 1/7/10 2/13/11 4/14/12
f 7/11/13 9/8/14 4/14/15 5/15/16
s 1
f 11/20/17 10/19/18 2/16/19 1/2/20
f 3/1/21 12/21/22 11/20/17 1/2/20
f 6/5/23 13/22/24 12/21/22 3/1/21
f 14/23/25 13/22/24 6/5/23 8/18/26
f 15/24/27 14/23/25 8/18/26 7/6/28
f 5/4/29 16/25/30 15/24/27 7/6/28
f 4/3/31 17/27/32 16/25/30 5/4/29
f 10/19/18 17/26/32 4/17/31 2/16/19
