# This file uses centimeters as units for non-parametric coordinates.

mtllib HotdogMediumRUpperArm.mtl
g default
v -1.173722 0.068247 -0.009386
v -1.157784 0.114401 0.033929
v -1.136012 0.131295 0.093098
v -1.114238 0.114401 0.152268
v -1.098300 0.068247 0.195583
v -1.092466 0.005199 0.211437
v -1.098300 -0.057850 0.195583
v -1.114238 -0.104004 0.152268
v -1.136012 -0.120898 0.093098
v -1.157784 -0.104004 0.033929
v -1.173722 -0.057850 -0.009386
v -1.179556 0.005199 -0.025241
v -1.134425 0.121696 -0.121648
v -1.106656 0.206978 -0.041014
v -1.068724 0.238194 0.069136
v -1.030792 0.206978 0.179285
v -1.003023 0.121696 0.259920
v -0.992860 0.005199 0.289434
v -1.003023 -0.111299 0.259920
v -1.030792 -0.196581 0.179285
v -1.068724 -0.227797 0.069136
v -1.106656 -0.196581 -0.041014
v -1.134425 -0.111299 -0.121648
v -1.144589 0.005199 -0.151163
v -1.045112 0.157410 -0.215920
v -1.012149 0.268837 -0.109481
v -0.967122 0.309622 0.035918
v -0.922094 0.268837 0.181317
v -0.889132 0.157410 0.287756
v -0.877066 0.005199 0.326716
v -0.889132 -0.147013 0.287756
v -0.922094 -0.258440 0.181317
v -0.967122 -0.299224 0.035918
v -1.012149 -0.258440 -0.109481
v -1.045112 -0.147013 -0.215920
v -1.057178 0.005199 -0.254880
v -0.920293 0.169951 -0.274671
v -0.888897 0.290558 -0.158222
v -0.846007 0.334704 0.000850
v -0.803119 0.290558 0.159922
v -0.771723 0.169951 0.276371
v -0.760231 0.005199 0.318994
v -0.771723 -0.159554 0.276371
v -0.803119 -0.280161 0.159922
v -0.846007 -0.324307 0.000850
v -0.888897 -0.280161 -0.158222
v -0.920293 -0.159554 -0.274671
v -0.931785 0.005199 -0.317294
v -0.603573 0.169951 -0.345314
v -0.582510 0.290558 -0.226561
v -0.553735 0.334704 -0.064340
v -0.524961 0.290558 0.097880
v -0.503897 0.169951 0.216634
v -0.496187 0.005199 0.260101
v -0.503897 -0.159554 0.216634
v -0.524961 -0.280161 0.097880
v -0.553735 -0.324307 -0.064340
v -0.582510 -0.280161 -0.226561
v -0.603573 -0.159554 -0.345314
v -0.611284 0.005199 -0.388781
v -0.281880 0.169951 -0.387911
v -0.271310 0.290558 -0.267768
v -0.256873 0.334704 -0.103649
v -0.242435 0.290558 0.060470
v -0.231866 0.169951 0.180613
v -0.227997 0.005199 0.224589
v -0.231866 -0.159554 0.180613
v -0.242435 -0.280161 0.060470
v -0.256873 -0.324307 -0.103649
v -0.271310 -0.280161 -0.267768
v -0.281880 -0.159554 -0.387911
v -0.285749 0.005199 -0.431886
v 0.042309 0.169951 -0.402134
v 0.042302 0.290558 -0.281526
v 0.042293 0.334704 -0.116774
v 0.042283 0.290558 0.047979
v 0.042276 0.169951 0.168586
v 0.042273 0.005199 0.212731
v 0.042276 -0.159554 0.168586
v 0.042283 -0.280161 0.047979
v 0.042293 -0.324307 -0.116774
v 0.042302 -0.280161 -0.281526
v 0.042309 -0.159554 -0.402134
v 0.042312 0.005199 -0.446279
v 0.366498 0.169951 -0.387873
v 0.355915 0.290558 -0.267731
v 0.341458 0.334704 -0.103614
v 0.327001 0.290558 0.060503
v 0.316418 0.169951 0.180645
v 0.312543 0.005199 0.224620
v 0.316418 -0.159554 0.180645
v 0.327001 -0.280161 0.060503
v 0.341458 -0.324307 -0.103614
v 0.355915 -0.280161 -0.267731
v 0.366498 -0.159554 -0.387873
v 0.370372 0.005199 -0.431848
v 0.688186 0.169951 -0.345238
v 0.667109 0.290558 -0.226487
v 0.638315 0.334704 -0.064270
v 0.609522 0.290558 0.097947
v 0.588444 0.169951 0.216698
v 0.580729 0.005199 0.260164
v 0.588444 -0.159554 0.216698
v 0.609522 -0.280161 0.097947
v 0.638315 -0.324307 -0.064270
v 0.667109 -0.280161 -0.226487
v 0.688186 -0.159554 -0.345238
v 0.695902 0.005199 -0.388704
v 1.004898 0.169951 -0.274558
v 0.973488 0.290558 -0.158113
v 0.930580 0.334704 0.000955
v 0.887673 0.290558 0.160022
v 0.856263 0.169951 0.276467
v 0.844766 0.005199 0.319089
v 0.856263 -0.159554 0.276467
v 0.887673 -0.280161 0.160022
v 0.930580 -0.324307 0.000955
v 0.973488 -0.280161 -0.158113
v 1.004898 -0.159554 -0.274558
v 1.016395 0.005199 -0.317180
v 1.129710 0.157410 -0.215792
v 1.096735 0.268837 -0.109357
v 1.051691 0.309622 0.036037
v 1.006646 0.268837 0.181430
v 0.973671 0.157410 0.287866
v 0.961600 0.005199 0.326824
v 0.973671 -0.147013 0.287866
v 1.006646 -0.258440 0.181430
v 1.051691 -0.299224 0.036037
v 1.096735 -0.258440 -0.109357
v 1.129710 -0.147013 -0.215792
v 1.141780 0.005199 -0.254750
v 1.219012 0.121696 -0.121510
v 1.191234 0.206978 -0.040878
v 1.153289 0.238194 0.069266
v 1.115344 0.206978 0.179411
v 1.087565 0.121696 0.260043
v 1.077399 0.005199 0.289556
v 1.087565 -0.111299 0.260043
v 1.115344 -0.196581 0.179411
v 1.153289 -0.227797 0.069266
v 1.191234 -0.196581 -0.040878
v 1.219012 -0.111299 -0.121510
v 1.229180 0.005199 -0.151023
v 1.258295 0.068247 -0.009243
v 1.242352 0.114401 0.034070
v 1.220573 0.131295 0.093237
v 1.198793 0.114401 0.152404
v 1.182850 0.068247 0.195717
v 1.177014 0.005199 0.211571
v 1.182850 -0.057850 0.195717
v 1.198793 -0.104004 0.152404
v 1.220573 -0.120898 0.093237
v 1.242352 -0.104004 0.034070
v 1.258295 -0.057850 -0.009243
v 1.264131 0.005199 -0.025097
v -1.159518 0.005199 0.101846
v 1.244079 0.005199 0.101988
vt 0.705282 0.841063
vt 0.699772 0.835680
vt 0.707907 0.821910
vt 0.719381 0.833109
vt 0.692238 0.833709
vt 0.692239 0.817809
vt 0.684707 0.835680
vt 0.676569 0.821910
vt 0.679193 0.841062
vt 0.665098 0.833109
vt 0.677177 0.848421
vt 0.660900 0.848409
vt 0.679193 0.855769
vt 0.665098 0.863710
vt 0.684708 0.861163
vt 0.676569 0.874907
vt 0.692238 0.863123
vt 0.692240 0.879010
vt 0.699772 0.861162
vt 0.707907 0.874907
vt 0.705282 0.855770
vt 0.719381 0.863710
vt 0.707304 0.848421
vt 0.723577 0.848408
vt 0.717441 0.805748
vt 0.735886 0.823762
vt 0.692238 0.799156
vt 0.667039 0.805748
vt 0.648591 0.823763
vt 0.641838 0.848369
vt 0.648591 0.872975
vt 0.667038 0.890990
vt 0.692238 0.897581
vt 0.717441 0.890989
vt 0.735886 0.872975
vt 0.742641 0.848369
vt 0.729680 0.785032
vt 0.757089 0.811795
vt 0.692239 0.775236
vt 0.654798 0.785033
vt 0.627389 0.811795
vt 0.617357 0.848353
vt 0.627389 0.884912
vt 0.654798 0.911674
vt 0.692239 0.921470
vt 0.729679 0.911674
vt 0.757089 0.884912
vt 0.767121 0.848353
vt 0.598997 0.605870
vt 0.598955 0.632902
vt 0.551446 0.632902
vt 0.551455 0.605870
vt 0.598926 0.659935
vt 0.551434 0.659935
vt 0.598908 0.686968
vt 0.551418 0.686968
vt 0.598869 0.714002
vt 0.551401 0.714001
vt 0.598835 0.741034
vt 0.551383 0.741035
vt 0.598834 0.768068
vt 0.551384 0.768067
vt 0.598835 0.795101
vt 0.551382 0.795100
vt 0.598869 0.822133
vt 0.551401 0.822133
vt 0.598908 0.849166
vt 0.551419 0.849166
vt 0.598925 0.876199
vt 0.551434 0.876199
vt 0.598955 0.903232
vt 0.551446 0.903232
vt 0.598997 0.930265
vt 0.551455 0.930265
vt 0.503947 0.632902
vt 0.503941 0.605869
vt 0.503952 0.659935
vt 0.503951 0.686968
vt 0.503945 0.714001
vt 0.503942 0.741035
vt 0.503934 0.768067
vt 0.503942 0.795101
vt 0.503945 0.822133
vt 0.503951 0.849166
vt 0.503952 0.876199
vt 0.503946 0.903232
vt 0.503941 0.930265
vt 0.456493 0.632902
vt 0.456501 0.605870
vt 0.456480 0.659935
vt 0.456477 0.686968
vt 0.456458 0.714001
vt 0.456451 0.741034
vt 0.456446 0.768068
vt 0.456451 0.795100
vt 0.456458 0.822133
vt 0.456477 0.849166
vt 0.456480 0.876199
vt 0.456492 0.903232
vt 0.456501 0.930265
vt 0.409012 0.632902
vt 0.409004 0.605869
vt 0.409004 0.659936
vt 0.408989 0.686968
vt 0.408985 0.714001
vt 0.408965 0.741034
vt 0.408959 0.768068
vt 0.408965 0.795101
vt 0.408985 0.822133
vt 0.408989 0.849166
vt 0.409004 0.876199
vt 0.409012 0.903232
vt 0.409004 0.930265
vt 0.361543 0.632903
vt 0.361556 0.605869
vt 0.361531 0.659936
vt 0.361516 0.686968
vt 0.361501 0.714001
vt 0.361480 0.741034
vt 0.361496 0.768067
vt 0.361480 0.795101
vt 0.361501 0.822133
vt 0.361516 0.849166
vt 0.361531 0.876199
vt 0.361543 0.903232
vt 0.361556 0.930265
vt 0.314047 0.632902
vt 0.314047 0.605869
vt 0.314046 0.659935
vt 0.314047 0.686968
vt 0.314047 0.714002
vt 0.314046 0.741035
vt 0.314047 0.768067
vt 0.314047 0.795100
vt 0.314047 0.822133
vt 0.314047 0.849166
vt 0.314047 0.876199
vt 0.314047 0.903232
vt 0.314047 0.930265
vt 0.756041 0.722385
vt 0.729279 0.749794
vt 0.717328 0.728601
vt 0.735339 0.710152
vt 0.692722 0.759827
vt 0.692721 0.735354
vt 0.656164 0.749794
vt 0.668116 0.728601
vt 0.629402 0.722385
vt 0.650103 0.710152
vt 0.619606 0.684943
vt 0.643509 0.684950
vt 0.629402 0.647501
vt 0.650103 0.659749
vt 0.656164 0.620091
vt 0.668116 0.641300
vt 0.692721 0.610059
vt 0.692721 0.634547
vt 0.729279 0.620091
vt 0.717327 0.641300
vt 0.756041 0.647501
vt 0.735340 0.659749
vt 0.765837 0.684943
vt 0.741934 0.684950
vt 0.708020 0.712124
vt 0.719223 0.700654
vt 0.692722 0.716324
vt 0.677421 0.712124
vt 0.666221 0.700654
vt 0.662122 0.684984
vt 0.666221 0.669313
vt 0.677421 0.657843
vt 0.692721 0.653643
vt 0.708021 0.657843
vt 0.719223 0.669313
vt 0.723319 0.684984
vt 0.700078 0.698047
vt 0.705453 0.692530
vt 0.692720 0.700062
vt 0.685368 0.698047
vt 0.679984 0.692531
vt 0.678014 0.684997
vt 0.679984 0.677469
vt 0.685368 0.671947
vt 0.692720 0.669937
vt 0.700078 0.671947
vt 0.705453 0.677469
vt 0.707436 0.684997
vt 0.692239 0.848422
vt 0.692721 0.685005
vn -0.961165 0.249398 -0.118166
vn -0.901999 0.427954 0.057040
vn -0.738538 0.655948 -0.155865
vn -0.820336 0.381538 -0.426001
vn -0.823007 0.487709 0.291204
vn -0.629143 0.749252 0.206883
vn -0.746186 0.416668 0.519225
vn -0.522683 0.641317 0.561707
vn -0.691365 0.238112 0.682142
vn -0.446766 0.366888 0.815962
vn -0.671605 0.000000 0.740909
vn -0.419433 -0.000000 0.907786
vn -0.691365 -0.238112 0.682142
vn -0.446767 -0.366889 0.815961
vn -0.746185 -0.416667 0.519227
vn -0.522683 -0.641316 0.561708
vn -0.823007 -0.487709 0.291204
vn -0.629143 -0.749252 0.206884
vn -0.901999 -0.427954 0.057035
vn -0.738538 -0.655948 -0.155866
vn -0.961164 -0.249397 -0.118169
vn -0.820336 -0.381538 -0.426001
vn -0.983099 0.000000 -0.183078
vn -0.850618 -0.000000 -0.525783
vn -0.467058 0.810914 -0.352527
vn -0.559478 0.468721 -0.683583
vn -0.341757 0.934596 0.098656
vn -0.217746 0.807519 0.548178
vn -0.127929 0.465296 0.875862
vn -0.095282 -0.000000 0.995450
vn -0.127930 -0.465296 0.875862
vn -0.217747 -0.807519 0.548177
vn -0.341757 -0.934596 0.098656
vn -0.467058 -0.810915 -0.352525
vn -0.559478 -0.468722 -0.683582
vn -0.593436 0.000000 -0.804881
vn -0.171161 0.860411 -0.479997
vn -0.254436 0.494965 -0.830826
vn -0.056603 0.998391 0.003408
vn 0.058851 0.868837 0.491587
vn 0.143923 0.503401 0.851982
vn 0.175176 -0.000000 0.984537
vn 0.143923 -0.503401 0.851982
vn 0.058851 -0.868837 0.491587
vn -0.056603 -0.998391 0.003408
vn -0.171161 -0.860411 -0.479996
vn -0.254436 -0.494965 -0.830826
vn -0.284791 0.000000 -0.958590
vn -0.089080 0.860146 -0.502209
vn -0.151828 0.494240 -0.855964
vn -0.002392 0.999906 -0.013483
vn 0.085489 0.872013 0.481959
vn 0.150628 0.506137 0.849198
vn 0.174650 0.000000 0.984630
vn 0.150628 -0.506137 0.849198
vn 0.085489 -0.872013 0.481960
vn -0.002392 -0.999906 -0.013483
vn -0.089080 -0.860146 -0.502209
vn -0.151828 -0.494240 -0.855964
vn -0.174651 -0.000000 -0.984630
vn -0.044697 0.860146 -0.508086
vn -0.076182 0.494240 -0.865981
vn -0.001200 0.999906 -0.013641
vn 0.042895 0.872013 0.487600
vn 0.075580 0.506137 0.859135
vn 0.087633 0.000000 0.996153
vn 0.075580 -0.506137 0.859135
vn 0.042895 -0.872013 0.487599
vn -0.001200 -0.999906 -0.013641
vn -0.044697 -0.860146 -0.508086
vn -0.076182 -0.494240 -0.865981
vn -0.087634 0.000000 -0.996153
vn 0.000030 0.860146 -0.510048
vn 0.000051 0.494240 -0.869326
vn 0.000001 0.999906 -0.013693
vn -0.000029 0.872013 0.489483
vn -0.000051 0.506137 0.862453
vn -0.000059 0.000000 1.000000
vn -0.000051 -0.506137 0.862453
vn -0.000029 -0.872013 0.489483
vn 0.000001 -0.999906 -0.013693
vn 0.000030 -0.860145 -0.510049
vn 0.000051 -0.494240 -0.869326
vn 0.000059 0.000000 -1.000000
vn 0.044757 0.860145 -0.508081
vn 0.076284 0.494239 -0.865972
vn 0.001201 0.999906 -0.013641
vn -0.042953 0.872013 0.487594
vn -0.075681 0.506137 0.859126
vn -0.087751 -0.000000 0.996142
vn -0.075681 -0.506137 0.859126
vn -0.042952 -0.872013 0.487595
vn 0.001202 -0.999906 -0.013641
vn 0.044757 -0.860145 -0.508081
vn 0.076284 -0.494239 -0.865972
vn 0.087751 0.000000 -0.996142
vn 0.089139 0.860145 -0.502200
vn 0.151929 0.494239 -0.855947
vn 0.002393 0.999906 -0.013483
vn -0.085545 0.872013 0.481950
vn -0.150728 0.506137 0.849180
vn -0.174767 -0.000000 0.984610
vn -0.150728 -0.506137 0.849180
vn -0.085545 -0.872013 0.481949
vn 0.002393 -0.999906 -0.013483
vn 0.089139 -0.860145 -0.502199
vn 0.151929 -0.494240 -0.855947
vn 0.174767 -0.000000 -0.984610
vn 0.171218 0.860412 -0.479975
vn 0.254535 0.494966 -0.830795
vn 0.056603 0.998391 0.003415
vn -0.058909 0.868837 0.491581
vn -0.144023 0.503400 0.851966
vn -0.175292 0.000000 0.984517
vn -0.144023 -0.503400 0.851966
vn -0.058909 -0.868837 0.491580
vn 0.056603 -0.998391 0.003415
vn 0.171217 -0.860412 -0.479976
vn 0.254535 -0.494966 -0.830795
vn 0.284904 -0.000000 -0.958556
vn 0.467100 0.810915 -0.352469
vn 0.559558 0.468721 -0.683516
vn 0.341745 0.934595 0.098699
vn 0.217682 0.807520 0.548203
vn 0.127826 0.465296 0.875877
vn 0.095164 0.000000 0.995462
vn 0.127826 -0.465294 0.875878
vn 0.217682 -0.807519 0.548205
vn 0.341745 -0.934596 0.098698
vn 0.467100 -0.810915 -0.352470
vn 0.559559 -0.468722 -0.683516
vn 0.593529 -0.000000 -0.804812
vn 0.738556 0.655948 -0.155777
vn 0.820386 0.381538 -0.425906
vn 0.629118 0.749251 0.206960
vn 0.522618 0.641318 0.561767
vn 0.446671 0.366889 0.816013
vn 0.419324 0.000000 0.907836
vn 0.446671 -0.366889 0.816014
vn 0.522618 -0.641317 0.561768
vn 0.629119 -0.749252 0.206957
vn 0.738556 -0.655948 -0.155778
vn 0.820387 -0.381539 -0.425904
vn 0.850679 -0.000000 -0.525686
vn 0.901992 0.427954 0.057145
vn 0.961178 0.249397 -0.118058
vn 0.822972 0.487709 0.291301
vn 0.746125 0.416668 0.519313
vn 0.691281 0.238111 0.682227
vn 0.671511 0.000000 0.740994
vn 0.691284 -0.238112 0.682224
vn 0.746126 -0.416669 0.519310
vn 0.822974 -0.487710 0.291294
vn 0.901993 -0.427954 0.057138
vn 0.961178 -0.249397 -0.118058
vn 0.983119 0.000000 -0.182969
vn -0.938457 0.000000 0.345396
vn 0.938415 -0.000000 0.345510
s 1
g FoodMediumRUpperArm
usemtl initialShadingGroup
f 1/1/1 2/2/2 14/3/3 13/4/4
f 2/2/2 3/5/5 15/6/6 14/3/3
f 3/5/5 4/7/7 16/8/8 15/6/6
f 4/7/7 5/9/9 17/10/10 16/8/8
f 5/9/9 6/11/11 18/12/12 17/10/10
f 6/11/11 7/13/13 19/14/14 18/12/12
f 7/13/13 8/15/15 20/16/16 19/14/14
f 8/15/15 9/17/17 21/18/18 20/16/16
f 9/17/17 10/19/19 22/20/20 21/18/18
f 10/19/19 11/21/21 23/22/22 22/20/20
f 11/21/21 12/23/23 24/24/24 23/22/22
f 12/23/23 1/1/1 13/4/4 24/24/24
f 13/4/4 14/3/3 26/25/25 25/26/26
f 14/3/3 15/6/6 27/27/27 26/25/25
f 15/6/6 16/8/8 28/28/28 27/27/27
f 16/8/8 17/10/10 29/29/29 28/28/28
f 17/10/10 18/12/12 30/30/30 29/29/29
f 18/12/12 19/14/14 31/31/31 30/30/30
f 19/14/14 20/16/16 32/32/32 31/31/31
f 20/16/16 21/18/18 33/33/33 32/32/32
f 21/18/18 22/20/20 34/34/34 33/33/33
f 22/20/20 23/22/22 35/35/35 34/34/34
f 23/22/22 24/24/24 36/36/36 35/35/35
f 24/24/24 13/4/4 25/26/26 36/36/36
f 25/26/26 26/25/25 38/37/37 37/38/38
f 26/25/25 27/27/27 39/39/39 38/37/37
f 27/27/27 28/28/28 40/40/40 39/39/39
f 28/28/28 29/29/29 41/41/41 40/40/40
f 29/29/29 30/30/30 42/42/42 41/41/41
f 30/30/30 31/31/31 43/43/43 42/42/42
f 31/31/31 32/32/32 44/44/44 43/43/43
f 32/32/32 33/33/33 45/45/45 44/44/44
f 33/33/33 34/34/34 46/46/46 45/45/45
f 34/34/34 35/35/35 47/47/47 46/46/46
f 35/35/35 36/36/36 48/48/48 47/47/47
f 36/36/36 25/26/26 37/38/38 48/48/48
f 37/49/38 38/50/37 50/51/49 49/52/50
f 38/50/37 39/53/39 51/54/51 50/51/49
f 39/53/39 40/55/40 52/56/52 51/54/51
f 40/55/40 41/57/41 53/58/53 52/56/52
f 41/57/41 42/59/42 54/60/54 53/58/53
f 42/59/42 43/61/43 55/62/55 54/60/54
f 43/61/43 44/63/44 56/64/56 55/62/55
f 44/63/44 45/65/45 57/66/57 56/64/56
f 45/65/45 46/67/46 58/68/58 57/66/57
f 46/67/46 47/69/47 59/70/59 58/68/58
f 47/69/47 48/71/48 60/72/60 59/70/59
f 48/71/48 37/73/38 49/74/50 60/72/60
f 49/52/50 50/51/49 62/75/61 61/76/62
f 50/51/49 51/54/51 63/77/63 62/75/61
f 51/54/51 52/56/52 64/78/64 63/77/63
f 52/56/52 53/58/53 65/79/65 64/78/64
f 53/58/53 54/60/54 66/80/66 65/79/65
f 54/60/54 55/62/55 67/81/67 66/80/66
f 55/62/55 56/64/56 68/82/68 67/81/67
f 56/64/56 57/66/57 69/83/69 68/82/68
f 57/66/57 58/68/58 70/84/70 69/83/69
f 58/68/58 59/70/59 71/85/71 70/84/70
f 59/70/59 60/72/60 72/86/72 71/85/71
f 60/72/60 49/74/50 61/87/62 72/86/72
f 61/76/62 62/75/61 74/88/73 73/89/74
f 62/75/61 63/77/63 75/90/75 74/88/73
f 63/77/63 64/78/64 76/91/76 75/90/75
f 64/78/64 65/79/65 77/92/77 76/91/76
f 65/79/65 66/80/66 78/93/78 77/92/77
f 66/80/66 67/81/67 79/94/79 78/93/78
f 67/81/67 68/82/68 80/95/80 79/94/79
f 68/82/68 69/83/69 81/96/81 80/95/80
f 69/83/69 70/84/70 82/97/82 81/96/81
f 70/84/70 71/85/71 83/98/83 82/97/82
f 71/85/71 72/86/72 84/99/84 83/98/83
f 72/86/72 61/87/62 73/100/74 84/99/84
f 73/89/74 74/88/73 86/101/85 85/102/86
f 74/88/73 75/90/75 87/103/87 86/101/85
f 75/90/75 76/91/76 88/104/88 87/103/87
f 76/91/76 77/92/77 89/105/89 88/104/88
f 77/92/77 78/93/78 90/106/90 89/105/89
f 78/93/78 79/94/79 91/107/91 90/106/90
f 79/94/79 80/95/80 92/108/92 91/107/91
f 80/95/80 81/96/81 93/109/93 92/108/92
f 81/96/81 82/97/82 94/110/94 93/109/93
f 82/97/82 83/98/83 95/111/95 94/110/94
f 83/98/83 84/99/84 96/112/96 95/111/95
f 84/99/84 73/100/74 85/113/86 96/112/96
f 85/102/86 86/101/85 98/114/97 97/115/98
f 86/101/85 87/103/87 99/116/99 98/114/97
f 87/103/87 88/104/88 100/117/100 99/116/99
f 88/104/88 89/105/89 101/118/101 100/117/100
f 89/105/89 90/106/90 102/119/102 101/118/101
f 90/106/90 91/107/91 103/120/103 102/119/102
f 91/107/91 92/108/92 104/121/104 103/120/103
f 92/108/92 93/109/93 105/122/105 104/121/104
f 93/109/93 94/110/94 106/123/106 105/122/105
f 94/110/94 95/111/95 107/124/107 106/123/106
f 95/111/95 96/112/96 108/125/108 107/124/107
f 96/112/96 85/113/86 97/126/98 108/125/108
f 97/115/98 98/114/97 110/127/109 109/128/110
f 98/114/97 99/116/99 111/129/111 110/127/109
f 99/116/99 100/117/100 112/130/112 111/129/111
f 100/117/100 101/118/101 113/131/113 112/130/112
f 101/118/101 102/119/102 114/132/114 113/131/113
f 102/119/102 103/120/103 115/133/115 114/132/114
f 103/120/103 104/121/104 116/134/116 115/133/115
f 104/121/104 105/122/105 117/135/117 116/134/116
f 105/122/105 106/123/106 118/136/118 117/135/117
f 106/123/106 107/124/107 119/137/119 118/136/118
f 107/124/107 108/125/108 120/138/120 119/137/119
f 108/125/108 97/126/98 109/139/110 120/138/120
f 109/140/110 110/141/109 122/142/121 121/143/122
f 110/141/109 111/144/111 123/145/123 122/142/121
f 111/144/111 112/146/112 124/147/124 123/145/123
f 112/146/112 113/148/113 125/149/125 124/147/124
f 113/148/113 114/150/114 126/151/126 125/149/125
f 114/150/114 115/152/115 127/153/127 126/151/126
f 115/152/115 116/154/116 128/155/128 127/153/127
f 116/154/116 117/156/117 129/157/129 128/155/128
f 117/156/117 118/158/118 130/159/130 129/157/129
f 118/158/118 119/160/119 131/161/131 130/159/130
f 119/160/119 120/162/120 132/163/132 131/161/131
f 120/162/120 109/140/110 121/143/122 132/163/132
f 121/143/122 122/142/121 134/164/133 133/165/134
f 122/142/121 123/145/123 135/166/135 134/164/133
f 123/145/123 124/147/124 136/167/136 135/166/135
f 124/147/124 125/149/125 137/168/137 136/167/136
f 125/149/125 126/151/126 138/169/138 137/168/137
f 126/151/126 127/153/127 139/170/139 138/169/138
f 127/153/127 128/155/128 140/171/140 139/170/139
f 128/155/128 129/157/129 141/172/141 140/171/140
f 129/157/129 130/159/130 142/173/142 141/172/141
f 130/159/130 131/161/131 143/174/143 142/173/142
f 131/161/131 132/163/132 144/175/144 143/174/143
f 132/163/132 121/143/122 133/165/134 144/175/144
f 133/165/134 134/164/133 146/176/145 145/177/146
f 134/164/133 135/166/135 147/178/147 146/176/145
f 135/166/135 136/167/136 148/179/148 147/178/147
f 136/167/136 137/168/137 149/180/149 148/179/148
f 137/168/137 138/169/138 150/181/150 149/180/149
f 138/169/138 139/170/139 151/182/151 150/181/150
f 139/170/139 140/171/140 152/183/152 151/182/151
f 140/171/140 141/172/141 153/184/153 152/183/152
f 141/172/141 142/173/142 154/185/154 153/184/153
f 142/173/142 143/174/143 155/186/155 154/185/154
f 143/174/143 144/175/144 156/187/156 155/186/155
f 144/175/144 133/165/134 145/177/146 156/187/156
f 2/2/2 1/1/1 157/188/157
f 3/5/5 2/2/2 157/188/157
f 4/7/7 3/5/5 157/188/157
f 5/9/9 4/7/7 157/188/157
f 6/11/11 5/9/9 157/188/157
f 7/13/13 6/11/11 157/188/157
f 8/15/15 7/13/13 157/188/157
f 9/17/17 8/15/15 157/188/157
f 10/19/19 9/17/17 157/188/157
f 11/21/21 10/19/19 157/188/157
f 12/23/23 11/21/21 157/188/157
f 1/1/1 12/23/23 157/188/157
f 145/177/146 146/176/145 158/189/158
f 146/176/145 147/178/147 158/189/158
f 147/178/147 148/179/148 158/189/158
f 148/179/148 149/180/149 158/189/158
f 149/180/149 150/181/150 158/189/158
f 150/181/150 151/182/151 158/189/158
f 151/182/151 152/183/152 158/189/158
f 152/183/152 153/184/153 158/189/158
f 153/184/153 154/185/154 158/189/158
f 154/185/154 155/186/155 158/189/158
f 155/186/155 156/187/156 158/189/158
f 156/187/156 145/177/146 158/189/158
