# This file uses centimeters as units for non-parametric coordinates.

mtllib SushiEndMediumLLowerLeg.mtl
g delete16:skinCluster1SettweakSet1
v -0.811258 0.573637 -0.604094
v -0.965732 0.001002 -0.689441
v -0.811258 -0.571634 -0.604097
v -0.745562 0.636817 -0.001501
v -1.008918 0.001000 -0.001504
v -0.745562 -0.634816 -0.001504
v -0.332096 0.539959 0.543658
v -0.441031 0.000999 0.621926
v -0.332097 -0.537961 0.543656
v 0.307774 0.640759 0.624861
g delete16:skinCluster1SettopoSymmetrySettweakSet1
v 0.310686 0.000999 0.794363
g delete16:skinCluster1SettweakSet1
v 0.307774 -0.638761 0.624859
v 0.100159 0.699751 -0.670056
v 0.091546 0.001002 -0.794347
v 0.100159 -0.697748 -0.670059
v 0.230814 -0.821396 -0.001501
v 0.230814 0.823397 -0.001498
v 0.091546 0.402136 -0.781918
v 0.091546 -0.400132 -0.781919
v -0.537392 0.001002 -0.785151
v -0.516939 0.640790 -0.662362
v -0.516939 -0.638787 -0.662365
v 0.160922 -0.814206 -0.384191
v -0.392993 -0.750112 -0.001503
v 0.283515 -0.771308 0.363785
v 0.160922 0.816209 -0.384187
v -0.392993 0.752113 -0.001500
v 0.283515 0.773307 0.363788
v -0.934728 0.361643 -0.665595
v -1.104123 0.001001 -0.387423
v -0.954222 0.366006 -0.001503
v -0.849615 0.632865 -0.378049
v -0.934728 -0.359640 -0.665596
v -0.849615 -0.630863 -0.378052
v -0.954222 -0.364005 -0.001504
v -0.751706 0.001000 0.363341
v -0.405453 0.341431 0.597829
v -0.503917 0.602032 0.354703
v -0.503917 -0.600033 0.354701
v -0.405453 -0.339432 0.597828
v -0.085048 0.000999 0.756919
v 0.310686 0.376486 0.759546
v -0.083667 0.596288 0.615209
v -0.083667 -0.594289 0.615207
v 0.310686 -0.374488 0.759545
v -1.052236 0.367407 -0.383707
v -1.052236 -0.365404 -0.383709
v -0.699058 0.349602 0.359970
v -0.699058 -0.347602 0.359968
v -0.080258 0.349852 0.725954
v -0.080258 -0.347854 0.725953
v -0.533364 0.371957 -0.770559
v -0.533364 -0.369953 -0.770561
v -0.498649 -0.743690 -0.383169
v -0.185714 -0.706080 0.362955
v -0.498649 0.745692 -0.383166
v -0.185714 0.708079 0.362957
v 1.034932 -0.393212 0.366620
v 1.034932 0.001000 0.385098
v 1.034932 0.395212 0.366622
v 1.034933 -0.405856 -0.007298
v 1.034933 0.001000 0.001756
v 1.034933 0.407857 -0.007297
v 1.034935 -0.408137 -0.382520
v 1.034935 0.001001 -0.381574
v 1.034935 0.410139 -0.382519
v 1.017685 -0.370921 0.688572
v 1.017685 -0.605577 0.565473
v 0.958801 -0.385256 0.745469
v 0.958802 -0.648873 0.609579
v 0.958806 0.716324 -0.657052
v 0.958806 0.415192 -0.765080
v 1.017689 0.673816 -0.612665
v 1.017689 0.402884 -0.707600
v 0.958802 0.650871 0.609582
v 0.958802 0.788242 0.358535
v 1.017685 0.607576 0.565475
v 1.017686 0.731861 0.342188
v 1.017685 0.372919 0.688574
v 0.958801 0.387254 0.745471
v 1.017684 0.000999 0.721793
v 0.958801 0.000999 0.780624
v 0.958806 0.001002 -0.777098
v 1.017689 0.001002 -0.718215
v 0.958806 -0.413189 -0.765081
v 1.017689 -0.400880 -0.707602
v 0.958806 -0.714321 -0.657055
v 1.017689 -0.671813 -0.612668
v 0.958805 -0.831315 -0.380314
v 1.017688 -0.774118 -0.367088
v 0.958804 -0.838353 -0.002430
v 1.017687 -0.779623 -0.005607
v 0.958802 -0.786243 0.358532
v 1.017686 -0.729862 0.342185
v 1.017688 0.776120 -0.367085
v 0.958805 0.833317 -0.380311
v 1.017687 0.781624 -0.005604
v 0.958804 0.840354 -0.002426
vt 0.533450 0.645371
vt 0.504989 0.690265
vt 0.476883 0.671121
vt 0.497344 0.620181
vt 0.575571 0.605863
vt 0.547807 0.566660
vt 0.607178 0.650480
vt 0.569639 0.684780
vt 0.545394 0.726224
vt 0.626801 0.579214
vt 0.615022 0.536794
vt 0.678581 0.567237
vt 0.669847 0.534371
vt 0.699106 0.617276
vt 0.651975 0.626423
vt 0.606958 0.729878
vt 0.586981 0.767206
vt 0.641590 0.699044
vt 0.672425 0.742550
vt 0.636660 0.769668
vt 0.615056 0.788564
vt 0.682154 0.676577
vt 0.723992 0.670088
vt 0.734848 0.703649
vt 0.709854 0.717775
vt 0.660565 0.809032
vt 0.624999 0.821590
vt 0.701674 0.783805
vt 0.732677 0.827514
vt 0.682178 0.856661
vt 0.638182 0.871831
vt 0.739065 0.753357
vt 0.762787 0.723997
vt 0.805754 0.753007
vt 0.776898 0.789512
vt 0.720618 0.939739
vt 0.666620 0.958989
vt 0.786425 0.903267
vt 0.842608 0.853230
vt 0.878628 0.808646
vt 0.263233 0.658288
vt 0.215785 0.657324
vt 0.213586 0.530103
vt 0.261488 0.530472
vt 0.322495 0.658338
vt 0.323066 0.530505
vt 0.381755 0.658811
vt 0.384631 0.531028
vt 0.429211 0.658261
vt 0.432529 0.531073
vt 0.267739 0.750168
vt 0.224591 0.749382
vt 0.322092 0.750884
vt 0.267494 0.811601
vt 0.321810 0.815938
vt 0.232574 0.795390
vt 0.376449 0.750642
vt 0.419603 0.750231
vt 0.376162 0.812074
vt 0.411220 0.796166
vt 0.842966 0.593600
vt 0.842241 0.544198
vt 0.972948 0.598364
vt 0.957234 0.643641
vt 0.838569 0.654157
vt 0.935231 0.703881
vt 0.738466 0.566303
vt 0.730197 0.522287
vt 0.751839 0.623087
vt 0.825328 0.710983
vt 0.907213 0.762995
vt 0.767232 0.682232
vt 0.475426 0.854150
vt 0.534029 0.870062
vt 0.548988 0.977744
vt 0.484842 0.978563
vt 0.484267 0.746474
vt 0.429050 0.837096
vt 0.445484 0.724075
vt 0.533414 0.777916
vt 0.592041 0.876389
vt 0.614065 0.970867
vt 0.584124 0.812031
vt 0.276453 0.398930
vt 0.336425 0.400213
vt 0.336391 0.456809
vt 0.278481 0.453874
vt 0.396397 0.399001
vt 0.394305 0.453942
vt 0.276308 0.343776
vt 0.336458 0.343570
vt 0.396608 0.343847
vt 0.228716 0.450627
vt 0.281478 0.501465
vt 0.247235 0.483185
vt 0.278161 0.513533
vt 0.238316 0.492314
vt 0.398789 0.283451
vt 0.444185 0.301226
vt 0.435382 0.310365
vt 0.396059 0.295707
vt 0.436911 0.978401
vt 0.425516 0.483291
vt 0.391252 0.501530
vt 0.444073 0.450755
vt 0.336361 0.506818
vt 0.220926 0.399283
vt 0.451924 0.399420
vt 0.222186 0.345877
vt 0.450727 0.346013
vt 0.237574 0.310248
vt 0.276914 0.295636
vt 0.336488 0.293450
vt 0.456006 0.454548
vt 0.434424 0.492430
vt 0.394553 0.513602
vt 0.336354 0.519399
vt 0.336495 0.280867
vt 0.274198 0.283378
vt 0.228782 0.301098
vt 0.209976 0.342994
vt 0.208366 0.399993
vt 0.216779 0.454407
vt 0.462940 0.343144
vt 0.464483 0.400145
vn -0.798902 0.601402 -0.008445
vn -0.577057 0.815852 -0.037288
vn -0.460697 0.686432 -0.562644
vn -0.872217 0.326233 -0.364431
vn -0.990342 0.136726 -0.022996
vn -0.910596 0.000001 -0.413297
vn -0.891511 0.133676 0.432827
vn -0.845435 0.334121 0.416656
vn -0.548600 0.779619 0.302047
vn -0.990342 -0.136726 -0.022997
vn -0.872217 -0.326231 -0.364432
vn -0.798902 -0.601402 -0.008449
vn -0.547496 -0.789510 -0.277349
vn -0.735017 -0.564150 0.376144
vn -0.845435 -0.334123 0.416655
vn -0.624789 0.494339 0.604374
vn -0.481644 0.714365 0.507644
vn -0.730080 0.117084 0.673257
vn -0.502026 0.107689 0.858122
vn -0.492738 0.232752 0.838472
vn -0.430439 0.549036 0.716437
vn -0.730080 -0.117086 0.673256
vn -0.624789 -0.494341 0.604372
vn -0.471829 -0.379586 0.795797
vn -0.492738 -0.232756 0.838472
vn -0.209765 0.400033 0.892173
vn -0.200413 0.673749 0.711265
vn -0.218271 0.090132 0.971717
vn -0.029033 0.092084 0.995328
vn -0.030714 0.235351 0.971425
vn -0.046576 0.709395 0.703270
vn -0.218271 -0.090136 0.971717
vn -0.209765 -0.400037 0.892171
vn -0.033920 -0.452117 0.891314
vn -0.030714 -0.235355 0.971424
vn 0.232550 0.233164 0.944222
vn 0.228012 0.682078 0.694824
vn 0.237359 -0.000002 0.971422
vn 0.232549 -0.233168 0.944221
vn 0.228013 -0.682080 0.694821
vn -0.005120 0.136612 -0.990611
vn -0.041996 0.696347 -0.716475
vn 0.194300 0.333116 -0.922649
vn 0.198027 0.127169 -0.971912
vn 0.000003 0.000002 -1.000000
vn 0.204184 0.000002 -0.978932
vn -0.005120 -0.136608 -0.990612
vn 0.198027 -0.127165 -0.971913
vn -0.041996 -0.696344 -0.716478
vn 0.191846 -0.664898 -0.721877
vn -0.108940 0.370489 -0.922426
vn -0.139620 0.711724 -0.688444
vn -0.077837 0.042595 -0.996056
vn -0.077837 -0.042591 -0.996056
vn -0.108940 -0.370485 -0.922428
vn -0.061151 -0.928238 -0.366927
vn 0.191555 -0.969902 -0.150320
vn -0.075919 -0.994492 0.072263
vn 0.206394 -0.976658 0.059509
vn -0.310705 -0.946891 -0.082821
vn -0.170015 -0.977610 0.123990
vn -0.079182 -0.985951 0.147075
vn 0.212130 -0.939788 0.267953
vn -0.184908 -0.935299 0.301702
vn -0.068768 0.988485 -0.134793
vn 0.008012 0.998084 0.061347
vn 0.206394 0.976657 0.059514
vn 0.191556 0.969903 -0.150317
vn -0.106177 0.986890 -0.121547
vn -0.170015 0.977610 0.123992
vn -0.077805 0.961485 0.263617
vn 0.212131 0.939787 0.267956
vn -0.127325 0.954125 0.270986
vn 1.000000 -0.000000 0.000003
vn 1.000000 -0.000000 0.000003
vn 1.000000 -0.000000 0.000003
vn 1.000000 -0.000000 0.000003
vn 1.000000 -0.000000 0.000003
vn 1.000000 -0.000000 0.000003
vn 1.000000 -0.000000 0.000003
vn 1.000000 -0.000000 0.000003
vn 1.000000 -0.000000 0.000003
vn 0.999868 -0.015860 0.003413
vn 0.922746 -0.172231 0.344784
vn 0.923894 -0.338109 0.179168
vn 0.926761 0.118449 -0.356489
vn 0.935450 0.041351 -0.351033
vn 0.922746 0.172228 0.344785
vn 0.999852 0.003338 0.016860
vn 0.935723 0.339974 0.094028
vn 0.999870 -0.000000 0.016125
vn 0.999898 -0.014284 0.000680
vn 0.942038 0.332296 0.046304
vn 0.999890 -0.014759 -0.001467
vn 0.944075 0.329697 -0.004702
vn 0.917845 -0.268277 -0.292554
vn 0.935449 -0.041349 -0.351034
vn 0.941534 0.000001 -0.336918
s 1
g delete16:SushiEndGeo FoodMediumLLowerLeg
usemtl blinn7SG
f 46/1/1 32/2/2 1/3/3 29/4/4
f 30/5/5 46/1/1 29/4/4 2/6/6
f 5/7/7 31/8/8 46/1/1 30/5/5
f 31/8/8 4/9/9 32/2/2 46/1/1
f 47/10/10 30/5/5 2/6/6 33/11/11
f 34/12/12 47/10/10 33/11/11 3/13/13
f 6/14/14 35/15/15 47/10/10 34/12/12
f 35/15/15 5/7/7 30/5/5 47/10/10
f 48/16/16 38/17/17 4/9/9 31/8/8
f 36/18/18 48/16/16 31/8/8 5/7/7
f 8/19/19 37/20/20 48/16/16 36/18/18
f 37/20/20 7/21/21 38/17/17 48/16/16
f 49/22/22 36/18/18 5/7/7 35/15/15
f 39/23/23 49/22/22 35/15/15 6/14/14
f 9/24/24 40/25/25 49/22/22 39/23/23
f 40/25/25 8/19/19 36/18/18 49/22/22
f 50/26/26 43/27/27 7/21/21 37/20/20
f 41/28/28 50/26/26 37/20/20 8/19/19
f 11/29/29 42/30/30 50/26/26 41/28/28
f 42/30/30 10/31/31 43/27/27 50/26/26
f 51/32/32 41/28/28 8/19/19 40/25/25
f 44/33/33 51/32/32 40/25/25 9/24/24
f 12/34/34 45/35/35 51/32/32 44/33/33
f 45/35/35 11/29/29 41/28/28 51/32/32
f 10/31/31 42/30/30 80/36/36 75/37/37
f 42/30/30 11/29/29 82/38/38 80/36/36
f 11/29/29 45/35/35 69/39/39 82/38/38
f 69/39/39 45/35/35 12/34/34 70/40/40
f 18/41/41 13/42/42 71/43/43 72/44/44
f 14/45/45 18/41/41 72/44/44 83/46/46
f 19/47/47 14/45/45 83/46/46 85/48/48
f 15/49/49 19/47/47 85/48/48 87/50/50
f 52/51/51 21/52/52 13/42/42 18/41/41
f 20/53/53 52/51/51 18/41/41 14/45/45
f 29/54/4 52/51/51 20/53/53 2/55/6
f 1/56/3 21/52/52 52/51/51 29/54/4
f 53/57/54 20/53/53 14/45/45 19/47/47
f 22/58/55 53/57/54 19/47/47 15/49/49
f 33/59/11 53/57/54 22/58/55 3/60/13
f 2/55/6 20/53/53 53/57/54 33/59/11
f 23/61/56 15/62/49 87/63/50 89/64/57
f 16/65/58 23/61/56 89/64/57 91/66/59
f 54/67/60 34/12/12 3/13/13 22/68/55
f 23/61/56 54/67/60 22/68/55 15/62/49
f 16/65/58 24/69/61 54/67/60 23/61/56
f 24/69/61 6/14/14 34/12/12 54/67/60
f 25/70/62 16/65/58 91/66/59 93/71/63
f 12/34/34 25/70/62 93/71/63 70/40/40
f 55/72/64 39/23/23 6/14/14 24/69/61
f 25/70/62 55/72/64 24/69/61 16/65/58
f 44/33/33 55/72/64 25/70/62 12/34/34
f 9/24/24 39/23/23 55/72/64 44/33/33
f 26/73/65 17/74/66 98/75/67 96/76/68
f 56/77/69 26/73/65 13/78/42 21/79/52
f 32/2/2 56/77/69 21/79/52 1/3/3
f 4/9/9 27/80/70 56/77/69 32/2/2
f 27/80/70 17/74/66 26/73/65 56/77/69
f 28/81/71 10/31/31 75/37/37 76/82/72
f 57/83/73 28/81/71 17/74/66 27/80/70
f 38/17/17 57/83/73 27/80/70 4/9/9
f 7/21/21 43/27/27 57/83/73 38/17/17
f 43/27/27 10/31/31 28/81/71 57/83/73
f 61/84/74 62/85/75 59/86/76 58/87/77
f 62/85/75 63/88/78 60/89/79 59/86/76
f 64/90/80 65/91/81 62/85/75 61/84/74
f 65/91/81 66/92/82 63/88/78 62/85/75
f 94/93/83 58/87/77 67/94/84 68/95/85
f 68/95/85 67/94/84 69/96/39 70/97/40
f 72/98/44 71/99/43 73/100/86 74/101/87
f 13/78/42 26/73/65 96/76/68 71/102/43
f 17/74/66 28/81/71 76/82/72 98/75/67
f 77/103/88 79/104/89 60/89/79 78/105/90
f 60/89/79 79/104/89 81/106/91 59/86/76
f 59/86/76 81/106/91 67/94/84 58/87/77
f 92/107/92 61/84/74 58/87/77 94/93/83
f 97/108/93 78/105/90 60/89/79 63/88/78
f 90/109/94 64/90/80 61/84/74 92/107/92
f 95/110/95 97/108/93 63/88/78 66/92/82
f 64/90/80 90/109/94 88/111/96 86/112/97
f 65/91/81 64/90/80 86/112/97 84/113/98
f 74/101/87 66/92/82 65/91/81 84/113/98
f 73/100/86 95/110/95 66/92/82 74/101/87
f 76/114/72 75/115/37 77/103/88 78/105/90
f 79/104/89 77/103/88 75/115/37 80/116/36
f 81/106/91 79/104/89 80/116/36 82/117/38
f 67/94/84 81/106/91 82/117/38 69/96/39
f 83/118/46 72/98/44 74/101/87 84/113/98
f 85/119/48 83/118/46 84/113/98 86/112/97
f 87/120/50 85/119/48 86/112/97 88/111/96
f 89/121/57 87/120/50 88/111/96 90/109/94
f 91/122/59 89/121/57 90/109/94 92/107/92
f 93/123/63 91/122/59 92/107/92 94/93/83
f 93/123/63 94/93/83 68/95/85 70/97/40
f 95/110/95 73/100/86 71/99/43 96/124/68
f 97/108/93 95/110/95 96/124/68 98/125/67
f 76/114/72 78/105/90 97/108/93 98/125/67
