# This file uses centimeters as units for non-parametric coordinates.

mtllib SushiEndMediumRUpperLeg.mtl
g delete16:skinCluster1SettweakSet1
v 0.880623 -0.574505 -0.605522
v 1.048243 -0.000523 -0.691068
v 0.880623 0.573459 -0.605523
v 0.809331 -0.637834 -0.001512
v 1.095096 -0.000522 -0.001512
v 0.809331 0.636789 -0.001514
v 0.360677 -0.540749 0.544926
v 0.478880 -0.000522 0.623379
v 0.360677 0.539706 0.544924
v -0.333643 -0.641786 0.626313
g delete16:skinCluster1SettopoSymmetrySettweakSet1
v -0.336805 -0.000521 0.796214
g delete16:skinCluster1SettweakSet1
v -0.333643 0.640743 0.626312
v -0.108350 -0.700916 -0.671647
v -0.099003 -0.000523 -0.796231
v -0.108350 0.699870 -0.671649
v -0.250129 0.823808 -0.001520
v -0.250129 -0.824853 -0.001518
v -0.099003 -0.402601 -0.783772
v -0.099003 0.401554 -0.783773
v 0.583454 -0.000523 -0.787006
v 0.561259 -0.641816 -0.663930
v 0.561259 0.640770 -0.663931
v -0.174286 0.816602 -0.385109
v 0.426760 0.752357 -0.001516
v -0.307317 0.773602 0.364624
v -0.174286 -0.817647 -0.385107
v 0.426760 -0.753401 -0.001515
v -0.307317 -0.774646 0.364626
v 1.014599 -0.362013 -0.667165
v 1.198406 -0.000523 -0.388338
v 1.035746 -0.366387 -0.001511
v 0.922242 -0.633873 -0.378945
v 1.014599 0.360967 -0.667166
v 0.922242 0.632827 -0.378946
v 1.035746 0.365342 -0.001512
v 0.815995 -0.000522 0.364188
v 0.440275 -0.341754 0.599225
v 0.547119 -0.602968 0.355527
v 0.547119 0.601924 0.355526
v 0.440275 0.340710 0.599224
v 0.092604 -0.000521 0.758686
v -0.336805 -0.376892 0.761315
v 0.091107 -0.597210 0.616642
v 0.091107 0.596167 0.616641
v -0.336805 0.375849 0.761314
v 1.142104 -0.367790 -0.384614
v 1.142104 0.366744 -0.384615
v 0.758866 -0.349944 0.360808
v 0.758866 0.348900 0.360808
v 0.087407 -0.350195 0.727648
v 0.087407 0.349152 0.727647
v 0.579083 -0.372350 -0.772381
v 0.579083 0.371304 -0.772381
v 0.541410 0.745920 -0.384079
v 0.201840 0.708220 0.363796
v 0.541410 -0.746965 -0.384077
v 0.201840 -0.709264 0.363798
v -1.122675 0.394617 0.367459
v -1.122676 -0.000522 0.385979
v -1.122675 -0.395661 0.367459
v -1.122673 0.407291 -0.007339
v -1.122673 -0.000522 0.001736
v -1.122673 -0.408336 -0.007338
v -1.122671 0.409577 -0.383444
v -1.122671 -0.000523 -0.382495
v -1.122671 -0.410623 -0.383443
v -1.103963 0.372273 0.690168
v -1.103962 0.607482 0.566779
v -1.040070 0.386642 0.747199
v -1.040069 0.650879 0.610990
v -1.040062 -0.717528 -0.658621
v -1.040061 -0.415688 -0.766903
v -1.103956 -0.674920 -0.614130
v -1.103955 -0.403350 -0.709289
v -1.040069 -0.651922 0.610992
v -1.040068 -0.789616 0.359354
v -1.103962 -0.608525 0.566780
v -1.103961 -0.733102 0.342968
v -1.103963 -0.373316 0.690169
v -1.040070 -0.387685 0.747200
v -1.103963 -0.000521 0.723467
v -1.040070 -0.000521 0.782437
v -1.040061 -0.000523 -0.778949
v -1.103955 -0.000523 -0.719928
v -1.040061 0.414641 -0.766904
v -1.103955 0.402304 -0.709290
v -1.040062 0.716481 -0.658623
v -1.103956 0.673874 -0.614132
v -1.040063 0.833750 -0.381231
v -1.103957 0.776419 -0.367974
v -1.040065 0.840805 -0.002458
v -1.103959 0.781937 -0.005643
v -1.040068 0.788572 0.359352
v -1.103961 0.732058 0.342966
v -1.103957 -0.777465 -0.367972
v -1.040063 -0.834796 -0.381229
v -1.103959 -0.782982 -0.005641
v -1.040065 -0.841850 -0.002456
vt 0.533450 0.645371
vt 0.504989 0.690265
vt 0.476883 0.671121
vt 0.497344 0.620181
vt 0.575571 0.605863
vt 0.547807 0.566660
vt 0.607178 0.650480
vt 0.569639 0.684780
vt 0.545394 0.726224
vt 0.626801 0.579214
vt 0.615022 0.536794
vt 0.678581 0.567237
vt 0.669847 0.534371
vt 0.699106 0.617276
vt 0.651975 0.626423
vt 0.606958 0.729878
vt 0.586981 0.767206
vt 0.641590 0.699044
vt 0.672425 0.742550
vt 0.636660 0.769668
vt 0.615056 0.788564
vt 0.682154 0.676577
vt 0.723992 0.670088
vt 0.734848 0.703649
vt 0.709854 0.717775
vt 0.660565 0.809032
vt 0.624999 0.821590
vt 0.701674 0.783805
vt 0.732677 0.827514
vt 0.682178 0.856661
vt 0.638182 0.871831
vt 0.739065 0.753357
vt 0.762787 0.723997
vt 0.805754 0.753007
vt 0.776898 0.789512
vt 0.720618 0.939739
vt 0.666620 0.958989
vt 0.786425 0.903267
vt 0.842608 0.853230
vt 0.878628 0.808646
vt 0.263233 0.658288
vt 0.215785 0.657324
vt 0.213586 0.530103
vt 0.261488 0.530472
vt 0.322495 0.658338
vt 0.323066 0.530505
vt 0.381755 0.658811
vt 0.384631 0.531028
vt 0.429211 0.658261
vt 0.432529 0.531073
vt 0.267739 0.750168
vt 0.224591 0.749382
vt 0.322092 0.750884
vt 0.267494 0.811601
vt 0.321810 0.815938
vt 0.232574 0.795390
vt 0.376449 0.750642
vt 0.419603 0.750231
vt 0.376162 0.812074
vt 0.411220 0.796166
vt 0.842966 0.593600
vt 0.842241 0.544198
vt 0.972948 0.598364
vt 0.957234 0.643641
vt 0.838569 0.654157
vt 0.935231 0.703881
vt 0.738466 0.566303
vt 0.730197 0.522287
vt 0.751839 0.623087
vt 0.825328 0.710983
vt 0.907213 0.762995
vt 0.767232 0.682232
vt 0.475426 0.854150
vt 0.534029 0.870062
vt 0.548988 0.977744
vt 0.484842 0.978563
vt 0.484267 0.746474
vt 0.429050 0.837096
vt 0.445484 0.724075
vt 0.533414 0.777916
vt 0.592041 0.876389
vt 0.614065 0.970867
vt 0.584124 0.812031
vt 0.276453 0.398930
vt 0.336425 0.400213
vt 0.336391 0.456809
vt 0.278481 0.453874
vt 0.396397 0.399001
vt 0.394305 0.453942
vt 0.276308 0.343776
vt 0.336458 0.343570
vt 0.396608 0.343847
vt 0.228716 0.450627
vt 0.281478 0.501465
vt 0.247235 0.483185
vt 0.278161 0.513533
vt 0.238316 0.492314
vt 0.398789 0.283451
vt 0.444185 0.301226
vt 0.435382 0.310365
vt 0.396059 0.295707
vt 0.436911 0.978401
vt 0.425516 0.483291
vt 0.391252 0.501530
vt 0.444073 0.450755
vt 0.336361 0.506818
vt 0.220926 0.399283
vt 0.451924 0.399420
vt 0.222186 0.345877
vt 0.450727 0.346013
vt 0.237574 0.310248
vt 0.276914 0.295636
vt 0.336488 0.293450
vt 0.456006 0.454548
vt 0.434424 0.492430
vt 0.394553 0.513602
vt 0.336354 0.519399
vt 0.336495 0.280867
vt 0.274198 0.283378
vt 0.228782 0.301098
vt 0.209976 0.342994
vt 0.208366 0.399993
vt 0.216779 0.454407
vt 0.462940 0.343144
vt 0.464483 0.400145
vn 0.775162 -0.631700 -0.008864
vn 0.546571 -0.836539 -0.038229
vn 0.432356 -0.697374 -0.571610
vn 0.854819 -0.346116 -0.386636
vn 0.988710 -0.147768 -0.024844
vn 0.897518 -0.000001 -0.440977
vn 0.876185 -0.142224 0.460512
vn 0.825436 -0.353148 0.440389
vn 0.518336 -0.797421 0.308948
vn 0.988710 0.147768 -0.024844
vn 0.854819 0.346116 -0.386637
vn 0.775162 0.631700 -0.008867
vn 0.517250 0.807462 -0.283650
vn 0.707583 0.587927 0.392004
vn 0.825436 0.353149 0.440389
vn 0.594411 -0.509131 0.622464
vn 0.452681 -0.726839 0.516512
vn 0.702423 -0.121949 0.701235
vn 0.472555 -0.109738 0.874442
vn 0.463486 -0.237012 0.853819
vn 0.403127 -0.556653 0.726379
vn 0.702423 0.121950 0.701235
vn 0.594411 0.509133 0.622462
vn 0.443139 0.385939 0.809122
vn 0.463486 0.237014 0.853818
vn 0.194390 -0.401331 0.895067
vn 0.185673 -0.675743 0.713371
vn 0.202327 -0.090449 0.975132
vn 0.026812 -0.092091 0.995390
vn 0.028365 -0.235368 0.971492
vn 0.043025 -0.709509 0.703382
vn 0.202327 0.090452 0.975132
vn 0.194390 0.401334 0.895066
vn 0.031328 0.452154 0.891390
vn 0.028365 0.235370 0.971492
vn -0.215683 -0.234095 0.947988
vn -0.211439 -0.684694 0.697486
vn -0.220180 0.000001 0.975459
vn -0.215682 0.234098 0.947987
vn -0.211440 0.684696 0.697485
vn 0.004738 -0.136611 -0.990613
vn 0.038805 -0.696437 -0.716568
vn -0.179975 -0.334041 -0.925216
vn -0.183447 -0.127536 -0.974721
vn 0.000006 -0.000001 -1.000000
vn -0.189185 -0.000001 -0.981941
vn 0.004738 0.136609 -0.990614
vn -0.183447 0.127533 -0.974722
vn 0.038805 0.696435 -0.716570
vn -0.177691 0.666700 -0.723835
vn 0.100729 -0.370811 -0.923230
vn 0.129164 -0.712743 -0.689430
vn 0.071942 -0.042613 -0.996498
vn 0.071942 0.042611 -0.996498
vn 0.100729 0.370809 -0.923230
vn 0.056507 0.928493 -0.367027
vn -0.177426 0.972523 -0.150727
vn 0.070159 0.994913 0.072295
vn -0.191255 0.979724 0.059695
vn 0.289067 0.953668 -0.083410
vn 0.157384 0.979689 0.124255
vn 0.073177 0.986404 0.147144
vn -0.196607 0.942905 0.268840
vn 0.171235 0.937653 0.302464
vn 0.063547 -0.988828 -0.134840
vn -0.007401 -0.998089 0.061346
vn -0.191255 -0.979723 0.059698
vn -0.177426 -0.972524 -0.150725
vn 0.098163 -0.987707 -0.121648
vn 0.157384 -0.979689 0.124257
vn 0.071902 -0.961912 0.263734
vn -0.196608 -0.942905 0.268843
vn 0.117754 -0.955262 0.271309
vn -1.000000 -0.000000 -0.000006
vn -1.000000 -0.000000 -0.000006
vn -1.000000 -0.000000 -0.000006
vn -1.000000 -0.000000 -0.000006
vn -1.000000 -0.000000 -0.000006
vn -1.000000 -0.000000 -0.000006
vn -1.000000 -0.000000 -0.000006
vn -1.000000 -0.000000 -0.000006
vn -1.000000 -0.000000 -0.000006
vn -0.999846 0.017169 0.003686
vn -0.911189 0.184112 0.368561
vn -0.912484 0.361498 0.191554
vn -0.915717 -0.126698 -0.381327
vn -0.925560 -0.044291 -0.376002
vn -0.911189 -0.184110 0.368562
vn -0.999827 -0.003613 0.018242
vn -0.925874 -0.364164 0.100709
vn -0.999848 0.000000 0.017447
vn -0.999880 0.015463 0.000727
vn -0.933054 -0.356295 0.049639
vn -0.999871 0.015977 -0.001597
vn -0.935374 -0.353623 -0.005053
vn -0.905659 0.286568 -0.312507
vn -0.925559 0.044290 -0.376003
vn -0.932476 -0.000000 -0.361231
s 1
g delete16:SushiEndGeo FoodMediumRUpperLeg
usemtl blinn7SG
f 46/1/1 32/2/2 1/3/3 29/4/4
f 30/5/5 46/1/1 29/4/4 2/6/6
f 5/7/7 31/8/8 46/1/1 30/5/5
f 31/8/8 4/9/9 32/2/2 46/1/1
f 47/10/10 30/5/5 2/6/6 33/11/11
f 34/12/12 47/10/10 33/11/11 3/13/13
f 6/14/14 35/15/15 47/10/10 34/12/12
f 35/15/15 5/7/7 30/5/5 47/10/10
f 48/16/16 38/17/17 4/9/9 31/8/8
f 36/18/18 48/16/16 31/8/8 5/7/7
f 8/19/19 37/20/20 48/16/16 36/18/18
f 37/20/20 7/21/21 38/17/17 48/16/16
f 49/22/22 36/18/18 5/7/7 35/15/15
f 39/23/23 49/22/22 35/15/15 6/14/14
f 9/24/24 40/25/25 49/22/22 39/23/23
f 40/25/25 8/19/19 36/18/18 49/22/22
f 50/26/26 43/27/27 7/21/21 37/20/20
f 41/28/28 50/26/26 37/20/20 8/19/19
f 11/29/29 42/30/30 50/26/26 41/28/28
f 42/30/30 10/31/31 43/27/27 50/26/26
f 51/32/32 41/28/28 8/19/19 40/25/25
f 44/33/33 51/32/32 40/25/25 9/24/24
f 12/34/34 45/35/35 51/32/32 44/33/33
f 45/35/35 11/29/29 41/28/28 51/32/32
f 10/31/31 42/30/30 80/36/36 75/37/37
f 42/30/30 11/29/29 82/38/38 80/36/36
f 11/29/29 45/35/35 69/39/39 82/38/38
f 69/39/39 45/35/35 12/34/34 70/40/40
f 18/41/41 13/42/42 71/43/43 72/44/44
f 14/45/45 18/41/41 72/44/44 83/46/46
f 19/47/47 14/45/45 83/46/46 85/48/48
f 15/49/49 19/47/47 85/48/48 87/50/50
f 52/51/51 21/52/52 13/42/42 18/41/41
f 20/53/53 52/51/51 18/41/41 14/45/45
f 29/54/4 52/51/51 20/53/53 2/55/6
f 1/56/3 21/52/52 52/51/51 29/54/4
f 53/57/54 20/53/53 14/45/45 19/47/47
f 22/58/55 53/57/54 19/47/47 15/49/49
f 33/59/11 53/57/54 22/58/55 3/60/13
f 2/55/6 20/53/53 53/57/54 33/59/11
f 23/61/56 15/62/49 87/63/50 89/64/57
f 16/65/58 23/61/56 89/64/57 91/66/59
f 54/67/60 34/12/12 3/13/13 22/68/55
f 23/61/56 54/67/60 22/68/55 15/62/49
f 16/65/58 24/69/61 54/67/60 23/61/56
f 24/69/61 6/14/14 34/12/12 54/67/60
f 25/70/62 16/65/58 91/66/59 93/71/63
f 12/34/34 25/70/62 93/71/63 70/40/40
f 55/72/64 39/23/23 6/14/14 24/69/61
f 25/70/62 55/72/64 24/69/61 16/65/58
f 44/33/33 55/72/64 25/70/62 12/34/34
f 9/24/24 39/23/23 55/72/64 44/33/33
f 26/73/65 17/74/66 98/75/67 96/76/68
f 56/77/69 26/73/65 13/78/42 21/79/52
f 32/2/2 56/77/69 21/79/52 1/3/3
f 4/9/9 27/80/70 56/77/69 32/2/2
f 27/80/70 17/74/66 26/73/65 56/77/69
f 28/81/71 10/31/31 75/37/37 76/82/72
f 57/83/73 28/81/71 17/74/66 27/80/70
f 38/17/17 57/83/73 27/80/70 4/9/9
f 7/21/21 43/27/27 57/83/73 38/17/17
f 43/27/27 10/31/31 28/81/71 57/83/73
f 61/84/74 62/85/75 59/86/76 58/87/77
f 62/85/75 63/88/78 60/89/79 59/86/76
f 64/90/80 65/91/81 62/85/75 61/84/74
f 65/91/81 66/92/82 63/88/78 62/85/75
f 94/93/83 58/87/77 67/94/84 68/95/85
f 68/95/85 67/94/84 69/96/39 70/97/40
f 72/98/44 71/99/43 73/100/86 74/101/87
f 13/78/42 26/73/65 96/76/68 71/102/43
f 17/74/66 28/81/71 76/82/72 98/75/67
f 77/103/88 79/104/89 60/89/79 78/105/90
f 60/89/79 79/104/89 81/106/91 59/86/76
f 59/86/76 81/106/91 67/94/84 58/87/77
f 92/107/92 61/84/74 58/87/77 94/93/83
f 97/108/93 78/105/90 60/89/79 63/88/78
f 90/109/94 64/90/80 61/84/74 92/107/92
f 95/110/95 97/108/93 63/88/78 66/92/82
f 64/90/80 90/109/94 88/111/96 86/112/97
f 65/91/81 64/90/80 86/112/97 84/113/98
f 74/101/87 66/92/82 65/91/81 84/113/98
f 73/100/86 95/110/95 66/92/82 74/101/87
f 76/114/72 75/115/37 77/103/88 78/105/90
f 79/104/89 77/103/88 75/115/37 80/116/36
f 81/106/91 79/104/89 80/116/36 82/117/38
f 67/94/84 81/106/91 82/117/38 69/96/39
f 83/118/46 72/98/44 74/101/87 84/113/98
f 85/119/48 83/118/46 84/113/98 86/112/97
f 87/120/50 85/119/48 86/112/97 88/111/96
f 89/121/57 87/120/50 88/111/96 90/109/94
f 91/122/59 89/121/57 90/109/94 92/107/92
f 93/123/63 91/122/59 92/107/92 94/93/83
f 93/123/63 94/93/83 68/95/85 70/97/40
f 95/110/95 73/100/86 71/99/43 96/124/68
f 97/108/93 95/110/95 96/124/68 98/125/67
f 76/114/72 78/105/90 97/108/93 98/125/67
