# This file uses centimeters as units for non-parametric coordinates.

mtllib SushiEndHat.mtl
g delete16:skinCluster1SettweakSet1
v -0.986502 2.325509 0.584386
v -0.000000 2.591628 0.731414
v 0.986502 2.325509 0.584386
v -1.095347 2.212328 -0.453725
v -0.000000 2.666021 -0.453725
v 1.095346 2.212328 -0.453725
v -0.928489 1.500031 -1.392892
v -0.000000 1.687696 -1.527729
v 0.928488 1.500031 -1.392892
v -1.102141 0.397699 -1.532779
g delete16:skinCluster1SettopoSymmetrySettweakSet1
v -0.000000 0.392681 -1.824789
g delete16:skinCluster1SettweakSet1
v 1.102140 0.397699 -1.532779
v -1.203764 0.755373 0.698025
v -0.000000 0.770211 0.912145
v 1.203764 0.755373 0.698026
v 1.416775 0.530285 -0.453725
v -1.416776 0.530285 -0.453725
v -0.691050 0.770211 0.890733
v 0.691049 0.770211 0.890733
v -0.000000 1.853708 0.896298
v -1.102190 1.818472 0.684768
v 1.102190 1.818472 0.684768
v 1.404391 0.650693 0.205549
v 1.293972 1.604942 -0.453725
v 1.330485 0.439494 -1.083017
v -1.404391 0.650693 0.205549
v -1.293973 1.604942 -0.453725
v -1.330486 0.439494 -1.083017
v -0.621292 2.538215 0.690333
v -0.000000 2.830036 0.211114
v -0.628811 2.571794 -0.453725
v -1.088538 2.391586 0.194969
v 0.621292 2.538215 0.690333
v 1.088538 2.391586 0.194969
v 0.628810 2.571794 -0.453725
v -0.000000 2.222911 -1.082256
v -0.586475 1.626404 -1.486215
v -1.035423 1.796033 -1.067372
v 1.035422 1.796033 -1.067372
v 0.586475 1.626404 -1.486215
v -0.000000 1.074429 -1.760286
v -0.646867 0.392681 -1.764808
v -1.025528 1.072051 -1.516154
v 1.025527 1.072051 -1.516154
v 0.646866 0.392681 -1.764807
v -0.631222 2.740649 0.204714
v 0.631221 2.740649 0.204714
v -0.600551 2.132211 -1.076446
v 0.600550 2.132211 -1.076446
v -0.600984 1.066177 -1.706940
v 0.600984 1.066177 -1.706940
v -0.639059 1.846769 0.871162
v 0.639058 1.846769 0.871162
v 1.282909 1.786962 0.203786
v 1.218114 1.247852 -1.081590
v -1.282910 1.786962 0.203786
v -1.218114 1.247852 -1.081590
v 0.679125 -0.855004 -1.087896
v -0.000000 -0.855004 -1.119727
v -0.679125 -0.855004 -1.087896
v 0.700908 -0.855004 -0.443732
v -0.000000 -0.855004 -0.459328
v -0.700908 -0.855004 -0.443732
v 0.704838 -0.855004 0.202678
v -0.000000 -0.855004 0.201048
v -0.704839 -0.855004 0.202678
v 0.640721 -0.825293 -1.642536
v 1.044974 -0.825293 -1.430469
v 0.665416 -0.723852 -1.740556
v 1.119561 -0.723852 -1.506453
v -1.232315 -0.723852 0.675629
v -0.713543 -0.723852 0.861731
v -1.159085 -0.825293 0.599161
v -0.692339 -0.825293 0.762709
v -1.119561 -0.723852 -1.506453
v -1.356215 -0.723852 -1.073964
v -1.044974 -0.825293 -1.430469
v -1.259085 -0.825293 -1.045802
v -0.640722 -0.825293 -1.642536
v -0.665417 -0.723852 -1.740556
v -0.000000 -0.825293 -1.699766
v -0.000000 -0.723852 -1.801117
v -0.000000 -0.723852 0.882434
v -0.000000 -0.825293 0.780994
v 0.713542 -0.723852 0.861731
v 0.692338 -0.825293 0.762709
v 1.232314 -0.723852 0.675629
v 1.159084 -0.825293 0.599161
v 1.433864 -0.723852 0.198876
v 1.335329 -0.825293 0.176090
v 1.445988 -0.723852 -0.452121
v 1.344812 -0.825293 -0.446648
v 1.356214 -0.723852 -1.073964
v 1.259085 -0.825293 -1.045802
v -1.335329 -0.825293 0.176090
v -1.433864 -0.723852 0.198876
v -1.344812 -0.825293 -0.446648
v -1.445989 -0.723852 -0.452121
vt 0.533450 0.645371
vt 0.504989 0.690265
vt 0.476883 0.671121
vt 0.497344 0.620181
vt 0.575571 0.605863
vt 0.547807 0.566660
vt 0.607178 0.650480
vt 0.569639 0.684780
vt 0.545394 0.726224
vt 0.626801 0.579214
vt 0.615022 0.536794
vt 0.678581 0.567237
vt 0.669847 0.534371
vt 0.699106 0.617276
vt 0.651975 0.626423
vt 0.606958 0.729878
vt 0.586981 0.767206
vt 0.641590 0.699044
vt 0.672425 0.742550
vt 0.636660 0.769668
vt 0.615056 0.788564
vt 0.682154 0.676577
vt 0.723992 0.670088
vt 0.734848 0.703649
vt 0.709854 0.717775
vt 0.660565 0.809032
vt 0.624999 0.821590
vt 0.701674 0.783805
vt 0.732677 0.827514
vt 0.682178 0.856661
vt 0.638182 0.871831
vt 0.739065 0.753357
vt 0.762787 0.723997
vt 0.805754 0.753007
vt 0.776898 0.789512
vt 0.720618 0.939739
vt 0.666620 0.958989
vt 0.786425 0.903267
vt 0.842608 0.853230
vt 0.878628 0.808646
vt 0.263233 0.658288
vt 0.215785 0.657324
vt 0.213586 0.530103
vt 0.261488 0.530472
vt 0.322495 0.658338
vt 0.323066 0.530505
vt 0.381755 0.658811
vt 0.384631 0.531028
vt 0.429211 0.658261
vt 0.432529 0.531073
vt 0.267739 0.750168
vt 0.224591 0.749382
vt 0.322092 0.750884
vt 0.267494 0.811601
vt 0.321810 0.815938
vt 0.232574 0.795390
vt 0.376449 0.750642
vt 0.419603 0.750231
vt 0.376162 0.812074
vt 0.411220 0.796166
vt 0.842966 0.593600
vt 0.842241 0.544198
vt 0.972948 0.598364
vt 0.957234 0.643641
vt 0.838569 0.654157
vt 0.935231 0.703881
vt 0.738466 0.566303
vt 0.730197 0.522287
vt 0.751839 0.623087
vt 0.825328 0.710983
vt 0.907213 0.762995
vt 0.767232 0.682232
vt 0.475426 0.854150
vt 0.534029 0.870062
vt 0.548988 0.977744
vt 0.484842 0.978563
vt 0.484267 0.746474
vt 0.429050 0.837096
vt 0.445484 0.724075
vt 0.533414 0.777916
vt 0.592041 0.876389
vt 0.614065 0.970867
vt 0.584124 0.812031
vt 0.276453 0.398930
vt 0.336425 0.400213
vt 0.336391 0.456809
vt 0.278481 0.453874
vt 0.396397 0.399001
vt 0.394305 0.453942
vt 0.276308 0.343776
vt 0.336458 0.343570
vt 0.396608 0.343847
vt 0.228716 0.450627
vt 0.281478 0.501465
vt 0.247235 0.483185
vt 0.278161 0.513533
vt 0.238316 0.492314
vt 0.398789 0.283451
vt 0.444185 0.301226
vt 0.435382 0.310365
vt 0.396059 0.295707
vt 0.436911 0.978401
vt 0.425516 0.483291
vt 0.391252 0.501530
vt 0.444073 0.450755
vt 0.336361 0.506818
vt 0.220926 0.399283
vt 0.451924 0.399420
vt 0.222186 0.345877
vt 0.450727 0.346013
vt 0.237574 0.310248
vt 0.276914 0.295636
vt 0.336488 0.293450
vt 0.456006 0.454548
vt 0.434424 0.492430
vt 0.394553 0.513602
vt 0.336354 0.519399
vt 0.336495 0.280867
vt 0.274198 0.283378
vt 0.228782 0.301098
vt 0.209976 0.342994
vt 0.208366 0.399993
vt 0.216779 0.454407
vt 0.462940 0.343144
vt 0.464483 0.400145
vn -0.601402 0.798902 0.008444
vn -0.815852 0.577057 0.037288
vn -0.686431 0.460699 0.562644
vn -0.326232 0.872218 0.364429
vn -0.136726 0.990342 0.022993
vn 0.000000 0.910598 0.413294
vn -0.133677 0.891509 -0.432830
vn -0.334122 0.845434 -0.416658
vn -0.779620 0.548599 -0.302047
vn 0.136726 0.990342 0.022993
vn 0.326232 0.872218 0.364429
vn 0.601402 0.798902 0.008445
vn 0.789510 0.547497 0.277346
vn 0.564149 0.735016 -0.376147
vn 0.334122 0.845434 -0.416658
vn -0.494340 0.624787 -0.604375
vn -0.714366 0.481642 -0.507644
vn -0.117085 0.730078 -0.673259
vn -0.107691 0.502023 -0.858123
vn -0.232754 0.492735 -0.838474
vn -0.549037 0.430437 -0.716437
vn 0.117085 0.730078 -0.673259
vn 0.494340 0.624787 -0.604375
vn 0.379584 0.471826 -0.795799
vn 0.232754 0.492735 -0.838474
vn -0.400035 0.209762 -0.892172
vn -0.673750 0.200411 -0.711264
vn -0.090134 0.218268 -0.971718
vn -0.092086 0.029030 -0.995328
vn -0.235353 0.030711 -0.971425
vn -0.709397 0.046574 -0.703269
vn 0.090134 0.218268 -0.971718
vn 0.400035 0.209762 -0.892172
vn 0.452115 0.033917 -0.891315
vn 0.235353 0.030711 -0.971425
vn -0.233166 -0.232553 -0.944221
vn -0.682079 -0.228014 -0.694822
vn 0.000000 -0.237362 -0.971421
vn 0.233166 -0.232552 -0.944221
vn 0.682079 -0.228015 -0.694822
vn -0.136610 0.005123 0.990612
vn -0.696346 0.041998 0.716477
vn -0.333114 -0.194297 0.922650
vn -0.127167 -0.198024 0.971913
vn 0.000000 0.000000 1.000000
vn 0.000000 -0.204181 0.978933
vn 0.136610 0.005123 0.990612
vn 0.127167 -0.198024 0.971913
vn 0.696346 0.041998 0.716477
vn 0.664899 -0.191844 0.721876
vn -0.370487 0.108943 0.922427
vn -0.711723 0.139622 0.688445
vn -0.042593 0.077840 0.996056
vn 0.042593 0.077840 0.996056
vn 0.370487 0.108943 0.922427
vn 0.928238 0.061152 0.366925
vn 0.969903 -0.191555 0.150319
vn 0.994492 0.075919 -0.072265
vn 0.976658 -0.206394 -0.059510
vn 0.946892 0.310705 0.082818
vn 0.977610 0.170015 -0.123992
vn 0.985951 0.079182 -0.147077
vn 0.939788 -0.212131 -0.267954
vn 0.935299 0.184907 -0.301705
vn -0.988484 0.068768 0.134795
vn -0.998084 -0.008012 -0.061345
vn -0.976658 -0.206394 -0.059511
vn -0.969902 -0.191555 0.150319
vn -0.986890 0.106177 0.121549
vn -0.977610 0.170015 -0.123991
vn -0.961485 0.077804 -0.263615
vn -0.939788 -0.212132 -0.267954
vn -0.954126 0.127324 -0.270985
vn 0.000000 -1.000000 0.000000
vn 0.000000 -1.000000 0.000000
vn 0.000000 -1.000000 0.000000
vn 0.000000 -1.000000 0.000000
vn 0.000000 -1.000000 0.000000
vn 0.000000 -1.000000 0.000000
vn 0.000000 -1.000000 0.000000
vn 0.000000 -1.000000 0.000000
vn 0.000000 -1.000000 0.000000
vn 0.015860 -0.999868 -0.003410
vn 0.172230 -0.922747 -0.344781
vn 0.338109 -0.923895 -0.179166
vn -0.118448 -0.926760 0.356492
vn -0.041350 -0.935448 0.351036
vn -0.172229 -0.922747 -0.344782
vn -0.003338 -0.999852 -0.016857
vn -0.339974 -0.935723 -0.094024
vn 0.000000 -0.999870 -0.016122
vn 0.014284 -0.999898 -0.000677
vn -0.332296 -0.942038 -0.046300
vn 0.014759 -0.999890 0.001470
vn -0.329697 -0.944075 0.004706
vn 0.268278 -0.917844 0.292556
vn 0.041350 -0.935448 0.351037
vn 0.000000 -0.941533 0.336921
s 1
g delete16:SushiEndGeo FoodHat
usemtl blinn7SG
f 46/1/1 32/2/2 1/3/3 29/4/4
f 30/5/5 46/1/1 29/4/4 2/6/6
f 5/7/7 31/8/8 46/1/1 30/5/5
f 31/8/8 4/9/9 32/2/2 46/1/1
f 47/10/10 30/5/5 2/6/6 33/11/11
f 34/12/12 47/10/10 33/11/11 3/13/13
f 6/14/14 35/15/15 47/10/10 34/12/12
f 35/15/15 5/7/7 30/5/5 47/10/10
f 48/16/16 38/17/17 4/9/9 31/8/8
f 36/18/18 48/16/16 31/8/8 5/7/7
f 8/19/19 37/20/20 48/16/16 36/18/18
f 37/20/20 7/21/21 38/17/17 48/16/16
f 49/22/22 36/18/18 5/7/7 35/15/15
f 39/23/23 49/22/22 35/15/15 6/14/14
f 9/24/24 40/25/25 49/22/22 39/23/23
f 40/25/25 8/19/19 36/18/18 49/22/22
f 50/26/26 43/27/27 7/21/21 37/20/20
f 41/28/28 50/26/26 37/20/20 8/19/19
f 11/29/29 42/30/30 50/26/26 41/28/28
f 42/30/30 10/31/31 43/27/27 50/26/26
f 51/32/32 41/28/28 8/19/19 40/25/25
f 44/33/33 51/32/32 40/25/25 9/24/24
f 12/34/34 45/35/35 51/32/32 44/33/33
f 45/35/35 11/29/29 41/28/28 51/32/32
f 10/31/31 42/30/30 80/36/36 75/37/37
f 42/30/30 11/29/29 82/38/38 80/36/36
f 11/29/29 45/35/35 69/39/39 82/38/38
f 69/39/39 45/35/35 12/34/34 70/40/40
f 18/41/41 13/42/42 71/43/43 72/44/44
f 14/45/45 18/41/41 72/44/44 83/46/46
f 19/47/47 14/45/45 83/46/46 85/48/48
f 15/49/49 19/47/47 85/48/48 87/50/50
f 52/51/51 21/52/52 13/42/42 18/41/41
f 20/53/53 52/51/51 18/41/41 14/45/45
f 29/54/4 52/51/51 20/53/53 2/55/6
f 1/56/3 21/52/52 52/51/51 29/54/4
f 53/57/54 20/53/53 14/45/45 19/47/47
f 22/58/55 53/57/54 19/47/47 15/49/49
f 33/59/11 53/57/54 22/58/55 3/60/13
f 2/55/6 20/53/53 53/57/54 33/59/11
f 23/61/56 15/62/49 87/63/50 89/64/57
f 16/65/58 23/61/56 89/64/57 91/66/59
f 54/67/60 34/12/12 3/13/13 22/68/55
f 23/61/56 54/67/60 22/68/55 15/62/49
f 16/65/58 24/69/61 54/67/60 23/61/56
f 24/69/61 6/14/14 34/12/12 54/67/60
f 25/70/62 16/65/58 91/66/59 93/71/63
f 12/34/34 25/70/62 93/71/63 70/40/40
f 55/72/64 39/23/23 6/14/14 24/69/61
f 25/70/62 55/72/64 24/69/61 16/65/58
f 44/33/33 55/72/64 25/70/62 12/34/34
f 9/24/24 39/23/23 55/72/64 44/33/33
f 26/73/65 17/74/66 98/75/67 96/76/68
f 56/77/69 26/73/65 13/78/42 21/79/52
f 32/2/2 56/77/69 21/79/52 1/3/3
f 4/9/9 27/80/70 56/77/69 32/2/2
f 27/80/70 17/74/66 26/73/65 56/77/69
f 28/81/71 10/31/31 75/37/37 76/82/72
f 57/83/73 28/81/71 17/74/66 27/80/70
f 38/17/17 57/83/73 27/80/70 4/9/9
f 7/21/21 43/27/27 57/83/73 38/17/17
f 43/27/27 10/31/31 28/81/71 57/83/73
f 61/84/74 62/85/75 59/86/76 58/87/77
f 62/85/75 63/88/78 60/89/79 59/86/76
f 64/90/80 65/91/81 62/85/75 61/84/74
f 65/91/81 66/92/82 63/88/78 62/85/75
f 94/93/83 58/87/77 67/94/84 68/95/85
f 68/95/85 67/94/84 69/96/39 70/97/40
f 72/98/44 71/99/43 73/100/86 74/101/87
f 13/78/42 26/73/65 96/76/68 71/102/43
f 17/74/66 28/81/71 76/82/72 98/75/67
f 77/103/88 79/104/89 60/89/79 78/105/90
f 60/89/79 79/104/89 81/106/91 59/86/76
f 59/86/76 81/106/91 67/94/84 58/87/77
f 92/107/92 61/84/74 58/87/77 94/93/83
f 97/108/93 78/105/90 60/89/79 63/88/78
f 90/109/94 64/90/80 61/84/74 92/107/92
f 95/110/95 97/108/93 63/88/78 66/92/82
f 64/90/80 90/109/94 88/111/96 86/112/97
f 65/91/81 64/90/80 86/112/97 84/113/98
f 74/101/87 66/92/82 65/91/81 84/113/98
f 73/100/86 95/110/95 66/92/82 74/101/87
f 76/114/72 75/115/37 77/103/88 78/105/90
f 79/104/89 77/103/88 75/115/37 80/116/36
f 81/106/91 79/104/89 80/116/36 82/117/38
f 67/94/84 81/106/91 82/117/38 69/96/39
f 83/118/46 72/98/44 74/101/87 84/113/98
f 85/119/48 83/118/46 84/113/98 86/112/97
f 87/120/50 85/119/48 86/112/97 88/111/96
f 89/121/57 87/120/50 88/111/96 90/109/94
f 91/122/59 89/121/57 90/109/94 92/107/92
f 93/123/63 91/122/59 92/107/92 94/93/83
f 93/123/63 94/93/83 68/95/85 70/97/40
f 95/110/95 73/100/86 71/99/43 96/124/68
f 97/108/93 95/110/95 96/124/68 98/125/67
f 76/114/72 78/105/90 97/108/93 98/125/67
