# This file uses centimeters as units for non-parametric coordinates.

mtllib BreakableStatue_piece07COL.mtl
g default
v 2.528776 16.232346 0.000011
v -0.940323 16.136551 0.000011
v -1.251024 9.602658 -7.406950
v -7.175845 9.517934 0.000011
v -1.343537 9.611607 7.406967
v -1.564419 8.138796 -7.214058
v -7.751989 5.913426 0.000011
v -1.594734 8.156485 7.214075
v -3.790541 12.741508 3.716848
v -0.660727 14.189177 6.096962
v -3.796957 12.729126 -3.721638
v -0.642503 14.187404 -6.096950
v -4.916190 13.340699 0.000011
v -5.202338 9.479521 -4.341429
v 2.530931 14.349180 -6.096941
v 2.513599 14.350617 6.096952
v -5.887309 6.381718 -4.224199
v -5.206323 9.480479 4.341444
v -5.889760 6.380845 4.224462
v -5.318168 5.761477 0.000394
v -0.721796 7.481683 0.000008
v 4.429966 15.181532 0.000011
v 3.371206 13.887460 0.000005
v -0.439500 9.607133 0.000009
vt 0.550685 0.221305
vt 0.588208 0.185827
vt 0.570623 0.278652
vt 0.509887 0.182697
vt 0.592084 0.314875
vt 0.478693 0.136682
vt 0.429693 0.110445
vt 0.517666 0.102366
vt 0.395103 0.093004
vt 0.550653 0.070902
vt 0.622743 0.157135
vt 0.620156 0.241663
vt 0.437491 0.222719
vt 0.380046 0.217615
vt 0.407467 0.165277
vt 0.465915 0.188791
vt 0.464568 0.061183
vt 0.559146 0.138795
vt 0.337215 0.194976
vt 0.366473 0.143967
vt 0.477554 0.049015
vt 0.598788 0.104092
vt 0.635820 0.230049
vt 0.168316 0.270393
vt 0.240306 0.230148
vt 0.294421 0.263379
vt 0.260083 0.329575
vt 0.310184 0.233075
vt 0.352713 0.288384
vt 0.361095 0.371101
vt 0.339732 0.126149
vt 0.305898 0.249169
vt 0.271712 0.310595
vt 0.190023 0.271095
vt 0.240247 0.213388
vt 0.258908 0.333436
vt 0.183820 0.288164
vt 0.315759 0.231542
vt 0.370798 0.286353
vt 0.348095 0.359839
vt 0.336838 0.373753
vn -0.649502 0.254563 0.716480
vn -0.553802 0.242277 0.796621
vn -0.394595 0.417523 0.818517
vn -0.644395 0.376688 0.665478
vn -0.581603 0.758498 0.293971
vn -0.276033 0.894902 0.350652
vn -0.291690 0.956513 -0.000109
vn -0.606584 0.795019 -0.000416
vn -0.639168 0.370066 -0.674178
vn -0.390580 0.412813 -0.822820
vn -0.545629 0.239467 -0.803084
vn -0.644213 0.253357 -0.721665
vn -0.939951 0.341310 0.000058
vn -0.855774 0.327400 0.400575
vn -0.797076 0.477929 0.369127
vn -0.856750 0.515732 0.000428
vn -0.606584 0.795019 -0.000416
vn -0.291690 0.956513 -0.000109
vn -0.277908 0.893714 -0.352198
vn -0.582146 0.757434 -0.295635
vn -0.855586 0.327203 -0.401138
vn -0.939951 0.341310 0.000058
vn -0.856750 0.515732 0.000428
vn -0.797693 0.477112 -0.368848
vn -0.291690 0.956513 -0.000109
vn -0.276033 0.894902 0.350652
vn -0.007390 0.944549 0.328288
vn 0.085131 0.996370 -0.000008
vn -0.277908 0.893714 -0.352198
vn -0.291690 0.956513 -0.000109
vn 0.085131 0.996370 -0.000008
vn -0.007444 0.943984 -0.329908
vn -0.644213 0.253357 -0.721665
vn -0.545629 0.239467 -0.803084
vn -0.553678 0.070646 -0.829729
vn -0.644837 0.006400 -0.764293
vn -0.900602 0.129202 -0.414997
vn -0.990703 0.136041 -0.000178
vn -0.939951 0.341310 0.000058
vn -0.855586 0.327203 -0.401138
vn -0.990703 0.136041 -0.000178
vn -0.900899 0.128991 0.414419
vn -0.855774 0.327400 0.400575
vn -0.939951 0.341310 0.000058
vn -0.647480 0.001131 0.762081
vn -0.558410 0.061323 0.827295
vn -0.553802 0.242277 0.796621
vn -0.649502 0.254563 0.716480
vn 0.321811 -0.937675 0.131160
vn 0.321811 -0.937675 0.131160
vn 0.321811 -0.937675 0.131160
vn 0.321811 -0.937675 0.131160
vn 0.035701 -0.992990 0.112679
vn 0.035701 -0.992990 0.112679
vn 0.035701 -0.992990 0.112679
vn 0.035657 -0.993016 -0.112463
vn 0.035657 -0.993016 -0.112463
vn 0.035657 -0.993016 -0.112463
vn 0.321173 -0.938035 -0.130145
vn 0.321173 -0.938035 -0.130145
vn 0.321173 -0.938035 -0.130145
vn 0.321173 -0.938035 -0.130145
vn -0.390580 0.412813 -0.822820
vn -0.027009 0.528548 -0.848473
vn -0.545629 0.239467 -0.803084
vn -0.007444 0.943984 -0.329908
vn 0.085131 0.996370 -0.000008
vn 0.483741 0.875211 0.000000
vn 0.085131 0.996370 -0.000008
vn -0.007390 0.944549 0.328288
vn 0.483741 0.875211 0.000000
vn -0.394595 0.417523 0.818517
vn -0.553802 0.242277 0.796621
vn -0.027165 0.533320 0.845477
vn 0.751156 -0.660115 0.003563
vn 0.751151 -0.660119 0.003861
vn 0.749439 -0.656188 -0.088085
vn 0.749439 -0.656188 -0.088085
vn 0.984552 -0.175054 0.003724
vn 0.988739 -0.149604 0.003793
vn 0.977681 -0.174688 -0.116725
vn 0.976497 -0.181187 -0.116730
vn 0.755715 -0.618296 -0.215884
vn 0.755715 -0.618296 -0.215884
vn 0.755715 -0.618296 -0.215884
vn 0.755714 -0.618297 0.215884
vn 0.755714 -0.618297 0.215884
vn 0.755714 -0.618297 0.215884
vn 0.746560 -0.658490 0.095077
vn 0.746560 -0.658490 0.095077
vn 0.751151 -0.660119 0.003861
vn 0.751156 -0.660115 0.003563
vn 0.978095 -0.166272 0.125232
vn 0.979440 -0.158356 0.124986
vn 0.988739 -0.149604 0.003793
vn 0.984552 -0.175054 0.003724
vn 0.979440 -0.158356 0.124986
vn 0.988739 -0.149604 0.003793
vn 0.984552 -0.175054 0.003724
vn 0.992413 0.039665 0.116376
vn 0.999545 0.029770 0.004843
vn 0.988739 -0.149604 0.003793
vn 0.984552 -0.175054 0.003724
vn 0.992413 0.039665 0.116376
vn 0.999545 0.029770 0.004843
vn 0.988739 -0.149604 0.003793
vn 0.984552 -0.175054 0.003724
vn 0.992413 0.039665 0.116376
vn 0.999545 0.029770 0.004843
vn 0.988739 -0.149604 0.003793
vn 0.984552 -0.175054 0.003724
vn 0.992413 0.039665 0.116376
vn 0.999545 0.029770 0.004843
vn 0.988739 -0.149604 0.003793
vn 0.984552 -0.175054 0.003724
vn 0.992413 0.039665 0.116376
vn 0.999545 0.029770 0.004843
vn 0.988739 -0.149604 0.003793
vn 0.999545 0.029770 0.004843
vn 0.988739 -0.149604 0.003793
vn 0.979440 -0.158356 0.124986
vn 0.992413 0.039665 0.116376
vn 0.999545 0.029770 0.004843
vn 0.988739 -0.149604 0.003793
vn 0.979440 -0.158356 0.124986
vn 0.992413 0.039665 0.116376
vn 0.999545 0.029770 0.004843
vn 0.988739 -0.149604 0.003793
vn 0.979440 -0.158356 0.124986
vn 0.992413 0.039665 0.116376
vn 0.999545 0.029770 0.004843
vn 0.988739 -0.149604 0.003793
vn 0.988739 -0.149604 0.003793
vn 0.984552 -0.175054 0.003724
vn 0.979440 -0.158356 0.124986
vn 0.992413 0.039665 0.116376
vn 0.999545 0.029770 0.004843
vn 0.988739 -0.149604 0.003793
vn 0.978095 -0.166272 0.125232
vn 0.979440 -0.158356 0.124986
vn 0.988739 -0.149604 0.003793
vn 0.984552 -0.175054 0.003724
vn 0.979440 -0.158356 0.124986
vn 0.992413 0.039665 0.116376
vn 0.999545 0.029770 0.004843
vn 0.988739 -0.149604 0.003793
vn 0.979440 -0.158356 0.124986
vn 0.992413 0.039665 0.116376
vn 0.999545 0.029770 0.004843
vn 0.988739 -0.149604 0.003793
vn 0.979440 -0.158356 0.124986
vn 0.992413 0.039665 0.116376
vn 0.999545 0.029770 0.004843
vn 0.988739 -0.149604 0.003793
vn 0.988739 -0.149604 0.003793
vn 0.984552 -0.175054 0.003724
vn 0.979440 -0.158356 0.124986
vn 0.992413 0.039665 0.116376
vn 0.999545 0.029770 0.004843
vn 0.988739 -0.149604 0.003793
vn 0.979440 -0.158356 0.124986
vn 0.992413 0.039665 0.116376
vn 0.999545 0.029770 0.004843
vn 0.988739 -0.149604 0.003793
vn 0.979440 -0.158356 0.124986
vn 0.992413 0.039665 0.116376
vn 0.999545 0.029770 0.004843
vn 0.988739 -0.149604 0.003793
vn 0.979440 -0.158356 0.124986
vn 0.992413 0.039665 0.116376
vn 0.999545 0.029770 0.004843
vn 0.988739 -0.149604 0.003793
vn 0.979440 -0.158356 0.124986
vn 0.992413 0.039665 0.116376
vn 0.999545 0.029770 0.004843
vn 0.988739 -0.149604 0.003793
vn 0.988739 -0.149604 0.003793
vn 0.984552 -0.175054 0.003724
vn 0.979440 -0.158356 0.124986
vn 0.992413 0.039665 0.116376
vn 0.999545 0.029770 0.004843
vn 0.988739 -0.149604 0.003793
s off
g polySurface15
usemtl lambert2SG
f 18/2/1 5/12/2 10/3/3 9/1/4
f 9/13/5 10/14/6 2/15/7 13/16/8
f 11/6/9 12/7/10 3/17/11 14/8/12
f 4/18/13 18/2/14 9/1/15 13/4/16
f 13/16/17 2/15/18 12/7/19 11/6/20
f 14/8/21 4/18/22 13/4/23 11/6/24
f 2/15/25 10/14/26 16/19/27 1/20/28
f 12/7/29 2/15/30 1/20/31 15/9/32
f 14/8/33 3/17/34 6/21/35 17/10/36
f 17/10/37 7/22/38 4/18/39 14/8/40
f 7/22/41 19/11/42 18/2/43 4/18/44
f 19/11/45 8/23/46 5/12/47 18/2/48
f 8/24/49 19/25/50 20/26/51 21/27/52
f 7/28/53 20/26/54 19/25/55
f 17/29/56 20/26/57 7/28/58
f 21/27/59 20/26/60 17/29/61 6/30/62
f 12/7/63 15/9/64 3/17/65
f 15/9/66 1/20/67 22/31/68
f 1/20/69 16/19/70 22/31/71
f 10/3/72 5/12/73 16/5/74
f 23/32/75 24/33/76 3/34/77 15/35/78
f 24/33/79 21/36/80 6/37/81 3/34/82
f 22/38/83 23/32/84 15/35/85
f 22/38/86 16/39/87 23/32/88
f 16/39/89 5/40/90 24/33/91 23/32/92
f 5/40/93 8/41/94 21/36/95 24/33/96
