# This file uses centimeters as units for non-parametric coordinates.

mtllib IceCreamSandwichShortRLowerLeg.mtl
g default
v -0.604225 0.349682 -0.623761
v -0.697578 0.349682 -0.598746
v -0.765917 0.349682 -0.530405
v -0.790930 0.349682 -0.437052
v -0.604225 -0.349677 -0.623763
v -0.790930 -0.349677 -0.437054
v -0.765917 -0.349677 -0.530408
v -0.697578 -0.349677 -0.598749
v -0.604214 0.349678 0.621080
v -0.790923 0.349679 0.434374
v -0.765908 0.349678 0.527727
v -0.697568 0.349678 0.596067
v -0.604214 -0.349681 0.621078
v -0.697568 -0.349681 0.596064
v -0.765908 -0.349680 0.527725
v -0.790923 -0.349680 0.434372
v -0.604225 0.459521 -0.623761
v -0.697578 0.459521 -0.598746
v -0.765917 0.459521 -0.530405
v -0.790930 0.459520 -0.437051
v -0.790923 0.459518 0.434375
v -0.765908 0.459517 0.527728
v -0.697568 0.459517 0.596067
v -0.604214 0.459517 0.621080
v -0.604214 -0.459520 0.621077
v -0.697568 -0.459520 0.596064
v -0.765908 -0.459519 0.527725
v -0.790923 -0.459519 0.434372
v -0.790930 -0.459516 -0.437054
v -0.765917 -0.459516 -0.530408
v -0.697578 -0.459516 -0.598749
v -0.604225 -0.459516 -0.623764
v -0.608963 0.371650 -0.659750
v -0.608963 0.437553 -0.659750
v -0.715261 0.371650 -0.629373
v -0.715261 0.437553 -0.629373
v -0.796545 0.371650 -0.548088
v -0.796545 0.437553 -0.548088
v -0.826919 0.371649 -0.441790
v -0.826919 0.437553 -0.441790
v -0.826912 0.371647 0.439112
v -0.826912 0.437550 0.439112
v -0.796535 0.371646 0.545411
v -0.796535 0.437550 0.545411
v -0.715250 0.371646 0.626694
v -0.715250 0.437549 0.626694
v -0.608952 0.371646 0.657070
v -0.608952 0.437549 0.657070
v -0.608952 -0.371649 0.657067
v -0.608952 -0.437552 0.657067
v -0.715250 -0.371648 0.626692
v -0.715250 -0.437552 0.626692
v -0.796535 -0.371648 0.545408
v -0.796535 -0.437552 0.545408
v -0.826912 -0.371648 0.439110
v -0.826912 -0.437551 0.439110
v -0.826919 -0.371645 -0.441792
v -0.826919 -0.437549 -0.441792
v -0.796545 -0.371645 -0.548091
v -0.796545 -0.437548 -0.548091
v -0.715261 -0.371645 -0.629375
v -0.715261 -0.437548 -0.629375
v -0.608963 -0.371644 -0.659752
v -0.608963 -0.437548 -0.659753
v -0.805575 0.230307 -0.438980
v -0.805575 -0.230303 -0.438981
v -0.805568 -0.230306 0.436301
v -0.805568 0.230304 0.436301
v -0.606142 0.230304 0.635725
v -0.606142 -0.230306 0.635723
v -0.606153 -0.230302 -0.638408
v -0.606153 0.230308 -0.638407
v -0.779048 0.230307 -0.537987
v -0.779047 -0.230303 -0.537988
v -0.705159 0.230308 -0.611877
v -0.705158 -0.230302 -0.611878
v -0.705148 0.230304 0.609197
v -0.705148 -0.230307 0.609196
v -0.779038 0.230304 0.535308
v -0.779038 -0.230306 0.535307
v -0.809237 0.000002 -0.439463
v -0.809229 -0.000001 0.436783
v -0.606624 -0.000001 0.639385
v -0.606635 0.000003 -0.642069
v -0.782330 0.000002 -0.539883
v -0.707054 0.000003 -0.615160
v -0.707044 -0.000001 0.612479
v -0.782321 -0.000001 0.537203
v -0.594583 0.466192 -0.550535
v -0.659673 0.466192 -0.533093
v -0.700264 0.466191 -0.492502
v -0.717704 0.466191 -0.427412
v -0.717697 0.466189 0.424733
v -0.700255 0.466188 0.489823
v -0.659664 0.466188 0.530415
v -0.594574 0.466188 0.547854
v -0.594574 -0.466190 0.547851
v -0.659664 -0.466190 0.530412
v -0.700255 -0.466190 0.489820
v -0.717697 -0.466190 0.424730
v -0.717704 -0.466187 -0.427415
v -0.700264 -0.466187 -0.492505
v -0.659673 -0.466187 -0.533096
v -0.594583 -0.466187 -0.550538
v 0.746823 -0.466190 0.547840
v 0.746823 -0.459520 0.621066
v 0.723261 -0.437552 0.657056
v 0.723261 -0.371649 0.657056
v 0.746823 -0.349681 0.621066
v 0.746823 -0.230306 0.635712
v 0.746823 -0.000001 0.639374
v 0.746823 0.230304 0.635713
v 0.746823 0.349678 0.621068
v 0.723261 0.371646 0.657058
v 0.723261 0.437549 0.657059
v 0.746823 0.459517 0.621069
v 0.746823 0.466188 0.547843
v 0.746813 0.466192 -0.550546
v 0.746812 0.459521 -0.623772
v 0.723250 0.437553 -0.659761
v 0.723250 0.371650 -0.659761
v 0.746812 0.349682 -0.623772
v 0.746812 0.230308 -0.638418
v 0.746813 0.000003 -0.642080
v 0.746812 -0.230302 -0.638420
v 0.746812 -0.349677 -0.623775
v 0.723250 -0.371644 -0.659764
v 0.723250 -0.437548 -0.659764
v 0.746812 -0.459516 -0.623775
v 0.746813 -0.466187 -0.550549
vt 0.330418 0.944257
vt 0.550642 0.944258
vt 0.542229 0.952643
vt 0.338831 0.952643
vt 0.906752 0.611827
vt 0.906802 0.887817
vt 0.890011 0.887805
vt 0.890113 0.611836
vt 0.934464 0.009142
vt 0.934464 0.031058
vt 0.917667 0.031078
vt 0.917667 0.009129
vt 0.934464 0.053983
vt 0.917667 0.053992
vt 0.934464 0.075936
vt 0.917667 0.075972
vt 0.934464 0.258210
vt 0.917667 0.258175
vt 0.934464 0.280170
vt 0.917667 0.280161
vt 0.934464 0.303094
vt 0.917667 0.303073
vt 0.934464 0.325014
vt 0.917667 0.325027
vt 0.934414 0.601094
vt 0.917769 0.601123
vt 0.987669 0.291154
vt 0.987719 0.567206
vt 0.970921 0.567190
vt 0.971023 0.291123
vt 0.987719 0.589128
vt 0.970921 0.589144
vt 0.987719 0.612049
vt 0.970921 0.612037
vt 0.987719 0.633989
vt 0.970921 0.634024
vt 0.987719 0.816252
vt 0.970921 0.816216
vt 0.987719 0.838212
vt 0.970921 0.838224
vt 0.987719 0.861157
vt 0.970921 0.861142
vt 0.987719 0.883076
vt 0.970921 0.883088
vt 0.960922 0.004997
vt 0.960872 0.281022
vt 0.944235 0.281013
vt 0.944132 0.005009
vt 0.912399 0.606954
vt 0.912399 0.886931
vt 0.569515 0.932824
vt 0.569515 0.652692
vt 0.578133 0.657588
vt 0.578261 0.933830
vt 0.940062 0.008255
vt 0.940063 0.031118
vt 0.564208 0.952184
vt 0.571728 0.956630
vt 0.940063 0.053892
vt 0.550019 0.966198
vt 0.554349 0.973692
vt 0.940063 0.076650
vt 0.530751 0.971449
vt 0.531775 0.980180
vt 0.940063 0.257495
vt 0.350309 0.971448
vt 0.349286 0.980178
vt 0.940063 0.280262
vt 0.331041 0.966198
vt 0.326712 0.973691
vt 0.940063 0.303035
vt 0.316853 0.952184
vt 0.309333 0.956629
vt 0.940063 0.325901
vt 0.311545 0.932824
vt 0.302799 0.933831
vt 0.940063 0.605902
vt 0.311545 0.652693
vt 0.302927 0.657589
vt 0.993318 0.286344
vt 0.993318 0.566315
vt 0.020266 0.370441
vt 0.020266 0.650523
vt 0.011648 0.645630
vt 0.011519 0.369440
vt 0.993318 0.589202
vt 0.025569 0.351094
vt 0.018046 0.346694
vt 0.993318 0.611974
vt 0.039761 0.336960
vt 0.035431 0.329401
vt 0.993318 0.634701
vt 0.059036 0.331762
vt 0.058014 0.323025
vt 0.993318 0.815539
vt 0.239451 0.331761
vt 0.240473 0.323025
vt 0.993318 0.838287
vt 0.258726 0.336959
vt 0.263056 0.329401
vt 0.993318 0.861083
vt 0.272919 0.351094
vt 0.280441 0.346694
vt 0.993318 0.883964
vt 0.278221 0.370441
vt 0.286967 0.369440
vt 0.966518 0.005884
vt 0.966518 0.285895
vt 0.278221 0.650523
vt 0.286839 0.645630
vt 0.812364 0.305942
vt 0.631205 0.305942
vt 0.631070 0.281139
vt 0.812498 0.281139
vt 0.631205 0.160633
vt 0.812364 0.160633
vt 0.812499 0.185436
vt 0.631069 0.185436
vt 0.567186 0.305942
vt 0.287164 0.305942
vt 0.287111 0.281139
vt 0.567484 0.281139
vt 0.287164 0.160633
vt 0.567186 0.160633
vt 0.567484 0.185436
vt 0.287111 0.185436
vt 0.287043 0.152679
vt 0.006964 0.152679
vt 0.006665 0.127877
vt 0.287043 0.127877
vt 0.006964 0.007371
vt 0.287043 0.007371
vt 0.287043 0.032174
vt 0.006665 0.032174
vt 0.833642 0.160633
vt 0.833564 0.185436
vt 0.833642 0.305942
vt 0.833564 0.281139
vt 0.855012 0.160633
vt 0.855030 0.185436
vt 0.855012 0.305942
vt 0.855030 0.281139
vt 0.876389 0.160633
vt 0.876089 0.185436
vt 0.876389 0.305942
vt 0.876089 0.281139
vt 0.588560 0.160633
vt 0.588542 0.185436
vt 0.588560 0.305942
vt 0.588542 0.281139
vt 0.609927 0.160633
vt 0.610005 0.185436
vt 0.609927 0.305942
vt 0.610005 0.281139
vt 0.631198 0.233287
vt 0.812369 0.233287
vt 0.287057 0.233287
vt 0.567487 0.233287
vt 0.006659 0.080025
vt 0.287043 0.080025
vt 0.833468 0.233287
vt 0.855028 0.233287
vt 0.876084 0.233287
vt 0.588541 0.233287
vt 0.610104 0.233287
vt 0.554275 0.930805
vt 0.554275 0.652692
vt 0.528752 0.956248
vt 0.352309 0.956248
vt 0.326786 0.930805
vt 0.326786 0.652693
vt 0.035506 0.372451
vt 0.035505 0.650523
vt 0.039140 0.358982
vt 0.047553 0.350585
vt 0.061030 0.346975
vt 0.237457 0.346975
vt 0.250934 0.350584
vt 0.259347 0.358982
vt 0.262982 0.372450
vt 0.262982 0.650523
vt 0.618781 0.719843
vt 0.618781 0.936016
vt 0.595851 0.950428
vt 0.595851 0.705432
vt 0.617468 0.705432
vt 0.600217 0.698490
vt 0.613103 0.698490
vt 0.617468 0.950428
vt 0.600217 0.957370
vt 0.613103 0.957370
vt 0.617908 0.721471
vt 0.617908 0.933873
vt 0.595377 0.948033
vt 0.595377 0.707310
vt 0.599667 0.954854
vt 0.616618 0.948033
vt 0.612328 0.954854
vt 0.616618 0.707310
vt 0.599667 0.700489
vt 0.612328 0.700489
vt 0.742890 0.076524
vt 0.745882 0.100907
vt 0.485635 0.100907
vt 0.488627 0.076524
vt 0.746629 0.147948
vt 0.484887 0.147948
vt 0.745881 0.194989
vt 0.485635 0.194989
vt 0.742890 0.219371
vt 0.488627 0.219371
vn -0.005057 0.999947 0.008934
vn -0.005057 0.999947 -0.008928
vn -0.013241 0.999884 -0.007493
vn -0.013240 0.999884 0.007500
vn -0.000008 -0.450207 -0.892924
vn -0.019233 -0.361665 -0.932110
vn -0.019233 0.361671 -0.932107
vn -0.000008 0.450213 -0.892921
vn -0.482493 -0.324768 -0.813466
vn -0.482493 0.324773 -0.813464
vn -0.813472 -0.324769 -0.482482
vn -0.813472 0.324772 -0.482479
vn -0.933140 -0.358411 -0.028129
vn -0.933140 0.358411 -0.028126
vn -0.933139 -0.358413 0.028142
vn -0.933139 0.358413 0.028144
vn -0.813465 -0.324771 0.482492
vn -0.813465 0.324768 0.482494
vn -0.482480 -0.324775 0.813470
vn -0.482480 0.324771 0.813472
vn -0.019217 -0.361677 0.932105
vn -0.019217 0.361672 0.932107
vn 0.000008 -0.450219 0.892918
vn 0.000008 0.450214 0.892921
vn 0.000008 0.450214 0.892921
vn -0.019217 0.361672 0.932107
vn -0.019217 -0.361678 0.932105
vn 0.000008 -0.450220 0.892918
vn -0.482480 0.324770 0.813472
vn -0.482480 -0.324775 0.813470
vn -0.813465 0.324768 0.482494
vn -0.813465 -0.324771 0.482492
vn -0.933139 0.358413 0.028144
vn -0.933139 -0.358413 0.028142
vn -0.933140 0.358411 -0.028126
vn -0.933140 -0.358411 -0.028129
vn -0.813472 0.324772 -0.482479
vn -0.813472 -0.324769 -0.482482
vn -0.482493 0.324773 -0.813464
vn -0.482493 -0.324768 -0.813466
vn -0.019233 0.361671 -0.932107
vn -0.019233 -0.361665 -0.932110
vn -0.000008 0.450213 -0.892921
vn -0.000008 -0.450207 -0.892924
vn -0.000004 -0.853550 -0.521011
vn -0.010008 -0.853698 -0.520671
vn -0.004968 0.962598 -0.270889
vn -0.000002 0.976601 -0.215058
vn -0.264752 -0.852330 -0.451043
vn -0.157925 0.949697 -0.270434
vn -0.451043 -0.852332 -0.264745
vn -0.270439 0.949697 -0.157916
vn -0.520489 -0.853741 -0.014767
vn -0.273422 0.961866 -0.007434
vn -0.520489 -0.853741 0.014771
vn -0.273421 0.961866 0.007445
vn -0.451039 -0.852334 0.264748
vn -0.270437 0.949696 0.157928
vn -0.264742 -0.852336 0.451038
vn -0.157920 0.949696 0.270441
vn -0.009999 -0.853706 0.520659
vn -0.004963 0.962597 0.270893
vn 0.000004 -0.853558 0.520998
vn 0.000002 0.976600 0.215063
vn 0.000004 0.853555 0.521003
vn -0.009999 0.853703 0.520664
vn -0.004963 -0.962598 0.270887
vn 0.000002 -0.976601 0.215057
vn -0.264742 0.852333 0.451044
vn -0.157920 -0.949698 0.270435
vn -0.451039 0.852332 0.264754
vn -0.270436 -0.949697 0.157921
vn -0.520488 0.853741 0.014777
vn -0.273421 -0.961866 0.007439
vn -0.520488 0.853741 -0.014762
vn -0.273422 -0.961865 -0.007440
vn -0.451043 0.852334 -0.264739
vn -0.270439 -0.949696 -0.157922
vn -0.264751 0.852333 -0.451038
vn -0.157925 -0.949696 -0.270440
vn -0.010008 0.853702 -0.520666
vn -0.004968 -0.962596 -0.270895
vn -0.000004 0.853553 -0.521006
vn -0.000002 -0.976600 -0.215064
vn -0.992162 -0.122146 -0.026365
vn -0.992161 -0.122147 0.026381
vn -0.998279 -0.052022 0.027079
vn -0.998279 -0.052022 -0.027062
vn -0.992161 0.122147 0.026382
vn -0.992162 0.122147 -0.026364
vn -0.998279 0.052022 -0.027061
vn -0.998279 0.052021 0.027079
vn -0.017651 -0.122035 0.992369
vn 0.000008 -0.121773 0.992558
vn 0.000008 -0.052262 0.998633
vn -0.018152 -0.052043 0.998480
vn 0.000008 0.121767 0.992559
vn -0.017651 0.122029 0.992370
vn -0.018152 0.052036 0.998480
vn 0.000008 0.052256 0.998634
vn -0.000008 -0.121767 -0.992559
vn -0.017668 -0.122029 -0.992369
vn -0.018170 -0.052037 -0.998480
vn -0.000008 -0.052256 -0.998634
vn -0.017668 0.122035 -0.992368
vn -0.000008 0.121773 -0.992558
vn -0.000008 0.052262 -0.998633
vn -0.018170 0.052043 -0.998479
vn -0.858465 0.126001 -0.497154
vn -0.863646 0.052514 -0.501356
vn -0.858465 -0.125994 -0.497156
vn -0.863645 -0.052511 -0.501358
vn -0.497171 0.126001 -0.858455
vn -0.501374 0.052516 -0.863635
vn -0.497173 -0.125993 -0.858455
vn -0.501374 -0.052510 -0.863636
vn -0.497156 0.125996 0.858464
vn -0.501357 0.052511 0.863646
vn -0.497156 -0.126002 0.858463
vn -0.501357 -0.052517 0.863645
vn -0.858456 0.125995 0.497170
vn -0.863637 0.052512 0.501372
vn -0.858456 -0.125999 0.497169
vn -0.863636 -0.052515 0.501372
vn -0.999625 -0.000000 0.027388
vn -0.999625 -0.000000 -0.027371
vn 0.000008 -0.000003 1.000000
vn -0.018377 -0.000003 0.999831
vn -0.018395 0.000003 -0.999831
vn -0.000008 0.000003 -1.000000
vn -0.864585 0.000001 -0.502487
vn -0.502504 0.000002 -0.864575
vn -0.502488 -0.000003 0.864584
vn -0.864576 -0.000001 0.502501
vn -0.000093 0.999980 -0.006256
vn -0.000000 0.999984 -0.005710
vn -0.065120 0.997876 -0.001465
vn -0.065120 0.997876 0.001473
vn -0.000093 0.999980 0.006262
vn 0.000000 0.999984 0.005716
vn -0.000093 -0.999980 0.006256
vn 0.000000 -0.999984 0.005710
vn -0.005057 -0.999947 0.008928
vn -0.013240 -0.999884 0.007494
vn -0.065120 -0.997876 0.001466
vn -0.065120 -0.997876 -0.001472
vn -0.013241 -0.999884 -0.007500
vn -0.005057 -0.999947 -0.008934
vn -0.000093 -0.999980 -0.006262
vn -0.000000 -0.999984 -0.005716
vn 0.999984 -0.000001 0.005706
vn 1.000000 0.000001 -0.000008
vn 1.000000 0.000001 -0.000008
vn 0.999984 -0.000001 -0.005723
vn 1.000000 0.000000 -0.000009
vn 1.000000 0.000000 -0.000009
vn 1.000000 -0.000001 -0.000009
vn 1.000000 -0.000001 -0.000009
vn 0.999984 0.000000 0.005706
vn 0.999984 0.000000 -0.005723
vn 1.000000 0.000003 -0.000008
vn 1.000000 0.000003 -0.000009
vn 1.000000 -0.000003 -0.000009
vn 1.000000 -0.000003 -0.000008
vn 0.975828 -0.000001 0.218540
vn 0.836648 -0.000002 0.547741
vn 0.836648 -0.000002 0.547741
vn 0.975824 0.000001 -0.218557
vn 0.836648 -0.000002 0.547741
vn 0.975828 -0.000001 0.218540
vn 0.836648 -0.000002 0.547741
vn 0.975824 0.000001 -0.218557
vn 0.836633 0.000002 -0.547763
vn 0.836633 0.000002 -0.547763
vn 0.836633 0.000002 -0.547763
vn 0.836633 0.000002 -0.547763
s 1
g FoodShortRLowerLeg
usemtl blinn2SG
f 95/1/1 90/2/2 91/3/3 94/4/4
f 121/5/5 33/6/6 34/7/7 120/8/8
f 33/9/6 35/10/9 36/11/10 34/12/7
f 35/10/9 37/13/11 38/14/12 36/11/10
f 37/13/11 39/15/13 40/16/14 38/14/12
f 39/15/13 41/17/15 42/18/16 40/16/14
f 41/17/15 43/19/17 44/20/18 42/18/16
f 43/19/17 45/21/19 46/22/20 44/20/18
f 45/21/19 47/23/21 48/24/22 46/22/20
f 47/23/21 114/25/23 115/26/24 48/24/22
s 3
f 108/27/25 49/28/26 50/29/27 107/30/28
f 49/28/26 51/31/29 52/32/30 50/29/27
f 51/31/29 53/33/31 54/34/32 52/32/30
f 53/33/31 55/35/33 56/36/34 54/34/32
f 55/35/33 57/37/35 58/38/36 56/36/34
f 57/37/35 59/39/37 60/40/38 58/38/36
f 59/39/37 61/41/39 62/42/40 60/40/38
f 61/41/39 63/43/41 64/44/42 62/42/40
f 63/45/41 127/46/43 128/47/44 64/48/42
s 1
f 122/49/45 1/50/46 33/6/6 121/5/5
f 17/51/47 119/52/48 120/53/8 34/54/7
f 1/55/46 2/56/49 35/10/9 33/9/6
f 18/57/50 17/51/47 34/54/7 36/58/10
f 2/56/49 3/59/51 37/13/11 35/10/9
f 19/60/52 18/57/50 36/58/10 38/61/12
f 3/59/51 4/62/53 39/15/13 37/13/11
f 20/63/54 19/60/52 38/61/12 40/64/14
f 4/62/53 10/65/55 41/17/15 39/15/13
f 21/66/56 20/63/54 40/64/14 42/67/16
f 10/65/55 11/68/57 43/19/17 41/17/15
f 22/69/58 21/66/56 42/67/16 44/70/18
f 11/68/57 12/71/59 45/21/19 43/19/17
f 23/72/60 22/69/58 44/70/18 46/73/20
f 12/71/59 9/74/61 47/23/21 45/21/19
f 24/75/62 23/72/60 46/73/20 48/76/22
f 9/74/61 113/77/63 114/25/23 47/23/21
f 116/78/64 24/75/62 48/76/22 115/79/24
s 3
f 109/80/65 13/81/66 49/28/26 108/27/25
f 25/82/67 106/83/68 107/84/28 50/85/27
f 13/81/66 14/86/69 51/31/29 49/28/26
f 26/87/70 25/82/67 50/85/27 52/88/30
f 14/86/69 15/89/71 53/33/31 51/31/29
f 27/90/72 26/87/70 52/88/30 54/91/32
f 15/89/71 16/92/73 55/35/33 53/33/31
f 28/93/74 27/90/72 54/91/32 56/94/34
f 16/92/73 6/95/75 57/37/35 55/35/33
f 29/96/76 28/93/74 56/94/34 58/97/36
f 6/95/75 7/98/77 59/39/37 57/37/35
f 30/99/78 29/96/76 58/97/36 60/100/38
f 7/98/77 8/101/79 61/41/39 59/39/37
f 31/102/80 30/99/78 60/100/38 62/103/40
f 8/101/79 5/104/81 63/43/41 61/41/39
f 32/105/82 31/102/80 62/103/40 64/106/42
f 5/107/81 126/108/83 127/46/43 63/45/41
f 129/109/84 32/105/82 64/106/42 128/110/44
s 4
f 6/111/85 16/112/86 67/113/87 66/114/88
f 10/115/89 4/116/90 65/117/91 68/118/92
f 13/119/93 109/120/94 110/121/95 70/122/96
f 113/123/97 9/124/98 69/125/99 112/126/100
f 126/127/101 5/128/102 71/129/103 125/130/104
f 1/131/105 122/132/106 123/133/107 72/134/108
f 4/116/90 3/135/109 73/136/110 65/117/91
f 7/137/111 6/111/85 66/114/88 74/138/112
f 3/135/109 2/139/113 75/140/114 73/136/110
f 8/141/115 7/137/111 74/138/112 76/142/116
f 2/139/113 1/143/105 72/144/108 75/140/114
f 5/145/102 8/141/115 76/142/116 71/146/103
f 9/124/98 12/147/117 77/148/118 69/125/99
f 14/149/119 13/119/93 70/122/96 78/150/120
f 12/147/117 11/151/121 79/152/122 77/148/118
f 15/153/123 14/149/119 78/150/120 80/154/124
f 11/151/121 10/115/89 68/118/92 79/152/122
f 16/112/86 15/153/123 80/154/124 67/113/87
f 66/114/88 67/113/87 82/155/125 81/156/126
f 68/118/92 65/117/91 81/156/126 82/155/125
f 70/122/96 110/121/95 111/157/127 83/158/128
f 112/126/100 69/125/99 83/158/128 111/157/127
f 125/130/104 71/129/103 84/159/129 124/160/130
f 72/134/108 123/133/107 124/160/130 84/159/129
f 65/117/91 73/136/110 85/161/131 81/156/126
f 74/138/112 66/114/88 81/156/126 85/161/131
f 73/136/110 75/140/114 86/162/132 85/161/131
f 76/142/116 74/138/112 85/161/131 86/162/132
f 75/140/114 72/144/108 84/163/129 86/162/132
f 71/146/103 76/142/116 86/162/132 84/163/129
f 69/125/99 77/148/118 87/164/133 83/158/128
f 78/150/120 70/122/96 83/158/128 87/164/133
f 77/148/118 79/152/122 88/165/134 87/164/133
f 80/154/124 78/150/120 87/164/133 88/165/134
f 79/152/122 68/118/92 82/155/125 88/165/134
f 67/113/87 80/154/124 88/165/134 82/155/125
s 1
f 119/52/48 17/51/47 89/166/135 118/167/136
f 17/51/47 18/57/50 90/2/2 89/166/135
f 18/57/50 19/60/52 91/3/3 90/2/2
f 19/60/52 20/63/54 92/168/137 91/3/3
f 20/63/54 21/66/56 93/169/138 92/168/137
f 21/66/56 22/69/58 94/4/4 93/169/138
f 22/69/58 23/72/60 95/1/1 94/4/4
f 23/72/60 24/75/62 96/170/139 95/1/1
f 24/75/62 116/78/64 117/171/140 96/170/139
s 3
f 106/83/68 25/82/67 97/172/141 105/173/142
f 25/82/67 26/87/70 98/174/143 97/172/141
f 26/87/70 27/90/72 99/175/144 98/174/143
f 27/90/72 28/93/74 100/176/145 99/175/144
f 28/93/74 29/96/76 101/177/146 100/176/145
f 29/96/76 30/99/78 102/178/147 101/177/146
f 30/99/78 31/102/80 103/179/148 102/178/147
f 31/102/80 32/105/82 104/180/149 103/179/148
f 32/105/82 129/109/84 130/181/150 104/180/149
f 104/180/149 97/172/141 98/174/143 103/179/148
s 1
f 118/167/136 89/166/135 96/170/139 117/171/140
s 3
f 130/181/150 105/173/142 97/172/141 104/180/149
f 102/178/147 99/175/144 100/176/145 101/177/146
s 1
f 96/170/139 89/166/135 90/2/2 95/1/1
s 3
f 103/179/148 98/174/143 99/175/144 102/178/147
s 1
f 94/4/4 91/3/3 92/168/137 93/169/138
s 10
f 113/202/151 112/203/152 123/204/153 122/205/154
f 112/203/152 111/206/155 124/207/156 123/204/153
f 111/206/155 110/208/157 125/209/158 124/207/156
f 110/208/157 109/210/159 126/211/160 125/209/158
f 105/182/161 130/183/162 126/184/160 109/185/159
f 118/192/163 117/193/164 113/194/151 122/195/154
f 106/186/165 109/185/159 108/187/166 107/188/167
f 129/189/168 126/184/160 130/183/162
f 114/196/169 113/194/151 116/197/170 115/198/171
f 119/199/172 118/192/163 122/195/154
f 106/186/165 105/182/161 109/185/159
f 116/197/170 113/194/151 117/193/164
f 127/190/173 126/184/160 129/189/168 128/191/174
f 119/199/172 122/195/154 121/200/175 120/201/176
