# This file uses centimeters as units for non-parametric coordinates.

mtllib RiverBridge01_battleCOL.mtl
g default
v -45.356579 4.840494 8.066608
v 35.829422 3.291893 8.066608
v -36.450497 6.518267 8.066608
v 28.071108 5.635056 8.066608
v -36.450497 8.312218 -10.222263
v 28.071108 7.478308 -10.222263
v -45.356579 6.383733 -10.222263
v 35.829422 4.885274 -10.222263
v -17.233841 -2.480765 -10.222263
v -14.776388 2.052150 -10.222263
v -14.776388 0.241767 8.066608
v -17.233841 -4.040720 8.066608
v 8.409426 -2.619750 -10.222263
v 4.418252 1.950265 -10.222263
v 4.418252 0.123447 8.066608
v 8.409426 -4.196418 8.066608
vt 0.375000 0.000000
vt 0.625000 0.000000
vt 0.625000 0.250000
vt 0.375000 0.250000
vt 0.625000 0.500000
vt 0.375000 0.500000
vt 0.625000 0.750000
vt 0.375000 0.750000
vt 0.625000 1.000000
vt 0.375000 1.000000
vt 0.875000 0.000000
vt 0.875000 0.250000
vt 0.125000 0.000000
vt 0.125000 0.250000
vt 0.458333 0.750000
vt 0.458333 0.500000
vt 0.458333 0.250000
vt 0.458333 0.000000
vt 0.458333 1.000000
vt 0.541667 0.750000
vt 0.541667 0.500000
vt 0.541667 0.250000
vt 0.541667 0.000000
vt 0.541667 1.000000
vn 0.000000 0.000000 1.000000
vn 0.000000 0.000000 1.000000
vn 0.000000 0.000000 1.000000
vn 0.000000 0.000000 1.000000
vn -0.123840 0.987384 0.098670
vn 0.020974 0.994874 0.098928
vn 0.020974 0.994874 0.098928
vn -0.125451 0.987182 0.098656
vn 0.000000 0.000000 -1.000000
vn -0.000000 0.000000 -1.000000
vn -0.000000 0.000000 -1.000000
vn 0.000000 0.000000 -1.000000
vn 0.135736 -0.987083 -0.085107
vn 0.137641 -0.986820 -0.085091
vn -0.017474 -0.996191 -0.085426
vn -0.017474 -0.996191 -0.085426
vn 0.393050 0.915485 0.086014
vn 0.393050 0.915485 0.086014
vn 0.393050 0.915485 0.086014
vn 0.393050 0.915485 0.086014
vn -0.439072 0.894736 0.081632
vn -0.439072 0.894736 0.081632
vn -0.439072 0.894736 0.081632
vn -0.439072 0.894736 0.081632
vn -0.000000 0.000000 -1.000000
vn 0.000000 0.000000 -1.000000
vn 0.000000 0.000000 -1.000000
vn -0.000000 0.000000 -1.000000
vn 0.020974 0.994874 0.098928
vn 0.152251 0.983537 0.097336
vn 0.154663 0.983165 0.097291
vn 0.020974 0.994874 0.098928
vn 0.000000 0.000000 1.000000
vn -0.000000 0.000000 1.000000
vn 0.000000 0.000000 1.000000
vn 0.000000 0.000000 1.000000
vn -0.017474 -0.996191 -0.085426
vn -0.166086 -0.982546 -0.083782
vn -0.163634 -0.982953 -0.083824
vn -0.017474 -0.996191 -0.085426
s 1
g pCube19
usemtl lambert2SG
f 16/23/1 2/2/2 4/3/3 15/22/4
s 2
f 15/22/5 4/3/6 6/5/7 14/21/8
s 3
f 14/21/9 6/5/10 8/7/11 13/20/12
s 4
f 16/24/13 13/20/14 8/7/15 2/9/16
s off
f 2/2/17 8/11/18 6/12/19 4/3/20
f 7/13/21 1/1/22 3/4/23 5/14/24
s 3
f 5/6/25 10/16/26 9/15/27 7/8/28
s 2
f 3/4/29 11/17/30 10/16/31 5/6/32
s 1
f 1/1/33 12/18/34 11/17/35 3/4/36
s 4
f 7/8/37 9/15/38 12/19/39 1/10/40
s 3
f 10/16/26 14/21/9 13/20/12 9/15/27
s 2
f 11/17/30 15/22/5 14/21/8 10/16/31
s 1
f 12/18/34 16/23/1 15/22/4 11/17/35
s 4
f 12/19/39 9/15/38 13/20/14 16/24/13
