# This file uses centimeters as units for non-parametric coordinates.

mtllib RuinRoundWallPiece02.mtl
g default
v -10.734939 -0.626783 -45.758308
v -10.693202 2.185612 -42.985764
v -5.182639 -0.626783 -42.094757
v -5.182639 2.185612 -42.094757
v -10.693402 19.331627 -42.985661
v 10.778050 19.331627 -42.986427
v 4.228506 14.455441 -42.095337
v 2.590330 15.936331 -42.095261
v 0.042379 16.495733 -42.095169
v -2.505572 15.936331 -42.095085
v -4.143748 14.455441 -42.095024
v -5.182639 12.174444 -42.095009
v 10.777591 2.185612 -42.985306
v 5.267393 2.185612 -42.094536
v 5.267393 12.174444 -42.095276
v 10.735772 -0.626783 -45.757683
v 5.267393 -0.626783 -42.094536
v 0.042325 19.331627 -42.986042
v -6.934099 -0.626783 -45.758228
v -7.937918 2.185612 -42.985706
v -7.901057 13.069684 -42.985794
v -6.732655 16.018831 -42.985813
v -3.936728 18.434711 -42.985905
v 6.976897 -0.626783 -45.757767
v 8.022494 2.185612 -42.985359
v 7.975837 13.069684 -42.986069
v 6.785203 16.018831 -42.986298
v 4.064159 18.434711 -42.986172
v 6.290290 -0.626783 -45.641098
v 7.260795 2.185612 -42.879059
v 7.268930 12.836025 -42.893555
v 6.203617 15.663197 -42.923607
v 3.660549 17.750525 -42.882179
v 0.042339 18.565948 -42.885490
v -3.569855 17.794258 -42.897530
v -6.115330 15.646043 -42.913391
v -7.297825 12.871025 -42.928104
v -7.135600 2.185612 -42.866249
v -6.256029 -0.626783 -45.648537
v 27.455477 -0.626783 -27.455103
v 29.330536 2.185612 -29.330162
v 10.777318 -0.626783 -37.292965
v 10.735581 2.185612 -40.065510
v 5.225018 -0.626783 -40.956512
v 29.329697 19.331627 -29.329697
v 5.225018 2.185612 -40.956512
v 10.735781 19.331627 -40.065613
v -10.735673 19.331627 -40.064846
v -4.186127 14.455441 -40.955936
v -2.547953 15.936331 -40.956017
v 0.000000 16.495733 -40.956104
v 2.547953 15.936331 -40.956184
v 4.186127 14.455441 -40.956249
v 5.225018 12.174444 -40.956264
v -10.735214 2.185612 -40.065968
v -5.225014 2.185612 -40.956738
v -5.225014 12.174444 -40.955994
v -29.329967 19.331627 -29.329296
v -10.693394 -0.626783 -37.293587
v -29.330317 2.185612 -29.330042
v -5.225014 -0.626783 -40.956738
v -27.455431 -0.626783 -27.455156
v 0.000053 19.331627 -40.065231
v 8.001165 -0.626783 -37.293045
v 7.980297 2.185612 -40.065567
v 7.943436 13.069684 -40.065479
v 6.775034 16.018831 -40.065460
v 3.979107 18.434711 -40.065369
v -7.959206 -0.626783 -37.293507
v -7.980114 2.185612 -40.065910
v -7.933455 13.069684 -40.065201
v -6.742825 16.018831 -40.064976
v -4.021780 18.434711 -40.065102
v -7.171450 -0.626783 -37.410172
v -7.218414 2.185612 -40.172207
v -7.226551 12.836025 -40.157715
v -6.161238 15.663197 -40.127663
v -3.618170 17.750525 -40.169098
v 0.000040 18.565948 -40.165779
v 3.612234 17.794258 -40.153740
v 6.157713 15.646043 -40.137878
v 7.340204 12.871025 -40.123169
v 7.177982 2.185612 -40.185020
v 7.223202 -0.626783 -37.402737
vt 0.305088 0.698070
vt 0.296318 0.638373
vt 0.306136 0.638457
vt 0.317203 0.698224
vt 0.077222 0.859528
vt 0.033881 0.699809
vt 0.076958 0.698247
vt 0.088899 0.638378
vt 0.033866 0.643845
vt 0.196391 0.940096
vt 0.250253 0.928942
vt 0.255622 0.938518
vt 0.196380 0.952620
vt 0.359243 0.643922
vt 0.358896 0.699815
vt 0.358531 0.952458
vt 0.098851 0.638354
vt 0.088451 0.698057
vt 0.087625 0.855976
vt 0.104115 0.897676
vt 0.095573 0.903018
vt 0.142416 0.928294
vt 0.136536 0.938500
vt 0.315661 0.859568
vt 0.306892 0.856466
vt 0.297650 0.902997
vt 0.288594 0.897409
vt 0.034692 0.952478
vt 0.138168 0.664410
vt 0.118896 0.699108
vt 0.119108 0.845564
vt 0.134585 0.878325
vt 0.158865 0.899581
vt 0.196382 0.907515
vt 0.233894 0.899574
vt 0.258182 0.878323
vt 0.273631 0.845555
vt 0.274265 0.699105
vt 0.678353 0.022649
vt 0.965437 0.022458
vt 0.965438 0.073838
vt 0.660146 0.074761
vt 0.610249 0.069754
vt 0.626748 0.012378
vt 0.638052 0.013708
vt 0.622104 0.070616
vt 0.965525 0.319214
vt 0.659360 0.319241
vt 0.381593 0.229167
vt 0.340266 0.074787
vt 0.378303 0.070600
vt 0.340971 0.319306
vt 0.034713 0.319140
vt 0.034536 0.074061
vt 0.368392 0.013651
vt 0.326818 0.022294
vt 0.034681 0.021176
vt 0.500171 0.309925
vt 0.553882 0.297938
vt 0.559287 0.307409
vt 0.500176 0.319551
vt 0.379844 0.012301
vt 0.389536 0.069762
vt 0.391924 0.225517
vt 0.408278 0.266608
vt 0.399693 0.271819
vt 0.446382 0.297295
vt 0.440424 0.307426
vt 0.618919 0.229118
vt 0.610117 0.226008
vt 0.601121 0.271764
vt 0.592003 0.266297
vt 0.438555 0.027865
vt 0.421249 0.069176
vt 0.422953 0.215049
vt 0.438721 0.247511
vt 0.462982 0.268644
vt 0.500159 0.277199
vt 0.537351 0.268605
vt 0.561616 0.247453
vt 0.577415 0.214979
vt 0.579189 0.069211
vt 0.560917 0.214811
vt 0.562582 0.070081
vt 0.492290 0.057063
vt 0.492237 0.020940
vt 0.508666 0.021075
vt 0.508720 0.057199
vt 0.492155 0.088920
vt 0.508585 0.089003
vt 0.492166 0.126530
vt 0.508596 0.126595
vt 0.492184 0.164115
vt 0.508614 0.164211
vt 0.492184 0.196025
vt 0.508614 0.195962
vt 0.492219 0.232109
vt 0.508648 0.232126
vt 0.437921 0.070076
vt 0.439456 0.214889
vt 0.553845 0.031650
vt 0.569827 0.027951
vt 0.454295 0.031668
vt 0.254866 0.664242
vn 0.300385 0.152215 -0.941594
vn 0.514730 0.561142 -0.648208
vn 0.024725 0.706152 -0.707628
vn 0.033312 0.334310 -0.941874
vn -0.014829 -0.001440 -0.999889
vn 0.000019 0.317307 -0.948323
vn -0.035883 0.330432 -0.943147
vn -0.024466 0.706101 -0.707688
vn -0.035883 0.330432 -0.943147
vn 0.000019 0.317307 -0.948323
vn 0.000015 0.702022 -0.712155
vn 0.000111 -0.277601 -0.960696
vn 0.119907 -0.240646 -0.963178
vn 0.012806 -0.026282 -0.999573
vn -0.000489 -0.101525 -0.994833
vn 0.033312 0.334310 -0.941874
vn 0.024725 0.706152 -0.707628
vn 0.000015 0.702043 -0.712134
vn 0.000010 0.321497 -0.946911
vn -0.000489 -0.101525 -0.994833
vn 0.012806 -0.026282 -0.999573
vn -0.000035 0.000006 -1.000000
vn -0.520174 0.561802 -0.643271
vn -0.299898 0.153447 -0.941549
vn -0.035883 0.330432 -0.943147
vn -0.024466 0.706101 -0.707688
vn -0.299898 0.153447 -0.941549
vn -0.282806 -0.027459 -0.958784
vn -0.014829 -0.001440 -0.999889
vn -0.035883 0.330432 -0.943147
vn -0.282806 -0.027459 -0.958784
vn -0.216704 -0.153352 -0.964117
vn -0.006829 -0.004955 -0.999964
vn -0.014829 -0.001440 -0.999889
vn -0.216704 -0.153352 -0.964117
vn -0.120688 -0.240570 -0.963100
vn -0.013415 -0.027336 -0.999536
vn -0.006829 -0.004955 -0.999964
vn -0.000489 -0.101525 -0.994833
vn -0.013415 -0.027336 -0.999536
vn -0.120688 -0.240570 -0.963100
vn 0.000111 -0.277601 -0.960696
vn 0.013199 -0.001149 -0.999912
vn 0.280690 -0.026740 -0.959426
vn 0.300385 0.152215 -0.941594
vn 0.033312 0.334310 -0.941874
vn 0.006048 -0.004446 -0.999972
vn 0.217122 -0.153977 -0.963924
vn 0.280690 -0.026740 -0.959426
vn 0.013199 -0.001149 -0.999912
vn 0.119907 -0.240646 -0.963178
vn 0.217122 -0.153977 -0.963924
vn 0.006048 -0.004446 -0.999972
vn 0.012806 -0.026282 -0.999573
vn -0.006829 -0.004955 -0.999964
vn 0.000009 -0.000054 -1.000000
vn 0.000019 0.317307 -0.948323
vn -0.014829 -0.001440 -0.999889
vn 0.000010 0.321497 -0.946911
vn 0.013199 -0.001149 -0.999912
vn 0.033312 0.334310 -0.941874
vn -0.013415 -0.027336 -0.999536
vn 0.000009 -0.000054 -1.000000
vn -0.006829 -0.004955 -0.999964
vn -0.000035 0.000006 -1.000000
vn 0.006048 -0.004446 -0.999972
vn 0.013199 -0.001149 -0.999912
vn 0.000010 0.321497 -0.946911
vn -0.000035 0.000006 -1.000000
vn 0.012806 -0.026282 -0.999573
vn 0.006048 -0.004446 -0.999972
vn -0.000489 -0.101525 -0.994833
vn 0.000009 -0.000054 -1.000000
vn -0.013415 -0.027336 -0.999536
vn -0.960835 0.000000 -0.277123
vn -0.450490 0.080392 -0.889155
vn -0.520174 0.561802 -0.643271
vn -0.358728 -0.028824 -0.932997
vn -0.282806 -0.027459 -0.958784
vn -0.299898 0.153447 -0.941549
vn -0.450490 0.080392 -0.889155
vn -0.276349 -0.202886 -0.939398
vn -0.216704 -0.153352 -0.964117
vn -0.282806 -0.027459 -0.958784
vn -0.358728 -0.028824 -0.932997
vn -0.151782 -0.314636 -0.936999
vn -0.120688 -0.240570 -0.963100
vn -0.216704 -0.153352 -0.964117
vn -0.276349 -0.202886 -0.939398
vn 0.000111 -0.277601 -0.960696
vn -0.120688 -0.240570 -0.963100
vn -0.151782 -0.314636 -0.936999
vn 0.000204 -0.357352 -0.933970
vn 0.151856 -0.314711 -0.936961
vn 0.119907 -0.240646 -0.963178
vn 0.000111 -0.277601 -0.960696
vn 0.000204 -0.357352 -0.933970
vn 0.151856 -0.314711 -0.936961
vn 0.274615 -0.202944 -0.939894
vn 0.217122 -0.153977 -0.963924
vn 0.119907 -0.240646 -0.963178
vn 0.280690 -0.026740 -0.959426
vn 0.217122 -0.153977 -0.963924
vn 0.274615 -0.202944 -0.939894
vn 0.357050 -0.028330 -0.933656
vn 0.300385 0.152215 -0.941594
vn 0.280690 -0.026740 -0.959426
vn 0.357050 -0.028330 -0.933656
vn 0.448339 0.076991 -0.890542
vn 0.448339 0.076991 -0.890542
vn 0.514730 0.561142 -0.648208
vn 0.300385 0.152215 -0.941594
vn -0.342029 0.668725 0.660168
vn -0.378609 0.659761 0.649131
vn -0.497648 0.106019 0.860876
vn -0.472089 0.105998 0.875155
vn -0.301724 0.143718 0.942501
vn -0.441536 0.529672 0.724219
vn -0.021704 0.701879 0.711966
vn -0.037846 0.291292 0.955885
vn -0.472089 0.105998 0.875155
vn -0.497648 0.106019 0.860876
vn -0.500004 -0.000019 0.866023
vn -0.475814 -0.000017 0.879546
vn 0.014827 -0.001439 0.999889
vn 0.472079 0.107784 0.874942
vn 0.040573 0.287321 0.956975
vn 0.472079 0.107784 0.874942
vn 0.475688 -0.000046 0.879614
vn 0.500003 -0.000046 0.866024
vn 0.497486 0.107061 0.860840
vn 0.021487 0.701854 0.711997
vn 0.040573 0.287321 0.956975
vn 0.472079 0.107784 0.874942
vn 0.339764 0.671631 0.658386
vn 0.339764 0.671631 0.658386
vn 0.472079 0.107784 0.874942
vn 0.497486 0.107061 0.860840
vn 0.376542 0.662942 0.647089
vn -0.000112 -0.277601 0.960696
vn -0.119907 -0.240645 0.963178
vn -0.012806 -0.026281 0.999573
vn 0.000490 -0.101523 0.994833
vn -0.037846 0.291292 0.955885
vn -0.021704 0.701879 0.711966
vn -0.342029 0.668725 0.660168
vn -0.472089 0.105998 0.875155
vn 0.000490 -0.101523 0.994833
vn -0.012806 -0.026281 0.999573
vn -0.475814 -0.000017 0.879546
vn 0.446928 0.529429 0.721083
vn 0.301166 0.145401 0.942421
vn 0.040573 0.287321 0.956975
vn 0.021487 0.701854 0.711997
vn 0.301166 0.145401 0.942421
vn 0.282807 -0.027459 0.958784
vn 0.014827 -0.001439 0.999889
vn 0.040573 0.287321 0.956975
vn 0.282807 -0.027459 0.958784
vn 0.216705 -0.153352 0.964117
vn 0.006826 -0.004954 0.999964
vn 0.014827 -0.001439 0.999889
vn 0.216705 -0.153352 0.964117
vn 0.120688 -0.240570 0.963100
vn 0.013415 -0.027336 0.999536
vn 0.006826 -0.004954 0.999964
vn 0.000490 -0.101523 0.994833
vn 0.013415 -0.027336 0.999536
vn 0.120688 -0.240570 0.963100
vn -0.000112 -0.277601 0.960696
vn -0.013201 -0.001149 0.999912
vn -0.280692 -0.026740 0.959425
vn -0.301724 0.143718 0.942501
vn -0.037846 0.291292 0.955885
vn -0.006050 -0.004446 0.999972
vn -0.217121 -0.153977 0.963924
vn -0.280692 -0.026740 0.959425
vn -0.013201 -0.001149 0.999912
vn -0.119907 -0.240645 0.963178
vn -0.217121 -0.153977 0.963924
vn -0.006050 -0.004446 0.999972
vn -0.012806 -0.026281 0.999573
vn 0.006826 -0.004954 0.999964
vn 0.475688 -0.000046 0.879614
vn 0.472079 0.107784 0.874942
vn 0.014827 -0.001439 0.999889
vn -0.472089 0.105998 0.875155
vn -0.013201 -0.001149 0.999912
vn -0.037846 0.291292 0.955885
vn 0.013415 -0.027336 0.999536
vn 0.475688 -0.000046 0.879614
vn 0.006826 -0.004954 0.999964
vn -0.475814 -0.000017 0.879546
vn -0.006050 -0.004446 0.999972
vn -0.013201 -0.001149 0.999912
vn -0.472089 0.105998 0.875155
vn -0.475814 -0.000017 0.879546
vn -0.012806 -0.026281 0.999573
vn -0.006050 -0.004446 0.999972
vn 0.000490 -0.101523 0.994833
vn 0.475688 -0.000046 0.879614
vn 0.013415 -0.027336 0.999536
vn 0.876651 0.000000 0.481127
vn 0.443732 0.058214 0.894267
vn 0.446928 0.529429 0.721083
vn 0.358730 -0.028823 0.932996
vn 0.282807 -0.027459 0.958784
vn 0.301166 0.145401 0.942421
vn 0.443732 0.058214 0.894267
vn 0.276351 -0.202886 0.939397
vn 0.216705 -0.153352 0.964117
vn 0.282807 -0.027459 0.958784
vn 0.358730 -0.028823 0.932996
vn 0.151783 -0.314636 0.936998
vn 0.120688 -0.240570 0.963100
vn 0.216705 -0.153352 0.964117
vn 0.276351 -0.202886 0.939397
vn -0.000112 -0.277601 0.960696
vn 0.120688 -0.240570 0.963100
vn 0.151783 -0.314636 0.936998
vn -0.000205 -0.357353 0.933969
vn -0.151856 -0.314712 0.936961
vn -0.119907 -0.240645 0.963178
vn -0.000112 -0.277601 0.960696
vn -0.000205 -0.357353 0.933969
vn -0.151856 -0.314712 0.936961
vn -0.274615 -0.202945 0.939894
vn -0.217121 -0.153977 0.963924
vn -0.119907 -0.240645 0.963178
vn -0.280692 -0.026740 0.959425
vn -0.217121 -0.153977 0.963924
vn -0.274615 -0.202945 0.939894
vn -0.357050 -0.028330 0.933656
vn -0.301724 0.143718 0.942501
vn -0.280692 -0.026740 0.959425
vn -0.357050 -0.028330 0.933656
vn -0.441604 0.055747 0.895476
vn -0.441604 0.055747 0.895476
vn -0.441536 0.529672 0.724219
vn -0.301724 0.143718 0.942501
vn -0.999308 -0.000001 -0.037197
vn -0.995691 -0.085012 -0.037056
vn -0.995804 -0.083677 -0.037061
vn -0.999308 -0.000001 -0.037197
vn 0.816017 -0.577229 0.030360
vn 0.995804 -0.083677 0.037061
vn 0.995691 -0.085012 0.037056
vn 0.812747 -0.581831 0.030238
vn 0.442905 -0.896417 0.016478
vn 0.816017 -0.577229 0.030360
vn 0.812747 -0.581831 0.030238
vn 0.433264 -0.901123 0.016119
vn 0.005081 -0.999987 0.000189
vn 0.442905 -0.896417 0.016478
vn 0.433264 -0.901123 0.016119
vn -0.005082 -0.999987 -0.000189
vn -0.433265 -0.901123 -0.016119
vn 0.005081 -0.999987 0.000189
vn -0.005082 -0.999987 -0.000189
vn -0.442906 -0.896417 -0.016477
vn -0.812747 -0.581831 -0.030237
vn -0.433265 -0.901123 -0.016119
vn -0.442906 -0.896417 -0.016477
vn -0.816017 -0.577230 -0.030359
vn -0.995691 -0.085012 -0.037056
vn -0.812747 -0.581831 -0.030237
vn -0.816017 -0.577230 -0.030359
vn -0.995804 -0.083677 -0.037061
vn 0.995804 -0.083677 0.037061
vn 0.999308 -0.000001 0.037197
vn 0.999308 -0.000001 0.037197
vn 0.995691 -0.085012 0.037056
vn -0.999308 -0.000001 -0.037197
vn -0.999308 -0.000001 -0.037197
vn -0.999308 0.000000 -0.037210
vn -0.999308 0.000000 -0.037210
vn 0.999308 -0.000001 0.037197
vn 0.999308 -0.000001 0.037197
vn 0.999308 0.000000 0.037210
vn 0.999308 0.000000 0.037210
vn -0.520174 0.561802 -0.643271
vn -0.450490 0.080392 -0.889155
vn -0.299898 0.153447 -0.941549
vn 0.448339 0.076991 -0.890542
vn 0.957287 0.000000 -0.289140
vn 0.514730 0.561142 -0.648208
vn 0.446928 0.529429 0.721083
vn 0.443732 0.058214 0.894267
vn 0.301166 0.145401 0.942421
vn -0.441604 0.055747 0.895476
vn -0.871661 0.000000 0.490110
vn -0.441536 0.529672 0.724219
s off
g RuinRoundWallPiece02:pCylinder9
usemtl blinn1SG
f 38/1/1 39/2/2 19/3/3 20/4/4
f 26/5/5 13/6/6 25/7/7
f 24/8/8 25/7/9 13/6/10 16/9/11
f 34/10/12 35/11/13 23/12/14 18/13/15
f 20/4/16 19/3/17 1/14/18 2/15/19
f 18/13/20 23/12/21 5/16/22
f 29/17/23 30/18/24 25/7/25 24/8/26
f 30/18/27 31/19/28 26/5/29 25/7/30
f 31/19/31 32/20/32 27/21/33 26/5/34
f 32/20/35 33/22/36 28/23/37 27/21/38
f 18/13/39 28/23/40 33/22/41 34/10/42
f 21/24/43 37/25/44 38/1/45 20/4/46
f 22/26/47 36/27/48 37/25/49 21/24/50
f 35/11/51 36/27/52 22/26/53 23/12/54
f 27/21/55 6/28/56 13/6/57 26/5/58
f 2/15/59 21/24/60 20/4/61
f 28/23/62 6/28/63 27/21/64
f 5/16/65 22/26/66 21/24/67 2/15/68
f 5/16/69 23/12/70 22/26/71
f 18/13/72 6/28/73 28/23/74
f 17/29/75 14/30/76 29/17/77
f 15/31/78 31/19/79 30/18/80 14/30/81
f 7/32/82 32/20/83 31/19/84 15/31/85
f 8/33/86 33/22/87 32/20/88 7/32/89
f 34/10/90 33/22/91 8/33/92 9/34/93
f 10/35/94 35/11/95 34/10/96 9/34/97
f 10/35/98 11/36/99 36/27/100 35/11/101
f 37/25/102 36/27/103 11/36/104 12/37/105
f 38/1/106 37/25/107 12/37/108 4/38/109
f 4/38/110 39/2/111 38/1/112
f 42/39/113 40/40/114 41/41/115 43/42/116
f 83/43/117 84/44/118 64/45/119 65/46/120
f 43/42/121 41/41/122 45/47/123 47/48/124
f 71/49/125 55/50/126 70/51/127
f 55/50/128 48/52/129 58/53/130 60/54/131
f 69/55/132 70/51/133 55/50/134 59/56/135
f 59/56/136 55/50/137 60/54/138 62/57/139
f 79/58/140 80/59/141 68/60/142 63/61/143
f 65/46/144 64/45/145 42/39/146 43/42/147
f 63/61/148 68/60/149 47/48/150
f 74/62/151 75/63/152 70/51/153 69/55/154
f 75/63/155 76/64/156 71/49/157 70/51/158
f 76/64/159 77/65/160 72/66/161 71/49/162
f 77/65/163 78/67/164 73/68/165 72/66/166
f 63/61/167 73/68/168 78/67/169 79/58/170
f 66/69/171 82/70/172 83/43/173 65/46/174
f 67/71/175 81/72/176 82/70/177 66/69/178
f 80/59/179 81/72/180 67/71/181 68/60/182
f 72/66/183 48/52/184 55/50/185 71/49/186
f 43/42/187 66/69/188 65/46/189
f 73/68/190 48/52/191 72/66/192
f 47/48/193 67/71/194 66/69/195 43/42/196
f 47/48/197 68/60/198 67/71/199
f 63/61/200 48/52/201 73/68/202
f 61/73/203 56/74/204 74/62/205
f 57/75/206 76/64/207 75/63/208 56/74/209
f 49/76/210 77/65/211 76/64/212 57/75/213
f 50/77/214 78/67/215 77/65/216 49/76/217
f 79/58/218 78/67/219 50/77/220 51/78/221
f 52/79/222 80/59/223 79/58/224 51/78/225
f 52/79/226 53/80/227 81/72/228 80/59/229
f 82/70/230 81/72/231 53/80/232 54/81/233
f 83/43/234 82/70/235 54/81/236 46/82/237
f 46/82/238 84/44/239 83/43/240
f 46/82/241 54/81/242 15/83/243 14/84/244
f 49/85/245 57/86/246 12/87/247 11/88/248
f 50/89/249 49/85/250 11/88/251 10/90/252
f 51/91/253 50/89/254 10/90/255 9/92/256
f 52/93/257 51/91/258 9/92/259 8/94/260
f 53/95/261 52/93/262 8/94/263 7/96/264
f 54/97/265 53/95/266 7/96/267 15/98/268
f 57/75/269 56/74/270 4/99/271 12/100/272
f 46/82/273 14/84/274 17/101/275 44/102/276
f 4/99/277 56/74/278 61/73/279 3/103/280
f 29/17/281 14/30/282 30/18/283
f 4/38/284 3/104/285 39/2/286
f 74/62/287 56/74/288 75/63/289
f 46/82/290 44/102/291 84/44/292
