# This file uses centimeters as units for non-parametric coordinates.

mtllib RuinRoof02COL.mtl
g default
v -9.283068 -0.273399 40.645264
v -10.226211 -0.965416 38.194462
v -12.268950 -0.273399 39.844669
v -0.582541 15.404589 7.812091
v -2.277428 13.312293 8.164960
v -3.568424 15.404589 7.011493
v -10.776011 -0.273399 40.244965
v 12.146364 -0.233645 39.643940
v 10.133463 -0.916464 38.012356
v 9.198870 -0.233645 40.429047
v 3.637043 15.265169 7.554416
v 2.361334 13.200686 8.690452
v 0.689551 15.265169 8.339516
v 10.672616 -0.233645 40.036495
v 10.735781 0.000000 -40.065613
v -10.735673 0.000000 -40.064846
v -29.329695 0.000000 -29.329695
v -40.065613 0.000000 -10.735781
v -40.064846 0.000000 10.735669
v -29.329300 0.000000 29.329971
v -10.735781 0.000000 40.065613
v 10.735673 0.000000 40.064846
v 29.329967 0.000000 29.329296
v 40.065613 0.000000 10.735781
v 40.064846 0.000000 -10.735673
v 29.329695 0.000000 -29.329695
v 2.277247 13.216876 -8.498802
v -2.277247 13.216876 -8.498802
v -6.221555 13.216876 -6.221555
v -8.498802 13.216876 -2.277247
v -8.498802 13.216876 2.277247
v -6.221555 13.216876 6.221555
v -2.277247 13.216876 8.498802
v 2.277247 13.216876 8.498802
v 6.221555 13.216876 6.221555
v 8.498802 13.216876 2.277247
v 8.498802 13.216876 -2.277247
v 6.221555 13.216876 -6.221555
v 0.000000 15.243282 0.000000
v 6.563781 7.486294 24.495747
v -6.563835 7.486294 24.496130
v -0.000027 9.585110 20.143576
v 0.000000 13.216876 8.498802
v 3.281877 9.192715 20.955057
v -3.281931 9.192715 20.955248
v 10.793222 1.117726 40.704758
v 2.283902 16.616541 8.615232
v -10.898993 1.096177 40.922031
v -2.198466 16.774164 8.088857
vt 0.917209 0.884468
vt 0.917311 0.351875
vt 0.888149 0.864210
vt 0.887761 0.371532
vt 0.859120 0.884513
vt 0.858179 0.351922
vt 0.975688 0.884479
vt 0.975790 0.351887
vt 0.441165 0.054314
vt 0.441171 0.033225
vt 0.471636 0.033229
vt 0.441170 0.012136
vt 0.975302 0.351441
vt 0.975228 0.883599
vt 0.858829 0.351368
vt 0.857712 0.883524
vt 0.887827 0.371664
vt 0.887276 0.863940
vt 0.916870 0.351433
vt 0.916796 0.883591
vt 0.441216 0.054452
vt 0.441171 0.033237
vt 0.471818 0.033169
vt 0.441121 0.012022
vt 0.303824 0.889199
vt 0.303824 0.819992
vt 0.432967 0.854595
vt 0.036283 0.775371
vt 0.036414 0.449063
vt 0.509606 0.576050
vt 0.509577 0.648754
vt 0.036998 0.350065
vt 0.036986 0.023742
vt 0.510238 0.150552
vt 0.510237 0.223256
vt 0.036494 0.775205
vt 0.036343 0.448899
vt 0.509649 0.575465
vt 0.509685 0.648169
vt 0.510687 0.236902
vt 0.273464 0.499274
vt 0.036990 0.435330
vt 0.037157 0.362626
vt 0.252822 0.283894
vt 0.311502 0.235188
vt 0.510396 0.186893
vt 0.510292 0.222516
vt 0.273010 0.712084
vt 0.036448 0.449129
vt 0.509665 0.576028
vt 0.509650 0.648732
vt 0.510509 0.236987
vt 0.509857 0.563303
vt 0.036870 0.435555
vt 0.037015 0.362851
vt 0.037110 0.350006
vt 0.037099 0.023682
vt 0.510350 0.150493
vt 0.510350 0.223197
vt 0.510068 0.236380
vt 0.510721 0.562693
vt 0.037221 0.436849
vt 0.037074 0.364145
vt 0.036709 0.775422
vt 0.036111 0.449114
vt 0.509585 0.575044
vt 0.509719 0.647748
vt 0.037073 0.350033
vt 0.037062 0.023709
vt 0.510313 0.150520
vt 0.510313 0.223224
vt 0.510381 0.236403
vt 0.509926 0.562716
vt 0.036856 0.435264
vt 0.036955 0.362560
vt 0.467571 0.983738
vt 0.398363 0.983739
vt 0.398363 0.725453
vt 0.432967 0.725453
vt 0.562110 0.819992
vt 0.562111 0.889199
vt 0.527506 0.949134
vt 0.527506 0.760056
vt 0.467571 0.725452
vt 0.338427 0.760056
vt 0.338427 0.949135
vt 0.509939 0.563217
vt 0.036369 0.775435
vt 0.311787 0.137431
vt 0.253390 0.088381
vt 0.510501 0.151270
vt 0.325070 0.186349
vt 0.945440 0.350857
vt 0.945366 0.883015
vt 0.945798 0.885052
vt 0.945901 0.352460
vt 0.420272 0.033999
vt 0.441226 0.054452
vt 0.441175 0.054314
vt 0.420146 0.032517
vn 0.939773 0.131940 0.315308
vn 0.942188 0.123024 0.311683
vn -0.108563 0.907412 0.405977
vn -0.109114 0.907412 0.405829
vn 0.108578 -0.907870 -0.404948
vn 0.942188 0.123024 0.311683
vn 0.939773 0.131940 0.315308
vn 0.108578 -0.907870 -0.404949
vn -0.971734 0.123025 -0.201492
vn 0.108578 -0.907870 -0.404948
vn 0.108578 -0.907870 -0.404949
vn -0.971455 0.131941 -0.197145
vn -0.108563 0.907412 0.405977
vn -0.971734 0.123025 -0.201492
vn -0.971455 0.131941 -0.197145
vn -0.109114 0.907412 0.405829
vn -0.080264 -0.950762 0.299348
vn -0.076927 -0.954865 0.286906
vn -0.078190 -0.953335 0.291614
vn -0.076927 -0.954865 0.286906
vn -0.080264 -0.950762 0.299348
vn -0.078190 -0.953335 0.291614
vn 0.971779 0.131940 -0.195544
vn 0.972064 0.123025 -0.199891
vn 0.107894 0.907412 0.406155
vn 0.108445 0.907412 0.406009
vn -0.107911 -0.907870 -0.405127
vn 0.972064 0.123025 -0.199891
vn 0.971779 0.131940 -0.195544
vn -0.107911 -0.907870 -0.405127
vn -0.942700 0.123025 0.310131
vn -0.107911 -0.907870 -0.405127
vn -0.107911 -0.907870 -0.405127
vn -0.940291 0.131941 0.313760
vn 0.107894 0.907412 0.406155
vn -0.942700 0.123025 0.310131
vn -0.940291 0.131941 0.313760
vn 0.108445 0.907412 0.406009
vn 0.079770 -0.950762 0.299480
vn 0.076454 -0.954865 0.287032
vn 0.077709 -0.953335 0.291742
vn 0.076456 -0.954865 0.287032
vn 0.079770 -0.950762 0.299480
vn 0.077709 -0.953335 0.291742
vn -0.069767 -0.997388 0.018694
vn -0.069767 -0.997388 -0.018694
vn 0.000000 -1.000000 0.000000
vn -0.297862 -0.906951 0.297857
vn -0.406885 -0.906950 0.109027
vn -0.406092 -0.907331 0.108815
vn -0.297283 -0.907331 0.297276
vn -0.406885 -0.906950 0.109027
vn -0.406880 -0.906953 -0.109020
vn -0.406088 -0.907333 -0.108806
vn -0.406092 -0.907331 0.108815
vn -0.406880 -0.906953 -0.109020
vn -0.325363 -0.906253 -0.269898
vn -0.317339 -0.907053 -0.276679
vn -0.406088 -0.907333 -0.108806
vn -0.325363 -0.906253 -0.269898
vn -0.212168 -0.901701 -0.376722
vn -0.190271 -0.904512 -0.381647
vn -0.317339 -0.907053 -0.276679
vn -0.212168 -0.901701 -0.376722
vn -0.000821 -0.901374 -0.433040
vn -0.000006 -0.904835 -0.425762
vn -0.190271 -0.904512 -0.381647
vn 0.212172 -0.901704 -0.376714
vn 0.325369 -0.906252 -0.269894
vn 0.317347 -0.907052 -0.276672
vn 0.190272 -0.904515 -0.381640
vn 0.325369 -0.906252 -0.269894
vn 0.406884 -0.906950 -0.109030
vn 0.406092 -0.907330 -0.108817
vn 0.317347 -0.907052 -0.276672
vn 0.406884 -0.906950 -0.109030
vn 0.406880 -0.906953 0.109021
vn 0.406088 -0.907333 0.108808
vn 0.406092 -0.907330 -0.108817
vn 0.406880 -0.906953 0.109021
vn 0.297857 -0.906951 0.297862
vn 0.297276 -0.907331 0.297283
vn 0.406088 -0.907333 0.108808
vn 0.297857 -0.906951 0.297862
vn 0.109027 -0.906950 0.406885
vn 0.108815 -0.907331 0.406092
vn 0.297276 -0.907331 0.297283
vn 0.109027 -0.906950 0.406885
vn -0.109021 -0.906953 0.406880
vn -0.108808 -0.907333 0.406088
vn 0.108815 -0.907331 0.406092
vn -0.109021 -0.906953 0.406880
vn -0.297862 -0.906951 0.297857
vn -0.297283 -0.907331 0.297276
vn -0.108808 -0.907333 0.406088
vn 0.018694 -0.997388 0.069767
vn -0.018694 -0.997388 0.069767
vn 0.000000 -1.000000 0.000000
vn 0.000000 -1.000000 0.000000
vn -0.024925 -0.997367 -0.068096
vn 0.000000 -0.998337 -0.057646
vn 0.069767 -0.997388 -0.018694
vn 0.069767 -0.997388 0.018694
vn 0.000000 -1.000000 0.000000
vn 0.069767 -0.997388 0.018694
vn 0.051073 -0.997388 0.051073
vn 0.000000 -1.000000 0.000000
vn 0.051073 -0.997388 -0.051073
vn 0.069767 -0.997388 -0.018694
vn 0.000000 -1.000000 0.000000
vn 0.000000 -1.000000 0.000000
vn 0.024925 -0.997367 -0.068096
vn 0.051073 -0.997388 -0.051073
vn 0.000000 -1.000000 0.000000
vn -0.051073 -0.997388 -0.051073
vn -0.024925 -0.997367 -0.068096
vn 0.000000 -1.000000 0.000000
vn -0.069767 -0.997388 -0.018694
vn -0.051073 -0.997388 -0.051073
vn -0.051073 -0.997388 0.051073
vn -0.069767 -0.997388 0.018694
vn 0.000000 -1.000000 0.000000
vn -0.018694 -0.997388 0.069767
vn -0.051073 -0.997388 0.051073
vn 0.000000 -1.000000 0.000000
vn 0.051073 -0.997388 0.051073
vn 0.018694 -0.997388 0.069767
vn 0.000000 -1.000000 0.000000
vn -0.325363 -0.906253 -0.269898
vn -0.216675 -0.901227 -0.375288
vn -0.212168 -0.901701 -0.376722
vn 0.216681 -0.901230 -0.375279
vn 0.325369 -0.906252 -0.269894
vn 0.212172 -0.901704 -0.376714
vn -0.000006 -0.904835 -0.425762
vn 0.000807 -0.901376 -0.433036
vn 0.212172 -0.901704 -0.376714
vn 0.190272 -0.904515 -0.381640
vn 0.000000 -1.000000 0.000000
vn 0.000000 -0.998337 -0.057646
vn 0.024925 -0.997367 -0.068096
vn -0.000006 -0.904835 -0.425762
vn -0.000821 -0.901374 -0.433040
vn -0.000013 -0.901418 -0.432950
vn -0.000006 -0.904835 -0.425762
vn -0.000013 -0.901418 -0.432950
vn 0.000807 -0.901376 -0.433036
vn -0.232756 -0.441099 0.866751
vn -0.231335 -0.447760 0.863710
vn -0.233263 -0.434490 0.869946
vn 0.231323 -0.441122 0.867122
vn 0.231821 -0.434493 0.870330
vn 0.229909 -0.447808 0.864066
vn -0.233256 -0.434494 0.869946
vn -0.231335 -0.447760 0.863710
vn -0.232756 -0.441099 0.866751
vn 0.231323 -0.441122 0.867122
vn 0.229909 -0.447808 0.864066
vn 0.231822 -0.434490 0.870331
s off
g RuinRoof05:polySurface10
usemtl lambert2SG
f 1/1/1 4/2/2 49/96/3 48/95/4
f 5/4/5 4/2/6 1/1/7 2/3/8
f 6/6/9 5/4/10 2/3/11 3/5/12
f 49/96/13 6/8/14 3/7/15 48/95/16
f 2/11/17 1/9/18 7/10/19
f 3/12/20 2/11/21 7/10/22
f 8/13/23 11/14/24 47/94/25 46/93/26
f 12/18/27 11/16/28 8/15/29 9/17/30
f 13/20/31 12/18/32 9/17/33 10/19/34
f 47/94/35 13/20/36 10/19/37 46/93/38
f 9/23/39 8/21/40 14/22/41
f 10/24/42 9/23/43 14/22/44
f 37/25/45 36/26/46 39/27/47
f 26/28/48 25/29/49 37/30/50 38/31/51
f 25/32/52 24/33/53 36/34/54 37/35/55
f 24/36/56 23/37/57 35/38/58 36/39/59
f 23/40/60 40/41/61 34/42/62 35/43/63
f 40/44/64 44/45/65 43/46/66 34/47/67
f 41/48/68 20/49/69 32/50/70 33/51/71
f 20/52/72 19/53/73 31/54/74 32/55/75
f 19/56/76 18/57/77 30/58/78 31/59/79
f 18/60/80 17/61/81 29/62/82 30/63/83
f 17/64/84 16/65/85 28/66/86 29/67/87
f 16/68/88 15/69/89 27/70/90 28/71/91
f 15/72/92 26/73/93 38/74/94 27/75/95
f 28/76/96 27/77/97 39/27/98
f 39/27/99 34/78/100 43/79/101
f 31/80/102 30/81/103 39/27/104
f 30/81/105 29/82/106 39/27/107
f 32/83/108 31/80/109 39/27/110
f 39/27/111 33/84/112 32/83/113
f 39/27/114 35/85/115 34/78/116
f 39/27/117 36/26/118 35/85/119
f 38/86/120 37/25/121 39/27/122
f 27/77/123 38/86/124 39/27/125
f 29/82/126 28/76/127 39/27/128
f 23/40/129 22/87/130 40/41/131
f 21/88/132 20/49/133 41/48/134
f 43/46/135 45/89/136 41/90/137 33/91/138
f 39/27/139 43/79/140 33/84/141
f 43/46/142 44/45/143 42/92/144
f 43/46/145 42/92/146 45/89/147
f 7/10/148 48/97/149 3/12/150
f 14/22/151 8/98/152 46/100/153
f 1/99/154 48/97/155 7/10/156
f 14/22/157 46/100/158 10/24/159
