# This file uses centimeters as units for non-parametric coordinates.

mtllib KiwiRUpperCanine.mtl
g default
v -0.295425 1.521212 0.117505
v 0.390640 1.505722 0.115625
v 0.546522 0.813040 0.084847
v 0.253765 0.868422 0.391691
v -0.185941 0.878349 0.392896
v 0.265302 1.389503 0.308649
v -0.174403 1.399430 0.309854
v -0.471038 1.357355 0.004626
v 0.558059 1.334121 0.001806
v 0.271095 1.690010 -0.053042
v -0.168610 1.699938 -0.051837
v 0.040164 1.146065 0.427013
v -0.370240 0.864868 0.283683
v 0.034150 0.879424 0.429234
v -0.196310 1.145145 0.388385
v 0.436666 0.846650 0.281472
v 0.276139 1.134478 0.387090
v 0.046113 1.419754 0.343124
v 0.447777 1.348482 0.201498
v 0.253052 1.589978 0.164280
v -0.359128 1.366700 0.203709
v -0.153909 1.599166 0.165395
v -0.355125 1.572426 -0.030353
v 0.052225 1.739321 -0.059507
v 0.451781 1.554208 -0.032564
v 0.589712 1.072735 0.043224
v -0.514229 1.097660 0.046249
v -0.394101 1.130925 0.271676
v 0.472445 1.111360 0.269301
v 0.050540 1.634602 0.188662
v -0.482575 0.836274 0.087668
v -0.145591 0.608064 0.325176
v -0.290815 0.597441 0.239119
v 0.027835 0.608911 0.353810
v 0.200887 0.600241 0.324226
v 0.345010 0.583085 0.237376
v 0.431845 0.563429 0.125318
v -0.379062 0.581737 0.127540
v -0.096136 0.434522 0.260139
v -0.196453 0.428153 0.207019
v 0.023696 0.434804 0.277784
v 0.143295 0.429116 0.259483
v 0.242929 0.418233 0.205815
v 0.302867 0.402933 0.117358
v -0.257504 0.415585 0.118894
v -0.043201 0.287345 0.115095
v -0.095983 0.286114 0.100251
v 0.019921 0.286759 0.119967
v 0.082977 0.284496 0.114749
v 0.135568 0.280886 0.099617
v 0.167292 0.276255 0.074745
v -0.128019 0.282922 0.075554
v -0.069345 0.176808 0.076272
v -0.052541 0.179261 0.094000
v -0.019584 0.179498 0.100067
v 0.017439 0.178999 0.102078
v 0.054436 0.177827 0.099864
v 0.087314 0.176103 0.093617
v 0.103893 0.172897 0.075797
v 0.034156 0.884351 0.390929
v -0.173015 0.883480 0.356866
v 0.039924 1.140091 0.388858
v -0.182950 1.139147 0.352649
v -0.343697 0.870726 0.256248
v -0.366306 1.126003 0.245319
v 0.410265 0.853703 0.254182
v 0.240887 0.874135 0.355732
v 0.444312 1.107701 0.243097
v 0.262327 1.129093 0.351428
v 0.251178 1.373085 0.276672
v 0.045624 1.402267 0.308694
v 0.420655 1.334308 0.177940
v 0.366369 1.483145 0.095809
v 0.238662 1.562370 0.141427
v 0.049794 1.604476 0.164508
v -0.161210 1.382396 0.277802
v -0.332803 1.351319 0.180005
v -0.140905 1.570940 0.142467
v -0.272306 1.497564 0.097559
v -0.155494 1.668001 -0.067656
v -0.330905 1.548106 -0.046732
v 0.051402 1.704762 -0.075007
v 0.256465 1.658700 -0.068785
v 0.426398 1.531007 -0.048808
v 0.526252 1.321253 -0.014992
v 0.555981 1.070532 0.025349
v 0.514723 0.820709 0.064947
v -0.450572 0.842504 0.067592
v -0.480729 1.093939 0.028190
v -0.439937 1.343067 -0.012344
v -0.267279 0.611801 0.212075
v -0.133648 0.621052 0.290822
v 0.028022 0.621624 0.317342
v 0.189355 0.613759 0.289936
v 0.321999 0.598496 0.210460
v 0.404501 0.579630 0.103906
v -0.351131 0.596690 0.105977
v -0.178099 0.450808 0.181693
v -0.086990 0.456221 0.229529
v 0.024097 0.456464 0.245812
v 0.134970 0.451210 0.228920
v 0.225478 0.441696 0.180587
v 0.281714 0.427511 0.097218
v -0.235374 0.439186 0.098636
v -0.078703 0.300333 0.041308
v -0.034606 0.292324 0.040173
v 0.019810 0.291084 0.043827
v 0.074206 0.289867 0.039874
v 0.118625 0.295878 0.040768
v 0.157527 0.295844 0.053563
v -0.117497 0.302053 0.054317
v -0.051999 0.170139 0.036770
v -0.019304 0.168466 0.030848
v 0.016962 0.167024 0.026840
v 0.053278 0.166827 0.030649
v 0.086047 0.167022 0.036391
v 0.105850 0.170070 0.058244
v -0.071524 0.174075 0.058730
v 0.106040 0.039820 0.086205
v 0.085847 0.036642 0.063736
v 0.051838 0.036377 0.057622
v 0.014091 0.036573 0.053691
v -0.023605 0.038081 0.057829
v -0.057533 0.039879 0.064129
v -0.077439 0.043963 0.086707
v -0.075428 0.046825 0.104808
v -0.058001 0.049387 0.123152
v -0.023817 0.049627 0.129432
v 0.014587 0.049105 0.131513
v 0.052963 0.047893 0.129221
v 0.087067 0.046112 0.122754
v 0.104260 0.042768 0.104315
v 0.013233 -0.007618 0.104926
vt 0.114058 0.204671
vt 0.113231 0.155617
vt 0.154521 0.156137
vt 0.154522 0.204193
vt 0.074064 0.207497
vt 0.072645 0.154947
vt 0.194984 0.204660
vt 0.195812 0.155608
vt 0.236384 0.154930
vt 0.234967 0.207469
vt 0.154520 0.106306
vt 0.193153 0.108103
vt 0.231746 0.107551
vt 0.192290 0.063787
vt 0.223719 0.071391
vt 0.154521 0.060699
vt 0.077283 0.107549
vt 0.115885 0.108098
vt 0.116749 0.063780
vt 0.085313 0.071374
vt 0.061376 0.042845
vt 0.105779 0.014841
vt 0.154525 0.005990
vt 0.203264 0.014856
vt 0.247650 0.042868
vt 0.278073 0.092806
vt 0.290267 0.152908
vt 0.283907 0.214661
vt 0.018739 0.152933
vt 0.025115 0.214685
vt 0.030936 0.092820
vt 0.119259 0.262464
vt 0.084574 0.267800
vt 0.154525 0.260529
vt 0.189790 0.262452
vt 0.224473 0.267781
vt 0.256919 0.276718
vt 0.052136 0.276741
vt 0.128921 0.302011
vt 0.105301 0.308312
vt 0.154527 0.299831
vt 0.180133 0.302001
vt 0.203759 0.308293
vt 0.226364 0.321544
vt 0.082697 0.321565
vt 0.140152 0.363914
vt 0.128502 0.362109
vt 0.154521 0.363534
vt 0.168890 0.363918
vt 0.180546 0.362114
vt 0.191306 0.359978
vt 0.117746 0.359974
vt 0.144944 0.396186
vt 0.136200 0.396211
vt 0.154523 0.396174
vt 0.164099 0.396186
vt 0.172845 0.396212
vt 0.180659 0.396359
vt 0.128385 0.396358
vt 0.326761 0.643126
vt 0.367076 0.644590
vt 0.367027 0.692732
vt 0.324730 0.692403
vt 0.286186 0.639795
vt 0.282197 0.692453
vt 0.407394 0.643201
vt 0.447685 0.640096
vt 0.451513 0.692468
vt 0.409323 0.692381
vt 0.407998 0.742184
vt 0.367034 0.744679
vt 0.448999 0.741673
vt 0.442475 0.780597
vt 0.408883 0.791013
vt 0.367107 0.795277
vt 0.326024 0.742330
vt 0.284809 0.742006
vt 0.325312 0.791280
vt 0.291470 0.781078
vt 0.310909 0.844281
vt 0.265074 0.809121
vt 0.367255 0.855433
vt 0.423507 0.843922
vt 0.469000 0.808260
vt 0.496892 0.754039
vt 0.505461 0.692019
vt 0.495038 0.631275
vt 0.227621 0.691949
vt 0.238383 0.630597
vt 0.236385 0.754754
vt 0.299161 0.583122
vt 0.333006 0.589350
vt 0.367145 0.591673
vt 0.401289 0.589507
vt 0.435106 0.583548
vt 0.465299 0.573756
vt 0.268874 0.572949
vt 0.320144 0.546569
vt 0.342897 0.552494
vt 0.367161 0.554496
vt 0.391492 0.552595
vt 0.414367 0.546791
vt 0.434938 0.534259
vt 0.299708 0.533892
vt 0.340695 0.505678
vt 0.353038 0.507813
vt 0.367115 0.508444
vt 0.381315 0.507801
vt 0.393760 0.505637
vt 0.402322 0.501655
vt 0.332210 0.501707
vt 0.347428 0.469143
vt 0.356762 0.469284
vt 0.367177 0.469338
vt 0.377594 0.469271
vt 0.386930 0.469120
vt 0.393600 0.469033
vt 0.340759 0.469067
vt 0.306921 0.853067
vt 0.258032 0.815012
vt 0.367294 0.865042
vt 0.427548 0.852692
vt 0.476103 0.814038
vt 0.505673 0.756599
vt 0.514349 0.691867
vt 0.503513 0.628694
vt 0.218605 0.691796
vt 0.229857 0.627939
vt 0.227508 0.757375
vt 0.473204 0.569222
vt 0.260973 0.568303
vt 0.442123 0.528450
vt 0.292603 0.528049
vt 0.407741 0.497608
vt 0.326840 0.497718
vt 0.398221 0.468963
vt 0.336135 0.469003
vt 0.181563 0.431339
vt 0.399160 0.433453
vt 0.173562 0.431193
vt 0.164478 0.431168
vt 0.154522 0.431154
vt 0.144564 0.431168
vt 0.135483 0.431192
vt 0.335171 0.433491
vt 0.127480 0.431338
vt 0.339955 0.433499
vt 0.346841 0.433532
vt 0.356452 0.433650
vt 0.367165 0.433696
vt 0.377878 0.433638
vt 0.387492 0.433510
vt 0.394378 0.433468
vt 0.154521 0.444848
vt 0.393973 0.419625
vt 0.353755 0.419717
vn 0.328877 0.127101 -0.935781
vn 0.336329 -0.155061 -0.928891
vn -0.006244 -0.156651 -0.987634
vn 0.000034 0.121976 -0.992533
vn 0.696604 0.142446 -0.703172
vn 0.731805 -0.122718 -0.670375
vn -0.327927 0.141930 -0.933981
vn -0.348068 -0.139609 -0.927016
vn -0.740259 -0.089482 -0.666340
vn -0.693307 0.173828 -0.699364
vn -0.012371 -0.438884 -0.898459
vn -0.345972 -0.408240 -0.844774
vn -0.717389 -0.339428 -0.608393
vn -0.347239 -0.723902 -0.596146
vn -0.633191 -0.581810 -0.510458
vn -0.019356 -0.781652 -0.623415
vn 0.697995 -0.371384 -0.612272
vn 0.322562 -0.423333 -0.846607
vn 0.310943 -0.738762 -0.597950
vn 0.603481 -0.609731 -0.513847
vn 0.494683 -0.559347 -0.665147
vn 0.245664 -0.757429 -0.604938
vn -0.020035 -0.817516 -0.575558
vn -0.282909 -0.745496 -0.603489
vn -0.523060 -0.536368 -0.662357
vn -0.721139 -0.297260 -0.625776
vn -0.780455 -0.081483 -0.619880
vn -0.729668 0.116607 -0.673786
vn 0.772574 -0.116546 -0.624136
vn 0.730485 0.083639 -0.677788
vn 0.703549 -0.329426 -0.629681
vn 0.306988 0.314055 -0.898403
vn 0.620234 0.340609 -0.706608
vn 0.004336 0.307523 -0.951531
vn -0.297418 0.327701 -0.896747
vn -0.608091 0.368342 -0.703242
vn -0.602892 0.271144 -0.750335
vn 0.610395 0.243750 -0.753660
vn 0.226617 0.563592 -0.794361
vn 0.459355 0.557629 -0.691407
vn 0.010658 0.571646 -0.820431
vn -0.205298 0.573344 -0.793177
vn -0.437501 0.577878 -0.688949
vn -0.329647 0.421972 -0.844555
vn 0.343723 0.406770 -0.846400
vn 0.099141 0.645451 -0.757340
vn 0.144139 0.629027 -0.763904
vn 0.013030 0.667467 -0.744525
vn -0.074057 0.649361 -0.756866
vn -0.119786 0.634986 -0.763181
vn 0.028149 0.423705 -0.905363
vn -0.013957 0.424656 -0.905247
vn -0.090330 -0.052045 -0.994551
vn -0.364841 -0.095091 -0.926201
vn -0.003626 -0.039364 -0.999218
vn 0.082441 -0.055946 -0.995025
vn 0.355098 -0.111346 -0.928174
vn 0.779165 -0.190036 -0.597317
vn -0.790206 -0.154605 -0.593019
vn -0.494791 -0.329311 -0.804199
vn -0.907461 -0.254030 -0.334639
vn -0.152316 -0.322245 -0.934322
vn -0.009867 -0.322124 -0.946646
vn 0.132496 -0.328675 -0.935103
vn 0.475011 -0.351206 -0.806858
vn 0.893224 -0.294689 -0.339573
vn -0.331951 -0.125832 0.934866
vn -0.000004 -0.120685 0.992691
vn 0.006258 0.157320 0.987528
vn -0.339238 0.155366 0.927782
vn -0.692954 -0.141228 0.707014
vn -0.727713 0.123459 0.674679
vn 0.331049 -0.140801 0.933049
vn 0.689737 -0.172447 0.703225
vn 0.736228 0.090406 0.670667
vn 0.350982 0.139782 0.925890
vn 0.347101 0.409964 0.843475
vn 0.012434 0.441853 0.897001
vn 0.713434 0.340679 0.612332
vn 0.630699 0.582359 0.512910
vn 0.345865 0.722519 0.598618
vn 0.019321 0.779795 0.625736
vn -0.323618 0.425107 0.845313
vn -0.693966 0.372455 0.616189
vn -0.309619 0.737318 0.600415
vn -0.600954 0.610167 0.516286
vn -0.329525 0.907363 0.260970
vn -0.699960 0.672606 0.240122
vn 0.022452 0.960918 0.275920
vn 0.371566 0.891534 0.259048
vn 0.730907 0.640300 0.236200
vn 0.912041 0.297234 0.282548
vn 0.942365 0.032199 0.333035
vn 0.904370 -0.220224 0.365536
vn -0.938112 0.074655 0.338189
vn -0.911371 -0.179229 0.370513
vn -0.896135 0.338059 0.287503
vn -0.617029 -0.341327 0.709063
vn -0.309472 -0.314917 0.897248
vn -0.004357 -0.308448 0.951231
vn 0.299854 -0.328674 0.895579
vn 0.604870 -0.368915 0.705715
vn 0.819150 -0.431337 0.378076
vn -0.835699 -0.393975 0.382611
vn -0.486601 -0.544493 0.683189
vn -0.240114 -0.527196 0.815113
vn -0.009654 -0.530434 0.847671
vn 0.220538 -0.537597 0.813851
vn 0.465267 -0.565984 0.680580
vn 0.706616 -0.651031 0.277222
vn -0.733749 -0.618512 0.281170
vn -0.381778 -0.640379 0.666454
vn -0.164597 -0.624962 0.763105
vn -0.012039 -0.627626 0.778422
vn 0.140401 -0.631849 0.762270
vn 0.356135 -0.657038 0.664431
vn 0.676262 -0.704745 0.214483
vn -0.706192 -0.673535 0.218273
vn -0.412118 -0.025955 0.910761
vn -0.126065 0.022254 0.991772
vn 0.003247 0.022478 0.999742
vn 0.132371 0.016419 0.991064
vn 0.415508 -0.044641 0.908494
vn 0.887735 -0.189867 0.419376
vn -0.893089 -0.149660 0.424257
vn -0.874142 -0.088137 0.477607
vn -0.448100 0.040255 0.893077
vn -0.117046 0.096436 0.988433
vn 0.005016 0.101393 0.994834
vn 0.126692 0.090932 0.987765
vn 0.454346 0.019880 0.890604
vn 0.871876 -0.127554 0.472823
vn -0.021819 -0.986230 0.163933
s 1
g FoodRUpperCaninesOverbite
usemtl blinn1SG
f 61/1/1 63/2/2 62/3/3 60/4/4
f 64/5/5 65/6/6 63/2/2 61/1/1
f 67/7/7 69/8/8 68/9/9 66/10/10
f 60/4/4 62/3/3 69/8/8 67/7/7
f 62/3/3 71/11/11 70/12/12 69/8/8
f 69/8/8 70/12/12 72/13/13 68/9/9
f 70/12/12 74/14/14 73/15/15 72/13/13
f 71/11/11 75/16/16 74/14/14 70/12/12
f 65/6/6 77/17/17 76/18/18 63/2/2
f 63/2/2 76/18/18 71/11/11 62/3/3
f 76/18/18 78/19/19 75/16/16 71/11/11
f 77/17/17 79/20/20 78/19/19 76/18/18
f 79/20/20 81/21/21 80/22/22 78/19/19
f 78/19/19 80/22/22 82/23/23 75/16/16
f 75/16/16 82/23/23 83/24/24 74/14/14
f 74/14/14 83/24/24 84/25/25 73/15/15
f 85/26/26 72/13/13 73/15/15 84/25/25
f 86/27/27 68/9/9 72/13/13 85/26/26
f 87/28/28 66/10/10 68/9/9 86/27/27
f 89/29/29 65/6/6 64/5/5 88/30/30
f 90/31/31 77/17/17 65/6/6 89/29/29
f 81/21/21 79/20/20 77/17/17 90/31/31
f 61/1/1 92/32/32 91/33/33 64/5/5
f 60/4/4 93/34/34 92/32/32 61/1/1
f 67/7/7 94/35/35 93/34/34 60/4/4
f 66/10/10 95/36/36 94/35/35 67/7/7
f 87/28/28 96/37/37 95/36/36 66/10/10
f 64/5/5 91/33/33 97/38/38 88/30/30
f 92/32/32 99/39/39 98/40/40 91/33/33
f 93/34/34 100/41/41 99/39/39 92/32/32
f 94/35/35 101/42/42 100/41/41 93/34/34
f 95/36/36 102/43/43 101/42/42 94/35/35
f 96/37/37 103/44/44 102/43/43 95/36/36
f 91/33/33 98/40/40 104/45/45 97/38/38
f 99/39/39 106/46/46 105/47/47 98/40/40
f 100/41/41 107/48/48 106/46/46 99/39/39
f 101/42/42 108/49/49 107/48/48 100/41/41
f 102/43/43 109/50/50 108/49/49 101/42/42
f 103/44/44 110/51/51 109/50/50 102/43/43
f 98/40/40 105/47/47 111/52/52 104/45/45
f 106/46/46 113/53/53 112/54/54 105/47/47
f 107/48/48 114/55/55 113/53/53 106/46/46
f 108/49/49 115/56/56 114/55/55 107/48/48
f 109/50/50 116/57/57 115/56/56 108/49/49
f 110/51/51 117/58/58 116/57/57 109/50/50
f 105/47/47 112/54/54 118/59/59 111/52/52
f 112/54/54 124/144/60 125/146/61 118/59/59
f 113/53/53 123/143/62 124/144/60 112/54/54
f 114/55/55 122/142/63 123/143/62 113/53/53
f 115/56/56 121/141/64 122/142/63 114/55/55
f 116/57/57 120/140/65 121/141/64 115/56/56
f 117/58/58 119/138/66 120/140/65 116/57/57
f 5/60/67 14/61/68 12/62/69 15/63/70
f 13/64/71 5/60/67 15/63/70 28/65/72
f 4/66/73 16/67/74 29/68/75 17/69/76
f 14/61/68 4/66/73 17/69/76 12/62/69
f 12/62/69 17/69/76 6/70/77 18/71/78
f 17/69/76 29/68/75 19/72/79 6/70/77
f 6/70/77 19/72/79 2/73/80 20/74/81
f 18/71/78 6/70/77 20/74/81 30/75/82
f 28/65/72 15/63/70 7/76/83 21/77/84
f 15/63/70 12/62/69 18/71/78 7/76/83
f 7/76/83 18/71/78 30/75/82 22/78/85
f 21/77/84 7/76/83 22/78/85 1/79/86
f 1/79/86 22/78/85 11/80/87 23/81/88
f 22/78/85 30/75/82 24/82/89 11/80/87
f 30/75/82 20/74/81 10/83/90 24/82/89
f 20/74/81 2/73/80 25/84/91 10/83/90
f 9/85/92 25/84/91 2/73/80 19/72/79
f 26/86/93 9/85/92 19/72/79 29/68/75
f 3/87/94 26/86/93 29/68/75 16/67/74
f 27/88/95 31/89/96 13/64/71 28/65/72
f 8/90/97 27/88/95 28/65/72 21/77/84
f 23/81/88 8/90/97 21/77/84 1/79/86
f 5/60/67 13/64/71 33/91/98 32/92/99
f 14/61/68 5/60/67 32/92/99 34/93/100
f 4/66/73 14/61/68 34/93/100 35/94/101
f 16/67/74 4/66/73 35/94/101 36/95/102
f 3/87/94 16/67/74 36/95/102 37/96/103
f 13/64/71 31/89/96 38/97/104 33/91/98
f 32/92/99 33/91/98 40/98/105 39/99/106
f 34/93/100 32/92/99 39/99/106 41/100/107
f 35/94/101 34/93/100 41/100/107 42/101/108
f 36/95/102 35/94/101 42/101/108 43/102/109
f 37/96/103 36/95/102 43/102/109 44/103/110
f 33/91/98 38/97/104 45/104/111 40/98/105
f 39/99/106 40/98/105 47/105/112 46/106/113
f 41/100/107 39/99/106 46/106/113 48/107/114
f 42/101/108 41/100/107 48/107/114 49/108/115
f 43/102/109 42/101/108 49/108/115 50/109/116
f 44/103/110 43/102/109 50/109/116 51/110/117
f 40/98/105 45/104/111 52/111/118 47/105/112
f 46/106/113 47/105/112 54/112/119 55/113/120
f 48/107/114 46/106/113 55/113/120 56/114/121
f 49/108/115 48/107/114 56/114/121 57/115/122
f 50/109/116 49/108/115 57/115/122 58/116/123
f 51/110/117 50/109/116 58/116/123 59/117/124
f 47/105/112 52/111/118 53/118/125 54/112/119
f 54/112/119 53/118/125 126/147/126 127/148/127
f 55/113/120 54/112/119 127/148/127 128/149/128
f 56/114/121 55/113/120 128/149/128 129/150/129
f 57/115/122 56/114/121 129/150/129 130/151/130
f 58/116/123 57/115/122 130/151/130 131/152/131
f 59/117/124 58/116/123 131/152/131 132/153/132
f 11/80/87 80/119/22 81/120/21 23/81/88
f 24/82/89 82/121/23 80/119/22 11/80/87
f 10/83/90 83/122/24 82/121/23 24/82/89
f 25/84/91 84/123/25 83/122/24 10/83/90
f 9/85/92 85/124/26 84/123/25 25/84/91
f 26/86/93 86/125/27 85/124/26 9/85/92
f 3/87/94 87/126/28 86/125/27 26/86/93
f 27/88/95 89/127/29 88/128/30 31/89/96
f 8/90/97 90/129/31 89/127/29 27/88/95
f 23/81/88 81/120/21 90/129/31 8/90/97
f 37/96/103 96/130/37 87/126/28 3/87/94
f 31/89/96 88/128/30 97/131/38 38/97/104
f 44/103/110 103/132/44 96/130/37 37/96/103
f 38/97/104 97/131/38 104/133/45 45/104/111
f 51/110/117 110/134/51 103/132/44 44/103/110
f 45/104/111 104/133/45 111/135/52 52/111/118
f 59/117/124 117/136/58 110/134/51 51/110/117
f 52/111/118 111/135/52 118/137/59 53/118/125
f 53/118/125 118/137/59 125/145/61 126/147/126
f 132/153/132 119/139/66 117/136/58 59/117/124
f 119/138/66 133/154/133 120/140/65
f 121/141/64 120/140/65 133/154/133
f 122/142/63 121/141/64 133/154/133
f 123/143/62 122/142/63 133/154/133
f 124/144/60 123/143/62 133/154/133
f 125/146/61 124/144/60 133/154/133
f 126/147/126 125/145/61 133/156/133
f 127/148/127 126/147/126 133/156/133
f 128/149/128 127/148/127 133/156/133
f 129/150/129 128/149/128 133/156/133
f 130/151/130 129/150/129 133/156/133
f 131/152/131 130/151/130 133/156/133
f 132/153/132 131/152/131 133/155/133
f 133/155/133 119/139/66 132/153/132
