# This file uses centimeters as units for non-parametric coordinates.

mtllib JungleLabItems_Spice01.mtl
g default
v 0.096506 0.445090 0.378771
v -0.013975 0.039434 0.001290
v -0.012783 0.006083 0.005365
v -0.248535 0.103566 0.189974
v -0.236263 0.057510 0.192462
v -0.280975 0.131290 0.489252
v -0.289093 0.081394 0.489847
v -0.092291 0.106563 0.723812
v -0.085419 0.056463 0.711252
v 0.007342 0.094999 0.771566
v 0.003320 0.044981 0.757826
v 0.441547 0.143820 0.567568
v 0.428987 0.096122 0.560695
v 0.473986 0.131290 0.268289
v 0.460246 0.073243 0.272311
v 0.285303 0.096993 0.033730
v 0.278430 0.032483 0.046289
v 0.019496 0.295293 0.115652
v 0.064912 0.395774 0.270823
v -0.144002 0.295293 0.247171
v -0.002165 0.395774 0.324781
v -0.166613 0.295293 0.455781
v -0.011442 0.395774 0.410365
v -0.035093 0.295293 0.619278
v 0.042516 0.395774 0.477442
v 0.092726 0.295293 0.660019
v 0.128100 0.395774 0.486718
v 0.337013 0.295293 0.510370
v 0.195177 0.395774 0.432761
v 0.359625 0.295293 0.301761
v 0.204454 0.395774 0.347176
v 0.228105 0.295293 0.138263
v 0.150496 0.395774 0.280100
v 0.254985 0.077882 0.727900
v 0.263030 0.118004 0.738405
v 0.239299 0.295293 0.618438
v 0.159708 0.395774 0.461293
v -1.064552 0.241770 0.995019
v 0.000000 0.059083 0.995019
v 1.064552 0.209195 0.995019
v -1.064552 0.059083 -0.069534
v 0.000000 0.006981 -0.069534
v 1.064552 0.059083 -0.069534
v -1.040453 0.209195 -1.134086
v 0.000000 0.059083 -1.134086
v 1.064552 0.133910 -1.108268
v -1.066287 0.203473 0.996754
v -0.000236 0.020750 0.995791
v -0.000201 -0.031562 -0.069341
v 1.066054 0.170825 0.996520
v -1.065324 0.020751 -0.069307
v -1.041979 0.170830 -1.135596
v 1.065329 0.020656 -0.068993
v 1.065511 0.095425 -1.109231
v -0.000571 0.020659 -1.134862
v 0.252669 0.436798 -0.203303
v 0.504310 0.097404 -0.454944
v 0.501594 0.051842 -0.452228
v 0.252669 0.127785 -0.559178
v 0.252669 0.042941 -0.546224
v -0.016267 0.087724 -0.456159
v -0.002971 0.022350 -0.461130
v -0.103206 0.120276 -0.203303
v -0.090252 0.020961 -0.203303
v 0.001027 0.163663 0.048339
v 0.010187 0.012876 0.039179
v 0.271167 0.091553 0.169603
v 0.271167 0.048396 0.156649
v 0.504310 0.086088 0.048339
v 0.495150 0.042931 0.039179
v 0.608544 0.085663 -0.203303
v 0.595589 0.042506 -0.203303
v 0.428073 0.301260 -0.378707
v 0.324630 0.392176 -0.275265
v 0.252669 0.301260 -0.451362
v 0.252669 0.392176 -0.305072
v 0.050110 0.293623 -0.389741
v 0.180707 0.392176 -0.275265
v 0.004610 0.301260 -0.203303
v 0.150899 0.392176 -0.203303
v 0.077264 0.301260 -0.027899
v 0.180707 0.392176 -0.131341
v 0.252669 0.301260 0.044756
v 0.252669 0.392176 -0.101534
v 0.428073 0.301260 -0.027899
v 0.324630 0.392176 -0.131341
v 0.500728 0.301260 -0.203303
v 0.354438 0.392176 -0.203303
v 0.567637 0.029342 -0.064613
v 0.578422 0.072499 -0.059374
v 0.480592 0.301260 -0.097895
v 0.337389 0.392176 -0.162144
v -0.342286 0.317268 0.030307
v -0.334817 0.079993 -0.325490
v -0.334898 0.055355 -0.321649
v -0.588591 0.082931 -0.226560
v -0.579625 0.051977 -0.217210
v -0.699948 0.069925 -0.067545
v -0.707115 0.040051 -0.069242
v -0.599153 0.121172 0.276612
v -0.589803 0.090248 0.267646
v -0.349754 0.120258 0.386104
v -0.353681 0.085853 0.373247
v -0.095980 0.080430 0.287174
v -0.104946 0.039554 0.277824
v 0.013511 0.057626 0.037776
v 0.000560 0.008850 0.037504
v -0.085418 0.052900 -0.215998
v -0.094769 0.023606 -0.207032
v -0.337080 0.214484 -0.217697
v -0.340150 0.283430 -0.071440
v -0.513970 0.214484 -0.148740
v -0.412721 0.283430 -0.043149
v -0.590290 0.214484 0.025101
v -0.444032 0.283430 0.028171
v -0.521332 0.214484 0.201992
v -0.415742 0.283430 0.100743
v -0.347491 0.214484 0.278311
v -0.344421 0.283430 0.132054
v -0.170601 0.214484 0.209354
v -0.271850 0.283430 0.103763
v -0.094281 0.214484 0.035513
v -0.240539 0.283430 0.032443
v -0.163239 0.214484 -0.141377
v -0.268830 0.283430 -0.040128
v -0.710367 0.070816 0.123339
v -0.710916 0.093867 0.128432
v -0.593415 0.214484 0.115977
v -0.430815 0.283430 0.062076
vt 0.598180 0.615644
vt 0.600151 0.618223
vt 0.567915 0.626944
vt 0.617349 0.588959
vt 0.534829 0.617579
vt 0.511494 0.596902
vt 0.514582 0.551341
vt 0.563571 0.528015
vt 0.593707 0.529522
vt 0.582286 0.595035
vt 0.571614 0.582471
vt 0.575252 0.575468
vt 0.564318 0.585442
vt 0.556860 0.583018
vt 0.553047 0.576375
vt 0.557048 0.569356
vt 0.565160 0.566273
vt 0.573050 0.568535
vt 0.566857 0.622654
vt 0.536620 0.612955
vt 0.564409 0.601839
vt 0.513115 0.564022
vt 0.545960 0.595796
vt 0.518390 0.554566
vt 0.533595 0.577538
vt 0.564215 0.532672
vt 0.539493 0.564041
vt 0.611294 0.554018
vt 0.566109 0.550354
vt 0.611767 0.586118
vt 0.588545 0.556450
vt 0.591525 0.577683
vt 0.564495 0.575663
vt 0.536911 0.534956
vt 0.539119 0.538263
vt 0.551615 0.553873
vt 0.560840 0.567777
vt 0.497182 0.812469
vt 0.197281 0.697805
vt 0.113634 0.697805
vt 0.113634 0.781156
vt 0.197281 0.614710
vt 0.497182 0.984430
vt 0.279836 0.781156
vt 0.669223 0.899356
vt 0.582851 0.984430
vt 0.499642 0.814929
vt 0.582851 0.814929
vt 0.582851 0.899356
vt 0.666713 0.814929
vt 0.499642 0.899356
vt 0.499641 0.981902
vt 0.666713 0.899356
vt 0.666713 0.981902
vt 0.582851 0.981902
vt 1.577673 0.736470
vt 1.579088 0.740571
vt 1.547965 0.742794
vt 1.548649 0.734658
vt 1.601693 0.721374
vt 1.604159 0.724920
vt 1.520629 0.733737
vt 1.509845 0.691188
vt 1.521121 0.663508
vt 1.526826 0.670927
vt 1.547374 0.645165
vt 1.550690 0.658991
vt 1.581436 0.649186
vt 1.580365 0.653073
vt 1.604801 0.664483
vt 1.602451 0.668156
vt 1.615052 0.672766
vt 1.612214 0.711506
vt 1.570523 0.716477
vt 1.565884 0.703237
vt 1.571738 0.698679
vt 1.585796 0.705051
vt 1.552117 0.716188
vt 1.558187 0.703247
vt 1.532269 0.704082
vt 1.552478 0.698830
vt 1.540456 0.685005
vt 1.553777 0.692100
vt 1.554951 0.674222
vt 1.559335 0.687704
vt 1.572262 0.674288
vt 1.566640 0.687771
vt 1.586843 0.685887
vt 1.572158 0.692294
vt 1.591092 0.694424
vt 1.572092 0.695028
vt 1.562522 0.695599
vt 0.515837 0.479672
vt 0.533617 0.496146
vt 0.503774 0.448249
vt 0.507587 0.448007
vt 0.566915 0.492841
vt 0.568509 0.496137
vt 0.505873 0.422042
vt 0.509162 0.423582
vt 0.523638 0.403532
vt 0.525748 0.405252
vt 0.548082 0.399611
vt 0.547481 0.395888
vt 0.579302 0.396799
vt 0.592790 0.410141
vt 0.608023 0.443746
vt 0.603198 0.442794
vt 0.597884 0.477587
vt 0.593515 0.474103
vt 0.535583 0.470869
vt 0.547425 0.454096
vt 0.555875 0.455228
vt 0.558470 0.472499
vt 0.526541 0.448087
vt 0.543676 0.446494
vt 0.532600 0.426965
vt 0.546411 0.437700
vt 0.539345 0.418840
vt 0.549994 0.435342
vt 0.554194 0.432800
vt 0.552140 0.415297
vt 0.576121 0.418514
vt 0.562840 0.434146
vt 0.583558 0.440270
vt 0.566312 0.441614
vt 0.576747 0.460606
vt 0.563438 0.450215
vt 0.554955 0.443996
vt 0.113634 0.614710
vt 0.497182 0.899356
vt 0.279836 0.697805
vt 0.669223 0.984430
vt 0.279836 0.614710
vt 0.669223 0.812469
vt 0.197281 0.781156
vt 0.582851 0.812469
vt 0.580623 0.401206
vt 0.532660 0.493172
vt 0.597445 0.410075
vt 0.512854 0.479980
vt 1.612301 0.676366
vt 1.615048 0.715035
vt 1.521041 0.726834
vt 1.504266 0.687500
vt 0.594135 0.535533
vt 0.514492 0.592479
vt 0.617356 0.556160
vt 0.509018 0.560309
vn -0.248984 0.330754 -0.910280
vn -0.215716 -0.189647 -0.957863
vn -0.873051 -0.117750 -0.473199
vn -0.759861 0.408531 -0.505682
vn 0.387839 0.359129 -0.848885
vn 0.513585 -0.208084 -0.832425
vn -0.957564 -0.063124 0.281223
vn -0.863083 0.436555 0.253985
vn -0.687360 -0.117151 0.716806
vn -0.572949 0.422077 0.702552
vn -0.068559 -0.274278 0.959203
vn -0.066659 0.370342 0.926501
vn 0.399799 -0.296371 0.867367
vn 0.365876 0.374571 0.851958
vn 0.832696 0.414412 0.367259
vn 0.890881 -0.276163 0.360645
vn 0.921550 -0.241266 -0.304199
vn 0.868136 0.392289 -0.304056
vn -0.227902 0.564070 -0.793654
vn -0.144620 0.857281 -0.494120
vn 0.247134 0.857281 -0.451657
vn 0.326278 0.602732 -0.728187
vn -0.663081 0.608631 -0.435765
vn -0.451657 0.857281 -0.247134
vn -0.730096 0.649839 0.211352
vn -0.494120 0.857281 0.144619
vn -0.468576 0.655560 0.592180
vn -0.286691 0.862659 0.416687
vn 0.005384 0.638584 0.769534
vn 0.063300 0.871084 0.487038
vn 0.353381 0.638691 0.683517
vn 0.289520 0.866290 0.407088
vn 0.474555 0.859695 0.189004
vn 0.682109 0.672164 0.287963
vn 0.709755 0.660548 -0.244794
vn 0.494120 0.857281 -0.144619
vn 0.000000 1.000000 -0.000000
vn -0.108918 -0.988066 0.108915
vn -0.108917 -0.988066 0.108916
vn -0.168698 -0.984482 0.048345
vn 0.139174 -0.989076 0.048581
vn 0.094021 -0.991110 0.094137
vn 0.093990 -0.991110 0.094168
vn -0.048575 -0.988923 -0.140253
vn -0.095230 -0.990908 -0.095046
vn -0.094518 -0.990909 -0.095741
vn 0.060261 -0.996383 -0.059916
vn 0.060087 -0.996383 -0.060095
vn 0.048845 -0.996237 -0.071598
vn 0.048424 -0.989057 0.139361
vn -0.142523 -0.988607 -0.048402
vn 0.071045 -0.996276 -0.048852
vn -0.048347 -0.984482 0.168695
vn 0.108959 0.988057 -0.108959
vn 0.168940 0.984448 -0.048182
vn 0.108959 0.988057 -0.108959
vn -0.139464 0.989043 -0.048407
vn -0.094131 0.991100 -0.094131
vn -0.094131 0.991100 -0.094131
vn 0.048399 0.988892 0.140539
vn 0.094510 0.990899 0.095853
vn 0.095192 0.990898 0.095186
vn -0.060304 0.996378 0.059950
vn -0.048758 0.996229 0.071765
vn -0.060128 0.996378 0.060131
vn -0.048407 0.989043 -0.139464
vn 0.142630 0.988593 0.048385
vn -0.071210 0.996269 0.048760
vn 0.048182 0.984448 -0.168940
vn 0.006031 0.032533 0.999452
vn 0.006031 0.032533 0.999452
vn 0.000734 0.031029 0.999518
vn 0.000793 0.031046 0.999518
vn -0.004504 0.029541 0.999553
vn -0.004504 0.029541 0.999553
vn -0.999381 0.030248 -0.017990
vn -0.999381 0.030248 -0.017990
vn -0.999435 0.031390 -0.012046
vn -0.999435 0.031403 -0.011978
vn 0.999658 0.026125 -0.001474
vn 0.999660 0.026036 -0.001395
vn 0.999744 0.022545 0.001710
vn 0.999744 0.022545 0.001710
vn 0.999554 0.029530 -0.004503
vn 0.999554 0.029530 -0.004503
vn 0.013564 0.026177 -0.999565
vn 0.013810 0.026082 -0.999564
vn 0.004625 0.029623 -0.999550
vn 0.004625 0.029623 -0.999551
vn 0.022540 0.022713 -0.999488
vn 0.022540 0.022713 -0.999488
vn -0.999452 0.032544 -0.006033
vn -0.999452 0.032544 -0.006033
vn 0.679224 0.331624 -0.654736
vn 0.635476 -0.152473 -0.756916
vn -0.026876 -0.102715 -0.994348
vn -0.003822 0.341488 -0.939879
vn 0.931800 0.333611 -0.143015
vn 0.959332 -0.215411 -0.182430
vn -0.686087 -0.120154 -0.717529
vn -0.701104 0.273657 -0.658456
vn -0.985539 -0.120241 0.119392
vn -0.964791 0.261778 0.025511
vn -0.743471 -0.114916 0.658821
vn -0.665094 0.327379 0.671173
vn -0.190326 -0.176517 0.965721
vn 0.016352 0.309827 0.950652
vn 0.568397 -0.275074 0.775409
vn 0.557271 0.345339 0.755110
vn 0.888080 -0.279111 0.365255
vn 0.880114 0.306233 0.362797
vn 0.598708 0.577107 -0.555424
vn 0.364053 0.857281 -0.364053
vn 0.505092 0.859791 -0.075110
vn 0.818920 0.557645 -0.135652
vn 0.006452 0.596383 -0.802674
vn -0.003361 0.858707 -0.512456
vn -0.583456 0.578861 -0.569648
vn -0.344783 0.869520 -0.353638
vn -0.787690 0.615933 -0.013063
vn -0.508984 0.860702 0.011299
vn -0.522273 0.646911 0.555642
vn -0.364053 0.857281 0.364053
vn 0.050499 0.608157 0.792209
vn -0.000000 0.857281 0.514849
vn 0.474605 0.568316 0.672136
vn 0.289244 0.858325 0.423811
vn 0.767104 0.556683 0.318834
vn 0.457571 0.868973 0.188452
vn -0.000000 1.000000 0.000000
vn 0.053844 0.487427 -0.871502
vn 0.012810 -0.293269 -0.955944
vn -0.561635 -0.204512 -0.801711
vn -0.538645 0.549972 -0.638273
vn 0.678725 0.428239 -0.596610
vn 0.739600 -0.307136 -0.598882
vn -0.925146 0.005358 -0.379575
vn -0.766050 0.568222 -0.300485
vn -0.968442 -0.047832 0.244607
vn -0.801356 0.575391 0.163563
vn -0.502714 0.567451 0.652133
vn -0.517836 -0.318090 0.794144
vn -0.023318 -0.338718 0.940599
vn 0.045526 0.535436 0.843348
vn 0.677980 -0.305117 0.668766
vn 0.672403 0.435953 0.598179
vn 0.953430 -0.297265 0.051041
vn 0.916653 0.399679 -0.001841
vn 0.041998 0.703537 -0.709417
vn 0.008703 0.909953 -0.414620
vn 0.299335 0.909953 -0.287027
vn 0.547418 0.672313 -0.498326
vn -0.442310 0.735344 -0.513450
vn -0.287027 0.909953 -0.299335
vn -0.633349 0.751121 -0.186244
vn -0.401021 0.911089 -0.095388
vn -0.615631 0.772519 0.155604
vn -0.353878 0.924671 0.140547
vn -0.241379 0.912022 0.331590
vn -0.358544 0.797159 0.485781
vn 0.028465 0.785416 0.618314
vn -0.008704 0.909953 0.414620
vn 0.519178 0.721814 0.457645
vn 0.287027 0.909953 0.299335
vn 0.736924 0.675924 -0.008299
vn 0.414620 0.909953 0.008703
vn 0.000000 1.000000 -0.000000
s 1
g JungleLabItems_Spice01
usemtl blinn1SG
f 2/1/1 3/2/2 5/3/3 4/19/4
f 3/2/2 2/1/1 16/30/5 17/4/6
f 4/19/4 5/3/3 7/5/7 6/20/8
f 6/20/8 7/5/7 9/6/9 8/147/10
f 8/22/10 9/149/9 11/7/11 10/24/12
f 10/24/12 11/7/11 34/34/13 35/35/14
f 12/26/15 13/8/16 15/9/17 14/146/18
f 14/28/18 15/148/17 17/4/6 16/30/5
f 18/10/19 19/11/20 33/12/21 32/32/22
f 19/11/20 18/10/19 20/21/23 21/13/24
f 21/13/24 20/21/23 22/23/25 23/14/26
f 23/14/26 22/23/25 24/25/27 25/15/28
f 25/15/28 24/25/27 26/27/29 27/16/30
f 27/16/30 26/27/29 36/36/31 37/37/32
f 29/17/33 28/29/34 30/31/35 31/18/36
f 31/18/36 30/31/35 32/32/22 33/12/21
f 2/1/1 4/19/4 20/21/23 18/10/19
f 4/19/4 6/20/8 22/23/25 20/21/23
f 6/20/8 8/147/10 24/25/27 22/23/25
f 8/22/10 10/24/12 26/27/29 24/25/27
f 10/24/12 35/35/14 36/36/31 26/27/29
f 12/26/15 14/146/18 30/31/35 28/29/34
f 14/28/18 16/30/5 32/32/22 30/31/35
f 16/30/5 2/1/1 18/10/19 32/32/22
f 19/11/20 21/13/24 1/33/37
f 21/13/24 23/14/26 1/33/37
f 23/14/26 25/15/28 1/33/37
f 25/15/28 27/16/30 1/33/37
f 27/16/30 37/37/32 29/17/33 1/33/37
f 29/17/33 31/18/36 1/33/37
f 31/18/36 33/12/21 1/33/37
f 33/12/21 19/11/20 1/33/37
f 35/35/14 34/34/13 13/8/16 12/26/15
f 36/36/31 35/35/14 12/26/15 28/29/34
f 37/37/32 36/36/31 28/29/34 29/17/33
s 3
f 47/130/38 49/39/39 48/40/40
s 4
f 48/40/41 49/39/42 50/41/43
s 5
f 51/42/44 52/134/45 49/39/46
s 6
f 49/39/47 54/44/48 53/136/49
s 4
f 49/39/42 53/136/50 50/41/43
s 5
f 52/134/45 55/132/51 49/39/46
s 6
f 49/39/47 55/132/52 54/44/48
s 3
f 47/130/38 51/42/53 49/39/39
s 7
f 38/47/54 39/48/55 42/49/56
s 8
f 39/48/57 40/50/58 42/49/59
s 9
f 41/51/60 42/49/61 44/52/62
s 10
f 42/49/63 43/53/64 46/54/65
s 8
f 42/49/59 40/50/58 43/53/66
s 9
f 44/52/62 42/49/61 45/55/67
s 10
f 42/49/63 46/54/65 45/55/68
s 7
f 38/47/54 42/49/56 41/51/69
s 11
f 38/47/70 47/38/71 48/137/72 39/48/73
f 39/48/73 48/137/72 50/135/74 40/50/75
s 12
f 44/52/76 52/43/77 51/131/78 41/51/79
s 13
f 43/53/80 53/45/81 54/133/82 46/54/83
f 40/50/84 50/135/85 53/45/81 43/53/80
s 14
f 45/55/86 55/46/87 52/43/88 44/52/89
f 46/54/90 54/133/91 55/46/87 45/55/86
s 12
f 41/51/79 51/131/78 47/38/92 38/47/93
s 15
f 57/56/94 58/57/95 60/58/96 59/59/97
f 58/57/95 57/56/94 71/60/98 72/61/99
f 59/59/97 60/58/96 62/62/100 61/144/101
f 61/63/101 62/145/100 64/64/102 63/65/103
f 63/65/103 64/64/102 66/66/104 65/67/105
f 65/67/105 66/66/104 68/68/106 67/69/107
f 67/69/107 68/68/106 70/70/108 69/71/109
f 69/71/109 70/70/108 89/72/110 90/142/111
f 73/74/112 74/75/113 88/76/114 87/77/115
f 74/75/113 73/74/112 75/78/116 76/79/117
f 76/79/117 75/78/116 77/80/118 78/81/119
f 78/81/119 77/80/118 79/82/120 80/83/121
f 80/83/121 79/82/120 81/84/122 82/85/123
f 82/85/123 81/84/122 83/86/124 84/87/125
f 84/87/125 83/86/124 85/88/126 86/89/127
f 86/89/127 85/88/126 91/90/128 92/91/129
f 57/56/94 59/59/97 75/78/116 73/74/112
f 59/59/97 61/144/101 77/80/118 75/78/116
f 61/63/101 63/65/103 79/82/120 77/80/118
f 63/65/103 65/67/105 81/84/122 79/82/120
f 65/67/105 67/69/107 83/86/124 81/84/122
f 67/69/107 69/71/109 85/88/126 83/86/124
f 69/71/109 90/142/111 91/90/128 85/88/126
f 71/60/98 57/56/94 73/74/112 87/77/115
f 74/75/113 76/79/117 56/92/130
f 76/79/117 78/81/119 56/92/130
f 78/81/119 80/83/121 56/92/130
f 80/83/121 82/85/123 56/92/130
f 82/85/123 84/87/125 56/92/130
f 84/87/125 86/89/127 56/92/130
f 86/89/127 92/91/129 88/76/114 56/92/130
f 88/76/114 74/75/113 56/92/130
f 90/73/111 89/143/110 72/61/99 71/60/98
f 91/90/128 90/73/111 71/60/98 87/77/115
f 92/91/129 91/90/128 87/77/115 88/76/114
s 17
f 94/93/131 95/141/132 97/95/133 96/96/134
f 95/94/132 94/139/131 108/97/135 109/98/136
f 96/96/134 97/95/133 99/99/137 98/100/138
f 98/100/138 99/99/137 126/101/139 127/102/140
f 100/103/141 101/104/142 103/105/143 102/138/144
f 102/106/144 103/140/143 105/107/145 104/108/146
f 104/108/146 105/107/145 107/109/147 106/110/148
f 106/110/148 107/109/147 109/98/136 108/97/135
f 110/111/149 111/112/150 125/113/151 124/114/152
f 111/112/150 110/111/149 112/115/153 113/116/154
f 113/116/154 112/115/153 114/117/155 115/118/156
f 115/118/156 114/117/155 128/119/157 129/120/158
f 117/121/159 116/122/160 118/123/161 119/124/162
f 119/124/162 118/123/161 120/125/163 121/126/164
f 121/126/164 120/125/163 122/127/165 123/128/166
f 123/128/166 122/127/165 124/114/152 125/113/151
f 94/93/131 96/96/134 112/115/153 110/111/149
f 96/96/134 98/100/138 114/117/155 112/115/153
f 98/100/138 127/102/140 128/119/157 114/117/155
f 100/103/141 102/138/144 118/123/161 116/122/160
f 102/106/144 104/108/146 120/125/163 118/123/161
f 104/108/146 106/110/148 122/127/165 120/125/163
f 106/110/148 108/97/135 124/114/152 122/127/165
f 108/97/135 94/139/131 110/111/149 124/114/152
f 111/112/150 113/116/154 93/129/167
f 113/116/154 115/118/156 93/129/167
f 115/118/156 129/120/158 117/121/159 93/129/167
f 117/121/159 119/124/162 93/129/167
f 119/124/162 121/126/164 93/129/167
f 121/126/164 123/128/166 93/129/167
f 123/128/166 125/113/151 93/129/167
f 125/113/151 111/112/150 93/129/167
f 127/102/140 126/101/139 101/104/142 100/103/141
f 128/119/157 127/102/140 100/103/141 116/122/160
f 129/120/158 128/119/157 116/122/160 117/121/159
