# This file uses centimeters as units for non-parametric coordinates.

mtllib JungleLabItems_Spice02.mtl
g default
v 0.000000 0.528397 0.000000
v 0.353703 0.088610 -0.353703
v 0.349884 0.046195 -0.349884
v 0.000000 0.094054 -0.500211
v -0.000000 0.028054 -0.482003
v -0.353703 0.129312 -0.353703
v -0.359322 0.073940 -0.362397
v -0.500211 0.083500 0.000000
v -0.482003 0.022840 -0.000000
v -0.353703 0.144484 0.353703
v -0.340827 0.083824 0.340827
v 0.000000 0.089419 0.500211
v -0.000000 0.028758 0.482003
v 0.353703 0.129312 0.353703
v 0.340827 0.068652 0.340827
v 0.500211 0.085694 0.000000
v 0.482003 0.025034 0.000000
v 0.246545 0.337888 -0.246545
v 0.101148 0.465678 -0.101148
v 0.000000 0.337888 -0.348667
v 0.000000 0.465678 -0.143045
v -0.246545 0.337888 -0.246545
v -0.101148 0.465678 -0.101148
v -0.348667 0.337888 0.000000
v -0.143045 0.465678 0.000000
v -0.246545 0.337888 0.246545
v -0.101148 0.465678 0.101148
v 0.000000 0.337888 0.348667
v 0.000000 0.465678 0.143045
v 0.246545 0.337888 0.246545
v 0.101148 0.465678 0.101148
v 0.348667 0.337888 0.000000
v 0.143045 0.465678 0.000000
v -1.186418 0.267439 1.186418
v 0.000000 0.063840 1.186418
v 1.186418 0.231136 1.186418
v -1.186418 0.063840 0.000000
v 0.000000 0.005773 0.000000
v 1.186418 0.063840 0.000000
v -1.159560 0.231136 -1.186418
v 0.000000 0.063840 -1.186418
v 1.186418 0.147232 -1.157645
v -1.189305 0.241261 1.189305
v -0.000392 0.037600 1.187702
v -0.000334 -0.020815 0.000320
v 1.188916 0.204835 1.188916
v -1.187702 0.037602 0.000378
v -1.162099 0.204843 -1.188930
v 1.187710 0.037444 0.000900
v 1.188013 0.120740 -1.159247
v -0.000950 0.037449 -1.187710
vt 0.612757 0.692087
vt 0.616082 0.692056
vt 0.607190 0.726553
vt 0.606787 0.658096
vt 0.579606 0.749134
vt 0.518522 0.726900
vt 0.511903 0.692436
vt 0.518984 0.658151
vt 0.545204 0.636045
vt 0.589694 0.692614
vt 0.572760 0.692084
vt 0.569788 0.683714
vt 0.569979 0.700485
vt 0.563001 0.704730
vt 0.556042 0.701209
vt 0.553094 0.692844
vt 0.555832 0.684398
vt 0.562805 0.680185
vt 0.602231 0.724134
vt 0.550025 0.745927
vt 0.582203 0.713084
vt 0.523043 0.724606
vt 0.562865 0.725820
vt 0.516770 0.692432
vt 0.543394 0.713130
vt 0.523457 0.660443
vt 0.536213 0.692455
vt 0.575421 0.638977
vt 0.543443 0.671741
vt 0.602243 0.660404
vt 0.562818 0.659130
vt 0.582367 0.671839
vt 0.562921 0.692452
vt 0.300961 0.803928
vt 0.199490 0.898469
vt 0.106239 0.898469
vt 0.106239 0.991419
vt 0.199490 0.805820
vt 0.300961 0.993162
vt 0.291554 0.991419
vt 0.490197 0.899025
vt 0.395930 0.993162
vt 0.302676 0.805629
vt 0.395930 0.805629
vt 0.395930 0.899025
vt 0.488452 0.805629
vt 0.302676 0.899025
vt 0.302676 0.991404
vt 0.488452 0.899025
vt 0.488452 0.991404
vt 0.395930 0.991404
vt 0.106239 0.805820
vt 0.300961 0.899025
vt 0.291554 0.898469
vt 0.490197 0.993162
vt 0.291554 0.805820
vt 0.490197 0.803928
vt 0.199490 0.991419
vt 0.395930 0.803928
vt 0.550032 0.638975
vt 0.575795 0.746003
vt 0.580249 0.636048
vt 0.546484 0.749291
vn 0.652716 0.394390 -0.646852
vn 0.682068 -0.219301 -0.697632
vn -0.005947 -0.134590 -0.990884
vn 0.027856 0.409529 -0.911872
vn 0.923951 0.381995 -0.019833
vn 0.964814 -0.258995 0.045344
vn -0.692474 -0.071186 -0.717922
vn -0.641440 0.438150 -0.629745
vn -0.981568 -0.187866 0.035072
vn -0.922230 0.386639 -0.001641
vn -0.677786 -0.282889 0.678661
vn -0.643154 0.425441 0.636674
vn 0.000026 -0.291363 0.956613
vn 0.009869 0.368841 0.929440
vn 0.677724 -0.284167 0.678188
vn 0.646959 0.409884 0.642993
vn 0.560397 0.615798 -0.553849
vn 0.364053 0.857281 -0.364053
vn 0.514849 0.857281 -0.000000
vn 0.781440 0.623563 -0.022820
vn 0.023071 0.629787 -0.776425
vn 0.000000 0.857281 -0.514849
vn -0.544226 0.645792 -0.535510
vn -0.364053 0.857281 -0.364053
vn -0.770722 0.637113 -0.008689
vn -0.514849 0.857281 0.000000
vn -0.535920 0.656423 0.530941
vn -0.364053 0.857281 0.364053
vn 0.008757 0.641650 0.766948
vn -0.000000 0.857281 0.514849
vn 0.541821 0.645120 0.538749
vn 0.364053 0.857281 0.364053
vn 0.000000 1.000000 0.000000
vn -0.108898 -0.988071 0.108894
vn -0.108897 -0.988071 0.108895
vn -0.168579 -0.984498 0.048426
vn 0.139032 -0.989091 0.048667
vn 0.093967 -0.991114 0.094140
vn 0.093921 -0.991114 0.094186
vn -0.048661 -0.988939 -0.140113
vn -0.095248 -0.990912 -0.094977
vn -0.094523 -0.990914 -0.095686
vn 0.060240 -0.996385 -0.059899
vn 0.060067 -0.996385 -0.060077
vn 0.048888 -0.996241 -0.071515
vn 0.048433 -0.989064 0.139310
vn -0.142470 -0.988615 -0.048410
vn 0.070963 -0.996280 -0.048897
vn -0.048428 -0.984498 0.168575
vn 0.108959 0.988057 -0.108959
vn 0.168940 0.984448 -0.048182
vn 0.108959 0.988057 -0.108959
vn -0.139464 0.989043 -0.048407
vn -0.094131 0.991100 -0.094131
vn -0.094131 0.991100 -0.094131
vn 0.048399 0.988892 0.140539
vn 0.094510 0.990899 0.095853
vn 0.095192 0.990898 0.095186
vn -0.060304 0.996378 0.059950
vn -0.048758 0.996229 0.071765
vn -0.060128 0.996378 0.060131
vn -0.048407 0.989043 -0.139464
vn 0.142630 0.988593 0.048385
vn -0.071210 0.996269 0.048760
vn 0.048182 0.984448 -0.168940
vn 0.014121 0.078439 0.996819
vn 0.014121 0.078439 0.996819
vn 0.001799 0.074921 0.997188
vn 0.001799 0.074921 0.997188
vn -0.010561 0.071380 0.997393
vn -0.010561 0.071380 0.997393
vn -0.997258 0.073074 -0.011732
vn -0.997258 0.073074 -0.011732
vn -0.997042 0.075764 -0.012929
vn -0.997042 0.075764 -0.012929
vn 0.998015 0.062883 -0.003346
vn 0.998015 0.062882 -0.003346
vn 0.998508 0.054454 0.004047
vn 0.998508 0.054454 0.004047
vn 0.997417 0.071058 -0.010523
vn 0.997417 0.071058 -0.010523
vn 0.015547 0.063020 -0.997891
vn 0.015547 0.063020 -0.997891
vn 0.010807 0.071297 -0.997397
vn 0.010807 0.071297 -0.997397
vn 0.020203 0.054881 -0.998289
vn 0.020203 0.054881 -0.998289
vn -0.996818 0.078444 -0.014122
vn -0.996818 0.078444 -0.014122
s 1
g JungleLabItems_Spice02
usemtl blinn1SG
f 2/1/1 3/2/2 5/3/3 4/19/4
f 3/2/2 2/1/1 16/30/5 17/4/6
f 4/19/4 5/3/3 7/5/7 6/61/8
f 6/20/8 7/63/7 9/6/9 8/22/10
f 8/22/10 9/6/9 11/7/11 10/24/12
f 10/24/12 11/7/11 13/8/13 12/26/14
f 12/26/14 13/8/13 15/9/15 14/60/16
f 14/28/16 15/62/15 17/4/6 16/30/5
f 18/10/17 19/11/18 33/12/19 32/32/20
f 19/11/18 18/10/17 20/21/21 21/13/22
f 21/13/22 20/21/21 22/23/23 23/14/24
f 23/14/24 22/23/23 24/25/25 25/15/26
f 25/15/26 24/25/25 26/27/27 27/16/28
f 27/16/28 26/27/27 28/29/29 29/17/30
f 29/17/30 28/29/29 30/31/31 31/18/32
f 31/18/32 30/31/31 32/32/20 33/12/19
f 2/1/1 4/19/4 20/21/21 18/10/17
f 4/19/4 6/61/8 22/23/23 20/21/21
f 6/20/8 8/22/10 24/25/25 22/23/23
f 8/22/10 10/24/12 26/27/27 24/25/25
f 10/24/12 12/26/14 28/29/29 26/27/27
f 12/26/14 14/60/16 30/31/31 28/29/29
f 14/28/16 16/30/5 32/32/20 30/31/31
f 16/30/5 2/1/1 18/10/17 32/32/20
f 19/11/18 21/13/22 1/33/33
f 21/13/22 23/14/24 1/33/33
f 23/14/24 25/15/26 1/33/33
f 25/15/26 27/16/28 1/33/33
f 27/16/28 29/17/30 1/33/33
f 29/17/30 31/18/32 1/33/33
f 31/18/32 33/12/19 1/33/33
f 33/12/19 19/11/18 1/33/33
s 3
f 43/52/34 45/35/35 44/36/36
s 4
f 44/36/37 45/35/38 46/37/39
s 5
f 47/38/40 48/56/41 45/35/42
s 6
f 45/35/43 50/40/44 49/58/45
s 4
f 45/35/38 49/58/46 46/37/39
s 5
f 48/56/41 51/54/47 45/35/42
s 6
f 45/35/43 51/54/48 50/40/44
s 3
f 43/52/34 47/38/49 45/35/35
s 7
f 34/43/50 35/44/51 38/45/52
s 8
f 35/44/53 36/46/54 38/45/55
s 9
f 37/47/56 38/45/57 40/48/58
s 10
f 38/45/59 39/49/60 42/50/61
s 8
f 38/45/55 36/46/54 39/49/62
s 9
f 40/48/58 38/45/57 41/51/63
s 10
f 38/45/59 42/50/61 41/51/64
s 7
f 34/43/50 38/45/52 37/47/65
s 11
f 34/43/66 43/34/67 44/59/68 35/44/69
f 35/44/69 44/59/68 46/57/70 36/46/71
s 12
f 40/48/72 48/39/73 47/53/74 37/47/75
s 13
f 39/49/76 49/41/77 50/55/78 42/50/79
f 36/46/80 46/57/81 49/41/77 39/49/76
s 14
f 41/51/82 51/42/83 48/39/84 40/48/85
f 42/50/86 50/55/87 51/42/83 41/51/82
s 12
f 37/47/75 47/53/74 43/34/88 34/43/89
