# This file uses centimeters as units for non-parametric coordinates.

mtllib MazeRuins_back.mtl
g default
v -21.883226 0.000000 -1.153564
v 21.883226 0.000000 -1.153564
v -21.883226 44.802006 -1.153564
v 21.883226 44.802006 -1.153564
v 20.652672 44.802006 2.757252
v -20.652676 44.802006 2.757252
v -20.652676 44.802006 11.007389
v -21.883226 44.802006 11.007389
v 20.652672 44.802006 11.007389
v 21.883226 44.802006 11.007389
v -21.883226 1.254486 11.007389
v -20.652676 1.254486 11.007389
v 20.652674 1.254486 11.007389
v 21.883226 1.254486 11.007389
v -20.652676 1.254486 2.757252
v 20.652674 1.254486 2.757252
v -21.883226 0.000000 11.007389
v 21.883226 0.000000 11.007389
vt 0.364148 0.410557
vt 0.740885 0.410555
vt 0.752109 0.446224
vt 0.352926 0.446224
vt 0.869319 0.420981
vt 0.880544 0.420950
vt 0.880753 0.023774
vt 0.869541 0.023741
vt 0.740244 0.018893
vt 0.364982 0.018893
vt 0.364982 0.403035
vt 0.740244 0.403035
vt 0.880534 0.023776
vt 0.880405 0.420974
vt 0.869182 0.420971
vt 0.869312 0.023772
vt 0.364149 0.013368
vt 0.740886 0.013368
vt 0.758211 0.432312
vt 0.869323 0.432414
vt 0.758255 0.432376
vt 0.869178 0.432409
vt 0.955774 0.420863
vt 0.955864 0.023776
vt 0.991468 0.012553
vt 0.880727 0.012549
vt 0.758690 0.023478
vt 0.955768 0.023796
vt 0.955656 0.421003
vt 0.758401 0.023728
vt 0.991423 0.012581
vt 0.880546 0.012555
vn 0.000000 1.000000 0.000000
vn 0.000000 1.000000 0.000000
vn 0.000000 1.000000 0.000000
vn 0.000000 1.000000 0.000000
vn 0.000000 0.000000 1.000000
vn 0.000000 0.000000 1.000000
vn 0.000000 0.000000 1.000000
vn 0.000000 0.000000 1.000000
vn 0.000000 0.000000 -1.000000
vn 0.000000 0.000000 -1.000000
vn 0.000000 0.000000 -1.000000
vn 0.000000 0.000000 -1.000000
vn 0.000000 0.000000 1.000000
vn 0.000000 0.000000 1.000000
vn 0.000000 0.000000 1.000000
vn 0.000000 0.000000 1.000000
vn 0.000000 0.000000 1.000000
vn 0.000000 0.000000 1.000000
vn 0.000000 0.000000 1.000000
vn 0.000000 0.000000 1.000000
vn -1.000000 0.000000 0.000000
vn -1.000000 0.000000 0.000000
vn -1.000000 0.000000 0.000000
vn 1.000000 0.000000 0.000000
vn 1.000000 0.000000 0.000000
vn 1.000000 0.000000 0.000000
vn 1.000000 0.000000 0.000000
vn 1.000000 0.000000 0.000000
vn 1.000000 0.000000 0.000000
vn 1.000000 0.000000 0.000000
vn 0.000000 1.000000 0.000000
vn 0.000000 1.000000 0.000000
vn 0.000000 1.000000 0.000000
vn 0.000000 1.000000 0.000000
vn -1.000000 0.000000 0.000000
vn -1.000000 0.000000 0.000000
vn -1.000000 0.000000 0.000000
vn -1.000000 0.000000 0.000000
vn -1.000000 0.000000 0.000000
vn -1.000000 0.000000 0.000000
vn -1.000000 0.000000 0.000000
vn -1.000000 0.000000 0.000000
vn 1.000000 0.000000 0.000000
vn 1.000000 0.000000 0.000000
vn 1.000000 0.000000 0.000000
vn 1.000000 0.000000 0.000000
vn 0.000000 1.000000 0.000000
vn 0.000000 1.000000 0.000000
vn 0.000000 1.000000 0.000000
vn 0.000000 1.000000 0.000000
s off
g polySurface80polySurface68
usemtl blinn1SG
f 6/1/1 5/2/2 4/3/3 3/4/4
f 11/5/5 12/6/6 7/7/7 8/8/8
f 2/9/9 1/10/10 3/11/11 4/12/12
f 9/13/13 13/14/14 14/15/15 10/16/16
f 6/1/17 15/17/18 16/18/19 5/2/20
f 1/19/21 17/20/22 11/5/23
f 2/21/24 14/15/25 18/22/26
f 15/23/27 6/24/28 7/7/29 12/6/30
f 6/24/31 3/25/32 8/26/33 7/7/34
f 3/27/35 1/19/36 11/5/37 8/8/38
f 5/28/39 16/29/40 13/14/41 9/13/42
f 2/21/43 4/30/44 10/16/45 14/15/46
f 4/31/47 5/28/48 9/13/49 10/32/50
