# This file uses centimeters as units for non-parametric coordinates.

mtllib MazeBig02_backCOL.mtl
g default
v 19.011501 44.802006 -6.729811
v 20.242054 44.802006 -6.729013
v 19.011501 38.665432 -6.729811
v 20.242054 38.665432 -6.729013
v 24.714523 44.802006 4.421131
v 19.006207 44.802006 1.520334
v 20.234238 44.802006 5.431934
v 19.006207 38.665432 1.520334
v 20.236763 38.665432 1.521118
v 23.064156 38.557369 0.875603
vt 0.955495 0.023822
vt 0.991093 0.012599
vt 0.880358 0.012597
vt 0.880381 0.023821
vt 0.868956 0.079930
vt 0.880351 0.079790
vt 0.869113 0.023841
vt 0.955477 0.079780
vt 0.000000 0.000000
vt 1.000000 0.000000
vt 0.999993 1.178459
vt -0.000004 1.178638
vt 0.000000 0.000000
vt 0.999999 0.000091
vt 0.000000 1.000000
vt 0.000000 0.000091
vt 1.000000 0.000000
vt 1.000000 1.000000
vn 0.000000 1.000000 0.000000
vn 0.000000 1.000000 0.000000
vn 0.000000 1.000000 0.000000
vn 0.000000 1.000000 0.000000
vn 0.000648 0.000000 -1.000000
vn 0.000648 0.000000 -1.000000
vn 0.000648 0.000000 -1.000000
vn 0.000648 0.000000 -1.000000
vn -1.000000 0.000000 -0.000642
vn -1.000000 0.000000 -0.000642
vn -1.000000 0.000000 -0.000642
vn -1.000000 0.000000 -0.000642
vn 0.000000 -1.000000 0.000000
vn 0.000000 -1.000000 0.000000
vn -0.007900 -0.999969 -0.000005
vn -0.018957 -0.999820 -0.000012
vn -0.018957 -0.999820 -0.000012
vn -0.007900 -0.999969 -0.000005
vn -0.038198 -0.999270 -0.000024
vn 0.000000 1.000000 0.000000
vn 0.000000 1.000000 0.000000
vn 0.000000 1.000000 0.000000
s off
g polySurface205
usemtl initialShadingGroup
f 6/1/1 7/2/2 2/3/3 1/4/4
f 4/5/5 3/6/6 1/4/7 2/7/8
f 3/6/9 8/8/10 6/1/11 1/4/12
f 8/9/13 3/10/14 4/11/15 9/12/16
f 9/13/17 4/14/18 10/15/19
f 2/16/20 7/17/21 5/18/22
g default
v 20.242054 1.254486 -6.729013
v 19.011501 1.254486 -6.729811
v 19.011501 32.948002 -6.729811
v 20.242054 32.948002 -6.729013
v 19.006207 1.254486 1.520334
v 19.006207 32.948002 1.520334
v 20.236763 32.948002 1.521118
v 23.064163 32.978821 0.875603
vt 0.868947 0.421027
vt 0.880172 0.420997
vt 0.880324 0.131936
vt 0.869052 0.132041
vt 0.955489 0.131897
vt 0.955402 0.420909
vt 0.000000 0.000000
vt 0.999999 0.000055
vt 1.000004 1.178638
vt 0.000007 1.178535
vt 0.000001 0.000091
vt 1.000000 0.000000
vt 1.000000 1.000000
vn 0.000648 0.000000 -1.000000
vn 0.000648 0.000000 -1.000000
vn 0.000648 0.000000 -1.000000
vn 0.000648 0.000000 -1.000000
vn -1.000000 0.000000 -0.000642
vn -1.000000 0.000000 -0.000642
vn -1.000000 0.000000 -0.000642
vn -1.000000 0.000000 -0.000642
vn 0.000000 1.000000 0.000000
vn 0.000000 1.000000 0.000000
vn -0.005407 0.999985 -0.000004
vn -0.002252 0.999997 -0.000001
vn -0.002252 0.999997 -0.000001
vn -0.005407 0.999985 -0.000004
vn -0.010901 0.999941 -0.000007
s off
g polySurface207
usemtl initialShadingGroup
f 11/19/23 12/20/24 13/21/25 14/22/26
f 16/23/27 13/21/28 12/20/29 15/24/30
f 13/25/31 16/26/32 17/27/33 14/28/34
f 14/29/35 17/30/36 18/31/37
g default
v 20.234238 0.000000 5.431934
v -23.532196 0.000000 5.403828
v 20.234238 44.802006 5.431934
v -23.532196 44.802006 5.403828
v -22.299131 44.802006 1.493809
v 19.006207 44.802006 1.520334
v -23.529690 1.254486 1.493015
v 19.006207 1.254486 1.520334
v 19.006207 32.948002 1.520334
v 19.006207 38.665432 1.520334
v 20.236763 38.665432 1.521118
v 20.236763 32.948002 1.521118
v -22.299133 8.192540 1.493816
v -23.529690 8.192540 1.493015
v 23.064163 32.978821 0.875603
v 23.064156 38.557369 0.875603
vt 0.363776 0.410603
vt 0.740513 0.410602
vt 0.751737 0.446270
vt 0.352554 0.446271
vt 0.363776 0.302485
vt 0.363778 0.013415
vt 0.751738 0.013414
vt 0.740514 0.076695
vt 0.363776 0.354633
vt -0.042014 2.357975
vt -0.008870 0.000058
vt 1.000000 0.000000
vt 1.044713 2.357966
vt 0.739872 0.018940
vt 0.364610 0.018940
vt 0.364610 0.403081
vt 0.739872 0.403081
vt 0.000002 0.000062
vt 1.000000 0.000000
vt 0.999999 1.846176
vt 0.000000 0.000000
vt 1.000000 0.000000
vt 1.000000 1.000000
vt 0.000000 1.000000
vn 0.000000 1.000000 0.000000
vn 0.000000 1.000000 0.000000
vn 0.000000 1.000000 0.000000
vn 0.000000 1.000000 0.000000
vn 0.000642 0.000000 -1.000000
vn 0.000642 0.000000 -1.000000
vn 0.000642 0.000000 -1.000000
vn 0.000642 0.000000 -1.000000
vn 0.000642 0.000000 -1.000000
vn 0.000642 0.000000 -1.000000
vn 0.000642 0.000000 -1.000000
vn 0.000642 0.000000 -1.000000
vn 0.000642 0.000000 -1.000000
vn -0.156024 0.000000 -0.987753
vn 0.000642 0.000000 -1.000000
vn 0.000642 0.000000 -1.000000
vn -0.155213 0.000000 -0.987881
vn 0.000642 0.000000 -1.000000
vn 0.000642 0.000000 -1.000000
vn 0.000642 0.000000 -1.000000
vn 0.000642 0.000000 -1.000000
vn -0.000642 0.000000 1.000000
vn -0.000642 0.000000 1.000000
vn -0.000642 0.000000 1.000000
vn -0.000642 0.000000 1.000000
vn 0.000651 0.000000 -1.000000
vn 0.000651 0.000000 -1.000000
vn 0.000651 0.000000 -1.000000
vn -0.156024 0.000000 -0.987753
vn -0.155213 0.000000 -0.987881
vn -0.222580 0.000000 -0.974914
vn -0.222580 0.000000 -0.974914
s off
g polySurface206
usemtl initialShadingGroup
f 24/32/38 23/33/39 22/34/40 21/35/41
f 27/36/42 26/37/43 25/38/44
f 27/36/45 25/38/46 31/39/47
f 24/32/48 28/40/49 23/33/50
f 30/41/51 27/42/52 28/43/53 29/44/54
f 28/40/55 27/36/56 31/39/57 23/33/58
f 20/45/59 19/46/60 21/47/61 22/48/62
f 25/49/63 32/50/64 31/51/65
f 30/52/66 29/53/67 34/54/68 33/55/69
g default
v -22.293827 44.802006 -6.756330
v -23.524391 44.802006 -6.757122
v -22.293839 8.192540 -6.756323
v -23.524391 8.192540 -6.757122
v -22.299131 44.802006 1.493809
v -22.299133 8.192540 1.493816
v -23.532196 44.802006 5.403828
v -23.529690 8.192540 1.493015
vt 0.955384 0.023853
vt 0.955316 0.357742
vt 0.880028 0.357765
vt 0.880080 0.023905
vt 0.868830 0.357736
vt 0.868934 0.023824
vt 0.991062 0.012618
vt 0.880152 0.012620
vt 0.000000 0.000000
vt 1.000000 0.000000
vt 0.999999 1.846166
vt 0.000001 1.846181
vn 1.000000 -0.000000 0.000642
vn 1.000000 -0.000000 0.000642
vn 1.000000 -0.000000 0.000642
vn 1.000000 -0.000000 0.000642
vn 0.000646 0.000000 -1.000000
vn 0.000646 0.000000 -1.000000
vn 0.000646 0.000000 -1.000000
vn 0.000646 0.000000 -1.000000
vn 0.000000 1.000000 0.000000
vn 0.000000 1.000000 0.000000
vn 0.000000 1.000000 0.000000
vn 0.000000 1.000000 0.000000
vn 0.000000 -1.000000 0.000000
vn 0.000000 -1.000000 0.000000
vn 0.000000 -1.000000 0.000000
vn 0.000000 -1.000000 0.000000
s off
g polySurface203
usemtl initialShadingGroup
f 39/56/70 40/57/71 37/58/72 35/59/73
f 37/58/74 38/60/75 36/61/76 35/59/77
f 41/62/78 39/56/79 35/59/80 36/63/81
f 42/64/82 38/65/83 37/66/84 40/67/85
