# This file uses centimeters as units for non-parametric coordinates.

mtllib MazeBig04_back.mtl
g default
v 21.678389 44.802006 5.803894
v -22.088013 44.802006 5.732962
v -20.851112 44.802006 1.824139
v 20.454170 44.802006 1.891060
v 20.467535 44.802006 -6.359062
v 21.698090 44.802006 -6.357071
v -20.837757 44.802006 -6.425976
v -22.068302 44.802006 -6.427946
v 21.684725 1.254486 1.893059
v -22.081680 1.254486 1.822155
v 21.698090 8.352022 -6.357071
v -22.068302 8.352022 -6.427946
v -20.837769 8.352022 -6.425982
v -20.851116 8.352022 1.824173
v 20.454170 8.352022 1.891060
v 20.467535 8.352022 -6.359062
v 21.684725 8.352022 1.893059
v -20.837757 42.317047 -6.425976
v -20.851112 42.317047 1.824139
v 20.454170 42.317047 1.891060
v 20.467535 42.317047 -6.359062
v 21.698090 42.317047 -6.357071
v 21.684725 42.317047 1.893059
v -22.068302 42.317047 -6.427946
v -20.837757 37.283581 -6.425976
v -20.851112 37.283581 1.824139
v 20.454170 37.076260 1.891060
v 20.467535 37.076260 -6.359062
v 21.698090 37.076260 -6.357071
v 21.684725 37.076260 1.893059
v -22.068306 37.283581 -6.427975
v -22.081680 42.317047 1.822155
v -22.081684 37.283581 1.822151
v -22.081680 8.352022 1.822155
v 26.093195 44.802006 4.763729
v 24.441114 36.926407 1.218994
v 24.441114 42.293789 1.218994
v 24.441114 8.338181 1.219006
v 24.459053 1.254486 1.257488
vt 0.059580 0.506839
vt 0.534205 0.506840
vt 0.548345 0.551778
vt 0.045440 0.551777
vt 0.059580 0.088005
vt 0.045440 0.006450
vt 0.548346 0.006450
vt 0.534205 0.088006
vt 0.792028 0.352847
vt 0.777421 0.353060
vt 0.777434 0.020848
vt 0.791556 0.020834
vt 0.682736 0.353025
vt 0.682753 0.020851
vt 0.059580 0.418066
vt 0.534205 0.420448
vt 0.575179 0.053524
vt 0.669868 0.051932
vt 0.673887 0.382401
vt 0.578985 0.383482
vt 0.561112 0.053351
vt 0.564854 0.383631
vt 0.659913 0.528688
vt 0.704853 0.542820
vt 0.565116 0.542845
vt 0.565113 0.528705
vt 0.682336 0.431645
vt 0.682393 0.403091
vt 0.777192 0.403280
vt 0.777135 0.431833
vt 0.059580 0.478286
vt 0.534205 0.478286
vt 0.565108 0.500152
vt 0.659907 0.500134
vt 0.550968 0.500154
vt 0.550973 0.528708
vt 0.791332 0.403308
vt 0.791275 0.431861
vt 0.637370 0.445696
vt 0.777107 0.445973
vt 0.682421 0.388951
vt 0.777220 0.389140
vt 0.777410 0.367188
vt 0.682736 0.367143
vt 0.548345 0.420448
vt 0.548345 0.478286
vt 0.682762 0.006725
vt 0.777445 0.006756
vt 0.548345 0.088006
vt 0.565105 0.486012
vt 0.659905 0.485995
vt 0.045440 0.478286
vt 0.045440 0.418066
vt 0.674035 0.396538
vt 0.579159 0.397600
vt 0.045440 0.088005
vt 0.574823 0.039506
vt 0.669546 0.037790
vt 0.692828 0.593532
vt 0.012834 0.478018
vt 0.012834 0.416344
vt 0.666539 0.428370
vt 0.652102 0.454335
vt 0.660984 0.006315
vt 0.012834 0.087846
vt 0.012735 0.006449
vn 0.000000 1.000000 -0.000001
vn 0.000000 1.000000 -0.000001
vn 0.000000 1.000000 -0.000001
vn 0.000000 1.000000 -0.000001
vn 0.001620 0.000000 -0.999999
vn -0.014555 -0.000203 -0.999894
vn 0.001620 0.000001 -0.999999
vn 0.001620 0.000000 -0.999999
vn 0.001611 0.000000 -0.999999
vn 0.001611 0.000000 -0.999999
vn 0.001611 0.000000 -0.999999
vn 0.001611 0.000000 -0.999999
vn 0.999999 -0.000000 0.001618
vn 0.999999 -0.000000 0.001618
vn 0.999999 -0.000000 0.001618
vn 0.999999 -0.000000 0.001618
vn 0.001620 -0.000001 -0.999999
vn 0.001620 0.000000 -0.999999
vn 0.001620 0.000000 -0.999999
vn 0.001620 -0.000001 -0.999999
vn -0.999999 0.000000 -0.001620
vn -0.999999 0.000000 -0.001620
vn -0.999999 0.000000 -0.001620
vn -0.999999 0.000000 -0.001620
vn 0.001618 0.000000 -0.999999
vn 0.001618 0.000000 -0.999999
vn 0.001618 0.000000 -0.999999
vn 0.001618 0.000000 -0.999999
vn 0.000000 1.000000 0.000000
vn 0.000000 1.000000 0.000000
vn 0.000000 1.000000 0.000000
vn 0.000000 1.000000 0.000000
vn 0.999999 0.000000 0.001619
vn 0.999999 0.000000 0.001619
vn 0.999999 0.000000 0.001619
vn 0.999999 0.000000 0.001619
vn 0.001620 0.000000 -0.999999
vn 0.001620 0.000000 -0.999999
vn 0.001620 0.000000 -0.999999
vn 0.001620 0.000000 -0.999999
vn -0.999999 0.000000 -0.001620
vn -0.999999 0.000000 -0.001620
vn -0.999999 0.000000 -0.001620
vn -0.999999 0.000000 -0.001620
vn 0.001618 0.000000 -0.999999
vn 0.001618 0.000000 -0.999999
vn 0.001618 0.000000 -0.999999
vn 0.001618 0.000000 -0.999999
vn 0.001601 0.000000 -0.999999
vn 0.001601 0.000000 -0.999999
vn 0.001601 0.000000 -0.999999
vn 0.001601 0.000000 -0.999999
vn 0.001620 0.000000 -0.999999
vn 0.001620 -0.000001 -0.999999
vn 0.001620 -0.000001 -0.999999
vn 0.001620 0.000000 -0.999999
vn 0.000000 1.000000 0.000000
vn 0.000000 1.000000 0.000000
vn 0.000000 1.000000 0.000000
vn 0.000000 1.000000 0.000000
vn 0.000000 -1.000000 0.000000
vn 0.000000 -1.000000 0.000000
vn 0.000000 -1.000000 0.000000
vn 0.000000 -1.000000 0.000000
vn 0.000000 1.000000 0.000000
vn 0.000000 1.000000 0.000000
vn 0.000000 1.000000 0.000000
vn 0.000000 1.000000 0.000000
vn 0.001614 0.000000 -0.999999
vn 0.001614 0.000000 -0.999999
vn 0.001614 0.000000 -0.999999
vn 0.001614 0.000000 -0.999999
vn 0.000000 -1.000000 0.000000
vn 0.000000 -1.000000 0.000000
vn 0.000000 -1.000000 0.000000
vn 0.000000 -1.000000 0.000000
vn 0.001640 0.000000 -0.999999
vn 0.001640 0.000000 -0.999999
vn 0.001640 0.000000 -0.999999
vn 0.000000 -1.000000 0.000000
vn 0.000000 -1.000000 0.000000
vn -0.001681 -0.999999 -0.000003
vn -0.004107 -0.999992 -0.000007
vn 0.001624 0.000000 -0.999999
vn 0.001624 0.000000 -0.999999
vn -0.166562 0.000000 -0.986031
vn -0.168469 0.000000 -0.985707
vn 0.000000 1.000000 0.000000
vn 0.000000 1.000000 0.000000
vn 0.026454 0.999650 0.000043
vn 0.010845 0.999941 0.000018
vn -0.014555 -0.000203 -0.999894
vn 0.001620 0.000000 -0.999999
vn -0.189748 -0.002418 -0.981830
vn 0.000000 -1.000000 0.000000
vn 0.000000 -1.000000 0.000000
vn -0.001001 -1.000000 -0.000002
vn -0.002444 -0.999997 -0.000004
vn 0.000000 1.000000 0.000000
vn 0.000000 1.000000 0.000000
vn 0.000000 1.000000 0.000000
vn -0.168469 0.000000 -0.985707
vn -0.166562 0.000000 -0.986031
vn -0.237546 0.000000 -0.971376
vn -0.237546 0.000000 -0.971376
vn 0.010845 0.999941 0.000018
vn 0.026454 0.999650 0.000043
vn 0.054307 0.998524 0.000088
vn -0.004107 -0.999992 -0.000007
vn -0.001681 -0.999999 -0.000003
vn -0.008441 -0.999964 -0.000013
vn -0.002444 -0.999997 -0.000004
vn -0.001001 -1.000000 -0.000002
vn -0.005024 -0.999987 -0.000008
vn -0.014555 -0.000203 -0.999894
vn -0.189748 -0.002418 -0.981830
vn -0.230425 -0.002932 -0.973086
vn -0.230425 -0.002932 -0.973086
s off
g polySurface223
usemtl blinn1SG
f 4/1/1 3/2/2 2/3/3 1/4/4
f 15/5/5 9/6/6 10/7/7 14/8/8
f 31/9/9 25/10/10 13/11/11 12/12/12
f 25/10/13 26/13/14 14/14/15 13/11/16
f 27/15/17 15/5/18 14/8/19 26/16/20
f 16/17/21 15/18/22 27/19/23 28/20/24
f 11/21/25 16/17/26 28/20/27 29/22/28
f 4/23/29 1/24/30 6/25/31 5/26/32
f 3/27/33 19/28/34 18/29/35 7/30/36
f 4/1/37 20/31/38 19/32/39 3/2/40
f 21/33/41 20/34/42 4/23/43 5/26/44
f 22/35/45 21/33/46 5/26/47 6/36/48
f 7/30/49 18/29/50 24/37/51 8/38/52
f 20/31/53 27/15/54 26/16/55 19/32/56
f 2/39/57 3/27/58 7/30/59 8/40/60
f 32/41/61 24/42/62 18/29/63 19/28/64
f 31/43/65 33/44/66 26/13/67 25/10/68
f 33/45/69 32/46/70 19/32/71 26/16/72
f 34/47/73 12/48/74 13/11/75 14/14/76
f 10/7/77 34/49/78 14/8/79
f 20/34/80 21/33/81 22/50/82 23/51/83
f 27/15/84 20/31/85 23/52/86 30/53/87
f 28/20/88 27/19/89 30/54/90 29/55/91
f 9/6/92 15/5/93 17/56/94
f 15/18/95 16/17/96 11/57/97 17/58/98
f 6/25/99 1/24/100 35/59/101
f 30/53/102 23/52/103 37/60/104 36/61/105
f 29/55/106 30/54/107 36/62/108
f 23/51/109 22/50/110 37/63/111
f 17/58/112 11/57/113 38/64/114
f 9/6/115 17/56/116 38/65/117 39/66/118
