# This file uses centimeters as units for non-parametric coordinates.

mtllib MazeBoss02_back.mtl
g default
v -33.996887 77.254173 10.388474
v 37.337448 77.254173 10.388474
v 37.337448 2.047609 10.388474
v -33.996891 2.047609 10.388474
v -19.712946 77.254173 -2.737200
v -19.712946 77.254173 10.388474
v 20.836449 77.254173 -2.737200
v 20.836449 77.254173 10.388474
v -19.712946 98.750160 -2.737200
v -19.712946 98.750160 10.388474
v 20.836449 98.750160 -2.737200
v 20.836449 98.750160 10.388474
v 42.982243 2.048234 8.882576
v 42.982250 77.276527 8.882587
v -31.506168 77.254173 -10.441952
v 34.579067 77.265350 -9.900230
vt 0.514741 0.612208
vt 0.629029 0.010920
vt 0.628943 0.612227
vt 0.513039 0.795780
vt 0.627245 0.795780
vt 0.607331 0.962328
vt 0.513039 0.900725
vt 0.188831 0.900725
vt 0.078954 0.957996
vt 0.190531 0.612166
vt 0.058682 0.010840
vt 0.056899 0.795780
vt 0.188831 0.795780
vt 0.058600 0.612146
vt 0.641135 0.192995
vt 0.746081 0.192872
vt 0.746282 0.364740
vt 0.641337 0.364865
vt 0.641086 0.011050
vt 0.965287 0.010668
vt 0.965491 0.182537
vt 0.641286 0.182919
vt 0.514720 0.784079
vt 0.190510 0.784033
vt 0.755840 0.192995
vt 0.860786 0.192869
vt 0.860992 0.364740
vt 0.756044 0.364864
vt 0.011890 0.612318
vt 0.011971 0.010838
vt 0.011767 0.807820
vn 0.000000 0.000000 -1.000000
vn 0.000000 0.000000 -1.000000
vn 0.000000 0.000000 -1.000000
vn 0.000000 -1.000000 0.000000
vn 0.000000 -1.000000 0.000000
vn 0.000051 -1.000000 -0.000350
vn 0.000073 -1.000000 -0.000500
vn 0.000167 -1.000000 -0.000612
vn 0.000073 -1.000000 -0.000500
vn 0.000051 -1.000000 -0.000350
vn 0.000329 -1.000000 -0.000520
vn 0.000000 0.000000 -1.000000
vn -0.027357 0.000000 -0.999626
vn 0.000000 0.000000 -1.000000
vn 0.000000 0.000000 -1.000000
vn 0.000924 -0.999999 -0.000488
vn 0.000285 -1.000000 -0.000358
vn 0.000167 -1.000000 -0.000612
vn 0.000329 -1.000000 -0.000520
vn -0.107906 0.000000 -0.994161
vn -0.027357 0.000000 -0.999626
vn 0.000000 0.000000 -1.000000
vn 1.000000 0.000000 0.000000
vn 1.000000 0.000000 0.000000
vn 1.000000 0.000000 0.000000
vn 1.000000 0.000000 0.000000
vn 0.000000 0.000000 1.000000
vn 0.000000 0.000000 1.000000
vn 0.000000 0.000000 1.000000
vn 0.000000 0.000000 1.000000
vn 0.000000 0.000000 -1.000000
vn 0.000000 0.000000 -1.000000
vn 0.000000 0.000000 -1.000000
vn 0.000000 0.000000 -1.000000
vn -1.000000 0.000000 0.000000
vn -1.000000 0.000000 0.000000
vn -1.000000 0.000000 0.000000
vn -1.000000 0.000000 0.000000
vn -0.027357 0.000000 -0.999626
vn -0.107906 0.000000 -0.994161
vn -0.257760 0.000000 -0.966209
vn -0.257760 0.000000 -0.966209
vn 0.000924 -0.999999 -0.000488
vn 0.000329 -1.000000 -0.000520
vn 0.003680 -0.999993 -0.001050
s off
g polySurface305
usemtl blinn1SG
f 6/1/1 4/2/2 1/3/3
f 6/4/4 1/5/5 15/6/6 5/7/7
f 7/8/8 5/7/9 15/6/10 16/9/11
f 8/10/12 3/11/13 4/2/14 6/1/15
f 2/12/16 8/13/17 7/8/18 16/9/19
f 2/14/20 3/11/21 8/10/22
f 6/15/23 5/16/24 9/17/25 10/18/26
f 5/19/27 7/20/28 11/21/29 9/22/30
f 8/10/31 6/1/32 10/23/33 12/24/34
f 7/25/35 8/26/36 12/27/37 11/28/38
f 3/11/39 2/14/40 14/29/41 13/30/42
f 2/12/43 16/9/44 14/31/45
