# This file uses centimeters as units for non-parametric coordinates.

mtllib MazeBig01COL.mtl
g default
v -3.271144 8.761482 -1.944542
v -3.643013 6.608941 0.312979
v -3.638138 6.608941 -2.067701
v 3.029907 6.608941 -2.054027
v 3.025024 6.608941 0.326654
v -5.708725 7.107996 -1.945638
v -5.714905 8.752469 -0.904681
v 5.125553 8.745426 0.330962
v 5.122701 8.729370 -1.873312
v -5.744934 8.745426 0.308668
vt 0.323362 0.577977
vt 0.323524 0.600827
vt 0.261870 0.600271
vt 0.261554 0.578038
vt 0.343322 0.608946
vt 0.341076 0.628248
vt 0.318839 0.619727
vt 0.242265 0.644372
vt 0.242512 0.621167
vt 0.342905 0.641162
vt 0.322872 0.660786
vt 0.262523 0.661794
vn 0.000000 -1.000000 0.000000
vn 0.000000 -1.000000 0.000000
vn 0.000000 -1.000000 0.000000
vn 0.000000 -1.000000 0.000000
vn -0.421261 0.378823 -0.824034
vn -0.427307 0.620452 -0.657608
vn -0.226200 0.594858 -0.771348
vn -0.002663 0.994231 -0.107223
vn 0.054670 0.998504 0.001061
vn 0.053308 0.981263 -0.185154
vn 0.002051 0.000000 -0.999998
vn -0.002452 0.093487 -0.995618
vn 0.098737 0.119362 -0.987929
vn 0.002050 0.000000 -0.999998
vn 0.002051 0.000000 -0.999998
vn -0.120616 0.017081 -0.992552
vn -0.002452 0.093487 -0.995618
vn -0.002663 0.994231 -0.107223
vn -0.028626 0.999324 -0.023076
vn -0.022201 0.999754 0.000022
vn 0.054670 0.998504 0.001061
vn -0.002050 0.000000 0.999998
vn -0.002051 0.000000 0.999998
vn -0.002051 0.000000 0.999998
vn -0.002050 0.000000 0.999998
s off
g polySurface206
usemtl lambert2SG
f 2/1/1 3/2/2 4/3/3 5/4/4
f 6/5/5 7/6/6 1/7/7
f 1/7/8 8/8/9 9/9/10
f 3/2/11 1/7/12 9/9/13 4/3/14
f 3/2/15 6/5/16 1/7/17
f 1/7/18 7/6/19 10/10/20 8/8/21
f 8/8/22 10/10/23 2/11/24 5/12/25
g default
v -3.638138 6.608941 -2.067701
v -3.643013 6.608941 0.312979
v -5.708725 7.107996 -1.945638
v -5.744934 8.745426 0.308668
v -5.714905 8.752469 -0.904681
v -5.877251 2.533153 0.308397
v -3.643013 1.254486 0.312979
v -3.638138 1.254486 -2.067701
v -5.740326 2.533153 -2.051121
vt 0.707502 0.620448
vt 0.724703 0.620448
vt 0.724703 0.669285
vt 0.707501 0.669284
vt 0.774404 0.632095
vt 0.794774 0.620420
vt 0.794807 0.669256
vt 0.774441 0.687549
vt 0.745687 0.630903
vt 0.745648 0.672665
vt 0.759771 0.687598
vn 0.999998 0.000000 0.002048
vn 0.999998 0.000000 0.002048
vn 0.999998 0.000000 0.002048
vn 0.999998 0.000000 0.002048
vn -0.002051 0.000000 0.999998
vn -0.002051 0.000000 0.999998
vn -0.002051 0.000000 0.999998
vn -0.002051 0.000000 0.999998
vn 0.002052 0.000000 -0.999998
vn -0.013663 0.056491 -0.998310
vn -0.120616 0.017081 -0.992552
vn 0.002051 0.000000 -0.999998
vn -0.994190 0.010713 -0.107102
vn -0.999998 0.000000 -0.002048
vn -0.999283 0.037822 -0.001933
vn -0.998631 0.044348 -0.027743
vn -0.966419 -0.000274 -0.256970
vn -0.999998 0.000000 -0.002048
vn -0.994190 0.010713 -0.107102
s off
g polySurface208
usemtl lambert2SG
f 17/13/26 18/14/27 11/15/28 12/16/29
f 16/17/30 17/18/31 12/19/32 14/20/33
f 18/14/34 19/21/35 13/22/36 11/15/37
f 13/22/38 16/17/39 14/20/40 15/23/41
f 19/21/42 16/17/43 13/22/44
g default
v 3.029907 6.608941 -2.054027
v 3.025024 6.608941 0.326654
v 5.122701 8.729370 -1.873312
v 5.125553 8.745426 0.330962
v 3.025024 1.254486 0.326654
v 5.294601 2.533153 0.331306
v 5.166897 2.533153 -2.032527
v 3.029907 1.254486 -2.054027
vt 0.302595 0.668011
vt 0.328821 0.668021
vt 0.328802 0.716858
vt 0.302577 0.716848
vt 0.249918 0.667992
vt 0.270614 0.679661
vt 0.270593 0.735115
vt 0.249900 0.716828
vt 0.283920 0.678460
vt 0.283899 0.735120
vn -0.999998 0.000000 -0.002051
vn -0.999998 0.000000 -0.002051
vn -0.999998 0.000000 -0.002051
vn -0.999998 0.000000 -0.002051
vn -0.002050 0.000000 0.999998
vn -0.002051 0.000001 0.999998
vn -0.002050 0.000000 0.999998
vn -0.002050 0.000000 0.999998
vn 0.999998 0.000000 0.002052
vn 0.989096 0.000000 -0.147275
vn 0.993304 0.043496 -0.107030
vn 0.998870 0.047446 0.002772
vn 0.022141 0.053990 -0.998296
vn 0.002050 0.000000 -0.999998
vn 0.002050 0.000000 -0.999998
vn 0.098737 0.119362 -0.987929
s off
g polySurface209
usemtl lambert2SG
f 27/24/45 24/25/46 21/26/47 20/27/48
f 24/28/49 25/29/50 23/30/51 21/31/52
f 25/29/53 26/32/54 22/33/55 23/30/56
f 26/32/57 27/24/58 20/27/59 22/33/60
g default
v -21.907532 1.254486 -2.105174
v -21.912418 2.533153 0.275504
v -21.912418 1.254486 0.275504
v -3.638138 1.254486 -2.067701
v -3.643013 1.254486 0.312979
v -5.877251 2.533153 0.308397
v -21.907804 2.533153 -2.084281
v -5.740326 2.533153 -2.051121
vt 0.232548 0.921589
vt 0.243489 0.942784
vt 0.231803 0.942833
vt 0.065134 0.954386
vt 0.085537 0.942737
vt 0.231770 0.954501
vt 0.065174 0.910764
vt 0.231748 0.910868
vt 0.084328 0.921732
vt 0.243392 0.921046
vn -0.999998 -0.000002 -0.002053
vn -0.999998 -0.000002 -0.002052
vn -0.999998 -0.000003 -0.002052
vn -0.002051 0.000000 0.999998
vn -0.002051 0.000000 0.999998
vn -0.002051 0.000000 0.999998
vn -0.002051 0.000000 0.999998
vn 0.002052 0.000000 -0.999998
vn 0.002051 0.000000 -0.999998
vn 0.002013 0.192537 -0.981288
vn -0.013663 0.056491 -0.998310
vn 0.000000 1.000000 0.000000
vn 0.000303 0.989038 -0.147661
vn 0.000228 0.993789 -0.111277
vn 0.000000 1.000000 0.000000
vn -0.999998 0.000000 -0.002053
vn -0.999998 -0.000002 -0.002052
vn -0.999998 -0.000002 -0.002053
s off
g polySurface205
usemtl lambert2SG
f 34/34/61 30/35/62 29/36/63
f 32/37/64 33/38/65 29/36/66 30/39/67
f 31/40/68 28/41/69 34/34/70 35/42/71
f 33/38/72 35/42/73 34/34/74 29/36/75
f 28/43/76 30/35/77 34/34/78
g default
v 21.858818 1.254486 -2.015409
v 21.853935 2.533153 0.365273
v 21.853935 1.254486 0.365273
v 3.029907 1.254486 -2.054027
v 3.025024 1.254486 0.326654
v 5.294601 2.533153 0.331306
v 21.858547 2.533153 -1.998291
v 5.166897 2.533153 -2.032527
vt 0.266006 0.942171
vt 0.417042 0.941941
vt 0.437760 0.953571
vt 0.266024 0.953833
vt 0.254344 0.942189
vt 0.254310 0.920476
vt 0.265169 0.920930
vt 0.265957 0.910209
vt 0.437693 0.909947
vt 0.418216 0.920932
vn -0.002051 0.000001 0.999998
vn -0.002051 0.000001 0.999998
vn -0.002050 0.000000 0.999998
vn -0.002051 0.000001 0.999998
vn 0.999998 -0.000002 0.002051
vn 0.999998 0.000000 0.002051
vn 0.999998 -0.000001 0.002051
vn 0.002051 -0.000001 -0.999998
vn 0.002050 0.000000 -0.999998
vn 0.022141 0.053990 -0.998296
vn 0.002013 0.192694 -0.981257
vn 0.000228 0.993792 -0.111252
vn 0.000303 0.989043 -0.147629
vn 0.000000 1.000000 0.000000
vn 0.000000 1.000000 0.000000
vn 0.999998 -0.000002 0.002051
vn 0.999998 -0.000002 0.002051
vn 0.999998 -0.000002 0.002051
s off
g polySurface204
usemtl lambert2SG
f 37/44/79 41/45/80 40/46/81 38/47/82
f 38/48/83 36/49/84 42/50/85
f 36/51/86 39/52/87 43/53/88 42/50/89
f 42/50/90 43/53/91 41/45/92 37/44/93
f 38/48/94 42/50/95 37/44/96
g default
v -20.602711 14.536796 6.483941
v -12.285298 1.564157 6.444760
v -12.285298 14.536796 6.444760
v -20.509966 14.410413 -0.005654
v -12.445308 14.410413 -0.043523
v -20.507221 1.690538 0.524265
v -12.442561 1.690538 0.486397
vt 0.684826 0.868595
vt 0.685860 0.822155
vt 0.754508 0.822659
vt 0.754499 0.868706
vt 0.645264 0.734492
vt 0.686234 0.731786
vt 0.645490 0.819194
vt 0.998996 0.784305
vt 0.916550 0.783709
vt 0.927941 0.694248
vt 1.010386 0.694845
vn 0.000000 1.000000 0.000000
vn 0.000000 1.000000 0.000000
vn 0.000000 1.000000 0.000000
vn 0.000000 1.000000 0.000000
vn 0.999987 0.000000 -0.005182
vn 0.999987 0.000000 -0.005182
vn 0.999987 0.000000 -0.005182
vn 0.999987 0.000000 -0.005182
vn -0.005176 -0.050915 -0.998690
vn -0.005176 -0.050915 -0.998690
vn -0.005176 -0.050915 -0.998690
vn -0.005176 -0.050915 -0.998690
s off
g polySurface197
usemtl lambert2SG
f 46/54/97 48/55/98 47/56/99 44/57/100
f 45/58/101 50/59/102 48/55/103 46/60/104
f 47/61/105 48/62/106 50/63/107 49/64/108
g default
v 3.291931 17.848295 3.990937
v 3.291931 27.756516 3.990936
v 4.586479 17.848295 6.411133
v 4.586479 27.756516 6.411132
v 3.286980 17.848295 6.408466
v 3.286980 27.756516 6.408465
v 4.586479 17.848295 3.990937
v 4.586479 27.756516 3.990937
vt 0.155824 0.878101
vt 0.025748 0.877741
vt 0.025745 0.866930
vt 0.149055 0.866924
vt 0.025746 0.845923
vt 0.149063 0.845924
vt 0.146960 0.899768
vt 0.025740 0.899789
vt 0.015676 0.879507
vt 0.013887 0.899770
vt 0.278496 0.879494
vt 0.273978 0.899770
vn 0.002054 0.000000 -0.999998
vn 0.002054 0.000000 -0.999998
vn 0.002054 0.000000 -0.999998
vn 0.002054 0.000000 -0.999998
vn 0.999998 -0.000000 0.002051
vn 0.999998 -0.000000 0.002051
vn 0.999998 -0.000000 0.002051
vn 0.999998 -0.000000 0.002051
vn -0.999998 0.000000 -0.002048
vn -0.999998 0.000000 -0.002048
vn -0.999998 0.000000 -0.002048
vn -0.999998 0.000000 -0.002048
vn 0.000000 1.000000 0.000000
vn 0.000000 1.000000 -0.000001
vn 0.000000 1.000000 -0.000001
vn 0.000000 -1.000000 0.000001
vn 0.000000 -1.000000 0.000000
vn 0.000000 -1.000000 0.000001
vn 0.000000 1.000000 0.000002
vn 0.000000 1.000000 -0.000001
vn 0.000000 1.000000 0.000000
vn 0.000000 -1.000000 0.000001
vn 0.000000 -1.000000 0.000001
vn 0.000000 -1.000000 0.000001
s off
g polySurface199
usemtl lambert2SG
f 51/65/109 52/66/110 58/67/111 57/68/112
f 57/68/113 58/67/114 54/69/115 53/70/116
f 55/71/117 56/72/118 52/66/119 51/65/120
f 58/73/121 56/72/122 54/74/123
f 55/71/124 51/65/125 57/75/126
f 52/66/127 56/72/128 58/73/129
f 55/71/130 57/75/131 53/76/132
g default
v 4.471169 31.721418 3.993354
v -20.770882 31.721418 3.941582
v 4.466209 33.020924 6.410882
v -20.775841 33.020924 6.359112
v 4.466209 31.721418 6.410882
v -20.775841 31.721418 6.359112
v 4.470901 33.020924 4.019240
v -20.771149 33.020924 3.967468
vt 0.345853 0.867311
vt 0.579682 0.867973
vt 0.579685 0.879125
vt 0.349365 0.879143
vt 0.579694 0.900477
vt 0.349383 0.900514
vt 0.350096 0.845918
vt 0.579679 0.845931
vt 0.590325 0.866773
vt 0.591513 0.845949
vt 0.281439 0.866768
vt 0.281926 0.845960
vn 0.002051 0.000000 -0.999998
vn 0.002051 0.000000 -0.999998
vn 0.002051 0.000000 -0.999998
vn 0.002051 0.000000 -0.999998
vn 0.000000 1.000000 0.000000
vn 0.000000 1.000000 0.000000
vn 0.000000 1.000000 0.000000
vn 0.000000 1.000000 0.000000
vn 0.000000 -1.000000 0.000000
vn 0.000000 -1.000000 0.000000
vn 0.000000 -1.000000 0.000000
vn 0.000000 -1.000000 0.000000
vn -0.999998 -0.000001 -0.002051
vn -0.999998 -0.000001 -0.002051
vn -0.999998 -0.000001 -0.002051
vn 0.999998 0.000000 0.002051
vn 0.999998 0.000000 0.002051
vn 0.999998 0.000000 0.002051
vn 0.999998 0.000000 0.002051
vn 0.999998 0.000001 0.002051
vn 0.999998 0.000001 0.002051
vn -0.999998 0.000000 -0.002051
vn -0.999998 -0.000001 -0.002051
vn -0.999998 -0.000001 -0.002051
s off
g polySurface200
usemtl lambert2SG
f 59/77/133 60/78/134 66/79/135 65/80/136
f 65/80/137 66/79/138 62/81/139 61/82/140
f 63/83/141 64/84/142 60/78/143 59/77/144
f 66/85/145 64/84/146 62/86/147
f 63/83/148 59/77/149 65/87/150
f 63/83/151 65/87/152 61/88/153
f 60/78/154 64/84/155 66/85/156
g default
v 11.816077 1.564157 6.468045
v 11.816077 14.528159 6.468045
v 20.671452 14.528159 6.426393
v 11.908614 14.401776 -0.062189
v 20.511234 14.401776 -0.102534
v 11.911361 1.690538 0.467728
v 20.513981 1.690538 0.427387
vt 0.684826 0.868595
vt 0.686321 0.822784
vt 0.754943 0.822173
vt 0.754499 0.868706
vt 0.796073 0.732607
vt 0.799502 0.819105
vt 0.755730 0.731161
vt 0.998074 0.784294
vt 0.917631 0.783712
vt 0.928936 0.694256
vt 1.009378 0.694838
vn 0.000000 1.000000 0.000000
vn 0.000000 1.000000 0.000000
vn 0.000000 1.000000 0.000000
vn 0.000000 1.000000 0.000000
vn -0.999987 0.000000 0.005183
vn -0.999987 0.000000 0.005183
vn -0.999987 0.000000 0.005183
vn -0.999987 0.000000 0.005183
vn 0.006785 -0.044397 -0.998991
vn 0.006785 -0.044397 -0.998991
vn -0.005165 -0.083106 -0.996527
vn -0.005165 -0.083106 -0.996527
s off
g polySurface195
usemtl lambert2SG
f 69/89/157 71/90/158 70/91/159 68/92/160
f 67/93/161 68/94/162 70/91/163 72/95/164
f 70/96/165 71/97/166 73/98/167 72/99/168
g default
v -2.728661 18.380045 3.978585
v -16.247910 18.380045 3.950853
v -2.733620 19.679552 6.396114
v -16.252869 19.679552 6.368382
v -2.733620 18.380045 6.396114
v -16.252869 18.380045 6.368382
v -2.729062 19.679552 3.992451
v -16.248310 19.679552 3.964719
vt 0.155824 0.878101
vt 0.025748 0.877741
vt 0.025745 0.866930
vt 0.149055 0.866924
vt 0.025746 0.845923
vt 0.149063 0.845924
vt 0.146960 0.899768
vt 0.025740 0.899789
vt 0.015676 0.879507
vt 0.013887 0.899770
vt 0.278496 0.879494
vt 0.273978 0.899770
vn 0.002051 0.000000 -0.999998
vn 0.002051 0.000000 -0.999998
vn 0.002051 0.000000 -0.999998
vn 0.002051 0.000000 -0.999998
vn 0.000000 1.000000 0.000000
vn 0.000000 1.000000 0.000000
vn 0.000000 1.000000 0.000000
vn 0.000000 1.000000 0.000000
vn 0.000000 -1.000000 0.000000
vn 0.000000 -1.000000 0.000000
vn 0.000000 -1.000000 0.000000
vn 0.000000 -1.000000 0.000000
vn -0.999998 0.000000 -0.002051
vn -0.999998 0.000000 -0.002051
vn -0.999998 0.000000 -0.002051
vn 0.999998 0.000001 0.002051
vn 0.999998 0.000000 0.002051
vn 0.999998 0.000001 0.002051
vn -0.999998 0.000000 -0.002051
vn -0.999998 0.000000 -0.002051
vn -0.999998 0.000000 -0.002051
vn 0.999998 0.000001 0.002051
vn 0.999998 0.000001 0.002051
vn 0.999998 0.000001 0.002051
s off
g polySurface198
usemtl lambert2SG
f 74/100/169 75/101/170 81/102/171 80/103/172
f 80/103/173 81/102/174 77/104/175 76/105/176
f 78/106/177 79/107/178 75/101/179 74/100/180
f 81/108/181 79/107/182 77/109/183
f 78/106/184 74/100/185 80/110/186
f 75/101/187 79/107/188 81/108/189
f 78/106/190 80/110/191 76/111/192
g default
v -20.776363 27.443851 1.425333
v -20.776363 32.916458 1.425333
v 4.269023 27.622650 0.148330
v -20.773535 27.571564 0.045884
v 4.269023 32.737663 0.148330
v -20.773535 32.788742 0.045884
v 4.317383 32.763203 1.476802
v 4.317383 27.597107 1.476802
vt 0.175544 0.712265
vt 0.181766 0.579880
vt 0.223980 0.579789
vt 0.230382 0.712494
vt 0.237225 0.579783
vt 0.237062 0.697443
vt 0.169081 0.697448
vt 0.168531 0.579942
vt 0.164668 0.743661
vt 0.240249 0.744469
vn 0.013692 -0.058773 -0.998178
vn 0.002047 -0.059227 -0.998242
vn 0.002047 0.059227 -0.998242
vn 0.013692 0.058773 -0.998177
vn 0.010736 0.980776 -0.194843
vn 0.000402 0.980585 -0.196097
vn 0.000000 1.000000 0.000000
vn 0.012140 0.999926 0.000025
vn 0.010736 -0.980775 -0.194844
vn 0.012140 -0.999926 0.000025
vn 0.000000 -1.000000 0.000000
vn 0.000402 -0.980584 -0.196098
vn 0.998242 -0.059227 0.002044
vn 0.980889 -0.050821 -0.187815
vn 0.980889 0.050821 -0.187815
vn 0.998242 0.059227 0.002044
s off
g polySurface201
usemtl lambert2SG
f 84/112/193 85/113/194 87/114/195 86/115/196
f 86/115/197 87/114/198 83/116/199 88/117/200
f 84/112/201 89/118/202 82/119/203 85/113/204
f 89/120/205 84/112/206 86/115/207 88/121/208
