# This file uses centimeters as units for non-parametric coordinates.

mtllib MazeBig02COL.mtl
g default
v -20.558865 24.805952 1.551678
v -20.558865 16.707415 1.551678
v 3.206161 20.499331 1.566936
v -5.300175 24.266756 1.561476
v -5.697071 16.707415 1.561222
v 2.138293 16.951080 -2.629467
v -5.607038 16.900339 -4.036925
v 3.319426 20.995266 -2.693090
v 2.166115 16.883167 1.566269
v -20.554844 24.600185 -4.708022
v -0.931162 24.466835 -3.415609
v 2.904093 23.543983 1.566743
v 2.931775 23.575909 -1.201277
v -20.554844 16.913181 -4.708425
vt 0.680149 0.774716
vt 0.627564 0.780006
vt 0.624835 0.703677
vt 0.680099 0.700494
vt 0.744178 0.860958
vt 0.714919 0.853557
vt 0.741559 0.815669
vt 0.743558 0.699906
vt 0.795540 0.784894
vt 0.772536 0.865709
vt 0.677146 0.889126
vt 0.680194 0.847351
vt 0.710447 0.891974
vt 0.742800 0.890827
vt 0.799569 0.703210
vt 0.640846 0.852554
vn 0.005621 -0.997119 -0.075642
vn 0.000000 -1.000000 0.000000
vn 0.000000 -1.000000 0.000000
vn 0.003006 -0.997662 -0.068281
vn 0.572582 0.603039 -0.555423
vn 0.562347 0.359858 -0.744492
vn 0.429520 0.571409 -0.699288
vn 0.090243 0.054237 -0.994442
vn 0.071460 -0.026322 -0.997096
vn 0.055463 -0.023658 -0.998180
vn 0.056307 0.075636 -0.995544
vn 0.144284 0.985301 0.091458
vn 0.047119 0.998094 -0.039859
vn 0.022913 0.998015 0.058661
vn 0.131306 0.983942 0.120903
vn 0.937612 -0.345969 0.034498
vn 0.937322 -0.344073 -0.055145
vn 0.989079 -0.144223 -0.030375
vn 0.988566 -0.142677 0.048801
vn 0.988566 -0.142677 0.048801
vn 0.989079 -0.144223 -0.030375
vn 0.984733 0.173101 0.018351
vn 0.984424 0.164130 0.063013
vn 0.022913 0.998015 0.058661
vn 0.047119 0.998094 -0.039859
vn 0.018849 0.999316 -0.031805
vn 0.014858 0.998566 0.051423
vn 0.189662 -0.101232 -0.976617
vn 0.071460 -0.026322 -0.997096
vn 0.090243 0.054237 -0.994442
vn 0.204228 -0.025808 -0.978583
vn 0.042770 -0.996858 -0.066670
vn 0.036963 -0.999317 0.000226
vn 0.000000 -1.000000 0.000000
vn 0.005621 -0.997119 -0.075642
s off
g polySurface200
usemtl lambert2SG
f 7/1/1 5/2/2 2/3/3 14/4/4
f 13/5/5 8/6/6 11/7/7
f 11/7/8 7/1/9 14/4/10 10/8/11
f 13/5/12 11/7/13 4/9/14 12/10/15
f 9/11/16 6/12/17 8/6/18 3/13/19
f 3/13/20 8/6/21 13/5/22 12/14/23
f 4/9/24 11/7/25 10/8/26 1/15/27
f 6/12/28 7/1/29 11/7/30 8/6/31
f 6/12/32 9/16/33 5/2/34 7/1/35
g default
v 20.242191 0.000000 -6.940832
v -23.524258 0.000000 -6.968933
v 20.240662 2.533153 -4.560148
v -23.525785 2.533153 -4.588249
v 20.240662 0.000000 -4.560148
v -23.525785 0.000000 -4.588249
v 20.242105 2.533153 -6.926782
v -23.524343 2.533153 -6.954882
vt 0.231770 0.954501
vt 0.266024 0.953833
vt 0.266006 0.942171
vt 0.231803 0.942833
vt 0.232548 0.921589
vt 0.243489 0.942784
vt 0.254344 0.942189
vt 0.254310 0.920476
vt 0.265169 0.920930
vt 0.265957 0.910209
vt 0.231748 0.910868
vt 0.243392 0.921046
vn -0.000642 0.000000 1.000000
vn -0.000642 0.000000 1.000000
vn -0.000642 0.000000 1.000000
vn -0.000642 0.000000 1.000000
vn -1.000000 -0.000001 -0.000642
vn -1.000000 -0.000001 -0.000642
vn -1.000000 -0.000001 -0.000642
vn 1.000000 0.000000 0.000643
vn 1.000000 0.000000 0.000643
vn 1.000000 0.000000 0.000642
vn 0.000639 0.103904 -0.994587
vn 0.000639 0.103903 -0.994587
vn 0.000642 0.000000 -1.000000
vn 0.000642 0.000000 -1.000000
vn 0.000000 1.000000 0.000000
vn 0.000000 1.000000 0.000000
vn 0.000071 0.993879 -0.110479
vn 0.000071 0.993879 -0.110478
vn 1.000000 0.000000 0.000643
vn 1.000000 0.000000 0.000642
vn 1.000000 0.000000 0.000642
vn -1.000000 0.000000 -0.000642
vn -1.000000 -0.000001 -0.000642
vn -1.000000 -0.000001 -0.000642
s off
g polySurface201
usemtl lambert2SG
f 20/17/36 19/18/37 17/19/38 18/20/39
f 22/21/40 20/22/41 18/20/42
f 19/23/43 15/24/44 21/25/45
f 22/21/46 21/25/47 15/26/48 16/27/49
f 18/20/50 17/19/51 21/25/52 22/21/53
f 19/23/54 21/25/55 17/19/56
f 16/28/57 20/22/58 22/21/59
g default
v -22.407705 8.209404 -5.116875
v -22.407705 39.516060 -5.116875
v -20.478580 8.209404 1.494968
v -20.478582 39.516060 1.494968
v -22.411949 8.209404 1.493729
v -22.411951 39.516060 1.493725
v -20.478582 8.209404 -5.116875
v -20.478582 39.516060 -5.116875
vt 0.763444 0.893703
vt 0.954726 0.893718
vt 0.954728 0.904534
vt 0.763438 0.904519
vt 0.954733 0.925549
vt 0.763430 0.925533
vt 0.964801 0.891926
vt 0.954720 0.871662
vt 0.966574 0.871643
vt 0.763452 0.871645
vt 0.753371 0.891912
vt 0.751594 0.871634
vn 0.000643 0.000000 -1.000000
vn 0.000643 0.000000 -1.000000
vn 0.000643 0.000000 -1.000000
vn 0.000643 0.000000 -1.000000
vn 1.000000 0.000000 0.000642
vn 1.000000 0.000000 0.000642
vn 1.000000 0.000000 0.000642
vn 1.000000 0.000000 0.000642
vn 0.000000 1.000000 0.000000
vn 0.000000 1.000000 0.000000
vn 0.000000 1.000000 0.000001
vn 0.000000 -1.000000 0.000000
vn 0.000000 -1.000000 0.000000
vn 0.000000 -1.000000 0.000000
vn 0.000000 -1.000000 0.000000
vn 0.000000 -1.000000 0.000000
vn 0.000000 -1.000000 0.000000
vn 0.000000 1.000000 0.000000
vn 0.000000 1.000000 0.000000
vn 0.000000 1.000000 0.000000
s off
g polySurface199
usemtl lambert2SG
f 23/29/60 24/30/61 30/31/62 29/32/63
f 29/32/64 30/31/65 26/33/66 25/34/67
f 30/35/68 28/36/69 26/37/70
f 27/38/71 23/29/72 29/39/73
f 27/38/74 29/39/75 25/40/76
f 24/30/77 28/36/78 30/35/79
g default
v 19.007759 27.821787 -0.897209
v -5.473328 31.553610 -0.912928
v 19.006203 32.853115 1.520321
v -5.474876 32.853115 1.504602
v 19.006203 27.821787 1.520321
v -5.474876 31.553610 1.504602
v 15.227779 31.553610 -0.899637
v 15.226227 32.853115 1.517895
v 15.226227 31.553610 1.517895
v 19.007631 32.853115 -0.905069
v 15.227654 32.853115 -0.907496
v -5.473452 32.853115 -0.920787
vt 0.357348 0.808926
vt 0.405795 0.808952
vt 0.405784 0.831002
vt 0.357336 0.830976
vt 0.545992 0.829293
vt 0.535928 0.809016
vt 0.547780 0.809022
vt 0.535917 0.831066
vt 0.652287 0.902693
vt 0.686991 0.936543
vt 0.687019 0.947353
vt 0.652542 0.947528
vt 0.687069 0.968359
vt 0.652629 0.968535
vt 0.817153 0.936441
vt 0.817163 0.947253
vt 0.817178 0.968261
vn -0.702559 -0.711625 -0.000452
vn -0.702559 -0.711625 -0.000452
vn -0.702559 -0.711625 -0.000452
vn -0.702559 -0.711625 -0.000452
vn -1.000000 0.000001 -0.000641
vn -1.000000 0.000001 -0.000641
vn -1.000000 0.000001 -0.000641
vn 0.000000 -1.000000 0.000000
vn 0.000000 -1.000000 0.000000
vn 0.000000 -1.000000 0.000000
vn 0.000000 -1.000000 0.000000
vn 0.000642 0.000000 -1.000000
vn 0.000642 0.000000 -1.000000
vn 0.000642 0.000000 -1.000000
vn 0.000642 0.000000 -1.000000
vn 0.000000 1.000000 0.000000
vn 0.000000 1.000000 0.000000
vn 0.000000 1.000000 0.000000
vn 0.000000 1.000000 0.000000
vn 0.000642 0.000000 -1.000000
vn 0.000642 0.000000 -1.000000
vn 0.000642 0.000000 -1.000000
vn 0.000642 0.000000 -1.000000
vn 0.000000 1.000000 0.000000
vn 0.000000 1.000000 0.000000
vn 0.000000 1.000000 0.000000
vn 0.000000 1.000000 0.000000
vn -1.000000 0.000000 -0.000641
vn -1.000000 0.000001 -0.000641
vn -1.000000 0.000001 -0.000641
s off
g polySurface198
usemtl lambert2SG
f 35/41/80 39/42/81 37/43/82 31/44/83
f 42/45/84 36/46/85 34/47/86
f 37/43/87 39/42/88 36/46/89 32/48/90
f 31/49/91 37/50/92 41/51/93 40/52/94
f 40/52/95 41/51/96 38/53/97 33/54/98
f 37/50/99 32/55/100 42/56/101 41/51/102
f 38/53/103 41/51/104 42/56/105 34/57/106
f 32/48/107 36/46/108 42/45/109
