# This file uses centimeters as units for non-parametric coordinates.

mtllib RuinsDoorwayCOL.mtl
g default
v -26.505394 43.377403 13.896277
v 26.558079 45.395374 13.896277
v -26.505394 60.645760 13.896277
v 26.558079 60.645760 13.896277
v -26.505394 60.645760 -19.813541
v 26.558079 60.645760 -19.813541
v -26.505394 43.377403 -19.813541
v 26.558079 45.395374 -19.813541
vt 0.375000 0.000000
vt 0.625000 0.000000
vt 0.625000 0.250000
vt 0.375000 0.250000
vt 0.375000 0.500000
vt 0.625000 0.500000
vt 0.625000 0.750000
vt 0.375000 0.750000
vt 0.625000 1.000000
vt 0.375000 1.000000
vn 0.000000 0.000000 1.000000
vn 0.000000 0.000000 1.000000
vn 0.000000 0.000000 1.000000
vn 0.000000 0.000000 1.000000
vn 0.000000 0.000000 -1.000000
vn 0.000000 0.000000 -1.000000
vn 0.000000 0.000000 -1.000000
vn 0.000000 0.000000 -1.000000
vn 0.038002 -0.999278 0.000000
vn 0.038002 -0.999278 0.000000
vn 0.038002 -0.999278 0.000000
vn 0.038002 -0.999278 0.000000
s off
g pCube36
usemtl initialShadingGroup
f 1/1/1 2/2/2 4/3/3 3/4/4
f 5/5/5 6/6/6 8/7/7 7/8/8
f 7/8/9 8/7/10 2/9/11 1/10/12
g default
v 27.100452 -1.918076 20.383230
v 41.750408 -1.918076 20.383230
v 23.766682 59.809723 20.062166
v 40.571323 59.809723 20.062166
v 23.766682 59.809723 7.595451
v 40.571323 59.809723 7.595451
v 27.100452 -1.918076 7.595451
v 41.750408 -1.918076 7.595451
v 37.837208 45.717682 7.595451
v 37.837208 45.717682 17.248363
v 26.450920 45.717682 17.248363
v 26.450920 45.717682 7.595451
v 37.540302 9.382634 7.595451
v 37.540302 9.382636 17.033834
v 27.100452 9.382636 17.033834
v 27.100452 9.382634 7.595451
vt 0.375000 0.000000
vt 0.625000 0.000000
vt 0.625000 0.045292
vt 0.375000 0.045292
vt 0.875000 0.000000
vt 0.875000 0.045292
vt 0.125000 0.000000
vt 0.125000 0.045292
vt 0.625000 0.195870
vt 0.875000 0.195870
vt 0.875000 0.250000
vt 0.625000 0.250000
vt 0.375000 0.195870
vt 0.375000 0.250000
vt 0.125000 0.195870
vt 0.125000 0.250000
vn 0.000000 0.284169 0.958774
vn 0.000000 0.284169 0.958774
vn 0.000000 0.284169 0.958774
vn 0.000000 0.284169 0.958774
vn 0.937081 0.349112 0.000000
vn 0.937081 0.349112 0.000000
vn 0.995700 0.092637 0.000000
vn 0.993142 0.116915 0.000000
vn -1.000000 0.000000 0.000000
vn -1.000000 0.000000 0.000000
vn -0.999936 -0.011325 0.000000
vn -0.999914 -0.013123 0.000000
vn 0.996755 -0.080497 0.000000
vn 0.997843 -0.065649 0.000000
vn 0.981694 -0.190467 0.000000
vn 0.981694 -0.190467 0.000000
vn 0.000000 -0.087590 0.996157
vn 0.000000 -0.086247 0.996274
vn 0.000000 -0.195808 0.980642
vn 0.000000 -0.195808 0.980642
vn -0.997461 -0.071209 0.000000
vn -0.996376 -0.085059 0.000000
vn -0.982338 -0.187115 0.000000
vn -0.982338 -0.187115 0.000000
vn 0.993142 0.116915 0.000000
vn 0.995700 0.092637 0.000000
vn 0.997843 -0.065649 0.000000
vn 0.996755 -0.080497 0.000000
vn 0.000000 0.070279 0.997527
vn 0.000000 0.098036 0.995183
vn 0.000000 -0.086247 0.996274
vn 0.000000 -0.087590 0.996157
vn -0.999914 -0.013123 0.000000
vn -0.999936 -0.011325 0.000000
vn -0.996376 -0.085059 0.000000
vn -0.997461 -0.071209 0.000000
s off
g pCube38
usemtl initialShadingGroup
f 9/11/13 10/12/14 22/13/15 23/14/16
f 10/12/17 16/15/18 21/16/19 22/13/20
f 15/17/21 9/11/22 23/14/23 24/18/24
f 18/19/25 17/20/26 14/21/27 12/22/28
f 19/23/29 18/19/30 12/22/31 11/24/32
f 20/25/33 19/23/34 11/24/35 13/26/36
f 22/13/37 21/16/38 17/20/39 18/19/40
f 23/14/41 22/13/42 18/19/43 19/23/44
f 24/18/45 23/14/46 19/23/47 20/25/48
g default
v -14.971466 -1.763374 19.746553
v 14.971451 -1.763374 19.746553
v 14.971451 2.123299 13.293625
v -14.971466 2.123299 13.293625
v -14.971466 2.123299 -19.162235
v -14.971466 -1.763374 -25.615166
v 14.971451 2.123299 -19.162235
v 14.971451 -1.763374 -25.615166
v 14.971451 2.123299 6.802813
v -14.971466 2.123299 6.802813
v 14.971451 -1.763374 6.802813
v -14.971466 -1.763374 6.802813
v -14.971466 -1.763374 -12.671426
v -14.971466 2.123299 -12.671426
v 14.971451 2.123299 -12.671426
v 14.971451 -1.763374 -12.671426
vt 0.843493 0.701575
vt 0.690395 0.701549
vt 0.690405 0.663025
vt 0.843492 0.663055
vt 0.843767 0.447880
vt 0.843878 0.486496
vt 0.690412 0.486477
vt 0.690398 0.447898
vt 0.670503 0.629835
vt 0.690402 0.629828
vt 0.670544 0.696031
vt 0.843495 0.629876
vt 0.863379 0.629885
vt 0.863362 0.696003
vt 0.863904 0.520188
vt 0.843894 0.519929
vt 0.863973 0.452403
vt 0.690413 0.519707
vt 0.670491 0.519696
vt 0.670523 0.453448
vn 0.000000 0.856618 0.515951
vn 0.000000 0.856618 0.515951
vn 0.000000 0.856618 0.515951
vn 0.000000 0.856618 0.515951
vn 0.000000 0.856618 -0.515951
vn 0.000000 0.856618 -0.515951
vn 0.000000 0.856618 -0.515951
vn 0.000000 0.856618 -0.515951
vn 1.000000 0.000000 0.000000
vn 1.000000 0.000000 0.000000
vn 1.000000 0.000000 0.000000
vn 1.000000 0.000000 0.000000
vn 0.000000 1.000000 0.000000
vn 0.000000 1.000000 0.000000
vn 0.000000 1.000000 0.000000
vn 0.000000 1.000000 0.000000
vn -1.000000 0.000000 0.000000
vn -1.000000 0.000000 0.000000
vn -1.000000 0.000000 0.000000
vn -1.000000 0.000000 0.000000
vn -1.000000 0.000000 0.000000
vn -1.000000 0.000000 0.000000
vn -1.000000 0.000000 0.000000
vn -1.000000 0.000000 0.000000
vn 0.000000 1.000000 0.000000
vn 0.000000 1.000000 0.000000
vn 0.000000 1.000000 0.000000
vn 0.000000 1.000000 0.000000
vn 1.000000 -0.000000 0.000000
vn 1.000000 -0.000000 0.000000
vn 1.000000 -0.000000 0.000000
vn 1.000000 -0.000000 0.000000
vn 0.000000 1.000000 0.000000
vn 0.000000 1.000000 0.000000
vn 0.000000 1.000000 0.000000
vn 0.000000 1.000000 0.000000
s off
g polySurface8
usemtl initialShadingGroup
f 25/27/49 26/28/50 27/29/51 28/30/52
f 30/31/53 29/32/54 31/33/55 32/34/56
f 35/35/57 33/36/58 27/29/59 26/37/60
f 33/36/61 34/38/62 28/30/63 27/29/64
f 34/38/65 36/39/66 25/40/67 28/30/68
f 37/41/69 38/42/70 29/32/71 30/43/72
f 38/42/73 39/44/74 31/33/75 29/32/76
f 39/44/77 40/45/78 32/46/79 31/33/80
f 33/36/81 39/44/82 38/42/83 34/38/84
g default
v -50.358910 -1.763374 7.595450
v -14.599849 -1.763374 7.595450
v -50.358910 60.330872 7.595450
v -14.599849 60.330872 7.595450
v -50.358910 60.330872 -12.853463
v -14.599849 60.330872 -12.853463
v -50.358910 -1.763374 -12.853463
v -14.599849 -1.763374 -12.853463
v -18.499872 -1.763374 7.595450
v -18.499872 60.330872 7.595450
v -18.499872 60.330872 -12.853463
v -18.499872 -1.763374 -12.853463
v -26.617331 -1.763374 7.595450
v -26.617331 60.330872 7.595450
v -26.617331 60.330872 -12.853463
v -26.617331 -1.763374 -12.853463
v -26.617331 60.330872 -17.944885
v -26.617331 -1.763374 -17.944885
v -18.499872 60.330872 -17.944885
v -18.499872 -1.763374 -17.944885
v -26.617331 -1.763374 12.235592
v -18.499872 -1.763374 12.235592
v -18.499872 60.330872 12.235592
v -26.617331 60.330872 12.235592
vt 0.375000 0.000000
vt 0.540983 0.000000
vt 0.540983 0.250000
vt 0.375000 0.250000
vt 0.540983 0.500000
vt 0.375000 0.500000
vt 0.540983 0.750000
vt 0.375000 0.750000
vt 0.625000 0.000000
vt 0.875000 0.000000
vt 0.875000 0.250000
vt 0.625000 0.250000
vt 0.125000 0.000000
vt 0.125000 0.250000
vt 0.597734 0.000000
vt 0.597734 0.250000
vt 0.597734 0.500000
vt 0.625000 0.500000
vt 0.597734 0.750000
vt 0.625000 0.750000
vt 0.540983 0.000000
vt 0.597734 0.000000
vt 0.597734 0.250000
vt 0.540983 0.250000
vt 0.540983 0.750000
vt 0.540983 0.500000
vt 0.597734 0.500000
vt 0.597734 0.750000
vn 0.000000 0.000000 1.000000
vn 0.000000 0.000000 1.000000
vn 0.000000 0.000000 1.000000
vn 0.000000 0.000000 1.000000
vn 0.000000 1.000000 0.000000
vn 0.000000 1.000000 0.000000
vn 0.000000 1.000000 0.000000
vn 0.000000 1.000000 0.000000
vn 0.000000 0.000000 -1.000000
vn 0.000000 0.000000 -1.000000
vn 0.000000 0.000000 -1.000000
vn 0.000000 0.000000 -1.000000
vn 1.000000 0.000000 0.000000
vn 1.000000 0.000000 0.000000
vn 1.000000 0.000000 0.000000
vn 1.000000 0.000000 0.000000
vn -1.000000 0.000000 0.000000
vn -1.000000 0.000000 0.000000
vn -1.000000 0.000000 0.000000
vn -1.000000 0.000000 0.000000
vn 0.000000 0.000000 1.000000
vn 0.000000 0.000000 1.000000
vn 0.000000 0.000000 1.000000
vn 0.000000 0.000000 1.000000
vn 0.000000 1.000000 0.000000
vn 0.000000 1.000000 0.000000
vn 0.000000 1.000000 0.000000
vn 0.000000 1.000000 0.000000
vn 0.000000 0.000000 -1.000000
vn 0.000000 0.000000 -1.000000
vn 0.000000 0.000000 -1.000000
vn 0.000000 0.000000 -1.000000
vn 0.000000 0.000000 1.000000
vn 0.000000 0.000000 1.000000
vn 0.000000 0.000000 1.000000
vn 0.000000 0.000000 1.000000
vn 0.000000 1.000000 0.000000
vn 0.000000 1.000000 0.000000
vn 0.000000 1.000000 0.000000
vn 0.000000 1.000000 0.000000
vn 0.000000 0.000000 -1.000000
vn 0.000000 0.000000 -1.000000
vn 0.000000 0.000000 -1.000000
vn 0.000000 0.000000 -1.000000
vn -1.000000 0.000000 0.000000
vn -1.000000 0.000000 0.000000
vn -1.000000 0.000000 0.000000
vn -1.000000 0.000000 0.000000
vn 0.000000 1.000000 0.000000
vn 0.000000 1.000000 0.000000
vn 0.000000 1.000000 0.000000
vn 0.000000 1.000000 0.000000
vn 1.000000 0.000000 0.000000
vn 1.000000 0.000000 0.000000
vn 1.000000 0.000000 0.000000
vn 1.000000 0.000000 0.000000
vn 1.000000 0.000000 0.000000
vn 1.000000 0.000000 0.000000
vn 1.000000 0.000000 0.000000
vn 1.000000 0.000000 0.000000
vn 0.000000 1.000000 0.000000
vn 0.000000 1.000000 0.000000
vn 0.000000 1.000000 0.000000
vn 0.000000 1.000000 0.000000
vn -1.000000 0.000000 0.000000
vn -1.000000 0.000000 0.000000
vn -1.000000 0.000000 0.000000
vn -1.000000 0.000000 0.000000
s off
g pCube35
usemtl initialShadingGroup
f 41/47/85 53/48/86 54/49/87 43/50/88
f 43/50/89 54/49/90 55/51/91 45/52/92
f 45/52/93 55/51/94 56/53/95 47/54/96
f 42/55/97 48/56/98 46/57/99 44/58/100
f 47/59/101 41/47/102 43/50/103 45/60/104
f 49/61/105 42/55/106 44/58/107 50/62/108
f 51/63/109 50/62/110 44/58/111 46/64/112
f 52/65/113 51/63/114 46/64/115 48/66/116
f 61/67/117 62/68/118 63/69/119 64/70/120
f 55/51/121 54/49/122 50/62/123 51/63/124
f 58/71/125 57/72/126 59/73/127 60/74/128
f 56/53/129 55/51/130 57/72/131 58/71/132
f 55/51/133 51/63/134 59/73/135 57/72/136
f 51/63/137 52/65/138 60/74/139 59/73/140
f 49/61/141 50/62/142 63/69/143 62/68/144
f 50/62/145 54/49/146 64/70/147 63/69/148
f 54/49/149 53/48/150 61/67/151 64/70/152
g default
v 27.237070 -1.918076 -26.243555
v 41.616589 -1.918076 -26.243555
v 23.903299 59.809723 -25.815041
v 40.475029 59.809723 -25.815041
v 23.903299 59.809723 -12.764980
v 40.475029 59.809723 -12.764980
v 27.237070 -1.918076 -12.764980
v 41.616589 -1.918076 -12.764980
v 37.973824 45.717682 -12.764980
v 37.973824 45.717682 -23.016138
v 26.587538 45.717682 -23.016138
v 26.587538 45.717682 -12.764980
v 37.676918 9.382634 -12.764980
v 37.676918 9.382636 -22.633526
v 27.237070 9.382636 -22.633526
v 27.237070 9.382634 -12.764980
vt 0.375000 0.000000
vt 0.625000 0.000000
vt 0.625000 0.045292
vt 0.375000 0.045292
vt 0.875000 0.000000
vt 0.875000 0.045292
vt 0.125000 0.000000
vt 0.125000 0.045292
vt 0.625000 0.195870
vt 0.875000 0.195870
vt 0.875000 0.250000
vt 0.625000 0.250000
vt 0.375000 0.195870
vt 0.375000 0.250000
vt 0.125000 0.195870
vt 0.125000 0.250000
vn 0.000000 0.304302 -0.952576
vn 0.000000 0.304302 -0.952576
vn 0.000000 0.304302 -0.952576
vn 0.000000 0.304302 -0.952576
vn 0.944264 0.329191 0.000000
vn 0.944264 0.329191 0.000000
vn 0.944264 0.329191 0.000000
vn 0.944264 0.329191 0.000000
vn -1.000000 0.000000 0.000000
vn -1.000000 0.000000 0.000000
vn -1.000000 0.000000 0.000000
vn -1.000000 0.000000 0.000000
vn 0.984611 -0.174759 0.000000
vn 0.984611 -0.174759 0.000000
vn 0.984611 -0.174759 0.000000
vn 0.984611 -0.174759 0.000000
vn 0.000000 -0.194811 -0.980841
vn 0.000000 -0.194811 -0.980841
vn 0.000000 -0.194811 -0.980841
vn 0.000000 -0.194811 -0.980841
vn -0.982338 -0.187115 0.000000
vn -0.982338 -0.187115 0.000000
vn -0.982338 -0.187115 0.000000
vn -0.982338 -0.187115 0.000000
vn 0.999967 -0.008171 -0.000000
vn 0.999967 -0.008171 -0.000000
vn 0.999967 -0.008171 -0.000000
vn 0.999967 -0.008171 -0.000000
vn 0.000000 -0.010530 -0.999945
vn 0.000000 -0.010530 -0.999945
vn 0.000000 -0.010530 -0.999945
vn 0.000000 -0.010530 -0.999945
vn -0.999840 -0.017873 0.000000
vn -0.999840 -0.017873 0.000000
vn -0.999840 -0.017873 0.000000
vn -0.999840 -0.017873 0.000000
s off
g pCube40
usemtl initialShadingGroup
f 65/75/153 79/78/154 78/77/155 66/76/156
f 66/76/157 78/77/158 77/80/159 72/79/160
f 71/81/161 80/82/162 79/78/163 65/75/164
f 74/83/165 68/86/166 70/85/167 73/84/168
f 75/87/169 67/88/170 68/86/171 74/83/172
f 76/89/173 69/90/174 67/88/175 75/87/176
f 78/77/177 74/83/178 73/84/179 77/80/180
f 79/78/181 75/87/182 74/83/183 78/77/184
f 80/82/185 76/89/186 75/87/187 79/78/188
g default
v -27.270651 -1.918076 20.386162
v -41.534809 -1.918076 20.386162
v -24.234264 59.809723 19.254402
v -41.279476 59.809723 19.254402
v -24.234264 59.809723 7.595451
v -41.279476 59.809723 7.595451
v -27.270651 -1.918076 7.595451
v -41.534809 -1.918076 7.595451
v -38.007404 45.717682 7.595451
v -38.007404 45.717682 17.248363
v -26.621119 45.717682 17.248363
v -26.621119 45.717682 7.595451
v -37.710499 9.382634 7.595451
v -37.710499 9.382636 17.033834
v -27.270651 9.382636 17.033834
v -27.270651 9.382634 7.595451
vt 0.375000 0.000000
vt 0.625000 0.000000
vt 0.625000 0.045292
vt 0.375000 0.045292
vt 0.875000 0.000000
vt 0.875000 0.045292
vt 0.125000 0.000000
vt 0.125000 0.045292
vt 0.625000 0.195870
vt 0.875000 0.195870
vt 0.875000 0.250000
vt 0.625000 0.250000
vt 0.375000 0.195870
vt 0.375000 0.250000
vt 0.125000 0.195870
vt 0.125000 0.250000
vn 0.000000 0.284398 0.958706
vn 0.000000 0.284398 0.958706
vn 0.000000 0.284398 0.958706
vn 0.000000 0.284398 0.958706
vn -0.947230 0.320555 -0.000000
vn -0.947230 0.320555 -0.000000
vn -0.947230 0.320555 -0.000000
vn -0.947230 0.320555 -0.000000
vn 1.000000 -0.000000 0.000000
vn 1.000000 -0.000000 0.000000
vn 1.000000 -0.000000 0.000000
vn 1.000000 -0.000000 0.000000
vn -0.974086 -0.226176 0.000000
vn -0.974086 -0.226176 0.000000
vn -0.974087 -0.226176 0.000000
vn -0.974087 -0.226176 0.000000
vn 0.000000 -0.140932 0.990019
vn 0.000000 -0.140932 0.990019
vn 0.000000 -0.140932 0.990019
vn 0.000000 -0.140932 0.990019
vn 0.985957 -0.166998 0.000000
vn 0.985957 -0.166998 0.000000
vn 0.985957 -0.166998 0.000000
vn 0.985957 -0.166998 0.000000
vn -0.999967 -0.008171 0.000000
vn -0.999967 -0.008171 0.000000
vn -0.999967 -0.008171 0.000000
vn -0.999967 -0.008171 0.000000
vn 0.000000 -0.005904 0.999983
vn 0.000000 -0.005904 0.999983
vn 0.000000 -0.005904 0.999983
vn 0.000000 -0.005904 0.999983
vn 0.999840 -0.017873 0.000000
vn 0.999840 -0.017873 0.000000
vn 0.999840 -0.017873 0.000000
vn 0.999840 -0.017873 0.000000
s off
g pCube41
usemtl initialShadingGroup
f 81/91/189 95/94/190 94/93/191 82/92/192
f 82/92/193 94/93/194 93/96/195 88/95/196
f 87/97/197 96/98/198 95/94/199 81/91/200
f 90/99/201 84/102/202 86/101/203 89/100/204
f 91/103/205 83/104/206 84/102/207 90/99/208
f 92/105/209 85/106/210 83/104/211 91/103/212
f 94/93/213 90/99/214 89/100/215 93/96/216
f 95/94/217 91/103/218 90/99/219 94/93/220
f 96/98/221 92/105/222 91/103/223 95/94/224
g default
v -41.639130 59.809723 20.951200
v 41.639130 59.809723 20.951200
v -41.639130 66.806480 20.951200
v 41.639130 66.806480 20.951200
v -41.639130 66.806480 -26.885593
v 41.639130 66.806480 -26.885593
v -41.639130 59.809723 -26.885593
v 41.639130 59.809723 -26.885593
vt 0.375000 0.000000
vt 0.625000 0.000000
vt 0.625000 0.250000
vt 0.375000 0.250000
vt 0.625000 0.500000
vt 0.375000 0.500000
vt 0.625000 0.750000
vt 0.375000 0.750000
vt 0.625000 1.000000
vt 0.375000 1.000000
vt 0.875000 0.000000
vt 0.875000 0.250000
vt 0.125000 0.000000
vt 0.125000 0.250000
vn 0.000000 0.000000 1.000000
vn 0.000000 0.000000 1.000000
vn 0.000000 0.000000 1.000000
vn 0.000000 0.000000 1.000000
vn 0.000000 1.000000 0.000000
vn 0.000000 1.000000 0.000000
vn 0.000000 1.000000 0.000000
vn 0.000000 1.000000 0.000000
vn 0.000000 0.000000 -1.000000
vn 0.000000 0.000000 -1.000000
vn 0.000000 0.000000 -1.000000
vn 0.000000 0.000000 -1.000000
vn 0.000000 -1.000000 0.000000
vn 0.000000 -1.000000 0.000000
vn 0.000000 -1.000000 0.000000
vn 0.000000 -1.000000 0.000000
vn 1.000000 0.000000 0.000000
vn 1.000000 0.000000 0.000000
vn 1.000000 0.000000 0.000000
vn 1.000000 0.000000 0.000000
vn -1.000000 0.000000 0.000000
vn -1.000000 0.000000 0.000000
vn -1.000000 0.000000 0.000000
vn -1.000000 0.000000 0.000000
s off
g pCube37
usemtl initialShadingGroup
f 97/107/225 98/108/226 100/109/227 99/110/228
f 99/110/229 100/109/230 102/111/231 101/112/232
f 101/112/233 102/111/234 104/113/235 103/114/236
f 103/114/237 104/113/238 98/115/239 97/116/240
f 98/108/241 104/117/242 102/118/243 100/109/244
f 103/119/245 97/107/246 99/110/247 101/120/248
g default
v -27.269526 -1.918076 -26.149010
v -41.919483 -1.918076 -26.149010
v -23.935755 59.809723 -25.739468
v -40.408009 59.809723 -25.739468
v -23.935755 59.809723 -12.799228
v -40.408009 59.809723 -12.799228
v -27.269526 -1.918076 -12.799228
v -41.919483 -1.918076 -12.799228
v -38.006279 45.717682 -12.799228
v -38.006279 45.717682 -22.452141
v -26.619991 45.717682 -22.452141
v -26.619991 45.717682 -12.799228
v -37.709373 9.382634 -12.799228
v -37.709373 9.382636 -22.534533
v -27.269526 9.382636 -22.534533
v -27.269526 9.382634 -12.799228
vt 0.375000 0.000000
vt 0.625000 0.000000
vt 0.625000 0.045292
vt 0.375000 0.045292
vt 0.875000 0.000000
vt 0.875000 0.045292
vt 0.125000 0.000000
vt 0.125000 0.045292
vt 0.625000 0.195870
vt 0.875000 0.195870
vt 0.875000 0.250000
vt 0.625000 0.250000
vt 0.375000 0.195870
vt 0.375000 0.250000
vt 0.125000 0.195870
vt 0.125000 0.250000
vn 0.000000 0.304642 -0.952467
vn 0.000000 0.304642 -0.952467
vn 0.000000 0.304642 -0.952467
vn 0.000000 0.304642 -0.952467
vn -0.937081 0.349112 -0.000000
vn -0.937081 0.349112 -0.000000
vn -0.995544 0.094294 -0.000000
vn -0.992486 0.122359 -0.000000
vn 1.000000 0.000000 0.000000
vn 1.000000 0.000000 0.000000
vn 0.999939 -0.011065 0.000000
vn 0.999915 -0.013044 0.000000
vn -0.997379 -0.072356 0.000000
vn -0.998283 -0.058577 0.000000
vn -0.985785 -0.168009 0.000000
vn -0.985785 -0.168009 0.000000
vn 0.000000 -0.095284 -0.995450
vn 0.000000 -0.092143 -0.995746
vn 0.000000 -0.227176 -0.973854
vn 0.000000 -0.227176 -0.973854
vn 0.997446 -0.071419 0.000000
vn 0.996331 -0.085585 0.000000
vn 0.982338 -0.187115 0.000000
vn 0.982338 -0.187115 0.000000
vn -0.992486 0.122359 -0.000000
vn -0.995544 0.094294 -0.000000
vn -0.998283 -0.058577 0.000000
vn -0.997379 -0.072356 0.000000
vn 0.000000 0.082205 -0.996615
vn 0.000000 0.110460 -0.993881
vn 0.000000 -0.092143 -0.995746
vn 0.000000 -0.095284 -0.995450
vn 0.999915 -0.013044 0.000000
vn 0.999939 -0.011065 0.000000
vn 0.996331 -0.085585 0.000000
vn 0.997446 -0.071419 0.000000
s off
g pCube42
usemtl initialShadingGroup
f 105/121/249 106/122/250 118/123/251 119/124/252
f 106/122/253 112/125/254 117/126/255 118/123/256
f 111/127/257 105/121/258 119/124/259 120/128/260
f 114/129/261 113/130/262 110/131/263 108/132/264
f 115/133/265 114/129/266 108/132/267 107/134/268
f 116/135/269 115/133/270 107/134/271 109/136/272
f 118/123/273 117/126/274 113/130/275 114/129/276
f 119/124/277 118/123/278 114/129/279 115/133/280
f 120/128/281 119/124/282 115/133/283 116/135/284
g default
v 14.841393 -1.763374 7.595450
v 51.202766 -1.763374 7.595450
v 14.841393 60.330872 7.595450
v 51.202766 60.330872 7.595450
v 14.841393 60.330872 -12.853463
v 51.202766 60.330872 -12.853463
v 14.841393 -1.763374 -12.853463
v 51.202766 -1.763374 -12.853463
v 18.523806 -1.763374 7.595450
v 18.523806 60.330872 7.595450
v 18.523806 60.330872 -12.853463
v 18.523806 -1.763374 -12.853463
v 26.619343 -1.763374 7.595450
v 26.619343 60.330872 7.595450
v 26.619343 60.330872 -12.853463
v 26.619343 -1.763374 -12.853463
v 18.523806 -1.763374 12.249569
v 26.619343 -1.763374 12.249569
v 26.619343 60.330872 12.249569
v 18.523806 60.330872 12.249569
v 18.523806 60.330872 -18.055256
v 18.523806 -1.763374 -18.055256
v 26.619343 60.330872 -18.055256
v 26.619343 -1.763374 -18.055256
vt 0.375000 0.000000
vt 0.400318 0.000000
vt 0.400318 0.250000
vt 0.375000 0.250000
vt 0.400318 0.500000
vt 0.375000 0.500000
vt 0.400318 0.750000
vt 0.375000 0.750000
vt 0.625000 0.000000
vt 0.875000 0.000000
vt 0.875000 0.250000
vt 0.625000 0.250000
vt 0.125000 0.000000
vt 0.125000 0.250000
vt 0.400318 0.000000
vt 0.455978 0.000000
vt 0.455978 0.250000
vt 0.400318 0.250000
vt 0.455978 0.250000
vt 0.455978 0.500000
vt 0.400318 0.750000
vt 0.400318 0.500000
vt 0.455978 0.500000
vt 0.455978 0.750000
vt 0.455978 0.000000
vt 0.625000 0.500000
vt 0.455978 0.750000
vt 0.625000 0.750000
vn 0.000000 0.000000 1.000000
vn 0.000000 0.000000 1.000000
vn 0.000000 0.000000 1.000000
vn 0.000000 0.000000 1.000000
vn 0.000000 1.000000 0.000000
vn 0.000000 1.000000 0.000000
vn 0.000000 1.000000 0.000000
vn 0.000000 1.000000 0.000000
vn 0.000000 0.000000 -1.000000
vn 0.000000 0.000000 -1.000000
vn 0.000000 0.000000 -1.000000
vn 0.000000 0.000000 -1.000000
vn 1.000000 0.000000 0.000000
vn 1.000000 0.000000 0.000000
vn 1.000000 0.000000 0.000000
vn 1.000000 0.000000 0.000000
vn -1.000000 0.000000 0.000000
vn -1.000000 0.000000 0.000000
vn -1.000000 0.000000 0.000000
vn -1.000000 0.000000 0.000000
vn 0.000000 0.000000 1.000000
vn 0.000000 0.000000 1.000000
vn 0.000000 0.000000 1.000000
vn 0.000000 0.000000 1.000000
vn 0.000000 1.000000 0.000000
vn 0.000000 1.000000 0.000000
vn 0.000000 1.000000 0.000000
vn 0.000000 1.000000 0.000000
vn 0.000000 0.000000 -1.000000
vn 0.000000 0.000000 -1.000000
vn 0.000000 0.000000 -1.000000
vn 0.000000 0.000000 -1.000000
vn 0.000000 0.000000 1.000000
vn 0.000000 0.000000 1.000000
vn 0.000000 0.000000 1.000000
vn 0.000000 0.000000 1.000000
vn 0.000000 1.000000 0.000000
vn 0.000000 1.000000 0.000000
vn 0.000000 1.000000 0.000000
vn 0.000000 1.000000 0.000000
vn 0.000000 0.000000 -1.000000
vn 0.000000 0.000000 -1.000000
vn 0.000000 0.000000 -1.000000
vn 0.000000 0.000000 -1.000000
vn 1.000000 0.000000 0.000000
vn 1.000000 0.000000 0.000000
vn 1.000000 0.000000 0.000000
vn 1.000000 0.000000 0.000000
vn 0.000000 1.000000 0.000000
vn 0.000000 1.000000 0.000000
vn 0.000000 1.000000 0.000000
vn 0.000000 1.000000 0.000000
vn -1.000000 0.000000 0.000000
vn -1.000000 0.000000 0.000000
vn -1.000000 0.000000 0.000000
vn -1.000000 0.000000 0.000000
vn -1.000000 0.000000 0.000000
vn -1.000000 0.000000 0.000000
vn -1.000000 0.000000 0.000000
vn -1.000000 0.000000 0.000000
vn 0.000000 1.000000 0.000000
vn 0.000000 1.000000 0.000000
vn 0.000000 1.000000 0.000000
vn 0.000000 1.000000 0.000000
vn 1.000000 0.000000 0.000000
vn 1.000000 0.000000 0.000000
vn 1.000000 0.000000 0.000000
vn 1.000000 0.000000 0.000000
s off
g pCube34
usemtl initialShadingGroup
f 121/137/285 129/138/286 130/139/287 123/140/288
f 123/140/289 130/139/290 131/141/291 125/142/292
f 125/142/293 131/141/294 132/143/295 127/144/296
f 122/145/297 128/146/298 126/147/299 124/148/300
f 127/149/301 121/137/302 123/140/303 125/150/304
f 137/151/305 138/152/306 139/153/307 140/154/308
f 131/141/309 130/139/310 134/155/311 135/156/312
f 142/157/313 141/158/314 143/159/315 144/160/316
f 133/161/317 122/145/318 124/148/319 134/155/320
f 135/156/321 134/155/322 124/148/323 126/162/324
f 136/163/325 135/156/326 126/162/327 128/164/328
f 133/161/329 134/155/330 139/153/331 138/152/332
f 134/155/333 130/139/334 140/154/335 139/153/336
f 130/139/337 129/138/338 137/151/339 140/154/340
f 132/143/341 131/141/342 141/158/343 142/157/344
f 131/141/345 135/156/346 143/159/347 141/158/348
f 135/156/349 136/163/350 144/160/351 143/159/352
