# This file uses centimeters as units for non-parametric coordinates.

mtllib TempleKeystone.mtl
g default
v -2.928025 31.494059 10.858819
v -1.794370 31.675200 10.659639
v -2.565901 32.385525 10.229774
v 5.648246 33.532131 -1.935988
v 6.386391 32.794243 -1.454096
v 6.168909 32.763893 -2.614416
v -14.928577 29.841816 2.601908
v -14.614841 30.703619 1.935987
v -15.140135 29.812283 1.473195
v -9.696652 30.688240 -5.724685
v -10.729030 30.409138 -5.054448
v -10.158304 31.325708 -4.710067
v 1.489509 5.583017 8.784559
v 0.371632 5.426977 8.998169
v 8.177415 6.516576 -1.120728
v 7.951544 6.709997 -2.248426
v -0.905337 32.617317 -6.478171
v -0.283590 31.884075 -7.055255
v -1.516693 31.830074 -7.287754
v -9.438540 4.057587 2.245420
v -9.695878 4.246610 1.123733
v -4.635428 -0.089912 1.406464
v -4.842655 -0.067535 0.324871
v -3.781224 -0.527820 0.722536
v -1.843560 5.117761 -8.998169
v -2.961437 4.961721 -8.784559
v -0.715598 -0.099890 -3.817885
v -1.469244 0.352052 -4.603346
v -0.445625 0.494938 -4.798944
v 1.316675 0.740932 4.603346
v 0.238443 0.641726 4.805490
v 0.715598 0.099882 3.817885
v 4.482859 1.182899 -1.406464
v 4.676036 1.261168 -0.324870
v 3.781225 0.527813 -0.722536
v -4.894139 21.484776 -9.917589
v -4.143874 19.994566 -10.084037
v -5.231099 19.842804 -9.876284
vt 0.230233 0.448247
vt 0.225970 0.440223
vt 0.304499 0.363892
vt 0.311058 0.369126
vt 0.443926 0.310493
vt 0.434836 0.310280
vt 0.435599 0.112059
vt 0.444311 0.111300
vt 0.221043 0.447409
vt 0.142367 0.366903
vt 0.148961 0.361642
vt 0.142248 0.357079
vt 0.185630 0.313717
vt 0.191727 0.319862
vt 0.128427 0.310512
vt 0.119533 0.310495
vt 0.119568 0.115054
vt 0.128407 0.115872
vt 0.337215 0.310701
vt 0.328239 0.310620
vt 0.328215 0.114816
vt 0.336676 0.112335
vt 0.311428 0.359688
vt 0.263014 0.320870
vt 0.269383 0.314882
vt 0.260681 0.311800
vt 0.194341 0.310849
vt 0.271635 0.311096
vt 0.227763 0.236989
vt 0.232101 0.225268
vt 0.416878 0.067614
vt 0.424465 0.064289
vt 0.094739 0.072040
vt 0.102619 0.068985
vt 0.183517 0.309942
vt 0.223480 0.225256
vt 0.301456 0.070093
vt 0.308760 0.066187
vt 0.204892 0.014489
vt 0.201989 0.022913
vt 0.161130 0.022425
vt 0.158533 0.013379
vt 0.210981 0.020577
vt 0.210385 0.067334
vt 0.201453 0.063796
vt 0.223254 0.115697
vt 0.231954 0.114445
vt 0.203869 0.071999
vt 0.157556 0.071872
vt 0.160556 0.063277
vt 0.152635 0.019287
vt 0.151577 0.065659
vt 0.024587 0.115334
vt 0.024117 0.310954
vt 0.363133 0.068018
vt 0.254669 0.070248
vt 0.045458 0.071837
vn -0.506312 -0.090968 0.857539
vn -0.113084 0.985846 0.123774
vn -0.216915 0.975338 0.040787
vn -0.601089 -0.104401 0.792334
vn 0.787268 0.089417 0.610093
vn -0.506312 -0.090968 0.857539
vn -0.490284 -0.174956 0.853822
vn 0.792931 0.003808 0.609300
vn -0.113084 0.985846 0.123774
vn 0.787268 0.089417 0.610093
vn 0.851959 0.098716 0.514219
vn 0.037465 0.999158 0.016752
vn 0.037465 0.999158 0.016752
vn 0.632289 0.060789 -0.772344
vn 0.549500 0.055937 -0.833619
vn -0.121299 0.990801 -0.060003
vn 0.632289 0.060789 -0.772344
vn 0.851959 0.098716 0.514219
vn 0.858389 0.012166 0.512856
vn 0.670781 -0.061502 -0.739101
vn -0.601089 -0.104401 0.792334
vn -0.860364 -0.147750 -0.487795
vn -0.850294 -0.272911 -0.450022
vn -0.584725 -0.189620 0.788759
vn -0.860364 -0.147750 -0.487795
vn -0.216915 0.975338 0.040787
vn -0.166226 0.985367 -0.037695
vn -0.807634 -0.133536 -0.574365
vn -0.329955 0.364740 -0.870686
vn -0.166226 0.985367 -0.037695
vn -0.121299 0.990801 -0.060003
vn -0.117173 0.394509 -0.911391
vn -0.807634 -0.133536 -0.574365
vn -0.329955 0.364740 -0.870686
vn -0.212540 0.204909 -0.955426
vn -0.783884 -0.158346 -0.600377
vn 0.792931 0.003808 0.609300
vn -0.490284 -0.174956 0.853822
vn -0.327101 -0.641461 0.693925
vn 0.711982 -0.497274 0.495783
vn 0.670781 -0.061502 -0.739101
vn 0.858389 0.012166 0.512856
vn 0.770847 -0.489481 0.407680
vn 0.576422 -0.506086 -0.641572
vn -0.117173 0.394509 -0.911391
vn 0.549500 0.055937 -0.833619
vn 0.525310 0.024397 -0.850561
vn -0.212540 0.204909 -0.955426
vn -0.584725 -0.189620 0.788759
vn -0.850294 -0.272911 -0.450022
vn -0.613416 -0.671807 -0.415207
vn -0.412639 -0.655493 0.632502
vn -0.412639 -0.655493 0.632502
vn 0.016326 -0.999562 0.024699
vn 0.161635 -0.979278 0.122018
vn -0.327101 -0.641461 0.693925
vn 0.016326 -0.999562 0.024699
vn -0.613416 -0.671807 -0.415207
vn -0.558730 -0.666575 -0.493457
vn 0.111933 -0.986471 -0.119779
vn 0.482260 -0.144374 -0.864050
vn -0.705712 -0.309567 -0.637290
vn -0.783884 -0.158346 -0.600377
vn 0.525310 0.024397 -0.850561
vn -0.705712 -0.309567 -0.637290
vn 0.482260 -0.144374 -0.864050
vn 0.497472 -0.518621 -0.695381
vn -0.558730 -0.666575 -0.493457
vn 0.111933 -0.986471 -0.119779
vn 0.497472 -0.518621 -0.695381
vn 0.576422 -0.506086 -0.641572
vn 0.256699 -0.966250 -0.021585
vn 0.711982 -0.497274 0.495783
vn 0.161635 -0.979278 0.122018
vn 0.256699 -0.966250 -0.021585
vn 0.770847 -0.489481 0.407680
vn 0.792931 0.003808 0.609300
vn 0.858389 0.012166 0.512856
vn 0.851959 0.098716 0.514219
vn 0.787268 0.089417 0.610093
vn -0.117173 0.394509 -0.911391
vn -0.212540 0.204909 -0.955426
vn -0.329955 0.364740 -0.870686
vn -0.584725 -0.189620 0.788759
vn -0.412639 -0.655493 0.632502
vn -0.327101 -0.641461 0.693925
vn -0.490284 -0.174956 0.853822
vn -0.584725 -0.189620 0.788759
vn -0.490284 -0.174956 0.853822
vn -0.506312 -0.090968 0.857539
vn -0.601089 -0.104401 0.792334
vn -0.850294 -0.272911 -0.450022
vn -0.705712 -0.309567 -0.637290
vn -0.558730 -0.666575 -0.493457
vn -0.613416 -0.671807 -0.415207
vn 0.576422 -0.506086 -0.641572
vn 0.497472 -0.518621 -0.695381
vn 0.482260 -0.144374 -0.864050
vn 0.670781 -0.061502 -0.739101
vn 0.792931 0.003808 0.609300
vn 0.711982 -0.497274 0.495783
vn 0.770847 -0.489481 0.407680
vn 0.858389 0.012166 0.512856
vn 0.016326 -0.999562 0.024699
vn 0.111933 -0.986471 -0.119779
vn 0.256699 -0.966250 -0.021585
vn 0.161635 -0.979278 0.122018
vn 0.670781 -0.061502 -0.739101
vn 0.482260 -0.144374 -0.864050
vn 0.525310 0.024397 -0.850561
vn -0.860364 -0.147750 -0.487795
vn -0.807634 -0.133536 -0.574365
vn -0.783884 -0.158346 -0.600377
vn -0.850294 -0.272911 -0.450022
vn -0.113084 0.985846 0.123774
vn 0.037465 0.999158 0.016752
vn -0.121299 0.990801 -0.060003
vn 0.670781 -0.061502 -0.739101
vn 0.525310 0.024397 -0.850561
vn 0.549500 0.055937 -0.833619
vn 0.632289 0.060789 -0.772344
vn -0.850294 -0.272911 -0.450022
vn -0.783884 -0.158346 -0.600377
vn -0.705712 -0.309567 -0.637290
vn -0.506312 -0.090968 0.857539
vn 0.787268 0.089417 0.610093
vn -0.113084 0.985846 0.123774
vn 0.037465 0.999158 0.016752
vn 0.851959 0.098716 0.514219
vn 0.632289 0.060789 -0.772344
vn -0.601089 -0.104401 0.792334
vn -0.216915 0.975338 0.040787
vn -0.860364 -0.147750 -0.487795
vn -0.329955 0.364740 -0.870686
vn -0.807634 -0.133536 -0.574365
vn -0.166226 0.985367 -0.037695
vn -0.121299 0.990801 -0.060003
vn 0.549500 0.055937 -0.833619
vn -0.117173 0.394509 -0.911391
vn -0.412639 -0.655493 0.632502
vn -0.613416 -0.671807 -0.415207
vn 0.016326 -0.999562 0.024699
vn 0.111933 -0.986471 -0.119779
vn -0.558730 -0.666575 -0.493457
vn 0.497472 -0.518621 -0.695381
vn 0.711982 -0.497274 0.495783
vn -0.327101 -0.641461 0.693925
vn 0.161635 -0.979278 0.122018
vn 0.576422 -0.506086 -0.641572
vn 0.770847 -0.489481 0.407680
vn 0.256699 -0.966250 -0.021585
vn -0.212540 0.204909 -0.955426
vn 0.525310 0.024397 -0.850561
vn -0.783884 -0.158346 -0.600377
vn -0.113084 0.985846 0.123774
vn -0.121299 0.990801 -0.060003
vn -0.166226 0.985367 -0.037695
vn -0.216915 0.975338 0.040787
s off
g pCube50
usemtl blinn1SG
f 1/1/1 3/2/2 8/3/3 7/4/4
f 2/5/5 1/6/6 14/7/7 13/8/8
f 3/2/9 2/9/10 5/10/11 4/11/12
f 4/11/13 6/12/14 18/13/15 17/14/16
f 6/15/17 5/16/18 15/17/19 16/18/20
f 7/19/21 9/20/22 21/21/23 20/22/24
f 9/23/25 8/3/26 12/24/27 11/25/28
f 10/26/29 12/24/30 17/14/31 19/27/32
f 11/28/33 10/26/34 36/29/35 38/30/36
f 13/8/37 14/7/38 31/31/39 30/32/40
f 16/18/41 15/17/42 34/33/43 33/34/44
f 19/27/45 18/35/46 37/36/47 36/29/48
f 20/22/49 21/21/50 23/37/51 22/38/52
f 22/39/53 24/40/54 32/41/55 31/42/56
f 24/40/57 23/43/58 28/44/59 27/45/60
f 25/46/61 26/47/62 38/30/63 37/36/64
f 26/47/65 25/46/66 29/48/67 28/44/68
f 27/45/69 29/48/70 33/49/71 35/50/72
f 30/51/73 32/41/74 35/50/75 34/52/76
f 13/53/77 15/17/78 5/16/79 2/54/80
f 19/27/81 36/29/82 10/26/83
f 20/22/84 22/55/85 31/31/86 14/7/87
f 20/22/88 14/7/89 1/6/90 7/19/91
f 21/21/92 26/47/93 28/56/94 23/37/95
f 33/49/96 29/48/97 25/46/98 16/18/99
f 13/53/100 30/57/101 34/33/102 15/17/103
f 24/40/104 27/45/105 35/50/106 32/41/107
f 16/18/108 25/46/109 37/36/110
f 9/20/111 11/28/112 38/30/113 21/21/114
f 3/2/115 4/11/116 17/14/117
f 16/18/118 37/36/119 18/35/120 6/15/121
f 21/21/122 38/30/123 26/47/124
f 1/1/125 2/9/126 3/2/127
f 4/11/128 5/10/129 6/12/130
f 7/4/131 8/3/132 9/23/133
f 10/26/134 11/25/135 12/24/136
f 17/14/137 18/13/138 19/27/139
f 22/39/140 23/43/141 24/40/142
f 27/45/143 28/44/144 29/48/145
f 30/51/146 31/42/147 32/41/148
f 33/49/149 34/52/150 35/50/151
f 36/29/152 37/36/153 38/30/154
f 3/2/155 17/14/156 12/24/157 8/3/158
