# This file uses centimeters as units for non-parametric coordinates.

mtllib TempleLunchpad_blocker_piece02.mtl
g default
v 0.000000 0.000000 -2.382665
v -2.578430 0.000000 -1.314642
v -3.646484 0.000000 1.263793
v -2.578430 0.000000 3.842227
v 0.000000 1.658077 -5.473982
v -4.764343 1.658077 -3.500534
v -6.737793 1.658077 1.263793
v 0.000000 4.311872 -7.365924
v -6.102112 4.311872 -4.838339
v -8.629700 4.311872 1.263793
v 0.000000 10.786518 -5.731494
v -4.946411 10.786518 -3.682622
v 0.000000 -0.582240 1.263793
v -4.764343 1.658077 6.028119
v -6.102112 4.311872 7.365924
v -1.687988 14.222743 -0.424172
v 0.000000 14.222743 -1.123351
v -6.995300 10.786518 1.263793
v 2.578430 0.000000 3.842227
vt 0.559334 0.060967
vt 0.577386 0.046244
vt 0.605625 0.062915
vt 0.574360 0.077417
vt 0.671678 0.050891
vt 0.691741 0.063450
vt 0.676782 0.083204
vt 0.644106 0.066448
vt 0.719580 0.072073
vt 0.712575 0.090584
vt 0.622456 0.089028
vt 0.583538 0.100055
vt 0.667387 0.104107
vt 0.711078 0.116004
vt 0.622760 0.153355
vt 0.582082 0.148038
vt 0.659058 0.151318
vt 0.579669 0.191583
vt 0.565238 0.187327
vt 0.655957 0.195067
vt 0.566473 0.040650
vt 0.559334 0.060967
vt 0.537514 0.041360
vt 0.557321 0.020710
vt 0.536816 0.012865
vt 0.508431 0.042231
vt 0.760219 0.076184
vt 0.587809 0.307045
vt 0.577286 0.240726
vt 0.634174 0.323335
vt 0.647880 0.322701
vt 0.699169 0.250292
vt 0.683149 0.297812
vt 0.686555 0.229319
vt 0.593330 0.222244
vt 0.666327 0.212444
vt 0.641674 0.199747
vt 0.628738 0.175219
vn -0.170445 -0.895334 -0.411491
vn -0.295287 -0.908631 -0.295290
vn -0.507355 -0.696550 -0.507354
vn -0.284885 -0.667688 -0.687774
vn -0.295287 -0.908631 -0.295290
vn -0.417601 -0.908631 0.000000
vn -0.717509 -0.696549 0.000000
vn -0.507355 -0.696550 -0.507354
vn -0.417601 -0.908631 0.000000
vn -0.252923 -0.912222 0.322307
vn -0.650681 -0.691112 0.314608
vn -0.717509 -0.696549 0.000000
vn -0.284885 -0.667688 -0.687774
vn -0.507355 -0.696550 -0.507354
vn -0.707089 -0.007033 -0.707090
vn -0.382676 -0.006498 -0.923860
vn -0.507355 -0.696550 -0.507354
vn -0.717509 -0.696549 0.000000
vn -0.995079 -0.057531 -0.080671
vn -0.707089 -0.007033 -0.707090
vn -0.717509 -0.696549 0.000000
vn -0.650681 -0.691112 0.314608
vn -0.896687 -0.240830 0.371420
vn -0.995079 -0.057531 -0.080671
vn -0.707089 -0.007033 -0.707090
vn -0.640017 0.403977 -0.653591
vn -0.351744 0.393906 -0.849184
vn -0.382676 -0.006498 -0.923860
vn -0.995079 -0.057531 -0.080671
vn -0.914856 0.330368 -0.232156
vn -0.640017 0.403977 -0.653591
vn -0.707089 -0.007033 -0.707090
vn -0.640017 0.403977 -0.653591
vn -0.336718 0.796107 -0.502826
vn -0.240351 0.778157 -0.580261
vn -0.351744 0.393906 -0.849184
vn -0.914856 0.330368 -0.232156
vn -0.336718 0.796107 -0.502826
vn -0.640017 0.403977 -0.653591
vn -0.295287 -0.908631 -0.295290
vn -0.170445 -0.895334 -0.411491
vn -0.065860 -0.994491 0.081547
vn -0.417601 -0.908631 0.000000
vn -0.295287 -0.908631 -0.295290
vn -0.065860 -0.994491 0.081547
vn -0.252923 -0.912222 0.322307
vn -0.417601 -0.908631 0.000000
vn -0.065860 -0.994491 0.081547
vn 0.000000 -0.937099 0.349063
vn -0.252923 -0.912222 0.322307
vn -0.065860 -0.994491 0.081547
vn -0.896687 -0.240830 0.371420
vn -0.914856 0.330368 -0.232156
vn -0.995079 -0.057531 -0.080671
vn -0.650681 -0.691112 0.314608
vn -0.252923 -0.912222 0.322307
vn 0.000000 -0.937099 0.349063
vn -0.194994 0.658316 0.727047
vn -0.194994 0.658316 0.727047
vn -0.194994 0.658316 0.727047
vn 0.334494 0.485770 0.807552
vn 0.334494 0.485770 0.807552
vn 0.334494 0.485770 0.807552
vn 1.000000 0.000000 0.000000
vn 0.929854 0.010375 0.367782
vn 0.931186 0.010280 0.364400
vn 0.949044 -0.252638 0.188389
vn 0.946758 -0.231871 0.223352
vn 0.870062 -0.050842 0.490314
vn 0.870062 -0.050842 0.490314
vn 0.946758 -0.231871 0.223352
vn 0.770315 0.068734 0.633948
vn 0.931186 0.010280 0.364400
vn 0.929854 0.010375 0.367782
vn 0.923825 0.010795 0.382662
vn 0.720249 0.633302 0.283142
vn 0.752079 0.580802 0.311522
vn 0.642823 0.733908 0.219451
vn 0.528177 0.838512 0.133888
vn 0.720249 0.633302 0.283142
vn 0.642823 0.733908 0.219451
vn 0.114657 0.938212 -0.326516
vn 0.114657 0.938212 -0.326516
vn 0.114657 0.938212 -0.326516
s off
g polySurface98
usemtl blinn1SG
f 1/1/1 2/2/2 6/3/3 5/4/4
f 2/5/5 3/6/6 7/7/7 6/8/8
f 3/6/9 4/9/10 14/10/11 7/7/12
f 5/4/13 6/3/14 9/11/15 8/12/16
f 6/8/17 7/7/18 10/13/19 9/11/20
f 7/7/21 14/10/22 15/14/23 10/13/24
f 9/11/25 12/15/26 11/16/27 8/12/28
f 10/13/29 18/17/30 12/15/31 9/11/32
f 12/15/33 16/18/34 17/19/35 11/16/36
f 18/17/37 16/20/38 12/15/39
f 2/21/40 1/22/41 13/23/42
f 3/24/43 2/21/44 13/23/45
f 4/25/46 3/24/47 13/23/48
f 19/26/49 4/25/50 13/23/51
f 15/14/52 18/17/53 10/13/54
f 14/10/55 4/9/56 19/27/57
f 18/28/58 15/29/59 16/30/60
f 17/31/61 16/30/62 15/29/63
f 8/32/64 11/33/65 5/34/66
f 11/33/67 17/31/68 14/35/69
f 14/35/70 17/31/71 15/29/72
f 5/34/73 11/33/74 14/35/75
f 1/36/76 5/34/77 14/35/78
f 13/37/79 1/36/80 14/35/81
f 19/38/82 13/37/83 14/35/84
