# This file uses centimeters as units for non-parametric coordinates.

mtllib TempleKeystone_piece02.mtl
g default
v -1.794370 31.675200 10.659639
v -2.565901 32.385525 10.229774
v 5.648246 33.532131 -1.935988
v 6.386391 32.794243 -1.454096
v 6.168909 32.763893 -2.614416
v 8.177415 6.516576 -1.120728
v 7.951544 6.709997 -2.248426
v -0.905337 32.617317 -6.478171
v -0.283590 31.884075 -7.055255
v -4.143874 19.994566 -10.084037
vt 0.225970 0.440223
vt 0.220305 0.446505
vt 0.142367 0.366903
vt 0.148961 0.361642
vt 0.142248 0.357079
vt 0.185327 0.314341
vt 0.191727 0.319862
vt 0.128427 0.310512
vt 0.119533 0.310495
vt 0.119637 0.114786
vt 0.128407 0.115872
vt 0.024117 0.310954
vt 0.223413 0.225282
vt 0.183654 0.309888
vt 0.363456 0.615140
vt 0.237181 0.613817
vt 0.232541 0.606776
vt 0.366257 0.607089
vt 0.213587 0.511922
vt 0.300510 0.392874
vt 0.309275 0.392557
vn 0.171902 0.963228 0.206500
vn 0.813367 0.146783 0.562929
vn 0.868847 0.122872 0.479591
vn 0.037465 0.999158 0.016752
vn 0.037465 0.999158 0.016752
vn 0.632289 0.060789 -0.772344
vn 0.561604 0.049983 -0.825895
vn -0.062547 0.992004 -0.109616
vn 0.632289 0.060789 -0.772344
vn 0.868847 0.122872 0.479591
vn 0.928853 0.067929 0.364168
vn 0.703887 0.038196 -0.709284
vn 0.813367 0.146783 0.562929
vn 0.928853 0.067929 0.364168
vn 0.868847 0.122872 0.479591
vn 0.171902 0.963228 0.206500
vn 0.037465 0.999158 0.016752
vn -0.062547 0.992004 -0.109616
vn 0.703887 0.038196 -0.709284
vn 0.564231 0.027014 -0.825175
vn 0.561604 0.049983 -0.825895
vn 0.632289 0.060789 -0.772344
vn 0.037465 0.999158 0.016752
vn 0.868847 0.122872 0.479591
vn 0.632289 0.060789 -0.772344
vn -0.721312 -0.688508 -0.075267
vn -0.721312 -0.688508 -0.075267
vn -0.721312 -0.688508 -0.075267
vn -0.721312 -0.688508 -0.075267
vn -0.749636 -0.660826 0.036804
vn -0.749636 -0.660826 0.036804
vn -0.749637 -0.660826 0.036804
vn -0.942443 0.325489 -0.076537
vn -0.942443 0.325489 -0.076537
vn -0.942443 0.325489 -0.076537
vn -0.795241 -0.485343 0.363365
vn -0.795241 -0.485342 0.363365
vn -0.795241 -0.485343 0.363365
s off
g polySurface95
usemtl blinn1SG
f 2/1/1 1/2/2 4/3/3 3/4/4
f 3/4/5 5/5/6 9/6/7 8/7/8
f 5/8/9 4/9/10 6/10/11 7/11/12
f 1/12/13 6/10/14 4/9/15
f 2/1/16 3/4/17 8/7/18
f 7/11/19 10/13/20 9/14/21 5/8/22
f 3/4/23 4/3/24 5/5/25
f 2/15/26 8/16/27 9/17/28 1/18/29
f 10/19/30 7/20/31 6/21/32
f 1/18/33 9/17/34 10/19/35
f 1/18/36 10/19/37 6/21/38
