# This file uses centimeters as units for non-parametric coordinates.

mtllib AppleTallLLowerLeg.mtl
g default
v 1.453613 0.002052 -0.022201
v 1.336667 0.002053 0.203539
v 1.126643 0.002054 0.365846
v 0.842960 0.002054 0.495589
v 0.535199 0.002054 0.619537
v 0.183200 0.002055 0.748774
v -0.170131 0.002055 0.824343
v -0.519828 0.002055 0.847248
v -0.841223 0.002055 0.817646
v -1.108415 0.002055 0.710127
v -1.366438 0.002052 0.009624
v -1.320283 0.002051 -0.196295
v -1.302347 0.002054 0.516742
v -1.366446 0.002053 0.266115
v 1.461989 0.002051 -0.195571
v 1.309662 0.198683 0.162614
v 1.424633 0.142276 -0.048251
v 1.458350 -0.139633 -0.037484
v 1.336240 -0.197178 0.176989
v 1.101285 0.238838 0.313220
v 1.113910 -0.236617 0.323567
v 0.832423 0.274344 0.445757
v 0.837054 -0.270963 0.451719
v 0.532638 0.308455 0.573056
v 0.533766 -0.304182 0.575696
v 0.183058 0.343158 0.702565
v 0.183120 -0.338333 0.703146
v -0.170131 0.363070 0.776870
v -0.170130 -0.358089 0.776873
v -0.519827 0.368999 0.798994
v -0.519827 -0.364018 0.798998
v -0.841143 0.361306 0.770281
v -0.841178 -0.356339 0.770337
v -1.097624 0.330672 0.655950
v -1.102372 -0.326941 0.660614
v -1.307565 0.098013 -0.212583
v -1.342343 0.149994 -0.019135
v -1.374077 -0.147825 -0.007221
v -1.327186 -0.094255 -0.207593
v -1.335384 0.212381 0.215139
v -1.270082 0.277368 0.456742
v -1.287779 -0.277127 0.475246
v -1.361742 -0.212040 0.235150
v 1.441043 0.098176 -0.212782
v 1.466688 -0.094708 -0.206793
v 0.069751 -0.094482 -0.207193
v 0.070854 0.002051 -0.195933
v 0.066739 0.098095 -0.212683
vt 0.413906 0.017934
vt 0.427480 0.018434
vt 0.428471 0.041840
vt 0.409591 0.041101
vt 0.440741 0.016198
vt 0.447160 0.039632
vt 0.428702 0.066275
vt 0.405858 0.065720
vt 0.451371 0.065023
vt 0.428776 0.095232
vt 0.402691 0.094234
vt 0.454741 0.093884
vt 0.428876 0.126214
vt 0.399741 0.125023
vt 0.457969 0.124779
vt 0.428998 0.161206
vt 0.396709 0.160236
vt 0.461261 0.160056
vt 0.429085 0.194820
vt 0.394897 0.194408
vt 0.463242 0.194284
vt 0.429117 0.227329
vt 0.394365 0.227654
vt 0.463860 0.227632
vt 0.429095 0.257110
vt 0.395174 0.258387
vt 0.462989 0.258508
vt 0.429063 0.283488
vt 0.397953 0.285364
vt 0.460045 0.285764
vt 0.412946 0.357842
vt 0.427202 0.355820
vt 0.425848 0.375534
vt 0.416660 0.376645
vt 0.441242 0.358019
vt 0.434875 0.377012
vt 0.408044 0.335286
vt 0.402530 0.310968
vt 0.429089 0.308423
vt 0.428237 0.332032
vt 0.455011 0.311058
vt 0.448452 0.335284
vt 0.416499 0.001937
vt 0.425908 0.002379
vt 0.434992 0.000499
vt 0.888060 0.588354
vt 0.878924 0.589556
vt 0.878794 0.458958
vt 0.887947 0.459335
vt 0.869821 0.590214
vt 0.869670 0.459071
vt 0.869519 0.327928
vt 0.878664 0.328359
vt 0.887833 0.330317
vt 0.853075 0.328724
vt 0.929627 0.590931
vt 0.906868 0.591603
vt 0.832238 0.340205
vt 0.818005 0.361089
vt 0.805572 0.387090
vt 0.793546 0.415573
vt 0.781186 0.448501
vt 0.774049 0.481670
vt 0.771926 0.514501
vt 0.774736 0.544667
vt 0.785421 0.569179
vt 0.803455 0.586569
vt 0.826814 0.593494
vt 0.850354 0.594632
vt 0.972456 0.568575
vt 0.953110 0.584781
vt 0.986314 0.514320
vt 0.983548 0.544487
vt 0.976887 0.448342
vt 0.984136 0.481493
vt 0.951877 0.387401
vt 0.964273 0.415534
vt 0.924326 0.342621
vt 0.938975 0.362171
vt 0.903826 0.331844
vn 0.917406 0.229903 0.324826
vn 0.718910 0.240376 0.652218
vn 0.732206 0.064747 0.677999
vn 0.933628 0.102392 0.343300
vn 0.718274 -0.107899 0.687343
vn 0.933071 -0.024179 0.358878
vn 0.497359 0.220069 0.839168
vn 0.504867 0.031018 0.862640
vn 0.487467 -0.157313 0.858853
vn 0.404714 0.180415 0.896469
vn 0.406943 0.013697 0.913351
vn 0.397036 -0.152961 0.904967
vn 0.364214 0.145236 0.919921
vn 0.365720 0.005022 0.930711
vn 0.359926 -0.135331 0.923114
vn 0.276551 0.132042 0.951885
vn 0.278023 0.001433 0.960573
vn 0.274738 -0.129450 0.952765
vn 0.136354 0.130087 0.982082
vn 0.137330 0.000206 0.990525
vn 0.135957 -0.129987 0.982150
vn -0.009805 0.130455 0.991406
vn -0.009871 0.000022 0.999951
vn -0.009765 -0.130717 0.991372
vn -0.228356 0.136265 0.963995
vn -0.228568 0.001808 0.973526
vn -0.224130 -0.132587 0.965498
vn -0.550780 0.159488 0.819271
vn -0.549940 0.013198 0.835100
vn -0.533612 -0.132828 0.835234
vn -0.987659 0.136840 -0.076183
vn -0.971557 0.107684 -0.210905
vn -0.972735 0.094994 -0.211572
vn -0.994579 0.084503 -0.060602
vn -0.973792 0.081781 -0.212229
vn -0.998292 0.029407 -0.050480
vn -0.976518 0.167691 0.135252
vn -0.984950 0.061737 0.161440
vn -0.850773 0.035795 0.524312
vn -0.848140 0.182076 0.497501
vn -0.984048 -0.045416 0.172011
vn -0.835831 -0.110550 0.537741
vn 0.975833 0.214118 0.043637
vn 0.990850 0.125965 0.048479
vn 0.998025 0.033591 0.053083
vn 0.000099 -0.169580 -0.985516
vn 0.000099 -0.171743 -0.985142
vn 0.000192 -0.027937 -0.999610
vn 0.000198 -0.017232 -0.999852
vn 0.000281 0.115856 -0.993266
vn 0.000281 0.116172 -0.993229
vn 0.000200 -0.016417 -0.999865
vn 0.000281 0.115537 -0.993303
vn 0.000099 -0.174020 -0.984742
vn -0.000065 -0.965946 -0.258744
vn -0.000084 -0.966552 -0.256469
vn 0.000089 -0.966201 -0.257789
vn -0.000016 0.965974 -0.258639
vn 0.000124 0.966104 -0.258153
vn -0.000190 0.965967 -0.258666
vn 0.000280 -0.965849 -0.259108
vn 0.000255 -0.965837 -0.259149
vn 0.000042 -0.965941 -0.258764
vn 0.000029 -0.965944 -0.258750
vn 0.000022 -0.965945 -0.258749
vn 0.000011 -0.965944 -0.258750
vn 0.000001 -0.965943 -0.258755
vn -0.000013 -0.965940 -0.258765
vn -0.000228 -0.965868 -0.259035
vn -0.000920 -0.965542 -0.260245
vn -0.000714 -0.965875 -0.259006
vn 0.000122 -0.966433 -0.256918
vn -0.000083 -0.966065 -0.258299
vn -0.000076 0.965740 -0.259513
vn -0.000207 0.965858 -0.259073
vn 0.000026 0.965982 -0.258608
vn -0.000040 0.965959 -0.258695
vn -0.000003 0.965967 -0.258666
vn 0.000025 0.965970 -0.258654
vn 0.000054 0.965971 -0.258652
vn 0.000074 0.965970 -0.258656
vn 0.000070 0.965971 -0.258650
vn -0.000181 0.966057 -0.258328
vn -0.000171 0.966088 -0.258212
vn -0.000104 0.965961 -0.258689
vn -0.000076 0.965903 -0.258906
s 1
g FoodTallLLowerLeg
usemtl Walk_blinn1SG
f 17/1/1 16/4/2 2/3/3 1/2/4
f 1/2/4 2/3/3 19/6/5 18/5/6
f 16/4/2 20/8/7 3/7/8 2/3/3
f 2/3/3 3/7/8 21/9/9 19/6/5
f 20/8/7 22/11/10 4/10/11 3/7/8
f 3/7/8 4/10/11 23/12/12 21/9/9
f 22/11/10 24/14/13 5/13/14 4/10/11
f 4/10/11 5/13/14 25/15/15 23/12/12
f 24/14/13 26/17/16 6/16/17 5/13/14
f 5/13/14 6/16/17 27/18/18 25/15/15
f 26/17/16 28/20/19 7/19/20 6/16/17
f 6/16/17 7/19/20 29/21/21 27/18/18
f 28/20/19 30/23/22 8/22/23 7/19/20
f 7/19/20 8/22/23 31/24/24 29/21/21
f 30/23/22 32/26/25 9/25/26 8/22/23
f 8/22/23 9/25/26 33/27/27 31/24/24
f 32/26/25 34/29/28 10/28/29 9/25/26
f 9/25/26 10/28/29 35/30/30 33/27/27
f 37/31/31 36/34/32 12/33/33 11/32/34
f 11/32/34 12/33/33 39/36/35 38/35/36
f 40/37/37 14/40/38 13/39/39 41/38/40
f 14/40/38 43/42/41 42/41/42 13/39/39
f 34/29/28 41/38/40 13/39/39 10/28/29
f 10/28/29 13/39/39 42/41/42 35/30/30
f 40/37/37 37/31/31 11/32/34 14/40/38
f 14/40/38 11/32/34 38/35/36 43/42/41
f 44/43/43 17/1/1 1/2/4 15/44/44
f 15/44/44 1/2/4 18/5/6 45/45/45
s 3
f 36/46/46 48/49/47 47/48/48 12/47/49
f 12/47/49 47/48/48 46/51/50 39/50/51
f 47/48/48 15/53/52 45/52/53 46/51/50
f 48/49/47 44/54/54 15/53/52 47/48/48
s 4
f 46/51/55 45/52/56 18/55/57
s 5
f 48/49/58 37/57/59 40/56/60
s 4
f 19/58/61 21/59/62 46/51/55
f 19/58/61 46/51/55 18/55/57
f 23/60/63 25/61/64 46/51/55
f 21/59/62 23/60/63 46/51/55
f 27/62/65 29/63/66 46/51/55
f 25/61/64 27/62/65 46/51/55
f 31/64/67 33/65/68 46/51/55
f 29/63/66 31/64/67 46/51/55
f 35/66/69 42/67/70 46/51/55
f 33/65/68 35/66/69 46/51/55
f 43/68/71 38/69/72 46/51/55
f 42/67/70 43/68/71 46/51/55
f 38/69/72 39/50/73 46/51/55
s 5
f 48/49/58 36/46/74 37/57/59
f 48/49/58 41/71/75 34/70/76
f 48/49/58 40/56/60 41/71/75
f 48/49/58 32/73/77 30/72/78
f 48/49/58 34/70/76 32/73/77
f 48/49/58 28/75/79 26/74/80
f 48/49/58 30/72/78 28/75/79
f 48/49/58 24/77/81 22/76/82
f 48/49/58 26/74/80 24/77/81
f 16/78/83 48/49/58 20/79/84
f 48/49/58 22/76/82 20/79/84
f 16/78/83 17/80/85 48/49/58
f 17/80/85 44/54/86 48/49/58
