# This file uses centimeters as units for non-parametric coordinates.

mtllib IceCreamSandwichShortRLowerArm.mtl
g default
v 0.508558 -0.392093 -0.699414
v 0.508558 -0.257947 -0.715871
v 0.508608 -0.257947 0.715922
v 0.508607 -0.392093 0.699465
v 0.508558 0.000856 -0.719986
v 0.508608 0.000856 0.720037
v 0.508558 0.259659 -0.715871
v 0.508608 0.259659 0.715922
v 0.508558 0.393805 -0.699414
v 0.508607 0.393805 0.699465
v 0.508561 0.524732 -0.617127
v 0.508605 0.524732 0.617177
v 0.508605 -0.523020 0.617177
v 0.508561 -0.523020 -0.617127
v 0.482079 0.418491 -0.739856
v 0.482079 0.492550 -0.739856
v 0.508558 0.517236 -0.699414
v 0.508607 0.517236 0.699465
v 0.482079 -0.416779 -0.739856
v 0.508558 -0.515524 -0.699414
v 0.482079 -0.490838 -0.739856
v 0.508607 -0.515524 0.699465
v 0.482130 0.418491 0.739909
v 0.482130 0.492550 0.739909
v 0.482130 -0.416779 0.739909
v 0.482130 -0.490838 0.739909
v -1.245535 -0.392093 0.699526
v -1.350441 -0.392093 0.671421
v -1.427240 -0.392093 0.594627
v -1.455353 -0.392093 0.489722
v -1.245535 0.393805 0.699526
v -1.455353 0.393805 0.489722
v -1.427240 0.393805 0.594627
v -1.350441 0.393805 0.671421
v -1.245584 -0.392093 -0.699353
v -1.455387 -0.392093 -0.489535
v -1.427282 -0.392093 -0.594442
v -1.350488 -0.392093 -0.671240
v -1.245584 0.393805 -0.699353
v -1.350488 0.393805 -0.671240
v -1.427282 0.393805 -0.594442
v -1.455387 0.393805 -0.489535
v -1.245535 -0.515524 0.699526
v -1.350441 -0.515524 0.671421
v -1.427240 -0.515524 0.594627
v -1.455353 -0.515524 0.489722
v -1.455387 -0.515524 -0.489535
v -1.427282 -0.515524 -0.594442
v -1.350488 -0.515524 -0.671240
v -1.245584 -0.515524 -0.699353
v -1.245584 0.517236 -0.699353
v -1.350488 0.517236 -0.671240
v -1.427282 0.517236 -0.594442
v -1.455387 0.517236 -0.489535
v -1.455353 0.517236 0.489722
v -1.427240 0.517236 0.594627
v -1.350441 0.517236 0.671421
v -1.245535 0.517236 0.699526
v -1.250858 -0.416779 0.739969
v -1.250858 -0.490838 0.739969
v -1.370311 -0.416779 0.705837
v -1.370311 -0.490838 0.705837
v -1.461657 -0.416779 0.614499
v -1.461657 -0.490838 0.614499
v -1.495795 -0.416779 0.495048
v -1.495795 -0.490838 0.495048
v -1.495830 -0.416779 -0.494858
v -1.495830 -0.490838 -0.494858
v -1.461700 -0.416779 -0.614311
v -1.461700 -0.490838 -0.614311
v -1.370360 -0.416779 -0.705657
v -1.370360 -0.490838 -0.705657
v -1.250910 -0.416779 -0.739796
v -1.250910 -0.490838 -0.739796
v -1.250910 0.418491 -0.739796
v -1.250910 0.492550 -0.739796
v -1.370360 0.418491 -0.705657
v -1.370360 0.492550 -0.705657
v -1.461700 0.418491 -0.614311
v -1.461700 0.492550 -0.614311
v -1.495830 0.418491 -0.494858
v -1.495830 0.492550 -0.494858
v -1.495795 0.418491 0.495048
v -1.495795 0.492550 0.495048
v -1.461657 0.418491 0.614499
v -1.461657 0.492550 0.614499
v -1.370311 0.418491 0.705837
v -1.370311 0.492550 0.705837
v -1.250858 0.418491 0.739969
v -1.250858 0.492550 0.739969
v -1.471810 -0.257947 0.491889
v -1.471810 0.259659 0.491889
v -1.471844 0.259659 -0.491701
v -1.471844 -0.257947 -0.491700
v -1.247751 -0.257947 -0.715810
v -1.247751 0.259659 -0.715810
v -1.247701 0.259659 0.715983
v -1.247701 -0.257947 0.715983
v -1.441995 -0.257947 0.603146
v -1.441995 0.259659 0.603146
v -1.358960 -0.257947 0.686177
v -1.358959 0.259659 0.686177
v -1.359007 -0.257947 -0.685996
v -1.359007 0.259660 -0.685996
v -1.442037 -0.257947 -0.602960
v -1.442037 0.259659 -0.602960
v -1.475925 0.000856 0.492432
v -1.475959 0.000856 -0.492243
v -1.248293 0.000856 -0.719925
v -1.248243 0.000856 0.720098
v -1.445684 0.000856 0.605276
v -1.361089 0.000856 0.689865
v -1.361137 0.000856 -0.689684
v -1.445726 0.000856 -0.605090
v -1.234704 -0.523020 0.617238
v -1.307849 -0.523020 0.597642
v -1.353465 -0.523020 0.552029
v -1.373066 -0.523020 0.478886
v -1.373100 -0.523020 -0.478704
v -1.353503 -0.523020 -0.551849
v -1.307891 -0.523020 -0.597466
v -1.234747 -0.523020 -0.617066
v -1.234747 0.524732 -0.617066
v -1.307891 0.524732 -0.597466
v -1.353503 0.524732 -0.551849
v -1.373100 0.524732 -0.478704
v -1.373066 0.524732 0.478886
v -1.353465 0.524732 0.552029
v -1.307849 0.524732 0.597642
v -1.234704 0.524732 0.617238
vt 0.742890 0.076524
vt 0.745882 0.100907
vt 0.485635 0.100907
vt 0.488627 0.076524
vt 0.746629 0.147948
vt 0.484887 0.147948
vt 0.745881 0.194989
vt 0.485635 0.194989
vt 0.742890 0.219371
vt 0.488627 0.219371
vt 0.618781 0.719843
vt 0.618781 0.936016
vt 0.595851 0.950428
vt 0.595851 0.705432
vt 0.617908 0.721471
vt 0.617908 0.933873
vt 0.595377 0.948033
vt 0.595377 0.707310
vt 0.617468 0.705432
vt 0.600217 0.698490
vt 0.613103 0.698490
vt 0.617468 0.950428
vt 0.599667 0.954854
vt 0.616618 0.948033
vt 0.612328 0.954854
vt 0.616618 0.707310
vt 0.600217 0.957370
vt 0.613103 0.957370
vt 0.599667 0.700489
vt 0.612328 0.700489
vt 0.330418 0.944257
vt 0.550642 0.944258
vt 0.542229 0.952643
vt 0.338831 0.952643
vt 0.906728 0.568325
vt 0.906802 0.887817
vt 0.890011 0.887805
vt 0.890181 0.568344
vt 0.934464 0.009142
vt 0.934464 0.031058
vt 0.917667 0.031078
vt 0.917667 0.009129
vt 0.934464 0.053983
vt 0.917667 0.053992
vt 0.934464 0.075936
vt 0.917667 0.075972
vt 0.934464 0.258210
vt 0.917667 0.258175
vt 0.934464 0.280170
vt 0.917667 0.280161
vt 0.934464 0.303094
vt 0.917667 0.303073
vt 0.934464 0.325014
vt 0.917667 0.325027
vt 0.934390 0.644605
vt 0.917837 0.644623
vt 0.987645 0.247648
vt 0.987719 0.567206
vt 0.970921 0.567190
vt 0.971091 0.247627
vt 0.987719 0.589128
vt 0.970921 0.589144
vt 0.987719 0.612049
vt 0.970921 0.612037
vt 0.987719 0.633989
vt 0.970921 0.634024
vt 0.987719 0.816252
vt 0.970921 0.816216
vt 0.987719 0.838212
vt 0.970921 0.838224
vt 0.987719 0.861157
vt 0.970921 0.861142
vt 0.987719 0.883076
vt 0.970921 0.883088
vt 0.960922 0.004997
vt 0.960848 0.324529
vt 0.944303 0.324511
vt 0.944132 0.005009
vt 0.912301 0.563479
vt 0.912399 0.886931
vt 0.569515 0.932824
vt 0.569502 0.609165
vt 0.578026 0.614064
vt 0.578261 0.933830
vt 0.940062 0.008255
vt 0.940063 0.031118
vt 0.564208 0.952184
vt 0.571728 0.956630
vt 0.940063 0.053892
vt 0.550019 0.966198
vt 0.554349 0.973692
vt 0.940063 0.076650
vt 0.530751 0.971449
vt 0.531775 0.980180
vt 0.940063 0.257495
vt 0.350309 0.971448
vt 0.349286 0.980178
vt 0.940063 0.280262
vt 0.331041 0.966198
vt 0.326712 0.973691
vt 0.940063 0.303035
vt 0.316853 0.952184
vt 0.309333 0.956629
vt 0.940063 0.325901
vt 0.311545 0.932824
vt 0.302799 0.933831
vt 0.939965 0.649403
vt 0.311558 0.609166
vt 0.303034 0.614065
vt 0.993220 0.242848
vt 0.993318 0.566315
vt 0.020266 0.370441
vt 0.020279 0.694044
vt 0.011754 0.689147
vt 0.011519 0.369440
vt 0.993318 0.589202
vt 0.025569 0.351094
vt 0.018046 0.346694
vt 0.993318 0.611974
vt 0.039761 0.336960
vt 0.035431 0.329401
vt 0.993318 0.634701
vt 0.059036 0.331762
vt 0.058014 0.323025
vt 0.993318 0.815539
vt 0.239451 0.331761
vt 0.240473 0.323025
vt 0.993318 0.838287
vt 0.258726 0.336959
vt 0.263056 0.329401
vt 0.993318 0.861083
vt 0.272919 0.351094
vt 0.280441 0.346694
vt 0.993318 0.883964
vt 0.278221 0.370441
vt 0.286967 0.369440
vt 0.966518 0.005884
vt 0.966420 0.329376
vt 0.278208 0.694043
vt 0.286733 0.689146
vt 0.812364 0.305942
vt 0.631205 0.305942
vt 0.631070 0.281139
vt 0.812498 0.281139
vt 0.631205 0.160633
vt 0.812364 0.160633
vt 0.812499 0.185436
vt 0.631069 0.185436
vt 0.567186 0.305942
vt 0.243671 0.305896
vt 0.243609 0.281126
vt 0.567484 0.281139
vt 0.243671 0.160679
vt 0.567186 0.160633
vt 0.567484 0.185436
vt 0.243609 0.185449
vt 0.330528 0.152633
vt 0.006964 0.152679
vt 0.006665 0.127877
vt 0.330547 0.127864
vt 0.006964 0.007371
vt 0.330528 0.007417
vt 0.330547 0.032187
vt 0.006665 0.032174
vt 0.833642 0.160633
vt 0.833564 0.185436
vt 0.833642 0.305942
vt 0.833564 0.281139
vt 0.855012 0.160633
vt 0.855030 0.185436
vt 0.855012 0.305942
vt 0.855030 0.281139
vt 0.876389 0.160633
vt 0.876089 0.185436
vt 0.876389 0.305942
vt 0.876089 0.281139
vt 0.588560 0.160633
vt 0.588542 0.185436
vt 0.588560 0.305942
vt 0.588542 0.281139
vt 0.609927 0.160633
vt 0.610005 0.185436
vt 0.609927 0.305942
vt 0.610005 0.281139
vt 0.631198 0.233287
vt 0.812369 0.233287
vt 0.243570 0.233287
vt 0.567487 0.233287
vt 0.006659 0.080025
vt 0.330549 0.080025
vt 0.833468 0.233287
vt 0.855028 0.233287
vt 0.876084 0.233287
vt 0.588541 0.233287
vt 0.610104 0.233287
vt 0.554275 0.930805
vt 0.554285 0.609165
vt 0.528752 0.956248
vt 0.352309 0.956248
vt 0.326786 0.930805
vt 0.326775 0.609166
vt 0.035506 0.372451
vt 0.035495 0.694044
vt 0.039140 0.358982
vt 0.047553 0.350585
vt 0.061030 0.346975
vt 0.237457 0.346975
vt 0.250934 0.350584
vt 0.259347 0.358982
vt 0.262982 0.372450
vt 0.262992 0.694043
vn 0.999983 0.000000 -0.005749
vn 1.000000 -0.000001 -0.000035
vn 1.000000 -0.000001 -0.000035
vn 0.999984 0.000000 0.005679
vn 1.000000 0.000000 -0.000035
vn 1.000000 0.000000 -0.000035
vn 1.000000 0.000001 -0.000035
vn 1.000000 0.000001 -0.000035
vn 0.999983 -0.000000 -0.005749
vn 0.999984 -0.000000 0.005679
vn 1.000000 -0.000001 -0.000035
vn 1.000000 -0.000001 -0.000035
vn 1.000000 0.000001 -0.000035
vn 1.000000 0.000001 -0.000035
vn 0.975819 0.000000 -0.218581
vn 0.836623 0.000000 -0.547779
vn 0.836623 0.000000 -0.547779
vn 0.975833 0.000000 0.218515
vn 0.836623 0.000000 -0.547780
vn 0.975819 0.000000 -0.218580
vn 0.836623 0.000000 -0.547780
vn 0.975833 0.000000 0.218517
vn 0.836660 0.000000 0.547722
vn 0.836660 0.000000 0.547722
vn 0.836659 0.000000 0.547724
vn 0.836659 0.000000 0.547724
vn -0.005057 -0.999947 -0.008931
vn -0.005056 -0.999947 0.008931
vn -0.013240 -0.999884 0.007497
vn -0.013241 -0.999884 -0.007497
vn 0.000031 0.449970 0.893043
vn -0.016746 0.361607 0.932180
vn -0.016746 -0.361608 0.932180
vn 0.000031 -0.449973 0.893042
vn -0.482459 0.324766 0.813487
vn -0.482460 -0.324767 0.813486
vn -0.813452 0.324769 0.482516
vn -0.813452 -0.324770 0.482515
vn -0.933139 0.358411 0.028168
vn -0.933139 -0.358411 0.028168
vn -0.933140 0.358413 -0.028102
vn -0.933140 -0.358414 -0.028102
vn -0.813486 0.324770 -0.482457
vn -0.813486 -0.324771 -0.482457
vn -0.482516 0.324770 -0.813451
vn -0.482516 -0.324772 -0.813450
vn -0.016811 0.361611 -0.932177
vn -0.016811 -0.361613 -0.932177
vn -0.000031 0.449975 -0.893041
vn -0.000031 -0.449978 -0.893040
vn -0.000031 -0.449974 -0.893042
vn -0.016811 -0.361611 -0.932178
vn -0.016811 0.361614 -0.932176
vn -0.000031 0.449979 -0.893039
vn -0.482517 -0.324771 -0.813450
vn -0.482517 0.324772 -0.813450
vn -0.813487 -0.324771 -0.482456
vn -0.813486 0.324771 -0.482457
vn -0.933140 -0.358413 -0.028102
vn -0.933139 0.358415 -0.028102
vn -0.933139 -0.358410 0.028168
vn -0.933138 0.358413 0.028168
vn -0.813453 -0.324769 0.482514
vn -0.813451 0.324770 0.482516
vn -0.482459 -0.324766 0.813486
vn -0.482459 0.324767 0.813486
vn -0.016746 -0.361609 0.932180
vn -0.016746 0.361609 0.932180
vn 0.000031 -0.449973 0.893042
vn 0.000031 0.449973 0.893042
vn 0.000018 0.853549 0.521013
vn -0.008715 0.853683 0.520720
vn -0.004322 -0.962630 0.270786
vn 0.000008 -0.976592 0.215098
vn -0.264737 0.852326 0.451060
vn -0.157913 -0.949697 0.270441
vn -0.451035 0.852331 0.264763
vn -0.270431 -0.949697 0.157930
vn -0.520488 0.853741 0.014787
vn -0.273421 -0.961866 0.007449
vn -0.520489 0.853741 -0.014751
vn -0.273421 -0.961866 -0.007430
vn -0.451052 0.852331 -0.264732
vn -0.270443 -0.949697 -0.157913
vn -0.264765 0.852330 -0.451036
vn -0.157931 -0.949698 -0.270429
vn -0.008751 0.853687 -0.520714
vn -0.004340 -0.962630 -0.270785
vn -0.000018 0.853552 -0.521007
vn -0.000008 -0.976592 -0.215098
vn -0.000018 -0.853551 -0.521009
vn -0.008751 -0.853685 -0.520716
vn -0.004340 0.962631 -0.270783
vn -0.000008 0.976593 -0.215098
vn -0.264765 -0.852331 -0.451034
vn -0.157931 0.949698 -0.270428
vn -0.451055 -0.852330 -0.264731
vn -0.270441 0.949698 -0.157911
vn -0.520492 -0.853739 -0.014751
vn -0.273420 0.961866 -0.007430
vn -0.520491 -0.853739 0.014787
vn -0.273420 0.961866 0.007449
vn -0.451037 -0.852330 0.264762
vn -0.270430 0.949697 0.157933
vn -0.264738 -0.852325 0.451061
vn -0.157913 0.949697 0.270441
vn -0.008715 -0.853686 0.520715
vn -0.004322 0.962630 0.270787
vn 0.000018 -0.853552 0.521007
vn 0.000008 0.976592 0.215101
vn -0.992161 0.122147 0.026407
vn -0.992163 0.122147 -0.026338
vn -0.998280 0.052022 -0.027035
vn -0.998278 0.052022 0.027105
vn -0.992162 -0.122148 -0.026338
vn -0.992160 -0.122148 0.026407
vn -0.998278 -0.052022 0.027105
vn -0.998280 -0.052023 -0.027035
vn -0.015459 0.121999 -0.992410
vn -0.000035 0.121768 -0.992559
vn -0.000035 0.052262 -0.998633
vn -0.015901 0.052036 -0.998519
vn -0.000035 -0.121768 -0.992559
vn -0.015459 -0.121999 -0.992410
vn -0.015901 -0.052036 -0.998519
vn -0.000035 -0.052262 -0.998633
vn 0.000035 0.121764 0.992559
vn -0.015389 0.121995 0.992411
vn -0.015831 0.052036 0.998520
vn 0.000035 0.052262 0.998633
vn -0.015389 -0.121996 0.992411
vn 0.000035 -0.121764 0.992559
vn 0.000035 -0.052262 0.998633
vn -0.015831 -0.052036 0.998520
vn -0.858446 -0.125999 0.497187
vn -0.863626 -0.052512 0.501390
vn -0.858445 0.125996 0.497189
vn -0.863625 0.052513 0.501392
vn -0.497136 -0.125999 0.858475
vn -0.501335 -0.052513 0.863658
vn -0.497137 0.125997 0.858475
vn -0.501335 0.052513 0.863658
vn -0.497194 -0.125997 -0.858442
vn -0.501394 -0.052513 -0.863624
vn -0.497194 0.125998 -0.858442
vn -0.501393 0.052514 -0.863624
vn -0.858478 -0.125995 -0.497132
vn -0.863658 -0.052513 -0.501335
vn -0.858478 0.125996 -0.497132
vn -0.863658 0.052513 -0.501336
vn -0.999626 -0.000000 -0.027345
vn -0.999624 0.000000 0.027414
vn -0.000035 0.000000 -1.000000
vn -0.016100 0.000000 -0.999870
vn -0.016030 0.000000 0.999872
vn 0.000035 -0.000000 1.000000
vn -0.864565 0.000001 0.502520
vn -0.502465 0.000001 0.864598
vn -0.502524 0.000000 -0.864563
vn -0.864597 -0.000000 -0.502466
vn -0.000081 -0.999981 0.006243
vn 0.000000 -0.999984 0.005710
vn -0.065121 -0.997876 0.001471
vn -0.065121 -0.997876 -0.001467
vn -0.000081 -0.999981 -0.006243
vn -0.000000 -0.999984 -0.005710
vn -0.000081 0.999981 -0.006243
vn -0.000000 0.999984 -0.005710
vn -0.005057 0.999947 -0.008931
vn -0.013241 0.999884 -0.007496
vn -0.065121 0.997876 -0.001466
vn -0.065121 0.997876 0.001471
vn -0.013240 0.999884 0.007497
vn -0.005056 0.999947 0.008931
vn -0.000081 0.999981 0.006243
vn 0.000000 0.999984 0.005710
s 1
g FoodShortRLowerArm
usemtl blinn2SG
f 1/1/1 2/2/2 3/3/3 4/4/4
f 2/2/2 5/5/5 6/6/6 3/3/3
f 5/5/5 7/7/7 8/8/8 6/6/6
f 7/7/7 9/9/9 10/10/10 8/8/8
f 11/11/11 12/12/12 10/13/10 9/14/9
f 13/15/13 14/16/14 1/17/1 4/18/4
f 17/19/15 9/14/9 15/20/16 16/21/17
f 18/22/18 10/13/10 12/12/12
f 19/23/19 1/17/1 20/24/20 21/25/21
f 22/26/22 13/15/13 4/18/4
f 17/19/15 11/11/11 9/14/9
f 20/24/20 1/17/1 14/16/14
f 23/27/23 10/13/10 18/22/18 24/28/24
f 22/26/22 4/18/4 25/29/25 26/30/26
s 2
f 121/31/27 116/32/28 117/33/29 120/34/30
f 25/35/31 59/36/32 60/37/33 26/38/34
f 59/39/32 61/40/35 62/41/36 60/42/33
f 61/40/35 63/43/37 64/44/38 62/41/36
f 63/43/37 65/45/39 66/46/40 64/44/38
f 65/45/39 67/47/41 68/48/42 66/46/40
f 67/47/41 69/49/43 70/50/44 68/48/42
f 69/49/43 71/51/45 72/52/46 70/50/44
f 71/51/45 73/53/47 74/54/48 72/52/46
f 73/53/47 19/55/49 21/56/50 74/54/48
s 4
f 15/57/51 75/58/52 76/59/53 16/60/54
f 75/58/52 77/61/55 78/62/56 76/59/53
f 77/61/55 79/63/57 80/64/58 78/62/56
f 79/63/57 81/65/59 82/66/60 80/64/58
f 81/65/59 83/67/61 84/68/62 82/66/60
f 83/67/61 85/69/63 86/70/64 84/68/62
f 85/69/63 87/71/65 88/72/66 86/70/64
f 87/71/65 89/73/67 90/74/68 88/72/66
f 89/75/67 23/76/69 24/77/70 90/78/68
s 2
f 4/79/71 27/80/72 59/36/32 25/35/31
f 43/81/73 22/82/74 26/83/34 60/84/33
f 27/85/72 28/86/75 61/40/35 59/39/32
f 44/87/76 43/81/73 60/84/33 62/88/36
f 28/86/75 29/89/77 63/43/37 61/40/35
f 45/90/78 44/87/76 62/88/36 64/91/38
f 29/89/77 30/92/79 65/45/39 63/43/37
f 46/93/80 45/90/78 64/91/38 66/94/40
f 30/92/79 36/95/81 67/47/41 65/45/39
f 47/96/82 46/93/80 66/94/40 68/97/42
f 36/95/81 37/98/83 69/49/43 67/47/41
f 48/99/84 47/96/82 68/97/42 70/100/44
f 37/98/83 38/101/85 71/51/45 69/49/43
f 49/102/86 48/99/84 70/100/44 72/103/46
f 38/101/85 35/104/87 73/53/47 71/51/45
f 50/105/88 49/102/86 72/103/46 74/106/48
f 35/104/87 1/107/89 19/55/49 73/53/47
f 20/108/90 50/105/88 74/106/48 21/109/50
s 4
f 9/110/91 39/111/92 75/58/52 15/57/51
f 51/112/93 17/113/94 16/114/54 76/115/53
f 39/111/92 40/116/95 77/61/55 75/58/52
f 52/117/96 51/112/93 76/115/53 78/118/56
f 40/116/95 41/119/97 79/63/57 77/61/55
f 53/120/98 52/117/96 78/118/56 80/121/58
f 41/119/97 42/122/99 81/65/59 79/63/57
f 54/123/100 53/120/98 80/121/58 82/124/60
f 42/122/99 32/125/101 83/67/61 81/65/59
f 55/126/102 54/123/100 82/124/60 84/127/62
f 32/125/101 33/128/103 85/69/63 83/67/61
f 56/129/104 55/126/102 84/127/62 86/130/64
f 33/128/103 34/131/105 87/71/65 85/69/63
f 57/132/106 56/129/104 86/130/64 88/133/66
f 34/131/105 31/134/107 89/73/67 87/71/65
f 58/135/108 57/132/106 88/133/66 90/136/68
f 31/137/107 10/138/109 23/76/69 89/75/67
f 18/139/110 58/135/108 90/136/68 24/140/70
s 5
f 32/141/111 42/142/112 93/143/113 92/144/114
f 36/145/115 30/146/116 91/147/117 94/148/118
f 39/149/119 9/150/120 7/151/121 96/152/122
f 1/153/123 35/154/124 95/155/125 2/156/126
f 10/157/127 31/158/128 97/159/129 8/160/130
f 27/161/131 4/162/132 3/163/133 98/164/134
f 30/146/116 29/165/135 99/166/136 91/147/117
f 33/167/137 32/141/111 92/144/114 100/168/138
f 29/165/135 28/169/139 101/170/140 99/166/136
f 34/171/141 33/167/137 100/168/138 102/172/142
f 28/169/139 27/173/131 98/174/134 101/170/140
f 31/175/128 34/171/141 102/172/142 97/176/129
f 35/154/124 38/177/143 103/178/144 95/155/125
f 40/179/145 39/149/119 96/152/122 104/180/146
f 38/177/143 37/181/147 105/182/148 103/178/144
f 41/183/149 40/179/145 104/180/146 106/184/150
f 37/181/147 36/145/115 94/148/118 105/182/148
f 42/142/112 41/183/149 106/184/150 93/143/113
f 92/144/114 93/143/113 108/185/151 107/186/152
f 94/148/118 91/147/117 107/186/152 108/185/151
f 96/152/122 7/151/121 5/187/153 109/188/154
f 2/156/126 95/155/125 109/188/154 5/187/153
f 8/160/130 97/159/129 110/189/155 6/190/156
f 98/164/134 3/163/133 6/190/156 110/189/155
f 91/147/117 99/166/136 111/191/157 107/186/152
f 100/168/138 92/144/114 107/186/152 111/191/157
f 99/166/136 101/170/140 112/192/158 111/191/157
f 102/172/142 100/168/138 111/191/157 112/192/158
f 101/170/140 98/174/134 110/193/155 112/192/158
f 97/176/129 102/172/142 112/192/158 110/193/155
f 95/155/125 103/178/144 113/194/159 109/188/154
f 104/180/146 96/152/122 109/188/154 113/194/159
f 103/178/144 105/182/148 114/195/160 113/194/159
f 106/184/150 104/180/146 113/194/159 114/195/160
f 105/182/148 94/148/118 108/185/151 114/195/160
f 93/143/113 106/184/150 114/195/160 108/185/151
s 2
f 22/82/74 43/81/73 115/196/161 13/197/162
f 43/81/73 44/87/76 116/32/28 115/196/161
f 44/87/76 45/90/78 117/33/29 116/32/28
f 45/90/78 46/93/80 118/198/163 117/33/29
f 46/93/80 47/96/82 119/199/164 118/198/163
f 47/96/82 48/99/84 120/34/30 119/199/164
f 48/99/84 49/102/86 121/31/27 120/34/30
f 49/102/86 50/105/88 122/200/165 121/31/27
f 50/105/88 20/108/90 14/201/166 122/200/165
s 4
f 17/113/94 51/112/93 123/202/167 11/203/168
f 51/112/93 52/117/96 124/204/169 123/202/167
f 52/117/96 53/120/98 125/205/170 124/204/169
f 53/120/98 54/123/100 126/206/171 125/205/170
f 54/123/100 55/126/102 127/207/172 126/206/171
f 55/126/102 56/129/104 128/208/173 127/207/172
f 56/129/104 57/132/106 129/209/174 128/208/173
f 57/132/106 58/135/108 130/210/175 129/209/174
f 58/135/108 18/139/110 12/211/176 130/210/175
f 130/210/175 123/202/167 124/204/169 129/209/174
s 2
f 13/197/162 115/196/161 122/200/165 14/201/166
s 4
f 12/211/176 11/203/168 123/202/167 130/210/175
f 128/208/173 125/205/170 126/206/171 127/207/172
s 2
f 122/200/165 115/196/161 116/32/28 121/31/27
s 4
f 129/209/174 124/204/169 125/205/170 128/208/173
s 2
f 120/34/30 117/33/29 118/198/163 119/199/164
