# This file uses centimeters as units for non-parametric coordinates.

mtllib DessertShishkabobRUpperCanine.mtl
g default
v -0.008460 1.981881 -0.220207
v 0.151539 1.851865 -0.162832
v 0.131179 1.932784 -0.177151
v 0.082024 1.965485 -0.188857
v 0.078392 1.956143 -0.255330
v 0.126497 1.920749 -0.262782
v 0.146423 1.838715 -0.256400
v 0.030262 1.824208 -0.359619
v 0.027345 1.908367 -0.350887
v 0.020303 1.948889 -0.306946
v -0.046823 1.949394 -0.303347
v -0.059128 1.909018 -0.346253
v -0.064226 1.824920 -0.354556
v -0.168460 1.841087 -0.239524
v -0.148100 1.922818 -0.248064
v -0.098945 1.957479 -0.245825
v -0.095314 1.966821 -0.179352
v -0.143419 1.934852 -0.162433
v -0.163345 1.854237 -0.145955
v 0.029901 1.973569 -0.131335
v 0.042207 1.946584 -0.078961
v 0.047305 1.868032 -0.047800
v -0.047184 1.868743 -0.042737
v -0.044266 1.947235 -0.074328
v -0.037225 1.974075 -0.127736
v 0.123480 1.862953 -0.083938
v 0.107228 1.942248 -0.109809
v 0.067993 1.971029 -0.149405
v 0.109931 1.828114 -0.331833
v 0.095349 1.911700 -0.327170
v 0.060144 1.950841 -0.293051
v -0.140401 1.829999 -0.318418
v -0.124149 1.913354 -0.315406
v -0.084915 1.951934 -0.285276
v -0.126851 1.864838 -0.070521
v -0.112269 1.943902 -0.098043
v -0.077064 1.972122 -0.141630
v 0.151539 -0.040590 0.103135
v 0.030262 -0.068247 -0.093652
v -0.168460 -0.051369 0.026443
v -0.047184 -0.023712 0.223230
v -0.126851 -0.027617 0.195446
v -0.163345 -0.038219 0.120012
v -0.140401 -0.062457 -0.052450
v -0.064226 -0.067536 -0.088589
v 0.109931 -0.064342 -0.065866
v 0.146423 -0.053741 0.009567
v 0.123480 -0.029503 0.182029
v 0.047305 -0.024424 0.218167
vt 0.097579 0.497479
vt 0.099484 0.494046
vt 0.104157 0.497930
vt 0.100985 0.500324
vt 0.102262 0.488806
vt 0.108774 0.494727
vt 0.101309 0.505453
vt 0.104743 0.507358
vt 0.100858 0.512030
vt 0.098464 0.508859
vt 0.109982 0.510136
vt 0.104062 0.516648
vt 0.093336 0.509183
vt 0.091431 0.512617
vt 0.086758 0.508732
vt 0.089929 0.506338
vt 0.088653 0.517856
vt 0.082141 0.511935
vt 0.086853 0.490015
vt 0.090056 0.494632
vt 0.086172 0.499305
vt 0.080932 0.496527
vt 0.092450 0.497803
vt 0.089605 0.501210
vt 0.095457 0.503331
vt 0.094941 0.496605
vt 0.102184 0.502815
vt 0.095974 0.510057
vt 0.088731 0.503848
vt 0.094697 0.492558
vt 0.094358 0.487305
vt 0.106231 0.502571
vt 0.111483 0.502232
vt 0.096217 0.514105
vt 0.096557 0.519357
vt 0.084684 0.504091
vt 0.079431 0.504431
vt 0.057703 0.009366
vt 0.057705 0.142650
vt 0.051145 0.142650
vt 0.051147 0.009366
vt 0.076002 0.009366
vt 0.076005 0.142650
vt 0.069422 0.142650
vt 0.069423 0.009366
vt 0.021171 0.009366
vt 0.021172 0.142650
vt 0.014589 0.142650
vt 0.014592 0.009366
vt 0.039447 0.009366
vt 0.039449 0.142650
vt 0.032889 0.142650
vt 0.032891 0.009366
vt 0.045297 0.142650
vt 0.045297 0.009366
vt 0.063560 0.142650
vt 0.063560 0.009366
vt 0.081731 0.142648
vt 0.081887 0.009366
vt 0.008863 0.142648
vt 0.008707 0.009366
vt 0.027034 0.142650
vt 0.027034 0.009366
vn 0.452904 0.888607 -0.072495
vn 0.880505 0.471903 0.044924
vn 0.863471 0.428101 -0.266733
vn 0.444662 0.867404 -0.223352
vn 0.880505 0.471903 0.044924
vn 0.991417 0.025827 0.128165
vn 0.971538 -0.025287 -0.235532
vn 0.863471 0.428101 -0.266733
vn 0.051878 0.818352 -0.572370
vn 0.110169 0.334027 -0.936103
vn -0.204551 0.336400 -0.919236
vn -0.100459 0.819502 -0.564202
vn 0.110169 0.334027 -0.936103
vn 0.130520 -0.130315 -0.982844
vn -0.236752 -0.127548 -0.963161
vn -0.204551 0.336400 -0.919236
vn -0.452905 0.874166 -0.175247
vn -0.880506 0.441238 -0.173259
vn -0.863473 0.485038 0.138397
vn -0.444666 0.895364 -0.024394
vn -0.880506 0.441238 -0.173259
vn -0.991417 -0.010500 -0.130319
vn -0.971537 0.040614 0.233379
vn -0.863473 0.485038 0.138397
vn 0.236752 0.142876 0.961007
vn 0.204550 0.576744 0.790902
vn -0.110170 0.579113 0.807769
vn -0.130520 0.145642 0.980690
vn 0.204550 0.576744 0.790902
vn 0.100457 0.943272 0.316459
vn -0.051877 0.944417 0.324631
vn -0.110170 0.579113 0.807769
vn 0.000001 0.990268 -0.139172
vn 0.452904 0.888607 -0.072495
vn 0.444662 0.867404 -0.223352
vn 0.000001 0.990268 -0.139172
vn 0.051878 0.818352 -0.572370
vn -0.100459 0.819502 -0.564202
vn 0.000001 0.990268 -0.139172
vn -0.452905 0.874166 -0.175247
vn -0.444666 0.895364 -0.024394
vn 0.000001 0.990268 -0.139172
vn -0.051877 0.944417 0.324631
vn 0.100457 0.943272 0.316459
vn 0.000001 0.990268 -0.139172
vn 0.100457 0.943272 0.316459
vn 0.336704 0.925192 0.175071
vn 0.000001 0.990268 -0.139172
vn 0.336704 0.925192 0.175071
vn 0.452904 0.888607 -0.072495
vn 0.000001 0.990268 -0.139172
vn 0.444662 0.867404 -0.223352
vn 0.302132 0.836280 -0.457551
vn 0.000001 0.990268 -0.139172
vn 0.302132 0.836280 -0.457551
vn 0.051878 0.818352 -0.572370
vn 0.000001 0.990268 -0.139172
vn -0.100459 0.819502 -0.564202
vn -0.336705 0.841095 -0.423307
vn 0.000001 0.990268 -0.139172
vn -0.336705 0.841095 -0.423307
vn -0.452905 0.874166 -0.175247
vn 0.000001 0.990268 -0.139172
vn -0.444666 0.895364 -0.024394
vn -0.302133 0.930001 0.209315
vn 0.000001 0.990268 -0.139172
vn -0.302133 0.930001 0.209315
vn -0.051877 0.944417 0.324631
vn 0.991417 0.025827 0.128165
vn 0.880505 0.471903 0.044924
vn 0.665187 0.527325 0.528635
vn 0.744265 0.100684 0.660251
vn 0.880505 0.471903 0.044924
vn 0.452904 0.888607 -0.072495
vn 0.336704 0.925192 0.175071
vn 0.665187 0.527325 0.528635
vn 0.130520 -0.130315 -0.982844
vn 0.110169 0.334027 -0.936103
vn 0.596882 0.351671 -0.721151
vn 0.667838 -0.095843 -0.738110
vn 0.110169 0.334027 -0.936103
vn 0.051878 0.818352 -0.572370
vn 0.302132 0.836280 -0.457551
vn 0.596882 0.351671 -0.721151
vn -0.991417 -0.010500 -0.130319
vn -0.880506 0.441238 -0.173259
vn -0.665188 0.361184 -0.653507
vn -0.744265 -0.085206 -0.662427
vn -0.880506 0.441238 -0.173259
vn -0.452905 0.874166 -0.175247
vn -0.336705 0.841095 -0.423307
vn -0.665188 0.361184 -0.653507
vn -0.130520 0.145642 0.980690
vn -0.110170 0.579113 0.807769
vn -0.596883 0.536824 0.596280
vn -0.667838 0.111321 0.735934
vn -0.110170 0.579113 0.807769
vn -0.051877 0.944417 0.324631
vn -0.302133 0.930001 0.209315
vn -0.596883 0.536824 0.596280
vn 0.100457 0.943272 0.316459
vn 0.204550 0.576744 0.790902
vn 0.665187 0.527325 0.528635
vn 0.336704 0.925192 0.175071
vn 0.204550 0.576744 0.790902
vn 0.236752 0.142876 0.961007
vn 0.744265 0.100684 0.660251
vn 0.665187 0.527325 0.528635
vn 0.444662 0.867404 -0.223352
vn 0.863471 0.428101 -0.266733
vn 0.596882 0.351671 -0.721151
vn 0.302132 0.836280 -0.457551
vn 0.863471 0.428101 -0.266733
vn 0.971538 -0.025287 -0.235532
vn 0.667838 -0.095843 -0.738110
vn 0.596882 0.351671 -0.721151
vn -0.100459 0.819502 -0.564202
vn -0.204551 0.336400 -0.919236
vn -0.665188 0.361184 -0.653507
vn -0.336705 0.841095 -0.423307
vn -0.204551 0.336400 -0.919236
vn -0.236752 -0.127548 -0.963161
vn -0.744265 -0.085206 -0.662427
vn -0.665188 0.361184 -0.653507
vn -0.444666 0.895364 -0.024394
vn -0.863473 0.485038 0.138397
vn -0.596883 0.536824 0.596280
vn -0.302133 0.930001 0.209315
vn -0.863473 0.485038 0.138397
vn -0.971537 0.040614 0.233379
vn -0.667838 0.111321 0.735934
vn -0.596883 0.536824 0.596280
vn -0.991417 -0.010500 -0.130319
vn -0.991433 -0.018178 -0.129343
vn -0.971543 0.032965 0.234559
vn -0.971537 0.040614 0.233379
vn 0.130520 -0.130315 -0.982844
vn 0.130623 -0.137981 -0.981784
vn -0.236856 -0.135213 -0.962090
vn -0.236752 -0.127548 -0.963161
vn 0.991417 0.025827 0.128165
vn 0.991433 0.018178 0.129344
vn 0.971543 -0.032965 -0.234559
vn 0.971538 -0.025287 -0.235532
vn -0.130520 0.145642 0.980690
vn -0.130623 0.137981 0.981784
vn 0.236856 0.135213 0.962090
vn 0.236752 0.142876 0.961007
vn -0.971543 0.032965 0.234559
vn -0.667859 0.103585 0.737045
vn -0.667838 0.111321 0.735934
vn -0.971537 0.040614 0.233379
vn -0.744288 -0.092948 -0.661359
vn -0.991433 -0.018178 -0.129343
vn -0.991417 -0.010500 -0.130319
vn -0.744265 -0.085206 -0.662427
vn -0.236856 -0.135213 -0.962090
vn -0.744288 -0.092948 -0.661359
vn -0.744265 -0.085206 -0.662427
vn -0.236752 -0.127548 -0.963161
vn 0.667859 -0.103585 -0.737045
vn 0.130623 -0.137981 -0.981784
vn 0.130520 -0.130315 -0.982844
vn 0.667838 -0.095843 -0.738110
vn 0.971543 -0.032965 -0.234559
vn 0.667859 -0.103585 -0.737045
vn 0.667838 -0.095843 -0.738110
vn 0.971538 -0.025287 -0.235532
vn 0.744288 0.092948 0.661359
vn 0.991433 0.018178 0.129344
vn 0.991417 0.025827 0.128165
vn 0.744265 0.100684 0.660251
vn 0.236856 0.135213 0.962090
vn 0.744288 0.092948 0.661359
vn 0.744265 0.100684 0.660251
vn 0.236752 0.142876 0.961007
vn -0.667859 0.103585 0.737045
vn -0.130623 0.137981 0.981784
vn -0.130520 0.145642 0.980690
vn -0.667838 0.111321 0.735934
s off
g FoodRUpperCaninesOverbite
usemtl blinn3SG
f 4/1/1 3/2/2 6/3/3 5/4/4
f 3/2/5 2/5/6 7/6/7 6/3/8
f 10/7/9 9/8/10 12/9/11 11/10/12
f 9/8/13 8/11/14 13/12/15 12/9/16
f 16/13/17 15/14/18 18/15/19 17/16/20
f 15/14/21 14/17/22 19/18/23 18/15/24
f 22/19/25 21/20/26 24/21/27 23/22/28
f 21/20/29 20/23/30 25/24/31 24/21/32
f 1/25/33 4/1/34 5/4/35
f 1/25/36 10/7/37 11/10/38
f 1/25/39 16/13/40 17/16/41
f 1/25/42 25/24/43 20/23/44
f 1/25/45 20/23/46 28/26/47
f 1/25/48 28/26/49 4/1/50
f 1/25/51 5/4/52 31/27/53
f 1/25/54 31/27/55 10/7/56
f 1/25/57 11/10/58 34/28/59
f 1/25/60 34/28/61 16/13/62
f 1/25/63 17/16/64 37/29/65
f 1/25/66 37/29/67 25/24/68
f 2/5/69 3/2/70 27/30/71 26/31/72
f 3/2/73 4/1/74 28/26/75 27/30/76
f 8/11/77 9/8/78 30/32/79 29/33/80
f 9/8/81 10/7/82 31/27/83 30/32/84
f 14/17/85 15/14/86 33/34/87 32/35/88
f 15/14/89 16/13/90 34/28/91 33/34/92
f 23/22/93 24/21/94 36/36/95 35/37/96
f 24/21/97 25/24/98 37/29/99 36/36/100
f 20/23/101 21/20/102 27/30/103 28/26/104
f 21/20/105 22/19/106 26/31/107 27/30/108
f 5/4/109 6/3/110 30/32/111 31/27/112
f 6/3/113 7/6/114 29/33/115 30/32/116
f 11/10/117 12/9/118 33/34/119 34/28/120
f 12/9/121 13/12/122 32/35/123 33/34/124
f 17/16/125 18/15/126 36/36/127 37/29/128
f 18/15/129 19/18/130 35/37/131 36/36/132
f 14/38/133 40/39/134 43/40/135 19/41/136
f 8/42/137 39/43/138 45/44/139 13/45/140
f 2/46/141 38/47/142 47/48/143 7/49/144
f 23/50/145 41/51/146 49/52/147 22/53/148
f 43/40/149 42/54/150 35/55/151 19/41/152
f 44/56/153 40/39/154 14/38/155 32/57/156
f 45/44/157 44/56/158 32/57/159 13/45/160
f 46/58/161 39/43/162 8/42/163 29/59/164
f 47/48/165 46/60/166 29/61/167 7/49/168
f 48/62/169 38/47/170 2/46/171 26/63/172
f 49/52/173 48/62/174 26/63/175 22/53/176
f 42/54/177 41/51/178 23/50/179 35/55/180
