# This file uses centimeters as units for non-parametric coordinates.

mtllib DesertCanyonWaterfalls.mtl
g default
v -27.250847 2.680757 6.149032
v -26.038311 3.144812 13.866419
v -23.958902 4.061131 17.463085
v -23.092026 4.513391 13.342358
v -24.304562 4.049335 5.624971
v -26.383970 3.133018 2.028308
v -178.025192 39.879005 37.982727
v -176.101669 41.537109 49.047245
v -175.204453 44.110725 54.518112
v -176.233932 45.946960 48.887684
v -178.157471 44.288849 37.823162
v -179.054672 41.715240 32.352287
v -31.913939 43.337563 3.031406
v -30.046257 44.974289 14.898130
v -30.074047 43.612411 21.079998
v -31.972691 41.534538 15.354498
v -33.840370 39.897812 3.487774
v -33.812580 41.259682 -2.694091
v -30.642181 39.949066 3.117353
v -28.815596 41.570068 14.722525
v -29.060963 40.466331 20.792683
v -31.136086 38.662323 15.217032
v -32.962669 37.041321 3.611863
v -32.717304 38.145058 -2.458293
v -36.280769 45.377037 3.611814
v -34.376347 47.027824 15.712393
v -33.722710 45.231762 21.926723
v -34.976669 42.705635 15.999834
v -36.881088 41.054840 3.899256
v -37.534729 42.850906 -2.315074
v -24.438385 27.609528 13.718391
v -25.266098 27.214893 18.797516
v -27.842968 26.240948 14.242453
v -29.592121 25.661631 4.608260
v -28.764406 26.056263 -0.470861
v -26.187536 27.030209 4.084200
v -198.581879 10.834245 -116.859001
v -198.581879 10.834245 -113.765282
v -197.088287 11.326993 -112.218430
v -195.594696 11.819742 -113.765282
v -195.594696 11.819742 -116.859001
v -197.088287 11.326993 -118.405869
v -221.484390 38.870487 -117.770088
v -221.484406 39.526855 -112.854210
v -221.543640 41.098511 -110.396278
v -221.602905 42.670166 -112.854210
v -221.602921 42.013794 -117.770088
v -221.543655 40.442139 -120.228020
v -204.188339 41.385490 -117.698830
v -204.188339 42.041855 -112.925453
v -205.169357 40.812546 -110.538765
v -206.150391 39.583233 -112.925453
v -206.150391 38.926872 -117.698845
v -205.169342 40.156181 -120.085533
v -202.933640 38.968422 -117.646416
v -202.933624 39.624794 -112.977882
v -204.113174 38.584454 -110.643616
v -205.292709 37.544113 -112.977882
v -205.292709 36.887749 -117.646416
v -204.113174 37.928089 -119.980682
v -206.770691 42.835892 -117.745720
v -206.770706 43.492264 -112.878578
v -207.082077 41.950619 -110.445023
v -207.393448 40.408981 -112.878578
v -207.393463 39.752609 -117.745720
v -207.082077 41.294254 -120.179276
v -198.394516 28.234272 -113.381088
v -199.888107 27.741518 -111.450027
v -201.381683 27.248779 -113.381088
v -201.381683 27.248779 -117.243210
v -199.888107 27.741518 -119.174271
v -198.394516 28.234272 -117.243210
vt 0.340123 0.016514
vt 0.385370 0.012595
vt 0.394315 0.098245
vt 0.339458 0.095542
vt 0.409076 0.015525
vt 0.423384 0.100892
vt 0.247661 0.013964
vt 0.228835 0.095385
vt 0.292080 0.017600
vt 0.281762 0.100162
vt 0.316315 0.016692
vt 0.310916 0.101689
vt 0.220129 0.196080
vt 0.277160 0.190902
vt 0.278160 0.237919
vt 0.220092 0.245457
vt 0.431511 0.193337
vt 0.432390 0.235931
vt 0.400500 0.191529
vt 0.400566 0.236317
vt 0.338921 0.189230
vt 0.340361 0.235097
vt 0.307328 0.190222
vt 0.309172 0.234504
vt 0.219528 0.169639
vt 0.278302 0.165917
vt 0.430218 0.170616
vt 0.399585 0.166521
vt 0.338721 0.163273
vt 0.308811 0.166365
vt 0.324821 0.982840
vt 0.270815 0.989824
vt 0.242063 0.993322
vt 0.437318 0.979105
vt 0.382853 0.978917
vt 0.353956 0.979032
vt 0.196072 0.982948
vt 0.022127 0.980334
vt 0.046790 0.980919
vt 0.086284 0.981431
vt 0.109944 0.981894
vt 0.133425 0.982056
vt 0.038772 0.515787
vt 0.069326 0.514296
vt 0.079891 0.632667
vt 0.042734 0.634953
vt 0.090251 0.516444
vt 0.103050 0.632470
vt 0.111054 0.516959
vt 0.125417 0.630510
vt 0.141113 0.513454
vt 0.159887 0.626739
vt 0.161856 0.508465
vt 0.182417 0.623738
vt 0.017609 0.519555
vt 0.019230 0.636977
vt 0.135989 0.747261
vt 0.171906 0.742003
vt 0.172045 0.783831
vt 0.136852 0.784605
vt 0.115300 0.746237
vt 0.115799 0.784044
vt 0.091147 0.743940
vt 0.091685 0.780906
vt 0.047420 0.742258
vt 0.047564 0.778905
vt 0.023288 0.748165
vt 0.022840 0.779845
vt 0.197738 0.737730
vt 0.195736 0.784228
vt 0.133763 0.717911
vt 0.172550 0.711191
vt 0.111474 0.719140
vt 0.088447 0.718201
vt 0.046864 0.716456
vt 0.022764 0.721288
vt 0.197244 0.708112
vt 0.171876 0.982696
vt 0.201020 0.091412
vt 0.187285 0.167845
vt 0.189302 0.250347
vt 0.466762 0.979259
vt 0.187588 0.197095
vt 0.224745 0.008829
vn -0.993731 -0.095904 0.057458
vn -0.956249 -0.082775 0.280598
vn -0.941586 -0.160001 0.296336
vn -0.983524 -0.170763 0.059334
vn -0.042152 -0.052083 0.997753
vn 0.314933 -0.015654 0.948985
vn 0.997061 0.060153 -0.047454
vn 0.983808 0.167160 -0.064650
vn 0.953385 0.054943 -0.296714
vn 0.945464 0.157090 -0.285343
vn -0.325291 -0.127162 -0.937025
vn 0.021347 -0.094575 -0.995289
vn 0.673950 0.733353 -0.089354
vn 0.651134 0.704038 -0.283468
vn -0.048514 0.971629 -0.231482
vn 0.004545 0.999983 -0.003766
vn 0.512376 0.280698 0.811591
vn 0.228653 0.134363 0.964191
vn -0.649949 -0.698033 0.300527
vn 0.051941 -0.973126 0.224339
vn -0.714935 -0.696253 0.064028
vn -0.006659 -0.999739 -0.021856
vn 0.210004 0.210849 -0.954694
vn -0.227375 0.068902 -0.971367
vn 0.947890 0.307549 -0.083173
vn 0.914845 0.295512 -0.275195
vn 0.492203 0.090846 0.865727
vn -0.913598 -0.278792 0.295996
vn -0.954883 -0.287293 0.075242
vn 0.221564 0.004527 -0.975135
vn -0.060731 0.973362 -0.221083
vn -0.004337 0.999855 0.016485
vn 0.225961 0.049081 0.972899
vn 0.061976 -0.971135 0.230340
vn 0.007021 -0.999971 -0.003060
vn -0.235532 -0.026850 -0.971496
vn -0.947707 -0.171108 -0.269396
vn -0.947707 -0.171108 0.269396
vn -0.924522 -0.257020 0.281426
vn -0.928577 -0.260765 -0.264096
vn -0.062063 -0.045590 0.997030
vn 0.081394 -0.019337 0.996494
vn 0.944304 0.150802 0.292486
vn 0.936693 0.249910 0.245259
vn 0.944304 0.150802 -0.292486
vn 0.932711 0.250931 -0.259008
vn -0.062056 -0.045590 -0.997031
vn 0.086758 -0.017926 -0.996068
vn 0.698787 0.704828 0.122124
vn 0.698958 0.670497 -0.248780
vn 0.033117 0.959831 -0.278619
vn 0.030322 0.993921 0.105841
vn 0.234323 0.206634 0.949945
vn 0.026145 0.184528 0.982480
vn -0.749296 -0.593977 0.292827
vn 0.002841 -0.952527 0.304440
vn -0.783247 -0.591118 -0.192623
vn 0.000158 -0.989571 -0.144043
vn 0.234329 0.206633 -0.949944
vn 0.026145 0.184531 -0.982479
vn 0.904536 0.376623 0.199925
vn 0.897836 0.376752 -0.227922
vn 0.173007 0.026494 0.984564
vn -0.887895 -0.366470 0.278106
vn -0.900370 -0.377137 -0.217030
vn 0.164376 0.024461 -0.986094
vn -0.053051 0.956306 -0.287516
vn -0.054995 0.991358 0.119104
vn 0.004856 0.008534 0.999952
vn 0.059766 -0.955930 0.287446
vn 0.061929 -0.990535 -0.122500
vn 0.004856 0.008539 -0.999952
s 1
g pCylinder3
usemtl blinn1SG
f 1/1/1 2/2/2 33/3/3 34/4/4
f 2/2/2 3/5/5 32/6/6 33/3/3
f 3/84/5 4/7/7 31/8/8 32/79/6
f 4/7/7 5/9/9 36/10/10 31/8/8
f 5/9/9 6/11/11 35/12/12 36/10/10
f 6/11/11 1/1/1 34/4/4 35/12/12
f 14/13/13 13/14/14 25/15/15 26/16/16
f 15/83/17 14/13/13 26/16/16 27/81/18
f 16/19/19 15/17/17 27/18/18 28/20/20
f 17/21/21 16/19/19 28/20/20 29/22/22
f 18/23/23 17/21/21 29/22/22 30/24/24
f 13/14/14 18/23/23 30/24/24 25/15/15
f 20/25/25 19/26/26 13/14/14 14/13/13
f 21/80/27 20/25/25 14/13/13 15/83/17
f 22/28/28 21/27/27 15/17/17 16/19/19
f 23/29/29 22/28/28 16/19/19 17/21/21
f 24/30/30 23/29/29 17/21/21 18/23/23
f 19/26/26 24/30/30 18/23/23 13/14/14
f 26/16/16 25/15/15 11/31/31 10/32/32
f 27/81/18 26/16/16 10/32/32 9/33/33
f 28/20/20 27/18/18 9/82/33 8/34/34
f 29/22/22 28/20/20 8/34/34 7/35/35
f 30/24/24 29/22/22 7/35/35 12/36/36
f 25/15/15 30/24/24 12/36/36 11/31/31
f 32/79/6 31/8/8 20/25/25 21/80/27
f 33/3/3 32/6/6 21/27/27 22/28/28
f 34/4/4 33/3/3 22/28/28 23/29/29
f 35/12/12 34/4/4 23/29/29 24/30/30
f 36/10/10 35/12/12 24/30/30 19/26/26
f 31/8/8 36/10/10 19/26/26 20/25/25
s 3
f 37/43/37 38/44/38 69/45/39 70/46/40
f 38/44/38 39/47/41 68/48/42 69/45/39
f 39/47/41 40/49/43 67/50/44 68/48/42
f 40/49/43 41/51/45 72/52/46 67/50/44
f 41/51/45 42/53/47 71/54/48 72/52/46
f 42/55/47 37/43/37 70/46/40 71/56/48
f 50/57/49 49/58/50 61/59/51 62/60/52
f 51/61/53 50/57/49 62/60/52 63/62/54
f 52/63/55 51/61/53 63/62/54 64/64/56
f 53/65/57 52/63/55 64/64/56 65/66/58
f 54/67/59 53/65/57 65/66/58 66/68/60
f 49/58/50 54/69/59 66/70/60 61/59/51
f 56/71/61 55/72/62 49/58/50 50/57/49
f 57/73/63 56/71/61 50/57/49 51/61/53
f 58/74/64 57/73/63 51/61/53 52/63/55
f 59/75/65 58/74/64 52/63/55 53/65/57
f 60/76/66 59/75/65 53/65/57 54/67/59
f 55/72/62 60/77/66 54/69/59 49/58/50
f 62/60/52 61/59/51 47/78/67 46/42/68
f 63/62/54 62/60/52 46/42/68 45/41/69
f 64/64/56 63/62/54 45/41/69 44/40/70
f 65/66/58 64/64/56 44/40/70 43/39/71
f 66/68/60 65/66/58 43/39/71 48/38/72
f 61/59/51 66/70/60 48/37/72 47/78/67
f 68/48/42 67/50/44 56/71/61 57/73/63
f 69/45/39 68/48/42 57/73/63 58/74/64
f 70/46/40 69/45/39 58/74/64 59/75/65
f 71/56/48 70/46/40 59/75/65 60/76/66
f 72/52/46 71/54/48 60/77/66 55/72/62
f 67/50/44 72/52/46 55/72/62 56/71/61
