# This file uses centimeters as units for non-parametric coordinates.

mtllib DesertDunesPool_small.mtl
g default
v 164.302139 18.535625 -274.409668
v 198.670670 18.535625 -274.409668
v 164.302139 18.535625 -310.040619
v 198.670670 18.535625 -310.040619
vt 0.291827 0.284180
vt 0.708174 0.284180
vt 0.708174 0.715819
vt 0.291827 0.715819
vn 0.000000 1.000000 0.000000
vn 0.000000 1.000000 0.000000
vn 0.000000 1.000000 0.000000
vn 0.000000 1.000000 0.000000
s off
g polySurface2
usemtl initialShadingGroup
f 1/1/1 2/2/2 4/3/3 3/4/4
