# This file uses centimeters as units for non-parametric coordinates.

mtllib MediumCanyonRock03COL.mtl
g default
v -3.607357 -0.557745 0.000015
v -3.728324 12.589840 0.000015
v -4.145219 6.068058 10.153081
v -3.285829 6.068058 -10.488059
v -11.795921 6.067441 -10.197685
v -13.415798 11.863399 -0.129741
v -15.639599 6.041499 -0.703395
v -10.687238 6.095273 9.313150
v 7.873696 5.993601 9.966077
v -14.705790 0.344567 -0.172760
v -3.812418 11.854726 8.482832
v 7.997169 11.845242 8.002513
v -3.686638 11.854726 -8.541850
v -3.547862 0.310749 -9.678068
v -3.715472 0.310749 9.610428
v 7.984580 0.304679 9.166998
v 8.141852 0.292381 0.063948
v 8.135405 11.840570 0.056085
v -9.857427 0.357521 9.049148
v -10.691938 11.802822 -8.019431
v -8.968042 11.820914 7.946395
v -11.548889 0.375410 -9.178015
v 7.996672 0.252742 -8.891677
v 8.633553 6.010798 -9.262547
v 7.205310 11.852371 -7.772952
v 12.330110 12.414433 0.011963
v 12.342857 -0.235542 0.029719
v 12.260123 6.067451 10.890872
v 11.655920 6.067577 -9.920726
v 16.347139 6.067136 0.667811
v 14.763145 6.126952 -9.188585
v 12.321001 11.853990 8.740457
v 11.005615 11.868353 -8.590401
v 13.494011 11.827408 -8.040154
v 11.034983 0.289580 -9.710213
v 13.898224 0.329147 -9.157818
v 12.312174 0.303634 9.888837
v 15.278139 11.819774 0.076971
v 15.685912 0.317134 0.134496
v 14.830287 0.342902 9.141554
v 13.964709 11.823719 7.465364
v 15.192055 6.108963 10.258347
vt 0.698267 0.433284
vt 0.759731 0.422684
vt 0.551791 0.445491
vt 0.695619 0.223246
vt 0.784189 0.234397
vt 0.739852 0.059204
vt 0.807385 0.842535
vt 0.908203 0.820374
vt 0.859327 0.101837
vt 0.759002 0.585402
vt 0.844543 0.554121
vt 0.610437 0.629112
vt 0.632383 0.745130
vt 0.536444 0.330045
vt 0.948180 0.454030
vt 0.933167 0.676710
vt 0.831286 0.324532
vt 0.936610 0.688442
vt 0.687888 0.330523
vt 0.785489 0.717531
vt 0.663440 0.855245
vt 0.591532 0.031334
vt 0.820773 0.169974
vt 0.915827 0.251734
vt 0.912988 0.375851
vt 0.799080 0.480959
vt 0.574668 0.542121
vt 0.719743 0.515348
vt 0.711651 0.139485
vt 0.560776 0.120186
vt 0.570501 0.219611
vt 0.198450 0.747788
vt 0.200538 0.791614
vt 0.424640 0.761049
vt 0.419013 0.794875
vt 0.418509 0.726802
vt 0.586901 0.750232
vt 0.430176 0.490474
vt 0.422945 0.468541
vt 0.589690 0.777439
vt 0.582738 0.708919
vt 0.424738 0.530906
vt 0.168366 0.521098
vt 0.039405 0.710907
vt 0.026119 0.756573
vt 0.310722 0.711507
vt 0.309700 0.806713
vt 0.295870 0.457705
vt 0.170586 0.479847
vt 0.301741 0.553185
vt 0.299630 0.507065
vt 0.311185 0.752733
vt 0.214309 0.725575
vt 0.153337 0.580663
vt 0.504532 0.781353
vt 0.425671 0.630062
vt 0.496985 0.704032
vt 0.110443 0.782589
vt 0.118948 0.733123
vt 0.503671 0.749583
vt 0.302191 0.632709
vt 0.154328 0.673258
vt 0.969176 0.177256
vn -0.016650 0.999861 0.001323
vn -0.011539 0.992082 0.125059
vn 0.102531 0.993887 0.040935
vn 0.149194 0.988733 -0.012210
vn -0.017884 -0.999840 0.000518
vn 0.151592 -0.988443 -0.000934
vn 0.016553 -0.990927 0.133378
vn -0.014479 -0.991438 0.129776
vn 0.019480 0.928836 -0.369978
vn -0.012669 0.990142 -0.139490
vn -0.016650 0.999861 0.001323
vn 0.149194 0.988733 -0.012210
vn -0.052396 0.998621 -0.003201
vn -0.016650 0.999861 0.001323
vn -0.012669 0.990142 -0.139490
vn -0.109666 0.992774 -0.048715
vn -0.116476 0.990455 0.073706
vn -0.023911 0.994257 0.104310
vn -0.011539 0.992082 0.125059
vn -0.016650 0.999861 0.001323
vn -0.055431 -0.998460 -0.002148
vn -0.017884 -0.999840 0.000518
vn -0.014479 -0.991438 0.129776
vn -0.121275 -0.989832 0.074334
vn -0.111973 -0.992068 -0.057124
vn -0.021135 -0.994677 -0.100856
vn -0.015122 -0.989590 -0.143122
vn -0.017884 -0.999840 0.000518
vn -0.204127 0.167928 0.964434
vn -0.030611 0.170342 0.984909
vn -0.023698 0.326134 0.945026
vn -0.153679 0.306554 0.939365
vn -0.914122 0.188645 0.358878
vn -0.826653 0.194326 0.528093
vn -0.780016 0.351642 0.517613
vn -0.865327 0.341376 0.366975
vn -0.856353 0.207993 -0.472651
vn -0.944261 0.202072 -0.259880
vn -0.903864 0.359742 -0.231552
vn -0.831846 0.362758 -0.420047
vn -0.110534 0.204689 -0.972566
vn -0.105527 0.375594 -0.920757
vn 0.027957 0.354737 -0.934548
vn 0.034117 0.182958 -0.982529
vn -0.023698 0.326134 0.945026
vn -0.030611 0.170342 0.984909
vn 0.091746 0.181692 0.979066
vn 0.117791 0.331526 0.936064
vn 0.057155 0.169195 -0.983924
vn 0.034117 0.182958 -0.982529
vn 0.027957 0.354737 -0.934548
vn 0.047752 0.325727 -0.944257
vn -0.944261 0.202072 -0.259880
vn -0.856353 0.207993 -0.472651
vn -0.852253 -0.323145 -0.411390
vn -0.911601 -0.343044 -0.226504
vn -0.110534 0.204689 -0.972566
vn 0.034117 0.182958 -0.982529
vn 0.014186 -0.361513 -0.932259
vn -0.123152 -0.386400 -0.914073
vn -0.204127 0.167928 0.964434
vn -0.143725 -0.240935 0.959840
vn -0.017492 -0.294968 0.955347
vn -0.030611 0.170342 0.984909
vn -0.914122 0.188645 0.358878
vn -0.880866 -0.293706 0.371230
vn -0.793589 -0.320019 0.517498
vn -0.826653 0.194326 0.528093
vn -0.030611 0.170342 0.984909
vn -0.017492 -0.294968 0.955347
vn 0.105999 -0.304498 0.946597
vn 0.091746 0.181692 0.979066
vn 0.034117 0.182958 -0.982529
vn 0.057155 0.169195 -0.983924
vn 0.035282 -0.272346 -0.961552
vn 0.014186 -0.361513 -0.932259
vn -0.247588 -0.968865 0.001130
vn 0.009171 -0.999948 -0.004446
vn 0.001465 -0.995127 0.098593
vn -0.187389 -0.981951 0.025636
vn 0.084438 0.995143 0.050601
vn 0.283112 0.958860 -0.020849
vn 0.017557 0.999787 -0.010820
vn 0.014444 0.993309 0.114581
vn -0.219272 0.975662 -0.001625
vn 0.017557 0.999787 -0.010820
vn 0.004709 0.997931 -0.064114
vn -0.067940 0.994893 -0.074643
vn 0.007594 -0.997273 -0.073415
vn 0.201903 -0.978017 -0.052129
vn 0.300821 -0.953378 -0.024032
vn 0.009171 -0.999948 -0.004446
vn -0.029893 0.993826 0.106847
vn 0.014444 0.993309 0.114581
vn 0.017557 0.999787 -0.010820
vn -0.219272 0.975662 -0.001625
vn 0.007594 -0.997273 -0.073415
vn 0.009171 -0.999948 -0.004446
vn -0.247588 -0.968865 0.001130
vn -0.042337 -0.994916 -0.091381
vn -0.306432 0.226818 0.924474
vn 0.005561 0.243914 0.969781
vn 0.028747 0.380127 0.924487
vn -0.327300 0.343567 0.880248
vn -0.344567 0.088214 -0.934608
vn -0.430022 0.151612 -0.889997
vn 0.024328 0.256790 -0.966161
vn 0.029205 0.145038 -0.988995
vn 0.346184 0.166289 -0.923312
vn 0.029205 0.145038 -0.988995
vn 0.024328 0.256790 -0.966161
vn 0.300584 0.275559 -0.913081
vn 0.971296 0.234482 -0.040032
vn 0.992056 0.122340 -0.029299
vn 0.962828 0.136355 -0.233171
vn 0.942296 0.244252 -0.228954
vn 0.028747 0.380127 0.924487
vn 0.005561 0.243914 0.969781
vn 0.176143 0.279764 0.943772
vn 0.214967 0.426482 0.878580
vn 0.987809 0.128579 0.087749
vn 0.992056 0.122340 -0.029299
vn 0.971296 0.234482 -0.040032
vn 0.971889 0.222823 0.076041
vn -0.321980 -0.291004 0.900914
vn -0.016505 -0.334158 0.942373
vn 0.005561 0.243914 0.969781
vn -0.306432 0.226818 0.924474
vn 0.029205 0.145038 -0.988995
vn 0.021840 -0.130995 -0.991142
vn -0.447025 -0.041834 -0.893543
vn -0.344567 0.088214 -0.934608
vn 0.346184 0.166289 -0.923312
vn 0.287108 -0.141965 -0.947320
vn 0.021840 -0.130995 -0.991142
vn 0.029205 0.145038 -0.988995
vn 0.962315 -0.266047 -0.056300
vn 0.927715 -0.282300 -0.244235
vn 0.962828 0.136355 -0.233171
vn 0.992056 0.122340 -0.029299
vn 0.085021 -0.336466 0.937850
vn 0.176143 0.279764 0.943772
vn 0.005561 0.243914 0.969781
vn -0.016505 -0.334158 0.942373
vn 0.980309 -0.192143 0.045557
vn 0.962315 -0.266047 -0.056300
vn 0.992056 0.122340 -0.029299
vn 0.987809 0.128579 0.087749
vn 0.017557 0.999787 -0.010820
vn 0.283112 0.958860 -0.020849
vn 0.096999 0.990521 -0.097259
vn 0.004709 0.997931 -0.064114
vn -0.017884 -0.999840 0.000518
vn -0.015122 -0.989590 -0.143122
vn 0.037002 -0.998779 -0.032737
vn 0.151592 -0.988443 -0.000934
vn 0.049720 -0.998060 0.037478
vn 0.001465 -0.995127 0.098593
vn 0.009171 -0.999948 -0.004446
vn 0.300821 -0.953378 -0.024032
s off
g MediumCanyonRock03:polySurface1
usemtl lambert2SG
f 2/19/1 11/1/2 12/3/3 18/14/4
f 1/20/5 17/13/6 16/12/7 15/10/8
f 25/31/9 13/4/10 2/19/11 18/14/12
f 6/17/13 2/19/14 13/4/15 20/5/16
f 6/17/17 21/2/18 11/1/19 2/19/20
f 10/16/21 1/20/22 15/10/23 19/11/24
f 10/18/25 22/8/26 14/7/27 1/20/28
f 8/26/29 3/28/30 11/1/31 21/2/32
f 7/25/33 8/26/34 21/2/35 6/17/36
f 5/23/37 7/24/38 6/17/39 20/5/40
f 5/23/41 20/5/42 13/4/43 4/29/44
f 11/1/45 3/28/46 9/27/47 12/3/48
f 24/30/49 4/29/50 13/4/51 25/31/52
f 7/24/53 5/23/54 22/9/55 10/63/56
f 5/23/57 4/29/58 14/6/59 22/9/60
f 8/26/61 19/11/62 15/10/63 3/28/64
f 7/25/65 10/15/66 19/11/67 8/26/68
f 3/28/69 15/10/70 16/12/71 9/27/72
f 4/29/73 24/30/74 23/22/75 14/6/76
f 17/48/77 27/51/78 37/43/79 16/49/80
f 41/53/81 38/46/82 26/52/83 32/32/84
f 18/47/85 26/52/86 33/34/87 25/35/88
f 35/38/89 36/42/90 39/50/91 27/51/92
f 12/33/93 32/32/94 26/52/95 18/47/96
f 35/38/97 27/51/98 17/48/99 23/39/100
f 9/58/101 28/59/102 32/32/103 12/33/104
f 24/55/105 25/35/106 33/34/107 29/60/108
f 31/57/109 29/60/110 33/34/111 34/36/112
f 38/46/113 30/61/114 31/56/115 34/36/116
f 32/32/117 28/59/118 42/62/119 41/53/120
f 42/62/121 30/61/122 38/46/123 41/53/124
f 16/45/125 37/44/126 28/59/127 9/58/128
f 29/60/129 35/37/130 23/40/131 24/55/132
f 31/57/133 36/41/134 35/37/135 29/60/136
f 39/50/137 36/42/138 31/56/139 30/61/140
f 40/54/141 42/62/142 28/59/143 37/44/144
f 40/54/145 39/50/146 30/61/147 42/62/148
f 26/52/149 38/46/150 34/36/151 33/34/152
f 1/20/153 14/7/154 23/21/155 17/13/156
f 40/54/157 37/43/158 27/51/159 39/50/160
