# This file uses centimeters as units for non-parametric coordinates.

mtllib BananaRLowerCanine.mtl
g default
v -0.235970 0.155438 -0.500833
v -0.419700 0.044015 -0.085447
v -0.084095 0.087446 0.237353
v -0.326439 0.407406 -0.429820
v -0.470228 0.242514 -0.056768
v -0.185995 0.344532 0.252807
v -0.471521 0.629483 -0.326421
v -0.558712 0.444450 -0.019964
v -0.351868 0.575916 0.255151
v -0.136842 0.842200 0.118724
v -0.114152 0.922977 -0.067352
v -0.210792 0.875306 -0.240708
v -0.656862 0.837329 -0.095244
v -0.672758 0.742300 0.030934
v -0.605306 0.814247 0.155344
v -0.547722 0.953742 0.106056
v -0.546271 0.995699 0.028251
v -0.579585 0.968008 -0.048817
v -0.989573 0.952436 0.024022
v -0.968287 1.053039 0.063839
v -0.953497 1.074809 0.119320
v -0.946156 1.043131 0.171411
v -0.953763 0.936404 0.198076
v -0.980597 0.880352 0.106985
v -0.737387 0.886991 -0.039230
v -0.689784 0.987140 -0.002829
v -0.667666 1.008549 0.054410
v -0.666360 0.976653 0.111022
v -0.699487 0.870024 0.144985
v -0.743383 0.814610 0.052125
v -1.115432 0.963698 0.061319
v -1.100930 0.899355 0.133492
v -1.083681 0.949483 0.215644
v -1.087522 1.044807 0.194243
v -1.096761 1.073073 0.148635
v -1.107145 1.053591 0.098865
v -0.413084 0.084614 -0.347568
v -0.420550 0.080106 -0.330822
v -0.323096 0.036476 0.142857
v -0.309511 0.038245 0.155850
v 0.156745 0.154818 0.224409
v 0.172606 0.160011 0.215573
v 0.011197 0.232273 -0.568957
v -0.007034 0.228141 -0.571638
v -0.469488 0.294361 -0.297131
v -0.475810 0.287141 -0.280870
v -0.385996 0.246932 0.155670
v -0.373555 0.251413 0.169147
v 0.012424 0.462387 0.250858
v 0.026330 0.472332 0.242841
v -0.122708 0.539054 -0.481557
v -0.138991 0.530174 -0.485096
v -0.565371 0.499822 -0.222983
v -0.569888 0.490323 -0.207303
v -0.493974 0.456338 0.161675
v -0.483338 0.463097 0.175736
v -0.215736 0.715392 0.263672
v -0.204722 0.728995 0.256593
v -0.331272 0.785650 -0.358508
v -0.344663 0.773111 -0.362974
v -0.678506 0.775441 -0.058123
v -0.680421 0.764025 -0.043204
v -0.649988 0.750401 0.104712
v -0.641975 0.759086 0.119439
v -0.568319 0.883755 0.163640
v -0.561631 0.900343 0.157584
v -0.614477 0.924003 -0.099277
v -0.623596 0.908503 -0.105036
v -0.748750 0.842081 -0.014202
v -0.749765 0.830294 0.000514
v -0.721355 0.829816 0.118955
v -0.728475 0.820763 0.103993
v -0.672865 0.937923 0.146252
v -0.678169 0.920710 0.151918
v -0.718673 0.938843 -0.044954
v -0.710957 0.954976 -0.038895
v -0.989034 0.895631 0.059327
v -0.990546 0.908055 0.045191
v -0.983705 1.003821 0.021334
v -0.980033 1.020975 0.028318
v -0.944202 1.004933 0.202474
v -0.945462 0.986701 0.207214
v -0.964548 0.896416 0.171555
v -0.969141 0.886726 0.156015
v -1.112085 0.925204 0.078663
v -1.109309 0.912646 0.092490
v -1.110346 0.978215 0.142693
v -1.092098 0.904941 0.176141
v -1.088784 0.914772 0.191919
v -1.081561 0.993397 0.224637
v -1.082364 1.011742 0.220211
v -1.113764 1.025800 0.067593
v -1.115421 1.008556 0.060064
v -0.333674 0.938496 0.131445
v -0.457269 0.960417 0.123779
v -0.323396 1.010540 -0.016237
v -0.453168 1.018178 0.011166
v -0.503119 0.980944 -0.099076
v -0.393274 0.965177 -0.158241
v -0.629921 0.624797 -0.158535
v -0.661985 0.705963 -0.107549
v -0.664565 0.694459 -0.091804
v -0.633144 0.614344 -0.143312
v -0.572719 0.587292 0.150385
v -0.618889 0.674011 0.130207
v -0.609936 0.682661 0.145434
v -0.563417 0.595024 0.164706
v -0.383497 0.822819 0.244009
v -0.488429 0.864786 0.209306
v -0.480830 0.880617 0.203212
v -0.374463 0.838131 0.237500
v -0.475926 0.883555 -0.255662
v -0.558765 0.915507 -0.175590
v -0.568709 0.900725 -0.180894
v -0.487333 0.869305 -0.260688
v -0.570784 0.740365 -0.236456
v -0.624565 0.798383 -0.163341
v -0.653803 0.664958 0.019911
v -0.620857 0.574763 0.004825
v -0.550350 0.765158 0.197380
v -0.474365 0.697199 0.232195
v -1.053453 1.068143 0.209803
v -1.066930 1.064516 0.208865
v -1.065681 1.107918 0.145450
v -1.078897 1.102359 0.147657
v -1.093227 1.076289 0.081048
v -1.081072 1.080507 0.075560
v -1.091814 0.896007 0.049796
v -1.101767 0.900534 0.055532
v -1.099131 0.888016 0.069422
v -1.089308 0.883498 0.063718
v -1.091911 1.038461 0.028486
v -1.103124 1.036746 0.036081
v -1.104997 1.019468 0.028687
v -1.093996 1.021183 0.021150
v -1.046170 0.999772 0.253612
v -1.059297 0.999008 0.250811
v -1.059847 1.017372 0.246428
v -1.046502 1.018132 0.249198
v -1.063494 0.871942 0.189187
v -1.074596 0.877031 0.188674
v -1.071129 0.886818 0.204447
v -1.059896 0.881717 0.204937
v -1.095744 0.954043 0.023356
v -1.105946 0.955789 0.030870
v -1.051063 0.934040 0.240533
v -1.063322 0.936706 0.238047
v -1.077235 0.863535 0.125318
v -1.087486 0.869334 0.127961
v 0.307049 0.225709 0.021470
v 0.365500 0.278143 -0.225429
v 0.133459 0.572474 0.071083
v 0.176913 0.646064 -0.152741
v 0.213185 0.267732 -0.434754
v 0.046660 0.611333 -0.350804
v -0.219839 -0.001001 -0.527194
v -0.417292 -0.000585 -0.090051
v -0.073213 -0.000655 0.231815
v -0.415746 -0.000739 -0.343070
v -0.407924 -0.000756 -0.360464
v -0.306486 -0.000523 0.153446
v -0.320237 -0.000519 0.140592
v 0.197453 -0.000881 0.203197
v 0.180859 -0.000862 0.212522
v 0.024481 -0.001239 -0.610265
v 0.043230 -0.001253 -0.608114
v 0.344867 -0.001118 -0.001844
v 0.413126 -0.001327 -0.260969
v 0.255733 -0.001336 -0.474676
vt 0.720122 0.887624
vt 0.716755 0.870473
vt 0.740692 0.870473
vt 0.741349 0.883502
vt 0.720112 0.853325
vt 0.741362 0.857438
vt 0.797701 0.857419
vt 0.798027 0.870473
vt 0.797699 0.883520
vt 0.728238 0.503538
vt 0.724707 0.503781
vt 0.824175 0.503781
vt 0.820643 0.503539
vt 0.924767 0.518526
vt 0.920880 0.517739
vt 0.628008 0.517738
vt 0.624122 0.518525
vt 0.733367 0.560951
vt 0.729982 0.561320
vt 0.818894 0.561324
vt 0.815510 0.560955
vt 0.907527 0.581226
vt 0.903906 0.580020
vt 0.644962 0.580020
vt 0.641339 0.581227
vt 0.740655 0.617230
vt 0.737407 0.617735
vt 0.811466 0.617738
vt 0.808219 0.617233
vt 0.884247 0.641294
vt 0.880745 0.639637
vt 0.668136 0.639642
vt 0.664635 0.641300
vt 0.750587 0.692276
vt 0.755294 0.691440
vt 0.759940 0.721209
vt 0.754955 0.721643
vt 0.793578 0.691436
vt 0.798285 0.692272
vt 0.793921 0.721645
vt 0.788936 0.721211
vt 0.831145 0.704748
vt 0.834168 0.706989
vt 0.824179 0.726477
vt 0.820074 0.725707
vt 0.714706 0.706990
vt 0.717728 0.704748
vt 0.728801 0.725701
vt 0.724696 0.726470
vt 0.762026 0.790894
vt 0.757404 0.790922
vt 0.791472 0.790922
vt 0.786850 0.790894
vt 0.819635 0.791255
vt 0.815345 0.791189
vt 0.733530 0.791188
vt 0.729240 0.791255
vt 0.676991 0.746095
vt 0.673349 0.748810
vt 0.662906 0.731874
vt 0.681861 0.721981
vt 0.683344 0.726276
vt 0.652463 0.748810
vt 0.648821 0.746095
vt 0.642469 0.726276
vt 0.643952 0.721981
vt 0.678060 0.509158
vt 0.774439 0.502564
vt 0.870824 0.509158
vt 0.688851 0.568789
vt 0.774439 0.559487
vt 0.860024 0.568791
vt 0.704015 0.626639
vt 0.774439 0.615581
vt 0.844862 0.626639
vt 0.682104 0.737152
vt 0.662906 0.751153
vt 0.643709 0.737152
vt 0.651084 0.714551
vt 0.662906 0.708967
vt 0.674728 0.714551
vt 0.733513 0.697672
vt 0.741688 0.723481
vt 0.774439 0.690578
vt 0.774439 0.720731
vt 0.815357 0.697671
vt 0.807187 0.723485
vt 0.724844 0.899840
vt 0.742019 0.893512
vt 0.724828 0.841090
vt 0.742008 0.847439
vt 0.745596 0.791000
vt 0.797231 0.847256
vt 0.797229 0.893679
vt 0.803279 0.791000
vt 0.774439 0.790840
vt 0.683956 0.900380
vt 0.704409 0.893188
vt 0.713549 0.912729
vt 0.695122 0.928816
vt 0.677973 0.870474
vt 0.699081 0.870473
vt 0.683947 0.840595
vt 0.704396 0.847774
vt 0.695095 0.812203
vt 0.713508 0.828227
vt 0.743200 0.651052
vt 0.747121 0.672300
vt 0.725601 0.680540
vt 0.716505 0.660072
vt 0.746484 0.650450
vt 0.750947 0.671565
vt 0.774439 0.649167
vt 0.774439 0.671014
vt 0.802387 0.650447
vt 0.797921 0.671559
vt 0.805670 0.651049
vt 0.801746 0.672294
vt 0.832367 0.660070
vt 0.823267 0.680538
vt 0.860377 0.673094
vt 0.844850 0.691304
vt 0.863621 0.675343
vt 0.847669 0.693914
vt 0.701200 0.693912
vt 0.685251 0.675343
vt 0.688494 0.673094
vt 0.704019 0.691302
vt 0.647980 0.910012
vt 0.642672 0.870473
vt 0.647990 0.830945
vt 0.658119 0.949142
vt 0.658128 0.791864
vt 0.644499 0.705424
vt 0.646439 0.708223
vt 0.635660 0.719419
vt 0.632531 0.717808
vt 0.662906 0.697530
vt 0.662906 0.700862
vt 0.681314 0.705424
vt 0.679373 0.708223
vt 0.693281 0.717809
vt 0.690152 0.719419
vt 0.684661 0.755776
vt 0.682204 0.753326
vt 0.689791 0.739999
vt 0.692994 0.741112
vt 0.679979 0.759269
vt 0.678409 0.756160
vt 0.662906 0.763043
vt 0.662906 0.759624
vt 0.695109 0.723492
vt 0.691661 0.723947
vt 0.630704 0.723492
vt 0.634151 0.723947
vt 0.636021 0.739999
vt 0.632818 0.741112
vt 0.645834 0.759269
vt 0.647403 0.756160
vt 0.641152 0.755776
vt 0.643609 0.753326
vt 0.820241 0.854900
vt 0.821406 0.870473
vt 0.820237 0.886057
vt 0.761238 0.815499
vt 0.757529 0.815477
vt 0.730587 0.814530
vt 0.726689 0.814051
vt 0.822186 0.814068
vt 0.818285 0.814545
vt 0.791349 0.815480
vt 0.787641 0.815502
vt 0.744551 0.815139
vt 0.818577 0.842105
vt 0.818563 0.898852
vt 0.804322 0.815143
vt 0.774439 0.815415
vt 0.513080 0.870473
vt 0.515395 0.926382
vt 0.579040 0.870474
vt 0.582892 0.920473
vt 0.519705 0.981029
vt 0.590324 0.969587
vt 0.515481 0.814577
vt 0.513150 0.870474
vt 0.582951 0.820512
vt 0.579091 0.870474
vt 0.519846 0.759933
vt 0.590401 0.771451
vt 0.674055 0.472985
vt 0.774439 0.489335
vt 0.873058 0.488981
vt 0.726998 0.480709
vt 0.723373 0.479953
vt 0.824775 0.493048
vt 0.821206 0.493177
vt 0.930071 0.487341
vt 0.486127 0.983563
vt 0.925996 0.487318
vt 0.620403 0.472545
vt 0.616354 0.472893
vt 0.470658 0.756113
vt 0.475199 0.928057
vt 0.467873 0.870474
vt 0.467925 0.870474
vt 0.467576 0.812534
vn -0.012902 0.809949 0.586359
vn -0.084839 0.990450 0.108683
vn 0.191945 0.980091 0.050782
vn 0.260876 0.764462 0.589526
vn -0.212256 0.899198 -0.382610
vn 0.036583 0.864877 -0.500649
vn 0.100519 0.848859 -0.518974
vn 0.252574 0.966867 0.037088
vn 0.326260 0.747795 0.578236
vn -0.679591 0.007313 -0.733555
vn -0.979493 -0.192924 -0.058091
vn -0.948077 -0.309577 -0.072884
vn -0.682601 -0.049011 -0.729146
vn -0.882846 -0.249373 0.397990
vn -0.337732 -0.156712 0.928105
vn -0.343854 -0.200664 0.917332
vn -0.854322 -0.351550 0.382815
vn 0.099783 -0.039529 0.994224
vn 0.752707 0.203532 0.626105
vn 0.656702 0.364307 0.660320
vn 0.066310 -0.018332 0.997631
vn 0.458568 0.323883 -0.827536
vn -0.297327 0.136900 -0.944910
vn -0.330348 0.159248 -0.930328
vn 0.358364 0.497869 -0.789748
vn -0.914380 -0.396064 -0.083925
vn -0.703914 -0.079240 -0.705851
vn -0.373663 -0.227090 0.899337
vn -0.822135 -0.437360 0.364432
vn 0.499951 0.510709 0.699446
vn -0.005566 0.020538 0.999774
vn -0.395871 0.195273 -0.897304
vn 0.204201 0.643112 -0.738044
vn -0.839206 -0.094403 -0.535558
vn -0.907019 -0.410442 -0.094091
vn -0.482335 -0.821894 -0.303055
vn -0.459614 -0.424428 -0.780139
vn -0.811904 -0.453025 0.368213
vn -0.565283 -0.217035 0.795834
vn -0.132401 -0.570916 0.810263
vn -0.354450 -0.879148 0.318535
vn -0.311503 0.143958 0.939278
vn -0.073755 0.654125 0.752782
vn 0.238307 0.555550 0.796602
vn 0.084432 -0.038424 0.995688
vn -0.338996 0.772869 -0.536428
vn -0.649018 0.295062 -0.701223
vn -0.313651 0.139792 -0.939192
vn -0.072792 0.694823 -0.715488
vn -0.200232 -0.905748 -0.373534
vn -0.227836 -0.497607 -0.836945
vn 0.100306 -0.644511 0.757987
vn -0.070502 -0.963829 0.257029
vn 0.330676 0.526985 0.782905
vn 0.255945 -0.086194 0.962841
vn -0.144817 0.093221 -0.985057
vn 0.016470 0.667652 -0.744291
vn -0.984921 -0.153000 -0.080762
vn -0.957431 -0.280398 0.068572
vn -0.979243 0.010350 0.202424
vn -0.967807 0.245175 -0.056915
vn -0.989886 0.037683 -0.136771
vn -0.917263 -0.298377 0.263817
vn -0.879465 -0.200209 0.431807
vn -0.855220 -0.022607 0.517772
vn -0.858709 0.196327 0.473366
vn -0.467895 0.083118 -0.879867
vn -0.495997 0.065949 -0.865816
vn -0.958864 -0.229810 0.166637
vn -0.925126 -0.344964 0.158562
vn -0.082928 -0.092320 0.992270
vn -0.114621 -0.104789 0.987867
vn -0.545231 0.068637 -0.835471
vn -0.889316 -0.434373 0.142959
vn -0.171674 -0.098600 0.980207
vn -0.990350 -0.060742 -0.124567
vn -0.937392 -0.306934 0.164587
vn -0.863977 -0.117318 0.489675
vn -0.871457 0.274072 0.406751
vn -0.906383 0.360826 0.219714
vn -0.950641 0.309522 0.021881
vn -0.748088 0.094840 -0.656787
vn -0.396916 -0.141908 -0.906818
vn -0.873413 -0.467416 0.136645
vn -0.435438 -0.900194 0.006673
vn -0.427212 -0.048815 0.902833
vn -0.014961 -0.312902 0.949668
vn -0.197740 -0.202522 -0.959106
vn 0.186455 -0.374519 0.908279
vn -0.146715 -0.987311 -0.060754
vn 0.313502 0.765403 0.562028
vn 0.018853 0.818458 0.574257
vn -0.032568 0.682333 0.730316
vn 0.250113 0.631235 0.734157
vn 0.298321 0.954098 0.026503
vn -0.015898 0.995355 0.094950
vn 0.095769 0.862878 -0.496255
vn -0.178014 0.906593 -0.382623
vn -0.034755 0.758766 -0.650435
vn -0.291312 0.798169 -0.527317
vn -0.772279 -0.056470 -0.632769
vn -0.863231 0.006116 -0.504771
vn -0.771323 0.163823 -0.614999
vn -0.649565 0.105677 -0.752926
vn -0.918157 -0.389604 -0.072082
vn -0.955016 -0.294337 -0.036181
vn -0.892012 -0.428442 0.144061
vn -0.929319 -0.332540 0.160569
vn -0.830012 -0.429066 0.356346
vn -0.874524 -0.330372 0.355052
vn -0.464317 -0.194342 0.864084
vn -0.595807 -0.113607 0.795052
vn -0.298589 -0.051452 0.952994
vn -0.462452 0.025545 0.886276
vn -0.149237 0.089822 0.984713
vn -0.335516 0.172412 0.926123
vn -0.519570 0.255617 -0.815296
vn -0.664919 0.319882 -0.674950
vn 0.580990 0.629865 0.515481
vn 0.593474 0.803414 -0.048101
vn 0.355047 0.731017 -0.582715
vn 0.310781 0.747742 0.586768
vn -0.588531 0.553149 0.589625
vn -0.571745 0.384029 0.725004
vn 0.348696 0.518679 0.780630
vn 0.223702 0.973680 0.043655
vn -0.667183 0.716623 0.203269
vn 0.082944 0.849744 -0.520631
vn -0.752046 0.626362 -0.205176
vn 0.033628 0.659733 -0.750747
vn -0.795727 0.484306 -0.363684
vn -0.049241 -0.513621 -0.856603
vn -0.866105 -0.317809 -0.385823
vn -0.868191 -0.131597 -0.478462
vn -0.067133 -0.222870 -0.972534
vn 0.023235 -0.911709 -0.410180
vn -0.823665 -0.560322 -0.087262
vn 0.077409 -0.991217 -0.107224
vn -0.784452 -0.611221 0.105093
vn -0.051670 0.074395 -0.995889
vn -0.858953 0.070522 -0.507175
vn 0.345148 -0.103257 0.932851
vn -0.588606 -0.050510 0.806841
vn -0.615635 -0.244664 0.749088
vn 0.311063 -0.392183 0.865698
vn 0.149100 -0.968057 0.201580
vn -0.743344 -0.596284 0.303126
vn 0.271631 -0.657272 0.703001
vn -0.656706 -0.411554 0.631949
vn 0.866982 0.260629 0.424753
vn 0.918331 0.360109 -0.164283
vn 0.791783 0.601265 -0.107520
vn 0.755410 0.457197 0.469390
vn 0.638827 0.352922 -0.683628
vn 0.527236 0.559348 -0.639650
vn -0.677208 0.060304 -0.733316
vn -0.997500 -0.050153 -0.049777
vn -0.907290 -0.092603 0.410182
vn -0.335122 -0.094475 0.937426
vn 0.118703 -0.053732 0.991475
vn 0.796538 0.073992 0.600044
vn 0.496209 0.206860 -0.843200
vn -0.283428 0.125257 -0.950778
vn -0.443187 0.101649 -0.890647
vn -0.987553 -0.070840 0.140433
vn -0.047113 -0.072031 0.996289
vn 0.917468 0.113647 0.381232
vn 0.954948 0.192811 -0.225607
vn 0.674643 0.211963 -0.707056
s 1
g FoodRLowerCaninesUnderbite
usemtl blinn1SG
f 16/1/1 17/2/2 27/3/3 28/4/4
f 17/2/2 18/5/5 26/6/6 27/3/3
f 27/3/3 26/6/6 20/7/7 21/8/8
f 28/4/4 27/3/3 21/8/8 22/9/9
f 37/11/10 38/10/11 46/18/12 45/19/13
f 39/13/14 40/12/15 48/20/16 47/21/17
f 41/15/18 42/14/19 50/22/20 49/23/21
f 43/17/22 44/16/23 52/24/24 51/25/25
f 45/19/13 46/18/12 54/26/26 53/27/27
f 47/21/17 48/20/16 56/28/28 55/29/29
f 49/23/21 50/22/20 58/30/30 57/31/31
f 51/25/25 52/24/24 60/32/32 59/33/33
f 61/34/34 62/35/35 70/36/36 69/37/37
f 63/38/38 64/39/39 71/40/40 72/41/41
f 65/42/42 66/43/43 73/44/44 74/45/45
f 67/46/46 68/47/47 75/48/48 76/49/49
f 69/37/37 70/36/36 77/50/50 78/51/51
f 72/41/41 71/40/40 83/52/52 84/53/53
f 74/45/45 73/44/44 81/54/54 82/55/55
f 76/49/49 75/48/48 79/56/56 80/57/57
f 85/58/58 86/59/59 87/60/60
f 87/60/60 92/61/61 93/62/62
f 87/60/60 88/63/63 89/64/64
f 87/60/60 90/65/65 91/66/66
f 1/67/67 37/11/10 45/19/13 4/70/68
f 38/10/11 2/68/69 5/71/70 46/18/12
f 2/68/69 39/13/14 47/21/17 5/71/70
f 40/12/15 3/69/71 6/72/72 48/20/16
f 3/69/71 41/15/18 49/23/21 6/72/72
f 44/16/23 1/67/67 4/70/68 52/24/24
f 4/70/68 45/19/13 53/27/27 7/73/73
f 46/18/12 5/71/70 8/74/74 54/26/26
f 5/71/70 47/21/17 55/29/29 8/74/74
f 48/20/16 6/72/72 9/75/75 56/28/28
f 6/72/72 49/23/21 57/31/31 9/75/75
f 52/24/24 4/70/68 7/73/73 60/32/32
f 31/76/76 85/58/58 87/60/60
f 86/59/59 32/77/77 87/60/60
f 32/77/77 88/63/63 87/60/60
f 89/64/64 33/78/78 87/60/60
f 33/78/78 90/65/65 87/60/60
f 91/66/66 34/79/79 87/60/60
f 34/79/79 35/80/80 87/60/60
f 35/80/80 36/81/81 87/60/60
f 36/81/81 92/61/61 87/60/60
f 93/62/62 31/76/76 87/60/60
f 13/82/82 61/34/34 69/37/37 25/83/83
f 62/35/35 14/84/84 30/85/85 70/36/36
f 14/84/84 63/38/38 72/41/41 30/85/85
f 64/39/39 15/86/86 29/87/87 71/40/40
f 15/86/86 65/42/42 74/45/45 29/87/87
f 66/88/43 16/1/1 28/4/4 73/89/44
f 18/5/5 67/90/46 76/91/49 26/6/6
f 68/47/47 13/82/82 25/83/83 75/48/48
f 25/83/83 69/37/37 78/51/51 19/92/88
f 75/48/48 25/83/83 19/92/88 79/56/56
f 26/6/6 76/91/49 80/93/57 20/7/7
f 73/89/44 28/4/4 22/9/9 81/94/54
f 29/87/87 74/45/45 82/55/55 23/95/89
f 71/40/40 29/87/87 23/95/89 83/52/52
f 30/85/85 72/41/41 84/53/53 24/96/90
f 70/36/36 30/85/85 24/96/90 77/50/50
f 94/97/91 95/98/92 110/99/93 111/100/94
f 95/98/92 94/97/91 96/101/95 97/102/96
f 97/102/96 96/101/95 99/103/97 98/104/98
f 98/104/98 99/103/97 112/105/99 113/106/100
f 100/107/101 101/108/102 117/109/103 116/110/104
f 101/108/102 100/107/101 103/111/105 102/112/106
f 102/112/106 103/111/105 119/113/107 118/114/108
f 104/115/109 105/116/110 118/114/108 119/113/107
f 105/116/110 104/115/109 107/117/111 106/118/112
f 106/118/112 107/117/111 121/119/113 120/120/114
f 108/121/115 109/122/116 120/120/114 121/119/113
f 109/122/116 108/121/115 111/123/94 110/124/93
f 113/125/100 112/126/99 115/127/117 114/128/118
f 114/128/118 115/127/117 116/110/104 117/109/103
f 10/129/119 11/130/120 96/101/95 94/97/91
f 11/130/120 12/131/121 99/103/97 96/101/95
f 95/98/92 97/102/96 17/2/2 16/1/1
f 97/102/96 98/104/98 18/5/5 17/2/2
f 53/27/27 54/26/26 103/111/105 100/107/101
f 55/29/29 56/28/28 107/117/111 104/115/109
f 57/31/31 58/30/30 111/123/94 108/121/115
f 59/33/33 60/32/32 115/127/117 112/126/99
f 101/108/102 102/112/106 62/35/35 61/34/34
f 105/116/110 106/118/112 64/39/39 63/38/38
f 109/122/116 110/124/93 66/43/43 65/42/42
f 113/125/100 114/128/118 68/47/47 67/46/46
f 7/73/73 53/27/27 100/107/101 116/110/104
f 54/26/26 8/74/74 119/113/107 103/111/105
f 8/74/74 55/29/29 104/115/109 119/113/107
f 56/28/28 9/75/75 121/119/113 107/117/111
f 9/75/75 57/31/31 108/121/115 121/119/113
f 58/132/30 10/129/119 94/97/91 111/100/94
f 12/131/121 59/133/33 112/105/99 99/103/97
f 60/32/32 7/73/73 116/110/104 115/127/117
f 117/109/103 101/108/102 61/34/34 13/82/82
f 102/112/106 118/114/108 14/84/84 62/35/35
f 118/114/108 105/116/110 63/38/38 14/84/84
f 106/118/112 120/120/114 15/86/86 64/39/39
f 120/120/114 109/122/116 65/42/42 15/86/86
f 110/99/93 95/98/92 16/1/1 66/88/43
f 98/104/98 113/106/100 67/90/46 18/5/5
f 114/128/118 117/109/103 13/82/82 68/47/47
f 122/134/122 123/135/123 138/136/124 139/137/125
f 123/135/123 122/134/122 124/138/126 125/139/127
f 125/139/127 124/138/126 127/140/128 126/141/129
f 126/141/129 127/140/128 132/142/130 133/143/131
f 128/144/132 129/145/133 145/146/134 144/147/135
f 129/145/133 128/144/132 131/148/136 130/149/137
f 130/149/137 131/148/136 148/150/138 149/151/139
f 133/143/131 132/142/130 135/152/140 134/153/141
f 134/153/141 135/152/140 144/147/135 145/146/134
f 136/154/142 137/155/143 147/156/144 146/157/145
f 137/155/143 136/154/142 139/137/125 138/136/124
f 140/158/146 141/159/147 149/151/139 148/150/138
f 141/159/147 140/158/146 143/160/148 142/161/149
f 142/161/149 143/160/148 146/157/145 147/156/144
f 21/8/8 20/7/7 127/162/128 124/163/126
f 22/9/9 21/8/8 124/163/126 122/164/122
f 123/135/123 125/139/127 35/80/80 34/79/79
f 125/139/127 126/141/129 36/81/81 35/80/80
f 129/145/133 130/149/137 86/59/59 85/58/58
f 131/165/136 128/166/132 78/51/51 77/50/50
f 133/143/131 134/153/141 93/62/62 92/61/61
f 135/167/140 132/168/130 80/57/57 79/56/56
f 137/155/143 138/136/124 91/66/66 90/65/65
f 139/169/125 136/170/142 82/55/55 81/54/54
f 141/159/147 142/161/149 89/64/64 88/63/63
f 143/171/148 140/172/146 84/53/53 83/52/52
f 19/92/88 78/51/51 128/166/132 144/173/135
f 79/56/56 19/92/88 144/173/135 135/167/140
f 20/7/7 80/93/57 132/174/130 127/162/128
f 81/94/54 22/9/9 122/164/122 139/175/125
f 23/95/89 82/55/55 136/170/142 146/176/145
f 83/52/52 23/95/89 146/176/145 143/171/148
f 24/96/90 84/53/53 140/172/146 148/177/138
f 77/50/50 24/96/90 148/177/138 131/165/136
f 145/146/134 129/145/133 85/58/58 31/76/76
f 130/149/137 149/151/139 32/77/77 86/59/59
f 149/151/139 141/159/147 88/63/63 32/77/77
f 142/161/149 147/156/144 33/78/78 89/64/64
f 147/156/144 137/155/143 90/65/65 33/78/78
f 138/136/124 123/135/123 34/79/79 91/66/66
f 126/141/129 133/143/131 92/61/61 36/81/81
f 134/153/141 145/146/134 31/76/76 93/62/62
f 150/179/150 151/178/151 153/180/152 152/181/153
f 152/181/153 153/180/152 11/130/120 10/129/119
f 42/182/19 150/179/150 152/181/153 50/183/20
f 50/183/20 152/181/153 10/129/119 58/132/30
f 151/185/151 154/184/154 155/186/155 153/187/152
f 153/187/152 155/186/155 12/131/121 11/130/120
f 154/184/154 43/188/22 51/189/25 155/186/155
f 155/186/155 51/189/25 59/133/33 12/131/121
f 160/194/156 159/193/157 38/10/11 37/11/10
f 162/196/158 161/195/159 40/12/15 39/13/14
f 164/199/160 163/197/161 42/14/19 41/15/18
f 166/201/162 165/200/163 44/16/23 43/17/22
f 156/190/164 160/194/156 37/11/10 1/67/67
f 159/193/157 157/191/165 2/68/69 38/10/11
f 157/191/165 162/196/158 39/13/14 2/68/69
f 161/195/159 158/192/166 3/69/71 40/12/15
f 158/192/166 164/199/160 41/15/18 3/69/71
f 165/200/163 156/190/164 1/67/67 44/16/23
f 167/203/167 168/204/168 151/178/151 150/179/150
f 163/198/161 167/203/167 150/179/150 42/182/19
f 168/205/168 169/206/169 154/184/154 151/185/151
f 169/206/169 166/202/162 43/188/22 154/184/154
