# This file uses centimeters as units for non-parametric coordinates.

mtllib WatermelonRUpperCanine.mtl
g default
v -0.493576 -0.029492 -0.223482
v -0.152579 -0.117228 -0.197491
v 0.199885 -0.113694 -0.177256
v 0.539796 -0.019130 -0.164157
v -0.515303 -0.003184 0.150377
v -0.174305 -0.090919 0.176368
v 0.178159 -0.087385 0.196602
v 0.518069 0.007178 0.209701
v 0.015673 1.222060 -0.281959
v -0.006054 1.248369 0.091899
vt 0.827313 0.757772
vt 0.790464 0.896170
vt 0.829020 0.899407
vt 0.866351 0.891246
vt 0.900889 0.873780
vt 0.815325 0.575460
vt 0.786795 0.575460
vt 0.827313 0.757772
vt 0.790464 0.896170
vt 0.829020 0.899407
vt 0.866351 0.891246
vt 0.900889 0.873780
vt 0.770740 0.893709
vt 0.739582 0.893709
vt 0.739582 0.770562
vt 0.770740 0.770562
vt 0.815325 0.692948
vt 0.786795 0.692948
vn 0.057874 -0.070079 -0.995861
vn 0.057874 -0.070079 -0.995861
vn 0.057874 -0.070079 -0.995861
vn 0.057874 -0.070079 -0.995861
vn 0.057874 -0.070079 -0.995861
vn -0.057874 0.070079 0.995861
vn -0.057874 0.070079 0.995861
vn -0.057874 0.070079 0.995861
vn -0.057874 0.070079 0.995861
vn -0.057874 0.070079 0.995861
vn -0.924592 0.372476 -0.079943
vn -0.924592 0.372476 -0.079943
vn -0.924592 0.372476 -0.079943
vn -0.924592 0.372476 -0.079943
vn 0.920037 0.390971 0.025954
vn 0.920037 0.390971 0.025954
vn 0.920037 0.390971 0.025954
vn 0.920037 0.390971 0.025954
s 1
g FoodRUpperCaninesOverbite
usemtl Delete:lambert3SG
f 2/3/1 1/2/2 9/1/3
f 3/4/4 2/3/1 9/1/3
f 4/5/5 3/4/4 9/1/3
s 2
f 5/9/6 6/10/7 10/8/8
f 6/10/7 7/11/9 10/8/8
f 7/11/9 8/12/10 10/8/8
s off
f 1/13/11 5/14/12 10/15/13 9/16/14
f 9/17/15 10/18/16 8/7/17 4/6/18
