# This file uses centimeters as units for non-parametric coordinates.

mtllib WatermelonMediumRUpperLeg.mtl
g default
v 1.352660 -0.196489 -0.189463
v 1.209244 -0.196489 0.156768
v 0.981103 -0.196489 0.454082
v 0.683786 -0.196488 0.682219
v 0.337553 -0.196488 0.825632
v -0.033995 -0.196488 0.874545
v 1.401579 -0.196490 -0.561016
v 1.352660 0.201994 -0.189464
v 1.209244 0.201995 0.156767
v 0.981103 0.201995 0.454082
v 0.683786 0.201995 0.682219
v 0.337553 0.201996 0.825631
v -0.033995 0.201996 0.874545
v 1.401579 0.201994 -0.561016
v -0.033986 -0.196490 -0.561024
v -0.033986 0.201994 -0.561025
v -1.420638 0.201991 -0.189480
v -1.277223 0.201991 0.156753
v -1.049089 0.201992 0.454070
v -0.751772 0.201992 0.682210
v -0.405542 0.201996 0.825627
v -1.469550 0.201991 -0.561033
v -1.420638 -0.196493 -0.189480
v -1.277223 -0.196492 0.156753
v -1.049089 -0.196492 0.454070
v -0.751772 -0.196492 0.682211
v -0.405542 -0.196488 0.825628
v -1.469550 -0.196493 -0.561033
vt 0.924723 0.862393
vt 0.891591 0.878504
vt 0.856036 0.733724
vt 0.953174 0.838740
vt 0.976558 0.807915
vt 0.989660 0.772019
vt 0.993669 0.733724
vt 0.425622 0.551848
vt 0.446722 0.551822
vt 0.446750 0.574257
vt 0.425650 0.574284
vt 0.467821 0.551795
vt 0.467850 0.574231
vt 0.488921 0.551769
vt 0.488949 0.574204
vt 0.510021 0.551742
vt 0.510049 0.574178
vt 0.531121 0.551716
vt 0.531149 0.574152
vt 0.404522 0.551875
vt 0.404550 0.574310
vt 0.856036 0.887614
vt 0.891591 0.878504
vt 0.924723 0.862393
vt 0.856036 0.733724
vt 0.953174 0.838740
vt 0.976558 0.807915
vt 0.989660 0.772019
vt 0.993669 0.733724
vt 0.856036 0.887614
vt 0.770740 0.893709
vt 0.739582 0.893709
vt 0.739582 0.755735
vt 0.770740 0.755735
vt 0.425622 0.551848
vt 0.446722 0.551822
vt 0.446750 0.574257
vt 0.425650 0.574284
vt 0.467821 0.551795
vt 0.467850 0.574231
vt 0.488921 0.551769
vt 0.488949 0.574204
vt 0.510021 0.551742
vt 0.510049 0.574178
vt 0.531121 0.551716
vt 0.531149 0.574152
vt 0.404522 0.551875
vt 0.404550 0.574310
vt 0.924723 0.605055
vt 0.891591 0.588944
vt 0.856036 0.733724
vt 0.953174 0.628708
vt 0.976558 0.659532
vt 0.989660 0.695429
vt 0.993669 0.733724
vt 0.856036 0.579833
vt 0.891591 0.588944
vt 0.924723 0.605055
vt 0.856036 0.733724
vt 0.953174 0.628708
vt 0.976558 0.659532
vt 0.989660 0.695429
vt 0.993669 0.733724
vt 0.856036 0.579833
vt 0.770740 0.895571
vt 0.739582 0.895571
vt 0.739582 0.755735
vt 0.770740 0.755735
vn 0.965924 0.000000 0.258826
vn 0.965924 0.000000 0.258826
vn 0.866022 0.000001 0.500006
vn 0.866022 0.000001 0.500006
vn 0.707103 0.000001 0.707111
vn 0.707103 0.000001 0.707111
vn 0.499996 0.000001 0.866028
vn 0.499996 0.000001 0.866028
vn 0.258814 0.000001 0.965927
vn 0.258814 0.000001 0.965927
vn -0.000006 0.000001 1.000000
vn -0.000006 0.000001 1.000000
vn 0.991444 0.000000 0.130533
vn 0.991444 0.000000 0.130533
vn 0.000000 -1.000000 0.000001
vn 0.000000 -1.000000 0.000001
vn 0.000000 -1.000000 0.000001
vn -0.000000 -1.000000 0.000001
vn -0.000000 -1.000000 0.000001
vn 0.000000 -1.000000 0.000001
vn 0.000000 -1.000000 0.000001
vn 0.000000 -1.000000 0.000001
vn 0.000000 1.000000 -0.000001
vn 0.000000 1.000000 -0.000001
vn -0.000000 1.000000 -0.000001
vn -0.000000 1.000000 -0.000001
vn -0.000000 1.000000 -0.000001
vn 0.000000 1.000000 -0.000001
vn 0.000000 1.000000 -0.000001
vn -0.000000 1.000000 -0.000001
vn 0.000006 -0.000001 -1.000000
vn 0.000006 -0.000001 -1.000000
vn 0.000006 -0.000001 -1.000000
vn 0.000006 -0.000001 -1.000000
vn -0.965927 0.000000 0.258815
vn -0.965927 0.000000 0.258815
vn -0.866028 0.000001 0.499996
vn -0.866028 0.000001 0.499996
vn -0.707112 0.000001 0.707102
vn -0.707112 0.000001 0.707102
vn -0.500005 0.000001 0.866023
vn -0.500005 0.000001 0.866023
vn -0.258826 0.000001 0.965924
vn -0.258826 0.000001 0.965924
vn -0.991446 0.000000 0.130515
vn -0.991446 0.000000 0.130515
vn -0.000002 1.000000 0.000000
vn -0.000003 1.000000 -0.000001
vn -0.000002 1.000000 -0.000001
vn -0.000002 1.000000 0.000001
vn -0.000005 1.000000 -0.000001
vn -0.000005 1.000000 -0.000002
vn -0.000000 1.000000 -0.000001
vn -0.000002 1.000000 -0.000001
vn 0.000002 -1.000000 0.000001
vn 0.000003 -1.000000 0.000001
vn 0.000002 -1.000000 -0.000000
vn 0.000002 -1.000000 -0.000001
vn 0.000005 -1.000000 0.000001
vn 0.000004 -1.000000 0.000002
vn -0.000000 -1.000000 0.000001
vn 0.000002 -1.000000 0.000001
vn 0.000006 -0.000001 -1.000000
vn 0.000006 -0.000001 -1.000000
vn 0.000006 -0.000001 -1.000000
vn 0.000006 -0.000001 -1.000000
s 1
g FoodMediumRUpperLeg
usemtl Delete:lambert3SG
f 1/8/1 8/11/2 9/10/3 2/9/4
f 2/9/4 9/10/3 10/13/5 3/12/6
f 3/12/6 10/13/5 11/15/7 4/14/8
f 4/14/8 11/15/7 12/17/9 5/16/10
f 5/16/10 12/17/9 13/19/11 6/18/12
f 7/20/13 14/21/14 8/11/2 1/8/1
s 2
f 2/1/15 15/3/16 1/2/17
f 3/4/18 15/3/16 2/1/15
f 4/5/19 15/3/16 3/4/18
f 5/6/20 15/3/16 4/5/19
f 6/7/21 15/3/16 5/6/20
f 1/2/17 15/3/16 7/22/22
s 3
f 8/23/23 16/25/24 9/24/25
f 9/24/25 16/25/24 10/26/26
f 10/26/26 16/25/24 11/27/27
f 11/27/27 16/25/24 12/28/28
f 12/28/28 16/25/24 13/29/29
f 14/30/30 16/25/24 8/23/23
s off
f 7/31/31 15/34/32 16/33/33 14/32/34
s 1
f 17/35/35 23/38/36 24/37/37 18/36/38
f 18/36/38 24/37/37 25/40/39 19/39/40
f 19/39/40 25/40/39 26/42/41 20/41/42
f 20/41/42 26/42/41 27/44/43 21/43/44
f 21/43/44 27/44/43 6/46/12 13/45/11
f 22/47/45 28/48/46 23/38/36 17/35/35
s 5
f 18/49/47 16/51/48 17/50/49
f 19/52/50 16/51/48 18/49/47
f 20/53/51 16/51/48 19/52/50
f 21/54/52 16/51/48 20/53/51
f 13/55/53 16/51/48 21/54/52
f 17/50/49 16/51/48 22/56/54
s 6
f 23/57/55 15/59/56 24/58/57
f 24/58/57 15/59/56 25/60/58
f 25/60/58 15/59/56 26/61/59
f 26/61/59 15/59/56 27/62/60
f 27/62/60 15/59/56 6/63/61
f 28/64/62 15/59/56 23/57/55
s off
f 22/65/63 16/68/64 15/67/65 28/66/66
