# This file uses centimeters as units for non-parametric coordinates.

mtllib WaffleTallRUpperLeg.mtl
g default
v -1.610124 0.118647 0.120308
v -1.622037 -0.003943 0.169670
v -1.610124 -0.126532 0.120308
v -1.581365 -0.177311 0.001139
v -1.552604 -0.126532 -0.118031
v -1.540693 -0.003943 -0.167392
v -1.552604 0.118647 -0.118031
v -1.581365 0.169426 0.001139
v -1.503693 0.208390 0.237062
v -1.522735 -0.003943 0.322927
v -1.503693 -0.216275 0.237062
v -1.457722 -0.304226 0.029765
v -1.411752 -0.216275 -0.177532
v -1.392710 -0.003943 -0.263396
v -1.411752 0.208390 -0.177532
v -1.457722 0.296341 0.029765
v -1.334998 0.241238 0.305784
v -1.354464 -0.003943 0.405458
v -1.334998 -0.249124 0.305784
v -1.288007 -0.350680 0.065148
v -1.241016 -0.249124 -0.175486
v -1.221551 -0.003943 -0.275161
v -1.241016 0.241238 -0.175486
v -1.288007 0.342795 0.065148
v -0.885978 0.241238 0.378575
v -0.898999 -0.003943 0.479294
v -0.885978 -0.249124 0.378575
v -0.854541 -0.350680 0.135418
v -0.823104 -0.249124 -0.107738
v -0.810083 -0.003943 -0.208457
v -0.823104 0.241238 -0.107738
v -0.854541 0.342795 0.135418
v -0.433206 0.241238 0.422372
v -0.439731 -0.003943 0.523719
v -0.433206 -0.249124 0.422372
v -0.417455 -0.350680 0.177697
v -0.401705 -0.249124 -0.066976
v -0.395180 -0.003943 -0.168323
v -0.401705 0.241238 -0.066976
v -0.417455 0.342795 0.177697
v 0.021442 0.241238 0.436993
v 0.021441 -0.003943 0.538550
v 0.021442 -0.249124 0.436993
v 0.021443 -0.350680 0.191812
v 0.021445 -0.249124 -0.053369
v 0.021445 -0.003943 -0.154926
v 0.021445 0.241238 -0.053369
v 0.021443 0.342795 0.191812
v 0.476091 0.241238 0.422377
v 0.482613 -0.003943 0.523725
v 0.476091 -0.249124 0.422377
v 0.460342 -0.350680 0.177703
v 0.444594 -0.249124 -0.066971
v 0.438070 -0.003943 -0.168318
v 0.444594 0.241238 -0.066971
v 0.460342 0.342795 0.177703
v 0.928862 0.241238 0.378586
v 0.941882 -0.003943 0.479305
v 0.928862 -0.249124 0.378586
v 0.897428 -0.350680 0.135428
v 0.865994 -0.249124 -0.107728
v 0.852974 -0.003943 -0.208447
v 0.865994 0.241238 -0.107728
v 0.897428 0.342795 0.135428
v 1.377884 0.241238 0.305800
v 1.397348 -0.003943 0.405474
v 1.377884 -0.249124 0.305800
v 1.330896 -0.350680 0.065163
v 1.283906 -0.249124 -0.175471
v 1.264443 -0.003943 -0.275146
v 1.283906 0.241238 -0.175471
v 1.330896 0.342795 0.065163
v 1.546578 0.208390 0.237080
v 1.565619 -0.003943 0.322945
v 1.546578 -0.216275 0.237080
v 1.500610 -0.304226 0.029782
v 1.454642 -0.216275 -0.177515
v 1.435601 -0.003943 -0.263380
v 1.454642 0.208390 -0.177515
v 1.500610 0.296341 0.029782
v 1.653011 0.118647 0.120327
v 1.664924 -0.003943 0.169689
v 1.653011 -0.126532 0.120327
v 1.624253 -0.177311 0.001157
v 1.595495 -0.126532 -0.118012
v 1.583583 -0.003943 -0.167374
v 1.595495 0.118647 -0.118012
v 1.624253 0.169426 0.001157
v -1.626485 -0.003943 -0.009913
v 1.669373 -0.003943 -0.009894
vt 0.170438 0.966377
vt 0.165326 0.964402
vt 0.165325 0.956393
vt 0.176300 0.960629
vt 0.160212 0.966377
vt 0.154352 0.960628
vt 0.157974 0.971253
vt 0.149567 0.971080
vt 0.160049 0.976280
vt 0.154004 0.981864
vt 0.165327 0.978405
vt 0.165325 0.986432
vt 0.170601 0.976280
vt 0.176649 0.981863
vt 0.172679 0.971253
vt 0.181084 0.971080
vt 0.165327 0.945519
vt 0.184234 0.952928
vt 0.146416 0.952927
vt 0.138492 0.970923
vt 0.146281 0.989085
vt 0.165327 0.996660
vt 0.184369 0.989085
vt 0.192159 0.970923
vt 0.305779 0.795204
vt 0.319369 0.795204
vt 0.319369 0.818366
vt 0.305779 0.818366
vt 0.332957 0.795204
vt 0.332957 0.818366
vt 0.346872 0.795204
vt 0.346872 0.818366
vt 0.361296 0.795204
vt 0.361296 0.818366
vt 0.376092 0.795204
vt 0.376092 0.818366
vt 0.263496 0.795204
vt 0.278013 0.795204
vt 0.278013 0.818366
vt 0.263496 0.818366
vt 0.292141 0.795204
vt 0.292141 0.818366
vt 0.319369 0.841558
vt 0.305779 0.841558
vt 0.332957 0.841558
vt 0.346872 0.841558
vt 0.361296 0.841558
vt 0.376092 0.841558
vt 0.278013 0.841558
vt 0.263496 0.841558
vt 0.292141 0.841558
vt 0.319369 0.864765
vt 0.305779 0.864765
vt 0.332957 0.864765
vt 0.346872 0.864765
vt 0.361296 0.864765
vt 0.376092 0.864765
vt 0.278013 0.864765
vt 0.263496 0.864765
vt 0.292141 0.864765
vt 0.319369 0.887973
vt 0.305779 0.887973
vt 0.332957 0.887973
vt 0.346872 0.887973
vt 0.361296 0.887973
vt 0.376092 0.887973
vt 0.278013 0.887973
vt 0.263496 0.887973
vt 0.292141 0.887973
vt 0.319369 0.911164
vt 0.305779 0.911164
vt 0.332957 0.911164
vt 0.346872 0.911164
vt 0.361296 0.911164
vt 0.376092 0.911164
vt 0.278013 0.911164
vt 0.263496 0.911164
vt 0.292141 0.911164
vt 0.319369 0.934326
vt 0.305779 0.934326
vt 0.332957 0.934326
vt 0.346872 0.934326
vt 0.361296 0.934326
vt 0.376092 0.934326
vt 0.278013 0.934326
vt 0.263496 0.934326
vt 0.292141 0.934326
vt 0.488164 0.986083
vt 0.469253 0.993490
vt 0.469255 0.982614
vt 0.480228 0.978380
vt 0.450346 0.986083
vt 0.458279 0.978379
vt 0.442420 0.968089
vt 0.453496 0.967928
vt 0.450211 0.949926
vt 0.457930 0.957142
vt 0.469253 0.942350
vt 0.469255 0.952573
vt 0.488299 0.949926
vt 0.480576 0.957142
vt 0.496088 0.968089
vt 0.485013 0.967928
vt 0.469253 0.974611
vt 0.474368 0.972632
vt 0.464142 0.972632
vt 0.461901 0.967754
vt 0.463979 0.962731
vt 0.469253 0.960608
vt 0.474531 0.962731
vt 0.476606 0.967754
vt 0.165326 0.971334
vt 0.469254 0.967679
vn -0.850480 0.451477 0.269911
vn -0.890961 -0.000000 0.454081
vn -0.605081 -0.000000 0.796164
vn -0.552710 0.636485 0.537958
vn -0.890961 -0.000000 0.454081
vn -0.850480 -0.451477 0.269911
vn -0.552710 -0.636485 0.537958
vn -0.605081 -0.000000 0.796164
vn -0.850480 -0.451477 0.269911
vn -0.753619 -0.634652 -0.171101
vn -0.426388 -0.900455 -0.085873
vn -0.552710 -0.636485 0.537958
vn -0.753619 -0.634652 -0.171101
vn -0.658047 -0.445937 -0.606724
vn -0.300291 -0.636840 -0.710113
vn -0.426388 -0.900455 -0.085873
vn -0.658047 -0.445937 -0.606724
vn -0.618857 -0.000000 -0.785504
vn -0.248148 -0.000000 -0.968722
vn -0.300291 -0.636840 -0.710113
vn -0.618857 -0.000000 -0.785504
vn -0.658047 0.445937 -0.606724
vn -0.300291 0.636840 -0.710113
vn -0.248148 -0.000000 -0.968722
vn -0.658047 0.445937 -0.606724
vn -0.753619 0.634652 -0.171101
vn -0.426388 0.900455 -0.085873
vn -0.300291 0.636840 -0.710113
vn -0.753619 0.634652 -0.171101
vn -0.850480 0.451477 0.269911
vn -0.552710 0.636485 0.537958
vn -0.426388 0.900455 -0.085873
vn -0.552710 0.636485 0.537958
vn -0.605081 -0.000000 0.796164
vn -0.236324 0.000000 0.971674
vn -0.187831 0.699636 0.689368
vn -0.605081 -0.000000 0.796164
vn -0.552710 -0.636485 0.537958
vn -0.187831 -0.699636 0.689368
vn -0.236324 0.000000 0.971674
vn -0.552710 -0.636485 0.537958
vn -0.426388 -0.900455 -0.085873
vn -0.069489 -0.997583 -0.000230
vn -0.187831 -0.699636 0.689368
vn -0.426388 -0.900455 -0.085873
vn -0.300291 -0.636840 -0.710113
vn 0.050645 -0.711158 -0.701206
vn -0.069489 -0.997583 -0.000230
vn -0.300291 -0.636840 -0.710113
vn -0.248148 -0.000000 -0.968722
vn 0.100931 -0.000000 -0.994893
vn 0.050645 -0.711158 -0.701206
vn -0.248148 -0.000000 -0.968722
vn -0.300291 0.636840 -0.710113
vn 0.050645 0.711158 -0.701206
vn 0.100931 -0.000000 -0.994893
vn -0.300291 0.636840 -0.710113
vn -0.426388 0.900455 -0.085873
vn -0.069489 0.997583 -0.000229
vn 0.050645 0.711158 -0.701206
vn -0.426388 0.900455 -0.085873
vn -0.552710 0.636485 0.537958
vn -0.187831 0.699636 0.689368
vn -0.069489 0.997583 -0.000229
vn -0.187831 0.699636 0.689368
vn -0.236324 0.000000 0.971674
vn -0.128218 0.000000 0.991746
vn -0.091625 0.699526 0.708709
vn -0.236324 0.000000 0.971674
vn -0.187831 -0.699636 0.689368
vn -0.091625 -0.699526 0.708709
vn -0.128218 0.000000 0.991746
vn -0.187831 -0.699636 0.689368
vn -0.069489 -0.997583 -0.000230
vn -0.001956 -0.999884 0.015129
vn -0.091625 -0.699526 0.708709
vn -0.069489 -0.997583 -0.000230
vn 0.050645 -0.711158 -0.701206
vn 0.089668 -0.714790 -0.693567
vn -0.001956 -0.999884 0.015129
vn 0.050645 -0.711158 -0.701206
vn 0.100931 -0.000000 -0.994893
vn 0.128218 -0.000000 -0.991746
vn 0.089668 -0.714790 -0.693567
vn 0.100931 -0.000000 -0.994893
vn 0.050645 0.711158 -0.701206
vn 0.089668 0.714790 -0.693567
vn 0.128218 -0.000000 -0.991746
vn 0.050645 0.711158 -0.701206
vn -0.069489 0.997583 -0.000229
vn -0.001956 0.999884 0.015130
vn 0.089668 0.714790 -0.693567
vn -0.069489 0.997583 -0.000229
vn -0.187831 0.699636 0.689368
vn -0.091625 0.699526 0.708709
vn -0.001956 0.999884 0.015130
vn -0.091625 0.699526 0.708709
vn -0.128218 0.000000 0.991746
vn -0.064245 0.000000 0.997934
vn -0.045910 0.699526 0.713131
vn -0.128218 0.000000 0.991746
vn -0.091625 -0.699526 0.708709
vn -0.045910 -0.699526 0.713131
vn -0.064245 0.000000 0.997934
vn -0.091625 -0.699526 0.708709
vn -0.001956 -0.999884 0.015129
vn -0.000980 -0.999884 0.015224
vn -0.045910 -0.699526 0.713131
vn -0.001956 -0.999884 0.015129
vn 0.089668 -0.714790 -0.693567
vn 0.044929 -0.714790 -0.697895
vn -0.000980 -0.999884 0.015224
vn 0.089668 -0.714790 -0.693567
vn 0.128218 -0.000000 -0.991746
vn 0.064245 -0.000000 -0.997934
vn 0.044929 -0.714790 -0.697895
vn 0.128218 -0.000000 -0.991746
vn 0.089668 0.714790 -0.693567
vn 0.044929 0.714790 -0.697895
vn 0.064245 -0.000000 -0.997934
vn 0.089668 0.714790 -0.693567
vn -0.001956 0.999884 0.015130
vn -0.000980 0.999884 0.015224
vn 0.044929 0.714790 -0.697895
vn -0.001956 0.999884 0.015130
vn -0.091625 0.699526 0.708709
vn -0.045910 0.699526 0.713131
vn -0.000980 0.999884 0.015224
vn -0.045910 0.699526 0.713131
vn -0.064245 0.000000 0.997934
vn -0.000006 0.000000 1.000000
vn -0.000004 0.699526 0.714608
vn -0.064245 0.000000 0.997934
vn -0.045910 -0.699526 0.713131
vn -0.000004 -0.699526 0.714608
vn -0.000006 0.000000 1.000000
vn -0.045910 -0.699526 0.713131
vn -0.000980 -0.999884 0.015224
vn -0.000000 -0.999884 0.015255
vn -0.000004 -0.699526 0.714608
vn -0.000980 -0.999884 0.015224
vn 0.044929 -0.714790 -0.697895
vn 0.000004 -0.714790 -0.699339
vn -0.000000 -0.999884 0.015255
vn 0.044929 -0.714790 -0.697895
vn 0.064245 -0.000000 -0.997934
vn 0.000006 -0.000000 -1.000000
vn 0.000004 -0.714790 -0.699339
vn 0.064245 -0.000000 -0.997934
vn 0.044929 0.714790 -0.697895
vn 0.000004 0.714790 -0.699339
vn 0.000006 -0.000000 -1.000000
vn 0.044929 0.714790 -0.697895
vn -0.000980 0.999884 0.015224
vn -0.000000 0.999884 0.015255
vn 0.000004 0.714790 -0.699339
vn -0.000980 0.999884 0.015224
vn -0.045910 0.699526 0.713131
vn -0.000004 0.699526 0.714608
vn -0.000000 0.999884 0.015255
vn -0.000004 0.699526 0.714608
vn -0.000006 0.000000 1.000000
vn 0.064233 0.000000 0.997935
vn 0.045902 0.699526 0.713131
vn -0.000006 0.000000 1.000000
vn -0.000004 -0.699526 0.714608
vn 0.045902 -0.699526 0.713131
vn 0.064233 0.000000 0.997935
vn -0.000004 -0.699526 0.714608
vn -0.000000 -0.999884 0.015255
vn 0.000980 -0.999884 0.015224
vn 0.045902 -0.699526 0.713131
vn -0.000000 -0.999884 0.015255
vn 0.000004 -0.714790 -0.699339
vn -0.044921 -0.714790 -0.697895
vn 0.000980 -0.999884 0.015224
vn 0.000004 -0.714790 -0.699339
vn 0.000006 -0.000000 -1.000000
vn -0.064233 -0.000000 -0.997935
vn -0.044921 -0.714790 -0.697895
vn 0.000006 -0.000000 -1.000000
vn 0.000004 0.714790 -0.699339
vn -0.044921 0.714790 -0.697895
vn -0.064233 -0.000000 -0.997935
vn 0.000004 0.714790 -0.699339
vn -0.000000 0.999884 0.015255
vn 0.000980 0.999884 0.015224
vn -0.044921 0.714790 -0.697895
vn -0.000000 0.999884 0.015255
vn -0.000004 0.699526 0.714608
vn 0.045902 0.699526 0.713131
vn 0.000980 0.999884 0.015224
vn 0.045902 0.699526 0.713131
vn 0.064233 0.000000 0.997935
vn 0.128206 0.000000 0.991748
vn 0.091617 0.699526 0.708710
vn 0.064233 0.000000 0.997935
vn 0.045902 -0.699526 0.713131
vn 0.091617 -0.699526 0.708710
vn 0.128206 0.000000 0.991748
vn 0.045902 -0.699526 0.713131
vn 0.000980 -0.999884 0.015224
vn 0.001956 -0.999884 0.015129
vn 0.091617 -0.699526 0.708710
vn 0.000980 -0.999884 0.015224
vn -0.044921 -0.714790 -0.697895
vn -0.089660 -0.714789 -0.693569
vn 0.001956 -0.999884 0.015129
vn -0.044921 -0.714790 -0.697895
vn -0.064233 -0.000000 -0.997935
vn -0.128206 -0.000000 -0.991748
vn -0.089660 -0.714789 -0.693569
vn -0.064233 -0.000000 -0.997935
vn -0.044921 0.714790 -0.697895
vn -0.089660 0.714789 -0.693569
vn -0.128206 -0.000000 -0.991748
vn -0.044921 0.714790 -0.697895
vn 0.000980 0.999884 0.015224
vn 0.001956 0.999884 0.015130
vn -0.089660 0.714789 -0.693569
vn 0.000980 0.999884 0.015224
vn 0.045902 0.699526 0.713131
vn 0.091617 0.699526 0.708710
vn 0.001956 0.999884 0.015130
vn 0.091617 0.699526 0.708710
vn 0.128206 0.000000 0.991748
vn 0.236312 0.000000 0.971677
vn 0.187823 0.699636 0.689370
vn 0.128206 0.000000 0.991748
vn 0.091617 -0.699526 0.708710
vn 0.187823 -0.699637 0.689370
vn 0.236312 0.000000 0.971677
vn 0.091617 -0.699526 0.708710
vn 0.001956 -0.999884 0.015129
vn 0.069489 -0.997583 -0.000230
vn 0.187823 -0.699637 0.689370
vn 0.001956 -0.999884 0.015129
vn -0.089660 -0.714789 -0.693569
vn -0.050637 -0.711158 -0.701206
vn 0.069489 -0.997583 -0.000230
vn -0.089660 -0.714789 -0.693569
vn -0.128206 -0.000000 -0.991748
vn -0.100919 -0.000000 -0.994895
vn -0.050637 -0.711158 -0.701206
vn -0.128206 -0.000000 -0.991748
vn -0.089660 0.714789 -0.693569
vn -0.050637 0.711158 -0.701206
vn -0.100919 -0.000000 -0.994895
vn -0.089660 0.714789 -0.693569
vn 0.001956 0.999884 0.015130
vn 0.069489 0.997583 -0.000230
vn -0.050637 0.711158 -0.701206
vn 0.001956 0.999884 0.015130
vn 0.091617 0.699526 0.708710
vn 0.187823 0.699636 0.689370
vn 0.069489 0.997583 -0.000230
vn 0.187823 0.699636 0.689370
vn 0.236312 0.000000 0.971677
vn 0.605071 -0.000001 0.796171
vn 0.552703 0.636485 0.537964
vn 0.236312 0.000000 0.971677
vn 0.187823 -0.699637 0.689370
vn 0.552703 -0.636486 0.537964
vn 0.605071 -0.000001 0.796171
vn 0.187823 -0.699637 0.689370
vn 0.069489 -0.997583 -0.000230
vn 0.426389 -0.900455 -0.085869
vn 0.552703 -0.636486 0.537964
vn 0.069489 -0.997583 -0.000230
vn -0.050637 -0.711158 -0.701206
vn 0.300300 -0.636840 -0.710109
vn 0.426389 -0.900455 -0.085869
vn -0.050637 -0.711158 -0.701206
vn -0.100919 -0.000000 -0.994895
vn 0.248159 0.000000 -0.968719
vn 0.300300 -0.636840 -0.710109
vn -0.100919 -0.000000 -0.994895
vn -0.050637 0.711158 -0.701206
vn 0.300299 0.636841 -0.710109
vn 0.248159 0.000000 -0.968719
vn -0.050637 0.711158 -0.701206
vn 0.069489 0.997583 -0.000230
vn 0.426387 0.900456 -0.085867
vn 0.300299 0.636841 -0.710109
vn 0.069489 0.997583 -0.000230
vn 0.187823 0.699636 0.689370
vn 0.552703 0.636485 0.537964
vn 0.426387 0.900456 -0.085867
vn 0.552703 0.636485 0.537964
vn 0.605071 -0.000001 0.796171
vn 0.890955 -0.000001 0.454091
vn 0.850476 0.451479 0.269921
vn 0.605071 -0.000001 0.796171
vn 0.552703 -0.636486 0.537964
vn 0.850476 -0.451479 0.269921
vn 0.890955 -0.000001 0.454091
vn 0.552703 -0.636486 0.537964
vn 0.426389 -0.900455 -0.085869
vn 0.753622 -0.634651 -0.171093
vn 0.850476 -0.451479 0.269921
vn 0.426389 -0.900455 -0.085869
vn 0.300300 -0.636840 -0.710109
vn 0.658054 -0.445936 -0.606717
vn 0.753622 -0.634651 -0.171093
vn 0.300300 -0.636840 -0.710109
vn 0.248159 0.000000 -0.968719
vn 0.618866 0.000001 -0.785497
vn 0.658054 -0.445936 -0.606717
vn 0.248159 0.000000 -0.968719
vn 0.300299 0.636841 -0.710109
vn 0.658054 0.445938 -0.606716
vn 0.618866 0.000001 -0.785497
vn 0.300299 0.636841 -0.710109
vn 0.426387 0.900456 -0.085867
vn 0.753621 0.634652 -0.171092
vn 0.658054 0.445938 -0.606716
vn 0.426387 0.900456 -0.085867
vn 0.552703 0.636485 0.537964
vn 0.850476 0.451479 0.269921
vn 0.753621 0.634652 -0.171092
vn -0.890961 -0.000000 0.454081
vn -0.850480 0.451477 0.269911
vn -0.972064 -0.000000 -0.234715
vn -0.850480 -0.451477 0.269911
vn -0.890961 -0.000000 0.454081
vn -0.972064 -0.000000 -0.234715
vn -0.753619 -0.634652 -0.171101
vn -0.850480 -0.451477 0.269911
vn -0.972064 -0.000000 -0.234715
vn -0.658047 -0.445937 -0.606724
vn -0.753619 -0.634652 -0.171101
vn -0.972064 -0.000000 -0.234715
vn -0.618857 -0.000000 -0.785504
vn -0.658047 -0.445937 -0.606724
vn -0.972064 -0.000000 -0.234715
vn -0.658047 0.445937 -0.606724
vn -0.618857 -0.000000 -0.785504
vn -0.972064 -0.000000 -0.234715
vn -0.753619 0.634652 -0.171101
vn -0.658047 0.445937 -0.606724
vn -0.972064 -0.000000 -0.234715
vn -0.850480 0.451477 0.269911
vn -0.753619 0.634652 -0.171101
vn -0.972064 -0.000000 -0.234715
vn 0.850476 0.451479 0.269921
vn 0.890955 -0.000001 0.454091
vn 0.972067 0.000000 -0.234704
vn 0.890955 -0.000001 0.454091
vn 0.850476 -0.451479 0.269921
vn 0.972067 0.000000 -0.234704
vn 0.850476 -0.451479 0.269921
vn 0.753622 -0.634651 -0.171093
vn 0.972067 0.000000 -0.234704
vn 0.753622 -0.634651 -0.171093
vn 0.658054 -0.445936 -0.606717
vn 0.972067 0.000000 -0.234704
vn 0.658054 -0.445936 -0.606717
vn 0.618866 0.000001 -0.785497
vn 0.972067 0.000000 -0.234704
vn 0.618866 0.000001 -0.785497
vn 0.658054 0.445938 -0.606716
vn 0.972067 0.000000 -0.234704
vn 0.658054 0.445938 -0.606716
vn 0.753621 0.634652 -0.171092
vn 0.972067 0.000000 -0.234704
vn 0.753621 0.634652 -0.171092
vn 0.850476 0.451479 0.269921
vn 0.972067 0.000000 -0.234704
s off
g FoodTallRUpperLeg
usemtl blinn4SG
f 1/1/1 2/2/2 10/3/3 9/4/4
f 2/2/5 3/5/6 11/6/7 10/3/8
f 3/5/9 4/7/10 12/8/11 11/6/12
f 4/7/13 5/9/14 13/10/15 12/8/16
f 5/9/17 6/11/18 14/12/19 13/10/20
f 6/11/21 7/13/22 15/14/23 14/12/24
f 7/13/25 8/15/26 16/16/27 15/14/28
f 8/15/29 1/1/30 9/4/31 16/16/32
f 9/4/33 10/3/34 18/17/35 17/18/36
f 10/3/37 11/6/38 19/19/39 18/17/40
f 11/6/41 12/8/42 20/20/43 19/19/44
f 12/8/45 13/10/46 21/21/47 20/20/48
f 13/10/49 14/12/50 22/22/51 21/21/52
f 14/12/53 15/14/54 23/23/55 22/22/56
f 15/14/57 16/16/58 24/24/59 23/23/60
f 16/16/61 9/4/62 17/18/63 24/24/64
f 17/25/65 18/26/66 26/27/67 25/28/68
f 18/26/69 19/29/70 27/30/71 26/27/72
f 19/29/73 20/31/74 28/32/75 27/30/76
f 20/31/77 21/33/78 29/34/79 28/32/80
f 21/33/81 22/35/82 30/36/83 29/34/84
f 22/37/85 23/38/86 31/39/87 30/40/88
f 23/38/89 24/41/90 32/42/91 31/39/92
f 24/41/93 17/25/94 25/28/95 32/42/96
f 25/28/97 26/27/98 34/43/99 33/44/100
f 26/27/101 27/30/102 35/45/103 34/43/104
f 27/30/105 28/32/106 36/46/107 35/45/108
f 28/32/109 29/34/110 37/47/111 36/46/112
f 29/34/113 30/36/114 38/48/115 37/47/116
f 30/40/117 31/39/118 39/49/119 38/50/120
f 31/39/121 32/42/122 40/51/123 39/49/124
f 32/42/125 25/28/126 33/44/127 40/51/128
f 33/44/129 34/43/130 42/52/131 41/53/132
f 34/43/133 35/45/134 43/54/135 42/52/136
f 35/45/137 36/46/138 44/55/139 43/54/140
f 36/46/141 37/47/142 45/56/143 44/55/144
f 37/47/145 38/48/146 46/57/147 45/56/148
f 38/50/149 39/49/150 47/58/151 46/59/152
f 39/49/153 40/51/154 48/60/155 47/58/156
f 40/51/157 33/44/158 41/53/159 48/60/160
f 41/53/161 42/52/162 50/61/163 49/62/164
f 42/52/165 43/54/166 51/63/167 50/61/168
f 43/54/169 44/55/170 52/64/171 51/63/172
f 44/55/173 45/56/174 53/65/175 52/64/176
f 45/56/177 46/57/178 54/66/179 53/65/180
f 46/59/181 47/58/182 55/67/183 54/68/184
f 47/58/185 48/60/186 56/69/187 55/67/188
f 48/60/189 41/53/190 49/62/191 56/69/192
f 49/62/193 50/61/194 58/70/195 57/71/196
f 50/61/197 51/63/198 59/72/199 58/70/200
f 51/63/201 52/64/202 60/73/203 59/72/204
f 52/64/205 53/65/206 61/74/207 60/73/208
f 53/65/209 54/66/210 62/75/211 61/74/212
f 54/68/213 55/67/214 63/76/215 62/77/216
f 55/67/217 56/69/218 64/78/219 63/76/220
f 56/69/221 49/62/222 57/71/223 64/78/224
f 57/71/225 58/70/226 66/79/227 65/80/228
f 58/70/229 59/72/230 67/81/231 66/79/232
f 59/72/233 60/73/234 68/82/235 67/81/236
f 60/73/237 61/74/238 69/83/239 68/82/240
f 61/74/241 62/75/242 70/84/243 69/83/244
f 62/77/245 63/76/246 71/85/247 70/86/248
f 63/76/249 64/78/250 72/87/251 71/85/252
f 64/78/253 57/71/254 65/80/255 72/87/256
f 65/88/257 66/89/258 74/90/259 73/91/260
f 66/89/261 67/92/262 75/93/263 74/90/264
f 67/92/265 68/94/266 76/95/267 75/93/268
f 68/94/269 69/96/270 77/97/271 76/95/272
f 69/96/273 70/98/274 78/99/275 77/97/276
f 70/98/277 71/100/278 79/101/279 78/99/280
f 71/100/281 72/102/282 80/103/283 79/101/284
f 72/102/285 65/88/286 73/91/287 80/103/288
f 73/91/289 74/90/290 82/104/291 81/105/292
f 74/90/293 75/93/294 83/106/295 82/104/296
f 75/93/297 76/95/298 84/107/299 83/106/300
f 76/95/301 77/97/302 85/108/303 84/107/304
f 77/97/305 78/99/306 86/109/307 85/108/308
f 78/99/309 79/101/310 87/110/311 86/109/312
f 79/101/313 80/103/314 88/111/315 87/110/316
f 80/103/317 73/91/318 81/105/319 88/111/320
f 2/2/321 1/1/322 89/112/323
f 3/5/324 2/2/325 89/112/326
f 4/7/327 3/5/328 89/112/329
f 5/9/330 4/7/331 89/112/332
f 6/11/333 5/9/334 89/112/335
f 7/13/336 6/11/337 89/112/338
f 8/15/339 7/13/340 89/112/341
f 1/1/342 8/15/343 89/112/344
f 81/105/345 82/104/346 90/113/347
f 82/104/348 83/106/349 90/113/350
f 83/106/351 84/107/352 90/113/353
f 84/107/354 85/108/355 90/113/356
f 85/108/357 86/109/358 90/113/359
f 86/109/360 87/110/361 90/113/362
f 87/110/363 88/111/364 90/113/365
f 88/111/366 81/105/367 90/113/368
