# This file uses centimeters as units for non-parametric coordinates.

mtllib CheesePuffRLowerCanine.mtl
g default
v -0.499927 -0.098823 0.067960
v -0.578084 -0.061102 0.077061
v -0.638824 0.018778 0.086057
v -0.647963 0.109198 0.090395
v -0.120468 1.285823 0.083431
v -0.035055 1.357231 0.077772
v 0.066963 1.361854 0.067942
v 0.136050 1.297496 0.058717
v 0.573425 -0.103969 -0.037509
v 0.691606 0.111988 -0.040882
v 0.710788 0.024216 -0.046103
v 0.663663 -0.061573 -0.044746
v -0.000017 -0.152101 0.016902
v -0.486068 0.678486 0.096179
v 0.406722 0.702728 0.009538
v 0.277932 -0.140381 -0.009913
v -0.255261 -0.129922 0.042780
v -0.585668 0.389156 0.094938
v -0.322196 0.977758 0.091494
v 0.268111 1.004271 0.034607
v 0.540989 0.395465 -0.015323
v 0.425988 0.109758 -0.014916
v 0.117754 0.079557 0.014166
v 0.269266 0.401993 0.011576
v -0.164915 0.087991 0.042211
v -0.343203 0.403072 0.071687
v -0.423566 0.114871 0.068602
v -0.050740 0.390917 0.042540
v 0.115134 0.712610 0.038512
v -0.211946 0.704081 0.070267
v -0.030390 1.008011 0.064026
v 0.565523 -0.100903 -0.118078
v 0.655748 -0.058518 -0.125314
v 0.702877 0.027275 -0.126672
v 0.683704 0.115054 -0.121452
v 0.128148 1.300562 -0.021853
v 0.059052 1.364913 -0.012627
v -0.043025 1.360282 -0.002792
v -0.128384 1.288877 0.002863
v -0.507829 -0.095758 -0.012610
v -0.655865 0.112264 0.009825
v -0.646793 0.021829 0.005494
v -0.585987 -0.058036 -0.003509
v -0.511763 -0.113559 0.027829
v 0.586142 -0.117977 -0.080020
v 0.678474 -0.074819 -0.087433
v 0.726617 0.012797 -0.088821
v 0.707762 0.104274 -0.083491
v 0.139628 1.317014 0.018378
v 0.068058 1.382863 0.027903
v -0.036863 1.378089 0.038012
v -0.124362 1.304954 0.043811
v -0.664071 0.099880 0.050889
v -0.655841 0.006559 0.046531
v -0.594368 -0.075416 0.037383
v -0.007919 -0.149035 -0.063667
v -0.000708 -0.167940 -0.024363
v 0.398716 0.705771 -0.071022
v 0.416752 0.707895 -0.031980
v -0.493970 0.681552 0.015609
v -0.500036 0.681857 0.056946
v -0.263163 -0.126856 -0.037789
v -0.260698 -0.145085 0.002006
v 0.270036 -0.137310 -0.090483
v 0.282804 -0.155649 -0.051702
v 0.533087 0.398530 -0.095892
v 0.551663 0.393339 -0.057181
v 0.260209 1.007337 -0.045963
v 0.275772 1.016496 -0.006410
v -0.330098 0.980824 0.010925
v -0.331245 0.988895 0.052075
v -0.593570 0.392221 0.014368
v -0.600736 0.386211 0.055573
v -0.431467 0.117937 -0.011967
v -0.172817 0.091057 -0.038358
v -0.351105 0.406137 -0.008883
v 0.109852 0.082623 -0.066403
v 0.261363 0.405059 -0.068994
v 0.418086 0.112824 -0.095485
v -0.058643 0.393982 -0.038030
v -0.219848 0.707147 -0.010302
v 0.107232 0.715676 -0.042057
v -0.038292 1.011077 -0.016544
vt 0.485833 0.441416
vt 0.474387 0.429573
vt 0.456921 0.429167
vt 0.441533 0.440426
vt 0.331103 0.633352
vt 0.330720 0.648894
vt 0.339390 0.663787
vt 0.352108 0.671958
vt 0.487223 0.695244
vt 0.517620 0.654266
vt 0.463559 0.653783
vt 0.539423 0.694276
vt 0.555809 0.688562
vt 0.565309 0.674796
vt 0.563574 0.659422
vt 0.496339 0.600303
vt 0.438397 0.691815
vt 0.414509 0.646914
vt 0.440237 0.596417
vt 0.474847 0.543361
vt 0.394104 0.683010
vt 0.370157 0.636918
vt 0.389430 0.588792
vt 0.417451 0.539229
vt 0.453724 0.489838
vt 0.346808 0.586447
vt 0.369264 0.538700
vt 0.402266 0.489997
vt 0.506052 0.494397
vt 0.525632 0.550054
vt 0.543783 0.606751
vt 0.014437 0.091204
vt 0.017055 0.042103
vt 0.012082 0.039099
vt 0.009100 0.089916
vt 0.237715 0.057702
vt 0.188112 0.036779
vt 0.184819 0.041872
vt 0.232750 0.061850
vt 0.092235 0.282832
vt 0.131857 0.239896
vt 0.128242 0.235371
vt 0.090208 0.277020
vt 0.242917 0.103027
vt 0.249371 0.104070
vt 0.256467 0.087966
vt 0.249970 0.089150
vt 0.251830 0.069901
vt 0.246001 0.072915
vt 0.075426 0.284098
vt 0.075548 0.290258
vt 0.058963 0.278230
vt 0.056613 0.283933
vt 0.048440 0.262168
vt 0.044300 0.266568
vt 0.022153 0.027560
vt 0.018057 0.023217
vt 0.035584 0.016758
vt 0.032796 0.011243
vt 0.050454 0.013639
vt 0.049573 0.007667
vt 0.488413 0.701180
vt 0.542560 0.700049
vt 0.560495 0.693269
vt 0.571056 0.677791
vt 0.569855 0.660819
vt 0.511058 0.491513
vt 0.489912 0.436645
vt 0.476276 0.423650
vt 0.456441 0.423144
vt 0.439367 0.434884
vt 0.325300 0.634327
vt 0.341365 0.585659
vt 0.325384 0.651747
vt 0.334988 0.668065
vt 0.349193 0.677142
vt 0.093772 0.018727
vt 0.054670 0.052887
vt 0.099528 0.059883
vt 0.140283 0.021410
vt 0.094604 0.012945
vt 0.138251 0.026969
vt 0.392763 0.688705
vt 0.438228 0.697731
vt 0.171581 0.194327
vt 0.210243 0.147199
vt 0.204958 0.144980
vt 0.167017 0.190984
vt 0.549521 0.606621
vt 0.531096 0.548634
vt 0.030098 0.201260
vt 0.017550 0.143745
vt 0.012197 0.144055
vt 0.025208 0.203562
vt 0.398564 0.486047
vt 0.364414 0.536422
vt 0.054858 0.104737
vt 0.147614 0.071650
vt 0.104833 0.116379
vt 0.062491 0.161134
vt 0.198064 0.091175
vt 0.158414 0.133472
vt 0.117353 0.178448
vt 0.077863 0.220420
vn 0.353838 0.105334 0.929357
vn 0.212090 0.298704 0.930480
vn -0.063274 0.302469 0.951057
vn -0.175659 0.158563 0.971598
vn -0.245234 0.019944 0.969259
vn -0.334840 -0.188690 0.923189
vn -0.187784 -0.363657 0.912409
vn 0.032861 -0.328001 0.944106
vn 0.115154 -0.330389 0.936794
vn 0.097540 -0.037843 0.994512
vn 0.097540 -0.037843 0.994512
vn 0.147538 -0.345771 0.926647
vn 0.340116 -0.315049 0.886039
vn 0.464155 -0.073990 0.882658
vn 0.391114 0.111895 0.913515
vn 0.097540 -0.037843 0.994512
vn 0.084570 -0.339852 0.936669
vn 0.097540 -0.037843 0.994512
vn 0.097541 -0.037842 0.994512
vn 0.097540 -0.037843 0.994512
vn 0.060007 -0.337191 0.939522
vn 0.097538 -0.037845 0.994512
vn 0.097543 -0.037841 0.994512
vn 0.097540 -0.037843 0.994512
vn 0.097540 -0.037843 0.994512
vn -0.220669 0.055276 0.973781
vn -0.202041 0.097549 0.974507
vn -0.178865 0.126605 0.975694
vn 0.334540 0.074627 0.939422
vn 0.344007 0.076899 0.935813
vn 0.350260 0.086730 0.932628
vn -0.404985 0.126786 -0.905490
vn -0.428433 0.091061 -0.898973
vn -0.988811 0.109500 0.101307
vn -0.959516 0.261725 0.104067
vn 0.223257 -0.972978 -0.058918
vn 0.085401 -0.995272 -0.046274
vn -0.071222 -0.258077 -0.963496
vn -0.037608 -0.273941 -0.961011
vn 0.850521 0.522084 -0.063576
vn 0.905586 0.417796 -0.073215
vn 0.146474 0.147571 -0.978145
vn 0.167575 0.177600 -0.969730
vn 0.207275 0.183224 -0.960972
vn 0.917945 0.389509 -0.075235
vn 0.968767 -0.225271 -0.103648
vn 0.283530 -0.003948 -0.958955
vn 0.692073 -0.715532 -0.095123
vn 0.159403 -0.244972 -0.956336
vn 0.029690 0.369459 -0.928773
vn 0.313598 0.949541 0.005247
vn -0.244484 0.372690 -0.895170
vn -0.313284 0.947312 0.066729
vn -0.359672 0.229941 -0.904303
vn -0.771946 0.627817 0.099732
vn -0.509062 -0.121114 -0.852166
vn -0.904695 -0.419744 0.073086
vn -0.363751 -0.295225 -0.883475
vn -0.639079 -0.768406 0.033624
vn -0.153349 -0.255742 -0.954505
vn -0.215473 -0.976378 -0.016019
vn -0.125899 -0.265062 -0.955977
vn -0.097540 0.037843 -0.994512
vn -0.097539 0.037844 -0.994512
vn -0.018460 -0.999173 -0.036229
vn -0.108471 -0.993728 -0.027174
vn -0.101271 -0.267752 -0.958151
vn 0.908898 0.410371 -0.074162
vn 0.892557 0.445332 -0.070862
vn 0.163271 0.159284 -0.973638
vn 0.156386 0.149619 -0.976298
vn -0.363821 0.198365 -0.910102
vn -0.386541 0.169130 -0.906632
vn -0.909345 0.402703 0.104511
vn -0.848695 0.518756 0.103001
vn -0.097542 0.037842 -0.994512
vn -0.097540 0.037843 -0.994512
vn -0.097540 0.037843 -0.994512
vn -0.097539 0.037844 -0.994512
vn -0.097540 0.037843 -0.994512
vn -0.097540 0.037843 -0.994512
vn -0.097540 0.037844 -0.994512
vn -0.097540 0.037843 -0.994512
s 1
g FoodRLowerCaninesUnderbite
usemtl GoogleyEye_blinn1SG
f 8/1/1 7/2/2 6/3/3 5/4/4
f 4/5/5 3/6/6 2/7/7 1/8/8
f 16/9/9 22/10/10 23/11/11
f 9/12/12 12/13/13 11/14/14 10/15/15
f 24/16/16 23/11/11 22/10/10
f 16/9/9 9/12/12 22/10/10
f 13/17/17 23/11/11 25/18/18
f 24/16/16 28/19/19 23/11/11
f 29/20/20 28/19/19 24/16/16
f 17/21/21 13/17/17 25/18/18
f 1/8/8 17/21/21 27/22/22
f 17/21/21 25/18/18 27/22/22
f 26/23/23 27/22/22 25/18/18
f 28/19/19 26/23/23 25/18/18
f 29/20/20 30/24/24 28/19/19
f 31/25/25 30/24/24 29/20/20
f 1/8/8 27/22/22 4/5/5
f 18/26/26 4/5/5 27/22/22
f 26/23/23 18/26/26 27/22/22
f 14/27/27 18/26/26 26/23/23
f 30/24/24 14/27/27 26/23/23
f 31/25/25 19/28/28 30/24/24
f 5/4/4 19/28/28 31/25/25
f 8/1/1 5/4/4 31/25/25
f 20/29/29 8/1/1 31/25/25
f 20/29/29 31/25/25 29/20/20
f 15/30/30 20/29/29 29/20/20
f 15/30/30 29/20/20 24/16/16
f 21/31/31 15/30/30 24/16/16
f 21/31/31 24/16/16 22/10/10
f 10/15/15 21/31/31 22/10/10
f 9/12/12 10/15/15 22/10/10
f 13/17/17 16/9/9 23/11/11
f 28/19/19 25/18/18 23/11/11
f 30/24/24 26/23/23 28/19/19
f 19/28/28 14/27/27 30/24/24
f 72/32/32 41/33/33 53/34/34 73/35/35
f 45/36/36 65/37/37 64/38/38 32/39/39
f 49/40/40 69/41/41 68/42/42 36/43/43
f 35/44/44 48/45/45 47/46/46 34/47/47
f 34/47/47 47/46/46 46/48/48 33/49/49
f 33/49/49 46/48/48 45/36/36 32/39/39
f 49/40/40 36/43/43 37/50/50 50/51/51
f 50/51/51 37/50/50 38/52/52 51/53/53
f 51/53/53 38/52/52 39/54/54 52/55/55
f 53/34/34 41/33/33 42/56/56 54/57/57
f 54/57/57 42/56/56 43/58/58 55/59/59
f 55/59/59 43/58/58 40/60/60 44/61/61
f 39/54/54 38/52/52 37/50/50 36/43/43
f 9/12/12 16/9/9 65/62/37 45/63/36
f 46/64/48 12/13/13 9/12/12 45/63/36
f 47/65/46 11/14/14 12/13/13 46/64/48
f 48/66/45 10/15/15 11/14/14 47/65/46
f 8/1/1 20/29/29 69/67/41 49/68/40
f 8/1/1 49/68/40 50/69/51 7/2/2
f 7/2/2 50/69/51 51/70/53 6/3/3
f 6/3/3 51/70/53 52/71/55 5/4/4
f 53/72/34 4/5/5 18/26/26 73/73/35
f 4/5/5 53/72/34 54/74/57 3/6/6
f 3/6/6 54/74/57 55/75/59 2/7/7
f 2/7/7 55/75/59 44/76/61 1/8/8
f 35/44/44 34/47/47 33/49/49 32/39/39
f 62/77/62 74/78/63 75/79/64
f 40/60/60 43/58/58 42/56/56 41/33/33
f 57/80/65 63/81/66 62/77/62 56/82/67
f 13/17/17 17/21/21 63/83/66 57/84/65
f 59/85/68 67/86/69 66/87/70 58/88/71
f 15/30/30 21/31/31 67/89/69 59/90/68
f 70/91/72 60/92/73 61/93/74 71/94/75
f 14/27/27 19/28/28 71/95/75 61/96/74
f 63/81/66 44/61/61 40/60/60 62/77/62
f 17/21/21 1/8/8 44/76/61 63/83/66
f 65/37/37 57/80/65 56/82/67 64/38/38
f 16/9/9 13/17/17 57/84/65 65/62/37
f 67/86/69 48/45/45 35/44/44 66/87/70
f 21/31/31 10/15/15 48/66/45 67/89/69
f 69/41/41 59/85/68 58/88/71 68/42/42
f 20/29/29 15/30/30 59/90/68 69/67/41
f 39/54/54 70/91/72 71/94/75 52/55/55
f 19/28/28 5/4/4 52/71/55 71/95/75
f 60/92/73 72/32/32 73/35/35 61/93/74
f 18/26/26 14/27/27 61/96/74 73/73/35
f 76/97/76 75/79/64 74/78/63
f 62/77/62 40/60/60 74/78/63
f 56/82/67 75/79/64 77/98/77
f 76/97/76 80/99/78 75/79/64
f 81/100/79 80/99/78 76/97/76
f 64/38/38 56/82/67 77/98/77
f 32/39/39 64/38/38 79/101/80
f 64/38/38 77/98/77 79/101/80
f 78/102/81 79/101/80 77/98/77
f 80/99/78 78/102/81 77/98/77
f 81/100/79 82/103/82 80/99/78
f 83/104/83 82/103/82 81/100/79
f 32/39/39 79/101/80 35/44/44
f 66/87/70 35/44/44 79/101/80
f 78/102/81 66/87/70 79/101/80
f 58/88/71 66/87/70 78/102/81
f 82/103/82 58/88/71 78/102/81
f 83/104/83 68/42/42 82/103/82
f 36/43/43 68/42/42 83/104/83
f 39/54/54 36/43/43 83/104/83
f 70/91/72 39/54/54 83/104/83
f 70/91/72 83/104/83 81/100/79
f 60/92/73 70/91/72 81/100/79
f 60/92/73 81/100/79 76/97/76
f 72/32/32 60/92/73 76/97/76
f 72/32/32 76/97/76 74/78/63
f 41/33/33 72/32/32 74/78/63
f 40/60/60 41/33/33 74/78/63
f 56/82/67 62/77/62 75/79/64
f 80/99/78 77/98/77 75/79/64
f 82/103/82 78/102/81 80/99/78
f 68/42/42 58/88/71 82/103/82
