# This file uses centimeters as units for non-parametric coordinates.

mtllib CheesePuffRUpperCanine.mtl
g default
v 0.343842 0.015442 0.071464
v 0.389607 0.040496 0.067101
v 0.423480 0.089989 0.059522
v 0.425951 0.143987 0.051888
v 0.069150 0.824679 -0.037215
v 0.015365 0.864175 -0.041776
v -0.046175 0.863452 -0.040543
v -0.085591 0.822891 -0.034117
v -0.301834 -0.024094 0.088896
v -0.380176 0.100113 0.072881
v -0.388779 0.047347 0.080455
v -0.357551 -0.001989 0.086814
v 0.044825 -0.033182 0.083797
v 0.309474 0.476499 0.007299
v -0.228540 0.460548 0.019436
v -0.122813 -0.035671 0.087230
v 0.197665 -0.011338 0.077916
v 0.379093 0.308094 0.029686
v 0.200848 0.648622 -0.014894
v -0.155234 0.644300 -0.007737
v -0.299041 0.273547 0.047014
v -0.220276 0.107817 0.068857
v -0.033797 0.100362 0.066475
v -0.135760 0.286659 0.042168
v 0.136006 0.114977 0.061298
v 0.232733 0.308116 0.032375
v 0.290739 0.139728 0.054973
v 0.057162 0.290958 0.038015
v -0.053419 0.476326 0.013998
v 0.143674 0.482379 0.009522
v 0.024252 0.656667 -0.012776
v -0.300780 -0.016042 0.146191
v -0.356489 0.006057 0.144109
v -0.387719 0.055395 0.137750
v -0.379122 0.108165 0.130175
v -0.084537 0.830943 0.023177
v -0.045116 0.871500 0.016752
v 0.016460 0.872220 0.015519
v 0.070213 0.832725 0.020081
v 0.344896 0.023495 0.128758
v 0.427005 0.152039 0.109182
v 0.424575 0.098035 0.116817
v 0.390661 0.048548 0.124395
v 0.349659 0.010077 0.101334
v -0.310816 -0.029862 0.119095
v -0.367818 -0.007375 0.116983
v -0.399720 0.043011 0.110488
v -0.391438 0.097966 0.102613
v -0.090196 0.837340 -0.006840
v -0.049337 0.878871 -0.013429
v 0.013955 0.879602 -0.014696
v 0.069054 0.839152 -0.010024
v 0.434157 0.141983 0.081241
v 0.432330 0.086294 0.089101
v 0.398086 0.035532 0.096865
v 0.045879 -0.025130 0.141092
v 0.043972 -0.039582 0.113935
v -0.227423 0.468590 0.076731
v -0.236547 0.466257 0.048004
v 0.310527 0.484551 0.064593
v 0.315966 0.481957 0.035635
v 0.198719 -0.003286 0.135211
v 0.199646 -0.017175 0.107923
v -0.121763 -0.027616 0.144524
v -0.127032 -0.041920 0.117409
v -0.297987 0.281599 0.104308
v -0.307192 0.274903 0.076196
v -0.154180 0.652352 0.049557
v -0.162052 0.654280 0.020209
v 0.201902 0.656674 0.042401
v 0.204121 0.658523 0.012877
v 0.380147 0.316146 0.086980
v 0.386459 0.309840 0.058528
v 0.291792 0.147780 0.112268
v 0.137060 0.123029 0.118592
v 0.233787 0.316168 0.089669
v -0.032743 0.108414 0.123769
v -0.134707 0.294711 0.099462
v -0.219222 0.115869 0.126152
v 0.058216 0.299011 0.095310
v 0.144728 0.490431 0.066816
v -0.052365 0.484378 0.071292
v 0.025306 0.664719 0.044518
vt 0.485833 0.441416
vt 0.474387 0.429573
vt 0.456921 0.429167
vt 0.441533 0.440426
vt 0.331103 0.633352
vt 0.330720 0.648894
vt 0.339390 0.663787
vt 0.352108 0.671958
vt 0.487223 0.695244
vt 0.517620 0.654266
vt 0.463559 0.653783
vt 0.539423 0.694276
vt 0.555809 0.688562
vt 0.565309 0.674796
vt 0.563574 0.659422
vt 0.496339 0.600303
vt 0.438397 0.691815
vt 0.414509 0.646914
vt 0.440237 0.596417
vt 0.474847 0.543361
vt 0.394104 0.683010
vt 0.370157 0.636918
vt 0.389430 0.588792
vt 0.417451 0.539229
vt 0.453724 0.489838
vt 0.346808 0.586447
vt 0.369264 0.538700
vt 0.402266 0.489997
vt 0.506052 0.494397
vt 0.525632 0.550054
vt 0.543783 0.606751
vt 0.014437 0.091204
vt 0.017055 0.042103
vt 0.012082 0.039099
vt 0.009100 0.089916
vt 0.237715 0.057702
vt 0.188112 0.036779
vt 0.184819 0.041872
vt 0.232750 0.061850
vt 0.092235 0.282832
vt 0.131857 0.239896
vt 0.128242 0.235371
vt 0.090208 0.277020
vt 0.242917 0.103027
vt 0.249371 0.104070
vt 0.256467 0.087966
vt 0.249970 0.089150
vt 0.251830 0.069901
vt 0.246001 0.072915
vt 0.075426 0.284098
vt 0.075548 0.290258
vt 0.058963 0.278230
vt 0.056613 0.283933
vt 0.048440 0.262168
vt 0.044300 0.266568
vt 0.022153 0.027560
vt 0.018057 0.023217
vt 0.035584 0.016758
vt 0.032796 0.011243
vt 0.050454 0.013639
vt 0.049573 0.007667
vt 0.488413 0.701180
vt 0.542560 0.700049
vt 0.560495 0.693269
vt 0.571056 0.677791
vt 0.569855 0.660819
vt 0.511058 0.491513
vt 0.489912 0.436645
vt 0.476276 0.423650
vt 0.456441 0.423144
vt 0.439367 0.434884
vt 0.325300 0.634327
vt 0.341365 0.585659
vt 0.325384 0.651747
vt 0.334988 0.668065
vt 0.349193 0.677142
vt 0.093772 0.018727
vt 0.054670 0.052887
vt 0.099528 0.059883
vt 0.140283 0.021410
vt 0.094604 0.012945
vt 0.138251 0.026969
vt 0.392763 0.688705
vt 0.438228 0.697731
vt 0.171581 0.194327
vt 0.210243 0.147199
vt 0.204958 0.144980
vt 0.167017 0.190984
vt 0.549521 0.606621
vt 0.531096 0.548634
vt 0.030098 0.201260
vt 0.017550 0.143745
vt 0.012197 0.144055
vt 0.025208 0.203562
vt 0.398564 0.486047
vt 0.364414 0.536422
vt 0.054858 0.104737
vt 0.147614 0.071650
vt 0.104833 0.116379
vt 0.062491 0.161134
vt 0.198064 0.091175
vt 0.158414 0.133472
vt 0.117353 0.178448
vt 0.077863 0.220420
vn -0.331973 0.015927 -0.943155
vn -0.178924 0.248874 -0.951865
vn 0.140304 0.271204 -0.952241
vn 0.283009 0.113081 -0.952428
vn 0.372326 -0.041603 -0.927169
vn 0.477886 -0.267152 -0.836812
vn 0.322568 -0.477133 -0.817492
vn 0.072602 -0.464092 -0.882807
vn -0.023646 -0.472531 -0.880997
vn -0.018211 -0.139150 -0.990104
vn -0.018211 -0.139150 -0.990104
vn -0.061068 -0.490734 -0.869167
vn -0.288044 -0.462097 -0.838747
vn -0.447464 -0.194236 -0.872954
vn -0.375499 0.022014 -0.926561
vn -0.018210 -0.139150 -0.990104
vn 0.012566 -0.480711 -0.876789
vn -0.018210 -0.139150 -0.990104
vn -0.018212 -0.139149 -0.990104
vn -0.018211 -0.139150 -0.990104
vn 0.041206 -0.476101 -0.878425
vn -0.018208 -0.139152 -0.990104
vn -0.018214 -0.139148 -0.990104
vn -0.018210 -0.139150 -0.990104
vn -0.018210 -0.139150 -0.990104
vn 0.342634 -0.003066 -0.939464
vn 0.318329 0.044361 -0.946942
vn 0.289837 0.076199 -0.954038
vn -0.307575 -0.019193 -0.951330
vn -0.318781 -0.016927 -0.947677
vn -0.326679 -0.005679 -0.945118
vn 0.376301 0.254181 0.890949
vn 0.405684 0.213630 0.888697
vn 0.985533 0.164361 -0.041361
vn 0.947645 0.313353 -0.061469
vn -0.169590 -0.975489 0.140213
vn -0.030099 -0.989740 0.139675
vn 0.010533 -0.211354 0.977353
vn -0.027189 -0.231924 0.972354
vn -0.882087 0.468468 -0.049595
vn -0.931511 0.362167 -0.033518
vn -0.272973 0.245217 0.930244
vn -0.297819 0.276878 0.913588
vn -0.341957 0.278374 0.897537
vn -0.942304 0.333454 -0.029510
vn -0.958963 -0.277798 0.056731
vn -0.414697 0.056053 0.908231
vn -0.654114 -0.747281 0.117070
vn -0.255245 -0.211662 0.943424
vn -0.145687 0.502438 0.852251
vn -0.367498 0.921895 -0.122696
vn 0.173331 0.522345 0.834932
vn 0.261303 0.955194 -0.139013
vn 0.316626 0.369701 0.873538
vn 0.739118 0.664996 -0.107164
vn 0.509201 -0.028626 0.860172
vn 0.930729 -0.364147 0.033783
vn 0.354064 -0.234932 0.905232
vn 0.683803 -0.724213 0.089049
vn 0.106737 -0.203219 0.973298
vn 0.270581 -0.954002 0.129099
vn 0.075266 -0.215824 0.973527
vn 0.018211 0.139150 0.990104
vn 0.018210 0.139151 0.990104
vn 0.074276 -0.987718 0.137465
vn 0.164242 -0.977232 0.134320
vn 0.046613 -0.220565 0.974258
vn -0.934445 0.354656 -0.032122
vn -0.919979 0.390151 -0.037686
vn -0.292324 0.256642 0.921239
vn -0.284211 0.246438 0.926549
vn 0.323662 0.334662 0.885011
vn 0.352042 0.301956 0.885940
vn 0.889463 0.450020 -0.079606
vn 0.822165 0.561427 -0.094044
vn 0.018213 0.139149 0.990104
vn 0.018210 0.139150 0.990104
vn 0.018210 0.139150 0.990104
vn 0.018210 0.139151 0.990104
vn 0.018211 0.139150 0.990104
vn 0.018211 0.139150 0.990104
vn 0.018210 0.139151 0.990104
vn 0.018211 0.139150 0.990104
s 1
g FoodRUpperCaninesOverbite
usemtl GoogleyEye_blinn1SG
f 8/1/1 7/2/2 6/3/3 5/4/4
f 4/5/5 3/6/6 2/7/7 1/8/8
f 16/9/9 22/10/10 23/11/11
f 9/12/12 12/13/13 11/14/14 10/15/15
f 24/16/16 23/11/11 22/10/10
f 16/9/9 9/12/12 22/10/10
f 13/17/17 23/11/11 25/18/18
f 24/16/16 28/19/19 23/11/11
f 29/20/20 28/19/19 24/16/16
f 17/21/21 13/17/17 25/18/18
f 1/8/8 17/21/21 27/22/22
f 17/21/21 25/18/18 27/22/22
f 26/23/23 27/22/22 25/18/18
f 28/19/19 26/23/23 25/18/18
f 29/20/20 30/24/24 28/19/19
f 31/25/25 30/24/24 29/20/20
f 1/8/8 27/22/22 4/5/5
f 18/26/26 4/5/5 27/22/22
f 26/23/23 18/26/26 27/22/22
f 14/27/27 18/26/26 26/23/23
f 30/24/24 14/27/27 26/23/23
f 31/25/25 19/28/28 30/24/24
f 5/4/4 19/28/28 31/25/25
f 8/1/1 5/4/4 31/25/25
f 20/29/29 8/1/1 31/25/25
f 20/29/29 31/25/25 29/20/20
f 15/30/30 20/29/29 29/20/20
f 15/30/30 29/20/20 24/16/16
f 21/31/31 15/30/30 24/16/16
f 21/31/31 24/16/16 22/10/10
f 10/15/15 21/31/31 22/10/10
f 9/12/12 10/15/15 22/10/10
f 13/17/17 16/9/9 23/11/11
f 28/19/19 25/18/18 23/11/11
f 30/24/24 26/23/23 28/19/19
f 19/28/28 14/27/27 30/24/24
f 72/32/32 41/33/33 53/34/34 73/35/35
f 45/36/36 65/37/37 64/38/38 32/39/39
f 49/40/40 69/41/41 68/42/42 36/43/43
f 35/44/44 48/45/45 47/46/46 34/47/47
f 34/47/47 47/46/46 46/48/48 33/49/49
f 33/49/49 46/48/48 45/36/36 32/39/39
f 49/40/40 36/43/43 37/50/50 50/51/51
f 50/51/51 37/50/50 38/52/52 51/53/53
f 51/53/53 38/52/52 39/54/54 52/55/55
f 53/34/34 41/33/33 42/56/56 54/57/57
f 54/57/57 42/56/56 43/58/58 55/59/59
f 55/59/59 43/58/58 40/60/60 44/61/61
f 39/54/54 38/52/52 37/50/50 36/43/43
f 9/12/12 16/9/9 65/62/37 45/63/36
f 46/64/48 12/13/13 9/12/12 45/63/36
f 47/65/46 11/14/14 12/13/13 46/64/48
f 48/66/45 10/15/15 11/14/14 47/65/46
f 8/1/1 20/29/29 69/67/41 49/68/40
f 8/1/1 49/68/40 50/69/51 7/2/2
f 7/2/2 50/69/51 51/70/53 6/3/3
f 6/3/3 51/70/53 52/71/55 5/4/4
f 53/72/34 4/5/5 18/26/26 73/73/35
f 4/5/5 53/72/34 54/74/57 3/6/6
f 3/6/6 54/74/57 55/75/59 2/7/7
f 2/7/7 55/75/59 44/76/61 1/8/8
f 35/44/44 34/47/47 33/49/49 32/39/39
f 62/77/62 74/78/63 75/79/64
f 40/60/60 43/58/58 42/56/56 41/33/33
f 57/80/65 63/81/66 62/77/62 56/82/67
f 13/17/17 17/21/21 63/83/66 57/84/65
f 59/85/68 67/86/69 66/87/70 58/88/71
f 15/30/30 21/31/31 67/89/69 59/90/68
f 70/91/72 60/92/73 61/93/74 71/94/75
f 14/27/27 19/28/28 71/95/75 61/96/74
f 63/81/66 44/61/61 40/60/60 62/77/62
f 17/21/21 1/8/8 44/76/61 63/83/66
f 65/37/37 57/80/65 56/82/67 64/38/38
f 16/9/9 13/17/17 57/84/65 65/62/37
f 67/86/69 48/45/45 35/44/44 66/87/70
f 21/31/31 10/15/15 48/66/45 67/89/69
f 69/41/41 59/85/68 58/88/71 68/42/42
f 20/29/29 15/30/30 59/90/68 69/67/41
f 39/54/54 70/91/72 71/94/75 52/55/55
f 19/28/28 5/4/4 52/71/55 71/95/75
f 60/92/73 72/32/32 73/35/35 61/93/74
f 18/26/26 14/27/27 61/96/74 73/73/35
f 76/97/76 75/79/64 74/78/63
f 62/77/62 40/60/60 74/78/63
f 56/82/67 75/79/64 77/98/77
f 76/97/76 80/99/78 75/79/64
f 81/100/79 80/99/78 76/97/76
f 64/38/38 56/82/67 77/98/77
f 32/39/39 64/38/38 79/101/80
f 64/38/38 77/98/77 79/101/80
f 78/102/81 79/101/80 77/98/77
f 80/99/78 78/102/81 77/98/77
f 81/100/79 82/103/82 80/99/78
f 83/104/83 82/103/82 81/100/79
f 32/39/39 79/101/80 35/44/44
f 66/87/70 35/44/44 79/101/80
f 78/102/81 66/87/70 79/101/80
f 58/88/71 66/87/70 78/102/81
f 82/103/82 58/88/71 78/102/81
f 83/104/83 68/42/42 82/103/82
f 36/43/43 68/42/42 83/104/83
f 39/54/54 36/43/43 83/104/83
f 70/91/72 39/54/54 83/104/83
f 70/91/72 83/104/83 81/100/79
f 60/92/73 70/91/72 81/100/79
f 60/92/73 81/100/79 76/97/76
f 72/32/32 60/92/73 76/97/76
f 72/32/32 76/97/76 74/78/63
f 41/33/33 72/32/32 74/78/63
f 40/60/60 41/33/33 74/78/63
f 56/82/67 62/77/62 75/79/64
f 80/99/78 77/98/77 75/79/64
f 82/103/82 78/102/81 80/99/78
f 68/42/42 58/88/71 82/103/82
