# This file uses centimeters as units for non-parametric coordinates.

mtllib TopLock.mtl
g default
v -3.792243 22.561638 18.392206
v -4.250000 22.518864 17.818930
v -3.792243 22.001003 18.068523
v -2.707757 22.001005 18.068523
v -2.250000 22.518864 17.818930
v -2.707757 22.561640 18.392206
v -3.792243 22.000999 -18.068523
v -4.250000 22.518860 -17.818928
v -3.792243 22.561634 -18.392204
v -2.707757 22.561634 -18.392204
v -2.250000 22.518860 -17.818928
v -2.707757 22.000999 -18.068523
v -3.779488 54.000252 0.332702
v -4.250000 53.540783 0.000000
v -3.779488 54.000252 -0.332702
v -2.707756 54.015877 0.323683
v -2.720512 54.000248 -0.332702
v -2.250000 53.540783 0.000000
vt 0.056521 0.354253
vt 0.056521 0.359484
vt 0.166535 0.457225
vt 0.172247 0.459938
vt 0.048148 0.359346
vt 0.048247 0.354251
vt 0.108123 0.318779
vt 0.247388 0.317658
vt 0.248822 0.320455
vt 0.169840 0.738493
vt 0.056620 0.642737
vt 0.056620 0.647794
vt 0.106755 0.321621
vt 0.048148 0.647794
vt 0.048148 0.642737
vt 0.056620 0.007740
vt 0.056620 0.012799
vt 0.104974 0.318607
vt 0.174486 0.195309
vt 0.048148 0.012797
vt 0.048148 0.930111
vt 0.250532 0.317333
vt 0.416944 0.598821
vt 0.164182 0.741187
vt 0.172824 0.453655
vt 0.177983 0.195275
vt 0.170199 0.744753
vt 0.411660 0.602267
vt 0.176261 0.197894
vt 0.416871 0.605824
vt 0.048148 0.007740
vt 0.056620 0.930111
vn -0.268854 0.468664 0.841470
vn -0.270374 0.490632 0.828358
vn -0.998805 0.048872 -0.000000
vn -0.998800 -0.023927 0.042739
vn -0.273450 0.490246 -0.827577
vn 0.271174 0.490745 0.828031
vn 0.273250 0.490319 -0.827600
vn -0.268286 -0.963254 0.012851
vn 0.268286 -0.963254 0.012851
vn 0.269692 0.468473 0.841308
vn -0.998800 -0.023927 -0.042739
vn -0.268285 -0.963254 -0.012851
vn 0.998816 -0.024265 0.042169
vn 0.998807 0.048830 0.000019
vn 0.268286 -0.963254 -0.012851
vn 0.998800 -0.023927 -0.042739
vn -0.270013 0.468454 -0.841215
vn 0.270014 0.468454 -0.841215
s 1
g TopLock
usemtl blinn3SG
f 1/24/1 13/3/2 14/4/3 2/10/4
f 15/1/5 13/2/2 16/5/6 17/6/7
f 1/11/1 3/12/8 4/14/9 6/15/10
f 3/27/8 2/10/4 8/28/11 7/30/12
f 5/7/13 18/8/14 16/9/6 6/13/10
f 5/7/13 4/18/9 12/19/15 11/29/16
f 8/28/11 14/4/3 15/25/5 9/23/17
f 7/16/12 9/17/17 10/20/18 12/31/15
f 10/26/18 17/22/7 18/8/14 11/29/16
f 7/32/12 12/21/15 4/14/9 3/12/8
f 14/4/3 13/3/2 15/25/5
f 1/24/1 2/10/4 3/27/8
f 17/22/7 16/9/6 18/8/14
f 4/18/9 5/7/13 6/13/10
f 7/30/12 8/28/11 9/23/17
f 10/26/18 11/29/16 12/19/15
f 10/20/18 9/17/17 15/1/5 17/6/7
f 14/4/3 8/28/11 2/10/4
f 11/29/16 18/8/14 5/7/13
f 1/11/1 6/15/10 16/5/6 13/2/2
