# This file uses centimeters as units for non-parametric coordinates.

mtllib PotatoSweetMediumRLowerArm.mtl
g default
v 0.039713 -0.063307 0.452556
v 0.413050 -0.036030 0.438953
v -0.287095 -0.082328 0.442238
v 0.033245 -0.394687 0.312221
v -0.293606 -0.406086 0.305185
v 0.406739 -0.359628 0.301952
v 0.028641 -0.481407 -0.037236
v -0.298116 -0.490634 -0.036056
v 0.402242 -0.444158 -0.039160
v 0.027727 -0.340901 -0.368776
v -0.298992 -0.353563 -0.359824
v 0.401354 -0.307124 -0.362803
v 0.032358 0.008407 -0.455439
v -0.294278 -0.012296 -0.444440
v 0.405869 0.033975 -0.447390
v 0.038820 0.340036 -0.315084
v -0.287782 0.311383 -0.307396
v 0.412182 0.357572 -0.310392
v 0.043431 0.426508 0.034353
v -0.283254 0.395960 0.033849
v 0.416678 0.442104 0.030721
v 0.044337 0.286249 0.365914
v -0.282394 0.258859 0.357614
v 0.417567 0.305070 0.354363
v 0.807336 0.317182 0.353065
v 0.806452 0.453832 0.030330
v 0.801968 0.369538 -0.309825
v 0.795674 0.046848 -0.446439
v 0.791171 -0.293294 -0.362089
v 0.792056 -0.429944 -0.039355
v 0.796540 -0.345650 0.300800
v 0.802834 -0.022960 0.437414
v 1.233522 0.215296 0.261353
v 1.227751 0.318133 0.016955
v 1.227306 0.255446 -0.241029
v 1.234258 0.013848 -0.345143
v 1.243282 -0.241133 -0.281796
v 1.249053 -0.343970 -0.037400
v 1.249498 -0.281284 0.220585
v 1.242546 -0.039685 0.324699
v -0.656272 0.264059 0.368289
v -0.668431 -0.088035 0.456152
v -0.682532 -0.424727 0.314099
v -0.689334 -0.511001 -0.039383
v -0.688116 -0.370300 -0.375006
v -0.675874 -0.015467 -0.462653
v -0.661853 0.318485 -0.320816
v -0.654969 0.407359 0.032872
v -1.053872 0.318211 0.414597
v -1.081692 -0.075131 0.513184
v -1.111811 -0.451397 0.354281
v -1.123805 -0.547620 -0.041510
v -1.118062 -0.390445 -0.417431
v -1.090029 0.006138 -0.515765
v -1.060123 0.379163 -0.357114
v -1.047916 0.478625 0.038930
v 1.322509 0.000224 -0.007796
v 1.062794 0.296442 0.345297
v 1.074528 -0.032990 0.427091
v 1.083566 -0.345229 0.293017
v 1.083004 -0.426331 -0.039538
v 1.075537 -0.293520 -0.354616
v 1.063818 0.035936 -0.436293
v 1.054755 0.348123 -0.302140
v 1.055297 0.429210 0.030298
v -1.041064 0.382256 0.505465
v -0.948449 0.407842 -0.435773
v -0.954276 -0.489708 -0.456685
v -1.010367 -0.558589 0.390042
v -0.999582 -0.096155 0.638693
v -0.919041 0.524320 0.014375
v -0.990088 -0.019387 -0.587980
v -1.020481 -0.631924 -0.057879
v -1.109594 -0.522683 0.403161
v -1.130380 -0.095935 0.636710
v -1.186371 0.376077 0.505980
v -1.050915 0.516240 0.020743
v -1.163914 0.401320 -0.419391
v -1.123202 -0.020194 -0.573451
v -1.085679 -0.484223 -0.444016
v -1.150999 -0.675626 -0.050545
v -1.652744 -0.336564 0.240284
v -1.643737 0.182217 0.283959
v -1.653121 0.224867 -0.235949
v -1.660685 -0.293916 -0.278483
v -1.737208 -0.083433 0.354970
v -1.737465 0.295534 0.033513
v -1.749374 -0.025855 -0.346506
v -1.749119 -0.404822 -0.025050
v -1.859670 -0.053095 0.006722
v -1.391460 -0.437328 0.319419
v -1.385579 -0.096156 0.464917
v -1.383249 0.263051 0.376874
v -1.388070 0.409156 0.036343
v -1.393970 0.320627 -0.323462
v -1.399873 -0.019388 -0.468864
v -1.402182 -0.379752 -0.380916
v -1.397380 -0.524699 -0.040291
v -1.143793 -0.438111 0.344509
v -1.114634 -0.073836 0.498348
v -1.087700 0.306970 0.402903
v -1.081934 0.462272 0.039208
v -1.093752 0.365980 -0.344215
v -1.122705 0.004843 -0.497810
v -1.149845 -0.379102 -0.402609
v -1.155405 -0.531267 -0.038669
vt 0.098094 0.149496
vt 0.094909 0.130210
vt 0.116222 0.129408
vt 0.119608 0.147394
vt 0.137909 0.128483
vt 0.141264 0.144992
vt 0.145586 0.161168
vt 0.124070 0.165209
vt 0.102577 0.168770
vt 0.150449 0.176887
vt 0.129318 0.182993
vt 0.108006 0.188149
vt 0.151212 0.046528
vt 0.146010 0.062115
vt 0.125387 0.057515
vt 0.131311 0.039995
vt 0.104578 0.053042
vt 0.110943 0.034030
vt 0.141471 0.078190
vt 0.120400 0.075140
vt 0.099342 0.072105
vt 0.137983 0.094696
vt 0.116603 0.092980
vt 0.095536 0.091323
vt 0.137017 0.111578
vt 0.115472 0.111187
vt 0.094284 0.110755
vt 0.066820 0.131086
vt 0.066458 0.109907
vt 0.067690 0.088644
vt 0.071263 0.067663
vt 0.076707 0.046927
vt 0.084012 0.026710
vt 0.079793 0.194402
vt 0.073837 0.173416
vt 0.069546 0.152309
vt 0.049967 0.109547
vt 0.049451 0.131592
vt 0.038944 0.131788
vt 0.039424 0.108875
vt 0.040209 0.085952
vt 0.050634 0.087260
vt 0.043900 0.062901
vt 0.053866 0.064802
vt 0.049215 0.040151
vt 0.059175 0.042366
vt 0.056412 0.020284
vt 0.067933 0.021052
vt 0.062496 0.198573
vt 0.050705 0.198786
vt 0.045241 0.178232
vt 0.055542 0.176405
vt 0.041487 0.155115
vt 0.051800 0.153953
vt 0.170015 0.142126
vt 0.166440 0.127202
vt 0.174681 0.156425
vt 0.179293 0.170041
vt 0.173916 0.067062
vt 0.178306 0.053594
vt 0.169508 0.081273
vt 0.166186 0.096135
vt 0.165211 0.111664
vt 0.198092 0.138838
vt 0.193329 0.125494
vt 0.204617 0.151496
vt 0.211249 0.163935
vt 0.202314 0.070700
vt 0.207826 0.058198
vt 0.196540 0.083677
vt 0.192497 0.097248
vt 0.191372 0.111453
vt 0.025625 0.095338
vt 0.024914 0.122010
vt 0.025989 0.147569
vt 0.029424 0.170973
vt 0.035709 0.194035
vt 0.041484 0.022994
vt 0.032841 0.045643
vt 0.027883 0.069694
vt 0.232176 0.139488
vt 0.204617 0.151496
vt 0.198092 0.138838
vt 0.223846 0.130654
vt 0.193329 0.125494
vt 0.218009 0.121233
vt 0.191372 0.111453
vt 0.215666 0.110797
vt 0.192497 0.097248
vt 0.216290 0.100047
vt 0.196540 0.083677
vt 0.221339 0.089677
vt 0.202314 0.070700
vt 0.229006 0.079754
vt 0.207826 0.058198
vt 0.239261 0.069888
vt 0.242543 0.147047
vt 0.211249 0.163935
vt 0.842346 0.679638
vt 0.835883 0.705414
vt 0.831545 0.702080
vt 0.838087 0.681545
vt 0.813995 0.717048
vt 0.814545 0.711645
vt 0.791111 0.706936
vt 0.795105 0.702802
vt 0.777546 0.687797
vt 0.785606 0.686471
vt 0.787708 0.665669
vt 0.792221 0.669219
vt 0.808369 0.651597
vt 0.809785 0.657097
vt 0.830126 0.659133
vt 0.827452 0.663670
vt 0.812984 0.705726
vt 0.826835 0.698203
vt 0.797488 0.701042
vt 0.789638 0.687220
vt 0.794186 0.672014
vt 0.808443 0.662459
vt 0.823953 0.668419
vt 0.833488 0.682487
vt 0.392785 0.472143
vt 0.392679 0.483192
vt 0.413475 0.463609
vt 0.422121 0.470971
vt 0.421457 0.443217
vt 0.434061 0.441968
vt 0.413311 0.422738
vt 0.423244 0.412955
vt 0.372188 0.463908
vt 0.363651 0.442913
vt 0.377928 0.442278
vt 0.380015 0.454442
vt 0.372046 0.422213
vt 0.380958 0.430048
vt 0.393129 0.414198
vt 0.393497 0.428345
vt 0.413311 0.422738
vt 0.405175 0.431670
vt 0.421457 0.443217
vt 0.407005 0.443597
vt 0.413475 0.463609
vt 0.404164 0.455771
vt 0.392785 0.472143
vt 0.391667 0.457538
vt 0.392460 0.442874
vt 0.372188 0.463908
vt 0.362906 0.470826
vt 0.350959 0.440280
vt 0.363651 0.442913
vt 0.364060 0.410561
vt 0.372046 0.422213
vt 0.394440 0.399837
vt 0.393129 0.414198
vn 0.023702 -0.075503 0.996864
vn -0.013992 0.652685 0.757500
vn -0.038532 0.646911 0.761591
vn 0.010094 -0.080849 0.996675
vn -0.017333 0.644341 0.764542
vn 0.008242 -0.084622 0.996379
vn 0.033440 -0.763358 0.645110
vn 0.052835 -0.760904 0.646710
vn 0.059112 -0.758317 0.649201
vn 0.042544 -0.996056 -0.077865
vn 0.065110 -0.994797 -0.078354
vn 0.067472 -0.994504 -0.080054
vn 0.033395 -0.654239 -0.755551
vn 0.039506 -0.651058 -0.758000
vn 0.047345 -0.645474 -0.762313
vn 0.008094 0.072431 -0.997341
vn -0.009181 0.076670 -0.997014
vn 0.007455 0.081957 -0.996608
vn -0.017446 0.757901 -0.652137
vn -0.052396 0.759292 -0.648638
vn -0.025192 0.762237 -0.646807
vn -0.028813 0.996368 0.080127
vn -0.064790 0.994701 0.079828
vn -0.035167 0.996332 0.078006
vn 0.019062 0.653898 0.756342
vn 0.018737 0.996749 0.078364
vn 0.018415 0.764369 -0.644517
vn 0.016917 0.083006 -0.996406
vn 0.022576 -0.647681 -0.761577
vn 0.025623 -0.996564 -0.078766
vn 0.024589 -0.759358 0.650209
vn 0.018681 -0.075187 0.996994
vn 0.273450 0.958805 0.076929
vn 0.260543 0.623051 0.737513
vn 0.731364 0.454368 0.508583
vn 0.723642 0.688724 0.044728
vn 0.715502 0.532805 -0.451858
vn 0.254610 0.735988 -0.627293
vn 0.709542 0.067944 -0.701380
vn 0.204425 0.076749 -0.975869
vn 0.707601 -0.452060 -0.543086
vn 0.176900 -0.643583 -0.744652
vn 0.714736 -0.696255 -0.066186
vn 0.162263 -0.983711 -0.077349
vn 0.723431 -0.531003 0.441229
vn 0.186961 -0.750590 0.633767
vn 0.731691 -0.044350 0.680192
vn 0.216653 -0.080483 0.972925
vn 0.090199 -0.092056 0.991660
vn 0.109720 0.636252 0.763639
vn 0.082431 -0.766715 0.636673
vn 0.071334 -0.994275 -0.079559
vn 0.083892 -0.656049 -0.750041
vn 0.092850 0.064019 -0.993620
vn 0.112056 0.746344 -0.656059
vn 0.110370 0.990911 0.076896
vn 0.132918 -0.097297 0.986340
vn 0.173238 0.627510 0.759091
vn 0.107403 -0.768065 0.631300
vn 0.084933 -0.993137 -0.080413
vn 0.105144 -0.656944 -0.746572
vn 0.129793 0.058055 -0.989840
vn 0.171065 0.735784 -0.655254
vn 0.178214 0.981158 0.074626
vn 0.999292 0.036623 -0.008594
vn 0.744079 0.547502 -0.382870
vn 0.751462 0.482605 -0.449886
vn 0.843700 0.103915 -0.526661
vn 0.836832 0.116501 -0.534920
vn 0.852664 -0.426447 -0.301839
vn 0.873840 -0.365191 -0.320996
vn 0.524240 -0.851059 0.029521
vn 0.480006 -0.872995 0.086454
vn 0.486869 -0.724558 0.487825
vn 0.513500 -0.641596 0.569801
vn 0.532731 -0.063707 0.843884
vn 0.521403 0.009170 0.853261
vn 0.557251 0.493968 0.667434
vn 0.571994 0.564733 0.594895
vn 0.651302 0.752283 0.099380
vn 0.644873 0.753385 0.128643
vn 0.018144 -0.824674 0.565318
vn -0.022611 -0.089491 0.995731
vn -0.604850 -0.109120 0.788828
vn -0.529462 -0.620630 0.578349
vn -0.032194 0.734559 0.677781
vn -0.622809 0.582039 0.522819
vn -0.052573 0.998136 -0.030984
vn -0.302467 0.953156 -0.002772
vn -0.082310 0.754094 -0.651588
vn -0.404925 0.702493 -0.585269
vn -0.100772 0.067742 -0.992601
vn -0.406498 0.025889 -0.913285
vn -0.012956 -0.623174 -0.781976
vn -0.435725 -0.588130 -0.681357
vn 0.087032 -0.991133 -0.100402
vn -0.562911 -0.823799 -0.066977
vn -0.217873 -0.745380 0.630032
vn -0.231136 -0.077449 0.969834
vn -0.695819 -0.049437 0.716514
vn -0.575613 -0.616616 0.537080
vn -0.250885 0.628704 0.736062
vn -0.562326 0.533498 0.631798
vn -0.258357 0.962770 0.079533
vn -0.699450 0.711201 0.070444
vn -0.258953 0.738508 -0.622535
vn -0.581739 0.628061 -0.516837
vn -0.242658 0.081165 -0.966711
vn -0.719257 0.066855 -0.691520
vn -0.226279 -0.630479 -0.742492
vn -0.593494 -0.521798 -0.612774
vn -0.210237 -0.974420 -0.079414
vn -0.715939 -0.696633 -0.046187
vn -0.999723 0.014654 0.018427
vn -0.067949 -0.724046 0.686396
vn -0.117424 -0.026476 0.992729
vn -0.165470 0.675505 0.718549
vn -0.172336 0.981752 0.080392
vn -0.162381 0.781876 -0.601916
vn -0.112428 0.128989 -0.985252
vn -0.063513 -0.610279 -0.789636
vn -0.028588 -0.996515 -0.078361
vn -0.913043 -0.211976 -0.348452
vn -0.974895 -0.093308 -0.202170
vn -0.949015 -0.292249 -0.118158
vn -0.932881 -0.193786 0.303612
vn -0.981876 -0.161079 0.099866
vn -0.944106 -0.168950 -0.283053
vn -0.981359 -0.186435 -0.046643
vn -0.992134 -0.085404 0.091521
s 1
g FoodMediumRLowerArm
usemtl Potato_blinn2SG
f 2/1/1 24/2/2 22/3/3 1/4/4
f 1/4/4 22/3/3 23/5/5 3/6/6
f 3/6/6 5/7/7 4/8/8 1/4/4
f 1/4/4 4/8/8 6/9/9 2/1/1
f 5/7/7 8/10/10 7/11/11 4/8/8
f 4/8/8 7/11/11 9/12/12 6/9/9
f 8/13/10 11/14/13 10/15/14 7/16/11
f 7/16/11 10/15/14 12/17/15 9/18/12
f 11/14/13 14/19/16 13/20/17 10/15/14
f 10/15/14 13/20/17 15/21/18 12/17/15
f 14/19/16 17/22/19 16/23/20 13/20/17
f 13/20/17 16/23/20 18/24/21 15/21/18
f 17/22/19 20/25/22 19/26/23 16/23/20
f 16/23/20 19/26/23 21/27/24 18/24/21
f 20/25/22 23/5/5 22/3/3 19/26/23
f 19/26/23 22/3/3 24/2/2 21/27/24
f 24/2/2 25/28/25 26/29/26 21/27/24
f 21/27/24 26/29/26 27/30/27 18/24/21
f 18/24/21 27/30/27 28/31/28 15/21/18
f 15/21/18 28/31/28 29/32/29 12/17/15
f 12/17/15 29/32/29 30/33/30 9/18/12
f 9/12/12 30/34/30 31/35/31 6/9/9
f 6/9/9 31/35/31 32/36/32 2/1/1
f 2/1/1 32/36/32 25/28/25 24/2/2
f 65/37/33 58/38/34 33/39/35 34/40/36
f 65/37/33 34/40/36 35/41/37 64/42/38
f 64/42/38 35/41/37 36/43/39 63/44/40
f 63/44/40 36/43/39 37/45/41 62/46/42
f 62/46/42 37/45/41 38/47/43 61/48/44
f 61/49/44 38/50/43 39/51/45 60/52/46
f 60/52/46 39/51/45 40/53/47 59/54/48
f 59/54/48 40/53/47 33/39/35 58/38/34
f 42/55/49 3/6/6 23/5/5 41/56/50
f 43/57/51 5/7/7 3/6/6 42/55/49
f 44/58/52 8/10/10 5/7/7 43/57/51
f 45/59/53 11/14/13 8/13/10 44/60/52
f 46/61/54 14/19/16 11/14/13 45/59/53
f 47/62/55 17/22/19 14/19/16 46/61/54
f 48/63/56 20/25/22 17/22/19 47/62/55
f 41/56/50 23/5/5 20/25/22 48/63/56
f 50/64/57 42/55/49 41/56/50 49/65/58
f 51/66/59 43/57/51 42/55/49 50/64/57
f 52/67/60 44/58/52 43/57/51 51/66/59
f 53/68/61 45/59/53 44/60/52 52/69/60
f 54/70/62 46/61/54 45/59/53 53/68/61
f 55/71/63 47/62/55 46/61/54 54/70/62
f 56/72/64 48/63/56 47/62/55 55/71/63
f 49/65/58 41/56/50 48/63/56 56/72/64
f 34/40/36 57/73/65 35/41/37
f 33/39/35 57/74/65 34/40/36
f 40/53/47 57/75/65 33/39/35
f 39/51/45 57/76/65 40/53/47
f 38/50/43 57/77/65 39/51/45
f 37/45/41 57/78/65 38/47/43
f 36/43/39 57/79/65 37/45/41
f 35/41/37 57/80/65 36/43/39
f 32/36/32 59/54/48 58/38/34 25/28/25
f 31/35/31 60/52/46 59/54/48 32/36/32
f 30/34/30 61/49/44 60/52/46 31/35/31
f 29/32/29 62/46/42 61/48/44 30/33/30
f 28/31/28 63/44/40 62/46/42 29/32/29
f 27/30/27 64/42/38 63/44/40 28/31/28
f 26/29/26 65/37/33 64/42/38 27/30/27
f 25/28/25 58/38/34 65/37/33 26/29/26
s 2
f 69/81/66 51/82/67 50/83/68 70/84/69
f 70/84/69 50/83/68 49/85/70 66/86/71
f 66/86/71 49/85/70 56/87/72 71/88/73
f 71/88/73 56/87/72 55/89/74 67/90/75
f 67/90/75 55/89/74 54/91/76 72/92/77
f 72/92/77 54/91/76 53/93/78 68/94/79
f 68/94/79 53/93/78 52/95/80 73/96/81
f 73/97/81 52/98/80 51/82/67 69/81/66
s 3
f 69/99/82 70/100/83 75/101/84 74/102/85
f 70/100/83 66/103/86 76/104/87 75/101/84
f 66/103/86 71/105/88 77/106/89 76/104/87
f 71/105/88 67/107/90 78/108/91 77/106/89
f 67/107/90 72/109/92 79/110/93 78/108/91
f 72/109/92 68/111/94 80/112/95 79/110/93
f 68/111/94 73/113/96 81/114/97 80/112/95
f 73/113/96 69/99/82 74/102/85 81/114/97
s 4
f 91/131/98 92/132/99 86/133/100 82/134/101
f 92/132/99 93/135/102 83/136/103 86/133/100
f 93/135/102 94/137/104 87/138/105 83/136/103
f 94/137/104 95/139/106 84/140/107 87/138/105
f 95/139/106 96/141/108 88/142/109 84/140/107
f 96/141/108 97/143/110 85/144/111 88/142/109
f 97/143/110 98/145/112 89/146/113 85/144/111
f 98/145/112 91/131/98 82/134/101 89/146/113
f 82/134/101 86/133/100 90/147/114 89/146/113
f 89/146/113 90/147/114 88/142/109 85/144/111
f 90/147/114 87/138/105 84/140/107 88/142/109
f 86/133/100 83/136/103 87/138/105 90/147/114
f 91/148/98 99/149/115 100/150/116 92/151/99
f 92/151/99 100/150/116 101/152/117 93/153/102
f 93/153/102 101/152/117 102/154/118 94/155/104
f 94/155/104 102/154/118 103/130/119 95/129/106
f 95/129/106 103/130/119 104/128/120 96/127/108
f 96/127/108 104/128/120 105/126/121 97/125/110
f 97/125/110 105/126/121 106/124/122 98/123/112
f 98/123/112 106/124/122 99/149/115 91/148/98
s 3
f 75/101/84 76/104/87 101/115/123 100/116/124
f 76/104/87 77/106/89 102/117/125 101/115/123
f 77/106/89 78/108/91 103/118/126 102/117/125
f 78/108/91 79/110/93 104/119/127 103/118/126
f 79/110/93 80/112/95 105/120/128 104/119/127
f 80/112/95 81/114/97 106/121/129 105/120/128
f 81/114/97 74/102/85 99/122/130 106/121/129
f 74/102/85 75/101/84 100/116/124 99/122/130
