# This file uses centimeters as units for non-parametric coordinates.

mtllib PotatoSweetMediumLUpperArm.mtl
g default
v 0.923359 -0.260881 -0.285282
v 0.910286 0.257793 -0.242745
v 0.901444 0.215047 0.277165
v 0.915960 -0.303610 0.233487
v 1.009180 0.008108 -0.353320
v 0.650117 0.350792 -0.330214
v 0.993918 0.329353 0.026703
v 0.640127 0.293106 0.370124
v 0.997746 -0.049595 0.348159
v 0.655775 -0.407147 0.312667
v 1.013010 -0.370840 -0.031864
v 0.665765 -0.349461 -0.387670
v 0.659609 0.010859 -0.475618
v 0.643335 0.439254 0.029592
v 0.646291 -0.066056 0.458166
v 0.662563 -0.494450 -0.047044
v 1.119819 -0.017956 -0.000109
v -0.772834 0.023422 -0.461948
v -1.147477 0.035173 -0.329337
v -0.445994 0.006193 -0.451005
v -0.764473 -0.325817 -0.375285
v -0.437637 -0.335004 -0.366389
v -1.141612 -0.210054 -0.268514
v -0.763837 -0.466325 -0.043745
v -0.437000 -0.472076 -0.042621
v -1.141163 -0.308592 -0.035789
v -0.769303 -0.379658 0.305713
v -0.442351 -0.387579 0.298623
v -1.145001 -0.247847 0.209497
v -0.779271 -0.048365 0.446046
v -0.452281 -0.063910 0.435672
v -1.151997 -0.015216 0.308013
v -0.787627 0.301122 0.359408
v -0.460624 0.277208 0.351052
v -1.157863 0.230012 0.247186
v -0.788268 0.441382 0.027847
v -0.461278 0.414310 0.027288
v -1.158311 0.328551 0.014463
v -0.782797 0.354963 -0.321591
v -0.455909 0.329785 -0.313959
v -1.154474 0.267803 -0.230824
v -1.319567 0.021145 -0.010905
v -0.081936 0.340865 -0.327442
v -0.064389 0.007081 -0.469282
v -0.048360 -0.347603 -0.381638
v -0.045588 -0.488281 -0.046016
v -0.053247 -0.402084 0.307468
v -0.070903 -0.065560 0.449523
v -0.086821 0.286383 0.361662
v -0.089705 0.429660 0.026248
v 0.349429 0.392950 -0.350915
v 0.382194 0.032141 -0.504516
v 0.413433 -0.351494 -0.409320
v 0.420672 -0.503591 -0.045381
v 0.408136 -0.410563 0.337800
v 0.375131 -0.046618 0.491643
v 0.344132 0.333880 0.396203
v 0.336653 0.489112 0.032510
vt 0.239147 0.380404
vt 0.246170 0.389944
vt 0.241741 0.398112
vt 0.230875 0.389303
vt 0.235016 0.402711
vt 0.225099 0.398776
vt 0.236095 0.410238
vt 0.222799 0.409240
vt 0.233344 0.418114
vt 0.223479 0.420011
vt 0.240644 0.423265
vt 0.228591 0.430373
vt 0.244743 0.431723
vt 0.236301 0.440279
vt 0.255292 0.431514
vt 0.246607 0.450101
vt 0.249466 0.372790
vt 0.257909 0.391565
vt 0.250505 0.411086
vt 0.104641 0.370826
vt 0.126335 0.372814
vt 0.123262 0.390834
vt 0.101873 0.390083
vt 0.148111 0.375161
vt 0.144978 0.391737
vt 0.130518 0.354967
vt 0.152227 0.358930
vt 0.108784 0.351555
vt 0.135516 0.337129
vt 0.156911 0.343157
vt 0.113915 0.332127
vt 0.158536 0.474205
vt 0.138507 0.481033
vt 0.132818 0.463367
vt 0.153403 0.458576
vt 0.117855 0.487337
vt 0.112079 0.467902
vt 0.127991 0.445507
vt 0.148910 0.442387
vt 0.107154 0.448461
vt 0.124167 0.427458
vt 0.145390 0.425744
vt 0.103295 0.429024
vt 0.122821 0.409117
vt 0.144288 0.408735
vt 0.101692 0.409523
vt 0.205071 0.381214
vt 0.211502 0.368502
vt 0.200398 0.394610
vt 0.198525 0.408702
vt 0.199730 0.422949
vt 0.203839 0.436540
vt 0.209658 0.449517
vt 0.215202 0.462008
vt 0.218042 0.356015
vt 0.074862 0.420980
vt 0.073767 0.399927
vt 0.077634 0.442040
vt 0.081865 0.463102
vt 0.087156 0.484170
vt 0.077699 0.357770
vt 0.082493 0.336707
vt 0.074677 0.378867
vt 0.176948 0.377983
vt 0.173508 0.392973
vt 0.181483 0.363632
vt 0.185976 0.349978
vt 0.181279 0.453376
vt 0.185675 0.466856
vt 0.176850 0.439124
vt 0.173474 0.424195
vt 0.172404 0.408586
vn 0.232843 -0.628038 -0.742531
vn 0.241615 0.083740 -0.966752
vn 0.718388 0.074500 -0.691641
vn 0.598906 -0.515458 -0.612874
vn 0.250979 0.741219 -0.622579
vn 0.574942 0.634209 -0.516934
vn 0.248118 0.965463 0.079489
vn 0.691860 0.718598 0.070326
vn 0.244311 0.631337 0.736020
vn 0.556729 0.539447 0.631704
vn 0.232112 -0.074986 0.969795
vn 0.696427 -0.042035 0.716396
vn 0.225894 -0.743020 0.629994
vn 0.582228 -0.610460 0.536981
vn 0.220573 -0.972129 -0.079449
vn 0.723298 -0.688981 -0.046310
vn 0.999514 0.025284 0.018257
vn -0.475862 0.066942 -0.876969
vn -0.462282 0.673910 -0.576316
vn -0.121814 0.753288 -0.646311
vn -0.147607 0.073407 -0.986318
vn 0.009275 0.758044 -0.652138
vn -0.009033 0.072339 -0.997339
vn -0.026564 -0.654558 -0.755545
vn -0.188726 -0.640380 -0.744511
vn -0.507248 -0.557120 -0.657508
vn -0.031962 -0.996452 -0.077858
vn -0.203375 -0.975996 -0.077916
vn -0.516025 -0.853561 -0.071771
vn -0.025210 -0.763667 0.645118
vn -0.199689 -0.748111 0.632815
vn -0.519560 -0.652145 0.552055
vn -0.007174 -0.084702 0.996381
vn -0.163769 -0.082332 0.983057
vn -0.493727 -0.071150 0.866701
vn 0.010609 0.644488 0.764541
vn -0.133438 0.641230 0.755657
vn -0.475083 0.575075 0.666021
vn 0.018230 0.996618 0.080123
vn -0.105687 0.991308 0.078354
vn -0.450276 0.890411 0.066479
vn -0.006539 -0.642491 -0.766266
vn -0.007791 0.087580 -0.996127
vn -0.013869 0.766558 -0.642025
vn -0.016079 0.996755 0.078873
vn -0.016539 0.656593 0.754063
vn -0.011025 -0.069793 0.997501
vn -0.008440 -0.754947 0.655731
vn -0.007503 -0.996828 -0.079234
vn -0.999835 -0.016165 -0.008316
vn -0.067084 0.065630 -0.995586
vn -0.091005 0.748682 -0.656654
vn -0.050511 -0.656481 -0.752650
vn -0.037782 -0.996097 -0.079776
vn -0.050334 -0.767695 0.638836
vn -0.066351 -0.090966 0.993641
vn -0.090167 0.638418 0.764390
vn -0.094416 0.992551 0.077000
s 1
g FoodMediumLUpperArm
usemtl Potato_blinn2SG
f 12/1/1 13/4/2 5/3/3 1/2/4
f 13/4/2 6/6/5 2/5/6 5/3/3
f 6/6/5 14/8/7 7/7/8 2/5/6
f 14/8/7 8/10/9 3/9/10 7/7/8
f 8/10/9 15/12/11 9/11/12 3/9/10
f 15/12/11 10/14/13 4/13/14 9/11/12
f 10/14/13 16/16/15 11/15/16 4/13/14
f 16/17/15 12/1/1 1/2/4 11/18/16
f 1/2/4 5/3/3 17/19/17 11/18/16
f 11/15/16 17/19/17 9/11/12 4/13/14
f 17/19/17 7/7/8 3/9/10 9/11/12
f 5/3/3 2/5/6 7/7/8 17/19/17
f 19/20/18 41/23/19 39/22/20 18/21/21
f 18/21/21 39/22/20 40/25/22 20/24/23
f 20/24/23 22/27/24 21/26/25 18/21/21
f 18/21/21 21/26/25 23/28/26 19/20/18
f 22/27/24 25/30/27 24/29/28 21/26/25
f 21/26/25 24/29/28 26/31/29 23/28/26
f 25/32/27 28/35/30 27/34/31 24/33/28
f 24/33/28 27/34/31 29/37/32 26/36/29
f 28/35/30 31/39/33 30/38/34 27/34/31
f 27/34/31 30/38/34 32/40/35 29/37/32
f 31/39/33 34/42/36 33/41/37 30/38/34
f 30/38/34 33/41/37 35/43/38 32/40/35
f 34/42/36 37/45/39 36/44/40 33/41/37
f 33/41/37 36/44/40 38/46/41 35/43/38
f 37/45/39 40/25/22 39/22/20 36/44/40
f 36/44/40 39/22/20 41/23/19 38/46/41
f 12/1/1 53/48/42 52/47/43 13/4/2
f 13/4/2 52/47/43 51/49/44 6/6/5
f 6/6/5 51/49/44 58/50/45 14/8/7
f 14/8/7 58/50/45 57/51/46 8/10/9
f 8/10/9 57/51/46 56/52/47 15/12/11
f 15/12/11 56/52/47 55/53/48 10/14/13
f 10/14/13 55/53/48 54/54/49 16/16/15
f 16/17/15 54/55/49 53/48/42 12/1/1
f 41/23/19 42/57/50 38/46/41
f 38/46/41 42/56/50 35/43/38
f 35/43/38 42/58/50 32/40/35
f 32/40/35 42/59/50 29/37/32
f 29/37/32 42/60/50 26/36/29
f 26/31/29 42/62/50 23/28/26
f 23/28/26 42/61/50 19/20/18
f 19/20/18 42/63/50 41/23/19
f 44/64/51 20/24/23 40/25/22 43/65/52
f 45/66/53 22/27/24 20/24/23 44/64/51
f 46/67/54 25/30/27 22/27/24 45/66/53
f 47/68/55 28/35/30 25/32/27 46/69/54
f 48/70/56 31/39/33 28/35/30 47/68/55
f 49/71/57 34/42/36 31/39/33 48/70/56
f 50/72/58 37/45/39 34/42/36 49/71/57
f 43/65/52 40/25/22 37/45/39 50/72/58
f 52/47/43 44/64/51 43/65/52 51/49/44
f 53/48/42 45/66/53 44/64/51 52/47/43
f 54/55/49 46/67/54 45/66/53 53/48/42
f 55/53/48 47/68/55 46/69/54 54/54/49
f 56/52/47 48/70/56 47/68/55 55/53/48
f 57/51/46 49/71/57 48/70/56 56/52/47
f 58/50/45 50/72/58 49/71/57 57/51/46
f 51/49/44 43/65/52 50/72/58 58/50/45
