# This file uses centimeters as units for non-parametric coordinates.

mtllib OliveTallLUpperArm.mtl
g default
v 0.931779 -0.279873 0.010426
v 0.436674 -0.346864 0.019002
v -0.060979 -0.278749 0.022173
v -0.556634 -0.316552 0.029582
v -1.052274 -0.355280 0.037028
v -1.549892 -0.288214 0.039419
v -1.708031 -0.017741 0.031236
v -1.561200 0.311355 0.015426
v -1.065427 0.342109 0.009121
v -0.569024 0.340393 0.003293
v -0.072560 0.335278 -0.002398
v 0.423949 0.327833 -0.007997
v 0.920478 0.319300 -0.013552
v 1.535953 -0.287689 -0.394939
v 1.496660 -0.285047 -0.413355
v 1.493650 -0.322872 -0.392883
v 1.493199 -0.337341 -0.350906
v 1.533913 -0.324830 -0.350416
v 1.553307 -0.287326 -0.354071
v 1.549453 -0.315771 0.004433
v 1.569237 -0.276935 0.002752
v 1.507844 -0.328871 0.005197
v 1.582241 0.239368 0.375392
v 1.595903 0.198250 0.374214
v 1.578758 0.198538 0.414264
v 1.538392 0.201169 0.431222
v 1.541458 0.241494 0.415663
v 1.543289 0.258924 0.376097
v 1.542340 -0.296076 0.359299
v 1.501663 -0.308449 0.361760
v 1.503099 -0.290636 0.402419
v 1.506560 -0.251290 0.419710
v 1.545405 -0.255463 0.400638
v 1.561783 -0.258424 0.359467
v 0.927418 -0.267320 -0.429220
v 0.927672 -0.227977 -0.448327
v 0.929065 -0.282886 -0.388409
v 1.572909 0.207731 -0.410402
v 1.533934 0.227204 -0.411751
v 1.531182 0.206651 -0.449734
v 1.527785 0.165209 -0.461928
v 1.568544 0.163910 -0.445776
v 1.586635 0.166825 -0.406250
v 0.937837 -0.231449 0.447588
v 0.938498 -0.190696 0.463451
v 0.938555 -0.250276 0.408151
v -1.555856 0.282421 0.398426
v -1.555426 0.245272 0.412558
v -1.556212 0.298861 0.362240
v -1.564916 0.251739 -0.364030
v -1.564424 0.271034 -0.329284
v -1.564793 0.213575 -0.375137
v -1.059671 0.310219 0.430761
v -1.059891 0.328533 0.391165
v -1.059556 0.269121 0.445395
v -0.563334 0.309329 0.430244
v -0.563517 0.269334 0.446886
v -0.563415 0.326813 0.390611
v -1.069639 0.276242 -0.408611
v -1.069836 0.234101 -0.419889
v -1.068937 0.297691 -0.370631
v -0.573426 0.275027 -0.419786
v -0.572587 0.295645 -0.381699
v -0.573958 0.233825 -0.433150
v -0.066932 0.304020 0.426914
v -0.066911 0.321854 0.387282
v -0.067354 0.263516 0.442663
v 0.429548 0.296573 0.424078
v 0.428988 0.255933 0.439583
v 0.429615 0.314495 0.384439
v -0.077083 0.269581 -0.427826
v -0.077838 0.227942 -0.440257
v -0.076141 0.290542 -0.389768
v 0.419332 0.261906 -0.436174
v 0.420321 0.282957 -0.398119
v 0.418444 0.220153 -0.448347
v -0.055825 -0.232406 0.418190
v -0.054511 -0.192273 0.434443
v -0.056331 -0.251088 0.379280
v 0.450402 -0.302945 0.408042
v 0.440198 -0.321415 0.366846
v 0.474110 -0.263556 0.425206
v -0.556782 -0.269105 0.438899
v -0.570390 -0.230107 0.454913
v -0.550400 -0.287310 0.399986
v -0.065258 -0.264939 -0.376274
v -0.064365 -0.226244 -0.395737
v -0.064837 -0.280400 -0.335969
v 0.441132 -0.334682 -0.372508
v 0.464367 -0.296818 -0.393346
v 0.431935 -0.349738 -0.329721
v -0.566540 -0.302565 -0.382076
v -0.580587 -0.264963 -0.400854
v -0.559209 -0.317561 -0.341974
v -1.043812 -0.311351 0.397046
v -1.048973 -0.329857 0.357399
v -1.032275 -0.271715 0.414064
v -1.548838 -0.246683 0.385453
v -1.556315 -0.210790 0.401198
v -1.545792 -0.263437 0.349496
v -1.052439 -0.340516 -0.325463
v -1.041261 -0.302384 -0.345883
v -1.056790 -0.355758 -0.284337
v -1.557077 -0.274618 -0.308760
v -1.564970 -0.240098 -0.327156
v -1.553135 -0.288429 -0.271653
v 0.924180 0.288953 0.423185
v 0.923951 0.249465 0.440793
v 0.921068 0.306101 0.383494
v 1.589009 0.247706 -0.018619
v 1.602605 0.206353 -0.017125
v 1.550232 0.267421 -0.018951
v 0.913843 0.253961 -0.446404
v 0.913243 0.213187 -0.460772
v 0.911638 0.274248 -0.408157
v 1.526358 -0.318347 -0.384520
v 1.573851 0.231843 0.407865
v 1.535592 -0.286848 0.392946
v 1.563758 0.197627 -0.441957
vt 0.171185 0.450895
vt 0.171811 0.454261
vt 0.135216 0.457474
vt 0.134968 0.454029
vt 0.126190 0.495137
vt 0.122793 0.494536
vt 0.127335 0.460537
vt 0.130657 0.461337
vt 0.178056 0.451023
vt 0.174555 0.450848
vt 0.170157 0.405945
vt 0.173526 0.406584
vt 0.166828 0.405392
vt 0.122632 0.497836
vt 0.096611 0.498495
vt 0.096162 0.495091
vt 0.178254 0.454352
vt 0.205957 0.450821
vt 0.206051 0.454247
vt 0.070554 0.500528
vt 0.069903 0.497237
vt 0.232969 0.449114
vt 0.232984 0.452464
vt 0.064217 0.459029
vt 0.064490 0.455462
vt 0.095871 0.454792
vt 0.095360 0.457863
vt 0.064848 0.451957
vt 0.096317 0.451699
vt 0.058339 0.451333
vt 0.058621 0.454782
vt 0.024486 0.457928
vt 0.024162 0.454530
vt 0.060853 0.459334
vt 0.066501 0.497898
vt 0.061589 0.451580
vt 0.061127 0.403497
vt 0.064467 0.403829
vt 0.057788 0.403069
vt 0.020768 0.454991
vt 0.019675 0.407648
vt 0.023101 0.407811
vt 0.236424 0.449343
vt 0.235771 0.406237
vt 0.239074 0.407011
vt 0.175368 0.367383
vt 0.178708 0.367267
vt 0.172207 0.368402
vt 0.128070 0.453723
vt 0.127740 0.457140
vt 0.131481 0.453952
vt 0.129510 0.404326
vt 0.132778 0.405019
vt 0.126260 0.403421
vt 0.013145 0.368410
vt 0.016562 0.370607
vt 0.233234 0.368129
vt 0.236680 0.369745
vt 0.075520 0.170824
vt 0.133960 0.172055
vt 0.065125 0.209043
vt 0.061729 0.208332
vt 0.068527 0.209737
vt 0.063398 0.247579
vt 0.059995 0.246855
vt 0.066806 0.248285
vt 0.132914 0.210371
vt 0.129474 0.209800
vt 0.136357 0.210924
vt 0.131449 0.248933
vt 0.128026 0.248322
vt 0.134871 0.249537
vt 0.061802 0.286631
vt 0.058425 0.285984
vt 0.065183 0.287274
vt 0.060700 0.325716
vt 0.057247 0.325141
vt 0.064148 0.326309
vt 0.130341 0.287508
vt 0.126964 0.286887
vt 0.133717 0.288118
vt 0.129953 0.325998
vt 0.126517 0.325435
vt 0.133396 0.326535
vt 0.060671 0.364626
vt 0.057256 0.364014
vt 0.064080 0.365259
vt 0.129158 0.365236
vt 0.125849 0.364558
vt 0.132464 0.365890
vt 0.020686 0.326998
vt 0.017301 0.326522
vt 0.015552 0.285214
vt 0.018859 0.284925
vt 0.238513 0.330263
vt 0.235219 0.329492
vt 0.238037 0.290523
vt 0.241365 0.290909
vt 0.013864 0.245931
vt 0.017156 0.247558
vt 0.235855 0.250671
vt 0.239247 0.251699
vt 0.170369 0.327146
vt 0.173904 0.327648
vt 0.177433 0.328232
vt 0.176398 0.288310
vt 0.179632 0.289417
vt 0.173206 0.286771
vt 0.181268 0.250348
vt 0.184685 0.250514
vt 0.177893 0.250594
vt 0.018648 0.205330
vt 0.021949 0.205552
vt 0.238025 0.210173
vt 0.241408 0.210437
vt 0.019452 0.166579
vt 0.228758 0.170055
vt 0.180215 0.210830
vt 0.183678 0.211609
vt 0.176798 0.209726
vt 0.183864 0.171568
vt 0.098973 0.209932
vt 0.097410 0.248359
vt 0.096082 0.287014
vt 0.095370 0.325755
vt 0.095167 0.364683
vt 0.205729 0.366885
vt 0.206622 0.328341
vt 0.208827 0.289466
vt 0.210311 0.250335
vt 0.211041 0.210790
vt 0.095783 0.403619
vt 0.204517 0.405385
vt 0.125333 0.497660
vt 0.174796 0.453644
vt 0.061424 0.454992
vt 0.067705 0.500484
vt 0.235686 0.451998
vt 0.021673 0.457742
vt 0.131139 0.457427
vn 0.047580 -0.107700 -0.993044
vn 0.047021 -0.039719 -0.998104
vn 0.385388 -0.106963 -0.916534
vn 0.384790 -0.149423 -0.910829
vn 0.910002 -0.130582 -0.393502
vn 0.913103 -0.090373 -0.397587
vn 0.995984 -0.045194 -0.077292
vn 0.991810 -0.106379 -0.070691
vn -0.066615 -0.997652 -0.015933
vn 0.011416 -0.999515 -0.028967
vn 0.004646 -0.940912 -0.338620
vn -0.054040 -0.939861 -0.337257
vn 0.027892 -0.456880 -0.889091
vn -0.012560 -0.453556 -0.891139
vn -0.017879 -0.098517 -0.994975
vn 0.994541 -0.104068 -0.007605
vn 0.889507 -0.456853 0.007878
vn 0.888169 -0.456821 -0.049700
vn 0.294248 -0.955660 -0.011523
vn 0.297278 -0.954141 0.035231
vn -0.064463 -0.997062 0.041367
vn 0.993306 -0.101318 0.055480
vn 0.889457 -0.452317 0.065391
vn 0.295024 -0.951985 0.081766
vn -0.065523 -0.992978 0.098500
vn 0.997578 -0.039791 0.057049
vn 0.999272 -0.036699 -0.010386
vn 0.949690 0.312282 -0.023845
vn 0.949505 0.310176 0.047237
vn 0.448164 0.892529 0.050401
vn 0.451125 0.891507 -0.041253
vn 0.103381 0.993787 -0.041230
vn 0.102335 0.992763 0.062851
vn 0.070713 0.040522 0.996673
vn 0.071210 -0.027713 0.997076
vn 0.406413 -0.076214 0.910505
vn 0.407118 -0.033404 0.912765
vn 0.922372 -0.059048 0.381763
vn 0.919207 -0.099458 0.381007
vn 0.051756 0.996419 0.066860
vn 0.050013 0.914953 0.400449
vn 0.089807 0.913658 0.396440
vn 0.057877 0.377609 0.924155
vn 0.025457 0.381957 0.923829
vn 0.005183 0.043489 0.999041
vn 0.005818 -0.018290 0.999816
vn 0.008989 -0.380356 0.924796
vn 0.049180 -0.383879 0.922073
vn -0.045620 -0.909433 0.413341
vn 0.013526 -0.910401 0.413506
vn 0.012967 -0.993859 0.109894
vn 0.001180 -0.999610 -0.027915
vn -0.004224 -0.938455 -0.345375
vn -0.051531 -0.450728 -0.891173
vn -0.040629 -0.123473 -0.991516
vn 0.099880 0.984401 -0.144840
vn 0.445996 0.885158 -0.132601
vn 0.947816 0.304484 -0.094520
vn -0.018557 -0.036893 -0.999147
vn 0.003164 0.306478 -0.951872
vn 0.035593 0.302093 -0.952614
vn 0.079529 0.878737 -0.470634
vn 0.039614 0.879761 -0.473763
vn 0.049187 0.987773 -0.147937
vn -0.016980 -0.043454 0.998911
vn -0.030008 -0.377429 0.925552
vn 0.004939 -0.907330 0.420390
vn 0.002798 -0.994016 0.109195
vn -0.927194 -0.009005 0.374472
vn -0.244284 -0.011933 0.969630
vn -0.355118 0.320257 0.878252
vn -0.913938 0.405818 -0.005425
vn -0.314355 0.861903 0.397875
vn -0.234213 0.969104 0.077341
vn -0.044600 -0.003354 0.998999
vn -0.038979 0.352165 0.935126
vn -0.036291 0.909477 0.414168
vn -0.028472 0.996706 0.075938
vn -0.236522 0.960019 -0.149738
vn -0.323492 0.827671 -0.458599
vn -0.936327 -0.038047 -0.349063
vn -0.374874 0.249160 -0.892966
vn -0.265619 -0.089535 -0.959912
vn -0.031021 0.987379 -0.155305
vn -0.046220 0.873193 -0.485178
vn -0.059912 0.275904 -0.959316
vn -0.066650 -0.083525 -0.994274
vn -0.008567 0.019025 0.999782
vn 0.005282 0.366529 0.930392
vn 0.007506 0.912349 0.409344
vn 0.007197 0.997287 0.073265
vn 0.017007 0.019514 0.999665
vn 0.011122 0.366246 0.930452
vn 0.014059 0.912412 0.409032
vn 0.013050 0.997300 0.072262
vn 0.004424 0.988131 -0.153550
vn -0.003211 0.876403 -0.481567
vn -0.017186 0.290553 -0.956704
vn -0.032292 -0.061324 -0.997595
vn 0.010355 0.988238 -0.152574
vn 0.003438 0.876538 -0.481321
vn -0.011323 0.290307 -0.956867
vn -0.006728 -0.060850 -0.998124
vn -0.011356 0.021639 0.999701
vn 0.008080 0.370580 0.928765
vn 0.015775 0.913076 0.407485
vn 0.016332 0.997326 0.071233
vn 0.013660 0.988352 -0.151573
vn 0.005194 0.877355 -0.479814
vn -0.014315 0.294763 -0.955463
vn -0.035084 -0.058708 -0.997659
vn 0.016840 -0.039189 0.999090
vn -0.010827 -0.040937 0.999103
vn 0.019321 -0.376838 0.926078
vn 0.013335 -0.373693 0.927457
vn -0.016560 -0.901020 0.433461
vn 0.061423 -0.901878 0.427603
vn 0.076418 -0.990003 0.118552
vn -0.026828 -0.992722 0.117405
vn -0.045917 -0.064358 0.996870
vn -0.060343 -0.391496 0.918199
vn -0.033515 -0.904854 0.424401
vn -0.022509 -0.992931 0.116540
vn -0.006820 -0.119300 -0.992835
vn -0.008272 -0.447218 -0.894387
vn -0.025929 -0.933227 -0.358351
vn -0.028609 -0.998963 -0.035426
vn 0.074305 -0.996455 -0.039459
vn 0.051737 -0.933664 -0.354394
vn -0.002426 -0.450173 -0.892938
vn -0.034486 -0.121024 -0.992050
vn -0.024537 -0.999074 -0.035348
vn -0.042423 -0.936136 -0.349071
vn -0.080181 -0.464044 -0.882176
vn -0.067986 -0.144160 -0.987216
vn -0.259275 -0.067659 0.963431
vn -0.302371 -0.418791 0.856263
vn -0.318353 -0.864786 0.388326
vn -0.267216 -0.955890 0.121944
vn -0.863906 -0.502730 0.030480
vn -0.269054 -0.962359 -0.038411
vn -0.326245 -0.893091 -0.309762
vn -0.320842 -0.486422 -0.812683
vn -0.280454 -0.144583 -0.948916
vn -0.305868 0.951436 -0.034841
vn 0.006167 0.999164 -0.040413
vn -0.029007 0.998780 -0.039962
vn 0.015414 0.999064 -0.040429
vn 0.011959 0.999111 -0.040418
vn -0.029393 -0.998721 0.041147
vn 0.002815 -0.999166 0.040747
vn -0.023264 -0.998901 0.040700
vn 0.076999 -0.996242 0.039656
vn -0.324997 -0.944787 0.041889
vn 0.051400 0.997845 -0.040782
vn 0.014435 -0.999072 0.040575
vn 0.847673 -0.425841 -0.316401
vn 0.323435 -0.437923 -0.838817
vn 0.248812 -0.927590 -0.278692
vn 0.390299 0.851431 0.350332
vn 0.905218 0.249957 0.343660
vn 0.350995 0.275649 0.894886
vn 0.855257 -0.399931 0.329531
vn 0.255862 -0.902413 0.346677
vn 0.343503 -0.369436 0.863437
vn 0.896552 0.220707 -0.384035
vn 0.381079 0.820117 -0.426834
vn 0.329424 0.202559 -0.922199
s 1
g FoodTallLUpperArm
usemtl Eye_blinn1SG
f 15/1/1 41/4/2 42/3/3 14/2/4
s 2
f 14/5/5 42/8/6 43/7/7 19/6/8
s 3
f 17/9/9 37/12/10 35/11/11 16/10/12
s 1
f 16/10/13 35/11/14 36/13/15 15/1/1
s 2
f 19/6/8 21/16/16 20/15/17 18/14/18
s 3
f 18/17/19 20/19/20 22/18/21 17/9/9
s 2
f 21/16/16 34/21/22 29/20/23 20/15/17
s 3
f 20/19/20 29/23/24 30/22/25 22/18/21
s 2
f 24/24/26 111/27/27 110/26/28 23/25/29
s 6
f 23/25/30 110/26/31 112/29/32 28/28/33
s 7
f 26/30/34 32/33/35 33/32/36 25/31/37
s 2
f 25/34/38 33/35/39 34/21/22 24/24/26
s 6
f 28/28/33 109/38/40 107/37/41 27/36/42
s 7
f 27/36/43 107/37/44 108/39/45 26/30/34
f 32/33/35 45/42/46 44/41/47 31/40/48
s 3
f 31/43/49 44/45/50 46/44/51 30/22/25
f 37/12/10 91/47/52 89/46/53 35/11/11
s 1
f 35/11/14 89/46/54 90/48/55 36/13/15
s 6
f 39/49/56 112/29/32 110/26/31 38/50/57
s 2
f 38/50/58 110/26/28 111/27/27 43/7/7
s 1
f 41/4/2 114/53/59 113/52/60 40/51/61
s 6
f 40/51/62 113/52/63 115/54/64 39/49/56
s 7
f 45/42/46 82/56/65 80/55/66 44/41/47
s 3
f 44/45/50 80/58/67 81/57/68 46/44/51
s 7
f 7/59/69 48/62/70 47/61/71
s 6
f 7/59/72 47/61/73 49/63/74
s 7
f 48/62/70 55/65/75 53/64/76 47/61/71
s 6
f 47/61/73 53/64/77 54/66/78 49/63/74
f 7/60/72 51/68/79 50/67/80
s 1
f 7/60/81 50/67/82 52/69/83
s 6
f 51/68/79 61/71/84 59/70/85 50/67/80
s 1
f 50/67/82 59/70/86 60/72/87 52/69/83
s 7
f 55/65/75 57/74/88 56/73/89 53/64/76
s 6
f 53/64/77 56/73/90 58/75/91 54/66/78
s 7
f 57/74/88 67/77/92 65/76/93 56/73/89
s 6
f 56/73/90 65/76/94 66/78/95 58/75/91
f 61/71/84 63/80/96 62/79/97 59/70/85
s 1
f 59/70/86 62/79/98 64/81/99 60/72/87
s 6
f 63/80/96 73/83/100 71/82/101 62/79/97
s 1
f 62/79/98 71/82/102 72/84/103 64/81/99
s 7
f 67/77/92 69/86/104 68/85/105 65/76/93
s 6
f 65/76/94 68/85/106 70/87/107 66/78/95
s 7
f 69/86/104 108/39/45 107/37/44 68/85/105
s 6
f 68/85/106 107/37/41 109/38/40 70/87/107
f 73/83/100 75/89/108 74/88/109 71/82/101
s 1
f 71/82/102 74/88/110 76/90/111 72/84/103
s 6
f 75/89/108 115/54/64 113/52/63 74/88/109
s 1
f 74/88/110 113/52/60 114/53/59 76/90/111
s 7
f 78/91/112 84/94/113 83/93/114 77/92/115
s 3
f 77/95/116 83/98/117 85/97/118 79/96/119
f 79/96/119 81/57/68 80/58/67 77/95/116
s 7
f 77/92/115 80/55/66 82/56/65 78/91/112
f 84/94/113 97/100/120 95/99/121 83/93/114
s 3
f 83/98/117 95/102/122 96/101/123 85/97/118
s 1
f 87/103/124 90/48/55 89/46/54 86/104/125
s 3
f 86/104/126 89/46/53 91/47/52 88/105/127
f 88/105/127 94/107/128 92/106/129 86/104/126
s 1
f 86/104/125 92/106/130 93/108/131 87/103/124
s 3
f 94/107/128 103/110/132 101/109/133 92/106/129
s 1
f 92/106/130 101/109/134 102/111/135 93/108/131
s 7
f 97/100/120 99/113/136 98/112/137 95/99/121
s 3
f 95/102/122 98/115/138 100/114/139 96/101/123
s 7
f 99/113/136 7/116/69 98/112/137
s 3
f 98/115/138 7/117/140 100/114/139
f 103/110/132 106/119/141 104/118/142 101/109/133
s 1
f 101/109/134 104/118/143 105/120/144 102/111/135
s 3
f 106/119/141 7/121/140 104/118/142
s 1
f 104/118/143 7/121/81 105/120/144
s 6
f 7/59/72 49/63/74 8/122/145
f 58/75/91 10/124/146 9/123/147 54/66/78
f 70/87/107 12/126/148 11/125/149 66/78/95
s 3
f 79/96/119 3/128/150 2/127/151 81/57/68
f 96/101/123 5/130/152 4/129/153 85/97/118
f 6/131/154 100/114/139 7/117/140
s 1
f 87/103/124 72/84/103 76/90/111 90/48/55
f 102/111/135 60/72/87 64/81/99 93/108/131
f 52/69/83 105/120/144 7/60/81
s 7
f 82/56/65 69/86/104 67/77/92 78/91/112
f 84/94/113 57/74/88 55/65/75 97/100/120
f 7/59/69 99/113/136 48/62/70
s 6
f 109/38/40 13/132/155 12/126/148 70/87/107
s 7
f 45/42/46 108/39/45 69/86/104 82/56/65
s 3
f 81/57/68 2/127/151 1/133/156 46/44/51
s 1
f 114/53/59 36/13/15 90/48/55 76/90/111
s 6
f 66/78/95 11/125/149 10/124/146 58/75/91
s 7
f 78/91/112 67/77/92 57/74/88 84/94/113
s 3
f 85/97/118 4/129/153 3/128/150 79/96/119
s 1
f 72/84/103 87/103/124 93/108/131 64/81/99
s 6
f 54/66/78 9/123/147 8/122/145 49/63/74
s 7
f 97/100/120 55/65/75 48/62/70 99/113/136
s 3
f 100/114/139 6/131/154 5/130/152 96/101/123
s 1
f 60/72/87 102/111/135 105/120/144 52/69/83
s 6
f 13/132/155 109/38/40 28/28/33 112/29/32
s 2
f 111/27/27 24/24/26 34/21/22 21/16/16
s 7
f 108/39/45 45/42/46 32/33/35 26/30/34
s 1
f 36/13/15 114/53/59 41/4/2 15/1/1
s 3
f 46/44/51 1/133/156 22/18/21 30/22/25
s 2
f 43/7/7 111/27/27 21/16/16 19/6/8
s 3
f 1/133/156 37/12/10 17/9/9 22/18/21
f 2/127/151 91/47/52 37/12/10 1/133/156
f 3/128/150 88/105/127 91/47/52 2/127/151
f 4/129/153 94/107/128 88/105/127 3/128/150
f 5/130/152 103/110/132 94/107/128 4/129/153
f 6/131/154 106/119/141 103/110/132 5/130/152
f 106/119/141 6/131/154 7/121/140
s 6
f 7/60/72 8/122/145 51/68/79
f 9/123/147 61/71/84 51/68/79 8/122/145
f 10/124/146 63/80/96 61/71/84 9/123/147
f 11/125/149 73/83/100 63/80/96 10/124/146
f 12/126/148 75/89/108 73/83/100 11/125/149
f 13/132/155 115/54/64 75/89/108 12/126/148
f 115/54/64 13/132/155 112/29/32 39/49/56
s 2
f 18/14/18 116/134/157 14/5/5 19/6/8
s 1
f 14/2/4 116/135/158 16/10/13 15/1/1
s 3
f 16/10/12 116/135/159 18/17/19 17/9/9
s 6
f 27/36/42 117/136/160 23/25/30 28/28/33
s 2
f 23/25/29 117/136/161 25/34/38 24/24/26
s 7
f 25/31/37 117/136/162 27/36/43 26/30/34
s 2
f 33/35/39 118/137/163 29/20/23 34/21/22
s 3
f 29/23/24 118/138/164 31/43/49 30/22/25
s 7
f 31/40/48 118/139/165 33/32/36 32/33/35
s 2
f 42/8/6 119/140/166 38/50/58 43/7/7
s 6
f 38/50/57 119/140/167 40/51/62 39/49/56
s 1
f 40/51/61 119/140/168 42/3/3 41/4/2
