# This file uses centimeters as units for non-parametric coordinates.

mtllib OliveShortLUpperLeg.mtl
g default
v -0.453868 -0.000790 -0.172079
v -0.133869 -0.000790 -0.209437
v 0.186131 -0.000790 -0.159600
v 0.506131 -0.000790 -0.178121
v 0.826131 -0.000790 -0.197239
v 0.959995 -0.000790 0.040379
v 0.826133 -0.000790 0.252840
v 0.506133 -0.000790 0.245855
v 0.186133 -0.000790 0.236678
v -0.133867 -0.000790 0.225996
v -0.453866 -0.000790 0.214613
v -0.846514 -0.257497 -0.174003
v -0.821368 -0.269592 -0.171350
v -0.818814 -0.257408 -0.196204
v -0.818011 -0.230746 -0.206600
v -0.844398 -0.229794 -0.199049
v -0.857373 -0.231028 -0.175034
v -0.851636 -0.000855 -0.202549
v -0.864862 -0.000780 -0.177731
v -0.824655 -0.001020 -0.210501
v -0.876321 0.252751 0.145065
v -0.884650 0.251030 0.118444
v -0.873277 0.276706 0.117805
v -0.847150 0.287390 0.119553
v -0.849730 0.278435 0.145891
v -0.851438 0.253414 0.158116
v -0.844398 0.228199 -0.198923
v -0.818012 0.229152 -0.206462
v -0.818818 0.255817 -0.196055
v -0.821373 0.268002 -0.171198
v -0.846518 0.255905 -0.173866
v -0.857374 0.229432 -0.174912
v -0.454782 -0.283708 -0.152609
v -0.455566 -0.294995 -0.126778
v -0.455327 -0.257810 -0.163707
v -0.876322 -0.254333 0.145054
v -0.851440 -0.254995 0.158106
v -0.849732 -0.280017 0.145880
v -0.847152 -0.288972 0.119541
v -0.873278 -0.278289 0.117793
v -0.884652 -0.252613 0.118432
v -0.454790 0.282122 -0.152230
v -0.455570 0.293403 -0.126397
v -0.455352 0.256235 -0.163349
v 0.826230 0.270039 0.221361
v 0.825833 0.245006 0.234180
v 0.826761 0.278402 0.194510
v 0.506304 0.273481 0.214773
v 0.507031 0.283163 0.188585
v 0.505828 0.248403 0.227057
v 0.826231 -0.271624 0.221231
v 0.826765 -0.279983 0.194382
v 0.825833 -0.246596 0.234060
v 0.506302 -0.275057 0.214711
v 0.505828 -0.249981 0.227000
v 0.507024 -0.284737 0.188523
v 0.186367 0.274997 0.205410
v 0.185820 0.249929 0.217918
v 0.187246 0.284089 0.178920
v -0.133592 0.276775 0.194657
v -0.132624 0.285706 0.168086
v -0.134170 0.251707 0.207220
v 0.186366 -0.276579 0.205381
v 0.187244 -0.285672 0.178891
v 0.185820 -0.251512 0.217891
v -0.133593 -0.278357 0.194624
v -0.134170 -0.253290 0.207190
v -0.132626 -0.287288 0.168054
v 0.185482 0.255556 -0.140021
v 0.184292 0.267077 -0.114606
v 0.185713 0.230003 -0.151045
v -0.140073 0.251065 -0.191343
v -0.133612 0.223970 -0.202054
v -0.155681 0.263324 -0.166702
v 0.508994 0.264112 -0.158108
v 0.517434 0.275335 -0.133237
v 0.504779 0.238622 -0.168909
v 0.185486 -0.257136 -0.140383
v 0.184294 -0.268663 -0.114968
v 0.185725 -0.231569 -0.151385
v -0.140070 -0.252643 -0.191553
v -0.155665 -0.264907 -0.166910
v -0.133616 -0.225541 -0.202242
v 0.509002 -0.265685 -0.158381
v 0.517460 -0.276914 -0.133507
v 0.504780 -0.240184 -0.169163
v 0.823085 0.232329 -0.178326
v 0.826309 0.206271 -0.189162
v 0.815319 0.244408 -0.153374
v 0.823115 -0.233918 -0.178384
v 0.815293 -0.245998 -0.153432
v 0.826435 -0.207854 -0.189209
v -0.452342 0.279788 0.183763
v -0.451584 0.290105 0.157878
v -0.450861 0.254640 0.195870
v -0.883986 -0.000794 0.160509
v -0.892249 -0.000800 0.133669
v -0.859227 -0.000794 0.173688
v -0.452337 -0.281369 0.183764
v -0.451585 -0.291686 0.157879
v -0.450844 -0.256222 0.195872
v -0.839882 -0.251653 -0.193902
v -0.870560 0.273410 0.139482
v -0.839884 0.250061 -0.193765
v -0.870560 -0.274991 0.139470
vt 0.171185 0.450895
vt 0.171811 0.454261
vt 0.135216 0.457474
vt 0.134968 0.454029
vt 0.126190 0.495137
vt 0.122793 0.494536
vt 0.127335 0.460537
vt 0.130657 0.461337
vt 0.178056 0.451023
vt 0.174555 0.450848
vt 0.170157 0.405945
vt 0.173526 0.406584
vt 0.166828 0.405392
vt 0.122632 0.497836
vt 0.096611 0.498495
vt 0.096162 0.495091
vt 0.178254 0.454352
vt 0.205957 0.450821
vt 0.206051 0.454247
vt 0.070554 0.500528
vt 0.069903 0.497237
vt 0.232969 0.449114
vt 0.232984 0.452464
vt 0.064217 0.459029
vt 0.064490 0.455462
vt 0.095871 0.454792
vt 0.095360 0.457863
vt 0.064848 0.451957
vt 0.096317 0.451699
vt 0.058339 0.451333
vt 0.058621 0.454782
vt 0.024486 0.457928
vt 0.024162 0.454530
vt 0.060853 0.459334
vt 0.066501 0.497898
vt 0.061589 0.451580
vt 0.061127 0.403497
vt 0.064467 0.403829
vt 0.057788 0.403069
vt 0.020768 0.454991
vt 0.019675 0.407648
vt 0.023101 0.407811
vt 0.236424 0.449343
vt 0.235771 0.406237
vt 0.239074 0.407011
vt 0.175368 0.367383
vt 0.178708 0.367267
vt 0.172207 0.368402
vt 0.128070 0.453723
vt 0.127740 0.457140
vt 0.131481 0.453952
vt 0.129510 0.404326
vt 0.132778 0.405019
vt 0.126260 0.403421
vt 0.013145 0.368410
vt 0.016562 0.370607
vt 0.233234 0.368129
vt 0.236680 0.369745
vt 0.055825 0.207988
vt 0.063398 0.247579
vt 0.059995 0.246855
vt 0.066806 0.248285
vt 0.132915 0.210365
vt 0.131449 0.248933
vt 0.128026 0.248322
vt 0.134871 0.249537
vt 0.061802 0.286631
vt 0.058425 0.285984
vt 0.065183 0.287274
vt 0.060700 0.325716
vt 0.057247 0.325141
vt 0.064148 0.326309
vt 0.130341 0.287508
vt 0.126964 0.286887
vt 0.133717 0.288118
vt 0.129953 0.325998
vt 0.126517 0.325435
vt 0.133396 0.326535
vt 0.060671 0.364626
vt 0.057256 0.364014
vt 0.064080 0.365259
vt 0.129158 0.365236
vt 0.125849 0.364558
vt 0.132464 0.365890
vt 0.020686 0.326998
vt 0.017301 0.326522
vt 0.015552 0.285214
vt 0.018859 0.284925
vt 0.238513 0.330263
vt 0.235219 0.329492
vt 0.238037 0.290523
vt 0.241365 0.290909
vt 0.013864 0.245931
vt 0.017156 0.247558
vt 0.235855 0.250671
vt 0.239247 0.251699
vt 0.170369 0.327146
vt 0.173904 0.327648
vt 0.177433 0.328232
vt 0.176398 0.288310
vt 0.179632 0.289417
vt 0.173206 0.286771
vt 0.181268 0.250348
vt 0.184685 0.250514
vt 0.177893 0.250594
vt 0.230158 0.210466
vt 0.180230 0.210721
vt 0.097410 0.248359
vt 0.096082 0.287014
vt 0.095370 0.325755
vt 0.095167 0.364683
vt 0.205729 0.366885
vt 0.206622 0.328341
vt 0.208827 0.289466
vt 0.210311 0.250335
vt 0.095783 0.403619
vt 0.204517 0.405385
vt 0.125333 0.497660
vt 0.174796 0.453644
vt 0.061424 0.454992
vt 0.067705 0.500484
vt 0.235686 0.451998
vt 0.021673 0.457742
vt 0.131139 0.457427
vn -0.058118 -0.995937 -0.068793
vn -0.058871 -0.998265 -0.000663
vn -0.394895 -0.915454 -0.077477
vn -0.393447 -0.911467 -0.120112
vn -0.912341 -0.387614 -0.131866
vn -0.916230 -0.390042 -0.091592
vn -0.995882 -0.067222 -0.060823
vn -0.990504 -0.063135 -0.122133
vn 0.084701 -0.056819 -0.994785
vn 0.006559 -0.068991 -0.997596
vn 0.008348 -0.376095 -0.926544
vn 0.067016 -0.375379 -0.924446
vn -0.030717 -0.906347 -0.421416
vn 0.009638 -0.908739 -0.417254
vn 0.007132 -0.998273 -0.058308
vn -0.992481 0.000021 -0.122398
vn -0.880806 0.000061 -0.473477
vn -0.880198 -0.057481 -0.471113
vn -0.276793 -0.046444 -0.959807
vn -0.279258 0.000366 -0.960216
vn 0.083261 0.000478 -0.996528
vn -0.990501 0.063147 -0.122149
vn -0.880111 0.057702 -0.471249
vn -0.276456 0.046921 -0.959881
vn 0.084966 0.057714 -0.994711
vn -0.995881 0.067238 -0.060824
vn -0.998482 0.000007 -0.055072
vn -0.955483 0.000002 0.295046
vn -0.954364 0.070935 0.290099
vn -0.463791 0.091562 0.881201
vn -0.467895 -0.000018 0.883784
vn -0.122108 -0.000012 0.992517
vn -0.119730 0.103926 0.987352
vn -0.058867 0.998266 -0.000694
vn -0.058107 0.995931 -0.068889
vn -0.393431 0.911463 -0.120196
vn -0.394892 0.915450 -0.077530
vn -0.916246 0.389998 -0.091628
vn -0.912350 0.387579 -0.131909
vn -0.069181 0.107477 0.991798
vn -0.061736 0.437476 0.897108
vn -0.101545 0.433921 0.895210
vn -0.053135 0.939210 0.339208
vn -0.020805 0.938675 0.344175
vn 0.006622 0.999972 0.003410
vn 0.007131 0.998271 -0.058352
vn 0.009656 0.908796 -0.417128
vn -0.030493 0.906411 -0.421294
vn 0.067507 0.375883 -0.924205
vn 0.008396 0.376708 -0.926294
vn 0.006655 0.069993 -0.997525
vn 0.016808 -0.068067 -0.997539
vn 0.017086 -0.382855 -0.923650
vn 0.048547 -0.909119 -0.413698
vn 0.030378 -0.996091 -0.082950
vn -0.119743 -0.103948 0.987348
vn -0.463810 -0.091600 0.881187
vn -0.954357 -0.070947 0.290120
vn 0.006626 -0.999972 0.003437
vn -0.020794 -0.938671 0.344186
vn -0.053144 -0.939203 0.339225
vn -0.101569 -0.433936 0.895200
vn -0.061721 -0.437506 0.897095
vn -0.069162 -0.107511 0.991795
vn 0.030373 0.996085 -0.083026
vn 0.048599 0.909206 -0.413501
vn 0.017012 0.383606 -0.923340
vn 0.016817 0.069167 -0.997463
vn 0.883696 0.462452 -0.072240
vn 0.307716 0.950673 -0.039134
vn 0.331640 0.892265 0.306397
vn 0.847119 -0.000136 0.531403
vn 0.252233 0.431246 0.866259
vn 0.167423 0.116523 0.978975
vn 0.167526 -0.116874 0.978916
vn 0.252360 -0.431490 0.866101
vn 0.883691 -0.462452 -0.072305
vn 0.331607 -0.892290 0.306359
vn 0.307706 -0.950676 -0.039146
vn 0.020827 0.999567 -0.020801
vn -0.000269 0.944375 0.328872
vn -0.019079 0.445759 0.894950
vn -0.024568 0.113383 0.993248
vn -0.004751 0.999773 -0.020790
vn -0.006102 0.944492 0.328478
vn -0.025636 0.445526 0.894902
vn -0.030432 0.112452 0.993191
vn -0.024488 -0.113634 0.993221
vn -0.018943 -0.445945 0.894860
vn -0.000218 -0.944388 0.328834
vn 0.020825 -0.999567 -0.020774
vn -0.030408 -0.112586 0.993177
vn -0.025590 -0.445610 0.894862
vn -0.006076 -0.944492 0.328478
vn -0.004747 -0.999773 -0.020762
vn 0.023566 0.999558 -0.018134
vn -0.003162 0.942944 0.332936
vn -0.027383 0.444005 0.895606
vn -0.033726 0.111463 0.993196
vn -0.033701 -0.111544 0.993188
vn -0.027342 -0.444060 0.895580
vn -0.003148 -0.942942 0.332941
vn 0.023568 -0.999558 -0.018106
vn -0.003514 0.996836 -0.079409
vn 0.024178 0.996450 -0.080635
vn -0.000721 0.910339 -0.413864
vn 0.005224 0.911773 -0.410662
vn 0.038554 0.396649 -0.917160
vn -0.039469 0.391677 -0.919256
vn -0.056741 0.079551 -0.995215
vn 0.046515 0.077072 -0.995940
vn 0.304044 0.947678 -0.097278
vn 0.443126 0.852034 -0.278707
vn 0.235491 0.402505 -0.884609
vn 0.159651 0.079508 -0.983967
vn -0.003516 -0.996840 -0.079364
vn 0.005192 -0.911679 -0.410871
vn 0.038523 -0.395863 -0.917501
vn 0.046482 -0.075898 -0.996032
vn -0.056504 -0.078608 -0.995303
vn -0.039066 -0.391014 -0.919555
vn -0.000581 -0.910280 -0.413992
vn 0.024184 -0.996454 -0.080596
vn 0.160083 -0.078918 -0.983944
vn 0.235342 -0.402714 -0.884554
vn 0.443534 -0.852107 -0.277833
vn 0.303864 -0.947742 -0.097224
vn 0.872827 0.000296 -0.488031
vn -0.025006 -0.000132 0.999687
vn 0.239034 -0.000183 0.971011
vn -0.034250 -0.000043 0.999413
vn -0.030796 -0.000071 0.999526
vn 0.048227 0.000608 -0.998836
vn 0.016031 0.000572 -0.999871
vn 0.226821 0.000362 -0.973936
vn -0.058203 0.000481 -0.998305
vn -0.070208 -0.000018 0.997532
vn 0.004410 0.000542 -0.999990
vn -0.843640 -0.323189 -0.428743
vn -0.325910 -0.851846 -0.410050
vn -0.235276 -0.312784 -0.920224
vn -0.401399 0.388902 0.829237
vn -0.905241 0.364156 0.218927
vn -0.344682 0.909344 0.232998
vn -0.843553 0.323287 -0.428840
vn -0.234877 0.313123 -0.920210
vn -0.325755 0.851896 -0.410070
vn -0.905225 -0.364182 0.218950
vn -0.401437 -0.388933 0.829204
vn -0.344690 -0.909334 0.233023
s 1
g FoodShortLUpperLeg
usemtl Eye_blinn1SG
f 13/1/1 39/4/2 40/3/3 12/2/4
s 2
f 12/5/5 40/8/6 41/7/7 17/6/8
s 3
f 15/9/9 35/12/10 33/11/11 14/10/12
s 1
f 14/10/13 33/11/14 34/13/15 13/1/1
s 2
f 17/6/8 19/16/16 18/15/17 16/14/18
s 3
f 16/17/19 18/19/20 20/18/21 15/9/9
s 2
f 19/16/16 32/21/22 27/20/23 18/15/17
s 3
f 18/19/20 27/23/24 28/22/25 20/18/21
s 2
f 22/24/26 97/27/27 96/26/28 21/25/29
s 6
f 21/25/30 96/26/31 98/29/32 26/28/33
s 7
f 24/30/34 30/33/35 31/32/36 23/31/37
s 2
f 23/34/38 31/35/39 32/21/22 22/24/26
s 6
f 26/28/33 95/38/40 93/37/41 25/36/42
s 7
f 25/36/43 93/37/44 94/39/45 24/30/34
f 30/33/35 43/42/46 42/41/47 29/40/48
s 3
f 29/43/49 42/45/50 44/44/51 28/22/25
f 35/12/10 83/47/52 81/46/53 33/11/11
s 1
f 33/11/14 81/46/54 82/48/55 34/13/15
s 6
f 37/49/56 98/29/32 96/26/31 36/50/57
s 2
f 36/50/58 96/26/28 97/27/27 41/7/7
s 1
f 39/4/2 100/53/59 99/52/60 38/51/61
s 6
f 38/51/62 99/52/63 101/54/64 37/49/56
s 7
f 43/42/46 74/56/65 72/55/66 42/41/47
s 3
f 42/45/50 72/58/67 73/57/68 44/44/51
s 7
f 6/59/69 47/61/70 45/60/71
s 6
f 6/59/72 45/60/73 46/62/74
f 6/63/72 53/65/75 51/64/76
s 1
f 6/63/77 51/64/78 52/66/79
s 7
f 47/61/70 49/68/80 48/67/81 45/60/71
s 6
f 45/60/73 48/67/82 50/69/83 46/62/74
s 7
f 49/68/80 59/71/84 57/70/85 48/67/81
s 6
f 48/67/82 57/70/86 58/72/87 50/69/83
f 53/65/75 55/74/88 54/73/89 51/64/76
s 1
f 51/64/78 54/73/90 56/75/91 52/66/79
s 6
f 55/74/88 65/77/92 63/76/93 54/73/89
s 1
f 54/73/90 63/76/94 64/78/95 56/75/91
s 7
f 59/71/84 61/80/96 60/79/97 57/70/85
s 6
f 57/70/86 60/79/98 62/81/99 58/72/87
s 7
f 61/80/96 94/39/45 93/37/44 60/79/97
s 6
f 60/79/98 93/37/41 95/38/40 62/81/99
f 65/77/92 67/83/100 66/82/101 63/76/93
s 1
f 63/76/94 66/82/102 68/84/103 64/78/95
s 6
f 67/83/100 101/54/64 99/52/63 66/82/101
s 1
f 66/82/102 99/52/60 100/53/59 68/84/103
s 7
f 70/85/104 76/88/105 75/87/106 69/86/107
s 3
f 69/89/108 75/92/109 77/91/110 71/90/111
f 71/90/111 73/57/68 72/58/67 69/89/108
s 7
f 69/86/107 72/55/66 74/56/65 70/85/104
f 76/88/105 89/94/112 87/93/113 75/87/106
s 3
f 75/92/109 87/96/114 88/95/115 77/91/110
s 1
f 79/97/116 82/48/55 81/46/54 78/98/117
s 3
f 78/98/118 81/46/53 83/47/52 80/99/119
f 80/99/119 86/101/120 84/100/121 78/98/118
s 1
f 78/98/117 84/100/122 85/102/123 79/97/116
s 3
f 86/101/120 92/104/124 90/103/125 84/100/121
s 1
f 84/100/122 90/103/126 91/105/127 85/102/123
s 7
f 89/94/112 6/59/69 87/93/113
s 3
f 87/96/114 6/106/128 88/95/115
f 92/104/124 6/107/128 90/103/125
s 1
f 90/103/126 6/107/77 91/105/127
s 6
f 50/69/83 8/109/129 7/108/130 46/62/74
f 62/81/99 10/111/131 9/110/132 58/72/87
s 3
f 71/90/111 3/113/133 2/112/134 73/57/68
f 88/95/115 5/115/135 4/114/136 77/91/110
s 1
f 79/97/116 64/78/95 68/84/103 82/48/55
f 91/105/127 52/66/79 56/75/91 85/102/123
s 7
f 74/56/65 61/80/96 59/71/84 70/85/104
f 76/88/105 49/68/80 47/61/70 89/94/112
s 6
f 95/38/40 11/116/137 10/111/131 62/81/99
s 7
f 43/42/46 94/39/45 61/80/96 74/56/65
s 3
f 73/57/68 2/112/134 1/117/138 44/44/51
s 1
f 100/53/59 34/13/15 82/48/55 68/84/103
s 6
f 58/72/87 9/110/132 8/109/129 50/69/83
s 7
f 70/85/104 59/71/84 49/68/80 76/88/105
s 3
f 77/91/110 4/114/136 3/113/133 71/90/111
s 1
f 64/78/95 79/97/116 85/102/123 56/75/91
s 6
f 46/62/74 7/108/130 6/59/72
s 7
f 89/94/112 47/61/70 6/59/69
s 3
f 6/106/128 5/115/135 88/95/115
s 1
f 52/66/79 91/105/127 6/63/77
s 6
f 11/116/137 95/38/40 26/28/33 98/29/32
s 2
f 97/27/27 22/24/26 32/21/22 19/16/16
s 7
f 94/39/45 43/42/46 30/33/35 24/30/34
s 1
f 34/13/15 100/53/59 39/4/2 13/1/1
s 3
f 44/44/51 1/117/138 20/18/21 28/22/25
s 2
f 41/7/7 97/27/27 19/16/16 17/6/8
s 3
f 1/117/138 35/12/10 15/9/9 20/18/21
f 2/112/134 83/47/52 35/12/10 1/117/138
f 3/113/133 80/99/119 83/47/52 2/112/134
f 4/114/136 86/101/120 80/99/119 3/113/133
f 5/115/135 92/104/124 86/101/120 4/114/136
f 6/106/128 92/104/124 5/115/135
s 6
f 7/108/130 53/65/75 6/59/72
f 8/109/129 55/74/88 53/65/75 7/108/130
f 9/110/132 65/77/92 55/74/88 8/109/129
f 10/111/131 67/83/100 65/77/92 9/110/132
f 11/116/137 101/54/64 67/83/100 10/111/131
f 101/54/64 11/116/137 98/29/32 37/49/56
s 2
f 16/14/18 102/118/139 12/5/5 17/6/8
s 1
f 12/2/4 102/119/140 14/10/13 13/1/1
s 3
f 14/10/12 102/119/141 16/17/19 15/9/9
s 6
f 25/36/42 103/120/142 21/25/30 26/28/33
s 2
f 21/25/29 103/120/143 23/34/38 22/24/26
s 7
f 23/31/37 103/120/144 25/36/43 24/30/34
s 2
f 31/35/39 104/121/145 27/20/23 32/21/22
s 3
f 27/23/24 104/122/146 29/43/49 28/22/25
s 7
f 29/40/48 104/123/147 31/32/36 30/33/35
s 2
f 40/8/6 105/124/148 36/50/58 41/7/7
s 6
f 36/50/57 105/124/149 38/51/62 37/49/56
s 1
f 38/51/61 105/124/150 40/3/3 39/4/2
