# This file uses centimeters as units for non-parametric coordinates.

mtllib BurgerRUpperCanine.mtl
g default
v -0.214493 -0.014698 -0.115070
v -0.234917 0.048929 0.130561
v 0.017325 0.027308 0.157135
v 0.037749 -0.036318 -0.088495
v -0.145619 0.339757 -0.119383
v -0.175862 0.291984 0.128817
v 0.076381 0.270363 0.155391
v 0.106624 0.318136 -0.092809
v -0.095493 0.664594 0.030178
v -0.129716 0.514647 0.233019
v 0.122527 0.493026 0.259594
v 0.156749 0.642973 0.056752
v -0.066585 0.896470 0.305491
v -0.098178 0.673304 0.423807
v 0.154065 0.651683 0.450381
v 0.185658 0.874849 0.332065
v -0.057262 0.989993 0.654156
v -0.080126 0.736699 0.665098
v 0.172117 0.715078 0.691672
v 0.194980 0.968372 0.680730
v -0.062114 0.926483 1.009605
v -0.071834 0.691974 0.911061
v 0.180409 0.670353 0.937635
v 0.190128 0.904863 1.036180
v -0.072993 0.717587 1.303961
v -0.067690 0.547146 1.114959
v 0.184552 0.525525 1.141533
v 0.179250 0.695966 1.330535
v -0.080583 0.403022 1.481141
v -0.061283 0.329562 1.238179
v 0.190959 0.307941 1.264753
v 0.171659 0.381403 1.507716
v -0.076209 0.042916 1.507695
v -0.046638 0.080620 1.257687
v 0.205604 0.058999 1.284261
v 0.176034 0.021295 1.534269
v -0.053502 -0.293816 1.379252
v -0.019371 -0.152226 1.170476
v 0.232872 -0.173847 1.197050
v 0.198741 -0.315437 1.405826
vt 0.044190 0.802120
vt 0.017032 0.802768
vt 0.016599 0.784592
vt 0.043757 0.783944
vt 0.016165 0.766417
vt 0.043323 0.765769
vt 0.015731 0.748241
vt 0.042889 0.747593
vt 0.015298 0.730066
vt 0.042456 0.729418
vt 0.071349 0.801472
vt 0.070915 0.783296
vt 0.070481 0.765121
vt 0.070048 0.746945
vt 0.069614 0.728770
vt 0.098507 0.800824
vt 0.098073 0.782648
vt 0.097640 0.764473
vt 0.097206 0.746297
vt 0.096772 0.728122
vt 0.125665 0.800176
vt 0.125231 0.782000
vt 0.124798 0.763825
vt 0.124364 0.745649
vt 0.123930 0.727474
vt 0.152823 0.799528
vt 0.152390 0.781352
vt 0.151956 0.763177
vt 0.151522 0.745001
vt 0.151088 0.726826
vt 0.179981 0.798880
vt 0.179548 0.780704
vt 0.179114 0.762529
vt 0.178680 0.744353
vt 0.178247 0.726178
vt 0.207139 0.798232
vt 0.206706 0.780056
vt 0.206272 0.761881
vt 0.205839 0.743705
vt 0.205405 0.725530
vt 0.234298 0.797584
vt 0.233864 0.779408
vt 0.233430 0.761233
vt 0.232997 0.743057
vt 0.232563 0.724882
vt 0.261453 0.796817
vt 0.261025 0.778879
vt 0.260589 0.760585
vt 0.260155 0.742409
vt 0.259721 0.724234
vt 0.278730 0.778575
vt 0.279153 0.796277
vn -0.976084 0.202128 -0.080031
vn -0.972505 0.207140 -0.106429
vn -0.972505 0.207140 -0.106429
vn -0.976084 0.202128 -0.080031
vn -0.117407 -0.166406 0.979043
vn -0.102012 0.031920 0.994271
vn -0.102012 0.031920 0.994271
vn -0.120149 -0.208842 0.970541
vn 0.976084 -0.202128 0.080031
vn 0.972505 -0.207140 0.106429
vn 0.972505 -0.207141 0.106429
vn 0.976084 -0.202128 0.080031
vn 0.119741 0.202317 -0.971972
vn 0.102013 -0.031921 -0.994271
vn 0.102013 -0.031921 -0.994271
vn 0.117845 0.172977 -0.977850
vn -0.982950 0.181067 -0.031988
vn -0.982950 0.181068 -0.031988
vn -0.134272 -0.571483 0.809554
vn -0.134540 -0.606334 0.783746
vn 0.982950 -0.181067 0.031988
vn 0.982950 -0.181067 0.031988
vn 0.134516 0.601028 -0.787827
vn 0.134330 0.576934 -0.805669
vn -0.989961 0.141325 0.002221
vn -0.989961 0.141325 0.002221
vn -0.125209 -0.866208 0.483741
vn -0.122953 -0.886743 0.445612
vn 0.989961 -0.141324 -0.002220
vn 0.989961 -0.141324 -0.002221
vn 0.123316 0.883682 -0.451553
vn 0.124877 0.869485 -0.477915
vn -0.995761 0.090574 0.015989
vn -0.995761 0.090574 0.015989
vn -0.091970 -0.993670 0.064517
vn -0.087623 -0.995923 0.021428
vn 0.995762 -0.090574 -0.015989
vn 0.995762 -0.090574 -0.015989
vn 0.088304 0.995698 -0.028084
vn 0.091309 0.994139 -0.057875
vn -0.999232 0.038615 0.006658
vn -0.999232 0.038615 0.006658
vn -0.040971 -0.929254 -0.367163
vn -0.035374 -0.912792 -0.406891
vn 0.999232 -0.038615 -0.006658
vn 0.999232 -0.038615 -0.006658
vn 0.036239 0.915445 0.400809
vn 0.040108 0.926827 0.373341
vn -0.999702 -0.004518 -0.023971
vn -0.999703 -0.004518 -0.023971
vn 0.017941 -0.685399 -0.727947
vn 0.023707 -0.653399 -0.756643
vn 0.999702 0.004519 0.023972
vn 0.999702 0.004519 0.023972
vn -0.022822 0.658419 0.752306
vn -0.018836 0.680543 0.732466
vn -0.997082 -0.030498 -0.069983
vn -0.997082 -0.030498 -0.069983
vn 0.073388 -0.309192 -0.948164
vn 0.078210 -0.267835 -0.960285
vn 0.997082 0.030498 0.069983
vn 0.997082 0.030498 0.069983
vn -0.077477 0.274251 0.958532
vn -0.074143 0.302845 0.950152
vn -0.991876 -0.034307 -0.122492
vn -0.991876 -0.034307 -0.122492
vn 0.114663 0.126718 -0.985289
vn 0.117610 0.169447 -0.978497
vn 0.991876 0.034307 0.122491
vn 0.991876 0.034307 0.122491
vn -0.117170 -0.162872 0.979665
vn -0.115133 -0.133330 0.984361
vn -0.988363 -0.030280 -0.149067
vn -0.988363 -0.030280 -0.149067
vn 0.128256 0.360988 -0.923709
vn 0.128256 0.360988 -0.923709
vn 0.988364 0.030280 0.149066
vn 0.988364 0.030280 0.149066
vn -0.128256 -0.360987 0.923709
vn -0.128256 -0.360987 0.923709
vn -0.011594 -0.826686 -0.562544
vn -0.011594 -0.826686 -0.562544
vn -0.011594 -0.826686 -0.562544
vn -0.011594 -0.826686 -0.562544
s 1
g FoodRUpperCaninesOverbite
usemtl Walk_blinn1SG
f 5/1/1 1/2/2 2/3/3 6/4/4
s 2
f 6/4/5 2/3/6 3/5/7 7/6/8
s 3
f 7/6/9 3/5/10 4/7/11 8/8/12
s 4
f 8/8/13 4/7/14 1/9/15 5/10/16
s 1
f 9/11/17 5/1/1 6/4/4 10/12/18
s 2
f 10/12/19 6/4/5 7/6/8 11/13/20
s 3
f 11/13/21 7/6/9 8/8/12 12/14/22
s 4
f 12/14/23 8/8/13 5/10/16 9/15/24
s 1
f 13/16/25 9/11/17 10/12/18 14/17/26
s 2
f 14/17/27 10/12/19 11/13/20 15/18/28
s 3
f 15/18/29 11/13/21 12/14/22 16/19/30
s 4
f 16/19/31 12/14/23 9/15/24 13/20/32
s 1
f 17/21/33 13/16/25 14/17/26 18/22/34
s 2
f 18/22/35 14/17/27 15/18/28 19/23/36
s 3
f 19/23/37 15/18/29 16/19/30 20/24/38
s 4
f 20/24/39 16/19/31 13/20/32 17/25/40
s 1
f 21/26/41 17/21/33 18/22/34 22/27/42
s 2
f 22/27/43 18/22/35 19/23/36 23/28/44
s 3
f 23/28/45 19/23/37 20/24/38 24/29/46
s 4
f 24/29/47 20/24/39 17/25/40 21/30/48
s 1
f 25/31/49 21/26/41 22/27/42 26/32/50
s 2
f 26/32/51 22/27/43 23/28/44 27/33/52
s 3
f 27/33/53 23/28/45 24/29/46 28/34/54
s 4
f 28/34/55 24/29/47 21/30/48 25/35/56
s 1
f 29/36/57 25/31/49 26/32/50 30/37/58
s 2
f 30/37/59 26/32/51 27/33/52 31/38/60
s 3
f 31/38/61 27/33/53 28/34/54 32/39/62
s 4
f 32/39/63 28/34/55 25/35/56 29/40/64
s 1
f 33/41/65 29/36/57 30/37/58 34/42/66
s 2
f 34/42/67 30/37/59 31/38/60 35/43/68
s 3
f 35/43/69 31/38/61 32/39/62 36/44/70
s 4
f 36/44/71 32/39/63 29/40/64 33/45/72
s 1
f 37/46/73 33/41/65 34/42/66 38/47/74
s 2
f 38/47/75 34/42/67 35/43/68 39/48/76
s 3
f 39/48/77 35/43/69 36/44/70 40/49/78
s 4
f 40/49/79 36/44/71 33/45/72 37/50/80
s off
f 37/46/81 38/47/82 39/51/83 40/52/84
