# This file uses centimeters as units for non-parametric coordinates.

mtllib PotatoTallLLowerLeg.mtl
g default
v 0.482896 0.476027 -0.057930
v 0.856235 0.462467 -0.030652
v 0.156089 0.465672 -0.076953
v 0.476445 0.335692 -0.389311
v 0.149595 0.328619 -0.400710
v 0.849940 0.325466 -0.354251
v 0.471881 -0.013765 -0.476032
v 0.145124 -0.012622 -0.485260
v 0.845482 -0.015647 -0.438781
v 0.471005 -0.345305 -0.335526
v 0.144284 -0.336390 -0.348189
v 0.844631 -0.339290 -0.301748
v 0.475643 -0.431969 0.013782
v 0.149006 -0.421007 -0.006923
v 0.849153 -0.423877 0.039350
v 0.482089 -0.291613 0.345411
v 0.155486 -0.283962 0.316757
v 0.855450 -0.286879 0.362949
v 0.486660 0.057824 0.431884
v 0.159976 0.057283 0.401334
v 0.859907 0.054234 0.447481
v 0.487529 0.389385 0.291625
v 0.160799 0.381048 0.264234
v 0.860760 0.377877 0.310447
v 1.250529 0.376623 0.322561
v 1.249681 0.053887 0.459210
v 1.245236 -0.286268 0.374916
v 1.238959 -0.422882 0.052225
v 1.234447 -0.338533 -0.287917
v 1.235296 -0.015797 -0.424566
v 1.239741 0.324357 -0.340271
v 1.246019 0.460972 -0.017581
v 1.676726 0.284959 0.220676
v 1.670983 0.040560 0.323513
v 1.670567 -0.217424 0.260825
v 1.677531 -0.321537 0.019227
v 1.686549 -0.258188 -0.235754
v 1.692293 -0.013790 -0.338591
v 1.692708 0.244194 -0.275903
v 1.685744 0.348307 -0.034305
v -0.213080 0.391680 0.269434
v -0.225249 0.479543 -0.082661
v -0.239332 0.337489 -0.419353
v -0.246093 -0.015994 -0.505628
v -0.244838 -0.351617 -0.364928
v -0.232587 -0.439263 -0.010094
v -0.218584 -0.297424 0.323858
v -0.211740 0.056264 0.412732
v -0.610686 0.437943 0.323584
v -0.638516 0.536529 -0.069758
v -0.668615 0.377623 -0.446025
v -0.680565 -0.018170 -0.542248
v -0.674779 -0.394090 -0.385074
v -0.646736 -0.492422 0.011509
v -0.616849 -0.333768 0.384534
v -0.604687 0.062277 0.483997
v 1.765744 0.015821 0.005604
v 1.505987 0.368884 0.301822
v 1.517714 0.450680 -0.027610
v 1.526768 0.316607 -0.339850
v 1.526244 -0.015948 -0.420952
v 1.518813 -0.331027 -0.288142
v 1.507102 -0.412706 0.041314
v 1.498022 -0.278555 0.353502
v 1.498526 0.053883 0.434589
v -0.597888 0.528813 0.387629
v -0.505167 -0.412415 0.413214
v -0.510988 -0.433326 -0.484336
v -0.567176 0.413395 -0.553216
v -0.556420 0.662046 -0.090782
v -0.475810 0.037736 0.529692
v -0.546787 -0.564626 -0.014016
v -0.577238 -0.034527 -0.626552
v -0.666404 0.426502 -0.517311
v -0.687218 0.660048 -0.090562
v -0.743195 0.529311 0.381449
v -0.607685 0.044089 0.521612
v -0.720634 -0.396057 0.406691
v -0.679903 -0.550111 -0.014823
v -0.642393 -0.420672 -0.478852
v -0.707757 -0.027207 -0.670254
v -1.209536 0.263564 -0.331194
v -1.200535 0.307239 0.187588
v -1.209861 -0.212670 0.230236
v -1.217418 -0.255205 -0.288547
v -1.294014 0.378239 -0.078062
v -1.294235 0.056782 0.300904
v -1.306100 -0.323238 -0.020486
v -1.305880 -0.001781 -0.399453
v -1.416437 0.029978 -0.047725
v -0.948260 0.342729 -0.431957
v -0.942397 0.488227 -0.090784
v -0.940058 0.400183 0.268423
v -0.944841 0.059651 0.414527
v -0.950700 -0.300154 0.325997
v -0.956585 -0.445556 -0.014018
v -0.958903 -0.357608 -0.374382
v -0.954140 -0.016982 -0.519328
v -0.700597 0.367847 -0.432739
v -0.671456 0.521689 -0.068463
v -0.644513 0.426246 0.312343
v -0.638705 0.062551 0.467645
v -0.650480 -0.320873 0.371351
v -0.679414 -0.474471 0.010214
v -0.706564 -0.379272 -0.373731
v -0.712165 -0.015332 -0.525896
vt 0.098094 0.149496
vt 0.094909 0.130210
vt 0.116222 0.129408
vt 0.119608 0.147394
vt 0.137909 0.128483
vt 0.141264 0.144992
vt 0.145586 0.161168
vt 0.124070 0.165209
vt 0.102577 0.168770
vt 0.150449 0.176887
vt 0.129318 0.182993
vt 0.108006 0.188149
vt 0.151212 0.046528
vt 0.146010 0.062115
vt 0.125387 0.057515
vt 0.131311 0.039995
vt 0.104578 0.053042
vt 0.110943 0.034030
vt 0.141471 0.078190
vt 0.120400 0.075140
vt 0.099342 0.072105
vt 0.137983 0.094696
vt 0.116603 0.092980
vt 0.095536 0.091323
vt 0.137017 0.111578
vt 0.115472 0.111187
vt 0.094284 0.110755
vt 0.066820 0.131086
vt 0.066458 0.109907
vt 0.067690 0.088644
vt 0.071263 0.067663
vt 0.076707 0.046927
vt 0.084012 0.026710
vt 0.079793 0.194402
vt 0.073837 0.173416
vt 0.069546 0.152309
vt 0.049967 0.109547
vt 0.049451 0.131592
vt 0.038944 0.131788
vt 0.039424 0.108875
vt 0.040209 0.085952
vt 0.050634 0.087260
vt 0.043900 0.062901
vt 0.053866 0.064802
vt 0.049215 0.040151
vt 0.059175 0.042366
vt 0.056412 0.020284
vt 0.067933 0.021052
vt 0.062496 0.198573
vt 0.050705 0.198786
vt 0.045241 0.178232
vt 0.055542 0.176405
vt 0.041487 0.155115
vt 0.051800 0.153953
vt 0.170015 0.142126
vt 0.166440 0.127202
vt 0.174681 0.156425
vt 0.179293 0.170041
vt 0.173916 0.067062
vt 0.178306 0.053594
vt 0.169508 0.081273
vt 0.166186 0.096135
vt 0.165211 0.111664
vt 0.198092 0.138838
vt 0.193329 0.125494
vt 0.204617 0.151496
vt 0.211249 0.163935
vt 0.202314 0.070700
vt 0.207826 0.058198
vt 0.196540 0.083677
vt 0.192497 0.097248
vt 0.191372 0.111453
vt 0.025625 0.095338
vt 0.024914 0.122010
vt 0.025989 0.147569
vt 0.029424 0.170973
vt 0.035709 0.194035
vt 0.041484 0.022994
vt 0.032841 0.045643
vt 0.027883 0.069694
vt 0.232176 0.139488
vt 0.204617 0.151496
vt 0.198092 0.138838
vt 0.223846 0.130654
vt 0.193329 0.125494
vt 0.218009 0.121233
vt 0.191372 0.111453
vt 0.215666 0.110797
vt 0.192497 0.097248
vt 0.216290 0.100047
vt 0.196540 0.083677
vt 0.221339 0.089677
vt 0.202314 0.070700
vt 0.229006 0.079754
vt 0.207826 0.058198
vt 0.239261 0.069888
vt 0.242543 0.147047
vt 0.211249 0.163935
vt 0.846809 0.680442
vt 0.839380 0.710067
vt 0.834395 0.706235
vt 0.841914 0.682634
vt 0.814224 0.723438
vt 0.814855 0.717229
vt 0.787922 0.711816
vt 0.792513 0.707066
vt 0.772332 0.689820
vt 0.781596 0.688295
vt 0.784011 0.664387
vt 0.789199 0.668468
vt 0.807758 0.648214
vt 0.809385 0.654535
vt 0.832764 0.656876
vt 0.829690 0.662089
vt 0.813062 0.710426
vt 0.828982 0.701780
vt 0.795251 0.705043
vt 0.786229 0.689156
vt 0.791456 0.671680
vt 0.807842 0.660698
vt 0.825668 0.667548
vt 0.836628 0.683717
vt 0.392785 0.503600
vt 0.392679 0.514649
vt 0.413475 0.495066
vt 0.422121 0.502429
vt 0.421457 0.474674
vt 0.434061 0.473425
vt 0.413311 0.454195
vt 0.423244 0.444412
vt 0.372188 0.495365
vt 0.363651 0.474370
vt 0.377928 0.473735
vt 0.380015 0.485899
vt 0.372046 0.453670
vt 0.380958 0.461505
vt 0.393129 0.445656
vt 0.393497 0.459803
vt 0.413311 0.454195
vt 0.405175 0.463127
vt 0.421457 0.474674
vt 0.407005 0.475054
vt 0.413475 0.495066
vt 0.404164 0.487229
vt 0.392785 0.503600
vt 0.391667 0.488995
vt 0.392460 0.474332
vt 0.372188 0.495365
vt 0.362906 0.502284
vt 0.350959 0.471738
vt 0.363651 0.474370
vt 0.364060 0.442019
vt 0.372046 0.453670
vt 0.394440 0.431294
vt 0.393129 0.445656
vn 0.023589 0.996867 -0.075501
vn 0.009982 0.996677 -0.080847
vn -0.038621 0.761586 0.646913
vn -0.014081 0.757498 0.652686
vn 0.008130 0.996380 -0.084620
vn -0.017421 0.764538 0.644343
vn 0.052764 0.646717 -0.760903
vn 0.033369 0.645115 -0.763356
vn 0.059041 0.649209 -0.758315
vn 0.065122 -0.078346 -0.994797
vn 0.042556 -0.077859 -0.996056
vn 0.067484 -0.080045 -0.994504
vn 0.039595 -0.757993 -0.651059
vn 0.033482 -0.755546 -0.654240
vn 0.047434 -0.762306 -0.645476
vn -0.009067 -0.997016 0.076668
vn 0.008207 -0.997340 0.072429
vn 0.007568 -0.996607 0.081955
vn -0.052325 -0.648645 0.759290
vn -0.017375 -0.652140 0.757900
vn -0.025122 -0.646812 0.762236
vn -0.064803 0.079820 0.994701
vn -0.028826 0.080122 0.996368
vn -0.035180 0.078000 0.996333
vn 0.018725 0.078364 0.996749
vn 0.018973 0.756343 0.653900
vn 0.018485 -0.644517 0.764367
vn 0.017029 -0.996404 0.083004
vn 0.022664 -0.761573 -0.647683
vn 0.025635 -0.078761 -0.996564
vn 0.024518 0.650213 -0.759356
vn 0.018568 0.996997 -0.075185
vn 0.273439 0.076959 0.958806
vn 0.723636 0.044809 0.688726
vn 0.731304 0.508666 0.454372
vn 0.260456 0.737542 0.623053
vn 0.254678 -0.627265 0.735987
vn 0.715552 -0.451778 0.532807
vn 0.204534 -0.975846 0.076748
vn 0.709621 -0.701300 0.067945
vn 0.176985 -0.744631 -0.643584
vn 0.707664 -0.543005 -0.452059
vn 0.162275 -0.077329 -0.983711
vn 0.714747 -0.066104 -0.696252
vn 0.186892 0.633790 -0.750588
vn 0.723383 0.441312 -0.531000
vn 0.216542 0.972950 -0.080481
vn 0.731614 0.680276 -0.044347
vn 0.090086 0.991671 -0.092054
vn 0.109632 0.763650 0.636254
vn 0.082360 0.636684 -0.766714
vn 0.071346 -0.079549 -0.994274
vn 0.083979 -0.750031 -0.656050
vn 0.092963 -0.993609 0.064017
vn 0.112128 -0.656048 0.746343
vn 0.110358 0.076905 0.990912
vn 0.132806 0.986355 -0.097295
vn 0.173150 0.759109 0.627513
vn 0.107334 0.631313 -0.768064
vn 0.084945 -0.080402 -0.993136
vn 0.105231 -0.746559 -0.656945
vn 0.129906 -0.989825 0.058054
vn 0.171137 -0.655237 0.735783
vn 0.178202 0.074644 0.981159
vn 0.999293 -0.008481 0.036626
vn 0.744121 -0.382786 0.547503
vn 0.836892 -0.534826 0.116502
vn 0.843759 -0.526566 0.103917
vn 0.751512 -0.449802 0.482606
vn 0.873878 -0.320896 -0.365189
vn 0.852700 -0.301742 -0.426444
vn 0.480000 0.086508 -0.872993
vn 0.524240 0.029581 -0.851056
vn 0.513436 0.569861 -0.641593
vn 0.486815 0.487881 -0.724557
vn 0.521303 0.853322 0.009174
vn 0.532633 0.843946 -0.063703
vn 0.571925 0.594960 0.564734
vn 0.557173 0.667497 0.493969
vn 0.644858 0.128715 0.753386
vn 0.651290 0.099453 0.752283
vn 0.018084 0.565322 -0.824672
vn -0.529524 0.578291 -0.620632
vn -0.604939 0.788760 -0.109120
vn -0.022723 0.995729 -0.089490
vn -0.622871 0.522746 0.582038
vn -0.032275 0.677776 0.734560
vn -0.302470 -0.002807 0.953155
vn -0.052573 -0.030991 0.998136
vn -0.404860 -0.585316 0.702491
vn -0.082239 -0.651598 0.754093
vn -0.406392 -0.913332 0.025886
vn -0.100657 -0.992613 0.067740
vn -0.435644 -0.681405 -0.588134
vn -0.012862 -0.781975 -0.623177
vn -0.562901 -0.067039 -0.823801
vn 0.087046 -0.100390 -0.991133
vn -0.217942 0.630008 -0.745380
vn -0.575671 0.537015 -0.616617
vn -0.695900 0.716435 -0.049438
vn -0.231246 0.969808 -0.077448
vn -0.562400 0.631734 0.533497
vn -0.250970 0.736033 0.628705
vn -0.699461 0.070363 0.711199
vn -0.258369 0.079502 0.962769
vn -0.581682 -0.516905 0.628057
vn -0.258885 -0.622566 0.738505
vn -0.719179 -0.691602 0.066851
vn -0.242549 -0.966738 0.081162
vn -0.593423 -0.612839 -0.521802
vn -0.226193 -0.742517 -0.630481
vn -0.715931 -0.046267 -0.696636
vn -0.210225 -0.079436 -0.974421
vn -0.999725 0.018313 0.014650
vn -0.117536 0.992716 -0.026475
vn -0.068024 0.686390 -0.724045
vn -0.165554 0.718529 0.675506
vn -0.172348 0.080370 0.981752
vn -0.162316 -0.601935 0.781875
vn -0.112317 -0.985265 0.128987
vn -0.063421 -0.789643 -0.610280
vn -0.028576 -0.078363 -0.996515
vn -0.974872 -0.202282 -0.093311
vn -0.913002 -0.348556 -0.211981
vn -0.948999 -0.118264 -0.292258
vn -0.932913 0.303509 -0.193794
vn -0.981886 0.099755 -0.161084
vn -0.944073 -0.283161 -0.168956
vn -0.981353 -0.046754 -0.186441
vn -0.992144 0.091408 -0.085407
s 1
g FoodTallLLowerLeg
usemtl Potato_blinn2SG
f 2/1/1 1/4/2 22/3/3 24/2/4
f 1/4/2 3/6/5 23/5/6 22/3/3
f 3/6/5 1/4/2 4/8/7 5/7/8
f 1/4/2 2/1/1 6/9/9 4/8/7
f 5/7/8 4/8/7 7/11/10 8/10/11
f 4/8/7 6/9/9 9/12/12 7/11/10
f 8/13/11 7/16/10 10/15/13 11/14/14
f 7/16/10 9/18/12 12/17/15 10/15/13
f 11/14/14 10/15/13 13/20/16 14/19/17
f 10/15/13 12/17/15 15/21/18 13/20/16
f 14/19/17 13/20/16 16/23/19 17/22/20
f 13/20/16 15/21/18 18/24/21 16/23/19
f 17/22/20 16/23/19 19/26/22 20/25/23
f 16/23/19 18/24/21 21/27/24 19/26/22
f 20/25/23 19/26/22 22/3/3 23/5/6
f 19/26/22 21/27/24 24/2/4 22/3/3
f 24/2/4 21/27/24 26/29/25 25/28/26
f 21/27/24 18/24/21 27/30/27 26/29/25
f 18/24/21 15/21/18 28/31/28 27/30/27
f 15/21/18 12/17/15 29/32/29 28/31/28
f 12/17/15 9/18/12 30/33/30 29/32/29
f 9/12/12 6/9/9 31/35/31 30/34/30
f 6/9/9 2/1/1 32/36/32 31/35/31
f 2/1/1 24/2/4 25/28/26 32/36/32
f 65/37/33 34/40/34 33/39/35 58/38/36
f 65/37/33 64/42/37 35/41/38 34/40/34
f 64/42/37 63/44/39 36/43/40 35/41/38
f 63/44/39 62/46/41 37/45/42 36/43/40
f 62/46/41 61/48/43 38/47/44 37/45/42
f 61/49/43 60/52/45 39/51/46 38/50/44
f 60/52/45 59/54/47 40/53/48 39/51/46
f 59/54/47 58/38/36 33/39/35 40/53/48
f 42/55/49 41/56/50 23/5/6 3/6/5
f 43/57/51 42/55/49 3/6/5 5/7/8
f 44/58/52 43/57/51 5/7/8 8/10/11
f 45/59/53 44/60/52 8/13/11 11/14/14
f 46/61/54 45/59/53 11/14/14 14/19/17
f 47/62/55 46/61/54 14/19/17 17/22/20
f 48/63/56 47/62/55 17/22/20 20/25/23
f 41/56/50 48/63/56 20/25/23 23/5/6
f 50/64/57 49/65/58 41/56/50 42/55/49
f 51/66/59 50/64/57 42/55/49 43/57/51
f 52/67/60 51/66/59 43/57/51 44/58/52
f 53/68/61 52/69/60 44/60/52 45/59/53
f 54/70/62 53/68/61 45/59/53 46/61/54
f 55/71/63 54/70/62 46/61/54 47/62/55
f 56/72/64 55/71/63 47/62/55 48/63/56
f 49/65/58 56/72/64 48/63/56 41/56/50
f 34/40/34 35/41/38 57/73/65
f 33/39/35 34/40/34 57/74/65
f 40/53/48 33/39/35 57/75/65
f 39/51/46 40/53/48 57/76/65
f 38/50/44 39/51/46 57/77/65
f 37/45/42 38/47/44 57/78/65
f 36/43/40 37/45/42 57/79/65
f 35/41/38 36/43/40 57/80/65
f 32/36/32 25/28/26 58/38/36 59/54/47
f 31/35/31 32/36/32 59/54/47 60/52/45
f 30/34/30 31/35/31 60/52/45 61/49/43
f 29/32/29 30/33/30 61/48/43 62/46/41
f 28/31/28 29/32/29 62/46/41 63/44/39
f 27/30/27 28/31/28 63/44/39 64/42/37
f 26/29/25 27/30/27 64/42/37 65/37/33
f 25/28/26 26/29/25 65/37/33 58/38/36
s 3
f 69/81/66 70/84/67 50/83/68 51/82/69
f 70/84/67 66/86/70 49/85/71 50/83/68
f 66/86/70 71/88/72 56/87/73 49/85/71
f 71/88/72 67/90/74 55/89/75 56/87/73
f 67/90/74 72/92/76 54/91/77 55/89/75
f 72/92/76 68/94/78 53/93/79 54/91/77
f 68/94/78 73/96/80 52/95/81 53/93/79
f 73/97/80 69/81/66 51/82/69 52/98/81
s 4
f 69/99/82 74/102/83 75/101/84 70/100/85
f 70/100/85 75/101/84 76/104/86 66/103/87
f 66/103/87 76/104/86 77/106/88 71/105/89
f 71/105/89 77/106/88 78/108/90 67/107/91
f 67/107/91 78/108/90 79/110/92 72/109/93
f 72/109/93 79/110/92 80/112/94 68/111/95
f 68/111/95 80/112/94 81/114/96 73/113/97
f 73/113/97 81/114/96 74/102/83 69/99/82
s 5
f 91/131/98 82/134/99 86/133/100 92/132/101
f 92/132/101 86/133/100 83/136/102 93/135/103
f 93/135/103 83/136/102 87/138/104 94/137/105
f 94/137/105 87/138/104 84/140/106 95/139/107
f 95/139/107 84/140/106 88/142/108 96/141/109
f 96/141/109 88/142/108 85/144/110 97/143/111
f 97/143/111 85/144/110 89/146/112 98/145/113
f 98/145/113 89/146/112 82/134/99 91/131/98
f 82/134/99 89/146/112 90/147/114 86/133/100
f 89/146/112 85/144/110 88/142/108 90/147/114
f 90/147/114 88/142/108 84/140/106 87/138/104
f 86/133/100 90/147/114 87/138/104 83/136/102
f 91/148/98 92/151/101 100/150/115 99/149/116
f 92/151/101 93/153/103 101/152/117 100/150/115
f 93/153/103 94/155/105 102/154/118 101/152/117
f 94/155/105 95/129/107 103/130/119 102/154/118
f 95/129/107 96/127/109 104/128/120 103/130/119
f 96/127/109 97/125/111 105/126/121 104/128/120
f 97/125/111 98/123/113 106/124/122 105/126/121
f 98/123/113 91/148/98 99/149/116 106/124/122
s 4
f 75/101/84 100/116/123 101/115/124 76/104/86
f 76/104/86 101/115/124 102/117/125 77/106/88
f 77/106/88 102/117/125 103/118/126 78/108/90
f 78/108/90 103/118/126 104/119/127 79/110/92
f 79/110/92 104/119/127 105/120/128 80/112/94
f 80/112/94 105/120/128 106/121/129 81/114/96
f 81/114/96 106/121/129 99/122/130 74/102/83
f 74/102/83 99/122/130 100/116/123 75/101/84
