# This file uses centimeters as units for non-parametric coordinates.

mtllib PotatoMediumLUpperLeg.mtl
g default
v -1.412132 0.229213 -0.270663
v -1.396070 -0.289376 -0.228127
v -1.387442 -0.246579 0.291783
v -1.404948 0.271985 0.248105
v -1.496406 -0.040266 -0.338696
v -1.135374 -0.380875 -0.315612
v -1.479272 -0.361416 0.041327
v -1.125675 -0.323132 0.384725
v -1.485263 0.017504 0.362782
v -1.145360 0.377019 0.327269
v -1.502399 0.338655 -0.017240
v -1.155059 0.319275 -0.373068
v -1.146833 -0.041002 -0.461015
v -1.128062 -0.469296 0.044194
v -1.133903 0.035989 0.472768
v -1.152672 0.464282 -0.032441
v -1.607173 -0.014838 0.014522
v 0.285659 -0.045316 -0.447432
v 0.659537 -0.064757 -0.439340
v -0.041274 -0.029969 -0.436469
v 0.275293 0.303869 -0.360769
v -0.051591 0.311174 -0.351853
v 0.649423 0.276221 -0.354756
v 0.273867 0.444372 -0.029229
v -0.052998 0.448241 -0.028086
v 0.648028 0.413251 -0.031113
v 0.279854 0.357738 0.320229
v -0.047139 0.363776 0.313158
v 0.653873 0.328807 0.310000
v 0.291738 0.026508 0.460561
v -0.035337 0.040170 0.450207
v 0.665474 0.005355 0.447003
v 0.302101 -0.322925 0.373923
v -0.025035 -0.300895 0.365587
v 0.675590 -0.335625 0.362413
v 0.303530 -0.463179 0.042362
v -0.023610 -0.437991 0.041823
v 0.676983 -0.472655 0.038771
v 0.297540 -0.376794 -0.307076
v -0.029487 -0.353499 -0.299423
v 0.671139 -0.388208 -0.302343
v 1.061070 -0.393782 -0.301733
v 1.066897 -0.477992 0.038423
v 1.065505 -0.341346 0.361157
v 1.055419 -0.001323 0.445506
v 1.043851 0.321219 0.308888
v 1.038023 0.405429 -0.031265
v 1.039414 0.268784 -0.353999
v 1.049502 -0.071239 -0.438348
v 1.313470 -0.368227 -0.294021
v 1.315305 -0.449294 0.038418
v 1.320590 -0.316421 0.353417
v 1.326913 0.013159 0.435212
v 1.330846 0.325503 0.301138
v 1.328991 0.406586 -0.031417
v 1.323737 0.273671 -0.346494
v 1.317430 -0.055933 -0.428173
v -0.403391 -0.366732 -0.312884
v -0.422869 -0.033055 -0.454723
v -0.440935 0.321530 -0.367078
v -0.444496 0.462191 -0.031457
v -0.436320 0.376039 0.322027
v -0.416717 0.039624 0.464082
v -0.398778 -0.312222 0.376220
v -0.395089 -0.455481 0.040806
v -0.834451 -0.421301 -0.336331
v -0.869303 -0.060686 -0.489930
v -0.902744 0.322762 -0.394732
v -0.910837 0.474815 -0.030793
v -0.897742 0.381862 0.352387
v -0.862633 0.018112 0.506229
v -0.829449 -0.362201 0.410787
v -0.821097 -0.517387 0.047093
v 1.491142 -0.004223 -0.002081
v 1.443218 -0.363908 0.028428
v 1.447842 -0.253364 0.290369
v 1.450935 0.020138 0.359592
v 1.453076 0.280689 0.248128
v 1.449914 0.349060 -0.029858
v 1.446720 0.237463 -0.293355
v 1.442505 -0.037633 -0.361113
v 1.441595 -0.296677 -0.248219
vt 0.239147 0.380404
vt 0.246170 0.389944
vt 0.241741 0.398112
vt 0.230875 0.389303
vt 0.235016 0.402711
vt 0.225099 0.398776
vt 0.236095 0.410238
vt 0.222799 0.409240
vt 0.233344 0.418114
vt 0.223479 0.420011
vt 0.240644 0.423265
vt 0.228591 0.430373
vt 0.244743 0.431723
vt 0.236301 0.440279
vt 0.255292 0.431514
vt 0.246607 0.450101
vt 0.249466 0.372790
vt 0.257909 0.391565
vt 0.250505 0.411086
vt 0.104641 0.370826
vt 0.126335 0.372814
vt 0.123262 0.390834
vt 0.101873 0.390083
vt 0.148111 0.375161
vt 0.144978 0.391737
vt 0.130518 0.354967
vt 0.152227 0.358930
vt 0.108784 0.351555
vt 0.135516 0.337129
vt 0.156911 0.343157
vt 0.113915 0.332127
vt 0.158536 0.474205
vt 0.138507 0.481033
vt 0.132818 0.463367
vt 0.153403 0.458576
vt 0.117855 0.487337
vt 0.112079 0.467902
vt 0.127991 0.445507
vt 0.148910 0.442387
vt 0.107154 0.448461
vt 0.124167 0.427458
vt 0.145390 0.425744
vt 0.103295 0.429024
vt 0.122821 0.409117
vt 0.144288 0.408735
vt 0.101692 0.409523
vt 0.205071 0.381214
vt 0.211502 0.368502
vt 0.200398 0.394610
vt 0.198525 0.408702
vt 0.199730 0.422949
vt 0.203839 0.436540
vt 0.209658 0.449517
vt 0.215202 0.462008
vt 0.218042 0.356015
vt 0.073923 0.410430
vt 0.073611 0.389424
vt 0.075801 0.431531
vt 0.079468 0.452550
vt 0.084263 0.473653
vt 0.090050 0.494687
vt 0.079656 0.347230
vt 0.085330 0.326185
vt 0.075742 0.368310
vt 0.046308 0.411970
vt 0.044961 0.388622
vt 0.048380 0.435174
vt 0.052047 0.457836
vt 0.056712 0.480106
vt 0.062335 0.502009
vt 0.050639 0.341603
vt 0.057838 0.319946
vt 0.046870 0.364840
vt 0.176948 0.377983
vt 0.173508 0.392973
vt 0.181483 0.363632
vt 0.185976 0.349978
vt 0.181279 0.453376
vt 0.185675 0.466856
vt 0.176850 0.439124
vt 0.173474 0.424195
vt 0.172404 0.408586
vt 0.035606 0.472421
vt 0.031333 0.449999
vt 0.040561 0.494565
vt 0.029060 0.350567
vt 0.035371 0.327105
vt 0.026248 0.374452
vt 0.026159 0.399969
vt 0.028354 0.425912
vt 0.035903 0.412996
vt 0.037942 0.437662
vt 0.041957 0.460551
vt 0.046698 0.482466
vt 0.048729 0.316648
vt 0.052193 0.504748
vt 0.039756 0.339579
vt 0.036379 0.362975
vt 0.033824 0.387106
vn -0.236502 0.626685 -0.742518
vn -0.241188 -0.085130 -0.966737
vn -0.717989 -0.078637 -0.691598
vn -0.601902 0.511999 -0.612838
vn -0.246744 -0.742653 -0.622563
vn -0.571310 -0.637511 -0.516899
vn -0.242549 -0.966876 0.079505
vn -0.687706 -0.722571 0.070368
vn -0.240626 -0.632733 0.736035
vn -0.553575 -0.542644 0.631738
vn -0.232481 0.073650 0.969808
vn -0.696615 0.038025 0.716437
vn -0.230132 0.741708 0.630007
vn -0.585703 0.607098 0.537015
vn -0.226174 0.970842 -0.079438
vn -0.727257 0.684804 -0.046268
vn -0.999350 -0.031039 0.018317
vn 0.008907 -0.081823 -0.996607
vn -0.012623 -0.762547 -0.646810
vn -0.039871 -0.760048 -0.648643
vn -0.007812 -0.076808 -0.997015
vn -0.004949 -0.758086 -0.652136
vn 0.009390 -0.072287 -0.997340
vn 0.022748 0.654699 -0.755548
vn 0.028912 0.651619 -0.757995
vn 0.036842 0.646164 -0.762309
vn 0.026218 0.996620 -0.077860
vn 0.048803 0.995731 -0.078349
vn 0.051170 0.995477 -0.080048
vn 0.020850 0.763801 0.645115
vn 0.040283 0.761667 0.646716
vn 0.046603 0.759183 0.649207
vn 0.006746 0.084744 0.996380
vn 0.008656 0.081002 0.996676
vn 0.022351 0.075881 0.996866
vn -0.006851 -0.644537 0.764542
vn -0.028006 -0.647454 0.761590
vn -0.003376 -0.652827 0.757500
vn -0.012486 -0.996707 0.080125
vn -0.048484 -0.995629 0.079822
vn -0.018839 -0.996775 0.078003
vn 0.002792 0.642517 -0.766267
vn 0.008235 -0.087535 -0.996127
vn 0.018245 -0.766467 -0.642025
vn 0.021824 -0.996646 0.078874
vn 0.020366 -0.656486 0.754063
vn 0.010684 0.069857 0.997500
vn 0.004131 0.754984 0.655730
vn 0.001756 0.996854 -0.079235
vn 0.031013 -0.763963 -0.644514
vn 0.035065 -0.996308 0.078367
vn 0.029695 -0.653498 0.756345
vn 0.017338 0.075485 0.996996
vn 0.012068 0.759660 0.650209
vn 0.009293 0.996850 -0.078764
vn 0.012039 0.647964 -0.761576
vn 0.018384 -0.082716 -0.996404
vn 0.238998 -0.735645 -0.633803
vn 0.261829 -0.961951 0.078074
vn 0.240940 -0.621363 0.745557
vn 0.185194 0.087100 0.978834
vn 0.144525 0.758449 0.635505
vn 0.118734 0.989920 -0.077206
vn 0.138220 0.651179 -0.746231
vn 0.178518 -0.071079 -0.981366
vn 0.067401 -0.065244 -0.995590
vn 0.095275 -0.748146 -0.656659
vn 0.046684 0.656760 -0.752653
vn 0.032040 0.996297 -0.079779
vn 0.045951 0.767973 0.638832
vn 0.065886 0.091348 0.993637
vn 0.093888 -0.637887 0.764386
vn 0.100135 -0.991990 0.076995
vn 0.814919 -0.383027 0.434969
vn 0.999893 -0.009594 -0.011009
vn 0.815192 0.045360 0.577412
vn 0.797600 0.467350 0.381338
vn 0.792580 0.606928 -0.058775
vn 0.784648 0.399798 -0.473804
vn 0.797287 -0.050588 -0.601477
vn 0.802316 -0.451617 -0.390296
vn 0.816743 -0.575877 0.036020
s 1
g FoodMediumLUpperLeg
usemtl Potato_blinn2SG
f 12/1/1 13/4/2 5/3/3 1/2/4
f 13/4/2 6/6/5 2/5/6 5/3/3
f 6/6/5 14/8/7 7/7/8 2/5/6
f 14/8/7 8/10/9 3/9/10 7/7/8
f 8/10/9 15/12/11 9/11/12 3/9/10
f 15/12/11 10/14/13 4/13/14 9/11/12
f 10/14/13 16/16/15 11/15/16 4/13/14
f 16/17/15 12/1/1 1/2/4 11/18/16
f 1/2/4 5/3/3 17/19/17 11/18/16
f 11/15/16 17/19/17 9/11/12 4/13/14
f 17/19/17 7/7/8 3/9/10 9/11/12
f 5/3/3 2/5/6 7/7/8 17/19/17
f 19/20/18 41/23/19 39/22/20 18/21/21
f 18/21/21 39/22/20 40/25/22 20/24/23
f 20/24/23 22/27/24 21/26/25 18/21/21
f 18/21/21 21/26/25 23/28/26 19/20/18
f 22/27/24 25/30/27 24/29/28 21/26/25
f 21/26/25 24/29/28 26/31/29 23/28/26
f 25/32/27 28/35/30 27/34/31 24/33/28
f 24/33/28 27/34/31 29/37/32 26/36/29
f 28/35/30 31/39/33 30/38/34 27/34/31
f 27/34/31 30/38/34 32/40/35 29/37/32
f 31/39/33 34/42/36 33/41/37 30/38/34
f 30/38/34 33/41/37 35/43/38 32/40/35
f 34/42/36 37/45/39 36/44/40 33/41/37
f 33/41/37 36/44/40 38/46/41 35/43/38
f 37/45/39 40/25/22 39/22/20 36/44/40
f 36/44/40 39/22/20 41/23/19 38/46/41
f 12/1/1 68/48/42 67/47/43 13/4/2
f 13/4/2 67/47/43 66/49/44 6/6/5
f 6/6/5 66/49/44 73/50/45 14/8/7
f 14/8/7 73/50/45 72/51/46 8/10/9
f 8/10/9 72/51/46 71/52/47 15/12/11
f 15/12/11 71/52/47 70/53/48 10/14/13
f 10/14/13 70/53/48 69/54/49 16/16/15
f 16/17/15 69/55/49 68/48/42 12/1/1
f 41/23/19 42/57/50 43/56/51 38/46/41
f 38/46/41 43/56/51 44/58/52 35/43/38
f 35/43/38 44/58/52 45/59/53 32/40/35
f 32/40/35 45/59/53 46/60/54 29/37/32
f 29/37/32 46/60/54 47/61/55 26/36/29
f 26/31/29 47/63/55 48/62/56 23/28/26
f 23/28/26 48/62/56 49/64/57 19/20/18
f 19/20/18 49/64/57 42/57/50 41/23/19
f 42/57/50 50/66/58 51/65/59 43/56/51
f 43/56/51 51/65/59 52/67/60 44/58/52
f 44/58/52 52/67/60 53/68/61 45/59/53
f 45/59/53 53/68/61 54/69/62 46/60/54
f 46/60/54 54/69/62 55/70/63 47/61/55
f 47/63/55 55/72/63 56/71/64 48/62/56
f 48/62/56 56/71/64 57/73/65 49/64/57
f 49/64/57 57/73/65 50/66/58 42/57/50
f 59/74/66 20/24/23 40/25/22 58/75/67
f 60/76/68 22/27/24 20/24/23 59/74/66
f 61/77/69 25/30/27 22/27/24 60/76/68
f 62/78/70 28/35/30 25/32/27 61/79/69
f 63/80/71 31/39/33 28/35/30 62/78/70
f 64/81/72 34/42/36 31/39/33 63/80/71
f 65/82/73 37/45/39 34/42/36 64/81/72
f 58/75/67 40/25/22 37/45/39 65/82/73
f 67/47/43 59/74/66 58/75/67 66/49/44
f 68/48/42 60/76/68 59/74/66 67/47/43
f 69/55/49 61/77/69 60/76/68 68/48/42
f 70/53/48 62/78/70 61/79/69 69/54/49
f 71/52/47 63/80/71 62/78/70 70/53/48
f 72/51/46 64/81/72 63/80/71 71/52/47
f 73/50/45 65/82/73 64/81/72 72/51/46
f 66/49/44 58/75/67 65/82/73 73/50/45
f 76/92/74 74/84/75 77/93/76
f 77/93/76 74/83/75 78/94/77
f 78/94/77 74/85/75 79/96/78
f 79/95/78 74/87/75 80/97/79
f 80/97/79 74/86/75 81/98/80
f 81/98/80 74/88/75 82/99/81
f 82/99/81 74/89/75 75/91/82
f 75/91/82 74/90/75 76/92/74
f 51/65/59 75/91/82 76/92/74 52/67/60
f 52/67/60 76/92/74 77/93/76 53/68/61
f 53/68/61 77/93/76 78/94/77 54/69/62
f 54/69/62 78/94/77 79/96/78 55/70/63
f 55/72/63 79/95/78 80/97/79 56/71/64
f 56/71/64 80/97/79 81/98/80 57/73/65
f 57/73/65 81/98/80 82/99/81 50/66/58
f 50/66/58 82/99/81 75/91/82 51/65/59
