# This file uses centimeters as units for non-parametric coordinates.

mtllib CakeShortRLowerLeg.mtl
g default
v 0.791865 0.000001 -0.000011
v -0.620371 -0.308521 0.082668
v -0.620369 -0.225853 0.225853
v -0.620369 -0.082668 0.308522
v -0.620369 0.082668 0.308522
v -0.620369 0.225854 0.225855
v -0.620371 0.308522 0.082669
v -0.620372 0.308523 -0.082667
v -0.620373 0.225854 -0.225853
v -0.620374 0.082670 -0.308521
v -0.620374 -0.082667 -0.308521
v -0.620373 -0.225852 -0.225854
v -0.620372 -0.308521 -0.082668
v -0.722875 -0.287924 0.077150
v -0.722874 -0.210775 0.210776
v -0.722873 -0.077149 0.287925
v -0.722873 0.077149 0.287925
v -0.722874 0.210776 0.210777
v -0.722875 0.287925 0.077151
v -0.722876 0.287925 -0.077147
v -0.722877 0.210776 -0.210774
v -0.722878 0.077150 -0.287923
v -0.722878 -0.077148 -0.287923
v -0.722877 -0.210774 -0.210774
v -0.722876 -0.287923 -0.077148
v -0.795832 -0.229140 0.061400
v -0.795831 -0.167742 0.167744
v -0.795830 -0.061398 0.229143
v -0.795830 0.061398 0.229143
v -0.795831 0.167743 0.167744
v -0.795832 0.229141 0.061400
v -0.795833 0.229141 -0.061396
v -0.795834 0.167744 -0.167740
v -0.795834 0.061399 -0.229139
v -0.795834 -0.061397 -0.229139
v -0.795834 -0.167741 -0.167741
v -0.795833 -0.229139 -0.061397
v -0.833941 -0.124009 0.033230
v -0.833941 -0.090781 0.090784
v -0.833941 -0.033228 0.124012
v -0.833941 0.033229 0.124012
v -0.833941 0.090782 0.090784
v -0.833941 0.124011 0.033230
v -0.833942 0.124011 -0.033226
v -0.833942 0.090782 -0.090779
v -0.833943 0.033229 -0.124008
v -0.833943 -0.033227 -0.124008
v -0.833942 -0.090781 -0.090779
v -0.833942 -0.124009 -0.033227
v -0.845132 0.000001 0.000002
v 0.452724 0.024189 -0.090279
v 0.452724 0.066083 -0.066091
v 0.452724 0.090271 -0.024196
v 0.452724 0.090271 0.024179
v 0.452725 0.066083 0.066074
v 0.452725 0.024189 0.090262
v 0.452725 -0.024187 0.090261
v 0.452725 -0.066082 0.066073
v 0.452724 -0.090269 0.024179
v 0.452724 -0.090269 -0.024197
v 0.452724 -0.066082 -0.066091
v 0.452724 -0.024187 -0.090279
v 0.660784 0.021972 -0.082008
v 0.660784 0.060027 -0.060037
v 0.660785 0.081998 -0.021981
v 0.660785 0.081998 0.021961
v 0.660785 0.060027 0.060016
v 0.660786 0.021972 0.081987
v 0.660786 -0.021971 0.081987
v 0.660785 -0.060026 0.060016
v 0.660785 -0.081997 0.021961
v 0.660785 -0.081997 -0.021982
v 0.660784 -0.060026 -0.060037
v 0.660784 -0.021970 -0.082008
v 0.556753 0.021972 -0.082007
v 0.556754 0.060027 -0.060036
v 0.556754 0.081998 -0.021981
v 0.556754 0.081998 0.021962
v 0.556755 0.060027 0.060017
v 0.556755 0.021972 0.081988
v 0.556755 -0.021971 0.081988
v 0.556755 -0.060026 0.060017
v 0.556754 -0.081997 0.021962
v 0.556754 -0.081997 -0.021981
v 0.556754 -0.060026 -0.060036
v 0.556753 -0.021970 -0.082007
v -0.198099 0.082670 -0.308525
v -0.198098 0.225854 -0.225856
v -0.198097 0.308523 -0.082671
v -0.198096 0.308522 0.082666
v -0.198094 0.225854 0.225851
v -0.198094 0.082668 0.308519
v -0.198094 -0.082668 0.308518
v -0.198094 -0.225853 0.225850
v -0.198096 -0.308521 0.082665
v -0.198097 -0.308521 -0.082672
v -0.198098 -0.225852 -0.225857
v -0.198099 -0.082667 -0.308525
v 0.018841 0.072381 -0.270130
v 0.018842 0.197746 -0.197749
v 0.018843 0.270126 -0.072384
v 0.018844 0.270125 0.072375
v 0.018845 0.197745 0.197740
v 0.018846 0.072380 0.270120
v 0.018846 -0.072379 0.270119
v 0.018845 -0.197745 0.197740
v 0.018844 -0.270124 0.072374
v 0.018843 -0.270124 -0.072385
v 0.018842 -0.197744 -0.197750
v 0.018841 -0.072378 -0.270130
v 0.235782 0.048138 -0.179657
v 0.235783 0.131514 -0.131520
v 0.235783 0.179651 -0.048144
v 0.235784 0.179651 0.048131
v 0.235785 0.131514 0.131506
v 0.235785 0.048137 0.179644
v 0.235785 -0.048137 0.179643
v 0.235785 -0.131513 0.131506
v 0.235784 -0.179650 0.048130
v 0.235783 -0.179650 -0.048144
v 0.235783 -0.131512 -0.131520
v 0.235782 -0.048136 -0.179657
v 0.747549 -0.021971 0.081986
v 0.770225 -0.017577 0.065588
v 0.770225 -0.048022 0.048011
v 0.747548 -0.060026 0.060015
v 0.770225 -0.065599 0.017566
v 0.747548 -0.081997 0.021960
v 0.770224 -0.065599 -0.017589
v 0.747548 -0.081997 -0.021983
v 0.770224 -0.048022 -0.048034
v 0.747547 -0.060026 -0.060037
v 0.770224 -0.017577 -0.065611
v 0.747547 -0.021970 -0.082009
v 0.770224 0.017578 -0.065611
v 0.747547 0.021972 -0.082009
v 0.770224 0.048023 -0.048034
v 0.747547 0.060027 -0.060038
v 0.770224 0.065601 -0.017589
v 0.747548 0.081998 -0.021982
v 0.770225 0.065601 0.017566
v 0.747548 0.081998 0.021960
v 0.770225 0.048023 0.048011
v 0.747548 0.060027 0.060016
v 0.770225 0.017578 0.065588
v 0.747549 0.021972 0.081987
vt 0.764117 0.204526
vt 0.730877 0.205653
vt 0.736418 0.199877
vt 0.738409 0.203043
vt 0.734184 0.207400
vt 0.744105 0.197645
vt 0.744246 0.201382
vt 0.751877 0.199555
vt 0.750131 0.202862
vt 0.757654 0.205096
vt 0.754489 0.207087
vt 0.759887 0.212783
vt 0.756150 0.212924
vt 0.757976 0.220556
vt 0.754670 0.218810
vt 0.752435 0.226333
vt 0.750445 0.223168
vt 0.744747 0.228565
vt 0.744607 0.224829
vt 0.736974 0.226654
vt 0.738721 0.223348
vt 0.731198 0.221113
vt 0.734364 0.219123
vt 0.728967 0.213426
vt 0.732703 0.213285
vt 0.740155 0.205865
vt 0.737107 0.208971
vt 0.744347 0.204699
vt 0.748561 0.205786
vt 0.751667 0.208833
vt 0.752833 0.213026
vt 0.751746 0.217240
vt 0.748698 0.220346
vt 0.744506 0.221511
vt 0.740292 0.220425
vt 0.737186 0.217377
vt 0.736021 0.213184
vt 0.742190 0.209283
vt 0.740578 0.210913
vt 0.744401 0.208676
vt 0.746619 0.209257
vt 0.748249 0.210868
vt 0.748856 0.213079
vt 0.748275 0.215297
vt 0.746664 0.216928
vt 0.744453 0.217534
vt 0.742235 0.216954
vt 0.740604 0.215342
vt 0.739998 0.213131
vt 0.744427 0.213105
vt 0.771328 0.195421
vt 0.768973 0.195676
vt 0.765915 0.186932
vt 0.769731 0.186563
vt 0.773730 0.195293
vt 0.773568 0.186421
vt 0.776138 0.195288
vt 0.777401 0.186490
vt 0.778508 0.195407
vt 0.781203 0.186781
vt 0.780796 0.195657
vt 0.784938 0.187326
vt 0.782954 0.196056
vt 0.788553 0.188184
vt 0.784920 0.196626
vt 0.791954 0.189454
vt 0.786622 0.197408
vt 0.794972 0.191282
vt 0.762696 0.197331
vt 0.761083 0.198264
vt 0.752024 0.191911
vt 0.755073 0.189925
vt 0.764599 0.196611
vt 0.758508 0.188527
vt 0.766712 0.196067
vt 0.762155 0.187564
vt 0.770063 0.199668
vt 0.771988 0.199477
vt 0.773945 0.199368
vt 0.775907 0.199342
vt 0.777845 0.199397
vt 0.779732 0.199533
vt 0.781544 0.199747
vt 0.783266 0.200030
vt 0.784897 0.200360
vt 0.763169 0.201224
vt 0.764739 0.200733
vt 0.766417 0.200300
vt 0.768197 0.199943
vt 0.767926 0.170647
vt 0.762245 0.170951
vt 0.762321 0.053960
vt 0.768527 0.053964
vt 0.773588 0.170555
vt 0.774744 0.053998
vt 0.779248 0.170679
vt 0.780967 0.054064
vt 0.784922 0.171020
vt 0.787186 0.054165
vt 0.790624 0.171575
vt 0.793396 0.054296
vt 0.796375 0.172330
vt 0.799588 0.054451
vt 0.802197 0.173251
vt 0.805757 0.054621
vt 0.808132 0.174250
vt 0.811895 0.054790
vt 0.744910 0.172942
vt 0.738937 0.173712
vt 0.737738 0.054052
vt 0.743840 0.054039
vt 0.750760 0.172141
vt 0.749972 0.054009
vt 0.756530 0.171457
vt 0.756134 0.053978
vt 0.768628 0.178215
vt 0.763674 0.178581
vt 0.773571 0.178091
vt 0.778509 0.178199
vt 0.783446 0.178548
vt 0.788382 0.179170
vt 0.793307 0.180125
vt 0.798188 0.181528
vt 0.802933 0.183586
vt 0.748753 0.181538
vt 0.743840 0.183517
vt 0.753728 0.180168
vt 0.758707 0.179215
vt 0.784300 0.206676
vt 0.766482 0.208788
vt 0.782353 0.208090
vt 0.781051 0.208091
vt 0.779740 0.208086
vt 0.778417 0.208086
vt 0.777085 0.208098
vt 0.775744 0.208126
vt 0.774400 0.208172
vt 0.773057 0.208236
vt 0.771720 0.208320
vt 0.770392 0.208421
vt 0.774560 0.211340
vt 0.769078 0.208537
vt 0.767775 0.208662
vt 0.781029 0.206645
vt 0.782659 0.203577
vt 0.782671 0.206665
vt 0.784293 0.203654
vt 0.764406 0.207549
vt 0.765727 0.204288
vt 0.766020 0.207378
vt 0.767362 0.204049
vt 0.767650 0.207207
vt 0.769025 0.203831
vt 0.769297 0.207050
vt 0.770718 0.203649
vt 0.770962 0.206915
vt 0.772432 0.203510
vt 0.772640 0.206804
vt 0.774161 0.203418
vt 0.774327 0.206722
vt 0.775892 0.203373
vt 0.776016 0.206667
vt 0.777615 0.203374
vt 0.777699 0.206638
vt 0.779320 0.203415
vt 0.779371 0.206632
vt 0.781002 0.203489
vt 0.792788 0.068764
vt 0.786689 0.068540
vt 0.780590 0.068386
vt 0.774490 0.068308
vt 0.768395 0.068301
vt 0.762304 0.068365
vt 0.756221 0.068490
vt 0.750145 0.068664
vt 0.744075 0.068863
vt 0.811070 0.069736
vt 0.738001 0.069042
vt 0.804976 0.069385
vt 0.798883 0.069051
vn -0.006057 -0.965908 0.258813
vn -0.006053 -0.707095 0.707093
vn -0.391842 -0.650561 0.650561
vn -0.391844 -0.888682 0.238123
vn -0.006051 -0.258816 0.965908
vn -0.391840 -0.238123 0.888684
vn -0.006051 0.258812 0.965909
vn -0.391838 0.238119 0.888686
vn -0.006053 0.707092 0.707095
vn -0.391840 0.650559 0.650565
vn -0.006057 0.965907 0.258817
vn -0.391843 0.888681 0.238127
vn -0.006061 0.965908 -0.258813
vn -0.391848 0.888682 -0.238117
vn -0.006065 0.707095 -0.707092
vn -0.391853 0.650561 -0.650554
vn -0.006067 0.258816 -0.965908
vn -0.391855 0.238123 -0.888677
vn -0.006067 -0.258812 -0.965909
vn -0.391852 -0.238119 -0.888679
vn -0.006065 -0.707092 -0.707095
vn -0.391851 -0.650559 -0.650558
vn -0.006061 -0.965907 -0.258817
vn -0.391849 -0.888680 -0.238120
vn -0.784804 -0.438223 0.438227
vn -0.784806 -0.598622 0.160406
vn -0.784803 -0.160402 0.598628
vn -0.784803 0.160399 0.598629
vn -0.784806 0.438220 0.438227
vn -0.784807 0.598621 0.160408
vn -0.784809 0.598622 -0.160393
vn -0.784812 0.438223 -0.438214
vn -0.784813 0.160402 -0.598614
vn -0.784813 -0.160399 -0.598616
vn -0.784812 -0.438221 -0.438215
vn -0.784809 -0.598622 -0.160395
vn -0.960509 -0.196748 0.196755
vn -0.960510 -0.268762 0.072021
vn -0.960508 -0.072016 0.268770
vn -0.960509 0.072014 0.268768
vn -0.960509 0.196748 0.196755
vn -0.960510 0.268763 0.072025
vn -0.960511 0.268762 -0.072005
vn -0.960512 0.196748 -0.196738
vn -0.960513 0.072015 -0.268753
vn -0.960514 -0.072014 -0.268752
vn -0.960512 -0.196748 -0.196740
vn -0.960511 -0.268763 -0.072008
vn -1.000000 -0.000000 0.000008
vn 0.330763 0.667306 -0.667306
vn 0.330760 0.244252 -0.911558
vn 0.394986 0.237775 -0.887383
vn 0.394988 0.649609 -0.649609
vn 0.330767 0.911556 -0.244251
vn 0.394991 0.887381 -0.237774
vn 0.330771 0.911555 0.244249
vn 0.394995 0.887380 0.237770
vn 0.330776 0.667303 0.667303
vn 0.394999 0.649607 0.649605
vn 0.330776 0.244248 0.911554
vn 0.395002 0.237771 0.887377
vn 0.330777 -0.244252 0.911552
vn 0.395002 -0.237775 0.887376
vn 0.330775 -0.667306 0.667301
vn 0.394999 -0.649609 0.649602
vn 0.330770 -0.911557 0.244245
vn 0.394995 -0.887381 0.237767
vn 0.330767 -0.911555 -0.244254
vn 0.394992 -0.887380 -0.237777
vn 0.330765 -0.667304 -0.667308
vn 0.394988 -0.649607 -0.649612
vn 0.330762 -0.244248 -0.911559
vn 0.394987 -0.237770 -0.887384
vn -0.000006 0.707108 -0.707105
vn -0.000008 0.258821 -0.965925
vn 0.042405 0.258588 -0.965057
vn 0.042407 0.706471 -0.706470
vn -0.000002 0.965926 -0.258817
vn 0.042411 0.965057 -0.258583
vn 0.000002 0.965925 0.258821
vn 0.042416 0.965056 0.258586
vn 0.000006 0.707104 0.707109
vn 0.042420 0.706469 0.706472
vn 0.000008 0.258816 0.965927
vn 0.042422 0.258583 0.965057
vn 0.000008 -0.258821 0.965925
vn 0.042422 -0.258588 0.965056
vn 0.000006 -0.707107 0.707107
vn 0.042420 -0.706471 0.706469
vn 0.000002 -0.965926 0.258817
vn 0.042415 -0.965057 0.258583
vn -0.000002 -0.965925 -0.258821
vn 0.042411 -0.965056 -0.258587
vn -0.000006 -0.707104 -0.707109
vn 0.042408 -0.706469 -0.706473
vn -0.000008 -0.258817 -0.965926
vn 0.042406 -0.258584 -0.965058
vn 0.010666 0.707067 -0.707066
vn 0.010664 0.258806 -0.965870
vn 0.010670 0.965871 -0.258803
vn 0.010674 0.965870 0.258807
vn 0.010678 0.707066 0.707067
vn 0.010680 0.258802 0.965871
vn 0.010680 -0.258806 0.965870
vn 0.010678 -0.707068 0.707065
vn 0.010674 -0.965871 0.258803
vn 0.010670 -0.965870 -0.258807
vn 0.010666 -0.707066 -0.707067
vn 0.010664 -0.258802 -0.965871
vn 0.275004 0.679843 -0.679843
vn 0.275002 0.248841 -0.928683
vn 0.275008 0.928682 -0.248840
vn 0.275012 0.928681 0.248839
vn 0.275016 0.679841 0.679840
vn 0.275019 0.248838 0.928679
vn 0.275019 -0.248841 0.928678
vn 0.275016 -0.679843 0.679838
vn 0.275012 -0.928682 0.248835
vn 0.275008 -0.928681 -0.248843
vn 0.275004 -0.679841 -0.679845
vn 0.275002 -0.248837 -0.928684
vn 0.129801 -0.256631 0.957754
vn 0.800215 -0.155218 0.579279
vn 0.800216 0.155215 0.579278
vn 0.129801 0.256623 0.957756
vn 0.129799 -0.701124 0.701125
vn 0.800214 -0.424064 0.424060
vn 0.129796 -0.957756 0.256625
vn 0.800214 -0.579283 0.155209
vn 0.129791 -0.957754 -0.256633
vn 0.800211 -0.579282 -0.155227
vn 0.129787 -0.701122 -0.701130
vn 0.800208 -0.424062 -0.424074
vn 0.129784 -0.256632 -0.957756
vn 0.800205 -0.155221 -0.579291
vn 0.129784 0.256631 -0.957756
vn 0.800205 0.155220 -0.579292
vn 0.129787 0.701127 -0.701125
vn 0.800207 0.424065 -0.424072
vn 0.129791 0.957756 -0.256629
vn 0.800211 0.579282 -0.155223
vn 0.129795 0.957755 0.256630
vn 0.800214 0.579282 0.155212
vn 0.129799 0.701124 0.701126
vn 0.800215 0.424062 0.424060
vn 1.000000 0.000000 -0.000008
s 1
g FoodShortRLowerLeg
usemtl blinn6SG
f 2/2/1 3/3/2 15/4/3 14/5/4
f 3/3/2 4/6/5 16/7/6 15/4/3
f 4/6/5 5/8/7 17/9/8 16/7/6
f 5/8/7 6/10/9 18/11/10 17/9/8
f 6/10/9 7/12/11 19/13/12 18/11/10
f 7/12/11 8/14/13 20/15/14 19/13/12
f 8/14/13 9/16/15 21/17/16 20/15/14
f 9/16/15 10/18/17 22/19/18 21/17/16
f 10/18/17 11/20/19 23/21/20 22/19/18
f 11/20/19 12/22/21 24/23/22 23/21/20
f 12/22/21 13/24/23 25/25/24 24/23/22
f 13/24/23 2/2/1 14/5/4 25/25/24
f 14/5/4 15/4/3 27/26/25 26/27/26
f 15/4/3 16/7/6 28/28/27 27/26/25
f 16/7/6 17/9/8 29/29/28 28/28/27
f 17/9/8 18/11/10 30/30/29 29/29/28
f 18/11/10 19/13/12 31/31/30 30/30/29
f 19/13/12 20/15/14 32/32/31 31/31/30
f 20/15/14 21/17/16 33/33/32 32/32/31
f 21/17/16 22/19/18 34/34/33 33/33/32
f 22/19/18 23/21/20 35/35/34 34/34/33
f 23/21/20 24/23/22 36/36/35 35/35/34
f 24/23/22 25/25/24 37/37/36 36/36/35
f 25/25/24 14/5/4 26/27/26 37/37/36
f 26/27/26 27/26/25 39/38/37 38/39/38
f 27/26/25 28/28/27 40/40/39 39/38/37
f 28/28/27 29/29/28 41/41/40 40/40/39
f 29/29/28 30/30/29 42/42/41 41/41/40
f 30/30/29 31/31/30 43/43/42 42/42/41
f 31/31/30 32/32/31 44/44/43 43/43/42
f 32/32/31 33/33/32 45/45/44 44/44/43
f 33/33/32 34/34/33 46/46/45 45/45/44
f 34/34/33 35/35/34 47/47/46 46/46/45
f 35/35/34 36/36/35 48/48/47 47/47/46
f 36/36/35 37/37/36 49/49/48 48/48/47
f 37/37/36 26/27/26 38/39/38 49/49/48
f 38/39/38 39/38/37 50/50/49
f 39/38/37 40/40/39 50/50/49
f 40/40/39 41/41/40 50/50/49
f 41/41/40 42/42/41 50/50/49
f 42/42/41 43/43/42 50/50/49
f 43/43/42 44/44/43 50/50/49
f 44/44/43 45/45/44 50/50/49
f 45/45/44 46/46/45 50/50/49
f 46/46/45 47/47/46 50/50/49
f 47/47/46 48/48/47 50/50/49
f 48/48/47 49/49/48 50/50/49
f 49/49/48 38/39/38 50/50/49
f 52/51/50 51/52/51 111/53/52 112/54/53
f 53/55/54 52/51/50 112/54/53 113/56/55
f 54/57/56 53/55/54 113/56/55 114/58/57
f 55/59/58 54/57/56 114/58/57 115/60/59
f 56/61/60 55/59/58 115/60/59 116/62/61
f 57/63/62 56/61/60 116/62/61 117/64/63
f 58/65/64 57/63/62 117/64/63 118/66/65
f 59/67/66 58/65/64 118/66/65 119/68/67
f 60/69/68 59/70/66 119/71/67 120/72/69
f 61/73/70 60/69/68 120/72/69 121/74/71
f 62/75/72 61/73/70 121/74/71 122/76/73
f 51/52/51 62/75/72 122/76/73 111/53/52
f 64/157/74 63/155/75 75/77/76 76/78/77
f 65/159/78 64/157/74 76/78/77 77/79/79
f 66/161/80 65/159/78 77/79/79 78/80/81
f 67/163/82 66/161/80 78/80/81 79/81/83
f 68/165/84 67/163/82 79/81/83 80/82/85
f 69/167/86 68/165/84 80/82/85 81/83/87
f 70/145/88 69/167/86 81/83/87 82/84/89
f 71/147/90 70/145/88 82/84/89 83/85/91
f 72/149/92 71/1/90 83/86/91 84/87/93
f 73/151/94 72/149/92 84/87/93 85/88/95
f 74/153/96 73/151/94 85/88/95 86/89/97
f 63/155/75 74/153/96 86/89/97 75/77/76
f 76/78/77 75/77/76 51/52/51 52/51/50
f 77/79/79 76/78/77 52/51/50 53/55/54
f 78/80/81 77/79/79 53/55/54 54/57/56
f 79/81/83 78/80/81 54/57/56 55/59/58
f 80/82/85 79/81/83 55/59/58 56/61/60
f 81/83/87 80/82/85 56/61/60 57/63/62
f 82/84/89 81/83/87 57/63/62 58/65/64
f 83/85/91 82/84/89 58/65/64 59/67/66
f 84/87/93 83/86/91 59/70/66 60/69/68
f 85/88/95 84/87/93 60/69/68 61/73/70
f 86/89/97 85/88/95 61/73/70 62/75/72
f 75/77/76 86/89/97 62/75/72 51/52/51
f 88/172/98 87/173/99 10/92/17 9/93/15
f 89/171/100 88/172/98 9/93/15 8/95/13
f 90/170/101 89/171/100 8/95/13 7/97/11
f 91/169/102 90/170/101 7/97/11 6/99/9
f 92/168/103 91/169/102 6/99/9 5/101/7
f 93/180/104 92/168/103 5/101/7 4/103/5
f 94/179/105 93/180/104 4/103/5 3/105/2
f 95/177/106 94/179/105 3/105/2 2/107/1
f 96/176/107 95/178/106 2/110/1 13/111/23
f 97/175/108 96/176/107 13/111/23 12/113/21
f 98/174/109 97/175/108 12/113/21 11/115/19
f 87/173/99 98/174/109 11/115/19 10/92/17
f 100/116/110 99/117/111 87/91/99 88/90/98
f 101/118/112 100/116/110 88/90/98 89/94/100
f 102/119/113 101/118/112 89/94/100 90/96/101
f 103/120/114 102/119/113 90/96/101 91/98/102
f 104/121/115 103/120/114 91/98/102 92/100/103
f 105/122/116 104/121/115 92/100/103 93/102/104
f 106/123/117 105/122/116 93/102/104 94/104/105
f 107/124/118 106/123/117 94/104/105 95/106/106
f 108/125/119 107/126/118 95/109/106 96/108/107
f 109/127/120 108/125/119 96/108/107 97/112/108
f 110/128/121 109/127/120 97/112/108 98/114/109
f 99/117/111 110/128/121 98/114/109 87/91/99
f 112/54/53 111/53/52 99/117/111 100/116/110
f 113/56/55 112/54/53 100/116/110 101/118/112
f 114/58/57 113/56/55 101/118/112 102/119/113
f 115/60/59 114/58/57 102/119/113 103/120/114
f 116/62/61 115/60/59 103/120/114 104/121/115
f 117/64/63 116/62/61 104/121/115 105/122/116
f 118/66/65 117/64/63 105/122/116 106/123/117
f 119/68/67 118/66/65 106/123/117 107/124/118
f 120/72/69 119/71/67 107/126/118 108/125/119
f 121/74/71 120/72/69 108/125/119 109/127/120
f 122/76/73 121/74/71 109/127/120 110/128/121
f 111/53/52 122/76/73 110/128/121 99/117/111
f 123/144/122 124/133/123 145/134/124 146/166/125
f 124/133/123 123/144/122 126/146/126 125/132/127
f 125/132/127 126/146/126 128/129/128 127/131/129
f 127/130/129 128/148/128 130/150/130 129/143/131
f 129/143/131 130/150/130 132/152/132 131/142/133
f 131/142/133 132/152/132 134/154/134 133/140/135
f 133/140/135 134/154/134 136/156/136 135/139/137
f 135/139/137 136/156/136 138/158/138 137/138/139
f 137/138/139 138/158/138 140/160/140 139/137/141
f 139/137/141 140/160/140 142/162/142 141/136/143
f 141/136/143 142/162/142 144/164/144 143/135/145
f 143/135/145 144/164/144 146/166/125 145/134/124
f 1/141/146 125/132/127 127/131/129
f 1/141/146 124/133/123 125/132/127
f 1/141/146 145/134/124 124/133/123
f 1/141/146 143/135/145 145/134/124
f 1/141/146 141/136/143 143/135/145
f 1/141/146 139/137/141 141/136/143
f 1/141/146 137/138/139 139/137/141
f 1/141/146 135/139/137 137/138/139
f 1/141/146 133/140/135 135/139/137
f 1/141/146 131/142/133 133/140/135
f 1/141/146 129/143/131 131/142/133
f 1/141/146 127/130/129 129/143/131
f 126/146/126 123/144/122 69/167/86 70/145/88
f 128/129/128 126/146/126 70/145/88 71/147/90
f 130/150/130 128/148/128 71/1/90 72/149/92
f 132/152/132 130/150/130 72/149/92 73/151/94
f 134/154/134 132/152/132 73/151/94 74/153/96
f 136/156/136 134/154/134 74/153/96 63/155/75
f 138/158/138 136/156/136 63/155/75 64/157/74
f 140/160/140 138/158/138 64/157/74 65/159/78
f 142/162/142 140/160/140 65/159/78 66/161/80
f 144/164/144 142/162/142 66/161/80 67/163/82
f 146/166/125 144/164/144 67/163/82 68/165/84
f 123/144/122 146/166/125 68/165/84 69/167/86
