# This file uses centimeters as units for non-parametric coordinates.

mtllib CakeTallRLowerArm.mtl
g default
v -1.823996 -0.390342 0.401734
v -1.823991 -0.135781 0.548705
v -1.823991 0.158162 0.548705
v -1.823996 0.412723 0.401734
v -1.824005 0.559694 0.147173
v -1.824015 0.559694 -0.146770
v -1.824024 0.412723 -0.401331
v -1.824030 0.158162 -0.548302
v -1.824030 -0.135781 -0.548302
v -1.824024 -0.390342 -0.401331
v -1.824015 -0.537313 -0.146770
v -1.824005 -0.537313 0.147173
v -2.006235 -0.363535 0.374932
v -2.006230 -0.125968 0.512092
v -2.006230 0.148350 0.512092
v -2.006235 0.385915 0.374932
v -2.006243 0.523075 0.137367
v -2.006252 0.523074 -0.136951
v -2.006261 0.385916 -0.374517
v -2.006265 0.148349 -0.511677
v -2.006265 -0.125968 -0.511676
v -2.006261 -0.363534 -0.374517
v -2.006252 -0.500694 -0.136952
v -2.006243 -0.500693 0.137367
v -2.135943 -0.287029 0.298433
v -2.135939 -0.097966 0.407589
v -2.135939 0.120347 0.407588
v -2.135943 0.309411 0.298433
v -2.135949 0.418566 0.109369
v -2.135957 0.418566 -0.108943
v -2.135964 0.309410 -0.298008
v -2.135967 0.120347 -0.407164
v -2.135967 -0.097966 -0.407164
v -2.135964 -0.287030 -0.298007
v -2.135957 -0.396186 -0.108943
v -2.135949 -0.396186 0.109369
v -2.203700 -0.150205 0.161610
v -2.203698 -0.047885 0.220686
v -2.203698 0.070265 0.220686
v -2.203700 0.172585 0.161610
v -2.203703 0.231661 0.059289
v -2.203707 0.231661 -0.058860
v -2.203711 0.172585 -0.161180
v -2.203713 0.070265 -0.220256
v -2.203713 -0.047885 -0.220256
v -2.203711 -0.150205 -0.161180
v -2.203707 -0.209280 -0.058860
v -2.203703 -0.209281 0.059289
v -2.223600 0.011190 0.000215
v -0.415985 -0.135781 0.548557
v -0.415985 0.158162 0.548557
v -0.415990 0.412723 0.401586
v -0.415999 0.559694 0.147024
v -0.416010 0.559694 -0.146918
v -0.416018 0.412723 -0.401479
v -0.416024 0.158162 -0.548450
v -0.416024 -0.135781 -0.548450
v -0.416018 -0.390342 -0.401479
v -0.416010 -0.537313 -0.146918
v -0.415999 -0.537313 0.147024
v -0.415990 -0.390342 0.401586
v 1.330972 0.011190 -0.000107
v 0.742484 -0.031812 -0.160572
v 0.742484 0.054193 -0.160572
v 0.742486 0.128675 -0.117569
v 0.742488 0.171676 -0.043089
v 0.742491 0.171676 0.042916
v 0.742494 0.128675 0.117398
v 0.742496 0.054193 0.160400
v 0.742496 -0.031812 0.160400
v 0.742494 -0.106294 0.117398
v 0.742491 -0.149296 0.042916
v 0.742488 -0.149296 -0.043088
v 0.742486 -0.106294 -0.117571
v 1.112385 -0.027872 -0.145878
v 1.112385 0.050252 -0.145878
v 1.112386 0.117909 -0.106817
v 1.112388 0.156969 -0.039161
v 1.112391 0.156969 0.038962
v 1.112393 0.117909 0.106619
v 1.112395 0.050252 0.145680
v 1.112395 -0.027872 0.145680
v 1.112393 -0.095528 0.106619
v 1.112391 -0.134589 0.038962
v 1.112388 -0.134589 -0.039160
v 1.112386 -0.095528 -0.106817
v 0.927434 -0.027872 -0.145872
v 0.927434 0.050252 -0.145872
v 0.927435 0.117909 -0.106811
v 0.927438 0.156969 -0.039154
v 0.927441 0.156969 0.038969
v 0.927443 0.117909 0.106625
v 0.927444 0.050252 0.145686
v 0.927444 -0.027872 0.145686
v 0.927443 -0.095528 0.106625
v 0.927441 -0.134589 0.038969
v 0.927438 -0.134589 -0.039154
v 0.927435 -0.095528 -0.106811
v -0.028900 -0.117489 -0.480299
v -0.028900 0.139870 -0.480299
v -0.028895 0.362750 -0.351618
v -0.028888 0.491430 -0.128740
v -0.028879 0.491430 0.128621
v -0.028871 0.362750 0.351500
v -0.028866 0.139870 0.480180
v -0.028866 -0.117490 0.480180
v -0.028871 -0.340369 0.351500
v -0.028879 -0.469049 0.128621
v -0.028888 -0.469049 -0.128739
v -0.028895 -0.340369 -0.351619
v 0.356792 -0.074390 -0.319462
v 0.356792 0.096770 -0.319463
v 0.356795 0.245001 -0.233883
v 0.356801 0.330581 -0.085654
v 0.356807 0.330581 0.085508
v 0.356812 0.245001 0.233737
v 0.356815 0.096770 0.319317
v 0.356815 -0.074390 0.319317
v 0.356812 -0.222620 0.233737
v 0.356807 -0.308200 0.085508
v 0.356801 -0.308200 -0.085653
v 0.356795 -0.222620 -0.233883
v 1.267425 -0.027872 0.145674
v 1.304069 -0.020060 0.116520
v 1.304068 -0.074186 0.085271
v 1.267424 -0.095528 0.106613
v 1.304066 -0.105436 0.031144
v 1.267422 -0.134589 0.038957
v 1.304064 -0.105436 -0.031355
v 1.267419 -0.134589 -0.039165
v 1.304062 -0.074186 -0.085483
v 1.267417 -0.095528 -0.106823
v 1.304061 -0.020060 -0.116732
v 1.267415 -0.027872 -0.145884
v 1.304061 0.042440 -0.116732
v 1.267415 0.050252 -0.145884
v 1.304062 0.096567 -0.085483
v 1.267417 0.117909 -0.106823
v 1.304064 0.127817 -0.031356
v 1.267419 0.156969 -0.039166
v 1.304066 0.127817 0.031144
v 1.267422 0.156969 0.038957
v 1.304068 0.096567 0.085271
v 1.267424 0.117909 0.106613
v 1.304069 0.042440 0.116520
v 1.267425 0.050252 0.145674
vt 0.899094 0.287437
vt 0.893553 0.293213
vt 0.891562 0.290048
vt 0.895787 0.285691
vt 0.885866 0.295445
vt 0.885725 0.291708
vt 0.878093 0.293535
vt 0.879839 0.290228
vt 0.872317 0.287994
vt 0.875482 0.286004
vt 0.870084 0.280307
vt 0.873821 0.280166
vt 0.871994 0.272534
vt 0.875301 0.274280
vt 0.877536 0.266757
vt 0.879526 0.269922
vt 0.885224 0.264525
vt 0.885364 0.268262
vt 0.892997 0.266436
vt 0.891250 0.269742
vt 0.898773 0.271978
vt 0.895607 0.273968
vt 0.901004 0.279665
vt 0.897268 0.279805
vt 0.889816 0.287225
vt 0.892864 0.284120
vt 0.885624 0.288391
vt 0.881410 0.287305
vt 0.878304 0.284257
vt 0.877138 0.280064
vt 0.878224 0.275851
vt 0.881272 0.272745
vt 0.885465 0.271579
vt 0.889679 0.272666
vt 0.892785 0.275714
vt 0.893950 0.279906
vt 0.887781 0.283808
vt 0.889393 0.282177
vt 0.885570 0.284414
vt 0.883352 0.283834
vt 0.881721 0.282222
vt 0.881115 0.280011
vt 0.881695 0.277793
vt 0.883307 0.276162
vt 0.885518 0.275556
vt 0.887736 0.276136
vt 0.889367 0.277748
vt 0.889973 0.279959
vt 0.885544 0.279985
vt 0.867650 0.439131
vt 0.861444 0.439127
vt 0.855226 0.439093
vt 0.849004 0.439026
vt 0.842784 0.438925
vt 0.836575 0.438794
vt 0.830382 0.438639
vt 0.824214 0.438469
vt 0.818076 0.438300
vt 0.892233 0.439038
vt 0.886131 0.439051
vt 0.879999 0.439081
vt 0.873837 0.439112
vt 0.824645 0.412480
vt 0.830772 0.412741
vt 0.836911 0.412968
vt 0.843059 0.413151
vt 0.849212 0.413281
vt 0.855366 0.413355
vt 0.861517 0.413374
vt 0.867659 0.413340
vt 0.873789 0.413262
vt 0.879903 0.413152
vt 0.886001 0.413028
vt 0.818532 0.412210
vt 0.892088 0.412924
vt 0.858643 0.297669
vt 0.860998 0.297415
vt 0.864056 0.306158
vt 0.860240 0.306527
vt 0.856241 0.297797
vt 0.856402 0.306670
vt 0.853833 0.297803
vt 0.852570 0.306600
vt 0.851463 0.297684
vt 0.848768 0.306309
vt 0.849174 0.297433
vt 0.845032 0.305765
vt 0.847017 0.297035
vt 0.841417 0.304907
vt 0.845050 0.296464
vt 0.838017 0.303636
vt 0.843349 0.295682
vt 0.834999 0.301808
vt 0.867275 0.295759
vt 0.868888 0.294826
vt 0.877947 0.301180
vt 0.874898 0.303165
vt 0.865372 0.296480
vt 0.871463 0.304563
vt 0.863258 0.297023
vt 0.867816 0.305526
vt 0.857538 0.289580
vt 0.859253 0.289442
vt 0.859908 0.293422
vt 0.857983 0.293614
vt 0.855810 0.289672
vt 0.856025 0.293722
vt 0.854079 0.289717
vt 0.854064 0.293749
vt 0.852356 0.289716
vt 0.852126 0.293693
vt 0.850651 0.289675
vt 0.850239 0.293557
vt 0.848969 0.289602
vt 0.848427 0.293343
vt 0.847312 0.289513
vt 0.846705 0.293060
vt 0.845678 0.289436
vt 0.845074 0.292730
vt 0.864243 0.288802
vt 0.865853 0.288565
vt 0.866802 0.291866
vt 0.865232 0.292358
vt 0.862609 0.289042
vt 0.863554 0.292790
vt 0.860945 0.289259
vt 0.861773 0.293147
vt 0.861342 0.314875
vt 0.866296 0.314509
vt 0.867726 0.322139
vt 0.862045 0.322444
vt 0.856399 0.315000
vt 0.856382 0.322536
vt 0.851462 0.314892
vt 0.850722 0.322411
vt 0.846525 0.314542
vt 0.845049 0.322070
vt 0.841589 0.313920
vt 0.839347 0.321515
vt 0.836663 0.312965
vt 0.833596 0.320760
vt 0.831783 0.311562
vt 0.827773 0.319839
vt 0.827037 0.309504
vt 0.821839 0.318840
vt 0.881218 0.311552
vt 0.886131 0.309573
vt 0.891034 0.319378
vt 0.885061 0.320148
vt 0.876243 0.312922
vt 0.879211 0.320949
vt 0.871264 0.313875
vt 0.873441 0.321633
vt 0.847299 0.286410
vt 0.848919 0.284999
vt 0.850231 0.285005
vt 0.848942 0.286430
vt 0.845671 0.286398
vt 0.847618 0.285000
vt 0.863488 0.284303
vt 0.865563 0.285527
vt 0.863949 0.285696
vt 0.862196 0.284428
vt 0.862319 0.285867
vt 0.860893 0.284554
vt 0.860672 0.286024
vt 0.859578 0.284670
vt 0.859008 0.286160
vt 0.858251 0.284771
vt 0.857329 0.286269
vt 0.856913 0.284854
vt 0.855643 0.286351
vt 0.855571 0.284919
vt 0.853954 0.286407
vt 0.854227 0.284965
vt 0.852271 0.286436
vt 0.852886 0.284992
vt 0.850599 0.286442
vt 0.851554 0.285004
vt 0.855411 0.281750
vn -0.006034 -0.707094 0.707094
vn -0.006025 -0.258814 0.965908
vn -0.391816 -0.238121 0.888695
vn -0.391824 -0.650560 0.650573
vn -0.006025 -0.258814 0.965908
vn -0.006025 0.258814 0.965908
vn -0.391815 0.238122 0.888695
vn -0.391816 -0.238121 0.888695
vn -0.006025 0.258814 0.965908
vn -0.006034 0.707094 0.707094
vn -0.391821 0.650561 0.650574
vn -0.391815 0.238122 0.888695
vn -0.006034 0.707094 0.707094
vn -0.006050 0.965908 0.258815
vn -0.391837 0.888682 0.238136
vn -0.391821 0.650561 0.650574
vn -0.006050 0.965908 0.258815
vn -0.006068 0.965908 -0.258815
vn -0.391856 0.888681 -0.238107
vn -0.391837 0.888682 0.238136
vn -0.006068 0.965908 -0.258815
vn -0.006084 0.707094 -0.707094
vn -0.391871 0.650560 -0.650545
vn -0.391856 0.888681 -0.238107
vn -0.006084 0.707094 -0.707094
vn -0.006093 0.258814 -0.965908
vn -0.391877 0.238121 -0.888668
vn -0.391871 0.650560 -0.650545
vn -0.006093 0.258814 -0.965908
vn -0.006093 -0.258814 -0.965908
vn -0.391876 -0.238121 -0.888668
vn -0.391877 0.238121 -0.888668
vn -0.006093 -0.258814 -0.965908
vn -0.006084 -0.707094 -0.707094
vn -0.391869 -0.650559 -0.650547
vn -0.391876 -0.238121 -0.888668
vn -0.006084 -0.707094 -0.707094
vn -0.006068 -0.965908 -0.258815
vn -0.391854 -0.888682 -0.238108
vn -0.391869 -0.650559 -0.650547
vn -0.006068 -0.965908 -0.258815
vn -0.006050 -0.965908 0.258815
vn -0.391838 -0.888682 0.238136
vn -0.391854 -0.888682 -0.238108
vn -0.006050 -0.965908 0.258815
vn -0.006034 -0.707094 0.707094
vn -0.391824 -0.650560 0.650573
vn -0.391838 -0.888682 0.238136
vn -0.391824 -0.650560 0.650573
vn -0.391816 -0.238121 0.888695
vn -0.784789 -0.160401 0.598646
vn -0.784794 -0.438221 0.438248
vn -0.391816 -0.238121 0.888695
vn -0.391815 0.238122 0.888695
vn -0.784787 0.160401 0.598649
vn -0.784789 -0.160401 0.598646
vn -0.391815 0.238122 0.888695
vn -0.391821 0.650561 0.650574
vn -0.784792 0.438221 0.438251
vn -0.784787 0.160401 0.598649
vn -0.391821 0.650561 0.650574
vn -0.391837 0.888682 0.238136
vn -0.784802 0.598622 0.160428
vn -0.784792 0.438221 0.438251
vn -0.391837 0.888682 0.238136
vn -0.391856 0.888681 -0.238107
vn -0.784814 0.598621 -0.160375
vn -0.784802 0.598622 0.160428
vn -0.391856 0.888681 -0.238107
vn -0.391871 0.650560 -0.650545
vn -0.784825 0.438220 -0.438193
vn -0.784814 0.598621 -0.160375
vn -0.391871 0.650560 -0.650545
vn -0.391877 0.238121 -0.888668
vn -0.784829 0.160401 -0.598594
vn -0.784825 0.438220 -0.438193
vn -0.391877 0.238121 -0.888668
vn -0.391876 -0.238121 -0.888668
vn -0.784828 -0.160400 -0.598596
vn -0.784829 0.160401 -0.598594
vn -0.391876 -0.238121 -0.888668
vn -0.391869 -0.650559 -0.650547
vn -0.784824 -0.438221 -0.438194
vn -0.784828 -0.160400 -0.598596
vn -0.391869 -0.650559 -0.650547
vn -0.391854 -0.888682 -0.238108
vn -0.784814 -0.598621 -0.160374
vn -0.784824 -0.438221 -0.438194
vn -0.391854 -0.888682 -0.238108
vn -0.391838 -0.888682 0.238136
vn -0.784803 -0.598621 0.160429
vn -0.784814 -0.598621 -0.160374
vn -0.391838 -0.888682 0.238136
vn -0.391824 -0.650560 0.650573
vn -0.784794 -0.438221 0.438248
vn -0.784803 -0.598621 0.160429
vn -0.784794 -0.438221 0.438248
vn -0.784789 -0.160401 0.598646
vn -0.960501 -0.072015 0.268795
vn -0.960504 -0.196748 0.196780
vn -0.784789 -0.160401 0.598646
vn -0.784787 0.160401 0.598649
vn -0.960502 0.072015 0.268794
vn -0.960501 -0.072015 0.268795
vn -0.784787 0.160401 0.598649
vn -0.784792 0.438221 0.438251
vn -0.960504 0.196747 0.196781
vn -0.960502 0.072015 0.268794
vn -0.784792 0.438221 0.438251
vn -0.784802 0.598622 0.160428
vn -0.960508 0.268761 0.072049
vn -0.960504 0.196747 0.196781
vn -0.784802 0.598622 0.160428
vn -0.784814 0.598621 -0.160375
vn -0.960513 0.268762 -0.071979
vn -0.960508 0.268761 0.072049
vn -0.784814 0.598621 -0.160375
vn -0.784825 0.438220 -0.438193
vn -0.960518 0.196747 -0.196713
vn -0.960513 0.268762 -0.071979
vn -0.784825 0.438220 -0.438193
vn -0.784829 0.160401 -0.598594
vn -0.960520 0.072015 -0.268728
vn -0.960518 0.196747 -0.196713
vn -0.784829 0.160401 -0.598594
vn -0.784828 -0.160400 -0.598596
vn -0.960521 -0.072015 -0.268727
vn -0.960520 0.072015 -0.268728
vn -0.784828 -0.160400 -0.598596
vn -0.784824 -0.438221 -0.438194
vn -0.960518 -0.196748 -0.196713
vn -0.960521 -0.072015 -0.268727
vn -0.784824 -0.438221 -0.438194
vn -0.784814 -0.598621 -0.160374
vn -0.960513 -0.268762 -0.071982
vn -0.960518 -0.196748 -0.196713
vn -0.784814 -0.598621 -0.160374
vn -0.784803 -0.598621 0.160429
vn -0.960508 -0.268763 0.072047
vn -0.960513 -0.268762 -0.071982
vn -0.784803 -0.598621 0.160429
vn -0.784794 -0.438221 0.438248
vn -0.960504 -0.196748 0.196780
vn -0.960508 -0.268763 0.072047
vn -0.960504 -0.196748 0.196780
vn -0.960501 -0.072015 0.268795
vn -1.000000 0.000000 0.000035
vn -0.960501 -0.072015 0.268795
vn -0.960502 0.072015 0.268794
vn -1.000000 0.000000 0.000035
vn -0.960502 0.072015 0.268794
vn -0.960504 0.196747 0.196781
vn -1.000000 0.000000 0.000035
vn -0.960504 0.196747 0.196781
vn -0.960508 0.268761 0.072049
vn -1.000000 0.000000 0.000035
vn -0.960508 0.268761 0.072049
vn -0.960513 0.268762 -0.071979
vn -1.000000 0.000000 0.000035
vn -0.960513 0.268762 -0.071979
vn -0.960518 0.196747 -0.196713
vn -1.000000 0.000000 0.000035
vn -0.960518 0.196747 -0.196713
vn -0.960520 0.072015 -0.268728
vn -1.000000 0.000000 0.000035
vn -0.960520 0.072015 -0.268728
vn -0.960521 -0.072015 -0.268727
vn -1.000000 0.000000 0.000035
vn -0.960521 -0.072015 -0.268727
vn -0.960518 -0.196748 -0.196713
vn -1.000000 0.000000 0.000035
vn -0.960518 -0.196748 -0.196713
vn -0.960513 -0.268762 -0.071982
vn -1.000000 0.000000 0.000035
vn -0.960513 -0.268762 -0.071982
vn -0.960508 -0.268763 0.072047
vn -1.000000 0.000000 0.000035
vn -0.960508 -0.268763 0.072047
vn -0.960504 -0.196748 0.196780
vn -1.000000 0.000000 0.000035
vn 0.036375 0.258647 -0.965287
vn 0.036375 -0.258647 -0.965287
vn -0.006093 -0.258814 -0.965908
vn -0.006093 0.258814 -0.965908
vn 0.036412 0.706638 -0.706638
vn -0.006084 0.707094 -0.707094
vn 0.036474 0.965283 -0.258649
vn -0.006068 0.965908 -0.258815
vn 0.036547 0.965281 0.258644
vn -0.006050 0.965908 0.258815
vn 0.036611 0.706634 0.706631
vn -0.006034 0.707094 0.707094
vn 0.036647 0.258645 0.965277
vn -0.006025 0.258814 0.965908
vn 0.036647 -0.258645 0.965277
vn -0.006025 -0.258814 0.965908
vn 0.036611 -0.706634 0.706632
vn -0.006034 -0.707094 0.707094
vn 0.036547 -0.965281 0.258645
vn -0.006050 -0.965908 0.258815
vn 0.036474 -0.965282 -0.258649
vn -0.006068 -0.965908 -0.258815
vn 0.036412 -0.706637 -0.706638
vn -0.006084 -0.707094 -0.707094
vn 0.330737 0.244249 -0.911568
vn 0.330737 -0.244251 -0.911567
vn 0.394963 -0.237773 -0.887394
vn 0.394963 0.237772 -0.887394
vn 0.330746 0.667305 -0.667316
vn 0.394972 0.649608 -0.649620
vn 0.330760 0.911556 -0.244262
vn 0.394985 0.887381 -0.237786
vn 0.330777 0.911556 0.244238
vn 0.395001 0.887381 0.237758
vn 0.330793 0.667305 0.667293
vn 0.395018 0.649608 0.649593
vn 0.330801 0.244250 0.911544
vn 0.395025 0.237773 0.887366
vn 0.330799 -0.244250 0.911545
vn 0.395024 -0.237773 0.887367
vn 0.330790 -0.667305 0.667294
vn 0.395016 -0.649608 0.649594
vn 0.330777 -0.911556 0.244238
vn 0.395002 -0.887381 0.237758
vn 0.330760 -0.911556 -0.244262
vn 0.394985 -0.887381 -0.237786
vn 0.330746 -0.667305 -0.667316
vn 0.394972 -0.649608 -0.649620
vn -0.000034 0.258818 -0.965926
vn -0.000034 -0.258818 -0.965926
vn 0.042378 -0.258586 -0.965058
vn 0.042379 0.258585 -0.965058
vn -0.000025 0.707106 -0.707108
vn 0.042387 0.706470 -0.706473
vn -0.000009 0.965926 -0.258819
vn 0.042403 0.965057 -0.258587
vn 0.000009 0.965926 0.258819
vn 0.042423 0.965057 0.258584
vn 0.000025 0.707106 0.707108
vn 0.042437 0.706470 0.706470
vn 0.000034 0.258819 0.965926
vn 0.042446 0.258586 0.965055
vn 0.000034 -0.258818 0.965926
vn 0.042447 -0.258585 0.965055
vn 0.000025 -0.707107 0.707107
vn 0.042437 -0.706470 0.706470
vn 0.000009 -0.965926 0.258819
vn 0.042421 -0.965057 0.258584
vn -0.000009 -0.965926 -0.258819
vn 0.042404 -0.965057 -0.258586
vn -0.000025 -0.707107 -0.707107
vn 0.042387 -0.706470 -0.706473
vn 0.274978 0.248839 -0.928691
vn 0.274978 -0.248839 -0.928691
vn 0.274986 0.679842 -0.679851
vn 0.275000 0.928681 -0.248849
vn 0.275019 0.928681 0.248829
vn 0.275034 0.679842 0.679832
vn 0.275042 0.248839 0.928672
vn 0.275042 -0.248839 0.928672
vn 0.275034 -0.679842 0.679832
vn 0.275018 -0.928681 0.248829
vn 0.275000 -0.928681 -0.248849
vn 0.274986 -0.679842 -0.679851
vn 0.130612 -0.256599 0.957652
vn 0.840306 -0.140313 0.523639
vn 0.840307 0.140313 0.523638
vn 0.130611 0.256598 0.957652
vn 0.130601 -0.701055 0.701046
vn 0.840299 -0.383352 0.383325
vn 0.130585 -0.957657 0.256595
vn 0.840293 -0.523667 0.140286
vn 0.130569 -0.957657 -0.256603
vn 0.840282 -0.523669 -0.140344
vn 0.130555 -0.701057 -0.701053
vn 0.840272 -0.383355 -0.383382
vn 0.130543 -0.256599 -0.957661
vn 0.840269 -0.140314 -0.523699
vn 0.130543 0.256598 -0.957662
vn 0.840269 0.140312 -0.523699
vn 0.130554 0.701053 -0.701057
vn 0.840274 0.383350 -0.383383
vn 0.130568 0.957657 -0.256602
vn 0.840281 0.523672 -0.140343
vn 0.130585 0.957657 0.256593
vn 0.840290 0.523673 0.140284
vn 0.130601 0.701053 0.701048
vn 0.840298 0.383355 0.383325
vn 1.000000 0.000000 -0.000035
s off
g FoodTallRLowerArm
usemtl blinn6SG
f 1/1/1 2/2/2 14/3/3 13/4/4
f 2/2/5 3/5/6 15/6/7 14/3/8
f 3/5/9 4/7/10 16/8/11 15/6/12
f 4/7/13 5/9/14 17/10/15 16/8/16
f 5/9/17 6/11/18 18/12/19 17/10/20
f 6/11/21 7/13/22 19/14/23 18/12/24
f 7/13/25 8/15/26 20/16/27 19/14/28
f 8/15/29 9/17/30 21/18/31 20/16/32
f 9/17/33 10/19/34 22/20/35 21/18/36
f 10/19/37 11/21/38 23/22/39 22/20/40
f 11/21/41 12/23/42 24/24/43 23/22/44
f 12/23/45 1/1/46 13/4/47 24/24/48
f 13/4/49 14/3/50 26/25/51 25/26/52
f 14/3/53 15/6/54 27/27/55 26/25/56
f 15/6/57 16/8/58 28/28/59 27/27/60
f 16/8/61 17/10/62 29/29/63 28/28/64
f 17/10/65 18/12/66 30/30/67 29/29/68
f 18/12/69 19/14/70 31/31/71 30/30/72
f 19/14/73 20/16/74 32/32/75 31/31/76
f 20/16/77 21/18/78 33/33/79 32/32/80
f 21/18/81 22/20/82 34/34/83 33/33/84
f 22/20/85 23/22/86 35/35/87 34/34/88
f 23/22/89 24/24/90 36/36/91 35/35/92
f 24/24/93 13/4/94 25/26/95 36/36/96
f 25/26/97 26/25/98 38/37/99 37/38/100
f 26/25/101 27/27/102 39/39/103 38/37/104
f 27/27/105 28/28/106 40/40/107 39/39/108
f 28/28/109 29/29/110 41/41/111 40/40/112
f 29/29/113 30/30/114 42/42/115 41/41/116
f 30/30/117 31/31/118 43/43/119 42/42/120
f 31/31/121 32/32/122 44/44/123 43/43/124
f 32/32/125 33/33/126 45/45/127 44/44/128
f 33/33/129 34/34/130 46/46/131 45/45/132
f 34/34/133 35/35/134 47/47/135 46/46/136
f 35/35/137 36/36/138 48/48/139 47/47/140
f 36/36/141 25/26/142 37/38/143 48/48/144
f 37/38/145 38/37/146 49/49/147
f 38/37/148 39/39/149 49/49/150
f 39/39/151 40/40/152 49/49/153
f 40/40/154 41/41/155 49/49/156
f 41/41/157 42/42/158 49/49/159
f 42/42/160 43/43/161 49/49/162
f 43/43/163 44/44/164 49/49/165
f 44/44/166 45/45/167 49/49/168
f 45/45/169 46/46/170 49/49/171
f 46/46/172 47/47/173 49/49/174
f 47/47/175 48/48/176 49/49/177
f 48/48/178 37/38/179 49/49/180
s 1
f 56/69/181 57/70/182 9/50/183 8/51/184
f 55/68/185 56/69/181 8/51/184 7/52/186
f 54/67/187 55/68/185 7/52/186 6/53/188
f 53/66/189 54/67/187 6/53/188 5/54/190
f 52/65/191 53/66/189 5/54/190 4/55/192
f 51/64/193 52/65/191 4/55/192 3/56/194
f 50/63/195 51/64/193 3/56/194 2/57/196
f 61/74/197 50/63/195 2/57/196 1/58/198
f 60/73/199 61/75/197 1/59/198 12/60/200
f 59/72/201 60/73/199 12/60/200 11/61/202
f 58/71/203 59/72/201 11/61/202 10/62/204
f 57/70/182 58/71/203 10/62/204 9/50/183
f 64/76/205 63/77/206 111/78/207 112/79/208
f 65/80/209 64/76/205 112/79/208 113/81/210
f 66/82/211 65/80/209 113/81/210 114/83/212
f 67/84/213 66/82/211 114/83/212 115/85/214
f 68/86/215 67/84/213 115/85/214 116/87/216
f 69/88/217 68/86/215 116/87/216 117/89/218
f 70/90/219 69/88/217 117/89/218 118/91/220
f 71/92/221 70/90/219 118/91/220 119/93/222
f 72/94/223 71/95/221 119/96/222 120/97/224
f 73/98/225 72/94/223 120/97/224 121/99/226
f 74/100/227 73/98/225 121/99/226 122/101/228
f 63/77/206 74/100/227 122/101/228 111/78/207
f 76/102/229 75/103/230 87/104/231 88/105/232
f 77/106/233 76/102/229 88/105/232 89/107/234
f 78/108/235 77/106/233 89/107/234 90/109/236
f 79/110/237 78/108/235 90/109/236 91/111/238
f 80/112/239 79/110/237 91/111/238 92/113/240
f 81/114/241 80/112/239 92/113/240 93/115/242
f 82/116/243 81/114/241 93/115/242 94/117/244
f 83/118/245 82/116/243 94/117/244 95/119/246
f 84/120/247 83/121/245 95/122/246 96/123/248
f 85/124/249 84/120/247 96/123/248 97/125/250
f 86/126/251 85/124/249 97/125/250 98/127/252
f 75/103/230 86/126/251 98/127/252 87/104/231
f 88/105/232 87/104/231 63/77/206 64/76/205
f 89/107/234 88/105/232 64/76/205 65/80/209
f 90/109/236 89/107/234 65/80/209 66/82/211
f 91/111/238 90/109/236 66/82/211 67/84/213
f 92/113/240 91/111/238 67/84/213 68/86/215
f 93/115/242 92/113/240 68/86/215 69/88/217
f 94/117/244 93/115/242 69/88/217 70/90/219
f 95/119/246 94/117/244 70/90/219 71/92/221
f 96/123/248 95/122/246 71/95/221 72/94/223
f 97/125/250 96/123/248 72/94/223 73/98/225
f 98/127/252 97/125/250 73/98/225 74/100/227
f 87/104/231 98/127/252 74/100/227 63/77/206
f 100/128/253 99/129/254 57/130/182 56/131/181
f 101/132/255 100/128/253 56/131/181 55/133/185
f 102/134/256 101/132/255 55/133/185 54/135/187
f 103/136/257 102/134/256 54/135/187 53/137/189
f 104/138/258 103/136/257 53/137/189 52/139/191
f 105/140/259 104/138/258 52/139/191 51/141/193
f 106/142/260 105/140/259 51/141/193 50/143/195
f 107/144/261 106/142/260 50/143/195 61/145/197
f 108/146/262 107/147/261 61/148/197 60/149/199
f 109/150/263 108/146/262 60/149/199 59/151/201
f 110/152/264 109/150/263 59/151/201 58/153/203
f 99/129/254 110/152/264 58/153/203 57/130/182
f 112/79/208 111/78/207 99/129/254 100/128/253
f 113/81/210 112/79/208 100/128/253 101/132/255
f 114/83/212 113/81/210 101/132/255 102/134/256
f 115/85/214 114/83/212 102/134/256 103/136/257
f 116/87/216 115/85/214 103/136/257 104/138/258
f 117/89/218 116/87/216 104/138/258 105/140/259
f 118/91/220 117/89/218 105/140/259 106/142/260
f 119/93/222 118/91/220 106/142/260 107/144/261
f 120/97/224 119/96/222 107/147/261 108/146/262
f 121/99/226 120/97/224 108/146/262 109/150/263
f 122/101/228 121/99/226 109/150/263 110/152/264
f 111/78/207 122/101/228 110/152/264 99/129/254
f 123/154/265 124/155/266 145/156/267 146/157/268
f 124/155/266 123/154/265 126/158/269 125/159/270
f 125/160/270 126/161/269 128/162/271 127/163/272
f 127/163/272 128/162/271 130/164/273 129/165/274
f 129/165/274 130/164/273 132/166/275 131/167/276
f 131/167/276 132/166/275 134/168/277 133/169/278
f 133/169/278 134/168/277 136/170/279 135/171/280
f 135/171/280 136/170/279 138/172/281 137/173/282
f 137/173/282 138/172/281 140/174/283 139/175/284
f 139/175/284 140/174/283 142/176/285 141/177/286
f 141/177/286 142/176/285 144/178/287 143/179/288
f 143/179/288 144/178/287 146/157/268 145/156/267
f 62/180/289 124/155/266 125/159/270
f 62/180/289 145/156/267 124/155/266
f 62/180/289 143/179/288 145/156/267
f 62/180/289 141/177/286 143/179/288
f 62/180/289 139/175/284 141/177/286
f 62/180/289 137/173/282 139/175/284
f 62/180/289 135/171/280 137/173/282
f 62/180/289 133/169/278 135/171/280
f 62/180/289 131/167/276 133/169/278
f 62/180/289 129/165/274 131/167/276
f 62/180/289 127/163/272 129/165/274
f 62/180/289 125/160/270 127/163/272
f 126/158/269 123/154/265 82/116/243 83/118/245
f 128/162/271 126/161/269 83/121/245 84/120/247
f 130/164/273 128/162/271 84/120/247 85/124/249
f 132/166/275 130/164/273 85/124/249 86/126/251
f 134/168/277 132/166/275 86/126/251 75/103/230
f 136/170/279 134/168/277 75/103/230 76/102/229
f 138/172/281 136/170/279 76/102/229 77/106/233
f 140/174/283 138/172/281 77/106/233 78/108/235
f 142/176/285 140/174/283 78/108/235 79/110/237
f 144/178/287 142/176/285 79/110/237 80/112/239
f 146/157/268 144/178/287 80/112/239 81/114/241
f 123/154/265 146/157/268 81/114/241 82/116/243
