# This file uses centimeters as units for non-parametric coordinates.

mtllib RibsRTopIncisor.mtl
g default
v 0.315721 0.265595 0.148978
v 0.417785 0.251059 0.019535
v 0.322541 0.219528 -0.112066
v 0.085785 0.189473 -0.168732
v -0.153798 0.178499 -0.117271
v -0.255862 0.193036 0.012173
v -0.160619 0.224566 0.143773
v 0.076140 0.254622 0.200440
v 0.287510 0.606414 0.044192
v 0.392632 0.554785 -0.072718
v 0.300447 0.486161 -0.191783
v 0.064957 0.440740 -0.243258
v -0.175893 0.445132 -0.196988
v -0.281015 0.496761 -0.080079
v -0.188830 0.565385 0.038986
v 0.046662 0.610805 0.090461
v 0.264253 0.902935 -0.164784
v 0.372032 0.817273 -0.256596
v 0.282504 0.714616 -0.350565
v 0.048115 0.655098 -0.391644
v -0.193836 0.673587 -0.355770
v -0.301615 0.759250 -0.263958
v -0.212086 0.861906 -0.169989
v 0.022305 0.921423 -0.128910
v 0.035210 0.788261 -0.260277
v 0.344929 -0.074371 0.155809
v 0.441214 -0.021853 0.026418
v 0.342335 -0.011218 -0.104619
v 0.100791 0.014461 -0.162427
v -0.133602 -0.056938 -0.109673
v -0.231875 -0.086344 0.019220
v -0.130730 -0.123324 0.150762
v 0.104675 -0.072836 0.206365
vt 0.912280 0.254662
vt 0.899635 0.254662
vt 0.899635 0.228743
vt 0.912280 0.228743
vt 0.887858 0.254662
vt 0.887858 0.228743
vt 0.865532 0.254662
vt 0.865532 0.228743
vt 0.989533 0.254662
vt 0.967207 0.254662
vt 0.967207 0.228743
vt 0.989533 0.228743
vt 0.955430 0.254662
vt 0.955430 0.228743
vt 0.942785 0.254662
vt 0.942785 0.228743
vt 0.927532 0.254662
vt 0.927532 0.228743
vt 0.899635 0.202823
vt 0.912280 0.202823
vt 0.887858 0.202823
vt 0.865532 0.202823
vt 0.967207 0.202823
vt 0.989533 0.202823
vt 0.955430 0.202823
vt 0.942785 0.202823
vt 0.927532 0.202823
vt 0.899635 0.176904
vt 0.912280 0.176904
vt 0.887858 0.176904
vt 0.865532 0.176904
vt 0.967207 0.176904
vt 0.989533 0.176904
vt 0.955430 0.176904
vt 0.942785 0.176904
vt 0.927532 0.176904
vt 0.345435 0.978726
vt 0.332793 0.988530
vt 0.332793 0.953721
vt 0.320151 0.978726
vt 0.314914 0.955060
vt 0.320151 0.931393
vt 0.332793 0.921591
vt 0.345435 0.931393
vt 0.350671 0.955060
vn 0.432009 0.055135 0.900182
vn 0.980330 0.086396 0.177450
vn 0.987893 0.100399 0.118266
vn 0.433135 0.184002 0.882347
vn 0.554747 0.021163 -0.831750
vn 0.538558 -0.104195 -0.836121
vn 0.011281 -0.032894 -0.999395
vn 0.025367 -0.176208 -0.984026
vn -0.536587 -0.072698 -0.840708
vn -0.495410 -0.192336 -0.847098
vn -0.983553 -0.082636 0.160605
vn -0.992785 -0.070346 0.097100
vn -0.457850 -0.021700 0.888765
vn -0.477701 0.104444 0.872292
vn -0.015775 0.017748 0.999718
vn -0.025481 0.162279 0.986416
vn 0.985531 0.131856 0.106500
vn 0.412696 0.429049 0.803492
vn 0.554487 -0.324213 -0.766440
vn 0.046795 -0.428831 -0.902172
vn -0.474128 -0.412812 -0.777682
vn -0.995638 -0.038789 0.084850
vn -0.497306 0.350668 0.793549
vn -0.047621 0.439041 0.897204
vn 0.982103 0.154250 0.108077
vn 0.395353 0.549685 0.735896
vn 0.562279 -0.441777 -0.699053
vn 0.057735 -0.565952 -0.822414
vn -0.463164 -0.530103 -0.710260
vn -0.996125 -0.016141 0.086460
vn -0.499381 0.472619 0.726119
vn -0.058245 0.572451 0.817867
vn -0.052389 0.698751 -0.713444
vn -0.052389 0.698750 -0.713445
vn -0.052389 0.698749 -0.713446
vn -0.052390 0.698748 -0.713446
vn -0.052389 0.698748 -0.713447
vn -0.052389 0.698748 -0.713447
vn -0.052389 0.698750 -0.713445
vn -0.052390 0.698751 -0.713444
vn -0.052389 0.698750 -0.713445
s 1
g FoodRBuckTeeth
usemtl Ribs_blinn1SG
f 26/1/1 27/2/2 2/3/3 1/4/4
f 27/2/2 28/5/5 3/6/6 2/3/3
f 28/5/5 29/7/7 4/8/8 3/6/6
f 29/9/7 30/10/9 5/11/10 4/12/8
f 30/10/9 31/13/11 6/14/12 5/11/10
f 31/13/11 32/15/13 7/16/14 6/14/12
f 32/15/13 33/17/15 8/18/16 7/16/14
f 33/17/15 26/1/1 1/4/4 8/18/16
f 1/4/4 2/3/3 10/19/17 9/20/18
f 2/3/3 3/6/6 11/21/19 10/19/17
f 3/6/6 4/8/8 12/22/20 11/21/19
f 4/12/8 5/11/10 13/23/21 12/24/20
f 5/11/10 6/14/12 14/25/22 13/23/21
f 6/14/12 7/16/14 15/26/23 14/25/22
f 7/16/14 8/18/16 16/27/24 15/26/23
f 8/18/16 1/4/4 9/20/18 16/27/24
f 9/20/18 10/19/17 18/28/25 17/29/26
f 10/19/17 11/21/19 19/30/27 18/28/25
f 11/21/19 12/22/20 20/31/28 19/30/27
f 12/24/20 13/23/21 21/32/29 20/33/28
f 13/23/21 14/25/22 22/34/30 21/32/29
f 14/25/22 15/26/23 23/35/31 22/34/30
f 15/26/23 16/27/24 24/36/32 23/35/31
f 16/27/24 9/20/18 17/29/26 24/36/32
s 2
f 17/37/33 18/38/34 25/39/35
f 18/38/34 19/40/36 25/39/35
f 19/40/36 20/41/37 25/39/35
f 20/41/37 21/42/38 25/39/35
f 21/42/38 22/43/39 25/39/35
f 22/43/39 23/44/40 25/39/35
f 23/44/40 24/45/41 25/39/35
f 24/45/41 17/37/33 25/39/35
