# This file uses centimeters as units for non-parametric coordinates.

mtllib PineMountainPeakRiverCOL.mtl
g default
v -402.310120 -0.868002 185.496384
v -257.329865 -0.868002 185.496384
v -402.310120 -0.868002 40.516136
v -257.329865 -0.868002 40.516136
v -402.310120 -16.609900 185.496384
v -257.329865 -16.609900 185.496384
v -257.329865 -16.609900 40.516136
v -402.310120 -16.609900 40.516136
vt 0.380147 0.014348
vt 0.380147 0.230213
vt 0.164282 0.230213
vt 0.164282 0.014348
vt 0.000000 0.000000
vt 1.000000 0.000000
vt 1.000000 1.000000
vt 0.000000 1.000000
vt 0.000000 0.000000
vt 1.000000 0.000000
vt 1.000000 1.000000
vt 0.000000 1.000000
vt 0.000000 0.000000
vt 1.000000 0.000000
vt 1.000000 1.000000
vt 0.000000 1.000000
vt 0.000000 0.000000
vt 1.000000 0.000000
vt 1.000000 1.000000
vt 0.000000 1.000000
vn 0.000000 1.000000 0.000000
vn 0.000000 1.000000 0.000000
vn 0.000000 1.000000 0.000000
vn 0.000000 1.000000 0.000000
vn 0.000000 0.000000 1.000000
vn 0.000000 0.000000 1.000000
vn 0.000000 0.000000 1.000000
vn 0.000000 0.000000 1.000000
vn 1.000000 0.000000 0.000000
vn 1.000000 0.000000 0.000000
vn 1.000000 0.000000 0.000000
vn 1.000000 0.000000 0.000000
vn 0.000000 0.000000 -1.000000
vn 0.000000 0.000000 -1.000000
vn 0.000000 0.000000 -1.000000
vn 0.000000 0.000000 -1.000000
vn -1.000000 0.000000 0.000000
vn -1.000000 0.000000 0.000000
vn -1.000000 0.000000 0.000000
vn -1.000000 0.000000 0.000000
vn 0.000000 -1.000000 0.000000
vn 0.000000 -1.000000 0.000000
vn 0.000000 -1.000000 0.000000
vn 0.000000 -1.000000 0.000000
s off
g polySurface13
usemtl initialShadingGroup
f 1/1/1 2/2/2 4/3/3 3/4/4
f 2/5/5 1/6/6 5/7/7 6/8/8
f 4/9/9 2/10/10 6/11/11 7/12/12
f 3/13/13 4/14/14 7/15/15 8/16/16
f 1/17/17 3/18/18 8/19/19 5/20/20
f 6/8/21 5/20/22 8/16/23 7/12/24
