# This file uses centimeters as units for non-parametric coordinates.

mtllib RaspberryMediumLUpperLeg.mtl
g default
v 0.889468 -0.583058 0.582617
v 0.889468 0.585059 0.582616
v -0.877808 -0.372936 0.424397
v -0.877808 0.374937 0.424396
v -0.876948 -0.379612 -0.429715
v -0.876948 0.381611 -0.429716
v 0.889464 -0.583059 -0.585736
v 0.889464 0.585058 -0.585738
v -0.987431 -0.471307 -0.001553
v 1.020384 0.000999 -0.739416
v 1.020387 0.738705 -0.001561
v 1.020387 -0.736705 -0.001560
v 1.020389 0.001001 0.736295
v -0.944668 0.001001 0.536450
v -0.987431 0.473307 -0.001554
v -0.944672 0.000999 -0.539558
v -1.210400 0.001000 -0.001553
v 0.685681 -0.373327 0.874706
v 0.685681 0.375329 0.874705
v -0.468301 0.293528 0.742471
v -0.468301 -0.291526 0.742471
v -1.139114 -0.238659 0.271442
v -1.139114 0.240660 0.271441
v -1.139116 0.240659 -0.274549
v -1.139116 -0.238660 -0.274548
v -0.468306 -0.291528 -0.745582
v -0.468306 0.293526 -0.745582
v 0.685675 0.375327 -0.877825
v 0.685675 -0.373329 -0.877824
v 1.123335 -0.373329 -0.375965
v 1.123335 0.375328 -0.375966
v 1.123338 0.375329 0.372843
v 1.123338 -0.373328 0.372844
v 0.637643 0.877088 0.372844
v 0.637641 0.877087 -0.375964
v -0.526642 0.677869 -0.318382
v -0.526745 0.677035 0.315154
v 0.637641 -0.875088 -0.375963
v 0.637643 -0.875087 0.372846
v -0.526745 -0.675034 0.315156
v -0.526642 -0.675870 -0.318381
v 0.748263 0.001001 0.938434
v -0.456077 0.001001 0.798619
v -1.173676 0.001000 0.291771
v -1.173677 0.258506 -0.001553
v -1.173678 0.001000 -0.294878
v -1.173677 -0.256506 -0.001553
v -0.456083 0.000999 -0.801730
v 0.748257 0.000999 -0.941553
v 1.166555 0.001000 -0.367322
v 1.170738 0.368804 -0.003107
v 1.165361 0.001000 0.361109
v 1.170738 -0.366804 -0.003106
v 0.685033 0.940803 -0.001561
v -0.530081 0.730089 -0.001556
v 0.685033 -0.938803 -0.001558
v -0.530081 -0.728089 -0.001554
v 0.982616 -0.345452 0.685511
v 0.982616 0.347453 0.685510
v 0.609002 0.687933 0.685511
v -0.502395 0.523325 0.577114
v -0.931547 0.222813 0.499421
v -0.931547 -0.220812 0.499422
v -0.502395 -0.521324 0.577116
v 0.609002 -0.685931 0.685513
v -0.968829 0.440801 0.251111
v -0.968831 0.440800 -0.254220
v -0.931550 0.222812 -0.502530
v -0.931550 -0.220813 -0.502529
v -0.968831 -0.438801 -0.254219
v -0.968829 -0.438800 0.251112
v -0.499554 0.539660 -0.585536
v 0.608997 0.687931 -0.688631
v 0.982612 0.347452 -0.688632
v 0.982612 -0.345453 -0.688631
v 0.608997 -0.685933 -0.688630
v -0.499554 -0.537662 -0.585535
v 0.980969 0.687932 -0.348085
v 0.980972 0.687933 0.344961
v 0.980972 -0.685932 0.344963
v 0.980969 -0.685933 -0.348083
v 0.391396 0.001001 0.978978
v -0.039828 0.001001 0.922556
v 0.391599 -0.384894 0.908161
v -0.039552 -0.353431 0.858984
v 0.391897 -0.697712 0.706690
v -0.038825 -0.639996 0.672068
v -0.038825 0.641998 0.672066
v 0.391897 0.699713 0.706688
v 0.391665 0.386894 0.908153
v -0.039614 0.355426 0.858974
v -0.039833 0.000999 -0.925671
v 0.391391 0.000999 -0.982094
v -0.039535 -0.354375 -0.862781
v 0.391627 -0.385804 -0.911932
v -0.039436 -0.653918 -0.679463
v 0.391650 -0.704332 -0.711884
v 0.391650 0.706330 -0.711886
v -0.039436 0.655916 -0.679465
v -0.039594 0.356366 -0.862773
v 0.391689 0.387799 -0.911925
v 0.392437 0.970196 -0.001560
v -0.038142 0.899478 -0.001558
v 0.392213 0.895950 0.385653
v -0.038558 0.828819 0.367567
v 0.392230 0.900537 -0.389382
v -0.038442 0.834786 -0.371480
v 0.392434 -0.968196 -0.001557
v -0.038138 -0.897479 -0.001556
v 0.392320 -0.898529 -0.389375
v -0.038527 -0.832768 -0.371473
v 0.392111 -0.893957 0.385660
v -0.038462 -0.826838 0.367575
v 1.168198 0.001000 -0.002913
vt 0.388952 0.282841
vt 0.407243 0.311539
vt 0.356688 0.317179
vt 0.341953 0.280927
vt 0.412609 0.355545
vt 0.367516 0.355778
vt 0.407698 0.399604
vt 0.357087 0.394487
vt 0.389705 0.428490
vt 0.342728 0.430889
vt 0.184826 0.387670
vt 0.175986 0.416246
vt 0.117052 0.401048
vt 0.112076 0.381516
vt 0.187708 0.356708
vt 0.111000 0.357104
vt 0.184506 0.325777
vt 0.111824 0.332682
vt 0.175371 0.297294
vt 0.116598 0.313100
vt 0.072088 0.328920
vt 0.096212 0.300503
vt 0.067378 0.357329
vt 0.028152 0.357532
vt 0.049192 0.313827
vt 0.080074 0.278632
vt 0.072381 0.385688
vt 0.096797 0.413854
vt 0.080886 0.435892
vt 0.049643 0.401017
vt 0.035472 0.436595
vt 0.008588 0.287069
vt 0.069184 0.462675
vt 0.070404 0.491577
vt 0.047692 0.495631
vt 0.022205 0.507371
vt 0.034654 0.278397
vt 0.068096 0.251970
vt 0.046264 0.219239
vt 0.069016 0.223057
vt 0.116531 0.136717
vt 0.130050 0.169334
vt 0.098741 0.607483
vt 0.118808 0.577422
vt 0.131990 0.544667
vt 0.343874 0.624209
vt 0.328206 0.585981
vt 0.380877 0.574276
vt 0.402739 0.595964
vt 0.363047 0.047164
vt 0.427190 0.629105
vt 0.341101 0.087605
vt 0.400255 0.115241
vt 0.325829 0.125994
vt 0.378618 0.137153
vt 0.433598 0.161122
vt 0.395101 0.171018
vt 0.471604 0.577910
vt 0.465562 0.174264
vt 0.458055 0.224997
vt 0.403476 0.214488
vt 0.435606 0.549740
vt 0.397009 0.540243
vt 0.404935 0.496688
vt 0.459402 0.485617
vt 0.467433 0.536268
vt 0.465203 0.355273
vt 0.470379 0.422466
vt 0.441713 0.423889
vt 0.403519 0.454836
vt 0.441005 0.286904
vt 0.402493 0.256354
vt 0.469685 0.288031
vt 0.344132 0.466892
vt 0.347691 0.505186
vt 0.335742 0.546150
vt 0.140949 0.511563
vt 0.153365 0.478792
vt 0.164982 0.446537
vt 0.333776 0.165744
vt 0.346148 0.206583
vt 0.342985 0.244912
vt 0.164055 0.267118
vt 0.152105 0.234985
vt 0.139351 0.202343
vt 0.313636 0.356057
vt 0.249880 0.356386
vt 0.248383 0.320287
vt 0.312184 0.317645
vt 0.312590 0.394481
vt 0.248747 0.392498
vt 0.244934 0.285772
vt 0.309105 0.281251
vt 0.238702 0.249372
vt 0.304748 0.244195
vt 0.245663 0.427048
vt 0.309878 0.430905
vt 0.305920 0.468005
vt 0.239794 0.463508
vt 0.182966 0.057186
vt 0.283363 0.678105
vt 0.282958 0.082290
vt 0.197514 0.096768
vt 0.200189 0.616528
vt 0.285802 0.630126
vt 0.287175 0.124527
vt 0.209803 0.134429
vt 0.292901 0.164339
vt 0.220275 0.172012
vt 0.289570 0.587848
vt 0.212098 0.578746
vt 0.222196 0.541060
vt 0.294868 0.547977
vt 0.300918 0.507383
vt 0.231574 0.502472
vt 0.299355 0.204870
vt 0.230065 0.210497
vt 0.366238 0.664422
vt 0.280036 0.034337
vt 0.096154 0.106865
vt 0.186064 0.656263
vt 0.424361 0.081849
vt 0.469302 0.132581
vt 0.020657 0.207763
vt 0.009318 0.428193
vn 0.577455 -0.591373 0.562870
vn 0.732170 -0.296778 0.613067
vn 0.328540 -0.347923 0.878072
vn 0.285846 -0.687287 0.667779
vn 0.779344 0.000001 0.626596
vn 0.369269 -0.000003 0.929322
vn 0.732170 0.296779 0.613066
vn 0.328552 0.347925 0.878067
vn 0.577455 0.591374 0.562869
vn 0.285862 0.687282 0.667777
vn -0.375295 0.332321 0.865284
vn -0.378386 0.666191 0.642661
vn -0.508492 0.610857 0.606868
vn -0.559723 0.298750 0.772954
vn -0.375795 -0.000006 0.926703
vn -0.568750 0.000001 0.822511
vn -0.375287 -0.332320 0.865288
vn -0.559723 -0.298749 0.772955
vn -0.378378 -0.666196 0.642661
vn -0.508492 -0.610856 0.606870
vn -0.845969 -0.373470 0.380601
vn -0.571315 -0.766098 0.294437
vn -0.900288 0.000001 0.435295
vn -1.000000 0.000000 0.000003
vn -0.907200 -0.420700 0.000004
vn -0.582447 -0.812869 0.000396
vn -0.845969 0.373471 0.380600
vn -0.571316 0.766098 0.294435
vn -0.582447 0.812869 0.000395
vn -0.907200 0.420700 0.000002
vn -0.846646 0.372480 -0.380066
vn -0.900291 -0.000000 -0.435288
vn -0.575026 0.766625 -0.285712
vn -0.518508 0.605877 -0.603376
vn -0.561499 0.292355 -0.774111
vn -0.568755 -0.000001 -0.822507
vn -0.846646 -0.372481 -0.380065
vn -0.575027 -0.766625 -0.285711
vn -0.561499 -0.292357 -0.774110
vn -0.518508 -0.605879 -0.603374
vn -0.376087 -0.319776 -0.869656
vn -0.383655 -0.663720 -0.642094
vn -0.376133 -0.000008 -0.926566
vn -0.376095 0.319772 -0.869654
vn -0.383654 0.663733 -0.642082
vn 0.330749 0.346556 -0.877783
vn 0.294104 0.684128 -0.667437
vn 0.577451 0.591373 -0.562875
vn 0.731008 0.297876 -0.613919
vn 0.369664 -0.000005 -0.929165
vn 0.778075 -0.000001 -0.628171
vn 0.330738 -0.346558 -0.877787
vn 0.731008 -0.297877 -0.613919
vn 0.294106 -0.684115 -0.667449
vn 0.577452 -0.591374 -0.562873
vn 0.922006 -0.273007 -0.274539
vn 0.698624 -0.653875 -0.290467
vn 0.965584 -0.000000 -0.260092
vn 1.000000 0.000000 0.000991
vn 0.965232 -0.261395 -0.000232
vn 0.737345 -0.675516 0.000172
vn 0.922006 0.273006 -0.274540
vn 0.698624 0.653875 -0.290469
vn 0.737345 0.675516 0.000171
vn 0.965232 0.261395 -0.000233
vn 0.965954 0.000000 0.258714
vn 0.922683 0.271427 0.273831
vn 0.699153 0.653469 0.290109
vn 0.922683 -0.271427 0.273831
vn 0.699153 -0.653469 0.290110
vn 0.313462 0.888787 0.334363
vn 0.349714 0.936856 0.001123
vn 0.319557 0.887465 -0.332098
vn -0.393504 0.868746 -0.300726
vn -0.395979 0.918255 0.002883
vn -0.389598 0.863749 0.319610
vn 0.319574 -0.887460 -0.332094
vn 0.349711 -0.936857 0.001139
vn 0.313441 -0.888793 0.334366
vn -0.389588 -0.863753 0.319614
vn -0.395978 -0.918256 0.002902
vn -0.393512 -0.868743 -0.300722
vn -0.021640 0.000012 0.999766
vn -0.200807 0.000010 0.979631
vn -0.208734 -0.359238 0.909603
vn -0.031345 -0.356341 0.933830
vn -0.031338 0.356343 0.933830
vn -0.208730 0.359241 0.909603
vn -0.226481 -0.702974 0.674191
vn -0.055481 -0.713898 0.698048
vn -0.238404 -0.908184 0.344042
vn -0.065873 -0.934274 0.350419
vn -0.226454 0.702982 0.674192
vn -0.055507 0.713907 0.698037
vn -0.065864 0.934276 0.350415
vn -0.238398 0.908187 0.344040
vn -0.201119 0.000007 -0.979567
vn -0.021127 0.000009 -0.999777
vn -0.027051 -0.350652 -0.936115
vn -0.206566 -0.348321 -0.914332
vn -0.206563 0.348319 -0.914334
vn -0.027044 0.350649 -0.936116
vn -0.044175 -0.712161 -0.700625
vn -0.223804 -0.701566 -0.676548
vn -0.056603 -0.938476 -0.340674
vn -0.237379 -0.914711 -0.327039
vn -0.044169 0.712130 -0.700657
vn -0.223808 0.701548 -0.676565
vn -0.237383 0.914710 -0.327041
vn -0.056612 0.938475 -0.340676
vn -0.061618 0.998086 0.005227
vn -0.242784 0.970064 0.005693
vn -0.061617 -0.998086 0.005189
vn -0.242786 -0.970063 0.005672
s 1
g FoodMediumLUpperLeg
usemtl Delete:blinn2SG
f 1/1/1 58/2/2 18/3/3 65/4/4
f 58/2/2 13/5/5 42/6/6 18/3/3
f 13/5/5 59/7/7 19/8/8 42/6/6
f 59/7/7 2/9/9 60/10/10 19/8/8
f 20/11/11 61/12/12 4/13/13 62/14/14
f 43/15/15 20/11/11 62/14/14 14/16/16
f 21/17/17 43/15/15 14/16/16 63/18/18
f 64/19/19 21/17/17 63/18/18 3/20/20
f 3/20/20 63/18/18 22/21/21 71/22/22
f 63/18/18 14/16/16 44/23/23 22/21/21
f 22/21/21 44/23/23 17/24/24 47/25/25
f 71/22/22 22/21/21 47/25/25 9/26/26
f 14/16/16 62/14/14 23/27/27 44/23/23
f 62/14/14 4/13/13 66/28/28 23/27/27
f 23/27/27 66/28/28 15/29/29 45/30/30
f 44/23/23 23/27/27 45/30/30 17/24/24
f 17/24/24 45/30/30 24/31/31 46/125/32
f 45/30/30 15/29/29 67/33/33 24/31/31
f 24/31/31 67/33/33 6/34/34 68/35/35
f 46/125/32 24/31/31 68/35/35 16/36/36
f 9/26/26 47/25/25 25/37/37 70/38/38
f 47/25/25 17/24/24 46/32/32 25/37/37
f 25/37/37 46/32/32 16/124/36 69/39/39
f 70/38/38 25/37/37 69/39/39 5/40/40
f 5/40/40 69/39/39 26/41/41 77/42/42
f 69/39/39 16/124/36 48/120/43 26/41/41
f 16/36/36 68/35/35 27/44/44 48/43/43
f 68/35/35 6/34/34 72/45/45 27/44/44
f 28/46/46 73/47/47 8/48/48 74/49/49
f 49/118/50 28/46/46 74/49/49 10/51/51
f 29/52/52 49/50/50 10/122/51 75/53/53
f 76/54/54 29/52/52 75/53/53 7/55/55
f 7/55/55 75/53/53 30/56/56 81/57/57
f 75/53/53 10/122/51 50/123/58 30/56/56
f 30/56/56 114/59/59 53/60/60
f 81/57/57 30/56/56 53/60/60 12/61/61
f 10/51/51 74/49/49 31/62/62 50/58/58
f 74/49/49 8/48/48 78/63/63 31/62/62
f 31/62/62 78/63/63 11/64/64 51/65/65
f 50/58/58 31/62/62 114/66/59
f 52/67/66 114/68/59 32/69/67
f 51/65/65 11/64/64 79/70/68 32/69/67
f 32/69/67 79/70/68 2/9/9 59/7/7
f 52/67/66 32/69/67 59/7/7 13/5/5
f 12/61/61 53/60/60 33/71/69 80/72/70
f 53/60/60 114/73/59 33/71/69
f 33/71/69 52/67/66 13/5/5 58/2/2
f 80/72/70 33/71/69 58/2/2 1/1/1
f 2/9/9 79/70/68 34/74/71 60/10/10
f 79/70/68 11/64/64 54/75/72 34/74/71
f 11/64/64 78/63/63 35/76/73 54/75/72
f 78/63/63 8/48/48 73/47/47 35/76/73
f 36/77/74 72/45/45 6/34/34 67/33/33
f 55/78/75 36/77/74 67/33/33 15/29/29
f 37/79/76 55/78/75 15/29/29 66/28/28
f 61/12/12 37/79/76 66/28/28 4/13/13
f 7/55/55 81/57/57 38/80/77 76/54/54
f 81/57/57 12/61/61 56/81/78 38/80/77
f 12/61/61 80/72/70 39/82/79 56/81/78
f 80/72/70 1/1/1 65/4/4 39/82/79
f 40/83/80 64/19/19 3/20/20 71/22/22
f 57/84/81 40/83/80 71/22/22 9/26/26
f 41/85/82 57/84/81 9/26/26 70/38/38
f 77/42/42 41/85/82 70/38/38 5/40/40
f 82/86/83 83/87/84 85/88/85 84/89/86
f 83/87/84 82/86/83 90/90/87 91/91/88
f 84/89/86 85/88/85 87/92/89 86/93/90
f 86/93/90 87/92/89 113/94/91 112/95/92
f 88/96/93 89/97/94 104/98/95 105/99/96
f 89/97/94 88/96/93 91/91/88 90/90/87
f 92/100/97 93/119/98 95/102/99 94/103/100
f 93/101/98 92/121/97 100/104/101 101/105/102
f 94/103/100 95/102/99 97/106/103 96/107/104
f 96/107/104 97/106/103 110/108/105 111/109/106
f 98/110/107 99/111/108 107/112/109 106/113/110
f 99/111/108 98/110/107 101/105/102 100/104/101
f 102/114/111 103/115/112 105/99/96 104/98/95
f 103/115/112 102/114/111 106/113/110 107/112/109
f 108/116/113 109/117/114 111/109/106 110/108/105
f 109/117/114 108/116/113 112/95/92 113/94/91
f 18/3/3 42/6/6 82/86/83 84/89/86
f 65/4/4 18/3/3 84/89/86 86/93/90
f 19/8/8 60/10/10 89/97/94 90/90/87
f 42/6/6 19/8/8 90/90/87 82/86/83
f 83/87/84 91/91/88 20/11/11 43/15/15
f 91/91/88 88/96/93 61/12/12 20/11/11
f 87/92/89 85/88/85 21/17/17 64/19/19
f 85/88/85 83/87/84 43/15/15 21/17/17
f 26/41/41 48/120/43 92/100/97 94/103/100
f 77/42/42 26/41/41 94/103/100 96/107/104
f 27/44/44 72/45/45 99/111/108 100/104/101
f 48/43/43 27/44/44 100/104/101 92/121/97
f 93/101/98 101/105/102 28/46/46 49/118/50
f 101/105/102 98/110/107 73/47/47 28/46/46
f 97/106/103 95/102/99 29/52/52 76/54/54
f 95/102/99 93/119/98 49/50/50 29/52/52
f 34/74/71 54/75/72 102/114/111 104/98/95
f 60/10/10 34/74/71 104/98/95 89/97/94
f 35/76/73 73/47/47 98/110/107 106/113/110
f 54/75/72 35/76/73 106/113/110 102/114/111
f 103/115/112 107/112/109 36/77/74 55/78/75
f 107/112/109 99/111/108 72/45/45 36/77/74
f 88/96/93 105/99/96 37/79/76 61/12/12
f 105/99/96 103/115/112 55/78/75 37/79/76
f 38/80/77 56/81/78 108/116/113 110/108/105
f 76/54/54 38/80/77 110/108/105 97/106/103
f 39/82/79 65/4/4 86/93/90 112/95/92
f 56/81/78 39/82/79 112/95/92 108/116/113
f 109/117/114 113/94/91 40/83/80 57/84/81
f 113/94/91 87/92/89 64/19/19 40/83/80
f 96/107/104 111/109/106 41/85/82 77/42/42
f 111/109/106 109/117/114 57/84/81 41/85/82
f 114/66/59 31/62/62 51/65/65
f 33/71/69 114/73/59 52/67/66
f 30/56/56 50/123/58 114/59/59
f 32/69/67 114/68/59 51/65/65
