# This file uses centimeters as units for non-parametric coordinates.

mtllib BugMazeWalkwayCOL.mtl
g default
v -36.794739 32.270496 6.525806
v 37.588097 43.571842 6.525806
v -36.794739 32.270496 -6.497735
v 37.588097 43.571842 -6.497735
v -37.167801 34.725891 -4.876339
v 37.215034 46.027241 -4.876339
v -37.167801 34.725891 4.904411
v 37.215034 46.027241 4.904411
v -37.591362 37.513668 6.525806
v 36.791473 48.815010 6.525806
v 36.791473 48.815010 4.904411
v -37.591362 37.513668 4.904411
v 36.791473 48.815010 -4.876339
v -37.591362 37.513668 -4.876339
v 36.791473 48.815010 -6.497735
v -37.591362 37.513668 -6.497735
vt 0.355306 0.039671
vt 0.652605 0.017512
vt 0.375000 0.717266
vt 0.625000 0.706289
vt 0.375000 0.971767
vt 0.625000 0.988036
vt 0.849995 0.001706
vt 0.150755 0.002777
vt 0.208333 0.250000
vt 0.375000 0.416667
vt 0.625000 0.416667
vt 0.791667 0.250000
vt 0.291667 0.250000
vt 0.375000 0.333333
vt 0.625000 0.333333
vt 0.708333 0.250000
vt 0.375000 0.250000
vt 0.625000 0.250000
vt 0.625000 0.333333
vt 0.375000 0.333333
vt 0.375000 0.416667
vt 0.625000 0.416667
vt 0.625000 0.500000
vt 0.375000 0.500000
vn -0.150211 0.988654 0.000000
vn -0.150211 0.988654 0.000000
vn -0.150211 0.988654 0.000000
vn -0.150211 0.988654 0.000000
vn -0.150211 0.988654 0.000000
vn -0.150211 0.988654 0.000000
vn -0.150211 0.988654 0.000000
vn -0.150211 0.988654 0.000000
vn -0.988654 -0.150212 -0.000000
vn -0.988654 -0.150212 0.000000
vn -0.988654 -0.150212 0.000000
vn -0.988654 -0.150212 -0.000000
vn 0.139119 -0.915647 -0.377142
vn 0.139119 -0.915648 -0.377142
vn 0.150211 -0.988654 0.000000
vn 0.150211 -0.988654 0.000000
vn 0.988654 0.150210 0.000000
vn 0.988654 0.150210 0.000000
vn 0.988654 0.150210 0.000000
vn 0.988654 0.150210 0.000000
vn -0.150211 0.988654 0.000000
vn -0.150211 0.988654 0.000000
vn -0.150211 0.988654 0.000000
vn -0.150211 0.988654 0.000000
vn 0.000000 0.000000 1.000000
vn 0.000000 0.000000 1.000000
vn 0.000000 0.000000 1.000000
vn 0.000000 0.000000 1.000000
vn 0.988654 0.150212 0.000000
vn 0.988654 0.150212 0.000000
vn 0.000000 0.000000 -1.000000
vn 0.000000 0.000000 -1.000000
vn 0.000000 0.000000 -1.000000
vn 0.000000 0.000000 -1.000000
vn -0.988654 -0.150211 0.000000
vn -0.988654 -0.150211 0.000000
vn 0.000000 0.000000 1.000000
vn 0.000000 0.000000 1.000000
vn 0.000000 0.000000 1.000000
vn 0.000000 0.000000 1.000000
vn 0.988654 0.150212 0.000000
vn 0.988654 0.150212 0.000000
vn 0.000000 0.000000 -1.000000
vn 0.000000 0.000000 -1.000000
vn -0.988654 -0.150211 -0.000000
vn -0.988654 -0.150211 -0.000000
s off
g pCube1
usemtl lambert2SG
f 9/17/1 10/18/2 11/19/3 12/20/4
f 14/21/5 13/22/6 15/23/7 16/24/8
s 1
f 3/8/9 1/1/10 7/13/11 5/9/12
s 2
f 3/3/13 4/4/14 2/6/15 1/5/16
s 3
f 8/16/17 2/2/18 4/7/19 6/12/20
s off
f 7/14/21 8/15/22 6/11/23 5/10/24
f 1/1/25 2/2/26 10/18/27 9/17/28
s 3
f 2/2/18 8/15/17 11/19/29 10/18/30
s off
f 8/15/31 7/14/32 12/20/33 11/19/34
s 1
f 7/14/11 1/1/10 9/17/35 12/20/36
s off
f 5/10/37 6/11/38 13/22/39 14/21/40
s 3
f 6/11/20 4/4/19 15/23/41 13/22/42
s 2
f 4/4/14 3/3/13 16/24/43 15/23/44
s 1
f 3/3/9 5/10/12 14/21/45 16/24/46
