# This file uses centimeters as units for non-parametric coordinates.

mtllib ExcavationBrush.mtl
g default
v -0.613199 -0.206765 1.832248
v 0.618113 -0.206765 1.832248
v -0.613199 0.206764 1.832248
v 0.618113 0.206764 1.832248
v -0.613199 0.206764 1.286648
v 0.618113 0.206764 1.286648
v -0.613199 -0.206765 1.286648
v 0.618113 -0.206765 1.286648
v -0.169477 0.070902 -0.511196
v 0.174390 0.070902 -0.511196
v 0.174390 -0.070903 -0.511196
v -0.169477 -0.070903 -0.511196
v -0.217722 -0.081636 -0.316803
v 0.222636 -0.081636 -0.316803
v 0.222636 0.081635 -0.316803
v -0.217722 0.081635 -0.316803
v -0.171247 -0.092369 0.387726
v 0.176161 -0.092369 0.387726
v 0.176161 0.092369 0.387726
v -0.171247 0.092369 0.387726
v -0.286389 -0.103102 0.837187
v 0.291303 -0.103102 0.837187
v 0.291303 0.103102 0.837187
v -0.286389 0.103102 0.837187
v 0.002457 0.206764 1.832248
v 0.002457 0.206764 1.286648
v 0.002457 0.123062 0.387726
v 0.002457 0.108762 -0.316803
v 0.002457 0.070902 -0.603671
v 0.002457 -0.070903 -0.603671
v 0.002457 -0.108763 -0.316803
v 0.002457 -0.123062 0.387726
v 0.002457 -0.206765 1.286648
v 0.002457 -0.206765 1.832248
v -0.086664 0.070902 -0.582027
v -0.086664 -0.070903 -0.582027
v 0.101189 0.070902 -0.577062
v 0.101189 -0.070903 -0.577062
v -0.193235 -0.089366 0.589097
v 0.002457 -0.124254 0.586745
v 0.198149 -0.089366 0.589097
v 0.198149 0.089365 0.589097
v 0.002457 0.124254 0.586745
v -0.193235 0.089365 0.589097
v -0.736572 -0.201800 2.810189
v 0.736572 -0.201800 2.810189
v -0.736572 0.201283 2.810189
v 0.736572 0.201283 2.810189
v -0.565649 0.167165 1.810189
v 0.565649 0.167165 1.810189
v -0.565649 -0.167683 1.810189
v 0.565649 -0.167683 1.810189
v -0.620669 0.181220 2.310189
v -0.620669 -0.181737 2.310189
v 0.620669 -0.181737 2.310189
v 0.620669 0.181220 2.310189
v 0.000000 -0.167683 1.810189
v 0.000000 -0.179816 2.310189
v 0.000000 -0.201800 2.857480
v 0.000000 0.201283 2.857480
v 0.000000 0.179298 2.310189
v 0.000000 0.167165 1.810189
vt 0.744773 0.690739
vt 0.751829 0.666002
vt 0.788661 0.676316
vt 0.781151 0.700353
vt 0.742628 0.720429
vt 0.771455 0.731150
vt 0.744071 0.839363
vt 0.749817 0.842250
vt 0.748711 0.850512
vt 0.742098 0.848326
vt 0.717536 0.693352
vt 0.724683 0.722158
vt 0.698075 0.738598
vt 0.682691 0.709247
vt 0.838429 0.726507
vt 0.820247 0.754905
vt 0.803240 0.739985
vt 0.816687 0.712684
vt 0.743665 0.752505
vt 0.789446 0.770743
vt 0.780610 0.762058
vt 0.730140 0.753603
vt 0.722531 0.828060
vt 0.734765 0.827184
vt 0.734765 0.839258
vt 0.729693 0.843659
vt 0.768298 0.828097
vt 0.777782 0.828860
vt 0.774980 0.841015
vt 0.766214 0.840228
vt 0.743682 0.827135
vt 0.755849 0.827282
vt 0.733751 0.784193
vt 0.723184 0.786042
vt 0.766517 0.786560
vt 0.777443 0.788643
vt 0.745049 0.783689
vt 0.755917 0.784779
vt 0.732792 0.770860
vt 0.720886 0.774520
vt 0.779638 0.779746
vt 0.770147 0.774833
vt 0.744631 0.770143
vt 0.757465 0.772521
vt 0.755058 0.843295
vt 0.760927 0.842526
vt 0.754716 0.851342
vt 0.761495 0.850855
vt 0.724294 0.845331
vt 0.718060 0.844185
vt 0.709472 0.828716
vt 0.712894 0.787735
vt 0.709190 0.778939
vt 0.697300 0.770230
vt 0.665840 0.756781
vt 0.649461 0.727703
vt 0.824904 0.688587
vt 0.767572 0.849355
vt 0.713192 0.840540
vt 0.748552 0.577171
vt 0.789909 0.582376
vt 0.786434 0.604620
vt 0.745736 0.599758
vt 0.781702 0.634686
vt 0.746514 0.629082
vt 0.725299 0.629952
vt 0.690780 0.638498
vt 0.683143 0.608691
vt 0.723566 0.600818
vt 0.847804 0.620678
vt 0.836136 0.646959
vt 0.816755 0.639900
vt 0.826781 0.612393
vt 0.727966 0.658436
vt 0.746305 0.657623
vt 0.697355 0.665823
vt 0.826535 0.673372
vt 0.808786 0.667367
vt 0.777466 0.662419
vt 0.666537 0.673492
vt 0.656807 0.646965
vt 0.643630 0.621274
vt 0.830949 0.589996
vn 0.000000 0.000000 1.000000
vn 0.000000 0.000000 1.000000
vn 0.000000 0.000000 1.000000
vn 0.000000 0.000000 1.000000
vn 0.000000 1.000000 0.000000
vn 0.000000 1.000000 0.000000
vn 0.000000 1.000000 0.000000
vn 0.000000 1.000000 0.000000
vn -0.903127 0.000000 -0.429373
vn -0.473686 0.000000 -0.880694
vn -0.473686 0.000000 -0.880694
vn -0.903127 0.000000 -0.429373
vn 0.000000 -1.000000 0.000000
vn 0.000000 -1.000000 0.000000
vn 0.000000 -1.000000 0.000000
vn 0.000000 -1.000000 0.000000
vn 1.000000 0.000000 0.000000
vn 1.000000 0.000000 0.000000
vn 1.000000 0.000000 0.000000
vn 1.000000 0.000000 0.000000
vn -1.000000 0.000000 0.000000
vn -1.000000 0.000000 0.000000
vn -1.000000 0.000000 0.000000
vn -1.000000 0.000000 0.000000
vn -0.108950 0.981525 -0.157284
vn 0.000000 0.974419 -0.224737
vn 0.000000 0.981895 -0.189425
vn 0.808797 0.000000 -0.588088
vn 0.808797 0.000000 -0.588088
vn 0.839725 0.000000 -0.543012
vn 0.839725 0.000000 -0.543012
vn 0.000000 -0.974419 -0.224737
vn -0.108950 -0.981525 -0.157284
vn 0.000000 -0.981895 -0.189425
vn -0.808797 0.000000 -0.588088
vn -0.808797 0.000000 -0.588088
vn -0.839725 0.000000 -0.543013
vn -0.839725 0.000000 -0.543013
vn -0.000404 -0.999605 -0.028100
vn -0.138911 -0.989909 -0.028002
vn -0.110724 -0.989324 -0.094750
vn -0.086365 -0.990611 -0.105980
vn 0.999976 0.000000 0.006932
vn 0.999976 0.000000 0.006932
vn 0.912015 0.000000 -0.410156
vn 0.912015 0.000000 -0.410156
vn -0.138911 0.989909 -0.028002
vn -0.000404 0.999605 -0.028100
vn -0.086365 0.990611 -0.105980
vn -0.110724 0.989324 -0.094750
vn -0.999976 0.000000 0.006932
vn -0.999976 0.000000 0.006932
vn -0.903127 0.000000 -0.429373
vn -0.903127 0.000000 -0.429373
vn -0.151616 -0.988377 -0.011141
vn -0.138911 -0.989909 -0.028002
vn -0.000404 -0.999605 -0.028100
vn 0.000000 -0.999936 -0.011301
vn 0.999670 0.000000 0.025682
vn 0.999670 0.000000 0.025682
vn 0.999976 0.000000 0.006932
vn 0.999976 0.000000 0.006932
vn -0.000404 0.999605 -0.028100
vn -0.138911 0.989909 -0.028002
vn -0.151616 0.988377 -0.011141
vn 0.000000 0.999936 -0.011301
vn -0.999670 0.000000 0.025682
vn -0.999670 0.000000 0.025682
vn -0.999976 0.000000 0.006932
vn -0.999976 0.000000 0.006932
vn -0.108950 -0.981525 -0.157284
vn -0.173017 -0.980204 -0.096256
vn 0.000000 -0.995710 -0.092534
vn 0.000000 -0.981895 -0.189425
vn 0.839725 0.000000 -0.543012
vn 0.839725 0.000000 -0.543012
vn 0.967481 0.000000 -0.252946
vn 0.967481 0.000000 -0.252946
vn -0.173017 0.980204 -0.096255
vn -0.108950 0.981525 -0.157284
vn 0.000000 0.981895 -0.189425
vn 0.000000 0.995710 -0.092534
vn -0.839725 0.000000 -0.543013
vn -0.839725 0.000000 -0.543013
vn -0.967480 0.000000 -0.252947
vn -0.967480 0.000000 -0.252947
vn 0.000000 1.000000 0.000000
vn 0.000000 1.000000 0.000000
vn 0.000000 1.000000 0.000000
vn 0.000000 1.000000 0.000000
vn 0.000000 0.981895 -0.189425
vn 0.000000 0.974419 -0.224737
vn 0.108950 0.981525 -0.157284
vn 0.000000 0.995710 -0.092534
vn 0.000000 0.981895 -0.189425
vn 0.108950 0.981525 -0.157284
vn 0.173017 0.980204 -0.096255
vn -0.000404 0.999605 -0.028100
vn 0.000000 0.999936 -0.011301
vn 0.151616 0.988377 -0.011141
vn 0.139408 0.989860 -0.027255
vn 0.003145 0.991398 -0.130842
vn -0.000404 0.999605 -0.028100
vn 0.086557 0.990598 -0.105939
vn 0.026421 0.000000 -0.999651
vn 0.026421 0.000000 -0.999651
vn 0.473685 0.000000 -0.880694
vn 0.473685 0.000000 -0.880694
vn -0.000404 -0.999605 -0.028100
vn 0.003145 -0.991398 -0.130842
vn 0.086557 -0.990598 -0.105939
vn 0.000000 -0.999936 -0.011301
vn -0.000404 -0.999605 -0.028100
vn 0.139408 -0.989860 -0.027255
vn 0.151616 -0.988377 -0.011141
vn 0.000000 -0.981895 -0.189425
vn 0.000000 -0.995710 -0.092534
vn 0.173017 -0.980204 -0.096255
vn 0.108950 -0.981525 -0.157284
vn 0.000000 -0.981895 -0.189425
vn 0.108950 -0.981525 -0.157284
vn 0.000000 -0.974419 -0.224737
vn 0.000000 -1.000000 0.000000
vn 0.000000 -1.000000 0.000000
vn 0.000000 -1.000000 0.000000
vn 0.000000 -1.000000 0.000000
vn 0.000000 0.000000 1.000000
vn 0.000000 0.000000 1.000000
vn 0.000000 0.000000 1.000000
vn 0.000000 0.000000 1.000000
vn -0.473686 0.000000 -0.880694
vn 0.026421 0.000000 -0.999651
vn 0.026421 0.000000 -0.999651
vn -0.473686 0.000000 -0.880694
vn -0.000404 -0.999605 -0.028100
vn -0.086365 -0.990611 -0.105980
vn 0.003145 -0.991398 -0.130842
vn -0.086365 0.990611 -0.105980
vn -0.000404 0.999605 -0.028100
vn 0.003145 0.991398 -0.130842
vn 0.473685 0.000000 -0.880694
vn 0.473685 0.000000 -0.880694
vn 0.912015 0.000000 -0.410156
vn 0.912015 0.000000 -0.410156
vn 0.139408 -0.989860 -0.027255
vn -0.000404 -0.999605 -0.028100
vn 0.086557 -0.990598 -0.105939
vn 0.112407 -0.989277 -0.093251
vn 0.086557 0.990598 -0.105939
vn -0.000404 0.999605 -0.028100
vn 0.139408 0.989860 -0.027255
vn 0.112407 0.989277 -0.093251
vn -0.173017 -0.980204 -0.096256
vn -0.151616 -0.988377 -0.011141
vn 0.000000 -0.999936 -0.011301
vn 0.000000 -0.995710 -0.092534
vn 0.173017 -0.980204 -0.096255
vn 0.000000 -0.995710 -0.092534
vn 0.000000 -0.999936 -0.011301
vn 0.151616 -0.988377 -0.011141
vn 0.967481 0.000000 -0.252946
vn 0.967481 0.000000 -0.252946
vn 0.999670 0.000000 0.025682
vn 0.999670 0.000000 0.025682
vn 0.000000 0.999936 -0.011301
vn 0.000000 0.995710 -0.092534
vn 0.173017 0.980204 -0.096255
vn 0.151616 0.988377 -0.011141
vn -0.151616 0.988377 -0.011141
vn -0.173017 0.980204 -0.096255
vn 0.000000 0.995710 -0.092534
vn 0.000000 0.999936 -0.011301
vn -0.967480 0.000000 -0.252947
vn -0.967480 0.000000 -0.252947
vn -0.999670 0.000000 0.025682
vn -0.999670 0.000000 0.025682
vn -0.064073 0.000000 0.997945
vn 0.000000 0.000000 1.000000
vn 0.000000 0.000000 1.000000
vn -0.064073 0.000000 0.997945
vn 0.002802 0.999204 -0.039807
vn -0.000000 0.999207 -0.039807
vn -0.000000 0.999436 -0.033582
vn 0.002325 0.999410 -0.034279
vn 0.002325 -0.999410 -0.034279
vn 0.000000 -0.999436 -0.033582
vn 0.000000 -0.999207 -0.039807
vn 0.002802 -0.999204 -0.039807
vn 0.974170 0.000000 -0.225818
vn 0.985022 0.000000 -0.172429
vn 0.985022 0.000000 -0.172429
vn 0.974170 0.000000 -0.225818
vn -0.985022 0.000000 -0.172429
vn -0.974170 0.000000 -0.225818
vn -0.974170 0.000000 -0.225818
vn -0.985022 0.000000 -0.172429
vn -0.994000 0.000000 -0.109380
vn -0.985022 0.000000 -0.172429
vn -0.985022 0.000000 -0.172429
vn -0.994000 0.000000 -0.109380
vn 0.001619 -0.999658 -0.026090
vn 0.000000 -0.999660 -0.026090
vn 0.000000 -0.999436 -0.033582
vn 0.002325 -0.999410 -0.034279
vn 0.985022 0.000000 -0.172429
vn 0.985022 0.000000 -0.172429
vn 0.994000 0.000000 -0.109380
vn 0.994000 0.000000 -0.109380
vn 0.002325 0.999410 -0.034279
vn -0.000000 0.999436 -0.033582
vn 0.000000 0.999660 -0.026090
vn 0.001619 0.999658 -0.026090
vn 0.000000 -0.999660 -0.026090
vn -0.001619 -0.999658 -0.026090
vn -0.002325 -0.999410 -0.034279
vn 0.000000 -0.999436 -0.033582
vn 0.000000 -0.999207 -0.039807
vn 0.000000 -0.999436 -0.033582
vn -0.002325 -0.999410 -0.034279
vn -0.002802 -0.999204 -0.039807
vn 0.000000 0.000000 1.000000
vn 0.000000 0.000000 1.000000
vn 0.064073 0.000000 0.997945
vn 0.064073 0.000000 0.997945
vn -0.000000 0.999436 -0.033582
vn -0.000000 0.999207 -0.039807
vn -0.002802 0.999204 -0.039807
vn -0.002325 0.999410 -0.034279
vn 0.000000 0.999660 -0.026090
vn -0.000000 0.999436 -0.033582
vn -0.002325 0.999410 -0.034279
vn -0.001619 0.999658 -0.026090
s off
g ExcavationBrush:pCube4
usemtl blinn1SG
f 3/1/1 1/2/2 34/3/3 25/4/4
f 5/5/5 3/1/6 25/4/7 26/6/8
f 9/7/9 35/8/10 36/9/11 12/10/12
f 1/11/13 7/12/14 33/13/15 34/14/16
f 2/15/17 8/16/18 6/17/19 4/18/20
f 7/12/21 1/11/22 3/1/23 5/5/24
f 24/19/25 5/5/26 26/6/27
f 6/17/28 8/16/29 22/20/30 23/21/31
f 7/12/32 21/22/33 33/13/34
f 7/12/35 5/5/36 24/19/37 21/22/38
f 31/23/39 13/24/40 12/25/41 36/26/42
f 15/27/43 14/28/44 11/29/45 10/30/46
f 16/31/47 28/32/48 35/8/49 9/7/50
f 13/24/51 16/31/52 9/7/53 12/25/54
f 17/33/55 13/24/56 31/23/57 32/34/58
f 19/35/59 18/36/60 14/28/61 15/27/62
f 28/32/63 16/31/64 20/37/65 27/38/66
f 17/33/67 20/37/68 16/31/69 13/24/70
f 21/22/71 39/39/72 40/40/73 33/13/74
f 23/21/75 22/20/76 41/41/77 42/42/78
f 44/43/79 24/19/80 26/6/81 43/44/82
f 21/22/83 24/19/84 44/43/85 39/39/86
f 26/6/87 25/4/88 4/18/89 6/17/90
f 26/6/91 6/17/92 23/21/93
f 43/44/94 26/6/95 23/21/96 42/42/97
f 28/32/98 27/38/99 19/35/100 15/27/101
f 29/45/102 28/32/103 37/46/104
f 30/47/105 29/45/106 37/46/107 38/48/108
f 31/23/109 30/49/110 38/50/111
f 32/34/112 31/23/113 14/51/114 18/52/115
f 33/13/116 40/40/117 41/53/118 22/54/119
f 33/13/120 22/54/121 8/55/122
f 34/14/123 33/13/124 8/55/125 2/56/126
f 25/4/127 34/3/128 2/57/129 4/18/130
f 35/8/131 29/45/132 30/47/133 36/9/134
f 31/23/135 36/26/136 30/49/137
f 35/8/138 28/32/139 29/45/140
f 38/48/141 37/46/142 10/30/143 11/58/144
f 14/51/145 31/23/146 38/50/147 11/59/148
f 37/46/149 28/32/150 15/27/151 10/30/152
f 39/39/153 17/33/154 32/34/155 40/40/156
f 41/53/157 40/40/158 32/34/159 18/52/160
f 42/42/161 41/41/162 18/36/163 19/35/164
f 27/38/165 43/44/166 42/42/167 19/35/168
f 20/37/169 44/43/170 43/44/171 27/38/172
f 39/39/173 44/43/174 20/37/175 17/33/176
f 45/60/177 59/61/178 60/62/179 47/63/180
f 47/63/181 60/62/182 61/64/183 53/65/184
f 54/66/185 58/67/186 59/68/187 45/69/188
f 46/70/189 55/71/190 56/72/191 48/73/192
f 54/66/193 45/69/194 47/63/195 53/65/196
f 51/74/197 54/66/198 53/65/199 49/75/200
f 51/74/201 57/76/202 58/67/203 54/66/204
f 56/72/205 55/71/206 52/77/207 50/78/208
f 53/65/209 61/64/210 62/79/211 49/75/212
f 57/76/213 52/80/214 55/81/215 58/67/216
f 59/68/217 58/67/218 55/81/219 46/82/220
f 60/62/221 59/61/222 46/83/223 48/73/224
f 61/64/225 60/62/226 48/73/227 56/72/228
f 62/79/229 61/64/230 56/72/231 50/78/232
