# This file uses centimeters as units for non-parametric coordinates.

g default
v 0.534363 -1.286510 -5.268568
v -0.534363 -1.286510 -5.268568
v -0.534363 -1.286510 -4.199844
v 0.534363 -1.286510 -4.199844
v 0.000000 17.510960 -4.734207
v 0.747059 17.210751 -5.481266
v -0.747059 17.210751 -5.481266
v -0.747059 17.210751 -3.987148
v 0.747059 17.210751 -3.987148
v 0.537399 -1.286510 4.165034
v -0.537399 -1.286510 4.165034
v -0.537399 -1.286510 5.239831
v 0.537399 -1.286510 5.239831
v 0.000000 16.631464 4.702433
v 0.751303 16.331255 3.951130
v -0.751303 16.331255 3.951130
v -0.751303 16.331255 5.453737
v 0.751303 16.331255 5.453737
v 0.540463 -1.286510 -18.166574
v -0.540463 -1.286510 -18.166574
v -0.540463 -1.286510 -17.085649
v 0.540463 -1.286510 -17.085649
v 0.000000 16.622339 -17.626112
v 0.755587 16.322130 -18.381699
v -0.755587 16.322130 -18.381699
v -0.755587 16.322130 -16.870525
v 0.755587 16.322130 -16.870525
v 0.532236 -1.286510 11.315591
v -0.532236 -1.286510 11.315591
v -0.532236 -1.286510 12.380061
v 0.532236 -1.286510 12.380061
v 0.000000 14.216166 11.847826
v 0.744086 13.915956 11.103740
v -0.744086 13.915956 11.103740
v -0.744086 13.915956 12.591912
v 0.744086 13.915956 12.591912
v -0.204895 14.756588 -17.083321
v 0.204895 14.756588 -17.083321
v -0.204895 13.893166 -17.083321
v 0.204895 13.893166 -17.083321
v -0.204895 14.814199 -5.244438
v 0.204895 14.814199 -5.244438
v -0.204895 15.677622 -5.244438
v 0.204895 15.677622 -5.244438
v -0.204895 14.164413 5.276565
v 0.204895 14.164413 5.276565
v -0.204895 13.300991 5.276565
v 0.204895 13.300991 5.276565
v -0.204895 12.617104 11.281862
v 0.204895 12.617104 11.281862
v -0.204895 13.480526 11.281862
v 0.204895 13.480526 11.281862
v -3.855169 -1.286510 5.343388
v -4.906082 -1.286510 5.343388
v -4.906082 -1.286510 6.394302
v -3.855169 -1.286510 6.394302
v -4.380626 15.642239 5.868845
v -3.646018 15.359462 5.134236
v -5.115234 15.359462 5.134236
v -5.115234 15.359462 6.603454
v -3.646018 15.359462 6.603454
v -3.850802 -1.286510 -6.232104
v -4.910449 -1.286510 -6.232104
v -4.910449 -1.286510 -5.172457
v -3.850802 -1.286510 -5.172457
v -4.380626 15.634424 -5.702281
v -3.639912 15.351647 -6.442995
v -5.121339 15.351647 -6.442995
v -5.121339 15.351647 -4.961566
v -3.639912 15.351647 -4.961566
v -4.167584 12.512255 -5.375644
v -4.167584 12.512255 -5.785435
v -4.167584 11.648834 -5.375644
v -4.167584 11.648834 -5.785435
v -0.531211 11.648834 -4.528208
v -0.531211 11.648834 -4.937998
v -0.531211 12.512255 -4.528208
v -0.531211 12.512255 -4.937998
v -4.090301 6.141356 -5.419214
v -4.090301 6.141356 -5.829005
v -4.090301 5.277935 -5.419214
v -4.090301 5.277935 -5.829005
v -0.453927 5.277935 -4.528208
v -0.453927 5.277935 -4.937998
v -0.453927 6.141356 -4.528208
v -0.453927 6.141356 -4.937998
v -4.090301 6.141356 5.982221
v -4.090301 6.141356 5.572430
v -4.090301 5.277935 5.982221
v -4.090301 5.277935 5.572430
v -0.453927 5.277935 4.879597
v -0.453927 5.277935 4.469806
v -0.453927 6.141356 4.879597
v -0.453927 6.141356 4.469806
v -4.167584 12.512255 6.001888
v -4.167584 12.512255 5.592098
v -4.167584 11.648834 6.001888
v -4.167584 11.648834 5.592098
v -0.531211 11.648834 4.879597
v -0.531211 11.648834 4.469806
v -0.531211 12.512255 4.879597
v -0.531211 12.512255 4.469806
v -0.524125 0.846854 -5.186717
v 0.585987 0.846854 -5.186717
v -0.524125 10.136930 -5.186717
v 0.585987 10.136930 -5.186717
v -0.524125 10.136930 -17.205589
v 0.585987 10.136930 -17.205589
v -0.524125 0.846854 -17.205589
v 0.585987 0.846854 -17.205589
v -0.524125 0.846854 11.287432
v 0.585987 0.846854 11.287432
v -0.524125 10.136930 11.287432
v 0.585987 10.136930 11.287432
v -0.524125 10.136930 5.235725
v 0.585987 10.136930 5.235725
v -0.524125 0.846854 5.235725
v 0.585987 0.846854 5.235725
vt 0.311976 0.623454
vt 0.311916 0.635145
vt 0.323607 0.635167
vt 0.311862 0.646810
vt 0.300223 0.635049
vt 0.225870 0.563809
vt 0.216509 0.262724
vt 0.272713 0.563803
vt 0.281995 0.262714
vt 0.257100 0.563483
vt 0.260168 0.262267
vt 0.241483 0.563485
vt 0.238336 0.262270
vt 0.336612 0.695772
vt 0.336668 0.684740
vt 0.325640 0.684715
vt 0.336721 0.673734
vt 0.347696 0.684827
vt 0.158318 0.280845
vt 0.155017 0.566284
vt 0.173923 0.280856
vt 0.176834 0.566276
vt 0.189525 0.280527
vt 0.198645 0.565798
vt 0.142716 0.280495
vt 0.133203 0.565813
vt 0.337437 0.645096
vt 0.337489 0.634741
vt 0.327138 0.634721
vt 0.337538 0.624413
vt 0.347842 0.634824
vt 0.071296 0.548410
vt 0.065051 0.279169
vt 0.056589 0.548911
vt 0.044500 0.279876
vt 0.115437 0.548825
vt 0.126722 0.279704
vt 0.100727 0.548367
vt 0.106164 0.279076
vt 0.086011 0.548229
vt 0.085606 0.278901
vt 0.310905 0.650111
vt 0.310853 0.661004
vt 0.321751 0.661025
vt 0.310803 0.671883
vt 0.299954 0.660921
vt 0.237963 0.254499
vt 0.238071 0.013935
vt 0.222521 0.254689
vt 0.216481 0.014202
vt 0.207088 0.255274
vt 0.194905 0.015020
vt 0.268839 0.255302
vt 0.281237 0.015056
vt 0.253406 0.254703
vt 0.259661 0.014219
vt 0.324153 0.618855
vt 0.317049 0.618916
vt 0.315507 0.437909
vt 0.322612 0.437849
vt 0.343783 0.619790
vt 0.338149 0.619757
vt 0.336607 0.438750
vt 0.342241 0.438783
vt 0.303072 0.620056
vt 0.301530 0.439049
vt 0.197118 0.571195
vt 0.204350 0.571032
vt 0.204536 0.689360
vt 0.197303 0.689522
vt 0.170095 0.573150
vt 0.179213 0.573135
vt 0.179399 0.691463
vt 0.170281 0.691477
vt 0.152185 0.571265
vt 0.152370 0.689592
vt 0.311582 0.698114
vt 0.311633 0.686622
vt 0.300146 0.686598
vt 0.311681 0.675148
vt 0.323120 0.686698
vt 0.148837 0.010080
vt 0.145157 0.273756
vt 0.164141 0.010117
vt 0.166552 0.273808
vt 0.179441 0.009800
vt 0.187943 0.273365
vt 0.133537 0.009689
vt 0.123769 0.273211
vt 0.336803 0.670021
vt 0.336852 0.659029
vt 0.325863 0.659008
vt 0.336898 0.648054
vt 0.347840 0.659104
vt 0.054350 0.266588
vt 0.046169 0.014479
vt 0.098256 0.266684
vt 0.107549 0.014616
vt 0.083623 0.266314
vt 0.087092 0.014098
vt 0.068985 0.266282
vt 0.066629 0.014052
vt 0.196782 0.765649
vt 0.189917 0.767123
vt 0.189907 0.696196
vt 0.196773 0.694723
vt 0.172489 0.767125
vt 0.163813 0.765359
vt 0.163803 0.694432
vt 0.172480 0.696199
vt 0.146384 0.765361
vt 0.146374 0.694435
vt 0.340732 0.083137
vt 0.333725 0.084718
vt 0.333715 0.011954
vt 0.340723 0.010373
vt 0.315898 0.084720
vt 0.307040 0.082826
vt 0.307030 0.010063
vt 0.315889 0.011956
vt 0.289213 0.082828
vt 0.289204 0.010064
vt 0.095734 0.758736
vt 0.089147 0.756902
vt 0.089147 0.686590
vt 0.095734 0.688424
vt 0.121017 0.756535
vt 0.112681 0.758736
vt 0.112681 0.688424
vt 0.121017 0.686224
vt 0.137965 0.756535
vt 0.137964 0.686224
vt 0.041303 0.748045
vt 0.034858 0.746219
vt 0.034858 0.677229
vt 0.041303 0.679054
vt 0.066061 0.745854
vt 0.057904 0.748045
vt 0.057904 0.679054
vt 0.066061 0.676864
vt 0.082662 0.745854
vt 0.082663 0.676864
vt 0.375000 0.000000
vt 0.625000 0.000000
vt 0.625000 0.250000
vt 0.375000 0.250000
vt 0.625000 0.500000
vt 0.375000 0.500000
vt 0.625000 0.750000
vt 0.375000 0.750000
vt 0.625000 1.000000
vt 0.375000 1.000000
vt 0.875000 0.000000
vt 0.875000 0.250000
vt 0.125000 0.000000
vt 0.125000 0.250000
vt 0.375000 0.000000
vt 0.625000 0.000000
vt 0.625000 0.250000
vt 0.375000 0.250000
vt 0.625000 0.500000
vt 0.375000 0.500000
vt 0.625000 0.750000
vt 0.375000 0.750000
vt 0.625000 1.000000
vt 0.375000 1.000000
vt 0.875000 0.000000
vt 0.875000 0.250000
vt 0.125000 0.000000
vt 0.125000 0.250000
vn 0.344624 0.927824 -0.142751
vn 0.344624 0.927824 0.142751
vn 0.344624 0.927824 0.142751
vn 0.142748 0.927824 -0.344624
vn 0.142748 0.927824 -0.344624
vn -0.142748 0.927824 -0.344624
vn -0.344624 0.927823 -0.142751
vn -0.344624 0.927824 -0.142751
vn -0.344624 0.927824 0.142751
vn -0.142749 0.927824 0.344623
vn -0.142749 0.927824 0.344623
vn 0.142749 0.927824 0.344623
vn -0.382657 -0.011583 -0.923818
vn 0.382657 -0.011583 -0.923818
vn 0.382657 -0.011583 -0.923818
vn -0.382657 -0.011583 -0.923818
vn -0.923818 -0.011582 0.382658
vn -0.923817 -0.011583 -0.382658
vn -0.923817 -0.011583 -0.382658
vn -0.923818 -0.011582 0.382658
vn 0.382658 -0.011582 0.923818
vn -0.382658 -0.011582 0.923818
vn -0.382658 -0.011582 0.923818
vn 0.382658 -0.011582 0.923818
vn 0.923817 -0.011583 -0.382658
vn 0.923818 -0.011582 0.382658
vn 0.923818 -0.011582 0.382658
vn 0.923817 -0.011583 -0.382658
vn 0.344624 0.927824 -0.142747
vn 0.344624 0.927824 0.142747
vn 0.344624 0.927824 0.142747
vn 0.142748 0.927824 -0.344623
vn 0.142748 0.927824 -0.344623
vn -0.142748 0.927824 -0.344623
vn -0.344624 0.927824 -0.142747
vn -0.344624 0.927824 -0.142747
vn -0.344624 0.927824 0.142747
vn -0.142748 0.927824 0.344623
vn -0.142748 0.927824 0.344623
vn 0.142748 0.927824 0.344623
vn -0.382655 -0.012167 -0.923811
vn 0.382655 -0.012167 -0.923811
vn 0.382655 -0.012167 -0.923811
vn -0.382655 -0.012167 -0.923811
vn -0.923811 -0.012167 0.382655
vn -0.923811 -0.012167 -0.382655
vn -0.923811 -0.012167 -0.382655
vn -0.923811 -0.012167 0.382655
vn 0.382654 -0.012167 0.923812
vn -0.382654 -0.012167 0.923812
vn -0.382654 -0.012167 0.923812
vn 0.382654 -0.012167 0.923812
vn 0.923811 -0.012167 -0.382655
vn 0.923811 -0.012167 0.382655
vn 0.923811 -0.012167 0.382655
vn 0.923811 -0.012167 -0.382655
vn 0.344623 0.927825 -0.142747
vn 0.344623 0.927825 0.142747
vn 0.344623 0.927825 0.142747
vn 0.142751 0.927824 -0.344623
vn 0.142751 0.927824 -0.344623
vn -0.142751 0.927824 -0.344623
vn -0.344623 0.927825 -0.142747
vn -0.344623 0.927825 -0.142747
vn -0.344623 0.927825 0.142747
vn -0.142749 0.927824 0.344623
vn -0.142749 0.927824 0.344623
vn 0.142749 0.927824 0.344623
vn -0.382655 -0.012167 -0.923811
vn 0.382655 -0.012167 -0.923811
vn 0.382655 -0.012167 -0.923811
vn -0.382655 -0.012167 -0.923811
vn -0.923811 -0.012167 0.382656
vn -0.923811 -0.012167 -0.382656
vn -0.923811 -0.012167 -0.382656
vn -0.923811 -0.012167 0.382656
vn 0.382658 -0.012167 0.923810
vn -0.382658 -0.012167 0.923810
vn -0.382658 -0.012167 0.923810
vn 0.382658 -0.012167 0.923810
vn 0.923811 -0.012167 -0.382656
vn 0.923811 -0.012167 0.382656
vn 0.923811 -0.012167 0.382656
vn 0.923811 -0.012167 -0.382656
vn 0.344624 0.927824 -0.142747
vn 0.344625 0.927824 0.142747
vn 0.344625 0.927824 0.142747
vn 0.142749 0.927824 -0.344623
vn 0.142749 0.927824 -0.344623
vn -0.142749 0.927824 -0.344623
vn -0.344624 0.927824 -0.142747
vn -0.344624 0.927824 -0.142747
vn -0.344625 0.927824 0.142747
vn -0.142749 0.927824 0.344623
vn -0.142749 0.927824 0.344623
vn 0.142749 0.927824 0.344623
vn -0.382647 -0.014107 -0.923787
vn 0.382647 -0.014107 -0.923787
vn 0.382647 -0.014107 -0.923787
vn -0.382647 -0.014107 -0.923787
vn -0.923787 -0.014107 0.382646
vn -0.923787 -0.014107 -0.382646
vn -0.923787 -0.014107 -0.382646
vn -0.923787 -0.014107 0.382646
vn 0.382647 -0.014107 0.923787
vn -0.382647 -0.014107 0.923787
vn -0.382647 -0.014107 0.923787
vn 0.382647 -0.014107 0.923787
vn 0.923787 -0.014107 -0.382646
vn 0.923787 -0.014107 0.382646
vn 0.923787 -0.014107 0.382646
vn 0.923787 -0.014107 -0.382646
vn 0.000000 -0.996987 0.077563
vn 0.000000 -0.996987 0.077563
vn 0.000000 -0.996987 0.077563
vn 0.000000 -0.996987 0.077563
vn 0.000000 0.996987 -0.077563
vn 0.000000 0.996987 -0.077563
vn 0.000000 0.996987 -0.077563
vn 0.000000 0.996987 -0.077563
vn 1.000000 0.000000 0.000000
vn 1.000000 0.000000 0.000000
vn 1.000000 0.000000 0.000000
vn 1.000000 0.000000 0.000000
vn -1.000000 0.000000 0.000000
vn -1.000000 0.000000 0.000000
vn -1.000000 0.000000 0.000000
vn -1.000000 0.000000 0.000000
vn 0.000000 -0.993578 -0.113150
vn 0.000000 -0.993578 -0.113150
vn 0.000000 -0.993578 -0.113150
vn 0.000000 -0.993578 -0.113150
vn 0.000000 0.993578 0.113150
vn 0.000000 0.993578 0.113150
vn 0.000000 0.993578 0.113150
vn 0.000000 0.993578 0.113150
vn 1.000000 0.000000 0.000000
vn 1.000000 0.000000 0.000000
vn 1.000000 0.000000 0.000000
vn 1.000000 0.000000 0.000000
vn -1.000000 0.000000 0.000000
vn -1.000000 0.000000 0.000000
vn -1.000000 0.000000 0.000000
vn -1.000000 0.000000 0.000000
vn 0.327190 0.935190 -0.135524
vn 0.327189 0.935190 0.135524
vn 0.327189 0.935190 0.135524
vn 0.135527 0.935188 -0.327193
vn 0.135527 0.935188 -0.327193
vn -0.135527 0.935189 -0.327191
vn -0.327190 0.935189 -0.135528
vn -0.327190 0.935189 -0.135528
vn -0.327190 0.935189 0.135528
vn -0.135527 0.935189 0.327191
vn -0.135527 0.935189 0.327191
vn 0.135527 0.935188 0.327193
vn -0.382651 -0.012858 -0.923804
vn 0.382651 -0.012858 -0.923804
vn 0.382651 -0.012858 -0.923804
vn -0.382651 -0.012858 -0.923804
vn -0.923803 -0.012858 0.382652
vn -0.923804 -0.012858 -0.382651
vn -0.923804 -0.012858 -0.382651
vn -0.923803 -0.012858 0.382652
vn 0.382651 -0.012858 0.923804
vn -0.382651 -0.012858 0.923804
vn -0.382651 -0.012858 0.923804
vn 0.382651 -0.012858 0.923804
vn 0.923803 -0.012858 -0.382652
vn 0.923803 -0.012858 0.382652
vn 0.923803 -0.012858 0.382652
vn 0.923803 -0.012858 -0.382652
vn 0.327189 0.935190 -0.135524
vn 0.327190 0.935190 0.135524
vn 0.327190 0.935190 0.135524
vn 0.135526 0.935188 -0.327194
vn 0.135526 0.935188 -0.327194
vn -0.135527 0.935189 -0.327191
vn -0.327190 0.935189 -0.135528
vn -0.327190 0.935189 -0.135528
vn -0.327190 0.935189 0.135528
vn -0.135527 0.935189 0.327190
vn -0.135527 0.935189 0.327190
vn 0.135526 0.935189 0.327193
vn -0.382652 -0.012858 -0.923803
vn 0.382651 -0.012858 -0.923804
vn 0.382651 -0.012858 -0.923804
vn -0.382652 -0.012858 -0.923803
vn -0.923804 -0.012858 0.382651
vn -0.923803 -0.012858 -0.382652
vn -0.923803 -0.012858 -0.382652
vn -0.923804 -0.012858 0.382651
vn 0.382651 -0.012858 0.923804
vn -0.382651 -0.012858 0.923804
vn -0.382651 -0.012858 0.923804
vn 0.382651 -0.012858 0.923804
vn 0.923803 -0.012858 -0.382652
vn 0.923803 -0.012858 0.382652
vn 0.923803 -0.012858 0.382652
vn 0.923803 -0.012858 -0.382652
vn 0.000000 -1.000000 0.000000
vn 0.000000 -1.000000 0.000000
vn 0.000000 -1.000000 0.000000
vn 0.000000 -1.000000 0.000000
vn 0.000000 1.000000 0.000000
vn 0.000000 1.000000 0.000000
vn 0.000000 1.000000 0.000000
vn 0.000000 1.000000 0.000000
vn 0.226963 0.000000 -0.973903
vn 0.226963 0.000000 -0.973903
vn 0.226963 0.000000 -0.973903
vn 0.226963 0.000000 -0.973903
vn -0.226963 0.000000 0.973903
vn -0.226963 0.000000 0.973903
vn -0.226963 0.000000 0.973903
vn -0.226963 0.000000 0.973903
vn 0.000000 -1.000000 0.000000
vn 0.000000 -1.000000 0.000000
vn 0.000000 -1.000000 0.000000
vn 0.000000 -1.000000 0.000000
vn 0.000000 1.000000 0.000000
vn 0.000000 1.000000 0.000000
vn 0.000000 1.000000 0.000000
vn 0.000000 1.000000 0.000000
vn 0.237986 0.000000 -0.971269
vn 0.237986 0.000000 -0.971269
vn 0.237986 0.000000 -0.971269
vn 0.237986 0.000000 -0.971269
vn -0.237986 0.000000 0.971269
vn -0.237986 0.000000 0.971269
vn -0.237986 0.000000 0.971269
vn -0.237986 0.000000 0.971269
vn 0.000000 -1.000000 0.000000
vn 0.000000 -1.000000 0.000000
vn 0.000000 -1.000000 0.000000
vn 0.000000 -1.000000 0.000000
vn 0.000000 1.000000 0.000000
vn 0.000000 1.000000 0.000000
vn 0.000000 1.000000 0.000000
vn 0.000000 1.000000 0.000000
vn -0.290174 0.000000 -0.956974
vn -0.290174 0.000000 -0.956974
vn -0.290174 0.000000 -0.956974
vn -0.290174 0.000000 -0.956974
vn 0.290174 0.000000 0.956974
vn 0.290174 0.000000 0.956974
vn 0.290174 0.000000 0.956974
vn 0.290174 0.000000 0.956974
vn 0.000000 -1.000000 0.000000
vn 0.000000 -1.000000 0.000000
vn 0.000000 -1.000000 0.000000
vn 0.000000 -1.000000 0.000000
vn 0.000000 1.000000 0.000000
vn 0.000000 1.000000 0.000000
vn 0.000000 1.000000 0.000000
vn 0.000000 1.000000 0.000000
vn -0.294904 0.000000 -0.955527
vn -0.294904 0.000000 -0.955527
vn -0.294904 0.000000 -0.955527
vn -0.294904 0.000000 -0.955527
vn 0.294904 0.000000 0.955527
vn 0.294904 0.000000 0.955527
vn 0.294904 0.000000 0.955527
vn 0.294904 0.000000 0.955527
vn 0.000000 0.000000 1.000000
vn 0.000000 0.000000 1.000000
vn 0.000000 0.000000 1.000000
vn 0.000000 0.000000 1.000000
vn 0.000000 1.000000 0.000000
vn 0.000000 1.000000 0.000000
vn 0.000000 1.000000 0.000000
vn 0.000000 1.000000 0.000000
vn 0.000000 0.000000 -1.000000
vn 0.000000 0.000000 -1.000000
vn 0.000000 0.000000 -1.000000
vn 0.000000 0.000000 -1.000000
vn 0.000000 -1.000000 0.000000
vn 0.000000 -1.000000 0.000000
vn 0.000000 -1.000000 0.000000
vn 0.000000 -1.000000 0.000000
vn 1.000000 0.000000 0.000000
vn 1.000000 0.000000 0.000000
vn 1.000000 0.000000 0.000000
vn 1.000000 0.000000 0.000000
vn -1.000000 0.000000 0.000000
vn -1.000000 0.000000 0.000000
vn -1.000000 0.000000 0.000000
vn -1.000000 0.000000 0.000000
vn 0.000000 0.000000 1.000000
vn 0.000000 0.000000 1.000000
vn 0.000000 0.000000 1.000000
vn 0.000000 0.000000 1.000000
vn 0.000000 1.000000 0.000000
vn 0.000000 1.000000 0.000000
vn 0.000000 1.000000 0.000000
vn 0.000000 1.000000 0.000000
vn 0.000000 0.000000 -1.000000
vn 0.000000 0.000000 -1.000000
vn 0.000000 0.000000 -1.000000
vn 0.000000 0.000000 -1.000000
vn 0.000000 -1.000000 0.000000
vn 0.000000 -1.000000 0.000000
vn 0.000000 -1.000000 0.000000
vn 0.000000 -1.000000 0.000000
vn 1.000000 0.000000 0.000000
vn 1.000000 0.000000 0.000000
vn 1.000000 0.000000 0.000000
vn 1.000000 0.000000 0.000000
vn -1.000000 0.000000 0.000000
vn -1.000000 0.000000 0.000000
vn -1.000000 0.000000 0.000000
vn -1.000000 0.000000 0.000000
s off
g GrottoGateCOL:polySurface2
usemtl lambert2SG
f 6/1/1 5/2/2 9/5/3
f 5/2/4 6/1/5 7/3/6
f 5/2/7 7/3/8 8/4/9
f 5/2/10 8/4/11 9/5/12
f 7/9/13 6/7/14 1/6/15 2/8/16
f 8/11/17 7/9/18 2/8/19 3/10/20
f 9/13/21 8/11/22 3/10/23 4/12/24
f 6/7/25 9/13/26 4/12/27 1/6/28
f 15/14/29 14/15/30 18/18/31
f 14/15/32 15/14/33 16/16/34
f 14/15/35 16/16/36 17/17/37
f 14/15/38 17/17/39 18/18/40
f 16/22/41 15/20/42 10/19/43 11/21/44
f 17/24/45 16/22/46 11/21/47 12/23/48
f 18/26/49 17/24/50 12/23/51 13/25/52
f 15/20/53 18/26/54 13/25/55 10/19/56
f 24/27/57 23/28/58 27/31/59
f 23/28/60 24/27/61 25/29/62
f 23/28/63 25/29/64 26/30/65
f 23/28/66 26/30/67 27/31/68
f 25/35/69 24/33/70 19/32/71 20/34/72
f 26/39/73 25/37/74 20/36/75 21/38/76
f 27/41/77 26/39/78 21/38/79 22/40/80
f 24/33/81 27/41/82 22/40/83 19/32/84
f 33/42/85 32/43/86 36/46/87
f 32/43/88 33/42/89 34/44/90
f 32/43/91 34/44/92 35/45/93
f 32/43/94 35/45/95 36/46/96
f 34/50/97 33/48/98 28/47/99 29/49/100
f 35/52/101 34/50/102 29/49/103 30/51/104
f 36/56/105 35/54/106 30/53/107 31/55/108
f 33/48/109 36/56/110 31/55/111 28/47/112
f 42/57/113 41/58/114 39/59/115 40/60/116
f 43/61/117 44/62/118 38/63/119 37/64/120
f 38/63/121 44/62/122 42/57/123 40/60/124
f 41/58/125 43/65/126 37/66/127 39/59/128
f 50/67/129 49/68/130 47/69/131 48/70/132
f 51/71/133 52/72/134 46/73/135 45/74/136
f 46/73/137 52/72/138 50/67/139 48/70/140
f 49/75/141 51/71/142 45/74/143 47/76/144
f 58/77/145 57/78/146 61/81/147
f 57/78/148 58/77/149 59/79/150
f 57/78/151 59/79/152 60/80/153
f 57/78/154 60/80/155 61/81/156
f 59/85/157 58/83/158 53/82/159 54/84/160
f 60/87/161 59/85/162 54/84/163 55/86/164
f 61/89/165 60/87/166 55/86/167 56/88/168
f 58/83/169 61/89/170 56/88/171 53/82/172
f 67/90/173 66/91/174 70/94/175
f 66/91/176 67/90/177 68/92/178
f 66/91/179 68/92/180 69/93/181
f 66/91/182 69/93/183 70/94/184
f 68/98/185 67/96/186 62/95/187 63/97/188
f 69/100/189 68/98/190 63/97/191 64/99/192
f 70/102/193 69/100/194 64/99/195 65/101/196
f 67/96/197 70/102/198 65/101/199 62/95/200
f 76/103/201 75/104/202 73/105/203 74/106/204
f 77/107/205 78/108/206 72/109/207 71/110/208
f 72/109/209 78/108/210 76/111/211 74/112/212
f 75/104/213 77/107/214 71/110/215 73/105/216
f 84/113/217 83/114/218 81/115/219 82/116/220
f 85/117/221 86/118/222 80/119/223 79/120/224
f 80/119/225 86/118/226 84/121/227 82/122/228
f 83/114/229 85/117/230 79/120/231 81/115/232
f 92/123/233 91/124/234 89/125/235 90/126/236
f 93/127/237 94/128/238 88/129/239 87/130/240
f 88/129/241 94/128/242 92/123/243 90/126/244
f 91/131/245 93/127/246 87/130/247 89/132/248
f 100/133/249 99/134/250 97/135/251 98/136/252
f 101/137/253 102/138/254 96/139/255 95/140/256
f 96/139/257 102/138/258 100/133/259 98/136/260
f 99/141/261 101/137/262 95/140/263 97/142/264
f 103/143/265 104/144/266 106/145/267 105/146/268
f 105/146/269 106/145/270 108/147/271 107/148/272
f 107/148/273 108/147/274 110/149/275 109/150/276
f 109/150/277 110/149/278 104/151/279 103/152/280
f 104/144/281 110/153/282 108/154/283 106/145/284
f 109/155/285 103/143/286 105/146/287 107/156/288
f 111/157/289 112/158/290 114/159/291 113/160/292
f 113/160/293 114/159/294 116/161/295 115/162/296
f 115/162/297 116/161/298 118/163/299 117/164/300
f 117/164/301 118/163/302 112/165/303 111/166/304
f 112/158/305 118/167/306 116/168/307 114/159/308
f 117/169/309 111/157/310 113/160/311 115/170/312
