# This file uses centimeters as units for non-parametric coordinates.

mtllib Platform02_battleCOL.mtl
g default
v 28.310207 0.000000 -23.152346
v 10.813535 0.000000 -37.461273
v -12.152674 0.000000 -37.517933
v -29.627485 0.000000 -23.854893
v -34.993343 0.000000 0.000003
v -31.631683 0.000000 23.281199
v -10.813535 0.000000 37.461269
v 10.813539 0.000000 37.461269
v 30.918810 0.000000 25.182098
v 34.993340 0.000000 0.000001
v 22.663393 3.105378 -16.465923
v 8.656644 3.105378 -26.642420
v -8.656650 3.105378 -26.642418
v -22.663397 3.105378 -16.465918
v -28.013496 3.105378 0.000002
v -22.663393 3.105378 16.465921
v -8.656645 3.105378 26.642418
v 8.656647 3.105378 26.642416
v 22.663391 3.105378 16.465918
v 28.013493 3.105378 0.000000
v 0.000000 3.105378 0.000000
vt 0.375000 0.312500
vt 0.400000 0.312500
vt 0.425000 0.312500
vt 0.450000 0.312500
vt 0.475000 0.312500
vt 0.500000 0.312500
vt 0.525000 0.312500
vt 0.550000 0.312500
vt 0.575000 0.312500
vt 0.600000 0.312500
vt 0.625000 0.312500
vt 0.375000 0.688440
vt 0.400000 0.688440
vt 0.425000 0.688440
vt 0.450000 0.688440
vt 0.475000 0.688440
vt 0.500000 0.688440
vt 0.525000 0.688440
vt 0.550000 0.688440
vt 0.575000 0.688440
vt 0.600000 0.688440
vt 0.625000 0.688440
vt 0.626409 0.751909
vt 0.548284 0.695147
vt 0.451716 0.695147
vt 0.373591 0.751909
vt 0.343750 0.843750
vt 0.373591 0.935591
vt 0.451716 0.992353
vt 0.548284 0.992353
vt 0.626409 0.935591
vt 0.656250 0.843750
vt 0.500000 0.837500
vn 0.194265 0.948572 -0.249945
vn 0.194265 0.948572 -0.249945
vn 0.194265 0.948572 -0.249945
vn 0.194265 0.948572 -0.249945
vn 0.000387 0.961373 -0.275250
vn 0.000387 0.961373 -0.275250
vn 0.000387 0.961373 -0.275250
vn 0.000387 0.961373 -0.275250
vn -0.172151 0.958479 -0.227335
vn -0.172151 0.958479 -0.227335
vn -0.172151 0.958479 -0.227335
vn -0.172151 0.958479 -0.227335
vn -0.362002 0.927199 -0.096208
vn -0.362002 0.927199 -0.096208
vn -0.362002 0.927199 -0.096208
vn -0.362002 0.927199 -0.096208
vn -0.334547 0.939522 0.073326
vn -0.334547 0.939522 0.073326
vn -0.334547 0.939522 0.073326
vn -0.334547 0.939522 0.073326
vn -0.163787 0.958297 0.234182
vn -0.163787 0.958297 0.234182
vn -0.163787 0.958297 0.234182
vn -0.163787 0.958297 0.234182
vn 0.000000 0.961188 0.275894
vn 0.000000 0.961188 0.275894
vn 0.000000 0.961188 0.275894
vn 0.000000 0.961188 0.275894
vn 0.149123 0.962521 0.226530
vn 0.149123 0.962521 0.226530
vn 0.149123 0.962521 0.226530
vn 0.149123 0.962521 0.226530
vn 0.338496 0.937845 0.076599
vn 0.338496 0.937845 0.076599
vn 0.338496 0.937845 0.076599
vn 0.338496 0.937845 0.076599
vn 0.387435 0.914356 -0.117675
vn 0.387435 0.914356 -0.117675
vn 0.387435 0.914356 -0.117675
vn 0.387435 0.914356 -0.117675
vn 0.000000 1.000000 0.000000
vn 0.000000 1.000000 0.000000
vn 0.000000 1.000000 0.000000
vn 0.000000 1.000000 0.000000
vn 0.000000 1.000000 -0.000000
vn 0.000000 1.000000 0.000000
vn 0.000000 1.000000 0.000000
vn 0.000000 1.000000 0.000000
vn 0.000000 1.000000 0.000000
vn 0.000000 1.000000 -0.000000
vn 0.000000 1.000000 -0.000000
s off
g pCylinder1
usemtl lambert2SG
f 1/1/1 2/2/2 12/13/3 11/12/4
f 2/2/5 3/3/6 13/14/7 12/13/8
f 3/3/9 4/4/10 14/15/11 13/14/12
f 4/4/13 5/5/14 15/16/15 14/15/16
f 5/5/17 6/6/18 16/17/19 15/16/20
f 6/6/21 7/7/22 17/18/23 16/17/24
f 7/7/25 8/8/26 18/19/27 17/18/28
f 8/8/29 9/9/30 19/20/31 18/19/32
f 9/9/33 10/10/34 20/21/35 19/20/36
f 10/10/37 1/11/38 11/22/39 20/21/40
s 1
f 11/31/41 12/30/42 21/33/43
f 12/30/42 13/29/44 21/33/43
f 13/29/44 14/28/45 21/33/43
f 14/28/45 15/27/46 21/33/43
f 15/27/46 16/26/47 21/33/43
f 16/26/47 17/25/48 21/33/43
f 17/25/48 18/24/49 21/33/43
f 18/24/49 19/23/50 21/33/43
f 19/23/50 20/32/51 21/33/43
f 20/32/51 11/31/41 21/33/43
