# This file uses centimeters as units for non-parametric coordinates.

mtllib StairsCOL.mtl
g default
v -4.609087 0.000000 11.692462
v 4.609087 0.000000 11.692462
v -4.609087 0.536223 11.692462
v 4.609087 0.536223 11.692462
v -4.609087 7.167921 -0.843140
v 4.609087 7.167921 -0.843140
v -4.609087 0.000000 0.013700
v 4.609087 0.000000 0.013700
v -4.609087 0.000000 7.104251
v -4.609087 3.444400 7.123656
v 4.609087 3.444400 7.123656
v 4.609087 0.000000 7.104251
v -4.609087 0.000000 4.120454
v -4.609087 5.472373 4.102368
v 4.609087 5.472373 4.102368
v 4.609087 0.000000 4.120454
v -4.609087 0.000000 2.067077
v -4.609087 7.191724 1.365881
v 4.609087 7.191724 1.365881
v 4.609087 0.000000 2.067077
v -4.609087 0.000000 9.287569
v -4.609087 2.003380 9.347146
v 4.609087 2.003380 9.347146
v 4.609087 0.000000 9.287569
vt 0.375000 0.000000
vt 0.625000 0.000000
vt 0.375000 0.250000
vt 0.625000 0.250000
vt 0.375000 0.500000
vt 0.625000 0.500000
vt 0.375000 0.750000
vt 0.625000 0.750000
vt 0.875000 0.000000
vt 0.875000 0.250000
vt 0.125000 0.000000
vt 0.125000 0.250000
vt 0.291667 0.000000
vt 0.291667 0.250000
vt 0.375000 0.333333
vt 0.625000 0.333333
vt 0.708333 0.250000
vt 0.708333 0.000000
vt 0.208333 0.000000
vt 0.208333 0.250000
vt 0.375000 0.416667
vt 0.625000 0.416667
vt 0.791667 0.250000
vt 0.791667 0.000000
vt 0.166667 0.000000
vt 0.166667 0.250000
vt 0.375000 0.458333
vt 0.625000 0.458333
vt 0.833333 0.250000
vt 0.833333 0.000000
vt 0.333333 0.000000
vt 0.333333 0.250000
vt 0.375000 0.291667
vt 0.625000 0.291667
vt 0.666667 0.250000
vt 0.666667 0.000000
vn 0.000000 0.000000 1.000000
vn 0.000000 0.000000 1.000000
vn 0.000000 0.000000 1.000000
vn 0.000000 0.000000 1.000000
vn 0.000000 0.945949 0.324315
vn 0.000000 0.945949 0.324315
vn 0.000000 0.999942 -0.010775
vn 0.000000 0.999942 -0.010775
vn 0.000000 -0.118693 -0.992931
vn 0.000000 -0.118693 -0.992931
vn 0.000000 -0.118693 -0.992931
vn 0.000000 -0.118693 -0.992931
vn 1.000000 0.000000 0.000000
vn 1.000000 0.000000 0.000000
vn 1.000000 0.000000 0.000000
vn 1.000000 0.000000 0.000000
vn -1.000000 0.000000 0.000000
vn -1.000000 0.000000 0.000000
vn -1.000000 0.000000 0.000000
vn -1.000000 0.000000 0.000000
vn -1.000000 -0.000000 0.000000
vn -1.000000 0.000000 0.000000
vn -1.000000 0.000000 0.000000
vn -1.000000 -0.000000 0.000000
vn 0.000000 0.843598 0.536975
vn 0.000000 0.843598 0.536975
vn 0.000000 0.834065 0.551666
vn 0.000000 0.834065 0.551666
vn 1.000000 0.000000 0.000000
vn 1.000000 -0.000000 0.000000
vn 1.000000 -0.000000 0.000000
vn 1.000000 0.000000 0.000000
vn -1.000000 -0.000000 0.000000
vn -1.000000 -0.000000 0.000000
vn 0.000000 0.838126 0.545476
vn 0.000000 0.838126 0.545476
vn 1.000000 -0.000000 0.000000
vn 1.000000 0.000000 0.000000
vn -1.000000 0.000000 0.000000
vn -1.000000 0.000000 0.000000
vn 0.000000 0.847781 0.530346
vn 0.000000 0.847781 0.530346
vn 1.000000 0.000000 0.000000
vn 1.000000 0.000000 0.000000
s off
g pCube1
usemtl lambert2SG
f 1/1/1 2/2/2 4/4/3 3/3/4
s 1
f 18/27/5 19/28/6 6/6/7 5/5/8
s off
f 5/5/9 6/6/10 8/8/11 7/7/12
s 2
f 20/30/13 8/9/14 6/10/15 19/29/16
s 3
f 7/11/17 17/25/18 18/26/19 5/12/20
f 9/13/21 21/31/22 22/32/23 10/14/24
s 1
f 22/33/25 23/34/26 11/16/27 10/15/28
s 2
f 24/36/29 12/18/30 11/17/31 23/35/32
s 3
f 13/19/33 9/13/21 10/14/24 14/20/34
s 1
f 10/15/28 11/16/27 15/22/35 14/21/36
s 2
f 12/18/30 16/24/37 15/23/38 11/17/31
s 3
f 17/25/18 13/19/33 14/20/34 18/26/19
s 1
f 14/21/36 15/22/35 19/28/6 18/27/5
s 2
f 16/24/37 20/30/13 19/29/16 15/23/38
s 3
f 21/31/22 1/1/39 3/3/40 22/32/23
s 1
f 3/3/41 4/4/42 23/34/26 22/33/25
s 2
f 2/2/43 24/36/29 23/35/32 4/4/44
