# This file uses centimeters as units for non-parametric coordinates.

mtllib Stool.mtl
g default
v 1.583009 2.363475 0.892698
v 0.976530 2.381815 1.999623
v 0.228923 2.379214 2.236392
v -0.901585 2.355422 1.683413
v -1.824372 2.513154 1.187593
v -1.879798 2.486628 0.141876
v -1.818616 2.603653 -0.854986
v -1.035480 2.590552 -1.480709
v -0.227025 2.771842 -2.236392
v 0.792755 2.563272 -1.577178
v 1.417019 2.496091 -0.880389
v 1.960515 2.435384 -0.048557
v 1.260237 2.344034 1.245970
v -0.437420 2.338707 1.785814
v -1.965088 2.548717 0.736835
v -1.475982 2.483114 1.507604
v 0.151029 2.755738 -2.135993
v -0.593435 2.769378 -2.093192
v -1.535554 2.636750 -1.126163
v -1.884929 2.558292 -0.474122
v 1.035904 3.036824 1.850261
v 0.271330 3.075914 2.116210
v 1.214818 3.051790 1.391783
v -0.128244 3.121647 1.839351
v -1.587600 3.265459 1.209727
v -0.742526 3.172899 1.726863
v -1.359512 3.236210 1.419436
v -1.680506 3.290303 0.911856
v -0.148207 3.353496 -1.947028
v 0.812863 3.253495 -1.445406
v 0.108661 3.330614 -1.876152
v -0.399651 3.365794 -1.850424
v -0.941611 3.372602 -1.318439
v -1.719703 3.332612 0.263136
v -1.638566 3.384449 -0.685140
v -1.453636 3.382098 -0.866196
v -1.679934 3.372269 -0.435834
v 1.902645 3.086323 0.007111
v 1.622415 3.051549 0.911522
v 1.451407 3.168697 -0.810475
v 1.254387 2.986196 1.420272
v 1.667391 2.987689 0.936032
v 1.965087 3.026413 -0.000263
v 1.491413 3.108453 -0.844984
v 0.833920 3.193322 -1.505484
v 0.112950 3.282115 -1.961185
v -0.162758 3.304838 -2.036901
v -0.432321 3.316068 -1.933123
v -0.982605 3.306601 -1.377193
v -1.509781 3.319523 -0.919265
v -1.709238 3.318787 -0.724512
v -1.754118 3.303441 -0.455690
v -1.791179 3.260193 0.258072
v -1.761743 3.226298 0.922572
v -1.661670 3.200031 1.243387
v -1.415731 3.170149 1.469480
v -0.782981 3.099934 1.775008
v -0.162521 3.050750 1.890164
v 0.273275 3.011759 2.191137
v 1.060550 2.975604 1.919346
v 0.266453 2.488757 -0.483631
v 0.319245 2.528425 -0.634170
v 0.668929 0.039434 -1.227385
v 0.580855 -0.026745 -0.976237
v 0.464725 2.568093 -0.699630
v 0.911632 0.105612 -1.336590
v 0.617671 2.584524 -0.641665
v 1.166794 0.133024 -1.239885
v 0.688492 2.568093 -0.494228
v 1.284945 0.105612 -0.993917
v 0.635700 2.528425 -0.343689
v 1.196873 0.039434 -0.742773
v 0.490221 2.488757 -0.278229
v 0.954166 -0.026745 -0.633564
v 0.337274 2.472326 -0.336195
v 0.699004 -0.054157 -0.730269
v 0.946622 -0.035555 -1.000028
v 0.516309 2.488525 0.792520
v 0.640160 2.528425 0.892980
v 1.082327 0.040501 1.425882
v 0.875705 -0.026064 1.258284
v 0.652635 2.568325 1.051962
v 1.103137 0.107066 1.691109
v 0.546426 2.584851 1.176337
v 0.925948 0.134638 1.898607
v 0.383749 2.568325 1.193249
v 0.654554 0.107066 1.926821
v 0.259900 2.528425 1.092790
v 0.447935 0.040501 1.759228
v 0.247424 2.488525 0.933809
v 0.427122 -0.026064 1.493994
v 0.353634 2.471999 0.809434
v 0.604311 -0.053636 1.286499
v 0.774624 -0.034455 1.610622
v -0.929330 2.574958 0.063519
v -0.784762 2.528424 0.000612
v -1.574830 0.073948 -0.142928
v -1.816017 0.151584 -0.037978
v -0.640193 2.481888 0.063519
v -1.333650 -0.003685 -0.037978
v -0.580312 2.462614 0.215393
v -1.233748 -0.035842 0.215393
v -0.640193 2.481888 0.367266
v -1.333650 -0.003685 0.468763
v -0.784762 2.528424 0.430173
v -1.574830 0.073948 0.573713
v -0.929330 2.574958 0.367266
v -1.816017 0.151584 0.468763
v -0.989211 2.594234 0.215393
v -1.915918 0.183741 0.215393
v -1.598634 0.000000 0.215393
vt 0.239223 0.587045
vt 0.218805 0.585847
vt 0.224865 0.565766
vt 0.239558 0.567296
vt 0.269992 0.587682
vt 0.271176 0.569261
vt 0.300282 0.590141
vt 0.302198 0.570884
vt 0.329757 0.591798
vt 0.331425 0.572017
vt 0.357961 0.576757
vt 0.356575 0.593857
vt 0.365374 0.594832
vt 0.369685 0.577996
vt 0.381013 0.581075
vt 0.373744 0.597350
vt 0.202038 0.583903
vt 0.176391 0.582764
vt 0.176470 0.563230
vt 0.200236 0.565402
vt 0.355539 0.596256
vt 0.329086 0.594117
vt 0.202666 0.586229
vt 0.176032 0.585250
vt 0.075761 0.589244
vt 0.076399 0.592221
vt 0.054800 0.596515
vt 0.054026 0.593819
vt 0.049994 0.570760
vt 0.068737 0.565669
vt 0.087800 0.564575
vt 0.096288 0.585923
vt 0.102747 0.562835
vt 0.106703 0.584720
vt 0.117775 0.562687
vt 0.117180 0.584417
vt 0.139474 0.584105
vt 0.136948 0.560368
vt 0.151747 0.560998
vt 0.159717 0.583978
vt 0.117615 0.587066
vt 0.107101 0.587542
vt 0.269970 0.589852
vt 0.239235 0.589116
vt 0.373319 0.600031
vt 0.364594 0.597506
vt 0.300165 0.592226
vt 0.628965 0.831665
vt 0.622646 0.762313
vt 0.630700 0.793238
vt 0.631361 0.822524
vt 0.395385 0.606620
vt 0.403662 0.586438
vt 0.394476 0.609446
vt 0.595673 0.844750
vt 0.621549 0.837645
vt 0.038480 0.574417
vt 0.045933 0.595631
vt 0.096729 0.588762
vt 0.046720 0.598347
vt 0.563947 0.854800
vt 0.555593 0.851617
vt 0.533537 0.840329
vt 0.514411 0.827533
vt 0.027446 0.579322
vt 0.037977 0.598376
vt 0.017889 0.605135
vt 0.009548 0.584727
vt 0.160104 0.586701
vt 0.140018 0.586713
vt 0.504607 0.808616
vt 0.506168 0.784206
vt 0.506962 0.819358
vt 0.038896 0.600918
vt 0.019099 0.607810
vt 0.218696 0.588237
vt 0.513640 0.763364
vt 0.512278 0.746167
vt 0.533979 0.727486
vt 0.551162 0.730196
vt 0.573072 0.726288
vt 0.605678 0.733867
vt 0.572763 0.852365
vt 0.530636 0.728208
vt 0.511771 0.745135
vt 0.513404 0.771119
vt 0.556300 0.732713
vt 0.535593 0.839143
vt 0.507780 0.785435
vt 0.517709 0.831270
vt 0.504194 0.804943
vt 0.507428 0.819927
vt 0.618213 0.763384
vt 0.603930 0.734548
vt 0.571452 0.729540
vt 0.576893 0.850328
vt 0.594750 0.841612
vt 0.564647 0.853726
vt 0.619777 0.839814
vt 0.629736 0.831911
vt 0.633065 0.819702
vt 0.628648 0.791852
vt 0.552846 0.849282
vt 0.804854 0.218944
vt 0.804595 0.214270
vt 0.888378 0.208870
vt 0.888722 0.215084
vt 0.804251 0.251680
vt 0.804595 0.247012
vt 0.888379 0.252426
vt 0.887922 0.258633
vt 0.804854 0.242339
vt 0.888723 0.246212
vt 0.805028 0.237662
vt 0.888951 0.239973
vt 0.805114 0.232981
vt 0.889066 0.233751
vt 0.805114 0.228300
vt 0.889067 0.227526
vt 0.805027 0.223620
vt 0.888952 0.221304
vt 0.903877 0.246769
vt 0.899278 0.251048
vt 0.896417 0.243362
vt 0.892999 0.250816
vt 0.893537 0.235683
vt 0.899815 0.235897
vt 0.904099 0.240491
vt 0.804854 0.218944
vt 0.804595 0.214270
vt 0.888378 0.208870
vt 0.888722 0.215084
vt 0.804251 0.251680
vt 0.804595 0.247012
vt 0.888379 0.252426
vt 0.887922 0.258633
vt 0.804854 0.242339
vt 0.888723 0.246212
vt 0.805028 0.237662
vt 0.888951 0.239973
vt 0.805114 0.232981
vt 0.889066 0.233751
vt 0.805114 0.228300
vt 0.889067 0.227526
vt 0.805027 0.223620
vt 0.888952 0.221304
vt 0.903877 0.246769
vt 0.899278 0.251048
vt 0.896417 0.243362
vt 0.892999 0.250816
vt 0.893537 0.235683
vt 0.899815 0.235897
vt 0.904099 0.240491
vt 0.804854 0.218944
vt 0.804595 0.214270
vt 0.888378 0.208870
vt 0.888722 0.215084
vt 0.804251 0.251680
vt 0.804595 0.247012
vt 0.888379 0.252426
vt 0.887922 0.258633
vt 0.804854 0.242339
vt 0.888723 0.246212
vt 0.805028 0.237662
vt 0.888951 0.239973
vt 0.805114 0.232981
vt 0.889066 0.233751
vt 0.805114 0.228300
vt 0.889067 0.227526
vt 0.805027 0.223620
vt 0.888952 0.221304
vt 0.903877 0.246769
vt 0.899278 0.251048
vt 0.896417 0.243362
vt 0.892999 0.250816
vt 0.893537 0.235683
vt 0.899815 0.235897
vt 0.904099 0.240491
vn 0.856241 0.152123 0.493669
vn 0.847890 0.140184 0.511303
vn 0.844394 -0.054834 0.532910
vn 0.834514 -0.026537 0.550347
vn 0.969350 0.231359 -0.082666
vn 0.856241 0.152123 0.493669
vn 0.834514 -0.026537 0.550347
vn 0.995797 0.062731 -0.066733
vn 0.785324 0.244649 -0.568694
vn 0.969350 0.231359 -0.082666
vn 0.995797 0.062731 -0.066733
vn 0.779221 0.056456 -0.624201
vn 0.637454 0.330266 -0.696116
vn 0.785324 0.244649 -0.568694
vn 0.779221 0.056456 -0.624201
vn 0.715154 0.103026 -0.691332
vn 0.479798 0.239055 -0.844184
vn 0.412259 0.489176 -0.768602
vn 0.637454 0.330266 -0.696116
vn 0.715154 0.103026 -0.691332
vn -0.007098 0.595587 -0.803259
vn 0.412259 0.489176 -0.768602
vn 0.479798 0.239055 -0.844184
vn -0.026701 0.342116 -0.939278
vn -0.592003 0.325317 -0.737361
vn -0.477786 0.550403 -0.684673
vn -0.007098 0.595587 -0.803259
vn -0.026701 0.342116 -0.939278
vn 0.678150 0.273812 0.682011
vn -0.116337 0.358987 0.926064
vn -0.144430 0.119685 0.982250
vn 0.676739 0.012215 0.736121
vn 0.844394 -0.054834 0.532910
vn 0.847890 0.140184 0.511303
vn 0.678150 0.273812 0.682011
vn 0.676739 0.012215 0.736121
vn 0.637454 0.330266 -0.696116
vn 0.412259 0.489176 -0.768602
vn 0.350240 0.697491 -0.625170
vn 0.559603 0.560742 -0.610257
vn 0.678150 0.273812 0.682011
vn 0.612026 0.528572 0.588248
vn -0.087904 0.593139 0.800287
vn -0.116337 0.358987 0.926064
vn -0.920031 0.391844 0.001438
vn -0.808177 0.588043 0.032478
vn -0.806346 0.588836 -0.055481
vn -0.920192 0.385136 -0.070121
vn -0.920031 0.391844 0.001438
vn -0.920192 0.385136 -0.070121
vn -0.969877 0.235220 -0.063331
vn -0.967645 0.245064 -0.060065
vn -0.955728 0.287482 0.062759
vn -0.889181 0.429082 0.158889
vn -0.920031 0.391844 0.001438
vn -0.967645 0.245064 -0.060065
vn -0.809138 0.254686 0.529558
vn -0.751915 0.405477 0.519820
vn -0.889181 0.429082 0.158889
vn -0.955728 0.287482 0.062759
vn -0.462232 0.145077 0.874811
vn -0.493596 0.312448 0.811628
vn -0.751915 0.405477 0.519820
vn -0.809138 0.254686 0.529558
vn -0.271121 0.214461 0.938350
vn -0.493596 0.312448 0.811628
vn -0.462232 0.145077 0.874811
vn -0.233414 0.052983 0.970933
vn -0.395522 0.087077 0.914319
vn -0.354589 0.243537 0.902749
vn -0.271121 0.214461 0.938350
vn -0.233414 0.052983 0.970933
vn -0.144430 0.119685 0.982250
vn -0.116337 0.358987 0.926064
vn -0.354589 0.243537 0.902749
vn -0.395522 0.087077 0.914319
vn -0.493596 0.312448 0.811628
vn -0.427085 0.545539 0.721100
vn -0.625351 0.627532 0.463832
vn -0.751915 0.405477 0.519820
vn 0.867290 0.494711 -0.055395
vn 0.788836 0.419739 0.448951
vn 0.856241 0.152123 0.493669
vn 0.969350 0.231359 -0.082666
vn -0.477786 0.550403 -0.684673
vn -0.361531 0.742872 -0.563416
vn 0.021908 0.787549 -0.615862
vn -0.007098 0.595587 -0.803259
vn 0.021908 0.787549 -0.615862
vn 0.350240 0.697491 -0.625170
vn 0.412259 0.489176 -0.768602
vn -0.007098 0.595587 -0.803259
vn 0.785324 0.244649 -0.568694
vn 0.721955 0.487117 -0.491424
vn 0.867290 0.494711 -0.055395
vn 0.969350 0.231359 -0.082666
vn 0.559603 0.560742 -0.610257
vn 0.721955 0.487117 -0.491424
vn 0.785324 0.244649 -0.568694
vn 0.637454 0.330266 -0.696116
vn 0.071028 0.995681 0.059790
vn 0.071028 0.995681 0.059790
vn 0.071028 0.995681 0.059790
vn 0.071028 0.995681 0.059790
vn -0.616368 0.453419 -0.643818
vn -0.477786 0.550403 -0.684673
vn -0.592003 0.325317 -0.737361
vn -0.682849 0.263978 -0.681199
vn -0.616368 0.453419 -0.643818
vn -0.515549 0.648977 -0.559498
vn -0.361531 0.742872 -0.563416
vn -0.477786 0.550403 -0.684673
vn 0.071029 0.995681 0.059789
vn 0.071029 0.995681 0.059789
vn 0.071029 0.995681 0.059789
vn 0.071029 0.995681 0.059789
vn -0.850589 0.279843 -0.445182
vn -0.969877 0.235220 -0.063331
vn -0.920192 0.385136 -0.070121
vn -0.800844 0.445369 -0.400370
vn -0.889181 0.429082 0.158889
vn -0.758590 0.627031 0.177126
vn -0.808177 0.588043 0.032478
vn -0.920031 0.391844 0.001438
vn -0.751915 0.405477 0.519820
vn -0.625351 0.627532 0.463832
vn -0.758590 0.627031 0.177126
vn -0.889181 0.429082 0.158889
vn -0.920192 0.385136 -0.070121
vn -0.806346 0.588836 -0.055481
vn -0.685018 0.646594 -0.335658
vn -0.800844 0.445369 -0.400370
vn 0.071029 0.995681 0.059788
vn 0.071029 0.995681 0.059788
vn 0.071029 0.995681 0.059788
vn 0.071029 0.995681 0.059788
vn -0.601886 0.270055 -0.751534
vn -0.598348 0.437621 -0.671168
vn -0.616368 0.453419 -0.643818
vn -0.682849 0.263978 -0.681199
vn -0.850589 0.279843 -0.445182
vn -0.800844 0.445369 -0.400370
vn -0.598348 0.437621 -0.671168
vn -0.601886 0.270055 -0.751534
vn -0.354589 0.243537 0.902749
vn -0.299856 0.462242 0.834517
vn -0.239295 0.449464 0.860651
vn -0.271121 0.214461 0.938350
vn -0.087904 0.593139 0.800287
vn -0.299856 0.462242 0.834517
vn -0.354589 0.243537 0.902749
vn -0.116337 0.358987 0.926064
vn -0.271121 0.214461 0.938350
vn -0.239295 0.449464 0.860651
vn -0.427085 0.545539 0.721100
vn -0.493596 0.312448 0.811628
vn 0.071029 0.995681 0.059789
vn 0.071029 0.995681 0.059789
vn 0.071029 0.995681 0.059789
vn 0.071029 0.995681 0.059789
vn -0.598348 0.437621 -0.671168
vn -0.521793 0.632038 -0.572940
vn -0.515549 0.648977 -0.559498
vn -0.616368 0.453419 -0.643818
vn 0.612026 0.528572 0.588248
vn 0.678150 0.273812 0.682011
vn 0.847890 0.140184 0.511303
vn 0.786571 0.393221 0.476113
vn -0.685018 0.646594 -0.335658
vn -0.521793 0.632038 -0.572940
vn -0.598348 0.437621 -0.671168
vn -0.800844 0.445369 -0.400370
vn 0.788836 0.419739 0.448951
vn 0.786571 0.393221 0.476113
vn 0.847890 0.140184 0.511303
vn 0.856241 0.152123 0.493669
vn 0.071029 0.995681 0.059790
vn 0.071029 0.995681 0.059790
vn 0.071029 0.995681 0.059790
vn 0.071029 0.995681 0.059790
vn 0.071029 0.995681 0.059788
vn 0.071029 0.995681 0.059788
vn 0.071029 0.995681 0.059788
vn 0.071029 0.995681 0.059788
vn 0.071029 0.995681 0.059788
vn 0.071029 0.995681 0.059788
vn 0.071029 0.995681 0.059788
vn 0.071029 0.995681 0.059788
vn 0.071029 0.995681 0.059789
vn 0.071029 0.995681 0.059789
vn 0.071029 0.995681 0.059789
vn 0.071029 0.995681 0.059789
vn 0.071029 0.995681 0.059789
vn 0.071029 0.995681 0.059789
vn 0.071029 0.995681 0.059789
vn 0.071029 0.995681 0.059789
vn 0.021658 -0.998081 0.058004
vn 0.021658 -0.998081 0.058004
vn -0.021040 -0.997049 -0.073825
vn -0.025190 -0.997755 -0.062046
vn -0.010459 -0.996111 -0.087486
vn -0.021040 -0.997049 -0.073825
vn -0.141345 -0.989946 0.005434
vn -0.142679 -0.989749 0.006298
vn -0.142679 -0.989749 0.006298
vn -0.141345 -0.989946 0.005434
vn -0.186519 -0.981835 0.034791
vn -0.186519 -0.981835 0.034791
vn -0.025190 -0.997755 -0.062046
vn -0.037850 -0.996937 -0.068440
vn -0.006644 -0.997239 -0.073965
vn -0.006644 -0.997239 -0.073965
vn -0.025190 -0.997755 -0.062046
vn -0.030512 -0.996678 -0.075510
vn -0.035734 -0.996093 -0.080754
vn -0.037850 -0.996937 -0.068440
vn -0.025190 -0.997755 -0.062046
vn -0.021040 -0.997049 -0.073825
vn -0.015711 -0.995246 -0.096123
vn -0.030512 -0.996678 -0.075510
vn -0.037850 -0.996937 -0.068440
vn -0.035734 -0.996093 -0.080754
vn 0.005200 -0.973643 -0.228016
vn -0.002172 -0.975448 -0.220218
vn -0.037850 -0.996937 -0.068440
vn -0.002172 -0.975448 -0.220218
vn -0.199375 -0.979922 -0.001616
vn -0.199374 -0.979922 -0.001616
vn -0.015711 -0.995246 -0.096123
vn -0.021040 -0.997049 -0.073825
vn -0.010459 -0.996111 -0.087486
vn 0.028617 -0.992975 -0.114811
vn -0.990786 -0.130752 0.035326
vn -0.745370 0.053653 -0.664489
vn -0.734748 -0.010387 -0.678260
vn -0.980530 -0.195066 0.022597
vn -0.745370 0.053653 -0.664489
vn -0.069075 0.238057 -0.968792
vn -0.057446 0.174293 -0.983017
vn -0.734748 -0.010387 -0.678260
vn -0.069075 0.238057 -0.968792
vn 0.641929 0.314440 -0.699325
vn 0.654618 0.250789 -0.713148
vn -0.057446 0.174293 -0.983017
vn 0.641929 0.314440 -0.699325
vn 0.971151 0.238057 -0.013941
vn 0.984331 0.174293 -0.026743
vn 0.654618 0.250789 -0.713148
vn 0.971151 0.238057 -0.013941
vn 0.725736 0.053652 0.685879
vn 0.738550 -0.010388 0.674119
vn 0.984331 0.174293 -0.026743
vn 0.725736 0.053652 0.685879
vn 0.049446 -0.130752 0.990181
vn 0.061251 -0.195067 0.978876
vn 0.738550 -0.010388 0.674119
vn 0.049446 -0.130752 0.990181
vn -0.661563 -0.207135 0.720715
vn -0.650816 -0.271564 0.709007
vn 0.061251 -0.195067 0.978876
vn -0.661563 -0.207135 0.720715
vn -0.990786 -0.130752 0.035326
vn -0.980530 -0.195066 0.022597
vn -0.650816 -0.271564 0.709007
vn -0.980530 -0.195066 0.022597
vn -0.734748 -0.010387 -0.678260
vn 0.176626 -0.965287 -0.192418
vn -0.734748 -0.010387 -0.678260
vn -0.057446 0.174293 -0.983017
vn 0.176626 -0.965287 -0.192418
vn -0.057446 0.174293 -0.983017
vn 0.654618 0.250789 -0.713148
vn 0.176626 -0.965287 -0.192418
vn 0.654618 0.250789 -0.713148
vn 0.984331 0.174293 -0.026743
vn 0.176626 -0.965287 -0.192418
vn 0.984331 0.174293 -0.026743
vn 0.738550 -0.010388 0.674119
vn 0.176626 -0.965287 -0.192418
vn 0.738550 -0.010388 0.674119
vn 0.061251 -0.195067 0.978876
vn 0.176626 -0.965287 -0.192418
vn 0.061251 -0.195067 0.978876
vn -0.650816 -0.271564 0.709007
vn 0.176626 -0.965287 -0.192418
vn -0.650816 -0.271564 0.709007
vn -0.980530 -0.195066 0.022597
vn 0.176626 -0.965287 -0.192418
vn 0.301329 -0.131851 -0.944360
vn 0.877070 0.053629 -0.477359
vn 0.886494 -0.010383 -0.462623
vn 0.309895 -0.196140 -0.930319
vn 0.877070 0.053629 -0.477359
vn 0.935060 0.239111 0.261704
vn 0.944571 0.175376 0.277542
vn 0.886494 -0.010383 -0.462623
vn 0.935060 0.239111 0.261704
vn 0.441326 0.315939 0.839889
vn 0.450101 0.252319 0.856589
vn 0.944571 0.175376 0.277542
vn 0.441326 0.315939 0.839889
vn -0.314908 0.239111 0.918509
vn -0.307261 0.175376 0.935326
vn 0.450101 0.252319 0.856589
vn -0.314908 0.239111 0.918509
vn -0.890655 0.053629 0.451506
vn -0.883865 -0.010383 0.467627
vn -0.307261 0.175376 0.935326
vn -0.890655 0.053629 0.451506
vn -0.948646 -0.131852 -0.287552
vn -0.941942 -0.196141 -0.272533
vn -0.883865 -0.010383 0.467627
vn -0.948646 -0.131852 -0.287552
vn -0.454910 -0.208681 -0.865742
vn -0.447470 -0.273084 -0.851584
vn -0.941942 -0.196141 -0.272533
vn -0.454910 -0.208681 -0.865742
vn 0.301329 -0.131851 -0.944360
vn 0.309895 -0.196140 -0.930319
vn -0.447470 -0.273084 -0.851584
vn 0.309895 -0.196140 -0.930319
vn 0.886494 -0.010383 -0.462623
vn 0.122203 -0.964873 0.232566
vn 0.886494 -0.010383 -0.462623
vn 0.944571 0.175376 0.277542
vn 0.122203 -0.964873 0.232566
vn 0.944571 0.175376 0.277542
vn 0.450101 0.252319 0.856589
vn 0.122203 -0.964873 0.232566
vn 0.450101 0.252319 0.856589
vn -0.307261 0.175376 0.935326
vn 0.122203 -0.964873 0.232566
vn -0.307261 0.175376 0.935326
vn -0.883865 -0.010383 0.467627
vn 0.122203 -0.964873 0.232566
vn -0.883865 -0.010383 0.467627
vn -0.941942 -0.196141 -0.272533
vn 0.122203 -0.964873 0.232566
vn -0.941942 -0.196141 -0.272533
vn -0.447470 -0.273084 -0.851584
vn 0.122203 -0.964873 0.232566
vn -0.447470 -0.273084 -0.851584
vn 0.309895 -0.196140 -0.930319
vn 0.122203 -0.964873 0.232566
vn -0.655023 0.269236 -0.706015
vn 0.017031 0.052908 -0.998454
vn -0.003297 -0.010243 -0.999942
vn -0.676352 0.206406 -0.707067
vn 0.017031 0.052908 -0.998454
vn 0.689087 -0.163420 -0.706012
vn 0.669761 -0.226894 -0.707064
vn -0.003297 -0.010243 -0.999942
vn 0.689087 -0.163420 -0.706012
vn 0.967460 -0.253026 0.000000
vn 0.948548 -0.316632 0.000000
vn 0.669761 -0.226894 -0.707064
vn 0.967460 -0.253026 0.000000
vn 0.689087 -0.163420 0.706012
vn 0.669760 -0.226893 0.707065
vn 0.948548 -0.316632 0.000000
vn 0.689087 -0.163420 0.706012
vn 0.017031 0.052908 0.998454
vn -0.003297 -0.010243 0.999942
vn 0.669760 -0.226893 0.707065
vn 0.017031 0.052908 0.998454
vn -0.655022 0.269236 0.706016
vn -0.676352 0.206406 0.707068
vn -0.003297 -0.010243 0.999942
vn -0.655022 0.269236 0.706016
vn -0.933398 0.358842 0.000000
vn -0.955143 0.296146 0.000000
vn -0.676352 0.206406 0.707068
vn -0.933398 0.358842 0.000000
vn -0.655023 0.269236 -0.706015
vn -0.676352 0.206406 -0.707067
vn -0.955143 0.296146 0.000000
vn -0.676352 0.206406 -0.707067
vn -0.003297 -0.010243 -0.999942
vn -0.306406 -0.951901 0.000000
vn -0.003297 -0.010243 -0.999942
vn 0.669761 -0.226894 -0.707064
vn -0.306406 -0.951901 0.000000
vn 0.669761 -0.226894 -0.707064
vn 0.948548 -0.316632 0.000000
vn -0.306406 -0.951901 0.000000
vn 0.948548 -0.316632 0.000000
vn 0.669760 -0.226893 0.707065
vn -0.306406 -0.951901 0.000000
vn 0.669760 -0.226893 0.707065
vn -0.003297 -0.010243 0.999942
vn -0.306406 -0.951901 0.000000
vn -0.003297 -0.010243 0.999942
vn -0.676352 0.206406 0.707068
vn -0.306406 -0.951901 0.000000
vn -0.676352 0.206406 0.707068
vn -0.955143 0.296146 0.000000
vn -0.306406 -0.951901 0.000000
vn -0.955143 0.296146 0.000000
vn -0.676352 0.206406 -0.707067
vn -0.306406 -0.951901 0.000000
s off
g Tree02Stump1
usemtl blinn1SG
f 42/1/1 41/2/2 13/3/3 1/4/4
f 43/5/5 42/1/6 1/4/7 12/6/8
f 44/7/9 43/5/10 12/6/11 11/8/12
f 45/9/13 44/7/14 11/8/15 10/10/16
f 17/11/17 46/12/18 45/9/19 10/10/20
f 47/13/21 46/12/22 17/11/23 9/14/24
f 18/15/25 48/16/26 47/13/27 9/14/28
f 60/17/29 59/18/30 3/19/31 2/20/32
f 13/3/33 41/2/34 60/17/35 2/20/36
f 45/9/37 46/12/38 31/21/39 30/22/40
f 60/17/41 21/23/42 22/24/43 59/18/44
f 53/25/45 34/26/46 37/27/47 52/28/48
f 53/25/49 52/28/50 20/29/51 6/30/52
f 15/31/53 54/32/54 53/25/55 6/30/56
f 5/33/57 55/34/58 54/32/59 15/31/60
f 16/35/61 56/36/62 55/34/63 5/33/64
f 57/37/65 56/36/66 16/35/67 4/38/68
f 14/39/69 58/40/70 57/37/71 4/38/72
f 3/19/73 59/18/74 58/40/75 14/39/76
f 56/36/77 27/41/78 25/42/79 55/34/80
f 38/43/81 39/44/82 42/1/83 43/5/84
f 48/16/85 32/45/86 29/46/87 47/13/88
f 29/46/89 31/21/90 46/12/91 47/13/92
f 44/7/93 40/47/94 38/43/95 43/5/96
f 30/22/97 40/47/98 44/7/99 45/9/100
f 29/48/101 40/49/102 30/50/103 31/51/104
f 49/52/105 48/16/106 18/15/107 8/53/108
f 49/52/109 33/54/110 32/45/111 48/16/112
f 33/55/113 40/49/114 29/48/115 32/56/116
f 7/57/117 20/29/118 52/28/119 51/58/120
f 54/32/121 28/59/122 34/26/123 53/25/124
f 55/34/125 25/42/126 28/59/127 54/32/128
f 52/28/129 37/27/130 35/60/131 51/58/132
f 35/61/133 37/62/134 34/63/135 28/64/136
f 19/65/137 50/66/138 49/67/139 8/68/140
f 7/57/141 51/58/142 50/66/143 19/65/144
f 58/40/145 24/69/146 26/70/147 57/37/148
f 22/24/149 24/69/150 58/40/151 59/18/152
f 57/37/153 26/70/154 27/41/155 56/36/156
f 27/71/157 26/72/158 28/64/159 25/73/160
f 50/66/161 36/74/162 33/75/163 49/67/164
f 21/23/165 60/17/166 41/2/167 23/76/168
f 35/60/169 36/74/170 50/66/171 51/58/172
f 39/44/173 23/76/174 41/2/175 42/1/176
f 24/77/177 22/78/178 21/79/179 23/80/180
f 23/80/181 39/81/182 38/82/183 40/49/184
f 24/77/185 23/80/186 36/83/187 35/61/188
f 40/49/189 33/55/190 36/83/191 23/80/192
f 24/77/193 35/61/194 28/64/195 26/72/196
f 2/84/197 3/85/198 14/86/199 13/87/200
f 6/88/201 14/86/202 4/89/203 15/90/204
f 15/90/205 4/89/206 16/91/207 5/92/208
f 13/87/209 11/93/210 12/94/211 1/95/212
f 13/87/213 19/96/214 8/97/215 11/93/216
f 13/87/217 14/86/218 7/98/219 19/96/220
f 11/93/221 8/97/222 18/99/223 9/100/224
f 11/93/225 9/100/226 17/101/227 10/102/228
f 7/98/229 14/86/230 6/88/231 20/103/232
f 61/104/233 62/105/234 63/106/235 64/107/236
f 62/108/237 65/109/238 66/110/239 63/111/240
f 65/109/241 67/112/242 68/113/243 66/110/244
f 67/112/245 69/114/246 70/115/247 68/113/248
f 69/114/249 71/116/250 72/117/251 70/115/252
f 71/116/253 73/118/254 74/119/255 72/117/256
f 73/118/257 75/120/258 76/121/259 74/119/260
f 75/120/261 61/104/262 64/107/263 76/121/264
f 64/122/265 63/123/266 77/124/267
f 63/123/268 66/125/269 77/124/270
f 66/125/271 68/113/272 77/124/273
f 68/113/274 70/115/275 77/124/276
f 70/115/277 72/126/278 77/124/279
f 72/126/280 74/127/281 77/124/282
f 74/127/283 76/128/284 77/124/285
f 76/128/286 64/122/287 77/124/288
f 78/129/289 79/130/290 80/131/291 81/132/292
f 79/133/293 82/134/294 83/135/295 80/136/296
f 82/134/297 84/137/298 85/138/299 83/135/300
f 84/137/301 86/139/302 87/140/303 85/138/304
f 86/139/305 88/141/306 89/142/307 87/140/308
f 88/141/309 90/143/310 91/144/311 89/142/312
f 90/143/313 92/145/314 93/146/315 91/144/316
f 92/145/317 78/129/318 81/132/319 93/146/320
f 81/147/321 80/148/322 94/149/323
f 80/148/324 83/150/325 94/149/326
f 83/150/327 85/138/328 94/149/329
f 85/138/330 87/140/331 94/149/332
f 87/140/333 89/151/334 94/149/335
f 89/151/336 91/152/337 94/149/338
f 91/152/339 93/153/340 94/149/341
f 93/153/342 81/147/343 94/149/344
f 95/154/345 96/155/346 97/156/347 98/157/348
f 96/158/349 99/159/350 100/160/351 97/161/352
f 99/159/353 101/162/354 102/163/355 100/160/356
f 101/162/357 103/164/358 104/165/359 102/163/360
f 103/164/361 105/166/362 106/167/363 104/165/364
f 105/166/365 107/168/366 108/169/367 106/167/368
f 107/168/369 109/170/370 110/171/371 108/169/372
f 109/170/373 95/154/374 98/157/375 110/171/376
f 98/172/377 97/173/378 111/174/379
f 97/173/380 100/175/381 111/174/382
f 100/175/383 102/163/384 111/174/385
f 102/163/386 104/165/387 111/174/388
f 104/165/389 106/176/390 111/174/391
f 106/176/392 108/177/393 111/174/394
f 108/177/395 110/178/396 111/174/397
f 110/178/398 98/172/399 111/174/400
