# This file uses centimeters as units for non-parametric coordinates.

mtllib A_Hammer.mtl
g default
v 0.046010 0.138467 -2.010820
v -0.144669 0.138467 -2.010820
v -0.240009 0.000000 -2.010820
v -0.144670 -0.138467 -2.010820
v 0.046010 -0.138467 -2.010820
v 0.141349 0.000000 -2.010820
v 0.075345 0.181072 2.412618
v -0.174005 0.181073 2.412618
v -0.298680 0.000000 2.412618
v -0.174005 -0.181073 2.412618
v 0.075345 -0.181073 2.412618
v 0.200020 0.000000 2.412618
v -0.049330 0.000000 2.516057
v 0.116558 0.000000 -1.225853
v 0.033614 -0.120465 -1.225853
v -0.132274 -0.120465 -1.225853
v -0.215218 0.000000 -1.225853
v -0.132274 0.120465 -1.225853
v 0.033614 0.120465 -1.225853
v 0.169690 0.000000 0.125907
v 0.060180 -0.159048 0.125907
v -0.158840 -0.159048 0.125907
v -0.268350 0.000000 0.125907
v -0.158840 0.159048 0.125907
v 0.060180 0.159048 0.125907
v 0.164885 0.000000 1.532984
v 0.057777 -0.155558 1.532984
v -0.156437 -0.155558 1.532984
v -0.263544 0.000000 1.532984
v -0.156437 0.155558 1.532984
v 0.057777 0.155558 1.532984
v -0.678741 -0.240063 -2.051490
v -0.678741 -0.202062 -2.013490
v -0.716715 -0.201323 -2.052230
v 0.181524 -0.262505 -2.029293
v 0.181524 -0.224259 -1.991047
v -0.716715 0.201323 -2.052230
v -0.678741 0.202062 -2.013490
v -0.678741 0.240063 -2.051490
v 0.181524 0.262505 -2.029293
v 0.181524 0.224259 -1.991047
v -0.716715 0.201323 -2.454875
v -0.678741 0.240063 -2.455615
v -0.678741 0.202062 -2.493615
v 0.181524 0.262505 -2.477812
v 0.181524 0.224260 -2.516057
v -0.716715 -0.201323 -2.454875
v -0.678741 -0.202062 -2.493615
v -0.678741 -0.240063 -2.455615
v 0.181524 -0.224260 -2.516057
v 0.181524 -0.262505 -2.477812
v 0.682465 -0.123594 -2.145730
v 0.716715 -0.079871 -2.151589
v 0.681873 -0.086678 -2.109140
v 0.681873 0.086678 -2.109140
v 0.716715 0.079871 -2.151589
v 0.682465 0.123594 -2.145730
v 0.682629 0.123548 -2.319413
v 0.716715 0.080366 -2.311826
v 0.683239 0.087040 -2.356221
v 0.683239 -0.087040 -2.356221
v 0.716715 -0.080366 -2.311826
v 0.682629 -0.123548 -2.319413
vt 0.799675 0.165651
vt 0.802397 0.165663
vt 0.802139 0.177068
vt 0.799714 0.177089
vt 0.804803 0.165699
vt 0.804266 0.177038
vt 0.807211 0.165828
vt 0.806383 0.176975
vt 0.792135 0.165882
vt 0.794873 0.165734
vt 0.795446 0.177073
vt 0.793049 0.177024
vt 0.797276 0.165662
vt 0.797578 0.177092
vt 0.799894 0.229786
vt 0.803573 0.229720
vt 0.801780 0.232561
vt 0.805471 0.232458
vt 0.803725 0.235295
vt 0.799922 0.235355
vt 0.798086 0.232579
vt 0.797033 0.196651
vt 0.794275 0.196591
vt 0.791130 0.196478
vt 0.808435 0.196413
vt 0.805663 0.196543
vt 0.802903 0.196616
vt 0.799783 0.196655
vt 0.797111 0.216997
vt 0.794362 0.216946
vt 0.791264 0.216853
vt 0.808468 0.216769
vt 0.805739 0.216885
vt 0.802995 0.216961
vt 0.799868 0.217002
vt 0.796754 0.229764
vt 0.793608 0.229629
vt 0.790042 0.229373
vt 0.809859 0.229264
vt 0.806719 0.229564
vt 0.819170 0.215517
vt 0.819973 0.215765
vt 0.819658 0.221882
vt 0.818831 0.222290
vt 0.840281 0.221977
vt 0.841132 0.221897
vt 0.842452 0.235454
vt 0.841593 0.235454
vt 0.819831 0.214921
vt 0.826523 0.215264
vt 0.826262 0.216065
vt 0.841042 0.243834
vt 0.840222 0.243715
vt 0.827117 0.215926
vt 0.826731 0.222659
vt 0.825981 0.222156
vt 0.833057 0.222469
vt 0.833911 0.222428
vt 0.834600 0.235983
vt 0.833737 0.235923
vt 0.832961 0.244343
vt 0.832235 0.243893
vt 0.825904 0.222959
vt 0.819616 0.222684
vt 0.826728 0.236188
vt 0.825876 0.236317
vt 0.829407 0.244000
vt 0.828706 0.244489
vt 0.818772 0.236190
vt 0.817909 0.236255
vt 0.820657 0.244579
vt 0.819859 0.244769
vt 0.832224 0.247118
vt 0.832447 0.247969
vt 0.829501 0.248062
vt 0.829727 0.247238
vt 0.833040 0.247347
vt 0.832128 0.244718
vt 0.829539 0.244823
vt 0.828870 0.247486
vt 0.810716 0.235718
vt 0.812359 0.221579
vt 0.823416 0.244670
vt 0.814744 0.244545
vt 0.812028 0.244348
vt 0.837470 0.243964
vn 0.436461 0.899302 0.027517
vn -0.436461 0.899302 0.027517
vn -0.434700 0.900486 -0.012670
vn 0.434700 0.900486 -0.012670
vn -0.436461 0.899302 0.027517
vn -0.999502 0.000000 0.031566
vn -0.999894 0.000000 -0.014553
vn -0.434700 0.900486 -0.012670
vn -0.999502 0.000000 0.031566
vn -0.436461 -0.899302 0.027517
vn -0.434700 -0.900486 -0.012670
vn -0.999894 0.000000 -0.014553
vn -0.436461 -0.899302 0.027517
vn 0.436461 -0.899302 0.027517
vn 0.434700 -0.900486 -0.012670
vn -0.434700 -0.900486 -0.012670
vn 0.436461 -0.899302 0.027517
vn 0.999502 0.000000 0.031566
vn 0.999894 0.000000 -0.014553
vn 0.434700 -0.900486 -0.012670
vn 0.999502 0.000000 0.031566
vn 0.436461 0.899302 0.027517
vn 0.434700 0.900486 -0.012670
vn 0.999894 0.000000 -0.014553
vn 0.437957 0.897022 0.059548
vn -0.437957 0.897022 0.059548
vn 0.000000 0.000000 1.000000
vn -0.437957 0.897022 0.059548
vn -0.998320 0.000000 0.057948
vn 0.000000 0.000000 1.000000
vn -0.998320 0.000000 0.057948
vn -0.437957 -0.897022 0.059548
vn 0.000000 0.000000 1.000000
vn -0.437957 -0.897022 0.059548
vn 0.437957 -0.897022 0.059548
vn 0.000000 0.000000 1.000000
vn 0.437957 -0.897022 0.059548
vn 0.998320 0.000000 0.057948
vn 0.000000 0.000000 1.000000
vn 0.998320 0.000000 0.057948
vn 0.437957 0.897022 0.059548
vn 0.000000 0.000000 1.000000
vn 0.434700 -0.900486 -0.012670
vn 0.999894 0.000000 -0.014553
vn 0.999870 0.000000 -0.016117
vn 0.436255 -0.899713 -0.014081
vn -0.434700 -0.900486 -0.012670
vn 0.434700 -0.900486 -0.012670
vn 0.436255 -0.899713 -0.014081
vn -0.436256 -0.899713 -0.014081
vn -0.999894 0.000000 -0.014553
vn -0.434700 -0.900486 -0.012670
vn -0.436256 -0.899713 -0.014081
vn -0.999870 0.000000 -0.016117
vn -0.434700 0.900486 -0.012670
vn -0.999894 0.000000 -0.014553
vn -0.999870 0.000000 -0.016117
vn -0.436255 0.899713 -0.014081
vn 0.434700 0.900486 -0.012670
vn -0.434700 0.900486 -0.012670
vn -0.436255 0.899713 -0.014081
vn 0.436256 0.899713 -0.014081
vn 0.999894 0.000000 -0.014553
vn 0.434700 0.900486 -0.012670
vn 0.436256 0.899713 -0.014081
vn 0.999870 0.000000 -0.016117
vn 0.436255 -0.899713 -0.014081
vn 0.999870 0.000000 -0.016117
vn 0.999901 0.000000 -0.014098
vn 0.435210 -0.900246 -0.012252
vn -0.436256 -0.899713 -0.014081
vn 0.436255 -0.899713 -0.014081
vn 0.435210 -0.900246 -0.012252
vn -0.435210 -0.900246 -0.012252
vn -0.999870 0.000000 -0.016117
vn -0.436256 -0.899713 -0.014081
vn -0.435210 -0.900246 -0.012252
vn -0.999901 0.000000 -0.014098
vn -0.436255 0.899713 -0.014081
vn -0.999870 0.000000 -0.016117
vn -0.999901 0.000000 -0.014098
vn -0.435210 0.900246 -0.012252
vn 0.436256 0.899713 -0.014081
vn -0.436255 0.899713 -0.014081
vn -0.435210 0.900246 -0.012252
vn 0.435210 0.900246 -0.012252
vn 0.999870 0.000000 -0.016117
vn 0.436256 0.899713 -0.014081
vn 0.435210 0.900246 -0.012252
vn 0.999901 0.000000 -0.014098
vn 0.435210 -0.900246 -0.012252
vn 0.999901 0.000000 -0.014098
vn 0.998320 0.000000 0.057948
vn 0.437957 -0.897022 0.059548
vn -0.435210 -0.900246 -0.012252
vn 0.435210 -0.900246 -0.012252
vn 0.437957 -0.897022 0.059548
vn -0.437957 -0.897022 0.059548
vn -0.999901 0.000000 -0.014098
vn -0.435210 -0.900246 -0.012252
vn -0.437957 -0.897022 0.059548
vn -0.998320 0.000000 0.057948
vn -0.435210 0.900246 -0.012252
vn -0.999901 0.000000 -0.014098
vn -0.998320 0.000000 0.057948
vn -0.437957 0.897022 0.059548
vn 0.435210 0.900246 -0.012252
vn -0.435210 0.900246 -0.012252
vn -0.437957 0.897022 0.059548
vn 0.437957 0.897022 0.059548
vn 0.999901 0.000000 -0.014098
vn 0.435210 0.900246 -0.012252
vn 0.437957 0.897022 0.059548
vn 0.998320 0.000000 0.057948
vn -0.064757 -0.994801 0.078602
vn -0.993337 -0.081492 0.081492
vn -0.993337 -0.081492 -0.081492
vn -0.064757 -0.994801 -0.078602
vn -0.064758 -0.078603 0.994801
vn -0.064757 -0.994801 0.078602
vn 0.064515 -0.993541 0.093352
vn 0.053576 -0.094935 0.994041
vn -0.993337 -0.081492 0.081492
vn -0.064758 -0.078603 0.994801
vn -0.064758 0.078603 0.994801
vn -0.993337 0.081492 0.081492
vn 0.053576 -0.094935 0.994041
vn 0.064515 -0.993541 0.093352
vn 0.310267 -0.946249 0.091368
vn 0.276320 -0.087996 0.957029
vn -0.993337 0.081492 0.081492
vn -0.064757 0.994801 0.078602
vn -0.064757 0.994801 -0.078602
vn -0.993337 0.081492 -0.081492
vn -0.064757 0.994801 0.078602
vn -0.064758 0.078603 0.994801
vn 0.053576 0.094935 0.994041
vn 0.064515 0.993541 0.093352
vn 0.064515 0.993541 0.093352
vn 0.053576 0.094935 0.994041
vn 0.276320 0.087996 0.957029
vn 0.310267 0.946249 0.091368
vn -0.993337 0.081492 -0.081492
vn -0.064758 0.078602 -0.994801
vn -0.064758 -0.078602 -0.994801
vn -0.993337 -0.081492 -0.081492
vn -0.064758 0.078602 -0.994801
vn -0.064757 0.994801 -0.078602
vn 0.064997 0.993314 -0.095407
vn 0.075893 0.093841 -0.992690
vn 0.075893 0.093841 -0.992690
vn 0.064997 0.993314 -0.095407
vn 0.314310 0.945469 -0.085425
vn 0.347112 0.088526 -0.933636
vn -0.064757 -0.994801 -0.078602
vn -0.064758 -0.078602 -0.994801
vn 0.075893 -0.093841 -0.992690
vn 0.064997 -0.993314 -0.095407
vn 0.064997 -0.993314 -0.095407
vn 0.075893 -0.093841 -0.992690
vn 0.347112 -0.088526 -0.933636
vn 0.314310 -0.945469 -0.085425
vn 0.976014 -0.151518 0.156331
vn 0.310267 -0.946249 0.091368
vn 0.314310 -0.945469 -0.085425
vn 0.977000 -0.153153 -0.148373
vn 0.276320 -0.087996 0.957029
vn 0.976014 -0.151518 0.156331
vn 0.976014 0.151518 0.156331
vn 0.276320 0.087996 0.957029
vn 0.310267 0.946249 0.091368
vn 0.976014 0.151518 0.156331
vn 0.977000 0.153153 -0.148373
vn 0.314310 0.945469 -0.085425
vn 0.347112 0.088526 -0.933636
vn 0.977000 0.153153 -0.148373
vn 0.977000 -0.153153 -0.148373
vn 0.347112 -0.088526 -0.933636
vn -0.064758 -0.078603 0.994801
vn 0.053576 -0.094935 0.994041
vn 0.053576 0.094935 0.994041
vn -0.064758 0.078603 0.994801
vn -0.064757 0.994801 0.078602
vn 0.064515 0.993541 0.093352
vn 0.064997 0.993314 -0.095407
vn -0.064757 0.994801 -0.078602
vn -0.064758 0.078602 -0.994801
vn 0.075893 0.093841 -0.992690
vn 0.075893 -0.093841 -0.992690
vn -0.064758 -0.078602 -0.994801
vn -0.064757 -0.994801 -0.078602
vn 0.064997 -0.993314 -0.095407
vn 0.064515 -0.993541 0.093352
vn -0.064757 -0.994801 0.078602
vn 0.976014 -0.151518 0.156331
vn 0.977000 -0.153153 -0.148373
vn 0.977000 0.153153 -0.148373
vn 0.976014 0.151518 0.156331
vn -0.993337 -0.081492 -0.081492
vn -0.993337 -0.081492 0.081492
vn -0.993337 0.081492 0.081492
vn -0.993337 0.081492 -0.081492
vn 0.064515 0.993541 0.093352
vn 0.310267 0.946249 0.091368
vn 0.314310 0.945469 -0.085425
vn 0.064997 0.993314 -0.095407
vn 0.075893 -0.093841 -0.992690
vn 0.075893 0.093841 -0.992690
vn 0.347112 0.088526 -0.933636
vn 0.347112 -0.088526 -0.933636
vn 0.064515 -0.993541 0.093352
vn 0.064997 -0.993314 -0.095407
vn 0.314310 -0.945469 -0.085425
vn 0.310267 -0.946249 0.091368
vn 0.053576 0.094935 0.994041
vn 0.053576 -0.094935 0.994041
vn 0.276320 -0.087996 0.957029
vn 0.276320 0.087996 0.957029
vn -0.064757 -0.994801 0.078602
vn -0.064758 -0.078603 0.994801
vn -0.993337 -0.081492 0.081492
vn -0.993337 0.081492 0.081492
vn -0.064758 0.078603 0.994801
vn -0.064757 0.994801 0.078602
vn -0.993337 0.081492 -0.081492
vn -0.064757 0.994801 -0.078602
vn -0.064758 0.078602 -0.994801
vn -0.993337 -0.081492 -0.081492
vn -0.064758 -0.078602 -0.994801
vn -0.064757 -0.994801 -0.078602
vn 0.310267 -0.946249 0.091368
vn 0.976014 -0.151518 0.156331
vn 0.276320 -0.087996 0.957029
vn 0.276320 0.087996 0.957029
vn 0.976014 0.151518 0.156331
vn 0.310267 0.946249 0.091368
vn 0.314310 0.945469 -0.085425
vn 0.977000 0.153153 -0.148373
vn 0.347112 0.088526 -0.933636
vn 0.347112 -0.088526 -0.933636
vn 0.977000 -0.153153 -0.148373
vn 0.314310 -0.945469 -0.085425
s off
g polySurface119
usemtl blinn1SG
f 1/1/1 2/2/2 18/3/3 19/4/4
f 2/2/5 3/5/6 17/6/7 18/3/8
f 3/5/9 4/7/10 16/8/11 17/6/12
f 4/9/13 5/10/14 15/11/15 16/12/16
f 5/10/17 6/13/18 14/14/19 15/11/20
f 6/13/21 1/1/22 19/4/23 14/14/24
f 7/15/25 8/16/26 13/17/27
f 8/16/28 9/18/29 13/17/30
f 9/18/31 10/19/32 13/17/33
f 10/19/34 11/20/35 13/17/36
f 11/20/37 12/21/38 13/17/39
f 12/21/40 7/15/41 13/17/42
f 15/11/43 14/14/44 20/22/45 21/23/46
f 16/12/47 15/11/48 21/23/49 22/24/50
f 17/6/51 16/8/52 22/25/53 23/26/54
f 18/3/55 17/6/56 23/26/57 24/27/58
f 19/4/59 18/3/60 24/27/61 25/28/62
f 14/14/63 19/4/64 25/28/65 20/22/66
f 21/23/67 20/22/68 26/29/69 27/30/70
f 22/24/71 21/23/72 27/30/73 28/31/74
f 23/26/75 22/25/76 28/32/77 29/33/78
f 24/27/79 23/26/80 29/33/81 30/34/82
f 25/28/83 24/27/84 30/34/85 31/35/86
f 20/22/87 25/28/88 31/35/89 26/29/90
f 27/30/91 26/29/92 12/36/93 11/37/94
f 28/31/95 27/30/96 11/37/97 10/38/98
f 29/33/99 28/32/100 10/39/101 9/40/102
f 30/34/103 29/33/104 9/40/105 8/16/106
f 31/35/107 30/34/108 8/16/109 7/15/110
f 26/29/111 31/35/112 7/15/113 12/36/114
f 32/41/115 34/42/116 47/43/117 49/44/118
f 33/45/119 32/46/120 35/47/121 36/48/122
f 34/42/123 33/49/124 38/50/125 37/51/126
f 36/48/127 35/47/128 52/52/129 54/53/130
f 37/51/131 39/54/132 43/55/133 42/56/134
f 39/57/135 38/58/136 41/59/137 40/60/138
f 40/60/139 41/59/140 55/61/141 57/62/142
f 42/56/143 44/63/144 48/64/145 47/43/146
f 44/63/147 43/55/148 45/65/149 46/66/150
f 46/66/151 45/65/152 58/67/153 60/68/154
f 49/44/155 48/64/156 50/69/157 51/70/158
f 51/70/159 50/69/160 61/71/161 63/72/162
f 53/73/163 52/74/164 63/75/165 62/76/166
f 54/77/167 53/73/168 56/78/169 55/61/170
f 57/62/171 56/78/172 59/79/173 58/67/174
f 60/68/175 59/79/176 62/76/177 61/80/178
f 33/45/179 36/48/180 41/59/181 38/58/182
f 39/57/183 40/60/184 45/65/185 43/55/186
f 44/63/187 46/66/188 50/69/189 48/64/190
f 49/44/191 51/70/192 35/81/193 32/82/194
f 53/73/195 62/76/196 59/79/197 56/78/198
f 47/43/199 34/42/200 37/51/201 42/56/202
f 40/60/203 57/62/204 58/67/205 45/65/206
f 50/69/207 46/66/208 60/83/209 61/71/210
f 35/81/211 51/70/212 63/84/213 52/85/214
f 41/59/215 36/48/216 54/53/217 55/86/218
f 32/41/219 33/49/220 34/42/221
f 37/51/222 38/50/223 39/54/224
f 42/56/225 43/55/226 44/63/227
f 47/43/228 48/64/229 49/44/230
f 52/74/231 53/73/232 54/77/233
f 55/61/234 56/78/235 57/62/236
f 58/67/237 59/79/238 60/68/239
f 61/80/240 62/76/241 63/75/242
