# This file uses centimeters as units for non-parametric coordinates.

mtllib MarshmallowTallLLowerLeg.mtl
g default
v -1.349734 -0.827560 -0.165340
v -1.349734 0.825275 -0.165335
v -1.349735 -0.827561 0.006089
v -1.349735 0.825274 0.006094
v 1.439425 -0.827561 0.006098
v 1.439425 0.825274 0.006103
v 1.439426 -0.827560 -0.165331
v 1.439426 0.825275 -0.165326
v -1.223746 -0.678722 0.227775
v -1.223746 0.676435 0.227779
v 1.313434 0.676435 0.227788
v 1.313434 -0.678722 0.227783
v -1.030462 -0.471811 0.227776
v -1.030462 0.469524 0.227779
v 1.120150 0.469524 0.227786
v 1.120150 -0.471811 0.227783
v -0.974401 -0.420105 0.139034
v -0.974401 0.417817 0.139037
v 1.064091 0.417817 0.139044
v 1.064091 -0.420105 0.139041
vt 0.861172 0.786366
vt 0.975177 0.786381
vt 0.975166 0.798204
vt 0.861170 0.798190
vt 0.893043 0.825648
vt 0.943266 0.825647
vt 0.943266 0.951937
vt 0.893043 0.951937
vt 0.628981 0.101401
vt 0.628981 0.004462
vt 0.791471 0.004462
vt 0.791471 0.101401
vt 0.850005 0.979385
vt 0.850029 0.798184
vt 0.861146 0.979385
vt 0.961029 0.809435
vt 0.875294 0.809433
vt 0.975135 0.979435
vt 0.961014 0.968183
vt 0.875277 0.968152
vt 0.948397 0.821421
vt 0.887917 0.821420
vt 0.948394 0.956175
vt 0.887910 0.956164
vt 0.986308 0.798207
vt 0.986274 0.979443
vt 0.975130 0.991256
vt 0.861141 0.991208
vn -1.000000 0.000000 -0.000003
vn -1.000000 0.000000 -0.000003
vn -1.000000 0.000000 -0.000003
vn -1.000000 0.000000 -0.000003
vn -0.000003 -0.000003 1.000000
vn -0.000003 -0.000003 1.000000
vn -0.000003 -0.000003 1.000000
vn -0.000003 -0.000003 1.000000
vn 0.000003 0.000003 -1.000000
vn 0.000003 0.000003 -1.000000
vn 0.000003 0.000003 -1.000000
vn 0.000003 0.000003 -1.000000
vn 0.000000 -1.000000 -0.000004
vn 0.000000 -1.000000 -0.000004
vn 0.000000 -1.000000 -0.000004
vn 0.000000 -1.000000 -0.000004
vn -0.869404 -0.000002 0.494102
vn -0.869404 -0.000002 0.494102
vn -0.869404 -0.000002 0.494102
vn -0.869404 -0.000002 0.494102
vn -0.000002 0.830233 0.557417
vn -0.000002 0.830233 0.557417
vn -0.000002 0.830233 0.557417
vn -0.000002 0.830233 0.557417
vn 0.869400 -0.000002 0.494109
vn 0.869400 -0.000002 0.494109
vn 0.869400 -0.000002 0.494109
vn 0.869400 -0.000002 0.494109
vn -0.000002 -0.830233 0.557417
vn -0.000002 -0.830233 0.557417
vn -0.000002 -0.830233 0.557417
vn -0.000002 -0.830233 0.557417
vn -0.000003 -0.000003 1.000000
vn -0.000003 -0.000003 1.000000
vn -0.000003 -0.000003 1.000000
vn -0.000003 -0.000003 1.000000
vn -0.000003 -0.000003 1.000000
vn -0.000003 -0.000003 1.000000
vn -0.000003 -0.000003 1.000000
vn -0.000003 -0.000003 1.000000
vn -0.000003 -0.000003 1.000000
vn -0.000003 -0.000003 1.000000
vn -0.000003 -0.000003 1.000000
vn -0.000003 -0.000003 1.000000
vn -0.000003 -0.000003 1.000000
vn -0.000003 -0.000003 1.000000
vn -0.000003 -0.000003 1.000000
vn -0.000003 -0.000003 1.000000
vn 0.845434 -0.000002 0.534080
vn 0.845434 -0.000002 0.534080
vn 0.845434 -0.000002 0.534080
vn 0.845434 -0.000002 0.534080
vn -0.000002 -0.864029 0.503442
vn -0.000002 -0.864029 0.503442
vn -0.000002 -0.864029 0.503442
vn -0.000002 -0.864029 0.503442
vn -0.845438 -0.000002 0.534074
vn -0.845438 -0.000002 0.534074
vn -0.845438 -0.000002 0.534074
vn -0.845438 -0.000002 0.534074
vn -0.000002 0.864033 0.503435
vn -0.000002 0.864033 0.503435
vn -0.000002 0.864033 0.503435
vn -0.000002 0.864033 0.503435
vn -0.000000 1.000000 0.000003
vn -0.000000 1.000000 0.000003
vn -0.000000 1.000000 0.000003
vn -0.000000 1.000000 0.000003
vn 1.000000 -0.000000 0.000005
vn 1.000000 -0.000000 0.000005
vn 1.000000 -0.000000 0.000005
vn 1.000000 -0.000000 0.000005
s off
g FoodTallLLowerLeg
usemtl blinn1SG
f 1/1/1 3/4/2 4/3/3 2/2/4
f 17/5/5 20/8/6 19/7/7 18/6/8
f 7/9/9 1/12/10 2/11/11 8/10/12
f 7/13/13 5/15/14 3/4/15 1/14/16
f 3/4/17 9/17/18 10/16/19 4/3/20
f 4/3/21 10/16/22 11/19/23 6/18/24
f 6/18/25 11/19/26 12/20/27 5/15/28
f 5/15/29 12/20/30 9/17/31 3/4/32
f 9/17/33 13/22/34 14/21/35 10/16/36
f 10/16/37 14/21/38 15/23/39 11/19/40
f 11/19/41 15/23/42 16/24/43 12/20/44
f 12/20/45 16/24/46 13/22/47 9/17/48
f 13/22/49 17/5/50 18/6/51 14/21/52
f 14/21/53 18/6/54 19/7/55 15/23/56
f 15/23/57 19/7/58 20/8/59 16/24/60
f 16/24/61 20/8/62 17/5/63 13/22/64
f 4/3/65 6/18/66 8/26/67 2/25/68
f 6/18/69 5/15/70 7/28/71 8/27/72
