# This file uses centimeters as units for non-parametric coordinates.

mtllib MarshmallowShortRLowerArm.mtl
g default
v -1.477276 -0.130885 -0.608503
v -1.477234 -0.130885 0.605208
v -1.477276 -0.005002 -0.608503
v -1.477234 -0.005002 0.605208
v 0.570863 -0.005002 -0.608575
v 0.570905 -0.005002 0.605137
v 0.570863 -0.130885 -0.608575
v 0.570906 -0.130885 0.605137
v -1.384755 0.157786 -0.499210
v -1.384720 0.157786 0.495910
v 0.478384 0.157786 0.495845
v 0.478350 0.157786 -0.499275
v -1.242817 0.157786 -0.347276
v -1.242793 0.157786 0.343966
v 0.336447 0.157786 0.343911
v 0.336423 0.157786 -0.347331
v -1.201650 0.092621 -0.309309
v -1.201628 0.092621 0.305995
v 0.295279 0.092621 0.305942
v 0.295258 0.092621 -0.309361
vt 0.861172 0.786366
vt 0.975177 0.786381
vt 0.975166 0.798204
vt 0.861170 0.798190
vt 0.893043 0.825648
vt 0.943266 0.825647
vt 0.943266 0.951937
vt 0.893043 0.951937
vt 0.628981 0.101401
vt 0.628981 0.004462
vt 0.791471 0.004462
vt 0.791471 0.101401
vt 0.850005 0.979385
vt 0.850029 0.798184
vt 0.861146 0.979385
vt 0.961029 0.809435
vt 0.875294 0.809433
vt 0.975135 0.979435
vt 0.961014 0.968183
vt 0.875277 0.968152
vt 0.948397 0.821421
vt 0.887917 0.821420
vt 0.948394 0.956175
vt 0.887910 0.956164
vt 0.986308 0.798207
vt 0.986274 0.979443
vt 0.975130 0.991256
vt 0.861141 0.991208
vn -1.000000 0.000001 0.000035
vn -1.000000 0.000001 0.000035
vn -1.000000 0.000001 0.000035
vn -1.000000 0.000001 0.000035
vn 0.000000 1.000000 0.000000
vn 0.000000 1.000000 0.000000
vn 0.000000 1.000000 0.000000
vn 0.000000 1.000000 0.000000
vn -0.000000 -1.000000 -0.000000
vn -0.000000 -1.000000 -0.000000
vn -0.000000 -1.000000 -0.000000
vn -0.000000 -1.000000 -0.000000
vn -0.000035 0.000000 -1.000000
vn -0.000035 0.000000 -1.000000
vn -0.000035 0.000000 -1.000000
vn -0.000035 0.000000 -1.000000
vn -0.869401 0.494107 0.000030
vn -0.869401 0.494107 0.000030
vn -0.869401 0.494107 0.000030
vn -0.869401 0.494107 0.000030
vn 0.000029 0.557418 0.830232
vn 0.000029 0.557418 0.830232
vn 0.000029 0.557418 0.830232
vn 0.000029 0.557418 0.830232
vn 0.869400 0.494109 -0.000030
vn 0.869400 0.494109 -0.000030
vn 0.869400 0.494109 -0.000030
vn 0.869400 0.494109 -0.000030
vn -0.000029 0.557418 -0.830232
vn -0.000029 0.557418 -0.830232
vn -0.000029 0.557418 -0.830232
vn -0.000029 0.557418 -0.830232
vn 0.000000 1.000000 0.000000
vn 0.000000 1.000000 0.000000
vn 0.000000 1.000000 0.000000
vn 0.000000 1.000000 0.000000
vn 0.000000 1.000000 0.000000
vn -0.000001 1.000000 0.000000
vn -0.000001 1.000000 0.000000
vn 0.000000 1.000000 0.000000
vn -0.000001 1.000000 0.000000
vn -0.000001 1.000000 0.000000
vn -0.000001 1.000000 0.000000
vn -0.000001 1.000000 0.000000
vn -0.000001 1.000000 0.000000
vn 0.000000 1.000000 0.000000
vn 0.000000 1.000000 0.000000
vn -0.000001 1.000000 0.000000
vn 0.845440 0.534071 -0.000030
vn 0.845440 0.534071 -0.000030
vn 0.845440 0.534071 -0.000030
vn 0.845440 0.534071 -0.000030
vn -0.000029 0.503437 -0.864032
vn -0.000029 0.503437 -0.864032
vn -0.000029 0.503437 -0.864032
vn -0.000029 0.503437 -0.864032
vn -0.845441 0.534069 0.000030
vn -0.845441 0.534069 0.000030
vn -0.845441 0.534069 0.000030
vn -0.845441 0.534069 0.000030
vn 0.000029 0.503439 0.864031
vn 0.000029 0.503439 0.864031
vn 0.000029 0.503439 0.864031
vn 0.000029 0.503439 0.864031
vn 0.000034 0.000001 1.000000
vn 0.000034 0.000001 1.000000
vn 0.000034 0.000001 1.000000
vn 0.000034 0.000001 1.000000
vn 1.000000 -0.000000 -0.000035
vn 1.000000 -0.000000 -0.000035
vn 1.000000 -0.000000 -0.000035
vn 1.000000 -0.000000 -0.000035
s off
g FoodShortRLowerArm
usemtl blinn1SG
f 1/1/1 2/2/2 4/3/3 3/4/4
f 17/5/5 18/6/6 19/7/7 20/8/8
f 7/9/9 8/10/10 2/11/11 1/12/12
f 7/13/13 1/14/14 3/4/15 5/15/16
f 3/4/17 4/3/18 10/16/19 9/17/20
f 4/3/21 6/18/22 11/19/23 10/16/24
f 6/18/25 5/15/26 12/20/27 11/19/28
f 5/15/29 3/4/30 9/17/31 12/20/32
f 9/17/33 10/16/34 14/21/35 13/22/36
f 10/16/37 11/19/38 15/23/39 14/21/40
f 11/19/41 12/20/42 16/24/43 15/23/44
f 12/20/45 9/17/46 13/22/47 16/24/48
f 13/22/49 14/21/50 18/6/51 17/5/52
f 14/21/53 15/23/54 19/7/55 18/6/56
f 15/23/57 16/24/58 20/8/59 19/7/60
f 16/24/61 13/22/62 17/5/63 20/8/64
f 4/3/65 2/25/66 8/26/67 6/18/68
f 6/18/69 8/27/70 7/28/71 5/15/72
