# This file uses centimeters as units for non-parametric coordinates.

mtllib MarshmallowShortLLowerLeg.mtl
g default
v -0.844671 -0.500239 -0.100982
v -0.844671 0.477611 -0.100979
v -0.844671 -0.500239 0.000439
v -0.844671 0.477610 0.000442
v 0.805450 -0.500239 0.000442
v 0.805450 0.477610 0.000445
v 0.805450 -0.500239 -0.100978
v 0.805450 0.477611 -0.100975
v -0.770134 -0.412183 0.131592
v -0.770134 0.389554 0.131595
v 0.730912 0.389554 0.131598
v 0.730912 -0.412183 0.131595
v -0.655783 -0.289770 0.131593
v -0.655783 0.267142 0.131595
v 0.616561 0.267142 0.131597
v 0.616561 -0.289770 0.131596
v -0.622617 -0.259180 0.079091
v -0.622617 0.236551 0.079093
v 0.583395 0.236551 0.079096
v 0.583395 -0.259180 0.079094
vt 0.861172 0.786366
vt 0.975177 0.786381
vt 0.975166 0.798204
vt 0.861170 0.798190
vt 0.893043 0.825648
vt 0.943266 0.825647
vt 0.943266 0.951937
vt 0.893043 0.951937
vt 0.628981 0.101401
vt 0.628981 0.004462
vt 0.791471 0.004462
vt 0.791471 0.101401
vt 0.850005 0.979385
vt 0.850029 0.798184
vt 0.861146 0.979385
vt 0.961029 0.809435
vt 0.875294 0.809433
vt 0.975135 0.979435
vt 0.961014 0.968183
vt 0.875277 0.968152
vt 0.948397 0.821421
vt 0.887917 0.821420
vt 0.948394 0.956175
vt 0.887910 0.956164
vt 0.986308 0.798207
vt 0.986274 0.979443
vt 0.975130 0.991256
vt 0.861141 0.991208
vn -1.000000 0.000000 -0.000001
vn -1.000000 0.000000 -0.000001
vn -1.000000 0.000000 -0.000001
vn -1.000000 0.000000 -0.000001
vn -0.000002 -0.000003 1.000000
vn -0.000002 -0.000003 1.000000
vn -0.000002 -0.000003 1.000000
vn -0.000002 -0.000003 1.000000
vn 0.000002 0.000003 -1.000000
vn 0.000002 0.000003 -1.000000
vn 0.000002 0.000003 -1.000000
vn 0.000002 0.000003 -1.000000
vn 0.000000 -1.000000 -0.000004
vn 0.000000 -1.000000 -0.000004
vn 0.000000 -1.000000 -0.000004
vn 0.000000 -1.000000 -0.000004
vn -0.869403 -0.000002 0.494104
vn -0.869403 -0.000002 0.494104
vn -0.869403 -0.000002 0.494104
vn -0.869403 -0.000002 0.494104
vn -0.000001 0.830232 0.557418
vn -0.000001 0.830232 0.557418
vn -0.000001 0.830232 0.557418
vn -0.000001 0.830232 0.557418
vn 0.869401 -0.000002 0.494108
vn 0.869401 -0.000002 0.494108
vn 0.869401 -0.000002 0.494108
vn 0.869401 -0.000002 0.494108
vn -0.000001 -0.830232 0.557418
vn -0.000001 -0.830232 0.557418
vn -0.000001 -0.830232 0.557418
vn -0.000001 -0.830232 0.557418
vn -0.000002 -0.000003 1.000000
vn -0.000002 -0.000003 1.000000
vn -0.000002 -0.000003 1.000000
vn -0.000002 -0.000003 1.000000
vn -0.000002 -0.000003 1.000000
vn -0.000002 -0.000003 1.000000
vn -0.000002 -0.000003 1.000000
vn -0.000002 -0.000003 1.000000
vn -0.000002 -0.000003 1.000000
vn -0.000002 -0.000003 1.000000
vn -0.000002 -0.000003 1.000000
vn -0.000002 -0.000003 1.000000
vn -0.000002 -0.000003 1.000000
vn -0.000002 -0.000003 1.000000
vn -0.000002 -0.000003 1.000000
vn -0.000002 -0.000003 1.000000
vn 0.845435 -0.000002 0.534079
vn 0.845435 -0.000002 0.534079
vn 0.845435 -0.000002 0.534079
vn 0.845435 -0.000002 0.534079
vn -0.000001 -0.864029 0.503442
vn -0.000001 -0.864029 0.503442
vn -0.000001 -0.864029 0.503442
vn -0.000001 -0.864029 0.503441
vn -0.845439 -0.000002 0.534072
vn -0.845439 -0.000002 0.534072
vn -0.845439 -0.000002 0.534072
vn -0.845439 -0.000002 0.534072
vn -0.000001 0.864034 0.503433
vn -0.000001 0.864034 0.503433
vn -0.000001 0.864034 0.503433
vn -0.000001 0.864034 0.503433
vn 0.000000 1.000000 0.000003
vn 0.000000 1.000000 0.000003
vn 0.000000 1.000000 0.000003
vn 0.000000 1.000000 0.000003
vn 1.000000 -0.000000 0.000005
vn 1.000000 -0.000000 0.000005
vn 1.000000 -0.000000 0.000005
vn 1.000000 -0.000000 0.000005
s off
g FoodShortLLowerLeg
usemtl blinn1SG
f 1/1/1 3/4/2 4/3/3 2/2/4
f 17/5/5 20/8/6 19/7/7 18/6/8
f 7/9/9 1/12/10 2/11/11 8/10/12
f 7/13/13 5/15/14 3/4/15 1/14/16
f 3/4/17 9/17/18 10/16/19 4/3/20
f 4/3/21 10/16/22 11/19/23 6/18/24
f 6/18/25 11/19/26 12/20/27 5/15/28
f 5/15/29 12/20/30 9/17/31 3/4/32
f 9/17/33 13/22/34 14/21/35 10/16/36
f 10/16/37 14/21/38 15/23/39 11/19/40
f 11/19/41 15/23/42 16/24/43 12/20/44
f 12/20/45 16/24/46 13/22/47 9/17/48
f 13/22/49 17/5/50 18/6/51 14/21/52
f 14/21/53 18/6/54 19/7/55 15/23/56
f 15/23/57 19/7/58 20/8/59 16/24/60
f 16/24/61 20/8/62 17/5/63 13/22/64
f 4/3/65 6/18/66 8/26/67 2/25/68
f 6/18/69 5/15/70 7/28/71 8/27/72
