# This file uses centimeters as units for non-parametric coordinates.

mtllib TriangleLights.mtl
g default
v -4.201007 -4.389646 -7.276360
v -4.201008 -4.389646 7.276359
v 8.402016 -4.389646 0.000000
v -4.201007 4.389646 -7.276360
v -4.201008 4.389646 7.276359
v 8.402016 4.389646 0.000000
vt 0.052442 0.923618
vt 0.156325 0.923618
vt 0.260208 0.923618
vt 0.364091 0.923618
vt 0.052442 0.997874
vt 0.156325 0.997874
vt 0.260208 0.997874
vt 0.364091 0.997874
vn -1.000000 0.000000 -0.000000
vn -1.000000 0.000000 -0.000000
vn -1.000000 0.000000 -0.000000
vn -1.000000 0.000000 -0.000000
vn 0.500000 0.000000 0.866025
vn 0.500000 0.000000 0.866025
vn 0.500000 0.000000 0.866025
vn 0.500000 0.000000 0.866025
vn 0.500000 0.000000 -0.866025
vn 0.500000 0.000000 -0.866025
vn 0.500000 0.000000 -0.866025
vn 0.500000 0.000000 -0.866025
s off
g pCylinder1
usemtl initialShadingGroup
f 1/1/1 2/2/2 5/6/3 4/5/4
f 2/2/5 3/3/6 6/7/7 5/6/8
f 3/3/9 1/4/10 4/8/11 6/7/12
