# This file uses centimeters as units for non-parametric coordinates.

mtllib TubeStraight_short.mtl
g default
v 1.648067 0.000000 -0.951512
v 0.951512 0.000000 -1.648067
v 0.000000 0.000000 -1.903024
v -0.951512 0.000000 -1.648067
v -1.648067 0.000000 -0.951512
v -1.903024 0.000000 0.000000
v -1.648067 0.000000 0.951512
v -0.951512 0.000000 1.648067
v 0.000000 0.000000 1.903024
v 0.951512 0.000000 1.648067
v 1.648067 0.000000 0.951512
v 1.903024 0.000000 0.000000
v 0.000000 0.000000 1.722296
v 0.861148 0.000000 1.491553
v 1.491553 0.000000 0.861148
v 1.722296 0.000000 0.000000
v 1.491553 0.000000 -0.861148
v 0.861148 0.000000 -1.491553
v 0.000000 0.000000 -1.722296
v -0.861148 0.000000 -1.491553
v -1.491553 0.000000 -0.861148
v -1.722296 0.000000 0.000000
v -1.491553 0.000000 0.861148
v -0.861148 0.000000 1.491553
v -0.951512 3.000000 1.648067
v -1.648067 3.000000 0.951512
v -1.903024 3.000000 0.000000
v -1.648067 3.000000 -0.951512
v -0.951512 3.000000 -1.648067
v 0.000000 3.000000 -1.903024
v 0.951512 3.000000 -1.648067
v 1.648067 3.000000 -0.951512
v 1.903024 3.000000 0.000000
v 1.648067 3.000000 0.951512
v 0.951512 3.000000 1.648067
v 0.000000 3.000000 1.903024
v 0.000000 3.000000 1.722296
v 0.861148 3.000000 1.491553
v 1.491553 3.000000 0.861148
v 1.722296 3.000000 0.000000
v 1.491553 3.000000 -0.861148
v 0.861148 3.000000 -1.491553
v 0.000000 3.000000 -1.722296
v -0.861148 3.000000 -1.491553
v -1.491553 3.000000 -0.861148
v -1.722296 3.000000 0.000000
v -1.491553 3.000000 0.861148
v -0.861148 3.000000 1.491553
vt 0.074966 0.339956
vt 0.043924 0.339939
vt 0.044158 0.243980
vt 0.075184 0.244186
vt 0.012376 0.340341
vt 0.383715 0.243268
vt 0.352816 0.338878
vt 0.352393 0.243923
vt 0.321988 0.339085
vt 0.321577 0.244100
vt 0.291234 0.339427
vt 0.290802 0.244215
vt 0.260434 0.339724
vt 0.260042 0.244357
vt 0.229556 0.339832
vt 0.229300 0.244506
vt 0.198637 0.339894
vt 0.198536 0.244550
vt 0.167757 0.340012
vt 0.167748 0.244526
vt 0.136848 0.339986
vt 0.136944 0.244472
vt 0.105974 0.339934
vt 0.106097 0.244343
vt 0.068937 0.553747
vt 0.040663 0.553747
vt 0.012389 0.553747
vt 0.323401 0.553747
vt 0.295127 0.553747
vt 0.266853 0.553747
vt 0.238579 0.553747
vt 0.210306 0.553747
vt 0.182032 0.553747
vt 0.153758 0.553747
vt 0.125484 0.553747
vt 0.097211 0.553747
vt 0.198536 0.238826
vt 0.167749 0.238802
vt 0.136954 0.238750
vt 0.106120 0.238623
vt 0.075228 0.238470
vt 0.044331 0.238305
vt 0.014382 0.237714
vt 0.352230 0.238189
vt 0.321544 0.238377
vt 0.290776 0.238491
vt 0.260015 0.238630
vt 0.229288 0.238784
vt 0.012389 0.648889
vt 0.351675 0.648889
vt 0.381993 0.237560
vt 0.012618 0.243334
vt 0.210306 0.648889
vt 0.182032 0.648889
vt 0.238579 0.648889
vt 0.266853 0.648889
vt 0.295127 0.648889
vt 0.323401 0.648889
vt 0.040663 0.648889
vt 0.014047 0.346064
vt 0.382520 0.344831
vt 0.351675 0.553747
vt 0.068937 0.648889
vt 0.097211 0.648889
vt 0.125484 0.648889
vt 0.153758 0.648889
vt 0.229575 0.345548
vt 0.198632 0.345611
vt 0.260480 0.345451
vt 0.291286 0.345150
vt 0.322013 0.344801
vt 0.352691 0.344554
vt 0.044054 0.345672
vt 0.074974 0.345675
vt 0.105965 0.345647
vt 0.136808 0.345709
vt 0.167740 0.345735
vt 0.384200 0.339197
vn 0.866025 0.000000 -0.500000
vn 0.500000 0.000000 -0.866025
vn 0.500000 0.000000 -0.866025
vn 0.866025 0.000000 -0.500000
vn 0.000000 0.000000 -1.000000
vn 0.000000 0.000000 -1.000000
vn -0.500000 0.000000 -0.866025
vn -0.500000 0.000000 -0.866025
vn -0.866025 0.000000 -0.500000
vn -0.866025 0.000000 -0.500000
vn -1.000000 0.000000 0.000000
vn -1.000000 0.000000 0.000000
vn -0.866025 0.000000 0.500000
vn -0.866025 0.000000 0.500000
vn -0.500000 0.000000 0.866025
vn -0.500000 0.000000 0.866025
vn 0.000000 0.000000 1.000000
vn 0.000000 0.000000 1.000000
vn 0.500000 0.000000 0.866025
vn 0.500000 0.000000 0.866025
vn 0.866025 0.000000 0.500000
vn 0.866025 0.000000 0.500000
vn 1.000000 0.000000 0.000000
vn 1.000000 0.000000 0.000000
vn 0.000000 -1.000000 0.000000
vn 0.000000 -1.000000 0.000000
vn 0.000000 -1.000000 0.000000
vn 0.000000 -1.000000 0.000000
vn 0.000000 -1.000000 0.000000
vn 0.000000 -1.000000 0.000000
vn 0.000000 -1.000000 0.000000
vn 0.000000 -1.000000 0.000000
vn 0.000000 -1.000000 0.000000
vn 0.000000 -1.000000 0.000000
vn 0.000000 -1.000000 0.000000
vn 0.000000 -1.000000 0.000000
vn 0.000000 -1.000000 0.000000
vn 0.000000 -1.000000 0.000000
vn 0.000000 -1.000000 0.000000
vn 0.000000 -1.000000 0.000000
vn 0.000000 -1.000000 0.000000
vn 0.000000 -1.000000 0.000000
vn 0.000000 -1.000000 0.000000
vn 0.000000 -1.000000 0.000000
vn 0.000000 -1.000000 0.000000
vn 0.000000 -1.000000 0.000000
vn 0.000000 -1.000000 0.000000
vn 0.000000 -1.000000 0.000000
vn -0.500000 0.000000 -0.866026
vn 0.000000 0.000000 -1.000000
vn 0.000000 0.000000 -1.000000
vn -0.500000 0.000000 -0.866026
vn -0.866026 0.000000 -0.500000
vn -0.866026 0.000000 -0.500000
vn -1.000000 0.000000 0.000000
vn -1.000000 0.000000 0.000000
vn -0.866026 0.000000 0.500000
vn -0.866026 0.000000 0.500000
vn -0.500000 0.000000 0.866026
vn -0.500000 0.000000 0.866026
vn 0.000000 0.000000 1.000000
vn 0.000000 0.000000 1.000000
vn 0.500000 0.000000 0.866026
vn 0.500000 0.000000 0.866026
vn 0.866026 0.000000 0.500000
vn 0.866026 0.000000 0.500000
vn 1.000000 0.000000 0.000000
vn 1.000000 0.000000 0.000000
vn 0.866026 0.000000 -0.500000
vn 0.866026 0.000000 -0.500000
vn 0.500000 0.000000 -0.866026
vn 0.500000 0.000000 -0.866026
vn 0.000000 1.000000 -0.000001
vn 0.000000 1.000000 -0.000001
vn 0.000000 1.000000 -0.000001
vn 0.000000 1.000000 -0.000001
vn 0.000000 1.000000 0.000000
vn 0.000000 1.000000 0.000000
vn 0.000000 1.000000 0.000000
vn 0.000000 1.000000 0.000000
vn 0.000000 1.000000 -0.000001
vn 0.000000 1.000000 -0.000001
vn 0.000000 1.000000 0.000000
vn 0.000000 1.000000 0.000000
vn 0.000000 1.000000 0.000001
vn 0.000000 1.000000 0.000001
vn 0.000000 1.000000 0.000001
vn 0.000000 1.000000 0.000001
vn 0.000000 1.000000 0.000000
vn 0.000000 1.000000 0.000000
vn 0.000000 1.000000 0.000000
vn 0.000000 1.000000 0.000000
vn 0.000000 1.000000 0.000001
vn 0.000000 1.000000 0.000001
vn 0.000000 1.000000 -0.000000
vn 0.000000 1.000000 -0.000000
s 1
g pCylinder2
usemtl initialShadingGroup
f 1/1/1 2/2/2 31/3/3 32/4/4
f 2/2/2 3/5/5 30/52/6 31/3/3
f 3/78/5 4/7/7 29/8/8 30/6/6
f 4/7/7 5/9/9 28/10/10 29/8/8
f 5/9/9 6/11/11 27/12/12 28/10/10
f 6/11/11 7/13/13 26/14/14 27/12/12
f 7/13/13 8/15/15 25/16/16 26/14/14
f 8/15/15 9/17/17 36/18/18 25/16/16
f 9/17/17 10/19/19 35/20/20 36/18/18
f 10/19/19 11/21/21 34/22/22 35/20/20
f 11/21/21 12/23/23 33/24/24 34/22/22
f 12/23/23 1/1/1 32/4/4 33/24/24
s 2
f 2/2/25 1/1/26 17/74/27 18/73/28
f 3/5/29 2/2/25 18/73/28 19/60/30
f 4/7/31 3/78/29 19/61/30 20/72/32
f 5/9/33 4/7/31 20/72/32 21/71/34
f 6/11/35 5/9/33 21/71/34 22/70/36
f 7/13/37 6/11/35 22/70/36 23/69/38
f 8/15/39 7/13/37 23/69/38 24/67/40
f 9/17/41 8/15/39 24/67/40 13/68/42
f 10/19/43 9/17/41 13/68/42 14/77/44
f 11/21/45 10/19/43 14/77/44 15/76/46
f 12/23/47 11/21/45 15/76/46 16/75/48
f 1/1/26 12/23/47 16/75/48 17/74/27
s 3
f 14/34/49 13/33/50 37/54/51 38/66/52
f 15/35/53 14/34/49 38/66/52 39/65/54
f 16/36/55 15/35/53 39/65/54 40/64/56
f 17/25/57 16/36/55 40/64/56 41/63/58
f 18/26/59 17/25/57 41/63/58 42/59/60
f 19/27/61 18/26/59 42/59/60 43/49/62
f 20/28/63 19/62/61 43/50/62 44/58/64
f 21/29/65 20/28/63 44/58/64 45/57/66
f 22/30/67 21/29/65 45/57/66 46/56/68
f 23/31/69 22/30/67 46/56/68 47/55/70
f 24/32/71 23/31/69 47/55/70 48/53/72
f 13/33/50 24/32/71 48/53/72 37/54/51
s 4
f 38/38/73 37/37/74 36/18/75 35/20/76
f 39/39/77 38/38/73 35/20/76 34/22/78
f 40/40/79 39/39/77 34/22/78 33/24/80
f 41/41/81 40/40/79 33/24/80 32/4/82
f 42/42/83 41/41/81 32/4/82 31/3/84
f 43/43/85 42/42/83 31/3/84 30/52/86
f 44/44/87 43/51/85 30/6/86 29/8/88
f 45/45/89 44/44/87 29/8/88 28/10/90
f 46/46/91 45/45/89 28/10/90 27/12/92
f 47/47/93 46/46/91 27/12/92 26/14/94
f 48/48/95 47/47/93 26/14/94 25/16/96
f 37/37/74 48/48/95 25/16/96 36/18/75
