# This file uses centimeters as units for non-parametric coordinates.

mtllib RaspberryTallRUpperArm.mtl
g default
v 1.178731 -0.726857 0.729216
v 1.178731 0.733289 0.729216
v -1.030352 -0.464204 0.531303
v -1.030352 0.470637 0.531303
v -1.029210 -0.472548 -0.536337
v -1.029210 0.478981 -0.536337
v 1.178817 -0.726857 -0.731226
v 1.178817 0.733289 -0.731226
v -1.167348 -0.587168 -0.001143
v 1.342479 0.003216 -0.923315
v 1.342425 0.925348 -0.000995
v 1.342425 -0.918915 -0.000995
v 1.342370 0.003216 0.921324
v -1.113936 0.003216 0.671365
v -1.167348 0.593600 -0.001143
v -1.113857 0.003216 -0.673645
v -1.446058 0.003216 -0.001159
v 0.923974 -0.464694 1.094312
v 0.923974 0.471126 1.094312
v -0.518493 0.368875 0.928928
v -0.518493 -0.362443 0.928928
v -1.356973 -0.296358 0.340089
v -1.356973 0.302790 0.340089
v -1.356932 0.302790 -0.342398
v -1.356932 -0.296358 -0.342398
v -0.518384 -0.362443 -0.931138
v -0.518384 0.368875 -0.931138
v 0.924103 0.471126 -1.096351
v 0.924103 -0.464694 -1.096351
v 1.471139 -0.464694 -0.468993
v 1.471139 0.471126 -0.468993
v 1.471084 0.471126 0.467018
v 1.471084 -0.464694 0.467018
v 0.863966 1.098325 0.466982
v 0.864021 1.098325 -0.469029
v -0.591337 0.849303 -0.397142
v -0.591514 0.848259 0.394779
v 0.864021 -1.091893 -0.469029
v 0.863966 -1.091893 0.466982
v -0.591514 -0.841827 0.394779
v -0.591337 -0.842870 -0.397142
v 1.002197 0.003216 1.173976
v -0.503218 0.003216 0.999114
v -1.400177 0.003216 0.365499
v -1.400155 0.325099 -0.001157
v -1.400134 0.003216 -0.367812
v -1.400155 -0.318667 -0.001157
v -0.503100 0.003216 -1.001322
v 1.002335 0.003216 -1.176007
v 1.525163 0.003216 -0.458185
v 1.530363 0.462971 -0.002916
v 1.523614 0.003216 0.452353
v 1.530363 -0.456539 -0.002916
v 0.923232 1.177970 -0.001020
v -0.595660 0.914577 -0.001109
v 0.923232 -1.171537 -0.001020
v -0.595660 -0.908145 -0.001109
v 1.295158 -0.429850 0.857841
v 1.295158 0.436282 0.857841
v 0.828140 0.861881 0.857814
v -0.561098 0.656122 0.722230
v -1.097531 0.280482 0.625080
v -1.097531 -0.274049 0.625080
v -0.561098 -0.649689 0.722230
v 0.828140 -0.855449 0.857814
v -1.144115 0.552967 0.314690
v -1.144078 0.552967 -0.316974
v -1.097458 0.280482 -0.627358
v -1.097458 -0.274049 -0.627358
v -1.144078 -0.546534 -0.316974
v -1.144115 -0.546534 0.314690
v -0.557456 0.676543 -0.731082
v 0.828241 0.861881 -0.859865
v 1.295259 0.436282 -0.859837
v 1.295259 -0.429850 -0.859837
v 0.828241 -0.855449 -0.859865
v -0.557456 -0.670110 -0.731082
v 1.293180 0.861881 -0.434152
v 1.293129 0.861881 0.432155
v 1.293129 -0.855449 0.432155
v 1.293180 -0.855449 -0.434152
v 0.556110 0.003216 1.224629
v 0.017084 0.003216 1.154068
v 0.556369 -0.479153 1.136108
v 0.017434 -0.439824 1.074603
v 0.556757 -0.870174 0.884268
v 0.018357 -0.798030 0.840957
v 0.018357 0.804463 0.840957
v 0.556757 0.876607 0.884268
v 0.556451 0.485582 1.136098
v 0.017356 0.446247 1.074591
v 0.017221 0.003216 -1.156216
v 0.556256 0.003216 -1.226711
v 0.017589 -0.441001 -1.077604
v 0.556545 -0.480288 -1.139009
v 0.017699 -0.815430 -0.848457
v 0.556560 -0.878448 -0.888950
v 0.556560 0.884880 -0.888950
v 0.017699 0.821862 -0.848457
v 0.017516 0.447425 -1.077593
v 0.556623 0.486717 -1.139000
v 0.557488 1.214711 -0.001041
v 0.019264 1.126314 -0.001073
v 0.557177 1.121903 0.482975
v 0.018715 1.037989 0.460333
v 0.557259 1.127638 -0.485819
v 0.018917 1.045449 -0.463476
v 0.557483 -1.208279 -0.001041
v 0.019268 -1.119883 -0.001073
v 0.557372 -1.121195 -0.485814
v 0.018811 -1.038993 -0.463470
v 0.557049 -1.115481 0.482981
v 0.018835 -1.031582 0.460340
v 1.527189 0.003216 -0.002674
vt 0.388952 0.282841
vt 0.407243 0.311539
vt 0.356688 0.317179
vt 0.341953 0.280927
vt 0.412609 0.355545
vt 0.367516 0.355778
vt 0.407698 0.399604
vt 0.357087 0.394487
vt 0.389705 0.428490
vt 0.342728 0.430889
vt 0.184826 0.387670
vt 0.175986 0.416246
vt 0.117052 0.401048
vt 0.112076 0.381516
vt 0.187708 0.356708
vt 0.111000 0.357104
vt 0.184506 0.325777
vt 0.111824 0.332682
vt 0.175371 0.297294
vt 0.116598 0.313100
vt 0.072088 0.328920
vt 0.096212 0.300503
vt 0.067378 0.357329
vt 0.028152 0.357532
vt 0.049192 0.313827
vt 0.080074 0.278632
vt 0.072381 0.385688
vt 0.096797 0.413854
vt 0.080886 0.435892
vt 0.049643 0.401017
vt 0.035472 0.436595
vt 0.008588 0.287069
vt 0.069184 0.462675
vt 0.070404 0.491577
vt 0.047692 0.495631
vt 0.022205 0.507371
vt 0.034654 0.278397
vt 0.068096 0.251970
vt 0.046264 0.219239
vt 0.069016 0.223057
vt 0.116531 0.136717
vt 0.130050 0.169334
vt 0.098741 0.607483
vt 0.118808 0.577422
vt 0.131990 0.544667
vt 0.343874 0.624209
vt 0.328206 0.585981
vt 0.380877 0.574276
vt 0.402739 0.595964
vt 0.363047 0.047164
vt 0.427190 0.629105
vt 0.341101 0.087605
vt 0.400255 0.115241
vt 0.325829 0.125994
vt 0.378618 0.137153
vt 0.433598 0.161122
vt 0.395101 0.171018
vt 0.471604 0.577910
vt 0.465562 0.174264
vt 0.458055 0.224997
vt 0.403476 0.214488
vt 0.435606 0.549740
vt 0.397009 0.540243
vt 0.404935 0.496688
vt 0.459402 0.485617
vt 0.467433 0.536268
vt 0.465203 0.355273
vt 0.470379 0.422466
vt 0.441713 0.423889
vt 0.403519 0.454836
vt 0.441005 0.286904
vt 0.402493 0.256354
vt 0.469685 0.288031
vt 0.344132 0.466892
vt 0.347691 0.505186
vt 0.335742 0.546150
vt 0.140949 0.511563
vt 0.153365 0.478792
vt 0.164982 0.446537
vt 0.333776 0.165744
vt 0.346148 0.206583
vt 0.342985 0.244912
vt 0.164055 0.267118
vt 0.152105 0.234985
vt 0.139351 0.202343
vt 0.313636 0.356057
vt 0.249880 0.356386
vt 0.248383 0.320287
vt 0.312184 0.317645
vt 0.312590 0.394481
vt 0.248747 0.392498
vt 0.244934 0.285772
vt 0.309105 0.281251
vt 0.238702 0.249372
vt 0.304748 0.244195
vt 0.245663 0.427048
vt 0.309878 0.430905
vt 0.305920 0.468005
vt 0.239794 0.463508
vt 0.182966 0.057186
vt 0.283363 0.678105
vt 0.282958 0.082290
vt 0.197514 0.096768
vt 0.200189 0.616528
vt 0.285802 0.630126
vt 0.287175 0.124527
vt 0.209803 0.134429
vt 0.292901 0.164339
vt 0.220275 0.172012
vt 0.289570 0.587848
vt 0.212098 0.578746
vt 0.222196 0.541060
vt 0.294868 0.547977
vt 0.300918 0.507383
vt 0.231574 0.502472
vt 0.299355 0.204870
vt 0.230065 0.210497
vt 0.366238 0.664422
vt 0.280036 0.034337
vt 0.096154 0.106865
vt 0.186064 0.656263
vt 0.424361 0.081849
vt 0.469302 0.132581
vt 0.020657 0.207763
vt 0.009318 0.428193
vn 0.577420 -0.591374 0.562906
vn 0.732131 -0.296779 0.613112
vn 0.328486 -0.347924 0.878092
vn 0.285804 -0.687288 0.667796
vn 0.779305 -0.000000 0.626644
vn 0.369211 -0.000005 0.929346
vn 0.732131 0.296779 0.613112
vn 0.328497 0.347924 0.878088
vn 0.577420 0.591374 0.562906
vn 0.285821 0.687282 0.667795
vn -0.375349 0.332320 0.865261
vn -0.378426 0.666190 0.642639
vn -0.508530 0.610856 0.606837
vn -0.559772 0.298749 0.772920
vn -0.375853 -0.000007 0.926679
vn -0.568801 0.000000 0.822475
vn -0.375341 -0.332321 0.865264
vn -0.559772 -0.298749 0.772920
vn -0.378418 -0.666196 0.642637
vn -0.508530 -0.610856 0.606837
vn -0.845992 -0.373471 0.380548
vn -0.571334 -0.766098 0.294401
vn -0.900315 0.000000 0.435239
vn -1.000000 0.000000 -0.000059
vn -0.907200 -0.420700 -0.000053
vn -0.582447 -0.812869 0.000359
vn -0.845992 0.373471 0.380548
vn -0.571334 0.766098 0.294400
vn -0.582447 0.812869 0.000359
vn -0.907200 0.420700 -0.000054
vn -0.846622 0.372480 -0.380118
vn -0.900264 0.000000 -0.435345
vn -0.575009 0.766625 -0.285747
vn -0.518470 0.605878 -0.603408
vn -0.561451 0.292356 -0.774145
vn -0.568704 0.000000 -0.822542
vn -0.846622 -0.372480 -0.380118
vn -0.575009 -0.766625 -0.285747
vn -0.561451 -0.292356 -0.774145
vn -0.518470 -0.605878 -0.603407
vn -0.376033 -0.319775 -0.869680
vn -0.383615 -0.663719 -0.642119
vn -0.376076 -0.000007 -0.926589
vn -0.376041 0.319773 -0.869677
vn -0.383614 0.663733 -0.642105
vn 0.330804 0.346557 -0.877762
vn 0.294145 0.684129 -0.667418
vn 0.577486 0.591374 -0.562838
vn 0.731047 0.297876 -0.613873
vn 0.369722 -0.000004 -0.929142
vn 0.778114 -0.000000 -0.628123
vn 0.330793 -0.346557 -0.877767
vn 0.731047 -0.297876 -0.613873
vn 0.294148 -0.684114 -0.667432
vn 0.577487 -0.591373 -0.562838
vn 0.922023 -0.273007 -0.274482
vn 0.698642 -0.653875 -0.290425
vn 0.965600 -0.000000 -0.260032
vn 0.999999 0.000000 0.001053
vn 0.965232 -0.261395 -0.000173
vn 0.737345 -0.675516 0.000218
vn 0.922023 0.273007 -0.274482
vn 0.698642 0.653875 -0.290425
vn 0.737345 0.675516 0.000218
vn 0.965232 0.261395 -0.000172
vn 0.965938 -0.000000 0.258774
vn 0.922666 0.271427 0.273889
vn 0.699135 0.653469 0.290153
vn 0.922666 -0.271427 0.273889
vn 0.699135 -0.653469 0.290153
vn 0.313442 0.888787 0.334383
vn 0.349713 0.936856 0.001146
vn 0.319577 0.887466 -0.332077
vn -0.393485 0.868746 -0.300749
vn -0.395979 0.918255 0.002860
vn -0.389618 0.863749 0.319586
vn 0.319594 -0.887460 -0.332076
vn 0.349711 -0.936857 0.001160
vn 0.313420 -0.888794 0.334385
vn -0.389608 -0.863753 0.319588
vn -0.395978 -0.918255 0.002876
vn -0.393493 -0.868743 -0.300747
vn -0.021703 0.000011 0.999764
vn -0.200868 0.000009 0.979618
vn -0.208791 -0.359239 0.909590
vn -0.031403 -0.356342 0.933828
vn -0.031396 0.356342 0.933828
vn -0.208787 0.359240 0.909591
vn -0.226523 -0.702975 0.674176
vn -0.055525 -0.713899 0.698044
vn -0.238425 -0.908185 0.344026
vn -0.065895 -0.934274 0.350414
vn -0.226496 0.702981 0.674179
vn -0.055551 0.713906 0.698035
vn -0.065886 0.934275 0.350412
vn -0.238419 0.908186 0.344026
vn -0.201058 0.000008 -0.979579
vn -0.021065 0.000010 -0.999778
vn -0.026992 -0.350651 -0.936117
vn -0.206509 -0.348319 -0.914345
vn -0.206506 0.348320 -0.914346
vn -0.026986 0.350650 -0.936118
vn -0.044131 -0.712160 -0.700629
vn -0.223762 -0.701565 -0.676562
vn -0.056582 -0.938476 -0.340679
vn -0.237358 -0.914711 -0.327055
vn -0.044126 0.712131 -0.700659
vn -0.223766 0.701549 -0.676578
vn -0.237363 0.914710 -0.327054
vn -0.056590 0.938475 -0.340678
vn -0.061618 0.998086 0.005224
vn -0.242785 0.970064 0.005679
vn -0.061617 -0.998086 0.005184
vn -0.242786 -0.970063 0.005656
s 1
g FoodTallRUpperArm
usemtl Delete:blinn2SG
f 1/1/1 58/2/2 18/3/3 65/4/4
f 58/2/2 13/5/5 42/6/6 18/3/3
f 13/5/5 59/7/7 19/8/8 42/6/6
f 59/7/7 2/9/9 60/10/10 19/8/8
f 20/11/11 61/12/12 4/13/13 62/14/14
f 43/15/15 20/11/11 62/14/14 14/16/16
f 21/17/17 43/15/15 14/16/16 63/18/18
f 64/19/19 21/17/17 63/18/18 3/20/20
f 3/20/20 63/18/18 22/21/21 71/22/22
f 63/18/18 14/16/16 44/23/23 22/21/21
f 22/21/21 44/23/23 17/24/24 47/25/25
f 71/22/22 22/21/21 47/25/25 9/26/26
f 14/16/16 62/14/14 23/27/27 44/23/23
f 62/14/14 4/13/13 66/28/28 23/27/27
f 23/27/27 66/28/28 15/29/29 45/30/30
f 44/23/23 23/27/27 45/30/30 17/24/24
f 17/24/24 45/30/30 24/31/31 46/125/32
f 45/30/30 15/29/29 67/33/33 24/31/31
f 24/31/31 67/33/33 6/34/34 68/35/35
f 46/125/32 24/31/31 68/35/35 16/36/36
f 9/26/26 47/25/25 25/37/37 70/38/38
f 47/25/25 17/24/24 46/32/32 25/37/37
f 25/37/37 46/32/32 16/124/36 69/39/39
f 70/38/38 25/37/37 69/39/39 5/40/40
f 5/40/40 69/39/39 26/41/41 77/42/42
f 69/39/39 16/124/36 48/120/43 26/41/41
f 16/36/36 68/35/35 27/44/44 48/43/43
f 68/35/35 6/34/34 72/45/45 27/44/44
f 28/46/46 73/47/47 8/48/48 74/49/49
f 49/118/50 28/46/46 74/49/49 10/51/51
f 29/52/52 49/50/50 10/122/51 75/53/53
f 76/54/54 29/52/52 75/53/53 7/55/55
f 7/55/55 75/53/53 30/56/56 81/57/57
f 75/53/53 10/122/51 50/123/58 30/56/56
f 30/56/56 114/59/59 53/60/60
f 81/57/57 30/56/56 53/60/60 12/61/61
f 10/51/51 74/49/49 31/62/62 50/58/58
f 74/49/49 8/48/48 78/63/63 31/62/62
f 31/62/62 78/63/63 11/64/64 51/65/65
f 50/58/58 31/62/62 114/66/59
f 52/67/66 114/68/59 32/69/67
f 51/65/65 11/64/64 79/70/68 32/69/67
f 32/69/67 79/70/68 2/9/9 59/7/7
f 52/67/66 32/69/67 59/7/7 13/5/5
f 12/61/61 53/60/60 33/71/69 80/72/70
f 53/60/60 114/73/59 33/71/69
f 33/71/69 52/67/66 13/5/5 58/2/2
f 80/72/70 33/71/69 58/2/2 1/1/1
f 2/9/9 79/70/68 34/74/71 60/10/10
f 79/70/68 11/64/64 54/75/72 34/74/71
f 11/64/64 78/63/63 35/76/73 54/75/72
f 78/63/63 8/48/48 73/47/47 35/76/73
f 36/77/74 72/45/45 6/34/34 67/33/33
f 55/78/75 36/77/74 67/33/33 15/29/29
f 37/79/76 55/78/75 15/29/29 66/28/28
f 61/12/12 37/79/76 66/28/28 4/13/13
f 7/55/55 81/57/57 38/80/77 76/54/54
f 81/57/57 12/61/61 56/81/78 38/80/77
f 12/61/61 80/72/70 39/82/79 56/81/78
f 80/72/70 1/1/1 65/4/4 39/82/79
f 40/83/80 64/19/19 3/20/20 71/22/22
f 57/84/81 40/83/80 71/22/22 9/26/26
f 41/85/82 57/84/81 9/26/26 70/38/38
f 77/42/42 41/85/82 70/38/38 5/40/40
f 82/86/83 83/87/84 85/88/85 84/89/86
f 83/87/84 82/86/83 90/90/87 91/91/88
f 84/89/86 85/88/85 87/92/89 86/93/90
f 86/93/90 87/92/89 113/94/91 112/95/92
f 88/96/93 89/97/94 104/98/95 105/99/96
f 89/97/94 88/96/93 91/91/88 90/90/87
f 92/100/97 93/119/98 95/102/99 94/103/100
f 93/101/98 92/121/97 100/104/101 101/105/102
f 94/103/100 95/102/99 97/106/103 96/107/104
f 96/107/104 97/106/103 110/108/105 111/109/106
f 98/110/107 99/111/108 107/112/109 106/113/110
f 99/111/108 98/110/107 101/105/102 100/104/101
f 102/114/111 103/115/112 105/99/96 104/98/95
f 103/115/112 102/114/111 106/113/110 107/112/109
f 108/116/113 109/117/114 111/109/106 110/108/105
f 109/117/114 108/116/113 112/95/92 113/94/91
f 18/3/3 42/6/6 82/86/83 84/89/86
f 65/4/4 18/3/3 84/89/86 86/93/90
f 19/8/8 60/10/10 89/97/94 90/90/87
f 42/6/6 19/8/8 90/90/87 82/86/83
f 83/87/84 91/91/88 20/11/11 43/15/15
f 91/91/88 88/96/93 61/12/12 20/11/11
f 87/92/89 85/88/85 21/17/17 64/19/19
f 85/88/85 83/87/84 43/15/15 21/17/17
f 26/41/41 48/120/43 92/100/97 94/103/100
f 77/42/42 26/41/41 94/103/100 96/107/104
f 27/44/44 72/45/45 99/111/108 100/104/101
f 48/43/43 27/44/44 100/104/101 92/121/97
f 93/101/98 101/105/102 28/46/46 49/118/50
f 101/105/102 98/110/107 73/47/47 28/46/46
f 97/106/103 95/102/99 29/52/52 76/54/54
f 95/102/99 93/119/98 49/50/50 29/52/52
f 34/74/71 54/75/72 102/114/111 104/98/95
f 60/10/10 34/74/71 104/98/95 89/97/94
f 35/76/73 73/47/47 98/110/107 106/113/110
f 54/75/72 35/76/73 106/113/110 102/114/111
f 103/115/112 107/112/109 36/77/74 55/78/75
f 107/112/109 99/111/108 72/45/45 36/77/74
f 88/96/93 105/99/96 37/79/76 61/12/12
f 105/99/96 103/115/112 55/78/75 37/79/76
f 38/80/77 56/81/78 108/116/113 110/108/105
f 76/54/54 38/80/77 110/108/105 97/106/103
f 39/82/79 65/4/4 86/93/90 112/95/92
f 56/81/78 39/82/79 112/95/92 108/116/113
f 109/117/114 113/94/91 40/83/80 57/84/81
f 113/94/91 87/92/89 64/19/19 40/83/80
f 96/107/104 111/109/106 41/85/82 77/42/42
f 111/109/106 109/117/114 57/84/81 41/85/82
f 114/66/59 31/62/62 51/65/65
f 33/71/69 114/73/59 52/67/66
f 30/56/56 50/123/58 114/59/59
f 32/69/67 114/68/59 51/65/65
