# This file uses centimeters as units for non-parametric coordinates.

mtllib RaspberryLLowerCanine.mtl
g default
v -0.293936 -0.017063 0.109623
v 0.176049 -0.017063 0.178220
v -0.200103 0.701524 0.058301
v 0.100799 0.701524 0.102220
v -0.152632 0.701173 -0.285738
v 0.153642 0.701173 -0.241035
v -0.225326 -0.017063 -0.360457
v 0.244659 -0.017063 -0.291860
v -0.214669 0.746097 -0.118854
v 0.018692 -0.070297 -0.387990
v 0.272173 -0.070297 -0.047797
v -0.321450 -0.070297 -0.134440
v -0.067969 -0.070297 0.205754
v -0.056232 0.728710 0.125344
v 0.165392 0.746097 -0.063382
v 0.006955 0.728710 -0.307581
v -0.024639 0.836757 -0.091118
v -0.226705 0.065798 0.239460
v 0.074512 0.065798 0.283424
v 0.049365 0.535016 0.225415
v -0.186028 0.535016 0.191058
v -0.137096 0.807772 0.004646
v 0.055756 0.807772 0.032793
v 0.087818 0.807772 -0.186883
v -0.105033 0.807772 -0.215030
v -0.098643 0.535016 -0.407652
v 0.136751 0.535016 -0.373295
v 0.177428 0.065798 -0.421696
v -0.123789 0.065798 -0.465661
v 0.305863 0.085330 0.110969
v 0.349837 0.085330 -0.190310
v 0.266301 0.558736 -0.178843
v 0.228761 0.558779 0.076008
v -0.355141 0.085330 -0.293206
v -0.399114 0.085330 0.008073
v -0.315236 0.558779 -0.003391
v -0.278368 0.558736 -0.258340
v -0.079839 0.040352 0.287083
v -0.071628 0.530045 0.230827
v -0.041864 0.821826 0.026899
v 0.078968 0.821826 -0.075996
v -0.007413 0.821826 -0.209136
v -0.128245 0.821826 -0.106240
v 0.022351 0.530045 -0.413064
v 0.030562 0.040352 -0.469319
v 0.353486 0.066061 -0.035929
v 0.268706 0.560135 -0.048303
v -0.402763 0.066061 -0.146308
v -0.317983 0.560135 -0.133934
v -0.204380 -0.054938 0.164976
v 0.074407 -0.054938 0.205666
v 0.211397 0.096976 0.225660
v 0.151534 0.548878 0.172379
v 0.035187 0.723374 0.123472
v -0.143303 0.723374 0.097420
v -0.268775 0.548878 0.111033
v -0.341370 0.096976 0.144981
v 0.137475 0.738533 0.036367
v 0.167150 0.738533 -0.166950
v 0.094026 0.723374 -0.279657
v -0.084464 0.723374 -0.305709
v -0.186752 0.738533 -0.218604
v -0.216427 0.738533 -0.015287
v 0.226382 0.547721 -0.294447
v 0.292092 0.096976 -0.327218
v 0.155102 -0.054938 -0.347212
v -0.123684 -0.054938 -0.387903
v -0.260674 0.096976 -0.407897
v -0.207072 0.547721 -0.357712
v 0.272094 -0.054270 -0.190200
v 0.231395 -0.054270 0.088643
v -0.321371 -0.054270 0.007963
v -0.280672 -0.054270 -0.270880
v -0.082220 0.185457 0.303395
v -0.078907 0.360796 0.280693
v -0.233324 0.185374 0.252241
v -0.217777 0.360683 0.234302
v -0.347353 0.185253 0.152809
v -0.322098 0.360388 0.142268
v 0.193705 0.360388 0.217553
v 0.214893 0.185253 0.234872
v 0.077201 0.185348 0.297560
v 0.067428 0.360709 0.275925
v 0.029629 0.360795 -0.462930
v 0.032943 0.185456 -0.485631
v -0.117046 0.360674 -0.458496
v -0.126805 0.185361 -0.480117
v -0.248331 0.360634 -0.402330
v -0.266711 0.185351 -0.418334
v 0.300861 0.185351 -0.335494
v 0.278673 0.360634 -0.325411
v 0.168916 0.360698 -0.416755
v 0.184449 0.185335 -0.434684
v 0.365312 0.185032 -0.034203
v 0.336859 0.360109 -0.038356
v 0.312700 0.185124 0.117230
v 0.286753 0.360279 0.106010
v 0.360060 0.185116 -0.194332
v 0.332554 0.360231 -0.190991
v -0.414589 0.185034 -0.148034
v -0.386136 0.360107 -0.143881
v -0.363785 0.185079 -0.299979
v -0.338377 0.360265 -0.288915
v -0.407459 0.185166 0.012121
v -0.379392 0.360240 0.008785
vt 0.388952 0.282841
vt 0.407243 0.311539
vt 0.356688 0.317179
vt 0.341953 0.280927
vt 0.412609 0.355545
vt 0.367516 0.355778
vt 0.407698 0.399604
vt 0.357087 0.394487
vt 0.389705 0.428490
vt 0.342728 0.430889
vt 0.184826 0.387670
vt 0.175986 0.416246
vt 0.117052 0.401048
vt 0.112076 0.381516
vt 0.187708 0.356708
vt 0.111000 0.357104
vt 0.184506 0.325777
vt 0.111824 0.332682
vt 0.175371 0.297294
vt 0.116598 0.313100
vt 0.072088 0.328920
vt 0.096212 0.300503
vt 0.067378 0.357329
vt 0.028152 0.357532
vt 0.049192 0.313827
vt 0.080074 0.278632
vt 0.072381 0.385688
vt 0.096797 0.413854
vt 0.080886 0.435892
vt 0.049643 0.401017
vt 0.035472 0.436595
vt 0.008588 0.287069
vt 0.069184 0.462675
vt 0.070404 0.491577
vt 0.047692 0.495631
vt 0.022205 0.507371
vt 0.034654 0.278397
vt 0.068096 0.251970
vt 0.046264 0.219239
vt 0.069016 0.223057
vt 0.116531 0.136717
vt 0.130050 0.169334
vt 0.098741 0.607483
vt 0.118808 0.577422
vt 0.131990 0.544667
vt 0.343874 0.624209
vt 0.328206 0.585981
vt 0.380877 0.574276
vt 0.402739 0.595964
vt 0.363047 0.047164
vt 0.427190 0.629105
vt 0.341101 0.087605
vt 0.400255 0.115241
vt 0.325829 0.125994
vt 0.378618 0.137153
vt 0.395101 0.171018
vt 0.403476 0.214488
vt 0.397009 0.540243
vt 0.404935 0.496688
vt 0.403519 0.454836
vt 0.402493 0.256354
vt 0.344132 0.466892
vt 0.347691 0.505186
vt 0.335742 0.546150
vt 0.140949 0.511563
vt 0.153365 0.478792
vt 0.164982 0.446537
vt 0.333776 0.165744
vt 0.346148 0.206583
vt 0.342985 0.244912
vt 0.164055 0.267118
vt 0.152105 0.234985
vt 0.139351 0.202343
vt 0.313636 0.356057
vt 0.249880 0.356386
vt 0.248383 0.320287
vt 0.312184 0.317645
vt 0.312590 0.394481
vt 0.248747 0.392498
vt 0.244934 0.285772
vt 0.309105 0.281251
vt 0.238702 0.249372
vt 0.304748 0.244195
vt 0.245663 0.427048
vt 0.309878 0.430905
vt 0.305920 0.468005
vt 0.239794 0.463508
vt 0.182966 0.057186
vt 0.283363 0.678105
vt 0.282958 0.082290
vt 0.197514 0.096768
vt 0.200189 0.616528
vt 0.285802 0.630126
vt 0.287175 0.124527
vt 0.209803 0.134429
vt 0.292901 0.164339
vt 0.220275 0.172012
vt 0.289570 0.587848
vt 0.212098 0.578746
vt 0.222196 0.541060
vt 0.294868 0.547977
vt 0.300918 0.507383
vt 0.231574 0.502472
vt 0.299355 0.204870
vt 0.230065 0.210497
vt 0.366238 0.664422
vt 0.280036 0.034337
vt 0.096154 0.106865
vt 0.186064 0.656263
vt 0.424361 0.081849
vt 0.020657 0.207763
vt 0.009318 0.428193
vn -0.724149 -0.469127 0.505499
vn -0.449218 -0.533810 0.716415
vn -0.471092 -0.328537 0.818618
vn -0.776526 -0.285844 0.561516
vn -0.118305 -0.573592 0.810553
vn -0.134222 -0.369266 0.919580
vn 0.225711 -0.533810 0.814924
vn 0.217461 -0.328549 0.919112
vn 0.549456 -0.469127 0.691388
vn 0.583632 -0.285860 0.760038
vn 0.203867 0.375298 0.904207
vn 0.566389 0.378388 0.732138
vn 0.516805 0.508494 0.688728
vn 0.183983 0.559726 0.807996
vn -0.133846 0.375798 0.916985
vn -0.118791 0.568753 0.813885
vn -0.453806 0.375290 0.808219
vn -0.407251 0.559726 0.721702
vn -0.752028 0.378380 0.539706
vn -0.692099 0.508494 0.512282
vn -0.424523 0.845970 0.322669
vn -0.800590 0.571316 0.180703
vn -0.062867 0.900289 0.430728
vn 0.000000 1.000000 0.000000
vn -0.416290 0.907200 -0.060760
vn -0.804403 0.582447 -0.117009
vn 0.314587 0.845970 0.430546
vn 0.715542 0.571316 0.401991
vn 0.804289 0.582447 0.117788
vn 0.416290 0.907200 0.060760
vn 0.423467 0.846644 -0.322288
vn 0.062867 0.900290 -0.430728
vn 0.799851 0.575025 -0.171998
vn 0.686668 0.518506 -0.509547
vn 0.401092 0.561496 -0.723773
vn 0.118791 0.568752 -0.813885
vn -0.313684 0.846644 -0.429879
vn -0.717323 0.575025 -0.393438
vn -0.177489 0.561496 -0.808220
vn -0.512383 0.518506 -0.684555
vn -0.190821 0.376084 -0.906724
vn -0.564026 0.383653 -0.731222
vn 0.133813 0.376130 -0.916853
vn 0.442021 0.376092 -0.814354
vn 0.749507 0.383651 -0.539491
vn 0.469698 -0.330752 -0.818527
vn 0.773351 -0.294106 -0.561632
vn 0.724148 -0.469127 -0.505499
vn 0.449218 -0.533810 -0.716415
vn 0.134190 -0.369668 -0.919423
vn 0.118305 -0.573592 -0.810553
vn -0.216149 -0.330741 -0.918635
vn -0.225711 -0.533810 -0.814924
vn -0.580545 -0.294109 -0.759255
vn -0.549456 -0.469127 -0.691389
vn 0.762168 -0.484476 0.429398
vn 0.831178 -0.313461 0.459223
vn 0.853763 -0.505530 0.124611
vn 0.926871 -0.349713 0.136419
vn 0.853104 -0.484476 -0.193640
vn 0.926124 -0.319558 -0.200441
vn 0.903070 0.393503 -0.172104
vn 0.908211 0.395979 0.135472
vn 0.808533 0.389599 0.441006
vn -0.762169 -0.484476 -0.429398
vn -0.830193 -0.319575 -0.456784
vn -0.853763 -0.505530 -0.124611
vn -0.927199 -0.349711 -0.134179
vn -0.853104 -0.484476 0.193640
vn -0.927766 -0.313440 0.202496
vn -0.900857 0.389589 0.191513
vn -0.909047 0.395978 -0.129750
vn -0.816203 0.393511 -0.423039
vn -0.144380 0.021644 0.989286
vn -0.141475 0.200810 0.969361
vn -0.486842 0.208738 0.848182
vn -0.487475 0.031348 0.872574
vn 0.217737 0.031341 0.975504
vn 0.224104 0.208733 0.951950
vn -0.792975 0.226483 0.565594
vn -0.807230 0.055483 0.587624
vn -0.948351 0.238405 0.209268
vn -0.975088 0.065874 0.211811
vn 0.598241 0.226456 0.768652
vn 0.605607 0.055510 0.793826
vn 0.873871 0.065865 0.481675
vn 0.848977 0.238399 0.471598
vn 0.141482 0.201115 -0.969296
vn 0.144403 0.021124 -0.989294
vn -0.211775 0.027048 -0.976944
vn -0.212615 0.206563 -0.955053
vn 0.476721 0.206559 -0.854442
vn 0.482172 0.027041 -0.875659
vn -0.603505 0.044173 -0.796134
vn -0.596499 0.223802 -0.770780
vn -0.879434 0.056602 -0.472643
vn -0.857888 0.237378 -0.455720
vn 0.805857 0.044167 -0.590461
vn 0.791907 0.223806 -0.568150
vn 0.952353 0.237382 -0.191504
vn 0.977838 0.056610 -0.201564
vn 0.986867 0.061618 0.149322
vn 0.959071 0.242784 0.145736
vn -0.988371 0.061617 -0.139016
vn -0.960712 0.242786 -0.134491
s 1
g FoodLLowerCaninesUnderbite
usemtl Delete:blinn2SG
f 1/1/1 50/2/2 18/3/3 57/4/4
f 50/2/2 13/5/5 38/6/6 18/3/3
f 13/5/5 51/7/7 19/8/8 38/6/6
f 51/7/7 2/9/9 52/10/10 19/8/8
f 20/11/11 53/12/12 4/13/13 54/14/14
f 39/15/15 20/11/11 54/14/14 14/16/16
f 21/17/17 39/15/15 14/16/16 55/18/18
f 56/19/19 21/17/17 55/18/18 3/20/20
f 3/20/20 55/18/18 22/21/21 63/22/22
f 55/18/18 14/16/16 40/23/23 22/21/21
f 22/21/21 40/23/23 17/24/24 43/25/25
f 63/22/22 22/21/21 43/25/25 9/26/26
f 14/16/16 54/14/14 23/27/27 40/23/23
f 54/14/14 4/13/13 58/28/28 23/27/27
f 23/27/27 58/28/28 15/29/29 41/30/30
f 40/23/23 23/27/27 41/30/30 17/24/24
f 17/24/24 41/30/30 24/31/31 42/112/32
f 41/30/30 15/29/29 59/33/33 24/31/31
f 24/31/31 59/33/33 6/34/34 60/35/35
f 42/112/32 24/31/31 60/35/35 16/36/36
f 9/26/26 43/25/25 25/37/37 62/38/38
f 43/25/25 17/24/24 42/32/32 25/37/37
f 25/37/37 42/32/32 16/111/36 61/39/39
f 62/38/38 25/37/37 61/39/39 5/40/40
f 5/40/40 61/39/39 26/41/41 69/42/42
f 61/39/39 16/111/36 44/108/43 26/41/41
f 16/36/36 60/35/35 27/44/44 44/43/43
f 60/35/35 6/34/34 64/45/45 27/44/44
f 28/46/46 65/47/47 8/48/48 66/49/49
f 45/106/50 28/46/46 66/49/49 10/51/51
f 29/52/52 45/50/50 10/110/51 67/53/53
f 68/54/54 29/52/52 67/53/53 7/55/55
f 2/9/9 71/60/56 30/62/57 52/10/10
f 71/60/56 11/59/58 46/63/59 30/62/57
f 11/59/58 70/58/60 31/64/61 46/63/59
f 70/58/60 8/48/48 65/47/47 31/64/61
f 32/65/62 64/45/45 6/34/34 59/33/33
f 47/66/63 32/65/62 59/33/33 15/29/29
f 33/67/64 47/66/63 15/29/29 58/28/28
f 53/12/12 33/67/64 58/28/28 4/13/13
f 7/55/55 73/56/65 34/68/66 68/54/54
f 73/56/65 12/57/67 48/69/68 34/68/66
f 12/57/67 72/61/69 35/70/70 48/69/68
f 72/61/69 1/1/1 57/4/4 35/70/70
f 36/71/71 56/19/19 3/20/20 63/22/22
f 49/72/72 36/71/71 63/22/22 9/26/26
f 37/73/73 49/72/72 9/26/26 62/38/38
f 69/42/42 37/73/73 62/38/38 5/40/40
f 74/74/74 75/75/75 77/76/76 76/77/77
f 75/75/75 74/74/74 82/78/78 83/79/79
f 76/77/77 77/76/76 79/80/80 78/81/81
f 78/81/81 79/80/80 105/82/82 104/83/83
f 80/84/84 81/85/85 96/86/86 97/87/87
f 81/85/85 80/84/84 83/79/79 82/78/78
f 84/88/88 85/107/89 87/90/90 86/91/91
f 85/89/89 84/109/88 92/92/92 93/93/93
f 86/91/91 87/90/90 89/94/94 88/95/95
f 88/95/95 89/94/94 102/96/96 103/97/97
f 90/98/98 91/99/99 99/100/100 98/101/101
f 91/99/99 90/98/98 93/93/93 92/92/92
f 94/102/102 95/103/103 97/87/87 96/86/86
f 95/103/103 94/102/102 98/101/101 99/100/100
f 100/104/104 101/105/105 103/97/97 102/96/96
f 101/105/105 100/104/104 104/83/83 105/82/82
f 18/3/3 38/6/6 74/74/74 76/77/77
f 57/4/4 18/3/3 76/77/77 78/81/81
f 19/8/8 52/10/10 81/85/85 82/78/78
f 38/6/6 19/8/8 82/78/78 74/74/74
f 75/75/75 83/79/79 20/11/11 39/15/15
f 83/79/79 80/84/84 53/12/12 20/11/11
f 79/80/80 77/76/76 21/17/17 56/19/19
f 77/76/76 75/75/75 39/15/15 21/17/17
f 26/41/41 44/108/43 84/88/88 86/91/91
f 69/42/42 26/41/41 86/91/91 88/95/95
f 27/44/44 64/45/45 91/99/99 92/92/92
f 44/43/43 27/44/44 92/92/92 84/109/88
f 85/89/89 93/93/93 28/46/46 45/106/50
f 93/93/93 90/98/98 65/47/47 28/46/46
f 89/94/94 87/90/90 29/52/52 68/54/54
f 87/90/90 85/107/89 45/50/50 29/52/52
f 30/62/57 46/63/59 94/102/102 96/86/86
f 52/10/10 30/62/57 96/86/86 81/85/85
f 31/64/61 65/47/47 90/98/98 98/101/101
f 46/63/59 31/64/61 98/101/101 94/102/102
f 95/103/103 99/100/100 32/65/62 47/66/63
f 99/100/100 91/99/99 64/45/45 32/65/62
f 80/84/84 97/87/87 33/67/64 53/12/12
f 97/87/87 95/103/103 47/66/63 33/67/64
f 34/68/66 48/69/68 100/104/104 102/96/96
f 68/54/54 34/68/66 102/96/96 89/94/94
f 35/70/70 57/4/4 78/81/81 104/83/83
f 48/69/68 35/70/70 104/83/83 100/104/104
f 101/105/105 105/82/82 36/71/71 49/72/72
f 105/82/82 79/80/80 56/19/19 36/71/71
f 88/95/95 103/97/97 37/73/73 69/42/42
f 103/97/97 101/105/105 49/72/72 37/73/73
