# This file uses centimeters as units for non-parametric coordinates.

mtllib RaspberryShortRUpperLeg.mtl
g default
v 0.694797 -0.413250 0.419767
v 0.694797 0.421119 0.419766
v -0.567542 -0.263163 0.306742
v -0.567542 0.271032 0.306741
v -0.566923 -0.267932 -0.303338
v -0.566923 0.275799 -0.303339
v 0.694801 -0.413251 -0.414772
v 0.694801 0.421118 -0.414773
v -0.645842 -0.333428 0.002491
v 0.788316 0.003933 -0.524542
v 0.788314 0.530866 0.002497
v 0.788314 -0.522998 0.002498
v 0.788311 0.003935 0.529537
v -0.615300 0.003934 0.386779
v -0.645842 0.341296 0.002490
v -0.615297 0.003933 -0.381798
v -0.805105 0.003934 0.002490
v 0.549233 -0.263443 0.628400
v 0.549233 0.271312 0.628400
v -0.275039 0.212882 0.533940
v -0.275039 -0.205013 0.533940
v -0.754188 -0.167251 0.197487
v -0.754188 0.175119 0.197486
v -0.754187 0.175119 -0.192507
v -0.754187 -0.167252 -0.192506
v -0.275034 -0.205015 -0.528955
v -0.275034 0.212881 -0.528955
v 0.549239 0.271311 -0.623408
v 0.549239 -0.263444 -0.623407
v 0.861851 -0.263444 -0.264934
v 0.861851 0.271311 -0.264934
v 0.861848 0.271312 0.269929
v 0.861848 -0.263443 0.269930
v 0.514923 0.629711 0.269927
v 0.514926 0.629710 -0.264936
v -0.316705 0.487412 -0.223813
v -0.316782 0.486816 0.228713
v 0.514926 -0.621843 -0.264935
v 0.514923 -0.621842 0.269928
v -0.316782 -0.478948 0.228714
v -0.316705 -0.479544 -0.223812
v 0.593934 0.003935 0.673920
v -0.266308 0.003935 0.574046
v -0.778876 0.003934 0.212008
v -0.778875 0.187867 0.002490
v -0.778874 0.003934 -0.207028
v -0.778875 -0.179999 0.002490
v -0.266303 0.003933 -0.569061
v 0.593941 0.003933 -0.668927
v 0.892722 0.003934 -0.258760
v 0.895707 0.266651 0.001394
v 0.891864 0.003934 0.261548
v 0.895707 -0.258783 0.001394
v 0.548775 0.675222 0.002495
v -0.319163 0.524712 0.002492
v 0.548775 -0.667354 0.002497
v -0.319163 -0.516844 0.002493
v 0.761331 -0.243532 0.493263
v 0.761331 0.251401 0.493262
v 0.494463 0.494600 0.493261
v -0.299391 0.377023 0.415828
v -0.605927 0.162372 0.360330
v -0.605927 -0.154503 0.360331
v -0.299391 -0.369154 0.415829
v 0.494463 -0.486731 0.493262
v -0.632556 0.318077 0.182966
v -0.632555 0.318077 -0.177985
v -0.605924 0.162371 -0.355349
v -0.605924 -0.154504 -0.355349
v -0.632555 -0.310209 -0.177985
v -0.632556 -0.310209 0.182966
v -0.297355 0.388691 -0.414637
v 0.494468 0.494599 -0.488270
v 0.761336 0.251400 -0.488268
v 0.761336 -0.243533 -0.488268
v 0.494468 -0.486732 -0.488269
v -0.297355 -0.380825 -0.414636
v 0.760160 0.494599 -0.245020
v 0.760158 0.494600 0.250013
v 0.760158 -0.486732 0.250014
v 0.760160 -0.486732 -0.245019
v 0.339029 0.003935 0.702878
v 0.031012 0.003935 0.662575
v 0.339175 -0.271705 0.652295
v 0.031210 -0.249231 0.617166
v 0.339389 -0.495146 0.508387
v 0.031730 -0.453921 0.483655
v 0.031730 0.461790 0.483653
v 0.339389 0.503015 0.508386
v 0.339222 0.279572 0.652289
v 0.031165 0.257095 0.617159
v 0.031019 0.003933 -0.657587
v 0.339036 0.003933 -0.697887
v 0.031232 -0.249905 -0.612666
v 0.339205 -0.272355 -0.647771
v 0.031301 -0.463865 -0.481725
v 0.339221 -0.499875 -0.504880
v 0.339221 0.507741 -0.504882
v 0.031301 0.471731 -0.481726
v 0.031190 0.257767 -0.612661
v 0.339249 0.280219 -0.647767
v 0.339779 0.696217 0.002494
v 0.032222 0.645704 0.002493
v 0.339616 0.643184 0.279075
v 0.031923 0.595233 0.266154
v 0.339633 0.646461 -0.274521
v 0.032009 0.599495 -0.261737
v 0.339776 -0.688349 0.002496
v 0.032224 -0.637837 0.002495
v 0.339697 -0.638587 -0.274517
v 0.031949 -0.591614 -0.261732
v 0.339543 -0.635321 0.279080
v 0.031991 -0.587379 0.266159
v 0.893893 0.003934 0.001532
vt 0.388952 0.282841
vt 0.407243 0.311539
vt 0.356688 0.317179
vt 0.341953 0.280927
vt 0.412609 0.355545
vt 0.367516 0.355778
vt 0.407698 0.399604
vt 0.357087 0.394487
vt 0.389705 0.428490
vt 0.342728 0.430889
vt 0.184826 0.387670
vt 0.175986 0.416246
vt 0.117052 0.401048
vt 0.112076 0.381516
vt 0.187708 0.356708
vt 0.111000 0.357104
vt 0.184506 0.325777
vt 0.111824 0.332682
vt 0.175371 0.297294
vt 0.116598 0.313100
vt 0.072088 0.328920
vt 0.096212 0.300503
vt 0.067378 0.357329
vt 0.028152 0.357532
vt 0.049192 0.313827
vt 0.080074 0.278632
vt 0.072381 0.385688
vt 0.096797 0.413854
vt 0.080886 0.435892
vt 0.049643 0.401017
vt 0.035472 0.436595
vt 0.008588 0.287069
vt 0.069184 0.462675
vt 0.070404 0.491577
vt 0.047692 0.495631
vt 0.022205 0.507371
vt 0.034654 0.278397
vt 0.068096 0.251970
vt 0.046264 0.219239
vt 0.069016 0.223057
vt 0.116531 0.136717
vt 0.130050 0.169334
vt 0.098741 0.607483
vt 0.118808 0.577422
vt 0.131990 0.544667
vt 0.343874 0.624209
vt 0.328206 0.585981
vt 0.380877 0.574276
vt 0.402739 0.595964
vt 0.363047 0.047164
vt 0.427190 0.629105
vt 0.341101 0.087605
vt 0.400255 0.115241
vt 0.325829 0.125994
vt 0.378618 0.137153
vt 0.433598 0.161122
vt 0.395101 0.171018
vt 0.471604 0.577910
vt 0.465562 0.174264
vt 0.458055 0.224997
vt 0.403476 0.214488
vt 0.435606 0.549740
vt 0.397009 0.540243
vt 0.404935 0.496688
vt 0.459402 0.485617
vt 0.467433 0.536268
vt 0.465203 0.355273
vt 0.470379 0.422466
vt 0.441713 0.423889
vt 0.403519 0.454836
vt 0.441005 0.286904
vt 0.402493 0.256354
vt 0.469685 0.288031
vt 0.344132 0.466892
vt 0.347691 0.505186
vt 0.335742 0.546150
vt 0.140949 0.511563
vt 0.153365 0.478792
vt 0.164982 0.446537
vt 0.333776 0.165744
vt 0.346148 0.206583
vt 0.342985 0.244912
vt 0.164055 0.267118
vt 0.152105 0.234985
vt 0.139351 0.202343
vt 0.313636 0.356057
vt 0.249880 0.356386
vt 0.248383 0.320287
vt 0.312184 0.317645
vt 0.312590 0.394481
vt 0.248747 0.392498
vt 0.244934 0.285772
vt 0.309105 0.281251
vt 0.238702 0.249372
vt 0.304748 0.244195
vt 0.245663 0.427048
vt 0.309878 0.430905
vt 0.305920 0.468005
vt 0.239794 0.463508
vt 0.182966 0.057186
vt 0.283363 0.678105
vt 0.282958 0.082290
vt 0.197514 0.096768
vt 0.200189 0.616528
vt 0.285802 0.630126
vt 0.287175 0.124527
vt 0.209803 0.134429
vt 0.292901 0.164339
vt 0.220275 0.172012
vt 0.289570 0.587848
vt 0.212098 0.578746
vt 0.222196 0.541060
vt 0.294868 0.547977
vt 0.300918 0.507383
vt 0.231574 0.502472
vt 0.299355 0.204870
vt 0.230065 0.210497
vt 0.366238 0.664422
vt 0.280036 0.034337
vt 0.096154 0.106865
vt 0.186064 0.656263
vt 0.424361 0.081849
vt 0.469302 0.132581
vt 0.020657 0.207763
vt 0.009318 0.428193
vn 0.577451 -0.591373 0.562875
vn 0.732165 -0.296778 0.613072
vn 0.328533 -0.347923 0.878075
vn 0.285841 -0.687287 0.667781
vn 0.779339 0.000001 0.626602
vn 0.369262 -0.000003 0.929326
vn 0.732165 0.296779 0.613072
vn 0.328545 0.347925 0.878070
vn 0.577451 0.591374 0.562874
vn 0.285857 0.687283 0.667779
vn -0.375302 0.332321 0.865281
vn -0.378391 0.666191 0.642658
vn -0.508497 0.610857 0.606864
vn -0.559730 0.298750 0.772950
vn -0.375802 -0.000006 0.926700
vn -0.568756 0.000001 0.822506
vn -0.375294 -0.332320 0.865285
vn -0.559730 -0.298749 0.772950
vn -0.378383 -0.666196 0.642658
vn -0.508497 -0.610856 0.606866
vn -0.845972 -0.373470 0.380594
vn -0.571318 -0.766098 0.294432
vn -0.900291 0.000001 0.435288
vn -1.000000 0.000000 -0.000005
vn -0.907200 -0.420700 -0.000004
vn -0.582447 -0.812869 0.000392
vn -0.845972 0.373471 0.380593
vn -0.571318 0.766098 0.294430
vn -0.582447 0.812869 0.000390
vn -0.907200 0.420700 -0.000005
vn -0.846643 0.372480 -0.380072
vn -0.900288 -0.000000 -0.435296
vn -0.575024 0.766624 -0.285717
vn -0.518503 0.605877 -0.603380
vn -0.561493 0.292355 -0.774115
vn -0.568749 -0.000001 -0.822511
vn -0.846643 -0.372481 -0.380071
vn -0.575024 -0.766625 -0.285715
vn -0.561493 -0.292357 -0.774115
vn -0.518503 -0.605879 -0.603379
vn -0.376080 -0.319776 -0.869659
vn -0.383650 -0.663720 -0.642097
vn -0.376126 -0.000008 -0.926569
vn -0.376088 0.319772 -0.869657
vn -0.383649 0.663733 -0.642085
vn 0.330756 0.346556 -0.877781
vn 0.294109 0.684128 -0.667435
vn 0.577456 0.591373 -0.562870
vn 0.731013 0.297876 -0.613913
vn 0.369672 -0.000005 -0.929162
vn 0.778080 -0.000001 -0.628165
vn 0.330745 -0.346558 -0.877784
vn 0.731013 -0.297877 -0.613913
vn 0.294112 -0.684115 -0.667447
vn 0.577456 -0.591374 -0.562869
vn 0.922009 -0.273007 -0.274532
vn 0.698626 -0.653875 -0.290462
vn 0.965586 -0.000000 -0.260084
vn 1.000000 0.000000 0.000999
vn 0.965232 -0.261395 -0.000225
vn 0.737345 -0.675516 0.000178
vn 0.922009 0.273006 -0.274532
vn 0.698626 0.653875 -0.290464
vn 0.737345 0.675516 0.000177
vn 0.965232 0.261395 -0.000225
vn 0.965952 0.000000 0.258722
vn 0.922681 0.271427 0.273838
vn 0.699151 0.653469 0.290115
vn 0.922681 -0.271427 0.273839
vn 0.699151 -0.653469 0.290116
vn 0.313460 0.888787 0.334365
vn 0.349714 0.936856 0.001126
vn 0.319559 0.887465 -0.332095
vn -0.393501 0.868746 -0.300729
vn -0.395979 0.918255 0.002880
vn -0.389601 0.863749 0.319607
vn 0.319576 -0.887460 -0.332092
vn 0.349711 -0.936857 0.001142
vn 0.313438 -0.888793 0.334369
vn -0.389590 -0.863753 0.319610
vn -0.395978 -0.918256 0.002899
vn -0.393510 -0.868743 -0.300725
vn -0.021648 0.000012 0.999766
vn -0.200815 0.000010 0.979629
vn -0.208742 -0.359238 0.909601
vn -0.031353 -0.356341 0.933830
vn -0.031346 0.356343 0.933829
vn -0.208737 0.359241 0.909602
vn -0.226487 -0.702974 0.674189
vn -0.055487 -0.713898 0.698048
vn -0.238407 -0.908184 0.344040
vn -0.065876 -0.934274 0.350419
vn -0.226459 0.702982 0.674190
vn -0.055513 0.713907 0.698037
vn -0.065867 0.934276 0.350415
vn -0.238401 0.908187 0.344038
vn -0.201111 0.000007 -0.979569
vn -0.021119 0.000009 -0.999777
vn -0.027043 -0.350652 -0.936115
vn -0.206559 -0.348321 -0.914334
vn -0.206555 0.348319 -0.914335
vn -0.027037 0.350649 -0.936117
vn -0.044169 -0.712161 -0.700626
vn -0.223799 -0.701566 -0.676550
vn -0.056601 -0.938476 -0.340674
vn -0.237376 -0.914711 -0.327041
vn -0.044164 0.712130 -0.700657
vn -0.223803 0.701548 -0.676566
vn -0.237380 0.914710 -0.327043
vn -0.056609 0.938475 -0.340677
vn -0.061618 0.998086 0.005227
vn -0.242784 0.970064 0.005691
vn -0.061617 -0.998086 0.005188
vn -0.242786 -0.970063 0.005670
s 1
g FoodShortRUpperLeg
usemtl Delete:blinn2SG
f 1/1/1 58/2/2 18/3/3 65/4/4
f 58/2/2 13/5/5 42/6/6 18/3/3
f 13/5/5 59/7/7 19/8/8 42/6/6
f 59/7/7 2/9/9 60/10/10 19/8/8
f 20/11/11 61/12/12 4/13/13 62/14/14
f 43/15/15 20/11/11 62/14/14 14/16/16
f 21/17/17 43/15/15 14/16/16 63/18/18
f 64/19/19 21/17/17 63/18/18 3/20/20
f 3/20/20 63/18/18 22/21/21 71/22/22
f 63/18/18 14/16/16 44/23/23 22/21/21
f 22/21/21 44/23/23 17/24/24 47/25/25
f 71/22/22 22/21/21 47/25/25 9/26/26
f 14/16/16 62/14/14 23/27/27 44/23/23
f 62/14/14 4/13/13 66/28/28 23/27/27
f 23/27/27 66/28/28 15/29/29 45/30/30
f 44/23/23 23/27/27 45/30/30 17/24/24
f 17/24/24 45/30/30 24/31/31 46/125/32
f 45/30/30 15/29/29 67/33/33 24/31/31
f 24/31/31 67/33/33 6/34/34 68/35/35
f 46/125/32 24/31/31 68/35/35 16/36/36
f 9/26/26 47/25/25 25/37/37 70/38/38
f 47/25/25 17/24/24 46/32/32 25/37/37
f 25/37/37 46/32/32 16/124/36 69/39/39
f 70/38/38 25/37/37 69/39/39 5/40/40
f 5/40/40 69/39/39 26/41/41 77/42/42
f 69/39/39 16/124/36 48/120/43 26/41/41
f 16/36/36 68/35/35 27/44/44 48/43/43
f 68/35/35 6/34/34 72/45/45 27/44/44
f 28/46/46 73/47/47 8/48/48 74/49/49
f 49/118/50 28/46/46 74/49/49 10/51/51
f 29/52/52 49/50/50 10/122/51 75/53/53
f 76/54/54 29/52/52 75/53/53 7/55/55
f 7/55/55 75/53/53 30/56/56 81/57/57
f 75/53/53 10/122/51 50/123/58 30/56/56
f 30/56/56 114/59/59 53/60/60
f 81/57/57 30/56/56 53/60/60 12/61/61
f 10/51/51 74/49/49 31/62/62 50/58/58
f 74/49/49 8/48/48 78/63/63 31/62/62
f 31/62/62 78/63/63 11/64/64 51/65/65
f 50/58/58 31/62/62 114/66/59
f 52/67/66 114/68/59 32/69/67
f 51/65/65 11/64/64 79/70/68 32/69/67
f 32/69/67 79/70/68 2/9/9 59/7/7
f 52/67/66 32/69/67 59/7/7 13/5/5
f 12/61/61 53/60/60 33/71/69 80/72/70
f 53/60/60 114/73/59 33/71/69
f 33/71/69 52/67/66 13/5/5 58/2/2
f 80/72/70 33/71/69 58/2/2 1/1/1
f 2/9/9 79/70/68 34/74/71 60/10/10
f 79/70/68 11/64/64 54/75/72 34/74/71
f 11/64/64 78/63/63 35/76/73 54/75/72
f 78/63/63 8/48/48 73/47/47 35/76/73
f 36/77/74 72/45/45 6/34/34 67/33/33
f 55/78/75 36/77/74 67/33/33 15/29/29
f 37/79/76 55/78/75 15/29/29 66/28/28
f 61/12/12 37/79/76 66/28/28 4/13/13
f 7/55/55 81/57/57 38/80/77 76/54/54
f 81/57/57 12/61/61 56/81/78 38/80/77
f 12/61/61 80/72/70 39/82/79 56/81/78
f 80/72/70 1/1/1 65/4/4 39/82/79
f 40/83/80 64/19/19 3/20/20 71/22/22
f 57/84/81 40/83/80 71/22/22 9/26/26
f 41/85/82 57/84/81 9/26/26 70/38/38
f 77/42/42 41/85/82 70/38/38 5/40/40
f 82/86/83 83/87/84 85/88/85 84/89/86
f 83/87/84 82/86/83 90/90/87 91/91/88
f 84/89/86 85/88/85 87/92/89 86/93/90
f 86/93/90 87/92/89 113/94/91 112/95/92
f 88/96/93 89/97/94 104/98/95 105/99/96
f 89/97/94 88/96/93 91/91/88 90/90/87
f 92/100/97 93/119/98 95/102/99 94/103/100
f 93/101/98 92/121/97 100/104/101 101/105/102
f 94/103/100 95/102/99 97/106/103 96/107/104
f 96/107/104 97/106/103 110/108/105 111/109/106
f 98/110/107 99/111/108 107/112/109 106/113/110
f 99/111/108 98/110/107 101/105/102 100/104/101
f 102/114/111 103/115/112 105/99/96 104/98/95
f 103/115/112 102/114/111 106/113/110 107/112/109
f 108/116/113 109/117/114 111/109/106 110/108/105
f 109/117/114 108/116/113 112/95/92 113/94/91
f 18/3/3 42/6/6 82/86/83 84/89/86
f 65/4/4 18/3/3 84/89/86 86/93/90
f 19/8/8 60/10/10 89/97/94 90/90/87
f 42/6/6 19/8/8 90/90/87 82/86/83
f 83/87/84 91/91/88 20/11/11 43/15/15
f 91/91/88 88/96/93 61/12/12 20/11/11
f 87/92/89 85/88/85 21/17/17 64/19/19
f 85/88/85 83/87/84 43/15/15 21/17/17
f 26/41/41 48/120/43 92/100/97 94/103/100
f 77/42/42 26/41/41 94/103/100 96/107/104
f 27/44/44 72/45/45 99/111/108 100/104/101
f 48/43/43 27/44/44 100/104/101 92/121/97
f 93/101/98 101/105/102 28/46/46 49/118/50
f 101/105/102 98/110/107 73/47/47 28/46/46
f 97/106/103 95/102/99 29/52/52 76/54/54
f 95/102/99 93/119/98 49/50/50 29/52/52
f 34/74/71 54/75/72 102/114/111 104/98/95
f 60/10/10 34/74/71 104/98/95 89/97/94
f 35/76/73 73/47/47 98/110/107 106/113/110
f 54/75/72 35/76/73 106/113/110 102/114/111
f 103/115/112 107/112/109 36/77/74 55/78/75
f 107/112/109 99/111/108 72/45/45 36/77/74
f 88/96/93 105/99/96 37/79/76 61/12/12
f 105/99/96 103/115/112 55/78/75 37/79/76
f 38/80/77 56/81/78 108/116/113 110/108/105
f 76/54/54 38/80/77 110/108/105 97/106/103
f 39/82/79 65/4/4 86/93/90 112/95/92
f 56/81/78 39/82/79 112/95/92 108/116/113
f 109/117/114 113/94/91 40/83/80 57/84/81
f 113/94/91 87/92/89 64/19/19 40/83/80
f 96/107/104 111/109/106 41/85/82 77/42/42
f 111/109/106 109/117/114 57/84/81 41/85/82
f 114/66/59 31/62/62 51/65/65
f 33/71/69 114/73/59 52/67/66
f 30/56/56 50/123/58 114/59/59
f 32/69/67 114/68/59 51/65/65
