# This file uses centimeters as units for non-parametric coordinates.

mtllib RibsLHorn.mtl
g default
v -0.146189 0.382278 0.382335
v 0.048869 0.298898 0.540774
v 0.243927 0.215515 0.382335
v 0.324723 0.180979 -0.000169
v 0.243927 0.215515 -0.382676
v 0.048869 0.298898 -0.541116
v -0.146189 0.382278 -0.382676
v -0.226985 0.416817 -0.000169
v 0.140696 0.877463 0.382335
v 0.302769 0.740598 0.540774
v 0.464843 0.603733 0.382335
v 0.531976 0.547040 -0.000169
v 0.464843 0.603733 -0.382676
v 0.302769 0.740598 -0.541116
v 0.140696 0.877463 -0.382676
v 0.073563 0.934154 -0.000169
v 0.573890 1.265550 0.382335
v 0.684511 1.084547 0.540774
v 0.795132 0.903542 0.382335
v 0.840953 0.828567 -0.000169
v 0.795132 0.903542 -0.382676
v 0.684511 1.084547 -0.541116
v 0.573890 1.265550 -0.382676
v 0.528069 1.340526 -0.000169
v 0.684511 1.084547 -0.000169
v -0.280105 -0.147104 0.382335
v -0.060817 -0.125563 0.540771
v 0.148654 -0.142774 0.382335
v 0.251437 -0.090533 -0.000169
v 0.146716 -0.150058 -0.382676
v -0.063416 -0.135622 -0.541116
v -0.283226 -0.159445 -0.382676
v -0.354961 -0.093382 0.000461
vt 0.912280 0.254662
vt 0.899635 0.254662
vt 0.899635 0.228743
vt 0.912280 0.228743
vt 0.887858 0.254662
vt 0.887858 0.228743
vt 0.865532 0.254662
vt 0.865532 0.228743
vt 0.989533 0.254662
vt 0.967207 0.254662
vt 0.967207 0.228743
vt 0.989533 0.228743
vt 0.955430 0.254662
vt 0.955430 0.228743
vt 0.942785 0.254662
vt 0.942785 0.228743
vt 0.927532 0.254662
vt 0.927532 0.228743
vt 0.899635 0.202823
vt 0.912280 0.202823
vt 0.887858 0.202823
vt 0.865532 0.202823
vt 0.967207 0.202823
vt 0.989533 0.202823
vt 0.955430 0.202823
vt 0.942785 0.202823
vt 0.927532 0.202823
vt 0.899635 0.176904
vt 0.912280 0.176904
vt 0.887858 0.176904
vt 0.865532 0.176904
vt 0.967207 0.176904
vt 0.989533 0.176904
vt 0.955430 0.176904
vt 0.942785 0.176904
vt 0.927532 0.176904
vt 0.345435 0.978726
vt 0.332793 0.988530
vt 0.332793 0.953721
vt 0.320151 0.978726
vt 0.314914 0.955060
vt 0.320151 0.931393
vt 0.332793 0.921591
vt 0.345435 0.931393
vt 0.350671 0.955060
vn -0.868237 0.219568 0.444921
vn -0.161980 0.039544 0.986001
vn -0.101232 0.039119 0.994093
vn -0.821767 0.340493 0.456907
vn 0.810116 -0.214989 0.545428
vn 0.786202 -0.336227 0.518496
vn 0.966000 -0.258530 -0.002464
vn 0.918535 -0.395340 -0.000562
vn 0.807256 -0.214183 -0.549967
vn 0.786096 -0.335263 -0.519280
vn -0.166449 0.040707 -0.985210
vn -0.101730 0.039089 -0.994044
vn -0.866630 0.219002 -0.448320
vn -0.821917 0.339398 -0.457452
vn -0.969696 0.244292 -0.003309
vn -0.924008 0.382374 -0.000722
vn -0.082644 0.067191 0.994312
vn -0.689424 0.562234 0.456714
vn 0.668489 -0.535364 0.516244
vn 0.781551 -0.623841 0.000000
vn 0.668490 -0.535365 -0.516241
vn -0.082644 0.067191 -0.994312
vn -0.689425 0.562235 -0.456711
vn -0.774398 0.632698 -0.000000
vn -0.079092 0.089573 0.992835
vn -0.596177 0.665527 0.449052
vn 0.576223 -0.634901 0.514652
vn 0.672790 -0.739834 0.000000
vn 0.576225 -0.634902 -0.514650
vn -0.079092 0.089573 -0.992835
vn -0.596178 0.665528 -0.449049
vn -0.666889 0.745157 -0.000000
vn 0.853266 0.521477 0.000000
vn 0.853266 0.521476 -0.000000
vn 0.853267 0.521475 -0.000000
vn 0.853267 0.521474 -0.000000
vn 0.853268 0.521473 -0.000000
vn 0.853267 0.521474 0.000000
vn 0.853266 0.521476 -0.000000
vn 0.853265 0.521477 -0.000000
vn 0.853266 0.521475 -0.000000
s 1
g FoodLHorn
usemtl Ribs_blinn1SG
f 26/1/1 27/2/2 2/3/3 1/4/4
f 27/2/2 28/5/5 3/6/6 2/3/3
f 28/5/5 29/7/7 4/8/8 3/6/6
f 29/9/7 30/10/9 5/11/10 4/12/8
f 30/10/9 31/13/11 6/14/12 5/11/10
f 31/13/11 32/15/13 7/16/14 6/14/12
f 32/15/13 33/17/15 8/18/16 7/16/14
f 33/17/15 26/1/1 1/4/4 8/18/16
f 1/4/4 2/3/3 10/19/17 9/20/18
f 2/3/3 3/6/6 11/21/19 10/19/17
f 3/6/6 4/8/8 12/22/20 11/21/19
f 4/12/8 5/11/10 13/23/21 12/24/20
f 5/11/10 6/14/12 14/25/22 13/23/21
f 6/14/12 7/16/14 15/26/23 14/25/22
f 7/16/14 8/18/16 16/27/24 15/26/23
f 8/18/16 1/4/4 9/20/18 16/27/24
f 9/20/18 10/19/17 18/28/25 17/29/26
f 10/19/17 11/21/19 19/30/27 18/28/25
f 11/21/19 12/22/20 20/31/28 19/30/27
f 12/24/20 13/23/21 21/32/29 20/33/28
f 13/23/21 14/25/22 22/34/30 21/32/29
f 14/25/22 15/26/23 23/35/31 22/34/30
f 15/26/23 16/27/24 24/36/32 23/35/31
f 16/27/24 9/20/18 17/29/26 24/36/32
s 2
f 17/37/33 18/38/34 25/39/35
f 18/38/34 19/40/36 25/39/35
f 19/40/36 20/41/37 25/39/35
f 20/41/37 21/42/38 25/39/35
f 21/42/38 22/43/39 25/39/35
f 22/43/39 23/44/40 25/39/35
f 23/44/40 24/45/41 25/39/35
f 24/45/41 17/37/33 25/39/35
