# This file uses centimeters as units for non-parametric coordinates.

mtllib ChiDogMediumLUpperArm.mtl
g default
v -1.004898 0.169951 -0.274608
v -0.973489 0.290558 -0.158163
v -0.930581 0.334704 0.000903
v -0.887673 0.290559 0.159971
v -0.856263 0.169951 0.276415
v -0.844766 0.005199 0.319039
v -0.856263 -0.159554 0.276417
v -0.887673 -0.280161 0.159969
v -0.930581 -0.324307 0.000905
v -0.973489 -0.280161 -0.158163
v -1.004898 -0.159554 -0.274608
v -1.016395 0.005199 -0.317230
v -0.688186 0.169951 -0.345289
v -0.667109 0.290558 -0.226537
v -0.638315 0.334704 -0.064321
v -0.609524 0.290558 0.097897
v -0.588444 0.169951 0.216649
v -0.580730 0.005199 0.260115
v -0.588444 -0.159554 0.216648
v -0.609524 -0.280161 0.097897
v -0.638315 -0.324307 -0.064320
v -0.667109 -0.280161 -0.226537
v -0.688186 -0.159554 -0.345288
v -0.695902 0.005199 -0.388754
v -0.366497 0.169951 -0.387921
v -0.355914 0.290558 -0.267780
v -0.341458 0.334704 -0.103664
v -0.327001 0.290558 0.060454
v -0.316418 0.169951 0.180595
v -0.312545 0.005199 0.224571
v -0.316418 -0.159554 0.180596
v -0.327001 -0.280161 0.060454
v -0.341458 -0.324307 -0.103663
v -0.355914 -0.280161 -0.267780
v -0.366497 -0.159554 -0.387923
v -0.370372 0.005199 -0.431897
v -0.042310 0.169951 -0.402182
v -0.042303 0.290559 -0.281575
v -0.042294 0.334704 -0.116824
v -0.042284 0.290558 0.047930
v -0.042277 0.169951 0.168537
v -0.042275 0.005199 0.212683
v -0.042277 -0.159554 0.168537
v -0.042284 -0.280161 0.047930
v -0.042294 -0.324307 -0.116822
v -0.042303 -0.280161 -0.281575
v -0.042310 -0.159554 -0.402184
v -0.042312 0.005199 -0.446327
v 0.281879 0.169951 -0.387958
v 0.271311 0.290558 -0.267816
v 0.256873 0.334704 -0.103699
v 0.242434 0.290558 0.060421
v 0.231866 0.169951 0.180563
v 0.227997 0.005199 0.224540
v 0.231866 -0.159554 0.180565
v 0.242434 -0.280161 0.060421
v 0.256873 -0.324307 -0.103697
v 0.271311 -0.280161 -0.267816
v 0.281879 -0.159554 -0.387960
v 0.285749 0.005199 -0.431934
v 0.603573 0.169951 -0.345363
v 0.582510 0.290558 -0.226608
v 0.553734 0.334704 -0.064389
v 0.524961 0.290558 0.097833
v 0.503895 0.169951 0.216587
v 0.496186 0.005199 0.260053
v 0.503895 -0.159554 0.216585
v 0.524961 -0.280161 0.097833
v 0.553734 -0.324307 -0.064388
v 0.582510 -0.280161 -0.226608
v 0.603573 -0.159554 -0.345362
v 0.611284 0.005199 -0.388829
v 0.920293 0.169951 -0.274718
v 0.888897 0.290558 -0.158269
v 0.846007 0.334704 0.000802
v 0.803119 0.290559 0.159875
v 0.771721 0.169951 0.276322
v 0.760229 0.005199 0.318947
v 0.771721 -0.159554 0.276324
v 0.803119 -0.280161 0.159873
v 0.846007 -0.324307 0.000803
v 0.888897 -0.280161 -0.158269
v 0.920293 -0.159554 -0.274718
v 0.931785 0.005199 -0.317341
v 1.045110 0.157410 -0.215968
v 1.012150 0.268837 -0.109529
v 0.967122 0.309621 0.035871
v 0.922094 0.268837 0.181269
v 0.889131 0.157410 0.287707
v 0.877066 0.005199 0.326669
v 0.889131 -0.147013 0.287709
v 0.922094 -0.258440 0.181270
v 0.967122 -0.299224 0.035869
v 1.012150 -0.258440 -0.109528
v 1.045110 -0.147013 -0.215968
v 1.057178 0.005199 -0.254926
v 1.134424 0.121696 -0.121695
v 1.106656 0.206978 -0.041062
v 1.068724 0.238194 0.069089
v 1.030792 0.206978 0.179237
v 1.003022 0.121696 0.259872
v 0.992860 0.005199 0.289387
v 1.003022 -0.111299 0.259872
v 1.030792 -0.196581 0.179238
v 1.068724 -0.227797 0.069088
v 1.106656 -0.196581 -0.041060
v 1.134424 -0.111299 -0.121696
v 1.144590 0.005198 -0.151210
v 1.173721 0.068247 -0.009433
v 1.157783 0.114401 0.033882
v 1.136010 0.131295 0.093051
v 1.114238 0.114401 0.152221
v 1.098300 0.068247 0.195536
v 1.092466 0.005198 0.211390
v 1.098300 -0.057850 0.195536
v 1.114238 -0.104004 0.152219
v 1.136010 -0.120898 0.093052
v 1.157783 -0.104004 0.033880
v 1.173721 -0.057850 -0.009433
v 1.179555 0.005199 -0.025287
v 1.159518 0.005199 0.101799
v -1.015185 0.143679 -0.224703
v -0.988786 0.245054 -0.126827
v -0.952717 0.005198 0.006876
v -0.952719 0.282160 0.006876
v -0.916653 0.245055 0.140578
v -0.890252 0.143679 0.238453
v -0.880588 0.005199 0.274281
v -0.890252 -0.133282 0.238455
v -0.916653 -0.234658 0.140576
v -0.952719 -0.271763 0.006876
v -0.988786 -0.234658 -0.126827
v -1.015185 -0.133282 -0.224703
v -1.024848 0.005199 -0.260528
vt 0.313898 0.795575
vt 0.313940 0.768542
vt 0.361449 0.768542
vt 0.361439 0.795575
vt 0.313969 0.741509
vt 0.361461 0.741509
vt 0.313987 0.714476
vt 0.361476 0.714476
vt 0.314025 0.687442
vt 0.361493 0.687443
vt 0.314060 0.660409
vt 0.361512 0.660409
vt 0.314061 0.633376
vt 0.361511 0.633377
vt 0.314060 0.606343
vt 0.361512 0.930740
vt 0.314025 0.903707
vt 0.361493 0.903707
vt 0.313986 0.876674
vt 0.361476 0.876674
vt 0.313969 0.849641
vt 0.361460 0.849640
vt 0.313940 0.822607
vt 0.361448 0.822608
vt 0.408948 0.768542
vt 0.408953 0.795575
vt 0.408942 0.741509
vt 0.408943 0.714476
vt 0.408950 0.687443
vt 0.408952 0.660410
vt 0.408960 0.633377
vt 0.408952 0.930739
vt 0.408949 0.903707
vt 0.408943 0.876674
vt 0.408942 0.849640
vt 0.408948 0.822608
vt 0.456402 0.768542
vt 0.456393 0.795575
vt 0.456414 0.741509
vt 0.456418 0.714476
vt 0.456437 0.687443
vt 0.456444 0.660410
vt 0.456448 0.633376
vt 0.456444 0.930740
vt 0.456436 0.903707
vt 0.456418 0.876674
vt 0.456414 0.849641
vt 0.456402 0.822607
vt 0.503883 0.768542
vt 0.503891 0.795575
vt 0.503890 0.741509
vt 0.503906 0.714476
vt 0.503910 0.687443
vt 0.503929 0.660410
vt 0.503936 0.633377
vt 0.503929 0.930739
vt 0.503910 0.903707
vt 0.503906 0.876674
vt 0.503890 0.849641
vt 0.503883 0.822608
vt 0.551351 0.768542
vt 0.551338 0.795575
vt 0.551363 0.741508
vt 0.551378 0.714476
vt 0.551394 0.687443
vt 0.551415 0.660410
vt 0.551399 0.633377
vt 0.551415 0.930740
vt 0.551394 0.903707
vt 0.551378 0.876674
vt 0.551363 0.849641
vt 0.551351 0.822608
vt 0.598848 0.768542
vt 0.598848 0.795575
vt 0.598848 0.741509
vt 0.598848 0.714476
vt 0.598848 0.687443
vt 0.598848 0.660410
vt 0.598848 0.633377
vt 0.598848 0.930740
vt 0.598848 0.903707
vt 0.598848 0.876674
vt 0.598848 0.849640
vt 0.598848 0.822607
vt 0.653720 0.909494
vt 0.626983 0.882059
vt 0.648466 0.870638
vt 0.666463 0.889101
vt 0.617860 0.845265
vt 0.642326 0.845871
vt 0.626043 0.808898
vt 0.646934 0.821373
vt 0.654108 0.782825
vt 0.665824 0.803823
vt 0.691782 0.773961
vt 0.691182 0.797857
vt 0.728969 0.784682
vt 0.716211 0.805074
vt 0.755706 0.812116
vt 0.734208 0.823538
vt 0.767582 0.848980
vt 0.743101 0.848372
vt 0.756646 0.885277
vt 0.735741 0.872803
vt 0.728581 0.911351
vt 0.716850 0.890352
vt 0.690908 0.920215
vt 0.691493 0.896319
vt 0.665169 0.861742
vt 0.676358 0.873226
vt 0.661350 0.846344
vt 0.665928 0.831152
vt 0.674920 0.820172
vt 0.690686 0.816462
vt 0.706251 0.820949
vt 0.720192 0.832499
vt 0.724012 0.847898
vt 0.719433 0.863089
vt 0.707689 0.874003
vt 0.691921 0.877710
vt 0.679439 0.854152
vt 0.684820 0.859662
vt 0.677607 0.846746
vt 0.679804 0.839446
vt 0.685452 0.834200
vt 0.693033 0.832418
vt 0.700509 0.834574
vt 0.705896 0.840093
vt 0.707722 0.847493
vt 0.705531 0.854799
vt 0.699878 0.860035
vt 0.692302 0.861830
vt 0.692659 0.847120
vt 0.940427 0.658926
vt 0.956270 0.654681
vt 0.956270 0.686366
vt 0.928830 0.670523
vt 0.924585 0.686366
vt 0.928830 0.702208
vt 0.940427 0.713806
vt 0.956270 0.718051
vt 0.972112 0.713806
vt 0.983710 0.702208
vt 0.987955 0.686366
vt 0.983710 0.670523
vt 0.972112 0.658926
vt 0.937422 0.653720
vt 0.956270 0.648670
vt 0.923624 0.667518
vt 0.918574 0.686366
vt 0.923624 0.705214
vt 0.937422 0.719011
vt 0.956270 0.724062
vt 0.975118 0.719011
vt 0.988916 0.705214
vt 0.993966 0.686366
vt 0.988916 0.667518
vt 0.975118 0.653720
vt 0.551415 0.606344
vt 0.598848 0.606344
vt 0.503929 0.606344
vt 0.456444 0.606344
vt 0.408953 0.606343
vt 0.361512 0.606343
vt 0.314059 0.930739
vn -0.307242 0.492771 -0.814112
vn -0.231067 0.855925 -0.462602
vn -0.089139 0.860145 -0.502199
vn -0.151927 0.494240 -0.855947
vn -0.126487 0.991749 0.020844
vn -0.002393 0.999906 -0.013483
vn -0.021475 0.861418 0.507443
vn 0.085545 0.872014 0.481948
vn 0.055555 0.498257 0.865248
vn 0.150726 0.506137 0.849180
vn 0.083770 0.000001 0.996485
vn 0.174765 0.000000 0.984610
vn 0.055558 -0.498258 0.865247
vn 0.150726 -0.506139 0.849179
vn -0.021475 -0.861417 0.507445
vn 0.085544 -0.872013 0.481950
vn -0.126486 -0.991749 0.020844
vn -0.002393 -0.999906 -0.013483
vn -0.231065 -0.855925 -0.462602
vn -0.089139 -0.860146 -0.502198
vn -0.307240 -0.492771 -0.814113
vn -0.151928 -0.494240 -0.855947
vn -0.335027 -0.000001 -0.942208
vn -0.174765 -0.000001 -0.984610
vn -0.044756 0.860145 -0.508082
vn -0.076281 0.494240 -0.865972
vn -0.001202 0.999906 -0.013640
vn 0.042952 0.872014 0.487593
vn 0.075680 0.506139 0.859125
vn 0.087749 0.000001 0.996143
vn 0.075679 -0.506138 0.859126
vn 0.042951 -0.872012 0.487595
vn -0.001202 -0.999906 -0.013640
vn -0.044757 -0.860146 -0.508080
vn -0.076283 -0.494239 -0.865973
vn -0.087749 0.000002 -0.996143
vn -0.000029 0.860144 -0.510051
vn -0.000050 0.494239 -0.869326
vn -0.000001 0.999906 -0.013693
vn 0.000028 0.872013 0.489482
vn 0.000049 0.506137 0.862453
vn 0.000057 0.000001 1.000000
vn 0.000049 -0.506138 0.862453
vn 0.000028 -0.872013 0.489483
vn -0.000001 -0.999906 -0.013693
vn -0.000029 -0.860147 -0.510046
vn -0.000050 -0.494238 -0.869327
vn -0.000057 0.000005 -1.000000
vn 0.044698 0.860144 -0.508089
vn 0.076182 0.494240 -0.865981
vn 0.001200 0.999906 -0.013641
vn -0.042896 0.872014 0.487598
vn -0.075582 0.506139 0.859134
vn -0.087635 0.000001 0.996153
vn -0.075581 -0.506138 0.859134
vn -0.042896 -0.872013 0.487599
vn 0.001200 -0.999906 -0.013641
vn 0.044699 -0.860147 -0.508085
vn 0.076184 -0.494239 -0.865982
vn 0.087635 0.000002 -0.996153
vn 0.089081 0.860145 -0.502210
vn 0.151829 0.494239 -0.855965
vn 0.002392 0.999906 -0.013483
vn -0.085489 0.872013 0.481959
vn -0.150629 0.506137 0.849198
vn -0.174652 0.000000 0.984630
vn -0.150629 -0.506138 0.849197
vn -0.085489 -0.872012 0.481961
vn 0.002392 -0.999906 -0.013483
vn 0.089082 -0.860146 -0.502209
vn 0.151830 -0.494239 -0.855965
vn 0.174653 -0.000001 -0.984630
vn 0.171162 0.860411 -0.479996
vn 0.254439 0.494965 -0.830825
vn 0.056603 0.998391 0.003408
vn -0.058850 0.868837 0.491588
vn -0.143921 0.503402 0.851982
vn -0.175177 0.000002 0.984537
vn -0.143925 -0.503403 0.851981
vn -0.058851 -0.868837 0.491588
vn 0.056603 -0.998391 0.003410
vn 0.171161 -0.860411 -0.479996
vn 0.254438 -0.494965 -0.830826
vn 0.284793 -0.000001 -0.958589
vn 0.467059 0.810914 -0.352525
vn 0.559477 0.468720 -0.683584
vn 0.341757 0.934595 0.098660
vn 0.217745 0.807519 0.548178
vn 0.127926 0.465300 0.875860
vn 0.095280 0.000005 0.995450
vn 0.127928 -0.465298 0.875861
vn 0.217745 -0.807520 0.548177
vn 0.341757 -0.934596 0.098656
vn 0.467060 -0.810913 -0.352528
vn 0.559476 -0.468722 -0.683583
vn 0.593438 0.000001 -0.804880
vn 0.738540 0.655945 -0.155867
vn 0.820338 0.381538 -0.425998
vn 0.629143 0.749251 0.206886
vn 0.522681 0.641316 0.561710
vn 0.446761 0.366893 0.815963
vn 0.419430 0.000002 0.907788
vn 0.446767 -0.366890 0.815960
vn 0.522684 -0.641317 0.561706
vn 0.629143 -0.749251 0.206886
vn 0.738540 -0.655945 -0.155868
vn 0.820335 -0.381539 -0.426003
vn 0.850622 0.000002 -0.525777
vn 0.902001 0.427950 0.057034
vn 0.961165 0.249397 -0.118169
vn 0.823009 0.487708 0.291201
vn 0.746182 0.416668 0.519230
vn 0.691358 0.238114 0.682148
vn 0.671599 -0.000002 0.740915
vn 0.691359 -0.238116 0.682146
vn 0.746183 -0.416666 0.519231
vn 0.823009 -0.487706 0.291202
vn 0.902001 -0.427951 0.057027
vn 0.961165 -0.249396 -0.118169
vn 0.983099 0.000000 -0.183075
vn 0.938460 -0.000001 0.345389
vn -0.973957 0.136175 0.181285
vn -0.988947 0.078617 0.125712
vn -0.965491 -0.000000 0.260436
vn -0.953478 0.157245 0.257203
vn -0.933004 0.136179 0.333105
vn -0.918018 0.078625 0.388667
vn -0.912531 0.000003 0.409009
vn -0.918017 -0.078626 0.388668
vn -0.933003 -0.136180 0.333108
vn -0.953477 -0.157244 0.257208
vn -0.973957 -0.136175 0.181284
vn -0.988947 -0.078617 0.125713
vn -0.994432 0.000000 0.105383
s 1
g FoodMediumLUpperArm
usemtl blinn1SG
f 1/1/1 2/2/2 14/3/3 13/4/4
f 2/2/2 3/5/5 15/6/6 14/3/3
f 3/5/5 4/7/7 16/8/8 15/6/6
f 4/7/7 5/9/9 17/10/10 16/8/8
f 5/9/9 6/11/11 18/12/12 17/10/10
f 6/11/11 7/13/13 19/14/14 18/12/12
f 7/13/13 8/15/15 20/164/16 19/14/14
f 8/165/15 9/17/17 21/18/18 20/16/16
f 9/17/17 10/19/19 22/20/20 21/18/18
f 10/19/19 11/21/21 23/22/22 22/20/20
f 11/21/21 12/23/23 24/24/24 23/22/22
f 12/23/23 1/1/1 13/4/4 24/24/24
f 13/4/4 14/3/3 26/25/25 25/26/26
f 14/3/3 15/6/6 27/27/27 26/25/25
f 15/6/6 16/8/8 28/28/28 27/27/27
f 16/8/8 17/10/10 29/29/29 28/28/28
f 17/10/10 18/12/12 30/30/30 29/29/29
f 18/12/12 19/14/14 31/31/31 30/30/30
f 19/14/14 20/164/16 32/163/32 31/31/31
f 20/16/16 21/18/18 33/33/33 32/32/32
f 21/18/18 22/20/20 34/34/34 33/33/33
f 22/20/20 23/22/22 35/35/35 34/34/34
f 23/22/22 24/24/24 36/36/36 35/35/35
f 24/24/24 13/4/4 25/26/26 36/36/36
f 25/26/26 26/25/25 38/37/37 37/38/38
f 26/25/25 27/27/27 39/39/39 38/37/37
f 27/27/27 28/28/28 40/40/40 39/39/39
f 28/28/28 29/29/29 41/41/41 40/40/40
f 29/29/29 30/30/30 42/42/42 41/41/41
f 30/30/30 31/31/31 43/43/43 42/42/42
f 31/31/31 32/163/32 44/162/44 43/43/43
f 32/32/32 33/33/33 45/45/45 44/44/44
f 33/33/33 34/34/34 46/46/46 45/45/45
f 34/34/34 35/35/35 47/47/47 46/46/46
f 35/35/35 36/36/36 48/48/48 47/47/47
f 36/36/36 25/26/26 37/38/38 48/48/48
f 37/38/38 38/37/37 50/49/49 49/50/50
f 38/37/37 39/39/39 51/51/51 50/49/49
f 39/39/39 40/40/40 52/52/52 51/51/51
f 40/40/40 41/41/41 53/53/53 52/52/52
f 41/41/41 42/42/42 54/54/54 53/53/53
f 42/42/42 43/43/43 55/55/55 54/54/54
f 43/43/43 44/162/44 56/161/56 55/55/55
f 44/44/44 45/45/45 57/57/57 56/56/56
f 45/45/45 46/46/46 58/58/58 57/57/57
f 46/46/46 47/47/47 59/59/59 58/58/58
f 47/47/47 48/48/48 60/60/60 59/59/59
f 48/48/48 37/38/38 49/50/50 60/60/60
f 49/50/50 50/49/49 62/61/61 61/62/62
f 50/49/49 51/51/51 63/63/63 62/61/61
f 51/51/51 52/52/52 64/64/64 63/63/63
f 52/52/52 53/53/53 65/65/65 64/64/64
f 53/53/53 54/54/54 66/66/66 65/65/65
f 54/54/54 55/55/55 67/67/67 66/66/66
f 55/55/55 56/161/56 68/159/68 67/67/67
f 56/56/56 57/57/57 69/69/69 68/68/68
f 57/57/57 58/58/58 70/70/70 69/69/69
f 58/58/58 59/59/59 71/71/71 70/70/70
f 59/59/59 60/60/60 72/72/72 71/71/71
f 60/60/60 49/50/50 61/62/62 72/72/72
f 61/62/62 62/61/61 74/73/73 73/74/74
f 62/61/61 63/63/63 75/75/75 74/73/73
f 63/63/63 64/64/64 76/76/76 75/75/75
f 64/64/64 65/65/65 77/77/77 76/76/76
f 65/65/65 66/66/66 78/78/78 77/77/77
f 66/66/66 67/67/67 79/79/79 78/78/78
f 67/67/67 68/159/68 80/160/80 79/79/79
f 68/68/68 69/69/69 81/81/81 80/80/80
f 69/69/69 70/70/70 82/82/82 81/81/81
f 70/70/70 71/71/71 83/83/83 82/82/82
f 71/71/71 72/72/72 84/84/84 83/83/83
f 72/72/72 61/62/62 73/74/74 84/84/84
f 73/85/74 74/86/73 86/87/85 85/88/86
f 74/86/73 75/89/75 87/90/87 86/87/85
f 75/89/75 76/91/76 88/92/88 87/90/87
f 76/91/76 77/93/77 89/94/89 88/92/88
f 77/93/77 78/95/78 90/96/90 89/94/89
f 78/95/78 79/97/79 91/98/91 90/96/90
f 79/97/79 80/99/80 92/100/92 91/98/91
f 80/99/80 81/101/81 93/102/93 92/100/92
f 81/101/81 82/103/82 94/104/94 93/102/93
f 82/103/82 83/105/83 95/106/95 94/104/94
f 83/105/83 84/107/84 96/108/96 95/106/95
f 84/107/84 73/85/74 85/88/86 96/108/96
f 85/88/86 86/87/85 98/109/97 97/110/98
f 86/87/85 87/90/87 99/111/99 98/109/97
f 87/90/87 88/92/88 100/112/100 99/111/99
f 88/92/88 89/94/89 101/113/101 100/112/100
f 89/94/89 90/96/90 102/114/102 101/113/101
f 90/96/90 91/98/91 103/115/103 102/114/102
f 91/98/91 92/100/92 104/116/104 103/115/103
f 92/100/92 93/102/93 105/117/105 104/116/104
f 93/102/93 94/104/94 106/118/106 105/117/105
f 94/104/94 95/106/95 107/119/107 106/118/106
f 95/106/95 96/108/96 108/120/108 107/119/107
f 96/108/96 85/88/86 97/110/98 108/120/108
f 97/110/98 98/109/97 110/121/109 109/122/110
f 98/109/97 99/111/99 111/123/111 110/121/109
f 99/111/99 100/112/100 112/124/112 111/123/111
f 100/112/100 101/113/101 113/125/113 112/124/112
f 101/113/101 102/114/102 114/126/114 113/125/113
f 102/114/102 103/115/103 115/127/115 114/126/114
f 103/115/103 104/116/104 116/128/116 115/127/115
f 104/116/104 105/117/105 117/129/117 116/128/116
f 105/117/105 106/118/106 118/130/118 117/129/117
f 106/118/106 107/119/107 119/131/119 118/130/118
f 107/119/107 108/120/108 120/132/120 119/131/119
f 108/120/108 97/110/98 109/122/110 120/132/120
f 109/122/110 110/121/109 121/133/121
f 110/121/109 111/123/111 121/133/121
f 111/123/111 112/124/112 121/133/121
f 112/124/112 113/125/113 121/133/121
f 113/125/113 114/126/114 121/133/121
f 114/126/114 115/127/115 121/133/121
f 115/127/115 116/128/116 121/133/121
f 116/128/116 117/129/117 121/133/121
f 117/129/117 118/130/118 121/133/121
f 118/130/118 119/131/119 121/133/121
f 119/131/119 120/132/120 121/133/121
f 120/132/120 109/122/110 121/133/121
f 123/134/122 122/135/123 124/136/124
f 125/137/125 123/134/122 124/136/124
f 126/138/126 125/137/125 124/136/124
f 127/139/127 126/138/126 124/136/124
f 128/140/128 127/139/127 124/136/124
f 129/141/129 128/140/128 124/136/124
f 130/142/130 129/141/129 124/136/124
f 131/143/131 130/142/130 124/136/124
f 132/144/132 131/143/131 124/136/124
f 133/145/133 132/144/132 124/136/124
f 134/146/134 133/145/133 124/136/124
f 122/135/123 134/146/134 124/136/124
f 2/147/2 1/148/1 122/135/123 123/134/122
f 3/149/5 2/147/2 123/134/122 125/137/125
f 4/150/7 3/149/5 125/137/125 126/138/126
f 5/151/9 4/150/7 126/138/126 127/139/127
f 6/152/11 5/151/9 127/139/127 128/140/128
f 7/153/13 6/152/11 128/140/128 129/141/129
f 8/154/15 7/153/13 129/141/129 130/142/130
f 9/155/17 8/154/15 130/142/130 131/143/131
f 10/156/19 9/155/17 131/143/131 132/144/132
f 11/157/21 10/156/19 132/144/132 133/145/133
f 12/158/23 11/157/21 133/145/133 134/146/134
f 1/148/1 12/158/23 134/146/134 122/135/123
