# This file uses centimeters as units for non-parametric coordinates.

mtllib JerkySnakpodMediumRUpperArm.mtl
g default
v 1.233434 -0.068689 0.145891
v 1.233452 -0.075174 -0.166544
v 1.295006 0.003769 0.172778
v 1.295028 -0.001379 -0.186181
v 1.233434 0.076227 0.145891
v 1.233452 0.068349 -0.166544
v 0.813420 0.083810 0.388614
v 0.813437 0.080491 0.101343
v 0.813452 0.064161 -0.159017
v 0.813471 0.050975 -0.472791
v 0.393420 0.087962 0.388589
v 0.393437 0.095458 0.102489
v 0.393451 0.095019 -0.134031
v 0.393468 0.088828 -0.430748
v -0.026584 0.063826 0.454751
v -0.026566 0.074572 0.147847
v -0.026550 0.092648 -0.122041
v -0.026532 0.104995 -0.423987
v -0.294638 0.044763 0.500033
v -0.375540 0.064763 0.166695
v -0.375521 0.090516 -0.152399
v -0.306292 0.105521 -0.468829
v -0.875898 0.062596 0.166665
v -0.875878 0.077287 -0.166668
v -0.937473 -0.010466 0.186302
v -0.937451 0.004149 -0.186313
v -0.875898 -0.082320 0.166665
v -0.875878 -0.067629 -0.166668
v -0.294638 -0.099536 0.500033
v -0.375540 -0.080006 0.166695
v -0.375521 -0.054399 -0.152399
v -0.306292 -0.039399 -0.468829
v -0.026584 -0.080527 0.454751
v -0.026566 -0.069934 0.147847
v -0.026550 -0.052023 -0.122041
v -0.026532 -0.039618 -0.423987
v 0.393420 -0.056385 0.388589
v 0.393437 -0.048882 0.103083
v 0.393450 -0.048661 -0.129827
v 0.393468 -0.054620 -0.423963
v 0.813420 -0.060611 0.388614
v 0.813437 -0.063167 0.101343
v 0.813452 -0.078122 -0.156920
v 0.813470 -0.090662 -0.469037
v -0.332756 0.034080 -0.531831
v -0.038844 0.033629 -0.482910
v 0.405786 0.015568 -0.485803
v 0.850419 -0.021618 -0.535027
v -0.322150 -0.030043 0.558953
v -0.038903 -0.010218 0.518731
v 0.405731 0.015451 0.447512
v 0.850361 0.010744 0.447538
v 0.949008 -0.065209 0.419611
v 1.124764 -0.068654 0.324842
v 1.204985 0.003769 0.390324
v 1.029228 0.005219 0.488241
v 0.949062 -0.094402 -0.499225
v 1.124805 -0.087821 -0.366564
v 1.205033 -0.012406 -0.425481
v 1.029290 -0.022222 -0.558811
v 0.949008 0.079416 0.419611
v 1.124764 0.076251 0.324842
v 0.949062 0.047141 -0.499592
v 1.124805 0.054424 -0.366564
v -0.567702 0.042598 0.500017
v -0.814546 0.051056 0.366682
v -0.851877 -0.022806 0.425602
v -0.600874 -0.030424 0.558936
v -0.814654 0.083020 -0.366678
v -0.568533 0.099024 -0.499122
v -0.851827 0.009770 -0.425602
v -0.600808 0.025411 -0.558907
v -0.567702 -0.101962 0.500017
v -0.814546 -0.093860 0.366682
v -0.568533 -0.045890 -0.499122
v -0.814654 -0.061896 -0.366678
vt 0.092941 0.880939
vt 0.092832 0.907467
vt 0.082480 0.909682
vt 0.859945 0.887442
vt 0.852864 0.917999
vt 0.850333 0.891666
vt 0.816728 0.921564
vt 0.814330 0.898672
vt 0.846262 0.936133
vt 0.832479 0.949173
vt 0.820440 0.949015
vt 0.812850 0.873212
vt 0.778130 0.901753
vt 0.775988 0.876484
vt 0.780035 0.922742
vt 0.782654 0.948914
vt 0.741376 0.900961
vt 0.738467 0.873933
vt 0.743626 0.924967
vt 0.745614 0.951915
vt 0.711086 0.902124
vt 0.714473 0.872133
vt 0.713690 0.929933
vt 0.721066 0.957436
vt 0.690808 0.875158
vt 0.671337 0.889042
vt 0.667478 0.906360
vt 0.670033 0.934745
vt 0.676795 0.951083
vt 0.698471 0.960821
vt 0.659764 0.937832
vt 0.287056 0.876871
vt 0.277154 0.907529
vt 0.276685 0.879141
vt 0.232894 0.907379
vt 0.232887 0.879569
vt 0.271756 0.924314
vt 0.251398 0.936567
vt 0.228285 0.935389
vt 0.227047 0.850255
vt 0.202593 0.880769
vt 0.203580 0.853493
vt 0.202484 0.904998
vt 0.202973 0.932178
vt 0.166153 0.884191
vt 0.166066 0.858547
vt 0.166077 0.905204
vt 0.165613 0.931596
vt 0.129746 0.884269
vt 0.128723 0.858815
vt 0.129495 0.906887
vt 0.128072 0.934129
vt 0.116719 0.857305
vt 0.101825 0.865633
vt 0.116491 0.935684
vt 0.230850 0.946044
vt 0.745739 0.962144
vt 0.785228 0.958737
vt 0.825486 0.958894
vt 0.736261 0.863461
vt 0.710442 0.862030
vt 0.776282 0.866212
vt 0.125274 0.848520
vt 0.840229 0.877181
vt 0.824555 0.870351
vt 0.271042 0.862385
vt 0.250436 0.850864
vt 0.092254 0.857758
vt 0.832630 0.860170
vt 0.101760 0.924543
vt 0.107574 0.944238
vt 0.856266 0.942316
vt 0.663979 0.881162
vt 0.255297 0.841497
vt 0.694186 0.970713
vt 0.278252 0.932613
vt 0.108124 0.847972
vt 0.815608 0.862571
vt 0.229452 0.840251
vt 0.685304 0.866204
vt 0.124980 0.944628
vt 0.842071 0.956680
vt 0.255657 0.945983
vt 0.719263 0.968037
vt 0.670248 0.959292
vt 0.287191 0.910481
vt 0.657162 0.904087
vt 0.277977 0.854829
vt 0.091262 0.931518
vt 0.862991 0.919901
vt 0.083046 0.877305
vt 0.849223 0.868620
vt 0.164392 0.848467
vt 0.203781 0.843126
vt 0.165081 0.941796
vt 0.204237 0.942538
vn 0.224923 -0.972332 0.063091
vn 0.228513 -0.973535 -0.003511
vn 0.982433 0.009167 -0.186389
vn 0.979550 0.006171 0.201105
vn 0.211785 0.974261 -0.077210
vn 0.224785 0.974317 0.013311
vn 0.041045 0.998449 -0.037606
vn 0.023696 0.999496 -0.021139
vn 0.206144 0.953496 -0.219886
vn 0.065164 0.929831 -0.362172
vn 0.038759 0.959761 -0.278130
vn 0.011783 0.967963 0.250815
vn -0.000648 0.999942 0.010752
vn -0.001260 0.978339 0.207004
vn 0.032416 0.999459 -0.005624
vn 0.040169 0.978945 -0.200132
vn -0.034498 0.998286 0.047277
vn -0.016092 0.973364 0.228701
vn -0.007829 0.999187 0.039542
vn 0.017563 0.987099 -0.159146
vn -0.020521 0.997799 0.063059
vn -0.011869 0.961574 0.274291
vn -0.017085 0.998199 0.057510
vn 0.018965 0.981645 -0.189771
vn -0.073883 0.929053 0.362493
vn -0.242309 0.936385 0.253909
vn -0.190960 0.978495 0.077981
vn -0.196230 0.980187 0.026967
vn -0.274703 0.943880 -0.183381
vn -0.089986 0.952017 -0.292519
vn -0.990874 0.011022 -0.134339
vn -0.990842 -0.003354 0.134983
vn -0.164722 -0.983824 -0.070400
vn -0.167745 -0.985202 -0.035181
vn 0.017507 -0.998204 -0.057291
vn 0.020952 -0.997823 -0.062525
vn -0.210407 -0.950892 -0.227012
vn -0.022477 -0.933973 -0.356635
vn 0.045645 -0.963956 -0.262116
vn 0.053712 -0.982768 0.176865
vn 0.035190 -0.998266 -0.047182
vn 0.077594 -0.984724 0.155874
vn 0.009268 -0.999162 -0.039861
vn 0.003549 -0.978327 -0.207035
vn 0.001941 -0.999923 -0.012297
vn 0.034019 -0.983154 0.179587
vn -0.029617 -0.999554 0.003925
vn -0.057981 -0.981002 -0.185130
vn -0.023830 -0.999555 0.017925
vn -0.032201 -0.969509 0.242932
vn -0.039988 -0.998606 0.034463
vn -0.094540 -0.971538 -0.217199
vn 0.006905 -0.935187 0.354086
vn 0.202196 -0.958040 0.203165
vn 0.071514 -0.948671 -0.308073
vn 0.130385 0.009780 -0.991415
vn 0.068781 0.001470 -0.997631
vn -0.060852 -0.018235 -0.997980
vn -0.132526 -0.066050 -0.988976
vn 0.155377 -0.005495 0.987840
vn 0.065203 -0.021026 0.997651
vn 0.074982 0.020791 0.996968
vn -0.082844 0.000188 0.996563
vn 0.222277 0.952853 0.206553
vn 0.045369 0.936124 0.348730
vn -0.247253 -0.955700 0.159699
vn -0.071935 -0.960467 0.268939
vn 0.735526 -0.003545 0.677487
vn 0.300837 -0.003979 0.953667
vn 0.245716 -0.958878 -0.142047
vn 0.425604 -0.030346 -0.904400
vn 0.789450 -0.003575 -0.613804
vn -0.707743 -0.002909 0.706464
vn -0.271099 -0.010433 0.962495
vn -0.234196 0.012477 -0.972109
vn -0.706503 -0.016533 -0.707517
s 1
g FoodMediumRUpperArm
usemtl blinn4SG
f 1/1/1 2/2/2 4/3/3 3/91/4
f 3/4/4 4/90/3 6/5/5 5/6/6
f 5/6/6 6/5/5 9/7/7 8/8/8
f 6/5/5 64/9/9 9/7/7
f 64/9/9 63/10/10 9/7/7
f 63/10/10 10/11/11 9/7/7
f 7/12/12 8/8/8 12/13/13 11/14/14
f 8/8/8 9/7/7 13/15/15 12/13/13
f 9/7/7 10/11/11 14/16/16 13/15/15
f 11/14/14 12/13/13 16/17/17 15/18/18
f 12/13/13 13/15/15 17/19/19 16/17/17
f 13/15/15 14/16/16 18/20/20 17/19/19
f 15/18/18 16/17/17 20/21/21 19/22/22
f 16/17/17 17/19/19 21/23/23 20/21/21
f 17/19/19 18/20/20 22/24/24 21/23/23
f 19/22/22 20/21/21 65/25/25
f 65/25/25 20/21/21 66/26/26
f 20/21/21 23/27/27 66/26/26
f 20/21/21 21/23/23 24/28/28 23/27/27
f 69/29/29 21/23/23 70/30/30
f 23/27/27 24/28/28 26/31/31 25/87/32
f 25/32/32 26/86/31 28/33/33 27/34/34
f 27/34/34 28/33/33 31/35/35 30/36/36
f 28/33/33 76/37/37 31/35/35
f 76/37/37 75/38/38 31/35/35
f 75/38/38 32/39/39 31/35/35
f 29/40/40 30/36/36 34/41/41 33/42/42
f 30/36/36 31/35/35 35/43/43 34/41/41
f 31/35/35 32/39/39 36/44/44 35/43/43
f 33/42/42 34/41/41 38/45/45 37/46/46
f 34/41/41 35/43/43 39/47/47 38/45/45
f 35/43/43 36/44/44 40/48/48 39/47/47
f 37/46/46 38/45/45 42/49/49 41/50/50
f 38/45/45 39/47/47 43/51/51 42/49/49
f 39/47/47 40/48/48 44/52/52 43/51/51
f 41/50/50 42/49/49 53/53/53
f 53/53/53 42/49/49 54/54/54
f 42/49/49 1/1/1 54/54/54
f 42/49/49 43/51/51 2/2/2 1/1/1
f 57/55/55 43/51/51 44/52/52
f 36/44/44 32/39/39 45/56/56 46/96/57
f 40/48/48 36/44/44 46/96/57 47/95/58
f 44/52/52 40/48/48 47/95/58 48/81/59
f 46/57/57 45/84/56 22/24/24 18/20/20
f 47/58/58 46/57/57 18/20/20 14/16/16
f 48/59/59 47/58/58 14/16/16 10/11/11
f 29/40/40 33/42/42 50/94/60 49/79/61
f 33/42/42 37/46/46 51/93/62 50/94/60
f 37/46/46 41/50/50 52/63/63 51/93/62
f 49/61/61 50/60/60 15/18/18 19/22/22
f 50/60/60 51/62/62 11/14/14 15/18/18
f 51/62/62 52/78/63 7/12/12 11/14/14
f 5/6/6 8/8/8 62/64/64
f 62/64/64 8/8/8 61/65/65
f 61/65/65 8/8/8 7/12/12
f 27/34/34 30/36/36 74/66/66
f 74/66/66 30/36/36 73/67/67
f 73/67/67 30/36/36 29/40/40
f 53/53/53 54/54/54 55/68/68 56/77/69
f 56/69/69 55/92/68 62/64/64 61/65/65
f 58/70/70 57/55/55 60/71/71 59/89/72
f 59/72/72 60/82/71 63/10/10 64/9/9
f 65/25/25 66/26/26 67/73/73 68/80/74
f 68/74/74 67/88/73 74/66/66 73/67/67
f 69/29/29 70/30/30 72/75/75 71/85/76
f 71/76/76 72/83/75 75/38/38 76/37/37
f 55/68/68 54/54/54 1/1/1 3/91/4
f 2/2/2 58/70/70 59/89/72 4/3/3
f 55/92/68 3/4/4 5/6/6 62/64/64
f 4/90/3 59/72/72 64/9/9 6/5/5
f 67/73/73 66/26/26 23/27/27 25/87/32
f 24/28/28 69/29/29 71/85/76 26/31/31
f 67/88/73 25/32/32 27/34/34 74/66/66
f 26/86/31 71/76/76 76/37/37 28/33/33
f 32/39/39 75/38/38 72/83/75 45/56/56
f 60/71/71 57/55/55 44/52/52 48/81/59
f 45/84/56 72/75/75 70/30/30 22/24/24
f 60/82/71 48/59/59 10/11/11 63/10/10
f 68/74/74 73/67/67 29/40/40 49/79/61
f 41/50/50 53/53/53 56/77/69 52/63/63
f 68/80/74 49/61/61 19/22/22 65/25/25
f 52/78/63 56/69/69 61/65/65 7/12/12
f 69/29/29 24/28/28 21/23/23
f 70/30/30 21/23/23 22/24/24
f 58/70/70 2/2/2 43/51/51
f 58/70/70 43/51/51 57/55/55
