# This file uses centimeters as units for non-parametric coordinates.

mtllib JerkySnakpodShortLUpperArm.mtl
g default
v -0.964777 -0.041289 0.102397
v -0.964790 -0.045843 -0.117002
v -1.008015 0.009592 0.121278
v -1.008029 0.005977 -0.130792
v -0.964777 0.060473 0.102397
v -0.964790 0.054942 -0.117002
v -0.669834 0.065799 0.272843
v -0.669845 0.063468 0.071115
v -0.669856 0.052001 -0.111716
v -0.669868 0.042741 -0.332055
v -0.374900 0.068715 0.272826
v -0.374912 0.073978 0.071920
v -0.374921 0.073670 -0.094170
v -0.374933 0.069323 -0.302531
v -0.079964 0.051766 0.319287
v -0.079976 0.059311 0.103772
v -0.079987 0.072005 -0.085749
v -0.079999 0.080676 -0.297783
v 0.108269 0.038379 0.351085
v 0.165081 0.052424 0.117008
v 0.165068 0.070508 -0.107067
v 0.116454 0.081045 -0.329271
v 0.516444 0.050902 0.116988
v 0.516430 0.061218 -0.117087
v 0.559683 -0.000404 0.130777
v 0.559668 0.009859 -0.130881
v 0.516444 -0.050861 0.116988
v 0.516430 -0.040545 -0.117087
v 0.108269 -0.062951 0.351085
v 0.165081 -0.049236 0.117008
v 0.165068 -0.031255 -0.107067
v 0.116454 -0.020721 -0.329271
v -0.079964 -0.049602 0.319287
v -0.079976 -0.042163 0.103772
v -0.079987 -0.029586 -0.085749
v -0.079999 -0.020875 -0.297783
v -0.374900 -0.032649 0.272826
v -0.374912 -0.027380 0.072337
v -0.374921 -0.027225 -0.091218
v -0.374933 -0.031410 -0.297766
v -0.669834 -0.035617 0.272843
v -0.669845 -0.037412 0.071115
v -0.669856 -0.047914 -0.110243
v -0.669868 -0.056719 -0.329419
v 0.135038 0.030877 -0.373513
v -0.071354 0.030561 -0.339160
v -0.383583 0.017878 -0.341192
v -0.695814 -0.008235 -0.375759
v 0.127589 -0.014151 0.392460
v -0.071314 -0.000230 0.364215
v -0.383546 0.017796 0.314203
v -0.695775 0.014490 0.314221
v -0.765046 -0.038846 0.294610
v -0.888467 -0.041265 0.228061
v -0.944800 0.009592 0.274043
v -0.821379 0.010611 0.342803
v -0.765084 -0.059346 -0.350617
v -0.888494 -0.054724 -0.257460
v -0.944832 -0.001766 -0.298833
v -0.821421 -0.008659 -0.392461
v -0.765046 0.062714 0.294610
v -0.888467 0.060491 0.228061
v -0.765084 0.040049 -0.350875
v -0.888494 0.045163 -0.257460
v 0.300021 0.036859 0.351074
v 0.473361 0.042798 0.257444
v 0.499576 -0.009069 0.298819
v 0.323315 -0.014419 0.392449
v 0.473438 0.065244 -0.257538
v 0.300606 0.076483 -0.350544
v 0.499541 0.013806 -0.298916
v 0.323270 0.024790 -0.392526
v 0.300021 -0.064654 0.351074
v 0.473361 -0.058965 0.257444
v 0.300606 -0.025279 -0.350544
v 0.473438 -0.036519 -0.257538
vt 0.611138 0.912788
vt 0.611248 0.939315
vt 0.621599 0.941530
vt 0.784418 0.777565
vt 0.791499 0.808122
vt 0.794030 0.781789
vt 0.827635 0.811687
vt 0.830033 0.788795
vt 0.798101 0.826256
vt 0.811884 0.839295
vt 0.823923 0.839138
vt 0.831512 0.763334
vt 0.866233 0.791875
vt 0.868375 0.766606
vt 0.864328 0.812865
vt 0.861709 0.839037
vt 0.902987 0.791083
vt 0.905896 0.764056
vt 0.900737 0.815090
vt 0.898749 0.842038
vt 0.933277 0.792246
vt 0.929890 0.762256
vt 0.930673 0.820056
vt 0.923297 0.847559
vt 0.953555 0.765281
vt 0.973026 0.779165
vt 0.976885 0.796483
vt 0.974330 0.824868
vt 0.967568 0.841206
vt 0.945892 0.850944
vt 0.984599 0.827954
vt 0.417023 0.908720
vt 0.426925 0.939378
vt 0.427394 0.910990
vt 0.471186 0.939228
vt 0.471193 0.911417
vt 0.432323 0.956163
vt 0.452681 0.968415
vt 0.475795 0.967237
vt 0.477033 0.882103
vt 0.501486 0.912618
vt 0.500499 0.885341
vt 0.501596 0.936846
vt 0.501106 0.964026
vt 0.537926 0.916039
vt 0.538013 0.890395
vt 0.538002 0.937052
vt 0.538466 0.963444
vt 0.574333 0.916118
vt 0.575356 0.890664
vt 0.574584 0.938736
vt 0.576007 0.965978
vt 0.587360 0.889153
vt 0.602255 0.897482
vt 0.587588 0.967532
vt 0.473229 0.977892
vt 0.898624 0.852267
vt 0.859135 0.848860
vt 0.818877 0.849017
vt 0.908102 0.753583
vt 0.933921 0.752153
vt 0.868081 0.756334
vt 0.578805 0.880368
vt 0.804134 0.767304
vt 0.819808 0.760474
vt 0.433037 0.894234
vt 0.453643 0.882712
vt 0.611826 0.889607
vt 0.811733 0.750293
vt 0.602319 0.956391
vt 0.596505 0.976086
vt 0.788096 0.832439
vt 0.980383 0.771285
vt 0.448782 0.873346
vt 0.950176 0.860836
vt 0.425827 0.964461
vt 0.595956 0.879820
vt 0.828755 0.752694
vt 0.474627 0.872100
vt 0.959059 0.756326
vt 0.579099 0.976476
vt 0.802292 0.846802
vt 0.448423 0.977831
vt 0.925100 0.858160
vt 0.974115 0.849415
vt 0.416889 0.942330
vt 0.987200 0.794210
vt 0.426103 0.886677
vt 0.612817 0.963367
vt 0.781371 0.810024
vt 0.621033 0.909153
vt 0.795140 0.758743
vt 0.539688 0.880316
vt 0.500298 0.874974
vt 0.538998 0.973644
vt 0.499842 0.974386
vn -0.228101 -0.971582 0.063237
vn -0.978610 0.004086 0.205683
vn -0.982027 0.005525 -0.188662
vn -0.231346 -0.972865 -0.003458
vn -0.229037 0.973324 0.013546
vn -0.214956 0.973505 -0.077994
vn -0.023683 0.999496 -0.021135
vn -0.041031 0.998450 -0.037604
vn -0.206369 0.953119 -0.221305
vn -0.060764 0.928244 -0.366977
vn -0.039033 0.959576 -0.278729
vn -0.012454 0.967259 0.253485
vn 0.001049 0.978239 0.207479
vn 0.000654 0.999942 0.010755
vn -0.032426 0.999458 -0.005629
vn -0.040147 0.978832 -0.200689
vn 0.015996 0.973243 0.229219
vn 0.034495 0.998286 0.047270
vn 0.007828 0.999187 0.039543
vn -0.017256 0.987023 -0.159648
vn 0.011587 0.961730 0.273754
vn 0.020514 0.997799 0.063065
vn 0.017082 0.998199 0.057510
vn -0.019459 0.981410 -0.190933
vn 0.072896 0.928067 0.365211
vn 0.246407 0.934829 0.255692
vn 0.192705 0.978137 0.078179
vn 0.198875 0.979649 0.027160
vn 0.280107 0.942314 -0.183261
vn 0.089862 0.950327 -0.298001
vn 0.990579 -0.002145 0.136928
vn 0.990615 0.007441 -0.136476
vn 0.169967 -0.984810 -0.035506
vn 0.166208 -0.983570 -0.070466
vn -0.020946 -0.997823 -0.062532
vn -0.017504 -0.998204 -0.057292
vn 0.215656 -0.949053 -0.229763
vn 0.020278 -0.932564 -0.360435
vn -0.045805 -0.963948 -0.262118
vn -0.055045 -0.982263 0.179246
vn -0.077753 -0.984528 0.157036
vn -0.035187 -0.998267 -0.047177
vn -0.009266 -0.999162 -0.039863
vn -0.003176 -0.978577 -0.205858
vn -0.033910 -0.983582 0.177246
vn -0.001947 -0.999922 -0.012301
vn 0.029627 -0.999553 0.003930
vn 0.057370 -0.981343 -0.183506
vn 0.031058 -0.968929 0.245382
vn 0.023819 -0.999556 0.017923
vn 0.039976 -0.998606 0.034460
vn 0.095104 -0.970224 -0.222758
vn -0.001374 -0.932756 0.360505
vn -0.203552 -0.957240 0.205568
vn -0.067088 -0.946384 -0.316000
vn -0.070396 -0.003328 -0.997514
vn -0.129315 0.006351 -0.991583
vn 0.062471 -0.022816 -0.997786
vn 0.132896 -0.052481 -0.989740
vn -0.061486 -0.013787 0.998013
vn -0.155287 -0.003435 0.987864
vn -0.074591 0.013435 0.997124
vn 0.088326 0.000374 0.996092
vn -0.223436 0.952204 0.208290
vn -0.041221 0.934287 0.354131
vn 0.253949 -0.953806 0.160509
vn 0.071788 -0.959072 0.273910
vn -0.323404 -0.002715 0.946257
vn -0.736387 -0.002190 0.676557
vn -0.248247 -0.958003 -0.143543
vn -0.789387 -0.003348 -0.613887
vn -0.447522 -0.019684 -0.894056
vn 0.277162 -0.006632 0.960800
vn 0.699257 -0.001745 0.714868
vn 0.698339 -0.010375 -0.715692
vn 0.242750 0.008333 -0.970053
s 1
g FoodShortLUpperArm
usemtl blinn4SG
f 1/1/1 3/91/2 4/3/3 2/2/4
f 3/4/2 5/6/5 6/5/6 4/90/3
f 5/6/5 8/8/7 9/7/8 6/5/6
f 6/5/6 9/7/8 64/9/9
f 64/9/9 9/7/8 63/10/10
f 63/10/10 9/7/8 10/11/11
f 7/12/12 11/14/13 12/13/14 8/8/7
f 8/8/7 12/13/14 13/15/15 9/7/8
f 9/7/8 13/15/15 14/16/16 10/11/11
f 11/14/13 15/18/17 16/17/18 12/13/14
f 12/13/14 16/17/18 17/19/19 13/15/15
f 13/15/15 17/19/19 18/20/20 14/16/16
f 15/18/17 19/22/21 20/21/22 16/17/18
f 16/17/18 20/21/22 21/23/23 17/19/19
f 17/19/19 21/23/23 22/24/24 18/20/20
f 19/22/21 65/25/25 20/21/22
f 65/25/25 66/26/26 20/21/22
f 20/21/22 66/26/26 23/27/27
f 20/21/22 23/27/27 24/28/28 21/23/23
f 69/29/29 70/30/30 21/23/23
f 23/27/27 25/87/31 26/31/32 24/28/28
f 25/32/31 27/34/33 28/33/34 26/86/32
f 27/34/33 30/36/35 31/35/36 28/33/34
f 28/33/34 31/35/36 76/37/37
f 76/37/37 31/35/36 75/38/38
f 75/38/38 31/35/36 32/39/39
f 29/40/40 33/42/41 34/41/42 30/36/35
f 30/36/35 34/41/42 35/43/43 31/35/36
f 31/35/36 35/43/43 36/44/44 32/39/39
f 33/42/41 37/46/45 38/45/46 34/41/42
f 34/41/42 38/45/46 39/47/47 35/43/43
f 35/43/43 39/47/47 40/48/48 36/44/44
f 37/46/45 41/50/49 42/49/50 38/45/46
f 38/45/46 42/49/50 43/51/51 39/47/47
f 39/47/47 43/51/51 44/52/52 40/48/48
f 41/50/49 53/53/53 42/49/50
f 53/53/53 54/54/54 42/49/50
f 42/49/50 54/54/54 1/1/1
f 42/49/50 1/1/1 2/2/4 43/51/51
f 57/55/55 44/52/52 43/51/51
f 36/44/44 46/96/56 45/56/57 32/39/39
f 40/48/48 47/95/58 46/96/56 36/44/44
f 44/52/52 48/81/59 47/95/58 40/48/48
f 46/57/56 18/20/20 22/24/24 45/84/57
f 47/58/58 14/16/16 18/20/20 46/57/56
f 48/59/59 10/11/11 14/16/16 47/58/58
f 29/40/40 49/79/60 50/94/61 33/42/41
f 33/42/41 50/94/61 51/93/62 37/46/45
f 37/46/45 51/93/62 52/63/63 41/50/49
f 49/61/60 19/22/21 15/18/17 50/60/61
f 50/60/61 15/18/17 11/14/13 51/62/62
f 51/62/62 11/14/13 7/12/12 52/78/63
f 5/6/5 62/64/64 8/8/7
f 62/64/64 61/65/65 8/8/7
f 61/65/65 7/12/12 8/8/7
f 27/34/33 74/66/66 30/36/35
f 74/66/66 73/67/67 30/36/35
f 73/67/67 29/40/40 30/36/35
f 53/53/53 56/77/68 55/68/69 54/54/54
f 56/69/68 61/65/65 62/64/64 55/92/69
f 58/70/70 59/89/71 60/71/72 57/55/55
f 59/72/71 64/9/9 63/10/10 60/82/72
f 65/25/25 68/80/73 67/73/74 66/26/26
f 68/74/73 73/67/67 74/66/66 67/88/74
f 69/29/29 71/85/75 72/75/76 70/30/30
f 71/76/75 76/37/37 75/38/38 72/83/76
f 55/68/69 3/91/2 1/1/1 54/54/54
f 2/2/4 4/3/3 59/89/71 58/70/70
f 55/92/69 62/64/64 5/6/5 3/4/2
f 4/90/3 6/5/6 64/9/9 59/72/71
f 67/73/74 25/87/31 23/27/27 66/26/26
f 24/28/28 26/31/32 71/85/75 69/29/29
f 67/88/74 74/66/66 27/34/33 25/32/31
f 26/86/32 28/33/34 76/37/37 71/76/75
f 32/39/39 45/56/57 72/83/76 75/38/38
f 60/71/72 48/81/59 44/52/52 57/55/55
f 45/84/57 22/24/24 70/30/30 72/75/76
f 60/82/72 63/10/10 10/11/11 48/59/59
f 68/74/73 49/79/60 29/40/40 73/67/67
f 41/50/49 52/63/63 56/77/68 53/53/53
f 68/80/73 65/25/25 19/22/21 49/61/60
f 52/78/63 7/12/12 61/65/65 56/69/68
f 69/29/29 21/23/23 24/28/28
f 70/30/30 22/24/24 21/23/23
f 58/70/70 43/51/51 2/2/4
f 58/70/70 57/55/55 43/51/51
