# This file uses centimeters as units for non-parametric coordinates.

mtllib RiceCrackersSnakpodNose.mtl
g default
v -0.208533 0.223358 0.223658
v -0.208533 0.192602 0.639589
v 0.208533 0.223358 0.223658
v 0.208533 0.192602 0.639589
v 0.208533 -0.192573 0.192902
v 0.208533 -0.223328 0.608834
v -0.208533 -0.192573 0.192902
v -0.208533 -0.223328 0.608834
v 0.263391 0.019438 0.153571
v 0.000000 -0.282083 0.659497
v -0.263391 -0.262659 0.396822
v -0.000000 -0.243236 0.134148
v -0.263391 -0.019408 0.678920
v -0.263391 0.019438 0.153571
v -0.263391 0.262689 0.435669
v -0.000000 0.243266 0.698344
v 0.263391 0.262689 0.435669
v -0.000000 0.282112 0.172994
v 0.263391 -0.019408 0.678920
v 0.263391 -0.262659 0.396822
v -0.000000 0.358755 0.442772
v 0.359719 0.000015 0.416246
v -0.000000 -0.358725 0.389719
v -0.359719 0.000015 0.416246
v -0.000000 -0.026512 0.774985
v -0.000000 0.026542 0.057506
v -0.133651 0.321819 0.306026
v -0.133651 0.302107 0.572599
v 0.133651 0.302107 0.572599
v 0.133651 0.321819 0.306026
v 0.312800 0.143157 0.292815
v 0.312800 0.123446 0.559388
v 0.312800 -0.143128 0.539676
v 0.312800 -0.123416 0.273103
v 0.133651 -0.302077 0.259892
v 0.133651 -0.321789 0.526465
v -0.133651 -0.321789 0.526465
v -0.133651 -0.302077 0.259892
v -0.312800 -0.123416 0.273103
v -0.312800 -0.143128 0.539676
v -0.312800 0.123446 0.559388
v -0.312800 0.143157 0.292815
v -0.133651 0.110235 0.738050
v -0.133651 -0.156339 0.718338
v 0.133651 -0.156339 0.718338
v 0.133651 0.110235 0.738050
v -0.133651 -0.110205 0.094442
v -0.133651 0.156368 0.114153
v 0.133651 0.156368 0.114153
v 0.133651 -0.110205 0.094442
v -0.143603 0.334650 0.440990
v -0.000000 0.324060 0.584203
v 0.143603 0.334650 0.440990
v 0.000000 0.345240 0.297777
v 0.335549 0.143227 0.426835
v 0.335549 -0.010575 0.559458
v 0.335549 -0.143198 0.405656
v 0.335549 0.010605 0.273033
v 0.143603 -0.334620 0.391501
v 0.000000 -0.345210 0.534714
v -0.143603 -0.334620 0.391501
v -0.000000 -0.324030 0.248289
v -0.335549 -0.143198 0.405656
v -0.335549 -0.010575 0.559458
v -0.335549 0.143227 0.426835
v -0.335549 0.010605 0.273033
v -0.143603 -0.024729 0.750880
v -0.000000 -0.167942 0.740291
v 0.143603 -0.024729 0.750880
v 0.000000 0.118483 0.761470
v -0.143603 0.024759 0.081611
v -0.000000 0.167972 0.092201
v 0.143603 0.024759 0.081611
v 0.000000 -0.118453 0.071021
v -0.245263 0.253732 0.310971
v -0.245263 0.235488 0.557693
v -0.123698 0.226524 0.678928
v 0.123698 0.226524 0.678928
v 0.245263 0.235488 0.557693
v 0.245263 0.253732 0.310971
v 0.123698 0.262697 0.189737
v -0.123698 0.262697 0.189737
v 0.245263 0.105290 0.669963
v 0.245263 -0.141433 0.651719
v 0.245263 -0.253703 0.521520
v 0.245263 -0.235459 0.274798
v 0.245263 -0.105260 0.162528
v 0.245263 0.141463 0.180772
v 0.123698 -0.262667 0.642755
v -0.123698 -0.262667 0.642755
v -0.245263 -0.253703 0.521520
v -0.245263 -0.235459 0.274798
v -0.123698 -0.226494 0.153564
v 0.123698 -0.226494 0.153564
v -0.245263 -0.141433 0.651719
v -0.245263 0.105290 0.669963
v -0.245263 0.141463 0.180772
v -0.245263 -0.105260 0.162528
vt 0.351080 0.549877
vt 0.348747 0.558553
vt 0.338308 0.555624
vt 0.345412 0.543882
vt 0.541790 0.512840
vt 0.559308 0.519963
vt 0.552943 0.530007
vt 0.539665 0.526034
vt 0.572221 0.532399
vt 0.563650 0.538592
vt 0.347795 0.569636
vt 0.336113 0.569309
vt 0.322754 0.568935
vt 0.327515 0.550633
vt 0.338147 0.536199
vt 0.556963 0.543423
vt 0.348126 0.580754
vt 0.337539 0.583095
vt 0.349970 0.589548
vt 0.343976 0.595215
vt 0.336293 0.602480
vt 0.326484 0.587475
vt 0.417966 0.571600
vt 0.548668 0.539971
vt 0.413205 0.589902
vt 0.537807 0.537571
vt 0.506757 0.521855
vt 0.522921 0.514103
vt 0.525811 0.525637
vt 0.512950 0.530426
vt 0.402412 0.584911
vt 0.404607 0.571226
vt 0.402573 0.604335
vt 0.395308 0.596652
vt 0.389641 0.590658
vt 0.391973 0.581981
vt 0.392926 0.570899
vt 0.404429 0.538055
vt 0.414237 0.553060
vt 0.403181 0.557440
vt 0.396745 0.545319
vt 0.526741 0.536439
vt 0.517782 0.537113
vt 0.524990 0.547089
vt 0.514329 0.545408
vt 0.536068 0.548365
vt 0.534217 0.559858
vt 0.522724 0.558007
vt 0.511930 0.556269
vt 0.392595 0.559781
vt 0.390751 0.550987
vt 0.381807 0.559444
vt 0.382074 0.548654
vt 0.381997 0.570593
vt 0.370360 0.570267
vt 0.370686 0.558630
vt 0.370992 0.547701
vt 0.546987 0.550632
vt 0.557636 0.552383
vt 0.381184 0.581714
vt 0.380847 0.592502
vt 0.556504 0.563448
vt 0.545711 0.561710
vt 0.369729 0.592833
vt 0.370035 0.581904
vt 0.543444 0.572628
vt 0.358913 0.581091
vt 0.532366 0.571352
vt 0.554105 0.574310
vt 0.550652 0.582605
vt 0.541693 0.583278
vt 0.530627 0.582146
vt 0.358723 0.569942
vt 0.358646 0.591880
vt 0.359537 0.558820
vt 0.359874 0.548033
vt 0.355717 0.602319
vt 0.369402 0.604514
vt 0.369028 0.617873
vt 0.350726 0.613112
vt 0.383188 0.603088
vt 0.521448 0.569085
vt 0.387568 0.614143
vt 0.385004 0.538215
vt 0.371319 0.536020
vt 0.510798 0.567334
vt 0.371693 0.522661
vt 0.389995 0.527423
vt 0.357533 0.537446
vt 0.353153 0.526391
vt 0.499996 0.568265
vt 0.488461 0.571154
vt 0.519766 0.579746
vt 0.511471 0.576294
vt 0.515491 0.589710
vt 0.504784 0.581125
vt 0.500392 0.554411
vt 0.528769 0.593683
vt 0.526644 0.606877
vt 0.509126 0.599754
vt 0.496213 0.587318
vt 0.542623 0.594080
vt 0.555484 0.589291
vt 0.561677 0.597862
vt 0.545513 0.605615
vt 0.581236 0.567432
vt 0.574112 0.584950
vt 0.564068 0.578585
vt 0.568042 0.565307
vt 0.504366 0.541133
vt 0.494321 0.534768
vt 0.487198 0.552286
vt 0.568439 0.551452
vt 0.579973 0.548563
vn -0.577351 0.618354 -0.533202
vn -0.671526 0.692795 -0.262846
vn -0.329322 0.906802 -0.263167
vn -0.313219 0.719218 -0.620177
vn -0.707107 0.705181 0.052144
vn -0.345160 0.935989 0.069211
vn 0.000000 0.997277 0.073743
vn 0.000000 0.961442 -0.275009
vn 0.000000 0.757325 -0.653038
vn -0.671526 0.646600 0.361887
vn -0.329322 0.858232 0.393682
vn -0.577351 0.533203 0.618353
vn -0.313219 0.620177 0.719218
vn 0.000000 0.653037 0.757326
vn 0.000000 0.910535 0.413431
vn 0.329322 0.858232 0.393682
vn 0.345160 0.935989 0.069211
vn 0.313220 0.620177 0.719217
vn 0.577351 0.533203 0.618353
vn 0.671526 0.646600 0.361887
vn 0.707107 0.705182 0.052144
vn 0.329322 0.906802 -0.263168
vn 0.313220 0.719218 -0.620177
vn 0.671526 0.692795 -0.262847
vn 0.577351 0.618354 -0.533202
vn 0.884926 0.352711 -0.304139
vn 0.671526 0.361887 -0.646599
vn 0.938544 0.344220 0.025453
vn 1.000000 -0.000000 -0.000000
vn 0.938544 0.025453 -0.344220
vn 0.707107 0.052144 -0.705182
vn 0.884926 0.304140 0.352710
vn 0.671526 0.262846 0.692795
vn 0.707106 -0.052144 0.705182
vn 0.938544 -0.025453 0.344220
vn 0.884926 -0.352711 0.304139
vn 0.938544 -0.344220 -0.025453
vn 0.671526 -0.361887 0.646599
vn 0.577351 -0.618354 0.533202
vn 0.671526 -0.692795 0.262846
vn 0.707107 -0.705182 -0.052144
vn 0.884926 -0.304140 -0.352710
vn 0.671526 -0.262846 -0.692795
vn 0.671526 -0.646600 -0.361887
vn 0.577351 -0.533203 -0.618353
vn 0.329322 -0.858232 -0.393682
vn 0.313220 -0.620177 -0.719217
vn 0.345160 -0.935989 -0.069211
vn 0.000000 -0.997277 -0.073743
vn -0.000000 -0.910535 -0.413431
vn 0.000000 -0.653037 -0.757326
vn 0.329322 -0.906802 0.263167
vn 0.313220 -0.719218 0.620177
vn 0.000000 -0.757325 0.653038
vn 0.000000 -0.961442 0.275009
vn -0.329322 -0.906802 0.263167
vn -0.345160 -0.935989 -0.069211
vn -0.313219 -0.719218 0.620177
vn -0.577351 -0.618354 0.533202
vn -0.671526 -0.692795 0.262846
vn -0.707107 -0.705182 -0.052144
vn -0.329322 -0.858232 -0.393682
vn -0.313219 -0.620177 -0.719217
vn -0.671526 -0.646600 -0.361887
vn -0.577351 -0.533203 -0.618353
vn -0.884926 -0.304140 -0.352710
vn -0.671526 -0.262846 -0.692795
vn -0.938544 -0.344220 -0.025453
vn -1.000000 0.000000 -0.000000
vn -0.938544 0.025453 -0.344220
vn -0.707107 0.052144 -0.705182
vn -0.884926 -0.352711 0.304139
vn -0.671526 -0.361887 0.646599
vn -0.707106 -0.052144 0.705182
vn -0.938544 -0.025453 0.344220
vn -0.884926 0.304140 0.352710
vn -0.938544 0.344220 0.025453
vn -0.671526 0.262846 0.692795
vn -0.884926 0.352711 -0.304139
vn -0.671526 0.361887 -0.646599
vn -0.329320 0.263167 0.906803
vn -0.345158 -0.069211 0.935989
vn -0.000000 -0.073743 0.997277
vn 0.000000 0.275007 0.961442
vn -0.329320 -0.393681 0.858233
vn -0.000000 -0.413429 0.910536
vn 0.329320 -0.393681 0.858233
vn 0.345158 -0.069211 0.935989
vn 0.329320 0.263167 0.906803
vn -0.329320 -0.263167 -0.906803
vn -0.345158 0.069211 -0.935989
vn -0.000000 0.073743 -0.997277
vn 0.000000 -0.275007 -0.961442
vn -0.329320 0.393681 -0.858233
vn -0.000000 0.413429 -0.910536
vn 0.329320 0.393681 -0.858233
vn 0.345158 0.069211 -0.935989
vn 0.329320 -0.263167 -0.906803
s 1
g FoodNose
usemtl delete15:blinn6SG
f 1/1/1 75/2/2 27/3/3 82/4/4
f 75/2/2 15/11/5 51/12/6 27/3/3
f 27/3/3 51/12/6 21/13/7 54/14/8
f 82/4/4 27/3/3 54/14/8 18/15/9
f 15/11/5 76/17/10 28/18/11 51/12/6
f 76/17/10 2/19/12 77/20/13 28/18/11
f 28/18/11 77/20/13 16/21/14 52/22/15
f 51/12/6 28/18/11 52/22/15 21/13/7
f 21/5/7 52/6/15 29/7/16 53/8/17
f 52/6/15 16/9/14 78/10/18 29/7/16
f 29/7/16 78/10/18 4/16/19 79/24/20
f 53/8/17 29/7/16 79/24/20 17/26/21
f 18/27/9 54/28/8 30/29/22 81/30/23
f 54/28/8 21/5/7 53/8/17 30/29/22
f 30/29/22 53/8/17 17/26/21 80/42/24
f 81/30/23 30/29/22 80/42/24 3/43/25
f 3/43/25 80/42/24 31/44/26 88/45/27
f 80/42/24 17/26/21 55/46/28 31/44/26
f 31/44/26 55/46/28 22/47/29 58/48/30
f 88/45/27 31/44/26 58/48/30 9/49/31
f 17/26/21 79/24/20 32/58/32 55/46/28
f 79/24/20 4/16/19 83/59/33 32/58/32
f 32/58/32 83/59/33 19/62/34 56/63/35
f 55/46/28 32/58/32 56/63/35 22/47/29
f 22/47/29 56/63/35 33/66/36 57/68/37
f 56/63/35 19/62/34 84/69/38 33/66/36
f 33/66/36 84/69/38 6/70/39 85/71/40
f 57/68/37 33/66/36 85/71/40 20/72/41
f 9/49/31 58/48/30 34/82/42 87/86/43
f 58/48/30 22/47/29 57/68/37 34/82/42
f 34/82/42 57/68/37 20/72/41 86/93/44
f 87/86/43 34/82/42 86/93/44 5/94/45
f 5/94/45 86/93/44 35/95/46 94/96/47
f 86/93/44 20/72/41 59/98/48 35/95/46
f 35/95/46 59/98/48 23/99/49 62/100/50
f 94/96/47 35/95/46 62/100/50 12/101/51
f 20/72/41 85/71/40 36/102/52 59/98/48
f 85/71/40 6/70/39 89/103/53 36/102/52
f 36/102/52 89/103/53 10/104/54 60/105/55
f 59/98/48 36/102/52 60/105/55 23/99/49
f 23/23/49 60/25/55 37/31/56 61/32/57
f 60/25/55 10/33/54 90/34/58 37/31/56
f 37/31/56 90/34/58 8/35/59 91/36/60
f 61/32/57 37/31/56 91/36/60 11/37/61
f 12/38/51 62/39/50 38/40/62 93/41/63
f 62/39/50 23/23/49 61/32/57 38/40/62
f 38/40/62 61/32/57 11/37/61 92/50/64
f 93/41/63 38/40/62 92/50/64 7/51/65
f 7/51/65 92/50/64 39/52/66 98/53/67
f 92/50/64 11/37/61 63/54/68 39/52/66
f 39/52/66 63/54/68 24/55/69 66/56/70
f 98/53/67 39/52/66 66/56/70 14/57/71
f 11/37/61 91/36/60 40/60/72 63/54/68
f 91/36/60 8/35/59 95/61/73 40/60/72
f 40/60/72 95/61/73 13/64/74 64/65/75
f 63/54/68 40/60/72 64/65/75 24/55/69
f 24/55/69 64/65/75 41/67/76 65/73/77
f 64/65/75 13/64/74 96/74/78 41/67/76
f 41/67/76 96/74/78 2/19/12 76/17/10
f 65/73/77 41/67/76 76/17/10 15/11/5
f 14/57/71 66/56/70 42/75/79 97/76/80
f 66/56/70 24/55/69 65/73/77 42/75/79
f 42/75/79 65/73/77 15/11/5 75/2/2
f 97/76/80 42/75/79 75/2/2 1/1/1
f 2/19/12 96/74/78 43/77/81 77/20/13
f 96/74/78 13/64/74 67/78/82 43/77/81
f 43/77/81 67/78/82 25/79/83 70/80/84
f 77/20/13 43/77/81 70/80/84 16/21/14
f 13/64/74 95/61/73 44/81/85 67/78/82
f 95/61/73 8/35/59 90/34/58 44/81/85
f 44/81/85 90/34/58 10/33/54 68/83/86
f 67/78/82 44/81/85 68/83/86 25/79/83
f 25/106/83 68/107/86 45/108/87 69/109/88
f 68/107/86 10/104/54 89/103/53 45/108/87
f 45/108/87 89/103/53 6/70/39 84/69/38
f 69/109/88 45/108/87 84/69/38 19/62/34
f 16/9/14 70/114/84 46/113/89 78/10/18
f 70/114/84 25/106/83 69/109/88 46/113/89
f 46/113/89 69/109/88 19/62/34 83/59/33
f 78/10/18 46/113/89 83/59/33 4/16/19
f 7/51/65 98/53/67 47/84/90 93/41/63
f 98/53/67 14/57/71 71/85/91 47/84/90
f 47/84/90 71/85/91 26/87/92 74/88/93
f 93/41/63 47/84/90 74/88/93 12/38/51
f 14/57/71 97/76/80 48/89/94 71/85/91
f 97/76/80 1/1/1 82/4/4 48/89/94
f 48/89/94 82/4/4 18/15/9 72/90/95
f 71/85/91 48/89/94 72/90/95 26/87/92
f 26/112/92 72/111/95 49/110/96 73/97/97
f 72/111/95 18/27/9 81/30/23 49/110/96
f 49/110/96 81/30/23 3/43/25 88/45/27
f 73/97/97 49/110/96 88/45/27 9/49/31
f 12/101/51 74/92/93 50/91/98 94/96/47
f 74/92/93 26/112/92 73/97/97 50/91/98
f 50/91/98 73/97/97 9/49/31 87/86/43
f 94/96/47 50/91/98 87/86/43 5/94/45
