# This file uses centimeters as units for non-parametric coordinates.

mtllib RiceCrackersSnakpodShortLLowerLeg.mtl
g default
v 0.447075 -0.458987 -0.474684
v -0.502309 -0.456309 -0.474686
v 0.447075 0.392762 -0.474680
v -0.502309 0.405483 -0.474682
v 0.447073 0.433661 0.474705
v -0.502311 0.405453 0.474703
v 0.447073 -0.460448 0.474702
v -0.502311 -0.444606 0.474700
v 0.571951 0.545018 0.000013
v -0.627188 -0.022501 0.599578
v -0.027620 -0.553091 0.599578
v 0.571950 -0.020867 0.599581
v -0.627186 -0.577666 0.000007
v 0.571951 -0.558636 0.000009
v -0.027618 -0.562854 -0.599561
v -0.627185 -0.037158 -0.599560
v -0.027618 0.519549 -0.599557
v 0.571952 0.005819 -0.599558
v -0.627186 0.532551 0.000010
v -0.027620 0.515185 0.599581
v -0.027617 -0.026431 -0.818836
v -0.027619 0.735141 0.000012
v -0.027621 -0.010874 0.818856
v -0.027619 -0.755141 0.000008
v -0.846465 -0.008477 0.000008
v 0.791229 -0.020439 0.000012
v 0.276620 -0.294566 -0.712030
v -0.331852 -0.288408 -0.712032
v -0.331852 0.248406 -0.712029
v 0.276620 0.274314 -0.712028
v 0.276619 0.615548 -0.304223
v -0.331853 0.625353 -0.304224
v -0.331854 0.630258 0.304246
v 0.276616 0.618683 0.304248
v 0.276617 0.254078 0.712051
v -0.331855 0.274732 0.712050
v -0.331855 -0.283581 0.712048
v 0.276615 -0.300889 0.712049
v 0.276618 -0.668159 0.304244
v -0.331854 -0.669192 0.304242
v -0.331853 -0.697133 -0.304228
v 0.276617 -0.697781 -0.304227
v -0.739658 -0.283334 -0.304228
v -0.739659 -0.304777 0.304243
v -0.739659 0.245482 0.304244
v -0.739656 0.239297 -0.304226
v 0.684420 -0.310960 0.304245
v 0.684421 -0.295638 -0.304225
v 0.684421 0.244168 -0.304223
v 0.684420 0.240835 0.304247
v -0.027617 -0.342943 -0.763816
v -0.354506 -0.031131 -0.763815
v -0.027617 0.264411 -0.763813
v 0.299274 -0.019370 -0.763812
v -0.027618 0.676747 -0.326879
v -0.354507 0.672496 0.000011
v -0.027620 0.661660 0.326904
v 0.299272 0.667300 0.000013
v -0.027621 0.257753 0.763835
v -0.354509 -0.015443 0.763833
v -0.027621 -0.328429 0.763833
v 0.299271 -0.014661 0.763833
v -0.027620 -0.695092 0.326899
v -0.354507 -0.731315 0.000007
v -0.027618 -0.735521 -0.326883
v 0.299272 -0.722312 0.000008
v -0.791441 -0.304699 0.000007
v -0.791442 -0.023666 0.326900
v -0.791443 0.260269 0.000009
v -0.791440 -0.025022 -0.326883
v 0.736206 -0.322560 0.000011
v 0.736206 -0.020269 -0.326879
v 0.736208 0.263791 0.000012
v 0.736205 -0.042464 0.326903
v 0.253964 -0.504154 -0.558295
v -0.309197 -0.533687 -0.558296
v -0.585922 -0.289095 -0.558296
v -0.585922 0.230896 -0.558295
v -0.309197 0.473435 -0.558293
v 0.253964 0.453096 -0.558292
v 0.530689 0.248084 -0.558292
v 0.530689 -0.261645 -0.558294
v -0.585922 0.486638 -0.281569
v -0.585923 0.479188 0.281590
v -0.309199 0.507653 0.558315
v 0.253961 0.489848 0.558316
v 0.530687 0.494611 0.281592
v 0.530688 0.494640 -0.281567
v -0.585924 0.234195 0.558313
v -0.585924 -0.293490 0.558312
v -0.309199 -0.533884 0.558312
v 0.253961 -0.547942 0.558313
v 0.530686 -0.301912 0.558314
v 0.530686 0.244158 0.558316
v -0.585923 -0.527545 0.281587
v -0.585922 -0.541060 -0.281572
v 0.530688 -0.524345 -0.281570
v 0.530687 -0.526218 0.281589
vt 0.927891 0.931442
vt 0.934634 0.914806
vt 0.954028 0.920102
vt 0.939810 0.944174
vt 0.976197 0.678572
vt 0.969711 0.715318
vt 0.948751 0.706839
vt 0.952592 0.678681
vt 0.951040 0.745409
vt 0.935537 0.731248
vt 0.936032 0.891345
vt 0.957019 0.892032
vt 0.983514 0.893133
vt 0.974083 0.930009
vt 0.954120 0.959685
vt 0.923908 0.720349
vt 0.934799 0.868379
vt 0.956516 0.863625
vt 0.930741 0.850371
vt 0.941886 0.839900
vt 0.956491 0.825468
vt 0.976186 0.855726
vt 0.793271 0.886385
vt 0.928432 0.702593
vt 0.803472 0.850214
vt 0.929050 0.679422
vt 0.945221 0.613305
vt 0.968430 0.641629
vt 0.945373 0.651593
vt 0.931833 0.628003
vt 0.822603 0.858938
vt 0.819933 0.887175
vt 0.823966 0.820776
vt 0.839245 0.836687
vt 0.848992 0.847389
vt 0.844257 0.865451
vt 0.840862 0.888099
vt 0.819499 0.953530
vt 0.800071 0.923398
vt 0.821690 0.915215
vt 0.835828 0.938982
vt 0.927977 0.655849
vt 0.922058 0.638410
vt 0.904884 0.656763
vt 0.903428 0.635358
vt 0.906361 0.680151
vt 0.881969 0.680996
vt 0.881359 0.656673
vt 0.880684 0.635160
vt 0.843800 0.910522
vt 0.846945 0.928716
vt 0.864654 0.912161
vt 0.864222 0.934356
vt 0.863649 0.888862
vt 0.888314 0.889788
vt 0.887736 0.914098
vt 0.887090 0.937149
vt 0.905918 0.703450
vt 0.906166 0.725431
vt 0.866020 0.865765
vt 0.867134 0.843609
vt 0.883315 0.727422
vt 0.882674 0.705347
vt 0.890095 0.843177
vt 0.889288 0.865667
vt 0.859532 0.704809
vt 0.912053 0.867868
vt 0.857208 0.681691
vt 0.860198 0.727354
vt 0.842334 0.723143
vt 0.838592 0.704500
vt 0.834033 0.682294
vt 0.912761 0.890580
vt 0.912834 0.845474
vt 0.910495 0.913076
vt 0.910203 0.936072
vt 0.919190 0.823444
vt 0.890826 0.818537
vt 0.891842 0.794708
vt 0.927346 0.804922
vt 0.863083 0.823646
vt 0.858019 0.658416
vt 0.854681 0.800972
vt 0.858873 0.953602
vt 0.886397 0.959530
vt 0.858068 0.636830
vt 0.886289 0.983920
vt 0.849450 0.974630
vt 0.914697 0.956552
vt 0.923078 0.977162
vt 0.851761 0.614876
vt 0.842415 0.594659
vt 0.836556 0.659614
vt 0.841372 0.642542
vt 0.815176 0.654655
vt 0.829298 0.631018
vt 0.879781 0.610365
vt 0.811050 0.682793
vt 0.788934 0.682888
vt 0.795099 0.646025
vt 0.814072 0.615675
vt 0.818192 0.710176
vt 0.831171 0.734598
vt 0.817221 0.749250
vt 0.795767 0.719905
vt 0.884947 0.774721
vt 0.847367 0.768697
vt 0.855687 0.748305
vt 0.884103 0.751812
vt 0.908180 0.613246
vt 0.915075 0.593563
vt 0.878609 0.586554
vt 0.912303 0.746741
vt 0.922049 0.766100
vn 0.553990 -0.602016 -0.575041
vn 0.316137 -0.681881 -0.659618
vn 0.339836 -0.355085 -0.870877
vn 0.665819 -0.331449 -0.668451
vn 0.014517 -0.726830 -0.686665
vn 0.005059 -0.392279 -0.919833
vn 0.000109 -0.000581 -1.000000
vn 0.345347 -0.003516 -0.938468
vn 0.706460 0.010917 -0.707669
vn -0.299909 -0.690310 -0.658427
vn -0.326936 -0.352285 -0.876931
vn -0.565995 -0.596236 -0.569344
vn -0.662508 -0.354898 -0.659645
vn -0.706833 -0.003830 -0.707370
vn -0.345318 0.000511 -0.938486
vn -0.326072 0.356899 -0.875386
vn -0.005832 0.371880 -0.928262
vn -0.664438 0.340168 -0.665438
vn -0.556021 0.611928 -0.562481
vn -0.300687 0.695919 -0.652137
vn 0.007755 0.740471 -0.672044
vn 0.315272 0.379353 -0.869882
vn 0.661503 0.359926 -0.657926
vn 0.299404 0.712719 -0.634342
vn 0.531921 0.641366 -0.552910
vn 0.308853 0.887984 -0.340726
vn 0.632678 0.704404 -0.321765
vn 0.017087 0.938886 -0.343803
vn 0.012579 0.999891 0.007716
vn 0.304323 0.952561 0.003837
vn 0.676103 0.736807 -0.000056
vn -0.311164 0.893473 -0.323858
vn -0.651867 0.692431 -0.309206
vn -0.685030 0.728515 0.000605
vn -0.321151 0.947012 0.005533
vn -0.299328 0.903503 0.306734
vn 0.017852 0.946496 0.322220
vn -0.659330 0.689894 0.298881
vn -0.586419 0.607154 0.536168
vn -0.278368 0.723181 0.632077
vn 0.020524 0.733786 0.679071
vn 0.278605 0.909504 0.308515
vn 0.651522 0.697356 0.298687
vn 0.270590 0.712448 0.647456
vn 0.555463 0.623154 0.550582
vn 0.315587 0.361835 0.877201
vn 0.671628 0.338918 0.658825
vn 0.008008 0.367750 0.929890
vn 0.000007 0.001244 0.999999
vn 0.345450 0.000360 0.938437
vn 0.707115 0.003080 0.707092
vn -0.318204 0.369243 0.873159
vn -0.672197 0.337429 0.659009
vn -0.706890 -0.001470 0.707322
vn -0.345510 0.000716 0.938415
vn -0.323358 -0.346124 0.880703
vn -0.006975 -0.373955 0.927421
vn -0.659099 -0.347527 0.666943
vn -0.548688 -0.622087 0.558525
vn -0.283450 -0.717093 0.636737
vn -0.013092 -0.742637 0.669566
vn 0.319199 -0.344133 0.882997
vn 0.659581 -0.341831 0.669406
vn 0.269254 -0.731986 0.625858
vn 0.555247 -0.632169 0.540428
vn 0.280430 -0.912645 0.297387
vn 0.638964 -0.716069 0.281016
vn -0.001395 -0.947550 0.319604
vn 0.006929 -0.998515 0.054039
vn 0.317617 -0.947510 0.036672
vn 0.680452 -0.732781 0.004189
vn -0.277013 -0.904423 0.324473
vn -0.646239 -0.699299 0.305541
vn -0.694604 -0.719315 0.010530
vn -0.296901 -0.953990 0.041875
vn -0.297078 -0.903744 -0.308208
vn 0.015110 -0.944802 -0.327294
vn -0.669773 -0.679680 -0.299063
vn 0.315887 -0.896278 -0.311290
vn 0.657187 -0.689812 -0.303749
vn -0.881440 -0.350925 -0.316095
vn -0.931890 -0.362723 -0.003714
vn -0.999982 0.005946 -0.000017
vn -0.938417 -0.000757 -0.345505
vn -0.877541 -0.358028 0.318964
vn -0.938466 -0.003370 0.345356
vn -0.873766 0.360688 0.326246
vn -0.926875 0.375370 -0.000843
vn -0.874767 0.355132 -0.329642
vn 0.875120 -0.364023 0.318830
vn 0.925463 -0.378751 -0.008125
vn 0.999992 0.003996 0.000160
vn 0.938384 -0.008524 0.345490
vn 0.873389 -0.356131 -0.332208
vn 0.938280 -0.005460 -0.345834
vn 0.877899 0.355980 -0.320269
vn 0.931460 0.363817 0.004301
vn 0.883418 0.339652 0.322814
s 1
g FoodShortLLowerLeg
usemtl delete15:blinn6SG
f 1/1/1 75/2/2 27/3/3 82/4/4
f 75/2/2 15/11/5 51/12/6 27/3/3
f 27/3/3 51/12/6 21/13/7 54/14/8
f 82/4/4 27/3/3 54/14/8 18/15/9
f 15/11/5 76/17/10 28/18/11 51/12/6
f 76/17/10 2/19/12 77/20/13 28/18/11
f 28/18/11 77/20/13 16/21/14 52/22/15
f 51/12/6 28/18/11 52/22/15 21/13/7
f 21/5/7 52/6/15 29/7/16 53/8/17
f 52/6/15 16/9/14 78/10/18 29/7/16
f 29/7/16 78/10/18 4/16/19 79/24/20
f 53/8/17 29/7/16 79/24/20 17/26/21
f 18/27/9 54/28/8 30/29/22 81/30/23
f 54/28/8 21/5/7 53/8/17 30/29/22
f 30/29/22 53/8/17 17/26/21 80/42/24
f 81/30/23 30/29/22 80/42/24 3/43/25
f 3/43/25 80/42/24 31/44/26 88/45/27
f 80/42/24 17/26/21 55/46/28 31/44/26
f 31/44/26 55/46/28 22/47/29 58/48/30
f 88/45/27 31/44/26 58/48/30 9/49/31
f 17/26/21 79/24/20 32/58/32 55/46/28
f 79/24/20 4/16/19 83/59/33 32/58/32
f 32/58/32 83/59/33 19/62/34 56/63/35
f 55/46/28 32/58/32 56/63/35 22/47/29
f 22/47/29 56/63/35 33/66/36 57/68/37
f 56/63/35 19/62/34 84/69/38 33/66/36
f 33/66/36 84/69/38 6/70/39 85/71/40
f 57/68/37 33/66/36 85/71/40 20/72/41
f 9/49/31 58/48/30 34/82/42 87/86/43
f 58/48/30 22/47/29 57/68/37 34/82/42
f 34/82/42 57/68/37 20/72/41 86/93/44
f 87/86/43 34/82/42 86/93/44 5/94/45
f 5/94/45 86/93/44 35/95/46 94/96/47
f 86/93/44 20/72/41 59/98/48 35/95/46
f 35/95/46 59/98/48 23/99/49 62/100/50
f 94/96/47 35/95/46 62/100/50 12/101/51
f 20/72/41 85/71/40 36/102/52 59/98/48
f 85/71/40 6/70/39 89/103/53 36/102/52
f 36/102/52 89/103/53 10/104/54 60/105/55
f 59/98/48 36/102/52 60/105/55 23/99/49
f 23/23/49 60/25/55 37/31/56 61/32/57
f 60/25/55 10/33/54 90/34/58 37/31/56
f 37/31/56 90/34/58 8/35/59 91/36/60
f 61/32/57 37/31/56 91/36/60 11/37/61
f 12/38/51 62/39/50 38/40/62 93/41/63
f 62/39/50 23/23/49 61/32/57 38/40/62
f 38/40/62 61/32/57 11/37/61 92/50/64
f 93/41/63 38/40/62 92/50/64 7/51/65
f 7/51/65 92/50/64 39/52/66 98/53/67
f 92/50/64 11/37/61 63/54/68 39/52/66
f 39/52/66 63/54/68 24/55/69 66/56/70
f 98/53/67 39/52/66 66/56/70 14/57/71
f 11/37/61 91/36/60 40/60/72 63/54/68
f 91/36/60 8/35/59 95/61/73 40/60/72
f 40/60/72 95/61/73 13/64/74 64/65/75
f 63/54/68 40/60/72 64/65/75 24/55/69
f 24/55/69 64/65/75 41/67/76 65/73/77
f 64/65/75 13/64/74 96/74/78 41/67/76
f 41/67/76 96/74/78 2/19/12 76/17/10
f 65/73/77 41/67/76 76/17/10 15/11/5
f 14/57/71 66/56/70 42/75/79 97/76/80
f 66/56/70 24/55/69 65/73/77 42/75/79
f 42/75/79 65/73/77 15/11/5 75/2/2
f 97/76/80 42/75/79 75/2/2 1/1/1
f 2/19/12 96/74/78 43/77/81 77/20/13
f 96/74/78 13/64/74 67/78/82 43/77/81
f 43/77/81 67/78/82 25/79/83 70/80/84
f 77/20/13 43/77/81 70/80/84 16/21/14
f 13/64/74 95/61/73 44/81/85 67/78/82
f 95/61/73 8/35/59 90/34/58 44/81/85
f 44/81/85 90/34/58 10/33/54 68/83/86
f 67/78/82 44/81/85 68/83/86 25/79/83
f 25/106/83 68/107/86 45/108/87 69/109/88
f 68/107/86 10/104/54 89/103/53 45/108/87
f 45/108/87 89/103/53 6/70/39 84/69/38
f 69/109/88 45/108/87 84/69/38 19/62/34
f 16/9/14 70/114/84 46/113/89 78/10/18
f 70/114/84 25/106/83 69/109/88 46/113/89
f 46/113/89 69/109/88 19/62/34 83/59/33
f 78/10/18 46/113/89 83/59/33 4/16/19
f 7/51/65 98/53/67 47/84/90 93/41/63
f 98/53/67 14/57/71 71/85/91 47/84/90
f 47/84/90 71/85/91 26/87/92 74/88/93
f 93/41/63 47/84/90 74/88/93 12/38/51
f 14/57/71 97/76/80 48/89/94 71/85/91
f 97/76/80 1/1/1 82/4/4 48/89/94
f 48/89/94 82/4/4 18/15/9 72/90/95
f 71/85/91 48/89/94 72/90/95 26/87/92
f 26/112/92 72/111/95 49/110/96 73/97/97
f 72/111/95 18/27/9 81/30/23 49/110/96
f 49/110/96 81/30/23 3/43/25 88/45/27
f 73/97/97 49/110/96 88/45/27 9/49/31
f 12/101/51 74/92/93 50/91/98 94/96/47
f 74/92/93 26/112/92 73/97/97 50/91/98
f 50/91/98 73/97/97 9/49/31 87/86/43
f 94/96/47 50/91/98 87/86/43 5/94/45
