# This file uses centimeters as units for non-parametric coordinates.

mtllib RiceCrackersSnakpodShortLUpperLeg.mtl
g default
v -0.391807 -0.423053 0.436708
v 0.481591 -0.420589 0.436704
v -0.391807 0.360525 0.436707
v 0.481591 0.372228 0.436703
v -0.391811 0.398153 -0.436693
v 0.481587 0.372203 -0.436697
v -0.391811 -0.424394 -0.436693
v 0.481587 -0.409820 -0.436697
v -0.506691 0.500596 0.000008
v 0.596469 -0.021499 -0.551579
v 0.044889 -0.509622 -0.551577
v -0.506694 -0.019995 -0.551574
v 0.596471 -0.532232 0.000003
v -0.506691 -0.514725 0.000008
v 0.044894 -0.518607 0.551587
v 0.596474 -0.034986 0.551584
v 0.044894 0.477164 0.551587
v -0.506688 0.004551 0.551589
v 0.596471 0.489127 0.000003
v 0.044889 0.473153 -0.551577
v 0.044895 -0.025119 0.753313
v 0.044891 0.675502 0.000005
v 0.044888 -0.010801 -0.753303
v 0.044891 -0.695502 0.000005
v 0.798199 -0.008599 0.000002
v -0.708419 -0.019604 0.000009
v -0.234993 -0.271792 0.655057
v 0.324779 -0.266127 0.655055
v 0.324779 0.227722 0.655054
v -0.234993 0.251557 0.655057
v -0.234995 0.565480 0.279892
v 0.324777 0.574501 0.279889
v 0.324775 0.579015 -0.279881
v -0.234995 0.568366 -0.279879
v -0.234999 0.232944 -0.655043
v 0.324773 0.251945 -0.655046
v 0.324773 -0.261682 -0.655046
v -0.234997 -0.277605 -0.655043
v -0.234997 -0.615481 -0.279879
v 0.324775 -0.616431 -0.279881
v 0.324777 -0.642138 0.279889
v -0.234993 -0.642735 0.279892
v 0.699943 -0.261458 0.279887
v 0.699940 -0.281183 -0.279883
v 0.699940 0.225035 -0.279883
v 0.699941 0.219343 0.279888
v -0.610160 -0.286871 -0.279877
v -0.610158 -0.272777 0.279893
v -0.610158 0.223824 0.279894
v -0.610160 0.220760 -0.279877
v 0.044895 -0.316298 0.702696
v 0.345620 -0.029442 0.702694
v 0.044895 0.242446 0.702695
v -0.255833 -0.018622 0.702696
v 0.044893 0.621781 0.300733
v 0.345617 0.617871 0.000004
v 0.044890 0.607903 -0.300723
v -0.255837 0.613091 0.000007
v 0.044888 0.236325 -0.702685
v 0.345614 -0.015006 -0.702686
v 0.044888 -0.302940 -0.702685
v -0.255840 -0.014286 -0.702681
v 0.044890 -0.640258 -0.300723
v 0.345617 -0.673583 0.000004
v 0.044893 -0.677454 0.300733
v -0.255837 -0.665300 0.000007
v 0.747580 -0.281112 0.000002
v 0.747578 -0.022572 -0.300726
v 0.747581 0.238637 0.000002
v 0.747581 -0.023820 0.300730
v -0.657799 -0.297544 0.000009
v -0.657798 -0.019448 0.300736
v -0.657801 0.241877 0.000009
v -0.657801 -0.039865 -0.300720
v -0.214151 -0.464605 0.513626
v 0.303936 -0.491775 0.513623
v 0.558513 -0.266758 0.513622
v 0.558513 0.211614 0.513622
v 0.303936 0.434741 0.513623
v -0.214151 0.416030 0.513626
v -0.468728 0.227427 0.513627
v -0.468728 -0.241506 0.513627
v 0.558511 0.446888 0.259046
v 0.558509 0.440036 -0.259040
v 0.303931 0.466224 -0.513615
v -0.214156 0.449843 -0.513612
v -0.468731 0.454225 -0.259035
v -0.468729 0.454249 0.259051
v 0.558508 0.214652 -0.513616
v 0.558508 -0.270798 -0.513616
v 0.303931 -0.491953 -0.513615
v -0.214156 -0.504885 -0.513612
v -0.468732 -0.278547 -0.513611
v -0.468732 0.223817 -0.513611
v 0.558509 -0.486121 -0.259040
v 0.558511 -0.498557 0.259046
v -0.468729 -0.483179 0.259051
v -0.468731 -0.484901 -0.259035
vt 0.927891 0.931442
vt 0.934634 0.914806
vt 0.954028 0.920102
vt 0.939810 0.944174
vt 0.976197 0.678572
vt 0.969711 0.715318
vt 0.948751 0.706839
vt 0.952592 0.678681
vt 0.951040 0.745409
vt 0.935537 0.731248
vt 0.936032 0.891345
vt 0.957019 0.892032
vt 0.983514 0.893133
vt 0.974083 0.930009
vt 0.954120 0.959685
vt 0.923908 0.720349
vt 0.934799 0.868379
vt 0.956516 0.863625
vt 0.930741 0.850371
vt 0.941886 0.839900
vt 0.956491 0.825468
vt 0.976186 0.855726
vt 0.793271 0.886385
vt 0.928432 0.702593
vt 0.803472 0.850214
vt 0.929050 0.679422
vt 0.945221 0.613305
vt 0.968430 0.641629
vt 0.945373 0.651593
vt 0.931833 0.628003
vt 0.822603 0.858938
vt 0.819933 0.887175
vt 0.823966 0.820776
vt 0.839245 0.836687
vt 0.848992 0.847389
vt 0.844257 0.865451
vt 0.840862 0.888099
vt 0.819499 0.953530
vt 0.800071 0.923398
vt 0.821690 0.915215
vt 0.835828 0.938982
vt 0.927977 0.655849
vt 0.922058 0.638410
vt 0.904884 0.656763
vt 0.903428 0.635358
vt 0.906361 0.680151
vt 0.881969 0.680996
vt 0.881359 0.656673
vt 0.880684 0.635160
vt 0.843800 0.910522
vt 0.846945 0.928716
vt 0.864654 0.912161
vt 0.864222 0.934356
vt 0.863649 0.888862
vt 0.888314 0.889788
vt 0.887736 0.914098
vt 0.887090 0.937149
vt 0.905918 0.703450
vt 0.906166 0.725431
vt 0.866020 0.865765
vt 0.867134 0.843609
vt 0.883315 0.727422
vt 0.882674 0.705347
vt 0.890095 0.843177
vt 0.889288 0.865667
vt 0.859532 0.704809
vt 0.912053 0.867868
vt 0.857208 0.681691
vt 0.860198 0.727354
vt 0.842334 0.723143
vt 0.838592 0.704500
vt 0.834033 0.682294
vt 0.912761 0.890580
vt 0.912834 0.845474
vt 0.910495 0.913076
vt 0.910203 0.936072
vt 0.919190 0.823444
vt 0.890826 0.818537
vt 0.891842 0.794708
vt 0.927346 0.804922
vt 0.863083 0.823646
vt 0.858019 0.658416
vt 0.854681 0.800972
vt 0.858873 0.953602
vt 0.886397 0.959530
vt 0.858068 0.636830
vt 0.886289 0.983920
vt 0.849450 0.974630
vt 0.914697 0.956552
vt 0.923078 0.977162
vt 0.851761 0.614876
vt 0.842415 0.594659
vt 0.836556 0.659614
vt 0.841372 0.642542
vt 0.815176 0.654655
vt 0.829298 0.631018
vt 0.879781 0.610365
vt 0.811050 0.682793
vt 0.788934 0.682888
vt 0.795099 0.646025
vt 0.814072 0.615675
vt 0.818192 0.710176
vt 0.831171 0.734598
vt 0.817221 0.749250
vt 0.795767 0.719905
vt 0.884947 0.774721
vt 0.847367 0.768697
vt 0.855687 0.748305
vt 0.884103 0.751812
vt 0.908180 0.613246
vt 0.915075 0.593563
vt 0.878609 0.586554
vt 0.912303 0.746741
vt 0.922049 0.766100
vn -0.553986 -0.602017 0.575043
vn -0.316132 -0.681883 0.659618
vn -0.339830 -0.355088 0.870878
vn -0.665814 -0.331451 0.668455
vn -0.014513 -0.726832 0.686662
vn -0.005053 -0.392281 0.919831
vn -0.000103 -0.000584 1.000000
vn -0.345341 -0.003519 0.938471
vn -0.706455 0.010915 0.707674
vn 0.299913 -0.690312 0.658423
vn 0.326942 -0.352288 0.876928
vn 0.565999 -0.596238 0.569338
vn 0.662512 -0.354900 0.659639
vn 0.706838 -0.003832 0.707365
vn 0.345325 0.000508 0.938483
vn 0.326078 0.356896 0.875385
vn 0.005839 0.371877 0.928264
vn 0.664442 0.340166 0.665435
vn 0.556025 0.611926 0.562479
vn 0.300692 0.695917 0.652138
vn -0.007751 0.740469 0.672046
vn -0.315266 0.379350 0.869886
vn -0.661499 0.359924 0.657932
vn -0.299400 0.712717 0.634346
vn -0.531918 0.641365 0.552915
vn -0.308850 0.887983 0.340731
vn -0.632676 0.704403 0.321771
vn -0.017084 0.938885 0.343806
vn -0.012579 0.999891 -0.007713
vn -0.304323 0.952561 -0.003832
vn -0.676103 0.736807 0.000063
vn 0.311166 0.893472 0.323858
vn 0.651869 0.692430 0.309203
vn 0.685030 0.728515 -0.000608
vn 0.321151 0.947012 -0.005532
vn 0.299326 0.903504 -0.306733
vn -0.017854 0.946497 -0.322217
vn 0.659328 0.689895 -0.298884
vn 0.586416 0.607156 -0.536170
vn 0.278364 0.723183 -0.632077
vn -0.020528 0.733788 -0.679068
vn -0.278607 0.909505 -0.308511
vn -0.651524 0.697357 -0.298680
vn -0.270594 0.712450 -0.647452
vn -0.555466 0.623156 -0.550576
vn -0.315592 0.361837 -0.877197
vn -0.671632 0.338921 -0.658820
vn -0.008014 0.367753 -0.929889
vn -0.000014 0.001247 -0.999999
vn -0.345457 0.000363 -0.938435
vn -0.707120 0.003082 -0.707087
vn 0.318198 0.369246 -0.873160
vn 0.672193 0.337431 -0.659013
vn 0.706886 -0.001467 -0.707326
vn 0.345504 0.000719 -0.938417
vn 0.323352 -0.346121 -0.880706
vn 0.006969 -0.373952 -0.927422
vn 0.659095 -0.347525 -0.666949
vn 0.548684 -0.622085 -0.558531
vn 0.283445 -0.717091 -0.636741
vn 0.013087 -0.742635 -0.669568
vn -0.319205 -0.344131 -0.882996
vn -0.659586 -0.341828 -0.669403
vn -0.269258 -0.731984 -0.625859
vn -0.555251 -0.632168 -0.540427
vn -0.280432 -0.912644 -0.297388
vn -0.638966 -0.716068 -0.281014
vn 0.001393 -0.947549 -0.319607
vn -0.006929 -0.998515 -0.054042
vn -0.317617 -0.947510 -0.036673
vn -0.680452 -0.732781 -0.004187
vn 0.277011 -0.904422 -0.324478
vn 0.646237 -0.699298 -0.305547
vn 0.694604 -0.719315 -0.010536
vn 0.296901 -0.953989 -0.041880
vn 0.297080 -0.903745 0.308203
vn -0.015107 -0.944803 0.327291
vn 0.669775 -0.679681 0.299056
vn -0.315885 -0.896279 0.311289
vn -0.657185 -0.689813 0.303751
vn 0.881442 -0.350926 0.316088
vn 0.931890 -0.362723 0.003706
vn 0.999982 0.005946 0.000010
vn 0.938419 -0.000758 0.345498
vn 0.877539 -0.358027 -0.318971
vn 0.938464 -0.003369 -0.345362
vn 0.873764 0.360689 -0.326251
vn 0.926875 0.375370 0.000838
vn 0.874769 0.355131 0.329638
vn -0.875122 -0.364022 -0.318826
vn -0.925463 -0.378751 0.008130
vn -0.999992 0.003996 -0.000153
vn -0.938386 -0.008523 -0.345484
vn -0.873387 -0.356132 0.332213
vn -0.938278 -0.005461 0.345840
vn -0.877896 0.355979 0.320276
vn -0.931460 0.363817 -0.004294
vn -0.883420 0.339653 -0.322807
s 1
g FoodShortLUpperLeg
usemtl delete15:blinn6SG
f 1/1/1 75/2/2 27/3/3 82/4/4
f 75/2/2 15/11/5 51/12/6 27/3/3
f 27/3/3 51/12/6 21/13/7 54/14/8
f 82/4/4 27/3/3 54/14/8 18/15/9
f 15/11/5 76/17/10 28/18/11 51/12/6
f 76/17/10 2/19/12 77/20/13 28/18/11
f 28/18/11 77/20/13 16/21/14 52/22/15
f 51/12/6 28/18/11 52/22/15 21/13/7
f 21/5/7 52/6/15 29/7/16 53/8/17
f 52/6/15 16/9/14 78/10/18 29/7/16
f 29/7/16 78/10/18 4/16/19 79/24/20
f 53/8/17 29/7/16 79/24/20 17/26/21
f 18/27/9 54/28/8 30/29/22 81/30/23
f 54/28/8 21/5/7 53/8/17 30/29/22
f 30/29/22 53/8/17 17/26/21 80/42/24
f 81/30/23 30/29/22 80/42/24 3/43/25
f 3/43/25 80/42/24 31/44/26 88/45/27
f 80/42/24 17/26/21 55/46/28 31/44/26
f 31/44/26 55/46/28 22/47/29 58/48/30
f 88/45/27 31/44/26 58/48/30 9/49/31
f 17/26/21 79/24/20 32/58/32 55/46/28
f 79/24/20 4/16/19 83/59/33 32/58/32
f 32/58/32 83/59/33 19/62/34 56/63/35
f 55/46/28 32/58/32 56/63/35 22/47/29
f 22/47/29 56/63/35 33/66/36 57/68/37
f 56/63/35 19/62/34 84/69/38 33/66/36
f 33/66/36 84/69/38 6/70/39 85/71/40
f 57/68/37 33/66/36 85/71/40 20/72/41
f 9/49/31 58/48/30 34/82/42 87/86/43
f 58/48/30 22/47/29 57/68/37 34/82/42
f 34/82/42 57/68/37 20/72/41 86/93/44
f 87/86/43 34/82/42 86/93/44 5/94/45
f 5/94/45 86/93/44 35/95/46 94/96/47
f 86/93/44 20/72/41 59/98/48 35/95/46
f 35/95/46 59/98/48 23/99/49 62/100/50
f 94/96/47 35/95/46 62/100/50 12/101/51
f 20/72/41 85/71/40 36/102/52 59/98/48
f 85/71/40 6/70/39 89/103/53 36/102/52
f 36/102/52 89/103/53 10/104/54 60/105/55
f 59/98/48 36/102/52 60/105/55 23/99/49
f 23/23/49 60/25/55 37/31/56 61/32/57
f 60/25/55 10/33/54 90/34/58 37/31/56
f 37/31/56 90/34/58 8/35/59 91/36/60
f 61/32/57 37/31/56 91/36/60 11/37/61
f 12/38/51 62/39/50 38/40/62 93/41/63
f 62/39/50 23/23/49 61/32/57 38/40/62
f 38/40/62 61/32/57 11/37/61 92/50/64
f 93/41/63 38/40/62 92/50/64 7/51/65
f 7/51/65 92/50/64 39/52/66 98/53/67
f 92/50/64 11/37/61 63/54/68 39/52/66
f 39/52/66 63/54/68 24/55/69 66/56/70
f 98/53/67 39/52/66 66/56/70 14/57/71
f 11/37/61 91/36/60 40/60/72 63/54/68
f 91/36/60 8/35/59 95/61/73 40/60/72
f 40/60/72 95/61/73 13/64/74 64/65/75
f 63/54/68 40/60/72 64/65/75 24/55/69
f 24/55/69 64/65/75 41/67/76 65/73/77
f 64/65/75 13/64/74 96/74/78 41/67/76
f 41/67/76 96/74/78 2/19/12 76/17/10
f 65/73/77 41/67/76 76/17/10 15/11/5
f 14/57/71 66/56/70 42/75/79 97/76/80
f 66/56/70 24/55/69 65/73/77 42/75/79
f 42/75/79 65/73/77 15/11/5 75/2/2
f 97/76/80 42/75/79 75/2/2 1/1/1
f 2/19/12 96/74/78 43/77/81 77/20/13
f 96/74/78 13/64/74 67/78/82 43/77/81
f 43/77/81 67/78/82 25/79/83 70/80/84
f 77/20/13 43/77/81 70/80/84 16/21/14
f 13/64/74 95/61/73 44/81/85 67/78/82
f 95/61/73 8/35/59 90/34/58 44/81/85
f 44/81/85 90/34/58 10/33/54 68/83/86
f 67/78/82 44/81/85 68/83/86 25/79/83
f 25/106/83 68/107/86 45/108/87 69/109/88
f 68/107/86 10/104/54 89/103/53 45/108/87
f 45/108/87 89/103/53 6/70/39 84/69/38
f 69/109/88 45/108/87 84/69/38 19/62/34
f 16/9/14 70/114/84 46/113/89 78/10/18
f 70/114/84 25/106/83 69/109/88 46/113/89
f 46/113/89 69/109/88 19/62/34 83/59/33
f 78/10/18 46/113/89 83/59/33 4/16/19
f 7/51/65 98/53/67 47/84/90 93/41/63
f 98/53/67 14/57/71 71/85/91 47/84/90
f 47/84/90 71/85/91 26/87/92 74/88/93
f 93/41/63 47/84/90 74/88/93 12/38/51
f 14/57/71 97/76/80 48/89/94 71/85/91
f 97/76/80 1/1/1 82/4/4 48/89/94
f 48/89/94 82/4/4 18/15/9 72/90/95
f 71/85/91 48/89/94 72/90/95 26/87/92
f 26/112/92 72/111/95 49/110/96 73/97/97
f 72/111/95 18/27/9 81/30/23 49/110/96
f 49/110/96 81/30/23 3/43/25 88/45/27
f 73/97/97 49/110/96 88/45/27 9/49/31
f 12/101/51 74/92/93 50/91/98 94/96/47
f 74/92/93 26/112/92 73/97/97 50/91/98
f 50/91/98 73/97/97 9/49/31 87/86/43
f 94/96/47 50/91/98 87/86/43 5/94/45
