# This file uses centimeters as units for non-parametric coordinates.

mtllib IceCreamLTopIncisor.mtl
g default
v -0.493216 -0.049911 -0.372143
v -0.542986 -0.049911 -0.240443
v -0.549622 -0.049911 -0.099808
v -0.512475 -0.049911 0.035994
v -0.435181 -0.049911 0.153671
v -0.325306 -0.049911 0.241702
v -0.193605 -0.049911 0.291472
v -0.052971 -0.049911 0.298108
v 0.082831 -0.049911 0.260961
v 0.200508 -0.049911 0.183667
v 0.288540 -0.049911 0.073792
v 0.338309 -0.049911 -0.057908
v 0.344946 -0.049911 -0.198543
v 0.307799 -0.049911 -0.334345
v 0.230505 -0.049911 -0.452022
v 0.120630 -0.049911 -0.540053
v -0.011071 -0.049911 -0.589823
v -0.151706 -0.049911 -0.596459
v -0.287508 -0.049911 -0.559312
v -0.405184 -0.049911 -0.482018
v -0.102338 1.760798 -0.149176
v -0.133913 1.728782 -0.167187
v -0.137933 1.728782 -0.156548
v -0.138469 1.728782 -0.145188
v -0.135469 1.728782 -0.134218
v -0.129225 1.728782 -0.124712
v -0.120349 1.728782 -0.117601
v -0.109711 1.728782 -0.113581
v -0.098350 1.728782 -0.113045
v -0.087380 1.728782 -0.116045
v -0.077875 1.728782 -0.122289
v -0.070764 1.728782 -0.131164
v -0.066743 1.728782 -0.141803
v -0.066207 1.728782 -0.153163
v -0.069208 1.728782 -0.164133
v -0.075452 1.728782 -0.173639
v -0.084327 1.728782 -0.180750
v -0.094966 1.728782 -0.184770
v -0.106326 1.728782 -0.185306
v -0.117296 1.728782 -0.182306
v -0.126802 1.728782 -0.176062
v -0.014260 1.373044 -0.229316
v 0.006193 1.373044 -0.198176
v 0.016023 1.373044 -0.162239
v 0.014267 1.373044 -0.125024
v 0.001097 1.373044 -0.090173
v -0.022198 1.373044 -0.061098
v -0.053338 1.373044 -0.040644
v -0.089274 1.373044 -0.030814
v -0.126490 1.373044 -0.032570
v -0.161341 1.373044 -0.045740
v -0.190416 1.373044 -0.069035
v -0.210870 1.373044 -0.100175
v -0.220700 1.373044 -0.136112
v -0.218944 1.373044 -0.173327
v -0.205773 1.373044 -0.208178
v -0.182478 1.373044 -0.237253
v -0.151338 1.373044 -0.257707
v -0.115402 1.373044 -0.267537
v -0.078187 1.373044 -0.265781
v -0.043336 1.373044 -0.252611
v 0.046931 1.017305 -0.284992
v 0.081595 1.017305 -0.232218
v 0.098254 1.017305 -0.171315
v 0.095278 1.017305 -0.108245
v 0.072958 1.017305 -0.049182
v 0.033478 1.017305 0.000094
v -0.019296 1.017305 0.034757
v -0.080199 1.017305 0.051417
v -0.143269 1.017305 0.048441
v -0.202332 1.017305 0.026120
v -0.251607 1.017305 -0.013359
v -0.286271 1.017305 -0.066133
v -0.302930 1.017305 -0.127036
v -0.299954 1.017305 -0.190106
v -0.277634 1.017305 -0.249169
v -0.238155 1.017305 -0.298445
v -0.185381 1.017305 -0.333108
v -0.124478 1.017305 -0.349768
v -0.061408 1.017305 -0.346792
v -0.002344 1.017305 -0.324471
v 0.108122 0.661566 -0.340669
v 0.156996 0.661566 -0.266260
v 0.180485 0.661566 -0.180391
v 0.176288 0.661566 -0.091466
v 0.144818 0.661566 -0.008190
v 0.089155 0.661566 0.061285
v 0.014747 0.661566 0.110159
v -0.071123 0.661566 0.133647
v -0.160047 0.661566 0.129451
v -0.243323 0.661566 0.097981
v -0.312799 0.661566 0.042318
v -0.361673 0.661566 -0.032091
v -0.385161 0.661566 -0.117960
v -0.380965 0.661566 -0.206885
v -0.349495 0.661566 -0.290161
v -0.293831 0.661566 -0.359636
v -0.219423 0.661566 -0.408510
v -0.133554 0.661566 -0.431998
v -0.044629 0.661566 -0.427802
v 0.038647 0.661566 -0.396332
v 0.169313 0.305827 -0.396345
v 0.232397 0.305827 -0.300303
v 0.262715 0.305827 -0.189467
v 0.257299 0.305827 -0.074687
v 0.216679 0.305827 0.032801
v 0.144831 0.305827 0.122476
v 0.048789 0.305827 0.185560
v -0.062047 0.305827 0.215878
v -0.176826 0.305827 0.210462
v -0.284315 0.305827 0.169842
v -0.373990 0.305827 0.097994
v -0.437074 0.305827 0.001952
v -0.467392 0.305827 -0.108884
v -0.461976 0.305827 -0.223664
v -0.421356 0.305827 -0.331152
v -0.349508 0.305827 -0.420827
v -0.253465 0.305827 -0.483911
v -0.142630 0.305827 -0.514229
v -0.027850 0.305827 -0.508813
v 0.079638 0.305827 -0.468193
vt 0.356163 0.055057
vt 0.351670 0.079698
vt 0.288267 0.065739
vt 0.291953 0.045639
vt 0.345418 0.103963
vt 0.283155 0.085525
vt 0.337444 0.127727
vt 0.276646 0.104899
vt 0.327791 0.150865
vt 0.268770 0.123763
vt 0.316513 0.173260
vt 0.259571 0.142020
vt 0.303665 0.194796
vt 0.249093 0.159578
vt 0.289316 0.215365
vt 0.237392 0.176348
vt 0.273538 0.234861
vt 0.224525 0.192244
vt 0.256412 0.253184
vt 0.210559 0.207184
vt 0.238025 0.270241
vt 0.195565 0.221094
vt 0.218473 0.285947
vt 0.179619 0.233900
vt 0.197854 0.300221
vt 0.162803 0.245541
vt 0.176275 0.312991
vt 0.145203 0.255955
vt 0.153845 0.324194
vt 0.126909 0.265091
vt 0.130680 0.333773
vt 0.108014 0.272905
vt 0.106896 0.341680
vt 0.088614 0.279356
vt 0.082616 0.347877
vt 0.068808 0.284413
vt 0.057961 0.352332
vt 0.048696 0.288050
vt 0.033057 0.355020
vt 0.028379 0.290251
vt 0.008033 0.355925
vt 0.007957 0.291005
vt 0.033497 0.008717
vt 0.033426 0.010698
vt 0.020995 0.018701
vt 0.033240 0.012637
vt 0.032929 0.014527
vt 0.032486 0.016362
vt 0.031902 0.018132
vt 0.031173 0.019825
vt 0.030295 0.021426
vt 0.029269 0.022921
vt 0.028100 0.024295
vt 0.026796 0.025533
vt 0.025368 0.026624
vt 0.023830 0.027559
vt 0.022198 0.028332
vt 0.020487 0.028944
vt 0.018711 0.029396
vt 0.016884 0.029693
vt 0.015016 0.029844
vt 0.013114 0.029858
vt 0.011183 0.029744
vt 0.009226 0.029514
vt 0.052051 0.085106
vt 0.046083 0.088004
vt 0.057790 0.081776
vt 0.063267 0.078029
vt 0.068450 0.073886
vt 0.073310 0.069368
vt 0.077821 0.064503
vt 0.081959 0.059318
vt 0.085701 0.053843
vt 0.089032 0.048109
vt 0.091936 0.042150
vt 0.094403 0.035998
vt 0.096424 0.029687
vt 0.097994 0.023250
vt 0.099111 0.016721
vt 0.013999 0.095655
vt 0.007374 0.095793
vt 0.020600 0.095052
vt 0.027143 0.093984
vt 0.033594 0.092451
vt 0.039919 0.090455
vt 0.082995 0.141972
vt 0.072930 0.146973
vt 0.092677 0.136264
vt 0.101927 0.129878
vt 0.110694 0.122845
vt 0.118934 0.115202
vt 0.126604 0.106989
vt 0.133666 0.098247
vt 0.140084 0.089024
vt 0.145826 0.079367
vt 0.150867 0.069328
vt 0.155183 0.058957
vt 0.158756 0.048310
vt 0.161573 0.037439
vt 0.163625 0.026400
vt 0.018738 0.160703
vt 0.007513 0.161123
vt 0.029908 0.159502
vt 0.040967 0.157520
vt 0.051862 0.154764
vt 0.062534 0.151243
vt 0.114098 0.198943
vt 0.099926 0.206014
vt 0.127731 0.190881
vt 0.140756 0.181870
vt 0.153107 0.171954
vt 0.164720 0.161183
vt 0.175535 0.149613
vt 0.185498 0.137303
vt 0.194558 0.124316
vt 0.202670 0.110718
vt 0.209795 0.096580
vt 0.215898 0.081972
vt 0.220949 0.066969
vt 0.224927 0.051647
vt 0.227813 0.036083
vt 0.023597 0.225504
vt 0.007775 0.226108
vt 0.039337 0.223789
vt 0.054917 0.220968
vt 0.070260 0.217053
vt 0.085289 0.212060
vn -0.846040 0.226514 -0.482606
vn -0.953765 0.226513 -0.197544
vn -0.953765 0.226514 -0.197544
vn -0.846040 0.226514 -0.482606
vn -0.968129 0.226514 0.106854
vn -0.968129 0.226514 0.106854
vn -0.887726 0.226514 0.400793
vn -0.887726 0.226514 0.400793
vn -0.720426 0.226514 0.655499
vn -0.720426 0.226514 0.655499
vn -0.482605 0.226514 0.846040
vn -0.482605 0.226514 0.846040
vn -0.197544 0.226514 0.953765
vn -0.197544 0.226514 0.953765
vn 0.106854 0.226514 0.968129
vn 0.106854 0.226514 0.968129
vn 0.400793 0.226514 0.887726
vn 0.400793 0.226514 0.887726
vn 0.655499 0.226514 0.720426
vn 0.655499 0.226514 0.720426
vn 0.846040 0.226513 0.482605
vn 0.846040 0.226514 0.482605
vn 0.953765 0.226513 0.197544
vn 0.953765 0.226514 0.197544
vn 0.968129 0.226513 -0.106854
vn 0.968129 0.226513 -0.106854
vn 0.887726 0.226513 -0.400793
vn 0.887726 0.226514 -0.400793
vn 0.720426 0.226513 -0.655499
vn 0.720426 0.226514 -0.655499
vn 0.482605 0.226513 -0.846040
vn 0.482605 0.226513 -0.846040
vn 0.197544 0.226513 -0.953765
vn 0.197544 0.226513 -0.953765
vn -0.106854 0.226513 -0.968129
vn -0.106854 0.226513 -0.968129
vn -0.400793 0.226513 -0.887726
vn -0.400793 0.226513 -0.887726
vn -0.655498 0.226513 -0.720426
vn -0.655498 0.226513 -0.720426
vn -0.842795 0.242013 -0.480755
vn -0.950108 0.242013 -0.196786
vn -0.000000 1.000000 0.000000
vn -0.964417 0.242013 0.106444
vn -0.884321 0.242013 0.399256
vn -0.717663 0.242013 0.652985
vn -0.480754 0.242013 0.842796
vn -0.196786 0.242013 0.950108
vn 0.106445 0.242013 0.964417
vn 0.399256 0.242013 0.884322
vn 0.652985 0.242013 0.717663
vn 0.842796 0.242013 0.480754
vn 0.950108 0.242013 0.196787
vn 0.964417 0.242013 -0.106444
vn 0.884322 0.242013 -0.399256
vn 0.717663 0.242013 -0.652985
vn 0.480754 0.242013 -0.842796
vn 0.196787 0.242013 -0.950108
vn -0.106444 0.242013 -0.964417
vn -0.399256 0.242013 -0.884322
vn -0.652984 0.242013 -0.717664
vn 0.887726 0.226514 -0.400793
vn 0.720426 0.226513 -0.655499
vn 0.968129 0.226513 -0.106854
vn 0.953765 0.226513 0.197544
vn 0.846040 0.226513 0.482605
vn 0.655499 0.226513 0.720426
vn 0.400793 0.226513 0.887726
vn 0.106854 0.226514 0.968129
vn -0.197544 0.226514 0.953765
vn -0.482605 0.226514 0.846040
vn -0.720425 0.226514 0.655499
vn -0.887726 0.226514 0.400793
vn -0.968129 0.226514 0.106854
vn -0.953765 0.226514 -0.197544
vn -0.846040 0.226514 -0.482606
vn -0.655498 0.226513 -0.720426
vn -0.400793 0.226513 -0.887726
vn -0.106854 0.226513 -0.968129
vn 0.197544 0.226513 -0.953765
vn 0.482605 0.226513 -0.846040
vn 0.887726 0.226514 -0.400793
vn 0.720426 0.226513 -0.655499
vn 0.968129 0.226513 -0.106854
vn 0.953765 0.226514 0.197544
vn 0.846040 0.226514 0.482605
vn 0.655499 0.226514 0.720426
vn 0.400793 0.226513 0.887726
vn 0.106854 0.226514 0.968129
vn -0.197544 0.226514 0.953765
vn -0.482605 0.226514 0.846040
vn -0.720425 0.226514 0.655499
vn -0.887726 0.226514 0.400793
vn -0.968129 0.226514 0.106854
vn -0.953765 0.226514 -0.197544
vn -0.846040 0.226514 -0.482606
vn -0.655498 0.226513 -0.720426
vn -0.400793 0.226513 -0.887726
vn -0.106854 0.226513 -0.968129
vn 0.197544 0.226513 -0.953765
vn 0.482605 0.226513 -0.846040
vn 0.887726 0.226513 -0.400793
vn 0.720426 0.226513 -0.655499
vn 0.968129 0.226514 -0.106854
vn 0.953765 0.226514 0.197544
vn 0.846040 0.226514 0.482605
vn 0.655499 0.226514 0.720426
vn 0.400793 0.226514 0.887726
vn 0.106854 0.226514 0.968129
vn -0.197544 0.226514 0.953765
vn -0.482605 0.226514 0.846040
vn -0.720426 0.226514 0.655499
vn -0.887726 0.226514 0.400793
vn -0.968129 0.226514 0.106854
vn -0.953765 0.226514 -0.197544
vn -0.846040 0.226514 -0.482606
vn -0.655498 0.226513 -0.720426
vn -0.400793 0.226513 -0.887726
vn -0.106854 0.226513 -0.968129
vn 0.197544 0.226513 -0.953765
vn 0.482605 0.226513 -0.846040
s 1
g FoodLBuckTeeth
usemtl Delete:blinn4SG
f 1/1/1 2/2/2 115/3/3 116/4/4
f 2/2/2 3/5/5 114/6/6 115/3/3
f 3/5/5 4/7/7 113/8/8 114/6/6
f 4/7/7 5/9/9 112/10/10 113/8/8
f 5/9/9 6/11/11 111/12/12 112/10/10
f 6/11/11 7/13/13 110/14/14 111/12/12
f 7/13/13 8/15/15 109/16/16 110/14/14
f 8/15/15 9/17/17 108/18/18 109/16/16
f 9/17/17 10/19/19 107/20/20 108/18/18
f 10/19/19 11/21/21 106/22/22 107/20/20
f 11/21/21 12/23/23 105/24/24 106/22/22
f 12/23/23 13/25/25 104/26/26 105/24/24
f 13/25/25 14/27/27 103/28/28 104/26/26
f 14/27/27 15/29/29 102/30/30 103/28/28
f 15/29/29 16/31/31 121/32/32 102/30/30
f 16/31/31 17/33/33 120/34/34 121/32/32
f 17/33/33 18/35/35 119/36/36 120/34/34
f 18/35/35 19/37/37 118/38/38 119/36/36
f 19/37/37 20/39/39 117/40/40 118/38/38
f 20/39/39 1/41/1 116/42/4 117/40/40
f 22/43/41 23/44/42 21/45/43
f 23/44/42 24/46/44 21/45/43
f 24/46/44 25/47/45 21/45/43
f 25/47/45 26/48/46 21/45/43
f 26/48/46 27/49/47 21/45/43
f 27/49/47 28/50/48 21/45/43
f 28/50/48 29/51/49 21/45/43
f 29/51/49 30/52/50 21/45/43
f 30/52/50 31/53/51 21/45/43
f 31/53/51 32/54/52 21/45/43
f 32/54/52 33/55/53 21/45/43
f 33/55/53 34/56/54 21/45/43
f 34/56/54 35/57/55 21/45/43
f 35/57/55 36/58/56 21/45/43
f 36/58/56 37/59/57 21/45/43
f 37/59/57 38/60/58 21/45/43
f 38/60/58 39/61/59 21/45/43
f 39/61/59 40/62/60 21/45/43
f 40/62/60 41/63/61 21/45/43
f 41/63/61 22/64/41 21/45/43
f 43/65/62 42/66/63 36/58/56 35/57/55
f 44/67/64 43/65/62 35/57/55 34/56/54
f 45/68/65 44/67/64 34/56/54 33/55/53
f 46/69/66 45/68/65 33/55/53 32/54/52
f 47/70/67 46/69/66 32/54/52 31/53/51
f 48/71/68 47/70/67 31/53/51 30/52/50
f 49/72/69 48/71/68 30/52/50 29/51/49
f 50/73/70 49/72/69 29/51/49 28/50/48
f 51/74/71 50/73/70 28/50/48 27/49/47
f 52/75/72 51/74/71 27/49/47 26/48/46
f 53/76/73 52/75/72 26/48/46 25/47/45
f 54/77/74 53/76/73 25/47/45 24/46/44
f 55/78/75 54/77/74 24/46/44 23/44/42
f 56/79/76 55/78/75 23/44/42 22/43/41
f 57/80/77 56/81/76 22/64/41 41/63/61
f 58/82/78 57/80/77 41/63/61 40/62/60
f 59/83/79 58/82/78 40/62/60 39/61/59
f 60/84/80 59/83/79 39/61/59 38/60/58
f 61/85/81 60/84/80 38/60/58 37/59/57
f 42/66/63 61/85/81 37/59/57 36/58/56
f 63/86/82 62/87/83 42/66/63 43/65/62
f 64/88/84 63/86/82 43/65/62 44/67/64
f 65/89/85 64/88/84 44/67/64 45/68/65
f 66/90/86 65/89/85 45/68/65 46/69/66
f 67/91/87 66/90/86 46/69/66 47/70/67
f 68/92/88 67/91/87 47/70/67 48/71/68
f 69/93/89 68/92/88 48/71/68 49/72/69
f 70/94/90 69/93/89 49/72/69 50/73/70
f 71/95/91 70/94/90 50/73/70 51/74/71
f 72/96/92 71/95/91 51/74/71 52/75/72
f 73/97/93 72/96/92 52/75/72 53/76/73
f 74/98/94 73/97/93 53/76/73 54/77/74
f 75/99/95 74/98/94 54/77/74 55/78/75
f 76/100/96 75/99/95 55/78/75 56/79/76
f 77/101/97 76/102/96 56/81/76 57/80/77
f 78/103/98 77/101/97 57/80/77 58/82/78
f 79/104/99 78/103/98 58/82/78 59/83/79
f 80/105/100 79/104/99 59/83/79 60/84/80
f 81/106/101 80/105/100 60/84/80 61/85/81
f 62/87/83 81/106/101 61/85/81 42/66/63
f 83/107/102 82/108/103 62/87/83 63/86/82
f 84/109/104 83/107/102 63/86/82 64/88/84
f 85/110/105 84/109/104 64/88/84 65/89/85
f 86/111/106 85/110/105 65/89/85 66/90/86
f 87/112/107 86/111/106 66/90/86 67/91/87
f 88/113/108 87/112/107 67/91/87 68/92/88
f 89/114/109 88/113/108 68/92/88 69/93/89
f 90/115/110 89/114/109 69/93/89 70/94/90
f 91/116/111 90/115/110 70/94/90 71/95/91
f 92/117/112 91/116/111 71/95/91 72/96/92
f 93/118/113 92/117/112 72/96/92 73/97/93
f 94/119/114 93/118/113 73/97/93 74/98/94
f 95/120/115 94/119/114 74/98/94 75/99/95
f 96/121/116 95/120/115 75/99/95 76/100/96
f 97/122/117 96/123/116 76/102/96 77/101/97
f 98/124/118 97/122/117 77/101/97 78/103/98
f 99/125/119 98/124/118 78/103/98 79/104/99
f 100/126/120 99/125/119 79/104/99 80/105/100
f 101/127/121 100/126/120 80/105/100 81/106/101
f 82/108/103 101/127/121 81/106/101 62/87/83
f 103/28/28 102/30/30 82/108/103 83/107/102
f 104/26/26 103/28/28 83/107/102 84/109/104
f 105/24/24 104/26/26 84/109/104 85/110/105
f 106/22/22 105/24/24 85/110/105 86/111/106
f 107/20/20 106/22/22 86/111/106 87/112/107
f 108/18/18 107/20/20 87/112/107 88/113/108
f 109/16/16 108/18/18 88/113/108 89/114/109
f 110/14/14 109/16/16 89/114/109 90/115/110
f 111/12/12 110/14/14 90/115/110 91/116/111
f 112/10/10 111/12/12 91/116/111 92/117/112
f 113/8/8 112/10/10 92/117/112 93/118/113
f 114/6/6 113/8/8 93/118/113 94/119/114
f 115/3/3 114/6/6 94/119/114 95/120/115
f 116/4/4 115/3/3 95/120/115 96/121/116
f 117/40/40 116/42/4 96/123/116 97/122/117
f 118/38/38 117/40/40 97/122/117 98/124/118
f 119/36/36 118/38/38 98/124/118 99/125/119
f 120/34/34 119/36/36 99/125/119 100/126/120
f 121/32/32 120/34/34 100/126/120 101/127/121
f 102/30/30 121/32/32 101/127/121 82/108/103
