# This file uses centimeters as units for non-parametric coordinates.

mtllib ChiDogShortLUpperLeg.mtl
g default
v -1.100461 -0.086677 -0.007061
v -1.074460 -0.150121 -0.064933
v -1.038941 -0.173345 -0.143989
v -1.003422 -0.150122 -0.223044
v -0.977419 -0.086676 -0.280916
v -0.967900 -0.000008 -0.302098
v -0.977419 0.086660 -0.280915
v -1.003422 0.150104 -0.223044
v -1.038941 0.173327 -0.143988
v -1.074460 0.150105 -0.064934
v -1.100461 0.086660 -0.007061
v -1.109979 -0.000009 0.014121
v -1.052061 -0.160150 0.151803
v -1.008331 -0.277381 0.043033
v -0.948597 -0.320292 -0.105550
v -0.888861 -0.277382 -0.254134
v -0.845132 -0.160148 -0.362904
v -0.829126 -0.000009 -0.402716
v -0.845132 0.160133 -0.362904
v -0.888861 0.277364 -0.254133
v -0.948597 0.320274 -0.105550
v -1.008331 0.277365 0.043033
v -1.052061 0.160132 0.151804
v -1.068067 -0.000009 0.191617
v -0.925511 -0.209244 0.288886
v -0.876984 -0.362414 0.143605
v -0.810696 -0.418478 -0.054851
v -0.744407 -0.362414 -0.253308
v -0.695881 -0.209244 -0.398587
v -0.678120 -0.000009 -0.451764
v -0.695881 0.209226 -0.398589
v -0.744407 0.362397 -0.253308
v -0.810696 0.418462 -0.054852
v -0.876984 0.362396 0.143605
v -0.925511 0.209226 0.288886
v -0.943273 -0.000008 0.342063
v -0.742190 -0.226483 0.374115
v -0.700896 -0.392273 0.213550
v -0.644487 -0.452958 -0.005786
v -0.588079 -0.392273 -0.225124
v -0.546784 -0.226481 -0.385689
v -0.531671 -0.000009 -0.444459
v -0.546784 0.226467 -0.385689
v -0.588079 0.392256 -0.225123
v -0.644487 0.452939 -0.005787
v -0.700896 0.392256 0.213550
v -0.742190 0.226466 0.374116
v -0.757305 -0.000009 0.432887
v -0.271850 -0.226482 0.453794
v -0.257955 -0.392274 0.288587
v -0.238976 -0.452955 0.062910
v -0.219998 -0.392272 -0.162768
v -0.206102 -0.226483 -0.327975
v -0.201016 -0.000009 -0.388445
v -0.206102 0.226466 -0.327976
v -0.219998 0.392256 -0.162767
v -0.238976 0.452939 0.062909
v -0.257955 0.392255 0.288588
v -0.271850 0.226465 0.453794
v -0.276934 -0.000009 0.514264
v 0.205191 -0.226482 0.453791
v 0.191294 -0.392274 0.288583
v 0.172312 -0.452955 0.062907
v 0.153328 -0.392272 -0.162771
v 0.139433 -0.226483 -0.327978
v 0.134346 -0.000009 -0.388447
v 0.139433 0.226466 -0.327978
v 0.153328 0.392256 -0.162771
v 0.172312 0.452939 0.062906
v 0.191294 0.392255 0.288585
v 0.205191 0.226465 0.453791
v 0.210276 -0.000009 0.514261
v 0.675528 -0.226483 0.374106
v 0.634233 -0.392273 0.213541
v 0.577820 -0.452958 -0.005795
v 0.521409 -0.392273 -0.225131
v 0.480112 -0.226481 -0.385697
v 0.464998 -0.000009 -0.444466
v 0.480112 0.226467 -0.385696
v 0.521409 0.392256 -0.225130
v 0.577820 0.452939 -0.005795
v 0.634233 0.392256 0.213541
v 0.675528 0.226466 0.374106
v 0.690644 -0.000009 0.432877
v -1.070290 -0.000008 -0.158339
v 0.677744 -0.191658 0.315688
v 0.642799 -0.331955 0.179814
v 0.595062 -0.383308 -0.005794
v 0.547324 -0.331955 -0.191404
v 0.512378 -0.191657 -0.327279
v 0.499587 -0.000009 -0.377012
v 0.512378 0.191641 -0.327278
v 0.547324 0.331937 -0.191403
v 0.595062 0.383289 -0.005795
v 0.642799 0.331937 0.179813
v 0.677744 0.191641 0.315688
v 0.690536 -0.000008 0.365423
v 0.595062 -0.000009 -0.005795
vt 0.683162 0.836203
vt 0.677774 0.841707
vt 0.664012 0.833558
vt 0.675223 0.822095
vt 0.675795 0.849239
vt 0.659895 0.849221
vt 0.677759 0.856772
vt 0.663980 0.864895
vt 0.683134 0.862291
vt 0.675167 0.876378
vt 0.690492 0.864315
vt 0.690462 0.880592
vt 0.697842 0.862307
vt 0.705768 0.876410
vt 0.703241 0.856797
vt 0.716976 0.864950
vt 0.705209 0.849269
vt 0.721096 0.849284
vt 0.703256 0.841733
vt 0.717009 0.833613
vt 0.697870 0.836218
vt 0.705824 0.822127
vt 0.690522 0.834188
vt 0.690527 0.817915
vt 0.647860 0.824007
vt 0.665893 0.805581
vt 0.641242 0.849203
vt 0.647808 0.874409
vt 0.665803 0.892876
vt 0.690403 0.899655
vt 0.715015 0.892926
vt 0.733050 0.874498
vt 0.739667 0.849304
vt 0.733101 0.824095
vt 0.715106 0.805632
vt 0.690507 0.798851
vt 0.627157 0.811747
vt 0.653948 0.784365
vt 0.617322 0.849178
vt 0.627080 0.886629
vt 0.653814 0.914065
vt 0.690362 0.924135
vt 0.726931 0.914141
vt 0.753721 0.886760
vt 0.763556 0.849329
vt 0.753799 0.811878
vt 0.727065 0.784441
vt 0.690516 0.774371
vt 0.598997 0.688767
vt 0.598954 0.715800
vt 0.551446 0.715800
vt 0.551455 0.688767
vt 0.598925 0.742833
vt 0.551434 0.742833
vt 0.598907 0.769866
vt 0.551418 0.769866
vt 0.598869 0.796899
vt 0.551401 0.796898
vt 0.598834 0.823931
vt 0.551382 0.823932
vt 0.598833 0.850965
vt 0.551384 0.850964
vt 0.598834 0.877998
vt 0.551382 0.877997
vt 0.598869 0.905030
vt 0.551401 0.905030
vt 0.598908 0.607668
vt 0.551418 0.607668
vt 0.598925 0.634701
vt 0.551434 0.634701
vt 0.598955 0.661734
vt 0.551446 0.661734
vt 0.503946 0.715800
vt 0.503941 0.688767
vt 0.503952 0.742833
vt 0.503951 0.769866
vt 0.503945 0.796899
vt 0.503942 0.823932
vt 0.503934 0.850964
vt 0.503942 0.877998
vt 0.503945 0.905030
vt 0.503951 0.607668
vt 0.503952 0.634701
vt 0.503946 0.661734
vt 0.456493 0.715800
vt 0.456501 0.688767
vt 0.456481 0.742833
vt 0.456477 0.769866
vt 0.456458 0.796898
vt 0.456451 0.823931
vt 0.456446 0.850965
vt 0.456451 0.877997
vt 0.456458 0.905030
vt 0.456477 0.607668
vt 0.456480 0.634701
vt 0.456492 0.661734
vt 0.690508 0.849253
vt 0.503951 0.932063
vt 0.456477 0.932063
vt 0.551418 0.932063
vt 0.598907 0.932063
vt 0.956971 0.622307
vt 0.977511 0.627810
vt 0.974161 0.632949
vt 0.956779 0.628291
vt 0.992548 0.642847
vt 0.986885 0.645673
vt 0.998052 0.663387
vt 0.991543 0.663055
vt 0.992548 0.683927
vt 0.986885 0.680436
vt 0.977511 0.698964
vt 0.974161 0.693161
vt 0.956971 0.704468
vt 0.956779 0.697818
vt 0.936431 0.698964
vt 0.939397 0.693161
vt 0.921394 0.683928
vt 0.926673 0.680437
vt 0.915890 0.663388
vt 0.922015 0.663055
vt 0.921394 0.642847
vt 0.926673 0.645673
vt 0.936431 0.627811
vt 0.939397 0.632949
vt 0.956779 0.663055
vn -0.964436 -0.254286 0.072120
vn -0.895223 -0.432958 -0.105469
vn -0.737290 -0.662115 0.134194
vn -0.826291 -0.387246 0.409002
vn -0.804635 -0.487732 -0.338644
vn -0.620712 -0.749388 -0.230510
vn -0.718868 -0.411389 -0.560346
vn -0.510832 -0.634118 -0.580469
vn -0.659299 -0.232707 -0.714963
vn -0.435303 -0.359112 -0.825560
vn -0.638204 0.000002 -0.769868
vn -0.408807 0.000000 -0.912621
vn -0.659299 0.232710 -0.714962
vn -0.435305 0.359114 -0.825558
vn -0.718868 0.411394 -0.560342
vn -0.510835 0.634117 -0.580468
vn -0.804632 0.487735 -0.338647
vn -0.620713 0.749386 -0.230514
vn -0.895222 0.432960 -0.105467
vn -0.737290 0.662114 0.134195
vn -0.964436 0.254285 0.072124
vn -0.826291 0.387245 0.409004
vn -0.990360 -0.000000 0.138514
vn -0.859561 -0.000001 0.511033
vn -0.465133 -0.812112 0.352315
vn -0.557756 -0.469645 0.684355
vn -0.341119 -0.934672 -0.100128
vn -0.220895 -0.805568 -0.549787
vn -0.136015 -0.462888 -0.875919
vn -0.105750 -0.000001 -0.994393
vn -0.136017 0.462882 -0.875922
vn -0.220895 0.805566 -0.549789
vn -0.341118 0.934673 -0.100129
vn -0.465133 0.812111 0.352316
vn -0.557755 0.469645 0.684356
vn -0.591976 -0.000000 0.805956
vn -0.153352 -0.856442 0.492940
vn -0.222267 -0.491006 0.842324
vn -0.058250 -0.998273 0.007559
vn 0.037800 -0.872563 -0.487037
vn 0.108609 -0.507187 -0.854965
vn 0.134614 -0.000000 -0.990898
vn 0.108609 0.507188 -0.854964
vn 0.037799 0.872563 -0.487037
vn -0.058252 0.998273 0.007561
vn -0.153352 0.856442 0.492940
vn -0.222267 0.491005 0.842325
vn -0.247329 -0.000001 0.968931
vn -0.043479 -0.854883 0.516996
vn -0.073090 -0.489254 0.869073
vn -0.002187 -0.999659 0.026024
vn 0.040183 -0.877563 -0.477774
vn 0.071979 -0.512146 -0.855877
vn 0.083804 -0.000000 -0.996482
vn 0.071980 0.512145 -0.855878
vn 0.040181 0.877563 -0.477775
vn -0.002189 0.999659 0.026029
vn -0.043480 0.854882 0.516997
vn -0.073090 0.489253 0.869074
vn -0.083804 -0.000001 0.996482
vn 0.043486 -0.854883 0.516996
vn 0.073102 -0.489255 0.869072
vn 0.002187 -0.999659 0.026024
vn -0.040189 -0.877563 -0.477774
vn -0.071992 -0.512146 -0.855876
vn -0.083819 0.000000 -0.996481
vn -0.071992 0.512144 -0.855877
vn -0.040188 0.877562 -0.477776
vn 0.002189 0.999659 0.026029
vn 0.043487 0.854882 0.516997
vn 0.073102 0.489254 0.869072
vn 0.083818 -0.000001 0.996481
vn 0.086886 -0.854069 0.512852
vn 0.145805 -0.487944 0.860611
vn 0.004374 -0.999656 0.025842
vn -0.080310 -0.876850 -0.474010
vn -0.143602 -0.510812 -0.847614
vn -0.167040 0.000001 -0.985950
vn -0.143604 0.510814 -0.847613
vn -0.080307 0.876850 -0.474010
vn 0.004379 0.999656 0.025844
vn 0.086887 0.854069 0.512851
vn 0.145805 0.487943 0.860612
vn 0.167040 -0.000001 0.985950
vn -0.912105 0.000001 -0.409957
vn 0.991605 -0.124089 -0.036354
vn 0.969502 -0.209135 -0.127781
vn 0.975748 -0.074115 -0.205967
vn 0.983580 -0.042978 -0.175281
vn 0.941122 -0.232964 -0.244983
vn 0.965158 -0.085053 -0.247458
vn 0.914633 -0.194914 -0.354195
vn 0.954700 -0.073181 -0.288429
vn 0.896326 -0.109822 -0.429580
vn 0.947134 -0.042044 -0.318072
vn 0.889838 0.000001 -0.456276
vn 0.944386 0.000000 -0.328840
vn 0.896326 0.109822 -0.429580
vn 0.947135 0.042045 -0.318068
vn 0.914634 0.194914 -0.354193
vn 0.954702 0.073181 -0.288426
vn 0.941123 0.232965 -0.244979
vn 0.965157 0.085053 -0.247462
vn 0.969503 0.209135 -0.127778
vn 0.975747 0.074115 -0.205973
vn 0.991605 0.124089 -0.036346
vn 0.983580 0.042978 -0.175278
vn 0.999999 -0.000000 -0.001598
vn 0.986463 0.000000 -0.163983
vn 0.968481 -0.000000 -0.249089
s 1
g FoodShortLUpperLeg
usemtl blinn1SG
f 1/1/1 2/2/2 14/3/3 13/4/4
f 2/2/2 3/5/5 15/6/6 14/3/3
f 3/5/5 4/7/7 16/8/8 15/6/6
f 4/7/7 5/9/9 17/10/10 16/8/8
f 5/9/9 6/11/11 18/12/12 17/10/10
f 6/11/11 7/13/13 19/14/14 18/12/12
f 7/13/13 8/15/15 20/16/16 19/14/14
f 8/15/15 9/17/17 21/18/18 20/16/16
f 9/17/17 10/19/19 22/20/20 21/18/18
f 10/19/19 11/21/21 23/22/22 22/20/20
f 11/21/21 12/23/23 24/24/24 23/22/22
f 12/23/23 1/1/1 13/4/4 24/24/24
f 13/4/4 14/3/3 26/25/25 25/26/26
f 14/3/3 15/6/6 27/27/27 26/25/25
f 15/6/6 16/8/8 28/28/28 27/27/27
f 16/8/8 17/10/10 29/29/29 28/28/28
f 17/10/10 18/12/12 30/30/30 29/29/29
f 18/12/12 19/14/14 31/31/31 30/30/30
f 19/14/14 20/16/16 32/32/32 31/31/31
f 20/16/16 21/18/18 33/33/33 32/32/32
f 21/18/18 22/20/20 34/34/34 33/33/33
f 22/20/20 23/22/22 35/35/35 34/34/34
f 23/22/22 24/24/24 36/36/36 35/35/35
f 24/24/24 13/4/4 25/26/26 36/36/36
f 25/26/26 26/25/25 38/37/37 37/38/38
f 26/25/25 27/27/27 39/39/39 38/37/37
f 27/27/27 28/28/28 40/40/40 39/39/39
f 28/28/28 29/29/29 41/41/41 40/40/40
f 29/29/29 30/30/30 42/42/42 41/41/41
f 30/30/30 31/31/31 43/43/43 42/42/42
f 31/31/31 32/32/32 44/44/44 43/43/43
f 32/32/32 33/33/33 45/45/45 44/44/44
f 33/33/33 34/34/34 46/46/46 45/45/45
f 34/34/34 35/35/35 47/47/47 46/46/46
f 35/35/35 36/36/36 48/48/48 47/47/47
f 36/36/36 25/26/26 37/38/38 48/48/48
f 37/49/38 38/50/37 50/51/49 49/52/50
f 38/50/37 39/53/39 51/54/51 50/51/49
f 39/53/39 40/55/40 52/56/52 51/54/51
f 40/55/40 41/57/41 53/58/53 52/56/52
f 41/57/41 42/59/42 54/60/54 53/58/53
f 42/59/42 43/61/43 55/62/55 54/60/54
f 43/61/43 44/63/44 56/64/56 55/62/55
f 44/63/44 45/65/45 57/66/57 56/64/56
f 45/65/45 46/101/46 58/100/58 57/66/57
f 46/67/46 47/69/47 59/70/59 58/68/58
f 47/69/47 48/71/48 60/72/60 59/70/59
f 48/71/48 37/49/38 49/52/50 60/72/60
f 49/52/50 50/51/49 62/73/61 61/74/62
f 50/51/49 51/54/51 63/75/63 62/73/61
f 51/54/51 52/56/52 64/76/64 63/75/63
f 52/56/52 53/58/53 65/77/65 64/76/64
f 53/58/53 54/60/54 66/78/66 65/77/65
f 54/60/54 55/62/55 67/79/67 66/78/66
f 55/62/55 56/64/56 68/80/68 67/79/67
f 56/64/56 57/66/57 69/81/69 68/80/68
f 57/66/57 58/100/58 70/98/70 69/81/69
f 58/68/58 59/70/59 71/83/71 70/82/70
f 59/70/59 60/72/60 72/84/72 71/83/71
f 60/72/60 49/52/50 61/74/62 72/84/72
f 61/74/62 62/73/61 74/85/73 73/86/74
f 62/73/61 63/75/63 75/87/75 74/85/73
f 63/75/63 64/76/64 76/88/76 75/87/75
f 64/76/64 65/77/65 77/89/77 76/88/76
f 65/77/65 66/78/66 78/90/78 77/89/77
f 66/78/66 67/79/67 79/91/79 78/90/78
f 67/79/67 68/80/68 80/92/80 79/91/79
f 68/80/68 69/81/69 81/93/81 80/92/80
f 69/81/69 70/98/70 82/99/82 81/93/81
f 70/82/70 71/83/71 83/95/83 82/94/82
f 71/83/71 72/84/72 84/96/84 83/95/83
f 72/84/72 61/74/62 73/86/74 84/96/84
f 2/2/2 1/1/1 85/97/85
f 3/5/5 2/2/2 85/97/85
f 4/7/7 3/5/5 85/97/85
f 5/9/9 4/7/7 85/97/85
f 6/11/11 5/9/9 85/97/85
f 7/13/13 6/11/11 85/97/85
f 8/15/15 7/13/13 85/97/85
f 9/17/17 8/15/15 85/97/85
f 10/19/19 9/17/17 85/97/85
f 11/21/21 10/19/19 85/97/85
f 12/23/23 11/21/21 85/97/85
f 1/1/1 12/23/23 85/97/85
s 2
f 73/102/86 74/103/87 87/104/88 86/105/89
f 74/103/87 75/106/90 88/107/91 87/104/88
f 75/106/90 76/108/92 89/109/93 88/107/91
f 76/108/92 77/110/94 90/111/95 89/109/93
f 77/110/94 78/112/96 91/113/97 90/111/95
f 78/112/96 79/114/98 92/115/99 91/113/97
f 79/114/98 80/116/100 93/117/101 92/115/99
f 80/116/100 81/118/102 94/119/103 93/117/101
f 81/118/102 82/120/104 95/121/105 94/119/103
f 82/120/104 83/122/106 96/123/107 95/121/105
f 83/122/106 84/124/108 97/125/109 96/123/107
f 84/124/108 73/102/86 86/105/89 97/125/109
f 86/105/89 87/104/88 98/126/110
f 87/104/88 88/107/91 98/126/110
f 88/107/91 89/109/93 98/126/110
f 89/109/93 90/111/95 98/126/110
f 90/111/95 91/113/97 98/126/110
f 91/113/97 92/115/99 98/126/110
f 92/115/99 93/117/101 98/126/110
f 93/117/101 94/119/103 98/126/110
f 94/119/103 95/121/105 98/126/110
f 95/121/105 96/123/107 98/126/110
f 96/123/107 97/125/109 98/126/110
f 97/125/109 86/105/89 98/126/110
