# This file uses centimeters as units for non-parametric coordinates.

mtllib ChiDogShortLUpperArm.mtl
g default
v -1.029976 0.116413 -0.198529
v -1.029971 0.201157 -0.113786
v -1.029965 0.232175 0.001976
v -1.029958 0.201157 0.117738
v -1.029953 0.116413 0.202481
v -1.029952 0.000651 0.233500
v -1.029953 -0.115110 0.202481
v -1.029958 -0.199854 0.117738
v -1.029965 -0.230872 0.001976
v -1.029971 -0.199854 -0.113786
v -1.029976 -0.115110 -0.198529
v -1.029978 0.000651 -0.229547
v -0.898839 0.214551 -0.368517
v -0.898830 0.371137 -0.211931
v -0.898817 0.428451 0.001969
v -0.898805 0.371137 0.215868
v -0.898796 0.214551 0.372454
v -0.898793 0.000651 0.429768
v -0.898796 -0.213249 0.372454
v -0.898805 -0.369834 0.215868
v -0.898817 -0.427148 0.001969
v -0.898830 -0.369834 -0.211931
v -0.898839 -0.213249 -0.368517
v -0.898842 0.000651 -0.425831
v -0.702569 0.280125 -0.482105
v -0.702558 0.484714 -0.277516
v -0.702542 0.559598 0.001957
v -0.702526 0.484714 0.281431
v -0.702514 0.280125 0.486020
v -0.702510 0.000651 0.560904
v -0.702514 -0.278822 0.486020
v -0.702526 -0.483411 0.281431
v -0.702542 -0.558296 0.001957
v -0.702558 -0.483411 -0.277516
v -0.702569 -0.278822 -0.482105
v -0.702574 0.000651 -0.556989
v -0.471048 0.303151 -0.522002
v -0.471035 0.524597 -0.300556
v -0.471018 0.605651 0.001944
v -0.471001 0.524597 0.304444
v -0.470988 0.303151 0.525890
v -0.470984 0.000651 0.606944
v -0.470988 -0.301849 0.525890
v -0.471001 -0.523294 0.304444
v -0.471018 -0.604349 0.001944
v -0.471035 -0.523294 -0.300556
v -0.471048 -0.301849 -0.522002
v -0.471053 0.000651 -0.603055
v 0.737948 0.303151 -0.522071
v 0.737960 0.524597 -0.300625
v 0.737978 0.605651 0.001875
v 0.737995 0.524597 0.304375
v 0.738008 0.303151 0.525821
v 0.738012 0.000651 0.606875
v 0.738008 -0.301849 0.525821
v 0.737995 -0.523294 0.304375
v 0.737978 -0.604349 0.001875
v 0.737960 -0.523294 -0.300625
v 0.737948 -0.301849 -0.522071
v 0.737943 0.000651 -0.603124
v -1.076018 0.000651 0.001979
v 0.760431 0.000652 0.001874
v 0.751893 0.375229 -0.214388
v 0.751884 0.216914 -0.372704
v 0.751880 0.000651 -0.430651
v 0.751884 -0.215611 -0.372704
v 0.751893 -0.373927 -0.214388
v 0.751905 -0.431874 0.001874
v 0.751917 -0.373927 0.218137
v 0.751927 -0.215611 0.376453
v 0.751930 0.000651 0.434400
v 0.751927 0.216914 0.376453
v 0.751917 0.375229 0.218137
v 0.751905 0.433177 0.001874
vt 0.705282 0.841063
vt 0.699772 0.835680
vt 0.707907 0.821910
vt 0.719381 0.833109
vt 0.692238 0.833709
vt 0.692239 0.817809
vt 0.684707 0.835680
vt 0.676569 0.821910
vt 0.679193 0.841062
vt 0.665098 0.833109
vt 0.677177 0.848421
vt 0.660900 0.848409
vt 0.679193 0.855769
vt 0.665098 0.863710
vt 0.684708 0.861163
vt 0.676569 0.874907
vt 0.692238 0.863123
vt 0.692240 0.879010
vt 0.699772 0.861162
vt 0.707907 0.874907
vt 0.705282 0.855770
vt 0.719381 0.863710
vt 0.707304 0.848421
vt 0.723577 0.848408
vt 0.717441 0.805748
vt 0.735886 0.823762
vt 0.692238 0.799156
vt 0.667039 0.805748
vt 0.648591 0.823763
vt 0.641838 0.848369
vt 0.648591 0.872975
vt 0.667038 0.890990
vt 0.692238 0.897581
vt 0.717441 0.890989
vt 0.735886 0.872975
vt 0.742641 0.848369
vt 0.729680 0.785032
vt 0.757089 0.811795
vt 0.692239 0.775236
vt 0.654798 0.785033
vt 0.627389 0.811795
vt 0.617357 0.848353
vt 0.627389 0.884912
vt 0.654798 0.911674
vt 0.692239 0.921470
vt 0.729679 0.911674
vt 0.757089 0.884912
vt 0.767121 0.848353
vt 0.598997 0.605870
vt 0.598955 0.632902
vt 0.494529 0.632902
vt 0.494547 0.605883
vt 0.598926 0.659935
vt 0.494538 0.659935
vt 0.598908 0.686968
vt 0.494540 0.686968
vt 0.598869 0.714002
vt 0.494538 0.714001
vt 0.598835 0.741034
vt 0.494535 0.741034
vt 0.598834 0.768068
vt 0.494543 0.768067
vt 0.598835 0.795101
vt 0.494534 0.795100
vt 0.598869 0.822133
vt 0.494538 0.822133
vt 0.598908 0.849166
vt 0.494540 0.849166
vt 0.598925 0.876199
vt 0.494538 0.876199
vt 0.598955 0.903232
vt 0.494529 0.903232
vt 0.598997 0.930265
vt 0.494547 0.930251
vt 0.692239 0.848422
vt 0.938621 0.715019
vt 0.956501 0.710228
vt 0.956501 0.719595
vt 0.943306 0.723132
vt 0.974379 0.715016
vt 0.969694 0.723130
vt 0.987467 0.728108
vt 0.979353 0.732791
vt 0.992258 0.745984
vt 0.982889 0.745985
vt 0.987468 0.763867
vt 0.979353 0.759181
vt 0.974380 0.776951
vt 0.969694 0.768840
vt 0.956500 0.781745
vt 0.956501 0.772378
vt 0.938623 0.776952
vt 0.943306 0.768840
vt 0.925533 0.763866
vt 0.933646 0.759181
vt 0.920743 0.745986
vt 0.930110 0.745986
vt 0.925534 0.728107
vt 0.933646 0.732791
vt 0.956502 0.745986
vn -0.873036 0.243851 -0.422309
vn -0.873024 0.422362 -0.243801
vn -0.662364 0.648827 -0.374563
vn -0.662380 0.374601 -0.648789
vn -0.873011 0.487701 0.000047
vn -0.662343 0.749201 0.000038
vn -0.872997 0.422362 0.243898
vn -0.662321 0.648827 0.374638
vn -0.872988 0.243851 0.422409
vn -0.662306 0.374601 0.648865
vn -0.872985 0.000000 0.487748
vn -0.662300 -0.000000 0.749238
vn -0.872988 -0.243851 0.422409
vn -0.662305 -0.374601 0.648865
vn -0.872997 -0.422362 0.243901
vn -0.662321 -0.648828 0.374638
vn -0.873011 -0.487701 0.000052
vn -0.662342 -0.749201 0.000038
vn -0.873025 -0.422362 -0.243799
vn -0.662364 -0.648827 -0.374563
vn -0.873036 -0.243851 -0.422309
vn -0.662380 -0.374601 -0.648789
vn -0.873040 0.000000 -0.487648
vn -0.662386 0.000000 -0.749163
vn -0.355815 0.809359 -0.467262
vn -0.355835 0.467283 -0.809338
vn -0.355788 0.934567 0.000022
vn -0.355762 0.809359 0.467303
vn -0.355743 0.467283 0.809378
vn -0.355735 0.000000 0.934587
vn -0.355742 -0.467283 0.809379
vn -0.355761 -0.809359 0.467304
vn -0.355788 -0.934567 0.000020
vn -0.355815 -0.809358 -0.467264
vn -0.355835 -0.467283 -0.809338
vn -0.355842 -0.000000 -0.934546
vn -0.030113 0.865634 -0.499772
vn -0.030134 0.499773 -0.865632
vn -0.030084 0.999547 0.000002
vn -0.030055 0.865634 0.499775
vn -0.030035 0.499773 0.865635
vn -0.030027 0.000000 0.999549
vn -0.030035 -0.499773 0.865636
vn -0.030056 -0.865634 0.499775
vn -0.030084 -0.999547 0.000002
vn -0.030113 -0.865634 -0.499772
vn -0.030134 -0.499773 -0.865632
vn -0.030141 -0.000000 -0.999546
vn -0.000029 0.866026 -0.500000
vn -0.000049 0.499999 -0.866026
vn 0.000000 1.000000 0.000000
vn 0.000029 0.866026 0.500000
vn 0.000049 0.499999 0.866026
vn 0.000057 0.000000 1.000000
vn 0.000049 -0.499999 0.866026
vn 0.000029 -0.866026 0.500000
vn 0.000000 -1.000000 -0.000000
vn -0.000029 -0.866026 -0.500000
vn -0.000049 -0.499999 -0.866026
vn -0.000057 0.000000 -1.000000
vn -1.000000 -0.000000 0.000057
vn 0.996752 0.040244 -0.069756
vn 0.996753 0.069706 -0.040297
vn 0.998509 0.047257 -0.027340
vn 0.998508 0.027284 -0.047309
vn 0.996755 0.080489 -0.000054
vn 0.998510 0.054567 -0.000056
vn 0.996758 0.069705 0.040187
vn 0.998512 0.047257 0.027228
vn 0.996760 0.040244 0.069647
vn 0.998513 0.027284 0.047198
vn 0.996760 -0.000000 0.080428
vn 0.998513 0.000000 0.054508
vn 0.996760 -0.040244 0.069648
vn 0.998513 -0.027284 0.047198
vn 0.996758 -0.069705 0.040187
vn 0.998512 -0.047257 0.027225
vn 0.996756 -0.080489 -0.000060
vn 0.998510 -0.054567 -0.000059
vn 0.996753 -0.069705 -0.040307
vn 0.998509 -0.047257 -0.027341
vn 0.996752 -0.040244 -0.069762
vn 0.998508 -0.027284 -0.047311
vn 0.996752 -0.000000 -0.080535
vn 0.998507 0.000000 -0.054619
vn 1.000000 0.000000 -0.000057
s 1
g FoodShortLUpperArm
usemtl blinn1SG
f 1/1/1 2/2/2 14/3/3 13/4/4
f 2/2/2 3/5/5 15/6/6 14/3/3
f 3/5/5 4/7/7 16/8/8 15/6/6
f 4/7/7 5/9/9 17/10/10 16/8/8
f 5/9/9 6/11/11 18/12/12 17/10/10
f 6/11/11 7/13/13 19/14/14 18/12/12
f 7/13/13 8/15/15 20/16/16 19/14/14
f 8/15/15 9/17/17 21/18/18 20/16/16
f 9/17/17 10/19/19 22/20/20 21/18/18
f 10/19/19 11/21/21 23/22/22 22/20/20
f 11/21/21 12/23/23 24/24/24 23/22/22
f 12/23/23 1/1/1 13/4/4 24/24/24
f 13/4/4 14/3/3 26/25/25 25/26/26
f 14/3/3 15/6/6 27/27/27 26/25/25
f 15/6/6 16/8/8 28/28/28 27/27/27
f 16/8/8 17/10/10 29/29/29 28/28/28
f 17/10/10 18/12/12 30/30/30 29/29/29
f 18/12/12 19/14/14 31/31/31 30/30/30
f 19/14/14 20/16/16 32/32/32 31/31/31
f 20/16/16 21/18/18 33/33/33 32/32/32
f 21/18/18 22/20/20 34/34/34 33/33/33
f 22/20/20 23/22/22 35/35/35 34/34/34
f 23/22/22 24/24/24 36/36/36 35/35/35
f 24/24/24 13/4/4 25/26/26 36/36/36
f 25/26/26 26/25/25 38/37/37 37/38/38
f 26/25/25 27/27/27 39/39/39 38/37/37
f 27/27/27 28/28/28 40/40/40 39/39/39
f 28/28/28 29/29/29 41/41/41 40/40/40
f 29/29/29 30/30/30 42/42/42 41/41/41
f 30/30/30 31/31/31 43/43/43 42/42/42
f 31/31/31 32/32/32 44/44/44 43/43/43
f 32/32/32 33/33/33 45/45/45 44/44/44
f 33/33/33 34/34/34 46/46/46 45/45/45
f 34/34/34 35/35/35 47/47/47 46/46/46
f 35/35/35 36/36/36 48/48/48 47/47/47
f 36/36/36 25/26/26 37/38/38 48/48/48
f 37/49/38 38/50/37 50/51/49 49/52/50
f 38/50/37 39/53/39 51/54/51 50/51/49
f 39/53/39 40/55/40 52/56/52 51/54/51
f 40/55/40 41/57/41 53/58/53 52/56/52
f 41/57/41 42/59/42 54/60/54 53/58/53
f 42/59/42 43/61/43 55/62/55 54/60/54
f 43/61/43 44/63/44 56/64/56 55/62/55
f 44/63/44 45/65/45 57/66/57 56/64/56
f 45/65/45 46/67/46 58/68/58 57/66/57
f 46/67/46 47/69/47 59/70/59 58/68/58
f 47/69/47 48/71/48 60/72/60 59/70/59
f 48/71/48 37/73/38 49/74/50 60/72/60
f 2/2/2 1/1/1 61/75/61
f 3/5/5 2/2/2 61/75/61
f 4/7/7 3/5/5 61/75/61
f 5/9/9 4/7/7 61/75/61
f 6/11/11 5/9/9 61/75/61
f 7/13/13 6/11/11 61/75/61
f 8/15/15 7/13/13 61/75/61
f 9/17/17 8/15/15 61/75/61
f 10/19/19 9/17/17 61/75/61
f 11/21/21 10/19/19 61/75/61
f 12/23/23 11/21/21 61/75/61
f 1/1/1 12/23/23 61/75/61
s 2
f 49/76/62 50/77/63 63/78/64 64/79/65
f 50/77/63 51/80/66 74/81/67 63/78/64
f 51/80/66 52/82/68 73/83/69 74/81/67
f 52/82/68 53/84/70 72/85/71 73/83/69
f 53/84/70 54/86/72 71/87/73 72/85/71
f 54/86/72 55/88/74 70/89/75 71/87/73
f 55/88/74 56/90/76 69/91/77 70/89/75
f 56/90/76 57/92/78 68/93/79 69/91/77
f 57/92/78 58/94/80 67/95/81 68/93/79
f 58/94/80 59/96/82 66/97/83 67/95/81
f 59/96/82 60/98/84 65/99/85 66/97/83
f 60/98/84 49/76/62 64/79/65 65/99/85
f 64/79/65 63/78/64 62/100/86
f 65/99/85 64/79/65 62/100/86
f 66/97/83 65/99/85 62/100/86
f 67/95/81 66/97/83 62/100/86
f 68/93/79 67/95/81 62/100/86
f 69/91/77 68/93/79 62/100/86
f 70/89/75 69/91/77 62/100/86
f 71/87/73 70/89/75 62/100/86
f 72/85/71 71/87/73 62/100/86
f 73/83/69 72/85/71 62/100/86
f 74/81/67 73/83/69 62/100/86
f 63/78/64 74/81/67 62/100/86
