# This file uses centimeters as units for non-parametric coordinates.

mtllib BananaShortRUpperArm.mtl
g default
v 0.837414 0.088184 0.331947
v 0.837414 -0.081832 0.331947
v 0.722579 -0.194656 0.364090
v 0.636714 0.003176 0.479358
v 0.722579 0.201009 0.364090
v 0.579132 -0.273430 0.297658
v 0.469461 0.003176 0.466062
v 0.579133 0.279782 0.297658
v 0.278157 -0.356597 0.164624
v 0.166112 0.003176 0.400783
v 0.278157 0.362950 0.164624
v -0.029121 -0.396090 0.059118
v -0.117267 0.003176 0.335486
v -0.029121 0.402442 0.059118
v -0.344886 -0.420788 -0.009257
v -0.398364 0.003176 0.294094
v -0.344886 0.427141 -0.009257
v 0.659360 -0.134668 0.449061
v 0.652095 -0.117889 0.458912
v 0.652095 0.124241 0.458912
v 0.659360 0.141020 0.449061
v 0.796856 0.215798 0.264406
v 0.808556 0.209315 0.248517
v 0.808556 -0.202964 0.248517
v 0.796855 -0.209447 0.264405
v 0.495964 -0.187341 0.425395
v 0.489287 -0.170575 0.435675
v 0.489287 0.176927 0.435675
v 0.495964 0.193693 0.425395
v 0.676264 0.301009 0.148517
v 0.687000 0.294493 0.131975
v 0.687000 -0.288141 0.131975
v 0.676264 -0.294657 0.148517
v 0.191890 -0.242938 0.346450
v 0.186636 -0.226172 0.357525
v 0.186636 0.232524 0.357525
v 0.191890 0.249290 0.346450
v 0.378848 0.390967 -0.047608
v 0.387302 0.384450 -0.065425
v 0.387302 -0.378098 -0.065425
v 0.378848 -0.384614 -0.047608
v -0.097319 -0.269338 0.272942
v -0.101043 -0.252571 0.284619
v -0.101043 0.258924 0.284619
v -0.097319 0.275690 0.272942
v 0.050013 0.433719 -0.190594
v 0.055921 0.427211 -0.209411
v 0.055921 -0.420858 -0.209411
v 0.050013 -0.427366 -0.190594
v -0.386369 -0.285848 0.226049
v -0.388496 -0.269082 0.238120
v -0.388496 0.275434 0.238120
v -0.386369 0.292199 0.226049
v -0.296477 0.460399 -0.283870
v -0.293052 0.453885 -0.303291
v -0.293052 -0.447532 -0.303291
v -0.296477 -0.454047 -0.283870
v 0.874692 0.003176 0.407723
v 0.797641 -0.050399 0.454793
v 0.812614 -0.041698 0.450250
v 0.819628 -0.056862 0.441717
v 0.805423 -0.067068 0.445333
v 0.805423 0.073420 0.445334
v 0.819628 0.063214 0.441717
v 0.812614 0.048050 0.450250
v 0.797641 0.056751 0.454794
v 0.882372 0.099899 0.351374
v 0.885321 0.085465 0.361911
v 0.873932 0.091339 0.375769
v 0.869842 0.106505 0.366608
v 0.869842 -0.100153 0.366608
v 0.873932 -0.084986 0.375769
v 0.885321 -0.079113 0.361911
v 0.882372 -0.093549 0.351374
v 0.834429 -0.093736 0.409558
v 0.844208 -0.079059 0.411923
v 0.789851 0.003176 0.464008
v 0.806442 0.003176 0.457787
v 0.834430 0.100088 0.409558
v 0.844208 0.085411 0.411923
v 0.861511 0.125444 0.177584
v 0.896508 0.003176 0.130603
v 0.756584 0.174129 0.025175
v 0.801092 0.003176 -0.043169
v 0.459448 0.225529 -0.217490
v 0.504920 0.003176 -0.313332
v 0.113501 0.249936 -0.388054
v 0.149274 0.003176 -0.500213
v -0.258360 0.265201 -0.500089
v -0.236657 0.003176 -0.623200
v 0.906654 0.063074 0.321445
v 0.905918 0.054256 0.337023
v 0.925256 0.003176 0.298749
v 0.921874 0.003176 0.317692
v 0.861511 -0.119091 0.177584
v 0.756584 -0.167776 0.025175
v 0.459448 -0.219177 -0.217490
v 0.113501 -0.243584 -0.388053
v -0.258360 -0.258848 -0.500089
v 0.906654 -0.056722 0.321445
v 0.905918 -0.047905 0.337023
v -0.514583 -0.424216 -0.026268
v -0.514601 0.003176 0.284532
v -0.514582 0.430568 -0.026268
v -0.514598 -0.270982 0.227266
v -0.514596 -0.287770 0.214996
v -0.514596 0.294123 0.214996
v -0.514598 0.277334 0.227265
v -0.514565 0.458192 -0.328413
v -0.514565 0.464671 -0.308613
v -0.514565 -0.458318 -0.308613
v -0.514565 -0.451839 -0.328413
v -0.514552 0.267851 -0.531162
v -0.514546 0.003176 -0.658071
v -0.514552 -0.261500 -0.531162
v -0.514576 0.003176 -0.134138
vt 0.750483 0.106051
vt 0.753828 0.107022
vt 0.745820 0.136851
vt 0.742541 0.136108
vt 0.795044 0.107022
vt 0.798388 0.106051
vt 0.806336 0.136105
vt 0.803057 0.136848
vt 0.836696 0.080060
vt 0.839425 0.076455
vt 0.868197 0.105658
vt 0.864711 0.108235
vt 0.709441 0.076446
vt 0.712170 0.080053
vt 0.684162 0.108241
vt 0.680676 0.105665
vt 0.735044 0.197123
vt 0.731563 0.196612
vt 0.817319 0.196615
vt 0.813838 0.197126
vt 0.904499 0.170457
vt 0.900595 0.172189
vt 0.648297 0.172184
vt 0.644395 0.170452
vt 0.728430 0.257945
vt 0.724737 0.257625
vt 0.824144 0.257629
vt 0.820452 0.257949
vt 0.926787 0.239973
vt 0.922547 0.240997
vt 0.626324 0.240995
vt 0.622081 0.239971
vt 0.724821 0.320520
vt 0.721087 0.320343
vt 0.827800 0.320342
vt 0.824065 0.320520
vt 0.938289 0.311717
vt 0.933997 0.312150
vt 0.614881 0.312164
vt 0.610589 0.311732
vt 0.724378 0.347950
vt 0.720623 0.348142
vt 0.828263 0.348141
vt 0.824507 0.347949
vt 0.939792 0.355651
vt 0.935508 0.355422
vt 0.613369 0.355428
vt 0.609086 0.355657
vt 0.731626 0.095723
vt 0.714585 0.124985
vt 0.774439 0.108429
vt 0.774439 0.138644
vt 0.817245 0.095727
vt 0.834293 0.124982
vt 0.691841 0.186911
vt 0.774439 0.199024
vt 0.857046 0.186914
vt 0.677831 0.250940
vt 0.774439 0.259257
vt 0.871051 0.250942
vt 0.670388 0.316846
vt 0.774439 0.321772
vt 0.878497 0.316841
vt 0.669356 0.351698
vt 0.774439 0.347455
vt 0.879528 0.351695
vt 0.764208 0.078861
vt 0.765502 0.075653
vt 0.774439 0.076339
vt 0.774439 0.079831
vt 0.760580 0.077522
vt 0.762033 0.074367
vt 0.752200 0.071563
vt 0.754929 0.069012
vt 0.788294 0.077525
vt 0.786842 0.074369
vt 0.793948 0.069015
vt 0.796677 0.071566
vt 0.784667 0.078863
vt 0.783373 0.075655
vt 0.802195 0.057898
vt 0.805726 0.058324
vt 0.804120 0.062677
vt 0.800589 0.061535
vt 0.744762 0.062674
vt 0.748293 0.061533
vt 0.743159 0.058320
vt 0.746688 0.057896
vt 0.774439 0.054139
vt 0.813818 0.048991
vt 0.735070 0.048985
vt 0.066531 0.893780
vt 0.072875 0.870473
vt 0.105174 0.870473
vt 0.099227 0.905279
vt 0.172521 0.870473
vt 0.168031 0.918531
vt 0.240328 0.870473
vt 0.237591 0.925353
vt 0.308932 0.870473
vt 0.307602 0.928815
vt 0.356230 0.870473
vt 0.353833 0.929487
vt 0.054925 0.915239
vt 0.088493 0.939711
vt 0.159878 0.965911
vt 0.232925 0.978943
vt 0.305448 0.985534
vt 0.349601 0.986514
vt 0.040715 0.879743
vt 0.038380 0.877954
vt 0.042027 0.870473
vt 0.044866 0.870473
vt 0.034188 0.886532
vt 0.033112 0.881830
vt 0.027660 0.870473
vt 0.072878 0.870473
vt 0.066543 0.847213
vt 0.099179 0.835735
vt 0.105132 0.870473
vt 0.167948 0.822408
vt 0.172450 0.870473
vt 0.237542 0.815550
vt 0.240279 0.870473
vt 0.307572 0.812134
vt 0.308904 0.870473
vt 0.353817 0.811446
vt 0.356219 0.870473
vt 0.054960 0.825824
vt 0.088413 0.801356
vt 0.159756 0.774997
vt 0.232884 0.761927
vt 0.305412 0.755448
vt 0.349562 0.754397
vt 0.044909 0.870473
vt 0.042072 0.870473
vt 0.038430 0.862986
vt 0.040768 0.861195
vt 0.033168 0.859094
vt 0.034260 0.854392
vt 0.027692 0.870473
vt 0.970102 0.099689
vt 0.968425 0.100890
vt 0.941032 0.065532
vt 0.913640 0.100890
vt 0.911963 0.099689
vt 0.894923 0.048462
vt 0.895570 0.046525
vt 0.986495 0.046525
vt 0.987142 0.048462
vt 0.983735 0.076086
vt 0.941032 0.106492
vt 0.898330 0.076085
vt 0.914588 0.026689
vt 0.941032 0.014273
vt 0.967477 0.026689
vn 0.182174 -0.703015 0.687446
vn -0.007209 -0.217346 0.976068
vn -0.166960 -0.229808 0.958808
vn 0.026807 -0.804266 0.593664
vn -0.007210 0.217346 0.976068
vn 0.182173 0.703017 0.687445
vn 0.026807 0.804267 0.593663
vn -0.166960 0.229808 0.958808
vn 0.400945 0.847681 0.347392
vn 0.734911 0.659926 -0.156212
vn 0.558048 0.724678 -0.404258
vn 0.223631 0.950611 0.215240
vn 0.734913 -0.659925 -0.156215
vn 0.400938 -0.847682 0.347395
vn 0.223629 -0.950611 0.215240
vn 0.558048 -0.724678 -0.404259
vn -0.209630 -0.234071 0.949350
vn -0.038458 -0.836327 0.546880
vn -0.038457 0.836327 0.546880
vn -0.209630 0.234072 0.949350
vn 0.417797 0.741584 -0.524880
vn 0.126747 0.980954 0.147189
vn 0.126747 -0.980954 0.147189
vn 0.417797 -0.741584 -0.524880
vn -0.177016 -0.234030 0.955979
vn -0.050512 -0.850817 0.523028
vn -0.050513 0.850817 0.523028
vn -0.177016 0.234030 0.955979
vn 0.279830 0.744595 -0.606030
vn 0.067030 0.991808 0.108737
vn 0.067031 -0.991808 0.108737
vn 0.279830 -0.744595 -0.606030
vn -0.122054 -0.233916 0.964565
vn -0.037407 -0.854806 0.517598
vn -0.037408 0.854806 0.517598
vn -0.122054 0.233917 0.964565
vn 0.169833 0.745537 -0.644462
vn 0.037288 0.994870 0.094037
vn 0.037288 -0.994870 0.094036
vn 0.169833 -0.745537 -0.644462
vn -0.079568 -0.234605 0.968829
vn -0.032588 -0.858139 0.512382
vn -0.032587 0.858140 0.512381
vn -0.079568 0.234606 0.968829
vn 0.089020 0.743290 -0.663020
vn 0.010909 0.996439 0.083615
vn 0.010909 -0.996439 0.083613
vn 0.089020 -0.743291 -0.663018
vn 0.288605 -0.803988 0.519914
vn 0.127396 -0.906138 0.403342
vn -0.024148 -0.000000 0.999708
vn -0.178878 0.000000 0.983871
vn 0.288607 0.803988 0.519912
vn 0.127397 0.906137 0.403343
vn 0.046702 -0.938227 0.342855
vn -0.220170 0.000000 0.975461
vn 0.046702 0.938226 0.342856
vn 0.010383 -0.950989 0.309051
vn -0.184826 -0.000000 0.982771
vn 0.010382 0.950989 0.309051
vn 0.002380 -0.955938 0.293557
vn -0.127091 -0.000000 0.991891
vn 0.002380 0.955938 0.293558
vn -0.008356 -0.961771 0.273727
vn -0.082325 -0.000000 0.996605
vn -0.008355 0.961771 0.273728
vn 0.132912 -0.198797 0.970986
vn 0.519101 -0.112123 0.847327
vn 0.506828 -0.000003 0.862047
vn 0.112295 -0.000001 0.993675
vn 0.304623 -0.600662 0.739196
vn 0.598136 -0.271833 0.753883
vn 0.405517 -0.695432 0.593237
vn 0.660576 -0.321287 0.678538
vn 0.304624 0.600664 0.739193
vn 0.598143 0.271833 0.753878
vn 0.660577 0.321289 0.678536
vn 0.405520 0.695434 0.593234
vn 0.132911 0.198796 0.970986
vn 0.519107 0.112121 0.847323
vn 0.854090 0.264864 0.447635
vn 0.819838 0.571238 0.039403
vn 0.520320 0.730672 0.442024
vn 0.727248 0.337529 0.597649
vn 0.520313 -0.730672 0.442033
vn 0.727246 -0.337524 0.597655
vn 0.819839 -0.571236 0.039400
vn 0.854089 -0.264864 0.447637
vn 0.776816 0.000000 0.629727
vn 0.450491 -0.464496 -0.762431
vn 0.450491 -0.464496 -0.762431
vn 0.450491 -0.464496 -0.762431
vn 0.450509 0.464474 -0.762434
vn 0.450509 0.464474 -0.762434
vn 0.450509 0.464474 -0.762434
vn 0.818742 0.500183 -0.281919
vn 0.919563 0.000000 -0.392942
vn 0.731562 -0.000001 -0.681775
vn 0.634143 0.555699 -0.537644
vn 0.562272 -0.000000 -0.826952
vn 0.480629 0.571197 -0.665380
vn 0.381893 -0.000000 -0.924206
vn 0.323745 0.575255 -0.751179
vn 0.230601 0.000000 -0.973048
vn 0.195872 0.575128 -0.794268
vn 0.124869 0.000000 -0.992173
vn 0.104836 0.569399 -0.815349
vn 0.899180 0.430679 -0.077406
vn 0.900495 0.188119 0.392071
vn 0.937261 0.000001 0.348630
vn 0.988798 0.000000 -0.149262
vn 0.818742 -0.500181 -0.281921
vn 0.634143 -0.555698 -0.537645
vn 0.480628 -0.571197 -0.665380
vn 0.323745 -0.575255 -0.751179
vn 0.195873 -0.575127 -0.794269
vn 0.104837 -0.569399 -0.815349
vn 0.900496 -0.188117 0.392071
vn 0.899181 -0.430676 -0.077409
vn -1.000000 -0.000040 -0.000092
vn -1.000000 -0.000040 -0.000092
vn -1.000000 -0.000040 -0.000092
vn -1.000000 0.000031 -0.000084
vn -1.000000 0.000031 -0.000084
vn -1.000000 0.000031 -0.000084
vn -1.000000 0.000016 -0.000019
vn -1.000000 0.000016 -0.000019
vn -1.000000 0.000016 -0.000019
vn -1.000000 -0.000011 -0.000030
vn -1.000000 -0.000011 -0.000030
vn -1.000000 -0.000011 -0.000030
vn -1.000000 0.000002 -0.000056
vn -1.000000 0.000002 -0.000057
vn -1.000000 0.000002 -0.000057
vn -1.000000 0.000001 -0.000060
vn -1.000000 0.000001 -0.000060
vn -1.000000 0.000001 -0.000060
vn -1.000000 -0.000000 -0.000060
vn -1.000000 -0.000000 -0.000060
vn -1.000000 -0.000000 -0.000060
vn -1.000000 0.000001 -0.000059
vn -1.000000 0.000001 -0.000059
vn -1.000000 0.000001 -0.000059
vn -1.000000 0.000001 -0.000059
vn -1.000000 0.000001 -0.000059
vn -1.000000 0.000001 -0.000059
vn -1.000000 0.000001 -0.000062
vn -1.000000 0.000001 -0.000062
vn -1.000000 0.000001 -0.000062
vn -1.000000 0.000003 -0.000058
vn -1.000000 0.000003 -0.000058
vn -1.000000 0.000003 -0.000058
vn -1.000000 -0.000002 -0.000061
vn -1.000000 -0.000002 -0.000061
vn -1.000000 -0.000002 -0.000061
vn -1.000000 -0.000003 -0.000058
vn -1.000000 -0.000003 -0.000058
vn -1.000000 -0.000003 -0.000058
vn -1.000000 0.000002 -0.000061
vn -1.000000 0.000002 -0.000061
vn -1.000000 0.000002 -0.000061
s 1
g FoodShortRUpperArm
usemtl blinn1SG
f 18/1/1 19/2/2 27/3/3 26/4/4
f 20/5/5 21/6/6 29/7/7 28/8/8
f 22/9/9 23/10/10 31/11/11 30/12/12
f 24/13/13 25/14/14 33/15/15 32/16/16
f 26/4/4 27/3/3 35/17/17 34/18/18
f 28/8/8 29/7/7 37/19/19 36/20/20
f 30/12/12 31/11/11 39/21/21 38/22/22
f 32/16/16 33/15/15 41/23/23 40/24/24
f 34/18/18 35/17/17 43/25/25 42/26/26
f 36/20/20 37/19/19 45/27/27 44/28/28
f 38/22/22 39/21/21 47/29/29 46/30/30
f 40/24/24 41/23/23 49/31/31 48/32/32
f 42/26/26 43/25/25 51/33/33 50/34/34
f 44/28/28 45/27/27 53/35/35 52/36/36
f 46/30/30 47/29/29 55/37/37 54/38/38
f 48/32/32 49/31/31 57/39/39 56/40/40
f 50/34/34 51/33/33 105/41/41 106/42/42
f 52/36/36 53/35/35 107/43/43 108/44/44
f 54/38/38 55/37/37 109/45/45 110/46/46
f 56/40/40 57/39/39 111/47/47 112/48/48
f 3/49/49 18/1/1 26/4/4 6/50/50
f 19/2/2 4/51/51 7/52/52 27/3/3
f 4/51/51 20/5/5 28/8/8 7/52/52
f 21/6/6 5/53/53 8/54/54 29/7/7
f 5/53/53 22/9/9 30/12/12 8/54/54
f 25/14/14 3/49/49 6/50/50 33/15/15
f 6/50/50 26/4/4 34/18/18 9/55/55
f 27/3/3 7/52/52 10/56/56 35/17/17
f 7/52/52 28/8/8 36/20/20 10/56/56
f 29/7/7 8/54/54 11/57/57 37/19/19
f 8/54/54 30/12/12 38/22/22 11/57/57
f 33/15/15 6/50/50 9/55/55 41/23/23
f 9/55/55 34/18/18 42/26/26 12/58/58
f 35/17/17 10/56/56 13/59/59 43/25/25
f 10/56/56 36/20/20 44/28/28 13/59/59
f 37/19/19 11/57/57 14/60/60 45/27/27
f 11/57/57 38/22/22 46/30/30 14/60/60
f 41/23/23 9/55/55 12/58/58 49/31/31
f 12/58/58 42/26/26 50/34/34 15/61/61
f 43/25/25 13/59/59 16/62/62 51/33/33
f 13/59/59 44/28/28 52/36/36 16/62/62
f 45/27/27 14/60/60 17/63/63 53/35/35
f 14/60/60 46/30/30 54/38/38 17/63/63
f 49/31/31 12/58/58 15/61/61 57/39/39
f 15/61/61 50/34/34 106/42/42 102/64/64
f 51/33/33 16/62/62 103/65/65 105/41/41
f 16/62/62 52/36/36 108/44/44 103/65/65
f 53/35/35 17/63/63 104/66/66 107/43/43
f 17/63/63 54/38/38 110/46/46 104/66/66
f 57/39/39 15/61/61 102/64/64 111/47/47
f 59/67/67 60/68/68 78/69/69 77/70/70
f 60/68/68 59/67/67 62/71/71 61/72/72
f 61/72/72 62/71/71 75/73/73 76/74/74
f 63/75/75 64/76/76 80/77/77 79/78/78
f 64/76/76 63/75/75 66/79/79 65/80/80
f 65/80/80 66/79/79 77/70/70 78/69/69
f 68/81/81 67/82/82 70/83/83 69/84/84
f 69/84/84 70/83/83 79/78/78 80/77/77
f 71/85/85 72/86/86 76/74/74 75/73/73
f 72/86/86 71/85/85 74/87/87 73/88/88
f 60/68/68 61/72/72 58/89/89
f 62/71/71 59/67/67 19/2/2 18/1/1
f 64/76/76 65/80/80 58/89/89
f 66/79/79 63/75/75 21/6/6 20/5/5
f 68/81/81 69/84/84 58/89/89
f 70/83/83 67/82/82 23/10/10 22/9/9
f 72/86/86 73/88/88 58/89/89
f 74/87/87 71/85/85 25/14/14 24/13/13
f 75/73/73 62/71/71 18/1/1 3/49/49
f 59/67/67 77/70/70 4/51/51 19/2/2
f 77/70/70 66/79/79 20/5/5 4/51/51
f 63/75/75 79/78/78 5/53/53 21/6/6
f 79/78/78 70/83/83 22/9/9 5/53/53
f 71/85/85 75/73/73 3/49/49 25/14/14
f 61/72/72 76/74/74 58/89/89
f 78/69/69 60/68/68 58/89/89
f 65/80/80 78/69/69 58/89/89
f 80/77/77 64/76/76 58/89/89
f 69/84/84 80/77/77 58/89/89
f 76/74/74 72/86/86 58/89/89
s off
f 68/81/90 1/90/91 67/82/92
f 74/87/93 2/91/94 73/88/95
s 1
f 81/92/96 82/93/97 84/94/98 83/95/99
f 83/95/99 84/94/98 86/96/100 85/97/101
f 85/97/101 86/96/100 88/98/102 87/99/103
f 87/99/103 88/98/102 90/100/104 89/101/105
f 89/101/105 90/100/104 114/102/106 113/103/107
f 23/104/10 81/92/96 83/95/99 31/105/11
f 31/105/11 83/95/99 85/97/101 39/106/21
f 39/106/21 85/97/101 87/99/103 47/107/29
f 47/107/29 87/99/103 89/101/105 55/108/37
f 55/108/37 89/101/105 113/103/107 109/109/45
f 91/110/108 92/111/109 94/112/110 93/113/111
f 92/111/109 91/110/108 67/114/82 68/115/81
f 91/110/108 93/113/111 82/93/97 81/92/96
f 67/114/82 91/110/108 81/92/96 23/104/10
f 92/111/109 68/115/81 58/116/89
f 94/112/110 92/111/109 58/116/89
f 82/117/97 95/118/112 96/119/113 84/120/98
f 84/120/98 96/119/113 97/121/114 86/122/100
f 86/122/100 97/121/114 98/123/115 88/124/102
f 88/124/102 98/123/115 99/125/116 90/126/104
f 90/126/104 99/125/116 115/127/117 114/128/106
f 95/118/112 24/129/13 32/130/16 96/119/113
f 96/119/113 32/130/16 40/131/24 97/121/114
f 97/121/114 40/131/24 48/132/32 98/123/115
f 98/123/115 48/132/32 56/133/40 99/125/116
f 99/125/116 56/133/40 112/134/48 115/127/117
f 93/135/111 94/136/110 101/137/118 100/138/119
f 100/138/119 101/137/118 73/139/88 74/140/87
f 93/135/111 100/138/119 95/118/112 82/117/97
f 100/138/119 74/140/87 24/129/13 95/118/112
f 101/137/118 94/136/110 58/141/89
f 73/139/88 101/137/118 58/141/89
s off
f 106/142/120 105/143/121 116/144/122
f 108/145/123 107/146/124 116/144/125
f 110/147/126 109/148/127 116/144/128
f 112/149/129 111/150/130 116/144/131
f 102/151/132 106/142/133 116/144/134
f 105/143/135 103/152/136 116/144/137
f 103/152/138 108/145/139 116/144/140
f 107/146/141 104/153/142 116/144/143
f 104/153/144 110/147/145 116/144/146
f 111/150/147 102/151/148 116/144/149
f 113/154/150 114/155/151 116/144/152
f 109/148/153 113/154/154 116/144/155
f 114/155/156 115/156/157 116/144/158
f 115/156/159 112/149/160 116/144/161
