# This file uses centimeters as units for non-parametric coordinates.

mtllib CarrotShortRUpperArm.mtl
g default
v 0.830593 -0.227750 -0.323884
v 0.830596 -0.118221 -0.379691
v 0.830597 0.003192 -0.398921
v 0.830596 0.124605 -0.379691
v 0.830593 0.234134 -0.323884
v 0.830588 0.321056 -0.236961
v 0.830581 0.376864 -0.127433
v 0.830574 0.396094 -0.006019
v 0.830567 0.376864 0.115394
v 0.830561 0.321056 0.224923
v 0.830555 0.234134 0.311845
v 0.830552 0.124605 0.367652
v 0.830551 0.003192 0.386882
v 0.830552 -0.118221 0.367652
v 0.830555 -0.227750 0.311845
v 0.830561 -0.314672 0.224923
v 0.830567 -0.370480 0.115394
v 0.830574 -0.389710 -0.006019
v 0.830581 -0.370480 -0.127433
v 0.830588 -0.314672 -0.236961
v -0.659409 0.094396 -0.286805
v -0.659412 0.176673 -0.244883
v -0.659415 0.241967 -0.179588
v -0.659420 0.283889 -0.097311
v -0.659426 0.298335 -0.006107
v -0.659431 0.283889 0.085097
v -0.659436 0.241967 0.167374
v -0.659440 0.176673 0.232668
v -0.659442 0.094396 0.274590
v -0.659443 0.003192 0.289036
v -0.659442 -0.088012 0.274590
v -0.659440 -0.170289 0.232668
v -0.659436 -0.235583 0.167374
v -0.659431 -0.277506 0.085097
v -0.659426 -0.291951 -0.006107
v -0.659420 -0.277506 -0.097311
v -0.659415 -0.235583 -0.179588
v -0.659412 -0.170289 -0.244883
v -0.659409 -0.088012 -0.286805
v -0.659408 0.003192 -0.301250
v 0.120600 0.152462 -0.465466
v 0.120596 0.287120 -0.396854
v 0.120590 0.393985 -0.289989
v 0.120582 0.462596 -0.155331
v 0.120573 0.486238 -0.006061
v 0.120564 0.462596 0.143208
v 0.120556 0.393984 0.277866
v 0.120550 0.287119 0.384731
v 0.120546 0.152462 0.453343
v 0.120545 0.003192 0.476985
v 0.120546 -0.146078 0.453343
v 0.120550 -0.280736 0.384731
v 0.120556 -0.387601 0.277866
v 0.120564 -0.456213 0.143208
v 0.120573 -0.479855 -0.006061
v 0.120582 -0.456213 -0.155331
v 0.120590 -0.387601 -0.289989
v 0.120596 -0.280736 -0.396854
v 0.120600 -0.146078 -0.465466
v 0.120602 0.003192 -0.489108
v 0.985579 0.003192 -0.006010
v 0.545605 0.003192 -0.522956
v 0.545603 0.162929 -0.497656
v 0.545599 0.307030 -0.424233
v 0.545592 0.421389 -0.309874
v 0.545584 0.494812 -0.165773
v 0.545574 0.520112 -0.006036
v 0.545565 0.494812 0.153701
v 0.545556 0.421389 0.297802
v 0.545550 0.307030 0.412160
v 0.545545 0.162929 0.485584
v 0.545544 0.003192 0.510883
v 0.545545 -0.156545 0.485584
v 0.545550 -0.300646 0.412160
v 0.545556 -0.415005 0.297802
v 0.545565 -0.488428 0.153701
v 0.545574 -0.513728 -0.006036
v 0.545584 -0.488428 -0.165773
v 0.545592 -0.415005 -0.309874
v 0.545599 -0.300646 -0.424233
v 0.545603 -0.156545 -0.497656
v -0.304401 0.003192 -0.440196
v -0.304402 0.137339 -0.418949
v -0.304405 0.258356 -0.357289
v -0.304411 0.354394 -0.261250
v -0.304418 0.416055 -0.140234
v -0.304426 0.437302 -0.006086
v -0.304434 0.416055 0.128061
v -0.304441 0.354394 0.249077
v -0.304447 0.258356 0.345116
v -0.304450 0.137339 0.406777
v -0.304452 0.003192 0.428023
v -0.304450 -0.130955 0.406777
v -0.304447 -0.251972 0.345116
v -0.304441 -0.348010 0.249077
v -0.304434 -0.409671 0.128061
v -0.304426 -0.430918 -0.006086
v -0.304418 -0.409671 -0.140234
v -0.304411 -0.348010 -0.261250
v -0.304405 -0.251972 -0.357289
v -0.304402 -0.130955 -0.418949
v -0.734428 0.003192 -0.006112
v -0.512047 0.003192 -0.417894
v -0.512434 0.130431 -0.397701
v -0.512784 0.245193 -0.339185
v -0.513066 0.336254 -0.248083
v -0.513250 0.394712 -0.133311
v -0.513319 0.414854 -0.006099
v -0.513265 0.394712 0.121114
v -0.513095 0.336254 0.235885
v -0.512824 0.245193 0.326988
v -0.512480 0.130431 0.385503
v -0.512096 0.003192 0.405697
v -0.511709 -0.124073 0.385582
v -0.511357 -0.238902 0.327115
v -0.511075 -0.330046 0.236013
v -0.510891 -0.388571 0.121193
v -0.510822 -0.408738 -0.006098
v -0.510876 -0.388571 -0.133390
v -0.511046 -0.330046 -0.248210
v -0.511318 -0.238902 -0.339312
v -0.511663 -0.124073 -0.397779
vt 0.171119 0.658958
vt 0.152232 0.658963
vt 0.152199 0.610762
vt 0.171099 0.610759
vt 0.190005 0.658952
vt 0.189998 0.610753
vt 0.208890 0.658945
vt 0.208897 0.610750
vt 0.227775 0.658939
vt 0.227796 0.610744
vt 0.246660 0.658932
vt 0.246695 0.610738
vt 0.265547 0.658924
vt 0.265597 0.610734
vt 0.284435 0.658916
vt 0.284501 0.610727
vt 0.303324 0.658907
vt 0.303407 0.610721
vt 0.322215 0.658901
vt 0.322316 0.610719
vt 0.341104 0.658895
vt 0.341225 0.610716
vt 0.359994 0.658891
vt 0.360133 0.610714
vt 0.378884 0.658886
vt 0.379032 0.610711
vt 0.019957 0.658979
vt 0.001055 0.658979
vt 0.000924 0.610783
vt 0.019830 0.610781
vt 0.038857 0.658978
vt 0.038743 0.610779
vt 0.057757 0.658977
vt 0.057657 0.610775
vt 0.076656 0.658974
vt 0.076571 0.610771
vt 0.095553 0.658974
vt 0.095482 0.610770
vt 0.114448 0.658972
vt 0.114391 0.610769
vt 0.133342 0.658968
vt 0.133296 0.610765
vt 0.227784 0.440469
vt 0.208887 0.440472
vt 0.275023 0.369478
vt 0.246682 0.440467
vt 0.265591 0.440465
vt 0.284512 0.440463
vt 0.303444 0.440460
vt 0.322390 0.440458
vt 0.341354 0.440454
vt 0.360329 0.440450
vt 0.379315 0.440447
vt 0.019657 0.440496
vt 0.000671 0.440499
vt 0.076624 0.369504
vt 0.038633 0.440495
vt 0.057598 0.440493
vt 0.076544 0.440491
vt 0.095477 0.440488
vt 0.114398 0.440485
vt 0.133308 0.440482
vt 0.152207 0.440479
vt 0.171104 0.440477
vt 0.189996 0.440474
vt 0.227812 0.559346
vt 0.208905 0.559348
vt 0.208902 0.503118
vt 0.227808 0.503116
vt 0.246723 0.559342
vt 0.246717 0.503116
vt 0.265637 0.559337
vt 0.265630 0.503115
vt 0.284555 0.559333
vt 0.284547 0.503110
vt 0.303481 0.559328
vt 0.303470 0.503107
vt 0.322416 0.559323
vt 0.322397 0.503104
vt 0.341370 0.559321
vt 0.341320 0.503099
vt 0.360349 0.559317
vt 0.360235 0.503097
vt 0.379370 0.559314
vt 0.379129 0.503094
vt 0.019620 0.559372
vt 0.000595 0.559373
vt 0.000847 0.503147
vt 0.019742 0.503145
vt 0.038603 0.559371
vt 0.038660 0.503142
vt 0.057560 0.559368
vt 0.057585 0.503142
vt 0.076500 0.559368
vt 0.076513 0.503140
vt 0.095429 0.559367
vt 0.095438 0.503138
vt 0.114350 0.559364
vt 0.114358 0.503137
vt 0.133267 0.559362
vt 0.133272 0.503133
vt 0.152179 0.559360
vt 0.152182 0.503127
vt 0.171089 0.559355
vt 0.171089 0.503123
vt 0.189997 0.559353
vt 0.189996 0.503121
vt 0.274945 0.704427
vt 0.076728 0.704499
vt 0.189996 0.472513
vt 0.208894 0.472454
vt 0.227796 0.472400
vt 0.246700 0.472358
vt 0.265611 0.472331
vt 0.284530 0.472318
vt 0.303458 0.472325
vt 0.322393 0.472347
vt 0.341337 0.472384
vt 0.360281 0.472432
vt 0.000761 0.472539
vt 0.379220 0.472486
vt 0.019701 0.472593
vt 0.038647 0.472642
vt 0.057591 0.472682
vt 0.076528 0.472706
vt 0.095457 0.472713
vt 0.114377 0.472702
vt 0.133289 0.472672
vt 0.152194 0.472627
vt 0.171096 0.472573
vn 0.620997 -0.242221 -0.745448
vn 0.620991 -0.460731 -0.634112
vn 0.110817 -0.584168 -0.804032
vn 0.110825 -0.307115 -0.945198
vn 0.620999 -0.000001 -0.783812
vn 0.110828 0.000001 -0.993840
vn 0.620997 0.242218 -0.745448
vn 0.110825 0.307115 -0.945197
vn 0.620992 0.460730 -0.634111
vn 0.110817 0.584168 -0.804032
vn 0.620981 0.634145 -0.460698
vn 0.110804 0.804038 -0.584162
vn 0.620967 0.745484 -0.242185
vn 0.110787 0.945204 -0.307108
vn 0.620953 0.783848 0.000037
vn 0.110769 0.993846 0.000007
vn 0.620939 0.745483 0.242260
vn 0.110751 0.945204 0.307122
vn 0.620925 0.634147 0.460771
vn 0.110735 0.804038 0.584175
vn 0.620915 0.460736 0.634182
vn 0.110722 0.584168 0.804045
vn 0.620909 0.242221 0.745521
vn 0.110714 0.307115 0.945211
vn 0.620906 0.000002 0.783885
vn 0.110711 0.000001 0.993853
vn 0.620909 -0.242220 0.745521
vn 0.110714 -0.307114 0.945211
vn 0.620915 -0.460736 0.634182
vn 0.110722 -0.584168 0.804045
vn 0.620926 -0.634146 0.460771
vn 0.110735 -0.804039 0.584175
vn 0.620940 -0.745483 0.242259
vn 0.110752 -0.945204 0.307122
vn 0.620954 -0.783847 0.000037
vn 0.110770 -0.993846 0.000007
vn 0.620967 -0.745483 -0.242186
vn 0.110788 -0.945204 -0.307109
vn 0.620981 -0.634145 -0.460699
vn 0.110804 -0.804039 -0.584161
vn -0.787434 0.361812 -0.499039
vn -0.786893 0.190017 -0.587106
vn -1.000000 -0.000001 -0.000059
vn -0.787869 0.497953 -0.362362
vn -0.788151 0.585275 -0.190451
vn -0.788255 0.615348 -0.000046
vn -0.788176 0.585271 0.190358
vn -0.787910 0.497956 0.362268
vn -0.787491 0.361817 0.498946
vn -0.786960 0.190031 0.587011
vn -0.786370 -0.000725 0.617755
vn -0.785773 -0.191810 0.588022
vn -0.785233 -0.364455 0.500582
vn -0.784799 -0.501661 0.363905
vn -0.784518 -0.589838 0.191370
vn -0.784410 -0.620242 -0.000046
vn -0.784492 -0.589843 -0.191461
vn -0.784754 -0.501665 -0.363996
vn -0.785171 -0.364462 -0.500673
vn -0.785705 -0.191804 -0.588115
vn -0.786297 -0.000729 -0.617848
vn -0.095993 0.585068 -0.805283
vn -0.095985 0.307588 -0.946666
vn -0.112025 0.307108 -0.945058
vn -0.112031 0.584110 -0.803906
vn -0.096006 0.805277 -0.585074
vn -0.112042 0.803936 -0.584066
vn -0.096023 0.946661 -0.307593
vn -0.112056 0.945070 -0.307062
vn -0.096041 0.995377 -0.000005
vn -0.112074 0.993700 -0.000006
vn -0.096059 0.946660 0.307583
vn -0.112093 0.945069 0.307051
vn -0.096075 0.805277 0.585063
vn -0.112110 0.803935 0.584055
vn -0.096088 0.585069 0.805271
vn -0.112125 0.584111 0.803892
vn -0.096096 0.307589 0.946655
vn -0.112136 0.307109 0.945045
vn -0.096099 -0.000000 0.995372
vn -0.112142 0.000043 0.993692
vn -0.096096 -0.307589 0.946655
vn -0.112142 -0.307030 0.945070
vn -0.096088 -0.585068 0.805272
vn -0.112137 -0.584052 0.803933
vn -0.096075 -0.805277 0.585063
vn -0.112126 -0.803903 0.584095
vn -0.096059 -0.946660 0.307583
vn -0.112110 -0.945059 0.307075
vn -0.096040 -0.995378 -0.000006
vn -0.112093 -0.993698 -0.000007
vn -0.096022 -0.946660 -0.307594
vn -0.112075 -0.945059 -0.307089
vn -0.096006 -0.805278 -0.585073
vn -0.112057 -0.803904 -0.584108
vn -0.095993 -0.585068 -0.805283
vn -0.112042 -0.584051 -0.803947
vn -0.095985 -0.307589 -0.946666
vn -0.112031 -0.307029 -0.945083
vn -0.095982 -0.000000 -0.995383
vn -0.112025 0.000044 -0.993705
vn 1.000000 -0.000001 0.000059
vn -0.330612 -0.000289 -0.943767
vn -0.330572 0.291378 -0.897675
vn -0.330541 0.554551 -0.763686
vn -0.330524 0.763441 -0.554897
vn -0.330520 0.897573 -0.291752
vn -0.330529 0.943796 -0.000019
vn -0.330552 0.897574 0.291712
vn -0.330589 0.763440 0.554861
vn -0.330631 0.554549 0.763648
vn -0.330677 0.291382 0.897635
vn -0.330723 -0.000286 0.943728
vn -0.330763 -0.291891 0.897438
vn -0.330793 -0.554893 0.763328
vn -0.330812 -0.763577 0.554540
vn -0.330815 -0.897542 0.291514
vn -0.330806 -0.943699 -0.000019
vn -0.330782 -0.897541 -0.291555
vn -0.330746 -0.763576 -0.554580
vn -0.330703 -0.554892 -0.763368
vn -0.330658 -0.291890 -0.897478
s 1
g FoodShortRUpperArm
usemtl blinn1SG
f 2/1/1 1/2/2 80/3/3 81/4/4
f 3/5/5 2/1/1 81/4/4 62/6/6
f 4/7/7 3/5/5 62/6/6 63/8/8
f 5/9/9 4/7/7 63/8/8 64/10/10
f 6/11/11 5/9/9 64/10/10 65/12/12
f 7/13/13 6/11/11 65/12/12 66/14/14
f 8/15/15 7/13/13 66/14/14 67/16/16
f 9/17/17 8/15/15 67/16/16 68/18/18
f 10/19/19 9/17/17 68/18/18 69/20/20
f 11/21/21 10/19/19 69/20/20 70/22/22
f 12/23/23 11/21/21 70/22/22 71/24/24
f 13/25/25 12/23/23 71/24/24 72/26/26
f 14/27/27 13/28/25 72/29/26 73/30/28
f 15/31/29 14/27/27 73/30/28 74/32/30
f 16/33/31 15/31/29 74/32/30 75/34/32
f 17/35/33 16/33/31 75/34/32 76/36/34
f 18/37/35 17/35/33 76/36/34 77/38/36
f 19/39/37 18/37/35 77/38/36 78/40/38
f 20/41/39 19/39/37 78/40/38 79/42/40
f 1/2/2 20/41/39 79/42/40 80/3/3
f 22/43/41 21/44/42 102/45/43
f 23/46/44 22/43/41 102/45/43
f 24/47/45 23/46/44 102/45/43
f 25/48/46 24/47/45 102/45/43
f 26/49/47 25/48/46 102/45/43
f 27/50/48 26/49/47 102/45/43
f 28/51/49 27/50/48 102/45/43
f 29/52/50 28/51/49 102/45/43
f 30/53/51 29/52/50 102/45/43
f 31/54/52 30/55/51 102/56/43
f 32/57/53 31/54/52 102/56/43
f 33/58/54 32/57/53 102/56/43
f 34/59/55 33/58/54 102/56/43
f 35/60/56 34/59/55 102/56/43
f 36/61/57 35/60/56 102/56/43
f 37/62/58 36/61/57 102/56/43
f 38/63/59 37/62/58 102/56/43
f 39/64/60 38/63/59 102/56/43
f 40/65/61 39/64/60 102/45/43
f 21/44/42 40/65/61 102/45/43
f 42/66/62 41/67/63 83/68/64 84/69/65
f 43/70/66 42/66/62 84/69/65 85/71/67
f 44/72/68 43/70/66 85/71/67 86/73/69
f 45/74/70 44/72/68 86/73/69 87/75/71
f 46/76/72 45/74/70 87/75/71 88/77/73
f 47/78/74 46/76/72 88/77/73 89/79/75
f 48/80/76 47/78/74 89/79/75 90/81/77
f 49/82/78 48/80/76 90/81/77 91/83/79
f 50/84/80 49/82/78 91/83/79 92/85/81
f 51/86/82 50/87/80 92/88/81 93/89/83
f 52/90/84 51/86/82 93/89/83 94/91/85
f 53/92/86 52/90/84 94/91/85 95/93/87
f 54/94/88 53/92/86 95/93/87 96/95/89
f 55/96/90 54/94/88 96/95/89 97/97/91
f 56/98/92 55/96/90 97/97/91 98/99/93
f 57/100/94 56/98/92 98/99/93 99/101/95
f 58/102/96 57/100/94 99/101/95 100/103/97
f 59/104/98 58/102/96 100/103/97 101/105/99
f 60/106/100 59/104/98 101/105/99 82/107/101
f 41/67/63 60/106/100 82/107/101 83/68/64
f 61/108/102 3/5/5 4/7/7
f 61/108/102 4/7/7 5/9/9
f 61/108/102 5/9/9 6/11/11
f 61/108/102 6/11/11 7/13/13
f 61/108/102 7/13/13 8/15/15
f 61/108/102 8/15/15 9/17/17
f 61/108/102 9/17/17 10/19/19
f 61/108/102 10/19/19 11/21/21
f 61/108/102 11/21/21 12/23/23
f 61/108/102 12/23/23 13/25/25
f 61/109/102 13/28/25 14/27/27
f 61/109/102 14/27/27 15/31/29
f 61/109/102 15/31/29 16/33/31
f 61/109/102 16/33/31 17/35/33
f 61/109/102 17/35/33 18/37/35
f 61/109/102 18/37/35 19/39/37
f 61/109/102 19/39/37 20/41/39
f 61/109/102 20/41/39 1/2/2
f 61/108/102 1/2/2 2/1/1
f 61/108/102 2/1/1 3/5/5
f 63/8/8 62/6/6 60/106/100 41/67/63
f 64/10/10 63/8/8 41/67/63 42/66/62
f 65/12/12 64/10/10 42/66/62 43/70/66
f 66/14/14 65/12/12 43/70/66 44/72/68
f 67/16/16 66/14/14 44/72/68 45/74/70
f 68/18/18 67/16/16 45/74/70 46/76/72
f 69/20/20 68/18/18 46/76/72 47/78/74
f 70/22/22 69/20/20 47/78/74 48/80/76
f 71/24/24 70/22/22 48/80/76 49/82/78
f 72/26/26 71/24/24 49/82/78 50/84/80
f 73/30/28 72/29/26 50/87/80 51/86/82
f 74/32/30 73/30/28 51/86/82 52/90/84
f 75/34/32 74/32/30 52/90/84 53/92/86
f 76/36/34 75/34/32 53/92/86 54/94/88
f 77/38/36 76/36/34 54/94/88 55/96/90
f 78/40/38 77/38/36 55/96/90 56/98/92
f 79/42/40 78/40/38 56/98/92 57/100/94
f 80/3/3 79/42/40 57/100/94 58/102/96
f 81/4/4 80/3/3 58/102/96 59/104/98
f 62/6/6 81/4/4 59/104/98 60/106/100
f 83/68/64 82/107/101 103/110/103 104/111/104
f 84/69/65 83/68/64 104/111/104 105/112/105
f 85/71/67 84/69/65 105/112/105 106/113/106
f 86/73/69 85/71/67 106/113/106 107/114/107
f 87/75/71 86/73/69 107/114/107 108/115/108
f 88/77/73 87/75/71 108/115/108 109/116/109
f 89/79/75 88/77/73 109/116/109 110/117/110
f 90/81/77 89/79/75 110/117/110 111/118/111
f 91/83/79 90/81/77 111/118/111 112/119/112
f 92/85/81 91/83/79 112/119/112 113/121/113
f 93/89/83 92/88/81 113/120/113 114/122/114
f 94/91/85 93/89/83 114/122/114 115/123/115
f 95/93/87 94/91/85 115/123/115 116/124/116
f 96/95/89 95/93/87 116/124/116 117/125/117
f 97/97/91 96/95/89 117/125/117 118/126/118
f 98/99/93 97/97/91 118/126/118 119/127/119
f 99/101/95 98/99/93 119/127/119 120/128/120
f 100/103/97 99/101/95 120/128/120 121/129/121
f 101/105/99 100/103/97 121/129/121 122/130/122
f 82/107/101 101/105/99 122/130/122 103/110/103
f 104/111/104 103/110/103 40/65/61 21/44/42
f 105/112/105 104/111/104 21/44/42 22/43/41
f 106/113/106 105/112/105 22/43/41 23/46/44
f 107/114/107 106/113/106 23/46/44 24/47/45
f 108/115/108 107/114/107 24/47/45 25/48/46
f 109/116/109 108/115/108 25/48/46 26/49/47
f 110/117/110 109/116/109 26/49/47 27/50/48
f 111/118/111 110/117/110 27/50/48 28/51/49
f 112/119/112 111/118/111 28/51/49 29/52/50
f 113/121/113 112/119/112 29/52/50 30/53/51
f 114/122/114 113/120/113 30/55/51 31/54/52
f 115/123/115 114/122/114 31/54/52 32/57/53
f 116/124/116 115/123/115 32/57/53 33/58/54
f 117/125/117 116/124/116 33/58/54 34/59/55
f 118/126/118 117/125/117 34/59/55 35/60/56
f 119/127/119 118/126/118 35/60/56 36/61/57
f 120/128/120 119/127/119 36/61/57 37/62/58
f 121/129/121 120/128/120 37/62/58 38/63/59
f 122/130/122 121/129/121 38/63/59 39/64/60
f 103/110/103 122/130/122 39/64/60 40/65/61
