# This file uses centimeters as units for non-parametric coordinates.

mtllib CarrotShortLLowerArm.mtl
g default
v 1.273181 0.137167 0.037345
v 1.273182 0.117157 0.076615
v 1.273183 0.085993 0.107780
v 1.273183 0.046723 0.127789
v 1.273183 0.003192 0.134683
v 1.273183 -0.040339 0.127789
v 1.273183 -0.079609 0.107780
v 1.273182 -0.110774 0.076615
v 1.273181 -0.130783 0.037345
v 1.273180 -0.137677 -0.006186
v 1.273179 -0.130783 -0.049717
v 1.273179 -0.110774 -0.088987
v 1.273178 -0.079609 -0.120151
v 1.273177 -0.040339 -0.140160
v 1.273177 0.003192 -0.147055
v 1.273177 0.046723 -0.140160
v 1.273178 0.085993 -0.120151
v 1.273179 0.117157 -0.088987
v 1.273179 0.137167 -0.049717
v 1.273180 0.144061 -0.006186
v 1.386121 0.074989 0.017140
v 1.386121 0.064266 0.038185
v 1.386121 0.047565 0.054886
v 1.386122 0.026520 0.065609
v 1.386122 0.003192 0.069303
v 1.386122 -0.020136 0.065609
v 1.386121 -0.041181 0.054886
v 1.386121 -0.057882 0.038185
v 1.386121 -0.068605 0.017140
v 1.386120 -0.072299 -0.006188
v 1.386120 -0.068605 -0.029516
v 1.386119 -0.057882 -0.050561
v 1.386119 -0.041181 -0.067262
v 1.386119 -0.020136 -0.077985
v 1.386118 0.003192 -0.081679
v 1.386119 0.026520 -0.077985
v 1.386119 0.047565 -0.067262
v 1.386119 0.064266 -0.050561
v 1.386120 0.074989 -0.029516
v 1.386120 0.078683 -0.006188
v 1.410683 0.003192 -0.006189
v 0.560688 0.086492 0.250201
v 0.560687 0.161639 0.211912
v 0.560686 0.221275 0.152276
v 0.560684 0.259564 0.077130
v 0.560683 0.272757 -0.006171
v 0.560681 0.259564 -0.089471
v 0.560679 0.221275 -0.164617
v 0.560678 0.161639 -0.224253
v 0.560677 0.086492 -0.262542
v 0.560677 0.003192 -0.275736
v 0.560677 -0.080108 -0.262542
v 0.560678 -0.155255 -0.224253
v 0.560679 -0.214891 -0.164617
v 0.560681 -0.253180 -0.089471
v 0.560683 -0.266373 -0.006171
v 0.560684 -0.253180 0.077130
v 0.560686 -0.214891 0.152276
v 0.560687 -0.155255 0.211912
v 0.560688 -0.080108 0.250201
v 0.560688 0.003192 0.263395
v -0.289310 0.123226 0.363275
v -0.289311 0.231511 0.308101
v -0.289313 0.317445 0.222166
v -0.289315 0.372619 0.113882
v -0.289318 0.391631 -0.006152
v -0.289320 0.372619 -0.126187
v -0.289323 0.317445 -0.234471
v -0.289325 0.231511 -0.320406
v -0.289326 0.123226 -0.375580
v -0.289326 0.003192 -0.394591
v -0.289326 -0.116842 -0.375580
v -0.289325 -0.225127 -0.320406
v -0.289323 -0.311061 -0.234471
v -0.289320 -0.366235 -0.126187
v -0.289318 -0.385247 -0.006152
v -0.289315 -0.366235 0.113882
v -0.289313 -0.311061 0.222166
v -0.289311 -0.225127 0.308101
v -0.289310 -0.116842 0.363275
v -0.289310 0.003192 0.382286
v -0.729322 0.003192 -0.006143
v -0.654310 0.003192 0.326188
v -0.654311 0.105888 0.309923
v -0.654312 0.198532 0.262718
v -0.654313 0.272055 0.189196
v -0.654315 0.319259 0.096552
v -0.654318 0.335524 -0.006145
v -0.654320 0.319259 -0.108841
v -0.654322 0.272054 -0.201485
v -0.654323 0.198532 -0.275007
v -0.654324 0.105888 -0.322212
v -0.654325 0.003192 -0.338477
v -0.654324 -0.099504 -0.322212
v -0.654323 -0.192148 -0.275007
v -0.654322 -0.265671 -0.201485
v -0.654320 -0.312875 -0.108841
v -0.654318 -0.329140 -0.006145
v -0.654315 -0.312875 0.096552
v -0.654313 -0.265671 0.189196
v -0.654312 -0.192148 0.262718
v -0.654311 -0.099504 0.309923
v 0.135691 0.003192 0.332084
v 0.135690 0.107716 0.315529
v 0.135689 0.202008 0.267485
v 0.135688 0.276838 0.192655
v 0.135686 0.324883 0.098362
v 0.135683 0.341437 -0.006161
v 0.135681 0.324883 -0.110685
v 0.135679 0.276838 -0.204977
v 0.135677 0.202008 -0.279808
v 0.135676 0.107716 -0.327852
v 0.135676 0.003192 -0.344407
v 0.135676 -0.101332 -0.327852
v 0.135677 -0.195624 -0.279808
v 0.135679 -0.270454 -0.204977
v 0.135681 -0.318499 -0.110685
v 0.135683 -0.335053 -0.006161
v 0.135686 -0.318499 0.098362
v 0.135688 -0.270454 0.192655
v 0.135689 -0.195624 0.267485
v 0.135690 -0.101332 0.315529
v 0.916936 0.003192 0.212812
v 0.916936 0.070864 0.202094
v 0.916935 0.131912 0.170989
v 0.916934 0.180359 0.122541
v 0.916933 0.211464 0.061494
v 0.916931 0.222182 -0.006178
v 0.916930 0.211464 -0.073850
v 0.916929 0.180359 -0.134898
v 0.916928 0.131912 -0.183345
v 0.916927 0.070864 -0.214451
v 0.916927 0.003192 -0.225169
v 0.916927 -0.064480 -0.214451
v 0.916928 -0.125528 -0.183345
v 0.916929 -0.173975 -0.134898
v 0.916930 -0.205080 -0.073850
v 0.916931 -0.215798 -0.006178
v 0.916933 -0.205080 0.061494
v 0.916934 -0.173975 0.122541
v 0.916935 -0.125528 0.170989
v 0.916936 -0.064480 0.202094
v -0.506663 0.003192 0.405648
v -0.506278 0.130431 0.385454
v -0.505932 0.245193 0.326938
v -0.505657 0.336254 0.235836
v -0.505483 0.394712 0.121065
v -0.505424 0.414854 -0.006148
v -0.505488 0.394712 -0.133360
v -0.505668 0.336254 -0.248132
v -0.505946 0.245193 -0.339234
v -0.506295 0.130431 -0.397750
v -0.506680 0.003192 -0.417944
v -0.507065 -0.124073 -0.397828
v -0.507413 -0.238902 -0.339361
v -0.507688 -0.330046 -0.248259
v -0.507863 -0.388571 -0.133439
v -0.507921 -0.408738 -0.006148
v -0.507857 -0.388571 0.121144
v -0.507677 -0.330046 0.235964
v -0.507399 -0.238902 0.327066
v -0.507049 -0.124073 0.385533
vt 0.258930 0.073282
vt 0.241745 0.073271
vt 0.240344 0.000892
vt 0.256844 0.000925
vt 0.224535 0.073255
vt 0.223700 0.000844
vt 0.207301 0.073237
vt 0.206961 0.000789
vt 0.190056 0.073217
vt 0.190168 0.000726
vt 0.172805 0.073198
vt 0.173364 0.000666
vt 0.155563 0.073178
vt 0.156592 0.000607
vt 0.138332 0.073163
vt 0.139894 0.000561
vt 0.121124 0.073151
vt 0.123327 0.000526
vt 0.103942 0.073143
vt 0.106956 0.000505
vt 0.086785 0.073141
vt 0.090859 0.000499
vt 0.069648 0.073144
vt 0.075141 0.000510
vt 0.052510 0.073152
vt 0.059938 0.000532
vt 0.035333 0.073165
vt 0.045430 0.000560
vt 0.018053 0.073180
vt 0.031869 0.000585
vt 0.361818 0.073258
vt 0.344567 0.073271
vt 0.334401 0.000889
vt 0.347921 0.000866
vt 0.327421 0.073282
vt 0.319945 0.000914
vt 0.310314 0.073288
vt 0.304805 0.000933
vt 0.293208 0.073292
vt 0.289160 0.000943
vt 0.276083 0.073288
vt 0.273141 0.000941
vt 0.393404 0.969850
vt 0.396574 0.970352
vt 0.393404 0.980111
vt 0.399435 0.971810
vt 0.401705 0.974080
vt 0.403162 0.976940
vt 0.403665 0.980111
vt 0.403162 0.983282
vt 0.401705 0.986142
vt 0.399435 0.988412
vt 0.396574 0.989869
vt 0.393404 0.990372
vt 0.390233 0.989869
vt 0.387373 0.988412
vt 0.385103 0.986142
vt 0.383645 0.983281
vt 0.383143 0.980111
vt 0.383645 0.976940
vt 0.385103 0.974080
vt 0.387373 0.971810
vt 0.390233 0.970352
vt 0.227323 0.284114
vt 0.208656 0.284116
vt 0.208344 0.195345
vt 0.226699 0.195345
vt 0.246003 0.284113
vt 0.245092 0.195348
vt 0.264698 0.284111
vt 0.263545 0.195350
vt 0.283411 0.284109
vt 0.282087 0.195349
vt 0.302145 0.284108
vt 0.300753 0.195346
vt 0.320893 0.284104
vt 0.319582 0.195344
vt 0.339639 0.284102
vt 0.338628 0.195340
vt 0.358361 0.284096
vt 0.357961 0.195335
vt 0.377003 0.284093
vt 0.377669 0.195329
vt 0.021612 0.284137
vt 0.002966 0.284141
vt 0.002263 0.195358
vt 0.021982 0.195351
vt 0.040335 0.284132
vt 0.041327 0.195344
vt 0.059088 0.284132
vt 0.060386 0.195339
vt 0.077837 0.284127
vt 0.079225 0.195336
vt 0.096576 0.284124
vt 0.097900 0.195335
vt 0.115292 0.284122
vt 0.116452 0.195333
vt 0.133990 0.284119
vt 0.134912 0.195334
vt 0.152671 0.284120
vt 0.153311 0.195337
vt 0.171338 0.284117
vt 0.171668 0.195338
vt 0.189998 0.284116
vt 0.190007 0.195342
vt 0.227784 0.440469
vt 0.208887 0.440472
vt 0.208830 0.369487
vt 0.227672 0.369485
vt 0.246682 0.440467
vt 0.246524 0.369484
vt 0.265591 0.440465
vt 0.265392 0.369482
vt 0.284512 0.440463
vt 0.284284 0.369478
vt 0.303444 0.440460
vt 0.303210 0.369475
vt 0.322390 0.440458
vt 0.322176 0.369472
vt 0.341354 0.440454
vt 0.341203 0.369470
vt 0.360329 0.440450
vt 0.360307 0.369467
vt 0.379315 0.440447
vt 0.379514 0.369462
vt 0.019657 0.440496
vt 0.000671 0.440499
vt 0.000471 0.369516
vt 0.019678 0.369514
vt 0.038633 0.440495
vt 0.038783 0.369510
vt 0.057598 0.440493
vt 0.057811 0.369506
vt 0.076544 0.440491
vt 0.076779 0.369503
vt 0.095477 0.440488
vt 0.095705 0.369500
vt 0.114398 0.440485
vt 0.114599 0.369500
vt 0.133308 0.440482
vt 0.133468 0.369496
vt 0.152207 0.440479
vt 0.152320 0.369494
vt 0.171104 0.440477
vt 0.171162 0.369491
vt 0.189996 0.440474
vt 0.189996 0.369488
vt 0.294062 0.559331
vt 0.208902 0.503118
vt 0.227808 0.503116
vt 0.246717 0.503116
vt 0.265630 0.503115
vt 0.284547 0.503110
vt 0.303470 0.503107
vt 0.322397 0.503104
vt 0.341320 0.503099
vt 0.360235 0.503097
vt 0.379129 0.503094
vt 0.095381 0.559365
vt 0.000847 0.503147
vt 0.019742 0.503145
vt 0.038660 0.503142
vt 0.057585 0.503142
vt 0.076513 0.503140
vt 0.095438 0.503138
vt 0.114358 0.503137
vt 0.133272 0.503133
vt 0.152182 0.503127
vt 0.171089 0.503123
vt 0.189996 0.503121
vt 0.189996 0.472513
vt 0.208894 0.472454
vt 0.227796 0.472400
vt 0.246700 0.472358
vt 0.265611 0.472331
vt 0.284530 0.472318
vt 0.303458 0.472324
vt 0.322393 0.472347
vt 0.341337 0.472384
vt 0.360281 0.472432
vt 0.000761 0.472539
vt 0.379220 0.472486
vt 0.019701 0.472593
vt 0.038647 0.472642
vt 0.057591 0.472682
vt 0.076528 0.472706
vt 0.095457 0.472713
vt 0.114377 0.472702
vt 0.133289 0.472672
vt 0.152194 0.472627
vt 0.171096 0.472573
vn 0.263766 0.917378 0.298068
vn 0.263773 0.780367 0.566967
vn 0.590679 0.652806 0.474281
vn 0.590669 0.767425 0.249336
vn 0.263777 0.566969 0.780364
vn 0.590681 0.474296 0.652793
vn 0.263779 0.298075 0.917372
vn 0.590685 0.249347 0.767409
vn 0.263780 0.000000 0.964583
vn 0.590687 0.000000 0.806901
vn 0.263779 -0.298073 0.917373
vn 0.590685 -0.249347 0.767409
vn 0.263777 -0.566970 0.780364
vn 0.590680 -0.474300 0.652792
vn 0.263772 -0.780368 0.566965
vn 0.590677 -0.652810 0.474278
vn 0.263766 -0.917378 0.298069
vn 0.590670 -0.767424 0.249337
vn 0.263760 -0.964588 -0.000006
vn 0.590665 -0.806917 -0.000013
vn 0.263753 -0.917379 -0.298079
vn 0.590660 -0.767424 -0.249361
vn 0.263747 -0.780370 -0.566975
vn 0.590658 -0.652808 -0.474305
vn 0.263743 -0.566972 -0.780373
vn 0.590653 -0.474296 -0.652818
vn 0.263740 -0.298073 -0.917384
vn 0.590652 -0.249347 -0.767434
vn 0.263739 0.000000 -0.964594
vn 0.590652 0.000000 -0.806926
vn 0.263740 0.298073 -0.917384
vn 0.590652 0.249347 -0.767434
vn 0.263743 0.566971 -0.780374
vn 0.590652 0.474300 -0.652817
vn 0.263748 0.780367 -0.566978
vn 0.590659 0.652807 -0.474305
vn 0.263754 0.917378 -0.298080
vn 0.590663 0.767422 -0.249364
vn 0.263759 0.964589 -0.000006
vn 0.590662 0.806919 -0.000012
vn 1.000000 -0.000000 -0.000021
vn 0.152066 0.580950 0.799608
vn 0.152069 0.305423 0.939996
vn 0.171534 0.304437 0.936960
vn 0.171532 0.579074 0.797026
vn 0.152061 0.799611 0.580948
vn 0.171527 0.797029 0.579072
vn 0.152055 0.939999 0.305419
vn 0.171521 0.936964 0.304433
vn 0.152049 0.988373 -0.000004
vn 0.171514 0.985182 -0.000004
vn 0.152042 0.939999 -0.305427
vn 0.171508 0.936963 -0.304441
vn 0.152036 0.799611 -0.580953
vn 0.171502 0.797028 -0.579079
vn 0.152031 0.580950 -0.799614
vn 0.171497 0.579074 -0.797033
vn 0.152028 0.305423 -0.940002
vn 0.171494 0.304436 -0.936968
vn 0.152027 0.000000 -0.988376
vn 0.171493 0.000000 -0.985185
vn 0.152028 -0.305423 -0.940002
vn 0.171494 -0.304436 -0.936968
vn 0.152031 -0.580950 -0.799615
vn 0.171497 -0.579075 -0.797033
vn 0.152036 -0.799611 -0.580954
vn 0.171502 -0.797030 -0.579078
vn 0.152042 -0.939999 -0.305427
vn 0.171508 -0.936964 -0.304441
vn 0.152048 -0.988373 -0.000003
vn 0.171514 -0.985182 -0.000003
vn 0.152055 -0.939999 0.305419
vn 0.171521 -0.936964 0.304433
vn 0.152061 -0.799611 0.580948
vn 0.171527 -0.797028 0.579072
vn 0.152066 -0.580949 0.799609
vn 0.171532 -0.579072 0.797027
vn 0.152069 -0.305422 0.939996
vn 0.171535 -0.304435 0.936961
vn 0.152070 0.000000 0.988370
vn 0.171535 0.000000 0.985178
vn 0.113501 0.583955 0.803813
vn 0.113500 0.306973 0.944926
vn 0.136351 0.306131 0.942174
vn 0.136348 0.582297 0.801461
vn 0.113499 0.803772 0.584011
vn 0.136343 0.801463 0.582295
vn 0.113495 0.944907 0.307033
vn 0.136338 0.942177 0.306128
vn 0.113489 0.993539 -0.000003
vn 0.136331 0.990663 -0.000004
vn 0.113482 0.944907 -0.307038
vn 0.136324 0.942177 -0.306134
vn 0.113474 0.803772 -0.584015
vn 0.136318 0.801463 -0.582300
vn 0.113466 0.583954 -0.803818
vn 0.136314 0.582297 -0.801467
vn 0.113460 0.306973 -0.944931
vn 0.136311 0.306131 -0.942180
vn 0.113454 -0.000052 -0.993543
vn 0.136310 0.000000 -0.990666
vn 0.113451 -0.307069 -0.944901
vn 0.136311 -0.306132 -0.942180
vn 0.113450 -0.584025 -0.803769
vn 0.136314 -0.582297 -0.801466
vn 0.113451 -0.803811 -0.583966
vn 0.136318 -0.801464 -0.582300
vn 0.113456 -0.944920 -0.307009
vn 0.136324 -0.942177 -0.306134
vn 0.113462 -0.993542 -0.000003
vn 0.136331 -0.990663 -0.000003
vn 0.113469 -0.944920 0.307004
vn 0.136338 -0.942177 0.306129
vn 0.113477 -0.803811 0.583962
vn 0.136343 -0.801463 0.582295
vn 0.113484 -0.584024 0.803764
vn 0.136348 -0.582297 0.801461
vn 0.113491 -0.307069 0.944896
vn 0.136351 -0.306131 0.942174
vn 0.113497 -0.000053 0.993538
vn 0.136352 0.000000 0.990661
vn -1.000000 0.000003 0.000021
vn -0.760751 0.201173 0.617079
vn -0.760099 0.382392 0.525382
vn -0.759586 0.526421 0.381983
vn -0.759260 0.618996 0.200918
vn -0.759148 0.650918 0.000016
vn -0.759265 0.619001 -0.200885
vn -0.759603 0.526419 -0.381951
vn -0.760122 0.382389 -0.525350
vn -0.760777 0.201178 -0.617046
vn -0.761499 0.000685 -0.648165
vn -0.762222 -0.199415 -0.615834
vn -0.762873 -0.379591 -0.523389
vn -0.763390 -0.522345 -0.379988
vn -0.763716 -0.613897 -0.199672
vn -0.763829 -0.645419 0.000016
vn -0.763711 -0.613892 0.199705
vn -0.763374 -0.522345 0.380022
vn -0.762852 -0.379586 0.523423
vn -0.762197 -0.199408 0.615867
vn -0.761472 0.000679 0.648198
vn -0.135461 0.000294 0.990783
vn -0.135479 0.306432 0.942202
vn -0.135499 0.582557 0.801416
vn -0.135514 0.801655 0.582225
vn -0.135528 0.942309 0.306081
vn -0.135538 0.990772 0.000002
vn -0.135541 0.942309 -0.306075
vn -0.135539 0.801656 -0.582218
vn -0.135534 0.582556 -0.801411
vn -0.135520 0.306431 -0.942197
vn -0.135503 0.000295 -0.990777
vn -0.135485 -0.305901 -0.942374
vn -0.135467 -0.582178 -0.801697
vn -0.135448 -0.801463 -0.582504
vn -0.135435 -0.942267 -0.306252
vn -0.135426 -0.990787 0.000003
vn -0.135422 -0.942267 0.306258
vn -0.135424 -0.801463 0.582510
vn -0.135432 -0.582177 0.801703
vn -0.135444 -0.305902 0.942380
s 1
g FoodShortLLowerArm
usemtl blinn1SG
f 1/1/1 2/2/2 22/3/3 21/4/4
f 2/2/2 3/5/5 23/6/6 22/3/3
f 3/5/5 4/7/7 24/8/8 23/6/6
f 4/7/7 5/9/9 25/10/10 24/8/8
f 5/9/9 6/11/11 26/12/12 25/10/10
f 6/11/11 7/13/13 27/14/14 26/12/12
f 7/13/13 8/15/15 28/16/16 27/14/14
f 8/15/15 9/17/17 29/18/18 28/16/16
f 9/17/17 10/19/19 30/20/20 29/18/18
f 10/19/19 11/21/21 31/22/22 30/20/20
f 11/21/21 12/23/23 32/24/24 31/22/22
f 12/23/23 13/25/25 33/26/26 32/24/24
f 13/25/25 14/27/27 34/28/28 33/26/26
f 14/27/27 15/29/29 35/30/30 34/28/28
f 15/31/29 16/32/31 36/33/32 35/34/30
f 16/32/31 17/35/33 37/36/34 36/33/32
f 17/35/33 18/37/35 38/38/36 37/36/34
f 18/37/35 19/39/37 39/40/38 38/38/36
f 19/39/37 20/41/39 40/42/40 39/40/38
f 20/41/39 1/1/1 21/4/4 40/42/40
f 21/43/4 22/44/3 41/45/41
f 22/44/3 23/46/6 41/45/41
f 23/46/6 24/47/8 41/45/41
f 24/47/8 25/48/10 41/45/41
f 25/48/10 26/49/12 41/45/41
f 26/49/12 27/50/14 41/45/41
f 27/50/14 28/51/16 41/45/41
f 28/51/16 29/52/18 41/45/41
f 29/52/18 30/53/20 41/45/41
f 30/53/20 31/54/22 41/45/41
f 31/54/22 32/55/24 41/45/41
f 32/55/24 33/56/26 41/45/41
f 33/56/26 34/57/28 41/45/41
f 34/57/28 35/58/30 41/45/41
f 35/58/30 36/59/32 41/45/41
f 36/59/32 37/60/34 41/45/41
f 37/60/34 38/61/36 41/45/41
f 38/61/36 39/62/38 41/45/41
f 39/62/38 40/63/40 41/45/41
f 40/63/40 21/43/4 41/45/41
f 43/64/42 42/65/43 124/66/44 125/67/45
f 44/68/46 43/64/42 125/67/45 126/69/47
f 45/70/48 44/68/46 126/69/47 127/71/49
f 46/72/50 45/70/48 127/71/49 128/73/51
f 47/74/52 46/72/50 128/73/51 129/75/53
f 48/76/54 47/74/52 129/75/53 130/77/55
f 49/78/56 48/76/54 130/77/55 131/79/57
f 50/80/58 49/78/56 131/79/57 132/81/59
f 51/82/60 50/80/58 132/81/59 133/83/61
f 52/84/62 51/85/60 133/86/61 134/87/63
f 53/88/64 52/84/62 134/87/63 135/89/65
f 54/90/66 53/88/64 135/89/65 136/91/67
f 55/92/68 54/90/66 136/91/67 137/93/69
f 56/94/70 55/92/68 137/93/69 138/95/71
f 57/96/72 56/94/70 138/95/71 139/97/73
f 58/98/74 57/96/72 139/97/73 140/99/75
f 59/100/76 58/98/74 140/99/75 141/101/77
f 60/102/78 59/100/76 141/101/77 142/103/79
f 61/104/80 60/102/78 142/103/79 123/105/81
f 42/65/43 61/104/80 123/105/81 124/66/44
f 63/106/82 62/107/83 104/108/84 105/109/85
f 64/110/86 63/106/82 105/109/85 106/111/87
f 65/112/88 64/110/86 106/111/87 107/113/89
f 66/114/90 65/112/88 107/113/89 108/115/91
f 67/116/92 66/114/90 108/115/91 109/117/93
f 68/118/94 67/116/92 109/117/93 110/119/95
f 69/120/96 68/118/94 110/119/95 111/121/97
f 70/122/98 69/120/96 111/121/97 112/123/99
f 71/124/100 70/122/98 112/123/99 113/125/101
f 72/126/102 71/127/100 113/128/101 114/129/103
f 73/130/104 72/126/102 114/129/103 115/131/105
f 74/132/106 73/130/104 115/131/105 116/133/107
f 75/134/108 74/132/106 116/133/107 117/135/109
f 76/136/110 75/134/108 117/135/109 118/137/111
f 77/138/112 76/136/110 118/137/111 119/139/113
f 78/140/114 77/138/112 119/139/113 120/141/115
f 79/142/116 78/140/114 120/141/115 121/143/117
f 80/144/118 79/142/116 121/143/117 122/145/119
f 81/146/120 80/144/118 122/145/119 103/147/121
f 62/107/83 81/146/120 103/147/121 104/108/84
f 82/148/122 84/149/123 85/150/124
f 82/148/122 85/150/124 86/151/125
f 82/148/122 86/151/125 87/152/126
f 82/148/122 87/152/126 88/153/127
f 82/148/122 88/153/127 89/154/128
f 82/148/122 89/154/128 90/155/129
f 82/148/122 90/155/129 91/156/130
f 82/148/122 91/156/130 92/157/131
f 82/148/122 92/157/131 93/158/132
f 82/159/122 93/160/132 94/161/133
f 82/159/122 94/161/133 95/162/134
f 82/159/122 95/162/134 96/163/135
f 82/159/122 96/163/135 97/164/136
f 82/159/122 97/164/136 98/165/137
f 82/159/122 98/165/137 99/166/138
f 82/159/122 99/166/138 100/167/139
f 82/159/122 100/167/139 101/168/140
f 82/159/122 101/168/140 102/169/141
f 82/159/122 102/169/141 83/170/142
f 82/148/122 83/170/142 84/149/123
f 84/149/123 83/170/142 143/171/143 144/172/144
f 85/150/124 84/149/123 144/172/144 145/173/145
f 86/151/125 85/150/124 145/173/145 146/174/146
f 87/152/126 86/151/125 146/174/146 147/175/147
f 88/153/127 87/152/126 147/175/147 148/176/148
f 89/154/128 88/153/127 148/176/148 149/177/149
f 90/155/129 89/154/128 149/177/149 150/178/150
f 91/156/130 90/155/129 150/178/150 151/179/151
f 92/157/131 91/156/130 151/179/151 152/180/152
f 93/158/132 92/157/131 152/180/152 153/182/153
f 94/161/133 93/160/132 153/181/153 154/183/154
f 95/162/134 94/161/133 154/183/154 155/184/155
f 96/163/135 95/162/134 155/184/155 156/185/156
f 97/164/136 96/163/135 156/185/156 157/186/157
f 98/165/137 97/164/136 157/186/157 158/187/158
f 99/166/138 98/165/137 158/187/158 159/188/159
f 100/167/139 99/166/138 159/188/159 160/189/160
f 101/168/140 100/167/139 160/189/160 161/190/161
f 102/169/141 101/168/140 161/190/161 162/191/162
f 83/170/142 102/169/141 162/191/162 143/171/143
f 104/108/84 103/147/121 61/104/80 42/65/43
f 105/109/85 104/108/84 42/65/43 43/64/42
f 106/111/87 105/109/85 43/64/42 44/68/46
f 107/113/89 106/111/87 44/68/46 45/70/48
f 108/115/91 107/113/89 45/70/48 46/72/50
f 109/117/93 108/115/91 46/72/50 47/74/52
f 110/119/95 109/117/93 47/74/52 48/76/54
f 111/121/97 110/119/95 48/76/54 49/78/56
f 112/123/99 111/121/97 49/78/56 50/80/58
f 113/125/101 112/123/99 50/80/58 51/82/60
f 114/129/103 113/128/101 51/85/60 52/84/62
f 115/131/105 114/129/103 52/84/62 53/88/64
f 116/133/107 115/131/105 53/88/64 54/90/66
f 117/135/109 116/133/107 54/90/66 55/92/68
f 118/137/111 117/135/109 55/92/68 56/94/70
f 119/139/113 118/137/111 56/94/70 57/96/72
f 120/141/115 119/139/113 57/96/72 58/98/74
f 121/143/117 120/141/115 58/98/74 59/100/76
f 122/145/119 121/143/117 59/100/76 60/102/78
f 103/147/121 122/145/119 60/102/78 61/104/80
f 124/66/44 123/105/81 5/9/9 4/7/7
f 125/67/45 124/66/44 4/7/7 3/5/5
f 126/69/47 125/67/45 3/5/5 2/2/2
f 127/71/49 126/69/47 2/2/2 1/1/1
f 128/73/51 127/71/49 1/1/1 20/41/39
f 129/75/53 128/73/51 20/41/39 19/39/37
f 130/77/55 129/75/53 19/39/37 18/37/35
f 131/79/57 130/77/55 18/37/35 17/35/33
f 132/81/59 131/79/57 17/35/33 16/32/31
f 133/83/61 132/81/59 16/32/31 15/31/29
f 134/87/63 133/86/61 15/29/29 14/27/27
f 135/89/65 134/87/63 14/27/27 13/25/25
f 136/91/67 135/89/65 13/25/25 12/23/23
f 137/93/69 136/91/67 12/23/23 11/21/21
f 138/95/71 137/93/69 11/21/21 10/19/19
f 139/97/73 138/95/71 10/19/19 9/17/17
f 140/99/75 139/97/73 9/17/17 8/15/15
f 141/101/77 140/99/75 8/15/15 7/13/13
f 142/103/79 141/101/77 7/13/13 6/11/11
f 123/105/81 142/103/79 6/11/11 5/9/9
f 144/172/144 143/171/143 81/146/120 62/107/83
f 145/173/145 144/172/144 62/107/83 63/106/82
f 146/174/146 145/173/145 63/106/82 64/110/86
f 147/175/147 146/174/146 64/110/86 65/112/88
f 148/176/148 147/175/147 65/112/88 66/114/90
f 149/177/149 148/176/148 66/114/90 67/116/92
f 150/178/150 149/177/149 67/116/92 68/118/94
f 151/179/151 150/178/150 68/118/94 69/120/96
f 152/180/152 151/179/151 69/120/96 70/122/98
f 153/182/153 152/180/152 70/122/98 71/124/100
f 154/183/154 153/181/153 71/127/100 72/126/102
f 155/184/155 154/183/154 72/126/102 73/130/104
f 156/185/156 155/184/155 73/130/104 74/132/106
f 157/186/157 156/185/156 74/132/106 75/134/108
f 158/187/158 157/186/157 75/134/108 76/136/110
f 159/188/159 158/187/158 76/136/110 77/138/112
f 160/189/160 159/188/159 77/138/112 78/140/114
f 161/190/161 160/189/160 78/140/114 79/142/116
f 162/191/162 161/190/161 79/142/116 80/144/118
f 143/171/143 162/191/162 80/144/118 81/146/120
