# This file uses centimeters as units for non-parametric coordinates.

mtllib DriedFruitSnakpodTallRLowerArm.mtl
g default
v -0.101197 -0.362524 0.526509
v 0.131167 -0.348346 0.453674
v 0.180980 -0.346884 0.244964
v 0.200270 -0.347171 0.003044
v 0.170896 -0.352354 -0.232100
v 0.107455 -0.359111 -0.428337
v -0.143738 -0.374207 -0.466777
v -0.418969 -0.383096 -0.476297
v -0.674791 -0.422890 -0.453980
v -0.908173 -0.437602 -0.399650
v -1.005294 -0.442015 -0.221853
v -1.062251 -0.443802 0.018663
v -1.047151 -0.440012 0.273213
v -0.991195 -0.424785 0.477306
v -0.744473 -0.408342 0.538034
v -0.420281 -0.384786 0.565129
v 0.014528 -0.351903 0.855704
v 0.383407 -0.332848 0.658372
v 0.630431 -0.330215 0.357194
v 0.714329 -0.293271 0.001826
v 0.622532 -0.321166 -0.352330
v 0.378041 -0.344024 -0.650891
v 0.014300 -0.383771 -0.846575
v -0.417958 -0.397723 -0.926727
v -0.851592 -0.426767 -0.854529
v -1.217690 -0.454965 -0.653140
v -1.463093 -0.481824 -0.353180
v -1.550845 -0.496326 0.001902
v -1.463481 -0.486903 0.357468
v -1.222406 -0.429279 0.659894
v -0.852605 -0.413549 0.854291
v -0.418823 -0.382805 0.928837
v -0.021768 0.153922 0.852083
v 0.341392 0.186678 0.653882
v 0.588846 0.216514 0.356223
v 0.680556 0.193116 0.001822
v 0.592665 0.208415 -0.353530
v 0.346559 0.192244 -0.654649
v -0.023224 0.194448 -0.855953
v -0.455497 0.139104 -0.926764
v -0.889450 0.107098 -0.856061
v -1.257595 0.083706 -0.654748
v -1.504202 0.077047 -0.353471
v -1.591096 0.079076 0.001901
v -1.504591 0.082953 0.357268
v -1.255093 0.048599 0.658527
v -0.888536 0.094881 0.859815
v -0.454379 0.124091 0.930167
v -0.164183 0.147124 0.485043
v 0.072580 0.164758 0.434498
v 0.132067 0.171009 0.237604
v 0.163597 0.173118 0.008694
v 0.108490 0.174782 -0.209282
v 0.041459 0.173356 -0.404203
v -0.202257 0.152966 -0.451901
v -0.455318 0.126407 -0.478515
v -0.700708 0.131757 -0.445405
v -0.933202 0.106892 -0.388482
v -1.032432 0.101458 -0.216003
v -1.079424 0.096392 0.008274
v -1.035204 0.101318 0.229247
v -0.964011 0.095999 0.418898
v -0.708266 0.123406 0.455608
v -0.451736 0.132522 0.489744
v -0.419412 -0.386120 0.028942
v -0.457729 0.119380 0.005244
v 0.211874 -0.329179 1.253844
v 0.233470 -0.240267 1.304339
v 0.754125 -0.308357 0.966360
v 0.808991 -0.209119 1.017090
v 1.122214 -0.298854 0.527719
v 1.209876 -0.190613 0.562576
v 1.249516 -0.290056 0.001805
v 1.346856 -0.181871 0.001804
v 1.126484 -0.307402 -0.526130
v 1.209356 -0.190520 -0.559052
v 0.760835 -0.325698 -0.969089
v 0.817789 -0.213431 -1.024537
v 0.211074 -0.326205 -1.245644
v 0.238673 -0.244963 -1.311027
v -0.419634 -0.373414 -1.351457
v -0.425758 -0.285685 -1.409018
v -1.054778 -0.457274 -1.267560
v -1.099687 -0.350422 -1.346127
v -1.593714 -0.484342 -0.966783
v -1.674468 -0.392081 -1.034875
v -1.954852 -0.508666 -0.522480
v -2.046267 -0.412833 -0.551309
v -2.081252 -0.515728 0.001910
v -2.155225 -0.410303 0.001913
v -1.946206 -0.483892 0.521268
v -2.034698 -0.406904 0.550665
v -1.596554 -0.496599 0.975682
v -1.674646 -0.392269 1.037984
v -1.051930 -0.428179 1.257566
v -1.088086 -0.336707 1.317051
v -0.418686 -0.385724 1.360486
v -0.425477 -0.288376 1.417476
v 0.211506 0.073827 1.304340
v 0.177746 0.158868 1.253846
v 0.785762 0.123080 1.017091
v 0.717618 0.213717 0.966362
v 1.185321 0.160549 0.562577
v 1.083447 0.255536 0.527720
v 1.322184 0.170958 0.001805
v 1.210734 0.264543 0.001807
v 1.184819 0.160390 -0.559051
v 1.086485 0.264600 -0.526129
v 0.793873 0.128584 -1.024536
v 0.721848 0.231832 -0.969087
v 0.216005 0.079213 -1.311026
v 0.177367 0.155824 -1.245643
v -0.447628 0.027069 -1.409018
v -0.453772 0.114796 -1.351455
v -1.124008 -0.002617 -1.346126
v -1.094407 0.109445 -1.267558
v -1.698993 -0.041359 -1.034874
v -1.631865 0.061242 -0.966782
v -2.070062 -0.072556 -0.551309
v -1.992874 0.035067 -0.522479
v -2.177607 -0.090228 0.001914
v -2.119026 0.024466 0.001911
v -2.057779 -0.076822 0.550665
v -1.980863 0.011733 0.521270
v -1.699194 -0.041207 1.037985
v -1.636383 0.072976 0.975683
v -1.110610 -0.014597 1.317052
v -1.087536 0.081017 1.257567
v -0.447723 0.029760 1.417477
v -0.454547 0.127105 1.360487
v -0.418025 -0.384569 -0.212310
v -0.420382 -0.386148 0.281507
v -0.117321 -0.364948 0.264299
v -0.122964 -0.365556 0.018153
v -0.144253 -0.367174 -0.214021
v -0.729950 -0.411180 0.277814
v -0.722444 -0.412632 0.029557
v -0.694157 -0.413149 -0.208483
v -0.457803 0.122610 -0.208659
v -0.454361 0.124778 0.219919
v -0.716824 0.115538 0.214372
v -0.730551 0.109473 0.005575
v -0.717720 0.116850 -0.206110
v -0.184397 0.142840 0.225143
v -0.184061 0.142461 0.008377
v -0.199825 0.144533 -0.203934
vt 0.127727 0.861376
vt 0.123025 0.846742
vt 0.109789 0.843724
vt 0.094460 0.842644
vt 0.079565 0.844631
vt 0.067136 0.848727
vt 0.064791 0.864595
vt 0.064360 0.881962
vt 0.065929 0.898271
vt 0.069534 0.913007
vt 0.080830 0.919023
vt 0.096067 0.922465
vt 0.112130 0.921381
vt 0.125010 0.917658
vt 0.128741 0.902059
vt 0.130293 0.881544
vt 0.957157 0.895894
vt 0.946742 0.919901
vt 0.931359 0.904197
vt 0.933178 0.889009
vt 0.929405 0.937195
vt 0.919283 0.909054
vt 0.907590 0.944840
vt 0.905023 0.912326
vt 0.884728 0.941389
vt 0.890939 0.910124
vt 0.864236 0.927685
vt 0.878238 0.907049
vt 0.849305 0.905720
vt 0.873823 0.891970
vt 0.842411 0.878682
vt 0.870735 0.876139
vt 0.096354 0.881755
vt 0.844604 0.850875
vt 0.179761 0.838412
vt 0.160563 0.801323
vt 0.130529 0.775677
vt 0.093889 0.767047
vt 0.057261 0.775835
vt 0.026861 0.801412
vt 0.008760 0.839406
vt 0.002069 0.882502
vt 0.006883 0.926468
vt 0.028013 0.963468
vt 0.059699 0.987450
vt 0.095745 0.994782
vt 0.131215 0.985727
vt 0.162913 0.962309
vt 0.181296 0.924079
vt 0.187665 0.881055
vt 0.835547 0.529355
vt 0.871448 0.860542
vt 0.855233 0.826474
vt 0.873767 0.845518
vt 0.872824 0.809376
vt 0.884075 0.838323
vt 0.894730 0.802013
vt 0.897935 0.834114
vt 0.917477 0.805276
vt 0.912079 0.835644
vt 0.937878 0.819320
vt 0.924434 0.839047
vt 0.952682 0.841204
vt 0.928207 0.854970
vt 0.959523 0.868162
vt 0.931814 0.870892
vt 0.887739 0.874435
vt 0.889498 0.890663
vt 0.886442 0.858081
vt 0.912950 0.855765
vt 0.899712 0.856067
vt 0.901225 0.873215
vt 0.914782 0.872232
vt 0.916666 0.889190
vt 0.902989 0.890433
vt 0.989976 0.908264
vt 0.983698 0.906129
vt 0.986522 0.865656
vt 0.993688 0.865053
vt 0.974486 0.947046
vt 0.968475 0.941926
vt 0.947100 0.975499
vt 0.942874 0.967421
vt 0.135880 0.830690
vt 0.173721 0.841149
vt 0.116716 0.815318
vt 0.155080 0.807006
vt 0.094197 0.810062
vt 0.127111 0.784130
vt 0.071861 0.816169
vt 0.093916 0.776214
vt 0.052968 0.831742
vt 0.060810 0.784456
vt 0.040591 0.854828
vt 0.033109 0.807528
vt 0.035787 0.882231
vt 0.015060 0.842130
vt 0.040781 0.909659
vt 0.008773 0.882579
vt 0.053745 0.932799
vt 0.015061 0.923030
vt 0.072838 0.948110
vt 0.034134 0.956989
vt 0.095343 0.953425
vt 0.062602 0.979332
vt 0.117677 0.947872
vt 0.095575 0.986713
vt 0.136646 0.932071
vt 0.128461 0.978538
vt 0.148824 0.908778
vt 0.156483 0.955814
vt 0.153275 0.881292
vt 0.174515 0.921337
vt 0.148533 0.853866
vt 0.180474 0.881155
vt 0.204943 0.510447
vt 0.244356 0.509743
vt 0.204943 0.530113
vt 0.283769 0.508609
vt 0.244356 0.530817
vt 0.323182 0.508256
vt 0.283769 0.531951
vt 0.362594 0.508607
vt 0.323182 0.532303
vt 0.402007 0.509553
vt 0.362594 0.531953
vt 0.441420 0.510541
vt 0.402007 0.531006
vt 0.480833 0.511153
vt 0.441420 0.530018
vt 0.520245 0.509971
vt 0.480833 0.529407
vt 0.559658 0.509300
vt 0.520245 0.530589
vt 0.599071 0.508821
vt 0.559658 0.531260
vt 0.638484 0.509088
vt 0.599071 0.531739
vt 0.677896 0.509107
vt 0.638484 0.531471
vt 0.717309 0.509244
vt 0.677896 0.531452
vt 0.756722 0.510634
vt 0.717309 0.531316
vt 0.796135 0.510904
vt 0.756722 0.529926
vt 0.835547 0.511205
vt 0.796135 0.529656
vt 0.911481 0.987663
vt 0.910613 0.978538
vt 0.874171 0.982498
vt 0.876861 0.973573
vt 0.841417 0.960024
vt 0.847038 0.953328
vt 0.819683 0.923978
vt 0.825688 0.920654
vt 0.808825 0.881713
vt 0.815489 0.880981
vt 0.809327 0.837485
vt 0.817801 0.840107
vt 0.826745 0.798599
vt 0.833469 0.804448
vt 0.855937 0.771636
vt 0.859618 0.779431
vt 0.891092 0.760816
vt 0.891711 0.768862
vt 0.927276 0.766356
vt 0.925238 0.773779
vt 0.961124 0.786560
vt 0.955359 0.793650
vt 0.983156 0.822844
vt 0.976677 0.826234
vt 0.081483 0.899292
vt 0.096557 0.900936
vt 0.112265 0.901280
vt 0.080829 0.864492
vt 0.095537 0.863032
vt 0.111128 0.862544
vt 0.112345 0.881689
vt 0.081075 0.881782
vn 0.066585 -0.997760 0.006411
vn 0.051835 -0.998602 0.010388
vn 0.051600 -0.998456 0.020562
vn 0.068833 -0.997569 0.010830
vn 0.061596 -0.998011 -0.013430
vn 0.051425 -0.998608 -0.011761
vn 0.076203 -0.997091 -0.001466
vn 0.048746 -0.998811 -0.000245
vn 0.073322 -0.997031 0.023506
vn 0.050357 -0.998280 0.030007
vn 0.067868 -0.997278 0.028833
vn 0.062452 -0.998029 -0.006146
vn 0.045468 -0.998493 0.030737
vn 0.063494 -0.997440 -0.032904
vn 0.071093 -0.997326 0.016898
vn 0.079234 -0.996500 -0.026624
vn 0.093371 -0.995624 0.003763
vn 0.086945 -0.996212 -0.001291
vn 0.073145 -0.997317 -0.002950
vn 0.072489 -0.997367 0.002179
vn 0.088484 -0.996076 0.001963
vn 0.069217 -0.997552 -0.009957
vn 0.099349 -0.995047 0.003317
vn 0.056443 -0.998360 0.009523
vn 0.101363 -0.994448 0.028279
vn 0.068127 -0.997438 0.021797
vn 0.077229 -0.996175 0.040890
vn 0.090479 -0.995898 0.001038
vn 0.067026 -0.997675 0.012327
vn 0.078943 -0.996843 -0.008520
vn 0.071760 -0.997400 0.006609
vn 0.074324 -0.997232 0.001837
vn -0.069532 0.997506 0.012161
vn -0.087352 0.995986 0.019549
vn -0.087461 0.996144 0.006970
vn -0.068069 0.997674 0.003518
vn -0.088252 0.996018 -0.012651
vn -0.080087 0.996654 -0.016350
vn -0.091329 0.995821 0.000430
vn -0.064151 0.997940 0.000982
vn -0.091102 0.995420 0.028991
vn -0.066802 0.997452 0.025036
vn -0.071196 0.997455 -0.003854
vn -0.064066 0.997452 0.031372
vn -0.073529 0.996745 -0.033069
vn -0.095937 0.994645 0.038437
vn -0.064857 0.997421 -0.030744
vn -0.072779 0.997154 0.019668
vn -0.054177 0.998531 -0.000516
vn -0.048350 0.998817 0.005235
vn -0.066472 0.997785 0.002668
vn -0.070407 0.997516 -0.002153
vn -0.069141 0.997548 -0.010797
vn -0.048598 0.998818 0.000664
vn -0.084324 0.996410 0.007538
vn -0.040241 0.999183 -0.003737
vn -0.068307 0.997329 0.025871
vn -0.041878 0.998741 0.027601
vn -0.052898 0.998588 0.004870
vn -0.084157 0.995232 0.049313
vn -0.066833 0.997745 -0.006164
vn -0.074075 0.997137 0.015208
vn -0.062239 0.998032 0.007612
vn -0.056191 0.998388 0.008026
vn 0.054671 -0.998459 0.009568
vn 0.099155 -0.994924 0.017138
vn 0.084090 -0.996425 0.008168
vn 0.074798 -0.997186 0.005048
vn 0.081919 -0.996558 0.012710
vn 0.089968 -0.995913 0.007938
vn 0.078694 -0.996898 0.001558
vn 0.065407 -0.997852 0.003723
vn 0.061494 -0.998104 0.002776
vn -0.051977 0.998327 0.025342
vn -0.091683 0.995514 0.023348
vn -0.035120 0.998992 0.027951
vn -0.045404 0.998821 -0.017167
vn -0.038117 0.999273 0.000524
vn -0.056262 0.998416 0.000204
vn -0.050732 0.998466 -0.022160
vn -0.075630 0.997087 -0.009877
vn -0.085682 0.996302 0.006370
vn 0.139144 -0.959739 0.244010
vn 0.317419 -0.115689 0.941202
vn 0.017016 -0.131309 0.991195
vn 0.074029 -0.965418 0.249976
vn 0.194117 -0.958818 0.207334
vn 0.613950 -0.123080 0.779690
vn 0.251807 -0.962444 0.101463
vn 0.881474 -0.130228 0.453920
vn 0.272223 -0.962233 0.001465
vn 0.991738 -0.128282 -0.000302
vn 0.257222 -0.962153 -0.089986
vn 0.885836 -0.125399 -0.446732
vn 0.202880 -0.958345 -0.201032
vn 0.619632 -0.128955 -0.774227
vn 0.133310 -0.953934 -0.268771
vn 0.306826 -0.134453 -0.942221
vn 0.086796 -0.956413 -0.278819
vn 0.033764 -0.146377 -0.988652
vn 0.009567 -0.971422 -0.237167
vn -0.278198 -0.190454 -0.941453
vn -0.082758 -0.979429 -0.184038
vn -0.617408 -0.228994 -0.752575
vn -0.155381 -0.981435 -0.112434
vn -0.877158 -0.237047 -0.417616
vn -0.192509 -0.981214 0.012650
vn -0.972361 -0.233319 0.008690
vn -0.156100 -0.980975 0.115412
vn -0.877749 -0.235029 0.417514
vn -0.064749 -0.981520 0.180074
vn -0.608647 -0.219161 0.762572
vn 0.010448 -0.972807 0.231380
vn -0.280998 -0.169189 0.944677
vn 0.298230 0.158735 0.941202
vn 0.003720 0.969920 0.243397
vn -0.060838 0.966120 0.250822
vn -0.001424 0.132394 0.991196
vn 0.590846 0.207323 0.779691
vn 0.058028 0.976937 0.205493
vn 0.854772 0.251636 0.453921
vn 0.114147 0.988350 0.100675
vn 0.964233 0.265057 -0.000301
vn 0.135262 0.990809 0.001534
vn 0.859763 0.247466 -0.446731
vn 0.119719 0.988609 -0.091212
vn 0.595654 0.213940 -0.774226
vn 0.070024 0.976948 -0.201668
vn 0.285127 0.175851 -0.942220
vn 0.003195 0.961975 -0.273118
vn 0.013063 0.149656 -0.988652
vn -0.049690 0.957431 -0.284355
vn -0.301997 0.149888 -0.941452
vn -0.125807 0.963331 -0.236993
vn -0.643269 0.140843 -0.752574
vn -0.218220 0.958328 -0.184358
vn -0.901612 0.112665 -0.417615
vn -0.290778 0.950127 -0.112723
vn -0.995370 0.095722 0.008690
vn -0.328110 0.944558 0.012367
vn -0.901917 0.110581 0.417514
vn -0.287497 0.950645 0.116700
vn -0.633225 0.132317 0.762573
vn -0.196492 0.964370 0.177147
vn -0.301810 0.128431 0.944678
vn -0.126488 0.965910 0.225875
s 1
g FoodTallRLowerArm
usemtl blinn7SG
f 1/1/1 2/2/2 18/84/3 17/114/4
f 2/2/2 3/3/5 19/86/6 18/84/3
f 3/3/5 4/4/7 20/88/8 19/86/6
f 4/4/7 5/5/9 21/90/10 20/88/8
f 5/5/9 6/6/11 22/92/12 21/90/10
f 6/6/11 7/7/13 23/94/14 22/92/12
f 7/7/13 8/8/15 24/96/16 23/94/14
f 8/8/15 9/9/17 25/98/18 24/96/16
f 9/9/17 10/10/19 26/100/20 25/98/18
f 10/10/19 11/11/21 27/102/22 26/100/20
f 11/11/21 12/12/23 28/104/24 27/102/22
f 12/12/23 13/13/25 29/106/26 28/104/24
f 13/13/25 14/14/27 30/108/28 29/106/26
f 14/14/27 15/15/29 31/110/30 30/108/28
f 15/15/29 16/16/31 32/112/32 31/110/30
f 16/16/31 1/1/1 17/114/4 32/112/32
f 33/17/33 34/18/34 50/19/35 49/20/36
f 34/18/34 35/21/37 51/22/38 50/19/35
f 35/21/37 36/23/39 52/24/40 51/22/38
f 36/23/39 37/25/41 53/26/42 52/24/40
f 37/25/41 38/27/43 54/28/44 53/26/42
f 38/27/43 39/29/45 55/30/46 54/28/44
f 39/29/45 40/31/47 56/32/48 55/30/46
f 40/31/47 41/34/49 57/52/50 56/32/48
f 41/34/49 42/53/51 58/54/52 57/52/50
f 42/53/51 43/55/53 59/56/54 58/54/52
f 43/55/53 44/57/55 60/58/56 59/56/54
f 44/57/55 45/59/57 61/60/58 60/58/56
f 45/59/57 46/61/59 62/62/60 61/60/58
f 46/61/59 47/63/61 63/64/62 62/62/60
f 47/63/61 48/65/63 64/66/64 63/64/62
f 48/65/63 33/17/33 49/20/36 64/66/64
f 7/7/13 6/6/11 5/5/9 135/176/65
f 138/173/66 9/9/17 8/8/15 131/180/67
f 132/179/68 136/175/69 137/174/70 65/33/71
f 3/3/5 133/178/72 134/177/73 4/4/7
f 139/67/74 146/68/75 55/30/46 56/32/48
f 59/56/54 143/69/76 57/52/50 58/54/52
f 141/70/77 142/71/78 60/58/56 61/60/58
f 66/72/79 140/73/80 144/74/81 145/75/82
f 67/85/83 68/35/84 98/50/85 97/115/86
f 68/35/84 67/85/83 69/87/87 70/36/88
f 70/36/88 69/87/87 71/89/89 72/37/90
f 72/37/90 71/89/89 73/91/91 74/38/92
f 74/38/92 73/91/91 75/93/93 76/39/94
f 76/39/94 75/93/93 77/95/95 78/40/96
f 78/40/96 77/95/95 79/97/97 80/41/98
f 80/41/98 79/97/97 81/99/99 82/42/100
f 82/42/100 81/99/99 83/101/101 84/43/102
f 84/43/102 83/101/101 85/103/103 86/44/104
f 86/44/104 85/103/103 87/105/105 88/45/106
f 88/45/106 87/105/105 89/107/107 90/46/108
f 90/46/108 89/107/107 91/109/109 92/47/110
f 92/47/110 91/109/109 93/111/111 94/48/112
f 94/48/112 93/111/111 95/113/113 96/49/114
f 96/49/114 95/113/113 97/115/86 98/50/85
f 99/76/115 100/77/116 130/78/117 129/79/118
f 100/77/116 99/76/115 101/80/119 102/81/120
f 102/81/120 101/80/119 103/82/121 104/83/122
f 104/83/122 103/82/121 105/149/123 106/150/124
f 106/150/124 105/149/123 107/151/125 108/152/126
f 108/152/126 107/151/125 109/153/127 110/154/128
f 110/154/128 109/153/127 111/155/129 112/156/130
f 112/156/130 111/155/129 113/157/131 114/158/132
f 114/158/132 113/157/131 115/159/133 116/160/134
f 116/160/134 115/159/133 117/161/135 118/162/136
f 118/162/136 117/161/135 119/163/137 120/164/138
f 120/164/138 119/163/137 121/165/139 122/166/140
f 122/166/140 121/165/139 123/167/141 124/168/142
f 124/168/142 123/167/141 125/169/143 126/170/144
f 126/170/144 125/169/143 127/171/145 128/172/146
f 128/172/146 127/171/145 129/79/118 130/78/117
f 17/114/4 18/84/3 69/87/87 67/85/83
f 18/84/3 19/86/6 71/89/89 69/87/87
f 19/86/6 20/88/8 73/91/91 71/89/89
f 20/88/8 21/90/10 75/93/93 73/91/91
f 21/90/10 22/92/12 77/95/95 75/93/93
f 22/92/12 23/94/14 79/97/97 77/95/95
f 23/94/14 24/96/16 81/99/99 79/97/97
f 24/96/16 25/98/18 83/101/101 81/99/99
f 25/98/18 26/100/20 85/103/103 83/101/101
f 26/100/20 27/102/22 87/105/105 85/103/103
f 27/102/22 28/104/24 89/107/107 87/105/105
f 28/104/24 29/106/26 91/109/109 89/107/107
f 29/106/26 30/108/28 93/111/111 91/109/109
f 30/108/28 31/110/30 95/113/113 93/111/111
f 31/110/30 32/112/32 97/115/86 95/113/113
f 32/112/32 17/114/4 67/85/83 97/115/86
f 68/116/84 70/117/88 101/120/119 99/118/115
f 70/117/88 72/119/90 103/122/121 101/120/119
f 72/119/90 74/121/92 105/124/123 103/122/121
f 74/121/92 76/123/94 107/126/125 105/124/123
f 76/123/94 78/125/96 109/128/127 107/126/125
f 78/125/96 80/127/98 111/130/129 109/128/127
f 80/127/98 82/129/100 113/132/131 111/130/129
f 82/129/100 84/131/102 115/134/133 113/132/131
f 84/131/102 86/133/104 117/136/135 115/134/133
f 86/133/104 88/135/106 119/138/137 117/136/135
f 88/135/106 90/137/108 121/140/139 119/138/137
f 90/137/108 92/139/110 123/142/141 121/140/139
f 92/139/110 94/141/112 125/144/143 123/142/141
f 94/141/112 96/143/114 127/146/145 125/144/143
f 96/143/114 98/145/85 129/148/118 127/146/145
f 98/145/85 68/147/84 99/51/115 129/148/118
f 100/77/116 102/81/120 34/18/34 33/17/33
f 102/81/120 104/83/122 35/21/37 34/18/34
f 104/83/122 106/150/124 36/23/39 35/21/37
f 106/150/124 108/152/126 37/25/41 36/23/39
f 108/152/126 110/154/128 38/27/43 37/25/41
f 110/154/128 112/156/130 39/29/45 38/27/43
f 112/156/130 114/158/132 40/31/47 39/29/45
f 114/158/132 116/160/134 41/34/49 40/31/47
f 116/160/134 118/162/136 42/53/51 41/34/49
f 118/162/136 120/164/138 43/55/53 42/53/51
f 120/164/138 122/166/140 44/57/55 43/55/53
f 122/166/140 124/168/142 45/59/57 44/57/55
f 124/168/142 126/170/144 46/61/59 45/59/57
f 126/170/144 128/172/146 47/63/61 46/61/59
f 128/172/146 130/78/117 48/65/63 47/63/61
f 130/78/117 100/77/116 33/17/33 48/65/63
f 134/177/73 135/176/65 5/5/9 4/4/7
f 137/174/70 138/173/66 131/180/67 65/33/71
f 3/3/5 2/2/2 1/1/1 133/178/72
f 15/15/29 136/175/69 132/179/68 16/16/31
f 133/178/72 1/1/1 16/16/31 132/179/68
f 134/177/73 133/178/72 132/179/68 65/33/71
f 131/180/67 135/176/65 134/177/73 65/33/71
f 7/7/13 135/176/65 131/180/67 8/8/15
f 15/15/29 14/14/27 13/13/25 136/175/69
f 137/174/70 136/175/69 13/13/25 12/12/23
f 11/11/21 138/173/66 137/174/70 12/12/23
f 11/11/21 10/10/19 9/9/17 138/173/66
f 142/71/78 143/69/76 59/56/54 60/58/56
f 66/72/79 145/75/82 146/68/75 139/67/74
f 63/64/62 141/70/77 61/60/58 62/62/60
f 49/20/36 144/74/81 140/73/80 64/66/64
f 140/73/80 141/70/77 63/64/62 64/66/64
f 66/72/79 142/71/78 141/70/77 140/73/80
f 66/72/79 139/67/74 143/69/76 142/71/78
f 57/52/50 143/69/76 139/67/74 56/32/48
f 51/22/38 144/74/81 49/20/36 50/19/35
f 145/75/82 144/74/81 51/22/38 52/24/40
f 146/68/75 145/75/82 52/24/40 53/26/42
f 55/30/46 146/68/75 53/26/42 54/28/44
