# This file uses centimeters as units for non-parametric coordinates.

mtllib DriedFruitSnakpodLUpperCanine.mtl
g default
v -0.251800 -0.040269 -0.025924
v 0.095489 -0.061804 0.025096
v -0.182222 0.853036 -0.182422
v 0.020506 0.859897 -0.154930
v -0.198653 0.524917 -0.323821
v 0.094299 0.532043 -0.315827
v 0.242506 0.565482 -0.073517
v 0.023583 0.593445 0.100136
v -0.235163 0.579622 0.038343
v -0.445904 0.547338 -0.160391
v -0.214924 0.274561 -0.352644
v 0.122570 0.285324 -0.311450
v 0.324915 0.322719 -0.020355
v 0.037084 0.364347 0.172822
v -0.258887 0.349887 0.129708
v -0.548059 0.304644 -0.119862
v -0.203014 0.853102 -0.072631
v -0.217536 0.828094 -0.009037
v -0.011603 0.846376 -0.057981
v -0.018849 0.755970 0.012625
v 0.163116 0.744351 -0.031872
v 0.110657 0.809451 -0.053541
v 0.111332 0.739425 0.003841
v 0.151930 0.838398 -0.135696
v 0.199989 0.771520 -0.116873
v -0.262598 0.025211 0.151583
v -0.268393 0.080049 0.189941
v -0.493392 0.071805 0.072379
v -0.450824 0.025283 0.077440
v -0.454414 0.078489 0.111992
v -0.508794 -0.038979 -0.062064
v -0.557332 0.018614 -0.074373
v 0.041258 0.033442 0.141046
v 0.025982 0.142564 0.182402
v -0.216808 -0.038286 -0.220097
v -0.202167 0.047324 -0.289649
v 0.126783 -0.038392 -0.197768
v 0.127349 0.024871 -0.238951
v 0.386652 0.047895 -0.138573
v 0.331514 0.000866 -0.136645
v 0.331151 0.043249 -0.181199
v 0.326386 -0.003544 0.035504
v 0.375497 0.046958 0.032546
v -0.462766 0.016818 -0.302089
v -0.478773 -0.038403 -0.263451
v -0.514862 0.020166 -0.264601
v 0.288399 0.094550 0.218126
v 0.297716 0.034306 0.189427
v 0.351548 0.086695 0.187355
v -0.149212 0.799053 -0.276354
v -0.151087 0.700570 -0.322270
v -0.382531 0.766796 -0.324122
v -0.314516 0.798360 -0.311763
v -0.319582 0.732903 -0.359517
v -0.337433 0.831684 -0.199371
v -0.389156 0.797869 -0.196527
v 0.059644 0.833347 -0.277579
v 0.070648 0.772906 -0.318694
v -0.322419 0.800733 -0.045206
v -0.317111 0.844356 -0.095007
v -0.368124 0.805065 -0.084123
v 0.190390 0.752499 -0.257136
v 0.188183 0.812051 -0.236498
v 0.209237 0.759561 -0.210316
v 0.252338 0.358911 0.154200
v 0.295973 0.352399 0.112570
v -0.469643 0.335756 0.016013
v -0.440229 0.345742 0.064160
v 0.342793 0.315605 -0.187570
v 0.304221 0.303771 -0.235208
v -0.443958 0.278573 -0.361482
v -0.518899 0.291329 -0.328538
v -0.428140 0.535720 -0.308556
v -0.380208 0.523991 -0.346081
v 0.225815 0.541926 -0.268779
v 0.261978 0.555035 -0.206267
v 0.213249 0.589850 0.041701
v 0.159440 0.588502 0.078687
v -0.377493 0.577176 0.002627
v -0.402533 0.571433 -0.044295
vt 0.642149 0.659877
vt 0.653191 0.661816
vt 0.643353 0.655216
vt 0.635656 0.638797
vt 0.769590 0.766864
vt 0.760233 0.768427
vt 0.769880 0.774847
vt 0.785304 0.803062
vt 0.773419 0.836770
vt 0.633223 0.854879
vt 0.644911 0.858354
vt 0.639987 0.905672
vt 0.624651 0.822013
vt 0.634492 0.791588
vt 0.784141 0.840360
vt 0.793403 0.889904
vt 0.620133 0.779992
vt 0.693051 0.580923
vt 0.653756 0.595809
vt 0.779230 0.976049
vt 0.766501 0.971760
vt 0.784181 0.935972
vt 0.734912 0.590574
vt 0.737580 0.613794
vt 0.724447 0.632144
vt 0.639508 0.617241
vt 0.632365 0.610844
vt 0.737511 0.640414
vt 0.664507 0.983127
vt 0.654515 0.948407
vt 0.675163 0.641158
vt 0.654473 0.646404
vt 0.647746 0.632411
vt 0.760275 0.780052
vt 0.773245 0.804418
vt 0.726831 0.777957
vt 0.678154 0.847714
vt 0.730783 0.807515
vt 0.643502 0.848365
vt 0.636487 0.819434
vt 0.732341 0.840653
vt 0.677462 0.785276
vt 0.674351 0.811294
vt 0.722997 0.594651
vt 0.727263 0.614389
vt 0.701162 0.617297
vt 0.694296 0.599213
vt 0.668646 0.626029
vt 0.705735 0.635253
vt 0.659038 0.607117
vt 0.636273 0.733223
vt 0.671713 0.729203
vt 0.632188 0.780052
vt 0.676467 0.765691
vt 0.721652 0.725124
vt 0.726146 0.767892
vt 0.679536 0.859733
vt 0.684208 0.903654
vt 0.733538 0.859290
vt 0.774387 0.846670
vt 0.779422 0.891488
vt 0.593076 0.775298
vt 0.761944 0.720888
vt 0.798328 0.765381
vt 0.787539 0.717957
vt 0.828911 0.751464
vt 0.566532 0.763107
vt 0.578147 0.716907
vt 0.735551 0.969439
vt 0.741896 0.939426
vt 0.696519 0.983600
vt 0.666598 0.945437
vt 0.672833 0.980882
vt 0.629280 0.649807
vt 0.614247 0.644179
vt 0.637118 0.689671
vt 0.676409 0.659995
vt 0.670973 0.690000
vt 0.708796 0.645841
vt 0.727776 0.643778
vt 0.741605 0.681968
vt 0.755815 0.633569
vt 0.794596 0.664532
vt 0.777306 0.627841
vt 0.741084 0.897291
vt 0.773650 0.935091
vt 0.650526 0.904667
vt 0.690846 0.943693
vt 0.603979 0.727969
vt 0.596542 0.676225
vt 0.617389 0.684609
vt 0.626409 0.732468
vt 0.647887 0.691389
vt 0.716585 0.685250
vt 0.752811 0.722082
vt 0.750465 0.679466
vt 0.819190 0.703613
vt 0.771710 0.675126
vt 0.622515 0.790972
vt 0.724089 0.581299
vt 0.735017 0.634640
vt 0.630290 0.621477
vn 0.195879 -0.095850 -0.975932
vn 0.112646 -0.100842 -0.988505
vn 0.116819 -0.066589 -0.990918
vn 0.197369 -0.062764 -0.978318
vn -0.064809 0.298942 0.952068
vn -0.213639 0.285098 0.934386
vn -0.229657 0.253675 0.939631
vn -0.066433 0.268411 0.961011
vn -0.032504 0.956769 0.289026
vn -0.154893 0.435670 0.886679
vn -0.029042 0.437188 0.898901
vn 0.084550 0.902958 0.421329
vn -0.256505 0.960972 0.103630
vn -0.418290 0.346387 0.839672
vn 0.222994 0.529161 0.818695
vn 0.287784 0.773753 0.564346
vn 0.766234 0.442389 0.466022
vn 0.237263 0.407328 0.881924
vn 0.822936 0.407367 0.396017
vn 0.902223 0.369158 0.222974
vn 0.396791 0.911376 0.109323
vn 0.956070 0.285837 -0.065021
vn 0.475687 0.809539 -0.344047
vn -0.063759 -0.785373 0.615730
vn -0.171987 0.003156 0.985094
vn -0.463415 0.063296 0.883878
vn -0.235956 -0.837521 0.492832
vn -0.027647 -0.765020 0.643413
vn -0.050050 0.011379 0.998682
vn -0.875171 0.029829 0.482893
vn -0.466946 0.270524 0.841890
vn -0.874412 0.249694 0.416002
vn -0.990119 -0.095869 0.102340
vn -0.232159 -0.961683 0.145834
vn -0.929461 -0.157815 -0.333461
vn -0.118394 -0.958931 -0.257750
vn 0.095021 -0.766017 0.635759
vn 0.064110 0.011074 0.997881
vn 0.016638 -0.959901 -0.279846
vn 0.096924 -0.347046 -0.932826
vn 0.197749 -0.340822 -0.919095
vn 0.097200 -0.951810 -0.290877
vn -0.050835 -0.348841 -0.935802
vn 0.426479 -0.255403 -0.867690
vn 0.338386 -0.924201 -0.177053
vn 0.994360 -0.003043 -0.106016
vn 0.475317 -0.069216 -0.877088
vn 0.966229 0.215720 -0.140949
vn 0.992255 -0.009712 0.123838
vn 0.285041 -0.940621 0.184348
vn 0.931593 0.095358 0.350773
vn -0.912542 0.124057 -0.389714
vn -0.084520 -0.084947 -0.992794
vn 0.886031 0.321891 0.333669
vn 0.181024 0.263772 0.947446
vn -0.012010 0.771712 -0.635859
vn 0.066112 0.090403 -0.993709
vn 0.001684 0.105552 -0.994412
vn -0.001563 0.791736 -0.610862
vn 0.051809 0.811692 -0.581783
vn 0.130638 0.162518 -0.978019
vn -0.885904 0.292499 -0.360026
vn -0.068225 0.062741 -0.995695
vn -0.886182 0.272233 -0.374928
vn -0.935631 0.352782 0.011845
vn -0.215829 0.950139 -0.225065
vn -0.882931 0.338243 0.325614
vn 0.543198 0.165694 -0.823093
vn -0.882328 0.305536 0.357974
vn -0.444892 0.319916 0.836496
vn 0.953689 0.277529 -0.115995
vn 0.513979 0.077473 -0.854297
vn -0.040514 0.978290 -0.203242
vn 0.047883 0.993940 -0.098946
vn -0.038786 -0.985299 0.166375
vn 0.039613 -0.983749 0.175122
vn 0.959242 0.260954 0.108436
vn -0.979796 0.184551 0.077075
vn 0.936160 0.320627 0.144231
vn -0.948602 0.310850 0.059380
s 1
g FoodLUpperCaninesOverbite
usemtl blinn7SG
f 12/58/1 11/85/2 5/70/3 6/88/4
f 8/78/5 9/94/6 15/55/7 14/52/8
f 17/49/9 18/79/10 20/77/11 19/31/12
f 18/79/10 17/49/9 60/25/13 59/80/14
f 19/31/12 20/77/11 23/2/15 22/32/16
f 21/1/17 23/2/15 78/93/18 77/76/19
f 22/32/16 21/3/17 25/4/20 24/33/21
f 24/33/21 25/4/20 64/102/22 63/26/23
f 26/36/24 27/56/25 30/6/26 29/34/27
f 27/56/25 26/36/24 33/42/28 34/54/29
f 28/5/30 30/6/26 68/95/31 67/63/32
f 29/34/27 28/7/30 32/8/33 31/35/34
f 31/35/34 32/8/33 46/15/35 45/9/36
f 34/54/29 33/42/28 48/14/37 47/53/38
f 35/41/39 36/59/40 38/57/41 37/37/42
f 36/59/40 35/41/39 45/9/36 44/60/43
f 37/37/42 38/57/41 41/11/44 40/39/45
f 39/10/46 41/11/44 70/87/47 69/12/48
f 40/39/45 39/10/46 43/13/49 42/40/50
f 42/40/50 43/13/49 49/99/51 48/14/37
f 44/60/43 46/15/35 72/16/52 71/61/53
f 47/53/38 49/17/51 66/92/54 65/51/55
f 50/47/56 51/18/57 54/100/58 53/44/59
f 51/18/57 50/47/56 57/50/60 58/19/61
f 52/20/62 54/21/58 74/86/63 73/22/64
f 53/44/59 52/23/62 56/24/65 55/45/66
f 55/45/66 56/24/65 61/101/67 60/25/13
f 58/19/61 57/50/60 63/26/23 62/27/68
f 59/80/14 61/28/67 80/96/69 79/81/70
f 62/73/68 64/29/22 76/30/71 75/72/72
f 65/51/55 66/92/54 77/76/19 78/93/18
f 67/63/32 68/95/31 79/81/70 80/96/69
f 69/12/48 70/87/47 75/72/72 76/30/71
f 71/61/53 72/16/52 73/22/64 74/86/63
f 3/46/73 17/49/9 19/31/12 4/48/74
f 19/31/12 22/32/16 24/33/21 4/48/74
f 26/36/24 29/34/27 31/35/34 1/38/75
f 1/38/75 2/43/76 33/42/28 26/36/24
f 35/41/39 37/37/42 2/43/76 1/38/75
f 37/37/42 40/39/45 42/40/50 2/43/76
f 31/35/34 45/9/36 35/41/39 1/38/75
f 33/42/28 2/43/76 42/40/50 48/14/37
f 50/47/56 53/44/59 55/45/66 3/46/73
f 50/47/56 3/46/73 4/48/74 57/50/60
f 55/45/66 60/25/13 17/49/9 3/46/73
f 57/50/60 4/48/74 24/33/21 63/26/23
f 65/51/55 14/52/8 34/54/29 47/53/38
f 14/52/8 15/55/7 27/56/25 34/54/29
f 15/55/7 68/95/31 30/6/26 27/56/25
f 41/11/44 38/57/41 12/58/1 70/87/47
f 38/57/41 36/59/40 11/85/2 12/58/1
f 36/59/40 44/60/43 71/61/53 11/85/2
f 13/89/77 66/92/54 49/17/51 43/62/49
f 32/64/33 28/5/30 67/63/32 16/65/78
f 32/64/33 16/65/78 72/97/52 46/66/35
f 13/89/77 43/62/49 39/67/46 69/68/48
f 5/70/3 74/86/63 54/21/58 51/69/57
f 6/88/4 5/70/3 51/69/57 58/71/61
f 75/72/72 6/88/4 58/71/61 62/73/68
f 25/74/20 7/91/79 76/90/71 64/75/22
f 25/74/20 21/1/17 77/76/19 7/91/79
f 23/2/15 20/77/11 8/78/5 78/93/18
f 20/77/11 18/79/10 9/94/6 8/78/5
f 18/79/10 59/80/14 79/81/70 9/94/6
f 10/98/80 80/96/69 61/28/67 56/82/65
f 73/83/64 10/98/80 56/82/65 52/84/62
f 11/85/2 71/61/53 74/86/63 5/70/3
f 70/87/47 12/58/1 6/88/4 75/72/72
f 7/91/79 13/89/77 69/68/48 76/90/71
f 7/91/79 77/76/19 66/92/54 13/89/77
f 78/93/18 8/78/5 14/52/8 65/51/55
f 9/94/6 79/81/70 68/95/31 15/55/7
f 16/65/78 67/63/32 80/96/69 10/98/80
f 72/97/52 16/65/78 10/98/80 73/83/64
f 21/3/17 22/32/16 23/2/15
f 28/7/30 29/34/27 30/6/26
f 39/10/46 40/39/45 41/11/44
f 44/60/43 45/9/36 46/15/35
f 47/53/38 48/14/37 49/99/51
f 52/23/62 53/44/59 54/100/58
f 59/80/14 60/25/13 61/101/67
f 62/27/68 63/26/23 64/102/22
