# This file uses centimeters as units for non-parametric coordinates.

mtllib DriedFruitSnakpodRTopIncisor.mtl
g default
v 0.028891 -0.057575 -0.131817
v 0.209568 -0.086001 -0.432190
v 0.028174 0.848816 -0.207843
v 0.134044 0.851785 -0.383012
v -0.148936 0.543570 -0.265999
v -0.025181 0.549514 -0.531678
v 0.258054 0.548904 -0.571367
v 0.333281 0.552427 -0.300824
v 0.173209 0.547339 -0.087964
v -0.094896 0.543027 0.026275
v -0.213600 0.299662 -0.276053
v -0.041597 0.304587 -0.569491
v 0.307893 0.301105 -0.639653
v 0.375450 0.315443 -0.297414
v 0.217608 0.307124 -0.043084
v -0.129354 0.297055 0.122654
v 0.119884 0.833602 -0.145843
v 0.168825 0.799987 -0.109028
v 0.207867 0.824903 -0.316376
v 0.257695 0.725550 -0.287098
v 0.287504 0.720237 -0.472326
v 0.255416 0.787719 -0.429013
v 0.298943 0.710389 -0.411061
v 0.200644 0.827818 -0.497444
v 0.228179 0.758972 -0.537924
v 0.194528 -0.017436 -0.048954
v 0.234158 0.031530 -0.025634
v 0.037365 0.039728 0.134737
v 0.052814 -0.007046 0.095045
v 0.089643 0.040833 0.114763
v -0.105215 -0.051268 0.090286
v -0.128198 0.007478 0.133241
v 0.305864 -0.007819 -0.331830
v 0.351424 0.094485 -0.295647
v -0.133740 -0.028587 -0.239718
v -0.180305 0.065869 -0.275642
v 0.022112 -0.031800 -0.546725
v -0.007049 0.036579 -0.559860
v 0.189530 0.045408 -0.757654
v 0.163518 -0.001430 -0.708817
v 0.128253 0.046740 -0.723562
v 0.317579 -0.029756 -0.637095
v 0.340720 0.020666 -0.680606
v -0.298333 0.037391 -0.042714
v -0.276551 -0.022669 -0.015943
v -0.284344 0.035490 0.019986
v 0.481315 0.041967 -0.525460
v 0.451172 -0.013697 -0.548541
v 0.477222 0.038470 -0.595940
v -0.051181 0.808432 -0.277836
v -0.106297 0.717298 -0.299458
v -0.190817 0.783137 -0.083872
v -0.148703 0.812674 -0.139810
v -0.202526 0.754500 -0.157404
v -0.051210 0.830031 -0.073014
v -0.073352 0.796150 -0.026233
v 0.034483 0.842562 -0.468348
v -0.006317 0.788432 -0.497840
v 0.091038 0.777926 -0.028284
v 0.053394 0.828055 -0.050222
v 0.038148 0.787632 -0.001251
v 0.094326 0.759656 -0.584943
v 0.119852 0.815757 -0.571583
v 0.145269 0.760134 -0.583583
v 0.442727 0.312651 -0.502783
v 0.421227 0.311997 -0.559499
v 0.029200 0.308954 0.105386
v 0.085893 0.312142 0.097716
v 0.161879 0.317332 -0.721796
v 0.101800 0.312244 -0.705612
v -0.311483 0.304865 -0.068827
v -0.309439 0.312912 0.013605
v -0.224197 0.552144 -0.048568
v -0.240935 0.545751 -0.107916
v 0.070777 0.552754 -0.633604
v 0.143603 0.557034 -0.641694
v 0.354471 0.557000 -0.498134
v 0.366727 0.550518 -0.434314
v 0.084247 0.549887 0.028736
v 0.030938 0.550731 0.033099
vt 0.642149 0.659877
vt 0.653191 0.661816
vt 0.643353 0.655216
vt 0.635656 0.638797
vt 0.769590 0.766864
vt 0.760233 0.768427
vt 0.769880 0.774847
vt 0.785304 0.803062
vt 0.773419 0.836770
vt 0.633223 0.854879
vt 0.644911 0.858354
vt 0.639987 0.905672
vt 0.624651 0.822013
vt 0.634492 0.791588
vt 0.784141 0.840360
vt 0.793403 0.889904
vt 0.620133 0.779992
vt 0.693051 0.580923
vt 0.653756 0.595809
vt 0.779230 0.976049
vt 0.766501 0.971760
vt 0.784181 0.935972
vt 0.734912 0.590574
vt 0.737580 0.613794
vt 0.724447 0.632144
vt 0.639508 0.617241
vt 0.632365 0.610844
vt 0.737511 0.640414
vt 0.664507 0.983127
vt 0.654515 0.948407
vt 0.675163 0.641158
vt 0.654473 0.646404
vt 0.647746 0.632411
vt 0.760275 0.780052
vt 0.773245 0.804418
vt 0.726831 0.777957
vt 0.678154 0.847714
vt 0.730783 0.807515
vt 0.643502 0.848365
vt 0.636487 0.819434
vt 0.732341 0.840653
vt 0.677462 0.785276
vt 0.674351 0.811294
vt 0.722997 0.594651
vt 0.727263 0.614389
vt 0.701162 0.617297
vt 0.694296 0.599213
vt 0.668646 0.626029
vt 0.705735 0.635253
vt 0.659038 0.607117
vt 0.636273 0.733223
vt 0.671713 0.729203
vt 0.632188 0.780052
vt 0.676467 0.765691
vt 0.721652 0.725124
vt 0.726146 0.767892
vt 0.679536 0.859733
vt 0.684208 0.903654
vt 0.733538 0.859290
vt 0.774387 0.846670
vt 0.779422 0.891488
vt 0.593076 0.775298
vt 0.761944 0.720888
vt 0.798328 0.765381
vt 0.787539 0.717957
vt 0.828911 0.751464
vt 0.566532 0.763107
vt 0.578147 0.716907
vt 0.735551 0.969439
vt 0.741896 0.939426
vt 0.696519 0.983600
vt 0.666598 0.945437
vt 0.672833 0.980882
vt 0.629280 0.649807
vt 0.614247 0.644179
vt 0.637118 0.689671
vt 0.676409 0.659995
vt 0.670973 0.690000
vt 0.708796 0.645841
vt 0.727776 0.643778
vt 0.741605 0.681968
vt 0.755815 0.633569
vt 0.794596 0.664532
vt 0.777306 0.627841
vt 0.741084 0.897291
vt 0.773650 0.935091
vt 0.650526 0.904667
vt 0.690846 0.943693
vt 0.603979 0.727969
vt 0.596542 0.676225
vt 0.617389 0.684609
vt 0.626409 0.732468
vt 0.647887 0.691389
vt 0.716585 0.685250
vt 0.752811 0.722082
vt 0.750465 0.679466
vt 0.819190 0.703613
vt 0.771710 0.675126
vt 0.622515 0.790972
vt 0.724089 0.581299
vt 0.735017 0.634640
vt 0.630290 0.621477
vn -0.823036 0.040906 -0.566515
vn -0.867950 0.037713 -0.495218
vn -0.864120 0.071968 -0.498115
vn -0.820387 0.074002 -0.566999
vn 0.879000 0.163530 0.447903
vn 0.802426 0.152282 0.576994
vn 0.796861 0.120435 0.592037
vn 0.882593 0.132052 0.451212
vn 0.372534 0.907233 0.195310
vn 0.801447 0.308029 0.512642
vn 0.862410 0.307831 0.401856
vn 0.532220 0.835533 0.136481
vn 0.116001 0.937197 0.328946
vn 0.643344 0.226156 0.731411
vn 0.900618 0.410071 0.143978
vn 0.726011 0.687681 -0.001493
vn 0.782914 0.373226 -0.497743
vn 0.948201 0.280624 0.148878
vn 0.737102 0.348288 -0.579117
vn 0.606033 0.334533 -0.721673
vn 0.372565 0.887291 -0.271863
vn 0.354559 0.292105 -0.888236
vn -0.021879 0.849543 -0.527066
vn 0.434695 -0.863423 0.256010
vn 0.828943 -0.133974 0.543050
vn 0.629564 -0.060332 0.774602
vn 0.248262 -0.897959 0.363367
vn 0.476734 -0.847121 0.234759
vn 0.890464 -0.127721 0.436762
vn 0.097969 -0.037667 0.994476
vn 0.616465 0.150723 0.772822
vn 0.065518 0.189367 0.979718
vn -0.309739 -0.109179 0.944533
vn -0.081870 -0.972621 0.217501
vn -0.690289 -0.109870 0.715143
vn -0.403880 -0.913726 -0.044551
vn 0.518034 -0.847043 0.118995
vn 0.934733 -0.127912 0.331532
vn -0.370841 -0.911612 -0.177317
vn -0.854973 -0.213844 -0.472537
vn -0.801907 -0.209592 -0.559478
vn -0.348062 -0.902065 -0.255209
vn -0.916202 -0.215208 -0.338023
vn -0.653973 -0.132158 -0.744885
vn -0.145808 -0.890566 -0.430852
vn 0.295417 0.011741 -0.955296
vn -0.619447 0.053524 -0.783211
vn 0.280509 0.233237 -0.931083
vn 0.502891 -0.026852 -0.863933
vn 0.159905 -0.957123 -0.241549
vn 0.698897 0.045612 -0.713767
vn -0.698755 0.177087 0.693095
vn -0.947603 0.054050 -0.314846
vn 0.694329 0.272321 -0.666145
vn 0.967278 0.129346 0.218271
vn -0.484649 0.852696 -0.195000
vn -0.866586 0.227820 -0.443990
vn -0.890705 0.242921 -0.384231
vn -0.455221 0.869046 -0.193735
vn -0.405153 0.884761 -0.230323
vn -0.817631 0.297050 -0.493195
vn -0.639690 0.339758 0.689464
vn -0.924927 0.200704 -0.322844
vn -0.655952 0.321764 0.682785
vn -0.313214 0.347700 0.883743
vn -0.168434 0.972215 0.162567
vn -0.008768 0.289635 0.957097
vn -0.513494 0.278634 -0.811596
vn 0.016733 0.252743 0.967389
vn 0.626574 0.200385 0.753161
vn 0.306174 0.290972 -0.906418
vn -0.564697 0.195614 -0.801781
vn -0.075814 0.997055 0.011542
vn 0.055964 0.998038 -0.028082
vn 0.010087 -0.998866 0.046540
vn 0.049173 -0.998548 -0.021999
vn 0.510466 0.243323 -0.824754
vn -0.292795 0.172028 0.940573
vn 0.541563 0.297433 -0.786284
vn -0.280439 0.299561 0.911931
s 1
g FoodRBuckTeeth
usemtl blinn7SG
f 12/58/1 11/85/2 5/70/3 6/88/4
f 8/78/5 9/94/6 15/55/7 14/52/8
f 17/49/9 18/79/10 20/77/11 19/31/12
f 18/79/10 17/49/9 60/25/13 59/80/14
f 19/31/12 20/77/11 23/2/15 22/32/16
f 21/1/17 23/2/15 78/93/18 77/76/19
f 22/32/16 21/3/17 25/4/20 24/33/21
f 24/33/21 25/4/20 64/102/22 63/26/23
f 26/36/24 27/56/25 30/6/26 29/34/27
f 27/56/25 26/36/24 33/42/28 34/54/29
f 28/5/30 30/6/26 68/95/31 67/63/32
f 29/34/27 28/7/30 32/8/33 31/35/34
f 31/35/34 32/8/33 46/15/35 45/9/36
f 34/54/29 33/42/28 48/14/37 47/53/38
f 35/41/39 36/59/40 38/57/41 37/37/42
f 36/59/40 35/41/39 45/9/36 44/60/43
f 37/37/42 38/57/41 41/11/44 40/39/45
f 39/10/46 41/11/44 70/87/47 69/12/48
f 40/39/45 39/10/46 43/13/49 42/40/50
f 42/40/50 43/13/49 49/99/51 48/14/37
f 44/60/43 46/15/35 72/16/52 71/61/53
f 47/53/38 49/17/51 66/92/54 65/51/55
f 50/47/56 51/18/57 54/100/58 53/44/59
f 51/18/57 50/47/56 57/50/60 58/19/61
f 52/20/62 54/21/58 74/86/63 73/22/64
f 53/44/59 52/23/62 56/24/65 55/45/66
f 55/45/66 56/24/65 61/101/67 60/25/13
f 58/19/61 57/50/60 63/26/23 62/27/68
f 59/80/14 61/28/67 80/96/69 79/81/70
f 62/73/68 64/29/22 76/30/71 75/72/72
f 65/51/55 66/92/54 77/76/19 78/93/18
f 67/63/32 68/95/31 79/81/70 80/96/69
f 69/12/48 70/87/47 75/72/72 76/30/71
f 71/61/53 72/16/52 73/22/64 74/86/63
f 3/46/73 17/49/9 19/31/12 4/48/74
f 19/31/12 22/32/16 24/33/21 4/48/74
f 26/36/24 29/34/27 31/35/34 1/38/75
f 1/38/75 2/43/76 33/42/28 26/36/24
f 35/41/39 37/37/42 2/43/76 1/38/75
f 37/37/42 40/39/45 42/40/50 2/43/76
f 31/35/34 45/9/36 35/41/39 1/38/75
f 33/42/28 2/43/76 42/40/50 48/14/37
f 50/47/56 53/44/59 55/45/66 3/46/73
f 50/47/56 3/46/73 4/48/74 57/50/60
f 55/45/66 60/25/13 17/49/9 3/46/73
f 57/50/60 4/48/74 24/33/21 63/26/23
f 65/51/55 14/52/8 34/54/29 47/53/38
f 14/52/8 15/55/7 27/56/25 34/54/29
f 15/55/7 68/95/31 30/6/26 27/56/25
f 41/11/44 38/57/41 12/58/1 70/87/47
f 38/57/41 36/59/40 11/85/2 12/58/1
f 36/59/40 44/60/43 71/61/53 11/85/2
f 13/89/77 66/92/54 49/17/51 43/62/49
f 32/64/33 28/5/30 67/63/32 16/65/78
f 32/64/33 16/65/78 72/97/52 46/66/35
f 13/89/77 43/62/49 39/67/46 69/68/48
f 5/70/3 74/86/63 54/21/58 51/69/57
f 6/88/4 5/70/3 51/69/57 58/71/61
f 75/72/72 6/88/4 58/71/61 62/73/68
f 25/74/20 7/91/79 76/90/71 64/75/22
f 25/74/20 21/1/17 77/76/19 7/91/79
f 23/2/15 20/77/11 8/78/5 78/93/18
f 20/77/11 18/79/10 9/94/6 8/78/5
f 18/79/10 59/80/14 79/81/70 9/94/6
f 10/98/80 80/96/69 61/28/67 56/82/65
f 73/83/64 10/98/80 56/82/65 52/84/62
f 11/85/2 71/61/53 74/86/63 5/70/3
f 70/87/47 12/58/1 6/88/4 75/72/72
f 7/91/79 13/89/77 69/68/48 76/90/71
f 7/91/79 77/76/19 66/92/54 13/89/77
f 78/93/18 8/78/5 14/52/8 65/51/55
f 9/94/6 79/81/70 68/95/31 15/55/7
f 16/65/78 67/63/32 80/96/69 10/98/80
f 72/97/52 16/65/78 10/98/80 73/83/64
f 21/3/17 22/32/16 23/2/15
f 28/7/30 29/34/27 30/6/26
f 39/10/46 40/39/45 41/11/44
f 44/60/43 45/9/36 46/15/35
f 47/53/38 48/14/37 49/99/51
f 52/23/62 53/44/59 54/100/58
f 59/80/14 60/25/13 61/101/67
f 62/27/68 63/26/23 64/102/22
