# This file uses centimeters as units for non-parametric coordinates.

mtllib CeleryTallRLowerLeg.mtl
g default
v 1.346578 -0.164734 -0.190275
v 1.346578 0.166851 -0.190274
v 1.346578 0.130609 -0.139145
v 1.346578 0.111261 -0.102340
v 1.346579 0.081125 -0.073134
v 1.346579 0.043152 -0.054381
v 1.346579 0.001058 -0.047920
v 1.346579 -0.041036 -0.054381
v 1.346579 -0.079009 -0.073134
v 1.346578 -0.109145 -0.102341
v 1.346578 -0.128493 -0.139145
v 1.346578 -0.234020 -0.167983
v 1.346578 0.236136 -0.167982
v 1.346578 0.248485 -0.106946
v 1.346579 0.221464 -0.014776
v 1.346579 0.161192 0.048626
v 1.346580 0.085245 0.089331
v 1.346580 0.001058 0.103356
v 1.346580 -0.083130 0.089331
v 1.346579 -0.159076 0.048625
v 1.346579 -0.219348 -0.014776
v 1.346578 -0.246369 -0.106947
v 1.346578 0.205385 -0.195504
v 1.346578 0.202666 -0.132151
v 1.346579 0.174291 -0.062531
v 1.346579 0.126919 -0.012416
v 1.346579 0.067227 0.019759
v 1.346579 0.001058 0.030845
v 1.346579 -0.065111 0.019758
v 1.346579 -0.124803 -0.012417
v 1.346579 -0.172174 -0.062532
v 1.346578 -0.200550 -0.132152
v 1.346578 -0.203269 -0.195506
v 0.552492 0.246147 -0.101134
v 0.552493 0.219381 -0.012350
v 0.552493 0.159679 0.048720
v 0.552494 0.084450 0.087931
v 0.552494 0.001058 0.101441
v 0.552494 -0.082334 0.087930
v 0.552493 -0.157563 0.048720
v 0.552493 -0.217265 -0.012351
v 0.552492 -0.244031 -0.101135
v 0.552492 -0.231799 -0.159929
v 0.552492 -0.201339 -0.186440
v 0.552492 -0.163168 -0.181401
v 0.552492 -0.127269 -0.132151
v 0.552492 -0.108104 -0.096699
v 0.552492 -0.078253 -0.068565
v 0.552493 -0.040638 -0.050501
v 0.552493 0.001058 -0.044276
v 0.552493 0.042754 -0.050501
v 0.552492 0.080368 -0.068564
v 0.552492 0.110219 -0.096698
v 0.552492 0.129385 -0.132151
v 0.552492 0.165284 -0.181400
v 0.552492 0.203454 -0.186438
v 0.552492 0.233914 -0.159928
v -0.407506 0.251855 -0.097999
v -0.407513 0.224466 -0.009117
v -0.407509 0.163373 0.052020
v -0.407504 0.086392 0.091274
v -0.407503 0.001057 0.104798
v -0.407504 -0.084277 0.091273
v -0.407509 -0.161258 0.052020
v -0.407513 -0.222351 -0.009118
v -0.407506 -0.249740 -0.098000
v -0.407509 -0.237223 -0.156462
v -0.407509 -0.206053 -0.183002
v -0.407512 -0.166994 -0.177958
v -0.407511 -0.130258 -0.128655
v -0.407511 -0.110646 -0.093164
v -0.407510 -0.080100 -0.064998
v -0.407509 -0.041609 -0.046915
v -0.407509 0.001057 -0.040684
v -0.407509 0.043725 -0.046914
v -0.407510 0.082216 -0.064997
v -0.407511 0.112762 -0.093164
v -0.407511 0.132374 -0.128655
v -0.407512 0.169109 -0.177957
v -0.407509 0.208169 -0.183001
v -0.407509 0.239338 -0.156462
v -1.367508 -0.228878 -0.197906
v -1.367508 -0.185513 -0.192393
v -1.367508 0.265597 -0.168899
v -1.367507 0.279493 -0.108886
v -1.367507 0.249086 -0.011744
v -1.367506 0.181261 0.055075
v -1.367506 0.095796 0.097975
v -1.367506 0.001057 0.112757
v -1.367506 -0.093681 0.097975
v -1.367506 -0.179146 0.055074
v -1.367507 -0.246971 -0.011745
v -1.367507 -0.277378 -0.108887
v -1.367508 -0.263482 -0.168900
v -1.367508 -0.144730 -0.138507
v -1.367507 -0.122957 -0.099719
v -1.367507 -0.089044 -0.068935
v -1.367507 -0.046312 -0.049172
v -1.367507 0.001057 -0.042362
v -1.367507 0.048427 -0.049171
v -1.367507 0.091159 -0.068935
v -1.367507 0.125072 -0.099718
v -1.367508 0.146845 -0.138506
v -1.367508 0.187629 -0.192393
v -1.367508 0.230993 -0.197905
vt 0.033068 0.088516
vt 0.037969 0.092534
vt 0.038289 0.096434
vt 0.031898 0.095739
vt 0.029458 0.086292
vt 0.025012 0.092392
vt 0.026684 0.083021
vt 0.020235 0.087244
vt 0.025027 0.079025
vt 0.017363 0.080964
vt 0.024648 0.074691
vt 0.016677 0.074166
vt 0.025587 0.070443
vt 0.018244 0.067515
vt 0.027750 0.066697
vt 0.021911 0.061663
vt 0.030927 0.063816
vt 0.027319 0.057183
vt 0.034802 0.062076
vt 0.034583 0.054763
vt 0.040190 0.058707
vt 0.040994 0.054887
vt 0.035278 0.099297
vt 0.029051 0.100179
vt 0.019881 0.096832
vt 0.013848 0.090301
vt 0.010221 0.082325
vt 0.009355 0.073691
vt 0.011336 0.065243
vt 0.015969 0.057807
vt 0.022799 0.052114
vt 0.032320 0.049986
vt 0.038391 0.051636
vt 0.114216 0.490798
vt 0.104775 0.490740
vt 0.096077 0.490675
vt 0.087438 0.490605
vt 0.078834 0.490531
vt 0.070230 0.490454
vt 0.061590 0.490375
vt 0.052893 0.490288
vt 0.043450 0.490181
vt 0.037334 0.490106
vt 0.191282 0.489242
vt 0.195394 0.489254
vt 0.187361 0.489253
vt 0.181155 0.489302
vt 0.177051 0.489337
vt 0.172873 0.489368
vt 0.168623 0.489393
vt 0.164330 0.489414
vt 0.160036 0.489429
vt 0.155787 0.489439
vt 0.151609 0.489443
vt 0.147505 0.489442
vt 0.141298 0.489443
vt 0.137377 0.489466
vt 0.133266 0.489512
vt 0.120332 0.490830
vt 0.192096 0.587014
vt 0.188084 0.587037
vt 0.195331 0.684777
vt 0.190881 0.684810
vt 0.113875 0.588479
vt 0.119963 0.588406
vt 0.122936 0.686068
vt 0.116665 0.686215
vt 0.104398 0.588512
vt 0.106304 0.686303
vt 0.095591 0.588484
vt 0.096615 0.686291
vt 0.086786 0.588433
vt 0.086886 0.686241
vt 0.077981 0.588364
vt 0.077131 0.686166
vt 0.069177 0.588280
vt 0.067377 0.686072
vt 0.060372 0.588178
vt 0.057648 0.685952
vt 0.051567 0.588052
vt 0.047960 0.685795
vt 0.042095 0.587855
vt 0.037602 0.685527
vt 0.036009 0.587677
vt 0.031334 0.685271
vt 0.196265 0.586957
vt 0.199928 0.684664
vt 0.181821 0.587077
vt 0.184000 0.684844
vt 0.177691 0.587107
vt 0.179472 0.684871
vt 0.173459 0.587131
vt 0.174808 0.684890
vt 0.169128 0.587151
vt 0.170015 0.684907
vt 0.164736 0.587170
vt 0.165142 0.684926
vt 0.160344 0.587188
vt 0.160269 0.684947
vt 0.156013 0.587204
vt 0.155475 0.684970
vt 0.151780 0.587215
vt 0.150812 0.684990
vt 0.147650 0.587219
vt 0.146283 0.685000
vt 0.141387 0.587231
vt 0.139403 0.685024
vt 0.137376 0.587241
vt 0.134953 0.685028
vt 0.133206 0.587219
vt 0.130355 0.684953
vt 0.036619 0.027940
vt 0.042811 0.026934
vt 0.038903 0.040213
vt 0.033703 0.035703
vt 0.052476 0.030682
vt 0.042697 0.042688
vt 0.058807 0.038027
vt 0.045595 0.046342
vt 0.062587 0.047002
vt 0.047314 0.050819
vt 0.063447 0.056729
vt 0.047685 0.055678
vt 0.061303 0.066256
vt 0.046672 0.060446
vt 0.056365 0.074650
vt 0.044374 0.064654
vt 0.049116 0.081089
vt 0.041016 0.067891
vt 0.039039 0.083521
vt 0.036927 0.069841
vt 0.033035 0.081702
vt 0.031175 0.073620
vt 0.033437 0.031260
vt 0.030322 0.077989
vt 0.115706 0.409994
vt 0.105922 0.409883
vt 0.097012 0.409791
vt 0.088235 0.409706
vt 0.079540 0.409628
vt 0.070845 0.409554
vt 0.062068 0.409485
vt 0.053159 0.409421
vt 0.043385 0.409359
vt 0.037121 0.409328
vt 0.195579 0.408406
vt 0.191497 0.408376
vt 0.187542 0.408382
vt 0.181155 0.408432
vt 0.176921 0.408465
vt 0.172647 0.408496
vt 0.168333 0.408523
vt 0.163995 0.408544
vt 0.159656 0.408559
vt 0.155342 0.408568
vt 0.151068 0.408572
vt 0.146834 0.408574
vt 0.140447 0.408577
vt 0.136493 0.408604
vt 0.132411 0.408668
vt 0.121959 0.410071
vn 1.000000 0.000000 -0.000012
vn 1.000000 0.000000 -0.000015
vn 1.000000 0.000000 -0.000014
vn 1.000000 0.000000 -0.000010
vn 1.000000 0.000000 -0.000009
vn 1.000000 0.000000 -0.000012
vn 1.000000 0.000000 -0.000010
vn 1.000000 0.000000 -0.000007
vn 1.000000 0.000000 -0.000007
vn 1.000000 0.000000 -0.000009
vn 1.000000 0.000000 -0.000007
vn 1.000000 0.000000 -0.000007
vn 1.000000 0.000000 -0.000007
vn 1.000000 0.000000 -0.000007
vn 1.000000 0.000000 -0.000007
vn 1.000000 0.000000 -0.000007
vn 1.000000 0.000000 -0.000007
vn 1.000000 0.000000 -0.000007
vn 1.000000 0.000000 -0.000007
vn 1.000000 0.000000 -0.000007
vn 1.000000 0.000000 -0.000009
vn 1.000000 0.000000 -0.000007
vn 1.000000 0.000000 -0.000007
vn 1.000000 0.000000 -0.000008
vn 1.000000 0.000000 -0.000009
vn 1.000000 0.000000 -0.000009
vn 1.000000 0.000000 -0.000008
vn 1.000000 0.000000 -0.000008
vn 1.000000 0.000000 -0.000007
vn 1.000000 0.000000 -0.000009
vn 1.000000 0.000000 -0.000008
vn 1.000000 -0.000000 -0.000006
vn 1.000000 0.000000 -0.000007
vn 1.000000 0.000000 -0.000007
vn 1.000000 -0.000000 -0.000006
vn 1.000000 0.000000 -0.000007
vn 1.000000 0.000000 -0.000007
vn 1.000000 0.000000 -0.000007
vn 1.000000 0.000000 -0.000007
vn 1.000000 0.000000 -0.000008
vn 1.000000 0.000000 -0.000010
vn 1.000000 0.000000 -0.000014
vn 1.000000 0.000000 -0.000012
vn 1.000000 -0.000000 -0.000006
vn 1.000000 0.000000 -0.000007
vn 1.000000 0.000000 -0.000010
vn 1.000000 -0.000000 -0.000006
vn 1.000000 -0.000000 -0.000006
vn 1.000000 0.000000 -0.000007
vn 1.000000 0.000000 -0.000007
vn 1.000000 -0.000000 -0.000006
vn 1.000000 0.000000 -0.000008
vn 1.000000 0.000000 -0.000007
vn 1.000000 0.000000 -0.000007
vn 1.000000 0.000000 -0.000008
vn 1.000000 0.000000 -0.000008
vn 1.000000 0.000000 -0.000007
vn 1.000000 0.000000 -0.000007
vn 1.000000 0.000000 -0.000008
vn 1.000000 -0.000000 -0.000006
vn 1.000000 0.000000 -0.000008
vn 1.000000 0.000000 -0.000007
vn 1.000000 -0.000000 -0.000006
vn 1.000000 0.000000 -0.000008
vn 1.000000 0.000000 -0.000008
vn 1.000000 0.000000 -0.000008
vn 1.000000 0.000000 -0.000008
vn 1.000000 0.000000 -0.000007
vn 1.000000 -0.000000 -0.000006
vn 1.000000 0.000000 -0.000008
vn 1.000000 0.000000 -0.000007
vn 1.000000 -0.000000 -0.000006
vn 1.000000 0.000000 -0.000007
vn 1.000000 -0.000000 -0.000006
vn 1.000000 -0.000000 -0.000006
vn 1.000000 0.000000 -0.000008
vn 1.000000 0.000000 -0.000008
vn 1.000000 0.000000 -0.000007
vn 1.000000 0.000000 -0.000008
vn 1.000000 0.000000 -0.000009
vn -0.006594 -0.298839 -0.954281
vn -0.009811 -0.661760 -0.749652
vn -0.009811 -0.661760 -0.749652
vn -0.001844 -0.894664 -0.446736
vn -0.006257 0.593193 -0.805036
vn -0.004175 0.839237 -0.543750
vn -0.004404 0.812034 -0.583593
vn -0.004404 0.812034 -0.583593
vn -0.004175 0.839237 -0.543750
vn -0.003768 0.792738 -0.609551
vn -0.002483 0.882474 -0.470355
vn -0.002483 0.882474 -0.470355
vn -0.003768 0.792738 -0.609551
vn -0.004195 0.566029 -0.824375
vn -0.003866 0.690977 -0.722867
vn -0.003866 0.690977 -0.722867
vn -0.004195 0.566029 -0.824375
vn -0.004266 0.293555 -0.955933
vn -0.004465 0.437891 -0.899017
vn -0.004465 0.437891 -0.899017
vn -0.004266 0.293555 -0.955933
vn -0.004254 0.000002 -0.999991
vn -0.004646 0.149689 -0.988722
vn -0.004646 0.149689 -0.988722
vn -0.004254 0.000002 -0.999991
vn -0.004266 -0.293550 -0.955934
vn -0.004646 -0.149685 -0.988723
vn -0.004646 -0.149685 -0.988723
vn -0.004266 -0.293550 -0.955934
vn -0.004195 -0.566025 -0.824377
vn -0.004464 -0.437894 -0.899016
vn -0.004464 -0.437894 -0.899016
vn -0.004195 -0.566025 -0.824377
vn -0.003768 -0.792737 -0.609553
vn -0.003865 -0.690976 -0.722867
vn -0.003865 -0.690976 -0.722867
vn -0.003768 -0.792737 -0.609553
vn -0.004175 -0.839234 -0.543755
vn -0.002484 -0.882463 -0.470376
vn -0.002484 -0.882463 -0.470376
vn -0.004175 -0.839234 -0.543755
vn -0.006257 -0.593189 -0.805039
vn -0.004404 -0.812033 -0.583596
vn -0.004404 -0.812033 -0.583596
vn 0.010398 -0.291319 -0.956569
vn -0.001885 0.585339 -0.810787
vn -0.006257 0.593193 -0.805036
vn -0.006594 -0.298839 -0.954281
vn -0.001885 0.585339 -0.810787
vn 0.010398 -0.291319 -0.956569
vn 0.021963 -0.294953 -0.955259
vn 0.001358 0.574904 -0.818220
vn 0.016746 0.994634 0.102088
vn 0.017201 0.887718 -0.460066
vn 0.030472 0.883558 -0.467330
vn 0.027141 0.994560 0.100567
vn 0.017201 0.887718 -0.460066
vn 0.016746 0.994634 0.102088
vn 0.001647 0.995175 0.098099
vn -0.001844 0.894666 -0.446732
vn 0.016746 0.994634 0.102088
vn 0.013560 0.860871 0.508643
vn 0.002617 0.866667 0.498880
vn 0.001647 0.995175 0.098099
vn 0.013560 0.860871 0.508643
vn 0.016746 0.994634 0.102088
vn 0.027141 0.994560 0.100567
vn 0.020616 0.860559 0.508933
vn 0.013560 0.860871 0.508643
vn 0.009422 0.587949 0.808843
vn 0.002053 0.597569 0.801815
vn 0.002617 0.866667 0.498880
vn 0.009422 0.587949 0.808843
vn 0.013560 0.860871 0.508643
vn 0.020616 0.860559 0.508933
vn 0.013534 0.585926 0.810252
vn 0.009422 0.587949 0.808843
vn 0.006993 0.309201 0.950971
vn 0.001139 0.316217 0.948686
vn 0.002053 0.597569 0.801815
vn 0.006993 0.309201 0.950971
vn 0.009422 0.587949 0.808843
vn 0.013534 0.585926 0.810252
vn 0.009750 0.307588 0.951470
vn 0.006993 0.309201 0.950971
vn 0.006107 -0.000002 0.999981
vn 0.000749 -0.000002 1.000000
vn 0.001139 0.316217 0.948686
vn 0.006107 -0.000002 0.999981
vn 0.006993 0.309201 0.950971
vn 0.009750 0.307588 0.951470
vn 0.008406 -0.000002 0.999965
vn 0.006107 -0.000002 0.999981
vn 0.006993 -0.309207 0.950969
vn 0.001139 -0.316221 0.948685
vn 0.000749 -0.000002 1.000000
vn 0.006993 -0.309207 0.950969
vn 0.006107 -0.000002 0.999981
vn 0.008406 -0.000002 0.999965
vn 0.009750 -0.307594 0.951468
vn 0.006993 -0.309207 0.950969
vn 0.009422 -0.587952 0.808841
vn 0.002053 -0.597572 0.801812
vn 0.001139 -0.316221 0.948685
vn 0.009422 -0.587952 0.808841
vn 0.006993 -0.309207 0.950969
vn 0.009750 -0.307594 0.951468
vn 0.013534 -0.585929 0.810250
vn 0.009422 -0.587952 0.808841
vn 0.013560 -0.860873 0.508639
vn 0.002618 -0.866670 0.498876
vn 0.002053 -0.597572 0.801812
vn 0.013560 -0.860873 0.508639
vn 0.009422 -0.587952 0.808841
vn 0.013534 -0.585929 0.810250
vn 0.020616 -0.860561 0.508930
vn 0.013560 -0.860873 0.508639
vn 0.016746 -0.994635 0.102085
vn 0.001647 -0.995176 0.098097
vn 0.002618 -0.866670 0.498876
vn 0.016746 -0.994635 0.102085
vn 0.013560 -0.860873 0.508639
vn 0.020616 -0.860561 0.508930
vn 0.027141 -0.994561 0.100562
vn 0.016746 -0.994635 0.102085
vn 0.017201 -0.887716 -0.460071
vn -0.001844 -0.894664 -0.446736
vn 0.001647 -0.995176 0.098097
vn 0.017201 -0.887716 -0.460071
vn 0.016746 -0.994635 0.102085
vn 0.027141 -0.994561 0.100562
vn 0.030473 -0.883554 -0.467337
vn 0.017201 -0.887716 -0.460071
vn 0.010398 -0.291319 -0.956569
vn -0.006594 -0.298839 -0.954281
vn -0.001844 -0.894664 -0.446736
vn 0.010398 -0.291319 -0.956569
vn 0.017201 -0.887716 -0.460071
vn 0.030473 -0.883554 -0.467337
vn 0.021963 -0.294953 -0.955259
vn -0.001885 0.585339 -0.810787
vn -0.005847 0.833354 -0.552709
vn -0.004175 0.839237 -0.543750
vn -0.006257 0.593193 -0.805036
vn -0.005847 0.833354 -0.552709
vn -0.001885 0.585339 -0.810787
vn 0.001358 0.574904 -0.818220
vn -0.006894 0.830365 -0.557177
vn -0.005847 0.833354 -0.552709
vn -0.005062 0.785307 -0.619086
vn -0.003768 0.792738 -0.609551
vn -0.004175 0.839237 -0.543750
vn -0.005062 0.785307 -0.619086
vn -0.005847 0.833354 -0.552709
vn -0.006894 0.830365 -0.557177
vn -0.005796 0.783814 -0.620968
vn -0.005062 0.785307 -0.619086
vn -0.002925 0.556543 -0.830813
vn -0.004195 0.566029 -0.824375
vn -0.003768 0.792738 -0.609551
vn -0.002925 0.556543 -0.830813
vn -0.005062 0.785307 -0.619086
vn -0.005796 0.783814 -0.620968
vn -0.001768 0.554213 -0.832373
vn -0.002925 0.556543 -0.830813
vn -0.001478 0.287025 -0.957922
vn -0.004266 0.293555 -0.955933
vn -0.004195 0.566029 -0.824375
vn -0.001478 0.287025 -0.957922
vn -0.002925 0.556543 -0.830813
vn -0.001768 0.554213 -0.832373
vn 0.000812 0.285308 -0.958436
vn -0.001478 0.287025 -0.957922
vn -0.000969 0.000002 -1.000000
vn -0.004254 0.000002 -0.999991
vn -0.004266 0.293555 -0.955933
vn -0.000969 0.000002 -1.000000
vn -0.001478 0.287025 -0.957922
vn 0.000812 0.285308 -0.958436
vn 0.001695 0.000002 -0.999999
vn -0.000969 0.000002 -1.000000
vn -0.001478 -0.287021 -0.957923
vn -0.004266 -0.293550 -0.955934
vn -0.004254 0.000002 -0.999991
vn -0.001478 -0.287021 -0.957923
vn -0.000969 0.000002 -1.000000
vn 0.001695 0.000002 -0.999999
vn 0.000812 -0.285308 -0.958436
vn -0.001478 -0.287021 -0.957923
vn -0.002925 -0.556539 -0.830816
vn -0.004195 -0.566025 -0.824377
vn -0.004266 -0.293550 -0.955934
vn -0.002925 -0.556539 -0.830816
vn -0.001478 -0.287021 -0.957923
vn 0.000812 -0.285308 -0.958436
vn -0.001767 -0.554209 -0.832376
vn -0.002925 -0.556539 -0.830816
vn -0.005062 -0.785304 -0.619089
vn -0.003768 -0.792737 -0.609553
vn -0.004195 -0.566025 -0.824377
vn -0.005062 -0.785304 -0.619089
vn -0.002925 -0.556539 -0.830816
vn -0.001767 -0.554209 -0.832376
vn -0.005796 -0.783810 -0.620974
vn -0.005062 -0.785304 -0.619089
vn -0.005847 -0.833352 -0.552712
vn -0.004175 -0.839234 -0.543755
vn -0.003768 -0.792737 -0.609553
vn -0.005847 -0.833352 -0.552712
vn -0.005062 -0.785304 -0.619089
vn -0.005796 -0.783810 -0.620974
vn -0.006894 -0.830364 -0.557179
vn -0.005847 -0.833352 -0.552712
vn -0.001885 -0.585334 -0.810790
vn -0.006257 -0.593189 -0.805039
vn -0.004175 -0.839234 -0.543755
vn -0.001885 -0.585334 -0.810790
vn -0.005847 -0.833352 -0.552712
vn -0.006894 -0.830364 -0.557179
vn 0.001359 -0.574902 -0.818221
vn -0.001885 -0.585334 -0.810790
vn 0.010398 0.291320 -0.956569
vn -0.006594 0.298841 -0.954280
vn -0.006257 -0.593189 -0.805039
vn 0.010398 0.291320 -0.956569
vn -0.001885 -0.585334 -0.810790
vn 0.001359 -0.574902 -0.818221
vn 0.021963 0.294957 -0.955258
vn 0.010398 0.291320 -0.956569
vn 0.017201 0.887718 -0.460066
vn -0.001844 0.894666 -0.446732
vn -0.006594 0.298841 -0.954280
vn 0.017201 0.887718 -0.460066
vn 0.010398 0.291320 -0.956569
vn 0.021963 0.294957 -0.955258
vn 0.030472 0.883558 -0.467330
vn -1.000000 -0.000000 0.000007
vn -1.000000 -0.000000 0.000007
vn -1.000000 -0.000000 0.000007
vn -1.000000 -0.000000 0.000007
vn -1.000000 -0.000000 0.000007
vn -1.000000 -0.000000 0.000007
vn -1.000000 -0.000000 0.000007
vn -1.000000 -0.000000 0.000007
vn -1.000000 0.000000 0.000001
vn -1.000000 0.000000 0.000001
vn -1.000000 0.000000 0.000001
vn -1.000000 0.000000 0.000001
vn -1.000000 -0.000000 0.000007
vn -1.000000 -0.000000 0.000007
vn -1.000000 -0.000000 0.000007
vn -1.000000 -0.000000 0.000007
vn -1.000000 -0.000000 0.000007
vn -1.000000 -0.000000 0.000007
vn -1.000000 -0.000000 0.000007
vn -1.000000 -0.000000 0.000007
vn -1.000000 -0.000000 0.000007
vn -1.000000 -0.000000 0.000007
vn -1.000000 -0.000000 0.000007
vn -1.000000 -0.000000 0.000007
vn -1.000000 0.000000 0.000004
vn -1.000000 0.000000 0.000004
vn -1.000000 0.000000 0.000004
vn -1.000000 0.000000 0.000004
vn -1.000000 -0.000000 0.000013
vn -1.000000 -0.000000 0.000013
vn -1.000000 -0.000000 0.000013
vn -1.000000 -0.000000 0.000013
vn -1.000000 -0.000000 0.000007
vn -1.000000 -0.000000 0.000007
vn -1.000000 -0.000000 0.000007
vn -1.000000 -0.000000 0.000007
vn -1.000000 -0.000000 0.000007
vn -1.000000 -0.000000 0.000007
vn -1.000000 -0.000000 0.000007
vn -1.000000 -0.000000 0.000007
vn -1.000000 -0.000000 0.000007
vn -1.000000 -0.000000 0.000007
vn -1.000000 -0.000000 0.000007
vn -1.000000 0.000000 -0.000014
vn -1.000000 0.000000 -0.000014
vn -1.000000 0.000000 -0.000014
vn -0.001190 0.958550 0.284922
vn -0.001190 0.958550 0.284922
vn 0.001647 0.995175 0.098099
vn 0.002617 0.866667 0.498880
vn -0.000529 0.719996 0.693978
vn -0.000529 0.719996 0.693978
vn 0.002617 0.866667 0.498880
vn 0.002053 0.597569 0.801815
vn -0.001406 0.467345 0.884074
vn -0.001406 0.467345 0.884074
vn 0.002053 0.597569 0.801815
vn 0.001139 0.316217 0.948686
vn -0.002141 0.162139 0.986766
vn -0.002141 0.162139 0.986766
vn 0.001139 0.316217 0.948686
vn 0.000749 -0.000002 1.000000
vn -0.002141 -0.162143 0.986765
vn -0.002141 -0.162143 0.986765
vn 0.000749 -0.000002 1.000000
vn 0.001139 -0.316221 0.948685
vn -0.001406 -0.467350 0.884071
vn -0.001406 -0.467350 0.884071
vn 0.001139 -0.316221 0.948685
vn 0.002053 -0.597572 0.801812
vn -0.000529 -0.719999 0.693975
vn -0.000529 -0.719999 0.693975
vn 0.002053 -0.597572 0.801812
vn 0.002618 -0.866670 0.498876
vn -0.001191 -0.958550 0.284922
vn -0.001191 -0.958550 0.284922
vn 0.002618 -0.866670 0.498876
vn 0.001647 -0.995176 0.098097
vn -0.004567 -0.979591 -0.200951
vn -0.004567 -0.979591 -0.200951
vn 0.001647 -0.995176 0.098097
vn -0.001844 -0.894664 -0.446736
vn -0.010903 0.132700 -0.991096
vn -0.010903 0.132700 -0.991096
vn -0.006594 -0.298839 -0.954281
vn -0.006257 0.593193 -0.805036
vn -0.010903 -0.132675 -0.991100
vn -0.010903 -0.132675 -0.991100
vn -0.006257 -0.593189 -0.805039
vn -0.006594 0.298841 -0.954280
vn -0.009811 0.661745 -0.749665
vn -0.009811 0.661745 -0.749665
vn -0.006594 0.298841 -0.954280
vn -0.001844 0.894666 -0.446732
vn -0.004567 0.979591 -0.200950
vn -0.004567 0.979591 -0.200950
vn -0.001844 0.894666 -0.446732
vn 0.001647 0.995175 0.098099
s off
g FoodTallRLowerLeg
usemtl blinn1SG
f 3/1/1 2/2/2 23/3/3 24/4/4
f 4/5/5 3/1/6 24/4/7 25/6/8
f 5/7/9 4/5/10 25/6/11 26/8/12
f 6/9/13 5/7/14 26/8/15 27/10/16
f 7/11/17 6/9/18 27/10/19 28/12/20
f 8/13/21 7/11/22 28/12/23 29/14/24
f 9/15/25 8/13/26 29/14/27 30/16/28
f 10/17/29 9/15/30 30/16/31 31/18/32
f 11/19/33 10/17/34 31/18/35 32/20/36
f 1/21/37 11/19/38 32/20/39 33/22/40
f 24/4/41 23/3/42 13/23/43 14/24/44
f 25/6/45 24/4/46 14/24/47 15/25/48
f 26/8/49 25/6/50 15/25/51 16/26/52
f 27/10/53 26/8/54 16/26/55 17/27/56
f 28/12/57 27/10/58 17/27/59 18/28/60
f 29/14/61 28/12/62 18/28/63 19/29/64
f 30/16/65 29/14/66 19/29/67 20/30/68
f 31/18/69 30/16/70 20/30/71 21/31/72
f 32/20/73 31/18/74 21/31/75 22/32/76
f 33/22/77 32/20/78 22/32/79 12/33/80
f 44/44/81 33/147/82 12/146/83 43/45/84
f 45/46/85 46/47/86 11/149/87 1/148/88
f 46/47/89 47/48/90 10/150/91 11/149/92
f 47/48/93 48/49/94 9/151/95 10/150/96
f 48/49/97 49/50/98 8/152/99 9/151/100
f 49/50/101 50/51/102 7/153/103 8/152/104
f 50/51/105 51/52/106 6/154/107 7/153/108
f 51/52/109 52/53/110 5/155/111 6/154/112
f 52/53/113 53/54/114 4/156/115 5/155/116
f 53/54/117 54/55/118 3/157/119 4/156/120
f 54/55/121 55/56/122 2/158/123 3/157/124
f 68/60/125 69/61/126 45/46/127 44/44/128
f 69/61/129 68/60/130 82/62/131 83/63/132
f 58/64/133 81/65/134 84/66/135 85/67/136
f 81/65/137 58/64/138 34/34/139 57/59/140
f 58/64/141 59/68/142 35/35/143 34/34/144
f 59/68/145 58/64/146 85/67/147 86/69/148
f 59/68/149 60/70/150 36/36/151 35/35/152
f 60/70/153 59/68/154 86/69/155 87/71/156
f 60/70/157 61/72/158 37/37/159 36/36/160
f 61/72/161 60/70/162 87/71/163 88/73/164
f 61/72/165 62/74/166 38/38/167 37/37/168
f 62/74/169 61/72/170 88/73/171 89/75/172
f 62/74/173 63/76/174 39/39/175 38/38/176
f 63/76/177 62/74/178 89/75/179 90/77/180
f 63/76/181 64/78/182 40/40/183 39/39/184
f 64/78/185 63/76/186 90/77/187 91/79/188
f 64/78/189 65/80/190 41/41/191 40/40/192
f 65/80/193 64/78/194 91/79/195 92/81/196
f 65/80/197 66/82/198 42/42/199 41/41/200
f 66/82/201 65/80/202 92/81/203 93/83/204
f 66/82/205 67/84/206 43/43/207 42/42/208
f 67/84/209 66/82/210 93/83/211 94/85/212
f 67/86/213 68/60/214 44/44/215 43/45/216
f 68/60/217 67/86/218 94/87/219 82/62/220
f 69/61/221 70/88/222 46/47/223 45/46/224
f 70/88/225 69/61/226 83/63/227 95/89/228
f 70/88/229 71/90/230 47/48/231 46/47/232
f 71/90/233 70/88/234 95/89/235 96/91/236
f 71/90/237 72/92/238 48/49/239 47/48/240
f 72/92/241 71/90/242 96/91/243 97/93/244
f 72/92/245 73/94/246 49/50/247 48/49/248
f 73/94/249 72/92/250 97/93/251 98/95/252
f 73/94/253 74/96/254 50/51/255 49/50/256
f 74/96/257 73/94/258 98/95/259 99/97/260
f 74/96/261 75/98/262 51/52/263 50/51/264
f 75/98/265 74/96/266 99/97/267 100/99/268
f 75/98/269 76/100/270 52/53/271 51/52/272
f 76/100/273 75/98/274 100/99/275 101/101/276
f 76/100/277 77/102/278 53/54/279 52/53/280
f 77/102/281 76/100/282 101/101/283 102/103/284
f 77/102/285 78/104/286 54/55/287 53/54/288
f 78/104/289 77/102/290 102/103/291 103/105/292
f 78/104/293 79/106/294 55/56/295 54/55/296
f 79/106/297 78/104/298 103/105/299 104/107/300
f 79/106/301 80/108/302 56/57/303 55/56/304
f 80/108/305 79/106/306 104/107/307 105/109/308
f 80/108/309 81/110/310 57/58/311 56/57/312
f 81/110/313 80/108/314 105/109/315 84/111/316
f 94/112/317 93/113/318 95/114/319 83/115/320
f 93/113/321 92/116/322 96/117/323 95/114/324
f 92/116/325 91/118/326 97/119/327 96/117/328
f 91/118/329 90/120/330 98/121/331 97/119/332
f 90/120/333 89/122/334 99/123/335 98/121/336
f 89/122/337 88/124/338 100/125/339 99/123/340
f 88/124/341 87/126/342 101/127/343 100/125/344
f 87/126/345 86/128/346 102/129/347 101/127/348
f 86/128/349 85/130/350 103/131/351 102/129/352
f 85/130/353 84/132/354 104/133/355 103/131/356
f 83/115/357 82/134/358 94/112/359
f 105/135/360 104/133/361 84/132/362
f 15/137/363 14/136/364 34/34/365 35/35/366
f 16/138/367 15/137/368 35/35/369 36/36/370
f 17/139/371 16/138/372 36/36/373 37/37/374
f 18/140/375 17/139/376 37/37/377 38/38/378
f 19/141/379 18/140/380 38/38/381 39/39/382
f 20/142/383 19/141/384 39/39/385 40/40/386
f 21/143/387 20/142/388 40/40/389 41/41/390
f 22/144/391 21/143/392 41/41/393 42/42/394
f 12/145/395 22/144/396 42/42/397 43/43/398
f 1/148/399 33/147/400 44/44/401 45/46/402
f 23/159/403 2/158/404 55/56/405 56/57/406
f 13/160/407 23/159/408 56/57/409 57/58/410
f 14/136/411 13/161/412 57/59/413 34/34/414
