# This file uses centimeters as units for non-parametric coordinates.

mtllib CeleryTallLLowerLeg.mtl
g default
v 1.346580 -0.166334 -0.190246
v 1.346580 0.165252 -0.190245
v 1.346580 0.129010 -0.139116
v 1.346579 0.109662 -0.102311
v 1.346579 0.079526 -0.073104
v 1.346579 0.041553 -0.054351
v 1.346579 -0.000541 -0.047890
v 1.346579 -0.042634 -0.054352
v 1.346579 -0.080608 -0.073105
v 1.346579 -0.110744 -0.102312
v 1.346580 -0.130092 -0.139116
v 1.346580 -0.235619 -0.167954
v 1.346580 0.234537 -0.167953
v 1.346579 0.246886 -0.106917
v 1.346579 0.219864 -0.014746
v 1.346579 0.159592 0.048655
v 1.346579 0.083646 0.089360
v 1.346579 -0.000542 0.103385
v 1.346579 -0.084729 0.089360
v 1.346579 -0.160675 0.048654
v 1.346579 -0.220947 -0.014747
v 1.346579 -0.247968 -0.106918
v 1.346580 0.203786 -0.195475
v 1.346580 0.201067 -0.132122
v 1.346579 0.172692 -0.062502
v 1.346579 0.125319 -0.012387
v 1.346579 0.065627 0.019788
v 1.346579 -0.000542 0.030874
v 1.346579 -0.066711 0.019787
v 1.346579 -0.126402 -0.012388
v 1.346579 -0.173774 -0.062502
v 1.346580 -0.202149 -0.132123
v 1.346580 -0.204868 -0.195477
v 0.552493 0.244548 -0.101113
v 0.552493 0.217782 -0.012330
v 0.552493 0.158079 0.048741
v 0.552493 0.082850 0.087951
v 0.552493 -0.000542 0.101462
v 0.552493 -0.083934 0.087951
v 0.552493 -0.159163 0.048741
v 0.552493 -0.218865 -0.012330
v 0.552493 -0.245629 -0.101114
v 0.552493 -0.233397 -0.159908
v 0.552494 -0.202937 -0.186419
v 0.552494 -0.164767 -0.181380
v 0.552493 -0.128868 -0.132130
v 0.552493 -0.109702 -0.096678
v 0.552493 -0.079851 -0.068544
v 0.552493 -0.042238 -0.050480
v 0.552493 -0.000541 -0.044256
v 0.552493 0.041156 -0.050480
v 0.552493 0.078769 -0.068544
v 0.552493 0.108620 -0.096678
v 0.552493 0.127786 -0.132130
v 0.552494 0.163686 -0.181379
v 0.552494 0.201856 -0.186418
v 0.552493 0.232316 -0.159907
v -0.407505 0.250257 -0.097988
v -0.407513 0.222867 -0.009106
v -0.407509 0.161774 0.052031
v -0.407505 0.084793 0.091284
v -0.407504 -0.000542 0.104809
v -0.407505 -0.085876 0.091284
v -0.407509 -0.162857 0.052030
v -0.407513 -0.223950 -0.009107
v -0.407505 -0.251338 -0.097989
v -0.407508 -0.238821 -0.156451
v -0.407507 -0.207652 -0.182991
v -0.407510 -0.168592 -0.177947
v -0.407510 -0.131857 -0.128645
v -0.407510 -0.112245 -0.093153
v -0.407510 -0.081698 -0.064987
v -0.407509 -0.043209 -0.046904
v -0.407509 -0.000541 -0.040673
v -0.407509 0.042125 -0.046904
v -0.407510 0.080617 -0.064987
v -0.407510 0.111163 -0.093153
v -0.407510 0.130776 -0.128644
v -0.407510 0.167511 -0.177946
v -0.407507 0.206571 -0.182990
v -0.407508 0.237740 -0.156451
v -1.367506 -0.230476 -0.197906
v -1.367506 -0.187111 -0.192393
v -1.367506 0.263999 -0.168899
v -1.367506 0.277895 -0.108886
v -1.367507 0.247487 -0.011744
v -1.367507 0.179662 0.055075
v -1.367507 0.094197 0.097976
v -1.367507 -0.000542 0.112758
v -1.367507 -0.095280 0.097975
v -1.367507 -0.180745 0.055074
v -1.367507 -0.248570 -0.011745
v -1.367506 -0.278976 -0.108887
v -1.367506 -0.265080 -0.168900
v -1.367506 -0.146328 -0.138506
v -1.367506 -0.124555 -0.099718
v -1.367506 -0.090642 -0.068934
v -1.367507 -0.047910 -0.049171
v -1.367507 -0.000541 -0.042361
v -1.367507 0.046829 -0.049171
v -1.367506 0.089561 -0.068935
v -1.367506 0.123474 -0.099718
v -1.367506 0.145247 -0.138506
v -1.367506 0.186031 -0.192393
v -1.367506 0.229395 -0.197905
vt 0.037874 0.183147
vt 0.032618 0.179605
vt 0.031934 0.175753
vt 0.038362 0.175846
vt 0.041677 0.185023
vt 0.045531 0.178533
vt 0.044744 0.188019
vt 0.050770 0.183211
vt 0.046769 0.191843
vt 0.054218 0.189195
vt 0.047551 0.196122
vt 0.055538 0.195899
vt 0.047015 0.200439
vt 0.054600 0.202667
vt 0.045213 0.204372
vt 0.051497 0.208836
vt 0.042320 0.207537
vt 0.046532 0.213803
vt 0.038625 0.209633
vt 0.039527 0.216893
vt 0.033575 0.213492
vt 0.033133 0.217370
vt 0.034664 0.172620
vt 0.040781 0.171158
vt 0.050224 0.173632
vt 0.056842 0.179570
vt 0.061201 0.187170
vt 0.062871 0.195686
vt 0.061690 0.204283
vt 0.057775 0.212120
vt 0.051507 0.218427
vt 0.042228 0.221437
vt 0.036029 0.220363
vt 0.288629 0.490216
vt 0.298070 0.490274
vt 0.306768 0.490339
vt 0.315407 0.490410
vt 0.324011 0.490484
vt 0.332615 0.490560
vt 0.341255 0.490640
vt 0.349952 0.490727
vt 0.359396 0.490834
vt 0.365511 0.490908
vt 0.210975 0.489488
vt 0.206863 0.489476
vt 0.214896 0.489478
vt 0.221103 0.489428
vt 0.225207 0.489393
vt 0.229384 0.489362
vt 0.233634 0.489337
vt 0.237928 0.489316
vt 0.242221 0.489301
vt 0.246471 0.489291
vt 0.250648 0.489287
vt 0.254753 0.489288
vt 0.260959 0.489286
vt 0.264880 0.489264
vt 0.268992 0.489218
vt 0.282513 0.490184
vt 0.210162 0.391716
vt 0.214174 0.391693
vt 0.206926 0.293953
vt 0.211377 0.293920
vt 0.288971 0.392535
vt 0.282882 0.392608
vt 0.279909 0.294946
vt 0.286180 0.294800
vt 0.298447 0.392503
vt 0.296542 0.294712
vt 0.307254 0.392530
vt 0.306230 0.294724
vt 0.316059 0.392582
vt 0.315960 0.294773
vt 0.324864 0.392650
vt 0.325714 0.294848
vt 0.333668 0.392735
vt 0.335469 0.294943
vt 0.342473 0.392836
vt 0.345198 0.295063
vt 0.351278 0.392962
vt 0.354885 0.295220
vt 0.360750 0.393159
vt 0.365243 0.295488
vt 0.366836 0.393338
vt 0.371511 0.295744
vt 0.205993 0.391773
vt 0.202329 0.294066
vt 0.220436 0.391652
vt 0.218257 0.293886
vt 0.224566 0.391623
vt 0.222786 0.293859
vt 0.228798 0.391599
vt 0.227449 0.293840
vt 0.233130 0.391579
vt 0.232243 0.293823
vt 0.237522 0.391560
vt 0.237116 0.293804
vt 0.241913 0.391542
vt 0.241988 0.293783
vt 0.246245 0.391526
vt 0.246782 0.293760
vt 0.250477 0.391515
vt 0.251445 0.293740
vt 0.254607 0.391511
vt 0.255974 0.293729
vt 0.260870 0.391499
vt 0.262854 0.293706
vt 0.264882 0.391489
vt 0.267305 0.293702
vt 0.269051 0.391511
vt 0.271903 0.293777
vt 0.037009 0.203736
vt 0.030817 0.204742
vt 0.034726 0.191463
vt 0.039925 0.195973
vt 0.021152 0.200994
vt 0.030932 0.188988
vt 0.014822 0.193649
vt 0.028033 0.185334
vt 0.011041 0.184674
vt 0.026315 0.180857
vt 0.010181 0.174947
vt 0.025944 0.175998
vt 0.012325 0.165420
vt 0.026956 0.171230
vt 0.017263 0.157026
vt 0.029254 0.167022
vt 0.024513 0.150587
vt 0.032612 0.163785
vt 0.034590 0.148155
vt 0.036701 0.161835
vt 0.040594 0.149974
vt 0.042453 0.158056
vt 0.040191 0.200417
vt 0.043307 0.153687
vt 0.287140 0.571021
vt 0.296923 0.571131
vt 0.305833 0.571223
vt 0.314610 0.571308
vt 0.323305 0.571387
vt 0.332000 0.571460
vt 0.340778 0.571529
vt 0.349686 0.571593
vt 0.359460 0.571656
vt 0.365724 0.571687
vt 0.206679 0.570324
vt 0.210761 0.570354
vt 0.214716 0.570348
vt 0.221103 0.570298
vt 0.225337 0.570265
vt 0.229611 0.570234
vt 0.233925 0.570207
vt 0.238263 0.570186
vt 0.242602 0.570171
vt 0.246915 0.570162
vt 0.251189 0.570157
vt 0.255424 0.570156
vt 0.261810 0.570152
vt 0.265764 0.570127
vt 0.269847 0.570062
vt 0.280886 0.570944
vn 1.000000 0.000000 -0.000002
vn 1.000000 0.000000 -0.000005
vn 1.000000 0.000000 -0.000004
vn 1.000000 -0.000000 0.000000
vn 1.000000 -0.000000 0.000001
vn 1.000000 0.000000 -0.000002
vn 1.000000 -0.000000 0.000000
vn 1.000000 -0.000000 0.000003
vn 1.000000 -0.000000 0.000003
vn 1.000000 -0.000000 0.000001
vn 1.000000 -0.000000 0.000003
vn 1.000000 -0.000000 0.000003
vn 1.000000 -0.000000 0.000003
vn 1.000000 -0.000000 0.000003
vn 1.000000 -0.000000 0.000003
vn 1.000000 -0.000000 0.000003
vn 1.000000 -0.000000 0.000003
vn 1.000000 -0.000000 0.000003
vn 1.000000 -0.000000 0.000003
vn 1.000000 -0.000000 0.000003
vn 1.000000 -0.000000 0.000001
vn 1.000000 -0.000000 0.000003
vn 1.000000 -0.000000 0.000003
vn 1.000000 -0.000000 0.000002
vn 1.000000 -0.000000 0.000001
vn 1.000000 -0.000000 0.000001
vn 1.000000 -0.000000 0.000002
vn 1.000000 -0.000000 0.000002
vn 1.000000 -0.000000 0.000003
vn 1.000000 -0.000000 0.000001
vn 1.000000 -0.000000 0.000002
vn 1.000000 -0.000000 0.000004
vn 1.000000 -0.000000 0.000003
vn 1.000000 -0.000000 0.000003
vn 1.000000 -0.000000 0.000004
vn 1.000000 -0.000000 0.000003
vn 1.000000 -0.000000 0.000003
vn 1.000000 -0.000000 0.000003
vn 1.000000 -0.000000 0.000003
vn 1.000000 -0.000000 0.000002
vn 1.000000 -0.000000 0.000000
vn 1.000000 0.000000 -0.000004
vn 1.000000 0.000000 -0.000002
vn 1.000000 -0.000000 0.000004
vn 1.000000 -0.000000 0.000003
vn 1.000000 -0.000000 0.000000
vn 1.000000 -0.000000 0.000004
vn 1.000000 -0.000000 0.000004
vn 1.000000 -0.000000 0.000003
vn 1.000000 -0.000000 0.000003
vn 1.000000 -0.000000 0.000004
vn 1.000000 -0.000000 0.000002
vn 1.000000 -0.000000 0.000003
vn 1.000000 -0.000000 0.000003
vn 1.000000 -0.000000 0.000002
vn 1.000000 -0.000000 0.000002
vn 1.000000 -0.000000 0.000003
vn 1.000000 -0.000000 0.000003
vn 1.000000 -0.000000 0.000002
vn 1.000000 -0.000000 0.000004
vn 1.000000 -0.000000 0.000002
vn 1.000000 -0.000000 0.000003
vn 1.000000 -0.000000 0.000004
vn 1.000000 -0.000000 0.000002
vn 1.000000 -0.000000 0.000002
vn 1.000000 -0.000000 0.000002
vn 1.000000 -0.000000 0.000002
vn 1.000000 -0.000000 0.000003
vn 1.000000 -0.000000 0.000004
vn 1.000000 -0.000000 0.000002
vn 1.000000 -0.000000 0.000003
vn 1.000000 -0.000000 0.000004
vn 1.000000 -0.000000 0.000003
vn 1.000000 -0.000000 0.000004
vn 1.000000 -0.000000 0.000004
vn 1.000000 -0.000000 0.000002
vn 1.000000 -0.000000 0.000002
vn 1.000000 -0.000000 0.000003
vn 1.000000 -0.000000 0.000002
vn 1.000000 -0.000000 0.000001
vn -0.006584 -0.298839 -0.954281
vn -0.009803 -0.661755 -0.749656
vn -0.009803 -0.661755 -0.749656
vn -0.001840 -0.894664 -0.446736
vn -0.006248 0.593193 -0.805036
vn -0.004169 0.839237 -0.543750
vn -0.004398 0.812033 -0.583596
vn -0.004398 0.812033 -0.583596
vn -0.004169 0.839237 -0.543750
vn -0.003762 0.792738 -0.609551
vn -0.002479 0.882468 -0.470366
vn -0.002479 0.882468 -0.470366
vn -0.003762 0.792738 -0.609551
vn -0.004186 0.566029 -0.824375
vn -0.003858 0.690979 -0.722864
vn -0.003858 0.690979 -0.722864
vn -0.004186 0.566029 -0.824375
vn -0.004256 0.293555 -0.955933
vn -0.004455 0.437893 -0.899016
vn -0.004455 0.437893 -0.899016
vn -0.004256 0.293555 -0.955933
vn -0.004244 0.000002 -0.999991
vn -0.004636 0.149690 -0.988722
vn -0.004636 0.149690 -0.988722
vn -0.004244 0.000002 -0.999991
vn -0.004256 -0.293550 -0.955934
vn -0.004636 -0.149683 -0.988723
vn -0.004636 -0.149683 -0.988723
vn -0.004256 -0.293550 -0.955934
vn -0.004186 -0.566025 -0.824377
vn -0.004455 -0.437890 -0.899018
vn -0.004455 -0.437890 -0.899018
vn -0.004186 -0.566025 -0.824377
vn -0.003762 -0.792737 -0.609553
vn -0.003858 -0.690978 -0.722865
vn -0.003858 -0.690978 -0.722865
vn -0.003762 -0.792737 -0.609553
vn -0.004169 -0.839234 -0.543755
vn -0.002478 -0.882472 -0.470358
vn -0.002478 -0.882472 -0.470358
vn -0.004169 -0.839234 -0.543755
vn -0.006248 -0.593189 -0.805039
vn -0.004398 -0.812025 -0.583606
vn -0.004398 -0.812025 -0.583607
vn 0.010408 -0.291319 -0.956569
vn -0.001876 0.585339 -0.810787
vn -0.006248 0.593193 -0.805036
vn -0.006584 -0.298839 -0.954281
vn -0.001876 0.585339 -0.810787
vn 0.010408 -0.291319 -0.956569
vn 0.021973 -0.294953 -0.955259
vn 0.001368 0.574904 -0.818220
vn 0.016745 0.994634 0.102088
vn 0.017205 0.887717 -0.460067
vn 0.030478 0.883556 -0.467332
vn 0.027140 0.994560 0.100566
vn 0.017205 0.887717 -0.460067
vn 0.016745 0.994634 0.102088
vn 0.001646 0.995175 0.098099
vn -0.001840 0.894666 -0.446732
vn 0.016745 0.994634 0.102088
vn 0.013554 0.860871 0.508643
vn 0.002612 0.866667 0.498880
vn 0.001646 0.995175 0.098099
vn 0.013554 0.860871 0.508643
vn 0.016745 0.994634 0.102088
vn 0.027140 0.994560 0.100566
vn 0.020611 0.860560 0.508933
vn 0.013554 0.860871 0.508643
vn 0.009413 0.587949 0.808843
vn 0.002044 0.597569 0.801815
vn 0.002612 0.866667 0.498880
vn 0.009413 0.587949 0.808843
vn 0.013554 0.860871 0.508643
vn 0.020611 0.860560 0.508933
vn 0.013525 0.585926 0.810252
vn 0.009413 0.587949 0.808843
vn 0.006983 0.309201 0.950971
vn 0.001129 0.316217 0.948686
vn 0.002044 0.597569 0.801815
vn 0.006983 0.309201 0.950971
vn 0.009413 0.587949 0.808843
vn 0.013525 0.585926 0.810252
vn 0.009740 0.307588 0.951470
vn 0.006983 0.309201 0.950971
vn 0.006097 -0.000002 0.999981
vn 0.000739 -0.000002 1.000000
vn 0.001129 0.316217 0.948686
vn 0.006097 -0.000002 0.999981
vn 0.006983 0.309201 0.950971
vn 0.009740 0.307588 0.951470
vn 0.008396 -0.000002 0.999965
vn 0.006097 -0.000002 0.999981
vn 0.006983 -0.309207 0.950969
vn 0.001129 -0.316221 0.948685
vn 0.000739 -0.000002 1.000000
vn 0.006983 -0.309207 0.950969
vn 0.006097 -0.000002 0.999981
vn 0.008396 -0.000002 0.999965
vn 0.009740 -0.307595 0.951468
vn 0.006983 -0.309207 0.950969
vn 0.009413 -0.587952 0.808841
vn 0.002043 -0.597573 0.801812
vn 0.001129 -0.316221 0.948685
vn 0.009413 -0.587952 0.808841
vn 0.006983 -0.309207 0.950969
vn 0.009740 -0.307595 0.951468
vn 0.013525 -0.585929 0.810250
vn 0.009413 -0.587952 0.808841
vn 0.013554 -0.860873 0.508640
vn 0.002611 -0.866670 0.498875
vn 0.002043 -0.597573 0.801812
vn 0.013554 -0.860873 0.508640
vn 0.009413 -0.587952 0.808841
vn 0.013525 -0.585929 0.810250
vn 0.020610 -0.860560 0.508932
vn 0.013554 -0.860873 0.508640
vn 0.016745 -0.994635 0.102085
vn 0.001646 -0.995176 0.098096
vn 0.002611 -0.866670 0.498875
vn 0.016745 -0.994635 0.102085
vn 0.013554 -0.860873 0.508640
vn 0.020610 -0.860560 0.508932
vn 0.027140 -0.994561 0.100562
vn 0.016745 -0.994635 0.102085
vn 0.017206 -0.887716 -0.460070
vn -0.001840 -0.894664 -0.446736
vn 0.001646 -0.995176 0.098096
vn 0.017206 -0.887716 -0.460070
vn 0.016745 -0.994635 0.102085
vn 0.027140 -0.994561 0.100562
vn 0.030477 -0.883555 -0.467335
vn 0.017206 -0.887716 -0.460070
vn 0.010408 -0.291319 -0.956569
vn -0.006584 -0.298839 -0.954281
vn -0.001840 -0.894664 -0.446736
vn 0.010408 -0.291319 -0.956569
vn 0.017206 -0.887716 -0.460070
vn 0.030477 -0.883555 -0.467335
vn 0.021973 -0.294953 -0.955259
vn -0.001876 0.585339 -0.810787
vn -0.005841 0.833354 -0.552709
vn -0.004169 0.839237 -0.543750
vn -0.006248 0.593193 -0.805036
vn -0.005841 0.833354 -0.552709
vn -0.001876 0.585339 -0.810787
vn 0.001368 0.574904 -0.818220
vn -0.006888 0.830365 -0.557177
vn -0.005841 0.833354 -0.552709
vn -0.005056 0.785307 -0.619086
vn -0.003762 0.792738 -0.609551
vn -0.004169 0.839237 -0.543750
vn -0.005056 0.785307 -0.619086
vn -0.005841 0.833354 -0.552709
vn -0.006888 0.830365 -0.557177
vn -0.005789 0.783814 -0.620968
vn -0.005056 0.785307 -0.619086
vn -0.002916 0.556543 -0.830814
vn -0.004186 0.566029 -0.824375
vn -0.003762 0.792738 -0.609551
vn -0.002916 0.556543 -0.830814
vn -0.005056 0.785307 -0.619086
vn -0.005789 0.783814 -0.620968
vn -0.001759 0.554213 -0.832373
vn -0.002916 0.556543 -0.830814
vn -0.001468 0.287024 -0.957922
vn -0.004256 0.293555 -0.955933
vn -0.004186 0.566029 -0.824375
vn -0.001468 0.287024 -0.957922
vn -0.002916 0.556543 -0.830814
vn -0.001759 0.554213 -0.832373
vn 0.000822 0.285308 -0.958436
vn -0.001468 0.287024 -0.957922
vn -0.000959 0.000002 -1.000000
vn -0.004244 0.000002 -0.999991
vn -0.004256 0.293555 -0.955933
vn -0.000959 0.000002 -1.000000
vn -0.001468 0.287024 -0.957922
vn 0.000822 0.285308 -0.958436
vn 0.001705 0.000002 -0.999999
vn -0.000959 0.000002 -1.000000
vn -0.001468 -0.287021 -0.957923
vn -0.004256 -0.293550 -0.955934
vn -0.004244 0.000002 -0.999991
vn -0.001468 -0.287021 -0.957923
vn -0.000959 0.000002 -1.000000
vn 0.001705 0.000002 -0.999999
vn 0.000822 -0.285308 -0.958436
vn -0.001468 -0.287021 -0.957923
vn -0.002916 -0.556539 -0.830816
vn -0.004186 -0.566025 -0.824377
vn -0.004256 -0.293550 -0.955934
vn -0.002916 -0.556539 -0.830816
vn -0.001468 -0.287021 -0.957923
vn 0.000822 -0.285308 -0.958436
vn -0.001758 -0.554209 -0.832376
vn -0.002916 -0.556539 -0.830816
vn -0.005056 -0.785304 -0.619089
vn -0.003762 -0.792737 -0.609553
vn -0.004186 -0.566025 -0.824377
vn -0.005056 -0.785304 -0.619089
vn -0.002916 -0.556539 -0.830816
vn -0.001758 -0.554209 -0.832376
vn -0.005789 -0.783810 -0.620974
vn -0.005056 -0.785304 -0.619089
vn -0.005841 -0.833352 -0.552712
vn -0.004169 -0.839234 -0.543755
vn -0.003762 -0.792737 -0.609553
vn -0.005841 -0.833352 -0.552712
vn -0.005056 -0.785304 -0.619089
vn -0.005789 -0.783810 -0.620974
vn -0.006889 -0.830364 -0.557179
vn -0.005841 -0.833352 -0.552712
vn -0.001876 -0.585334 -0.810790
vn -0.006248 -0.593189 -0.805039
vn -0.004169 -0.839234 -0.543755
vn -0.001876 -0.585334 -0.810790
vn -0.005841 -0.833352 -0.552712
vn -0.006889 -0.830364 -0.557179
vn 0.001368 -0.574902 -0.818221
vn -0.001876 -0.585334 -0.810790
vn 0.010408 0.291320 -0.956569
vn -0.006584 0.298841 -0.954280
vn -0.006248 -0.593189 -0.805039
vn 0.010408 0.291320 -0.956569
vn -0.001876 -0.585334 -0.810790
vn 0.001368 -0.574902 -0.818221
vn 0.021973 0.294957 -0.955258
vn 0.010408 0.291320 -0.956569
vn 0.017205 0.887717 -0.460067
vn -0.001840 0.894666 -0.446732
vn -0.006584 0.298841 -0.954280
vn 0.017205 0.887717 -0.460067
vn 0.010408 0.291320 -0.956569
vn 0.021973 0.294957 -0.955258
vn 0.030478 0.883556 -0.467332
vn -1.000000 0.000000 -0.000003
vn -1.000000 0.000000 -0.000003
vn -1.000000 0.000000 -0.000003
vn -1.000000 0.000000 -0.000003
vn -1.000000 0.000000 -0.000003
vn -1.000000 0.000000 -0.000003
vn -1.000000 0.000000 -0.000003
vn -1.000000 0.000000 -0.000003
vn -1.000000 0.000000 -0.000009
vn -1.000000 0.000000 -0.000009
vn -1.000000 0.000000 -0.000009
vn -1.000000 0.000000 -0.000009
vn -1.000000 0.000000 -0.000003
vn -1.000000 0.000000 -0.000003
vn -1.000000 0.000000 -0.000003
vn -1.000000 0.000000 -0.000003
vn -1.000000 0.000000 -0.000003
vn -1.000000 0.000000 -0.000003
vn -1.000000 0.000000 -0.000003
vn -1.000000 0.000000 -0.000003
vn -1.000000 -0.000000 0.000001
vn -1.000000 -0.000000 0.000001
vn -1.000000 -0.000000 0.000001
vn -1.000000 -0.000000 0.000001
vn -1.000000 0.000000 -0.000006
vn -1.000000 0.000000 -0.000006
vn -1.000000 0.000000 -0.000006
vn -1.000000 0.000000 -0.000006
vn -1.000000 -0.000000 0.000003
vn -1.000000 -0.000000 0.000003
vn -1.000000 -0.000000 0.000003
vn -1.000000 -0.000000 0.000003
vn -1.000000 0.000000 -0.000003
vn -1.000000 0.000000 -0.000003
vn -1.000000 0.000000 -0.000003
vn -1.000000 0.000000 -0.000003
vn -1.000000 0.000000 -0.000003
vn -1.000000 0.000000 -0.000003
vn -1.000000 0.000000 -0.000003
vn -1.000000 0.000000 -0.000003
vn -1.000000 0.000000 -0.000003
vn -1.000000 0.000000 -0.000003
vn -1.000000 0.000000 -0.000003
vn -1.000000 0.000000 -0.000024
vn -1.000000 0.000000 -0.000024
vn -1.000000 0.000000 -0.000024
vn -0.001193 0.958550 0.284921
vn -0.001193 0.958550 0.284921
vn 0.001646 0.995175 0.098099
vn 0.002612 0.866667 0.498880
vn -0.000536 0.719992 0.693982
vn -0.000536 0.719992 0.693982
vn 0.002612 0.866667 0.498880
vn 0.002044 0.597569 0.801815
vn -0.001415 0.467346 0.884073
vn -0.001415 0.467346 0.884073
vn 0.002044 0.597569 0.801815
vn 0.001129 0.316217 0.948686
vn -0.002152 0.162139 0.986766
vn -0.002152 0.162139 0.986766
vn 0.001129 0.316217 0.948686
vn 0.000739 -0.000002 1.000000
vn -0.002151 -0.162143 0.986765
vn -0.002151 -0.162143 0.986765
vn 0.000739 -0.000002 1.000000
vn 0.001129 -0.316221 0.948685
vn -0.001415 -0.467349 0.884072
vn -0.001415 -0.467349 0.884072
vn 0.001129 -0.316221 0.948685
vn 0.002043 -0.597573 0.801812
vn -0.000536 -0.719998 0.693976
vn -0.000536 -0.719998 0.693976
vn 0.002043 -0.597573 0.801812
vn 0.002611 -0.866670 0.498875
vn -0.001194 -0.958553 0.284913
vn -0.001194 -0.958553 0.284913
vn 0.002611 -0.866670 0.498875
vn 0.001646 -0.995176 0.098096
vn -0.004565 -0.979592 -0.200945
vn -0.004565 -0.979592 -0.200945
vn 0.001646 -0.995176 0.098096
vn -0.001840 -0.894664 -0.446736
vn -0.010893 0.132703 -0.991096
vn -0.010893 0.132703 -0.991096
vn -0.006584 -0.298839 -0.954281
vn -0.006248 0.593193 -0.805036
vn -0.010893 -0.132675 -0.991100
vn -0.010893 -0.132675 -0.991100
vn -0.006248 -0.593189 -0.805039
vn -0.006584 0.298841 -0.954280
vn -0.009803 0.661750 -0.749660
vn -0.009803 0.661750 -0.749660
vn -0.006584 0.298841 -0.954280
vn -0.001840 0.894666 -0.446732
vn -0.004564 0.979591 -0.200948
vn -0.004564 0.979591 -0.200948
vn -0.001840 0.894666 -0.446732
vn 0.001646 0.995175 0.098099
s off
g FoodTallLLowerLeg
usemtl blinn1SG
f 3/1/1 2/2/2 23/3/3 24/4/4
f 4/5/5 3/1/6 24/4/7 25/6/8
f 5/7/9 4/5/10 25/6/11 26/8/12
f 6/9/13 5/7/14 26/8/15 27/10/16
f 7/11/17 6/9/18 27/10/19 28/12/20
f 8/13/21 7/11/22 28/12/23 29/14/24
f 9/15/25 8/13/26 29/14/27 30/16/28
f 10/17/29 9/15/30 30/16/31 31/18/32
f 11/19/33 10/17/34 31/18/35 32/20/36
f 1/21/37 11/19/38 32/20/39 33/22/40
f 24/4/41 23/3/42 13/23/43 14/24/44
f 25/6/45 24/4/46 14/24/47 15/25/48
f 26/8/49 25/6/50 15/25/51 16/26/52
f 27/10/53 26/8/54 16/26/55 17/27/56
f 28/12/57 27/10/58 17/27/59 18/28/60
f 29/14/61 28/12/62 18/28/63 19/29/64
f 30/16/65 29/14/66 19/29/67 20/30/68
f 31/18/69 30/16/70 20/30/71 21/31/72
f 32/20/73 31/18/74 21/31/75 22/32/76
f 33/22/77 32/20/78 22/32/79 12/33/80
f 44/44/81 33/147/82 12/146/83 43/45/84
f 45/46/85 46/47/86 11/149/87 1/148/88
f 46/47/89 47/48/90 10/150/91 11/149/92
f 47/48/93 48/49/94 9/151/95 10/150/96
f 48/49/97 49/50/98 8/152/99 9/151/100
f 49/50/101 50/51/102 7/153/103 8/152/104
f 50/51/105 51/52/106 6/154/107 7/153/108
f 51/52/109 52/53/110 5/155/111 6/154/112
f 52/53/113 53/54/114 4/156/115 5/155/116
f 53/54/117 54/55/118 3/157/119 4/156/120
f 54/55/121 55/56/122 2/158/123 3/157/124
f 68/60/125 69/61/126 45/46/127 44/44/128
f 69/61/129 68/60/130 82/62/131 83/63/132
f 58/64/133 81/65/134 84/66/135 85/67/136
f 81/65/137 58/64/138 34/34/139 57/59/140
f 58/64/141 59/68/142 35/35/143 34/34/144
f 59/68/145 58/64/146 85/67/147 86/69/148
f 59/68/149 60/70/150 36/36/151 35/35/152
f 60/70/153 59/68/154 86/69/155 87/71/156
f 60/70/157 61/72/158 37/37/159 36/36/160
f 61/72/161 60/70/162 87/71/163 88/73/164
f 61/72/165 62/74/166 38/38/167 37/37/168
f 62/74/169 61/72/170 88/73/171 89/75/172
f 62/74/173 63/76/174 39/39/175 38/38/176
f 63/76/177 62/74/178 89/75/179 90/77/180
f 63/76/181 64/78/182 40/40/183 39/39/184
f 64/78/185 63/76/186 90/77/187 91/79/188
f 64/78/189 65/80/190 41/41/191 40/40/192
f 65/80/193 64/78/194 91/79/195 92/81/196
f 65/80/197 66/82/198 42/42/199 41/41/200
f 66/82/201 65/80/202 92/81/203 93/83/204
f 66/82/205 67/84/206 43/43/207 42/42/208
f 67/84/209 66/82/210 93/83/211 94/85/212
f 67/86/213 68/60/214 44/44/215 43/45/216
f 68/60/217 67/86/218 94/87/219 82/62/220
f 69/61/221 70/88/222 46/47/223 45/46/224
f 70/88/225 69/61/226 83/63/227 95/89/228
f 70/88/229 71/90/230 47/48/231 46/47/232
f 71/90/233 70/88/234 95/89/235 96/91/236
f 71/90/237 72/92/238 48/49/239 47/48/240
f 72/92/241 71/90/242 96/91/243 97/93/244
f 72/92/245 73/94/246 49/50/247 48/49/248
f 73/94/249 72/92/250 97/93/251 98/95/252
f 73/94/253 74/96/254 50/51/255 49/50/256
f 74/96/257 73/94/258 98/95/259 99/97/260
f 74/96/261 75/98/262 51/52/263 50/51/264
f 75/98/265 74/96/266 99/97/267 100/99/268
f 75/98/269 76/100/270 52/53/271 51/52/272
f 76/100/273 75/98/274 100/99/275 101/101/276
f 76/100/277 77/102/278 53/54/279 52/53/280
f 77/102/281 76/100/282 101/101/283 102/103/284
f 77/102/285 78/104/286 54/55/287 53/54/288
f 78/104/289 77/102/290 102/103/291 103/105/292
f 78/104/293 79/106/294 55/56/295 54/55/296
f 79/106/297 78/104/298 103/105/299 104/107/300
f 79/106/301 80/108/302 56/57/303 55/56/304
f 80/108/305 79/106/306 104/107/307 105/109/308
f 80/108/309 81/110/310 57/58/311 56/57/312
f 81/110/313 80/108/314 105/109/315 84/111/316
f 94/112/317 93/113/318 95/114/319 83/115/320
f 93/113/321 92/116/322 96/117/323 95/114/324
f 92/116/325 91/118/326 97/119/327 96/117/328
f 91/118/329 90/120/330 98/121/331 97/119/332
f 90/120/333 89/122/334 99/123/335 98/121/336
f 89/122/337 88/124/338 100/125/339 99/123/340
f 88/124/341 87/126/342 101/127/343 100/125/344
f 87/126/345 86/128/346 102/129/347 101/127/348
f 86/128/349 85/130/350 103/131/351 102/129/352
f 85/130/353 84/132/354 104/133/355 103/131/356
f 83/115/357 82/134/358 94/112/359
f 105/135/360 104/133/361 84/132/362
f 15/137/363 14/136/364 34/34/365 35/35/366
f 16/138/367 15/137/368 35/35/369 36/36/370
f 17/139/371 16/138/372 36/36/373 37/37/374
f 18/140/375 17/139/376 37/37/377 38/38/378
f 19/141/379 18/140/380 38/38/381 39/39/382
f 20/142/383 19/141/384 39/39/385 40/40/386
f 21/143/387 20/142/388 40/40/389 41/41/390
f 22/144/391 21/143/392 41/41/393 42/42/394
f 12/145/395 22/144/396 42/42/397 43/43/398
f 1/148/399 33/147/400 44/44/401 45/46/402
f 23/159/403 2/158/404 55/56/405 56/57/406
f 13/160/407 23/159/408 56/57/409 57/58/410
f 14/136/411 13/161/412 57/59/413 34/34/414
