# This file uses centimeters as units for non-parametric coordinates.

mtllib CeleryLLowerCanine.mtl
g default
v -0.411554 0.530637 -0.135486
v -0.277225 0.457899 -0.138635
v -0.182492 0.421626 -0.138600
v -0.103011 0.357557 -0.143621
v -0.046562 0.271966 -0.153204
v -0.018669 0.173230 -0.166414
v -0.022065 0.071012 -0.181955
v -0.377747 0.702022 -0.107801
v -0.233572 0.747936 -0.092568
v -0.002563 0.708260 -0.085160
v 0.168467 0.581467 -0.094302
v 0.289115 0.411146 -0.112892
v 0.347569 0.213969 -0.139111
v 0.338109 0.009239 -0.170394
v -0.435429 0.621209 -0.123269
v -0.256286 0.612234 -0.114254
v -0.088482 0.565393 -0.111579
v 0.039791 0.470298 -0.118434
v 0.130276 0.342558 -0.132377
v 0.174117 0.194675 -0.152042
v 0.167022 0.041126 -0.175504
v -0.452082 0.577768 0.171799
v -0.428169 0.487051 0.159564
v -0.293626 0.414197 0.156410
v -0.198742 0.377866 0.156444
v -0.119134 0.313696 0.151415
v -0.062595 0.227968 0.141815
v -0.034657 0.129074 0.128585
v -0.038059 0.026694 0.113018
v 0.332166 0.169880 0.155926
v 0.273618 0.367371 0.182187
v 0.152778 0.537963 0.200808
v -0.018525 0.664959 0.209964
v -0.249903 0.704698 0.202547
v -0.394309 0.658710 0.187291
v 0.149962 -0.003150 0.119416
v 0.157056 0.150399 0.142878
v 0.113216 0.298282 0.162543
v 0.022730 0.426022 0.176486
v -0.105543 0.521117 0.183342
v -0.273347 0.567959 0.180667
v -0.051495 -0.010974 -0.195966
v 0.146304 -0.010974 -0.184524
v 0.330071 -0.010974 -0.173893
v -0.051580 -0.010974 0.106582
v 0.331093 -0.010974 -0.036158
v 0.323809 -0.010974 0.128292
v 0.146850 -0.010974 0.118062
v 0.192158 -0.010974 0.120681
vt 0.837705 0.014823
vt 0.853269 0.014911
vt 0.863601 0.014978
vt 0.874013 0.015028
vt 0.884502 0.015057
vt 0.895039 0.015063
vt 0.905575 0.015047
vt 0.348068 0.216003
vt 0.353475 0.201413
vt 0.362355 0.197714
vt 0.364122 0.215918
vt 0.345787 0.226079
vt 0.361857 0.233518
vt 0.340442 0.235011
vt 0.354079 0.247815
vt 0.332558 0.241926
vt 0.342405 0.258765
vt 0.322905 0.246147
vt 0.327979 0.265295
vt 0.312429 0.247260
vt 0.312212 0.266766
vt 0.756630 0.012552
vt 0.772114 0.012257
vt 0.732750 0.012929
vt 0.711045 0.013181
vt 0.689697 0.013363
vt 0.668572 0.013476
vt 0.647447 0.013517
vt 0.828083 0.014809
vt 0.371461 0.202383
vt 0.378303 0.216277
vt 0.377715 0.240153
vt 0.367344 0.259216
vt 0.351779 0.273816
vt 0.332544 0.282523
vt 0.311521 0.284484
vt 0.817848 0.014810
vt 0.827891 0.045228
vt 0.837542 0.045238
vt 0.853154 0.045329
vt 0.863518 0.045399
vt 0.873962 0.045450
vt 0.884483 0.045479
vt 0.895053 0.045485
vt 0.905622 0.045469
vt 0.668682 0.043884
vt 0.689869 0.043774
vt 0.711281 0.043597
vt 0.733053 0.043351
vt 0.757009 0.042980
vt 0.772542 0.042686
vt 0.817624 0.045240
vt 0.332558 0.241926
vt 0.342405 0.258765
vt 0.322905 0.246147
vt 0.327979 0.265295
vt 0.312429 0.247260
vt 0.312212 0.266766
vt 0.302155 0.245157
vt 0.296648 0.263034
vt 0.293088 0.240043
vt 0.282810 0.254464
vt 0.286117 0.232419
vt 0.272127 0.240295
vt 0.274194 0.222421
vt 0.264647 0.223605
vt 0.332544 0.282523
vt 0.311521 0.284484
vt 0.290769 0.279508
vt 0.272319 0.268081
vt 0.259985 0.247630
vt 0.259049 0.232171
vt 0.914563 0.015014
vt 0.303627 0.245458
vt 0.306588 0.265417
vt 0.645203 0.013514
vt 0.309339 0.283961
vt 0.335656 0.239208
vt 0.909757 0.045454
vt 0.647468 0.027355
vt 0.349509 0.274844
vt 0.649995 0.043922
vt 0.343038 0.258171
vt 0.344695 0.262442
vn 0.057114 0.148218 -0.987304
vn 0.057114 0.148221 -0.987304
vn 0.057114 0.148219 -0.987304
vn 0.057114 0.148218 -0.987304
vn 0.057114 0.148218 -0.987304
vn 0.057114 0.148218 -0.987304
vn 0.057114 0.148218 -0.987304
vn 0.057114 0.148218 -0.987304
vn 0.057114 0.148219 -0.987304
vn 0.057114 0.148218 -0.987304
vn 0.057114 0.148218 -0.987304
vn 0.057114 0.148219 -0.987304
vn 0.057114 0.148219 -0.987304
vn 0.057114 0.148219 -0.987304
vn 0.057114 0.148219 -0.987304
vn 0.057114 0.148219 -0.987304
vn 0.057114 0.148219 -0.987304
vn 0.057114 0.148219 -0.987304
vn 0.057114 0.148219 -0.987304
vn 0.057114 0.148220 -0.987304
vn 0.057114 0.148219 -0.987304
vn 0.057114 0.148219 -0.987304
vn 0.057114 0.148220 -0.987304
vn 0.057114 0.148220 -0.987304
vn 0.057114 0.148218 -0.987304
vn 0.057114 0.148219 -0.987304
vn 0.057114 0.148217 -0.987304
vn 0.057114 0.148217 -0.987304
vn 0.057114 0.148218 -0.987304
vn 0.057114 0.148218 -0.987304
vn 0.057114 0.148217 -0.987304
vn 0.057114 0.148218 -0.987304
vn 0.057114 0.148219 -0.987304
vn 0.057114 0.148218 -0.987304
vn 0.057114 0.148218 -0.987304
vn 0.057114 0.148219 -0.987304
vn 0.057114 0.148219 -0.987304
vn 0.057114 0.148219 -0.987304
vn 0.057114 0.148219 -0.987304
vn 0.057114 0.148219 -0.987304
vn 0.057114 0.148220 -0.987304
vn 0.057114 0.148219 -0.987304
vn 0.057114 0.148219 -0.987304
vn 0.057114 0.148220 -0.987304
vn 0.057114 0.148220 -0.987304
vn 0.057114 0.148220 -0.987304
vn 0.057114 0.148220 -0.987304
vn 0.057114 0.148220 -0.987304
vn -0.717504 -0.682645 -0.138508
vn -0.717812 -0.681782 -0.141138
vn -0.057114 -0.148220 0.987304
vn -0.980300 0.195839 -0.025685
vn -0.057114 -0.148220 0.987304
vn -0.426447 -0.891479 -0.152998
vn -0.496578 -0.854214 -0.154042
vn -0.496347 -0.854855 -0.151201
vn -0.739879 -0.658369 -0.138308
vn -0.739843 -0.659079 -0.135083
vn -0.908942 -0.402316 -0.109396
vn -0.909061 -0.402975 -0.105919
vn -0.991354 -0.110790 -0.070312
vn -0.991541 -0.111325 -0.066735
vn -0.987268 0.156202 -0.030062
vn -0.981429 0.190673 -0.020984
vn 0.976806 -0.213713 0.013334
vn 0.991730 0.111906 0.062834
vn 0.991125 0.113775 0.068747
vn 0.997624 -0.052849 0.044186
vn 0.997624 -0.052849 0.044186
vn 0.898887 0.425468 0.104784
vn 0.898713 0.424475 0.110169
vn 0.713201 0.688006 0.134138
vn 0.713215 0.686986 0.139190
vn 0.378214 0.913492 0.149958
vn 0.378834 0.912499 0.154373
vn -0.025696 0.989806 0.140088
vn -0.024722 0.989330 0.143580
vn -0.540431 0.836499 0.090574
vn -0.538957 0.837224 0.092634
vn -0.057121 -0.148209 0.987305
vn -0.057121 -0.148209 0.987305
vn -0.057121 -0.148209 0.987305
vn -0.057114 -0.148219 0.987304
vn -0.057123 -0.148219 0.987303
vn -0.057123 -0.148219 0.987303
vn -0.057114 -0.148219 0.987304
vn -0.057114 -0.148220 0.987304
vn -0.057123 -0.148222 0.987303
vn -0.057123 -0.148222 0.987303
vn -0.057114 -0.148220 0.987304
vn -0.057114 -0.148220 0.987304
vn -0.057120 -0.148225 0.987303
vn -0.057120 -0.148225 0.987303
vn -0.057114 -0.148220 0.987304
vn -0.057114 -0.148219 0.987304
vn -0.057115 -0.148225 0.987303
vn -0.057115 -0.148225 0.987303
vn -0.057114 -0.148219 0.987304
vn -0.057114 -0.148218 0.987304
vn -0.057113 -0.148222 0.987303
vn -0.057113 -0.148222 0.987303
vn -0.057114 -0.148218 0.987304
vn -0.057114 -0.148219 0.987304
vn -0.057115 -0.148218 0.987304
vn -0.057114 -0.148220 0.987304
vn -0.057114 -0.148219 0.987304
vn -0.057114 -0.148220 0.987304
vn -0.057114 -0.148219 0.987304
vn -0.057080 -0.148231 0.987304
vn -0.057080 -0.148231 0.987304
vn -0.057114 -0.148220 0.987304
vn -0.057114 -0.148219 0.987304
vn -0.057074 -0.148221 0.987306
vn -0.057074 -0.148221 0.987306
vn -0.057074 -0.148221 0.987306
vn -0.057114 -0.148220 0.987304
vn -0.057114 -0.148220 0.987304
vn -0.057076 -0.148208 0.987308
vn -0.057076 -0.148208 0.987308
vn -0.057114 -0.148219 0.987304
vn -0.057114 -0.148220 0.987304
vn -0.057082 -0.148199 0.987309
vn -0.057082 -0.148199 0.987309
vn -0.057114 -0.148218 0.987304
vn -0.057114 -0.148219 0.987304
vn -0.057092 -0.148194 0.987309
vn -0.057092 -0.148194 0.987309
vn -0.057114 -0.148219 0.987304
vn -0.057114 -0.148218 0.987304
vn -0.057103 -0.148193 0.987309
vn -0.057103 -0.148193 0.987309
vn -0.057114 -0.148200 0.987307
vn -0.057114 -0.148219 0.987304
vn -0.057114 -0.148200 0.987307
vn -0.057114 -0.148200 0.987307
vn 0.057114 0.148220 -0.987304
vn 0.057114 0.148220 -0.987304
vn 0.057114 0.148219 -0.987304
vn 0.057114 0.148220 -0.987304
vn 0.057114 0.148219 -0.987304
vn 0.057114 0.148219 -0.987304
vn 0.057114 0.148220 -0.987304
vn 0.057114 0.148220 -0.987304
vn -0.941182 0.337901 -0.000264
vn -0.941182 0.337901 -0.000264
vn 0.929613 -0.368474 -0.006892
vn 0.929613 -0.368474 -0.006892
vn 0.976806 -0.213713 0.013334
s off
g FoodLLowerCaninesUnderbite
usemtl blinn1SG
f 2/8/1 1/9/2 15/10/3 16/11/4
f 3/12/5 2/8/6 16/11/7 17/13/8
f 4/14/9 3/12/10 17/13/11 18/15/12
f 5/16/13 4/14/14 18/15/15 19/17/16
f 6/18/17 5/16/18 19/17/19 20/19/20
f 7/20/21 6/18/22 20/19/23 21/21/24
f 16/11/25 15/10/26 8/30/27 9/31/28
f 17/13/29 16/11/30 9/31/31 10/32/32
f 18/15/33 17/13/34 10/32/35 11/33/36
f 19/17/37 18/15/38 11/33/39 12/34/40
f 20/19/41 19/17/42 12/34/43 13/35/44
f 21/21/45 20/19/46 13/35/47 14/36/48
s 1
f 1/1/49 23/39/50 22/38/51 15/29/52
f 24/40/53 23/39/50 1/1/49 2/2/54
f 25/41/55 24/40/53 2/2/54 3/3/56
f 26/42/57 25/41/55 3/3/56 4/4/58
f 27/43/59 26/42/57 4/4/58 5/5/60
f 28/44/61 27/43/59 5/5/60 6/6/62
f 29/45/63 28/44/61 6/6/62 7/7/64
f 14/28/65 13/27/66 30/46/67 47/82/68 46/80/69
f 13/27/66 12/26/70 31/47/71 30/46/67
f 12/26/70 11/25/72 32/48/73 31/47/71
f 11/25/72 10/24/74 33/49/75 32/48/73
f 10/24/74 9/22/76 34/50/77 33/49/75
f 9/22/76 8/23/78 35/51/79 34/50/77
f 15/29/52 22/38/51 35/52/79 8/37/78
s off
f 29/53/80 45/78/81 48/83/82 36/54/83
f 28/55/84 29/53/85 36/54/86 37/56/87
f 27/57/88 28/55/89 37/56/90 38/58/91
f 26/59/92 27/57/93 38/58/94 39/60/95
f 25/61/96 26/59/97 39/60/98 40/62/99
f 24/63/100 25/61/101 40/62/102 41/64/103
f 23/65/104 24/63/105 41/64/106 22/66/107
f 36/54/108 48/83/109 49/84/110
f 37/56/111 36/54/112 49/84/113 47/81/114 30/67/115
f 38/58/116 37/56/117 30/67/118 31/68/119
f 39/60/120 38/58/121 31/68/122 32/69/123
f 40/62/124 39/60/125 32/69/126 33/70/127
f 41/64/128 40/62/129 33/70/130 34/71/131
f 22/66/132 41/64/133 34/71/134 35/72/135
f 43/75/136 42/74/137 7/20/138 21/21/139
f 44/77/140 43/75/141 21/21/142 14/36/143
s 1
f 42/73/144 45/79/145 29/45/63 7/7/64
s off
f 46/80/146 44/76/147 14/28/148
