# This file uses centimeters as units for non-parametric coordinates.

mtllib BefficaRUpperCanine.mtl
g default
v -0.136295 0.746310 -0.158402
v 0.205606 0.733120 -0.137511
v -0.142476 0.789045 -0.002232
v 0.199433 0.775809 0.018517
v 0.323698 0.414376 -0.103085
v 0.039321 0.796684 -0.189301
v -0.182135 0.821916 -0.094816
v 0.250880 0.805125 -0.068643
v 0.030843 0.854921 0.021669
v -0.316358 0.450929 0.109797
v 0.311875 0.441873 0.140274
v -0.304519 0.423543 -0.133807
v 0.011804 0.416268 -0.171848
v 0.040284 0.925220 -0.110264
v -0.005660 0.457869 0.184925
v 0.432359 0.430517 0.020052
v -0.425004 0.442063 -0.021815
v 0.009255 -0.097529 -0.263761
v -0.433333 -0.091151 -0.200686
v 0.444357 -0.089832 -0.163283
v -0.010278 -0.097280 0.180708
v -0.446658 -0.097111 0.105514
v 0.431032 -0.095792 0.142917
v 0.597025 -0.091035 0.001563
v -0.599875 -0.092535 -0.048484
v -0.212599 0.615364 -0.140568
v -0.050856 0.784062 -0.181740
v -0.166453 0.789702 -0.135331
v 0.041082 0.878893 -0.157505
v -0.064570 0.898827 -0.108540
v 0.236753 0.774080 -0.110918
v 0.142311 0.889483 -0.095393
v 0.036460 0.910644 -0.042480
v 0.233152 0.799020 -0.019589
v 0.119202 0.827981 0.018644
v -0.170049 0.814634 -0.044033
v -0.058376 0.836002 0.007349
v -0.221877 0.654494 0.062818
v 0.008392 0.676120 0.126580
v -0.175484 0.457800 0.157705
v 0.245607 0.641948 0.088121
v 0.167103 0.452717 0.174183
v 0.400458 0.435044 0.085148
v 0.336486 0.639685 -0.014486
v 0.406857 0.422069 -0.044483
v -0.393092 0.433311 -0.083595
v -0.303218 0.655942 -0.048735
v -0.399509 0.446194 0.046434
v 0.006677 0.168953 -0.200710
v -0.387432 0.177804 -0.150736
v -0.231461 -0.093604 -0.245398
v 0.394529 0.173289 -0.117951
v 0.247282 -0.092902 -0.225051
v -0.400354 0.185736 0.124146
v -0.012154 0.186421 0.200318
v -0.249000 -0.097627 0.155761
v 0.381556 0.182598 0.158756
v 0.229743 -0.096923 0.176108
v 0.530287 0.178146 0.025157
v 0.560822 -0.089822 -0.084786
v 0.553635 -0.093575 0.080618
v -0.535915 0.182462 -0.022310
v -0.563420 -0.095289 0.032903
v -0.556284 -0.091230 -0.131517
v 0.182619 0.414530 -0.145437
v 0.022641 0.621141 -0.173103
v 0.254925 0.603049 -0.114990
v 0.126725 0.776043 -0.170449
v -0.159971 0.419640 -0.162674
v 0.150158 0.610476 -0.151777
v -0.104636 0.617376 -0.165898
v -0.056640 0.860438 -0.153835
v 0.135903 0.851742 -0.141597
v 0.131820 0.879939 -0.038896
v -0.060722 0.888635 -0.051134
v -0.116921 0.669318 0.102130
v 0.137813 0.662414 0.115831
v 0.312299 0.640215 0.040435
v 0.317295 0.620476 -0.067516
v -0.279024 0.635867 -0.099797
v -0.283952 0.655768 0.008121
v -0.207672 0.173593 -0.186526
v 0.218772 0.171464 -0.166961
v -0.224687 0.187873 0.175000
v 0.201832 0.186121 0.193600
v 0.498160 0.175905 -0.049647
v 0.491239 0.179963 0.098609
v -0.503901 0.183272 0.054327
v -0.496996 0.180781 -0.092921
vt -0.916654 0.608121
vt -0.916862 0.616382
vt -0.924891 0.615404
vt -0.924791 0.608101
vt -0.917506 0.623408
vt -0.925434 0.621648
vt -0.929513 0.619639
vt -0.930011 0.614740
vt -0.929975 0.608119
vt -0.917572 0.592905
vt -0.916964 0.599896
vt -0.925003 0.600775
vt -0.925573 0.594625
vt -0.929926 0.601467
vt -0.929831 0.596518
vt -0.934011 0.601175
vt -0.933487 0.594618
vt -0.934020 0.608127
vt -0.937536 0.608153
vt -0.937557 0.600798
vt -0.937561 0.593774
vt -0.934006 0.615075
vt -0.933345 0.621680
vt -0.937511 0.622532
vt -0.937515 0.615508
vt -0.941060 0.615131
vt -0.941052 0.608179
vt -0.941585 0.621687
vt -0.945240 0.619787
vt -0.945146 0.614838
vt -0.945096 0.608187
vt -0.941066 0.601231
vt -0.941726 0.594625
vt -0.945061 0.601566
vt -0.945560 0.596666
vt -0.950180 0.600901
vt -0.949638 0.594658
vt -0.950280 0.608204
vt -0.958418 0.608184
vt -0.958209 0.599924
vt -0.957566 0.592898
vt -0.950069 0.615529
vt -0.949499 0.621680
vt -0.957501 0.623400
vt -0.958108 0.616410
vt -0.919527 0.632496
vt -0.956656 0.628518
vt -0.948313 0.626149
vt -0.928570 0.629197
vt -0.943052 0.622435
vt -0.934006 0.624763
vt -0.918434 0.628512
vt -0.926746 0.625996
vt -0.931762 0.622133
vt -0.955545 0.583810
vt -0.918416 0.587788
vt -0.926759 0.590156
vt -0.946502 0.587108
vt -0.932021 0.593870
vt -0.941066 0.591542
vt -0.956637 0.587793
vt -0.948326 0.590309
vt -0.943311 0.594172
vt -0.904466 0.599393
vt -0.904172 0.608145
vt -0.905024 0.591910
vt -0.890137 0.591184
vt -0.889624 0.598912
vt -0.889327 0.608015
vt -0.904359 0.616922
vt -0.904881 0.624439
vt -0.889439 0.617156
vt -0.889844 0.624954
vt -0.970712 0.599384
vt -0.970191 0.591866
vt -0.970901 0.608160
vt -0.985744 0.608290
vt -0.985632 0.599150
vt -0.985227 0.591351
vt -0.970606 0.616913
vt -0.970047 0.624395
vt -0.984935 0.625121
vt -0.985448 0.617393
vt -0.905427 0.629915
vt -0.969013 0.634100
vt -0.890261 0.630571
vt -0.890600 0.634903
vt -0.969504 0.629844
vt -0.984476 0.630685
vt -0.969645 0.586391
vt -0.906060 0.582205
vt -0.984811 0.585734
vt -0.984471 0.581402
vt -0.905568 0.586461
vt -0.890595 0.585620
vt -0.940898 0.625265
vt -0.955688 0.632523
vt -0.946656 0.629504
vt -0.934174 0.591041
vt -0.919383 0.583782
vt -0.928417 0.586801
vt -0.969132 0.582110
vt -0.890962 0.581321
vt -0.905939 0.634195
vt -0.984110 0.634983
vn 0.049134 0.066885 -0.996550
vn 0.052455 -0.039299 -0.997850
vn 0.229740 -0.021328 -0.973018
vn 0.215834 0.079734 -0.973169
vn 0.428567 0.063426 -0.901281
vn 0.401087 0.141293 -0.905078
vn 0.273106 0.044804 -0.960940
vn 0.449967 0.054261 -0.891395
vn 0.065705 0.062021 -0.995910
vn -0.312814 0.152723 -0.937456
vn -0.329138 0.100564 -0.938912
vn -0.128359 -0.001983 -0.991726
vn -0.122453 0.085861 -0.988753
vn -0.153423 0.069198 -0.985735
vn -0.340240 0.102720 -0.934711
vn -0.559775 0.367435 -0.742728
vn -0.289341 0.511437 -0.809144
vn 0.077623 0.547326 -0.833312
vn -0.407094 0.876789 -0.255961
vn 0.058677 0.963561 -0.260973
vn -0.717973 0.666338 -0.201268
vn 0.422963 0.480157 -0.768473
vn 0.673980 0.304692 -0.672989
vn 0.502550 0.838998 -0.208627
vn 0.796537 0.592580 -0.119907
vn 0.011126 0.887129 0.461387
vn 0.379178 0.800737 0.463729
vn 0.607099 0.618551 0.498824
vn 0.230915 0.559206 0.796220
vn 0.384849 0.537972 0.749985
vn -0.021854 0.591272 0.806176
vn -0.595119 0.678557 0.430574
vn -0.366775 0.828288 0.423574
vn -0.280508 0.588827 0.758023
vn -0.424932 0.587859 0.688371
vn -0.434880 0.443643 0.783620
vn -0.260521 0.398808 0.879250
vn -0.040941 0.376483 0.925518
vn -0.226463 0.181493 0.956961
vn -0.045704 0.150652 0.987530
vn -0.424861 0.253611 0.869008
vn 0.182159 0.370716 0.910707
vn 0.372499 0.396325 0.839149
vn 0.136695 0.164273 0.976898
vn 0.344287 0.221418 0.912382
vn 0.923632 0.382070 0.030454
vn 0.900739 0.434146 -0.013695
vn 0.660803 0.457154 0.595273
vn 0.663245 0.321064 0.676036
vn 0.725769 0.229290 -0.648603
vn 0.709315 0.263599 -0.653749
vn -0.901758 0.427770 -0.062008
vn -0.847516 0.519125 -0.110574
vn -0.628609 0.292675 -0.720550
vn -0.631511 0.290222 -0.719003
vn -0.677226 0.526165 0.514311
vn -0.711221 0.365339 0.600577
vn 0.044444 0.179068 -0.982832
vn -0.125701 0.179962 -0.975609
vn -0.313342 0.204962 -0.927258
vn -0.128465 0.222780 -0.966367
vn -0.316445 0.226491 -0.921175
vn 0.042787 0.227856 -0.972754
vn 0.391226 0.207507 -0.896596
vn 0.209908 0.181926 -0.960646
vn 0.209777 0.226814 -0.951078
vn 0.392492 0.232311 -0.889933
vn -0.398023 0.077278 0.914115
vn -0.195941 0.018278 0.980446
vn -0.044767 -0.003873 0.998990
vn -0.184802 -0.048078 0.981599
vn -0.043025 -0.063815 0.997034
vn -0.393519 0.001811 0.919315
vn 0.106467 0.011214 0.994253
vn 0.312154 0.064159 0.947863
vn 0.098778 -0.049597 0.993873
vn 0.311267 -0.000402 0.950322
vn 0.956438 0.286928 0.053847
vn 0.710721 0.264536 -0.651841
vn 0.711642 0.255281 -0.654521
vn 0.970832 0.238431 0.025223
vn 0.658696 0.169578 0.733051
vn 0.677408 0.103736 0.728257
vn -0.954041 0.297693 -0.034423
vn -0.721484 0.185354 0.667162
vn -0.736963 0.103223 0.668005
vn -0.971185 0.231295 -0.057474
vn -0.647651 0.265829 -0.714061
vn -0.651747 0.246546 -0.717246
s 1
g GrumpusRUpperCanine
usemtl lambert12SG
f 13/1/1 66/4/2 70/3/3 65/2/4
f 65/2/4 70/3/3 67/6/5 5/5/6
f 70/3/3 68/8/7 2/7/8 67/6/5
f 66/4/2 6/9/9 68/8/7 70/3/3
f 12/10/10 26/13/11 71/12/12 69/11/13
f 69/11/13 71/12/12 66/4/2 13/1/1
f 71/12/12 27/14/14 6/9/9 66/4/2
f 26/13/11 1/15/15 27/14/14 71/12/12
f 1/15/15 28/17/16 72/16/17 27/14/14
f 27/14/14 72/16/17 29/18/18 6/9/9
f 72/16/17 30/20/19 14/19/20 29/18/18
f 28/17/16 7/21/21 30/20/19 72/16/17
f 6/9/9 29/18/18 73/22/22 68/8/7
f 68/8/7 73/22/22 31/23/23 2/7/8
f 73/22/22 32/25/24 8/24/25 31/23/23
f 29/18/18 14/19/20 32/25/24 73/22/22
f 14/19/20 33/27/26 74/26/27 32/25/24
f 32/25/24 74/26/27 34/28/28 8/24/25
f 74/26/27 35/30/29 4/29/30 34/28/28
f 33/27/26 9/31/31 35/30/29 74/26/27
f 7/21/21 36/33/32 75/32/33 30/20/19
f 30/20/19 75/32/33 33/27/26 14/19/20
f 75/32/33 37/34/34 9/31/31 33/27/26
f 36/33/32 3/35/35 37/34/34 75/32/33
f 3/35/35 38/37/36 76/36/37 37/34/34
f 37/34/34 76/36/37 39/38/38 9/31/31
f 76/36/37 40/40/39 15/39/40 39/38/38
f 38/37/36 10/41/41 40/40/39 76/36/37
f 9/31/31 39/38/38 77/42/42 35/30/29
f 35/30/29 77/42/42 41/43/43 4/29/30
f 77/42/42 42/45/44 11/44/45 41/43/43
f 39/38/38 15/39/40 42/45/44 77/42/42
f 16/97/46 44/98/47 78/48/48 43/47/49
f 43/47/49 78/48/48 41/43/43 11/44/45
f 78/48/48 34/50/28 4/29/30 41/43/43
f 44/98/47 8/96/25 34/50/28 78/48/48
f 5/5/6 67/6/5 79/53/50 45/52/51
f 45/52/51 79/53/50 44/49/47 16/46/46
f 79/53/50 31/54/23 8/51/25 44/49/47
f 67/6/5 2/7/8 31/54/23 79/53/50
f 17/100/52 47/101/53 80/57/54 46/56/55
f 46/56/55 80/57/54 26/13/11 12/10/10
f 80/57/54 28/59/16 1/15/15 26/13/11
f 47/101/53 7/99/21 28/59/16 80/57/54
f 10/41/41 38/37/36 81/62/56 48/61/57
f 48/61/57 81/62/56 47/58/53 17/55/52
f 81/62/56 36/63/32 7/60/21 47/58/53
f 38/37/36 3/35/35 36/63/32 81/62/56
f 13/1/1 49/65/58 82/64/59 69/11/13
f 69/11/13 82/64/59 50/66/60 12/10/10
f 82/64/59 51/68/61 19/67/62 50/66/60
f 49/65/58 18/69/63 51/68/61 82/64/59
f 5/5/6 52/71/64 83/70/65 65/2/4
f 65/2/4 83/70/65 49/65/58 13/1/1
f 83/70/65 53/72/66 18/69/63 49/65/58
f 52/71/64 20/73/67 53/72/66 83/70/65
f 10/41/41 54/75/68 84/74/69 40/40/39
f 40/40/39 84/74/69 55/76/70 15/39/40
f 84/74/69 56/78/71 21/77/72 55/76/70
f 54/75/68 22/79/73 56/78/71 84/74/69
f 15/39/40 55/76/70 85/80/74 42/45/44
f 42/45/44 85/80/74 57/81/75 11/44/45
f 85/80/74 58/83/76 23/82/77 57/81/75
f 55/76/70 21/77/72 58/83/76 85/80/74
f 16/46/46 59/104/78 86/84/79 45/52/51
f 45/52/51 86/84/79 52/71/64 5/5/6
f 86/84/79 60/86/80 20/73/67 52/71/64
f 59/104/78 24/87/81 60/86/80 86/84/79
f 11/44/45 57/81/75 87/88/82 43/47/49
f 43/47/49 87/88/82 59/85/78 16/97/46
f 87/88/82 61/89/83 24/105/81 59/85/78
f 57/81/75 23/82/77 61/89/83 87/88/82
f 17/55/52 62/102/84 88/90/85 48/61/57
f 48/61/57 88/90/85 54/75/68 10/41/41
f 88/90/85 63/92/86 22/79/73 54/75/68
f 62/102/84 25/93/87 63/92/86 88/90/85
f 12/10/10 50/66/60 89/94/88 46/56/55
f 46/56/55 89/94/88 62/91/84 17/100/52
f 89/94/88 64/95/89 25/103/87 62/91/84
f 50/66/60 19/67/62 64/95/89 89/94/88
