# This file uses centimeters as units for non-parametric coordinates.

mtllib BefficaLUpperLeg.mtl
g default
v 0.957260 0.105238 -0.000001
v 0.957260 0.091138 -0.052619
v 0.957260 0.052619 -0.091139
v 0.957260 -0.000000 -0.105238
v 0.957260 -0.052619 -0.091138
v 0.957260 -0.091139 -0.052619
v 0.957260 -0.105238 0.000000
v 0.957260 -0.091138 0.052619
v 0.957260 -0.052619 0.091139
v 0.957260 0.000000 0.105238
v 0.957260 0.052619 0.091138
v 0.957260 0.091139 0.052619
v 0.897648 0.194454 -0.000001
v 0.897648 0.168402 -0.097228
v 0.897648 0.097226 -0.168403
v 0.897648 -0.000001 -0.194454
v 0.897648 -0.097228 -0.168402
v 0.897648 -0.168403 -0.097226
v 0.897648 -0.194454 0.000001
v 0.897648 -0.168402 0.097228
v 0.897648 -0.097226 0.168403
v 0.897648 0.000001 0.194454
v 0.897648 0.097228 0.168402
v 0.897648 0.168403 0.097226
v 0.808432 0.254067 -0.000001
v 0.808432 0.220028 -0.127034
v 0.808432 0.127032 -0.220029
v 0.808432 -0.000001 -0.254067
v 0.808432 -0.127034 -0.220028
v 0.808432 -0.220029 -0.127032
v 0.808432 -0.254067 0.000001
v 0.808432 -0.220028 0.127034
v 0.808432 -0.127032 0.220029
v 0.808432 0.000001 0.254067
v 0.808432 0.127034 0.220028
v 0.808432 0.220029 0.127032
v 0.703194 0.281254 -0.000001
v 0.703194 0.243572 -0.140628
v 0.703194 0.140626 -0.243574
v 0.703194 -0.000001 -0.281254
v 0.703194 -0.140628 -0.243572
v 0.703194 -0.243574 -0.140626
v 0.703194 -0.281254 0.000001
v 0.703194 -0.243572 0.140628
v 0.703194 -0.140626 0.243574
v 0.703194 0.000001 0.281254
v 0.703194 0.140628 0.243572
v 0.703194 0.243574 0.140626
v 0.351598 0.353175 -0.000002
v 0.351598 0.305858 -0.176589
v 0.351598 0.176586 -0.305859
v 0.351598 -0.000002 -0.353175
v 0.351598 -0.176589 -0.305858
v 0.351598 -0.305860 -0.176586
v 0.351598 -0.353175 0.000002
v 0.351598 -0.305858 0.176589
v 0.351598 -0.176586 0.305859
v 0.351598 0.000002 0.353175
v 0.351598 0.176589 0.305858
v 0.351598 0.305860 0.176586
v 0.000000 0.431350 -0.000002
v 0.000000 0.373559 -0.215677
v 0.000000 0.215673 -0.373561
v 0.000000 -0.000002 -0.431350
v 0.000000 -0.215677 -0.373559
v 0.000000 -0.373561 -0.215673
v 0.000000 -0.431350 0.000002
v 0.000000 -0.373559 0.215677
v 0.000000 -0.215673 0.373561
v 0.000000 0.000002 0.431350
v 0.000000 0.215677 0.373559
v 0.000000 0.373561 0.215673
v -0.351603 0.509526 -0.000002
v -0.351603 0.441261 -0.254765
v -0.351603 0.254761 -0.441263
v -0.351603 -0.000002 -0.509526
v -0.351603 -0.254765 -0.441261
v -0.351603 -0.441263 -0.254761
v -0.351603 -0.509526 0.000002
v -0.351603 -0.441261 0.254765
v -0.351603 -0.254761 0.441263
v -0.351603 0.000002 0.509526
v -0.351603 0.254765 0.441261
v -0.351603 0.441263 0.254761
v -0.703194 0.579185 -0.000003
v -0.703194 0.501587 -0.289595
v -0.703194 0.289590 -0.501590
v -0.703194 -0.000003 -0.579185
v -0.703194 -0.289595 -0.501587
v -0.703194 -0.501590 -0.289590
v -0.703194 -0.579185 0.000003
v -0.703194 -0.501587 0.289595
v -0.703194 -0.289590 0.501590
v -0.703194 0.000003 0.579185
v -0.703194 0.289595 0.501587
v -0.703194 0.501590 0.289590
v -0.928098 0.542965 -0.000003
v -0.928098 0.470220 -0.271484
v -0.928098 0.271480 -0.470222
v -0.928098 -0.000003 -0.542965
v -0.928098 -0.271484 -0.470220
v -0.928098 -0.470222 -0.271480
v -0.928098 -0.542965 0.000003
v -0.928098 -0.470220 0.271484
v -0.928098 -0.271480 0.470222
v -0.928098 0.000003 0.542965
v -0.928098 0.271484 0.470220
v -0.928098 0.470222 0.271480
v -1.118762 0.415567 -0.000002
v -1.118762 0.359891 -0.207785
v -1.118762 0.207782 -0.359893
v -1.118762 -0.000002 -0.415567
v -1.118762 -0.207785 -0.359891
v -1.118762 -0.359893 -0.207782
v -1.118762 -0.415567 0.000002
v -1.118762 -0.359891 0.207785
v -1.118762 -0.207782 0.359893
v -1.118762 0.000002 0.415567
v -1.118762 0.207785 0.359891
v -1.118762 0.359893 0.207782
v -1.246159 0.224903 -0.000001
v -1.246159 0.194771 -0.112453
v -1.246159 0.112451 -0.194772
v -1.246159 -0.000001 -0.224903
v -1.246159 -0.112453 -0.194771
v -1.246159 -0.194773 -0.112451
v -1.246159 -0.224903 0.000001
v -1.246159 -0.194771 0.112453
v -1.246159 -0.112451 0.194772
v -1.246159 0.000001 0.224903
v -1.246159 0.112453 0.194771
v -1.246159 0.194773 0.112451
v 0.978194 -0.000000 -0.000000
v -1.290895 -0.000000 -0.000000
vt 0.514302 0.048357
vt 0.508890 0.053674
vt 0.506786 0.060912
vt 0.508478 0.068255
vt 0.513577 0.073867
vt 0.520868 0.076253
vt 0.528480 0.074650
vt 0.534307 0.069348
vt 0.536631 0.061760
vt 0.534746 0.054052
vt 0.529232 0.048423
vt 0.521721 0.046387
vt 0.507254 0.036120
vt 0.496549 0.046634
vt 0.492548 0.061101
vt 0.496329 0.075626
vt 0.506871 0.086298
vt 0.521324 0.090248
vt 0.535788 0.086442
vt 0.546401 0.075940
vt 0.550366 0.061558
vt 0.546642 0.047106
vt 0.536191 0.036423
vt 0.521774 0.032387
vt 0.500776 0.024949
vt 0.485326 0.040218
vt 0.479610 0.061195
vt 0.485189 0.082211
vt 0.500542 0.097580
vt 0.521493 0.103179
vt 0.542389 0.097558
vt 0.557658 0.082288
vt 0.563281 0.061468
vt 0.557792 0.040611
vt 0.542621 0.025242
vt 0.521762 0.019486
vt 0.493643 0.013571
vt 0.473499 0.033938
vt 0.466243 0.061653
vt 0.473823 0.089282
vt 0.494204 0.109414
vt 0.521916 0.116651
vt 0.549526 0.109063
vt 0.569641 0.088695
vt 0.576882 0.061004
vt 0.569315 0.033401
vt 0.548963 0.013271
vt 0.521266 0.006009
vt 0.640498 0.748516
vt 0.640498 0.728305
vt 0.640497 0.708094
vt 0.640497 0.687884
vt 0.640497 0.667673
vt 0.640496 0.647462
vt 0.640496 0.627251
vt 0.640496 0.607040
vt 0.640495 0.586829
vt 0.640495 0.566618
vt 0.640494 0.546407
vt 0.640494 0.526196
vt 0.640493 0.505985
vt 0.683092 0.748516
vt 0.683092 0.728305
vt 0.683091 0.708094
vt 0.683091 0.687883
vt 0.683091 0.667672
vt 0.683090 0.647461
vt 0.683090 0.627250
vt 0.683089 0.607039
vt 0.683089 0.586828
vt 0.683089 0.566617
vt 0.683088 0.546406
vt 0.683088 0.526195
vt 0.683087 0.505984
vt 0.725686 0.748515
vt 0.725686 0.728304
vt 0.725686 0.708093
vt 0.725685 0.687882
vt 0.725685 0.667671
vt 0.725684 0.647460
vt 0.725684 0.627249
vt 0.725684 0.607038
vt 0.725683 0.586827
vt 0.725683 0.566616
vt 0.725682 0.546405
vt 0.725682 0.526194
vt 0.725682 0.505983
vt 0.768281 0.748514
vt 0.768280 0.728303
vt 0.768280 0.708092
vt 0.768279 0.687881
vt 0.768279 0.667670
vt 0.768278 0.647459
vt 0.768278 0.627248
vt 0.768278 0.607037
vt 0.768277 0.586826
vt 0.768277 0.566615
vt 0.768276 0.546404
vt 0.768276 0.526193
vt 0.768276 0.505982
vt 0.810874 0.748513
vt 0.810874 0.728302
vt 0.810874 0.708091
vt 0.810873 0.687880
vt 0.810873 0.667669
vt 0.810872 0.647458
vt 0.810872 0.627247
vt 0.810872 0.607036
vt 0.810871 0.586825
vt 0.810871 0.566614
vt 0.810870 0.546403
vt 0.810870 0.526192
vt 0.810870 0.505982
vt 0.378736 0.128146
vt 0.358608 0.148516
vt 0.351361 0.176221
vt 0.358939 0.203838
vt 0.379310 0.223966
vt 0.407015 0.231211
vt 0.434630 0.223633
vt 0.454756 0.203263
vt 0.462001 0.175559
vt 0.454425 0.147945
vt 0.434056 0.127817
vt 0.406353 0.120570
vt 0.385886 0.139502
vt 0.370420 0.154762
vt 0.364692 0.175745
vt 0.370270 0.196771
vt 0.385630 0.212143
vt 0.406584 0.217734
vt 0.427470 0.212107
vt 0.442725 0.196843
vt 0.448345 0.176041
vt 0.442870 0.155199
vt 0.427721 0.139830
vt 0.406875 0.134058
vt 0.392327 0.150619
vt 0.381581 0.161156
vt 0.377565 0.175670
vt 0.381368 0.190240
vt 0.391955 0.200931
vt 0.406450 0.204865
vt 0.420929 0.201024
vt 0.431530 0.190496
vt 0.435481 0.176113
vt 0.431760 0.161663
vt 0.421318 0.150963
vt 0.406887 0.146898
vt 0.399356 0.162905
vt 0.393967 0.168239
vt 0.391875 0.175468
vt 0.393552 0.182801
vt 0.398624 0.188429
vt 0.405909 0.190865
vt 0.413569 0.189310
vt 0.419482 0.183999
vt 0.421855 0.176329
vt 0.419935 0.168531
vt 0.414339 0.162882
vt 0.406774 0.160888
vt 0.522023 0.061344
vt 0.407159 0.175919
vn 0.924244 0.381802 -0.000002
vn 0.924244 0.330649 -0.190903
vn 0.708039 0.611562 -0.353090
vn 0.708039 0.706173 -0.000004
vn 0.924244 0.190900 -0.330651
vn 0.708039 0.353084 -0.611566
vn 0.924244 -0.000002 -0.381802
vn 0.708039 -0.000003 -0.706173
vn 0.924244 -0.190903 -0.330649
vn 0.708039 -0.353090 -0.611562
vn 0.924244 -0.330651 -0.190900
vn 0.708039 -0.611566 -0.353083
vn 0.924244 -0.381802 0.000002
vn 0.708039 -0.706173 0.000004
vn 0.924244 -0.330649 0.190903
vn 0.708039 -0.611562 0.353090
vn 0.924244 -0.190900 0.330651
vn 0.708039 -0.353084 0.611566
vn 0.924244 0.000002 0.381802
vn 0.708039 0.000003 0.706173
vn 0.924244 0.190903 0.330649
vn 0.708039 0.353090 0.611562
vn 0.924244 0.330651 0.190900
vn 0.708039 0.611566 0.353084
vn 0.409256 0.790176 -0.456213
vn 0.409256 0.912419 -0.000004
vn 0.409257 0.456206 -0.790181
vn 0.409256 -0.000004 -0.912419
vn 0.409256 -0.456213 -0.790176
vn 0.409256 -0.790181 -0.456206
vn 0.409257 -0.912419 0.000004
vn 0.409257 -0.790176 0.456213
vn 0.409257 -0.456206 0.790181
vn 0.409256 0.000004 0.912419
vn 0.409256 0.456213 0.790176
vn 0.409256 0.790181 0.456206
vn 0.225350 0.843747 -0.487143
vn 0.225350 0.974278 -0.000005
vn 0.225350 0.487135 -0.843752
vn 0.225350 -0.000004 -0.974278
vn 0.225350 -0.487143 -0.843747
vn 0.225350 -0.843752 -0.487135
vn 0.225350 -0.974278 0.000005
vn 0.225350 -0.843747 0.487143
vn 0.225350 -0.487135 0.843752
vn 0.225350 0.000004 0.974278
vn 0.225350 0.487143 0.843747
vn 0.225350 0.843752 0.487135
vn 0.208733 0.846947 -0.488990
vn 0.208733 0.977973 -0.000005
vn 0.208733 0.488982 -0.846951
vn 0.208733 -0.000005 -0.977973
vn 0.208733 -0.488990 -0.846947
vn 0.208733 -0.846951 -0.488983
vn 0.208733 -0.977973 0.000005
vn 0.208733 -0.846947 0.488990
vn 0.208733 -0.488982 0.846951
vn 0.208733 0.000004 0.977973
vn 0.208733 0.488990 0.846947
vn 0.208733 0.846951 0.488983
vn 0.217041 0.845379 -0.488085
vn 0.217041 0.976162 -0.000005
vn 0.217041 0.488077 -0.845384
vn 0.217041 -0.000004 -0.976163
vn 0.217041 -0.488085 -0.845379
vn 0.217041 -0.845384 -0.488077
vn 0.217041 -0.976162 0.000005
vn 0.217041 -0.845379 0.488085
vn 0.217041 -0.488077 0.845384
vn 0.217041 0.000004 0.976162
vn 0.217041 0.488085 0.845379
vn 0.217041 0.845384 0.488077
vn 0.205709 0.847502 -0.489311
vn 0.205709 0.978613 -0.000005
vn 0.205709 0.489303 -0.847506
vn 0.205709 -0.000004 -0.978613
vn 0.205709 -0.489310 -0.847502
vn 0.205709 -0.847506 -0.489303
vn 0.205709 -0.978613 0.000005
vn 0.205709 -0.847502 0.489311
vn 0.205709 -0.489303 0.847506
vn 0.205709 0.000005 0.978613
vn 0.205709 0.489311 0.847502
vn 0.205709 0.847506 0.489303
vn 0.017995 0.865883 -0.499923
vn 0.017995 0.999838 -0.000005
vn 0.017995 0.499915 -0.865888
vn 0.017995 -0.000005 -0.999838
vn 0.017995 -0.499923 -0.865883
vn 0.017995 -0.865887 -0.499915
vn 0.017995 -0.999838 0.000005
vn 0.017995 -0.865883 0.499923
vn 0.017995 -0.499915 0.865887
vn 0.017995 0.000005 0.999838
vn 0.017995 0.499923 0.865883
vn 0.017995 0.865888 0.499915
vn -0.366653 0.805711 -0.465183
vn -0.366653 0.930358 -0.000004
vn -0.366653 0.465175 -0.805716
vn -0.366653 -0.000004 -0.930358
vn -0.366653 -0.465183 -0.805712
vn -0.366653 -0.805716 -0.465175
vn -0.366653 -0.930358 0.000004
vn -0.366653 -0.805712 0.465183
vn -0.366653 -0.465175 0.805716
vn -0.366653 0.000004 0.930358
vn -0.366653 0.465183 0.805712
vn -0.366653 0.805716 0.465175
vn -0.708039 0.611563 -0.353089
vn -0.708039 0.706173 -0.000003
vn -0.708039 0.353084 -0.611566
vn -0.708039 -0.000003 -0.706174
vn -0.708039 -0.353089 -0.611563
vn -0.708039 -0.611566 -0.353084
vn -0.708039 -0.706173 0.000003
vn -0.708039 -0.611563 0.353089
vn -0.708039 -0.353084 0.611566
vn -0.708039 0.000003 0.706174
vn -0.708039 0.353090 0.611563
vn -0.708039 0.611566 0.353084
vn -0.924244 0.330649 -0.190902
vn -0.924244 0.381801 -0.000002
vn -0.924244 0.190899 -0.330651
vn -0.924244 -0.000002 -0.381802
vn -0.924244 -0.190902 -0.330649
vn -0.924244 -0.330651 -0.190899
vn -0.924244 -0.381801 0.000002
vn -0.924244 -0.330649 0.190902
vn -0.924244 -0.190899 0.330651
vn -0.924244 0.000002 0.381802
vn -0.924244 0.190902 0.330649
vn -0.924244 0.330651 0.190899
vn 1.000000 0.000000 -0.000000
vn -1.000000 0.000000 0.000000
s 1
g GrumpusLUpperLeg
usemtl initialShadingGroup
f 1/1/1 2/2/2 14/14/3 13/13/4
f 2/2/2 3/3/5 15/15/6 14/14/3
f 3/3/5 4/4/7 16/16/8 15/15/6
f 4/4/7 5/5/9 17/17/10 16/16/8
f 5/5/9 6/6/11 18/18/12 17/17/10
f 6/6/11 7/7/13 19/19/14 18/18/12
f 7/7/13 8/8/15 20/20/16 19/19/14
f 8/8/15 9/9/17 21/21/18 20/20/16
f 9/9/17 10/10/19 22/22/20 21/21/18
f 10/10/19 11/11/21 23/23/22 22/22/20
f 11/11/21 12/12/23 24/24/24 23/23/22
f 12/12/23 1/1/1 13/13/4 24/24/24
f 13/13/4 14/14/3 26/26/25 25/25/26
f 14/14/3 15/15/6 27/27/27 26/26/25
f 15/15/6 16/16/8 28/28/28 27/27/27
f 16/16/8 17/17/10 29/29/29 28/28/28
f 17/17/10 18/18/12 30/30/30 29/29/29
f 18/18/12 19/19/14 31/31/31 30/30/30
f 19/19/14 20/20/16 32/32/32 31/31/31
f 20/20/16 21/21/18 33/33/33 32/32/32
f 21/21/18 22/22/20 34/34/34 33/33/33
f 22/22/20 23/23/22 35/35/35 34/34/34
f 23/23/22 24/24/24 36/36/36 35/35/35
f 24/24/24 13/13/4 25/25/26 36/36/36
f 25/25/26 26/26/25 38/38/37 37/37/38
f 26/26/25 27/27/27 39/39/39 38/38/37
f 27/27/27 28/28/28 40/40/40 39/39/39
f 28/28/28 29/29/29 41/41/41 40/40/40
f 29/29/29 30/30/30 42/42/42 41/41/41
f 30/30/30 31/31/31 43/43/43 42/42/42
f 31/31/31 32/32/32 44/44/44 43/43/43
f 32/32/32 33/33/33 45/45/45 44/44/44
f 33/33/33 34/34/34 46/46/46 45/45/45
f 34/34/34 35/35/35 47/47/47 46/46/46
f 35/35/35 36/36/36 48/48/48 47/47/47
f 36/36/36 25/25/26 37/37/38 48/48/48
f 37/49/38 38/50/37 50/63/49 49/62/50
f 38/50/37 39/51/39 51/64/51 50/63/49
f 39/51/39 40/52/40 52/65/52 51/64/51
f 40/52/40 41/53/41 53/66/53 52/65/52
f 41/53/41 42/54/42 54/67/54 53/66/53
f 42/54/42 43/55/43 55/68/55 54/67/54
f 43/55/43 44/56/44 56/69/56 55/68/55
f 44/56/44 45/57/45 57/70/57 56/69/56
f 45/57/45 46/58/46 58/71/58 57/70/57
f 46/58/46 47/59/47 59/72/59 58/71/58
f 47/59/47 48/60/48 60/73/60 59/72/59
f 48/60/48 37/61/38 49/74/50 60/73/60
f 49/62/50 50/63/49 62/76/61 61/75/62
f 50/63/49 51/64/51 63/77/63 62/76/61
f 51/64/51 52/65/52 64/78/64 63/77/63
f 52/65/52 53/66/53 65/79/65 64/78/64
f 53/66/53 54/67/54 66/80/66 65/79/65
f 54/67/54 55/68/55 67/81/67 66/80/66
f 55/68/55 56/69/56 68/82/68 67/81/67
f 56/69/56 57/70/57 69/83/69 68/82/68
f 57/70/57 58/71/58 70/84/70 69/83/69
f 58/71/58 59/72/59 71/85/71 70/84/70
f 59/72/59 60/73/60 72/86/72 71/85/71
f 60/73/60 49/74/50 61/87/62 72/86/72
f 61/75/62 62/76/61 74/89/73 73/88/74
f 62/76/61 63/77/63 75/90/75 74/89/73
f 63/77/63 64/78/64 76/91/76 75/90/75
f 64/78/64 65/79/65 77/92/77 76/91/76
f 65/79/65 66/80/66 78/93/78 77/92/77
f 66/80/66 67/81/67 79/94/79 78/93/78
f 67/81/67 68/82/68 80/95/80 79/94/79
f 68/82/68 69/83/69 81/96/81 80/95/80
f 69/83/69 70/84/70 82/97/82 81/96/81
f 70/84/70 71/85/71 83/98/83 82/97/82
f 71/85/71 72/86/72 84/99/84 83/98/83
f 72/86/72 61/87/62 73/100/74 84/99/84
f 73/88/74 74/89/73 86/102/85 85/101/86
f 74/89/73 75/90/75 87/103/87 86/102/85
f 75/90/75 76/91/76 88/104/88 87/103/87
f 76/91/76 77/92/77 89/105/89 88/104/88
f 77/92/77 78/93/78 90/106/90 89/105/89
f 78/93/78 79/94/79 91/107/91 90/106/90
f 79/94/79 80/95/80 92/108/92 91/107/91
f 80/95/80 81/96/81 93/109/93 92/108/92
f 81/96/81 82/97/82 94/110/94 93/109/93
f 82/97/82 83/98/83 95/111/95 94/110/94
f 83/98/83 84/99/84 96/112/96 95/111/95
f 84/99/84 73/100/74 85/113/86 96/112/96
f 85/124/86 86/123/85 98/135/97 97/136/98
f 86/123/85 87/122/87 99/134/99 98/135/97
f 87/122/87 88/121/88 100/133/100 99/134/99
f 88/121/88 89/120/89 101/132/101 100/133/100
f 89/120/89 90/119/90 102/131/102 101/132/101
f 90/119/90 91/118/91 103/130/103 102/131/102
f 91/118/91 92/117/92 104/129/104 103/130/103
f 92/117/92 93/116/93 105/128/105 104/129/104
f 93/116/93 94/115/94 106/127/106 105/128/105
f 94/115/94 95/114/95 107/126/107 106/127/106
f 95/114/95 96/125/96 108/137/108 107/126/107
f 96/125/96 85/124/86 97/136/98 108/137/108
f 97/136/98 98/135/97 110/147/109 109/148/110
f 98/135/97 99/134/99 111/146/111 110/147/109
f 99/134/99 100/133/100 112/145/112 111/146/111
f 100/133/100 101/132/101 113/144/113 112/145/112
f 101/132/101 102/131/102 114/143/114 113/144/113
f 102/131/102 103/130/103 115/142/115 114/143/114
f 103/130/103 104/129/104 116/141/116 115/142/115
f 104/129/104 105/128/105 117/140/117 116/141/116
f 105/128/105 106/127/106 118/139/118 117/140/117
f 106/127/106 107/126/107 119/138/119 118/139/118
f 107/126/107 108/137/108 120/149/120 119/138/119
f 108/137/108 97/136/98 109/148/110 120/149/120
f 109/148/110 110/147/109 122/159/121 121/160/122
f 110/147/109 111/146/111 123/158/123 122/159/121
f 111/146/111 112/145/112 124/157/124 123/158/123
f 112/145/112 113/144/113 125/156/125 124/157/124
f 113/144/113 114/143/114 126/155/126 125/156/125
f 114/143/114 115/142/115 127/154/127 126/155/126
f 115/142/115 116/141/116 128/153/128 127/154/127
f 116/141/116 117/140/117 129/152/129 128/153/128
f 117/140/117 118/139/118 130/151/130 129/152/129
f 118/139/118 119/138/119 131/150/131 130/151/130
f 119/138/119 120/149/120 132/161/132 131/150/131
f 120/149/120 109/148/110 121/160/122 132/161/132
f 2/2/2 1/1/1 133/162/133
f 3/3/5 2/2/2 133/162/133
f 4/4/7 3/3/5 133/162/133
f 5/5/9 4/4/7 133/162/133
f 6/6/11 5/5/9 133/162/133
f 7/7/13 6/6/11 133/162/133
f 8/8/15 7/7/13 133/162/133
f 9/9/17 8/8/15 133/162/133
f 10/10/19 9/9/17 133/162/133
f 11/11/21 10/10/19 133/162/133
f 12/12/23 11/11/21 133/162/133
f 1/1/1 12/12/23 133/162/133
f 121/160/122 122/159/121 134/163/134
f 122/159/121 123/158/123 134/163/134
f 123/158/123 124/157/124 134/163/134
f 124/157/124 125/156/125 134/163/134
f 125/156/125 126/155/126 134/163/134
f 126/155/126 127/154/127 134/163/134
f 127/154/127 128/153/128 134/163/134
f 128/153/128 129/152/129 134/163/134
f 129/152/129 130/151/130 134/163/134
f 130/151/130 131/150/131 134/163/134
f 131/150/131 132/161/132 134/163/134
f 132/161/132 121/160/122 134/163/134
