# This file uses centimeters as units for non-parametric coordinates.

mtllib SplitMediumRUpperLeg.mtl
g default
v 0.646767 0.381050 0.322008
v 0.702752 0.602455 0.006502
v 0.773457 0.616650 -0.391943
v 0.826525 0.372276 -0.691016
v 0.220330 0.367026 0.259868
v 0.226705 0.580287 -0.048627
v 0.234760 0.593959 -0.438410
v 0.240803 0.358575 -0.730837
v -0.216312 0.339390 0.245118
v -0.254493 0.536600 -0.037486
v -0.302786 0.549244 -0.394926
v -0.338978 0.331575 -0.662804
v -0.665262 0.289125 0.268110
v -0.734466 0.457139 0.035569
v -0.822210 0.467911 -0.259283
v -0.887799 0.282466 -0.479691
v -1.020968 0.215735 0.288144
v -1.091828 0.341125 0.122794
v -1.182723 0.349164 -0.089310
v -1.249859 0.210766 -0.245972
v -1.221208 0.124487 0.242102
v -1.265931 0.196881 0.151353
v -1.326015 0.201523 0.029434
v -1.368325 0.121618 -0.056418
v -1.138426 -0.000160 0.014060
v -0.779453 -0.000160 -0.115611
v -0.279255 -0.000160 -0.220758
v 0.230835 -0.000160 -0.248486
v 0.739005 -0.000160 -0.197799
v 0.627594 0.024688 0.430059
v 0.631477 -0.000160 0.412097
v 0.850028 0.025308 -0.823468
v 0.847418 -0.000160 -0.806098
v 0.218149 0.024666 0.365351
v 0.220770 -0.000160 0.347141
v 0.243475 0.025308 -0.860094
v 0.244656 -0.000160 -0.842575
v -0.203305 0.024644 0.341395
v -0.201689 -0.000160 0.323033
v -0.354907 0.025286 -0.780703
v -0.349698 -0.000160 -0.763885
v -0.639704 0.024618 0.346617
v -0.639725 -0.000160 0.328155
v -0.916387 0.025229 -0.575753
v -0.906398 -0.000160 -0.561081
v -0.997183 0.024212 0.343647
v -0.989787 -0.000160 0.325049
v -1.278806 0.024808 -0.313520
v -1.262036 -0.000160 -0.305177
v -1.189793 -0.000160 0.259515
v -1.206139 0.023305 0.272679
v -1.386450 0.023370 -0.093195
v -1.365773 -0.000160 -0.098154
v -1.349572 0.024810 0.115995
v -1.332459 -0.000160 0.107516
v 1.062696 0.379600 0.427443
v 1.166305 0.600162 0.125520
v 1.297160 0.614304 -0.255792
v 1.395374 0.370860 -0.541990
v 1.032822 -0.000160 0.513289
v 1.027218 0.024693 0.530825
v 1.438859 0.025326 -0.668707
v 1.432918 -0.000160 -0.652205
v 1.233401 -0.000160 -0.069994
v 1.231861 0.223830 -0.065734
vt 0.274712 0.707940
vt 0.245683 0.708634
vt 0.246466 0.673242
vt 0.275503 0.675022
vt 0.215333 0.709653
vt 0.216154 0.670747
vt 0.186189 0.710829
vt 0.187232 0.667797
vt 0.250622 0.638135
vt 0.278429 0.642116
vt 0.222013 0.632375
vt 0.194874 0.625469
vt 0.258155 0.603593
vt 0.283436 0.609049
vt 0.232642 0.595258
vt 0.208984 0.584969
vt 0.268596 0.569584
vt 0.289441 0.575211
vt 0.248225 0.560208
vt 0.230459 0.547916
vt 0.278140 0.543777
vt 0.293243 0.547895
vt 0.263904 0.535927
vt 0.253218 0.524685
vt 0.283457 0.528696
vt 0.292696 0.530462
vt 0.274704 0.523433
vt 0.269294 0.516019
vt 0.512620 0.689976
vt 0.514920 0.690015
vt 0.516198 0.720993
vt 0.513905 0.721167
vt 0.418650 0.686707
vt 0.420951 0.686816
vt 0.422415 0.731277
vt 0.420132 0.731579
vt 0.520088 0.751933
vt 0.517814 0.752267
vt 0.432109 0.774596
vt 0.429928 0.775335
vt 0.526777 0.782943
vt 0.524523 0.783400
vt 0.449332 0.815220
vt 0.447351 0.816396
vt 0.535540 0.814536
vt 0.533313 0.815110
vt 0.474306 0.851060
vt 0.472686 0.852703
vt 0.541916 0.840700
vt 0.539562 0.840602
vt 0.499156 0.871799
vt 0.498356 0.873991
vt 0.540480 0.857514
vt 0.538452 0.856306
vt 0.515890 0.875480
vt 0.516659 0.877730
vt 0.531569 0.871148
vt 0.530063 0.869360
vt 0.302549 0.707527
vt 0.303299 0.676149
vt 0.158627 0.712065
vt 0.160087 0.664819
vt 0.305135 0.644349
vt 0.169306 0.618299
vt 0.307706 0.611522
vt 0.187126 0.574170
vt 0.310148 0.576747
vt 0.214687 0.534970
vt 0.307645 0.546911
vt 0.244692 0.512665
vt 0.300130 0.528549
vt 0.266625 0.508330
vt 0.286153 0.514094
vt 0.468214 0.726269
vt 0.466738 0.688377
vt 0.474941 0.763596
vt 0.486953 0.799594
vt 0.503962 0.833549
vt 0.519859 0.857038
vt 0.422142 0.535246
vt 0.429056 0.547476
vt 0.409609 0.544312
vt 0.409232 0.528415
vt 0.395527 0.531565
vt 0.427008 0.560765
vt 0.426016 0.561284
vt 0.385871 0.541812
vt 0.385703 0.540705
vt 0.405922 0.551537
vn -0.242195 0.614720 0.750640
vn -0.079373 0.959625 0.269851
vn -0.070725 0.959037 0.274310
vn -0.162690 0.613717 0.772582
vn -0.079373 0.959625 0.269851
vn 0.121284 0.939695 -0.319786
vn 0.040828 0.940062 -0.338551
vn -0.070725 0.959037 0.274310
vn 0.121284 0.939695 -0.319786
vn 0.272473 0.583268 -0.765217
vn 0.125828 0.583857 -0.802046
vn 0.040828 0.940062 -0.338551
vn -0.162690 0.613717 0.772582
vn -0.070725 0.959037 0.274310
vn -0.077564 0.956777 0.280289
vn -0.099230 0.612046 0.784572
vn -0.070725 0.959037 0.274310
vn 0.040828 0.940062 -0.338551
vn -0.055812 0.938412 -0.340981
vn -0.077564 0.956777 0.280289
vn 0.040828 0.940062 -0.338551
vn 0.125828 0.583857 -0.802046
vn -0.037194 0.583361 -0.811361
vn -0.055812 0.938412 -0.340981
vn -0.099230 0.612046 0.784572
vn -0.077564 0.956777 0.280289
vn -0.092596 0.950480 0.296671
vn -0.044749 0.607138 0.793335
vn -0.077564 0.956777 0.280289
vn -0.055812 0.938412 -0.340981
vn -0.160017 0.934466 -0.318069
vn -0.092596 0.950480 0.296671
vn -0.055812 0.938412 -0.340981
vn -0.037194 0.583361 -0.811361
vn -0.207203 0.582556 -0.785936
vn -0.160017 0.934466 -0.318069
vn -0.044749 0.607138 0.793335
vn -0.092596 0.950480 0.296671
vn -0.143612 0.933285 0.329172
vn -0.039460 0.594309 0.803268
vn -0.092596 0.950480 0.296671
vn -0.160017 0.934466 -0.318069
vn -0.285105 0.921783 -0.262737
vn -0.143612 0.933285 0.329172
vn -0.160017 0.934466 -0.318069
vn -0.207203 0.582556 -0.785936
vn -0.386744 0.577966 -0.718599
vn -0.285105 0.921783 -0.262737
vn -0.039460 0.594309 0.803268
vn -0.143612 0.933285 0.329172
vn -0.284955 0.872220 0.397534
vn -0.145392 0.552096 0.821006
vn -0.143612 0.933285 0.329172
vn -0.285105 0.921783 -0.262737
vn -0.472558 0.869797 -0.141919
vn -0.284955 0.872220 0.397534
vn -0.285105 0.921783 -0.262737
vn -0.386744 0.577966 -0.718599
vn -0.609770 0.552414 -0.568348
vn -0.472558 0.869797 -0.141919
vn -0.145392 0.552096 0.821006
vn -0.284955 0.872220 0.397534
vn -0.579239 0.648310 0.494141
vn -0.460091 0.406048 0.789583
vn -0.284955 0.872220 0.397534
vn -0.472558 0.869797 -0.141919
vn -0.750062 0.653639 0.100809
vn -0.579239 0.648310 0.494141
vn -0.472558 0.869797 -0.141919
vn -0.609770 0.552414 -0.568348
vn -0.880561 0.422656 -0.214417
vn -0.750062 0.653639 0.100809
vn -0.249266 -0.595366 0.763810
vn -0.301678 0.232684 0.924580
vn -0.195041 0.232294 0.952890
vn -0.161233 -0.594968 0.787411
vn 0.318017 0.299212 -0.899632
vn 0.274733 -0.566903 -0.776623
vn 0.130522 -0.567250 -0.813137
vn 0.151642 0.299454 -0.941983
vn -0.161233 -0.594968 0.787411
vn -0.195041 0.232294 0.952890
vn -0.104084 0.229339 0.967766
vn -0.085879 -0.595409 0.798820
vn 0.151642 0.299454 -0.941983
vn 0.130522 -0.567250 -0.813137
vn -0.028222 -0.567030 -0.823214
vn -0.031122 0.296789 -0.954436
vn -0.085879 -0.595409 0.798820
vn -0.104084 0.229339 0.967766
vn -0.022064 0.221796 0.974843
vn -0.018312 -0.595818 0.802911
vn -0.031122 0.296789 -0.954436
vn -0.028222 -0.567030 -0.823214
vn -0.193956 -0.567269 -0.800367
vn -0.221325 0.290557 -0.930909
vn -0.018312 -0.595818 0.802911
vn -0.022064 0.221796 0.974843
vn 0.006544 0.207124 0.978293
vn 0.002360 -0.599024 0.800728
vn -0.221325 0.290557 -0.930909
vn -0.193956 -0.567269 -0.800367
vn -0.366285 -0.567656 -0.737294
vn -0.419075 0.278661 -0.864132
vn 0.002360 -0.599024 0.800728
vn 0.006544 0.207124 0.978293
vn -0.088172 0.175705 0.980486
vn -0.088757 -0.612138 0.785754
vn -0.419075 0.278661 -0.864132
vn -0.366285 -0.567656 -0.737294
vn -0.567756 -0.579790 -0.584377
vn -0.657591 0.250402 -0.710544
vn -0.088757 -0.612138 0.785754
vn -0.088172 0.175705 0.980486
vn -0.436289 0.040750 0.898883
vn -0.397181 -0.635398 0.662206
vn -0.657591 0.250402 -0.710544
vn -0.567756 -0.579790 -0.584377
vn -0.764542 -0.623344 -0.164067
vn -0.947333 0.106404 -0.302056
vn -0.397181 -0.635398 0.662206
vn -0.436289 0.040750 0.898883
vn -0.894331 -0.081915 0.439843
vn -0.684567 -0.646565 0.336632
vn -0.947333 0.106404 -0.302056
vn -0.764542 -0.623344 -0.164067
vn -0.684567 -0.646565 0.336632
vn -0.894331 -0.081915 0.439843
vn -0.301678 0.232684 0.924580
vn -0.242195 0.614720 0.750640
vn -0.162690 0.613717 0.772582
vn -0.195041 0.232294 0.952890
vn 0.272473 0.583268 -0.765217
vn 0.318017 0.299212 -0.899632
vn 0.151642 0.299454 -0.941983
vn 0.125828 0.583857 -0.802046
vn -0.195041 0.232294 0.952890
vn -0.162690 0.613717 0.772582
vn -0.099230 0.612046 0.784572
vn -0.104084 0.229339 0.967766
vn 0.125828 0.583857 -0.802046
vn 0.151642 0.299454 -0.941983
vn -0.031122 0.296789 -0.954436
vn -0.037194 0.583361 -0.811361
vn -0.104084 0.229339 0.967766
vn -0.099230 0.612046 0.784572
vn -0.044749 0.607138 0.793335
vn -0.022064 0.221796 0.974843
vn -0.037194 0.583361 -0.811361
vn -0.031122 0.296789 -0.954436
vn -0.221325 0.290557 -0.930909
vn -0.207203 0.582556 -0.785936
vn -0.022064 0.221796 0.974843
vn -0.044749 0.607138 0.793335
vn -0.039460 0.594309 0.803268
vn 0.006544 0.207124 0.978293
vn -0.207203 0.582556 -0.785936
vn -0.221325 0.290557 -0.930909
vn -0.419075 0.278661 -0.864132
vn -0.386744 0.577966 -0.718599
vn 0.006544 0.207124 0.978293
vn -0.039460 0.594309 0.803268
vn -0.145392 0.552096 0.821006
vn -0.088172 0.175705 0.980486
vn -0.386744 0.577966 -0.718599
vn -0.419075 0.278661 -0.864132
vn -0.657591 0.250402 -0.710544
vn -0.609770 0.552414 -0.568348
vn -0.088172 0.175705 0.980486
vn -0.145392 0.552096 0.821006
vn -0.460091 0.406048 0.789583
vn -0.436289 0.040750 0.898883
vn -0.609770 0.552414 -0.568348
vn -0.657591 0.250402 -0.710544
vn -0.947333 0.106404 -0.302056
vn -0.880561 0.422656 -0.214417
vn -0.436289 0.040750 0.898883
vn -0.460091 0.406048 0.789583
vn -0.894331 -0.081915 0.439843
vn -0.460091 0.406048 0.789583
vn -0.579239 0.648310 0.494141
vn -0.894331 -0.081915 0.439843
vn -0.579239 0.648310 0.494141
vn -0.750062 0.653639 0.100809
vn -0.894331 -0.081915 0.439843
vn -0.750062 0.653639 0.100809
vn -0.880561 0.422656 -0.214417
vn -0.894331 -0.081915 0.439843
vn -0.880561 0.422656 -0.214417
vn -0.947333 0.106404 -0.302056
vn -0.894331 -0.081915 0.439843
vn 0.000000 -1.000000 0.000000
vn 0.000000 -1.000000 0.000000
vn 0.000000 -1.000000 0.000000
vn 0.000000 -1.000000 0.000000
vn 0.000000 -1.000000 0.000000
vn 0.000000 -1.000000 0.000000
vn 0.000000 -1.000000 0.000000
vn 0.000000 -1.000000 0.000000
vn 0.000000 -1.000000 0.000000
vn 0.000000 -1.000000 0.000000
vn 0.000000 -1.000000 0.000000
vn 0.000000 -1.000000 0.000000
vn 0.000000 -1.000000 0.000000
vn 0.000000 -1.000000 0.000000
vn 0.000000 -1.000000 0.000000
vn 0.000000 -1.000000 0.000000
vn 0.000000 -1.000000 0.000000
vn 0.000001 -1.000000 0.000000
vn 0.000000 -1.000000 0.000000
vn 0.000000 -1.000000 0.000000
vn 0.000001 -1.000000 0.000000
vn 0.000000 -1.000000 0.000000
vn 0.000000 -1.000000 0.000000
vn 0.000000 -1.000000 0.000000
vn 0.000000 -1.000000 0.000000
vn 0.000000 -1.000000 0.000000
vn 0.000001 -1.000000 0.000000
vn 0.000000 -1.000000 0.000000
vn 0.000000 -1.000000 0.000000
vn 0.000000 -1.000000 0.000000
vn 0.000000 -1.000000 0.000000
vn 0.000000 -1.000000 0.000000
vn 0.000000 -1.000000 0.000000
vn 0.000000 -1.000000 0.000000
vn 0.000000 -1.000000 0.000000
vn 0.000000 -1.000000 0.000000
vn 0.000000 -1.000000 0.000000
vn 0.000000 -1.000000 0.000000
vn 0.000000 -1.000000 0.000000
vn 0.000000 -1.000000 0.000000
vn 0.000000 -1.000000 0.000000
vn 0.000000 -1.000000 0.000000
vn 0.000000 -1.000000 0.000000
vn 0.000000 -1.000000 0.000000
vn 0.000000 -1.000000 0.000000
vn 0.000000 -1.000000 0.000000
vn 0.000000 -1.000000 0.000000
vn 0.000000 -1.000000 0.000000
vn 0.945888 -0.000139 0.324493
vn 0.945888 -0.000139 0.324493
vn 0.945888 -0.000139 0.324493
vn 0.945857 -0.000190 0.324583
vn 0.945857 -0.000190 0.324583
vn 0.945857 -0.000190 0.324583
vn 0.945822 -0.000133 0.324687
vn 0.945822 -0.000133 0.324687
vn 0.945822 -0.000133 0.324687
vn 0.947112 -0.012721 0.320650
vn 0.947112 -0.012721 0.320650
vn 0.947112 -0.012721 0.320650
vn 0.944930 -0.008430 0.327165
vn 0.944930 -0.008430 0.327165
vn 0.944930 -0.008430 0.327165
vn 0.945897 -0.000041 0.324466
vn 0.945897 -0.000041 0.324466
vn 0.945897 -0.000041 0.324466
vn 0.945814 -0.000051 0.324710
vn 0.945814 -0.000051 0.324710
vn 0.945814 -0.000051 0.324710
vn 0.945649 0.000315 0.325189
vn 0.945649 0.000315 0.325189
vn 0.945649 0.000315 0.325189
vn 0.945995 0.000336 0.324182
vn 0.945995 0.000336 0.324182
vn 0.945995 0.000336 0.324182
s off
g FoodMediumRUpperLeg
usemtl Delete:blinn4SG
f 56/1/1 57/2/2 2/3/3 1/4/4
f 57/2/5 58/5/6 3/6/7 2/3/8
f 58/5/9 59/7/10 4/8/11 3/6/12
f 1/4/13 2/3/14 6/9/15 5/10/16
f 2/3/17 3/6/18 7/11/19 6/9/20
f 3/6/21 4/8/22 8/12/23 7/11/24
f 5/10/25 6/9/26 10/13/27 9/14/28
f 6/9/29 7/11/30 11/15/31 10/13/32
f 7/11/33 8/12/34 12/16/35 11/15/36
f 9/14/37 10/13/38 14/17/39 13/18/40
f 10/13/41 11/15/42 15/19/43 14/17/44
f 11/15/45 12/16/46 16/20/47 15/19/48
f 13/18/49 14/17/50 18/21/51 17/22/52
f 14/17/53 15/19/54 19/23/55 18/21/56
f 15/19/57 16/20/58 20/24/59 19/23/60
f 17/22/61 18/21/62 22/25/63 21/26/64
f 18/21/65 19/23/66 23/27/67 22/25/68
f 19/23/69 20/24/70 24/28/71 23/27/72
f 60/29/73 61/30/74 30/31/75 31/32/76
f 62/33/77 63/34/78 33/35/79 32/36/80
f 31/32/81 30/31/82 34/37/83 35/38/84
f 32/36/85 33/35/86 37/39/87 36/40/88
f 35/38/89 34/37/90 38/41/91 39/42/92
f 36/40/93 37/39/94 41/43/95 40/44/96
f 39/42/97 38/41/98 42/45/99 43/46/100
f 40/44/101 41/43/102 45/47/103 44/48/104
f 43/46/105 42/45/106 46/49/107 47/50/108
f 44/48/109 45/47/110 49/51/111 48/52/112
f 47/50/113 46/49/114 51/53/115 50/54/116
f 48/52/117 49/51/118 53/55/119 52/56/120
f 50/54/121 51/53/122 54/57/123 55/58/124
f 52/56/125 53/55/126 55/58/127 54/57/128
f 61/59/129 56/1/130 1/4/131 30/60/132
f 59/7/133 62/61/134 32/62/135 4/8/136
f 30/60/137 1/4/138 5/10/139 34/63/140
f 4/8/141 32/62/142 36/64/143 8/12/144
f 34/63/145 5/10/146 9/14/147 38/65/148
f 8/12/149 36/64/150 40/66/151 12/16/152
f 38/65/153 9/14/154 13/18/155 42/67/156
f 12/16/157 40/66/158 44/68/159 16/20/160
f 42/67/161 13/18/162 17/22/163 46/69/164
f 16/20/165 44/68/166 48/70/167 20/24/168
f 46/69/169 17/22/170 21/26/171 51/71/172
f 20/24/173 48/70/174 52/72/175 24/28/176
f 51/71/177 21/26/178 54/73/179
f 21/26/180 22/25/181 54/73/182
f 22/25/183 23/27/184 54/73/185
f 23/27/186 24/28/187 54/73/188
f 24/28/189 52/72/190 54/73/191
f 60/29/192 31/32/193 29/74/194 64/75/195
f 31/32/196 35/38/197 28/76/198 29/74/199
f 35/38/200 39/42/201 27/77/202 28/76/203
f 39/42/204 43/46/205 26/78/206 27/77/207
f 43/46/208 47/50/209 25/79/210 26/78/211
f 47/50/212 50/54/213 55/58/214 25/79/215
f 25/79/216 55/58/217 53/55/218 49/51/219
f 26/78/220 25/79/221 49/51/222 45/47/223
f 27/77/224 26/78/225 45/47/226 41/43/227
f 28/76/228 27/77/229 41/43/230 37/39/231
f 29/74/232 28/76/233 37/39/234 33/35/235
f 64/75/236 29/74/237 33/35/238 63/34/239
f 57/80/240 56/81/241 65/82/242
f 58/83/243 57/80/244 65/82/245
f 59/84/246 58/83/247 65/82/248
f 61/85/249 60/86/250 65/82/251
f 63/87/252 62/88/253 65/82/254
f 56/81/255 61/85/256 65/82/257
f 62/88/258 59/84/259 65/82/260
f 60/86/261 64/89/262 65/82/263
f 64/89/264 63/87/265 65/82/266
