# This file uses centimeters as units for non-parametric coordinates.

mtllib SplitShortRUpperArm.mtl
g default
v 0.398697 0.226653 0.336709
v 0.456080 0.358367 0.154924
v 0.528551 0.366812 -0.074648
v 0.582946 0.221433 -0.246966
v 0.151952 0.218310 0.267130
v 0.179531 0.345179 0.085650
v 0.214377 0.353313 -0.143650
v 0.240520 0.213283 -0.315678
v -0.104472 0.201869 0.224716
v -0.105174 0.319190 0.055068
v -0.106063 0.326712 -0.159504
v -0.106729 0.197220 -0.320312
v -0.371070 0.171966 0.203615
v -0.393937 0.271918 0.061103
v -0.422929 0.278327 -0.119597
v -0.444601 0.168005 -0.254673
v -0.582437 0.128306 0.187969
v -0.611469 0.202901 0.084962
v -0.648709 0.207684 -0.047169
v -0.676215 0.125350 -0.144763
v -0.696998 0.074023 0.145349
v -0.716372 0.117090 0.088366
v -0.742401 0.119852 0.011811
v -0.760730 0.072316 -0.042097
v -0.630560 -0.000130 0.017226
v -0.408801 -0.000130 -0.031547
v -0.105630 -0.000130 -0.054951
v 0.197398 -0.000130 -0.031923
v 0.493239 -0.000130 0.037212
v 0.379044 0.014652 0.398965
v 0.382722 -0.000130 0.388669
v 0.607036 0.015021 -0.323280
v 0.604155 -0.000130 -0.313236
v 0.142521 0.014639 0.329182
v 0.145473 -0.000130 0.318643
v 0.252076 0.015021 -0.391717
v 0.251420 -0.000130 -0.381291
v -0.104233 0.014626 0.282512
v -0.101862 -0.000130 0.271805
v -0.107022 0.015008 -0.391087
v -0.105248 -0.000130 -0.380764
v -0.362056 0.014610 0.251897
v -0.360642 -0.000130 0.241006
v -0.454047 0.014974 -0.313545
v -0.449288 -0.000130 -0.304119
v -0.572693 0.014369 0.222545
v -0.566894 -0.000130 0.212145
v -0.688075 0.014723 -0.186843
v -0.678826 -0.000130 -0.180627
v -0.679812 -0.000130 0.158046
v -0.690470 0.013829 0.164549
v -0.768582 0.013868 -0.065191
v -0.756002 -0.000130 -0.066520
v -0.762980 0.014725 0.061051
v -0.752231 -0.000130 0.057371
v 0.635901 0.225790 0.431016
v 0.720328 0.357003 0.260920
v 0.826957 0.365416 0.046098
v 0.906987 0.220591 -0.115139
v 0.611650 -0.000130 0.479347
v 0.606991 0.014655 0.489259
v 0.942421 0.015032 -0.186528
v 0.937643 -0.000130 -0.177253
v 0.775001 -0.000130 0.150772
v 0.773764 0.133122 0.153166
vt 0.274712 0.707940
vt 0.245683 0.708634
vt 0.246466 0.673242
vt 0.275503 0.675022
vt 0.215333 0.709653
vt 0.216154 0.670747
vt 0.186189 0.710829
vt 0.187232 0.667797
vt 0.250622 0.638135
vt 0.278429 0.642116
vt 0.222013 0.632375
vt 0.194874 0.625469
vt 0.258155 0.603593
vt 0.283436 0.609049
vt 0.232642 0.595258
vt 0.208984 0.584969
vt 0.268596 0.569584
vt 0.289441 0.575211
vt 0.248225 0.560208
vt 0.230459 0.547916
vt 0.278140 0.543777
vt 0.293243 0.547895
vt 0.263904 0.535927
vt 0.253218 0.524685
vt 0.283457 0.528696
vt 0.292696 0.530462
vt 0.274704 0.523433
vt 0.269294 0.516019
vt 0.512620 0.689976
vt 0.514920 0.690015
vt 0.516198 0.720993
vt 0.513905 0.721167
vt 0.418650 0.686707
vt 0.420951 0.686816
vt 0.422415 0.731277
vt 0.420132 0.731579
vt 0.520088 0.751933
vt 0.517814 0.752267
vt 0.432109 0.774596
vt 0.429928 0.775335
vt 0.526777 0.782943
vt 0.524523 0.783400
vt 0.449332 0.815220
vt 0.447351 0.816396
vt 0.535540 0.814536
vt 0.533313 0.815110
vt 0.474306 0.851060
vt 0.472686 0.852703
vt 0.541916 0.840700
vt 0.539562 0.840602
vt 0.499156 0.871799
vt 0.498356 0.873991
vt 0.540480 0.857514
vt 0.538452 0.856306
vt 0.515890 0.875480
vt 0.516659 0.877730
vt 0.531569 0.871148
vt 0.530063 0.869360
vt 0.302549 0.707527
vt 0.303299 0.676149
vt 0.158627 0.712065
vt 0.160087 0.664819
vt 0.305135 0.644349
vt 0.169306 0.618299
vt 0.307706 0.611522
vt 0.187126 0.574170
vt 0.310148 0.576747
vt 0.214687 0.534970
vt 0.307645 0.546911
vt 0.244692 0.512665
vt 0.300130 0.528549
vt 0.266625 0.508330
vt 0.286153 0.514094
vt 0.468214 0.726269
vt 0.466738 0.688377
vt 0.474941 0.763596
vt 0.486953 0.799594
vt 0.503962 0.833549
vt 0.519859 0.857038
vt 0.422142 0.535246
vt 0.429056 0.547476
vt 0.409609 0.544312
vt 0.409232 0.528415
vt 0.395527 0.531565
vt 0.427008 0.560765
vt 0.426016 0.561284
vt 0.385871 0.541812
vt 0.385703 0.540705
vt 0.405922 0.551537
vn -0.337568 0.614720 0.712858
vn -0.113724 0.959625 0.257267
vn -0.105728 0.959037 0.262810
vn -0.261583 0.613717 0.744933
vn -0.113724 0.959625 0.257267
vn 0.161762 0.939695 -0.301340
vn 0.084422 0.940062 -0.330389
vn -0.105728 0.959037 0.262810
vn 0.161762 0.939695 -0.301340
vn 0.369482 0.583268 -0.723382
vn 0.228858 0.583857 -0.778932
vn 0.084422 0.940062 -0.330389
vn -0.261583 0.613717 0.744933
vn -0.105728 0.959037 0.262810
vn -0.113286 0.956777 0.267852
vn -0.200217 0.612046 0.765057
vn -0.105728 0.959037 0.262810
vn 0.084422 0.940062 -0.330389
vn -0.011086 0.938412 -0.345341
vn -0.113286 0.956777 0.267852
vn 0.084422 0.940062 -0.330389
vn 0.228858 0.583857 -0.778932
vn 0.068423 0.583361 -0.809326
vn -0.011086 0.938412 -0.345341
vn -0.200217 0.612046 0.765057
vn -0.113286 0.956777 0.267852
vn -0.130317 0.950480 0.282144
vn -0.147334 0.607138 0.780818
vn -0.113286 0.956777 0.267852
vn -0.011086 0.938412 -0.345341
vn -0.117383 0.934466 -0.336147
vn -0.130317 0.950480 0.282144
vn -0.011086 0.938412 -0.345341
vn 0.068423 0.583361 -0.809326
vn -0.103448 0.582556 -0.806181
vn -0.117383 0.934466 -0.336147
vn -0.147334 0.607138 0.780818
vn -0.130317 0.950480 0.282144
vn -0.185119 0.933285 0.307750
vn -0.143378 0.594309 0.791353
vn -0.130317 0.950480 0.282144
vn -0.117383 0.934466 -0.336147
vn -0.248595 0.921783 -0.297517
vn -0.185119 0.933285 0.307750
vn -0.117383 0.934466 -0.336147
vn -0.103448 0.582556 -0.806181
vn -0.290209 0.577966 -0.762715
vn -0.248595 0.921783 -0.297517
vn -0.143378 0.594309 0.791353
vn -0.185119 0.933285 0.307750
vn -0.334139 0.872220 0.357188
vn -0.250717 0.552096 0.795193
vn -0.185119 0.933285 0.307750
vn -0.248595 0.921783 -0.297517
vn -0.450143 0.869797 -0.202050
vn -0.334139 0.872220 0.357188
vn -0.248595 0.921783 -0.297517
vn -0.290209 0.577966 -0.762715
vn -0.530850 0.552414 -0.642680
vn -0.450143 0.869797 -0.202050
vn -0.250717 0.552096 0.795193
vn -0.334139 0.872220 0.357188
vn -0.638473 0.648310 0.414785
vn -0.558676 0.406048 0.723192
vn -0.334139 0.872220 0.357188
vn -0.450143 0.869797 -0.202050
vn -0.756802 0.653639 0.002609
vn -0.638473 0.648310 0.414785
vn -0.450143 0.869797 -0.202050
vn -0.530850 0.552414 -0.642680
vn -0.845285 0.422656 -0.326887
vn -0.756802 0.653639 0.002609
vn -0.346289 -0.595366 0.724999
vn -0.419124 0.232684 0.877607
vn -0.317062 0.232294 0.919517
vn -0.262064 -0.594968 0.759826
vn 0.432086 0.299212 -0.850749
vn 0.373203 -0.566903 -0.734398
vn 0.234951 -0.567250 -0.789320
vn 0.272615 0.299454 -0.914335
vn -0.262064 -0.594968 0.759826
vn -0.317062 0.232294 0.919517
vn -0.228805 0.229339 0.946072
vn -0.188828 -0.595409 0.780918
vn 0.272615 0.299454 -0.914335
vn 0.234951 -0.567250 -0.789320
vn 0.078857 -0.567030 -0.819914
vn 0.093013 0.296789 -0.950402
vn -0.188828 -0.595409 0.780918
vn -0.228805 0.229339 0.946072
vn -0.148397 0.221796 0.963735
vn -0.122363 -0.595818 0.793743
vn 0.093013 0.296789 -0.950402
vn 0.078857 -0.567030 -0.819914
vn -0.088440 -0.567269 -0.818770
vn -0.098635 0.290557 -0.951760
vn -0.122363 -0.595818 0.793743
vn -0.148397 0.221796 0.963735
vn -0.120479 0.207124 0.970868
vn -0.101582 -0.599024 0.794262
vn -0.098635 0.290557 -0.951760
vn -0.088440 -0.567269 -0.818770
vn -0.267497 -0.567656 -0.778596
vn -0.303379 0.278661 -0.911213
vn -0.101582 -0.599024 0.794262
vn -0.120479 0.207124 0.970868
vn -0.214679 0.175705 0.960750
vn -0.189986 -0.612138 0.767589
vn -0.303379 0.278661 -0.911213
vn -0.267497 -0.567656 -0.778596
vn -0.487110 -0.579790 -0.653121
vn -0.559811 0.250402 -0.789880
vn -0.189986 -0.612138 0.767589
vn -0.214679 0.175705 0.960750
vn -0.549260 0.040750 0.834657
vn -0.479766 -0.635398 0.605057
vn -0.559811 0.250402 -0.789880
vn -0.487110 -0.579790 -0.653121
vn -0.736782 -0.623344 -0.261905
vn -0.900119 0.106404 -0.422451
vn -0.479766 -0.635398 0.605057
vn -0.549260 0.040750 0.834657
vn -0.943852 -0.081915 0.320052
vn -0.722467 -0.646565 0.244938
vn -0.900119 0.106404 -0.422451
vn -0.736782 -0.623344 -0.261905
vn -0.722467 -0.646565 0.244938
vn -0.943852 -0.081915 0.320052
vn -0.419124 0.232684 0.877607
vn -0.337568 0.614720 0.712858
vn -0.261583 0.613717 0.744933
vn -0.317062 0.232294 0.919517
vn 0.369482 0.583268 -0.723382
vn 0.432086 0.299212 -0.850749
vn 0.272615 0.299454 -0.914335
vn 0.228858 0.583857 -0.778932
vn -0.317062 0.232294 0.919517
vn -0.261583 0.613717 0.744933
vn -0.200217 0.612046 0.765057
vn -0.228805 0.229339 0.946072
vn 0.228858 0.583857 -0.778932
vn 0.272615 0.299454 -0.914335
vn 0.093013 0.296789 -0.950402
vn 0.068423 0.583361 -0.809326
vn -0.228805 0.229339 0.946072
vn -0.200217 0.612046 0.765057
vn -0.147334 0.607138 0.780818
vn -0.148397 0.221796 0.963735
vn 0.068423 0.583361 -0.809326
vn 0.093013 0.296789 -0.950402
vn -0.098635 0.290557 -0.951760
vn -0.103448 0.582556 -0.806181
vn -0.148397 0.221796 0.963735
vn -0.147334 0.607138 0.780818
vn -0.143378 0.594309 0.791353
vn -0.120479 0.207124 0.970868
vn -0.103448 0.582556 -0.806181
vn -0.098635 0.290557 -0.951760
vn -0.303379 0.278661 -0.911213
vn -0.290209 0.577966 -0.762715
vn -0.120479 0.207124 0.970868
vn -0.143378 0.594309 0.791353
vn -0.250717 0.552096 0.795193
vn -0.214679 0.175705 0.960750
vn -0.290209 0.577966 -0.762715
vn -0.303379 0.278661 -0.911213
vn -0.559811 0.250402 -0.789880
vn -0.530850 0.552414 -0.642680
vn -0.214679 0.175705 0.960750
vn -0.250717 0.552096 0.795193
vn -0.558676 0.406048 0.723192
vn -0.549260 0.040750 0.834657
vn -0.530850 0.552414 -0.642680
vn -0.559811 0.250402 -0.789880
vn -0.900119 0.106404 -0.422451
vn -0.845285 0.422656 -0.326887
vn -0.549260 0.040750 0.834657
vn -0.558676 0.406048 0.723192
vn -0.943852 -0.081915 0.320052
vn -0.558676 0.406048 0.723192
vn -0.638473 0.648310 0.414785
vn -0.943852 -0.081915 0.320052
vn -0.638473 0.648310 0.414785
vn -0.756802 0.653639 0.002609
vn -0.943852 -0.081915 0.320052
vn -0.756802 0.653639 0.002609
vn -0.845285 0.422656 -0.326887
vn -0.943852 -0.081915 0.320052
vn -0.845285 0.422656 -0.326887
vn -0.900119 0.106404 -0.422451
vn -0.943852 -0.081915 0.320052
vn -0.000000 -1.000000 0.000000
vn -0.000000 -1.000000 0.000000
vn -0.000000 -1.000000 0.000000
vn -0.000000 -1.000000 0.000000
vn -0.000000 -1.000000 0.000000
vn -0.000000 -1.000000 0.000000
vn -0.000000 -1.000000 0.000000
vn -0.000000 -1.000000 0.000000
vn -0.000000 -1.000000 0.000000
vn -0.000000 -1.000000 0.000000
vn -0.000000 -1.000000 0.000000
vn -0.000000 -1.000000 0.000000
vn -0.000000 -1.000000 0.000000
vn -0.000000 -1.000000 0.000000
vn -0.000000 -1.000000 0.000000
vn -0.000000 -1.000000 0.000000
vn -0.000000 -1.000000 0.000000
vn 0.000001 -1.000000 0.000000
vn -0.000000 -1.000000 0.000000
vn -0.000000 -1.000000 0.000000
vn 0.000001 -1.000000 0.000000
vn -0.000000 -1.000000 0.000000
vn -0.000000 -1.000000 0.000000
vn -0.000000 -1.000000 0.000000
vn -0.000000 -1.000000 0.000000
vn -0.000000 -1.000000 0.000000
vn 0.000001 -1.000000 0.000000
vn -0.000000 -1.000000 0.000000
vn -0.000000 -1.000000 0.000000
vn -0.000000 -1.000000 0.000000
vn -0.000000 -1.000000 0.000000
vn -0.000000 -1.000000 0.000000
vn -0.000000 -1.000000 0.000000
vn -0.000000 -1.000000 0.000000
vn -0.000000 -1.000000 0.000000
vn -0.000000 -1.000000 0.000000
vn -0.000000 -1.000000 0.000000
vn -0.000000 -1.000000 0.000000
vn -0.000000 -1.000000 0.000000
vn -0.000000 -1.000000 0.000000
vn -0.000000 -1.000000 0.000000
vn -0.000000 -1.000000 0.000000
vn -0.000000 -1.000000 0.000000
vn -0.000000 -1.000000 0.000000
vn -0.000000 -1.000000 0.000000
vn -0.000000 -1.000000 0.000000
vn -0.000000 -1.000000 0.000000
vn -0.000000 -1.000000 0.000000
vn 0.895773 -0.000139 0.444511
vn 0.895773 -0.000139 0.444511
vn 0.895773 -0.000139 0.444511
vn 0.895731 -0.000190 0.444596
vn 0.895731 -0.000190 0.444596
vn 0.895731 -0.000190 0.444596
vn 0.895682 -0.000133 0.444694
vn 0.895682 -0.000133 0.444694
vn 0.895682 -0.000133 0.444694
vn 0.897486 -0.012721 0.440859
vn 0.897486 -0.012721 0.440859
vn 0.897486 -0.012721 0.440859
vn 0.894477 -0.008430 0.447035
vn 0.894477 -0.008430 0.447035
vn 0.894477 -0.008430 0.447035
vn 0.895786 -0.000041 0.444485
vn 0.895786 -0.000041 0.444485
vn 0.895786 -0.000041 0.444485
vn 0.895672 -0.000051 0.444716
vn 0.895672 -0.000051 0.444716
vn 0.895672 -0.000051 0.444716
vn 0.895446 0.000315 0.445170
vn 0.895446 0.000315 0.445170
vn 0.895446 0.000315 0.445170
vn 0.895920 0.000336 0.444216
vn 0.895920 0.000336 0.444216
vn 0.895920 0.000336 0.444216
s off
g FoodShortRUpperArm
usemtl Delete:blinn4SG
f 56/1/1 57/2/2 2/3/3 1/4/4
f 57/2/5 58/5/6 3/6/7 2/3/8
f 58/5/9 59/7/10 4/8/11 3/6/12
f 1/4/13 2/3/14 6/9/15 5/10/16
f 2/3/17 3/6/18 7/11/19 6/9/20
f 3/6/21 4/8/22 8/12/23 7/11/24
f 5/10/25 6/9/26 10/13/27 9/14/28
f 6/9/29 7/11/30 11/15/31 10/13/32
f 7/11/33 8/12/34 12/16/35 11/15/36
f 9/14/37 10/13/38 14/17/39 13/18/40
f 10/13/41 11/15/42 15/19/43 14/17/44
f 11/15/45 12/16/46 16/20/47 15/19/48
f 13/18/49 14/17/50 18/21/51 17/22/52
f 14/17/53 15/19/54 19/23/55 18/21/56
f 15/19/57 16/20/58 20/24/59 19/23/60
f 17/22/61 18/21/62 22/25/63 21/26/64
f 18/21/65 19/23/66 23/27/67 22/25/68
f 19/23/69 20/24/70 24/28/71 23/27/72
f 60/29/73 61/30/74 30/31/75 31/32/76
f 62/33/77 63/34/78 33/35/79 32/36/80
f 31/32/81 30/31/82 34/37/83 35/38/84
f 32/36/85 33/35/86 37/39/87 36/40/88
f 35/38/89 34/37/90 38/41/91 39/42/92
f 36/40/93 37/39/94 41/43/95 40/44/96
f 39/42/97 38/41/98 42/45/99 43/46/100
f 40/44/101 41/43/102 45/47/103 44/48/104
f 43/46/105 42/45/106 46/49/107 47/50/108
f 44/48/109 45/47/110 49/51/111 48/52/112
f 47/50/113 46/49/114 51/53/115 50/54/116
f 48/52/117 49/51/118 53/55/119 52/56/120
f 50/54/121 51/53/122 54/57/123 55/58/124
f 52/56/125 53/55/126 55/58/127 54/57/128
f 61/59/129 56/1/130 1/4/131 30/60/132
f 59/7/133 62/61/134 32/62/135 4/8/136
f 30/60/137 1/4/138 5/10/139 34/63/140
f 4/8/141 32/62/142 36/64/143 8/12/144
f 34/63/145 5/10/146 9/14/147 38/65/148
f 8/12/149 36/64/150 40/66/151 12/16/152
f 38/65/153 9/14/154 13/18/155 42/67/156
f 12/16/157 40/66/158 44/68/159 16/20/160
f 42/67/161 13/18/162 17/22/163 46/69/164
f 16/20/165 44/68/166 48/70/167 20/24/168
f 46/69/169 17/22/170 21/26/171 51/71/172
f 20/24/173 48/70/174 52/72/175 24/28/176
f 51/71/177 21/26/178 54/73/179
f 21/26/180 22/25/181 54/73/182
f 22/25/183 23/27/184 54/73/185
f 23/27/186 24/28/187 54/73/188
f 24/28/189 52/72/190 54/73/191
f 60/29/192 31/32/193 29/74/194 64/75/195
f 31/32/196 35/38/197 28/76/198 29/74/199
f 35/38/200 39/42/201 27/77/202 28/76/203
f 39/42/204 43/46/205 26/78/206 27/77/207
f 43/46/208 47/50/209 25/79/210 26/78/211
f 47/50/212 50/54/213 55/58/214 25/79/215
f 25/79/216 55/58/217 53/55/218 49/51/219
f 26/78/220 25/79/221 49/51/222 45/47/223
f 27/77/224 26/78/225 45/47/226 41/43/227
f 28/76/228 27/77/229 41/43/230 37/39/231
f 29/74/232 28/76/233 37/39/234 33/35/235
f 64/75/236 29/74/237 33/35/238 63/34/239
f 57/80/240 56/81/241 65/82/242
f 58/83/243 57/80/244 65/82/245
f 59/84/246 58/83/247 65/82/248
f 61/85/249 60/86/250 65/82/251
f 63/87/252 62/88/253 65/82/254
f 56/81/255 61/85/256 65/82/257
f 62/88/258 59/84/259 65/82/260
f 60/86/261 64/89/262 65/82/263
f 64/89/264 63/87/265 65/82/266
