# This file uses centimeters as units for non-parametric coordinates.

mtllib SplitLUpperCanine.mtl
g default
v 0.266068 0.387756 0.141750
v 0.508536 0.319646 -0.082064
v -0.364706 0.452695 0.027240
v -0.075075 0.442185 0.199682
v 0.341195 0.786459 0.054441
v 0.566204 0.681017 -0.154212
v -0.247655 0.937132 -0.071150
v 0.023227 0.889247 0.101514
v 0.468832 1.168472 -0.057702
v 0.663343 1.035956 -0.243623
v -0.045985 1.385369 -0.189363
v 0.191645 1.307903 -0.023030
v 0.641905 1.528125 -0.205387
v 0.791443 1.387754 -0.357409
v 0.238572 1.774071 -0.331635
v 0.425678 1.682041 -0.183882
v 0.790043 1.780070 -0.366366
v 0.890000 1.661992 -0.476138
v 0.513152 1.994620 -0.468692
v 0.641711 1.913352 -0.354931
v 0.839310 1.896226 -0.517841
v 0.892191 1.826265 -0.580216
v 0.686514 2.027725 -0.579089
v 0.756074 1.979197 -0.512459
v 0.010870 0.343092 -0.344926
v 0.100833 0.769261 -0.418806
v 0.255204 1.175321 -0.499873
v 0.470118 1.551969 -0.586219
v 0.668537 1.807296 -0.652950
v 0.554646 0.262941 -0.396230
v 0.535726 0.261797 -0.415097
v -0.524393 0.428942 -0.251253
v -0.512907 0.423227 -0.274760
v 0.607673 0.612911 -0.453658
v 0.588862 0.612864 -0.472697
v -0.397561 0.931021 -0.341548
v -0.386897 0.922177 -0.364473
v 0.697019 0.961362 -0.516532
v 0.678340 0.962175 -0.535700
v -0.178279 1.394417 -0.440784
v -0.169182 1.382465 -0.463009
v 0.814010 1.313861 -0.584319
v 0.795706 1.316030 -0.603677
v 0.133802 1.793187 -0.545395
v 0.140001 1.777840 -0.566642
v 0.903883 1.604576 -0.639506
v 0.884179 1.600723 -0.657443
v 0.441098 2.014634 -0.624664
v 0.440650 1.994856 -0.643882
v 0.899902 1.793555 -0.666249
v 0.881861 1.781142 -0.682438
v 0.635809 2.022696 -0.678135
v 0.648290 2.040897 -0.661836
v 0.809449 1.953360 -0.673311
v 0.794828 1.938848 -0.691072
v 0.243020 -0.021379 0.200806
v 0.486832 -0.047008 -0.028442
v -0.390382 -0.050027 0.100632
v -0.099704 -0.020474 0.266460
v 0.533542 -0.089028 -0.343493
v 0.514536 -0.091684 -0.362124
v -0.538752 -0.094176 -0.198026
v -0.550378 -0.091403 -0.174089
v -0.012682 -0.093213 -0.279946
v 0.020670 -0.066488 -0.090913
vt 0.095907 0.693780
vt 0.125078 0.694437
vt 0.125655 0.727406
vt 0.096760 0.729184
vt 0.036342 0.691673
vt 0.065417 0.692809
vt 0.066585 0.731688
vt 0.037594 0.734652
vt 0.128662 0.760334
vt 0.100879 0.764308
vt 0.072291 0.770069
vt 0.045133 0.776959
vt 0.133612 0.793413
vt 0.108369 0.798869
vt 0.082867 0.807188
vt 0.059203 0.817461
vt 0.139710 0.827250
vt 0.118831 0.832868
vt 0.098443 0.842240
vt 0.080659 0.854518
vt 0.143426 0.854598
vt 0.128327 0.858698
vt 0.114087 0.866533
vt 0.103392 0.877767
vt 0.142872 0.872025
vt 0.133632 0.873783
vt 0.124875 0.879038
vt 0.119460 0.886448
vt 0.411995 0.701634
vt 0.409696 0.701673
vt 0.410976 0.670482
vt 0.413270 0.670656
vt 0.318027 0.704841
vt 0.315726 0.704950
vt 0.317203 0.660077
vt 0.319488 0.660379
vt 0.414880 0.639384
vt 0.417157 0.639718
vt 0.326999 0.616318
vt 0.329182 0.617058
vt 0.421588 0.608253
vt 0.423845 0.608711
vt 0.344424 0.575255
vt 0.346410 0.576434
vt 0.430383 0.576548
vt 0.432609 0.577124
vt 0.369769 0.538950
vt 0.371397 0.540603
vt 0.436684 0.551065
vt 0.439007 0.550967
vt 0.395457 0.517686
vt 0.396274 0.519925
vt 0.435533 0.535360
vt 0.437561 0.534152
vt 0.413747 0.513929
vt 0.412980 0.516180
vt 0.427149 0.522304
vt 0.428656 0.520516
vt 0.152870 0.694852
vt 0.153525 0.726300
vt 0.009102 0.690470
vt 0.010121 0.737643
vt 0.155391 0.758110
vt 0.019537 0.784101
vt 0.158117 0.790929
vt 0.037333 0.828240
vt 0.160140 0.825770
vt 0.064874 0.867451
vt 0.157812 0.855559
vt 0.094854 0.889780
vt 0.150306 0.873935
vt 0.116783 0.894134
vt 0.136318 0.888387
vt 0.416939 0.534620
vt 0.401034 0.558105
vt 0.384022 0.592058
vt 0.372010 0.628056
vt 0.365285 0.665383
vt 0.363813 0.703275
vt 0.431660 0.846739
vt 0.428063 0.858405
vt 0.415739 0.853039
vt 0.418373 0.866603
vt 0.406154 0.866476
vt 0.426514 0.835581
vt 0.427453 0.835837
vt 0.396115 0.860542
vt 0.396053 0.859571
vt 0.411267 0.847590
vn 0.423961 0.120231 0.897664
vn 0.873087 0.071891 0.482235
vn 0.869861 -0.009796 0.493199
vn 0.425490 0.110619 0.898177
vn -0.713576 0.069162 0.697155
vn -0.194526 0.117679 0.973813
vn -0.188123 0.199158 0.961741
vn -0.704394 0.218499 0.675343
vn -0.194526 0.117679 0.973813
vn 0.423961 0.120231 0.897664
vn 0.425490 0.110619 0.898177
vn -0.188123 0.199158 0.961741
vn 0.425490 0.110619 0.898177
vn 0.869861 -0.009796 0.493199
vn 0.861949 -0.073352 0.501661
vn 0.432822 0.114809 0.894138
vn -0.704394 0.218499 0.675343
vn -0.188123 0.199158 0.961741
vn -0.161805 0.290315 0.943152
vn -0.664563 0.374255 0.646753
vn -0.188123 0.199158 0.961741
vn 0.425490 0.110619 0.898177
vn 0.432822 0.114809 0.894138
vn -0.161805 0.290315 0.943152
vn 0.432822 0.114809 0.894138
vn 0.861949 -0.073352 0.501661
vn 0.853189 -0.127907 0.505676
vn 0.451789 0.122804 0.883632
vn -0.664563 0.374255 0.646753
vn -0.161805 0.290315 0.943152
vn -0.109702 0.380155 0.918394
vn -0.589964 0.525422 0.613087
vn -0.161805 0.290315 0.943152
vn 0.432822 0.114809 0.894138
vn 0.451789 0.122804 0.883632
vn -0.109702 0.380155 0.918394
vn 0.451789 0.122804 0.883632
vn 0.853189 -0.127907 0.505676
vn 0.859020 -0.137804 0.493046
vn 0.495028 0.157890 0.854411
vn -0.589964 0.525422 0.613087
vn -0.109702 0.380155 0.918394
vn -0.022145 0.478019 0.878070
vn -0.473605 0.671618 0.569761
vn -0.109702 0.380155 0.918394
vn 0.451789 0.122804 0.883632
vn 0.495028 0.157890 0.854411
vn -0.022145 0.478019 0.878070
vn 0.495028 0.157890 0.854411
vn 0.859020 -0.137804 0.493046
vn 0.900945 -0.049960 0.431048
vn 0.592352 0.260177 0.762514
vn -0.473605 0.671618 0.569761
vn -0.022145 0.478019 0.878070
vn 0.139755 0.608035 0.781513
vn -0.269330 0.829223 0.489745
vn -0.022145 0.478019 0.878070
vn 0.495028 0.157890 0.854411
vn 0.592352 0.260177 0.762514
vn 0.139755 0.608035 0.781513
vn 0.592352 0.260177 0.762514
vn 0.900945 -0.049960 0.431048
vn 0.943094 0.235046 0.235220
vn 0.737182 0.474441 0.481112
vn -0.269330 0.829223 0.489745
vn 0.139755 0.608035 0.781513
vn 0.418420 0.760962 0.495845
vn 0.125252 0.952222 0.278540
vn 0.139755 0.608035 0.781513
vn 0.592352 0.260177 0.762514
vn 0.737182 0.474441 0.481112
vn 0.418420 0.760962 0.495845
vn 0.996597 0.019563 0.080071
vn 0.703480 -0.092126 -0.704719
vn 0.699490 -0.182135 -0.691043
vn 0.991370 -0.089520 0.095771
vn -0.900112 -0.087461 -0.426790
vn -0.897031 0.030323 0.440927
vn -0.887242 0.199868 0.415758
vn -0.891237 0.059260 -0.449649
vn 0.991370 -0.089520 0.095771
vn 0.699490 -0.182135 -0.691043
vn 0.687671 -0.256497 -0.679204
vn 0.977777 -0.179969 0.107531
vn -0.891237 0.059260 -0.449649
vn -0.887242 0.199868 0.415758
vn -0.844844 0.374838 0.381753
vn -0.852852 0.210945 -0.477646
vn 0.977777 -0.179969 0.107531
vn 0.687671 -0.256497 -0.679204
vn 0.671277 -0.321245 -0.667974
vn 0.958803 -0.260176 0.114044
vn -0.852852 0.210945 -0.477646
vn -0.844844 0.374838 0.381753
vn -0.766909 0.544813 0.339159
vn -0.781127 0.357998 -0.511545
vn 0.958803 -0.260176 0.114044
vn 0.671277 -0.321245 -0.667974
vn 0.665139 -0.341032 -0.664295
vn 0.951242 -0.290045 0.104945
vn -0.781127 0.357998 -0.511545
vn -0.766909 0.544813 0.339159
vn -0.647023 0.707346 0.284645
vn -0.668374 0.495660 -0.554614
vn 0.951242 -0.290045 0.104945
vn 0.665139 -0.341032 -0.664295
vn 0.679767 -0.252273 -0.688676
vn 0.976826 -0.206078 0.057817
vn -0.668374 0.495660 -0.554614
vn -0.647023 0.707346 0.284645
vn -0.435616 0.878064 0.198094
vn -0.466543 0.628528 -0.622326
vn 0.976826 -0.206078 0.057817
vn 0.679767 -0.252273 -0.688676
vn 0.649151 0.075401 -0.756913
vn 0.983474 0.127818 -0.128227
vn -0.466543 0.628528 -0.622326
vn -0.435616 0.878064 0.198094
vn 0.014096 0.999269 -0.035549
vn -0.023816 0.677411 -0.735219
vn 0.983474 0.127818 -0.128227
vn 0.649151 0.075401 -0.756913
vn 0.423213 0.445388 -0.789000
vn 0.669004 0.686763 -0.284237
vn -0.023816 0.677411 -0.735219
vn 0.014096 0.999269 -0.035549
vn 0.669004 0.686763 -0.284237
vn 0.423213 0.445388 -0.789000
vn 0.873087 0.071891 0.482235
vn 0.996597 0.019563 0.080071
vn 0.991370 -0.089520 0.095771
vn 0.869861 -0.009796 0.493199
vn -0.897031 0.030323 0.440927
vn -0.713576 0.069162 0.697155
vn -0.704394 0.218499 0.675343
vn -0.887242 0.199868 0.415758
vn 0.869861 -0.009796 0.493199
vn 0.991370 -0.089520 0.095771
vn 0.977777 -0.179969 0.107531
vn 0.861949 -0.073352 0.501661
vn -0.887242 0.199868 0.415758
vn -0.704394 0.218499 0.675343
vn -0.664563 0.374255 0.646753
vn -0.844844 0.374838 0.381753
vn 0.861949 -0.073352 0.501661
vn 0.977777 -0.179969 0.107531
vn 0.958803 -0.260176 0.114044
vn 0.853189 -0.127907 0.505676
vn -0.844844 0.374838 0.381753
vn -0.664563 0.374255 0.646753
vn -0.589964 0.525422 0.613087
vn -0.766909 0.544813 0.339159
vn 0.853189 -0.127907 0.505676
vn 0.958803 -0.260176 0.114044
vn 0.951242 -0.290045 0.104945
vn 0.859020 -0.137804 0.493046
vn -0.766909 0.544813 0.339159
vn -0.589964 0.525422 0.613087
vn -0.473605 0.671618 0.569761
vn -0.647023 0.707346 0.284645
vn 0.859020 -0.137804 0.493046
vn 0.951242 -0.290045 0.104945
vn 0.976826 -0.206078 0.057817
vn 0.900945 -0.049960 0.431048
vn -0.647023 0.707346 0.284645
vn -0.473605 0.671618 0.569761
vn -0.269330 0.829223 0.489745
vn -0.435616 0.878064 0.198094
vn 0.900945 -0.049960 0.431048
vn 0.976826 -0.206078 0.057817
vn 0.983474 0.127818 -0.128227
vn 0.943094 0.235046 0.235220
vn -0.435616 0.878064 0.198094
vn -0.269330 0.829223 0.489745
vn 0.125252 0.952222 0.278540
vn 0.014096 0.999269 -0.035549
vn 0.737182 0.474441 0.481112
vn 0.943094 0.235046 0.235220
vn 0.669004 0.686763 -0.284237
vn 0.943094 0.235046 0.235220
vn 0.983474 0.127818 -0.128227
vn 0.669004 0.686763 -0.284237
vn 0.014096 0.999269 -0.035549
vn 0.125252 0.952222 0.278540
vn 0.669004 0.686763 -0.284237
vn 0.125252 0.952222 0.278540
vn 0.418420 0.760962 0.495845
vn 0.669004 0.686763 -0.284237
vn 0.418420 0.760962 0.495845
vn 0.737182 0.474441 0.481112
vn 0.669004 0.686763 -0.284237
vn -0.152158 -0.137553 -0.978738
vn -0.152158 -0.137554 -0.978737
vn -0.152158 -0.137553 -0.978738
vn -0.152158 -0.137553 -0.978738
vn -0.152158 -0.137554 -0.978737
vn -0.152158 -0.137553 -0.978738
vn -0.152158 -0.137553 -0.978738
vn -0.152158 -0.137553 -0.978738
vn -0.152158 -0.137553 -0.978738
vn -0.152158 -0.137553 -0.978738
vn -0.152158 -0.137553 -0.978738
vn -0.152158 -0.137553 -0.978738
vn -0.152158 -0.137553 -0.978738
vn -0.152158 -0.137553 -0.978738
vn -0.152158 -0.137553 -0.978738
vn -0.152158 -0.137553 -0.978738
vn -0.152158 -0.137553 -0.978738
vn -0.152158 -0.137553 -0.978738
vn -0.152158 -0.137553 -0.978738
vn -0.152158 -0.137553 -0.978738
vn -0.152158 -0.137553 -0.978738
vn -0.152158 -0.137553 -0.978738
vn -0.152158 -0.137553 -0.978738
vn -0.152158 -0.137553 -0.978738
vn -0.152158 -0.137553 -0.978738
vn -0.152158 -0.137553 -0.978738
vn -0.152158 -0.137553 -0.978738
vn -0.152158 -0.137553 -0.978738
vn -0.152158 -0.137553 -0.978738
vn -0.152158 -0.137553 -0.978738
vn -0.152158 -0.137553 -0.978738
vn -0.152158 -0.137553 -0.978738
vn -0.152158 -0.137553 -0.978738
vn -0.152158 -0.137553 -0.978738
vn -0.152158 -0.137553 -0.978738
vn -0.152158 -0.137553 -0.978738
vn -0.152158 -0.137553 -0.978738
vn -0.152158 -0.137553 -0.978738
vn -0.152158 -0.137553 -0.978738
vn -0.152158 -0.137553 -0.978738
vn -0.152158 -0.137553 -0.978738
vn -0.152158 -0.137553 -0.978738
vn -0.152158 -0.137553 -0.978738
vn -0.152158 -0.137553 -0.978738
vn -0.152158 -0.137553 -0.978738
vn -0.152158 -0.137553 -0.978738
vn -0.152158 -0.137553 -0.978738
vn -0.152158 -0.137552 -0.978738
vn 0.023241 -0.990512 0.135450
vn 0.023241 -0.990512 0.135450
vn 0.023241 -0.990512 0.135450
vn 0.023444 -0.990509 0.135430
vn 0.023444 -0.990509 0.135430
vn 0.023444 -0.990509 0.135430
vn 0.023321 -0.990518 0.135390
vn 0.023321 -0.990518 0.135390
vn 0.023321 -0.990518 0.135390
vn 0.017339 -0.992162 0.123747
vn 0.017339 -0.992162 0.123747
vn 0.017339 -0.992162 0.123747
vn 0.024783 -0.991607 0.126888
vn 0.024783 -0.991607 0.126888
vn 0.024783 -0.991607 0.126888
vn 0.023226 -0.990498 0.135553
vn 0.023226 -0.990498 0.135553
vn 0.023226 -0.990498 0.135553
vn 0.023479 -0.990498 0.135506
vn 0.023479 -0.990498 0.135506
vn 0.023479 -0.990498 0.135506
vn 0.024036 -0.990447 0.135783
vn 0.024036 -0.990447 0.135783
vn 0.024036 -0.990447 0.135783
vn 0.022987 -0.990447 0.135968
vn 0.022987 -0.990447 0.135968
vn 0.022987 -0.990447 0.135968
s off
g FoodLUpperCaninesOverbite
usemtl Delete:blinn4SG
f 56/1/1 57/2/2 2/3/3 1/4/4
f 58/5/5 59/6/6 4/7/7 3/8/8
f 59/6/9 56/1/10 1/4/11 4/7/12
f 1/4/13 2/3/14 6/9/15 5/10/16
f 3/8/17 4/7/18 8/11/19 7/12/20
f 4/7/21 1/4/22 5/10/23 8/11/24
f 5/10/25 6/9/26 10/13/27 9/14/28
f 7/12/29 8/11/30 12/15/31 11/16/32
f 8/11/33 5/10/34 9/14/35 12/15/36
f 9/14/37 10/13/38 14/17/39 13/18/40
f 11/16/41 12/15/42 16/19/43 15/20/44
f 12/15/45 9/14/46 13/18/47 16/19/48
f 13/18/49 14/17/50 18/21/51 17/22/52
f 15/20/53 16/19/54 20/23/55 19/24/56
f 16/19/57 13/18/58 17/22/59 20/23/60
f 17/22/61 18/21/62 22/25/63 21/26/64
f 19/24/65 20/23/66 24/27/67 23/28/68
f 20/23/69 17/22/70 21/26/71 24/27/72
f 60/29/73 61/30/74 31/31/75 30/32/76
f 62/33/77 63/34/78 32/35/79 33/36/80
f 30/32/81 31/31/82 35/37/83 34/38/84
f 33/36/85 32/35/86 36/39/87 37/40/88
f 34/38/89 35/37/90 39/41/91 38/42/92
f 37/40/93 36/39/94 40/43/95 41/44/96
f 38/42/97 39/41/98 43/45/99 42/46/100
f 41/44/101 40/43/102 44/47/103 45/48/104
f 42/46/105 43/45/106 47/49/107 46/50/108
f 45/48/109 44/47/110 48/51/111 49/52/112
f 46/50/113 47/49/114 51/53/115 50/54/116
f 49/52/117 48/51/118 53/55/119 52/56/120
f 50/54/121 51/53/122 55/57/123 54/58/124
f 52/56/125 53/55/126 54/58/127 55/57/128
f 57/2/129 60/59/130 30/60/131 2/3/132
f 63/61/133 58/5/134 3/8/135 32/62/136
f 2/3/137 30/60/138 34/63/139 6/9/140
f 32/62/141 3/8/142 7/12/143 36/64/144
f 6/9/145 34/63/146 38/65/147 10/13/148
f 36/64/149 7/12/150 11/16/151 40/66/152
f 10/13/153 38/65/154 42/67/155 14/17/156
f 40/66/157 11/16/158 15/20/159 44/68/160
f 14/17/161 42/67/162 46/69/163 18/21/164
f 44/68/165 15/20/166 19/24/167 48/70/168
f 18/21/169 46/69/170 50/71/171 22/25/172
f 48/70/173 19/24/174 23/28/175 53/72/176
f 21/26/177 22/25/178 54/73/179
f 22/25/180 50/71/181 54/73/182
f 53/72/183 23/28/184 54/73/185
f 23/28/186 24/27/187 54/73/188
f 24/27/189 21/26/190 54/73/191
f 51/53/192 47/49/193 29/74/194 55/57/195
f 47/49/196 43/45/197 28/75/198 29/74/199
f 43/45/200 39/41/201 27/76/202 28/75/203
f 39/41/204 35/37/205 26/77/206 27/76/207
f 35/37/208 31/31/209 25/78/210 26/77/211
f 31/31/212 61/30/213 64/79/214 25/78/215
f 25/78/216 64/79/217 62/33/218 33/36/219
f 26/77/220 25/78/221 33/36/222 37/40/223
f 27/76/224 26/77/225 37/40/226 41/44/227
f 28/75/228 27/76/229 41/44/230 45/48/231
f 29/74/232 28/75/233 45/48/234 49/52/235
f 55/57/236 29/74/237 49/52/238 52/56/239
f 57/80/240 56/81/241 65/82/242
f 59/83/243 58/84/244 65/82/245
f 56/81/246 59/83/247 65/82/248
f 61/85/249 60/86/250 65/82/251
f 63/87/252 62/88/253 65/82/254
f 60/86/255 57/80/256 65/82/257
f 58/84/258 63/87/259 65/82/260
f 64/89/261 61/85/262 65/82/263
f 62/88/264 64/89/265 65/82/266
