# This file uses centimeters as units for non-parametric coordinates.

mtllib BarrelHalfCOL.mtl
g default
v 4.151997 0.071442 2.520461
v 1.061838 0.071442 4.739652
v 4.511078 6.239789 3.020472
v 1.420920 6.239789 5.239662
v 4.991717 6.157557 3.689747
v 1.901558 6.157557 5.908937
v 4.632635 -0.010790 3.189736
v 1.542476 -0.010790 5.408926
vt 0.375000 0.000000
vt 0.625000 0.000000
vt 0.625000 0.250000
vt 0.375000 0.250000
vt 0.625000 0.500000
vt 0.375000 0.500000
vt 0.625000 0.750000
vt 0.375000 0.750000
vt 0.625000 1.000000
vt 0.375000 1.000000
vt 0.875000 0.000000
vt 0.875000 0.250000
vt 0.125000 0.000000
vt 0.125000 0.250000
vn -0.580430 0.099305 -0.808232
vn -0.580430 0.099305 -0.808232
vn -0.580430 0.099305 -0.808232
vn -0.580430 0.099305 -0.808232
vn 0.057926 0.995057 0.080660
vn 0.057926 0.995057 0.080660
vn 0.057926 0.995057 0.080660
vn 0.057926 0.995057 0.080660
vn 0.580430 -0.099305 0.808232
vn 0.580430 -0.099305 0.808232
vn 0.580430 -0.099305 0.808232
vn 0.580430 -0.099305 0.808232
vn -0.057926 -0.995057 -0.080660
vn -0.057926 -0.995057 -0.080660
vn -0.057926 -0.995057 -0.080660
vn -0.057926 -0.995057 -0.080660
vn -0.812247 -0.000000 0.583314
vn -0.812247 -0.000000 0.583314
vn -0.812247 -0.000000 0.583314
vn -0.812247 -0.000000 0.583314
vn 0.812247 0.000000 -0.583313
vn 0.812247 0.000000 -0.583313
vn 0.812247 0.000000 -0.583313
vn 0.812247 0.000000 -0.583313
s off
g polySurface114 pCube29
usemtl lambert2SG
f 1/1/1 2/2/2 4/3/3 3/4/4
f 3/4/5 4/3/6 6/5/7 5/6/8
f 5/6/9 6/5/10 8/7/11 7/8/12
f 7/8/13 8/7/14 2/9/15 1/10/16
f 2/2/17 8/11/18 6/12/19 4/3/20
f 7/13/21 1/1/22 3/4/23 5/14/24
g default
v -1.684947 0.000000 -5.295773
v -4.456453 0.000000 -3.320284
v -1.684947 0.605854 -5.295773
v -4.456453 0.605854 -3.320284
v 4.456453 0.605854 3.320284
v 1.684947 0.605854 5.295773
v 4.456453 0.000000 3.320284
v 1.684947 0.000000 5.295773
vt 0.375000 0.000000
vt 0.625000 0.000000
vt 0.625000 0.250000
vt 0.375000 0.250000
vt 0.625000 0.500000
vt 0.375000 0.500000
vt 0.625000 0.750000
vt 0.375000 0.750000
vt 0.625000 1.000000
vt 0.375000 1.000000
vt 0.875000 0.000000
vt 0.875000 0.250000
vt 0.125000 0.000000
vt 0.125000 0.250000
vn -0.580429 0.000000 -0.814311
vn -0.580429 0.000000 -0.814311
vn -0.580429 0.000000 -0.814311
vn -0.580429 0.000000 -0.814311
vn 0.000000 1.000000 0.000000
vn 0.000000 1.000000 0.000000
vn 0.000000 1.000000 0.000000
vn 0.000000 1.000000 0.000000
vn 0.580429 0.000000 0.814311
vn 0.580429 0.000000 0.814311
vn 0.580429 0.000000 0.814311
vn 0.580429 0.000000 0.814311
vn 0.000000 -1.000000 0.000000
vn 0.000000 -1.000000 0.000000
vn 0.000000 -1.000000 0.000000
vn 0.000000 -1.000000 0.000000
vn -0.814311 0.000000 0.580429
vn -0.814311 0.000000 0.580429
vn -0.814311 0.000000 0.580429
vn -0.814311 0.000000 0.580429
vn 0.814311 0.000000 -0.580429
vn 0.814311 0.000000 -0.580429
vn 0.814311 0.000000 -0.580429
vn 0.814311 0.000000 -0.580429
s off
g pCube29 polySurface101
usemtl lambert2SG
f 9/15/25 10/16/26 12/17/27 11/18/28
f 11/18/29 12/17/30 14/19/31 13/20/32
f 13/20/33 14/19/34 16/21/35 15/22/36
f 15/22/37 16/21/38 10/23/39 9/24/40
f 10/16/41 16/25/42 14/26/43 12/17/44
f 15/27/45 9/15/46 11/18/47 13/28/48
g default
v -4.502435 0.000000 -3.267345
v -5.563042 0.000000 0.005540
v -4.502435 0.605854 -3.267345
v -5.563042 0.605854 0.005540
v 5.563042 0.605854 -0.005540
v 4.502435 0.605854 3.267345
v 5.563042 0.000000 -0.005540
v 4.502435 0.000000 3.267345
vt 0.375000 0.000000
vt 0.625000 0.000000
vt 0.625000 0.250000
vt 0.375000 0.250000
vt 0.625000 0.500000
vt 0.375000 0.500000
vt 0.625000 0.750000
vt 0.375000 0.750000
vt 0.625000 1.000000
vt 0.375000 1.000000
vt 0.875000 0.000000
vt 0.875000 0.250000
vt 0.125000 0.000000
vt 0.125000 0.250000
vn -0.951297 0.000000 -0.308276
vn -0.951297 0.000000 -0.308276
vn -0.951297 0.000000 -0.308276
vn -0.951297 0.000000 -0.308276
vn 0.000000 1.000000 0.000000
vn 0.000000 1.000000 0.000000
vn 0.000000 1.000000 0.000000
vn 0.000000 1.000000 0.000000
vn 0.951297 0.000000 0.308276
vn 0.951297 0.000000 0.308276
vn 0.951297 0.000000 0.308276
vn 0.951297 0.000000 0.308276
vn 0.000000 -1.000000 0.000000
vn 0.000000 -1.000000 0.000000
vn 0.000000 -1.000000 0.000000
vn 0.000000 -1.000000 0.000000
vn -0.308276 0.000000 0.951297
vn -0.308276 0.000000 0.951297
vn -0.308276 0.000000 0.951297
vn -0.308276 0.000000 0.951297
vn 0.308276 0.000000 -0.951297
vn 0.308276 0.000000 -0.951297
vn 0.308276 0.000000 -0.951297
vn 0.308276 0.000000 -0.951297
s off
g pCube29 polySurface102
usemtl lambert2SG
f 17/29/49 18/30/50 20/31/51 19/32/52
f 19/32/53 20/31/54 22/33/55 21/34/56
f 21/34/57 22/33/58 24/35/59 23/36/60
f 23/36/61 24/35/62 18/37/63 17/38/64
f 18/30/65 24/39/66 22/40/67 20/31/68
f 23/41/69 17/29/70 19/32/71 21/42/72
g default
v 3.664568 0.071442 -3.187905
v 4.837972 0.071442 0.431074
v 4.250146 6.239789 -3.377771
v 5.423550 6.239789 0.241209
v 5.033955 6.157557 -3.631910
v 6.207358 6.157557 -0.012931
v 4.448377 -0.010790 -3.442044
v 5.621780 -0.010790 0.176935
vt 0.375000 0.000000
vt 0.625000 0.000000
vt 0.625000 0.250000
vt 0.375000 0.250000
vt 0.625000 0.500000
vt 0.375000 0.500000
vt 0.625000 0.750000
vt 0.375000 0.750000
vt 0.625000 1.000000
vt 0.375000 1.000000
vt 0.875000 0.000000
vt 0.875000 0.250000
vt 0.125000 0.000000
vt 0.125000 0.250000
vn -0.946545 0.099305 0.306904
vn -0.946545 0.099305 0.306904
vn -0.946545 0.099305 0.306904
vn -0.946545 0.099305 0.306904
vn 0.094463 0.995057 -0.030628
vn 0.094463 0.995057 -0.030628
vn 0.094463 0.995057 -0.030628
vn 0.094463 0.995057 -0.030628
vn 0.946545 -0.099305 -0.306904
vn 0.946545 -0.099305 -0.306904
vn 0.946545 -0.099305 -0.306904
vn 0.946545 -0.099305 -0.306904
vn -0.094463 -0.995057 0.030628
vn -0.094463 -0.995057 0.030628
vn -0.094463 -0.995057 0.030628
vn -0.094463 -0.995057 0.030628
vn 0.308429 0.000000 0.951247
vn 0.308429 0.000000 0.951248
vn 0.308429 0.000000 0.951247
vn 0.308429 0.000000 0.951248
vn -0.308429 -0.000000 -0.951248
vn -0.308429 -0.000000 -0.951248
vn -0.308429 -0.000000 -0.951248
vn -0.308429 -0.000000 -0.951248
s off
g pCube29 polySurface103
usemtl lambert2SG
f 25/43/73 26/44/74 28/45/75 27/46/76
f 27/46/77 28/45/78 30/47/79 29/48/80
f 29/48/81 30/47/82 32/49/83 31/50/84
f 31/50/85 32/49/86 26/51/87 25/52/88
f 26/44/89 32/53/90 30/54/91 28/45/92
f 31/55/93 25/43/94 27/46/95 29/56/96
g default
v -4.514899 0.000000 3.249074
v -1.744090 0.000000 5.281945
v -4.514899 0.605854 3.249074
v -1.744090 0.605854 5.281945
v 1.744090 0.605854 -5.281945
v 4.514899 0.605854 -3.249074
v 1.744090 0.000000 -5.281945
v 4.514899 0.000000 -3.249074
vt 0.375000 0.000000
vt 0.625000 0.000000
vt 0.625000 0.250000
vt 0.375000 0.250000
vt 0.625000 0.500000
vt 0.375000 0.500000
vt 0.625000 0.750000
vt 0.375000 0.750000
vt 0.625000 1.000000
vt 0.375000 1.000000
vt 0.875000 0.000000
vt 0.875000 0.250000
vt 0.125000 0.000000
vt 0.125000 0.250000
vn -0.591542 0.000000 0.806274
vn -0.591542 0.000000 0.806274
vn -0.591542 0.000000 0.806274
vn -0.591542 0.000000 0.806274
vn 0.000000 1.000000 0.000000
vn 0.000000 1.000000 0.000000
vn 0.000000 1.000000 0.000000
vn 0.000000 1.000000 0.000000
vn 0.591542 0.000000 -0.806274
vn 0.591542 0.000000 -0.806274
vn 0.591542 0.000000 -0.806274
vn 0.591542 0.000000 -0.806274
vn 0.000000 -1.000000 0.000000
vn 0.000000 -1.000000 0.000000
vn 0.000000 -1.000000 0.000000
vn 0.000000 -1.000000 0.000000
vn 0.806274 0.000000 0.591542
vn 0.806274 0.000000 0.591542
vn 0.806274 0.000000 0.591542
vn 0.806274 0.000000 0.591542
vn -0.806274 0.000000 -0.591542
vn -0.806274 0.000000 -0.591542
vn -0.806274 0.000000 -0.591542
vn -0.806274 0.000000 -0.591542
s off
g pCube29 polySurface100
usemtl lambert2SG
f 33/57/97 34/58/98 36/59/99 35/60/100
f 35/60/101 36/59/102 38/61/103 37/62/104
f 37/62/105 38/61/106 40/63/107 39/64/108
f 39/64/109 40/63/110 34/65/111 33/66/112
f 34/58/113 40/67/114 38/68/115 36/59/116
f 39/69/117 33/57/118 35/60/119 37/70/120
g default
v -3.666461 0.071442 3.185727
v -4.837715 0.071442 -0.433949
v -4.252152 6.239789 3.375244
v -5.423406 6.239789 -0.244432
v -5.036112 6.157557 3.628918
v -6.207365 6.157557 0.009241
v -4.450421 -0.010790 3.439400
v -5.621675 -0.010790 -0.180276
vt 0.375000 0.000000
vt 0.625000 0.000000
vt 0.625000 0.250000
vt 0.375000 0.250000
vt 0.625000 0.500000
vt 0.375000 0.500000
vt 0.625000 0.750000
vt 0.375000 0.750000
vt 0.625000 1.000000
vt 0.375000 1.000000
vt 0.875000 0.000000
vt 0.875000 0.250000
vt 0.125000 0.000000
vt 0.125000 0.250000
vn 0.946728 0.099305 -0.306342
vn 0.946728 0.099305 -0.306342
vn 0.946728 0.099305 -0.306342
vn 0.946728 0.099305 -0.306342
vn -0.094481 0.995057 0.030572
vn -0.094482 0.995057 0.030572
vn -0.094481 0.995057 0.030572
vn -0.094482 0.995057 0.030572
vn -0.946728 -0.099305 0.306342
vn -0.946728 -0.099305 0.306342
vn -0.946728 -0.099305 0.306342
vn -0.946728 -0.099305 0.306342
vn 0.094481 -0.995057 -0.030572
vn 0.094481 -0.995057 -0.030572
vn 0.094481 -0.995057 -0.030572
vn 0.094481 -0.995057 -0.030572
vn -0.307863 -0.000000 -0.951431
vn -0.307863 -0.000000 -0.951431
vn -0.307863 -0.000000 -0.951431
vn -0.307863 -0.000000 -0.951431
vn 0.307863 0.000000 0.951431
vn 0.307863 0.000000 0.951431
vn 0.307863 0.000000 0.951431
vn 0.307863 0.000000 0.951431
s off
g pCube29 polySurface106
usemtl lambert2SG
f 41/71/121 42/72/122 44/73/123 43/74/124
f 43/74/125 44/73/126 46/75/127 45/76/128
f 45/76/129 46/75/130 48/77/131 47/78/132
f 47/78/133 48/77/134 42/79/135 41/80/136
f 42/72/137 48/81/138 46/82/139 44/73/140
f 47/83/141 41/71/142 43/74/143 45/84/144
g default
v -1.092054 0.071442 4.732780
v -4.167992 0.071442 2.493920
v -1.454319 6.239789 5.230491
v -4.530257 6.239789 2.991630
v -1.939218 6.157557 5.896686
v -5.015155 6.157557 3.657825
v -1.576953 -0.010790 5.398976
v -4.652891 -0.010790 3.160115
vt 0.375000 0.000000
vt 0.625000 0.000000
vt 0.625000 0.250000
vt 0.375000 0.250000
vt 0.625000 0.500000
vt 0.375000 0.500000
vt 0.625000 0.750000
vt 0.375000 0.750000
vt 0.625000 1.000000
vt 0.375000 1.000000
vt 0.875000 0.000000
vt 0.875000 0.250000
vt 0.125000 0.000000
vt 0.125000 0.250000
vn 0.585575 0.099305 -0.804513
vn 0.585575 0.099305 -0.804513
vn 0.585575 0.099305 -0.804513
vn 0.585575 0.099305 -0.804513
vn -0.058439 0.995057 0.080289
vn -0.058439 0.995057 0.080289
vn -0.058439 0.995057 0.080289
vn -0.058439 0.995057 0.080289
vn -0.585575 -0.099305 0.804513
vn -0.585575 -0.099305 0.804513
vn -0.585575 -0.099305 0.804513
vn -0.585575 -0.099305 0.804513
vn 0.058439 -0.995057 -0.080289
vn 0.058439 -0.995057 -0.080289
vn 0.058439 -0.995057 -0.080289
vn 0.058439 -0.995057 -0.080289
vn -0.808509 0.000000 -0.588484
vn -0.808509 0.000000 -0.588484
vn -0.808509 0.000000 -0.588484
vn -0.808509 0.000000 -0.588484
vn 0.808509 0.000000 0.588483
vn 0.808509 0.000000 0.588483
vn 0.808509 0.000000 0.588483
vn 0.808509 0.000000 0.588483
s off
g pCube29 polySurface105
usemtl lambert2SG
f 49/85/145 50/86/146 52/87/147 51/88/148
f 51/88/149 52/87/150 54/89/151 53/90/152
f 53/90/153 54/89/154 56/91/155 55/92/156
f 55/92/157 56/91/158 50/93/159 49/94/160
f 50/86/161 56/95/162 54/96/163 52/87/164
f 55/97/165 49/85/166 51/88/167 53/98/168
g default
v 4.839723 0.071442 -0.410948
v 3.651276 0.071442 3.203120
v 5.424506 6.239789 -0.218648
v 4.236060 6.239789 3.395419
v 6.207251 6.157557 0.038749
v 5.018805 6.157557 3.652816
v 5.622468 -0.010790 -0.153551
v 4.434021 -0.010790 3.460517
vt 0.375000 0.000000
vt 0.625000 0.000000
vt 0.625000 0.250000
vt 0.375000 0.250000
vt 0.625000 0.500000
vt 0.375000 0.500000
vt 0.625000 0.750000
vt 0.375000 0.750000
vt 0.625000 1.000000
vt 0.375000 1.000000
vt 0.875000 0.000000
vt 0.875000 0.250000
vt 0.125000 0.000000
vt 0.125000 0.250000
vn -0.945261 0.099305 -0.310839
vn -0.945261 0.099305 -0.310839
vn -0.945261 0.099305 -0.310839
vn -0.945261 0.099305 -0.310839
vn 0.094335 0.995057 0.031021
vn 0.094335 0.995057 0.031021
vn 0.094335 0.995057 0.031021
vn 0.094335 0.995057 0.031021
vn 0.945261 -0.099305 0.310839
vn 0.945261 -0.099305 0.310839
vn 0.945261 -0.099305 0.310839
vn 0.945261 -0.099305 0.310839
vn -0.094335 -0.995057 -0.031021
vn -0.094335 -0.995057 -0.031021
vn -0.094335 -0.995057 -0.031021
vn -0.094335 -0.995057 -0.031021
vn -0.312382 0.000000 0.949956
vn -0.312382 0.000000 0.949957
vn -0.312382 0.000000 0.949956
vn -0.312382 0.000000 0.949957
vn 0.312383 0.000000 -0.949956
vn 0.312383 0.000000 -0.949956
vn 0.312383 0.000000 -0.949956
vn 0.312383 0.000000 -0.949956
s off
g pCube29 polySurface104
usemtl lambert2SG
f 57/99/169 58/100/170 60/101/171 59/102/172
f 59/102/173 60/101/174 62/103/175 61/104/176
f 61/104/177 62/103/178 64/105/179 63/106/180
f 63/106/181 64/105/182 58/107/183 57/108/184
f 58/100/185 64/109/186 62/110/187 60/101/188
f 63/111/189 57/99/190 59/102/191 61/112/192
g default
v 1.099119 0.071442 -4.731145
v 4.171711 0.071442 -2.487695
v 1.462127 6.239789 -5.228313
v 4.534718 6.239789 -2.984863
v 1.948019 6.157557 -5.893784
v 5.020611 6.157557 -3.650333
v 1.585012 -0.010790 -5.396616
v 4.657604 -0.010790 -3.153165
vt 0.375000 0.000000
vt 0.625000 0.000000
vt 0.625000 0.250000
vt 0.375000 0.250000
vt 0.625000 0.500000
vt 0.375000 0.500000
vt 0.625000 0.750000
vt 0.375000 0.750000
vt 0.625000 1.000000
vt 0.375000 1.000000
vt 0.875000 0.000000
vt 0.875000 0.250000
vt 0.125000 0.000000
vt 0.125000 0.250000
vn -0.586775 0.099305 0.803638
vn -0.586775 0.099305 0.803638
vn -0.586775 0.099305 0.803638
vn -0.586775 0.099305 0.803638
vn 0.058559 0.995057 -0.080202
vn 0.058559 0.995057 -0.080202
vn 0.058559 0.995057 -0.080202
vn 0.058559 0.995057 -0.080202
vn 0.586775 -0.099305 -0.803638
vn 0.586775 -0.099305 -0.803638
vn 0.586775 -0.099305 -0.803638
vn 0.586775 -0.099305 -0.803638
vn -0.058559 -0.995057 0.080201
vn -0.058559 -0.995057 0.080201
vn -0.058559 -0.995057 0.080201
vn -0.058559 -0.995057 0.080201
vn 0.807630 0.000000 0.589690
vn 0.807630 0.000000 0.589690
vn 0.807630 0.000000 0.589690
vn 0.807630 0.000000 0.589690
vn -0.807629 0.000000 -0.589690
vn -0.807629 0.000000 -0.589690
vn -0.807629 0.000000 -0.589690
vn -0.807629 0.000000 -0.589690
s off
g pCube29 polySurface109
usemtl lambert2SG
f 65/113/193 66/114/194 68/115/195 67/116/196
f 67/116/197 68/115/198 70/117/199 69/118/200
f 69/118/201 70/117/202 72/119/203 71/120/204
f 71/120/205 72/119/206 66/121/207 65/122/208
f 66/114/209 72/123/210 70/124/211 68/115/212
f 71/125/213 65/113/214 67/116/215 69/126/216
g default
v -1.707958 0.000000 5.290397
v 1.707958 0.000000 5.290397
v -1.707958 0.605854 5.290397
v 1.707958 0.605854 5.290397
v -1.707958 0.605854 -5.290397
v 1.707958 0.605854 -5.290397
v -1.707958 0.000000 -5.290397
v 1.707958 0.000000 -5.290397
vt 0.375000 0.000000
vt 0.625000 0.000000
vt 0.625000 0.250000
vt 0.375000 0.250000
vt 0.625000 0.500000
vt 0.375000 0.500000
vt 0.625000 0.750000
vt 0.375000 0.750000
vt 0.625000 1.000000
vt 0.375000 1.000000
vt 0.875000 0.000000
vt 0.875000 0.250000
vt 0.125000 0.000000
vt 0.125000 0.250000
vn 0.000000 0.000000 1.000000
vn 0.000000 0.000000 1.000000
vn 0.000000 0.000000 1.000000
vn 0.000000 0.000000 1.000000
vn 0.000000 1.000000 0.000000
vn 0.000000 1.000000 0.000000
vn 0.000000 1.000000 0.000000
vn 0.000000 1.000000 0.000000
vn 0.000000 0.000000 -1.000000
vn 0.000000 0.000000 -1.000000
vn 0.000000 0.000000 -1.000000
vn 0.000000 0.000000 -1.000000
vn 0.000000 -1.000000 0.000000
vn 0.000000 -1.000000 0.000000
vn 0.000000 -1.000000 0.000000
vn 0.000000 -1.000000 0.000000
vn 1.000000 0.000000 0.000000
vn 1.000000 0.000000 0.000000
vn 1.000000 0.000000 0.000000
vn 1.000000 0.000000 0.000000
vn -1.000000 0.000000 0.000000
vn -1.000000 0.000000 0.000000
vn -1.000000 0.000000 0.000000
vn -1.000000 0.000000 0.000000
s off
g pCube29 polySurface112
usemtl lambert2SG
f 73/127/217 74/128/218 76/129/219 75/130/220
f 75/130/221 76/129/222 78/131/223 77/132/224
f 77/132/225 78/131/226 80/133/227 79/134/228
f 79/134/229 80/133/230 74/135/231 73/136/232
f 74/128/233 80/137/234 78/138/235 76/129/236
f 79/139/237 73/127/238 75/130/239 77/140/240
g default
v -4.168222 0.071442 -2.493535
v -1.092491 0.071442 -4.732680
v -4.530533 6.239789 -2.991212
v -1.454802 6.239789 -5.230356
v -5.015493 6.157557 -3.657362
v -1.939762 6.157557 -5.896506
v -4.653183 -0.010790 -3.159686
v -1.577452 -0.010790 -5.398830
vt 0.375000 0.000000
vt 0.625000 0.000000
vt 0.625000 0.250000
vt 0.375000 0.250000
vt 0.625000 0.500000
vt 0.375000 0.500000
vt 0.625000 0.750000
vt 0.375000 0.750000
vt 0.625000 1.000000
vt 0.375000 1.000000
vt 0.875000 0.000000
vt 0.875000 0.250000
vt 0.125000 0.000000
vt 0.125000 0.250000
vn 0.585649 0.099305 0.804459
vn 0.585649 0.099305 0.804459
vn 0.585649 0.099305 0.804459
vn 0.585649 0.099305 0.804459
vn -0.058447 0.995057 -0.080283
vn -0.058447 0.995057 -0.080283
vn -0.058447 0.995057 -0.080283
vn -0.058447 0.995057 -0.080283
vn -0.585649 -0.099305 -0.804459
vn -0.585649 -0.099305 -0.804459
vn -0.585649 -0.099305 -0.804459
vn -0.585649 -0.099305 -0.804459
vn 0.058447 -0.995057 0.080283
vn 0.058447 -0.995057 0.080283
vn 0.058447 -0.995057 0.080283
vn 0.058447 -0.995057 0.080283
vn 0.808455 -0.000000 -0.588559
vn 0.808455 -0.000000 -0.588559
vn 0.808455 -0.000000 -0.588559
vn 0.808455 -0.000000 -0.588559
vn -0.808455 0.000000 0.588558
vn -0.808455 0.000000 0.588558
vn -0.808455 0.000000 0.588558
vn -0.808455 0.000000 0.588558
s off
g pCube29 polySurface108
usemtl lambert2SG
f 81/141/241 82/142/242 84/143/243 83/144/244
f 83/144/245 84/143/246 86/145/247 85/146/248
f 85/146/249 86/145/250 88/147/251 87/148/252
f 87/148/253 88/147/254 82/149/255 81/150/256
f 82/142/257 88/151/258 86/152/259 84/143/260
f 87/153/261 81/141/262 83/144/263 85/154/264
g default
v -5.566598 0.000000 -0.038942
v -4.511743 0.000000 3.260783
v -5.566598 0.605854 -0.038942
v -4.511743 0.605854 3.260783
v 4.511743 0.605854 -3.260783
v 5.566598 0.605854 0.038942
v 4.511743 0.000000 -3.260783
v 5.566598 0.000000 0.038942
vt 0.375000 0.000000
vt 0.625000 0.000000
vt 0.625000 0.250000
vt 0.375000 0.250000
vt 0.625000 0.500000
vt 0.375000 0.500000
vt 0.625000 0.750000
vt 0.375000 0.750000
vt 0.625000 1.000000
vt 0.375000 1.000000
vt 0.875000 0.000000
vt 0.875000 0.250000
vt 0.125000 0.000000
vt 0.125000 0.250000
vn -0.952513 0.000000 0.304499
vn -0.952513 0.000000 0.304499
vn -0.952513 0.000000 0.304499
vn -0.952513 0.000000 0.304499
vn 0.000000 1.000000 0.000000
vn 0.000000 1.000000 0.000000
vn 0.000000 1.000000 0.000000
vn 0.000000 1.000000 0.000000
vn 0.952513 0.000000 -0.304499
vn 0.952513 0.000000 -0.304499
vn 0.952513 0.000000 -0.304499
vn 0.952513 0.000000 -0.304499
vn 0.000000 -1.000000 0.000000
vn 0.000000 -1.000000 0.000000
vn 0.000000 -1.000000 0.000000
vn 0.000000 -1.000000 0.000000
vn 0.304499 0.000000 0.952513
vn 0.304499 0.000000 0.952513
vn 0.304499 0.000000 0.952513
vn 0.304499 0.000000 0.952513
vn -0.304499 0.000000 -0.952513
vn -0.304499 0.000000 -0.952513
vn -0.304499 0.000000 -0.952513
vn -0.304499 0.000000 -0.952513
s off
g pCube29 polySurface111
usemtl lambert2SG
f 89/155/265 90/156/266 92/157/267 91/158/268
f 91/158/269 92/157/270 94/159/271 93/160/272
f 93/160/273 94/159/274 96/161/275 95/162/276
f 95/162/277 96/161/278 90/163/279 89/164/280
f 90/156/281 96/165/282 94/166/283 92/157/284
f 95/167/285 89/155/286 91/158/287 93/168/288
g default
v 1.902228 0.071442 4.469152
v -1.902228 0.071442 4.469152
v 1.902228 6.239789 5.084742
v -1.902228 6.239789 5.084742
v 1.902228 6.157557 5.908722
v -1.902228 6.157557 5.908722
v 1.902228 -0.010790 5.293132
v -1.902228 -0.010790 5.293132
vt 0.375000 0.000000
vt 0.625000 0.000000
vt 0.625000 0.250000
vt 0.375000 0.250000
vt 0.625000 0.500000
vt 0.375000 0.500000
vt 0.625000 0.750000
vt 0.375000 0.750000
vt 0.625000 1.000000
vt 0.375000 1.000000
vt 0.875000 0.000000
vt 0.875000 0.250000
vt 0.125000 0.000000
vt 0.125000 0.250000
vn 0.000000 0.099305 -0.995057
vn 0.000000 0.099305 -0.995057
vn 0.000000 0.099305 -0.995057
vn 0.000000 0.099305 -0.995057
vn 0.000000 0.995057 0.099305
vn 0.000000 0.995057 0.099305
vn 0.000000 0.995057 0.099305
vn 0.000000 0.995057 0.099305
vn 0.000000 -0.099305 0.995057
vn 0.000000 -0.099305 0.995057
vn 0.000000 -0.099305 0.995057
vn 0.000000 -0.099305 0.995057
vn 0.000000 -0.995057 -0.099305
vn 0.000000 -0.995057 -0.099305
vn 0.000000 -0.995057 -0.099305
vn 0.000000 -0.995057 -0.099305
vn -1.000000 -0.000000 0.000000
vn -1.000000 -0.000000 0.000000
vn -1.000000 -0.000000 0.000000
vn -1.000000 -0.000000 0.000000
vn 1.000000 0.000000 0.000000
vn 1.000000 0.000000 0.000000
vn 1.000000 0.000000 0.000000
vn 1.000000 0.000000 0.000000
s off
g pCube29 polySurface113
usemtl lambert2SG
f 97/169/289 98/170/290 100/171/291 99/172/292
f 99/172/293 100/171/294 102/173/295 101/174/296
f 101/174/297 102/173/298 104/175/299 103/176/300
f 103/176/301 104/175/302 98/177/303 97/178/304
f 98/170/305 104/179/306 102/180/307 100/171/308
f 103/181/309 97/169/310 99/172/311 101/182/312
g default
v -4.839899 0.071442 0.408869
v -3.649900 0.071442 -3.204688
v -5.424600 6.239789 0.216318
v -4.234601 6.239789 -3.397239
v -6.207234 6.157557 -0.041415
v -5.017235 6.157557 -3.654972
v -5.622533 -0.010790 0.151135
v -4.432535 -0.010790 -3.462421
vt 0.375000 0.000000
vt 0.625000 0.000000
vt 0.625000 0.250000
vt 0.375000 0.250000
vt 0.625000 0.500000
vt 0.375000 0.500000
vt 0.625000 0.750000
vt 0.375000 0.750000
vt 0.625000 1.000000
vt 0.375000 1.000000
vt 0.875000 0.000000
vt 0.875000 0.250000
vt 0.125000 0.000000
vt 0.125000 0.250000
vn 0.945127 0.099305 0.311245
vn 0.945127 0.099305 0.311245
vn 0.945127 0.099305 0.311245
vn 0.945127 0.099305 0.311245
vn -0.094322 0.995057 -0.031061
vn -0.094322 0.995057 -0.031061
vn -0.094322 0.995057 -0.031061
vn -0.094322 0.995057 -0.031061
vn -0.945127 -0.099305 -0.311245
vn -0.945127 -0.099305 -0.311245
vn -0.945127 -0.099305 -0.311245
vn -0.945127 -0.099305 -0.311245
vn 0.094322 -0.995057 0.031062
vn 0.094322 -0.995057 0.031062
vn 0.094322 -0.995057 0.031062
vn 0.094322 -0.995057 0.031062
vn 0.312791 0.000000 -0.949822
vn 0.312791 0.000000 -0.949822
vn 0.312791 0.000000 -0.949822
vn 0.312791 0.000000 -0.949822
vn -0.312791 -0.000000 0.949822
vn -0.312791 -0.000000 0.949822
vn -0.312791 -0.000000 0.949822
vn -0.312791 -0.000000 0.949822
s off
g pCube29 polySurface107
usemtl lambert2SG
f 105/183/313 106/184/314 108/185/315 107/186/316
f 107/186/317 108/185/318 110/187/319 109/188/320
f 109/188/321 110/187/322 112/189/323 111/190/324
f 111/190/325 112/189/326 106/191/327 105/192/328
f 106/184/329 112/193/330 110/194/331 108/185/332
f 111/195/333 105/183/334 107/186/335 109/196/336
g default
v -1.902228 0.071442 -4.469152
v 1.902228 0.071442 -4.469152
v -1.902228 6.239789 -5.084742
v 1.902228 6.239789 -5.084742
v -1.902228 6.157557 -5.908722
v 1.902228 6.157557 -5.908722
v -1.902228 -0.010790 -5.293132
v 1.902228 -0.010790 -5.293132
vt 0.375000 0.000000
vt 0.625000 0.000000
vt 0.625000 0.250000
vt 0.375000 0.250000
vt 0.625000 0.500000
vt 0.375000 0.500000
vt 0.625000 0.750000
vt 0.375000 0.750000
vt 0.625000 1.000000
vt 0.375000 1.000000
vt 0.875000 0.000000
vt 0.875000 0.250000
vt 0.125000 0.000000
vt 0.125000 0.250000
vn 0.000000 0.099305 0.995057
vn 0.000000 0.099305 0.995057
vn 0.000000 0.099305 0.995057
vn 0.000000 0.099305 0.995057
vn 0.000000 0.995057 -0.099305
vn 0.000000 0.995057 -0.099305
vn 0.000000 0.995057 -0.099305
vn 0.000000 0.995057 -0.099305
vn 0.000000 -0.099305 -0.995057
vn 0.000000 -0.099305 -0.995057
vn 0.000000 -0.099305 -0.995057
vn 0.000000 -0.099305 -0.995057
vn 0.000000 -0.995057 0.099305
vn 0.000000 -0.995057 0.099305
vn 0.000000 -0.995057 0.099305
vn 0.000000 -0.995057 0.099305
vn 1.000000 -0.000000 0.000000
vn 1.000000 -0.000000 0.000000
vn 1.000000 -0.000000 0.000000
vn 1.000000 -0.000000 0.000000
vn -1.000000 0.000000 0.000000
vn -1.000000 0.000000 0.000000
vn -1.000000 0.000000 0.000000
vn -1.000000 0.000000 0.000000
s off
g pCube29 polySurface110
usemtl lambert2SG
f 113/197/337 114/198/338 116/199/339 115/200/340
f 115/200/341 116/199/342 118/201/343 117/202/344
f 117/202/345 118/201/346 120/203/347 119/204/348
f 119/204/349 120/203/350 114/205/351 113/206/352
f 114/198/353 120/207/354 118/208/355 116/199/356
f 119/209/357 113/197/358 115/200/359 117/210/360
