# This file uses centimeters as units for non-parametric coordinates.

mtllib FireWatchTower_arm.mtl
g default
v -0.669950 67.518478 69.714256
v 0.669950 67.518478 69.714256
v -0.669950 68.744705 69.714256
v 0.669950 68.744705 69.714256
v 0.703747 67.461815 51.511757
v -0.703747 67.461815 51.511757
v -0.703747 68.801384 51.511757
v 0.703747 68.801384 51.511757
v -0.928024 69.025642 51.512962
v 0.928024 69.025642 51.512962
v 0.928024 67.237541 51.512962
v -0.928024 67.237541 51.512962
v 0.954092 67.193840 32.766697
v -0.954092 67.193840 32.766697
v -0.954092 69.069351 32.766693
v 0.954092 69.069351 32.766693
v -1.249052 69.364319 32.767937
v 1.249052 69.364319 32.767937
v 1.273200 69.404785 -4.539802
v -1.273200 69.404785 -4.539802
v -1.273200 66.858398 -4.539802
v 1.273200 66.858398 -4.539802
v 1.249052 66.898872 32.767941
v -1.249052 66.898872 32.767941
vt 0.666320 0.961480
vt 0.652745 0.961503
vt 0.652729 0.944914
vt 0.666304 0.944891
vt 0.261974 0.373055
vt 0.248185 0.372999
vt 0.248856 0.167040
vt 0.262913 0.167095
vt 0.276969 0.167174
vt 0.291024 0.167278
vt 0.289371 0.373231
vt 0.275583 0.373131
vt 0.234577 0.372970
vt 0.234800 0.167009
vt 0.270601 0.481567
vt 0.278951 0.481639
vt 0.277820 0.589622
vt 0.269871 0.589554
vt 0.262654 0.481538
vt 0.262596 0.589527
vt 0.254647 0.589538
vt 0.254304 0.481549
vt 0.247372 0.589583
vt 0.246357 0.481599
vt 0.666502 0.944321
vt 0.652533 0.944341
vt 0.650305 0.941373
vt 0.668725 0.941346
vt 0.652551 0.962095
vt 0.666519 0.962074
vt 0.668748 0.965043
vt 0.650328 0.965070
vt 0.240052 0.375055
vt 0.251093 0.374938
vt 0.251809 0.480483
vt 0.241010 0.480469
vt 0.273164 0.374942
vt 0.284014 0.375049
vt 0.283442 0.480361
vt 0.273048 0.480391
vt 0.262252 0.480482
vt 0.262034 0.374895
vt 0.668469 0.941394
vt 0.650534 0.941420
vt 0.647759 0.937722
vt 0.671238 0.937688
vt 0.650550 0.964959
vt 0.668485 0.964933
vt 0.671260 0.968631
vt 0.647781 0.968665
vn 0.000000 0.000000 1.000000
vn 0.000000 0.000000 1.000000
vn 0.000000 0.000000 1.000000
vn 0.000000 0.000000 1.000000
vn 0.000000 0.999999 0.001085
vn 0.000000 0.999999 0.001085
vn 0.000000 0.999999 0.001085
vn 0.000000 0.999999 0.001085
vn 0.000000 -0.999999 0.001085
vn 0.000000 -0.999999 0.001085
vn 0.000000 -0.999999 0.001085
vn 0.000000 -0.999999 0.001085
vn 1.000000 0.000000 0.000647
vn 1.000000 0.000000 0.000647
vn 1.000000 0.000000 0.000647
vn 1.000000 0.000000 0.000647
vn -1.000000 0.000000 0.000647
vn -1.000000 0.000000 0.000647
vn -1.000000 0.000000 0.000647
vn -1.000000 0.000000 0.000647
vn 0.000000 -0.999995 0.003113
vn 0.000000 -0.999995 0.003113
vn 0.000000 -0.999995 0.003113
vn 0.000000 -0.999995 0.003113
vn -0.999998 0.000000 0.001857
vn -0.999998 0.000000 0.001857
vn -0.999998 0.000000 0.001857
vn -0.999998 0.000000 0.001857
vn 0.000000 0.999995 0.003114
vn 0.000000 0.999995 0.003114
vn 0.000000 0.999995 0.003114
vn 0.000000 0.999995 0.003114
vn 0.999998 0.000000 0.001857
vn 0.999998 0.000000 0.001857
vn 0.999998 0.000000 0.001857
vn 0.999998 0.000000 0.001857
vn 0.002636 -0.002745 0.999993
vn -0.002637 -0.002745 0.999993
vn -0.002638 -0.002744 0.999993
vn 0.002636 -0.002744 0.999993
vn -0.002637 0.002745 0.999993
vn 0.002636 0.002745 0.999993
vn 0.002636 0.002745 0.999993
vn -0.002637 0.002745 0.999993
vn -0.002637 -0.002745 0.999993
vn -0.002637 0.002745 0.999993
vn -0.002637 0.002745 0.999993
vn -0.002638 -0.002744 0.999993
vn 0.002636 0.002745 0.999993
vn 0.002636 -0.002745 0.999993
vn 0.002636 -0.002744 0.999993
vn 0.002636 0.002745 0.999993
vn 0.000000 -0.999997 0.002331
vn 0.000000 -0.999997 0.002331
vn 0.000000 -0.999997 0.002331
vn 0.000000 -0.999997 0.002331
vn -0.999999 0.000000 0.001391
vn -0.999999 0.000000 0.001391
vn -0.999999 0.000000 0.001391
vn -0.999999 0.000000 0.001391
vn 0.000000 0.999997 0.002331
vn 0.000000 0.999997 0.002331
vn 0.000000 0.999997 0.002331
vn 0.000000 0.999997 0.002331
vn 0.999999 0.000000 0.001391
vn 0.999999 0.000000 0.001391
vn 0.999999 0.000000 0.001391
vn 0.999999 0.000000 0.001391
vn 0.002093 -0.002123 0.999996
vn -0.002094 -0.002123 0.999996
vn -0.002094 -0.002123 0.999996
vn 0.002093 -0.002123 0.999996
vn -0.002094 0.002125 0.999996
vn 0.002093 0.002125 0.999996
vn 0.002093 0.002125 0.999996
vn -0.002094 0.002125 0.999996
vn -0.002094 -0.002123 0.999996
vn -0.002094 0.002125 0.999996
vn -0.002094 0.002125 0.999996
vn -0.002094 -0.002123 0.999996
vn 0.002093 0.002125 0.999996
vn 0.002093 -0.002123 0.999996
vn 0.002093 -0.002123 0.999996
vn 0.002093 0.002125 0.999996
s off
g FireWatchTower_arm:pCube29
usemtl blinn1SG
f 1/1/1 2/2/2 4/3/3 3/4/4
f 17/5/5 18/6/6 19/7/7 20/8/8
f 21/9/9 22/10/10 23/11/11 24/12/12
f 18/6/13 23/13/14 22/14/15 19/7/16
f 21/9/17 24/12/18 17/5/19 20/8/20
f 6/15/21 5/16/22 2/17/23 1/18/24
f 7/19/25 6/15/26 1/18/27 3/20/28
f 3/20/29 4/21/30 8/22/31 7/19/32
f 2/23/33 5/24/34 8/22/35 4/21/36
f 7/25/37 8/26/38 10/27/39 9/28/40
f 5/29/41 6/30/42 12/31/43 11/32/44
f 8/26/45 5/29/46 11/32/47 10/27/48
f 6/30/49 7/25/50 9/28/51 12/31/52
f 14/33/53 13/34/54 11/35/55 12/36/56
f 15/37/57 14/38/58 12/39/59 9/40/60
f 9/40/61 10/41/62 16/42/63 15/37/64
f 10/41/65 11/35/66 13/34/67 16/42/68
f 15/43/69 16/44/70 18/45/71 17/46/72
f 13/47/73 14/48/74 24/49/75 23/50/76
f 16/44/77 13/47/78 23/50/79 18/45/80
f 14/48/81 15/43/82 17/46/83 24/49/84
