# This file uses centimeters as units for non-parametric coordinates.

mtllib FireWatchTower_doorBottomCOL.mtl
g default
v -9.726397 74.432991 11.369487
v 9.726397 74.432991 11.369487
v -9.726397 84.408623 11.369487
v 9.726397 84.408623 11.369487
v -9.726397 84.408623 10.650686
v 9.726397 84.408623 10.650686
v -9.726397 74.432991 10.650686
v 9.726397 74.432991 10.650686
vt 0.695630 0.950148
vt 0.695630 0.797613
vt 0.756345 0.797613
vt 0.756345 0.950148
vt 0.761982 0.797613
vt 0.761981 0.950148
vt 0.828525 0.797614
vt 0.828524 0.950149
vt 0.689994 0.950148
vt 0.689994 0.797613
vt 0.695630 0.791977
vt 0.756345 0.791976
vt 0.695630 0.955784
vt 0.756345 0.955784
vn 0.000000 0.000000 1.000000
vn 0.000000 0.000000 1.000000
vn 0.000000 0.000000 1.000000
vn 0.000000 0.000000 1.000000
vn 0.000000 1.000000 0.000000
vn 0.000000 1.000000 0.000000
vn 0.000000 1.000000 0.000000
vn 0.000000 1.000000 0.000000
vn 0.000000 0.000000 -1.000000
vn 0.000000 0.000000 -1.000000
vn 0.000000 0.000000 -1.000000
vn 0.000000 0.000000 -1.000000
vn 0.000000 -1.000000 0.000000
vn 0.000000 -1.000000 0.000000
vn 0.000000 -1.000000 0.000000
vn 0.000000 -1.000000 0.000000
vn 1.000000 0.000000 0.000000
vn 1.000000 0.000000 0.000000
vn 1.000000 0.000000 0.000000
vn 1.000000 0.000000 0.000000
vn -1.000000 0.000000 0.000000
vn -1.000000 0.000000 0.000000
vn -1.000000 0.000000 0.000000
vn -1.000000 0.000000 0.000000
s off
g FireWatchTower_doorBottom:pCube27
usemtl FireWatchTower_doorBottom:blinn1SG
f 1/1/1 2/2/2 4/3/3 3/4/4
f 3/4/5 4/3/6 6/5/7 5/6/8
f 5/6/9 6/5/10 8/7/11 7/8/12
f 7/9/13 8/10/14 2/2/15 1/1/16
f 2/2/17 8/11/18 6/12/19 4/3/20
f 7/13/21 1/1/22 3/4/23 5/14/24
