# This file uses centimeters as units for non-parametric coordinates.

mtllib MountainEntranceCOL.mtl
g default
v -17.367476 -3.192288 -1.657990
v -16.104776 -3.192288 0.770432
v -14.766653 -3.192288 2.327057
v -12.471897 -3.192288 2.962753
v -10.152776 -3.192288 3.050461
v -9.677954 -3.192288 0.557571
v -9.656202 -3.192288 -1.626236
v -11.031657 -3.192288 -3.360733
v -13.161631 -3.192288 -5.710678
v -15.215137 -3.192288 -3.365433
v -13.823320 20.184826 -2.953766
v -12.975538 20.184826 -2.715057
v -12.429976 20.184826 -2.023621
v -12.395019 20.184826 -1.143570
v -12.884020 20.184826 -0.411041
v -13.710197 20.184826 -0.105850
v -14.557981 20.184826 -0.344559
v -15.103544 20.184826 -1.035980
v -15.138500 20.184826 -1.916046
v -14.649498 20.184826 -2.648560
v -13.325222 -0.447598 -3.397964
v -11.803186 -0.447598 -2.969421
v -10.823730 -0.447598 -1.728088
v -10.760970 -0.447598 -0.148102
v -11.638883 -0.447598 1.167007
v -13.122132 -0.447598 1.714935
v -14.644169 -0.447598 1.286377
v -15.623627 -0.447598 0.045044
v -15.686384 -0.447598 -1.534927
v -14.808472 -0.447598 -2.850037
v -13.765934 20.238556 -1.528793
v 11.451937 0.000000 1.760910
v 13.879573 0.000000 0.496689
v 15.435354 0.000000 -0.842407
v 16.069620 0.000000 -3.137558
v 16.155876 0.000000 -5.456726
v 13.662704 0.000000 -5.929993
v 11.478874 0.000000 -5.950394
v 9.745242 0.000000 -4.573853
v 7.396630 0.000000 -2.442413
v 9.743141 0.000000 -0.390366
v 10.121974 20.195934 -1.852997
v 10.381529 20.195934 -2.777039
v 11.134649 20.195934 -3.372040
v 12.093669 20.195934 -3.410721
v 12.892276 20.195934 -2.878326
v 13.225428 20.195934 -1.978210
v 12.965873 20.195934 -1.054169
v 12.212752 20.195934 -0.459167
v 11.253733 20.195934 -0.420471
v 10.455126 20.195934 -0.952866
v 9.709435 2.744691 -2.280258
v 10.137036 2.744691 -3.802567
v 11.377761 2.744691 -4.782791
v 12.957694 2.744691 -4.846542
v 14.273355 2.744691 -3.969452
v 14.822205 2.744691 -2.486542
v 14.394602 2.744691 -0.964233
v 13.153877 2.744691 0.015991
v 11.573943 2.744691 0.079742
v 10.258284 2.744691 -0.797348
v 11.668145 20.210918 -1.917694
v -21.186016 19.377827 -0.502732
v 17.147394 19.589771 -0.502732
v -0.606193 28.241135 -0.502732
v -0.606193 28.241135 -2.788969
v -21.186016 19.377827 -2.788969
v 17.147394 19.589771 -2.788969
v 16.960497 21.832359 -2.788969
v -1.033966 20.172295 -2.788969
v -21.158407 21.049431 -2.788969
v -21.158407 21.049431 -0.502732
v -1.033966 20.172295 -0.502732
v 16.960497 21.832359 -0.502732
vt 0.036903 0.036251
vt 0.054793 0.009053
vt 0.051990 0.035064
vt 0.070782 0.010187
vt 0.066967 0.034575
vt 0.085201 0.010619
vt 0.081799 0.034258
vt 0.096438 0.034459
vt 0.098919 0.005932
vt 0.112647 0.012993
vt 0.125319 0.014581
vt 0.124894 0.037440
vt 0.110790 0.035644
vt 0.138890 0.017168
vt 0.138859 0.039663
vt 0.152737 0.042164
vt 0.177260 0.029269
vt 0.166149 0.045866
vt 0.008275 0.020415
vt 0.022658 0.041168
vt 0.126754 0.226490
vt 0.118872 0.225464
vt 0.110939 0.224623
vt 0.102954 0.224058
vt 0.094935 0.223851
vt 0.086910 0.224033
vt 0.078911 0.224577
vt 0.070955 0.225406
vt 0.063046 0.226437
vt 0.055158 0.227621
vt 0.134586 0.227642
vt 0.161060 0.013940
vt 0.030201 0.005801
vt 0.067144 0.430994
vt 0.040595 0.448434
vt 0.051803 0.418726
vt 0.065417 0.468310
vt 0.049011 0.479107
vt 0.072342 0.449932
vt 0.032182 0.417818
vt 0.015778 0.428617
vt 0.008855 0.446995
vt 0.029393 0.478199
vt 0.014054 0.465934
vt 0.036903 0.036251
vt 0.054793 0.009053
vt 0.051990 0.035064
vt 0.070782 0.010187
vt 0.066967 0.034575
vt 0.085201 0.010619
vt 0.081799 0.034258
vt 0.096438 0.034459
vt 0.098919 0.005932
vt 0.112647 0.012993
vt 0.125319 0.014581
vt 0.124894 0.037440
vt 0.110790 0.035644
vt 0.138890 0.017168
vt 0.138859 0.039663
vt 0.152737 0.042164
vt 0.177260 0.029269
vt 0.166149 0.045866
vt 0.008275 0.020415
vt 0.022658 0.041168
vt 0.129651 0.197851
vt 0.121059 0.196670
vt 0.112404 0.195692
vt 0.103687 0.195032
vt 0.094928 0.194787
vt 0.086162 0.194999
vt 0.077423 0.195635
vt 0.068738 0.196603
vt 0.060105 0.197791
vt 0.051501 0.199122
vt 0.138184 0.199144
vt 0.161060 0.013940
vt 0.030201 0.005801
vt 0.068573 0.429899
vt 0.040595 0.448434
vt 0.052332 0.416915
vt 0.066748 0.469410
vt 0.049379 0.480844
vt 0.074080 0.449950
vt 0.031560 0.415956
vt 0.014192 0.427390
vt 0.006861 0.446848
vt 0.028608 0.479884
vt 0.012368 0.466899
vt 0.422092 0.124192
vt 0.490268 0.000003
vt 0.556823 0.124188
vt 0.488647 0.248377
vt 0.490271 0.500000
vt 0.557636 0.625000
vt 0.490271 0.750000
vt 0.422907 0.625000
vt 0.490275 0.999994
vt 0.625000 0.750000
vt 0.625000 1.000000
vt 0.875000 0.125000
vt 0.875000 0.250000
vt 0.125013 0.125000
vt 0.125013 0.249987
vt 0.355543 0.750000
vt 0.125013 0.000012
vt 0.355536 0.000006
vt 0.625000 0.000000
vt 0.875000 0.000000
vt 0.355550 0.999987
vn -0.760214 0.341215 0.552853
vn -0.476812 0.334449 0.812892
vn -0.544502 0.146321 0.825898
vn -0.924293 0.090316 0.370845
vn -0.476812 0.334449 0.812892
vn -0.183648 0.441436 0.878298
vn 0.008604 0.168796 0.985613
vn -0.544502 0.146321 0.825898
vn 0.888768 0.457333 0.030617
vn 0.890099 0.358835 -0.281000
vn 0.927383 0.153079 -0.341361
vn 0.954386 0.169269 0.245957
vn 0.890099 0.358835 -0.281000
vn 0.719679 0.395057 -0.570957
vn 0.575134 0.096244 -0.812378
vn 0.927383 0.153079 -0.341361
vn 0.719679 0.395057 -0.570957
vn -0.079624 0.639536 -0.764627
vn -0.030115 0.100020 -0.994530
vn 0.575134 0.096244 -0.812378
vn 0.575134 0.096244 -0.812378
vn -0.030115 0.100020 -0.994530
vn -0.044116 0.009049 -0.998985
vn 0.549048 0.028072 -0.835319
vn 0.927383 0.153079 -0.341361
vn 0.575134 0.096244 -0.812378
vn 0.549048 0.028072 -0.835319
vn 0.934306 0.051742 -0.352698
vn 0.954386 0.169269 0.245957
vn 0.927383 0.153079 -0.341361
vn 0.934306 0.051742 -0.352698
vn 0.961315 0.070988 0.266147
vn 0.611579 0.175936 0.771374
vn 0.954386 0.169269 0.245957
vn 0.961315 0.070988 0.266147
vn 0.617528 0.078357 0.782636
vn 0.008604 0.168796 0.985613
vn 0.611579 0.175936 0.771374
vn 0.617528 0.078357 0.782636
vn 0.035234 0.070989 0.996855
vn -0.544502 0.146321 0.825898
vn 0.008604 0.168796 0.985613
vn 0.035234 0.070989 0.996855
vn -0.560349 0.051742 0.826639
vn -0.924293 0.090316 0.370845
vn -0.544502 0.146321 0.825898
vn -0.560349 0.051742 0.826639
vn -0.940121 0.028073 0.339684
vn -0.960736 0.077207 -0.266507
vn -0.924293 0.090316 0.370845
vn -0.940121 0.028073 0.339684
vn -0.961322 0.009049 -0.275277
vn -0.618759 0.046586 -0.784198
vn -0.960736 0.077207 -0.266507
vn -0.961322 0.009049 -0.275277
vn -0.619432 0.001817 -0.785048
vn -0.030115 0.100020 -0.994530
vn -0.618759 0.046586 -0.784198
vn -0.619432 0.001817 -0.785048
vn -0.044116 0.009049 -0.998985
vn 0.888768 0.457333 0.030617
vn 0.954386 0.169269 0.245957
vn 0.611579 0.175936 0.771374
vn 0.477660 0.658054 0.582070
vn 0.611579 0.175936 0.771374
vn 0.008604 0.168796 0.985613
vn -0.183648 0.441436 0.878298
vn 0.477660 0.658054 0.582070
vn -0.030115 0.100020 -0.994530
vn -0.079624 0.639536 -0.764627
vn -0.615682 0.436371 -0.656137
vn -0.618759 0.046586 -0.784198
vn -0.615682 0.436371 -0.656137
vn -0.841466 0.521692 -0.140616
vn -0.960736 0.077207 -0.266507
vn -0.618759 0.046586 -0.784198
vn -0.960736 0.077207 -0.266507
vn -0.841466 0.521692 -0.140616
vn -0.760214 0.341215 0.552853
vn -0.924293 0.090316 0.370845
vn 0.035350 0.999290 -0.013068
vn 0.000011 1.000000 0.000014
vn 0.036295 0.999289 0.010214
vn -0.001500 0.999291 -0.037619
vn -0.023317 0.999291 -0.029550
vn 0.000011 1.000000 0.000014
vn -0.001500 0.999291 -0.037619
vn 0.000011 1.000000 0.000014
vn 0.020906 0.999290 -0.031332
vn 0.023359 0.999289 0.029606
vn 0.000011 1.000000 0.000014
vn 0.001491 0.999289 0.037675
vn 0.020906 0.999290 -0.031332
vn 0.000011 1.000000 0.000014
vn 0.035350 0.999290 -0.013068
vn 0.036295 0.999289 0.010214
vn 0.000011 1.000000 0.000014
vn 0.023359 0.999289 0.029606
vn 0.000011 1.000000 0.000014
vn -0.020931 0.999290 0.031339
vn 0.001491 0.999289 0.037675
vn 0.000011 1.000000 0.000014
vn -0.023317 0.999291 -0.029550
vn -0.036238 0.999291 -0.010207
vn 0.000011 1.000000 0.000014
vn -0.035334 0.999290 0.013044
vn -0.020931 0.999290 0.031339
vn 0.000011 1.000000 0.000014
vn -0.036238 0.999291 -0.010207
vn -0.035334 0.999290 0.013044
vn 0.553327 0.341215 0.759869
vn 0.813190 0.334449 0.476305
vn 0.826237 0.146321 0.543987
vn 0.371422 0.090316 0.924061
vn 0.813190 0.334449 0.476305
vn 0.878413 0.441436 0.183100
vn 0.985608 0.168796 -0.009218
vn 0.826237 0.146321 0.543987
vn 0.030062 0.457333 -0.888787
vn -0.281555 0.358835 -0.889924
vn -0.341939 0.153079 -0.927170
vn 0.245362 0.169269 -0.954539
vn -0.281555 0.358835 -0.889924
vn -0.571406 0.395057 -0.719323
vn -0.812736 0.096244 -0.574628
vn -0.341939 0.153079 -0.927170
vn -0.571406 0.395057 -0.719323
vn -0.764577 0.639536 0.080101
vn -0.994511 0.100020 0.030735
vn -0.812736 0.096244 -0.574628
vn -0.812736 0.096244 -0.574628
vn -0.994511 0.100020 0.030735
vn -0.998958 0.009049 0.044737
vn -0.835662 0.028072 -0.548526
vn -0.341939 0.153079 -0.927170
vn -0.812736 0.096244 -0.574628
vn -0.835662 0.028072 -0.548526
vn -0.353279 0.051741 -0.934086
vn 0.245362 0.169269 -0.954539
vn -0.341939 0.153079 -0.927170
vn -0.353279 0.051741 -0.934086
vn 0.265550 0.070989 -0.961480
vn 0.770992 0.175936 -0.612060
vn 0.245362 0.169269 -0.954539
vn 0.265550 0.070989 -0.961480
vn 0.782251 0.078358 -0.618015
vn 0.985608 0.168796 -0.009218
vn 0.770992 0.175936 -0.612060
vn 0.782251 0.078358 -0.618015
vn 0.996832 0.070988 -0.035859
vn 0.826237 0.146321 0.543987
vn 0.985608 0.168796 -0.009218
vn 0.996832 0.070988 -0.035859
vn 0.826987 0.051742 0.559835
vn 0.371422 0.090316 0.924061
vn 0.826237 0.146321 0.543987
vn 0.826987 0.051742 0.559835
vn 0.340269 0.028072 0.939909
vn -0.265908 0.077207 0.960902
vn 0.371422 0.090316 0.924061
vn 0.340269 0.028072 0.939909
vn -0.274676 0.009048 0.961494
vn -0.783812 0.046586 0.619248
vn -0.265908 0.077207 0.960902
vn -0.274676 0.009048 0.961494
vn -0.784662 0.001817 0.619921
vn -0.994511 0.100020 0.030735
vn -0.783812 0.046586 0.619248
vn -0.784662 0.001817 0.619921
vn -0.998958 0.009049 0.044737
vn 0.030062 0.457333 -0.888787
vn 0.245362 0.169269 -0.954539
vn 0.770992 0.175936 -0.612060
vn 0.581772 0.658054 -0.478023
vn 0.770992 0.175936 -0.612060
vn 0.985608 0.168796 -0.009218
vn 0.878413 0.441436 0.183100
vn 0.581772 0.658054 -0.478023
vn -0.994511 0.100020 0.030735
vn -0.764577 0.639536 0.080101
vn -0.655753 0.436371 0.616091
vn -0.783812 0.046586 0.619248
vn -0.655753 0.436371 0.616091
vn -0.140091 0.521692 0.841553
vn -0.265908 0.077207 0.960902
vn -0.783812 0.046586 0.619248
vn -0.265908 0.077207 0.960902
vn -0.140091 0.521692 0.841553
vn 0.553327 0.341215 0.759869
vn 0.371422 0.090316 0.924061
vn -0.003350 0.999953 -0.009075
vn -0.000018 1.000000 -0.000007
vn 0.002619 0.999953 -0.009289
vn -0.009674 0.999953 0.000395
vn -0.007580 0.999953 0.005999
vn -0.000018 1.000000 -0.000007
vn -0.009674 0.999953 0.000395
vn -0.000018 1.000000 -0.000007
vn -0.008057 0.999953 -0.005373
vn 0.007561 0.999954 -0.005962
vn -0.000018 1.000000 -0.000007
vn 0.009607 0.999954 -0.000385
vn -0.008057 0.999953 -0.005373
vn -0.000018 1.000000 -0.000007
vn -0.003350 0.999953 -0.009075
vn 0.002619 0.999953 -0.009289
vn -0.000018 1.000000 -0.000007
vn 0.007561 0.999954 -0.005962
vn -0.000018 1.000000 -0.000007
vn 0.007999 0.999954 0.005329
vn 0.009607 0.999954 -0.000385
vn -0.000018 1.000000 -0.000007
vn -0.007580 0.999953 0.005999
vn -0.002599 0.999954 0.009287
vn -0.000018 1.000000 -0.000007
vn 0.003347 0.999954 0.009023
vn 0.007999 0.999954 0.005329
vn -0.000018 1.000000 -0.000007
vn -0.002599 0.999954 0.009287
vn 0.003347 0.999954 0.009023
vn 0.000000 0.000000 1.000000
vn 0.000000 0.000000 1.000000
vn 0.000000 0.000000 1.000000
vn 0.000000 0.000000 1.000000
vn 0.000000 0.000000 -1.000000
vn 0.000000 0.000000 -1.000000
vn 0.000000 0.000000 -1.000000
vn 0.000000 0.000000 -1.000000
vn 0.005529 -0.999985 0.000000
vn 0.005529 -0.999985 0.000000
vn -0.032023 -0.999487 0.000000
vn -0.032023 -0.999487 0.000000
vn 0.438059 0.898946 0.000000
vn 0.438059 0.898946 0.000000
vn 0.342729 0.939434 0.000000
vn 0.342729 0.939434 0.000000
vn -0.395554 0.918443 0.000000
vn -0.395554 0.918443 0.000000
vn -0.330286 0.943881 0.000000
vn -0.330286 0.943881 0.000000
vn 0.000000 0.000000 -1.000000
vn 0.000000 0.000000 -1.000000
vn -0.000000 0.000000 -1.000000
vn 0.000000 0.000000 -1.000000
vn 0.000000 0.000000 -1.000000
vn 0.000000 0.000000 -1.000000
vn -0.999864 0.016514 0.000000
vn -0.999864 0.016514 0.000000
vn -0.395554 0.918443 0.000000
vn -0.395554 0.918443 0.000000
vn 0.000000 0.000000 1.000000
vn 0.000000 0.000000 1.000000
vn 0.000000 0.000000 1.000000
vn 0.000000 0.000000 1.000000
vn 0.000000 0.000000 1.000000
vn 0.000000 0.000000 1.000000
vn 0.996545 0.083052 0.000000
vn 0.996545 0.083052 0.000000
vn 0.438059 0.898946 0.000000
vn 0.438059 0.898946 0.000000
vn 0.039393 -0.999224 0.000000
vn 0.005529 -0.999985 0.000000
vn 0.005529 -0.999985 0.000000
vn 0.039393 -0.999224 0.000000
s off
g MountainEntranceCOL:polySurface10
usemtl initialShadingGroup
f 2/2/1 3/4/2 27/5/3 28/3/4
f 3/4/5 4/6/6 26/7/7 27/5/8
f 6/10/9 7/11/10 23/12/11 24/13/12
f 7/11/13 8/14/14 22/15/15 23/12/16
f 8/14/17 9/32/18 21/16/19 22/15/20
f 22/15/21 21/16/22 11/21/23 12/22/24
f 23/12/25 22/15/26 12/22/27 13/23/28
f 24/13/29 23/12/30 13/23/31 14/24/32
f 25/8/33 24/13/34 14/24/35 15/25/36
f 26/7/37 25/8/38 15/25/39 16/26/40
f 27/5/41 26/7/42 16/26/43 17/27/44
f 28/3/45 27/5/46 17/27/47 18/28/48
f 29/1/49 28/3/50 18/28/51 19/29/52
f 30/20/53 29/1/54 19/29/55 20/30/56
f 21/16/57 30/18/58 20/31/59 11/21/60
f 6/10/61 24/13/62 25/8/63 5/9/64
f 25/8/65 26/7/66 4/6/67 5/9/68
f 21/16/69 9/32/70 10/17/71 30/18/72
f 10/19/73 1/33/74 29/1/75 30/20/76
f 29/1/77 1/33/78 2/2/79 28/3/80
f 13/34/81 31/35/82 14/36/83
f 11/37/84 20/38/85 31/35/86
f 11/37/87 31/35/88 12/39/89
f 15/40/90 31/35/91 16/41/92
f 12/39/93 31/35/94 13/34/95
f 14/36/96 31/35/97 15/40/98
f 31/35/99 17/42/100 16/41/101
f 31/35/102 20/38/103 19/43/104
f 31/35/105 18/44/106 17/42/107
f 31/35/108 19/43/109 18/44/110
f 33/46/111 34/48/112 58/49/113 59/47/114
f 34/48/115 35/50/116 57/51/117 58/49/118
f 37/54/119 38/55/120 54/56/121 55/57/122
f 38/55/123 39/58/124 53/59/125 54/56/126
f 39/58/127 40/76/128 52/60/129 53/59/130
f 53/59/131 52/60/132 42/65/133 43/66/134
f 54/56/135 53/59/136 43/66/137 44/67/138
f 55/57/139 54/56/140 44/67/141 45/68/142
f 56/52/143 55/57/144 45/68/145 46/69/146
f 57/51/147 56/52/148 46/69/149 47/70/150
f 58/49/151 57/51/152 47/70/153 48/71/154
f 59/47/155 58/49/156 48/71/157 49/72/158
f 60/45/159 59/47/160 49/72/161 50/73/162
f 61/64/163 60/45/164 50/73/165 51/74/166
f 52/60/167 61/62/168 51/75/169 42/65/170
f 37/54/171 55/57/172 56/52/173 36/53/174
f 56/52/175 57/51/176 35/50/177 36/53/178
f 52/60/179 40/76/180 41/61/181 61/62/182
f 41/63/183 32/77/184 60/45/185 61/64/186
f 60/45/187 32/77/188 33/46/189 59/47/190
f 44/78/191 62/79/192 45/80/193
f 42/81/194 51/82/195 62/79/196
f 42/81/197 62/79/198 43/83/199
f 46/84/200 62/79/201 47/85/202
f 43/83/203 62/79/204 44/78/205
f 45/80/206 62/79/207 46/84/208
f 62/79/209 48/86/210 47/85/211
f 62/79/212 51/82/213 50/87/214
f 62/79/215 49/88/216 48/86/217
f 62/79/218 50/87/219 49/88/220
f 72/89/221 73/90/222 74/91/223 65/92/224
f 66/93/225 69/94/226 70/95/227 71/96/228
f 73/97/229 70/95/230 68/98/231 64/99/232
f 74/91/233 69/100/234 66/101/235 65/92/236
f 71/102/237 72/89/238 65/92/239 66/103/240
f 70/95/241 69/94/242 68/98/243
f 71/96/244 70/95/245 67/104/246
f 67/105/247 63/106/248 72/89/249 71/102/250
f 63/106/251 73/90/252 72/89/253
f 74/91/254 73/90/255 64/107/256
f 64/107/257 68/108/258 69/100/259 74/91/260
f 67/104/261 70/95/262 73/97/263 63/109/264
