# This file uses centimeters as units for non-parametric coordinates.

mtllib SecretCaveTeethCOL.mtl
g default
v 38.176163 43.223083 -10.326929
v 37.004486 42.493557 -8.476969
v 38.220249 42.175117 -7.369647
v 40.143314 42.704784 -8.536177
v 40.116058 43.352852 -10.358679
v 33.659977 59.582283 -14.328382
v 28.983639 67.233131 -5.719389
v 36.650021 67.233131 3.708821
v 44.850357 59.525196 -3.696073
v 43.514957 55.546143 -13.080893
v 38.841591 41.395267 -9.586797
v 41.662678 46.345669 -6.597474
v 37.642155 47.406998 -3.890435
v 34.873219 47.924210 -6.466500
v 37.182438 47.323563 -10.732749
v 41.378551 46.423832 -10.873613
v 41.682938 51.079288 -4.901205
v 36.736393 53.849957 -2.158445
v 33.213734 54.096668 -5.495756
v 35.983162 51.841457 -10.259277
v 41.217419 50.274796 -10.139258
v 42.768135 55.822670 -3.827914
v 35.168537 62.310841 3.066545
v 29.132744 62.310841 -4.428746
v 34.417732 56.213776 -11.751706
v 41.998512 53.777813 -11.091715
v 19.840794 43.981808 4.531709
v 17.222160 43.977245 5.494186
v 16.881584 43.437885 7.895450
v 19.289711 43.111053 8.376314
v 21.118616 43.450939 6.314408
v 11.917526 69.873596 -0.140232
v 9.738008 71.559692 15.957029
v 25.536083 69.873589 19.737623
v 18.440199 41.542759 6.063416
v 23.912573 49.906342 8.582218
v 19.663458 49.759666 13.562875
v 14.050728 50.623920 12.418997
v 14.830968 51.202595 6.668598
v 20.925920 50.808838 4.323708
v 25.861786 54.566101 8.901076
v 20.697523 54.925747 14.946595
v 13.871517 55.887096 13.391680
v 14.817058 56.002186 6.435708
v 22.227451 55.233501 3.641337
v 24.865620 65.934227 17.598560
v 11.892912 67.315514 14.480674
v 13.683786 65.952797 1.277396
v 34.419365 63.513000 6.712259
v 36.713646 67.799316 7.659494
v 37.543736 60.516911 1.077619
v 38.853142 65.539757 2.110306
v 1.603568 47.296932 4.672968
v -1.091300 47.607861 2.568287
v -3.821167 46.801060 3.606515
v -2.786248 45.975029 6.293081
v 0.559551 46.272877 6.967293
v 12.299246 72.230110 7.004603
v -1.672584 69.451866 -4.059231
v -15.651267 67.734825 0.846014
v -10.318743 69.451874 14.941456
v 6.955626 72.230110 18.747669
v 0.309498 44.843933 4.067657
v 4.671562 66.189606 16.464270
v -9.612548 64.041008 13.456337
v -13.936428 62.798870 1.698998
v -2.414753 64.146103 -2.361439
v 9.120160 66.189606 6.688094
v -7.294740 55.833683 11.281088
v -9.590140 56.042389 4.593080
v -3.297177 57.301872 2.496103
v 2.992595 57.935230 7.657139
v 0.516903 57.086582 13.097687
v -32.601982 37.161636 -16.006762
v -35.810204 36.841774 -15.009371
v -35.810200 35.826202 -11.878384
v -32.601982 35.501293 -10.949256
v -30.619184 36.329887 -13.499238
v -32.001518 58.114929 -22.068636
v -45.425121 55.680542 -17.598768
v -45.425121 55.680542 -3.133980
v -32.001518 58.114929 1.335882
v -23.705282 59.619461 -10.366375
v -32.931709 34.837746 -14.364573
v -38.881229 40.996407 -7.568657
v -38.881229 42.360844 -13.874758
v -32.767696 43.454311 -15.601372
v -28.989325 42.755783 -10.364366
v -32.767696 41.234894 -5.401773
v -31.670494 47.319775 -2.541591
v -39.908974 46.280617 -5.366280
v -39.908974 47.201027 -14.131552
v -31.670494 48.639580 -16.749722
v -26.578829 48.747814 -9.613096
v -30.336782 55.123024 -1.009219
v -41.045872 53.211563 -4.468391
v -41.045872 53.308884 -15.998028
v -30.336782 55.152031 -19.665552
v -23.718201 56.297203 -10.366375
vt 0.330415 0.555013
vt 0.337586 0.535879
vt 0.765262 0.047023
vt 0.783251 0.034435
vt 0.792808 0.018893
vt 0.317245 0.566585
vt 0.765441 0.011514
vt 0.769759 0.026484
vt 0.752203 0.029755
vt 0.762780 0.042919
vt 0.784332 0.014979
vt 0.812327 0.059744
vt 0.791951 0.096502
vt 0.390718 0.547867
vt 0.361404 0.577668
vt 0.327034 0.595451
vt 0.824293 0.024028
vt 0.876531 0.122022
vt 0.865010 0.235318
vt 0.537667 0.583201
vt 0.867606 0.201150
vt 0.435435 0.624896
vt 0.364934 0.647298
vt 0.887190 0.049795
vt 0.856270 0.042904
vt 0.843142 0.092188
vt 0.823498 0.145950
vt 0.443920 0.567215
vt 0.398806 0.599135
vt 0.350483 0.620954
vt 0.911336 0.136565
vt 0.909168 0.221654
vt 0.913018 0.245949
vt 0.551060 0.630012
vt 0.457243 0.656546
vt 0.367465 0.673083
vt 0.913424 0.043149
vt 0.601813 0.378635
vt 0.601275 0.443253
vt 0.624900 0.375179
vt 0.656562 0.437079
vt 0.644397 0.364079
vt 0.699032 0.415155
vt 0.653617 0.341928
vt 0.719165 0.371209
vt 0.657037 0.317097
vt 0.724391 0.316601
vt 0.606759 0.343969
vt 0.628974 0.349914
vt 0.620976 0.368011
vt 0.646743 0.339960
vt 0.622358 0.327222
vt 0.769674 0.312097
vt 0.763593 0.385974
vt 0.730331 0.444049
vt 0.671367 0.479024
vt 0.595247 0.485363
vt 0.864797 0.407386
vt 0.901515 0.423069
vt 0.801019 0.518924
vt 0.833454 0.551392
vt 0.688167 0.576623
vt 0.704479 0.613941
vt 0.876340 0.270796
vt 0.919726 0.278036
vt 0.602431 0.693618
vt 0.681598 0.758182
vt 0.614589 0.670601
vt 0.701756 0.689492
vt 0.615633 0.646433
vt 0.703316 0.630278
vt 0.533223 0.723114
vt 0.523066 0.816647
vt 0.557156 0.716185
vt 0.579271 0.813235
vt 0.583473 0.705664
vt 0.643332 0.795409
vt 0.588280 0.680803
vt 0.570917 0.689703
vt 0.561563 0.668082
vt 0.540978 0.685313
vt 0.554601 0.707956
vt 0.592100 0.888378
vt 0.493459 0.884671
vt 0.767563 0.608983
vt 0.773694 0.702258
vt 0.759670 0.808254
vt 0.702616 0.866693
vt 0.739594 0.914927
vt 0.605499 0.936791
vt 0.484655 0.931116
vt 0.813195 0.597595
vt 0.823541 0.712913
vt 0.809106 0.843535
vt 0.397572 0.931731
vt 0.340803 0.914852
vt 0.393471 0.956206
vt 0.340511 0.965630
vt 0.482903 0.881537
vt 0.491990 0.824124
vt 0.457094 0.883215
vt 0.445515 0.825476
vt 0.432519 0.895077
vt 0.401488 0.840017
vt 0.412030 0.911639
vt 0.363491 0.870115
vt 0.434438 0.938356
vt 0.437557 0.917026
vt 0.459796 0.928847
vt 0.458750 0.901924
vt 0.417680 0.917073
vt 0.432759 0.778370
vt 0.497106 0.777593
vt 0.298176 0.965218
vt 0.293416 0.897669
vt 0.319206 0.835088
vt 0.370734 0.793395
vt 0.328200 0.740049
vt 0.421271 0.715461
vt 0.515100 0.726256
vt 0.243220 0.964977
vt 0.231467 0.878090
vt 0.260950 0.797798
vt 0.321824 0.707609
vt 0.423915 0.675612
vt 0.527879 0.690009
vt 0.211259 0.989528
vt 0.198246 0.883580
vt 0.236469 0.780265
vn 0.517985 -0.483694 -0.705501
vn -0.490510 -0.309339 -0.814684
vn -0.569049 -0.096045 -0.816675
vn 0.674046 -0.074230 -0.734950
vn -0.490510 -0.309339 -0.814684
vn -0.861766 -0.499545 -0.088394
vn -0.953327 -0.285210 0.099115
vn -0.569049 -0.096045 -0.816675
vn -0.861766 -0.499545 -0.088394
vn -0.007814 -0.720517 0.693394
vn -0.098243 -0.378081 0.920545
vn -0.953327 -0.285210 0.099115
vn -0.007814 -0.720517 0.693394
vn 0.718760 -0.630277 0.293488
vn 0.812217 -0.325384 0.484178
vn -0.098243 -0.378081 0.920545
vn 0.718760 -0.630277 0.293488
vn 0.517985 -0.483694 -0.705501
vn 0.674046 -0.074230 -0.734950
vn 0.812217 -0.325384 0.484178
vn 0.060748 -0.934811 -0.349913
vn -0.490510 -0.309339 -0.814684
vn 0.517985 -0.483694 -0.705501
vn -0.861766 -0.499545 -0.088394
vn -0.490510 -0.309339 -0.814684
vn 0.060748 -0.934811 -0.349913
vn -0.007814 -0.720517 0.693394
vn -0.861766 -0.499545 -0.088394
vn 0.060748 -0.934811 -0.349913
vn 0.718760 -0.630277 0.293488
vn -0.007814 -0.720517 0.693394
vn 0.060748 -0.934811 -0.349913
vn 0.517985 -0.483694 -0.705501
vn 0.718760 -0.630277 0.293488
vn 0.060748 -0.934811 -0.349913
vn 0.812217 -0.325384 0.484178
vn 0.674046 -0.074230 -0.734950
vn 0.700678 0.103357 -0.705952
vn 0.826563 -0.124672 0.548862
vn -0.098243 -0.378081 0.920545
vn 0.812217 -0.325384 0.484178
vn 0.826563 -0.124672 0.548862
vn -0.164639 -0.188171 0.968239
vn -0.953327 -0.285210 0.099115
vn -0.098243 -0.378081 0.920545
vn -0.164639 -0.188171 0.968239
vn -0.946769 -0.259425 0.190595
vn -0.569049 -0.096045 -0.816675
vn -0.953327 -0.285210 0.099115
vn -0.946769 -0.259425 0.190595
vn -0.570889 -0.151411 -0.806946
vn 0.674046 -0.074230 -0.734950
vn -0.569049 -0.096045 -0.816675
vn -0.570889 -0.151411 -0.806946
vn 0.700678 0.103357 -0.705952
vn 0.452369 -0.737972 -0.500759
vn 0.624566 -0.395578 0.673376
vn 0.826563 -0.124672 0.548862
vn 0.700678 0.103357 -0.705952
vn 0.637115 -0.578373 0.509479
vn -0.389682 -0.806477 0.444683
vn 0.244113 -0.455361 0.856187
vn -0.164639 -0.188171 0.968239
vn 0.244113 -0.455361 0.856187
vn -0.658033 -0.496677 -0.565955
vn -0.946769 -0.259425 0.190595
vn -0.658033 -0.496677 -0.565955
vn -0.655945 -0.534054 -0.533407
vn -0.570889 -0.151411 -0.806946
vn -0.946769 -0.259425 0.190595
vn -0.655945 -0.534054 -0.533407
vn 0.452369 -0.737972 -0.500759
vn 0.700678 0.103357 -0.705952
vn -0.570889 -0.151411 -0.806946
vn -0.164639 -0.188171 0.968239
vn 0.826563 -0.124672 0.548862
vn 0.624566 -0.395578 0.673376
vn 0.244113 -0.455361 0.856187
vn 0.624566 -0.395578 0.673376
vn 0.583150 -0.363901 0.726300
vn 0.471407 -0.276607 0.837415
vn 0.244113 -0.455361 0.856187
vn 0.637115 -0.578373 0.509479
vn 0.244113 -0.455361 0.856187
vn 0.471407 -0.276607 0.837415
vn 0.809257 -0.373237 0.453649
vn -0.655945 -0.534054 -0.533407
vn -0.658033 -0.496677 -0.565955
vn -0.479094 -0.383234 -0.789684
vn -0.720219 -0.482420 -0.498553
vn 0.452369 -0.737972 -0.500759
vn -0.655945 -0.534054 -0.533407
vn -0.720219 -0.482420 -0.498553
vn 0.375184 -0.801743 -0.465237
vn 0.624566 -0.395578 0.673376
vn 0.452369 -0.737972 -0.500759
vn 0.375184 -0.801743 -0.465237
vn 0.583150 -0.363901 0.726300
vn 0.183502 -0.129192 -0.974493
vn 0.196725 -0.108944 -0.974387
vn -0.727234 -0.157191 -0.668148
vn -0.775626 -0.089282 -0.624847
vn -0.775626 -0.089282 -0.624847
vn -0.727234 -0.157191 -0.668148
vn -0.741163 -0.546521 0.389861
vn -0.795527 -0.328356 0.509234
vn -0.795527 -0.328356 0.509234
vn -0.741163 -0.546521 0.389861
vn 0.277594 -0.611432 0.741008
vn 0.273440 -0.442233 0.854202
vn 0.273440 -0.442233 0.854202
vn 0.277594 -0.611432 0.741008
vn 0.894714 -0.444472 0.043958
vn 0.912185 -0.393804 0.113297
vn 0.912185 -0.393804 0.113297
vn 0.894714 -0.444472 0.043958
vn 0.196725 -0.108944 -0.974387
vn 0.183502 -0.129192 -0.974493
vn -0.727234 -0.157191 -0.668148
vn 0.196725 -0.108944 -0.974387
vn -0.115310 -0.965871 -0.231941
vn -0.741163 -0.546521 0.389861
vn -0.727234 -0.157191 -0.668148
vn -0.115310 -0.965871 -0.231941
vn 0.277594 -0.611432 0.741008
vn -0.741163 -0.546521 0.389861
vn -0.115310 -0.965871 -0.231941
vn 0.894714 -0.444472 0.043958
vn 0.277594 -0.611432 0.741008
vn -0.115310 -0.965871 -0.231941
vn 0.196725 -0.108944 -0.974387
vn 0.894714 -0.444472 0.043958
vn -0.115310 -0.965871 -0.231941
vn 0.786432 -0.602176 0.137513
vn 0.099762 -0.538539 -0.836674
vn -0.389682 -0.806477 0.444683
vn 0.637115 -0.578373 0.509479
vn 0.856851 -0.372267 0.356684
vn 0.276442 -0.335816 0.900448
vn 0.786432 -0.602176 0.137513
vn 0.856851 -0.372267 0.356684
vn 0.253966 -0.390204 0.885010
vn -0.810553 -0.143609 0.567786
vn 0.276442 -0.335816 0.900448
vn 0.253966 -0.390204 0.885010
vn -0.738065 -0.448934 0.503704
vn -0.773677 -0.196696 -0.602275
vn -0.810553 -0.143609 0.567786
vn -0.738065 -0.448934 0.503704
vn -0.726730 -0.417971 -0.545128
vn 0.099762 -0.538539 -0.836674
vn -0.773677 -0.196696 -0.602275
vn -0.726730 -0.417971 -0.545128
vn -0.658033 -0.496677 -0.565955
vn 0.786432 -0.602176 0.137513
vn 0.912185 -0.393804 0.113297
vn 0.183502 -0.129192 -0.974493
vn 0.099762 -0.538539 -0.836674
vn 0.273440 -0.442233 0.854202
vn 0.912185 -0.393804 0.113297
vn 0.786432 -0.602176 0.137513
vn 0.276442 -0.335816 0.900448
vn -0.795527 -0.328356 0.509234
vn 0.273440 -0.442233 0.854202
vn 0.276442 -0.335816 0.900448
vn -0.810553 -0.143609 0.567786
vn -0.775626 -0.089282 -0.624847
vn -0.795527 -0.328356 0.509234
vn -0.810553 -0.143609 0.567786
vn -0.773677 -0.196696 -0.602275
vn 0.183502 -0.129192 -0.974493
vn -0.775626 -0.089282 -0.624847
vn -0.773677 -0.196696 -0.602275
vn 0.099762 -0.538539 -0.836674
vn 0.253966 -0.390204 0.885010
vn 0.202340 -0.482828 0.852019
vn -0.708798 -0.511640 0.485623
vn -0.738065 -0.448934 0.503704
vn -0.738065 -0.448934 0.503704
vn -0.708798 -0.511640 0.485623
vn -0.720331 -0.485911 -0.494989
vn -0.726730 -0.417971 -0.545128
vn -0.726730 -0.417971 -0.545128
vn -0.720331 -0.485911 -0.494989
vn -0.479094 -0.383234 -0.789684
vn -0.658033 -0.496677 -0.565955
vn 0.856851 -0.372267 0.356684
vn 0.803697 -0.479056 0.352954
vn 0.202340 -0.482828 0.852019
vn 0.253966 -0.390204 0.885010
vn 0.803697 -0.479056 0.352954
vn 0.856851 -0.372267 0.356684
vn 0.637115 -0.578373 0.509479
vn 0.809257 -0.373237 0.453649
vn 0.915985 -0.252576 -0.311732
vn 0.939246 -0.041597 -0.340714
vn 0.226665 0.010325 -0.973918
vn 0.233848 -0.127869 -0.963828
vn 0.233848 -0.127869 -0.963828
vn 0.226665 0.010325 -0.973918
vn -0.782895 -0.422534 -0.456662
vn -0.817259 -0.396383 -0.418292
vn -0.817259 -0.396383 -0.418292
vn -0.782895 -0.422534 -0.456662
vn -0.505655 -0.538257 0.674234
vn -0.546320 -0.440915 0.712129
vn -0.546320 -0.440915 0.712129
vn -0.505655 -0.538257 0.674234
vn 0.381048 -0.424922 0.821123
vn 0.373353 -0.407914 0.833195
vn 0.373353 -0.407914 0.833195
vn 0.381048 -0.424922 0.821123
vn 0.939246 -0.041597 -0.340714
vn 0.915985 -0.252576 -0.311732
vn 0.226665 0.010325 -0.973918
vn 0.939246 -0.041597 -0.340714
vn 0.262858 -0.891327 -0.369381
vn -0.782895 -0.422534 -0.456662
vn 0.226665 0.010325 -0.973918
vn 0.262858 -0.891327 -0.369381
vn -0.505655 -0.538257 0.674234
vn -0.782895 -0.422534 -0.456662
vn 0.262858 -0.891327 -0.369381
vn 0.381048 -0.424922 0.821123
vn -0.505655 -0.538257 0.674234
vn 0.262858 -0.891327 -0.369381
vn 0.939246 -0.041597 -0.340714
vn 0.381048 -0.424922 0.821123
vn 0.262858 -0.891327 -0.369381
vn 0.348883 -0.381486 0.856008
vn -0.565610 -0.271630 0.778654
vn -0.546320 -0.440915 0.712129
vn 0.373353 -0.407914 0.833195
vn -0.565610 -0.271630 0.778654
vn -0.809668 -0.436810 -0.391962
vn -0.817259 -0.396383 -0.418292
vn -0.546320 -0.440915 0.712129
vn -0.809668 -0.436810 -0.391962
vn 0.244184 -0.386972 -0.889172
vn 0.233848 -0.127869 -0.963828
vn -0.817259 -0.396383 -0.418292
vn 0.244184 -0.386972 -0.889172
vn 0.854488 -0.429630 -0.292008
vn 0.915985 -0.252576 -0.311732
vn 0.233848 -0.127869 -0.963828
vn 0.854488 -0.429630 -0.292008
vn 0.348883 -0.381486 0.856008
vn 0.373353 -0.407914 0.833195
vn 0.915985 -0.252576 -0.311732
vn -0.565610 -0.271630 0.778654
vn 0.348883 -0.381486 0.856008
vn 0.405717 -0.391709 0.825807
vn -0.526717 -0.250886 0.812173
vn -0.809668 -0.436810 -0.391962
vn -0.565610 -0.271630 0.778654
vn -0.526717 -0.250886 0.812173
vn -0.861279 -0.310771 -0.402020
vn 0.244184 -0.386972 -0.889172
vn -0.809668 -0.436810 -0.391962
vn -0.861279 -0.310771 -0.402020
vn 0.283211 -0.274954 -0.918799
vn 0.854488 -0.429630 -0.292008
vn 0.244184 -0.386972 -0.889172
vn 0.283211 -0.274954 -0.918799
vn 0.891871 -0.393943 -0.222204
vn 0.348883 -0.381486 0.856008
vn 0.854488 -0.429630 -0.292008
vn 0.891871 -0.393943 -0.222204
vn 0.405717 -0.391709 0.825807
vn 0.331150 -0.000574 -0.943578
vn 0.328657 -0.105815 -0.938503
vn 0.964167 -0.264357 -0.022304
vn 0.969515 -0.234098 -0.072384
vn 0.328657 -0.105815 -0.938503
vn 0.331150 -0.000574 -0.943578
vn -0.702825 -0.271275 -0.657607
vn -0.776004 -0.188760 -0.601821
vn -0.776004 -0.188760 -0.601821
vn -0.702825 -0.271275 -0.657607
vn -0.677350 -0.645364 0.353132
vn -0.754706 -0.434094 0.491917
vn -0.754706 -0.434094 0.491917
vn -0.677350 -0.645364 0.353132
vn 0.336387 -0.624689 0.704704
vn 0.317414 -0.462692 0.827747
vn 0.317414 -0.462692 0.827747
vn 0.336387 -0.624689 0.704704
vn 0.969515 -0.234098 -0.072384
vn 0.964167 -0.264357 -0.022304
vn 0.042936 -0.921733 -0.385442
vn 0.331150 -0.000574 -0.943578
vn 0.969515 -0.234098 -0.072384
vn -0.702825 -0.271275 -0.657607
vn 0.331150 -0.000574 -0.943578
vn 0.042936 -0.921733 -0.385442
vn -0.677350 -0.645364 0.353132
vn -0.702825 -0.271275 -0.657607
vn 0.042936 -0.921733 -0.385442
vn 0.336387 -0.624689 0.704704
vn -0.677350 -0.645364 0.353132
vn 0.042936 -0.921733 -0.385442
vn 0.969515 -0.234098 -0.072384
vn 0.336387 -0.624689 0.704704
vn 0.042936 -0.921733 -0.385442
vn -0.787332 -0.198492 0.583704
vn -0.754706 -0.434094 0.491917
vn 0.317414 -0.462692 0.827747
vn 0.335563 -0.269839 0.902543
vn -0.776004 -0.188760 -0.601821
vn -0.754706 -0.434094 0.491917
vn -0.787332 -0.198492 0.583704
vn -0.796792 -0.164852 -0.581331
vn 0.328657 -0.105815 -0.938503
vn -0.776004 -0.188760 -0.601821
vn -0.796792 -0.164852 -0.581331
vn 0.346673 -0.301170 -0.888321
vn 0.964167 -0.264357 -0.022304
vn 0.328657 -0.105815 -0.938503
vn 0.346673 -0.301170 -0.888321
vn 0.950922 -0.309408 -0.003763
vn 0.317414 -0.462692 0.827747
vn 0.964167 -0.264357 -0.022304
vn 0.950922 -0.309408 -0.003763
vn 0.335563 -0.269839 0.902543
vn 0.410683 -0.311022 0.857091
vn -0.500734 -0.710539 0.494368
vn -0.787332 -0.198492 0.583704
vn 0.335563 -0.269839 0.902543
vn -0.500734 -0.710539 0.494368
vn -0.460305 -0.752582 -0.470893
vn -0.796792 -0.164852 -0.581331
vn -0.787332 -0.198492 0.583704
vn -0.460305 -0.752582 -0.470893
vn 0.404780 -0.364708 -0.838535
vn 0.346673 -0.301170 -0.888321
vn -0.796792 -0.164852 -0.581331
vn 0.404780 -0.364708 -0.838535
vn 0.997065 -0.076540 -0.001949
vn 0.950922 -0.309408 -0.003763
vn 0.346673 -0.301170 -0.888321
vn 0.997065 -0.076540 -0.001949
vn 0.410683 -0.311022 0.857091
vn 0.335563 -0.269839 0.902543
vn 0.950922 -0.309408 -0.003763
vn -0.500734 -0.710539 0.494368
vn 0.410683 -0.311022 0.857091
vn 0.312367 -0.401674 0.860863
vn -0.436570 -0.807211 0.397262
vn -0.460305 -0.752582 -0.470893
vn -0.500734 -0.710539 0.494368
vn -0.436570 -0.807211 0.397262
vn -0.413066 -0.821994 -0.392048
vn 0.404780 -0.364708 -0.838535
vn -0.460305 -0.752582 -0.470893
vn -0.413066 -0.821994 -0.392048
vn 0.307699 -0.425480 -0.851051
vn 0.997065 -0.076540 -0.001949
vn 0.404780 -0.364708 -0.838535
vn 0.307699 -0.425480 -0.851051
vn 0.999994 -0.003354 0.000000
vn 0.410683 -0.311022 0.857091
vn 0.997065 -0.076540 -0.001949
vn 0.999994 -0.003354 0.000000
vn 0.312367 -0.401674 0.860863
s off
g pCylinder13
usemtl lambert2SG
f 5/6/1 1/1/2 15/15/3 16/16/4
f 1/1/5 2/2/6 14/14/7 15/15/8
f 2/2/9 3/3/10 13/13/11 14/14/12
f 3/3/13 4/4/14 12/12/15 13/13/16
f 4/4/17 5/5/18 16/17/19 12/12/20
f 11/8/21 1/7/22 5/11/23
f 2/9/24 1/7/25 11/8/26
f 3/10/27 2/9/28 11/8/29
f 4/4/30 3/10/31 11/8/32
f 5/11/33 4/4/34 11/8/35
f 12/12/36 16/17/37 21/25/38 17/26/39
f 13/13/40 12/12/41 17/26/42 18/27/43
f 14/14/44 13/13/45 18/27/46 19/28/47
f 15/15/48 14/14/49 19/28/50 20/29/51
f 16/16/52 15/15/53 20/29/54 21/30/55
f 26/24/56 22/18/57 17/26/58 21/25/59
f 23/19/60 24/20/61 51/21/62
f 18/27/63 51/21/64 24/20/65 19/28/66
f 24/20/67 25/22/68 20/29/69 19/28/70
f 25/22/71 26/23/72 21/30/73 20/29/74
f 18/27/75 17/26/76 22/18/77 51/21/78
f 22/18/79 9/31/80 52/32/81 51/21/82
f 23/19/83 51/21/84 52/32/85 8/33/86
f 25/22/87 24/20/88 7/34/89 6/35/90
f 26/23/91 25/22/92 6/35/93 10/36/94
f 22/18/95 26/24/96 10/37/97 9/31/98
f 40/39/99 27/38/100 28/40/101 39/41/102
f 39/41/103 28/40/104 29/42/105 38/43/106
f 38/43/107 29/42/108 30/44/109 37/45/110
f 37/45/111 30/44/112 31/46/113 36/47/114
f 36/47/115 31/46/116 27/38/117 40/39/118
f 28/50/119 27/48/120 35/49/121
f 29/42/122 28/50/123 35/49/124
f 30/51/125 29/42/126 35/49/127
f 31/52/128 30/51/129 35/49/130
f 27/48/131 31/52/132 35/49/133
f 41/53/134 45/57/135 24/20/136 23/19/137 49/64/138
f 42/54/139 41/53/140 49/64/141 46/58/142
f 43/55/143 42/54/144 46/58/145 47/60/146
f 44/56/147 43/55/148 47/60/149 48/62/150
f 45/57/151 44/56/152 48/62/153 24/20/154
f 41/53/155 36/47/156 40/39/157 45/57/158
f 37/45/159 36/47/160 41/53/161 42/54/162
f 38/43/163 37/45/164 42/54/165 43/55/166
f 39/41/167 38/43/168 43/55/169 44/56/170
f 40/39/171 39/41/172 44/56/173 45/57/174
f 46/58/175 34/59/176 33/61/177 47/60/178
f 47/60/179 33/61/180 32/63/181 48/62/182
f 48/62/183 32/63/184 7/34/185 24/20/186
f 49/64/187 50/65/188 34/59/189 46/58/190
f 50/65/191 49/64/192 23/19/193 8/33/194
f 72/67/195 53/66/196 54/68/197 71/69/198
f 71/69/199 54/68/200 55/70/201 70/71/202
f 70/73/203 55/72/204 56/74/205 69/75/206
f 69/75/207 56/74/208 57/76/209 73/77/210
f 73/77/211 57/76/212 53/66/213 72/67/214
f 54/80/215 53/78/216 63/79/217
f 55/81/218 54/80/219 63/79/220
f 56/82/221 55/81/222 63/79/223
f 57/76/224 56/82/225 63/79/226
f 53/78/227 57/76/228 63/79/229
f 64/88/230 65/83/231 69/75/232 73/77/233
f 65/83/234 66/84/235 70/73/236 69/75/237
f 66/85/238 67/86/239 71/69/240 70/71/241
f 67/86/242 68/87/243 72/67/244 71/69/245
f 68/87/246 64/88/247 73/77/248 72/67/249
f 65/83/250 64/88/251 62/89/252 61/90/253
f 66/84/254 65/83/255 61/90/256 60/91/257
f 67/86/258 66/85/259 60/92/260 59/93/261
f 68/87/262 67/86/263 59/93/264 58/94/265
f 64/88/266 68/87/267 58/94/268 62/89/269
f 74/95/270 87/96/271 88/106/272 78/105/273
f 87/96/274 74/95/275 75/97/276 86/98/277
f 86/100/278 75/99/279 76/101/280 85/102/281
f 85/102/282 76/101/283 77/103/284 89/104/285
f 89/104/286 77/103/287 78/105/288 88/106/289
f 84/108/290 74/107/291 78/111/292
f 75/109/293 74/107/294 84/108/295
f 76/110/296 75/109/297 84/108/298
f 77/103/299 76/110/300 84/108/301
f 78/111/302 77/103/303 84/108/304
f 91/112/305 85/102/306 89/104/307 90/117/308
f 86/100/309 85/102/310 91/112/311 92/113/312
f 87/96/313 86/98/314 92/114/315 93/115/316
f 88/106/317 87/96/318 93/115/319 94/116/320
f 89/104/321 88/106/322 94/116/323 90/117/324
f 95/118/325 96/119/326 91/112/327 90/117/328
f 96/119/329 97/120/330 92/113/331 91/112/332
f 97/121/333 98/122/334 93/115/335 92/114/336
f 98/122/337 99/123/338 94/116/339 93/115/340
f 99/123/341 95/118/342 90/117/343 94/116/344
f 96/119/345 95/118/346 82/124/347 81/125/348
f 97/120/349 96/119/350 81/125/351 80/126/352
f 98/122/353 97/121/354 80/127/355 79/128/356
f 99/123/357 98/122/358 79/128/359 83/129/360
f 95/118/361 99/123/362 83/129/363 82/124/364
