# This file uses centimeters as units for non-parametric coordinates.

mtllib SecretCaveStatue_sodaTOPCOL.mtl
g default
v 2.618996 13.519974 -1.829608
v 1.000367 13.519974 -3.005611
v -1.000368 13.519974 -3.005611
v -2.618997 13.519974 -1.829608
v -3.237257 13.519974 0.073204
v -2.618996 13.519974 1.976016
v -1.000367 13.519974 3.152019
v 1.000368 13.519974 3.152019
v 2.618996 13.519974 1.976016
v 3.237257 13.519974 0.073204
v 2.419637 14.758819 -1.684765
v 0.924219 14.758819 -2.771250
v -0.924219 14.758819 -2.771250
v -2.419637 14.758819 -1.684765
v -2.990836 14.758819 0.073204
v -2.419637 14.758819 1.831173
v -0.924219 14.758819 2.917658
v 0.924219 14.758819 2.917658
v 2.419636 14.758819 1.831173
v 2.990835 14.758819 0.073204
v 1.851910 15.809060 -1.272288
v 0.707366 15.809060 -2.103847
v -0.707367 15.809060 -2.103847
v -1.851910 15.809060 -1.272287
v -2.289087 15.809060 0.073204
v -1.851910 15.809060 1.418695
v -0.707367 15.809060 2.250255
v 0.707367 15.809060 2.250255
v 1.851910 15.809060 1.418695
v 2.289086 15.809060 0.073204
v 1.002246 16.510809 -0.654971
v 0.382824 16.510809 -1.105008
v -0.382824 16.510809 -1.105007
v -1.002247 16.510809 -0.654971
v -1.238845 16.510809 0.073204
v -1.002246 16.510809 0.801379
v -0.382824 16.510809 1.251415
v 0.382824 16.510809 1.251415
v 1.002246 16.510809 0.801379
v 1.238845 16.510809 0.073204
v 0.000000 16.757231 0.073204
v 0.000000 13.519974 0.073204
vt 0.000000 0.500000
vt 0.100000 0.500000
vt 0.100000 0.625000
vt 0.000000 0.625000
vt 0.200000 0.500000
vt 0.200000 0.625000
vt 0.300000 0.500000
vt 0.300000 0.625000
vt 0.400000 0.500000
vt 0.400000 0.625000
vt 0.500000 0.500000
vt 0.500000 0.625000
vt 0.600000 0.500000
vt 0.600000 0.625000
vt 0.700000 0.500000
vt 0.700000 0.625000
vt 0.800000 0.500000
vt 0.800000 0.625000
vt 0.900000 0.500000
vt 0.900000 0.625000
vt 1.000000 0.500000
vt 1.000000 0.625000
vt 0.100000 0.750000
vt 0.000000 0.750000
vt 0.200000 0.750000
vt 0.300000 0.750000
vt 0.400000 0.750000
vt 0.500000 0.750000
vt 0.600000 0.750000
vt 0.700000 0.750000
vt 0.800000 0.750000
vt 0.900000 0.750000
vt 1.000000 0.750000
vt 0.100000 0.875000
vt 0.000000 0.875000
vt 0.200000 0.875000
vt 0.300000 0.875000
vt 0.400000 0.875000
vt 0.500000 0.875000
vt 0.600000 0.875000
vt 0.700000 0.875000
vt 0.800000 0.875000
vt 0.900000 0.875000
vt 1.000000 0.875000
vt 0.050000 1.000000
vt 0.150000 1.000000
vt 0.250000 1.000000
vt 0.350000 1.000000
vt 0.450000 1.000000
vt 0.550000 1.000000
vt 0.650000 1.000000
vt 0.750000 1.000000
vt 0.850000 1.000000
vt 0.950000 1.000000
vt 0.650000 0.500000
vn 0.577542 0.185880 -0.794918
vn 0.577542 0.185880 -0.794918
vn 0.577542 0.185880 -0.794918
vn 0.577542 0.185880 -0.794918
vn -0.000000 0.185880 -0.982572
vn -0.000000 0.185880 -0.982572
vn -0.000000 0.185880 -0.982572
vn -0.000000 0.185880 -0.982572
vn -0.577541 0.185880 -0.794918
vn -0.577541 0.185880 -0.794918
vn -0.577542 0.185880 -0.794918
vn -0.577542 0.185880 -0.794918
vn -0.934482 0.185880 -0.303632
vn -0.934482 0.185880 -0.303632
vn -0.934482 0.185880 -0.303632
vn -0.934482 0.185880 -0.303632
vn -0.934482 0.185880 0.303632
vn -0.934482 0.185880 0.303632
vn -0.934482 0.185880 0.303632
vn -0.934482 0.185880 0.303632
vn -0.577542 0.185880 0.794918
vn -0.577542 0.185880 0.794918
vn -0.577542 0.185880 0.794918
vn -0.577542 0.185880 0.794918
vn 0.000000 0.185880 0.982572
vn 0.000000 0.185880 0.982572
vn 0.000000 0.185880 0.982572
vn 0.000000 0.185880 0.982572
vn 0.577542 0.185880 0.794918
vn 0.577542 0.185880 0.794918
vn 0.577542 0.185880 0.794918
vn 0.577542 0.185880 0.794918
vn 0.934482 0.185880 0.303632
vn 0.934482 0.185880 0.303632
vn 0.934482 0.185880 0.303632
vn 0.934482 0.185880 0.303632
vn 0.934482 0.185880 -0.303631
vn 0.934482 0.185880 -0.303631
vn 0.934482 0.185880 -0.303631
vn 0.934482 0.185880 -0.303631
vn 0.496091 0.536342 -0.682811
vn 0.496091 0.536342 -0.682811
vn 0.496091 0.536342 -0.682811
vn 0.496091 0.536342 -0.682811
vn -0.000000 0.536342 -0.844001
vn -0.000000 0.536342 -0.844001
vn -0.000000 0.536342 -0.844001
vn -0.000000 0.536342 -0.844001
vn -0.496091 0.536342 -0.682811
vn -0.496091 0.536342 -0.682811
vn -0.496091 0.536342 -0.682811
vn -0.496091 0.536342 -0.682811
vn -0.802693 0.536342 -0.260810
vn -0.802693 0.536342 -0.260810
vn -0.802692 0.536342 -0.260810
vn -0.802693 0.536342 -0.260810
vn -0.802692 0.536342 0.260810
vn -0.802693 0.536342 0.260810
vn -0.802692 0.536342 0.260810
vn -0.802692 0.536342 0.260810
vn -0.496091 0.536342 0.682812
vn -0.496091 0.536342 0.682812
vn -0.496091 0.536342 0.682812
vn -0.496091 0.536342 0.682812
vn 0.000000 0.536342 0.844001
vn 0.000000 0.536342 0.844001
vn 0.000000 0.536342 0.844001
vn 0.000000 0.536342 0.844001
vn 0.496091 0.536342 0.682811
vn 0.496091 0.536342 0.682811
vn 0.496091 0.536342 0.682811
vn 0.496091 0.536342 0.682811
vn 0.802692 0.536342 0.260810
vn 0.802692 0.536342 0.260810
vn 0.802693 0.536342 0.260810
vn 0.802692 0.536342 0.260810
vn 0.802692 0.536342 -0.260810
vn 0.802692 0.536342 -0.260810
vn 0.802693 0.536342 -0.260810
vn 0.802693 0.536342 -0.260810
vn 0.337900 0.818245 -0.465079
vn 0.337900 0.818245 -0.465079
vn 0.337900 0.818245 -0.465079
vn 0.337900 0.818245 -0.465079
vn 0.000000 0.818245 -0.574869
vn 0.000000 0.818245 -0.574869
vn 0.000000 0.818245 -0.574869
vn 0.000000 0.818245 -0.574869
vn -0.337900 0.818245 -0.465079
vn -0.337900 0.818245 -0.465079
vn -0.337900 0.818245 -0.465079
vn -0.337900 0.818245 -0.465079
vn -0.546734 0.818245 -0.177645
vn -0.546734 0.818245 -0.177645
vn -0.546733 0.818245 -0.177645
vn -0.546734 0.818245 -0.177645
vn -0.546733 0.818245 0.177646
vn -0.546733 0.818245 0.177646
vn -0.546733 0.818245 0.177646
vn -0.546733 0.818245 0.177646
vn -0.337900 0.818245 0.465078
vn -0.337900 0.818245 0.465078
vn -0.337900 0.818245 0.465079
vn -0.337900 0.818245 0.465078
vn 0.000000 0.818246 0.574869
vn 0.000000 0.818246 0.574869
vn 0.000000 0.818246 0.574869
vn 0.000000 0.818246 0.574869
vn 0.337900 0.818245 0.465080
vn 0.337900 0.818245 0.465080
vn 0.337900 0.818245 0.465080
vn 0.337900 0.818245 0.465080
vn 0.546734 0.818245 0.177645
vn 0.546734 0.818245 0.177645
vn 0.546734 0.818245 0.177645
vn 0.546734 0.818245 0.177645
vn 0.546734 0.818245 -0.177646
vn 0.546734 0.818245 -0.177646
vn 0.546734 0.818245 -0.177646
vn 0.546734 0.818245 -0.177646
vn 0.120331 0.978820 -0.165624
vn 0.120331 0.978820 -0.165624
vn 0.120331 0.978820 -0.165624
vn -0.000000 0.978821 -0.204720
vn -0.000000 0.978821 -0.204720
vn -0.000000 0.978821 -0.204720
vn -0.120331 0.978821 -0.165623
vn -0.120331 0.978821 -0.165623
vn -0.120331 0.978821 -0.165623
vn -0.194700 0.978821 -0.063259
vn -0.194700 0.978821 -0.063259
vn -0.194700 0.978821 -0.063259
vn -0.194700 0.978821 0.063259
vn -0.194700 0.978821 0.063259
vn -0.194700 0.978821 0.063259
vn -0.120331 0.978820 0.165624
vn -0.120331 0.978820 0.165624
vn -0.120331 0.978820 0.165624
vn 0.000000 0.978820 0.204721
vn 0.000000 0.978820 0.204721
vn 0.000000 0.978820 0.204721
vn 0.120331 0.978821 0.165623
vn 0.120331 0.978821 0.165623
vn 0.120331 0.978821 0.165623
vn 0.194700 0.978821 0.063259
vn 0.194700 0.978821 0.063259
vn 0.194700 0.978821 0.063259
vn 0.194700 0.978821 -0.063259
vn 0.194700 0.978821 -0.063259
vn 0.194700 0.978821 -0.063259
vn 0.000000 -1.000000 0.000000
vn 0.000000 -1.000000 0.000000
vn 0.000000 -1.000000 0.000000
vn 0.000000 -1.000000 0.000000
vn 0.000000 -1.000000 0.000000
vn 0.000000 -1.000000 0.000000
vn 0.000000 -1.000000 0.000000
vn 0.000000 -1.000000 0.000000
vn 0.000000 -1.000000 0.000000
vn 0.000000 -1.000000 -0.000001
vn 0.000000 -1.000000 0.000000
vn 0.000000 -1.000000 0.000000
vn 0.000000 -1.000000 0.000000
vn 0.000000 -1.000000 0.000000
vn 0.000000 -1.000000 -0.000001
vn 0.000000 -1.000000 0.000000
vn 0.000000 -1.000000 0.000000
vn 0.000000 -1.000000 0.000000
vn 0.000000 -1.000000 0.000000
vn 0.000000 -1.000000 0.000000
vn 0.000000 -1.000000 0.000000
vn 0.000000 -1.000000 0.000000
vn 0.000000 -1.000000 0.000000
vn 0.000000 -1.000000 0.000000
vn 0.000000 -1.000000 0.000000
vn 0.000000 -1.000000 0.000000
vn 0.000000 -1.000000 0.000000
vn 0.000000 -1.000000 0.000000
vn 0.000000 -1.000000 0.000000
vn 0.000000 -1.000000 0.000000
s off
g pSphere1
usemtl lambert2SG
f 1/1/1 2/2/2 12/3/3 11/4/4
f 2/2/5 3/5/6 13/6/7 12/3/8
f 3/5/9 4/7/10 14/8/11 13/6/12
f 4/7/13 5/9/14 15/10/15 14/8/16
f 5/9/17 6/11/18 16/12/19 15/10/20
f 6/11/21 7/13/22 17/14/23 16/12/24
f 7/13/25 8/15/26 18/16/27 17/14/28
f 8/15/29 9/17/30 19/18/31 18/16/32
f 9/17/33 10/19/34 20/20/35 19/18/36
f 10/19/37 1/21/38 11/22/39 20/20/40
f 11/4/41 12/3/42 22/23/43 21/24/44
f 12/3/45 13/6/46 23/25/47 22/23/48
f 13/6/49 14/8/50 24/26/51 23/25/52
f 14/8/53 15/10/54 25/27/55 24/26/56
f 15/10/57 16/12/58 26/28/59 25/27/60
f 16/12/61 17/14/62 27/29/63 26/28/64
f 17/14/65 18/16/66 28/30/67 27/29/68
f 18/16/69 19/18/70 29/31/71 28/30/72
f 19/18/73 20/20/74 30/32/75 29/31/76
f 20/20/77 11/22/78 21/33/79 30/32/80
f 21/24/81 22/23/82 32/34/83 31/35/84
f 22/23/85 23/25/86 33/36/87 32/34/88
f 23/25/89 24/26/90 34/37/91 33/36/92
f 24/26/93 25/27/94 35/38/95 34/37/96
f 25/27/97 26/28/98 36/39/99 35/38/100
f 26/28/101 27/29/102 37/40/103 36/39/104
f 27/29/105 28/30/106 38/41/107 37/40/108
f 28/30/109 29/31/110 39/42/111 38/41/112
f 29/31/113 30/32/114 40/43/115 39/42/116
f 30/32/117 21/33/118 31/44/119 40/43/120
f 31/35/121 32/34/122 41/45/123
f 32/34/124 33/36/125 41/46/126
f 33/36/127 34/37/128 41/47/129
f 34/37/130 35/38/131 41/48/132
f 35/38/133 36/39/134 41/49/135
f 36/39/136 37/40/137 41/50/138
f 37/40/139 38/41/140 41/51/141
f 38/41/142 39/42/143 41/52/144
f 39/42/145 40/43/146 41/53/147
f 40/43/148 31/44/149 41/54/150
f 9/17/151 42/55/152 10/19/153
f 3/5/154 42/55/155 4/7/156
f 5/9/157 42/55/158 6/11/159
f 7/13/160 42/55/161 8/15/162
f 6/11/163 42/55/164 7/13/165
f 8/15/166 42/55/167 9/17/168
f 42/55/169 1/21/170 10/19/171
f 4/7/172 42/55/173 5/9/174
f 2/2/175 1/21/176 42/55/177
f 2/2/178 42/55/179 3/5/180
g default
v 1.416755 15.989614 -1.416755
v -0.000000 15.989614 -2.003594
v -1.416756 15.989614 -1.416755
v -2.003594 15.989614 0.000000
v -1.416756 15.989614 1.416755
v -0.000000 15.989614 2.003594
v 1.416755 15.989614 1.416755
v 2.003595 15.989614 0.000000
v 1.236130 16.961609 -1.236130
v 0.000000 16.961609 -1.748151
v -1.236130 16.961609 -1.236130
v -1.748151 16.961609 0.000000
v -1.236130 16.961609 1.236130
v 0.000000 16.961609 1.748151
v 1.236130 16.961609 1.236130
v 1.748152 16.961609 0.000000
v 0.000000 15.989614 0.000000
v 0.000000 17.753887 0.000000
vt 0.375000 0.312500
vt 0.406250 0.312500
vt 0.406250 0.688440
vt 0.375000 0.688440
vt 0.437500 0.312500
vt 0.437500 0.688440
vt 0.468750 0.312500
vt 0.468750 0.688440
vt 0.500000 0.312500
vt 0.500000 0.688440
vt 0.531250 0.312500
vt 0.531250 0.688440
vt 0.562500 0.312500
vt 0.562500 0.688440
vt 0.593750 0.312500
vt 0.593750 0.688440
vt 0.625000 0.312500
vt 0.625000 0.688440
vt 0.500000 0.000000
vt 0.610485 0.045765
vt 0.500000 0.150000
vt 0.389515 0.045765
vt 0.343750 0.156250
vt 0.389515 0.266735
vt 0.500000 0.312500
vt 0.610485 0.266735
vt 0.656250 0.156250
vt 0.610485 0.954235
vt 0.500000 1.000000
vt 0.500000 0.837500
vt 0.389515 0.954235
vt 0.343750 0.843750
vt 0.389515 0.733265
vt 0.500000 0.687500
vt 0.610485 0.733265
vt 0.656250 0.843750
vn 0.371879 0.235943 -0.897796
vn 0.371879 0.235943 -0.897796
vn 0.371879 0.235943 -0.897796
vn 0.371879 0.235943 -0.897796
vn -0.382683 0.000000 -0.923880
vn -0.382683 0.000000 -0.923880
vn -0.382683 0.000000 -0.923880
vn -0.382683 0.000000 -0.923880
vn -0.923880 0.000000 -0.382683
vn -0.923880 0.000000 -0.382683
vn -0.923880 0.000000 -0.382683
vn -0.923880 0.000000 -0.382683
vn -0.923880 0.000000 0.382683
vn -0.923880 0.000000 0.382683
vn -0.923880 0.000000 0.382683
vn -0.923880 0.000000 0.382683
vn -0.382684 0.000000 0.923879
vn -0.382684 0.000000 0.923879
vn -0.382684 0.000000 0.923879
vn -0.382684 0.000000 0.923879
vn 0.382684 0.000000 0.923879
vn 0.382684 0.000000 0.923879
vn 0.382684 0.000000 0.923879
vn 0.382684 0.000000 0.923879
vn 0.923879 0.000000 0.382684
vn 0.923879 0.000000 0.382684
vn 0.923879 0.000000 0.382684
vn 0.923879 0.000000 0.382684
vn 0.923879 0.000000 -0.382684
vn 0.923879 0.000000 -0.382684
vn 0.923879 0.000000 -0.382684
vn 0.923879 0.000000 -0.382684
vn 0.000000 -1.000000 0.000000
vn 0.000000 -1.000000 0.000000
vn 0.000000 -1.000000 0.000000
vn 0.000000 -1.000000 0.000000
vn 0.000000 -1.000000 0.000000
vn 0.000000 -1.000000 0.000000
vn 0.000000 -1.000000 0.000000
vn 0.000000 -1.000000 0.000000
vn 0.000000 -1.000000 0.000000
vn 0.000000 -1.000000 0.000000
vn 0.000000 -1.000000 0.000000
vn 0.000000 -1.000000 0.000000
vn 0.000000 -1.000000 0.000000
vn 0.000000 -1.000000 0.000000
vn 0.000000 -1.000000 0.000000
vn 0.000000 -1.000000 0.000000
vn 0.000000 -1.000000 0.000000
vn 0.000000 -1.000000 0.000000
vn 0.000000 -1.000000 0.000000
vn 0.000000 -1.000000 0.000000
vn 0.000000 -1.000000 0.000000
vn 0.000000 -1.000000 0.000000
vn 0.000000 -1.000000 0.000000
vn 0.000000 -1.000000 0.000000
vn 0.291889 0.910825 -0.291889
vn 0.000000 0.910824 -0.412794
vn 0.000000 1.000000 0.000000
vn 0.000000 0.910824 -0.412794
vn -0.291889 0.910825 -0.291889
vn 0.000000 1.000000 0.000000
vn -0.291889 0.910825 -0.291889
vn -0.412794 0.910824 0.000000
vn 0.000000 1.000000 0.000000
vn -0.412794 0.910824 0.000000
vn -0.291890 0.910824 0.291889
vn 0.000000 1.000000 0.000000
vn -0.291890 0.910824 0.291889
vn 0.000000 0.910824 0.412794
vn 0.000000 1.000000 0.000000
vn 0.000000 0.910824 0.412794
vn 0.291889 0.910824 0.291890
vn 0.000000 1.000000 0.000000
vn 0.291889 0.910824 0.291890
vn 0.412794 0.910824 0.000001
vn 0.000000 1.000000 0.000000
vn 0.412794 0.910824 0.000001
vn 0.291889 0.910825 -0.291889
vn 0.000000 1.000000 0.000000
s off
g pCylinder1
usemtl lambert2SG
f 43/56/181 44/57/182 52/58/183 51/59/184
f 44/57/185 45/60/186 53/61/187 52/58/188
f 45/60/189 46/62/190 54/63/191 53/61/192
f 46/62/193 47/64/194 55/65/195 54/63/196
f 47/64/197 48/66/198 56/67/199 55/65/200
f 48/66/201 49/68/202 57/69/203 56/67/204
f 49/68/205 50/70/206 58/71/207 57/69/208
f 50/70/209 43/72/210 51/73/211 58/71/212
f 44/74/213 43/75/214 59/76/215
f 45/77/216 44/74/217 59/76/218
f 46/78/219 45/77/220 59/76/221
f 47/79/222 46/78/223 59/76/224
f 48/80/225 47/79/226 59/76/227
f 49/81/228 48/80/229 59/76/230
f 50/82/231 49/81/232 59/76/233
f 43/75/234 50/82/235 59/76/236
f 51/83/237 52/84/238 60/85/239
f 52/84/240 53/86/241 60/85/242
f 53/86/243 54/87/244 60/85/245
f 54/87/246 55/88/247 60/85/248
f 55/88/249 56/89/250 60/85/251
f 56/89/252 57/90/253 60/85/254
f 57/90/255 58/91/256 60/85/257
f 58/91/258 51/83/259 60/85/260
g default
v -1.202895 10.747589 -0.956494
v 1.202895 10.747589 -0.956494
v -1.202895 13.994991 -0.956494
v 1.202895 13.994991 -0.956494
v -1.202895 13.994991 -1.956494
v 1.202895 13.994991 -1.956494
v -1.202895 10.747589 -1.956494
v 1.202895 10.747589 -1.956494
vt 0.375000 0.000000
vt 0.625000 0.000000
vt 0.625000 0.250000
vt 0.375000 0.250000
vt 0.625000 0.500000
vt 0.375000 0.500000
vt 0.625000 0.750000
vt 0.375000 0.750000
vt 0.625000 1.000000
vt 0.375000 1.000000
vt 0.875000 0.000000
vt 0.875000 0.250000
vt 0.125000 0.000000
vt 0.125000 0.250000
vn 0.000000 0.000000 1.000000
vn 0.000000 0.000000 1.000000
vn 0.000000 0.000000 1.000000
vn 0.000000 0.000000 1.000000
vn 0.000000 1.000000 0.000000
vn 0.000000 1.000000 0.000000
vn 0.000000 1.000000 0.000000
vn 0.000000 1.000000 0.000000
vn 0.000000 0.000000 -1.000000
vn 0.000000 0.000000 -1.000000
vn 0.000000 0.000000 -1.000000
vn 0.000000 0.000000 -1.000000
vn 0.000000 -1.000000 0.000000
vn 0.000000 -1.000000 0.000000
vn 0.000000 -1.000000 0.000000
vn 0.000000 -1.000000 0.000000
vn 1.000000 0.000000 0.000000
vn 1.000000 0.000000 0.000000
vn 1.000000 0.000000 0.000000
vn 1.000000 0.000000 0.000000
vn -1.000000 0.000000 0.000000
vn -1.000000 0.000000 0.000000
vn -1.000000 0.000000 0.000000
vn -1.000000 0.000000 0.000000
s off
g pCube15
usemtl lambert2SG
f 61/92/261 62/93/262 64/94/263 63/95/264
f 63/95/265 64/94/266 66/96/267 65/97/268
f 65/97/269 66/96/270 68/98/271 67/99/272
f 67/99/273 68/98/274 62/100/275 61/101/276
f 62/93/277 68/102/278 66/103/279 64/94/280
f 67/104/281 61/92/282 63/95/283 65/105/284
