# This file uses centimeters as units for non-parametric coordinates.

mtllib WambusLLowerCanine.mtl
g default
v 0.126535 0.763491 0.067335
v -0.104625 0.761147 0.061735
v 0.130986 0.724584 -0.048064
v -0.103347 0.722190 -0.053283
v -0.227247 0.479081 0.179029
v 0.010897 0.822808 0.046328
v 0.161901 0.761318 0.007791
v -0.137660 0.758365 -0.000539
v 0.013856 0.771413 -0.074773
v 0.256151 0.456768 -0.066241
v -0.225366 0.452007 -0.077343
v 0.246826 0.483861 0.189241
v 0.008838 0.510200 0.222299
v 0.012456 0.842668 -0.039116
v 0.016074 0.469215 -0.106199
v -0.332522 0.452943 0.051646
v 0.357545 0.459831 0.066954
v 0.011437 -0.016736 0.237131
v 0.321421 -0.016537 0.174822
v -0.295451 -0.016959 0.161068
v 0.023032 -0.016825 -0.281769
v 0.329923 -0.016603 -0.205705
v -0.286952 -0.017024 -0.219460
v -0.403360 -0.017068 -0.031697
v 0.437831 -0.016493 -0.012941
v 0.176641 0.682371 0.116253
v 0.076064 0.804307 0.060306
v 0.148518 0.768602 0.042206
v 0.011625 0.847513 -0.001462
v 0.085767 0.822972 -0.019236
v -0.125916 0.765916 0.034252
v -0.061286 0.821488 -0.022910
v 0.013345 0.819613 -0.070180
v -0.125196 0.742859 -0.033790
v -0.052191 0.755947 -0.067901
v 0.151484 0.745671 -0.027357
v 0.079994 0.757301 -0.064967
v 0.180697 0.641781 -0.046923
v 0.013115 0.675418 -0.079926
v 0.142072 0.467993 -0.094448
v -0.154108 0.638947 -0.059918
v -0.110306 0.465499 -0.100330
v -0.301738 0.449959 -0.021403
v -0.239086 0.630704 0.022748
v -0.301918 0.464910 0.123863
v 0.323774 0.471190 0.137550
v 0.264994 0.634989 0.042119
v 0.329971 0.456231 -0.007102
v 0.011774 0.239235 0.250255
v 0.306388 0.237990 0.204895
v 0.180064 -0.016625 0.223586
v -0.282295 0.232166 0.184340
v -0.156412 -0.016855 0.216084
v 0.308086 0.234864 -0.107939
v 0.014744 0.235012 -0.173042
v 0.190884 -0.016708 -0.260721
v -0.279633 0.229012 -0.129403
v -0.145592 -0.016938 -0.268223
v -0.393347 0.223435 0.022557
v -0.377639 -0.017032 0.072708
v -0.373003 -0.017067 -0.134853
v 0.419446 0.231497 0.051574
v 0.412108 -0.016530 -0.117347
v 0.407472 -0.016495 0.090214
v -0.114672 0.502825 0.209724
v 0.011574 0.735701 0.120875
v -0.152369 0.679535 0.103794
v -0.054460 0.802951 0.057549
v 0.132811 0.505332 0.215016
v -0.071835 0.716655 0.113043
v 0.095248 0.718103 0.119325
v 0.079725 0.827297 0.016212
v -0.056823 0.825931 0.012608
v -0.055575 0.799988 -0.051688
v 0.081761 0.801403 -0.048688
v 0.098332 0.662380 -0.070364
v -0.072034 0.660933 -0.076968
v -0.215170 0.627578 -0.025397
v -0.213291 0.647538 0.072614
v 0.238122 0.651349 0.090626
v 0.241607 0.631444 -0.007688
v 0.171150 0.240590 0.241635
v -0.147488 0.237438 0.230569
v 0.173595 0.236657 -0.153208
v -0.144414 0.233483 -0.164973
v -0.365161 0.226821 0.110328
v -0.363629 0.225073 -0.062534
v 0.390965 0.232571 -0.035263
v 0.390081 0.234300 0.136979
vt -0.915034 0.487405
vt -0.915242 0.495665
vt -0.923271 0.494687
vt -0.923172 0.487384
vt -0.915886 0.502691
vt -0.923814 0.500931
vt -0.927893 0.498923
vt -0.928391 0.494023
vt -0.928355 0.487402
vt -0.915951 0.472189
vt -0.915343 0.479179
vt -0.923384 0.480059
vt -0.923954 0.473908
vt -0.928306 0.480751
vt -0.928211 0.475801
vt -0.932391 0.480458
vt -0.931869 0.473902
vt -0.932400 0.487410
vt -0.935916 0.487436
vt -0.935937 0.480081
vt -0.935942 0.473057
vt -0.932386 0.494358
vt -0.931725 0.500963
vt -0.935891 0.501815
vt -0.935895 0.494790
vt -0.939440 0.494414
vt -0.939433 0.487462
vt -0.939965 0.500970
vt -0.943621 0.499071
vt -0.943526 0.494121
vt -0.943476 0.487470
vt -0.939447 0.480514
vt -0.940107 0.473909
vt -0.943440 0.480850
vt -0.943939 0.475949
vt -0.948560 0.480185
vt -0.948019 0.473941
vt -0.948660 0.487487
vt -0.956798 0.487467
vt -0.956590 0.479207
vt -0.955947 0.472181
vt -0.948449 0.494813
vt -0.947878 0.500963
vt -0.955880 0.502683
vt -0.956489 0.495693
vt -0.917908 0.511779
vt -0.955036 0.507801
vt -0.946694 0.505433
vt -0.926950 0.508481
vt -0.941431 0.501718
vt -0.932387 0.504046
vt -0.916815 0.507796
vt -0.925127 0.505280
vt -0.930142 0.501417
vt -0.953925 0.463093
vt -0.916797 0.467071
vt -0.925139 0.469439
vt -0.944882 0.466391
vt -0.930401 0.473154
vt -0.939445 0.470825
vt -0.955019 0.467076
vt -0.946706 0.469592
vt -0.941691 0.473456
vt -0.902847 0.478676
vt -0.902552 0.487428
vt -0.903405 0.471193
vt -0.888517 0.470467
vt -0.888004 0.478195
vt -0.887707 0.487298
vt -0.902740 0.496204
vt -0.903262 0.503722
vt -0.887820 0.496439
vt -0.888225 0.504237
vt -0.969092 0.478667
vt -0.968571 0.471150
vt -0.969280 0.487444
vt -0.984124 0.487573
vt -0.984012 0.478433
vt -0.983607 0.470634
vt -0.968985 0.496196
vt -0.968427 0.503679
vt -0.983316 0.504404
vt -0.983828 0.496676
vt -0.903806 0.509198
vt -0.967392 0.513384
vt -0.888641 0.509854
vt -0.888980 0.514186
vt -0.967884 0.509128
vt -0.982857 0.509968
vt -0.968025 0.465674
vt -0.904440 0.461488
vt -0.983191 0.465018
vt -0.982851 0.460685
vt -0.903949 0.465744
vt -0.888976 0.464904
vt -0.939278 0.504548
vt -0.954069 0.511806
vt -0.945036 0.508787
vt -0.932554 0.470324
vt -0.917763 0.463065
vt -0.926796 0.466085
vt -0.967513 0.461393
vt -0.889342 0.460604
vt -0.904320 0.513478
vt -0.982489 0.514267
vn -0.030529 0.232361 0.972151
vn -0.028894 0.475919 0.879014
vn -0.214609 0.466993 0.857823
vn -0.210846 0.236721 0.948424
vn -0.420892 0.486372 0.765697
vn -0.443691 0.245705 0.861840
vn -0.259519 0.681036 0.684719
vn -0.476417 0.621237 0.622167
vn -0.026648 0.737941 0.674339
vn 0.390462 0.256654 0.884120
vn 0.364858 0.481990 0.796596
vn 0.158262 0.467241 0.869850
vn 0.150714 0.241178 0.958707
vn 0.206759 0.693083 0.690570
vn 0.428578 0.649181 0.628399
vn 0.637836 0.703348 0.313794
vn 0.396296 0.887099 0.236654
vn -0.014217 0.983897 0.178170
vn 0.527735 0.802552 -0.278220
vn 0.000618 0.919192 -0.393810
vn 0.750701 0.645133 -0.142310
vn -0.424203 0.878590 0.219391
vn -0.667948 0.682007 0.297844
vn -0.527602 0.793064 -0.304444
vn -0.752759 0.637090 -0.165740
vn 0.014358 0.521857 -0.852912
vn -0.439106 0.491591 -0.752013
vn -0.619284 0.462652 -0.634382
vn -0.216314 0.165318 -0.962226
vn -0.396515 0.267244 -0.878269
vn 0.026669 0.126896 -0.991557
vn 0.651838 0.454525 -0.607054
vn 0.466501 0.504028 -0.726865
vn 0.264175 0.153018 -0.952259
vn 0.438184 0.232351 -0.868336
vn 0.402460 0.238815 -0.883738
vn 0.188110 0.147477 -0.971012
vn 0.028311 0.115822 -0.992867
vn 0.190588 0.227083 -0.955044
vn 0.028284 0.218330 -0.975465
vn 0.436063 0.265417 -0.859886
vn -0.134641 0.143617 -0.980431
vn -0.353458 0.223485 -0.908362
vn -0.135956 0.230187 -0.963603
vn -0.392260 0.274481 -0.877948
vn -0.942204 0.335007 0.004591
vn -0.862898 0.499975 -0.073700
vn -0.676748 0.362391 -0.640846
vn -0.742575 0.323097 -0.586677
vn -0.701166 0.526219 0.481103
vn -0.762354 0.295362 0.575827
vn 0.939925 0.340602 0.023072
vn 0.859836 0.509036 -0.039564
vn 0.672014 0.524381 0.522898
vn 0.734478 0.310250 0.603562
vn 0.699546 0.381941 -0.603951
vn 0.762427 0.314453 -0.565530
vn -0.028200 0.019037 0.999421
vn 0.164577 0.020108 0.986159
vn 0.445384 0.030631 0.894816
vn 0.177957 -0.067775 0.981701
vn 0.480168 -0.074919 0.873972
vn -0.027911 -0.055634 0.998061
vn -0.490558 0.027447 0.870976
vn -0.218600 0.019155 0.975627
vn -0.231589 -0.053539 0.971339
vn -0.521956 -0.054722 0.851215
vn 0.476587 0.316913 -0.820019
vn 0.205475 0.336301 -0.919065
vn 0.025335 0.341821 -0.939424
vn 0.208218 0.389917 -0.897001
vn 0.026462 0.393152 -0.919092
vn 0.464779 0.355250 -0.811035
vn -0.157410 0.333873 -0.929382
vn -0.438714 0.310890 -0.843135
vn -0.158041 0.374362 -0.913716
vn -0.426572 0.324502 -0.844236
vn -0.989274 0.146007 -0.004303
vn -0.829744 0.064342 0.554423
vn -0.862277 -0.029802 0.505559
vn -0.996177 0.066457 -0.056704
vn -0.798982 0.245631 -0.548902
vn -0.787916 0.212960 -0.577786
vn 0.987113 0.156466 0.033577
vn 0.817875 0.255714 -0.515453
vn 0.800576 0.254546 -0.542480
vn 0.994950 0.094933 -0.032601
vn 0.804223 0.071549 0.590005
vn 0.845498 -0.034448 0.532866
s 1
g GrumpusLLowerCanine
usemtl lambert12SG
f 13/1/1 66/4/2 70/3/3 65/2/4
f 65/2/4 70/3/3 67/6/5 5/5/6
f 70/3/3 68/8/7 2/7/8 67/6/5
f 66/4/2 6/9/9 68/8/7 70/3/3
f 12/10/10 26/13/11 71/12/12 69/11/13
f 69/11/13 71/12/12 66/4/2 13/1/1
f 71/12/12 27/14/14 6/9/9 66/4/2
f 26/13/11 1/15/15 27/14/14 71/12/12
f 1/15/15 28/17/16 72/16/17 27/14/14
f 27/14/14 72/16/17 29/18/18 6/9/9
f 72/16/17 30/20/19 14/19/20 29/18/18
f 28/17/16 7/21/21 30/20/19 72/16/17
f 6/9/9 29/18/18 73/22/22 68/8/7
f 68/8/7 73/22/22 31/23/23 2/7/8
f 73/22/22 32/25/24 8/24/25 31/23/23
f 29/18/18 14/19/20 32/25/24 73/22/22
f 14/19/20 33/27/26 74/26/27 32/25/24
f 32/25/24 74/26/27 34/28/28 8/24/25
f 74/26/27 35/30/29 4/29/30 34/28/28
f 33/27/26 9/31/31 35/30/29 74/26/27
f 7/21/21 36/33/32 75/32/33 30/20/19
f 30/20/19 75/32/33 33/27/26 14/19/20
f 75/32/33 37/34/34 9/31/31 33/27/26
f 36/33/32 3/35/35 37/34/34 75/32/33
f 3/35/35 38/37/36 76/36/37 37/34/34
f 37/34/34 76/36/37 39/38/38 9/31/31
f 76/36/37 40/40/39 15/39/40 39/38/38
f 38/37/36 10/41/41 40/40/39 76/36/37
f 9/31/31 39/38/38 77/42/42 35/30/29
f 35/30/29 77/42/42 41/43/43 4/29/30
f 77/42/42 42/45/44 11/44/45 41/43/43
f 39/38/38 15/39/40 42/45/44 77/42/42
f 16/97/46 44/98/47 78/48/48 43/47/49
f 43/47/49 78/48/48 41/43/43 11/44/45
f 78/48/48 34/50/28 4/29/30 41/43/43
f 44/98/47 8/96/25 34/50/28 78/48/48
f 5/5/6 67/6/5 79/53/50 45/52/51
f 45/52/51 79/53/50 44/49/47 16/46/46
f 79/53/50 31/54/23 8/51/25 44/49/47
f 67/6/5 2/7/8 31/54/23 79/53/50
f 17/100/52 47/101/53 80/57/54 46/56/55
f 46/56/55 80/57/54 26/13/11 12/10/10
f 80/57/54 28/59/16 1/15/15 26/13/11
f 47/101/53 7/99/21 28/59/16 80/57/54
f 10/41/41 38/37/36 81/62/56 48/61/57
f 48/61/57 81/62/56 47/58/53 17/55/52
f 81/62/56 36/63/32 7/60/21 47/58/53
f 38/37/36 3/35/35 36/63/32 81/62/56
f 13/1/1 49/65/58 82/64/59 69/11/13
f 69/11/13 82/64/59 50/66/60 12/10/10
f 82/64/59 51/68/61 19/67/62 50/66/60
f 49/65/58 18/69/63 51/68/61 82/64/59
f 5/5/6 52/71/64 83/70/65 65/2/4
f 65/2/4 83/70/65 49/65/58 13/1/1
f 83/70/65 53/72/66 18/69/63 49/65/58
f 52/71/64 20/73/67 53/72/66 83/70/65
f 10/41/41 54/75/68 84/74/69 40/40/39
f 40/40/39 84/74/69 55/76/70 15/39/40
f 84/74/69 56/78/71 21/77/72 55/76/70
f 54/75/68 22/79/73 56/78/71 84/74/69
f 15/39/40 55/76/70 85/80/74 42/45/44
f 42/45/44 85/80/74 57/81/75 11/44/45
f 85/80/74 58/83/76 23/82/77 57/81/75
f 55/76/70 21/77/72 58/83/76 85/80/74
f 16/46/46 59/104/78 86/84/79 45/52/51
f 45/52/51 86/84/79 52/71/64 5/5/6
f 86/84/79 60/86/80 20/73/67 52/71/64
f 59/104/78 24/87/81 60/86/80 86/84/79
f 11/44/45 57/81/75 87/88/82 43/47/49
f 43/47/49 87/88/82 59/85/78 16/97/46
f 87/88/82 61/89/83 24/105/81 59/85/78
f 57/81/75 23/82/77 61/89/83 87/88/82
f 17/55/52 62/102/84 88/90/85 48/61/57
f 48/61/57 88/90/85 54/75/68 10/41/41
f 88/90/85 63/92/86 22/79/73 54/75/68
f 62/102/84 25/93/87 63/92/86 88/90/85
f 12/10/10 50/66/60 89/94/88 46/56/55
f 46/56/55 89/94/88 62/91/84 17/100/52
f 89/94/88 64/95/89 25/103/87 62/91/84
f 50/66/60 19/67/62 64/95/89 89/94/88
