# This file uses centimeters as units for non-parametric coordinates.

mtllib MediumBeachRock02COL.mtl
g default
v -3.460042 -0.229233 -2.480762
v -3.497629 13.017234 -2.479800
v 1.450300 0.127388 -4.767657
v -1.092369 0.127726 -7.204132
v -5.879268 0.127063 -7.198239
v -8.287325 0.126331 -4.494275
v -8.284328 0.126324 -0.338782
v -5.834193 0.128324 2.190245
v -0.393035 0.065112 1.282368
v 2.052480 0.064990 -1.479143
v 2.158107 11.944219 -5.119336
v 2.611993 10.895707 -1.378299
v -0.783990 11.965589 -7.929110
v -6.272550 11.967611 -7.920610
v -9.057285 11.969051 -4.792078
v -9.058331 11.947351 -0.018429
v -6.224125 10.899673 2.926032
v -0.169526 10.874266 1.788063
v -0.707745 6.040293 -8.077588
v 2.309041 6.040043 -5.189250
v -6.350312 6.040293 -8.068525
v -9.213085 6.040293 -4.857686
v -9.208537 6.040060 0.048963
v -6.278365 6.040539 3.067521
v -0.395593 6.008476 1.610860
v 2.465329 6.121208 -1.627225
v 3.534778 -0.229233 2.387588
v 3.523300 9.733891 2.386732
v 8.331576 0.000257 0.213691
v 6.047800 0.011186 -2.342199
v -1.058834 0.007201 4.730653
v 1.049415 0.002815 7.176904
v 5.885710 0.002912 7.177460
v 8.330987 0.000515 4.432926
v 9.007253 8.797316 -0.085798
v 9.005187 8.798032 4.716577
v 6.364092 8.782930 -3.037422
v 2.376650 8.283491 -1.657980
v -0.443130 7.794186 1.522962
v -1.763854 7.759159 5.033390
v 0.678800 7.783908 7.871109
v 6.208464 8.774279 7.864298
v 9.197105 4.394499 -0.175338
v 6.467988 4.394499 -3.210170
v 2.244226 4.382575 -1.766468
v -0.581211 4.384936 1.423731
v -1.921256 4.394499 5.126957
v 0.592308 4.396274 8.047995
v 6.296530 4.392725 8.048629
v 9.196429 4.394499 4.800346
v -6.258799 7.793408 3.016482
v -9.154351 8.171038 0.024652
v -9.156882 8.179014 -4.834018
v -6.322260 8.178495 -8.015166
v -0.735249 8.177765 -8.024026
v 2.254594 8.169896 -5.164030
v -6.153075 4.372841 2.820063
v 2.066811 4.372221 -5.070329
v -0.816239 4.372496 -7.831206
v -6.217442 4.372308 -7.823039
v -8.951950 4.372102 -4.755175
v -8.947840 4.371933 -0.060411
v 6.419672 6.435308 -3.129836
v 9.108816 6.441998 -0.133699
v 9.107493 6.442331 4.761390
v 6.255576 6.430336 7.962908
v 0.632531 5.971669 7.965735
v -1.848057 5.959209 5.083443
vt 0.180972 0.506683
vt 0.130260 0.506029
vt 0.145618 0.434769
vt 0.217146 0.445501
vt 0.205782 0.399530
vt 0.160477 0.366386
vt 0.114553 0.372235
vt 0.082055 0.438644
vt 0.085515 0.493096
vt 0.116476 0.657394
vt 0.162347 0.670928
vt 0.107116 0.728719
vt 0.181281 0.741273
vt 0.153628 0.785845
vt 0.095591 0.801624
vt 0.048122 0.777471
vt 0.043003 0.701824
vt 0.069006 0.651237
vt 0.121048 0.589071
vt 0.123646 0.565647
vt 0.174760 0.569597
vt 0.172319 0.594316
vt 0.245128 0.575283
vt 0.244252 0.599934
vt 0.303728 0.576128
vt 0.303312 0.601936
vt 0.375808 0.574915
vt 0.376507 0.601516
vt 0.438122 0.571912
vt 0.440169 0.598660
vt 0.535985 0.586511
vt 0.531250 0.560527
vt 0.070217 0.583820
vt 0.074533 0.558229
vt 0.441767 0.626641
vt 0.376059 0.634749
vt 0.301418 0.633962
vt 0.241202 0.630039
vt 0.168722 0.621953
vt 0.119399 0.613718
vt 0.069781 0.608140
vt 0.538917 0.613831
vt 0.599242 0.159767
vt 0.669422 0.156317
vt 0.674073 0.236998
vt 0.602517 0.238910
vt 0.747186 0.147878
vt 0.756701 0.231047
vt 0.280666 0.223668
vt 0.301779 0.152383
vt 0.348305 0.173551
vt 0.339197 0.233993
vt 0.395186 0.169337
vt 0.391443 0.242729
vt 0.455104 0.171883
vt 0.455319 0.241449
vt 0.519766 0.166592
vt 0.521992 0.242395
vt 0.285889 0.032576
vt 0.336362 0.014495
vt 0.340543 0.097249
vt 0.278316 0.093466
vt 0.424083 0.091217
vt 0.398482 0.039420
vt 0.267311 0.436367
vt 0.220842 0.399481
vt 0.298878 0.353896
vt 0.234626 0.334433
vt 0.277274 0.280961
vt 0.332627 0.275958
vt 0.380334 0.296511
vt 0.382092 0.386956
vt 0.338331 0.431807
vt 0.386277 0.267740
vt 0.452563 0.272325
vt 0.336142 0.253508
vt 0.279088 0.250312
vt 0.675833 0.272820
vt 0.758820 0.267859
vt 0.603362 0.274569
vt 0.521161 0.275836
vt 0.444599 0.676225
vt 0.375264 0.693640
vt 0.298062 0.690716
vt 0.235798 0.683388
vt 0.601774 0.605526
vt 0.608368 0.656940
vt 0.544113 0.662243
vt 0.432913 0.503835
vt 0.519200 0.494391
vt 0.247356 0.512543
vt 0.304786 0.510443
vt 0.374027 0.507211
vt 0.677858 0.314028
vt 0.761258 0.310206
vt 0.604334 0.315589
vt 0.520206 0.314304
vt 0.449392 0.307843
vn 0.065685 -0.977609 -0.199918
vn 0.174428 -0.980506 -0.090465
vn 0.000000 -1.000000 0.000000
vn -0.074893 -0.976409 -0.202524
vn 0.065685 -0.977609 -0.199918
vn 0.000000 -1.000000 0.000000
vn -0.193883 -0.978703 -0.067449
vn -0.074893 -0.976409 -0.202524
vn 0.000000 -1.000000 0.000000
vn -0.195757 -0.978089 0.070855
vn -0.193883 -0.978703 -0.067449
vn 0.000000 -1.000000 0.000000
vn -0.043503 -0.970342 0.237790
vn -0.195757 -0.978089 0.070855
vn 0.000000 -1.000000 0.000000
vn 0.098041 -0.974147 0.203534
vn -0.043503 -0.970342 0.237790
vn 0.000000 -1.000000 0.000000
vn 0.202440 -0.976799 0.069877
vn 0.098041 -0.974147 0.203534
vn 0.000000 -1.000000 0.000000
vn 0.174428 -0.980506 -0.090465
vn 0.202440 -0.976799 0.069877
vn 0.000000 -1.000000 0.000000
vn 0.291454 0.956568 0.005615
vn 0.092115 0.955645 -0.279747
vn 0.045551 0.992420 0.114135
vn 0.045551 0.992420 0.114135
vn 0.092115 0.955645 -0.279747
vn -0.104923 0.954452 -0.279307
vn -0.104923 0.954452 -0.279307
vn -0.272887 0.957251 -0.095937
vn 0.045551 0.992420 0.114135
vn 0.045551 0.992420 0.114135
vn -0.272887 0.957251 -0.095937
vn -0.209352 0.955498 0.207837
vn -0.209352 0.955498 0.207837
vn -0.000563 0.869185 0.494486
vn 0.045551 0.992420 0.114135
vn 0.045551 0.992420 0.114135
vn -0.000563 0.869185 0.494486
vn 0.209367 0.883553 0.418926
vn 0.209367 0.883553 0.418926
vn 0.386653 0.882738 0.266971
vn 0.045551 0.992420 0.114135
vn 0.045551 0.992420 0.114135
vn 0.386653 0.882738 0.266971
vn 0.291454 0.956568 0.005615
vn 0.720989 -0.060392 -0.690310
vn 0.683855 -0.150100 -0.714011
vn 0.683855 -0.150100 -0.714011
vn 0.658084 -0.060448 -0.750514
vn 0.034191 -0.058416 -0.997707
vn -0.001413 -0.145885 -0.989301
vn -0.001413 -0.145885 -0.989301
vn -0.037837 -0.058524 -0.997569
vn -0.713670 -0.063388 -0.697608
vn -0.737469 -0.155649 -0.657201
vn -0.737469 -0.155649 -0.657201
vn -0.774430 -0.063295 -0.629486
vn -0.997348 -0.062528 -0.037234
vn -0.987987 -0.154533 0.000820
vn -0.987987 -0.154533 0.000820
vn -0.997272 -0.062587 0.039142
vn -0.752224 -0.066637 0.655529
vn -0.709062 -0.155615 0.687761
vn -0.709063 -0.155615 0.687760
vn -0.680411 -0.067448 0.729720
vn 0.216795 -0.056961 0.974554
vn 0.151159 -0.057547 0.986833
vn 0.215227 -0.093489 0.972079
vn 0.214374 -0.092159 0.972394
vn 0.995510 -0.064515 -0.069265
vn 0.989095 -0.111203 -0.096564
vn 0.989135 -0.111614 -0.095683
vn 0.983915 -0.063658 -0.166910
vn -0.752224 -0.066637 0.655529
vn -0.680411 -0.067448 0.729720
vn -0.716361 0.027130 0.697203
vn -0.716309 0.027130 0.697256
vn -0.999666 0.025845 0.000422
vn -0.997348 -0.062528 -0.037234
vn -0.997272 -0.062587 0.039142
vn -0.999666 0.025845 0.000422
vn -0.713670 -0.063388 -0.697608
vn -0.774430 -0.063295 -0.629486
vn -0.746408 0.026680 -0.664954
vn -0.746408 0.026680 -0.664954
vn -0.001573 0.024999 -0.999686
vn 0.034191 -0.058416 -0.997707
vn -0.037837 -0.058524 -0.997569
vn -0.001573 0.024999 -0.999686
vn 0.720989 -0.060392 -0.690310
vn 0.658084 -0.060448 -0.750514
vn 0.690922 0.026606 -0.722439
vn 0.690923 0.026606 -0.722439
vn 0.997805 0.001309 -0.066201
vn 0.995510 -0.064515 -0.069265
vn 0.983915 -0.063658 -0.166910
vn 0.997899 0.003145 -0.064712
vn 0.226397 -0.010548 0.973978
vn 0.226757 -0.009558 0.973904
vn 0.151159 -0.057547 0.986833
vn 0.216795 -0.056961 0.974554
vn 0.758639 -0.259095 -0.597776
vn 0.674696 -0.255761 -0.692367
vn 0.691680 -0.077683 -0.718014
vn 0.785747 -0.077237 -0.613707
vn -0.172157 -0.064636 -0.982947
vn -0.178886 -0.225930 -0.957578
vn -0.278266 -0.230965 -0.932321
vn -0.286749 -0.063010 -0.955931
vn -0.954551 -0.070984 -0.289472
vn -0.931639 -0.229802 -0.281496
vn -0.956517 -0.225137 -0.185443
vn -0.981269 -0.073602 -0.178026
vn -0.775135 -0.259508 0.576040
vn -0.686317 -0.260907 0.678894
vn -0.703943 -0.090998 0.704403
vn -0.801155 -0.090646 0.591552
vn -0.046643 -0.080111 0.995694
vn -0.041597 -0.252133 0.966798
vn 0.041531 -0.252366 0.966740
vn 0.049667 -0.079037 0.995634
vn 0.686109 -0.255097 0.681307
vn 0.754554 -0.256137 0.604187
vn 0.781040 -0.075743 0.619870
vn 0.703777 -0.076026 0.706342
vn 0.996172 -0.073251 0.047706
vn 0.967060 -0.251143 0.041500
vn 0.967086 -0.251122 -0.041014
vn 0.996180 -0.073245 -0.047547
vn 0.037238 -0.988779 -0.144669
vn 0.114157 -0.992730 -0.038151
vn 0.000000 -1.000000 0.000000
vn -0.072990 -0.989872 -0.121764
vn 0.037238 -0.988779 -0.144669
vn 0.000000 -1.000000 0.000000
vn -0.120601 -0.990494 -0.066164
vn -0.072990 -0.989872 -0.121764
vn 0.000000 -1.000000 0.000000
vn -0.138832 -0.989901 0.028647
vn -0.120601 -0.990494 -0.066164
vn 0.000000 -1.000000 0.000000
vn -0.042157 -0.991652 0.121855
vn -0.138832 -0.989901 0.028647
vn 0.000000 -1.000000 0.000000
vn 0.044437 -0.991861 0.119321
vn -0.042157 -0.991652 0.121855
vn 0.000000 -1.000000 0.000000
vn 0.113364 -0.992768 0.039489
vn 0.044437 -0.991861 0.119321
vn 0.000000 -1.000000 0.000000
vn 0.114157 -0.992730 -0.038151
vn 0.113364 -0.992768 0.039489
vn 0.000000 -1.000000 0.000000
vn 0.206468 0.975893 -0.070733
vn 0.065553 0.970787 -0.230815
vn -0.099382 0.994428 0.035170
vn -0.099382 0.994428 0.035170
vn 0.065553 0.970787 -0.230815
vn -0.226846 0.954875 -0.191716
vn -0.226846 0.954875 -0.191716
vn -0.440187 0.889704 -0.121085
vn -0.099382 0.994428 0.035170
vn -0.099382 0.994428 0.035170
vn -0.440187 0.889704 -0.121085
vn -0.368497 0.924337 0.099054
vn -0.368497 0.924337 0.099054
vn -0.223194 0.928009 0.298301
vn -0.099382 0.994428 0.035170
vn -0.099382 0.994428 0.035170
vn -0.223194 0.928009 0.298301
vn -0.021795 0.968469 0.248179
vn -0.021795 0.968469 0.248179
vn 0.206431 0.975740 0.072921
vn -0.099382 0.994428 0.035170
vn -0.099382 0.994428 0.035170
vn 0.206431 0.975740 0.072921
vn 0.206468 0.975893 -0.070733
vn -0.003412 0.046442 0.998915
vn -0.046643 -0.080111 0.995694
vn 0.049667 -0.079037 0.995634
vn -0.003598 0.046442 0.998915
vn -0.801155 -0.090646 0.591552
vn -0.703943 -0.090998 0.704403
vn -0.756984 0.053427 0.651245
vn -0.756984 0.053427 0.651245
vn -0.929879 0.041379 -0.365530
vn -0.954551 -0.070984 -0.289472
vn -0.981269 -0.073602 -0.178026
vn -0.929860 0.043114 -0.365379
vn -0.341174 0.032641 -0.939433
vn -0.172157 -0.064636 -0.982947
vn -0.286749 -0.063010 -0.955931
vn -0.341145 0.035586 -0.939337
vn 0.785747 -0.077237 -0.613707
vn 0.691680 -0.077683 -0.718014
vn 0.743452 0.044750 -0.667291
vn 0.743452 0.044750 -0.667290
vn 0.999065 0.043234 0.000276
vn 0.996172 -0.073251 0.047706
vn 0.996180 -0.073245 -0.047547
vn 0.999065 0.043234 0.000276
vn 0.703777 -0.076026 0.706342
vn 0.781040 -0.075743 0.619870
vn 0.745942 0.043997 0.664556
vn 0.745940 0.043997 0.664559
vn -0.716309 0.027130 0.697256
vn -0.716361 0.027130 0.697203
vn -0.679170 0.070834 0.730555
vn -0.734773 0.109598 0.669401
vn -0.996051 0.082161 -0.033640
vn -0.999666 0.025845 0.000422
vn -0.999666 0.025845 0.000422
vn -0.996027 0.082752 0.032887
vn -0.746408 0.026680 -0.664954
vn -0.746408 0.026680 -0.664954
vn -0.770379 0.086773 -0.631654
vn -0.715728 0.085679 -0.693104
vn 0.030764 0.079593 -0.996353
vn -0.001573 0.024999 -0.999686
vn -0.001573 0.024999 -0.999686
vn -0.033925 0.079422 -0.996264
vn 0.690923 0.026606 -0.722439
vn 0.690922 0.026606 -0.722439
vn 0.660055 0.086191 -0.746256
vn 0.715007 0.085955 -0.693814
vn 0.995268 0.071866 -0.065394
vn 0.997805 0.001309 -0.066201
vn 0.997899 0.003145 -0.064712
vn 0.983484 0.112590 -0.141712
vn 0.748647 -0.129170 0.650264
vn 0.748647 -0.129170 0.650264
vn 0.775639 0.089693 0.624771
vn 0.722529 0.098202 0.684331
vn 0.153495 0.083919 0.984580
vn 0.226757 -0.009558 0.973904
vn 0.226397 -0.010548 0.973978
vn 0.212796 0.086873 0.973227
vn 0.214374 -0.092159 0.972394
vn 0.215227 -0.093489 0.972079
vn 0.153191 -0.178511 0.971940
vn 0.211807 -0.183269 0.959974
vn 0.989135 -0.111614 -0.095683
vn 0.989095 -0.111203 -0.096564
vn 0.977721 -0.198780 -0.067446
vn 0.966534 -0.200364 -0.160209
vn 0.683855 -0.150100 -0.714011
vn 0.683855 -0.150100 -0.714011
vn 0.706449 -0.200016 -0.678914
vn 0.647438 -0.199207 -0.735622
vn -0.001413 -0.145885 -0.989301
vn -0.001413 -0.145885 -0.989301
vn 0.031652 -0.195709 -0.980151
vn -0.034476 -0.194575 -0.980282
vn -0.737469 -0.155649 -0.657201
vn -0.737469 -0.155649 -0.657201
vn -0.701228 -0.203905 -0.683156
vn -0.758288 -0.205077 -0.618824
vn -0.987987 -0.154533 0.000820
vn -0.987987 -0.154533 0.000820
vn -0.978330 -0.204142 -0.034601
vn -0.978362 -0.203680 0.036354
vn -0.709063 -0.155615 0.687760
vn -0.709062 -0.155615 0.687761
vn -0.735315 -0.204745 0.646058
vn -0.666852 -0.202445 0.717164
vn -0.182923 0.094659 -0.978560
vn -0.341174 0.032641 -0.939433
vn -0.341145 0.035586 -0.939337
vn -0.278983 0.108916 -0.954100
vn 0.743452 0.044750 -0.667290
vn 0.743452 0.044750 -0.667291
vn 0.696357 0.116405 -0.708193
vn 0.777971 0.118092 -0.617102
vn 0.993136 0.109494 0.041145
vn 0.999065 0.043234 0.000276
vn 0.999065 0.043234 0.000276
vn 0.993195 0.109072 -0.040841
vn 0.745940 0.043997 0.664559
vn 0.745942 0.043997 0.664556
vn 0.773930 0.113875 0.622949
vn 0.708969 0.113381 0.696065
vn -0.048376 0.108784 0.992888
vn -0.003412 0.046442 0.998915
vn -0.003598 0.046442 0.998915
vn 0.030221 0.131935 0.990798
vn -0.756984 0.053427 0.651245
vn -0.756984 0.053427 0.651245
vn -0.707304 0.131926 0.694490
vn -0.789617 0.137740 0.597940
vn -0.950984 0.121489 -0.284377
vn -0.929879 0.041379 -0.365530
vn -0.929860 0.043114 -0.365379
vn -0.975120 0.109716 -0.192624
s off
g MediumBeachRock02COL:pCylinder3
usemtl lambert2SG
f 4/1/1 3/2/2 1/3/3
f 5/4/4 4/1/5 1/3/6
f 6/5/7 5/4/8 1/3/9
f 7/6/10 6/5/11 1/3/12
f 8/7/13 7/6/14 1/3/15
f 9/8/16 8/7/17 1/3/18
f 10/9/19 9/8/20 1/3/21
f 3/2/22 10/9/23 1/3/24
f 11/10/25 13/11/26 2/12/27
f 2/12/28 13/11/29 14/13/30
f 14/13/31 15/14/32 2/12/33
f 2/12/34 15/14/35 16/15/36
f 16/15/37 17/16/38 2/12/39
f 2/12/40 17/16/41 18/17/42
f 18/17/43 12/18/44 2/12/45
f 2/12/46 12/18/47 11/10/48
f 20/19/49 58/20/50 59/21/51 19/22/52
f 19/22/53 59/21/54 60/23/55 21/24/56
f 21/24/57 60/23/58 61/25/59 22/26/60
f 22/26/61 61/25/62 62/27/63 23/28/64
f 23/28/65 62/27/66 57/29/67 24/30/68
f 25/31/69 24/30/70 57/29/71 46/32/72
f 26/33/73 45/34/74 58/20/75 20/19/76
f 23/28/77 24/30/78 51/35/79 52/36/80
f 53/37/81 22/26/82 23/28/83 52/36/84
f 21/24/85 22/26/86 53/37/87 54/38/88
f 55/39/89 19/22/90 21/24/91 54/38/92
f 20/19/93 19/22/94 55/39/95 56/40/96
f 38/41/97 26/33/98 20/19/99 56/40/100
f 39/42/101 51/35/102 24/30/103 25/31/104
f 29/43/105 30/44/106 44/45/107 43/46/108
f 44/45/109 30/44/110 10/47/111 45/48/112
f 46/49/113 9/50/114 31/51/115 47/52/116
f 31/51/117 32/53/118 48/54/119 47/52/120
f 48/54/121 32/53/122 33/55/123 49/56/124
f 33/55/125 34/57/126 50/58/127 49/56/128
f 50/58/129 34/57/130 29/43/131 43/46/132
f 30/59/133 29/60/134 27/61/135
f 10/62/136 30/59/137 27/61/138
f 9/50/139 10/62/140 27/61/141
f 31/51/142 9/50/143 27/61/144
f 32/53/145 31/51/146 27/61/147
f 33/63/148 32/53/149 27/61/150
f 34/64/151 33/63/152 27/61/153
f 29/60/154 34/64/155 27/61/156
f 35/65/157 37/66/158 28/67/159
f 28/67/160 37/66/161 38/68/162
f 38/68/163 39/69/164 28/67/165
f 28/67/166 39/69/167 40/70/168
f 40/70/169 41/71/170 28/67/171
f 28/67/172 41/71/173 42/72/174
f 42/72/175 36/73/176 28/67/177
f 28/67/178 36/73/179 35/65/180
f 67/74/181 48/54/182 49/56/183 66/75/184
f 47/52/185 48/54/186 67/74/187 68/76/188
f 25/77/189 46/49/190 47/52/191 68/76/192
f 63/78/193 44/45/194 45/48/195 26/79/196
f 43/46/197 44/45/198 63/78/199 64/80/200
f 65/81/201 50/58/202 43/46/203 64/80/204
f 49/56/205 50/58/206 65/81/207 66/75/208
f 52/36/209 51/35/210 17/82/211 16/83/212
f 15/84/213 53/37/214 52/36/215 16/83/216
f 54/38/217 53/37/218 15/84/219 14/85/220
f 13/11/221 55/39/222 54/38/223 14/85/224
f 56/40/225 55/39/226 13/11/227 11/10/228
f 12/18/229 38/41/230 56/40/231 11/10/232
f 39/42/233 38/86/234 12/87/235 18/88/236
f 17/82/237 51/35/238 39/42/239 18/88/240
f 46/32/241 57/29/242 8/89/243 9/90/244
f 58/20/245 45/34/246 10/9/247 3/2/248
f 59/21/249 58/20/250 3/2/251 4/1/252
f 60/23/253 59/21/254 4/1/255 5/91/256
f 61/25/257 60/23/258 5/91/259 6/92/260
f 62/27/261 61/25/262 6/92/263 7/93/264
f 57/29/265 62/27/266 7/93/267 8/89/268
f 37/94/269 63/78/270 26/79/271 38/95/272
f 64/80/273 63/78/274 37/94/275 35/96/276
f 36/97/277 65/81/278 64/80/279 35/96/280
f 66/75/281 65/81/282 36/97/283 42/98/284
f 41/71/285 67/74/286 66/75/287 42/98/288
f 68/76/289 67/74/290 41/71/291 40/70/292
f 39/69/293 25/77/294 68/76/295 40/70/296
