####
#
# OBJ File Generated by Meshlab
#
####
# Object SmallRock01COL.obj
#
# Vertices: 52
# Faces: 100
#
####
vn -0.822492 0.953690 5.213936
v -0.657991 0.684896 2.877137 0.752941 0.752941 0.752941
vn 1.592941 2.012183 4.521775
v 0.038854 0.947555 2.761777 0.752941 0.752941 0.752941
vn -0.091041 -2.680381 4.891109
v -0.447903 -0.942265 2.583328 0.752941 0.752941 0.752941
vn -1.934597 3.505946 4.164936
v -1.363635 1.516018 2.157665 0.752941 0.752941 0.752941
vn 2.778011 -0.729206 4.298589
v 0.880690 -0.343955 2.502525 0.752941 0.752941 0.752941
vn -3.876713 2.099634 3.888940
v -2.039594 1.151729 1.896702 0.752941 0.752941 0.752941
vn -3.289581 -0.417181 4.719056
v -1.619617 0.153211 2.456582 0.752941 0.752941 0.752941
vn -4.071777 -2.766909 3.619021
v -1.757268 -1.046680 1.771845 0.752941 0.752941 0.752941
vn 2.095998 4.086786 2.794330
v 0.383266 2.240779 1.454595 0.752941 0.752941 0.752941
vn -5.095262 0.253001 1.840279
v -2.763043 0.418770 1.162499 0.752941 0.752941 0.752941
vn -3.089326 4.529868 2.689232
v -1.909360 1.995451 1.054579 0.752941 0.752941 0.752941
vn 0.171610 5.129659 2.423733
v -0.430639 2.625470 1.006794 0.752941 0.752941 0.752941
vn -4.777295 2.731947 1.515978
v -2.433207 1.503360 1.038108 0.752941 0.752941 0.752941
vn 4.172019 -0.829463 2.321333
v 2.132072 -0.552078 1.218112 0.752941 0.752941 0.752941
vn 5.038401 2.363176 1.985450
v 1.797759 0.885186 0.778104 0.752941 0.752941 0.752941
vn -0.745212 4.760107 -0.114075
v -0.844526 3.019647 -0.070884 0.752941 0.752941 0.752941
vn -3.975958 3.800976 0.005122
v -2.012492 2.277549 0.236952 0.752941 0.752941 0.752941
vn 4.127268 3.467669 1.216526
v 1.334579 1.961715 0.485221 0.752941 0.752941 0.752941
vn -4.236831 -3.063756 1.134312
v -2.571603 -1.342655 0.466586 0.752941 0.752941 0.752941
vn -5.818995 1.918086 -0.936294
v -2.531771 1.113018 0.326184 0.752941 0.752941 0.752941
vn 4.509348 -1.704791 0.334499
v 2.345022 -0.725966 0.287372 0.752941 0.752941 0.752941
vn -5.575454 -0.934230 -0.291781
v -2.854606 -0.646404 0.101536 0.752941 0.752941 0.752941
vn 5.102225 -2.429542 -1.791077
v 1.862798 -0.784182 -1.398669 0.752941 0.752941 0.752941
vn 3.390819 4.323567 -0.469776
v 1.024964 2.421799 -0.807096 0.752941 0.752941 0.752941
vn 5.357747 1.009212 -1.210289
v 2.197536 0.303453 -1.017186 0.752941 0.752941 0.752941
vn -3.596419 4.167904 -2.365400
v -1.639417 2.349456 -0.495390 0.752941 0.752941 0.752941
vn -5.113178 2.568898 -2.360984
v -2.015126 1.312042 -1.124416 0.752941 0.752941 0.752941
vn 0.744639 5.102239 -1.577144
v 0.200011 2.750637 -0.972532 0.752941 0.752941 0.752941
vn -4.922391 -0.025640 -2.506963
v -2.546707 -0.246364 -1.306504 0.752941 0.752941 0.752941
vn -3.015148 2.329657 -3.968720
v -1.440273 1.304172 -2.116890 0.752941 0.752941 0.752941
vn -3.022089 -3.971271 -1.713578
v -1.915054 -1.746294 -1.236431 0.752941 0.752941 0.752941
vn -1.473607 3.494164 -4.467533
v -0.751604 1.651884 -2.160840 0.752941 0.752941 0.752941
vn -3.499875 -1.593315 -4.184513
v -1.724076 -0.967966 -2.114381 0.752941 0.752941 0.752941
vn 4.121693 2.554152 -2.458509
v 1.479533 1.568567 -1.708539 0.752941 0.752941 0.752941
vn 2.418374 3.569025 -3.847749
v 0.840222 1.891703 -1.988352 0.752941 0.752941 0.752941
vn 1.658016 -0.054398 -5.061011
v 0.887743 -0.292939 -2.844987 0.752941 0.752941 0.752941
vn -1.420181 0.388862 -5.571664
v -0.563958 -0.134182 -2.822905 0.752941 0.752941 0.752941
vn 1.118486 -4.040420 -3.774382
v 0.440754 -1.303765 -2.465841 0.752941 0.752941 0.752941
vn 3.532643 -0.917921 -3.828665
v 1.355111 -0.491092 -2.552299 0.752941 0.752941 0.752941
vn 0.471720 3.225573 -4.563680
v 0.345712 1.813683 -2.244746 0.752941 0.752941 0.752941
vn -0.982303 -2.364843 -5.073447
v -0.507653 -1.095466 -2.679856 0.752941 0.752941 0.752941
vn 2.309626 -4.711987 1.955574
v 1.320677 -1.251377 1.326949 0.752941 0.752941 0.752941
vn 2.684698 -4.215631 -2.225740
v 1.222779 -1.407334 -1.880574 0.752941 0.752941 0.752941
vn 2.553690 -5.393873 0.118810
v 1.507129 -1.340852 -0.191471 0.752941 0.752941 0.752941
vn 1.182803 -4.602896 2.925306
v 0.150676 -1.261407 2.172468 0.752941 0.752941 0.752941
vn -0.384428 -4.547144 -2.482375
v -0.783355 -1.673911 -2.129077 0.752941 0.752941 0.752941
vn 2.593254 -4.990673 -0.522317
v 1.267362 -1.501713 -1.413641 0.752941 0.752941 0.752941
vn -1.735778 -3.256369 3.831484
v -1.127076 -1.110929 2.338311 0.752941 0.752941 0.752941
vn -1.561939 -4.991740 1.960162
v -1.738183 -1.597565 1.139517 0.752941 0.752941 0.752941
vn -2.189390 -5.152058 0.182353
v -2.098759 -1.755036 -0.102934 0.752941 0.752941 0.752941
vn -0.329122 -5.829369 -0.861641
v -1.324625 -1.858435 -1.362959 0.752941 0.752941 0.752941
vn 0.707783 -6.200836 0.720225
v -0.296631 -1.453771 1.045306 0.752941 0.752941 0.752941
# 52 vertices, 0 vertices normals

f 2//2 1//1 5//5
f 5//5 1//1 3//3
f 2//2 4//4 1//1
f 7//7 3//3 1//1
f 3//3 7//7 48//48
f 45//45 5//5 3//3
f 4//4 6//6 1//1
f 1//1 6//6 7//7
f 3//3 48//48 45//45
f 7//7 8//8 48//48
f 45//45 42//42 5//5
f 4//4 2//2 9//9
f 7//7 6//6 10//10
f 4//4 11//11 6//6
f 8//8 49//49 48//48
f 9//9 2//2 15//15
f 8//8 7//7 10//10
f 5//5 42//42 14//14
f 10//10 6//6 13//13
f 2//2 5//5 15//15
f 49//49 8//8 19//19
f 4//4 9//9 12//12
f 6//6 11//11 13//13
f 11//11 4//4 12//12
f 5//5 14//14 15//15
f 14//14 42//42 21//21
f 15//15 14//14 21//21
f 19//19 8//8 10//10
f 13//13 20//20 10//10
f 9//9 15//15 18//18
f 11//11 12//12 16//16
f 25//25 15//15 21//21
f 12//12 9//9 18//18
f 13//13 11//11 17//17
f 22//22 19//19 10//10
f 50//50 49//49 19//19
f 17//17 11//11 16//16
f 20//20 13//13 17//17
f 20//20 22//22 10//10
f 26//26 17//17 16//16
f 12//12 18//18 24//24
f 44//44 23//23 21//21
f 19//19 22//22 31//31
f 19//19 31//31 50//50
f 20//20 29//29 22//22
f 24//24 28//28 12//12
f 15//15 24//24 18//18
f 23//23 25//25 21//21
f 12//12 28//28 16//16
f 15//15 34//34 24//24
f 29//29 31//31 22//22
f 32//32 26//26 16//16
f 17//17 27//27 20//20
f 35//35 28//28 24//24
f 17//17 26//26 27//27
f 32//32 16//16 28//28
f 25//25 34//34 15//15
f 27//27 29//29 20//20
f 27//27 30//30 29//29
f 23//23 47//47 43//43
f 26//26 30//30 27//27
f 35//35 40//40 28//28
f 32//32 30//30 26//26
f 34//34 35//35 24//24
f 40//40 32//32 28//28
f 39//39 25//25 23//23
f 39//39 34//34 25//25
f 51//51 31//31 46//46
f 33//33 31//31 29//29
f 29//29 30//30 33//33
f 43//43 39//39 23//23
f 31//31 33//33 46//46
f 38//38 39//39 43//43
f 39//39 35//35 34//34
f 32//32 40//40 37//37
f 33//33 41//41 46//46
f 46//46 41//41 38//38
f 30//30 32//32 37//37
f 35//35 39//39 36//36
f 33//33 30//30 37//37
f 41//41 33//33 37//37
f 40//40 36//36 37//37
f 40//40 35//35 36//36
f 39//39 38//38 36//36
f 38//38 41//41 36//36
f 36//36 41//41 37//37
f 51//51 46//46 38//38
f 47//47 23//23 44//44
f 44//44 21//21 42//42
f 38//38 43//43 51//51
f 51//51 43//43 47//47
f 47//47 44//44 51//51
f 45//45 48//48 49//49
f 50//50 31//31 51//51
f 49//49 50//50 51//51
f 49//49 51//51 52//52
f 45//45 49//49 52//52
f 52//52 51//51 44//44
f 52//52 44//44 42//42
f 45//45 52//52 42//42
# 100 faces, 0 coords texture

# End of File
