# This file uses centimeters as units for non-parametric coordinates.

mtllib PancakesTallRUpperLeg.mtl
g default
v 1.847681 -0.482867 -0.020620
v 1.847680 -0.325396 0.079380
v 1.847680 -0.109625 0.079380
v 1.847680 0.164466 0.079380
v 1.467681 -0.447489 -0.020622
v 1.467681 -0.309761 0.079378
v 1.467679 -0.109626 0.079378
v 1.467681 0.179929 0.079378
v 1.087681 -0.478406 0.029376
v 1.087680 -0.321155 0.129375
v 1.087680 -0.109626 0.129375
v 1.087680 0.137929 0.129375
v 0.707680 -0.559320 0.049373
v 0.707680 -0.370784 0.149373
v 0.707680 -0.112340 0.149373
v 0.707679 0.094502 0.149373
v 0.327681 -0.495815 0.029371
v 0.327680 -0.333078 0.129371
v 0.327680 -0.109625 0.129371
v 0.327680 0.134961 0.129371
v -0.052319 -0.484277 -0.020630
v -0.052319 -0.326369 0.079369
v -0.052319 -0.109626 0.079369
v -0.052319 0.152221 0.079369
v -0.432319 -0.500476 -0.020632
v -0.432320 -0.333846 0.079366
v -0.432320 -0.109625 0.079367
v -0.432321 0.138397 0.079367
v -0.812320 -0.499584 0.029365
v -0.812321 -0.333667 0.129365
v -0.812319 -0.109625 0.129365
v -0.812321 0.136254 0.129365
v -1.192319 -0.496279 0.029362
v -1.192319 -0.334983 0.129363
v -1.192320 -0.109626 0.129363
v -1.192320 0.153592 0.129363
v -1.623428 -0.409159 -0.020641
v -1.707348 -0.307756 -0.020640
v -1.617329 -0.109626 -0.020641
v -1.572319 0.179823 -0.020639
v 1.847682 0.409372 -0.020620
v 1.467681 0.446663 -0.020622
v 1.087681 0.344998 0.029376
v 0.707680 0.236081 0.049373
v 0.327681 0.318111 0.029371
v -0.052318 0.367892 -0.020631
v -0.432319 0.339842 -0.020633
v -0.812320 0.331231 0.029365
v -1.192319 0.374614 0.029362
v -1.471728 0.407748 -0.020638
v 1.847680 -0.442718 0.079380
v 1.467680 -0.407340 0.079378
v 1.087681 -0.438258 0.129375
v 0.707679 -0.519172 0.149373
v 0.327680 -0.455666 0.129371
v -0.052319 -0.444128 0.079369
v -0.432320 -0.460327 0.079366
v -0.812320 -0.459436 0.129365
v -1.192320 -0.456130 0.129363
v -1.684261 -0.362956 -0.020642
v 1.847680 0.374908 0.079380
v 1.467680 0.412198 0.079378
v 1.087680 0.310535 0.129375
v 0.707680 0.201617 0.149373
v 0.327680 0.283647 0.129371
v -0.052319 0.333428 0.079369
v -0.432320 0.305377 0.079367
v -0.812320 0.296766 0.129365
v -1.192319 0.340149 0.129363
v -1.525524 0.379640 -0.020639
v -1.479587 0.374195 0.079360
v -1.526172 0.176639 0.079360
v -1.571073 -0.109626 0.079360
v -1.661157 -0.310199 0.079359
v -1.638812 -0.371565 0.079359
v 1.847681 -0.325396 -0.020620
v 1.847681 -0.109625 -0.020620
v 1.847681 0.164466 -0.020620
v 1.467682 -0.309761 -0.020622
v 1.467680 -0.109626 -0.020622
v 1.467682 0.179929 -0.020622
v 1.087680 -0.321155 0.029376
v 1.087680 -0.109626 0.029376
v 1.087680 0.137929 0.029376
v 0.707681 -0.370784 0.049373
v 0.707681 -0.112340 0.049373
v 0.707680 0.094502 0.049373
v 0.327681 -0.333078 0.029371
v 0.327681 -0.109625 0.029371
v 0.327681 0.134961 0.029371
v -0.052318 -0.326369 -0.020631
v -0.052318 -0.109626 -0.020631
v -0.052319 0.152221 -0.020631
v -0.432319 -0.333846 -0.020632
v -0.432319 -0.109625 -0.020634
v -0.432320 0.138397 -0.020633
v -0.812321 -0.333667 0.029365
v -0.812319 -0.109625 0.029365
v -0.812321 0.136254 0.029365
v -1.192319 -0.334983 0.029362
v -1.192320 -0.109626 0.029362
v -1.192320 0.153592 0.029362
v 2.082219 -0.422132 0.060243
v 2.081541 -0.305171 0.060153
v 2.080408 -0.109626 0.060004
v 2.078843 0.160225 0.059798
v 2.077580 0.378217 0.059632
vt 0.110389 0.729499
vt 0.107462 0.729500
vt 0.134927 0.729498
vt 0.119028 0.729498
vt 0.155120 0.729498
vt 0.170616 0.729497
vt 0.112993 0.757498
vt 0.109988 0.757499
vt 0.134927 0.757498
vt 0.120180 0.757498
vt 0.156259 0.757497
vt 0.173360 0.757496
vt 0.110726 0.785499
vt 0.107698 0.785490
vt 0.134927 0.785498
vt 0.119343 0.785498
vt 0.153168 0.785498
vt 0.165875 0.785496
vt 0.104772 0.813499
vt 0.101834 0.813499
vt 0.134728 0.813498
vt 0.115688 0.813498
vt 0.149968 0.813498
vt 0.157858 0.813498
vt 0.109438 0.841498
vt 0.106420 0.841505
vt 0.134927 0.841498
vt 0.118463 0.841498
vt 0.152949 0.841498
vt 0.163897 0.841497
vt 0.110285 0.869498
vt 0.107219 0.869499
vt 0.134927 0.869498
vt 0.118957 0.869498
vt 0.154218 0.869498
vt 0.167561 0.869497
vt 0.109092 0.897498
vt 0.106239 0.897501
vt 0.134927 0.897498
vt 0.118406 0.897498
vt 0.153202 0.897498
vt 0.165496 0.897497
vt 0.109158 0.925498
vt 0.106270 0.925499
vt 0.134927 0.925498
vt 0.118419 0.925498
vt 0.153044 0.925498
vt 0.164863 0.925497
vt 0.109401 0.953498
vt 0.106511 0.953497
vt 0.134927 0.953498
vt 0.118322 0.953498
vt 0.154318 0.953497
vt 0.168055 0.953496
vt 0.115626 0.986394
vt 0.112946 0.985289
vt 0.134927 0.981404
vt 0.120148 0.988041
vt 0.156017 0.978096
vt 0.170556 0.974662
vt 0.173266 0.729486
vt 0.175859 0.757490
vt 0.168319 0.785470
vt 0.160403 0.813500
vt 0.166336 0.841514
vt 0.170070 0.869499
vt 0.168162 0.897502
vt 0.167464 0.925496
vt 0.170581 0.953512
vt 0.172923 0.974150
vt 0.170956 0.978046
vt 0.156229 0.981385
vt 0.134939 0.984857
vt 0.120316 0.991398
vt 0.116259 0.989742
vt 0.119028 0.729498
vt 0.134927 0.729498
vt 0.155120 0.729498
vt 0.173127 0.729497
vt 0.120180 0.757498
vt 0.134927 0.757498
vt 0.156259 0.757497
vt 0.175873 0.757494
vt 0.119343 0.785498
vt 0.134927 0.785498
vt 0.153168 0.785498
vt 0.168381 0.785488
vt 0.115688 0.813498
vt 0.134728 0.813498
vt 0.149968 0.813498
vt 0.160393 0.813498
vt 0.118463 0.841498
vt 0.134927 0.841498
vt 0.152949 0.841498
vt 0.166387 0.841505
vt 0.118957 0.869498
vt 0.134927 0.869498
vt 0.154218 0.869498
vt 0.170062 0.869498
vt 0.118406 0.897498
vt 0.134927 0.897498
vt 0.153202 0.897498
vt 0.168012 0.897496
vt 0.118419 0.925498
vt 0.134927 0.925498
vt 0.153044 0.925498
vt 0.167382 0.925498
vt 0.118322 0.953498
vt 0.134927 0.953498
vt 0.154318 0.953497
vt 0.170542 0.953503
vt 0.120328 0.991426
vt 0.134927 0.984804
vt 0.156236 0.981469
vt 0.172937 0.974101
vt 0.107464 0.729499
vt 0.110051 0.757499
vt 0.107781 0.785501
vt 0.101841 0.813499
vt 0.106497 0.841499
vt 0.107348 0.869499
vt 0.106172 0.897499
vt 0.106237 0.925499
vt 0.106506 0.953493
vt 0.112943 0.985254
vt 0.170956 0.978046
vt 0.116259 0.989742
vt 0.110444 0.712207
vt 0.111894 0.712216
vt 0.120518 0.712266
vt 0.134927 0.712349
vt 0.154807 0.712465
vt 0.170878 0.712555
vt 0.172097 0.712566
vt 0.120518 0.712266
vt 0.134927 0.712349
vt 0.154807 0.712465
vn -0.048395 -0.926913 0.372143
vn -0.001216 -0.510928 0.859623
vn 0.053870 -0.550144 0.833331
vn 0.014775 -0.927899 0.372539
vn 0.031669 0.000227 0.999498
vn 0.031164 0.000227 0.999514
vn 0.064598 0.000000 0.997911
vn 0.065331 0.000000 0.997864
vn 0.031214 0.000235 0.999513
vn 0.063262 0.000000 0.997997
vn 0.049436 0.294862 0.954260
vn 0.014301 0.430550 0.902453
vn 0.147562 -0.498565 0.854200
vn 0.167594 -0.914875 0.367309
vn 0.092220 0.000000 0.995739
vn 0.088032 0.000002 0.996118
vn 0.097059 -0.000002 0.995279
vn -0.024783 0.423719 0.905455
vn 0.012045 -0.537949 0.842892
vn 0.020203 -0.927811 0.372504
vn -0.000261 -0.000000 1.000000
vn -0.000765 0.000000 1.000000
vn 0.000939 0.000000 1.000000
vn -0.012439 0.441678 0.897088
vn -0.125170 -0.483002 0.866627
vn -0.123555 -0.920889 0.369728
vn -0.092001 -0.000000 0.995759
vn -0.089352 0.000001 0.996000
vn -0.095461 -0.000000 0.995433
vn -0.000966 0.483083 0.875574
vn -0.053320 -0.528060 0.847532
vn -0.016411 -0.927874 0.372533
vn -0.065508 -0.000001 0.997852
vn -0.065420 0.000001 0.997858
vn -0.064759 -0.000000 0.997901
vn -0.040372 0.476891 0.878035
vn 0.067444 -0.535100 0.842093
vn 0.043032 -0.927140 0.372237
vn 0.065343 -0.000003 0.997863
vn 0.066479 -0.000000 0.997788
vn 0.064049 -0.000001 0.997947
vn 0.035402 0.445798 0.894433
vn 0.053775 -0.507184 0.860158
vn 0.020437 -0.927806 0.372502
vn 0.065081 -0.000001 0.997880
vn 0.065821 -0.000002 0.997832
vn 0.064131 -0.000001 0.997941
vn 0.076310 0.411820 0.908065
vn -0.103516 -0.577216 0.810004
vn -0.123197 -0.926232 0.356255
vn -0.065579 0.009074 0.997806
vn -0.057080 0.006082 0.998351
vn -0.072880 0.007081 0.997316
vn -0.027393 0.402465 0.915025
vn -0.248159 -0.512191 0.822239
vn -0.239950 -0.911933 0.332870
vn -0.309217 0.069580 0.948443
vn -0.331046 0.072042 0.940861
vn -0.369741 0.059050 0.927256
vn -0.292353 0.388374 0.873897
vn 0.090401 -0.106042 0.990244
vn 0.082141 0.000592 0.996621
vn 0.083913 0.064898 0.994358
vn 0.077936 0.942551 0.324845
vn -0.049602 0.944263 0.325434
vn -0.223793 0.921448 0.317568
vn -0.034749 0.944856 0.325637
vn 0.128198 0.937625 0.323149
vn 0.001994 0.945425 0.325835
vn -0.026494 0.945094 0.325722
vn 0.063332 0.943528 0.325184
vn 0.083041 0.942466 0.323823
vn 0.010232 0.947164 0.320588
vn -0.867712 0.277501 0.412393
vn -0.893360 0.167150 0.417096
vn -0.877088 0.252383 0.408681
vn -0.883094 0.233513 0.406961
vn -0.813318 -0.472789 0.339094
vn 0.127120 0.000207 -0.991887
vn -0.065393 -0.000000 -0.997860
vn -0.064599 -0.000000 -0.997911
vn 0.128469 0.000225 -0.991714
vn -0.063523 0.000001 -0.997980
vn 0.125088 0.000220 -0.992146
vn -0.059352 0.000003 -0.998237
vn 0.111498 0.000194 -0.993765
vn -0.088613 0.000001 -0.996066
vn -0.092220 0.000000 -0.995739
vn -0.096442 0.000000 -0.995339
vn -0.104014 0.000000 -0.994576
vn 0.000634 0.000002 -1.000000
vn 0.000261 -0.000001 -1.000000
vn -0.000852 -0.000002 -1.000000
vn -0.002824 -0.000002 -0.999996
vn 0.089728 -0.000002 -0.995966
vn 0.092001 0.000001 -0.995759
vn 0.094994 -0.000001 -0.995478
vn 0.099962 -0.000004 -0.994991
vn 0.065449 -0.000003 -0.997856
vn 0.065509 0.000002 -0.997852
vn 0.064843 0.000001 -0.997896
vn 0.062955 -0.000004 -0.998016
vn -0.066349 -0.000005 -0.997797
vn -0.065342 0.000001 -0.997863
vn -0.064235 0.000004 -0.997935
vn -0.062012 0.000000 -0.998075
vn -0.065807 -0.000003 -0.997832
vn -0.065081 0.000001 -0.997880
vn -0.064307 0.000003 -0.997930
vn -0.062249 0.000003 -0.998061
vn 0.055537 -0.000024 -0.998457
vn 0.061860 -0.008556 -0.998048
vn 0.068969 -0.009811 -0.997571
vn 0.077822 -0.017435 -0.996815
vn 0.106148 -0.005588 -0.994335
vn 0.113016 -0.016892 -0.993450
vn 0.130607 -0.017632 -0.991277
vn 0.143787 -0.032217 -0.989084
vn 0.116640 0.000178 -0.993174
vn 0.326597 0.000536 -0.945164
vn 0.326128 0.000498 -0.945325
vn -0.065374 -0.000000 -0.997861
vn -0.085204 0.000004 -0.996364
vn 0.001260 0.000004 -0.999999
vn 0.087629 -0.000003 -0.996153
vn 0.065003 -0.000004 -0.997885
vn -0.067287 -0.000004 -0.997734
vn -0.066399 -0.000004 -0.997793
vn 0.049966 0.015964 -0.998623
vn 0.109026 0.034836 -0.993428
vn 0.000006 0.000000 -1.000000
vn 0.000044 0.000052 -1.000000
vn 0.083145 0.000605 0.996537
vn 0.084256 0.000629 0.996444
vn 0.327493 0.000574 -0.944853
vn 0.328479 0.000577 -0.944511
vn 0.329110 0.000566 -0.944292
s 1
g FoodTallRUpperLeg
usemtl Delete:blinn4SG
f 1/2/1 51/1/2 52/7/3 5/8/4
f 2/4/5 3/3/6 7/9/7 6/10/8
f 3/3/6 4/5/9 8/11/10 7/9/7
f 4/5/9 61/6/11 62/12/12 8/11/10
f 5/8/4 52/7/3 53/13/13 9/14/14
f 6/10/8 7/9/7 11/15/15 10/16/16
f 7/9/7 8/11/10 12/17/17 11/15/15
f 8/11/10 62/12/12 63/18/18 12/17/17
f 9/14/14 53/13/13 54/19/19 13/20/20
f 10/16/16 11/15/15 15/21/21 14/22/22
f 11/15/15 12/17/17 16/23/23 15/21/21
f 12/17/17 63/18/18 64/24/24 16/23/23
f 13/20/20 54/19/19 55/25/25 17/26/26
f 14/22/22 15/21/21 19/27/27 18/28/28
f 15/21/21 16/23/23 20/29/29 19/27/27
f 16/23/23 64/24/24 65/30/30 20/29/29
f 17/26/26 55/25/25 56/31/31 21/32/32
f 18/28/28 19/27/27 23/33/33 22/34/34
f 19/27/27 20/29/29 24/35/35 23/33/33
f 20/29/29 65/30/30 66/36/36 24/35/35
f 21/32/32 56/31/31 57/37/37 25/38/38
f 22/34/34 23/33/33 27/39/39 26/40/40
f 23/33/33 24/35/35 28/41/41 27/39/39
f 24/35/35 66/36/36 67/42/42 28/41/41
f 25/38/38 57/37/37 58/43/43 29/44/44
f 26/40/40 27/39/39 31/45/45 30/46/46
f 27/39/39 28/41/41 32/47/47 31/45/45
f 28/41/41 67/42/42 68/48/48 32/47/47
f 29/44/44 58/43/43 59/49/49 33/50/50
f 30/46/46 31/45/45 35/51/51 34/52/52
f 31/45/45 32/47/47 36/53/53 35/51/51
f 32/47/47 68/48/48 69/54/54 36/53/53
f 33/50/50 59/49/49 75/55/55 37/56/56
f 34/52/52 35/51/51 73/57/57 74/58/58
f 35/51/51 36/53/53 72/59/59 73/57/57
f 36/53/53 69/54/54 71/60/60 72/59/59
f 51/1/2 103/129/61 104/130/62 2/4/5
f 52/7/3 51/1/2 2/4/5 6/10/8
f 53/13/13 52/7/3 6/10/8 10/16/16
f 54/19/19 53/13/13 10/16/16 14/22/22
f 55/25/25 54/19/19 14/22/22 18/28/28
f 56/31/31 55/25/25 18/28/28 22/34/34
f 57/37/37 56/31/31 22/34/34 26/40/40
f 58/43/43 57/37/37 26/40/40 30/46/46
f 59/49/49 58/43/43 30/46/46 34/52/52
f 75/55/55 59/49/49 34/52/52 74/58/58
f 61/6/11 107/133/63 41/61/64
f 62/12/12 61/6/11 41/61/64 42/62/65
f 63/18/18 62/12/12 42/62/65 43/63/66
f 64/24/24 63/18/18 43/63/66 44/64/67
f 65/30/30 64/24/24 44/64/67 45/65/68
f 66/36/36 65/30/30 45/65/68 46/66/69
f 67/42/42 66/36/36 46/66/69 47/67/70
f 68/48/48 67/42/42 47/67/70 48/68/71
f 69/54/54 68/48/48 48/68/71 49/69/72
f 71/60/60 69/54/54 49/69/72 50/70/73
f 70/71/74 71/60/60 50/70/73
f 72/59/59 71/60/60 70/71/74 40/72/75
f 73/57/57 72/59/59 40/72/75 39/73/76
f 74/58/58 73/57/57 39/73/76 38/74/77
f 60/75/78 75/55/55 74/58/58 38/74/77
f 37/56/56 75/55/55 60/75/78
s 3
f 76/76/79 79/80/80 80/81/81 77/77/82
f 77/77/82 80/81/81 81/82/83 78/78/84
f 78/78/84 81/82/83 42/83/85 41/79/86
f 79/80/80 82/84/87 83/85/88 80/81/81
f 80/81/81 83/85/88 84/86/89 81/82/83
f 81/82/83 84/86/89 43/87/90 42/83/85
f 82/84/87 85/88/91 86/89/92 83/85/88
f 83/85/88 86/89/92 87/90/93 84/86/89
f 84/86/89 87/90/93 44/91/94 43/87/90
f 85/88/91 88/92/95 89/93/96 86/89/92
f 86/89/92 89/93/96 90/94/97 87/90/93
f 87/90/93 90/94/97 45/95/98 44/91/94
f 88/92/95 91/96/99 92/97/100 89/93/96
f 89/93/96 92/97/100 93/98/101 90/94/97
f 90/94/97 93/98/101 46/99/102 45/95/98
f 91/96/99 94/100/103 95/101/104 92/97/100
f 92/97/100 95/101/104 96/102/105 93/98/101
f 93/98/101 96/102/105 47/103/106 46/99/102
f 94/100/103 97/104/107 98/105/108 95/101/104
f 95/101/104 98/105/108 99/106/109 96/102/105
f 96/102/105 99/106/109 48/107/110 47/103/106
f 97/104/107 100/108/111 101/109/112 98/105/108
f 98/105/108 101/109/112 102/110/113 99/106/109
f 99/106/109 102/110/113 49/111/114 48/107/110
f 100/108/111 38/112/115 39/113/116 101/109/112
f 101/109/112 39/113/116 40/114/117 102/110/113
f 102/110/113 40/114/117 50/115/118 49/111/114
f 1/116/119 76/76/79 104/135/120 103/128/121
f 5/117/122 79/80/80 76/76/79 1/116/119
f 9/118/123 82/84/87 79/80/80 5/117/122
f 13/119/124 85/88/91 82/84/87 9/118/123
f 17/120/125 88/92/95 85/88/91 13/119/124
f 21/121/126 91/96/99 88/92/95 17/120/125
f 25/122/127 94/100/103 91/96/99 21/121/126
f 29/123/128 97/104/107 94/100/103 25/122/127
f 33/124/129 100/108/111 97/104/107 29/123/128
f 37/125/130 38/112/115 100/108/111 33/124/129
f 40/114/117 70/126/131 50/115/118
f 60/127/132 38/112/115 37/125/130
s 1
f 103/129/61 51/1/2 1/2/1
f 104/130/62 105/131/133 3/3/6 2/4/5
f 105/131/133 106/132/134 4/5/9 3/3/6
f 106/132/134 107/133/63 61/6/11 4/5/9
s 3
f 105/136/135 104/135/120 76/76/79 77/77/82
f 106/137/136 105/136/135 77/77/82 78/78/84
f 107/134/137 106/137/136 78/78/84 41/79/86
