# This file uses centimeters as units for non-parametric coordinates.

mtllib PancakesShortLUpperArm.mtl
g default
v 0.476727 0.394465 -0.073205
v 0.605987 0.227612 -0.068823
v 0.538292 -0.013200 -0.062485
v 0.492436 -0.231276 -0.056747
v 0.134329 0.456616 0.162335
v 0.134387 0.223234 0.179646
v 0.134340 -0.023925 0.084083
v 0.134299 -0.235423 0.001933
v -0.245394 0.303197 0.341423
v -0.245375 0.104624 0.257647
v -0.245594 -0.051541 0.067553
v -0.245785 -0.186460 -0.097161
v -0.625199 0.141243 0.367562
v -0.625262 0.016454 0.235816
v -0.625675 -0.019729 0.029392
v -0.626169 -0.062671 -0.217683
v -1.004942 0.030553 0.386824
v -1.005266 0.029686 0.249242
v -1.005790 0.028288 0.027441
v -1.006410 0.026629 -0.235675
v 0.445190 -0.407793 -0.052101
v 0.134176 -0.353516 -0.151437
v -0.246112 -0.206899 -0.280209
v -0.626812 0.001000 -0.437071
v -1.006891 0.025347 -0.439106
v 0.537530 0.345635 -0.071923
v 0.134416 0.377323 0.238986
v -0.245248 0.196461 0.369157
v -0.625054 0.034682 0.339205
v 0.485420 -0.374393 -0.052981
v 0.134277 -0.357067 -0.045473
v -0.245891 -0.262088 -0.189685
v -0.626506 -0.091595 -0.385416
v 0.446913 -0.370120 0.046943
v 0.453896 -0.228394 0.043215
v 0.499767 -0.009518 0.037455
v 0.567551 0.233099 0.031070
v 0.499766 0.355953 0.027842
v 0.134292 0.259297 0.086378
v 0.134245 0.012216 -0.009158
v 0.134204 -0.199214 -0.091284
v -0.245564 0.181893 0.194172
v -0.245784 0.025777 0.004137
v -0.245973 -0.109098 -0.160527
v -0.625498 0.114951 0.218554
v -0.625910 0.078781 0.012193
v -0.626405 0.035855 -0.234804
vt 0.455739 0.648229
vt 0.459293 0.643784
vt 0.458728 0.646567
vt 0.467993 0.638742
vt 0.485741 0.643730
vt 0.485663 0.646569
vt 0.467782 0.641574
vt 0.501812 0.647109
vt 0.501793 0.649949
vt 0.512350 0.647627
vt 0.512229 0.650464
vt 0.449844 0.673496
vt 0.453258 0.673496
vt 0.456085 0.701496
vt 0.452672 0.701495
vt 0.465411 0.673497
vt 0.484927 0.673498
vt 0.484835 0.701498
vt 0.466715 0.701497
vt 0.501642 0.673498
vt 0.500520 0.701498
vt 0.511253 0.673499
vt 0.509319 0.701498
vt 0.461761 0.729497
vt 0.458348 0.729497
vt 0.484927 0.729498
vt 0.469488 0.729498
vt 0.503404 0.729498
vt 0.515935 0.729499
vt 0.458452 0.757497
vt 0.484927 0.757498
vt 0.468584 0.757498
vt 0.504312 0.757498
vt 0.519292 0.757499
vt 0.514738 0.650545
vt 0.513838 0.673499
vt 0.511904 0.701499
vt 0.518519 0.729500
vt 0.465411 0.673497
vt 0.466715 0.701497
vt 0.484835 0.701498
vt 0.484927 0.673498
vt 0.500520 0.701498
vt 0.501642 0.673498
vt 0.469488 0.729498
vt 0.484927 0.729498
vt 0.503404 0.729498
vt 0.468584 0.757498
vt 0.484927 0.757498
vt 0.504312 0.757498
vt 0.467993 0.638759
vt 0.459293 0.643784
vt 0.455739 0.648229
vt 0.452672 0.701495
vt 0.449844 0.673496
vt 0.458348 0.729497
vt 0.456744 0.757497
vt 0.514738 0.650545
vt 0.512350 0.647627
vt 0.501806 0.647127
vt 0.511904 0.701499
vt 0.513838 0.673499
vt 0.518519 0.729500
vt 0.520584 0.757499
vt 0.485737 0.643751
vn 0.411106 0.792592 0.450322
vn 0.508772 0.325237 0.797102
vn 0.806355 0.529991 0.262491
vn 0.935278 -0.005757 0.353867
vn 0.492860 -0.128385 0.860585
vn 0.350701 -0.218109 0.910734
vn 0.908048 -0.216250 0.358727
vn 0.195385 -0.183032 0.963496
vn 0.923994 -0.127779 0.360426
vn 0.026901 -0.551485 0.833751
vn 0.923345 -0.130170 0.361234
vn 0.315973 0.710469 0.628805
vn 0.089487 0.317520 0.944020
vn 0.257220 -0.341397 0.904039
vn 0.387064 0.138662 0.911567
vn 0.303735 -0.357830 0.883008
vn 0.210802 -0.726184 0.654385
vn -0.048484 -0.766794 0.640059
vn 0.094173 -0.395368 0.913683
vn -0.298095 -0.754449 0.584762
vn -0.154133 -0.388740 0.908363
vn -0.358395 -0.920438 0.156034
vn -0.287292 -0.767850 0.572599
vn 0.029463 -0.069113 0.997174
vn 0.120822 -0.785251 0.607275
vn 0.028427 -0.962285 0.270554
vn -0.133060 -0.959544 0.248134
vn -0.284455 -0.934968 0.211946
vn -0.258641 -0.948019 -0.185375
vn 0.005239 -0.987172 0.159575
vn -0.051760 -0.995094 0.084309
vn -0.134081 -0.987167 0.086742
vn -0.218503 -0.972307 0.082919
vn -0.263417 -0.964098 0.033554
vn -0.112801 -0.978469 0.172841
vn -0.078727 -0.806103 -0.586515
vn -0.187083 -0.974218 -0.126093
vn -0.018279 -0.602528 -0.797888
vn -0.320425 0.337786 -0.885002
vn -0.086275 0.383488 -0.919507
vn 0.047205 0.766906 -0.640021
vn -0.243175 0.726956 -0.642185
vn 0.168381 0.371917 -0.912867
vn 0.319953 0.745166 -0.585113
vn -0.008769 0.967980 -0.250876
vn -0.181631 0.945359 -0.270753
vn 0.166206 0.959648 -0.226828
vn -0.127251 0.988114 -0.086241
vn -0.212179 0.973276 -0.087831
vn -0.035413 0.995520 -0.087674
vn -0.284241 0.149037 -0.947098
vn -0.429267 0.024555 -0.902844
vn -0.000048 -0.026288 -0.999654
vn -0.383412 0.681431 -0.623415
vn -0.448316 0.301798 -0.841386
vn -0.276165 0.920588 -0.276137
vn -0.254379 0.962843 -0.090690
vn 0.207264 0.129690 -0.969651
vn 0.070449 0.160654 -0.984493
vn -0.000048 -0.026299 -0.999654
vn 0.293479 0.337353 -0.894462
vn 0.441474 0.711588 -0.546574
vn 0.234522 0.949760 -0.207256
vn 0.020152 0.995850 -0.088751
vn -0.139178 0.194865 -0.970905
s 1
g FoodShortLUpperArm
usemtl Delete:blinn4SG
f 1/1/1 38/3/2 26/2/3
f 2/4/4 37/7/5 36/6/6 3/5/7
f 3/5/7 36/6/6 35/9/8 4/8/9
f 4/8/9 35/9/8 34/11/10 30/10/11
f 5/12/12 9/15/13 28/14/14 27/13/15
f 6/16/16 10/19/17 11/18/18 7/17/19
f 7/17/19 11/18/18 12/21/20 8/20/21
f 8/20/21 12/21/20 32/23/22 31/22/23
f 9/15/13 13/25/24 29/24/25 28/14/14
f 10/19/17 14/27/26 15/26/27 11/18/18
f 11/18/18 15/26/27 16/28/28 12/21/20
f 12/21/20 16/28/28 33/29/29 32/23/22
f 13/25/24 17/30/30 29/24/25
f 14/27/26 18/32/31 19/31/32 15/26/27
f 15/26/27 19/31/32 20/33/33 16/28/28
f 16/28/28 20/33/33 25/34/34 33/29/29
f 26/2/3 38/3/2 37/7/5 2/4/4
f 28/14/14 10/19/17 6/16/16 27/13/15
f 29/24/25 14/27/26 10/19/17 28/14/14
f 17/30/30 18/32/31 14/27/26 29/24/25
f 30/10/11 34/11/10 21/35/35
f 32/23/22 23/37/36 22/36/37 31/22/23
f 33/29/29 24/38/38 23/37/36 32/23/22
f 25/34/34 24/38/38 33/29/29
f 34/11/10 31/22/23 22/36/37 21/35/35
f 35/9/8 8/20/21 31/22/23 34/11/10
f 36/6/6 7/17/19 8/20/21 35/9/8
f 37/7/5 6/16/16 7/17/19 36/6/6
f 38/3/2 27/13/15 6/16/16 37/7/5
f 1/1/1 5/12/12 27/13/15 38/3/2
s 3
f 39/39/39 40/42/40 43/41/41 42/40/42
f 40/42/40 41/44/43 44/43/44 43/41/41
f 42/40/42 43/41/41 46/46/45 45/45/46
f 43/41/41 44/43/44 47/47/47 46/46/45
f 45/45/46 46/46/45 19/49/48 18/48/49
f 46/46/45 47/47/47 20/50/50 19/49/48
f 2/51/51 1/53/52 26/52/53
f 9/54/54 5/55/55 39/39/39 42/40/42
f 13/56/56 9/54/54 42/40/42 45/45/46
f 17/57/57 13/56/56 45/45/46 18/48/49
f 21/58/58 4/60/59 30/59/60
f 44/43/44 41/44/43 22/62/61 23/61/62
f 47/47/47 44/43/44 23/61/62 24/63/63
f 20/50/50 47/47/47 24/63/63 25/64/64
f 41/44/43 4/60/59 21/58/58 22/62/61
f 3/65/65 4/60/59 41/44/43 40/42/40
f 2/51/51 3/65/65 40/42/40 39/39/39
f 5/55/55 1/53/52 2/51/51 39/39/39
