# This file uses centimeters as units for non-parametric coordinates.

mtllib PancakesTallLLowerLeg.mtl
g default
v -0.742412 0.378718 0.046782
v -0.762588 0.236771 0.021274
v -0.739015 -0.003181 0.051946
v -0.750708 -0.247685 0.035338
v -0.757975 0.426460 0.235202
v -0.845909 0.239807 0.192364
v -0.845909 -0.003181 0.192363
v -0.845909 -0.222723 0.192362
v -0.902195 0.411940 0.393871
v -0.926232 0.232944 0.298980
v -0.926232 -0.002641 0.298979
v -0.926232 -0.265135 0.298978
v -1.181034 0.377592 0.414943
v -1.126223 0.215957 0.333585
v -1.126223 -0.003181 0.333585
v -1.126223 -0.254880 0.333584
v -1.364322 0.402585 0.137302
v -1.266673 0.227803 0.126667
v -1.266673 -0.003181 0.126667
v -1.266673 -0.226887 0.126666
v -1.214115 0.369433 -0.182699
v -1.144944 0.211639 -0.112972
v -1.144944 -0.003373 -0.112973
v -1.144944 -0.259159 -0.112974
v -0.870684 0.386157 -0.293764
v -0.880444 0.222060 -0.195954
v -0.880444 -0.003180 -0.195954
v -0.880444 -0.252911 -0.195955
v -0.496594 0.457683 -0.262087
v -0.510241 0.252608 -0.164607
v -0.510241 -0.003180 -0.164608
v -0.510241 -0.249307 -0.164609
v -0.119345 0.461066 -0.258971
v -0.132992 0.257724 -0.161491
v -0.132992 -0.002202 -0.161492
v -0.132992 -0.214993 -0.161492
v 0.251081 0.410154 -0.207114
v 0.237435 0.234275 -0.109634
v 0.237435 -0.001323 -0.109635
v 0.237435 -0.236381 -0.109636
v 0.614684 0.389480 -0.106517
v 0.601038 0.222323 -0.009038
v 0.601038 -0.003180 -0.009038
v 0.601038 -0.253591 -0.009039
v 0.985110 0.452805 -0.054660
v 0.971463 0.273595 0.042820
v 0.971463 0.000188 0.042819
v 0.971463 -0.235108 0.042818
v 1.275655 0.381803 -0.063682
v 1.325819 0.210063 -0.056660
v 1.367982 -0.006019 -0.050758
v 1.443875 -0.234304 -0.040134
v -0.738881 -0.411678 0.052155
v -0.757975 -0.389178 0.235199
v -0.902195 -0.476434 0.393869
v -1.181034 -0.462083 0.414941
v -1.364322 -0.396167 0.137300
v -1.214115 -0.464773 -0.182702
v -0.870684 -0.456822 -0.293767
v -0.496594 -0.438851 -0.262090
v -0.119345 -0.366009 -0.258973
v 0.251081 -0.419769 -0.207117
v 0.614684 -0.454384 -0.106520
v 0.985110 -0.410056 -0.054663
v 1.325159 -0.408899 -0.056754
v -0.829574 -0.245265 0.088816
v -0.822069 -0.003181 0.098890
v -0.837102 0.237043 0.080495
v -0.756467 0.340550 0.028219
v -0.833240 0.345433 0.084575
v -0.845909 0.392762 0.192364
v -0.926232 0.378242 0.298980
v -1.126223 0.343896 0.333586
v -1.266673 0.368887 0.126668
v -1.144944 0.335735 -0.112972
v -0.880444 0.352459 -0.195953
v -0.510241 0.423985 -0.164607
v -0.132992 0.427368 -0.161490
v 0.237435 0.376456 -0.109634
v 0.601038 0.355781 -0.009037
v 0.971463 0.419107 0.042820
v 1.314665 0.339196 -0.058221
v -0.750708 -0.370287 0.035337
v -0.829574 -0.367874 0.088816
v -0.845909 -0.345374 0.192362
v -0.926232 -0.432629 0.298978
v -1.126223 -0.418278 0.333583
v -1.266673 -0.352363 0.126666
v -1.144944 -0.420967 -0.112974
v -0.880444 -0.413016 -0.195956
v -0.510241 -0.395047 -0.164609
v -0.132992 -0.322205 -0.161493
v 0.237435 -0.375965 -0.109636
v 0.601038 -0.410580 -0.009040
v 0.971463 -0.366252 0.042818
v 1.380870 -0.369152 -0.048955
v 1.330022 -0.368875 0.043318
v 1.393026 -0.234370 0.052138
v 1.317138 -0.005405 0.041515
v 1.275614 0.217021 0.035703
v 1.264886 0.348142 0.034201
v -0.757975 0.239806 0.235201
v -0.757975 -0.003181 0.235200
v -0.757975 -0.222724 0.235200
v -0.902195 0.232944 0.393871
v -0.902195 -0.002641 0.393870
v -0.902195 -0.265135 0.393869
v -1.181034 0.215957 0.414943
v -1.181034 -0.003182 0.414942
v -1.181034 -0.254881 0.414941
v -1.364322 0.227802 0.137302
v -1.364322 -0.003181 0.137301
v -1.364322 -0.226887 0.137300
v -1.214115 0.211639 -0.182699
v -1.214115 -0.003373 -0.182700
v -1.214115 -0.259159 -0.182701
v -0.870684 0.222061 -0.293765
v -0.870684 -0.003180 -0.293766
v -0.870684 -0.252911 -0.293766
v -0.496594 0.252608 -0.262088
v -0.496594 -0.003180 -0.262089
v -0.496594 -0.249306 -0.262089
v -0.119345 0.257724 -0.258971
v -0.119345 -0.002202 -0.258972
v -0.119345 -0.214993 -0.258973
v 0.251081 0.234275 -0.207115
v 0.251081 -0.001323 -0.207115
v 0.251081 -0.236380 -0.207116
v 0.614684 0.222323 -0.106518
v 0.614684 -0.003180 -0.106519
v 0.614684 -0.253591 -0.106520
v 0.985110 0.273595 -0.054661
v 0.985110 0.000188 -0.054662
v 0.985110 -0.235108 -0.054663
vt 0.281292 0.646606
vt 0.284151 0.643538
vt 0.283838 0.646183
vt 0.291900 0.642302
vt 0.309851 0.647513
vt 0.309928 0.650212
vt 0.291947 0.644901
vt 0.328182 0.644760
vt 0.328046 0.647445
vt 0.337381 0.644713
vt 0.337218 0.647446
vt 0.277777 0.673510
vt 0.280301 0.673496
vt 0.281390 0.701497
vt 0.278793 0.701511
vt 0.291740 0.673498
vt 0.309927 0.673498
vt 0.309887 0.701498
vt 0.292254 0.701498
vt 0.326360 0.673498
vt 0.329529 0.701499
vt 0.335533 0.673499
vt 0.342050 0.701500
vt 0.283960 0.729497
vt 0.281346 0.729506
vt 0.309927 0.729498
vt 0.293526 0.729498
vt 0.328764 0.729498
vt 0.340982 0.729499
vt 0.282083 0.757497
vt 0.279591 0.757493
vt 0.309927 0.757498
vt 0.292637 0.757498
vt 0.326669 0.757498
vt 0.336051 0.757499
vt 0.284562 0.785497
vt 0.282017 0.785488
vt 0.309942 0.785498
vt 0.293847 0.785498
vt 0.329085 0.785498
vt 0.341182 0.785500
vt 0.283312 0.813497
vt 0.280883 0.813474
vt 0.309927 0.813498
vt 0.293067 0.813498
vt 0.328619 0.813498
vt 0.340592 0.813499
vt 0.277968 0.841496
vt 0.275660 0.841477
vt 0.309927 0.841498
vt 0.290785 0.841497
vt 0.328350 0.841498
vt 0.339252 0.841499
vt 0.277722 0.869496
vt 0.275363 0.869464
vt 0.309855 0.869498
vt 0.290403 0.869497
vt 0.325783 0.869498
vt 0.333805 0.869498
vt 0.281534 0.897497
vt 0.279127 0.897460
vt 0.309789 0.897498
vt 0.292159 0.897497
vt 0.327384 0.897498
vt 0.337825 0.897499
vt 0.283074 0.925498
vt 0.280771 0.925442
vt 0.309927 0.925498
vt 0.293051 0.925498
vt 0.328672 0.925498
vt 0.340415 0.925499
vt 0.278336 0.953497
vt 0.276153 0.953435
vt 0.309675 0.953498
vt 0.289211 0.953498
vt 0.327289 0.953498
vt 0.337100 0.953498
vt 0.283639 0.975160
vt 0.281411 0.974872
vt 0.310094 0.979110
vt 0.293447 0.975971
vt 0.327232 0.984845
vt 0.337300 0.980085
vt 0.340335 0.647471
vt 0.338742 0.673505
vt 0.345222 0.701503
vt 0.344121 0.729492
vt 0.339272 0.757480
vt 0.344366 0.785478
vt 0.343781 0.813471
vt 0.342408 0.841460
vt 0.337045 0.869452
vt 0.341061 0.897447
vt 0.343611 0.925440
vt 0.340380 0.953436
vt 0.340343 0.978598
vt 0.337323 0.982690
vt 0.327244 0.987402
vt 0.310150 0.981756
vt 0.293992 0.978641
vt 0.284422 0.977836
vt 0.291740 0.673498
vt 0.292254 0.701498
vt 0.309887 0.701498
vt 0.309927 0.673498
vt 0.329529 0.701499
vt 0.326360 0.673498
vt 0.293526 0.729498
vt 0.309927 0.729498
vt 0.328764 0.729498
vt 0.292637 0.757498
vt 0.309927 0.757498
vt 0.326669 0.757498
vt 0.293847 0.785498
vt 0.309942 0.785498
vt 0.329085 0.785498
vt 0.293067 0.813498
vt 0.309927 0.813498
vt 0.328619 0.813498
vt 0.290785 0.841497
vt 0.309927 0.841498
vt 0.328350 0.841498
vt 0.290403 0.869497
vt 0.309855 0.869498
vt 0.325783 0.869498
vt 0.292159 0.897497
vt 0.309789 0.897498
vt 0.327384 0.897498
vt 0.293051 0.925498
vt 0.309927 0.925498
vt 0.328672 0.925498
vt 0.289211 0.953498
vt 0.309675 0.953498
vt 0.327289 0.953498
vt 0.293962 0.978702
vt 0.310137 0.981885
vt 0.327210 0.987598
vt 0.309931 0.647447
vt 0.328224 0.644736
vt 0.291974 0.642168
vt 0.284265 0.643665
vt 0.281355 0.646600
vt 0.277796 0.673497
vt 0.278883 0.701496
vt 0.281450 0.729497
vt 0.279579 0.757497
vt 0.282054 0.785497
vt 0.280805 0.813498
vt 0.275462 0.841497
vt 0.275215 0.869495
vt 0.279024 0.897495
vt 0.280567 0.925494
vt 0.275834 0.953480
vt 0.281142 0.974862
vt 0.340477 0.647524
vt 0.337381 0.644930
vt 0.338799 0.673519
vt 0.345318 0.701504
vt 0.344247 0.729500
vt 0.339319 0.757499
vt 0.344446 0.785500
vt 0.343856 0.813499
vt 0.342514 0.841498
vt 0.337071 0.869498
vt 0.341089 0.897500
vt 0.343677 0.925499
vt 0.340365 0.953497
vt 0.340282 0.978664
vt 0.337191 0.982637
vt 0.284337 0.977617
vn -0.349746 0.860919 -0.369454
vn -0.593383 0.147155 -0.791354
vn -0.793888 0.447843 -0.411314
vn -0.572118 -0.068263 -0.817326
vn -0.542281 -0.029888 -0.839665
vn -0.840102 -0.021516 -0.542002
vn -0.869197 -0.044701 -0.492442
vn -0.537850 0.044301 -0.841876
vn -0.825546 0.031255 -0.563468
vn -0.561255 -0.073718 -0.824353
vn -0.790832 -0.529685 -0.306625
vn -0.330627 0.912007 -0.242754
vn -0.681254 0.619434 -0.390121
vn -0.444774 0.581305 -0.681367
vn -0.232830 0.921658 -0.310382
vn -0.910678 -0.007618 -0.413046
vn -0.902183 -0.004121 -0.431333
vn -0.448494 0.000003 -0.893786
vn -0.464436 0.000003 -0.885606
vn -0.896117 0.005995 -0.443778
vn -0.427800 0.000003 -0.903873
vn -0.737741 -0.498884 -0.454811
vn -0.217581 -0.552536 -0.804588
vn 0.317044 0.635900 -0.703644
vn 0.136949 0.961730 -0.237319
vn 0.438494 0.000003 -0.898734
vn 0.446540 0.000003 -0.894764
vn 0.415582 0.000003 -0.909556
vn 0.237442 -0.587670 -0.773476
vn 0.751967 0.657610 -0.045775
vn 0.346681 0.937373 -0.033825
vn 0.999122 0.000000 -0.041902
vn 0.998951 0.000000 -0.045800
vn 0.999183 0.000000 -0.040419
vn 0.828007 -0.560006 -0.028235
vn 0.527451 0.599762 0.601731
vn 0.218060 0.953695 0.207163
vn 0.637571 -0.000002 0.770392
vn 0.645379 -0.000002 0.763863
vn 0.626099 -0.000002 0.779744
vn 0.476948 -0.550130 0.685476
vn -0.003337 0.507910 0.861404
vn -0.111349 0.940862 0.319968
vn 0.077986 -0.000003 0.996954
vn 0.068038 -0.000003 0.997683
vn 0.084569 -0.000003 0.996418
vn 0.102420 -0.477490 0.872647
vn -0.087464 0.466755 0.880051
vn -0.101510 0.944045 0.313807
vn -0.046104 -0.000003 0.998937
vn -0.044080 -0.000003 0.999028
vn -0.048666 -0.000003 0.998815
vn 0.012304 -0.479351 0.877537
vn -0.031057 0.474365 0.879780
vn 0.036911 0.942870 0.331110
vn -0.072257 -0.000003 0.997386
vn -0.071150 -0.000003 0.997466
vn -0.072328 -0.000003 0.997381
vn -0.048533 -0.472766 0.879851
vn -0.129586 0.479124 0.868129
vn 0.027167 0.943592 0.329996
vn -0.203458 -0.000003 0.979084
vn -0.199967 -0.000003 0.979803
vn -0.207708 -0.000003 0.978191
vn -0.240219 -0.491621 0.837021
vn -0.205705 0.454505 0.866666
vn -0.116920 0.943579 0.309820
vn -0.202096 -0.000003 0.979366
vn -0.200997 -0.000003 0.979592
vn -0.203726 -0.000003 0.979028
vn -0.171232 -0.475659 0.862802
vn -0.055768 0.534174 0.843533
vn -0.000778 0.945782 0.324802
vn -0.071843 0.008258 0.997382
vn -0.067598 0.004692 0.997702
vn -0.076204 0.001103 0.997092
vn -0.043348 -0.443370 0.895290
vn 0.270793 0.410073 0.870926
vn 0.267875 0.900300 0.343077
vn 0.198460 0.070979 0.977536
vn 0.219648 0.042129 0.974669
vn 0.263779 0.011934 0.964509
vn 0.114362 -0.435314 0.892986
vn -0.475689 -0.879225 -0.026162
vn -0.189604 -0.932512 -0.307362
vn -0.067299 -0.870723 -0.487147
vn 0.109435 -0.893183 -0.436174
vn 0.316126 -0.948530 -0.018825
vn 0.242588 -0.886606 0.393802
vn 0.064592 -0.908599 0.412645
vn 0.091990 -0.903557 0.418477
vn -0.012344 -0.912716 0.408409
vn -0.188023 -0.905445 0.380547
vn -0.076071 -0.913436 0.399811
vn 0.025133 -0.914743 0.403255
vn 0.033592 -0.921107 0.387858
vn 0.774139 -0.466993 0.427349
vn 0.875355 0.038341 0.481958
vn 0.851391 0.244803 0.463903
vn 0.871715 0.144911 0.468096
vn 0.873901 0.164417 0.457454
vn 0.918192 0.001932 0.396132
vn 0.403246 -0.000003 0.915092
vn 0.389501 -0.000003 0.921026
vn 0.915401 0.006636 0.402488
vn 0.374198 -0.000003 0.927349
vn 0.906536 -0.001124 0.422128
vn -0.481987 -0.000003 0.876179
vn -0.473655 -0.000003 0.880711
vn -0.459840 -0.000003 0.888002
vn -0.998294 -0.000000 0.058386
vn -0.998471 -0.000000 0.055283
vn -0.998530 -0.000000 0.054201
vn -0.661458 0.000002 -0.749982
vn -0.654203 0.000002 -0.756319
vn -0.645495 0.000002 -0.763765
vn -0.098097 0.000003 -0.995177
vn -0.106733 0.000003 -0.994288
vn -0.113009 0.000003 -0.993594
vn 0.044524 0.000003 -0.999008
vn 0.046305 0.000003 -0.998927
vn 0.048461 0.000003 -0.998825
vn 0.071394 0.000003 -0.997448
vn 0.072257 0.000003 -0.997386
vn 0.072510 0.000003 -0.997368
vn 0.200391 0.000003 -0.979716
vn 0.203458 0.000003 -0.979084
vn 0.207022 0.000003 -0.978336
vn 0.201351 0.000003 -0.979519
vn 0.202096 0.000003 -0.979366
vn 0.203679 0.000003 -0.979038
vn 0.069594 -0.007924 -0.997544
vn 0.075323 -0.007932 -0.997128
vn 0.078042 0.003260 -0.996945
vn -0.004376 -0.014799 -0.999881
vn 0.013830 -0.016441 -0.999769
vn 0.019773 0.002671 -0.999801
vn 0.998553 0.013847 0.051968
vn 0.997790 0.002546 0.066396
vn 0.999378 0.005869 0.034784
vn 0.804819 -0.007748 -0.593470
vn 0.997451 -0.063754 0.032045
vn 0.903398 -0.028877 0.427830
vn 0.425958 -0.000003 0.904743
vn -0.474984 -0.000003 0.879994
vn -0.998078 -0.000000 0.061965
vn -0.667741 0.000002 -0.744394
vn -0.082187 0.000003 -0.996617
vn 0.041818 0.000003 -0.999125
vn 0.068163 0.000003 -0.997674
vn 0.196371 0.000003 -0.980530
vn 0.200890 0.000003 -0.979614
vn 0.067947 -0.010247 -0.997636
vn -0.020896 -0.022984 -0.999518
vn 0.997539 0.038679 0.058482
vn 0.818014 0.000002 -0.575199
vn 0.892717 0.016687 0.450308
vn 0.329452 -0.000003 0.944172
vn -0.414514 -0.000003 0.910043
vn -0.998370 -0.000000 0.057069
vn -0.623890 0.000002 -0.781512
vn -0.118455 0.000003 -0.992959
vn 0.052001 0.000003 -0.998647
vn 0.071829 0.000003 -0.997417
vn 0.212595 0.000003 -0.977141
vn 0.204645 0.000003 -0.978836
vn 0.079710 0.020316 -0.996611
vn 0.016175 0.042008 -0.998986
vn 0.138640 0.000003 -0.990343
vn 0.138643 0.000005 -0.990342
s 1
g FoodTallLLowerLeg
usemtl Delete:blinn4SG
f 1/1/1 69/2/2 70/3/3
f 2/4/4 3/5/5 67/6/6 68/7/7
f 3/5/5 4/8/8 66/9/9 67/6/6
f 4/8/8 83/10/10 84/11/11 66/9/9
f 5/12/12 71/13/13 72/14/14 9/15/15
f 6/16/16 7/17/17 11/18/18 10/19/19
f 7/17/17 8/20/20 12/21/21 11/18/18
f 8/20/20 85/22/22 86/23/23 12/21/21
f 9/15/15 72/14/14 73/24/24 13/25/25
f 10/19/19 11/18/18 15/26/26 14/27/27
f 11/18/18 12/21/21 16/28/28 15/26/26
f 12/21/21 86/23/23 87/29/29 16/28/28
f 13/25/25 73/24/24 74/30/30 17/31/31
f 14/27/27 15/26/26 19/32/32 18/33/33
f 15/26/26 16/28/28 20/34/34 19/32/32
f 16/28/28 87/29/29 88/35/35 20/34/34
f 17/31/31 74/30/30 75/36/36 21/37/37
f 18/33/33 19/32/32 23/38/38 22/39/39
f 19/32/32 20/34/34 24/40/40 23/38/38
f 20/34/34 88/35/35 89/41/41 24/40/40
f 21/37/37 75/36/36 76/42/42 25/43/43
f 22/39/39 23/38/38 27/44/44 26/45/45
f 23/38/38 24/40/40 28/46/46 27/44/44
f 24/40/40 89/41/41 90/47/47 28/46/46
f 25/43/43 76/42/42 77/48/48 29/49/49
f 26/45/45 27/44/44 31/50/50 30/51/51
f 27/44/44 28/46/46 32/52/52 31/50/50
f 28/46/46 90/47/47 91/53/53 32/52/52
f 29/49/49 77/48/48 78/54/54 33/55/55
f 30/51/51 31/50/50 35/56/56 34/57/57
f 31/50/50 32/52/52 36/58/58 35/56/56
f 32/52/52 91/53/53 92/59/59 36/58/58
f 33/55/55 78/54/54 79/60/60 37/61/61
f 34/57/57 35/56/56 39/62/62 38/63/63
f 35/56/56 36/58/58 40/64/64 39/62/62
f 36/58/58 92/59/59 93/65/65 40/64/64
f 37/61/61 79/60/60 80/66/66 41/67/67
f 38/63/63 39/62/62 43/68/68 42/69/69
f 39/62/62 40/64/64 44/70/70 43/68/68
f 40/64/64 93/65/65 94/71/71 44/70/70
f 41/67/67 80/66/66 81/72/72 45/73/73
f 42/69/69 43/68/68 47/74/74 46/75/75
f 43/68/68 44/70/70 48/76/76 47/74/74
f 44/70/70 94/71/71 95/77/77 48/76/76
f 45/73/73 81/72/72 101/78/78 49/79/79
f 46/75/75 47/74/74 99/80/80 100/81/81
f 47/74/74 48/76/76 98/82/82 99/80/80
f 48/76/76 95/77/77 97/83/83 98/82/82
f 66/9/9 84/11/11 85/22/22 8/20/20
f 67/6/6 66/9/9 8/20/20 7/17/17
f 68/7/7 67/6/6 7/17/17 6/16/16
f 1/1/1 70/3/3 71/13/13 5/12/12
f 69/2/2 2/4/4 68/7/7 70/3/3
f 71/13/13 70/3/3 68/7/7 6/16/16
f 72/14/14 71/13/13 6/16/16 10/19/19
f 73/24/24 72/14/14 10/19/19 14/27/27
f 74/30/30 73/24/24 14/27/27 18/33/33
f 75/36/36 74/30/30 18/33/33 22/39/39
f 76/42/42 75/36/36 22/39/39 26/45/45
f 77/48/48 76/42/42 26/45/45 30/51/51
f 78/54/54 77/48/48 30/51/51 34/57/57
f 79/60/60 78/54/54 34/57/57 38/63/63
f 80/66/66 79/60/60 38/63/63 42/69/69
f 81/72/72 80/66/66 42/69/69 46/75/75
f 101/78/78 81/72/72 46/75/75 100/81/81
f 83/10/10 53/84/84 84/11/11
f 85/22/22 84/11/11 53/84/84 54/85/85
f 86/23/23 85/22/22 54/85/85 55/86/86
f 87/29/29 86/23/23 55/86/86 56/87/87
f 88/35/35 87/29/29 56/87/87 57/88/88
f 89/41/41 88/35/35 57/88/88 58/89/89
f 90/47/47 89/41/41 58/89/89 59/90/90
f 91/53/53 90/47/47 59/90/90 60/91/91
f 92/59/59 91/53/53 60/91/91 61/92/92
f 93/65/65 92/59/59 61/92/92 62/93/93
f 94/71/71 93/65/65 62/93/93 63/94/94
f 95/77/77 94/71/71 63/94/94 64/95/95
f 97/83/83 95/77/77 64/95/95 65/96/96
f 96/97/97 97/83/83 65/96/96
f 98/82/82 97/83/83 96/97/97 52/98/98
f 99/80/80 98/82/82 52/98/98 51/99/99
f 100/81/81 99/80/80 51/99/99 50/100/100
f 82/101/101 101/78/78 100/81/81 50/100/100
f 49/79/79 101/78/78 82/101/101
s 3
f 102/102/102 105/103/103 106/104/104 103/105/105
f 103/105/105 106/104/104 107/106/106 104/107/107
f 105/103/103 108/108/108 109/109/109 106/104/104
f 106/104/104 109/109/109 110/110/110 107/106/106
f 108/108/108 111/111/111 112/112/112 109/109/109
f 109/109/109 112/112/112 113/113/113 110/110/110
f 111/111/111 114/114/114 115/115/115 112/112/112
f 112/112/112 115/115/115 116/116/116 113/113/113
f 114/114/114 117/117/117 118/118/118 115/115/115
f 115/115/115 118/118/118 119/119/119 116/116/116
f 117/117/117 120/120/120 121/121/121 118/118/118
f 118/118/118 121/121/121 122/122/122 119/119/119
f 120/120/120 123/123/123 124/124/124 121/121/121
f 121/121/121 124/124/124 125/125/125 122/122/122
f 123/123/123 126/126/126 127/127/127 124/124/124
f 124/124/124 127/127/127 128/128/128 125/125/125
f 126/126/126 129/129/129 130/130/130 127/127/127
f 127/127/127 130/130/130 131/131/131 128/128/128
f 129/129/129 132/132/132 133/133/133 130/130/130
f 130/130/130 133/133/133 134/134/134 131/131/131
f 132/132/132 50/135/135 51/136/136 133/133/133
f 133/133/133 51/136/136 52/137/137 134/134/134
f 3/138/138 103/105/105 104/107/107 4/139/139
f 2/140/140 102/102/102 103/105/105 3/138/138
f 2/140/140 69/141/141 1/142/142
f 5/143/143 102/102/102 2/140/140 1/142/142
f 9/144/144 105/103/103 102/102/102 5/143/143
f 13/145/145 108/108/108 105/103/103 9/144/144
f 17/146/146 111/111/111 108/108/108 13/145/145
f 21/147/147 114/114/114 111/111/111 17/146/146
f 25/148/148 117/117/117 114/114/114 21/147/147
f 29/149/149 120/120/120 117/117/117 25/148/148
f 33/150/150 123/123/123 120/120/120 29/149/149
f 37/151/151 126/126/126 123/123/123 33/150/150
f 41/152/152 129/129/129 126/126/126 37/151/151
f 45/153/153 132/132/132 129/129/129 41/152/152
f 50/135/135 132/132/132 45/153/153 49/154/154
f 53/155/155 83/156/156 4/139/139
f 104/107/107 54/157/157 53/155/155 4/139/139
f 107/106/106 55/158/158 54/157/157 104/107/107
f 110/110/110 56/159/159 55/158/158 107/106/106
f 113/113/113 57/160/160 56/159/159 110/110/110
f 116/116/116 58/161/161 57/160/160 113/113/113
f 119/119/119 59/162/162 58/161/161 116/116/116
f 122/122/122 60/163/163 59/162/162 119/119/119
f 125/125/125 61/164/164 60/163/163 122/122/122
f 128/128/128 62/165/165 61/164/164 125/125/125
f 131/131/131 63/166/166 62/165/165 128/128/128
f 134/134/134 64/167/167 63/166/166 131/131/131
f 65/168/168 64/167/167 134/134/134 52/137/137
f 96/169/169 65/168/168 52/137/137
f 82/170/170 50/135/135 49/154/154
