# This file uses centimeters as units for non-parametric coordinates.

mtllib PancakesMediumRUpperLeg.mtl
g default
v -1.242982 0.243209 -0.004566
v -1.225681 0.019797 -0.039643
v -1.217030 -0.246724 -0.081489
v -0.762060 0.346242 0.062227
v -0.762060 0.194436 0.139617
v -0.762060 -0.003469 0.108544
v -0.762060 -0.263445 0.067726
v -0.382061 0.380816 0.067657
v -0.382061 0.210541 0.142148
v -0.382061 -0.003469 0.108547
v -0.382061 -0.251391 0.069621
v -0.002059 0.346041 0.011587
v -0.002060 0.198378 0.089628
v -0.002060 0.009170 0.059921
v -0.002060 -0.270289 0.016044
v 0.377940 0.277625 0.000847
v 0.377939 0.168815 0.084988
v 0.377939 0.004286 0.059156
v 0.377940 -0.267152 0.016539
v 0.757940 0.401495 0.070911
v 0.757940 0.226268 0.144624
v 0.757940 -0.003469 0.108553
v 0.757940 -0.255236 0.069024
v 1.137939 0.464231 0.101008
v 1.137939 0.246299 0.168016
v 1.137939 -0.006571 0.128314
v 1.137939 -0.255800 0.089183
v 1.517938 0.378794 0.117963
v 1.517939 0.226511 0.094054
v 1.517939 0.004286 0.059163
v 1.517939 -0.220325 0.023897
v -0.762059 -0.464279 -0.065031
v -0.382060 -0.443113 -0.061706
v -0.002059 -0.498877 -0.121071
v 0.377940 -0.489123 -0.119538
v 0.757941 -0.445877 -0.062133
v 1.137940 -0.435793 -0.040302
v 1.517939 -0.371407 0.000176
v 1.137939 0.409512 0.193642
v 0.757940 0.346775 0.163544
v 0.377939 0.222906 0.093481
v -0.002060 0.291322 0.104221
v -0.382061 0.326097 0.160291
v -0.762061 0.291523 0.154860
v -1.209585 0.340574 0.010722
v 1.137940 -0.414329 0.064293
v 0.757941 -0.424412 0.042462
v 0.377940 -0.467659 -0.014942
v -0.002059 -0.477413 -0.016476
v -0.382061 -0.421648 0.042890
v -0.762060 -0.442815 0.039564
v -1.176175 -0.427283 -0.109837
v -1.150819 0.375199 0.016158
v -1.163565 0.322412 0.109095
v -1.196951 0.225257 0.093841
v -1.179584 0.004286 0.059147
v -1.170938 -0.261572 0.017406
v -1.130086 -0.441933 -0.010912
v -1.121920 -0.462590 -0.115380
v -0.762060 0.209947 0.040827
v -0.762060 0.012041 0.009755
v -0.762059 -0.247934 -0.031063
v -0.382061 0.226052 0.043358
v -0.382061 0.012041 0.009757
v -0.382060 -0.235880 -0.029169
v -0.002059 0.213889 -0.009162
v -0.002059 0.024680 -0.038869
v -0.002059 -0.254778 -0.082746
v 0.377940 0.184326 -0.013801
v 0.377940 0.019797 -0.039634
v 0.377940 -0.251641 -0.082251
v 0.757941 0.241779 0.045834
v 0.757941 0.012041 0.009764
v 0.757941 -0.239725 -0.029766
v 1.137940 0.261810 0.069226
v 1.137940 0.008939 0.029524
v 1.137940 -0.240289 -0.009607
vt 0.198704 0.643916
vt 0.205948 0.641456
vt 0.207666 0.673498
vt 0.200428 0.673497
vt 0.222427 0.642735
vt 0.222427 0.673498
vt 0.242254 0.643373
vt 0.241816 0.673498
vt 0.255696 0.646384
vt 0.258167 0.647164
vt 0.257713 0.673670
vt 0.255187 0.673499
vt 0.206465 0.701498
vt 0.197855 0.701496
vt 0.222427 0.701498
vt 0.240918 0.701498
vt 0.256245 0.701648
vt 0.253608 0.701499
vt 0.207951 0.729498
vt 0.201030 0.729496
vt 0.222063 0.729498
vt 0.242904 0.729498
vt 0.260932 0.729643
vt 0.258341 0.729499
vt 0.210155 0.757498
vt 0.206123 0.757498
vt 0.222427 0.757498
vt 0.242669 0.757498
vt 0.260172 0.757632
vt 0.257614 0.757499
vt 0.205292 0.785498
vt 0.196309 0.785497
vt 0.222427 0.785498
vt 0.241205 0.785498
vt 0.256468 0.785628
vt 0.253814 0.785498
vt 0.203567 0.813498
vt 0.191404 0.813496
vt 0.222427 0.813498
vt 0.241015 0.813498
vt 0.255450 0.813617
vt 0.252831 0.813498
vt 0.205852 0.841498
vt 0.194508 0.841516
vt 0.222427 0.841498
vt 0.239178 0.841498
vt 0.250411 0.841549
vt 0.188538 0.813542
vt 0.193488 0.785560
vt 0.203240 0.757565
vt 0.198158 0.729567
vt 0.195029 0.701572
vt 0.197499 0.673581
vt 0.195877 0.644960
vt 0.198473 0.640731
vt 0.205727 0.638307
vt 0.222380 0.639548
vt 0.242237 0.640200
vt 0.255658 0.643173
vt 0.207666 0.673498
vt 0.206465 0.701498
vt 0.222427 0.701498
vt 0.222427 0.673498
vt 0.240918 0.701498
vt 0.241816 0.673498
vt 0.207951 0.729498
vt 0.222063 0.729498
vt 0.242904 0.729498
vt 0.210155 0.757498
vt 0.222427 0.757498
vt 0.242669 0.757498
vt 0.205292 0.785498
vt 0.222427 0.785498
vt 0.241205 0.785498
vt 0.203567 0.813498
vt 0.222427 0.813498
vt 0.241015 0.813498
vt 0.205852 0.841498
vt 0.222427 0.841498
vt 0.239178 0.841498
vt 0.193054 0.841495
vt 0.188496 0.813496
vt 0.193405 0.785500
vt 0.203206 0.757498
vt 0.198123 0.729495
vt 0.194952 0.701496
vt 0.197522 0.673498
vt 0.251803 0.841499
vt 0.255572 0.813498
vt 0.256559 0.785498
vt 0.260359 0.757499
vt 0.261086 0.729500
vt 0.256353 0.701502
vt 0.257925 0.673512
vt 0.205789 0.638094
vt 0.195947 0.644857
vt 0.222434 0.639350
vt 0.242302 0.639983
vt 0.258361 0.647034
vt 0.255681 0.643159
vt 0.198639 0.640707
vn -0.182270 0.408967 0.894161
vn -0.337618 -0.131425 0.932063
vn -0.061593 -0.153428 0.986238
vn -0.059982 0.405136 0.912287
vn -0.309856 -0.160965 0.937059
vn -0.063269 -0.156496 0.985650
vn -0.328081 -0.176598 0.927996
vn -0.064844 -0.158289 0.985261
vn -0.256208 -0.515340 0.817791
vn -0.066182 -0.978970 0.192973
vn 0.009905 -0.980027 0.198618
vn -0.045451 -0.544268 0.837679
vn 0.064899 -0.154780 0.985815
vn 0.056313 0.444790 0.893863
vn 0.066059 -0.154768 0.985740
vn 0.067512 -0.154753 0.985644
vn -0.033700 -0.979030 0.200910
vn 0.045327 -0.512723 0.857357
vn 0.073171 -0.154691 0.985250
vn 0.151103 0.489698 0.858699
vn 0.066590 -0.154763 0.985705
vn 0.063538 -0.154794 0.985902
vn -0.040033 -0.978801 0.200863
vn 0.023419 -0.559049 0.828804
vn -0.070483 -0.154721 0.985441
vn -0.110261 0.454312 0.883993
vn -0.066055 -0.154768 0.985740
vn -0.063123 -0.154798 0.985928
vn 0.050965 -0.978313 0.200764
vn -0.020475 -0.551803 0.833723
vn -0.084948 -0.154546 0.984327
vn -0.206413 0.397788 0.893957
vn -0.090367 -0.154472 0.983856
vn -0.093303 -0.154430 0.983588
vn 0.050079 -0.978357 0.200773
vn -0.054118 -0.540125 0.839843
vn 0.067467 -0.154753 0.985647
vn 0.025384 0.254956 0.966619
vn 0.063531 -0.154794 0.985902
vn 0.061778 -0.154811 0.986011
vn 0.054091 -0.978152 0.200731
vn 0.067626 -0.496151 0.865599
vn 0.181157 -0.152540 0.971552
vn 0.186255 -0.103091 0.977078
vn 0.181157 -0.152540 0.971552
vn 0.181157 -0.152540 0.971552
vn 0.185153 -0.202868 0.961542
vn -0.071436 0.858804 0.507299
vn -0.267628 0.829597 0.490045
vn -0.097022 0.856942 0.506200
vn 0.159577 0.849969 0.502083
vn 0.038342 0.860370 0.508226
vn -0.036681 0.862571 0.504605
vn -0.025289 0.866956 0.497743
vn -0.825996 0.340674 0.449078
vn -0.906850 -0.023662 0.420789
vn -0.907300 -0.112191 0.405241
vn -0.903685 -0.159974 0.397193
vn -0.873295 -0.330754 0.357712
vn 0.058917 0.148948 -0.987088
vn -0.065008 0.154779 -0.985808
vn -0.066059 0.154768 -0.985740
vn 0.059876 0.156428 -0.985873
vn -0.067311 0.154755 -0.985657
vn 0.061998 0.161297 -0.984957
vn -0.071894 0.154706 -0.985341
vn -0.066590 0.154763 -0.985705
vn -0.063792 0.154791 -0.985886
vn 0.069684 0.154730 -0.985496
vn 0.066055 0.154768 -0.985740
vn 0.063406 0.154795 -0.985910
vn 0.085996 0.154532 -0.984238
vn 0.090367 0.154472 -0.983856
vn 0.093123 0.154433 -0.983605
vn 0.065524 0.154774 -0.985775
vn 0.065419 0.154775 -0.985782
vn 0.064984 0.154779 -0.985810
vn 0.078708 0.154626 -0.984833
vn 0.078708 0.154626 -0.984833
vn 0.078708 0.154626 -0.984833
vn 0.065338 0.154776 -0.985787
vn 0.078708 0.154626 -0.984833
vn 0.078541 0.154628 -0.984846
vn 0.072157 0.154703 -0.985323
vn -0.079518 0.154616 -0.984770
vn -0.064728 0.154782 -0.985826
vn 0.057732 0.135465 -0.989099
vn 0.078708 0.154626 -0.984833
vn 0.063757 0.154791 -0.985888
vn 0.095678 0.154395 -0.983366
vn 0.059537 0.154832 -0.986145
vn -0.060420 0.154824 -0.986093
vn -0.069844 0.154728 -0.985485
vn 0.065301 0.168783 -0.983488
vn 0.107098 0.145983 -0.983473
vn 0.111258 0.116734 -0.986912
vn 0.106900 0.157117 -0.981777
vn 0.112553 0.164379 -0.979955
vn 0.119724 0.179649 -0.976418
vn 0.000002 0.155107 -0.987898
vn 0.000006 0.155107 -0.987898
s 1
g FoodMediumRUpperLeg
usemtl Delete:blinn4SG
f 54/1/1 55/2/2 5/3/3 44/4/4
f 55/2/2 56/5/5 6/6/6 5/3/3
f 56/5/5 57/7/7 7/8/8 6/6/6
f 58/9/9 59/10/10 32/11/11 51/12/12
f 44/4/4 5/3/3 9/13/13 43/14/14
f 5/3/3 6/6/6 10/15/15 9/13/13
f 6/6/6 7/8/8 11/16/16 10/15/15
f 51/12/12 32/11/11 33/17/17 50/18/18
f 43/14/14 9/13/13 13/19/19 42/20/20
f 9/13/13 10/15/15 14/21/21 13/19/19
f 10/15/15 11/16/16 15/22/22 14/21/21
f 50/18/18 33/17/17 34/23/23 49/24/24
f 42/20/20 13/19/19 17/25/25 41/26/26
f 13/19/19 14/21/21 18/27/27 17/25/25
f 14/21/21 15/22/22 19/28/28 18/27/27
f 49/24/24 34/23/23 35/29/29 48/30/30
f 41/26/26 17/25/25 21/31/31 40/32/32
f 17/25/25 18/27/27 22/33/33 21/31/31
f 18/27/27 19/28/28 23/34/34 22/33/33
f 48/30/30 35/29/29 36/35/35 47/36/36
f 40/32/32 21/31/31 25/37/37 39/38/38
f 21/31/31 22/33/33 26/39/39 25/37/37
f 22/33/33 23/34/34 27/40/40 26/39/39
f 47/36/36 36/35/35 37/41/41 46/42/42
f 39/38/38 25/37/37 29/43/43 28/44/44
f 25/37/37 26/39/39 30/45/45 29/43/43
f 26/39/39 27/40/40 31/46/46 30/45/45
f 46/42/42 37/41/41 38/47/47
f 24/48/48 39/38/38 28/44/44
f 20/49/49 40/32/32 39/38/38 24/48/48
f 16/50/50 41/26/26 40/32/32 20/49/49
f 12/51/51 42/20/20 41/26/26 16/50/50
f 8/52/52 43/14/14 42/20/20 12/51/51
f 4/53/53 44/4/4 43/14/14 8/52/52
f 53/54/54 54/1/1 44/4/4 4/53/53
f 27/40/40 46/42/42 38/47/47 31/46/46
f 23/34/34 47/36/36 46/42/42 27/40/40
f 19/28/28 48/30/30 47/36/36 23/34/34
f 15/22/22 49/24/24 48/30/30 19/28/28
f 11/16/16 50/18/18 49/24/24 15/22/22
f 7/8/8 51/12/12 50/18/18 11/16/16
f 57/7/7 58/9/9 51/12/12 7/8/8
f 53/54/54 45/55/55 54/1/1
f 45/55/55 1/56/56 55/2/2 54/1/1
f 1/56/56 2/57/57 56/5/5 55/2/2
f 2/57/57 3/58/58 57/7/7 56/5/5
f 3/58/58 52/59/59 58/9/9 57/7/7
f 52/59/59 59/10/10 58/9/9
s 3
f 60/60/60 63/61/61 64/62/62 61/63/63
f 61/63/63 64/62/62 65/64/64 62/65/65
f 63/61/61 66/66/66 67/67/67 64/62/62
f 64/62/62 67/67/67 68/68/68 65/64/64
f 66/66/66 69/69/69 70/70/70 67/67/67
f 67/67/67 70/70/70 71/71/71 68/68/68
f 69/69/69 72/72/72 73/73/73 70/70/70
f 70/70/70 73/73/73 74/74/74 71/71/71
f 72/72/72 75/75/75 76/76/76 73/73/73
f 73/73/73 76/76/76 77/77/77 74/74/74
f 75/75/75 29/78/78 30/79/79 76/76/76
f 76/76/76 30/79/79 31/80/80 77/77/77
f 24/82/81 28/81/82 29/78/78 75/75/75
f 20/83/83 24/82/81 75/75/75 72/72/72
f 16/84/84 20/83/83 72/72/72 69/69/69
f 12/85/85 16/84/84 69/69/69 66/66/66
f 8/86/86 12/85/85 66/66/66 63/61/61
f 4/87/87 8/86/86 63/61/61 60/60/60
f 77/77/77 31/80/80 38/88/88 37/89/89
f 74/74/74 77/77/77 37/89/89 36/90/90
f 71/71/71 74/74/74 36/90/90 35/91/91
f 68/68/68 71/71/71 35/91/91 34/92/92
f 65/64/64 68/68/68 34/92/92 33/93/93
f 62/65/65 65/64/64 33/93/93 32/94/94
f 1/95/95 53/96/96 4/87/87 60/60/60
f 2/97/97 1/95/95 60/60/60 61/63/63
f 3/98/98 2/97/97 61/63/63 62/65/65
f 59/99/99 52/100/100 3/98/98
f 53/96/96 1/95/95 45/101/101
f 59/99/99 3/98/98 62/65/65 32/94/94
