# This file uses centimeters as units for non-parametric coordinates.

mtllib SnaxMesh.mtl
g default
v -194.913452 12.290374 -33.975773
v -69.303230 12.290374 -33.975773
v -194.913452 12.290374 -116.143036
v -69.303230 12.290374 -116.143036
v -140.349579 12.290374 70.801491
v -50.130310 12.290374 70.801491
v -140.349579 12.290374 10.576738
v -50.130310 12.290374 10.576738
v -260.152893 11.650698 174.989502
v -204.508636 11.650698 174.989502
v -260.152893 11.650698 69.828117
v -204.508636 11.650698 69.828117
vt 0.140360 0.567119
vt 0.788181 0.567119
vt 0.788181 0.990887
vt 0.140360 0.990887
vt 0.421767 0.239622
vt 0.887063 0.239622
vt 0.887063 0.550225
vt 0.421767 0.550225
vt 0.112982 0.009324
vt 0.399960 0.009324
vt 0.399960 0.551681
vt 0.112982 0.551681
vn 0.000000 1.000000 0.000000
vn 0.000000 1.000000 0.000000
vn 0.000000 1.000000 0.000000
vn 0.000000 1.000000 0.000000
vn 0.000000 1.000000 0.000000
vn 0.000000 1.000000 0.000000
vn 0.000000 1.000000 0.000000
vn 0.000000 1.000000 0.000000
vn 0.000000 1.000000 0.000000
vn 0.000000 1.000000 0.000000
vn 0.000000 1.000000 0.000000
vn 0.000000 1.000000 0.000000
s off
g pPlane4
usemtl lambert3SG
f 1/1/1 2/2/2 4/3/3 3/4/4
f 5/5/5 6/6/6 8/7/7 7/8/8
f 9/9/9 10/10/10 12/11/11 11/12/12
