# This file uses centimeters as units for non-parametric coordinates.

g default
v 0.100764 0.243645 1.156392
v 0.144429 0.110737 1.141718
v 0.100764 -0.015069 1.127044
v -0.004651 -0.026556 1.212058
v -0.110067 -0.002361 1.127044
v -0.153731 0.110737 1.141718
v -0.110067 0.245764 1.156392
v -0.004651 0.251723 1.244591
v 0.404039 0.155021 -2.308795
v 0.477262 -0.005878 -2.308795
v 0.404039 -0.166779 -2.308795
v 0.227262 -0.217548 -2.308795
v -0.388919 -0.166970 -2.322346
v -0.462143 -0.006071 -2.322346
v -0.388920 0.154829 -2.322346
v 0.227262 0.205791 -2.308795
v -0.004651 0.094987 1.293312
v 0.225988 0.061185 -1.479577
v 0.158430 0.218809 -1.479325
v -0.004651 0.268734 -1.479167
v -0.167733 0.218809 -1.479325
v -0.235290 0.061185 -1.479577
v -0.167738 -0.096430 -1.479587
v -0.004651 -0.146345 -1.479498
v 0.158435 -0.096430 -1.479587
v -0.225861 0.201659 -2.322346
v -0.221769 -0.214975 -2.322346
v -0.222601 -0.179313 -1.850954
v -0.388482 -0.130693 -1.851393
v -0.459905 0.029042 -1.851835
v -0.388449 0.188872 -1.851197
v -0.225424 0.236748 -1.851281
v 0.234536 -0.185878 -1.855249
v 0.406858 -0.135549 -1.856662
v 0.478232 0.024130 -1.857175
v 0.406820 0.183916 -1.856461
v 0.234492 0.234505 -1.854992
v 0.349014 0.191488 -1.747874
v 0.179768 0.241857 -1.746842
v 0.179798 -0.176759 -1.747124
v 0.349041 -0.126567 -1.748096
v 0.419142 0.032424 -1.748435
v 0.211274 0.205149 -1.587912
v 0.045111 0.255295 -1.587317
v 0.045125 -0.161552 -1.587623
v 0.211290 -0.111499 -1.588153
v 0.280116 0.046804 -1.588318
v -0.173966 0.243352 -1.744368
v -0.337009 0.194793 -1.744365
v -0.407166 0.035698 -1.744874
v -0.337033 -0.123330 -1.744583
v -0.172083 -0.172382 -1.744260
v -0.053951 0.256042 -1.586080
v -0.217014 0.206801 -1.586157
v -0.285871 0.048442 -1.586537
v -0.217029 -0.109880 -1.586397
v -0.053010 -0.159364 -1.586191
v -0.004651 0.270770 1.109958
v -0.004651 -0.042482 1.073047
v -0.454072 0.101287 1.750705
v -0.528114 0.112020 1.716641
v -0.438683 0.149138 1.770991
v -0.543393 0.162003 1.722208
v -0.528114 0.208231 1.742011
v -0.454072 0.200772 1.776938
v 0.170232 0.222940 1.247659
v 0.212084 0.102518 1.222868
v 0.051464 0.094054 1.312372
v 0.170232 -0.010333 1.219935
v 0.076058 -0.022936 1.282448
v 0.076058 0.203793 1.308303
v 0.544762 0.078519 1.712126
v 0.511916 0.037560 1.707554
v 0.441007 0.066964 1.763904
v 0.460002 0.029860 1.741132
v 0.459884 0.103861 1.760722
v 0.511799 0.116387 1.728416
v 0.180084 0.248047 -0.830618
v 0.029522 0.297017 -0.830400
v -0.121041 0.248047 -0.830618
v -0.183411 0.093429 -0.830615
v -0.121044 -0.061182 -0.830615
v 0.029522 -0.110642 -0.830405
v 0.180088 -0.061182 -0.830615
v 0.242454 0.093429 -0.830615
v 0.133392 0.269020 -0.182894
v -0.004651 0.317037 -0.180651
v -0.142695 0.269020 -0.182894
v -0.199877 0.117409 -0.182884
v -0.142697 -0.034199 -0.182884
v -0.004651 -0.083203 -0.180722
v 0.133395 -0.034199 -0.182884
v 0.190574 0.117409 -0.182884
v 0.082002 0.262654 0.466899
v -0.038726 0.307918 0.467031
v -0.159454 0.262654 0.466899
v -0.209463 0.119726 0.466899
v -0.159455 -0.023199 0.466899
v -0.038726 -0.069894 0.467026
v 0.082003 -0.023199 0.466899
v 0.132011 0.119726 0.466899
v -0.514915 0.143844 1.792153
v 0.516132 0.058577 1.786587
v 0.437517 0.159331 1.528220
v 0.475442 0.088084 1.505558
v 0.437631 0.013166 1.500285
v 0.361315 0.004835 1.550080
v 0.339166 0.074360 1.578358
v 0.361200 0.141626 1.576263
v 0.299036 0.183620 1.367077
v 0.339707 0.095188 1.342224
v 0.299103 0.003907 1.337777
v 0.210373 -0.001534 1.396173
v 0.186509 0.084534 1.426302
v 0.210306 0.166312 1.423575
v -0.331908 0.219832 1.566563
v -0.319528 0.132445 1.576032
v -0.331908 0.052232 1.535942
v -0.424529 0.064999 1.483930
v -0.450514 0.147552 1.493010
v -0.424529 0.227083 1.513542
v -0.179199 0.234868 1.376576
v -0.172146 0.127579 1.406333
v -0.179199 0.029625 1.342866
v -0.288470 0.041627 1.271169
v -0.326678 0.141591 1.284207
v -0.288470 0.240115 1.303771
v 0.504854 0.065331 -2.175710
v 0.504854 -0.007339 -2.199730
v 0.504854 -0.075710 -2.165330
v 0.504854 -0.099731 -2.092661
v 0.504854 -0.065331 -2.024291
v 0.504854 0.007339 -2.000269
v 0.504854 0.075709 -2.034669
v 0.504854 0.099730 -2.107338
v -0.504854 0.065331 -2.175710
v -0.504854 -0.007339 -2.199730
v -0.504854 -0.075710 -2.165330
v -0.504854 -0.099731 -2.092661
v -0.504854 -0.065331 -2.024291
v -0.504854 0.007339 -2.000269
v -0.504854 0.075709 -2.034669
v -0.504854 0.099730 -2.107338
v 0.504854 0.000000 -2.100000
v -0.504854 0.000000 -2.100000
vt 0.134669 0.397740
vt 0.145804 0.398307
vt 0.149495 0.453294
vt 0.136962 0.454314
vt 0.067999 0.654834
vt 0.057429 0.653814
vt 0.057856 0.599209
vt 0.070432 0.599836
vt 0.048454 0.660237
vt 0.048621 0.649123
vt 0.039254 0.653749
vt 0.029610 0.654747
vt 0.105972 0.400090
vt 0.116882 0.398406
vt 0.115759 0.455067
vt 0.103309 0.454980
vt 0.023857 0.599551
vt 0.036389 0.599050
vt 0.076309 0.691232
vt 0.125200 0.391138
vt 0.078996 0.691667
vt 0.076428 0.695550
vt 0.125981 0.402048
vt 0.098106 0.365527
vt 0.098155 0.362410
vt 0.100704 0.364323
vt 0.183285 0.255027
vt 0.150349 0.253756
vt 0.154782 0.240733
vt 0.195021 0.314918
vt 0.228467 0.313206
vt 0.225171 0.327378
vt 0.212755 0.333813
vt 0.199747 0.328679
vt 0.153629 0.362284
vt 0.153971 0.358547
vt 0.156014 0.362473
vt 0.148108 0.620152
vt 0.163017 0.620012
vt 0.166377 0.629357
vt 0.151863 0.630548
vt 0.133316 0.620306
vt 0.137382 0.628915
vt 0.017595 0.697898
vt 0.167775 0.235562
vt 0.021233 0.694837
vt 0.180209 0.241963
vt 0.022810 0.697309
vt 0.025672 0.398717
vt 0.184623 0.292372
vt 0.012478 0.399216
vt 0.014438 0.363245
vt 0.027937 0.363110
vt 0.038687 0.399768
vt 0.041207 0.363734
vt 0.065464 0.432965
vt 0.050856 0.432668
vt 0.054265 0.424034
vt 0.068132 0.422584
vt 0.229208 0.251080
vt 0.080069 0.434252
vt 0.081836 0.424820
vt 0.107632 0.655625
vt 0.196276 0.252788
vt 0.120691 0.653816
vt 0.123882 0.690867
vt 0.036187 0.432130
vt 0.033885 0.421855
vt 0.047988 0.423696
vt 0.021484 0.433308
vt 0.196997 0.243322
vt 0.110600 0.692278
vt 0.094117 0.657188
vt 0.096818 0.694263
vt 0.103633 0.621935
vt 0.118559 0.621451
vt 0.115720 0.631753
vt 0.100946 0.631473
vt 0.129986 0.629318
vt 0.019712 0.423864
vt 0.151732 0.291128
vt 0.077353 0.399816
vt 0.162488 0.654226
vt 0.175626 0.655087
vt 0.174370 0.689616
vt 0.064720 0.400937
vt 0.185712 0.326860
vt 0.062058 0.368492
vt 0.075208 0.367869
vt 0.160943 0.688322
vt 0.089711 0.400288
vt 0.087872 0.367905
vt 0.074972 0.407772
vt 0.062151 0.409987
vt 0.087692 0.409569
vt 0.149059 0.652824
vt 0.146945 0.687449
vt 0.146162 0.643286
vt 0.159677 0.645879
vt 0.173271 0.645211
vt 0.027908 0.406991
vt 0.014453 0.408651
vt 0.041175 0.409176
vt 0.109696 0.647088
vt 0.047090 0.598991
vt 0.036379 0.670519
vt 0.028863 0.667107
vt 0.122988 0.644097
vt 0.095699 0.647286
vt 0.126325 0.454837
vt 0.102046 0.387851
vt 0.107470 0.385957
vt 0.113871 0.382713
vt 0.048259 0.669805
vt 0.039046 0.677128
vt 0.022368 0.666698
vt 0.069211 0.661066
vt 0.126940 0.381365
vt 0.116906 0.377658
vt 0.138823 0.390025
vt 0.147000 0.391744
vt 0.061465 0.661934
vt 0.054701 0.665062
vt 0.050825 0.670851
vt 0.072957 0.670026
vt 0.132160 0.386337
vt 0.129241 0.381037
vt 0.067493 0.670813
vt 0.139936 0.378700
vt 0.145300 0.381217
vt 0.061914 0.673095
vt 0.058249 0.676778
vt 0.136532 0.375817
vt 0.038340 0.488504
vt 0.024012 0.489141
vt 0.150549 0.382740
vt 0.133565 0.564136
vt 0.051986 0.488484
vt 0.147116 0.563871
vt 0.065519 0.488845
vt 0.079691 0.489844
vt 0.119927 0.564702
vt 0.105527 0.565408
vt 0.228991 0.267628
vt 0.195920 0.269342
vt 0.228901 0.277234
vt 0.195690 0.278953
vt 0.229788 0.241621
vt 0.151893 0.300483
vt 0.184756 0.301770
vt 0.185097 0.317514
vt 0.152262 0.316166
vt 0.152905 0.325468
vt 0.036887 0.544320
vt 0.023101 0.544640
vt 0.161425 0.563705
vt 0.129942 0.508819
vt 0.049371 0.544283
vt 0.142235 0.508819
vt 0.061843 0.544181
vt 0.075560 0.545161
vt 0.117662 0.509214
vt 0.103963 0.509689
vt 0.017277 0.693293
vt 0.155940 0.508040
vt 0.096239 0.366072
vt 0.014475 0.693759
vt 0.073592 0.692714
vt 0.072028 0.694561
vt 0.102280 0.363102
vt 0.073124 0.680578
vt 0.151363 0.360888
vt 0.077427 0.680407
vt 0.149882 0.359780
vt 0.068917 0.682662
vt 0.154733 0.372789
vt 0.150825 0.371776
vt 0.065853 0.685419
vt 0.146886 0.369706
vt 0.027791 0.682762
vt 0.143929 0.367865
vt 0.109168 0.370072
vt 0.106116 0.372760
vt 0.101804 0.375016
vt 0.030615 0.687029
vt 0.022348 0.680268
vt 0.017454 0.680118
vt 0.098173 0.376558
vt 0.395582 0.806960
vt 0.402342 0.806892
vt 0.402352 0.960059
vt 0.395596 0.959991
vt 0.409041 0.806694
vt 0.409042 0.960259
vt 0.415686 0.806501
vt 0.415678 0.960455
vt 0.422291 0.806429
vt 0.422278 0.960532
vt 0.428891 0.806505
vt 0.428883 0.960459
vt 0.435527 0.806702
vt 0.435528 0.960266
vt 0.442217 0.806902
vt 0.442227 0.960068
vt 0.448973 0.806969
vt 0.448987 0.960000
vt 0.396932 0.978767
vt 0.399757 0.971946
vt 0.406193 0.978767
vt 0.399757 0.985589
vt 0.406579 0.988414
vt 0.413401 0.985589
vt 0.416226 0.978767
vt 0.413401 0.971946
vt 0.406579 0.969120
vt 0.439839 0.985589
vt 0.433018 0.988414
vt 0.433018 0.978381
vt 0.426196 0.985589
vt 0.423370 0.978767
vt 0.426196 0.971946
vt 0.433018 0.969120
vt 0.439839 0.971946
vt 0.442665 0.978767
vn 0.744842 0.667122 -0.012596
vn 0.993888 0.032661 -0.105450
vn 0.999373 0.004150 0.035155
vn 0.725133 0.687664 0.036063
vn 0.765042 -0.642079 -0.049463
vn 0.728095 -0.684638 0.033874
vn -0.033915 -0.937283 0.346915
vn -0.019143 -0.998934 0.042007
vn -0.711480 -0.702529 0.015800
vn -0.990654 0.038183 -0.130942
vn -0.999531 0.001556 0.030583
vn -0.735925 -0.676348 0.031131
vn -0.674407 0.737748 -0.030067
vn -0.737321 0.674831 0.030995
vn 0.194860 0.848515 0.491988
vn 0.012276 0.998716 0.049148
vn 0.547081 -0.832100 -0.091169
vn 0.969735 0.112889 -0.216493
vn 0.517208 -0.227048 0.825194
vn -0.435965 -0.228131 0.870569
vn 0.243309 -0.893049 0.378502
vn 0.809317 -0.078243 0.582137
vn -0.416289 0.908857 -0.026124
vn 0.392385 0.834309 0.387249
vn 0.388047 0.916425 0.097901
vn 0.000000 0.000000 -1.000000
vn 0.000000 0.000000 -1.000000
vn 0.000000 0.000000 -1.000000
vn 0.000000 0.000000 -1.000000
vn 0.000000 0.000000 -1.000000
vn -0.000000 0.000000 -1.000000
vn -0.000000 0.000000 -1.000000
vn -0.000000 0.000000 -1.000000
vn -0.000000 0.000000 -1.000000
vn -0.000000 0.000000 -1.000000
vn 0.667083 0.744745 -0.018839
vn 0.998531 -0.006036 0.053855
vn 0.803690 -0.001513 0.595046
vn 0.592573 0.728631 0.343444
vn -0.008539 0.999389 -0.033894
vn 0.288814 0.954405 0.075483
vn -0.667646 0.744377 0.012320
vn -0.279809 0.959387 -0.035825
vn -0.278240 0.957956 -0.070019
vn -0.669974 0.740511 -0.052702
vn -0.996499 0.013606 0.082496
vn -0.999800 -0.019391 0.004843
vn -0.672507 -0.731174 0.114536
vn -0.646469 -0.760634 0.059280
vn -0.278380 -0.955216 0.100335
vn -0.277990 -0.957806 0.073003
vn 0.658562 -0.748129 0.081241
vn -0.008609 -0.996480 0.083389
vn 0.277538 -0.917152 0.286016
vn 0.555336 -0.685842 0.470343
vn 0.995554 0.007699 -0.093877
vn 0.996575 0.007778 -0.082327
vn 0.999966 0.008304 -0.000204
vn 0.999966 0.008304 -0.000204
vn -0.827270 0.000375 -0.561805
vn -0.818689 0.000381 -0.574238
vn -0.025935 0.001852 -0.999662
vn -0.011630 0.001860 -0.999931
vn -0.668122 -0.731619 0.135445
vn -0.571976 -0.695491 0.434897
vn -0.279322 -0.923810 0.261829
vn -0.990441 -0.006606 0.137779
vn -0.833328 -0.001123 0.552778
vn -0.680643 0.731334 0.043313
vn -0.604409 0.730682 0.317480
vn -0.288697 0.954711 0.071979
vn 0.840846 0.002220 -0.541269
vn 0.846856 0.002145 -0.531817
vn 0.665640 -0.737206 0.115973
vn 0.278218 -0.955276 0.100213
vn 0.277846 -0.958526 0.063474
vn 0.638148 -0.768340 0.049208
vn 0.995973 0.011019 0.088980
vn 0.999849 -0.017216 -0.002441
vn 0.659516 0.751422 0.020083
vn 0.655683 0.753241 -0.052023
vn 0.279719 0.959613 -0.030010
vn 0.278004 0.958445 -0.064007
vn -0.999872 -0.000057 0.015987
vn -0.997069 -0.000005 -0.076508
vn -0.995916 0.000003 -0.090284
vn -0.999872 -0.000057 0.015987
vn 0.283936 0.948280 0.141938
vn 0.632749 0.653530 0.415364
vn -0.819416 0.000337 -0.573199
vn -0.813921 0.000345 -0.580975
vn 0.601333 -0.628715 0.493068
vn 0.274029 -0.915671 0.294032
vn 0.815667 -0.003331 0.578513
vn -0.646162 0.662381 0.379112
vn -0.284062 0.950485 0.126043
vn -0.844643 -0.003914 0.535316
vn -0.618001 -0.644901 0.449642
vn -0.276369 -0.924711 0.261783
vn 0.838962 0.003503 -0.544179
vn 0.842772 0.003579 -0.538259
vn -0.008439 0.999522 0.029746
vn -0.023828 -0.999247 0.030611
vn 0.132165 -0.909069 0.395129
vn -0.539789 -0.757272 -0.367652
vn 0.267696 -0.166913 0.948936
vn 0.663765 -0.095146 0.741865
vn -0.759744 0.104353 -0.641794
vn -0.425818 0.830064 -0.360101
vn 0.354689 0.819003 0.451033
vn 0.476308 0.863946 -0.163486
vn 0.738287 0.086945 -0.668860
vn 0.479986 -0.793776 -0.373541
vn -0.261188 -0.863328 0.431794
vn -0.577907 -0.101213 0.809802
vn -0.266109 0.712150 0.649637
vn 0.742421 0.103932 -0.661822
vn 0.473877 -0.780040 -0.408631
vn -0.308230 -0.858672 0.409484
vn -0.661973 -0.113558 0.740875
vn -0.373884 0.729825 0.572334
vn 0.409225 0.885080 -0.221741
vn 0.010353 0.999333 -0.035021
vn 0.697413 0.716536 -0.013825
vn -0.682351 0.730866 -0.015248
vn -0.999687 0.001875 0.024939
vn -0.684340 -0.727486 0.049417
vn 0.010409 -0.998607 0.051720
vn 0.699330 -0.713240 0.047189
vn 0.999728 0.001974 0.023229
vn -0.000207 0.999977 -0.006785
vn 0.711134 0.701622 0.044888
vn -0.712092 0.701471 -0.029398
vn -0.999718 0.004010 -0.023406
vn -0.718668 -0.695353 -0.000375
vn -0.000157 -0.999388 0.034986
vn 0.716056 -0.693968 0.075318
vn 0.996674 0.003988 0.081400
vn -0.940597 0.123367 -0.316318
vn -0.637572 -0.765637 -0.085454
vn -0.414381 0.787213 0.456710
vn -0.828079 -0.077165 0.555276
vn -0.322461 -0.893522 0.312470
vn 0.874699 0.089907 -0.476255
vn 0.413751 0.902269 -0.121331
vn 0.524002 -0.799673 -0.293162
vn -0.270912 -0.916739 0.293593
vn -0.769252 -0.120146 0.627548
vn -0.391597 0.808056 0.440110
vn 0.795051 -0.110785 0.596339
vn 0.425286 0.827082 0.367515
vn 0.232286 -0.917280 0.323481
vn -0.567615 -0.798212 -0.201668
vn -0.886448 0.088952 -0.454199
vn -0.432355 0.884167 -0.176970
vn 0.000000 0.653306 -0.757094
vn 0.000000 -0.073392 -0.997303
vn 0.000000 -0.073392 -0.997303
vn 0.000000 0.653306 -0.757094
vn 0.000000 -0.757093 -0.653307
vn 0.000000 -0.757093 -0.653307
vn 0.000000 -0.997303 0.073390
vn 0.000000 -0.997303 0.073390
vn 0.000000 -0.653304 0.757096
vn 0.000000 -0.653304 0.757096
vn 0.000000 0.073389 0.997303
vn 0.000000 0.073389 0.997303
vn 0.000000 0.757091 0.653309
vn 0.000000 0.757091 0.653309
vn 0.000000 0.997303 -0.073389
vn 0.000000 0.997303 -0.073389
vn 1.000000 0.000000 0.000000
vn 1.000000 0.000000 0.000000
vn 1.000000 -0.000000 0.000000
vn 1.000000 0.000000 0.000000
vn 1.000000 0.000000 0.000000
vn 1.000000 -0.000001 0.000000
vn 1.000000 -0.000001 0.000000
vn 1.000000 -0.000000 0.000000
vn 1.000000 -0.000000 0.000000
vn -1.000000 -0.000000 0.000000
vn -1.000000 -0.000001 0.000000
vn -1.000000 -0.000000 0.000000
vn -1.000000 -0.000001 0.000000
vn -1.000000 0.000000 0.000000
vn -1.000000 0.000000 0.000000
vn -1.000000 0.000001 0.000000
vn -1.000000 -0.000000 0.000000
vn -1.000000 -0.000001 0.000000
s 1
g TrapFinger
f 1/1/1 2/2/2 101/3/3 94/4/4
f 2/5/2 3/6/5 100/7/6 101/8/3
f 3/6/5 4/9/7 59/10/8
f 4/9/7 5/11/9 59/10/8
f 5/11/9 6/12/10 97/17/11 98/18/12
f 6/13/10 7/14/13 96/15/14 97/16/11
f 7/14/13 8/20/15 58/23/16
f 8/20/15 1/1/1 58/23/16
f 73/19/17 72/21/18 103/22/19
f 102/44/20 60/46/21 62/48/22
f 64/24/23 102/25/20 65/26/24
f 77/35/25 103/36/19 72/37/18
s off
f 26/27/26 27/28/27 13/29/28 14/45/29 15/47/30
f 12/30/31 16/31/32 9/32/33 10/33/34 11/34/35
s 1
f 19/38/36 18/39/37 47/40/38 43/41/39
f 20/42/40 19/38/36 43/41/39 44/43/41
f 31/63/42 32/65/43 26/66/44 15/72/45
f 30/73/46 31/63/42 15/72/45 14/74/47
f 29/49/48 30/51/46 14/52/47 13/53/49
f 28/54/50 29/49/48 13/53/49 27/55/51
f 25/56/52 24/57/53 45/58/54 46/59/55
f 18/61/37 25/56/52 46/59/55 47/62/38
s 11
f 32/50/56 28/81/57 27/28/58 26/27/59
f 44/60/60 45/64/61 24/71/62 20/148/63
s 1
f 24/57/53 23/67/64 56/68/65 57/69/66
f 23/67/64 22/70/67 55/80/68 56/68/65
f 22/75/67 21/76/69 54/77/70 55/78/68
f 21/76/69 20/42/40 53/79/71 54/77/70
s 11
f 20/87/63 24/153/62 57/152/72 53/151/73
s 1
f 34/82/74 33/86/75 12/88/76 11/89/77
f 35/91/78 34/82/74 11/89/77 10/92/79
f 36/83/80 35/84/78 10/85/79 9/90/81
f 37/96/82 36/83/80 9/90/81 16/97/83
s 11
f 12/30/84 33/147/85 37/146/86 16/31/87
s 1
f 39/98/88 38/99/89 36/83/80 37/96/82
s 11
f 37/146/86 33/147/85 40/145/90 39/144/91
s 1
f 41/93/92 40/94/93 33/86/75 34/82/74
f 42/95/94 41/93/92 34/82/74 35/91/78
f 38/99/89 42/100/94 35/84/78 36/83/80
f 44/43/41 43/41/39 38/99/89 39/98/88
s 11
f 39/144/91 40/145/90 45/64/61 44/60/60
s 1
f 46/59/55 45/58/54 40/94/93 41/93/92
f 47/62/38 46/59/55 41/93/92 42/95/94
f 43/41/39 47/40/38 42/100/94 38/99/89
f 49/104/95 48/108/96 32/65/43 31/63/42
f 50/109/97 49/104/95 31/63/42 30/73/46
f 51/101/98 50/102/97 30/51/46 29/49/48
f 52/103/99 51/101/98 29/49/48 28/54/50
s 11
f 48/150/100 52/149/101 28/81/57 32/50/56
s 1
f 54/77/70 53/79/71 48/108/96 49/104/95
f 55/78/68 54/77/70 49/104/95 50/109/97
f 56/68/65 55/80/68 50/102/97 51/101/98
f 57/69/66 56/68/65 51/101/98 52/103/99
s 11
f 53/151/73 57/152/72 52/149/101 48/150/100
s 1
f 58/23/16 1/1/1 94/4/4 95/110/102
f 7/14/13 58/23/16 95/110/102 96/15/14
f 59/10/8 5/11/9 98/18/12 99/105/103
f 3/6/5 59/10/8 99/105/103 100/7/6
f 5/11/9 4/9/7 124/106/104 125/107/105
f 4/9/7 17/114/106 123/115/107 124/106/104
f 6/12/10 5/11/9 125/107/105 126/116/108
f 7/14/13 6/13/10 126/111/108 127/112/109
f 8/20/15 7/14/13 127/112/109 122/113/110
f 17/118/106 8/20/15 122/113/110 123/119/107
f 2/2/2 1/1/1 66/120/111 67/121/112
f 3/6/5 2/5/2 67/117/112 69/122/113
f 4/9/7 3/6/5 69/122/113 70/123/114
f 17/114/106 4/9/7 70/123/114 68/124/115
f 1/1/1 8/20/15 71/126/116 66/120/111
f 8/20/15 17/118/106 68/127/115 71/126/116
f 69/122/113 67/117/112 111/125/117 112/128/118
f 68/124/115 70/123/114 113/131/119 114/132/120
f 70/123/114 69/122/113 112/128/118 113/131/119
f 66/120/111 71/126/116 115/129/121 110/130/122
f 71/126/116 68/127/115 114/133/120 115/129/121
f 67/121/112 66/120/111 110/130/122 111/136/117
f 79/137/123 78/139/124 19/38/36 20/42/40
f 80/142/125 79/137/123 20/42/40 21/76/69
f 81/143/126 80/142/125 21/76/69 22/75/67
f 82/134/127 81/135/126 22/70/67 23/67/64
f 83/138/128 82/134/127 23/67/64 24/57/53
f 84/140/129 83/138/128 24/57/53 25/56/52
f 85/141/130 84/140/129 25/56/52 18/61/37
f 78/139/124 85/156/130 18/39/37 19/38/36
f 87/157/131 86/159/132 78/139/124 79/137/123
f 88/162/133 87/157/131 79/137/123 80/142/125
f 89/163/134 88/162/133 80/142/125 81/143/126
f 90/154/135 89/155/134 81/135/126 82/134/127
f 91/158/136 90/154/135 82/134/127 83/138/128
f 92/160/137 91/158/136 83/138/128 84/140/129
f 93/161/138 92/160/137 84/140/129 85/141/130
f 86/159/132 93/165/138 85/156/130 78/139/124
f 95/110/102 94/4/4 86/159/132 87/157/131
f 96/15/14 95/110/102 87/157/131 88/162/133
f 97/16/11 96/15/14 88/162/133 89/163/134
f 98/18/12 97/17/11 89/155/134 90/154/135
f 99/105/103 98/18/12 90/154/135 91/158/136
f 100/7/6 99/105/103 91/158/136 92/160/137
f 101/8/3 100/7/6 92/160/137 93/161/138
f 94/4/4 101/3/3 93/165/138 86/159/132
f 64/24/23 63/166/139 102/25/20
f 61/164/140 102/44/20 63/167/139
f 61/164/140 60/46/21 102/44/20
f 65/26/24 102/25/20 62/170/22
f 103/36/19 76/172/141 74/174/142
f 73/19/17 103/22/19 75/168/143
f 77/35/25 76/172/141 103/36/19
f 75/168/143 103/22/19 74/169/142
f 105/176/144 104/177/145 77/35/25 72/37/18
f 106/171/146 105/173/144 72/21/18 73/19/17
f 107/175/147 106/171/146 73/19/17 75/168/143
f 108/178/148 107/175/147 75/168/143 74/169/142
f 109/179/149 108/181/148 74/174/142 76/172/141
f 104/177/145 109/179/149 76/172/141 77/35/25
f 111/136/117 110/130/122 104/177/145 105/176/144
f 112/128/118 111/125/117 105/173/144 106/171/146
f 113/131/119 112/128/118 106/171/146 107/175/147
f 114/132/120 113/131/119 107/175/147 108/178/148
f 115/129/121 114/133/120 108/181/148 109/179/149
f 110/130/122 115/129/121 109/179/149 104/177/145
f 117/182/150 116/183/151 65/26/24 62/170/22
f 118/180/152 117/185/150 62/48/22 60/46/21
f 119/186/153 118/180/152 60/46/21 61/164/140
f 120/187/154 119/186/153 61/164/140 63/167/139
f 121/184/155 120/188/154 63/166/139 64/24/23
f 116/183/151 121/184/155 64/24/23 65/26/24
f 123/119/107 122/113/110 116/183/151 117/182/150
f 124/106/104 123/115/107 117/185/150 118/180/152
f 125/107/105 124/106/104 118/180/152 119/186/153
f 126/116/108 125/107/105 119/186/153 120/187/154
f 127/112/109 126/111/108 120/188/154 121/184/155
f 122/113/110 127/112/109 121/184/155 116/183/151
s 16
f 128/189/156 129/190/157 137/191/158 136/192/159
f 129/190/157 130/193/160 138/194/161 137/191/158
f 130/193/160 131/195/162 139/196/163 138/194/161
f 131/195/162 132/197/164 140/198/165 139/196/163
f 132/197/164 133/199/166 141/200/167 140/198/165
f 133/199/166 134/201/168 142/202/169 141/200/167
f 134/201/168 135/203/170 143/204/171 142/202/169
f 135/203/170 128/205/156 136/206/159 143/204/171
s 17
f 129/207/172 128/208/173 144/209/174
f 130/210/175 129/207/172 144/209/174
f 131/211/176 130/210/175 144/209/174
f 132/212/177 131/211/176 144/209/174
f 133/213/178 132/212/177 144/209/174
f 134/214/179 133/213/178 144/209/174
f 135/215/180 134/214/179 144/209/174
f 128/208/173 135/215/180 144/209/174
s 18
f 136/216/181 137/217/182 145/218/183
f 137/217/182 138/219/184 145/218/183
f 138/219/184 139/220/185 145/218/183
f 139/220/185 140/221/186 145/218/183
f 140/221/186 141/222/187 145/218/183
f 141/222/187 142/223/188 145/218/183
f 142/223/188 143/224/189 145/218/183
f 143/224/189 136/216/181 145/218/183
