# This file uses centimeters as units for non-parametric coordinates.

mtllib JerkySnakpodRLowerCanine.mtl
g default
v 0.086180 1.050905 0.214636
v -0.084863 1.049488 0.222820
v 0.091166 1.062856 0.311976
v -0.093942 1.066701 0.317286
v 0.074918 0.979008 0.335677
v -0.094379 0.978971 0.344748
v 0.378809 0.810028 0.206125
v 0.086626 0.757734 0.167004
v -0.150814 0.752181 0.187738
v -0.500001 0.849495 0.223701
v 0.378257 0.412439 0.093258
v 0.073413 0.388332 0.089846
v -0.202902 0.395287 0.106517
v -0.500312 0.448888 0.107976
v 0.404792 -0.076518 0.145105
v 0.096588 -0.075052 0.142492
v -0.147942 -0.056851 0.135825
v -0.421559 -0.034089 0.110179
v 0.401998 -0.067420 0.005944
v 0.136193 -0.046937 -0.003185
v -0.118320 -0.033951 -0.008237
v -0.423751 -0.024547 -0.033174
v 0.378736 0.429650 -0.038484
v 0.079140 0.412462 -0.045530
v -0.182344 0.429024 -0.033683
v -0.452851 0.490206 -0.031858
v 0.388065 0.866849 0.077916
v 0.079553 0.806795 0.038699
v -0.143488 0.812273 0.061111
v -0.489737 0.912099 0.096471
v -0.482708 -0.039517 0.029445
v -0.541028 0.488904 0.033204
v -0.551141 0.927424 0.180654
v 0.456243 -0.088986 0.079239
v 0.444466 0.443243 0.029486
v 0.448902 0.882099 0.178540
v 0.441038 1.098373 0.264420
v 0.310508 1.123890 0.281277
v 0.373501 1.146157 0.394552
v 0.493576 1.114064 0.376076
v -0.497310 1.128864 0.236688
v -0.356965 1.143418 0.257115
v -0.395301 1.194625 0.370022
v -0.543958 1.163264 0.333182
v 0.406912 1.013919 0.375712
v 0.305174 1.053611 0.404387
v -0.502629 1.058357 0.359686
v -0.364887 1.072566 0.379953
vt 0.784070 0.777499
vt 0.766061 0.932872
vt 0.762585 0.918311
vt 0.779320 0.916973
vt 0.778187 0.932078
vt 0.804756 0.914036
vt 0.805315 0.937717
vt 0.775019 0.893269
vt 0.775864 0.880486
vt 0.793905 0.873327
vt 0.800383 0.966168
vt 0.837629 0.933310
vt 0.836699 0.963163
vt 0.835846 0.906912
vt 0.831040 0.872508
vt 0.879338 0.928724
vt 0.781303 0.792234
vt 0.767642 0.791668
vt 0.769424 0.775597
vt 0.878005 0.775481
vt 0.880276 0.751289
vt 0.876569 0.798519
vt 0.875325 0.825894
vt 0.836554 0.780051
vt 0.881391 0.956187
vt 0.876792 0.906887
vt 0.835636 0.757176
vt 0.835100 0.803079
vt 0.829331 0.822515
vt 0.801656 0.776556
vt 0.797989 0.756564
vt 0.803410 0.796792
vt 0.873989 0.882445
vt 0.792471 0.822625
vt 0.772102 0.756992
vt 0.775204 0.746687
vt 0.771634 0.827518
vt 0.769802 0.815903
vt 0.876675 0.835553
vt 0.829072 0.833370
vt 0.790177 0.834592
vt 0.882478 0.741215
vt 0.834655 0.745723
vt 0.874897 0.871517
vt 0.796146 0.754073
vt 0.827797 0.861129
vt 0.785497 0.866373
vt 0.760193 0.747999
vt 0.769050 0.736153
vt 0.764595 0.835928
vt 0.755872 0.820155
vt 0.882458 0.965663
vt 0.833982 0.972743
vt 0.765786 0.875749
vt 0.763899 0.889929
vt 0.768129 0.958776
vt 0.770817 0.969960
vt 0.776886 0.952094
vt 0.780142 0.962069
vt 0.795054 0.976438
vn -0.058210 0.727992 -0.683110
vn 0.058733 0.724446 -0.686825
vn 0.275700 0.826560 0.490701
vn -0.248307 0.859276 0.447201
vn 0.050028 -0.376512 0.925060
vn -0.025517 -0.398418 0.916849
vn 0.021642 -0.337798 0.940970
vn 0.014884 -0.334591 0.942246
vn 0.011854 -0.223535 0.974624
vn -0.530519 -0.274507 0.801995
vn -0.319274 -0.343827 0.883090
vn 0.230612 -0.381643 0.895079
vn 0.006857 -0.041502 0.999115
vn 0.179796 -0.052549 0.982299
vn 0.005615 -0.077571 0.996971
vn -0.280957 -0.149834 0.947952
vn 0.002047 0.101063 0.994878
vn 0.169619 0.111918 0.979134
vn -0.005088 0.062161 0.998053
vn -0.238981 -0.004456 0.971014
vn 0.282409 -0.076285 -0.956256
vn 0.009269 -0.082894 -0.996515
vn 0.003318 0.061062 -0.998128
vn 0.220407 0.075214 -0.972504
vn 0.009246 -0.049143 -0.998749
vn 0.000546 0.086707 -0.996234
vn -0.162770 -0.031077 -0.986175
vn -0.155633 0.128728 -0.979391
vn -0.008509 0.331724 -0.943338
vn 0.281377 0.326867 -0.902211
vn -0.013411 0.342442 -0.939443
vn -0.216881 0.346175 -0.912757
vn -0.068121 0.871864 -0.484987
vn 0.555262 0.571579 -0.604137
vn -0.301421 0.624078 -0.720883
vn 0.153695 0.792306 -0.590449
vn -0.983878 -0.109609 -0.141315
vn -0.958005 -0.020267 -0.286035
vn -0.984498 0.060315 -0.164700
vn 0.991722 0.019951 -0.126843
vn 0.991325 0.050746 0.121239
vn 0.995525 -0.087443 -0.035818
vn -0.154470 -0.181780 0.971131
vn 0.337864 -0.539004 0.771572
vn -0.045597 0.823046 0.566142
vn 0.913770 0.225791 0.337702
vn -0.816464 0.502107 0.285089
vn 0.121218 0.840417 0.528209
s 1
g FoodRLowerCaninesUnderbite
usemtl blinn4SG
f 1/1/1 2/17/2 4/18/3 3/19/4
f 3/2/4 4/3/3 6/4/5 5/5/6
f 5/5/6 6/4/5 9/6/7 8/7/8
f 6/4/5 48/8/9 9/6/7
f 47/9/10 10/10/11 48/8/9
f 48/8/9 10/10/11 9/6/7
f 7/11/12 8/7/8 12/12/13 11/13/14
f 8/7/8 9/6/7 13/14/15 12/12/13
f 9/6/7 10/10/11 14/15/16 13/14/15
f 11/13/14 12/12/13 16/16/17 15/25/18
f 12/12/13 13/14/15 17/26/19 16/16/17
f 13/14/15 14/15/16 18/33/20 17/26/19
f 19/21/21 20/20/22 24/24/23 23/27/24
f 20/20/22 21/22/25 25/28/26 24/24/23
f 21/22/25 22/23/27 26/29/28 25/28/26
f 23/27/24 24/24/23 28/30/29 27/31/30
f 24/24/23 25/28/26 29/32/31 28/30/29
f 25/28/26 26/29/28 30/34/32 29/32/31
f 28/30/29 1/1/1 27/31/30
f 1/1/1 38/35/33 27/31/30
f 27/31/30 38/35/33 37/36/34
f 28/30/29 29/32/31 2/17/2 1/1/1
f 30/34/32 41/37/35 29/32/31
f 41/37/35 42/38/36 29/32/31
f 29/32/31 42/38/36 2/17/2
f 26/29/28 22/23/27 31/39/37 32/40/38
f 30/34/32 26/29/28 32/40/38 33/41/39
f 32/46/38 31/44/37 18/33/20 14/15/16
f 33/47/39 32/46/38 14/15/16 10/10/11
f 19/21/21 23/27/24 35/43/40 34/42/41
f 23/27/24 27/31/30 36/45/42 35/43/40
f 34/52/41 35/53/40 11/13/14 15/25/18
f 35/53/40 36/60/42 7/11/12 11/13/14
f 5/5/6 8/7/8 46/58/43
f 46/58/43 8/7/8 45/59/44
f 45/59/44 8/7/8 7/11/12
f 37/36/34 38/35/33 39/48/45 40/49/46
f 40/57/46 39/56/45 46/58/43 45/59/44
f 42/38/36 41/37/35 44/50/47 43/51/48
f 43/55/48 44/54/47 47/9/10 48/8/9
f 39/48/45 38/35/33 1/1/1 3/19/4
f 2/17/2 42/38/36 43/51/48 4/18/3
f 39/56/45 3/2/4 5/5/6 46/58/43
f 4/3/3 43/55/48 48/8/9 6/4/5
f 44/50/47 41/37/35 30/34/32 33/41/39
f 44/54/47 33/47/39 10/10/11 47/9/10
f 27/31/30 37/36/34 40/49/46 36/45/42
f 36/60/42 40/57/46 45/59/44 7/11/12
